<svg xmlns="http://www.w3.org/2000/svg" id="Layer_2" data-name="Layer 2" viewBox="0 0 1850 220.84"><defs><style>.cls-1{fill:#a5d6cb;stroke-width:0}</style></defs><g id="z"><g><path d="M1840,101.2h-15c-1.38,0-2.5-1.12-2.5-2.5s1.12-2.5,2.5-2.5h15c1.38,0,2.5,1.12,2.5,2.5s-1.12,2.5-2.5,2.5ZM1805,101.2h-15c-1.38,0-2.5-1.12-2.5-2.5s1.12-2.5,2.5-2.5h15c1.38,0,2.5,1.12,2.5,2.5s-1.12,2.5-2.5,2.5ZM1770,101.2h-15c-1.38,0-2.5-1.12-2.5-2.5s1.12-2.5,2.5-2.5h15c1.38,0,2.5,1.12,2.5,2.5s-1.12,2.5-2.5,2.5ZM1735,101.2h-15c-1.38,0-2.5-1.12-2.5-2.5s1.12-2.5,2.5-2.5h15c1.38,0,2.5,1.12,2.5,2.5s-1.12,2.5-2.5,2.5ZM1700,101.2h-15c-1.38,0-2.5-1.12-2.5-2.5s1.12-2.5,2.5-2.5h15c1.38,0,2.5,1.12,2.5,2.5s-1.12,2.5-2.5,2.5ZM1665,101.2h-15c-1.38,0-2.5-1.12-2.5-2.5s1.12-2.5,2.5-2.5h15c1.38,0,2.5,1.12,2.5,2.5s-1.12,2.5-2.5,2.5ZM1630,101.2h-15c-1.38,0-2.5-1.12-2.5-2.5s1.12-2.5,2.5-2.5h15c1.38,0,2.5,1.12,2.5,2.5s-1.12,2.5-2.5,2.5ZM1595,101.2h-15c-1.38,0-2.5-1.12-2.5-2.5s1.12-2.5,2.5-2.5h15c1.38,0,2.5,1.12,2.5,2.5s-1.12,2.5-2.5,2.5ZM1560,101.2h-15c-1.38,0-2.5-1.12-2.5-2.5s1.12-2.5,2.5-2.5h15c1.38,0,2.5,1.12,2.5,2.5s-1.12,2.5-2.5,2.5ZM1525,101.2h-15c-1.38,0-2.5-1.12-2.5-2.5s1.12-2.5,2.5-2.5h15c1.38,0,2.5,1.12,2.5,2.5s-1.12,2.5-2.5,2.5ZM1490,101.2h-15c-1.38,0-2.5-1.12-2.5-2.5s1.12-2.5,2.5-2.5h15c1.38,0,2.5,1.12,2.5,2.5s-1.12,2.5-2.5,2.5ZM1455,101.2h-15c-1.38,0-2.5-1.12-2.5-2.5s1.12-2.5,2.5-2.5h15c1.38,0,2.5,1.12,2.5,2.5s-1.12,2.5-2.5,2.5ZM1420,101.2h-15c-1.38,0-2.5-1.12-2.5-2.5s1.12-2.5,2.5-2.5h15c1.38,0,2.5,1.12,2.5,2.5s-1.12,2.5-2.5,2.5ZM1385,101.2h-15c-1.38,0-2.5-1.12-2.5-2.5s1.12-2.5,2.5-2.5h15c1.38,0,2.5,1.12,2.5,2.5s-1.12,2.5-2.5,2.5ZM1350,101.2h-15c-1.38,0-2.5-1.12-2.5-2.5s1.12-2.5,2.5-2.5h15c1.38,0,2.5,1.12,2.5,2.5s-1.12,2.5-2.5,2.5ZM1315,101.2h-15c-1.38,0-2.5-1.12-2.5-2.5s1.12-2.5,2.5-2.5h15c1.38,0,2.5,1.12,2.5,2.5s-1.12,2.5-2.5,2.5ZM1280,101.2h-15c-1.38,0-2.5-1.12-2.5-2.5s1.12-2.5,2.5-2.5h15c1.38,0,2.5,1.12,2.5,2.5s-1.12,2.5-2.5,2.5ZM1245,101.2h-15c-1.38,0-2.5-1.12-2.5-2.5s1.12-2.5,2.5-2.5h15c1.38,0,2.5,1.12,2.5,2.5s-1.12,2.5-2.5,2.5ZM1210,101.2h-15c-1.38,0-2.5-1.12-2.5-2.5s1.12-2.5,2.5-2.5h15c1.38,0,2.5,1.12,2.5,2.5s-1.12,2.5-2.5,2.5ZM1175,101.2h-15c-1.38,0-2.5-1.12-2.5-2.5s1.12-2.5,2.5-2.5h15c1.38,0,2.5,1.12,2.5,2.5s-1.12,2.5-2.5,2.5ZM1140,101.2h-15c-1.38,0-2.5-1.12-2.5-2.5s1.12-2.5,2.5-2.5h15c1.38,0,2.5,1.12,2.5,2.5s-1.12,2.5-2.5,2.5ZM1105,101.2h-15c-1.38,0-2.5-1.12-2.5-2.5s1.12-2.5,2.5-2.5h15c1.38,0,2.5,1.12,2.5,2.5s-1.12,2.5-2.5,2.5ZM1070,101.2h-15c-1.38,0-2.5-1.12-2.5-2.5s1.12-2.5,2.5-2.5h15c1.38,0,2.5,1.12,2.5,2.5s-1.12,2.5-2.5,2.5ZM1035,101.2h-15c-1.38,0-2.5-1.12-2.5-2.5s1.12-2.5,2.5-2.5h15c1.38,0,2.5,1.12,2.5,2.5s-1.12,2.5-2.5,2.5ZM1000,101.2h-15c-1.38,0-2.5-1.12-2.5-2.5s1.12-2.5,2.5-2.5h15c1.38,0,2.5,1.12,2.5,2.5s-1.12,2.5-2.5,2.5ZM965,101.2h-15c-1.38,0-2.5-1.12-2.5-2.5s1.12-2.5,2.5-2.5h15c1.38,0,2.5,1.12,2.5,2.5s-1.12,2.5-2.5,2.5ZM930,101.2h-15c-1.38,0-2.5-1.12-2.5-2.5s1.12-2.5,2.5-2.5h15c1.38,0,2.5,1.12,2.5,2.5s-1.12,2.5-2.5,2.5ZM895,101.2h-15c-1.38,0-2.5-1.12-2.5-2.5s1.12-2.5,2.5-2.5h15c1.38,0,2.5,1.12,2.5,2.5s-1.12,2.5-2.5,2.5ZM860,101.2h-15c-1.38,0-2.5-1.12-2.5-2.5s1.12-2.5,2.5-2.5h15c1.38,0,2.5,1.12,2.5,2.5s-1.12,2.5-2.5,2.5ZM825,101.2h-15c-1.38,0-2.5-1.12-2.5-2.5s1.12-2.5,2.5-2.5h15c1.38,0,2.5,1.12,2.5,2.5s-1.12,2.5-2.5,2.5ZM790,101.2h-15c-1.38,0-2.5-1.12-2.5-2.5s1.12-2.5,2.5-2.5h15c1.38,0,2.5,1.12,2.5,2.5s-1.12,2.5-2.5,2.5ZM755,101.2h-15c-1.38,0-2.5-1.12-2.5-2.5s1.12-2.5,2.5-2.5h15c1.38,0,2.5,1.12,2.5,2.5s-1.12,2.5-2.5,2.5ZM720,101.2h-15c-1.38,0-2.5-1.12-2.5-2.5s1.12-2.5,2.5-2.5h15c1.38,0,2.5,1.12,2.5,2.5s-1.12,2.5-2.5,2.5ZM685,101.2h-15c-1.38,0-2.5-1.12-2.5-2.5s1.12-2.5,2.5-2.5h15c1.38,0,2.5,1.12,2.5,2.5s-1.12,2.5-2.5,2.5ZM650,101.2h-15c-1.38,0-2.5-1.12-2.5-2.5s1.12-2.5,2.5-2.5h15c1.38,0,2.5,1.12,2.5,2.5s-1.12,2.5-2.5,2.5ZM615,101.2h-15c-1.38,0-2.5-1.12-2.5-2.5s1.12-2.5,2.5-2.5h15c1.38,0,2.5,1.12,2.5,2.5s-1.12,2.5-2.5,2.5ZM580,101.2h-15c-1.38,0-2.5-1.12-2.5-2.5s1.12-2.5,2.5-2.5h15c1.38,0,2.5,1.12,2.5,2.5s-1.12,2.5-2.5,2.5ZM545,101.2h-15c-1.38,0-2.5-1.12-2.5-2.5s1.12-2.5,2.5-2.5h15c1.38,0,2.5,1.12,2.5,2.5s-1.12,2.5-2.5,2.5ZM510,101.2h-15c-1.38,0-2.5-1.12-2.5-2.5s1.12-2.5,2.5-2.5h15c1.38,0,2.5,1.12,2.5,2.5s-1.12,2.5-2.5,2.5ZM475,101.2h-15c-1.38,0-2.5-1.12-2.5-2.5s1.12-2.5,2.5-2.5h15c1.38,0,2.5,1.12,2.5,2.5s-1.12,2.5-2.5,2.5ZM440,101.2h-15c-1.38,0-2.5-1.12-2.5-2.5s1.12-2.5,2.5-2.5h15c1.38,0,2.5,1.12,2.5,2.5s-1.12,2.5-2.5,2.5ZM405,101.2h-15c-1.38,0-2.5-1.12-2.5-2.5s1.12-2.5,2.5-2.5h15c1.38,0,2.5,1.12,2.5,2.5s-1.12,2.5-2.5,2.5ZM370,101.2h-15c-1.38,0-2.5-1.12-2.5-2.5s1.12-2.5,2.5-2.5h15c1.38,0,2.5,1.12,2.5,2.5s-1.12,2.5-2.5,2.5ZM335,101.2h-15c-1.38,0-2.5-1.12-2.5-2.5s1.12-2.5,2.5-2.5h15c1.38,0,2.5,1.12,2.5,2.5s-1.12,2.5-2.5,2.5ZM300,101.2h-15c-1.38,0-2.5-1.12-2.5-2.5s1.12-2.5,2.5-2.5h15c1.38,0,2.5,1.12,2.5,2.5s-1.12,2.5-2.5,2.5ZM265,101.2h-15c-1.38,0-2.5-1.12-2.5-2.5s1.12-2.5,2.5-2.5h15c1.38,0,2.5,1.12,2.5,2.5s-1.12,2.5-2.5,2.5ZM230,101.2h-15c-1.38,0-2.5-1.12-2.5-2.5s1.12-2.5,2.5-2.5h15c1.38,0,2.5,1.12,2.5,2.5s-1.12,2.5-2.5,2.5ZM195,101.2h-15c-1.38,0-2.5-1.12-2.5-2.5s1.12-2.5,2.5-2.5h15c1.38,0,2.5,1.12,2.5,2.5s-1.12,2.5-2.5,2.5ZM160,101.2h-15c-1.38,0-2.5-1.12-2.5-2.5s1.12-2.5,2.5-2.5h15c1.38,0,2.5,1.12,2.5,2.5s-1.12,2.5-2.5,2.5ZM125,101.2h-15c-1.38,0-2.5-1.12-2.5-2.5s1.12-2.5,2.5-2.5h15c1.38,0,2.5,1.12,2.5,2.5s-1.12,2.5-2.5,2.5ZM90,101.2h-15c-1.38,0-2.5-1.12-2.5-2.5s1.12-2.5,2.5-2.5h15c1.38,0,2.5,1.12,2.5,2.5s-1.12,2.5-2.5,2.5ZM55,101.2h-15c-1.38,0-2.5-1.12-2.5-2.5s1.12-2.5,2.5-2.5h15c1.38,0,2.5,1.12,2.5,2.5s-1.12,2.5-2.5,2.5ZM20,101.2H5c-1.38,0-2.5-1.12-2.5-2.5s1.12-2.5,2.5-2.5h15c1.38,0,2.5,1.12,2.5,2.5s-1.12,2.5-2.5,2.5Z" class="cls-1"/><path d="M1845,220.84H5c-2.76,0-5-2.24-5-5s2.24-5,5-5h1840c2.76,0,5,2.24,5,5s-2.24,5-5,5Z" class="cls-1"/><path d="M1845,10H5C2.24,10,0,7.76,0,5S2.24,0,5,0h1840c2.76,0,5,2.24,5,5s-2.24,5-5,5Z" class="cls-1"/></g></g></svg>