<?xml version="1.0" encoding="UTF-8"?>
<svg id="Layer_2" data-name="Layer 2" xmlns="http://www.w3.org/2000/svg" viewBox="0 0 130.38 137.48">
  <defs>
    <style>
      .cls-1 {
        fill: none;
      }

      .cls-1, .cls-2 {
        stroke-width: 0px;
      }

      .cls-2 {
        fill: #191919;
        fill-rule: evenodd;
      }
    </style>
  </defs>
  <g id="_ÎÓÈ_1" data-name="—ÎÓÈ_1">
    <g>
      <g>
        <polygon class="cls-1" points="126.71 71.96 126.46 75.5 130.11 75.85 130.38 72.13 126.71 71.96"/>
        <path class="cls-2" d="M128.29,75.68c-1-.1-1.77-.97-1.7-1.95.07-.97.96-1.73,1.95-1.69,1.03.04,1.78.91,1.71,1.95-.08,1.03-.95,1.79-1.97,1.69Z"/>
      </g>
      <g>
        <path class="cls-1" d="M125.54,81.86c-.26,1.15-.49,2.31-.77,3.46l3.56.88c.29-1.21.54-2.43.81-3.65l-3.6-.7Z"/>
        <path class="cls-2" d="M126.55,85.77c-.97-.25-1.59-1.22-1.39-2.17.21-.95,1.19-1.57,2.18-1.39,1,.19,1.63,1.16,1.41,2.18-.22,1.01-1.2,1.63-2.19,1.38Z"/>
      </g>
      <g>
        <path class="cls-1" d="M122.93,91.48c-.43,1.1-.8,2.23-1.27,3.31l3.39,1.4c.5-1.14.89-2.33,1.34-3.49l-3.46-1.22Z"/>
        <path class="cls-2" d="M123.35,95.49c-.93-.39-1.37-1.43-1.05-2.35.34-.91,1.39-1.38,2.35-1.05.96.33,1.44,1.39,1.08,2.36-.35.98-1.45,1.43-2.38,1.04Z"/>
      </g>
      <g>
        <path class="cls-1" d="M118.92,100.6c-.57,1.04-1.11,2.09-1.75,3.08l3.15,1.89c.67-1.05,1.25-2.16,1.85-3.25l-3.24-1.72Z"/>
        <path class="cls-2" d="M118.74,104.63c-.87-.53-1.14-1.62-.67-2.47.47-.86,1.57-1.17,2.47-.7.9.47,1.22,1.59.73,2.5-.5.91-1.67,1.19-2.52.66Z"/>
      </g>
      <g>
        <path class="cls-1" d="M113.6,109.01c-.69.96-1.44,1.88-2.19,2.78l2.82,2.35c.8-.96,1.59-1.93,2.32-2.94l-2.94-2.19Z"/>
        <path class="cls-2" d="M112.82,112.97c-.78-.65-.9-1.79-.29-2.54.6-.77,1.72-.92,2.54-.32.81.6.98,1.77.34,2.59-.66.8-1.82.93-2.6.27Z"/>
      </g>
      <g>
        <path class="cls-1" d="M107.06,116.52c-.82.85-1.73,1.61-2.59,2.41l2.42,2.76c.91-.85,1.87-1.66,2.74-2.55l-2.57-2.62Z"/>
        <path class="cls-2" d="M105.68,120.31c-.66-.77-.62-1.92.1-2.58.73-.65,1.86-.63,2.57.09.71.72.71,1.91-.07,2.6-.77.7-1.93.65-2.59-.12Z"/>
      </g>
      <g>
        <path class="cls-1" d="M99.44,122.9c-.99.65-1.93,1.35-2.95,1.95l1.95,3.11c1.07-.64,2.08-1.38,3.12-2.07l-2.12-2.99Z"/>
        <path class="cls-2" d="M97.47,126.41c-.53-.86-.29-1.96.51-2.52.8-.55,1.94-.32,2.53.51.59.82.37,1.97-.49,2.55-.85.6-2.01.33-2.55-.54Z"/>
      </g>
      <g>
        <path class="cls-1" d="M90.89,127.96l-1.59.76c-.54.24-1.09.46-1.63.69l1.41,3.39c.58-.24,1.16-.47,1.73-.73l1.69-.81-1.61-3.3Z"/>
        <path class="cls-2" d="M88.37,131.1c-.39-.94.04-1.99.92-2.38.88-.42,1.95-.02,2.4.89.45.91.05,2.01-.89,2.46-.95.42-2.05-.03-2.43-.96Z"/>
      </g>
      <g>
        <path class="cls-1" d="M81.63,131.54c-1.12.37-2.28.6-3.42.89l.82,3.58c1.21-.31,2.44-.56,3.63-.95l-1.03-3.52Z"/>
        <path class="cls-2" d="M78.62,134.22c-.22-.99.37-1.98,1.31-2.21.95-.21,1.92.3,2.22,1.29.29.96-.28,2.04-1.29,2.27-1.01.25-2.01-.36-2.23-1.35Z"/>
      </g>
      <g>
        <path class="cls-1" d="M71.91,133.51c-1.17.14-2.35.2-3.52.31l.2,3.67c1.25-.11,2.5-.18,3.74-.32l-.42-3.65Z"/>
        <path class="cls-2" d="M68.49,135.65c-.05-1.01.69-1.9,1.66-1.97.97-.07,1.85.66,1.97,1.66.12,1.02-.62,1.93-1.66,2-1.04.08-1.92-.67-1.97-1.68Z"/>
      </g>
      <g>
        <path class="cls-1" d="M61.99,133.82c-1.17-.11-2.35-.17-3.52-.31l-.42,3.65c1.24.15,2.49.21,3.74.32l.2-3.67Z"/>
        <path class="cls-2" d="M58.26,135.33c.12-.99,1-1.73,1.97-1.66.97.08,1.71.96,1.66,1.97-.05,1.01-.93,1.77-1.97,1.68-1.04-.07-1.78-.98-1.66-2Z"/>
      </g>
      <g>
        <path class="cls-1" d="M52.16,132.43c-1.14-.29-2.3-.53-3.42-.89l-1.03,3.52c1.19.39,2.42.64,3.63.95l.82-3.58Z"/>
        <path class="cls-2" d="M48.23,133.3c.29-.99,1.27-1.5,2.22-1.29.94.23,1.53,1.22,1.31,2.21-.22.99-1.22,1.59-2.23,1.34-1.02-.23-1.58-1.31-1.29-2.27Z"/>
      </g>
      <g>
        <path class="cls-1" d="M42.71,129.41c-.54-.23-1.09-.44-1.63-.69l-1.6-.76-1.61,3.3,1.69.81c.57.26,1.15.49,1.73.73l1.41-3.39Z"/>
        <path class="cls-2" d="M38.69,129.61c.45-.91,1.52-1.31,2.4-.89.89.39,1.31,1.44.92,2.38-.38.93-1.48,1.38-2.43.96-.94-.45-1.34-1.55-.89-2.46Z"/>
      </g>
      <g>
        <path class="cls-1" d="M33.89,124.86c-1.01-.6-1.96-1.31-2.95-1.95l-2.12,2.99c1.04.69,2.05,1.43,3.13,2.07l1.95-3.11Z"/>
        <path class="cls-2" d="M29.88,124.4c.59-.82,1.72-1.05,2.53-.51.8.56,1.04,1.66.51,2.52-.53.86-1.69,1.13-2.55.54-.86-.58-1.08-1.73-.49-2.55Z"/>
      </g>
      <g>
        <path class="cls-1" d="M25.91,118.93c-.86-.81-1.77-1.57-2.59-2.41l-2.57,2.62c.87.89,1.83,1.7,2.74,2.55l2.42-2.76Z"/>
        <path class="cls-2" d="M22.03,117.83c.71-.72,1.84-.74,2.57-.09.72.66.76,1.81.1,2.58-.66.77-1.83.82-2.59.12-.78-.69-.79-1.88-.07-2.6Z"/>
      </g>
      <g>
        <path class="cls-1" d="M18.97,111.8c-.76-.91-1.5-1.82-2.19-2.78l-2.94,2.19c.73,1.01,1.52,1.98,2.32,2.94l2.82-2.35Z"/>
        <path class="cls-2" d="M15.31,110.11c.82-.6,1.94-.45,2.54.32.62.75.49,1.89-.29,2.54-.78.65-1.94.53-2.6-.27-.64-.82-.47-1.99.34-2.59Z"/>
      </g>
      <g>
        <path class="cls-1" d="M13.21,103.68c-.63-1-1.18-2.05-1.75-3.08l-3.24,1.72c.6,1.1,1.18,2.2,1.85,3.25l3.15-1.89Z"/>
        <path class="cls-2" d="M9.84,101.46c.9-.47,2-.16,2.47.7.47.85.2,1.94-.67,2.47-.86.52-2.02.25-2.52-.66-.5-.91-.17-2.03.73-2.5Z"/>
      </g>
      <g>
        <path class="cls-1" d="M8.72,94.79c-.48-1.08-.84-2.21-1.27-3.31l-3.46,1.22c.45,1.16.84,2.35,1.34,3.49l3.39-1.4Z"/>
        <path class="cls-2" d="M5.72,92.09c.96-.33,2.01.14,2.35,1.05.33.92-.11,1.96-1.05,2.35-.94.39-2.03-.06-2.38-1.04-.36-.97.12-2.03,1.08-2.36Z"/>
      </g>
      <g>
        <path class="cls-1" d="M5.61,85.32c-.28-1.15-.51-2.31-.77-3.46l-3.6.7c.27,1.22.52,2.44.81,3.65l3.56-.88Z"/>
        <path class="cls-2" d="M3.04,82.21c.99-.19,1.97.43,2.18,1.39.2.95-.42,1.93-1.39,2.17-.99.25-1.98-.37-2.19-1.38-.22-1.01.41-1.99,1.41-2.18Z"/>
      </g>
      <g>
        <polygon class="cls-1" points="3.92 75.5 3.67 71.96 0 72.13 .27 75.85 3.92 75.5"/>
        <path class="cls-2" d="M1.83,72.04c1-.04,1.89.71,1.95,1.69.07.97-.7,1.85-1.7,1.95-1.02.1-1.89-.65-1.97-1.69-.07-1.03.68-1.91,1.71-1.95Z"/>
      </g>
      <g>
        <polygon class="cls-1" points="3.67 65.52 3.92 61.98 .27 61.63 0 65.36 3.67 65.52"/>
        <path class="cls-2" d="M2.09,61.81c1,.1,1.77.97,1.7,1.95-.07.97-.96,1.73-1.95,1.69-1.03-.04-1.78-.91-1.71-1.95.08-1.03.95-1.79,1.97-1.69Z"/>
      </g>
      <g>
        <path class="cls-1" d="M4.84,55.62c.26-1.15.49-2.31.77-3.46l-3.56-.88c-.29,1.21-.54,2.43-.81,3.65l3.6.7Z"/>
        <path class="cls-2" d="M3.83,51.72c.97.25,1.59,1.22,1.39,2.17-.21.95-1.19,1.57-2.18,1.39-1-.19-1.63-1.16-1.41-2.18.22-1.01,1.2-1.63,2.19-1.38Z"/>
      </g>
      <g>
        <path class="cls-1" d="M7.45,46c.43-1.1.8-2.23,1.27-3.31l-3.39-1.4c-.5,1.14-.89,2.33-1.34,3.49l3.46,1.22Z"/>
        <path class="cls-2" d="M7.03,41.99c.93.39,1.37,1.43,1.05,2.35-.34.91-1.39,1.38-2.35,1.05-.96-.33-1.44-1.39-1.08-2.36.35-.98,1.45-1.43,2.38-1.04Z"/>
      </g>
      <g>
        <path class="cls-1" d="M11.46,36.88c.57-1.04,1.11-2.09,1.75-3.08l-3.15-1.89c-.67,1.05-1.25,2.16-1.85,3.25l3.24,1.72Z"/>
        <path class="cls-2" d="M11.63,32.85c.87.53,1.14,1.62.67,2.47-.47.86-1.57,1.17-2.47.7-.9-.47-1.22-1.59-.73-2.5.5-.91,1.67-1.19,2.52-.66Z"/>
      </g>
      <g>
        <path class="cls-1" d="M16.78,28.47c.69-.96,1.44-1.88,2.19-2.78l-2.82-2.35c-.8.96-1.59,1.93-2.32,2.94l2.94,2.19Z"/>
        <path class="cls-2" d="M17.56,24.51c.78.65.9,1.79.29,2.54-.6.77-1.72.92-2.54.32-.81-.6-.98-1.77-.34-2.59.66-.8,1.82-.93,2.6-.27Z"/>
      </g>
      <g>
        <path class="cls-1" d="M23.32,20.97c.82-.85,1.73-1.61,2.59-2.41l-2.42-2.76c-.91.85-1.87,1.66-2.74,2.55l2.57,2.62Z"/>
        <path class="cls-2" d="M24.7,17.17c.66.77.62,1.92-.1,2.58-.73.65-1.86.63-2.57-.09-.71-.72-.71-1.91.07-2.6.77-.7,1.93-.65,2.59.12Z"/>
      </g>
      <g>
        <path class="cls-1" d="M30.94,14.58c.99-.65,1.93-1.35,2.95-1.95l-1.95-3.11c-1.07.64-2.08,1.38-3.13,2.07l2.12,2.99Z"/>
        <path class="cls-2" d="M32.91,11.07c.53.86.29,1.96-.51,2.52-.8.55-1.94.32-2.53-.51-.59-.82-.37-1.97.49-2.55.85-.6,2.01-.33,2.55.54Z"/>
      </g>
      <g>
        <path class="cls-1" d="M39.49,9.52l1.6-.76c.54-.24,1.09-.46,1.63-.69l-1.41-3.39c-.58.24-1.16.47-1.73.73l-1.69.81,1.61,3.3Z"/>
        <path class="cls-2" d="M42.01,6.38c.39.94-.04,1.99-.92,2.38-.88.42-1.95.02-2.4-.89-.45-.91-.05-2.01.89-2.46.95-.42,2.05.03,2.43.96Z"/>
      </g>
      <g>
        <path class="cls-1" d="M48.75,5.95c1.12-.37,2.28-.6,3.42-.89l-.82-3.58c-1.21.31-2.44.56-3.63.95l1.03,3.52Z"/>
        <path class="cls-2" d="M51.76,3.26c.22.99-.37,1.98-1.31,2.21-.95.21-1.92-.3-2.22-1.29-.29-.96.28-2.04,1.29-2.27,1.01-.25,2.01.36,2.23,1.35Z"/>
      </g>
      <g>
        <path class="cls-1" d="M58.47,3.97c1.17-.14,2.35-.2,3.52-.31l-.2-3.67c-1.25.11-2.5.18-3.74.32l.42,3.65Z"/>
        <path class="cls-2" d="M61.89,1.83c.05,1.01-.69,1.9-1.66,1.97-.97.07-1.85-.66-1.97-1.66-.12-1.02.62-1.93,1.66-2,1.04-.08,1.92.67,1.97,1.68Z"/>
      </g>
      <g>
        <path class="cls-1" d="M68.39,3.67c1.17.11,2.35.17,3.52.31l.42-3.65c-1.24-.15-2.49-.21-3.74-.32l-.2,3.67Z"/>
        <path class="cls-2" d="M72.12,2.15c-.12.99-1,1.73-1.97,1.66-.97-.08-1.71-.96-1.66-1.97.05-1.01.93-1.77,1.97-1.68,1.04.07,1.78.98,1.66,2Z"/>
      </g>
      <g>
        <path class="cls-1" d="M78.22,5.05c1.14.29,2.3.53,3.42.89l1.03-3.52c-1.19-.39-2.42-.64-3.63-.95l-.82,3.58Z"/>
        <path class="cls-2" d="M82.15,4.18c-.29.99-1.27,1.5-2.22,1.29-.94-.23-1.53-1.22-1.31-2.21.22-.99,1.22-1.59,2.23-1.34,1.02.23,1.58,1.31,1.29,2.27Z"/>
      </g>
      <g>
        <path class="cls-1" d="M87.67,8.07c.54.23,1.09.44,1.63.69l1.59.76,1.61-3.3-1.69-.81c-.57-.26-1.15-.49-1.73-.73l-1.41,3.39Z"/>
        <path class="cls-2" d="M91.69,7.87c-.45.91-1.52,1.31-2.4.89-.89-.39-1.31-1.44-.92-2.38.38-.93,1.48-1.38,2.43-.96.94.45,1.34,1.55.89,2.46Z"/>
      </g>
      <g>
        <path class="cls-1" d="M96.49,12.62c1.01.6,1.96,1.31,2.95,1.95l2.12-2.99c-1.04-.69-2.05-1.43-3.12-2.07l-1.95,3.11Z"/>
        <path class="cls-2" d="M100.5,13.08c-.59.82-1.72,1.05-2.53.51-.8-.56-1.04-1.66-.51-2.52.53-.86,1.69-1.13,2.55-.54.86.58,1.08,1.73.49,2.55Z"/>
      </g>
      <g>
        <path class="cls-1" d="M104.47,18.55c.86.81,1.77,1.57,2.59,2.41l2.57-2.62c-.87-.89-1.83-1.7-2.74-2.55l-2.42,2.76Z"/>
        <path class="cls-2" d="M108.35,19.66c-.71.72-1.84.74-2.57.09-.72-.66-.76-1.81-.1-2.58.66-.77,1.83-.82,2.59-.12.78.69.79,1.88.07,2.6Z"/>
      </g>
      <g>
        <path class="cls-1" d="M111.41,25.69c.76.91,1.5,1.82,2.19,2.78l2.94-2.19c-.73-1.01-1.52-1.98-2.32-2.94l-2.82,2.35Z"/>
        <path class="cls-2" d="M115.07,27.37c-.82.6-1.94.45-2.54-.32-.62-.75-.49-1.89.29-2.54.78-.65,1.94-.53,2.6.27.64.82.47,1.99-.34,2.59Z"/>
      </g>
      <g>
        <path class="cls-1" d="M117.17,33.8c.63,1,1.18,2.05,1.75,3.08l3.24-1.72c-.6-1.1-1.18-2.2-1.85-3.25l-3.15,1.89Z"/>
        <path class="cls-2" d="M120.54,36.02c-.9.47-2,.16-2.47-.7-.47-.85-.2-1.94.67-2.47.86-.52,2.02-.25,2.52.66.5.91.17,2.03-.73,2.5Z"/>
      </g>
      <g>
        <path class="cls-1" d="M121.66,42.69c.48,1.08.84,2.21,1.27,3.31l3.46-1.22c-.45-1.16-.84-2.35-1.34-3.49l-3.39,1.4Z"/>
        <path class="cls-2" d="M124.66,45.39c-.96.33-2.01-.14-2.35-1.05-.33-.92.11-1.96,1.05-2.35.94-.39,2.03.06,2.38,1.04.36.97-.12,2.03-1.08,2.36Z"/>
      </g>
      <g>
        <path class="cls-1" d="M124.77,52.16c.28,1.15.51,2.31.77,3.46l3.6-.7c-.27-1.22-.52-2.44-.81-3.65l-3.56.88Z"/>
        <path class="cls-2" d="M127.34,55.27c-.99.19-1.97-.43-2.18-1.39-.2-.95.42-1.93,1.39-2.17.99-.25,1.98.37,2.19,1.38.22,1.01-.41,1.99-1.41,2.18Z"/>
      </g>
      <g>
        <polygon class="cls-1" points="126.46 61.98 126.71 65.52 130.38 65.36 130.11 61.63 126.46 61.98"/>
        <path class="cls-2" d="M128.55,65.44c-1,.04-1.89-.71-1.95-1.69-.07-.97.7-1.85,1.7-1.95,1.02-.1,1.89.65,1.97,1.69.07,1.03-.68,1.91-1.71,1.95Z"/>
      </g>
    </g>
  </g>
</svg>