<?xml version="1.0" encoding="UTF-8"?>
<svg id="Layer_2" data-name="Layer 2" xmlns="http://www.w3.org/2000/svg" viewBox="0 0 131.33 70.43">
  <defs>
    <style>
      .cls-1 {
        fill: none;
      }

      .cls-1, .cls-2 {
        stroke-width: 0px;
      }

      .cls-2 {
        fill: #191919;
        fill-rule: evenodd;
      }
    </style>
  </defs>
  <g id="_ÎÓÈ_1" data-name="—ÎÓÈ_1">
    <g>
      <g>
        <polygon class="cls-1" points="0 3.52 .25 7.31 3.9 6.97 3.67 3.37 0 3.52"/>
        <path class="cls-2" d="M2.07,7.14c-1.02.1-1.89-.68-1.96-1.73-.07-1.05.69-1.93,1.72-1.97,1-.03,1.88.74,1.95,1.73.07.99-.71,1.87-1.71,1.97Z"/>
      </g>
      <g>
        <path class="cls-1" d="M1.19,14.12c.27,1.24.5,2.48.8,3.71l3.57-.86c-.29-1.17-.51-2.35-.76-3.52l-3.61.68Z"/>
        <path class="cls-2" d="M3.78,17.4c-.99.25-1.99-.39-2.2-1.42-.22-1.03.42-2.01,1.41-2.2,1-.18,1.97.46,2.18,1.43.2.97-.42,1.95-1.39,2.19Z"/>
      </g>
      <g>
        <path class="cls-1" d="M3.93,24.44c.45,1.18.83,2.4,1.34,3.55l3.4-1.38c-.49-1.1-.84-2.25-1.27-3.37l-3.47,1.2Z"/>
        <path class="cls-2" d="M6.97,27.3c-.93.38-2.05-.08-2.39-1.08-.36-.99.13-2.06,1.09-2.39.96-.33,2.01.16,2.35,1.09.32.94-.1,1.98-1.04,2.37Z"/>
      </g>
      <g>
        <path class="cls-1" d="M8.16,34.24c.59,1.12,1.19,2.24,1.85,3.32l3.16-1.87c-.63-1.02-1.2-2.08-1.75-3.15l-3.25,1.7Z"/>
        <path class="cls-2" d="M11.59,36.62c-.87.52-2.02.21-2.54-.71-.49-.93-.17-2.06.74-2.53.9-.46,2.01-.13,2.47.74.49.86.2,1.97-.67,2.49Z"/>
      </g>
      <g>
        <path class="cls-1" d="M13.8,43.3c.72,1.04,1.54,2.02,2.32,3.01l2.84-2.32c-.74-.94-1.52-1.86-2.2-2.85l-2.96,2.17Z"/>
        <path class="cls-2" d="M17.54,45.15c-.78.65-1.95.5-2.61-.32-.66-.82-.47-2.02.34-2.61.83-.6,1.94-.41,2.56.36.62.77.48,1.93-.3,2.57Z"/>
      </g>
      <g>
        <path class="cls-1" d="M20.73,51.42c.9.89,1.83,1.76,2.76,2.62l2.45-2.73c-.88-.82-1.76-1.63-2.61-2.48l-2.6,2.59Z"/>
        <path class="cls-2" d="M24.72,52.68c-.68.77-1.85.79-2.61.07-.77-.72-.8-1.9-.07-2.62.71-.7,1.87-.72,2.6-.05.72.68.75,1.85.09,2.6Z"/>
      </g>
      <g>
        <path class="cls-1" d="M28.86,58.37c1.04.73,2.06,1.49,3.15,2.14l1.98-3.09c-1.03-.62-1.99-1.34-2.97-2.03l-2.16,2.97Z"/>
        <path class="cls-2" d="M33,58.97c-.54.84-1.72,1.12-2.58.5-.86-.61-1.08-1.77-.48-2.58.6-.82,1.74-1.02,2.55-.45.8.58,1.06,1.67.51,2.53Z"/>
      </g>
      <g>
        <path class="cls-1" d="M38,63.93c1.12.59,2.29,1.1,3.46,1.61l1.44-3.37c-1.1-.48-2.2-.95-3.26-1.52l-1.64,3.28Z"/>
        <path class="cls-2" d="M42.18,63.85c-.39.93-1.5,1.35-2.47.92-.96-.44-1.34-1.58-.89-2.48.46-.91,1.54-1.26,2.44-.85.9.4,1.31,1.48.92,2.41Z"/>
      </g>
      <g>
        <path class="cls-1" d="M47.94,67.91c1.22.37,2.45.68,3.68,1l.84-3.57c-1.16-.3-2.32-.59-3.46-.94l-1.06,3.51Z"/>
        <path class="cls-2" d="M52.05,67.12c-.23,1-1.24,1.57-2.27,1.3-1.03-.27-1.61-1.29-1.31-2.27.3-.96,1.31-1.52,2.26-1.28.95.25,1.54,1.27,1.31,2.24Z"/>
      </g>
      <g>
        <path class="cls-1" d="M58.44,70.1c1.27.11,2.53.3,3.8.32l.2-3.67c-1.2-.02-2.38-.2-3.57-.3l-.43,3.65Z"/>
        <path class="cls-2" d="M62.34,68.59c-.05,1-.95,1.83-2.01,1.7-1.05-.11-1.81-1.01-1.68-2.01.13-1.01,1.02-1.74,2-1.64.98.12,1.74.93,1.69,1.96Z"/>
      </g>
      <g>
        <path class="cls-1" d="M69.15,70.42l1.91-.12c.63-.05,1.26-.15,1.9-.22l-.44-3.64c-.59.07-1.19.15-1.78.21l-1.79.12.21,3.66Z"/>
        <path class="cls-2" d="M72.73,68.25c.13,1-.62,1.93-1.68,2.04-1.06.07-1.96-.7-2.01-1.71-.05-1.01.7-1.89,1.68-1.95.98-.1,1.87.61,2,1.62Z"/>
      </g>
      <g>
        <path class="cls-1" d="M79.76,68.86c1.25-.26,2.46-.64,3.68-1l-1.07-3.51c-1.15.33-2.29.69-3.46.94l.85,3.57Z"/>
        <path class="cls-2" d="M82.9,66.11c.3.97-.28,1.99-1.3,2.29-1.02.3-2.05-.35-2.28-1.32-.23-1,.37-1.94,1.31-2.22.95-.28,1.96.29,2.26,1.25Z"/>
      </g>
      <g>
        <path class="cls-1" d="M89.93,65.49c1.17-.49,2.31-1.07,3.46-1.6l-1.65-3.28c-1.09.5-2.16,1.04-3.26,1.51l1.45,3.37Z"/>
        <path class="cls-2" d="M92.56,62.25c.46.91.06,2-.9,2.45-.95.46-2.06.05-2.46-.9-.39-.92.02-2,.91-2.43.89-.42,1.99-.03,2.45.87Z"/>
      </g>
      <g>
        <path class="cls-1" d="M99.37,60.45c1.04-.72,2.13-1.38,3.14-2.16l-2.16-2.97c-.95.74-1.98,1.36-2.96,2.04l1.99,3.09Z"/>
        <path class="cls-2" d="M101.43,56.81c.6.81.41,2.01-.47,2.58-.88.59-2.03.37-2.57-.48-.54-.85-.32-2,.5-2.55.83-.54,1.95-.37,2.55.45Z"/>
      </g>
      <g>
        <path class="cls-1" d="M107.86,53.95c.95-.85,1.88-1.71,2.76-2.62l-2.6-2.59c-.83.87-1.71,1.68-2.61,2.48l2.45,2.73Z"/>
        <path class="cls-2" d="M109.32,50.04c.72.71.71,1.9-.05,2.63-.78.71-1.96.67-2.63-.09-.67-.76-.63-1.91.11-2.58.71-.69,1.85-.69,2.58.03Z"/>
      </g>
      <g>
        <path class="cls-1" d="M115.23,46.22c.83-.96,1.57-1.99,2.33-3.01l-2.96-2.17c-.72.96-1.42,1.94-2.21,2.85l2.84,2.32Z"/>
        <path class="cls-2" d="M116.08,42.14c.82.59.98,1.76.34,2.61-.63.84-1.84.96-2.61.32-.79-.65-.89-1.77-.29-2.57.59-.79,1.74-.95,2.56-.36Z"/>
      </g>
      <g>
        <path class="cls-1" d="M121.35,37.47c.67-1.08,1.23-2.21,1.85-3.32l-3.25-1.7c-.59,1.05-1.12,2.13-1.76,3.15l3.16,1.87Z"/>
        <path class="cls-2" d="M121.57,33.3c.9.46,1.22,1.59.72,2.52-.49.93-1.65,1.24-2.52.72-.87-.52-1.15-1.62-.69-2.5.47-.87,1.59-1.2,2.49-.73Z"/>
      </g>
      <g>
        <path class="cls-1" d="M126.09,27.91c.47-1.18.9-2.37,1.34-3.56l-3.47-1.2c-.42,1.13-.83,2.26-1.27,3.37l3.4,1.38Z"/>
        <path class="cls-2" d="M125.69,23.75c.96.33,1.44,1.39,1.07,2.38-.37.99-1.43,1.48-2.38,1.09-.93-.38-1.4-1.44-1.06-2.37.35-.93,1.41-1.42,2.36-1.09Z"/>
      </g>
      <g>
        <path class="cls-1" d="M129.36,17.75c.26-1.24.55-2.47.79-3.72l-3.61-.67c-.23,1.18-.5,2.35-.75,3.53l3.57.86Z"/>
        <path class="cls-2" d="M128.34,13.69c1.01.18,1.64,1.17,1.42,2.2-.22,1.03-1.2,1.67-2.19,1.43-.98-.24-1.61-1.22-1.4-2.19.21-.97,1.19-1.61,2.17-1.43Z"/>
      </g>
      <g>
        <polygon class="cls-1" points="131.09 7.21 131.33 3.42 127.66 3.29 127.44 6.89 131.09 7.21"/>
        <path class="cls-2" d="M129.5,3.35c1.03.03,1.79.91,1.72,1.97-.07,1.05-.94,1.83-1.95,1.73-1.01-.1-1.78-.98-1.71-1.96.06-.99.94-1.76,1.94-1.73Z"/>
      </g>
    </g>
  </g>
</svg>