<?xml version="1.0" encoding="UTF-8"?>
<svg id="Layer_2" data-name="Layer 2" xmlns="http://www.w3.org/2000/svg" viewBox="0 0 142.73 149.02">
  <defs>
    <style>
      .cls-1 {
        fill: none;
      }

      .cls-1, .cls-2, .cls-3 {
        stroke-width: 0px;
      }

      .cls-2 {
        fill-rule: evenodd;
      }

      .cls-2, .cls-3 {
        fill: #191919;
      }
    </style>
  </defs>
  <g id="_ÎÓÈ_1" data-name="—ÎÓÈ_1">
    <g>
      <g>
        <g>
          <rect class="cls-1" x="104.01" y="146.67" width="2.36" height="2.34"/>
          <path class="cls-2" d="M104.01,147.85c0-.65.53-1.17,1.18-1.17s1.18.52,1.18,1.17-.53,1.17-1.18,1.17-1.18-.52-1.18-1.17Z"/>
        </g>
        <g>
          <rect class="cls-1" x="97.38" y="146.67" width="2.36" height="2.34"/>
          <ellipse class="cls-3" cx="98.56" cy="147.85" rx="1.18" ry="1.17"/>
        </g>
        <g>
          <rect class="cls-1" x="90.75" y="146.67" width="2.36" height="2.34"/>
          <ellipse class="cls-3" cx="91.93" cy="147.85" rx="1.18" ry="1.17"/>
        </g>
        <g>
          <rect class="cls-1" x="84.11" y="146.67" width="2.36" height="2.34"/>
          <ellipse class="cls-3" cx="85.29" cy="147.85" rx="1.18" ry="1.17"/>
        </g>
        <g>
          <rect class="cls-1" x="77.48" y="146.67" width="2.36" height="2.34"/>
          <ellipse class="cls-3" cx="78.66" cy="147.85" rx="1.18" ry="1.17"/>
        </g>
        <g>
          <rect class="cls-1" x="70.85" y="146.67" width="2.36" height="2.34"/>
          <path class="cls-2" d="M70.85,147.85c0-.65.53-1.17,1.18-1.17s1.18.52,1.18,1.17-.53,1.17-1.18,1.17-1.18-.52-1.18-1.17Z"/>
        </g>
        <g>
          <rect class="cls-1" x="64.22" y="146.67" width="2.36" height="2.34"/>
          <ellipse class="cls-3" cx="65.4" cy="147.85" rx="1.18" ry="1.17"/>
        </g>
        <g>
          <rect class="cls-1" x="57.59" y="146.67" width="2.36" height="2.34"/>
          <ellipse class="cls-3" cx="58.77" cy="147.85" rx="1.18" ry="1.17"/>
        </g>
        <g>
          <rect class="cls-1" x="50.96" y="146.67" width="2.36" height="2.34"/>
          <ellipse class="cls-3" cx="52.14" cy="147.85" rx="1.18" ry="1.17"/>
        </g>
        <g>
          <rect class="cls-1" x="44.33" y="146.67" width="2.36" height="2.34"/>
          <ellipse class="cls-3" cx="45.51" cy="147.85" rx="1.18" ry="1.17"/>
        </g>
        <g>
          <rect class="cls-1" x="37.7" y="146.67" width="2.36" height="2.34"/>
          <ellipse class="cls-3" cx="38.87" cy="147.85" rx="1.18" ry="1.17"/>
        </g>
        <g>
          <path class="cls-1" d="M33.45,146.65c-.38-.02-.76,0-1.14-.04l-1.13-.09-.22,2.33,1.22.1c.41.04.81.03,1.22.05l.06-2.34Z"/>
          <path class="cls-2" d="M31.07,147.69c.07-.64.62-1.13,1.25-1.08.62.04,1.12.56,1.11,1.21-.01.64-.57,1.17-1.25,1.13-.68-.05-1.17-.62-1.11-1.26Z"/>
        </g>
        <g>
          <polygon class="cls-1" points="27.12 145.86 26.01 145.59 24.92 145.27 24.23 147.51 25.4 147.86 26.59 148.15 27.12 145.86"/>
          <path class="cls-2" d="M24.58,146.39c.19-.62.84-.98,1.43-.8.61.15.98.78.84,1.41-.14.63-.79,1.02-1.45.86-.65-.19-1.02-.85-.83-1.47Z"/>
        </g>
        <g>
          <polygon class="cls-1" points="21.07 143.81 20.05 143.33 19.04 142.79 17.92 144.85 19 145.42 20.1 145.94 21.07 143.81"/>
          <path class="cls-2" d="M18.48,143.82c.31-.57,1.01-.79,1.57-.49.57.27.81.96.54,1.55-.27.59-.98.84-1.59.55-.6-.32-.83-1.04-.52-1.6Z"/>
        </g>
        <g>
          <polygon class="cls-1" points="15.56 140.59 14.65 139.91 13.77 139.19 12.26 140.98 13.2 141.76 14.18 142.48 15.56 140.59"/>
          <path class="cls-2" d="M13.01,140.08c.42-.49,1.15-.57,1.63-.18.5.37.6,1.1.22,1.63-.38.53-1.13.63-1.67.22-.52-.43-.61-1.18-.19-1.67Z"/>
        </g>
        <g>
          <path class="cls-1" d="M10.79,136.34c-.25-.28-.51-.56-.76-.85l-.72-.88-1.83,1.46.77.94c.27.31.54.61.82.91l1.72-1.59Z"/>
          <path class="cls-2" d="M8.39,135.34c.51-.4,1.24-.33,1.64.15.41.47.37,1.2-.1,1.64-.47.44-1.23.4-1.68-.11-.43-.52-.37-1.27.14-1.67Z"/>
        </g>
        <g>
          <path class="cls-1" d="M6.95,131.23c-.19-.33-.4-.65-.58-.98l-.53-1-2.09,1.07.57,1.08c.19.36.41.7.62,1.05l2-1.22Z"/>
          <path class="cls-2" d="M4.8,129.79c.58-.29,1.28-.08,1.58.47.31.54.13,1.25-.42,1.59-.55.34-1.29.15-1.62-.44-.32-.6-.11-1.32.47-1.61Z"/>
        </g>
        <g>
          <path class="cls-1" d="M4.21,125.47c-.12-.36-.26-.71-.37-1.07l-.32-1.09-2.26.63.35,1.17c.12.39.27.77.4,1.15l2.21-.79Z"/>
          <path class="cls-2" d="M2.38,123.62c.62-.17,1.27.18,1.45.78.19.59-.12,1.25-.73,1.47-.6.22-1.29-.11-1.5-.76-.19-.65.16-1.32.78-1.49Z"/>
        </g>
        <g>
          <polygon class="cls-1" points="2.67 119.28 2.52 118.15 2.43 117.02 .09 117.18 .19 118.4 .35 119.61 2.67 119.28"/>
          <path class="cls-2" d="M1.26,117.1c.65-.04,1.21.43,1.26,1.05.08.62-.37,1.2-1.01,1.29-.64.1-1.23-.37-1.32-1.05-.05-.68.43-1.26,1.07-1.3Z"/>
        </g>
        <g>
          <rect class="cls-1" y="110.47" width="2.34" height="2.36"/>
          <ellipse class="cls-3" cx="1.17" cy="111.65" rx="1.17" ry="1.18"/>
        </g>
        <g>
          <rect class="cls-1" y="103.84" width="2.34" height="2.36"/>
          <ellipse class="cls-3" cx="1.17" cy="105.02" rx="1.17" ry="1.18"/>
        </g>
        <g>
          <rect class="cls-1" y="97.21" width="2.34" height="2.36"/>
          <ellipse class="cls-3" cx="1.17" cy="98.39" rx="1.17" ry="1.18"/>
        </g>
        <g>
          <rect class="cls-1" y="90.58" width="2.34" height="2.36"/>
          <path class="cls-2" d="M1.17,90.58c.65,0,1.17.53,1.17,1.18s-.52,1.18-1.17,1.18-1.17-.53-1.17-1.18.52-1.18,1.17-1.18Z"/>
        </g>
        <g>
          <rect class="cls-1" y="83.94" width="2.34" height="2.36"/>
          <ellipse class="cls-3" cx="1.17" cy="85.12" rx="1.17" ry="1.18"/>
        </g>
        <g>
          <rect class="cls-1" y="77.31" width="2.34" height="2.36"/>
          <ellipse class="cls-3" cx="1.17" cy="78.49" rx="1.17" ry="1.18"/>
        </g>
        <g>
          <rect class="cls-1" y="70.68" width="2.34" height="2.36"/>
          <ellipse class="cls-3" cx="1.17" cy="71.86" rx="1.17" ry="1.18"/>
        </g>
        <g>
          <rect class="cls-1" y="64.05" width="2.34" height="2.36"/>
          <ellipse class="cls-3" cx="1.17" cy="65.23" rx="1.17" ry="1.18"/>
        </g>
        <g>
          <rect class="cls-1" y="57.42" width="2.34" height="2.36"/>
          <ellipse class="cls-3" cx="1.17" cy="58.6" rx="1.17" ry="1.18"/>
        </g>
        <g>
          <rect class="cls-1" y="50.79" width="2.34" height="2.36"/>
          <ellipse class="cls-3" cx="1.17" cy="51.97" rx="1.17" ry="1.18"/>
        </g>
        <g>
          <rect class="cls-1" y="44.16" width="2.34" height="2.36"/>
          <path class="cls-2" d="M1.17,44.16c.65,0,1.17.53,1.17,1.18s-.52,1.18-1.17,1.18-1.17-.53-1.17-1.18.52-1.18,1.17-1.18Z"/>
        </g>
        <g>
          <rect class="cls-1" y="37.52" width="2.34" height="2.36"/>
          <ellipse class="cls-3" cx="1.17" cy="38.7" rx="1.17" ry="1.18"/>
        </g>
        <g>
          <path class="cls-1" d="M2.37,33.29c0-.76.09-1.51.14-2.27l-2.33-.24c-.06.81-.15,1.62-.15,2.44l2.34.07Z"/>
          <path class="cls-2" d="M1.34,30.9c.64.07,1.13.63,1.08,1.25-.03.31-.17.59-.38.79-.22.2-.51.32-.84.31-.32,0-.61-.15-.82-.38-.21-.23-.33-.54-.3-.88.05-.68.62-1.17,1.26-1.1Z"/>
        </g>
        <g>
          <path class="cls-1" d="M3.2,26.96c.09-.37.17-.74.27-1.1l.32-1.09-2.24-.7-.35,1.17c-.12.39-.2.79-.3,1.19l2.28.54Z"/>
          <path class="cls-2" d="M2.67,24.41c.62.2.97.84.8,1.44-.16.6-.78.98-1.42.83-.63-.14-1.02-.8-.85-1.45.19-.65.85-1.02,1.46-.82Z"/>
        </g>
        <g>
          <path class="cls-1" d="M5.28,20.93c.16-.34.32-.69.49-1.03l.54-1-2.05-1.13-.57,1.08c-.19.36-.35.73-.53,1.1l2.13.99Z"/>
          <path class="cls-2" d="M5.28,18.33c.56.32.78,1.02.49,1.57-.28.56-.96.8-1.55.53-.59-.27-.84-.99-.54-1.59.32-.6,1.04-.83,1.6-.51Z"/>
        </g>
        <g>
          <path class="cls-1" d="M8.53,15.43c.23-.3.44-.62.69-.91l.72-.88-1.79-1.52-.77.94c-.26.31-.49.65-.74.97l1.89,1.39Z"/>
          <path class="cls-2" d="M9.04,12.88c.49.42.57,1.16.17,1.64-.39.49-1.1.6-1.63.21-.52-.38-.63-1.14-.21-1.67.43-.52,1.18-.61,1.67-.18Z"/>
        </g>
        <g>
          <path class="cls-1" d="M12.8,10.68c.55-.52,1.14-1,1.73-1.48l-1.45-1.84c-.63.52-1.26,1.02-1.86,1.58l1.58,1.73Z"/>
          <path class="cls-2" d="M13.81,8.29c.4.51.33,1.25-.15,1.64-.48.4-1.2.37-1.64-.11-.43-.47-.4-1.24.12-1.68.52-.43,1.27-.36,1.67.15Z"/>
        </g>
        <g>
          <path class="cls-1" d="M17.93,6.87c.64-.4,1.32-.75,1.99-1.11l-1.06-2.09c-.72.38-1.44.75-2.13,1.19l1.21,2.01Z"/>
          <path class="cls-2" d="M19.38,4.72c.29.58.08,1.29-.47,1.58-.55.29-1.25.12-1.59-.43-.33-.55-.15-1.3.45-1.62.6-.32,1.32-.11,1.61.47Z"/>
        </g>
        <g>
          <path class="cls-1" d="M23.7,4.15c.71-.27,1.44-.47,2.17-.68l-.62-2.26c-.78.23-1.57.45-2.33.73l.78,2.21Z"/>
          <path class="cls-2" d="M25.56,2.34c.17.63-.18,1.28-.78,1.45-.6.18-1.25-.13-1.47-.74-.22-.6.12-1.3.77-1.49.65-.19,1.31.16,1.48.78Z"/>
        </g>
        <g>
          <path class="cls-1" d="M29.9,2.65c.38-.05.75-.11,1.13-.14l1.13-.09-.15-2.34-1.22.1c-.41.04-.81.1-1.21.15l.32,2.32Z"/>
          <path class="cls-2" d="M32.09,1.25c.04.65-.44,1.21-1.06,1.26-.62.07-1.19-.38-1.29-1.02-.09-.64.38-1.24,1.05-1.31.68-.05,1.26.43,1.29,1.07Z"/>
        </g>
        <g>
          <rect class="cls-1" x="36.36" width="2.36" height="2.34"/>
          <ellipse class="cls-3" cx="37.54" cy="1.17" rx="1.18" ry="1.17"/>
        </g>
        <g>
          <rect class="cls-1" x="42.99" width="2.36" height="2.34"/>
          <ellipse class="cls-3" cx="44.17" cy="1.17" rx="1.18" ry="1.17"/>
        </g>
        <g>
          <rect class="cls-1" x="49.62" width="2.36" height="2.34"/>
          <ellipse class="cls-3" cx="50.8" cy="1.17" rx="1.18" ry="1.17"/>
        </g>
        <g>
          <rect class="cls-1" x="56.25" width="2.36" height="2.34"/>
          <path class="cls-2" d="M58.61,1.17c0,.65-.53,1.17-1.18,1.17s-1.18-.52-1.18-1.17.53-1.17,1.18-1.17,1.18.52,1.18,1.17Z"/>
        </g>
        <g>
          <rect class="cls-1" x="62.89" width="2.36" height="2.34"/>
          <path class="cls-2" d="M65.24,1.17c0,.65-.53,1.17-1.18,1.17s-1.18-.52-1.18-1.17.53-1.17,1.18-1.17,1.18.52,1.18,1.17Z"/>
        </g>
        <g>
          <rect class="cls-1" x="69.52" width="2.36" height="2.34"/>
          <path class="cls-2" d="M71.88,1.17c0,.65-.53,1.17-1.18,1.17s-1.18-.52-1.18-1.17.53-1.17,1.18-1.17,1.18.52,1.18,1.17Z"/>
        </g>
        <g>
          <rect class="cls-1" x="76.15" width="2.36" height="2.34"/>
          <path class="cls-2" d="M78.51,1.17c0,.65-.53,1.17-1.18,1.17s-1.18-.52-1.18-1.17.53-1.17,1.18-1.17,1.18.52,1.18,1.17Z"/>
        </g>
        <g>
          <rect class="cls-1" x="82.78" width="2.36" height="2.34"/>
          <path class="cls-2" d="M85.14,1.17c0,.65-.53,1.17-1.18,1.17s-1.18-.52-1.18-1.17.53-1.17,1.18-1.17,1.18.52,1.18,1.17Z"/>
        </g>
        <g>
          <rect class="cls-1" x="89.41" width="2.36" height="2.34"/>
          <ellipse class="cls-3" cx="90.59" cy="1.17" rx="1.18" ry="1.17"/>
        </g>
        <g>
          <rect class="cls-1" x="96.04" width="2.36" height="2.34"/>
          <path class="cls-2" d="M98.4,1.17c0,.65-.53,1.17-1.18,1.17s-1.18-.52-1.18-1.17.53-1.17,1.18-1.17,1.18.52,1.18,1.17Z"/>
        </g>
        <g>
          <rect class="cls-1" x="102.67" width="2.36" height="2.34"/>
          <path class="cls-2" d="M105.03,1.17c0,.65-.53,1.17-1.18,1.17s-1.18-.52-1.18-1.17.53-1.17,1.18-1.17,1.18.52,1.18,1.17Z"/>
        </g>
        <g>
          <path class="cls-1" d="M109.28,2.37c.38.02.76,0,1.14.04l1.13.09.22-2.33-1.22-.1c-.41-.04-.81-.03-1.22-.05l-.06,2.34Z"/>
          <path class="cls-2" d="M111.66,1.33c-.07.64-.62,1.13-1.25,1.08-.62-.04-1.12-.56-1.11-1.21.01-.64.57-1.17,1.25-1.13.68.05,1.17.62,1.11,1.26Z"/>
        </g>
        <g>
          <polygon class="cls-1" points="115.61 3.16 116.72 3.42 117.81 3.75 118.5 1.51 117.32 1.16 116.14 .87 115.61 3.16"/>
          <path class="cls-2" d="M118.15,2.63c-.19.62-.84.98-1.43.8-.61-.15-.98-.78-.84-1.41.14-.63.79-1.02,1.45-.86.65.19,1.02.85.83,1.47Z"/>
        </g>
        <g>
          <polygon class="cls-1" points="121.65 5.21 122.68 5.69 123.69 6.23 124.81 4.17 123.73 3.6 122.63 3.08 121.65 5.21"/>
          <path class="cls-2" d="M124.25,5.2c-.31.57-1.01.79-1.57.49-.56-.26-.81-.96-.54-1.55.27-.59.98-.84,1.59-.55.6.32.83,1.04.52,1.6Z"/>
        </g>
        <g>
          <polygon class="cls-1" points="127.17 8.43 128.08 9.11 128.96 9.83 130.47 8.04 129.52 7.26 128.55 6.53 127.17 8.43"/>
          <path class="cls-2" d="M129.71,8.93c-.42.49-1.15.57-1.63.18-.5-.37-.6-1.1-.22-1.63.38-.53,1.13-.63,1.67-.22.52.43.61,1.18.19,1.67Z"/>
        </g>
        <g>
          <path class="cls-1" d="M131.94,12.68c.25.28.51.56.76.85l.72.88,1.83-1.46-.77-.94c-.27-.31-.54-.61-.82-.91l-1.72,1.59Z"/>
          <path class="cls-2" d="M134.34,13.67c-.51.4-1.24.33-1.64-.15-.41-.47-.37-1.2.1-1.64.47-.44,1.23-.4,1.68.11.43.52.37,1.27-.14,1.67Z"/>
        </g>
        <g>
          <path class="cls-1" d="M135.77,17.78c.19.33.4.65.58.98l.53,1,2.09-1.07-.57-1.08c-.19-.36-.41-.7-.62-1.05l-2,1.22Z"/>
          <path class="cls-2" d="M137.93,19.23c-.58.29-1.28.08-1.58-.47-.31-.54-.13-1.25.42-1.59.55-.34,1.29-.15,1.62.44.32.6.11,1.32-.47,1.61Z"/>
        </g>
        <g>
          <path class="cls-1" d="M138.52,23.55c.12.36.26.71.37,1.07l.32,1.09,2.26-.63-.35-1.17c-.12-.39-.27-.77-.4-1.15l-2.21.79Z"/>
          <path class="cls-2" d="M140.34,25.4c-.62.17-1.27-.18-1.45-.78-.19-.59.12-1.25.73-1.47.6-.22,1.29.11,1.5.76.19.65-.16,1.32-.78,1.49Z"/>
        </g>
        <g>
          <polygon class="cls-1" points="140.06 29.74 140.21 30.87 140.3 32 142.64 31.84 142.54 30.62 142.38 29.41 140.06 29.74"/>
          <path class="cls-2" d="M141.47,31.92c-.65.04-1.21-.43-1.26-1.05-.08-.62.37-1.2,1.01-1.29.64-.1,1.23.37,1.32,1.05.05.68-.43,1.26-1.07,1.3Z"/>
        </g>
        <g>
          <rect class="cls-1" x="140.38" y="36.19" width="2.34" height="2.36"/>
          <path class="cls-2" d="M141.56,38.55c-.65,0-1.17-.53-1.17-1.18s.52-1.18,1.17-1.18,1.17.53,1.17,1.18-.52,1.18-1.17,1.18Z"/>
        </g>
        <g>
          <rect class="cls-1" x="140.38" y="42.82" width="2.34" height="2.36"/>
          <ellipse class="cls-3" cx="141.56" cy="44" rx="1.17" ry="1.18"/>
        </g>
        <g>
          <rect class="cls-1" x="140.38" y="49.45" width="2.34" height="2.36"/>
          <path class="cls-2" d="M141.56,51.81c-.65,0-1.17-.53-1.17-1.18s.52-1.18,1.17-1.18,1.17.53,1.17,1.18-.52,1.18-1.17,1.18Z"/>
        </g>
        <g>
          <rect class="cls-1" x="140.38" y="56.08" width="2.34" height="2.36"/>
          <ellipse class="cls-3" cx="141.56" cy="57.26" rx="1.17" ry="1.18"/>
        </g>
        <g>
          <rect class="cls-1" x="140.38" y="62.72" width="2.34" height="2.36"/>
          <ellipse class="cls-3" cx="141.56" cy="63.9" rx="1.17" ry="1.18"/>
        </g>
        <g>
          <rect class="cls-1" x="140.38" y="69.35" width="2.34" height="2.36"/>
          <ellipse class="cls-3" cx="141.56" cy="70.53" rx="1.17" ry="1.18"/>
        </g>
        <g>
          <rect class="cls-1" x="140.38" y="75.98" width="2.34" height="2.36"/>
          <path class="cls-2" d="M141.56,78.34c-.65,0-1.17-.53-1.17-1.18s.52-1.18,1.17-1.18,1.17.53,1.17,1.18-.52,1.18-1.17,1.18Z"/>
        </g>
        <g>
          <rect class="cls-1" x="140.38" y="82.61" width="2.34" height="2.36"/>
          <ellipse class="cls-3" cx="141.56" cy="83.79" rx="1.17" ry="1.18"/>
        </g>
        <g>
          <rect class="cls-1" x="140.38" y="89.24" width="2.34" height="2.36"/>
          <ellipse class="cls-3" cx="141.56" cy="90.42" rx="1.17" ry="1.18"/>
        </g>
        <g>
          <rect class="cls-1" x="140.38" y="95.87" width="2.34" height="2.36"/>
          <path class="cls-2" d="M141.56,98.23c-.65,0-1.17-.53-1.17-1.18s.52-1.18,1.17-1.18,1.17.53,1.17,1.18-.52,1.18-1.17,1.18Z"/>
        </g>
        <g>
          <rect class="cls-1" x="140.38" y="102.5" width="2.34" height="2.36"/>
          <path class="cls-2" d="M141.56,104.86c-.65,0-1.17-.53-1.17-1.18s.52-1.18,1.17-1.18,1.17.53,1.17,1.18-.52,1.18-1.17,1.18Z"/>
        </g>
        <g>
          <rect class="cls-1" x="140.38" y="109.14" width="2.34" height="2.36"/>
          <ellipse class="cls-3" cx="141.56" cy="110.32" rx="1.17" ry="1.18"/>
        </g>
        <g>
          <path class="cls-1" d="M140.36,115.73c0,.76-.09,1.51-.14,2.27l2.33.24c.06-.81.15-1.62.15-2.44l-2.34-.07Z"/>
          <path class="cls-2" d="M141.39,118.12c-.64-.07-1.13-.63-1.08-1.25.03-.31.17-.59.38-.79.22-.2.51-.32.84-.31.32,0,.61.15.82.38.21.23.33.54.3.88-.05.68-.62,1.17-1.26,1.1Z"/>
        </g>
        <g>
          <path class="cls-1" d="M139.53,122.06c-.09.37-.17.74-.27,1.1l-.32,1.09,2.24.7.35-1.17c.12-.39.2-.79.3-1.18l-2.28-.54Z"/>
          <path class="cls-2" d="M140.05,124.6c-.62-.2-.97-.84-.8-1.44.16-.6.78-.98,1.42-.83.63.14,1.02.8.85,1.45-.19.65-.85,1.02-1.46.82Z"/>
        </g>
        <g>
          <path class="cls-1" d="M137.45,128.09c-.16.34-.32.69-.49,1.03l-.54,1,2.05,1.13.57-1.08c.19-.36.35-.73.53-1.1l-2.13-.99Z"/>
          <path class="cls-2" d="M137.45,130.69c-.56-.32-.78-1.02-.49-1.57.28-.56.96-.8,1.55-.53.59.27.84.99.54,1.59-.32.6-1.04.83-1.6.51Z"/>
        </g>
        <g>
          <path class="cls-1" d="M134.2,133.59c-.23.3-.44.62-.69.91l-.72.88,1.79,1.52.77-.94c.26-.31.49-.65.74-.97l-1.89-1.39Z"/>
          <path class="cls-2" d="M133.69,136.14c-.49-.42-.57-1.16-.17-1.64.39-.49,1.1-.6,1.63-.21.52.38.63,1.14.21,1.67-.43.52-1.18.61-1.67.18Z"/>
        </g>
        <g>
          <path class="cls-1" d="M129.93,138.34c-.55.52-1.14,1-1.73,1.48l1.45,1.84c.63-.52,1.26-1.02,1.86-1.58l-1.58-1.73Z"/>
          <path class="cls-2" d="M128.92,140.73c-.4-.51-.33-1.25.15-1.64.48-.4,1.2-.37,1.64.11.44.47.4,1.24-.12,1.68-.52.43-1.27.37-1.67-.15Z"/>
        </g>
        <g>
          <path class="cls-1" d="M124.8,142.15c-.64.4-1.32.75-1.99,1.11l1.06,2.09c.72-.38,1.44-.75,2.13-1.19l-1.21-2.01Z"/>
          <path class="cls-2" d="M123.35,144.3c-.29-.58-.08-1.29.47-1.58.55-.29,1.25-.12,1.59.43.33.55.15,1.3-.45,1.62-.6.32-1.32.11-1.61-.47Z"/>
        </g>
        <g>
          <path class="cls-1" d="M119.03,144.87c-.71.27-1.44.47-2.17.68l.62,2.26c.78-.23,1.57-.45,2.33-.73l-.78-2.21Z"/>
          <path class="cls-2" d="M117.17,146.68c-.17-.63.18-1.28.78-1.45.6-.18,1.25.13,1.47.74.22.6-.12,1.3-.77,1.49-.65.19-1.31-.16-1.48-.79Z"/>
        </g>
        <g>
          <path class="cls-1" d="M112.83,146.37c-.38.05-.75.11-1.13.14l-1.13.09.15,2.34,1.22-.1c.41-.04.81-.1,1.21-.15l-.32-2.32Z"/>
          <path class="cls-2" d="M110.64,147.77c-.04-.65.44-1.21,1.06-1.26.62-.07,1.19.38,1.29,1.02.09.64-.38,1.24-1.05,1.31-.68.05-1.26-.43-1.29-1.07Z"/>
        </g>
      </g>
      <g>
        <g>
          <path class="cls-1" d="M109.18,76.58l-.09,1.14c-.03.38-.05.76-.11,1.14l2.33.27c.06-.4.08-.81.11-1.21l.09-1.21-2.34-.13Z"/>
          <path class="cls-2" d="M110.15,78.99c-.32-.04-.6-.2-.78-.43-.19-.23-.3-.53-.28-.84.05-.63.61-1.11,1.26-1.08.65.03,1.13.6,1.08,1.27-.03.33-.18.63-.41.82-.24.19-.55.29-.87.26Z"/>
        </g>
        <g>
          <path class="cls-1" d="M108.28,82.94l-.27,1.11c-.09.37-.21.73-.31,1.1l2.25.66c.11-.39.24-.77.33-1.17l.28-1.18-2.29-.52Z"/>
          <path class="cls-2" d="M108.83,85.48c-.63-.19-.97-.82-.81-1.43.15-.61.78-.99,1.41-.85.63.14,1.02.79.86,1.44-.17.65-.84,1.02-1.46.84Z"/>
        </g>
        <g>
          <path class="cls-1" d="M106.33,89.06c-.27.71-.62,1.39-.94,2.09l2.11,1.03c.34-.74.71-1.46,1-2.21l-2.16-.9Z"/>
          <path class="cls-2" d="M106.44,91.66c-.58-.29-.83-.98-.57-1.55.07-.14.16-.27.27-.37.11-.1.23-.18.37-.24.27-.11.59-.12.89,0,.3.12.52.36.63.65.06.14.09.3.08.45,0,.16-.04.31-.12.47-.29.61-.99.87-1.57.58Z"/>
        </g>
        <g>
          <path class="cls-1" d="M103.37,94.76l-.63.95c-.21.32-.42.64-.65.94l1.9,1.37c.25-.32.47-.66.69-1l.67-1.01-1.98-1.26Z"/>
          <path class="cls-2" d="M103.03,97.34c-.52-.38-.64-1.1-.3-1.62.35-.52,1.08-.67,1.62-.32.55.34.69,1.08.32,1.64-.37.57-1.12.69-1.64.31Z"/>
        </g>
        <g>
          <path class="cls-1" d="M99.48,99.87c-.26.28-.51.57-.77.84l-.81.81,1.64,1.67.86-.86c.28-.29.55-.6.82-.89l-1.74-1.57Z"/>
          <path class="cls-2" d="M98.72,102.36c-.45-.46-.46-1.2-.01-1.65.43-.46,1.16-.49,1.64-.06.48.43.51,1.19.05,1.68-.48.48-1.23.49-1.68.02Z"/>
        </g>
        <g>
          <path class="cls-1" d="M94.79,104.26c-.29.24-.61.46-.91.69-.31.22-.61.46-.92.67l1.34,1.93c.34-.22.65-.48.98-.71.32-.24.66-.47.97-.73l-1.45-1.84Z"/>
          <path class="cls-2" d="M93.62,106.59c-.36-.53-.25-1.26.26-1.64.51-.37,1.24-.27,1.64.23.41.51.3,1.25-.24,1.65-.54.4-1.28.29-1.65-.25Z"/>
        </g>
        <g>
          <path class="cls-1" d="M89.43,107.8l-1.01.54c-.34.18-.69.33-1.03.49l.99,2.12c.36-.18.74-.34,1.1-.52l1.07-.57-1.12-2.06Z"/>
          <path class="cls-2" d="M87.88,109.89c-.27-.59-.03-1.27.54-1.55.55-.3,1.26-.07,1.57.49.31.57.08,1.28-.51,1.6-.6.3-1.32.05-1.59-.54Z"/>
        </g>
        <g>
          <polygon class="cls-1" points="83.54 110.37 83 110.56 82.45 110.72 81.36 111.04 81.98 113.31 83.14 112.96 83.72 112.79 84.3 112.59 83.54 110.37"/>
          <path class="cls-2" d="M81.67,112.18c-.17-.63.19-1.28.79-1.45.61-.16,1.25.14,1.46.76.21.61-.13,1.31-.78,1.48-.65.19-1.31-.16-1.47-.79Z"/>
        </g>
        <g>
          <path class="cls-1" d="M77.31,111.92c-.76.09-1.51.22-2.27.28l.22,2.33c.81-.07,1.61-.2,2.41-.3l-.37-2.32Z"/>
          <path class="cls-2" d="M75.15,113.37c-.03-.32.07-.62.26-.85.19-.24.45-.41.77-.45.62-.08,1.21.37,1.32,1.01s-.35,1.23-1.02,1.32c-.33.04-.65-.05-.89-.23-.24-.19-.4-.47-.43-.8Z"/>
        </g>
        <g>
          <path class="cls-1" d="M70.9,112.37c-.76-.03-1.53-.02-2.29-.1l-.17,2.34c.81.08,1.62.08,2.43.1l.03-2.34Z"/>
          <path class="cls-2" d="M68.53,113.44c.02-.32.17-.6.4-.8.22-.19.51-.3.83-.3.63.02,1.13.55,1.13,1.2,0,.65-.55,1.16-1.23,1.14-.34,0-.63-.16-.84-.39-.2-.23-.32-.53-.29-.85Z"/>
        </g>
        <g>
          <path class="cls-1" d="M64.51,111.75c-.37-.07-.75-.13-1.12-.21l-1.11-.27-.56,2.28,1.18.28c.4.09.8.15,1.19.23l.42-2.31Z"/>
          <path class="cls-2" d="M61.99,112.41c.16-.63.78-1.02,1.39-.87.62.13,1.03.73.91,1.37-.11.63-.74,1.06-1.4.93-.66-.16-1.06-.79-.9-1.42Z"/>
        </g>
        <g>
          <path class="cls-1" d="M58.31,110.06c-.36-.12-.71-.27-1.07-.41l-1.06-.43-.94,2.15,1.12.46c.38.15.75.31,1.13.44l.81-2.2Z"/>
          <path class="cls-2" d="M55.72,110.29c.26-.59.95-.88,1.53-.64.29.12.51.35.63.62.12.27.14.59.03.89-.11.3-.34.54-.62.66-.28.12-.61.13-.92,0-.62-.25-.92-.94-.65-1.53Z"/>
        </g>
        <g>
          <path class="cls-1" d="M52.49,107.35c-.65-.4-1.32-.77-1.94-1.2l-1.29,1.96c.66.46,1.37.86,2.06,1.28l1.17-2.03Z"/>
          <path class="cls-2" d="M49.9,107.12c.18-.27.45-.44.74-.5.29-.06.6-.01.87.14.54.32.72,1.04.4,1.6s-1.05.74-1.63.39c-.29-.17-.47-.45-.54-.75-.07-.3-.02-.62.16-.89Z"/>
        </g>
        <g>
          <path class="cls-1" d="M47.22,103.68c-.6-.47-1.15-1-1.72-1.51l-1.6,1.71c.6.54,1.19,1.1,1.82,1.6l1.5-1.8Z"/>
          <path class="cls-2" d="M44.7,103.02c.44-.47,1.18-.51,1.65-.09.23.22.36.5.39.79.02.29-.06.6-.27.85-.21.25-.5.39-.8.41-.31.03-.63-.07-.87-.3-.5-.45-.54-1.2-.1-1.67Z"/>
        </g>
        <g>
          <path class="cls-1" d="M42.63,99.18l-.73-.88c-.24-.29-.49-.59-.71-.9l-1.87,1.42c.24.33.49.64.75.95l.77.94,1.78-1.53Z"/>
          <path class="cls-2" d="M40.26,98.11c.52-.39,1.23-.29,1.64.19.4.49.32,1.22-.16,1.65-.49.42-1.23.35-1.66-.17-.44-.52-.33-1.27.18-1.66Z"/>
        </g>
        <g>
          <path class="cls-1" d="M38.88,93.97c-.19-.33-.4-.65-.58-.98l-.54-1.01-2.08,1.08.57,1.07c.2.35.41.7.62,1.05l2.01-1.21Z"/>
          <path class="cls-2" d="M36.72,92.51c.58-.3,1.28-.09,1.58.47.31.54.13,1.25-.42,1.59-.55.33-1.29.14-1.62-.44-.32-.6-.11-1.32.47-1.61Z"/>
        </g>
        <g>
          <path class="cls-1" d="M36.05,88.2c-.15-.35-.26-.72-.39-1.07-.12-.36-.26-.72-.37-1.08l-2.23.71c.13.38.26.77.4,1.15.14.38.25.77.42,1.14l2.19-.85Z"/>
          <path class="cls-2" d="M34.16,86.4c.61-.19,1.29.13,1.49.72.1.3.07.61-.05.88-.12.27-.34.5-.65.61-.3.12-.63.1-.9-.03-.27-.13-.49-.37-.61-.69-.22-.64.09-1.31.72-1.5Z"/>
        </g>
        <g>
          <path class="cls-1" d="M34.25,82.04c-.13-.75-.3-1.5-.38-2.25l-2.32.32c.09.81.26,1.6.4,2.39l2.3-.46Z"/>
          <path class="cls-2" d="M32.71,79.94c.32-.04.63.05.86.22.12.09.22.2.3.32.08.13.14.27.17.42.11.62-.31,1.22-.94,1.36-.63.13-1.25-.3-1.37-.96-.03-.16-.03-.33,0-.48.04-.15.11-.3.2-.42.18-.25.45-.42.77-.46Z"/>
        </g>
        <g>
          <polygon class="cls-1" points="33.52 75.65 33.49 74.51 33.52 73.37 31.18 73.3 31.15 74.51 31.18 75.72 33.52 75.65"/>
          <path class="cls-2" d="M32.35,73.33c.65.02,1.16.55,1.14,1.18.02.63-.49,1.16-1.14,1.18-.65.02-1.19-.5-1.2-1.18.02-.67.56-1.2,1.2-1.18Z"/>
        </g>
        <g>
          <path class="cls-1" d="M33.87,69.24c.08-.76.25-1.5.38-2.25l-2.3-.46c-.14.8-.32,1.59-.4,2.39l2.32.32Z"/>
          <path class="cls-2" d="M33.1,66.75c.63.13,1.06.74.94,1.36-.03.16-.09.3-.17.42-.08.13-.18.24-.3.32-.24.18-.54.27-.86.22-.32-.04-.59-.22-.77-.46-.09-.12-.16-.27-.2-.42-.03-.15-.04-.31,0-.48.12-.66.74-1.09,1.37-.96Z"/>
        </g>
        <g>
          <path class="cls-1" d="M35.28,62.97c.12-.36.25-.72.37-1.08.13-.36.24-.72.39-1.07l-2.19-.85c-.16.37-.28.76-.42,1.14-.13.38-.27.76-.4,1.15l2.23.71Z"/>
          <path class="cls-2" d="M34.95,60.4c.3.12.52.34.65.61.13.27.16.59.05.88-.21.59-.88.91-1.49.72-.62-.2-.94-.87-.72-1.5.11-.32.33-.56.61-.69.28-.13.6-.14.9-.03Z"/>
        </g>
        <g>
          <path class="cls-1" d="M37.76,57.05l.54-1.01c.19-.33.39-.66.58-.98l-2.01-1.21c-.21.35-.42.69-.62,1.05l-.57,1.07,2.08,1.08Z"/>
          <path class="cls-2" d="M37.87,54.45c.56.34.74,1.04.42,1.59-.29.56-1,.76-1.58.47-.58-.3-.79-1.02-.47-1.61.34-.58,1.07-.78,1.62-.44Z"/>
        </g>
        <g>
          <path class="cls-1" d="M41.2,51.62c.22-.31.46-.61.71-.9l.73-.88-1.78-1.53-.77.94c-.26.31-.52.62-.75.95l1.87,1.42Z"/>
          <path class="cls-2" d="M41.74,49.08c.49.42.56,1.16.16,1.65-.41.48-1.12.58-1.64.19-.52-.39-.62-1.15-.18-1.66.43-.52,1.17-.6,1.66-.17Z"/>
        </g>
        <g>
          <path class="cls-1" d="M45.5,46.85c.57-.51,1.12-1.04,1.72-1.51l-1.5-1.81c-.64.5-1.22,1.06-1.82,1.6l1.6,1.71Z"/>
          <path class="cls-2" d="M46.47,44.44c.21.25.29.56.27.85-.03.29-.16.57-.39.79-.47.42-1.2.38-1.65-.09-.44-.47-.4-1.22.1-1.67.25-.23.56-.32.87-.3.31.02.6.17.8.41Z"/>
        </g>
        <g>
          <path class="cls-1" d="M50.55,42.88c.63-.44,1.29-.81,1.94-1.2l-1.17-2.03c-.69.42-1.4.81-2.06,1.28l1.29,1.96Z"/>
          <path class="cls-2" d="M51.91,40.66c.32.56.14,1.28-.4,1.6-.27.16-.58.2-.87.14-.29-.06-.56-.23-.74-.5-.18-.27-.23-.59-.16-.89.06-.3.25-.58.54-.75.58-.35,1.31-.17,1.63.39Z"/>
        </g>
        <g>
          <path class="cls-1" d="M56.19,39.8l1.06-.43c.35-.14.7-.3,1.07-.41l-.81-2.2c-.39.13-.76.29-1.13.44l-1.12.46.94,2.15Z"/>
          <path class="cls-2" d="M57.91,37.85c.11.3.09.62-.03.89-.12.27-.34.51-.63.62-.58.24-1.27-.05-1.53-.64-.26-.59.03-1.28.65-1.53.31-.13.64-.12.92,0,.28.13.51.36.62.66Z"/>
        </g>
        <g>
          <path class="cls-1" d="M62.27,37.75l1.11-.27c.37-.08.75-.14,1.12-.21l-.42-2.31c-.4.08-.8.14-1.19.23l-1.18.28.56,2.28Z"/>
          <path class="cls-2" d="M64.29,36.12c.11.64-.3,1.24-.91,1.37-.61.15-1.23-.24-1.39-.87-.16-.63.24-1.26.9-1.42.66-.13,1.29.29,1.4.93Z"/>
        </g>
        <g>
          <path class="cls-1" d="M68.61,36.75c.76-.08,1.52-.07,2.29-.1l-.03-2.34c-.81.03-1.62.02-2.43.1l.17,2.34Z"/>
          <path class="cls-2" d="M70.89,35.48c0,.65-.5,1.19-1.13,1.2-.32,0-.61-.11-.83-.3-.22-.2-.37-.48-.4-.8-.02-.32.09-.63.29-.85.2-.23.5-.38.84-.39.67-.02,1.22.49,1.23,1.14Z"/>
        </g>
        <g>
          <path class="cls-1" d="M75.04,36.82c.76.07,1.51.19,2.27.28l.37-2.32c-.8-.1-1.6-.23-2.41-.3l-.22,2.33Z"/>
          <path class="cls-2" d="M77.49,35.94c-.1.64-.69,1.09-1.32,1.01-.31-.04-.58-.21-.77-.45-.19-.23-.29-.53-.26-.85.03-.32.19-.6.43-.8.24-.18.55-.27.89-.23.67.09,1.13.68,1.02,1.32Z"/>
        </g>
        <g>
          <polygon class="cls-1" points="81.36 37.97 82.45 38.3 83 38.46 83.54 38.65 84.3 36.43 83.72 36.23 83.14 36.05 81.98 35.71 81.36 37.97"/>
          <path class="cls-2" d="M83.92,37.54c-.21.62-.86.92-1.46.76-.6-.18-.96-.83-.79-1.45.17-.63.83-.98,1.47-.79.65.18.99.88.78,1.48Z"/>
        </g>
        <g>
          <path class="cls-1" d="M87.38,40.19c.34.17.69.32,1.03.49l1.01.54,1.12-2.06-1.07-.57c-.36-.19-.73-.35-1.1-.52l-.99,2.12Z"/>
          <path class="cls-2" d="M89.99,40.19c-.31.57-1.02.79-1.57.49-.56-.28-.81-.96-.54-1.55.27-.58.99-.84,1.59-.54.6.32.83,1.03.51,1.6Z"/>
        </g>
        <g>
          <path class="cls-1" d="M92.95,43.39c.32.21.62.45.92.67.3.23.62.45.91.69l1.45-1.84c-.31-.26-.65-.49-.97-.73-.33-.24-.64-.49-.98-.71l-1.34,1.93Z"/>
          <path class="cls-2" d="M95.52,43.83c-.4.5-1.13.6-1.64.23-.5-.38-.62-1.11-.26-1.64.37-.54,1.11-.65,1.65-.25.54.4.65,1.14.24,1.65Z"/>
        </g>
        <g>
          <path class="cls-1" d="M97.9,47.5l.81.81c.27.27.51.56.77.84l1.74-1.57c-.27-.3-.54-.6-.82-.89l-.86-.86-1.64,1.67Z"/>
          <path class="cls-2" d="M100.35,48.36c-.49.43-1.21.4-1.64-.06-.44-.44-.44-1.18.01-1.64.45-.46,1.2-.45,1.68.02.46.49.43,1.25-.05,1.68Z"/>
        </g>
        <g>
          <path class="cls-1" d="M102.08,52.37c.23.3.44.62.65.94l.63.95,1.98-1.26-.67-1.01c-.22-.34-.45-.67-.69-1l-1.9,1.37Z"/>
          <path class="cls-2" d="M104.36,53.63c-.55.34-1.28.2-1.62-.32-.34-.53-.23-1.24.3-1.62.52-.38,1.28-.26,1.64.31.37.56.23,1.29-.32,1.64Z"/>
        </g>
        <g>
          <path class="cls-1" d="M105.39,57.87c.32.69.67,1.37.94,2.08l2.16-.9c-.29-.76-.66-1.48-1-2.21l-2.11,1.03Z"/>
          <path class="cls-2" d="M107.41,59.51c-.3.12-.62.12-.89,0-.14-.05-.26-.14-.37-.24-.11-.1-.21-.22-.27-.37-.27-.57-.01-1.26.57-1.55.58-.29,1.28-.03,1.57.58.07.15.11.31.12.47,0,.16-.03.31-.08.45-.11.29-.33.52-.63.65Z"/>
        </g>
        <g>
          <path class="cls-1" d="M107.71,63.86c.1.37.23.73.31,1.1l.27,1.11,2.29-.52-.28-1.18c-.09-.39-.22-.78-.33-1.17l-2.25.66Z"/>
          <path class="cls-2" d="M109.43,65.82c-.63.14-1.26-.24-1.41-.85-.16-.61.19-1.24.81-1.43.62-.18,1.29.19,1.46.84.16.66-.23,1.3-.86,1.44Z"/>
        </g>
        <g>
          <path class="cls-1" d="M108.98,70.16c.06.38.07.76.11,1.14l.09,1.14,2.34-.13-.09-1.21c-.04-.4-.05-.81-.11-1.21l-2.33.27Z"/>
          <path class="cls-2" d="M110.35,72.37c-.65.03-1.21-.45-1.26-1.08-.03-.31.08-.61.28-.84.18-.23.46-.39.78-.43.32-.04.63.06.87.26.23.19.38.49.41.82.05.67-.43,1.24-1.08,1.27Z"/>
        </g>
      </g>
    </g>
  </g>
</svg>