<?xml version="1.0" encoding="UTF-8"?>
<svg id="Layer_2" data-name="Layer 2" xmlns="http://www.w3.org/2000/svg" viewBox="0 0 171.8 224.64">
  <defs>
    <style>
      .cls-1 {
        fill: none;
      }

      .cls-1, .cls-2 {
        stroke-width: 0px;
      }

      .cls-2 {
        fill: #191919;
        fill-rule: evenodd;
      }
    </style>
  </defs>
  <g id="_ÎÓÈ_1" data-name="—ÎÓÈ_1">
    <g>
      <g>
        <path class="cls-1" d="M162.35,208.08c-1.26.63-2.51,1.28-3.78,1.89l1.83,3.84c1.32-.64,2.62-1.31,3.93-1.96l-1.98-3.77Z"/>
        <path class="cls-2" d="M159.49,211.89c-.5-1.05-.06-2.34.98-2.86,1.04-.52,2.33-.1,2.87.93.55,1.04.11,2.32-.97,2.87-1.09.55-2.37.13-2.88-.94Z"/>
      </g>
      <g>
        <path class="cls-1" d="M151.55,213c-.65.28-1.32.5-1.98.74l-1.99.72,1.39,4.02,2.07-.75c.69-.25,1.38-.48,2.06-.77l-1.55-3.96Z"/>
        <path class="cls-2" d="M148.28,216.47c-.38-1.11.2-2.33,1.29-2.73.55-.2,1.13-.15,1.63.07.49.21.91.62,1.12,1.17.21.55.18,1.13-.05,1.64-.23.49-.67.9-1.24,1.11-1.14.41-2.38-.15-2.76-1.26Z"/>
      </g>
      <g>
        <path class="cls-1" d="M140.27,216.7c-.68.18-1.35.39-2.04.54l-2.06.47.94,4.15,2.14-.49c.71-.16,1.41-.38,2.12-.56l-1.1-4.11Z"/>
        <path class="cls-2" d="M136.63,219.78c-.26-1.15.46-2.29,1.59-2.55,1.13-.27,2.28.37,2.59,1.51.31,1.13-.39,2.33-1.57,2.61-1.19.27-2.35-.44-2.61-1.58Z"/>
      </g>
      <g>
        <path class="cls-1" d="M128.65,219.13l-2.09.3c-.35.05-.7.11-1.05.15l-1.05.11.48,4.23,1.09-.11c.36-.04.72-.1,1.09-.15l2.17-.31-.64-4.2Z"/>
        <path class="cls-2" d="M124.7,221.8c-.07-.58.11-1.14.45-1.56.17-.21.38-.39.62-.52.24-.14.5-.24.79-.28,1.15-.17,2.23.64,2.41,1.8.18,1.16-.65,2.24-1.85,2.42-.3.04-.59.03-.87-.04-.27-.07-.53-.21-.75-.38-.44-.34-.74-.84-.8-1.43Z"/>
      </g>
      <g>
        <polygon class="cls-1" points="116.83 220.29 112.6 220.38 112.62 224.64 117.01 224.54 116.83 220.29"/>
        <path class="cls-2" d="M112.61,222.51c0-1.17.94-2.15,2.11-2.17,1.16-.03,2.15.91,2.2,2.08.05,1.18-.89,2.15-2.11,2.17-1.22.03-2.2-.91-2.2-2.08Z"/>
      </g>
      <g>
        <path class="cls-1" d="M104.95,220.12l-2.11-.16-1.05-.08c-.35-.02-.7-.05-1.05-.1l-.45,4.23c.36.05.73.08,1.09.11l1.09.08,2.19.17.28-4.24Z"/>
        <path class="cls-2" d="M100.52,221.89c.06-.59.35-1.07.78-1.43.42-.35.97-.55,1.55-.51,1.16.09,2.04,1.11,1.97,2.28-.07,1.17-1.12,2.05-2.33,1.96-.6-.05-1.13-.33-1.49-.74-.36-.41-.54-.99-.48-1.57Z"/>
      </g>
      <g>
        <path class="cls-1" d="M93.17,218.68c-1.39-.25-2.78-.47-4.14-.81l-.91,4.15c1.42.36,2.87.58,4.31.85l.75-4.19Z"/>
        <path class="cls-2" d="M88.57,219.94c.13-.57.47-1.04.93-1.33.45-.29,1.02-.4,1.59-.31,1.14.2,1.91,1.31,1.71,2.46-.2,1.16-1.34,1.92-2.53,1.71-.6-.1-1.09-.46-1.39-.92-.31-.47-.43-1.04-.3-1.61Z"/>
      </g>
      <g>
        <polygon class="cls-1" points="81.61 215.96 80.6 215.68 80.09 215.53 79.59 215.36 77.59 214.69 76.23 218.71 78.31 219.42 78.83 219.59 79.35 219.74 80.41 220.04 81.61 215.96"/>
        <path class="cls-2" d="M76.91,216.7c.38-1.11,1.58-1.71,2.68-1.34.55.2.99.55,1.25,1.03.26.47.34,1.05.17,1.61-.17.56-.55,1.01-1.04,1.27-.49.26-1.09.35-1.67.15-1.15-.39-1.78-1.61-1.4-2.72Z"/>
      </g>
      <g>
        <path class="cls-1" d="M70.42,212c-1.29-.55-2.57-1.15-3.85-1.73l-1.8,3.85c1.34.6,2.66,1.22,4.01,1.8l1.65-3.92Z"/>
        <path class="cls-2" d="M65.67,212.2c.5-1.06,1.77-1.54,2.82-1.06,1.06.48,1.55,1.75,1.11,2.82-.46,1.1-1.72,1.57-2.83,1.07-1.11-.5-1.6-1.77-1.1-2.83Z"/>
      </g>
      <g>
        <polygon class="cls-1" points="59.75 206.8 56.09 204.68 53.88 208.32 57.69 210.51 59.75 206.8"/>
        <path class="cls-2" d="M54.99,206.5c.61-.99,1.93-1.34,2.93-.76,1.01.58,1.36,1.88.8,2.91-.57,1.03-1.88,1.37-2.94.76-1.05-.61-1.41-1.91-.79-2.92Z"/>
      </g>
      <g>
        <polygon class="cls-1" points="49.72 200.45 48 199.23 47.57 198.92 47.15 198.59 46.32 197.94 43.72 201.31 44.59 201.99 45.02 202.33 45.47 202.65 47.26 203.92 49.72 200.45"/>
        <path class="cls-2" d="M45.02,199.63c.36-.46.87-.74,1.41-.81.54-.07,1.08.08,1.57.41.95.67,1.17,2,.49,2.96-.68.96-2.03,1.17-3.02.46-.5-.34-.78-.89-.86-1.43-.08-.55.06-1.12.42-1.59Z"/>
      </g>
      <g>
        <path class="cls-1" d="M40.42,193.06l-.8-.69c-.26-.24-.51-.48-.77-.73l-1.53-1.46-2.95,3.06,1.59,1.51c.27.25.53.51.8.75l.83.72,2.83-3.18Z"/>
        <path class="cls-2" d="M35.86,191.72c.82-.84,2.16-.88,3-.07.42.4.64.94.68,1.48.03.54-.14,1.09-.53,1.53-.39.44-.93.68-1.48.7-.56.03-1.12-.17-1.56-.59-.88-.84-.93-2.2-.11-3.05Z"/>
      </g>
      <g>
        <polygon class="cls-1" points="31.99 184.71 29.22 181.51 25.96 184.24 28.83 187.56 31.99 184.71"/>
        <path class="cls-2" d="M27.59,182.87c.9-.75,2.25-.64,3.02.23.76.88.67,2.23-.2,3.02-.87.79-2.22.69-3.02-.23-.8-.92-.71-2.27.2-3.02Z"/>
      </g>
      <g>
        <path class="cls-1" d="M24.54,175.46l-1.22-1.72-.61-.86c-.2-.29-.38-.59-.58-.88l-3.54,2.35c.2.31.39.62.6.92l.64.89,1.27,1.79,3.45-2.49Z"/>
        <path class="cls-2" d="M20.36,173.17c.49-.32,1.06-.42,1.59-.31.52.11,1.04.4,1.37.88.67.95.45,2.28-.5,2.97-.95.69-2.29.45-3-.55-.35-.5-.48-1.07-.37-1.62.11-.55.42-1.05.91-1.37Z"/>
      </g>
      <g>
        <path class="cls-1" d="M18.13,165.46c-.35-.61-.71-1.22-1.04-1.84l-.96-1.88-3.78,1.95,1,1.95c.34.65.72,1.27,1.08,1.91l3.7-2.09Z"/>
        <path class="cls-2" d="M14.24,162.72c1.05-.53,2.32-.13,2.85.91.56,1.02.22,2.3-.81,2.88-1.02.58-2.35.2-2.93-.86-.56-1.08-.16-2.39.89-2.93Z"/>
      </g>
      <g>
        <polygon class="cls-1" points="12.85 154.83 12.63 154.35 12.44 153.86 12.05 152.88 11.28 150.91 7.3 152.43 8.11 154.47 8.51 155.5 8.71 156.01 8.94 156.51 12.85 154.83"/>
        <path class="cls-2" d="M9.29,151.67c1.1-.42,2.33.12,2.76,1.21.21.54.19,1.12-.03,1.63-.21.5-.59.93-1.13,1.16-.54.23-1.13.22-1.64,0-.5-.22-.92-.64-1.14-1.2-.45-1.13.08-2.39,1.18-2.8Z"/>
      </g>
      <g>
        <polygon class="cls-1" points="8.79 143.68 7.64 139.61 3.52 140.68 4.72 144.91 8.79 143.68"/>
        <path class="cls-2" d="M5.58,140.15c1.14-.29,2.32.38,2.64,1.5.32,1.12-.34,2.3-1.46,2.65-1.12.34-2.3-.33-2.64-1.5-.33-1.17.32-2.36,1.46-2.65Z"/>
      </g>
      <g>
        <path class="cls-1" d="M6,132.14l-.37-2.08c-.12-.69-.26-1.38-.33-2.09l-4.21.61c.08.73.21,1.45.34,2.17l.39,2.16,4.18-.78Z"/>
        <path class="cls-2" d="M3.19,128.28c.58-.08,1.14.08,1.57.4.43.32.77.8.87,1.38.2,1.14-.57,2.25-1.72,2.47-1.15.22-2.26-.58-2.48-1.77-.1-.6.02-1.17.35-1.62.33-.45.83-.77,1.41-.85Z"/>
      </g>
      <g>
        <path class="cls-1" d="M4.48,120.36l-.16-2.11c-.03-.35-.04-.7-.05-1.06l-.03-1.06-4.25.15.03,1.1c.01.37.01.73.05,1.1l.17,2.19,4.24-.31Z"/>
        <path class="cls-2" d="M2.12,116.22c.59-.02,1.12.2,1.52.57.2.18.36.41.47.65.11.25.18.52.21.81.09,1.16-.79,2.17-1.96,2.26-1.17.09-2.19-.82-2.29-2.03-.03-.3.02-.59.13-.86.1-.27.25-.51.44-.71.37-.41.9-.67,1.49-.69Z"/>
      </g>
      <g>
        <path class="cls-1" d="M4.25,108.49l.03-1.06c0-.35.01-.7.05-1.06l.16-2.11-4.24-.31-.17,2.19c-.04.36-.04.73-.05,1.1l-.03,1.1,4.25.15Z"/>
        <path class="cls-2" d="M2.36,104.12c1.17.09,2.05,1.1,1.96,2.26-.03.29-.1.57-.21.81-.11.25-.27.47-.47.65-.39.37-.93.59-1.52.57-.59-.02-1.11-.28-1.49-.69-.19-.21-.34-.45-.44-.71-.1-.27-.15-.56-.13-.86.09-1.21,1.12-2.12,2.29-2.03Z"/>
      </g>
      <g>
        <path class="cls-1" d="M5.3,96.66c.07-.7.21-1.39.33-2.09l.37-2.08-4.18-.78-.39,2.16c-.13.72-.27,1.44-.34,2.17l4.21.61Z"/>
        <path class="cls-2" d="M3.91,92.11c1.15.22,1.92,1.32,1.72,2.47-.1.57-.44,1.05-.87,1.38-.43.32-.99.49-1.57.4-.58-.08-1.08-.4-1.41-.85-.33-.45-.46-1.03-.35-1.62.21-1.2,1.32-1.99,2.48-1.77Z"/>
      </g>
      <g>
        <polygon class="cls-1" points="7.64 85.02 8.79 80.96 4.72 79.73 3.52 83.95 7.64 85.02"/>
        <path class="cls-2" d="M6.75,80.34c1.12.34,1.78,1.53,1.46,2.65-.32,1.12-1.5,1.79-2.64,1.5-1.14-.29-1.79-1.48-1.46-2.65s1.51-1.84,2.64-1.5Z"/>
      </g>
      <g>
        <polygon class="cls-1" points="11.28 73.72 12.05 71.76 12.44 70.78 12.63 70.28 12.85 69.8 8.94 68.13 8.71 68.63 8.51 69.14 8.11 70.16 7.3 72.2 11.28 73.72"/>
        <path class="cls-2" d="M10.89,68.97c.54.23.92.66,1.13,1.16.21.51.24,1.09.03,1.63-.43,1.08-1.66,1.62-2.76,1.21-1.1-.42-1.63-1.67-1.18-2.8.22-.56.64-.98,1.14-1.2.51-.22,1.1-.22,1.64,0Z"/>
      </g>
      <g>
        <path class="cls-1" d="M16.13,62.89l.96-1.88c.33-.62.7-1.22,1.04-1.84l-3.7-2.09c-.36.64-.74,1.26-1.08,1.91l-1,1.95,3.78,1.95Z"/>
        <path class="cls-2" d="M16.28,58.13c1.02.58,1.37,1.87.81,2.88-.53,1.04-1.81,1.44-2.85.91-1.05-.53-1.44-1.85-.89-2.93.59-1.07,1.92-1.44,2.93-.86Z"/>
      </g>
      <g>
        <path class="cls-1" d="M22.13,52.65c.19-.29.37-.6.58-.88l.61-.86,1.22-1.72-3.45-2.49-1.27,1.79-.64.89c-.21.3-.4.61-.6.92l3.54,2.35Z"/>
        <path class="cls-2" d="M22.82,47.93c.95.69,1.17,2.02.5,2.97-.33.48-.85.76-1.37.88-.53.11-1.1.02-1.59-.31-.49-.32-.8-.82-.91-1.37-.11-.55.02-1.12.37-1.62.7-.99,2.05-1.24,3-.55Z"/>
      </g>
      <g>
        <polygon class="cls-1" points="29.22 43.12 31.99 39.93 28.83 37.08 25.96 40.4 29.22 43.12"/>
        <path class="cls-2" d="M30.41,38.5c.87.79.96,2.14.2,3.02-.76.88-2.11.98-3.02.23-.9-.75-.99-2.1-.2-3.02.8-.92,2.15-1.02,3.02-.23Z"/>
      </g>
      <g>
        <path class="cls-1" d="M37.33,34.45l1.53-1.46c.26-.24.51-.49.77-.73l.8-.69-2.83-3.18-.83.72c-.27.25-.53.5-.8.75l-1.59,1.51,2.95,3.06Z"/>
        <path class="cls-2" d="M39.01,29.98c.39.44.56.99.53,1.53-.04.53-.26,1.07-.68,1.48-.84.8-2.19.77-3-.07-.82-.84-.77-2.21.11-3.05.44-.42,1-.62,1.56-.59.56.03,1.09.27,1.48.7Z"/>
      </g>
      <g>
        <polygon class="cls-1" points="46.32 26.69 47.15 26.04 47.57 25.71 48 25.41 49.72 24.18 47.26 20.72 45.47 21.99 45.02 22.31 44.59 22.65 43.72 23.33 46.32 26.69"/>
        <path class="cls-2" d="M48.49,22.45c.68.96.46,2.28-.49,2.96-.48.33-1.03.48-1.57.41-.54-.07-1.05-.34-1.41-.81-.36-.46-.49-1.04-.42-1.59.08-.55.36-1.09.86-1.43.99-.71,2.34-.5,3.02.46Z"/>
      </g>
      <g>
        <polygon class="cls-1" points="56.09 19.95 59.75 17.84 57.69 14.12 53.88 16.32 56.09 19.95"/>
        <path class="cls-2" d="M58.72,15.98c.57,1.03.21,2.33-.8,2.91-1.01.58-2.33.23-2.93-.76-.62-1.01-.26-2.31.79-2.92,1.06-.61,2.37-.26,2.94.76Z"/>
      </g>
      <g>
        <path class="cls-1" d="M66.57,14.36c1.29-.57,2.56-1.17,3.85-1.73l-1.65-3.92c-1.35.58-2.67,1.2-4.01,1.8l1.8,3.85Z"/>
        <path class="cls-2" d="M69.6,10.67c.44,1.07-.05,2.34-1.11,2.82-1.06.48-2.32,0-2.82-1.06-.5-1.06,0-2.33,1.1-2.83,1.11-.5,2.37-.03,2.83,1.07Z"/>
      </g>
      <g>
        <polygon class="cls-1" points="77.59 9.95 79.59 9.27 80.09 9.1 80.6 8.96 81.61 8.67 80.41 4.59 79.35 4.89 78.83 5.04 78.31 5.22 76.23 5.92 77.59 9.95"/>
        <path class="cls-2" d="M81.01,6.63c.17.56.09,1.14-.17,1.61-.26.48-.7.83-1.25,1.03-1.1.37-2.3-.23-2.68-1.34s.25-2.33,1.4-2.72c.57-.21,1.18-.11,1.67.15.49.26.87.7,1.04,1.27Z"/>
      </g>
      <g>
        <path class="cls-1" d="M89.02,6.77c1.37-.35,2.76-.56,4.14-.81l-.75-4.19c-1.44.26-2.89.49-4.31.85l.91,4.15Z"/>
        <path class="cls-2" d="M92.8,3.86c.2,1.16-.56,2.26-1.71,2.46-.58.09-1.14-.02-1.59-.31-.45-.29-.8-.76-.93-1.33s0-1.15.3-1.61c.3-.47.79-.83,1.39-.92,1.2-.21,2.33.55,2.53,1.71Z"/>
      </g>
      <g>
        <path class="cls-1" d="M100.74,4.86c.35-.05.7-.08,1.05-.1l1.05-.08,2.11-.16-.28-4.24-2.19.17-1.09.08c-.36.03-.73.05-1.09.11l.45,4.23Z"/>
        <path class="cls-2" d="M104.81,2.39c.07,1.17-.81,2.19-1.97,2.28-.58.04-1.13-.15-1.55-.51-.42-.35-.71-.84-.78-1.43-.06-.58.12-1.15.48-1.57.36-.41.88-.69,1.49-.74,1.21-.09,2.26.78,2.33,1.96Z"/>
      </g>
      <g>
        <polygon class="cls-1" points="112.6 4.25 116.83 4.34 117.01 .09 112.62 0 112.6 4.25"/>
        <path class="cls-2" d="M116.92,2.22c-.05,1.17-1.04,2.1-2.2,2.08-1.16-.02-2.11-1-2.11-2.17,0-1.17.99-2.11,2.2-2.08,1.22.03,2.16.99,2.11,2.17Z"/>
      </g>
      <g>
        <path class="cls-1" d="M124.46,4.95l1.05.11c.35.04.7.1,1.05.15l2.09.3.64-4.2-2.17-.31c-.36-.05-.72-.11-1.09-.15l-1.09-.11-.48,4.23Z"/>
        <path class="cls-2" d="M128.97,3.4c-.18,1.16-1.26,1.97-2.41,1.8-.29-.04-.56-.14-.79-.28-.24-.14-.45-.31-.61-.52-.34-.42-.52-.97-.45-1.56s.37-1.09.8-1.43c.22-.17.47-.3.75-.38.27-.07.57-.09.87-.04,1.2.17,2.03,1.26,1.85,2.42Z"/>
      </g>
      <g>
        <path class="cls-1" d="M136.16,6.93l2.06.47c.69.15,1.36.36,2.04.54l1.1-4.11c-.71-.19-1.41-.4-2.12-.56l-2.14-.49-.94,4.15Z"/>
        <path class="cls-2" d="M140.82,5.89c-.31,1.14-1.46,1.79-2.59,1.51-1.13-.26-1.84-1.4-1.59-2.55.25-1.15,1.42-1.86,2.61-1.58,1.18.29,1.88,1.49,1.57,2.61Z"/>
      </g>
      <g>
        <path class="cls-1" d="M147.58,10.17l1.99.72c.66.25,1.33.46,1.98.74l1.55-3.96c-.67-.29-1.37-.52-2.06-.77l-2.07-.75-1.39,4.02Z"/>
        <path class="cls-2" d="M152.32,9.65c-.21.55-.63.95-1.12,1.17-.5.23-1.08.27-1.63.07-1.09-.39-1.67-1.62-1.29-2.73.38-1.11,1.62-1.68,2.76-1.26.57.21,1,.62,1.24,1.11.23.51.26,1.09.05,1.64Z"/>
      </g>
      <g>
        <path class="cls-1" d="M158.57,14.67c1.27.61,2.52,1.26,3.78,1.89l1.98-3.77c-1.31-.65-2.61-1.33-3.93-1.96l-1.83,3.84Z"/>
        <path class="cls-2" d="M163.34,14.67c-.55,1.04-1.84,1.46-2.87.93-1.04-.52-1.47-1.81-.98-2.86.51-1.07,1.79-1.49,2.88-.94,1.09.55,1.52,1.83.97,2.87Z"/>
      </g>
      <g>
        <path class="cls-1" d="M166.05,22.14c1.27.61,2.52,1.26,3.78,1.89l1.98-3.77c-1.31-.65-2.61-1.33-3.93-1.96l-1.83,3.84Z"/>
        <path class="cls-2" d="M170.81,22.14c-.55,1.04-1.84,1.46-2.87.93-1.04-.52-1.47-1.81-.98-2.86.51-1.07,1.79-1.49,2.88-.94,1.09.55,1.52,1.83.97,2.87Z"/>
      </g>
      <g>
        <path class="cls-1" d="M166.05,204.12c1.27.61,2.52,1.26,3.78,1.89l1.98-3.77c-1.31-.65-2.61-1.33-3.93-1.96l-1.83,3.84Z"/>
        <path class="cls-2" d="M170.81,204.13c-.55,1.04-1.84,1.46-2.87.93-1.04-.52-1.47-1.81-.98-2.86.51-1.07,1.79-1.49,2.88-.94,1.09.55,1.52,1.83.97,2.87Z"/>
      </g>
      <g>
        <path class="cls-1" d="M160.71,20.84l-1.07.03c-.36,0-.71.02-1.07.05l-2.14.16.33,4.24,2.04-.16c.34-.03.68-.04,1.02-.05l1.02-.03-.14-4.25Z"/>
        <path class="cls-2" d="M156.6,23.2c-.1-1.17.78-2.19,1.97-2.28.15-.01.29,0,.43.01.14.02.28.06.41.11.26.1.5.25.7.44.4.37.65.9.67,1.49.02.59-.2,1.12-.55,1.52-.18.2-.39.36-.63.47-.12.06-.25.1-.38.13-.13.04-.27.06-.41.07-1.12.09-2.11-.79-2.21-1.96Z"/>
      </g>
      <g>
        <path class="cls-1" d="M148.72,22.01l-2.11.38c-.7.13-1.41.24-2.1.42l.89,4.16c.66-.17,1.33-.27,2-.4l2.01-.36-.69-4.2Z"/>
        <path class="cls-2" d="M144.95,24.88c-.12-.57,0-1.15.29-1.61.3-.46.78-.78,1.37-.88,1.17-.21,2.27.56,2.46,1.72.19,1.16-.56,2.26-1.67,2.46-.55.1-1.11-.05-1.55-.35-.44-.29-.78-.76-.9-1.33Z"/>
      </g>
      <g>
        <polygon class="cls-1" points="136.98 24.74 136.47 24.89 135.96 25.06 134.94 25.41 132.91 26.09 134.34 30.1 136.28 29.44 137.25 29.12 137.73 28.95 138.22 28.81 136.98 24.74"/>
        <path class="cls-2" d="M133.63,28.1c-.4-1.1.19-2.31,1.32-2.69.56-.19,1.14-.14,1.62.11.48.25.87.7,1.04,1.26.17.56.1,1.13-.14,1.61-.24.49-.65.88-1.18,1.06-1.06.36-2.25-.24-2.65-1.35Z"/>
      </g>
      <g>
        <path class="cls-1" d="M125.72,29.03c-.65.3-1.31.58-1.95.9l-1.91.98,1.95,3.78,1.82-.93c.61-.3,1.24-.57,1.86-.85l-1.77-3.87Z"/>
        <path class="cls-2" d="M122.84,32.79c-.54-1.04-.12-2.33.94-2.87,1.07-.51,2.35-.03,2.83,1.04.49,1.08.04,2.3-.97,2.79-1,.51-2.25.08-2.79-.96Z"/>
      </g>
      <g>
        <path class="cls-1" d="M115.12,34.74l-1.8,1.16c-.3.2-.61.38-.9.58l-.87.62,2.43,3.49.83-.59c.28-.19.57-.37.86-.56l1.72-1.1-2.26-3.6Z"/>
        <path class="cls-2" d="M112.75,38.85c-.34-.48-.45-1.06-.35-1.6.05-.27.15-.54.3-.77.16-.23.36-.43.61-.59,1-.64,2.32-.35,2.94.64.62,1,.36,2.3-.59,2.9-.24.15-.5.25-.76.29-.27.05-.53.05-.79,0-.52-.1-1.01-.4-1.35-.88Z"/>
      </g>
      <g>
        <polygon class="cls-1" points="105.34 41.79 102.11 44.6 104.97 47.74 108.06 45.06 105.34 41.79"/>
        <path class="cls-2" d="M103.54,46.17c-.8-.87-.71-2.2.19-2.98.9-.78,2.23-.67,2.98.23.75.91.66,2.24-.19,2.98-.85.74-2.19.63-2.98-.23Z"/>
      </g>
      <g>
        <path class="cls-1" d="M96.6,50.08c-.24.26-.5.51-.73.78l-.7.81-1.4,1.62,3.25,2.74,1.34-1.55.67-.77c.23-.25.47-.5.7-.74l-3.12-2.89Z"/>
        <path class="cls-2" d="M95.38,54.66c-.9-.75-1-2.09-.22-2.99.76-.91,2.14-.94,3-.14.86.8.91,2.1.19,2.96-.74.85-2.06.93-2.96.17Z"/>
      </g>
      <g>
        <polygon class="cls-1" points="89.01 59.43 87.77 61.18 86.61 62.98 90.19 65.28 91.29 63.56 92.48 61.89 89.01 59.43"/>
        <path class="cls-2" d="M88.4,64.13c-.99-.63-1.27-1.95-.63-2.95.68-.97,2.02-1.2,2.97-.52.96.68,1.2,1.98.55,2.9-.61.95-1.9,1.2-2.89.57Z"/>
      </g>
      <g>
        <path class="cls-1" d="M82.7,69.69l-.98,1.91-.49.95c-.15.32-.3.65-.45.98l3.85,1.8c.14-.31.28-.62.42-.93l.47-.91.93-1.82-3.76-1.98Z"/>
        <path class="cls-2" d="M82.71,74.43c-1.06-.49-1.55-1.78-.99-2.83.54-1.06,1.82-1.47,2.86-.92,1.04.55,1.46,1.81.95,2.81-.53.99-1.75,1.43-2.82.94Z"/>
      </g>
      <g>
        <path class="cls-1" d="M77.78,80.69c-.47,1.35-.92,2.71-1.38,4.06l4.06,1.28c.44-1.29.87-2.58,1.32-3.87l-3.99-1.47Z"/>
        <path class="cls-2" d="M78.42,85.39c-1.12-.35-1.72-1.54-1.34-2.67.38-1.13,1.58-1.71,2.69-1.29,1.09.41,1.7,1.6,1.33,2.67-.36,1.06-1.56,1.65-2.68,1.3Z"/>
      </g>
      <g>
        <path class="cls-1" d="M74.39,92.25l-.24,1.04-.12.52c-.04.17-.06.35-.1.53l-.38,2.11,4.19.73.36-2.01c.03-.17.06-.34.09-.5l.12-.5.23-1-4.15-.93Z"/>
        <path class="cls-2" d="M75.65,96.83c-1.16-.2-1.93-1.31-1.72-2.48.09-.59.47-1.06.93-1.35.46-.29,1.03-.41,1.61-.28.57.13,1.04.47,1.33.92.3.45.39.99.31,1.54-.2,1.11-1.3,1.84-2.45,1.65Z"/>
      </g>
      <g>
        <path class="cls-1" d="M72.54,104.16l-.16,2.14c-.06.71-.12,1.42-.12,2.14l4.25.18c0-.68.06-1.36.12-2.04l.15-2.04-4.24-.37Z"/>
        <path class="cls-2" d="M74.38,108.52c-.59-.02-1.11-.28-1.49-.69-.38-.4-.56-.95-.52-1.54.09-1.19,1.11-2.06,2.28-1.95,1.17.11,2.05,1.1,1.96,2.23-.04.56-.33,1.06-.72,1.41-.39.35-.93.56-1.52.54Z"/>
      </g>
      <g>
        <path class="cls-1" d="M72.26,116.2c0,.71.07,1.43.12,2.14l.16,2.14,4.24-.37-.15-2.04c-.05-.68-.11-1.36-.12-2.04l-4.25.18Z"/>
        <path class="cls-2" d="M74.66,120.29c-1.17.11-2.19-.76-2.28-1.95-.04-.59.14-1.14.52-1.54.37-.4.9-.66,1.49-.69.59-.02,1.12.19,1.52.54.39.35.68.85.72,1.41.09,1.12-.79,2.12-1.96,2.23Z"/>
      </g>
      <g>
        <path class="cls-1" d="M73.56,128.18l.38,2.11c.03.18.06.35.1.53l.12.52.24,1.04,4.15-.93-.23-1-.12-.5c-.03-.17-.06-.34-.09-.5l-.36-2.01-4.19.73Z"/>
        <path class="cls-2" d="M76.47,131.92c-.57.13-1.14.01-1.61-.28-.46-.3-.83-.76-.93-1.35-.21-1.17.56-2.28,1.72-2.48,1.16-.2,2.26.54,2.45,1.65.09.56,0,1.1-.31,1.54-.29.44-.76.79-1.33.92Z"/>
      </g>
      <g>
        <path class="cls-1" d="M76.39,139.89c.46,1.35.91,2.71,1.38,4.06l3.99-1.47c-.45-1.29-.88-2.58-1.32-3.87l-4.06,1.28Z"/>
        <path class="cls-2" d="M79.77,143.21c-1.11.42-2.31-.17-2.69-1.29-.38-1.13.22-2.32,1.34-2.67,1.12-.35,2.32.23,2.68,1.3.36,1.06-.25,2.26-1.33,2.67Z"/>
      </g>
      <g>
        <path class="cls-1" d="M80.78,151.11c.15.32.29.65.45.98l.49.95.98,1.91,3.76-1.98-.93-1.82-.47-.91c-.15-.31-.28-.62-.42-.93l-3.85,1.8Z"/>
        <path class="cls-2" d="M84.58,153.96c-1.04.55-2.32.14-2.86-.92-.56-1.05-.07-2.34.99-2.83,1.07-.5,2.29-.05,2.82.94.51,1,.09,2.26-.95,2.81Z"/>
      </g>
      <g>
        <polygon class="cls-1" points="86.61 161.65 87.77 163.46 89.01 165.21 92.48 162.75 91.29 161.08 90.19 159.36 86.61 161.65"/>
        <path class="cls-2" d="M90.74,163.98c-.95.68-2.29.45-2.97-.52-.64-1-.36-2.32.63-2.95.99-.63,2.29-.37,2.89.57.65.92.4,2.21-.55,2.9Z"/>
      </g>
      <g>
        <path class="cls-1" d="M93.76,171.35l1.4,1.62.7.81c.24.27.49.52.73.78l3.12-2.89c-.23-.25-.47-.49-.7-.74l-.67-.77-1.34-1.55-3.25,2.74Z"/>
        <path class="cls-2" d="M98.16,173.11c-.86.8-2.23.77-3-.14-.78-.9-.68-2.24.22-2.99.9-.75,2.23-.68,2.96.17.72.86.67,2.16-.19,2.96Z"/>
      </g>
      <g>
        <polygon class="cls-1" points="102.11 180.04 105.34 182.85 108.06 179.57 104.97 176.89 102.11 180.04"/>
        <path class="cls-2" d="M106.7,181.21c-.75.91-2.08,1.01-2.98.23-.9-.78-.98-2.11-.19-2.98.79-.86,2.13-.97,2.98-.23.85.74.93,2.07.19,2.98Z"/>
      </g>
      <g>
        <path class="cls-1" d="M111.54,187.53l.87.62c.29.2.6.39.9.58l1.8,1.16,2.26-3.6-1.72-1.1c-.29-.19-.58-.36-.86-.56l-.83-.59-2.43,3.49Z"/>
        <path class="cls-2" d="M116.25,188.09c-.62,1-1.93,1.29-2.94.64-.25-.16-.45-.36-.61-.59-.15-.23-.25-.5-.3-.77-.1-.54.01-1.11.35-1.6.34-.48.83-.78,1.35-.89.26-.05.53-.05.79,0,.27.04.53.14.76.29.95.61,1.21,1.91.59,2.9Z"/>
      </g>
      <g>
        <path class="cls-1" d="M121.86,193.74l1.91.98c.64.32,1.3.6,1.95.9l1.77-3.87c-.62-.29-1.25-.55-1.86-.85l-1.82-.93-1.95,3.78Z"/>
        <path class="cls-2" d="M126.61,193.67c-.48,1.06-1.76,1.55-2.83,1.04-1.06-.54-1.48-1.83-.94-2.87.54-1.04,1.79-1.47,2.79-.96,1.01.49,1.46,1.71.97,2.79Z"/>
      </g>
      <g>
        <polygon class="cls-1" points="132.91 198.54 134.94 199.23 135.96 199.57 136.47 199.74 136.98 199.89 138.22 195.82 137.73 195.68 137.25 195.52 136.28 195.19 134.34 194.54 132.91 198.54"/>
        <path class="cls-2" d="M137.6,197.86c-.17.56-.55,1.01-1.04,1.26-.48.24-1.06.3-1.62.11-1.13-.38-1.72-1.59-1.32-2.69.4-1.1,1.59-1.71,2.65-1.35.53.18.94.57,1.18,1.06.24.48.31,1.04.14,1.61Z"/>
      </g>
      <g>
        <path class="cls-1" d="M144.51,201.83c.69.18,1.4.29,2.1.42l2.11.38.69-4.2-2.01-.36c-.67-.12-1.34-.23-2-.4l-.89,4.16Z"/>
        <path class="cls-2" d="M149.07,200.53c-.19,1.16-1.29,1.93-2.46,1.72-.58-.11-1.07-.43-1.37-.88-.3-.46-.42-1.04-.29-1.61.12-.57.46-1.04.9-1.33.44-.3.99-.45,1.55-.35,1.11.2,1.85,1.3,1.67,2.46Z"/>
      </g>
      <g>
        <path class="cls-1" d="M156.43,203.55l2.14.16c.36.03.71.04,1.07.05l1.07.03.14-4.25-1.02-.03c-.34,0-.68-.01-1.02-.05l-2.04-.16-.33,4.24Z"/>
        <path class="cls-2" d="M160.78,201.67c-.02.59-.27,1.11-.67,1.49-.2.19-.44.34-.7.44-.13.05-.27.09-.41.11-.14.02-.29.02-.43.01-1.19-.09-2.07-1.11-1.97-2.28.1-1.17,1.08-2.05,2.21-1.96.14.01.28.04.41.07.13.03.26.08.38.13.24.11.45.27.63.47.36.39.57.93.55,1.52Z"/>
      </g>
    </g>
  </g>
</svg>