<?xml version="1.0" encoding="UTF-8"?>
<svg id="Layer_2" data-name="Layer 2" xmlns="http://www.w3.org/2000/svg" viewBox="0 0 115.4 167.74">
  <defs>
    <style>
      .cls-1 {
        fill: none;
      }

      .cls-1, .cls-2 {
        stroke-width: 0px;
      }

      .cls-2 {
        fill: #191919;
        fill-rule: evenodd;
      }
    </style>
  </defs>
  <g id="_ÎÓÈ_1" data-name="—ÎÓÈ_1">
    <g>
      <g>
        <rect class="cls-1" x="5.67" y="75.75" width="4.62" height="4.64" transform="translate(-60.8 40.29) rotate(-55.39)"/>
        <path class="cls-2" d="M9.29,76.17c1.05.73,1.32,2.17.6,3.22s-2.17,1.31-3.22.58-1.32-2.17-.6-3.22c.73-1.05,2.17-1.31,3.22-.58Z"/>
      </g>
      <g>
        <rect class="cls-1" x="13.05" y="65.05" width="4.62" height="4.64" transform="translate(-48.82 41.75) rotate(-55.39)"/>
        <path class="cls-2" d="M16.67,65.47c1.05.73,1.32,2.17.6,3.22-.72,1.05-2.17,1.31-3.22.58-1.05-.73-1.32-2.17-.6-3.22.72-1.05,2.17-1.31,3.22-.58Z"/>
      </g>
      <g>
        <rect class="cls-1" x="20.43" y="54.36" width="4.62" height="4.64" transform="translate(-36.83 43.2) rotate(-55.39)"/>
        <path class="cls-2" d="M24.05,54.78c1.05.73,1.32,2.17.6,3.22-.72,1.05-2.17,1.31-3.22.58-1.05-.73-1.32-2.17-.6-3.22.73-1.05,2.17-1.31,3.22-.58Z"/>
      </g>
      <g>
        <rect class="cls-1" x="27.81" y="43.67" width="4.62" height="4.64" transform="translate(-24.84 44.66) rotate(-55.39)"/>
        <path class="cls-2" d="M31.43,44.09c1.05.73,1.32,2.17.6,3.22-.72,1.05-2.17,1.31-3.22.58-1.05-.73-1.32-2.17-.6-3.22.73-1.05,2.17-1.31,3.22-.58Z"/>
      </g>
      <g>
        <rect class="cls-1" x="35.19" y="32.97" width="4.62" height="4.64" transform="translate(-12.85 46.11) rotate(-55.39)"/>
        <path class="cls-2" d="M38.81,33.39c1.05.73,1.32,2.17.6,3.22-.72,1.05-2.17,1.31-3.22.58s-1.32-2.17-.6-3.22c.72-1.05,2.17-1.31,3.22-.58Z"/>
      </g>
      <g>
        <rect class="cls-1" x="42.57" y="22.28" width="4.62" height="4.64" transform="translate(-.86 47.57) rotate(-55.39)"/>
        <path class="cls-2" d="M46.19,22.7c1.05.73,1.32,2.17.6,3.22-.72,1.05-2.17,1.31-3.22.58-1.05-.73-1.32-2.17-.6-3.22s2.17-1.31,3.22-.58Z"/>
      </g>
      <g>
        <rect class="cls-1" x="49.95" y="11.59" width="4.62" height="4.64" transform="translate(11.13 49.02) rotate(-55.39)"/>
        <path class="cls-2" d="M53.58,12c1.05.73,1.32,2.17.6,3.22-.72,1.05-2.17,1.31-3.22.58-1.05-.73-1.32-2.17-.6-3.22.73-1.05,2.17-1.31,3.22-.58Z"/>
      </g>
      <g>
        <rect class="cls-1" x="63.22" y="11.58" width="4.64" height="4.48" transform="translate(3.45 38.93) rotate(-33.93)"/>
        <path class="cls-2" d="M66.79,15.68c-1.06.72-2.48.46-3.18-.56s-.39-2.44.68-3.15c1.06-.72,2.48-.46,3.18.56.69,1.03.39,2.44-.68,3.15Z"/>
      </g>
      <g>
        <rect class="cls-1" x="70.25" y="22.03" width="4.64" height="4.48" transform="translate(-1.19 44.64) rotate(-33.93)"/>
        <path class="cls-2" d="M73.82,26.12c-1.06.72-2.48.46-3.18-.56-.69-1.03-.39-2.44.68-3.15s2.48-.46,3.18.56c.69,1.03.39,2.44-.68,3.15Z"/>
      </g>
      <g>
        <rect class="cls-1" x="77.27" y="32.47" width="4.64" height="4.48" transform="translate(-5.82 50.34) rotate(-33.93)"/>
        <path class="cls-2" d="M80.84,36.57c-1.06.72-2.48.46-3.18-.56-.69-1.03-.39-2.44.68-3.15,1.06-.72,2.48-.46,3.18.56.69,1.03.39,2.44-.68,3.15Z"/>
      </g>
      <g>
        <rect class="cls-1" x="84.3" y="42.92" width="4.64" height="4.48" transform="translate(-10.46 56.04) rotate(-33.93)"/>
        <path class="cls-2" d="M87.87,47.01c-1.06.72-2.48.46-3.18-.56-.69-1.03-.39-2.44.68-3.15,1.06-.72,2.48-.46,3.18.56.69,1.03.39,2.44-.68,3.15Z"/>
      </g>
      <g>
        <rect class="cls-1" x="91.33" y="53.36" width="4.64" height="4.48" transform="translate(-15.09 61.74) rotate(-33.93)"/>
        <path class="cls-2" d="M94.9,57.46c-1.06.72-2.48.46-3.18-.56-.69-1.03-.39-2.44.68-3.15,1.06-.72,2.48-.46,3.18.56.69,1.03.39,2.44-.68,3.15Z"/>
      </g>
      <g>
        <rect class="cls-1" x="98.35" y="63.81" width="4.64" height="4.48" transform="translate(-19.72 67.44) rotate(-33.93)"/>
        <path class="cls-2" d="M101.92,67.9c-1.06.72-2.48.46-3.18-.56s-.39-2.44.68-3.15c1.06-.72,2.48-.46,3.18.56.69,1.03.39,2.44-.68,3.15Z"/>
      </g>
      <g>
        <rect class="cls-1" x="105.38" y="74.25" width="4.64" height="4.48" transform="translate(-24.36 73.14) rotate(-33.93)"/>
        <path class="cls-2" d="M108.95,78.35c-1.06.72-2.48.46-3.18-.56-.69-1.03-.39-2.44.68-3.15,1.06-.72,2.48-.46,3.18.56.69,1.03.39,2.44-.68,3.15Z"/>
      </g>
      <g>
        <rect class="cls-1" x="105.37" y="88.76" width="4.52" height="4.64" transform="translate(-28.24 128.76) rotate(-55.74)"/>
        <path class="cls-2" d="M106.36,92.95c-1.06-.72-1.35-2.14-.65-3.17.7-1.03,2.13-1.28,3.19-.56,1.06.72,1.35,2.14.65,3.17-.7,1.03-2.13,1.28-3.19.56Z"/>
      </g>
      <g>
        <rect class="cls-1" x="98.22" y="99.26" width="4.52" height="4.64" transform="translate(-40.04 127.44) rotate(-55.74)"/>
        <path class="cls-2" d="M99.21,103.44c-1.06-.72-1.35-2.14-.65-3.17.7-1.03,2.13-1.28,3.19-.56,1.06.72,1.35,2.14.65,3.17-.7,1.03-2.13,1.28-3.19.56Z"/>
      </g>
      <g>
        <rect class="cls-1" x="91.07" y="109.75" width="4.52" height="4.64" transform="translate(-51.84 126.12) rotate(-55.74)"/>
        <path class="cls-2" d="M92.06,113.94c-1.06-.72-1.35-2.14-.65-3.17.7-1.03,2.13-1.28,3.19-.56,1.06.72,1.35,2.14.65,3.17-.7,1.03-2.13,1.28-3.19.56Z"/>
      </g>
      <g>
        <rect class="cls-1" x="83.92" y="120.25" width="4.52" height="4.64" transform="translate(-63.64 124.79) rotate(-55.74)"/>
        <path class="cls-2" d="M84.91,124.44c-1.06-.72-1.35-2.14-.65-3.17.7-1.03,2.13-1.28,3.19-.56,1.06.72,1.35,2.14.65,3.17-.7,1.03-2.13,1.28-3.19.56Z"/>
      </g>
      <g>
        <rect class="cls-1" x="76.77" y="130.74" width="4.52" height="4.64" transform="translate(-75.44 123.48) rotate(-55.74)"/>
        <path class="cls-2" d="M77.76,134.93c-1.06-.72-1.35-2.14-.65-3.17.7-1.03,2.13-1.28,3.19-.56,1.06.72,1.35,2.14.65,3.17-.7,1.03-2.13,1.28-3.19.56Z"/>
      </g>
      <g>
        <rect class="cls-1" x="69.62" y="141.24" width="4.52" height="4.64" transform="translate(-87.24 122.15) rotate(-55.74)"/>
        <path class="cls-2" d="M70.61,145.43c-1.06-.72-1.35-2.14-.65-3.17.7-1.03,2.13-1.28,3.19-.56,1.06.72,1.35,2.14.65,3.17-.7,1.03-2.13,1.28-3.19.56Z"/>
      </g>
      <g>
        <rect class="cls-1" x="62.47" y="151.74" width="4.52" height="4.64" transform="translate(-99.04 120.83) rotate(-55.74)"/>
        <path class="cls-2" d="M63.46,155.92c-1.06-.72-1.35-2.14-.65-3.17.7-1.03,2.13-1.28,3.19-.56,1.06.72,1.35,2.14.65,3.17-.7,1.03-2.13,1.28-3.19.56Z"/>
      </g>
      <g>
        <rect class="cls-1" x="49.17" y="152" width="4.64" height="4.47" transform="translate(-79.67 58.13) rotate(-35.31)"/>
        <path class="cls-2" d="M50.2,152.41c1.05-.74,2.47-.53,3.18.48.71,1.01.44,2.42-.6,3.16-1.05.74-2.47.53-3.18-.48s-.44-2.42.6-3.16Z"/>
      </g>
      <g>
        <rect class="cls-1" x="41.91" y="141.76" width="4.64" height="4.47" transform="translate(-75.08 52.05) rotate(-35.31)"/>
        <path class="cls-2" d="M42.94,142.17c1.05-.74,2.47-.53,3.18.48.71,1.01.44,2.42-.6,3.16-1.05.74-2.47.53-3.18-.48-.71-1.01-.44-2.42.6-3.16Z"/>
      </g>
      <g>
        <rect class="cls-1" x="34.66" y="131.51" width="4.64" height="4.47" transform="translate(-70.5 45.97) rotate(-35.31)"/>
        <path class="cls-2" d="M35.69,131.92c1.05-.74,2.47-.53,3.18.48s.44,2.42-.6,3.16c-1.05.74-2.47.53-3.18-.48-.71-1.01-.44-2.42.6-3.16Z"/>
      </g>
      <g>
        <rect class="cls-1" x="27.4" y="121.26" width="4.64" height="4.47" transform="translate(-65.91 39.89) rotate(-35.31)"/>
        <path class="cls-2" d="M28.43,121.67c1.05-.74,2.47-.53,3.18.48.71,1.01.44,2.42-.6,3.16-1.05.74-2.47.53-3.18-.48-.71-1.01-.44-2.42.6-3.16Z"/>
      </g>
      <g>
        <rect class="cls-1" x="20.14" y="111.01" width="4.64" height="4.47" transform="translate(-61.32 33.81) rotate(-35.31)"/>
        <path class="cls-2" d="M21.17,111.42c1.05-.74,2.47-.53,3.18.48.71,1.01.44,2.42-.6,3.16-1.05.74-2.47.53-3.18-.48-.71-1.01-.44-2.42.6-3.16Z"/>
      </g>
      <g>
        <rect class="cls-1" x="12.88" y="100.77" width="4.64" height="4.47" transform="translate(-56.73 27.73) rotate(-35.31)"/>
        <path class="cls-2" d="M13.91,101.18c1.05-.74,2.47-.53,3.18.48.71,1.01.44,2.42-.6,3.16-1.05.74-2.47.53-3.18-.48-.71-1.01-.44-2.42.6-3.16Z"/>
      </g>
      <g>
        <rect class="cls-1" x="5.62" y="90.52" width="4.64" height="4.47" transform="translate(-52.15 21.65) rotate(-35.31)"/>
        <path class="cls-2" d="M6.65,90.93c1.05-.74,2.47-.53,3.18.48.71,1.01.44,2.42-.6,3.16-1.05.74-2.47.53-3.18-.48s-.44-2.42.6-3.16Z"/>
      </g>
      <g>
        <polygon class="cls-1" points="55.17 5.61 58.99 8.24 62.84 5.65 59.04 0 55.17 5.61"/>
        <polygon class="cls-2" points="60.92 6.95 60.87 6.98 60.82 7.01 60.76 7.04 60.71 7.06 60.66 7.09 60.6 7.11 60.55 7.13 60.49 7.15 60.43 7.17 60.38 7.18 60.32 7.19 60.26 7.21 60.2 7.21 60.14 7.22 60.08 7.23 60.02 7.23 59.89 7.23 59.77 7.22 59.64 7.21 59.52 7.19 59.39 7.16 59.26 7.13 59.13 7.08 59 7.04 58.87 7.08 58.74 7.12 58.61 7.16 58.48 7.18 58.35 7.2 58.23 7.21 58.1 7.22 57.98 7.22 57.92 7.21 57.86 7.21 57.8 7.2 57.74 7.19 57.68 7.18 57.62 7.17 57.56 7.15 57.51 7.13 57.45 7.11 57.39 7.09 57.34 7.07 57.29 7.04 57.23 7.02 57.18 6.99 57.13 6.96 57.08 6.92 57.03 6.89 56.99 6.85 56.94 6.81 56.9 6.77 56.85 6.73 56.81 6.69 56.77 6.65 56.74 6.6 56.7 6.55 56.66 6.51 56.63 6.46 56.6 6.41 56.57 6.35 56.54 6.3 56.52 6.25 56.49 6.19 56.44 6.08 56.4 5.96 56.37 5.83 56.34 5.71 56.32 5.58 56.31 5.45 56.3 5.31 56.3 5.17 56.3 5.03 56.31 4.89 56.33 4.74 56.35 4.6 56.38 4.45 56.41 4.3 56.46 4.15 56.5 4 56.56 3.85 56.62 3.7 56.68 3.54 56.75 3.39 56.83 3.24 56.92 3.1 57.01 2.95 57.11 2.8 57.21 2.66 57.31 2.52 57.42 2.39 57.53 2.26 57.65 2.14 57.77 2.03 57.89 1.92 58.01 1.82 58.13 1.72 58.26 1.63 58.39 1.54 58.51 1.46 58.64 1.39 58.77 1.32 58.9 1.26 59.03 1.21 59.16 1.26 59.29 1.32 59.42 1.39 59.55 1.47 59.68 1.55 59.8 1.64 59.93 1.73 60.05 1.83 60.17 1.93 60.29 2.04 60.41 2.16 60.52 2.28 60.63 2.41 60.74 2.54 60.84 2.68 60.94 2.83 61.04 2.97 61.13 3.12 61.21 3.27 61.29 3.42 61.36 3.57 61.42 3.72 61.48 3.88 61.53 4.03 61.58 4.18 61.62 4.33 61.65 4.48 61.68 4.63 61.7 4.77 61.71 4.92 61.72 5.06 61.72 5.2 61.72 5.34 61.71 5.48 61.69 5.61 61.67 5.74 61.64 5.87 61.61 5.99 61.56 6.11 61.52 6.22 61.49 6.28 61.46 6.33 61.43 6.38 61.4 6.43 61.37 6.49 61.34 6.53 61.3 6.58 61.27 6.63 61.23 6.67 61.19 6.72 61.15 6.76 61.1 6.8 61.06 6.84 61.01 6.88 60.97 6.91 60.92 6.95"/>
      </g>
      <g>
        <polygon class="cls-1" points="113.65 81.18 109.8 83.77 113.64 86.38 115.4 83.79 113.65 81.18"/>
        <polygon class="cls-2" points="111.72 85.08 111.62 85.01 111.53 84.94 111.44 84.86 111.35 84.79 111.27 84.71 111.19 84.63 111.11 84.55 111.04 84.47 110.97 84.38 110.91 84.3 110.85 84.21 110.8 84.12 110.75 84.04 110.7 83.95 110.66 83.86 110.62 83.77 110.66 83.68 110.7 83.6 110.75 83.51 110.8 83.42 110.85 83.34 110.91 83.25 110.98 83.17 111.04 83.08 111.12 83 111.19 82.92 111.27 82.84 111.35 82.76 111.44 82.69 111.53 82.61 111.63 82.54 111.72 82.48 111.82 82.41 111.93 82.35 112.03 82.29 112.13 82.24 112.23 82.19 112.34 82.15 112.44 82.11 112.54 82.07 112.65 82.04 112.75 82.02 112.85 81.99 112.95 81.97 113.05 81.96 113.15 81.95 113.25 81.94 113.34 81.94 113.44 81.94 113.53 81.95 113.62 81.96 113.71 81.98 113.79 81.99 113.88 82.02 113.96 82.05 114.03 82.08 114.11 82.11 114.18 82.15 114.25 82.2 114.31 82.25 114.37 82.3 114.43 82.36 114.48 82.42 114.53 82.48 114.57 82.55 114.61 82.62 114.64 82.7 114.66 82.77 114.69 82.85 114.7 82.93 114.71 83.01 114.72 83.09 114.72 83.18 114.71 83.26 114.7 83.35 114.69 83.43 114.67 83.52 114.64 83.61 114.62 83.7 114.58 83.78 114.62 83.87 114.64 83.96 114.67 84.05 114.69 84.14 114.7 84.22 114.71 84.31 114.71 84.39 114.71 84.48 114.71 84.56 114.7 84.64 114.68 84.72 114.66 84.8 114.63 84.87 114.6 84.95 114.56 85.02 114.52 85.09 114.47 85.15 114.42 85.21 114.36 85.27 114.3 85.32 114.24 85.37 114.17 85.41 114.1 85.45 114.02 85.49 113.95 85.52 113.87 85.55 113.78 85.57 113.7 85.59 113.61 85.6 113.52 85.61 113.43 85.62 113.33 85.62 113.24 85.62 113.14 85.61 113.04 85.6 112.94 85.59 112.84 85.57 112.74 85.54 112.64 85.52 112.53 85.48 112.43 85.45 112.33 85.41 112.22 85.36 112.12 85.31 112.02 85.26 111.92 85.2 111.82 85.14 111.72 85.08"/>
      </g>
      <g>
        <polygon class="cls-1" points="61.98 162.22 58.14 159.61 54.35 162.29 58.22 167.74 61.98 162.22"/>
        <polygon class="cls-2" points="56.25 160.95 56.3 160.92 56.35 160.89 56.4 160.86 56.45 160.83 56.51 160.8 56.56 160.78 56.61 160.76 56.67 160.74 56.73 160.72 56.78 160.7 56.84 160.69 56.9 160.67 56.96 160.66 57.02 160.65 57.14 160.64 57.26 160.64 57.38 160.64 57.51 160.65 57.64 160.67 57.77 160.69 57.89 160.72 58.02 160.76 58.15 160.8 58.28 160.75 58.41 160.72 58.54 160.68 58.67 160.66 58.79 160.64 58.92 160.63 59.04 160.62 59.17 160.62 59.29 160.63 59.35 160.64 59.41 160.65 59.46 160.66 59.52 160.68 59.58 160.69 59.64 160.71 59.69 160.73 59.75 160.75 59.8 160.77 59.85 160.8 59.91 160.82 59.96 160.85 60.01 160.88 60.06 160.92 60.11 160.95 60.16 160.99 60.2 161.02 60.25 161.06 60.29 161.1 60.33 161.15 60.37 161.19 60.41 161.24 60.45 161.28 60.48 161.33 60.51 161.38 60.55 161.43 60.58 161.48 60.61 161.53 60.66 161.64 60.71 161.75 60.75 161.87 60.78 161.99 60.81 162.12 60.83 162.25 60.85 162.38 60.86 162.51 60.87 162.65 60.86 162.79 60.86 162.93 60.84 163.07 60.82 163.22 60.8 163.36 60.76 163.51 60.72 163.66 60.68 163.81 60.63 163.95 60.57 164.1 60.51 164.25 60.44 164.4 60.36 164.55 60.28 164.69 60.19 164.84 60.1 164.98 60 165.12 59.9 165.26 59.79 165.39 59.68 165.51 59.57 165.63 59.45 165.75 59.33 165.85 59.22 165.96 59.09 166.05 58.97 166.14 58.84 166.23 58.72 166.3 58.59 166.38 58.46 166.44 58.34 166.5 58.21 166.55 58.08 166.5 57.95 166.45 57.82 166.38 57.69 166.31 57.56 166.24 57.44 166.16 57.31 166.07 57.19 165.97 57.06 165.87 56.95 165.77 56.83 165.66 56.71 165.54 56.6 165.42 56.49 165.29 56.39 165.16 56.29 165.02 56.19 164.88 56.1 164.73 56.01 164.59 55.94 164.44 55.86 164.29 55.8 164.15 55.74 164 55.68 163.85 55.64 163.7 55.59 163.56 55.56 163.41 55.53 163.26 55.51 163.12 55.49 162.98 55.48 162.84 55.48 162.7 55.48 162.56 55.49 162.43 55.5 162.29 55.52 162.17 55.55 162.04 55.58 161.92 55.62 161.8 55.66 161.69 55.71 161.58 55.74 161.52 55.77 161.47 55.8 161.42 55.84 161.37 55.87 161.32 55.91 161.28 55.94 161.23 55.98 161.19 56.02 161.14 56.07 161.1 56.11 161.06 56.15 161.02 56.2 160.99 56.25 160.95"/>
      </g>
      <g>
        <polygon class="cls-1" points="1.88 88.2 5.66 85.51 1.84 82.88 0 85.55 1.88 88.2"/>
        <polygon class="cls-2" points="3.75 84.19 3.85 84.26 3.94 84.34 4.03 84.41 4.12 84.49 4.2 84.57 4.28 84.65 4.35 84.73 4.42 84.81 4.49 84.9 4.55 84.98 4.61 85.07 4.66 85.16 4.71 85.25 4.76 85.34 4.8 85.43 4.83 85.52 4.8 85.61 4.76 85.7 4.72 85.79 4.67 85.88 4.62 85.97 4.56 86.06 4.5 86.14 4.43 86.23 4.36 86.31 4.29 86.4 4.21 86.48 4.13 86.56 4.05 86.63 3.96 86.71 3.87 86.78 3.77 86.85 3.67 86.92 3.57 86.98 3.47 87.04 3.37 87.1 3.27 87.15 3.16 87.19 3.06 87.24 2.96 87.27 2.86 87.31 2.75 87.33 2.65 87.36 2.55 87.38 2.45 87.39 2.35 87.41 2.25 87.41 2.16 87.41 2.06 87.41 1.97 87.41 1.88 87.4 1.79 87.38 1.7 87.36 1.61 87.34 1.53 87.31 1.45 87.28 1.38 87.25 1.3 87.21 1.23 87.16 1.17 87.11 1.1 87.06 1.04 87 .99 86.94 .94 86.87 .89 86.8 .85 86.73 .82 86.65 .79 86.58 .76 86.5 .74 86.42 .73 86.33 .72 86.25 .72 86.17 .72 86.08 .73 85.99 .74 85.9 .75 85.81 .77 85.72 .8 85.63 .83 85.54 .8 85.45 .77 85.36 .75 85.27 .73 85.18 .72 85.1 .71 85.01 .71 84.92 .71 84.84 .72 84.75 .73 84.67 .75 84.59 .77 84.51 .8 84.43 .84 84.36 .88 84.28 .92 84.21 .97 84.15 1.03 84.08 1.08 84.02 1.15 83.97 1.21 83.92 1.28 83.87 1.35 83.83 1.43 83.8 1.51 83.76 1.59 83.73 1.68 83.71 1.76 83.69 1.85 83.67 1.94 83.66 2.04 83.66 2.13 83.65 2.23 83.66 2.33 83.66 2.43 83.67 2.53 83.69 2.63 83.7 2.73 83.73 2.83 83.76 2.94 83.79 3.04 83.82 3.14 83.86 3.25 83.91 3.35 83.96 3.45 84.01 3.55 84.07 3.65 84.13 3.75 84.19"/>
      </g>
    </g>
  </g>
</svg>