<?xml version="1.0" encoding="UTF-8"?>
<svg id="Layer_2" data-name="Layer 2" xmlns="http://www.w3.org/2000/svg" viewBox="0 0 158.18 158.18">
  <defs>
    <style>
      .cls-1 {
        fill: none;
      }

      .cls-1, .cls-2 {
        stroke-width: 0px;
      }

      .cls-2 {
        fill: #191919;
        fill-rule: evenodd;
      }
    </style>
  </defs>
  <g id="_ÎÓÈ_1" data-name="—ÎÓÈ_1">
    <g>
      <g>
        <path class="cls-1" d="M144.32,17.29l.45.5.43.52c.29.34.57.69.84,1.05l2.21-1.71c-.29-.38-.59-.75-.9-1.12l-.46-.55-.48-.54-2.09,1.85Z"/>
        <path class="cls-2" d="M147.14,18.5c-.61.47-1.46.37-1.94-.19-.46-.57-.4-1.43.17-1.94.57-.51,1.48-.46,1.98.16.52.61.41,1.5-.21,1.97Z"/>
      </g>
      <g>
        <path class="cls-1" d="M148.77,23.36l.35.58.33.59c.22.39.44.78.63,1.18l2.48-1.28c-.21-.43-.44-.85-.68-1.26l-.35-.63-.37-.61-2.39,1.43Z"/>
        <path class="cls-2" d="M151.32,25.07c-.69.35-1.51.1-1.87-.54-.35-.65-.13-1.48.53-1.88.66-.4,1.53-.18,1.91.52.39.69.12,1.55-.56,1.9Z"/>
      </g>
      <g>
        <path class="cls-1" d="M152.06,30.16l.24.63.22.64c.15.42.3.85.43,1.28l2.66-.84c-.14-.46-.3-.9-.45-1.35l-.23-.67-.26-.67-2.61,1Z"/>
        <path class="cls-2" d="M154.28,32.28c-.73.23-1.51-.16-1.76-.86-.23-.7.12-1.48.84-1.76.71-.28,1.54.09,1.79.84.27.75-.14,1.55-.88,1.78Z"/>
      </g>
      <g>
        <path class="cls-1" d="M154.2,37.43c.19.88.35,1.77.5,2.66l2.75-.44c-.16-.93-.32-1.87-.52-2.8l-2.73.58Z"/>
        <path class="cls-2" d="M156.07,39.87c-.76.12-1.48-.38-1.61-1.11-.13-.73.34-1.45,1.1-1.61.75-.16,1.51.33,1.64,1.11.14.78-.37,1.5-1.13,1.62Z"/>
      </g>
      <g>
        <polygon class="cls-1" points="155.25 44.96 155.34 46.32 155.39 47.67 158.18 47.59 158.12 46.18 158.04 44.76 155.25 44.96"/>
        <path class="cls-2" d="M156.78,47.63c-.77.02-1.41-.57-1.44-1.32-.05-.74.54-1.4,1.31-1.45.77-.06,1.43.53,1.48,1.32.03.79-.57,1.44-1.34,1.46Z"/>
      </g>
      <g>
        <path class="cls-1" d="M155.34,52.59c-.01.45-.05.91-.08,1.36-.03.45-.05.91-.1,1.36l2.78.24c.05-.47.07-.94.11-1.41.03-.47.06-.94.08-1.41l-2.79-.13Z"/>
        <path class="cls-2" d="M156.55,55.43c-.38-.03-.72-.22-.95-.48-.23-.27-.37-.62-.34-.99.06-.75.7-1.33,1.47-1.29.77.03,1.37.7,1.31,1.48-.03.39-.21.73-.47.97-.27.23-.64.36-1.02.33Z"/>
      </g>
      <g>
        <path class="cls-1" d="M154.58,60.21c-.15.9-.28,1.8-.46,2.69l2.74.51c.18-.92.32-1.85.48-2.78l-2.76-.42Z"/>
        <path class="cls-2" d="M155.49,63.15c-.76-.14-1.25-.86-1.13-1.6.12-.74.84-1.25,1.6-1.14.76.11,1.28.83,1.15,1.6-.12.77-.87,1.28-1.62,1.13Z"/>
      </g>
      <g>
        <polygon class="cls-1" points="153.07 67.73 152.74 69.06 152.38 70.37 155.06 71.13 155.43 69.77 155.78 68.4 153.07 67.73"/>
        <path class="cls-2" d="M153.72,70.75c-.74-.21-1.18-.97-.98-1.69.19-.73.94-1.17,1.69-.99.75.18,1.2.94,1.01,1.7-.2.75-.98,1.19-1.72.98Z"/>
      </g>
      <g>
        <polygon class="cls-1" points="150.92 75.11 150.47 76.4 150 77.69 152.62 78.65 153.1 77.33 153.56 76 150.92 75.11"/>
        <path class="cls-2" d="M151.31,78.17c-.72-.27-1.1-1.06-.84-1.77.24-.71,1.04-1.09,1.77-.85.73.24,1.12,1.04.86,1.78-.26.73-1.07,1.11-1.79.84Z"/>
      </g>
      <g>
        <path class="cls-1" d="M148.18,82.3c-.36.84-.72,1.68-1.1,2.51l2.54,1.15c.39-.85.76-1.71,1.13-2.57l-2.57-1.09Z"/>
        <path class="cls-2" d="M148.34,85.39c-.7-.32-1.01-1.13-.71-1.83.3-.69,1.12-1.01,1.83-.71.71.3,1.03,1.12.73,1.83-.31.71-1.15,1.02-1.84.7Z"/>
      </g>
      <g>
        <path class="cls-1" d="M144.92,89.28c-.42.81-.84,1.62-1.28,2.43l2.45,1.33c.45-.82.88-1.65,1.31-2.49l-2.48-1.27Z"/>
        <path class="cls-2" d="M144.87,92.37c-.68-.37-.93-1.2-.58-1.87.35-.67,1.19-.93,1.88-.58.69.35.96,1.19.59,1.88-.36.69-1.21.95-1.89.58Z"/>
      </g>
      <g>
        <path class="cls-1" d="M141.19,96.03c-.46.79-.95,1.56-1.43,2.34l2.36,1.48c.49-.8.99-1.59,1.46-2.4l-2.4-1.43Z"/>
        <path class="cls-2" d="M140.94,99.11c-.65-.41-.86-1.26-.46-1.91.4-.64,1.24-.86,1.91-.46.66.39.89,1.26.47,1.92-.41.66-1.27.86-1.92.45Z"/>
      </g>
      <g>
        <path class="cls-1" d="M137.04,102.53c-.52.75-1.04,1.51-1.58,2.25l2.27,1.62c.55-.76,1.08-1.53,1.61-2.3l-2.3-1.57Z"/>
        <path class="cls-2" d="M136.59,105.59c-.63-.45-.77-1.31-.34-1.93.43-.62,1.3-.77,1.93-.34.64.43.79,1.3.35,1.94-.44.64-1.32.78-1.95.33Z"/>
      </g>
      <g>
        <path class="cls-1" d="M132.49,108.76c-.55.73-1.14,1.44-1.7,2.15l2.17,1.76c.58-.73,1.18-1.45,1.74-2.2l-2.2-1.71Z"/>
        <path class="cls-2" d="M131.86,111.79c-.6-.49-.7-1.36-.23-1.95.48-.59,1.34-.7,1.95-.22.61.47.73,1.36.24,1.96-.48.61-1.36.7-1.96.22Z"/>
      </g>
      <g>
        <path class="cls-1" d="M127.58,114.72c-.61.68-1.21,1.38-1.83,2.05l2.06,1.88c.64-.68,1.25-1.39,1.87-2.09l-2.1-1.84Z"/>
        <path class="cls-2" d="M126.78,117.71c-.57-.52-.61-1.39-.11-1.96.5-.57,1.38-.61,1.96-.11.58.51.63,1.39.12,1.97-.51.58-1.4.62-1.97.1Z"/>
      </g>
      <g>
        <polygon class="cls-1" points="122.33 120.38 121.36 121.36 120.38 122.33 122.34 124.32 123.34 123.34 124.32 122.34 122.33 120.38"/>
        <path class="cls-2" d="M121.36,123.32c-.54-.55-.54-1.43,0-1.96.53-.54,1.41-.54,1.96,0,.55.54.56,1.42.01,1.98-.55.54-1.44.54-1.98-.01Z"/>
      </g>
      <g>
        <path class="cls-1" d="M116.77,125.75c-.67.62-1.37,1.22-2.05,1.83l1.84,2.1c.7-.62,1.4-1.23,2.09-1.87l-1.88-2.06Z"/>
        <path class="cls-2" d="M115.64,128.63c-.51-.58-.46-1.46.11-1.96.57-.5,1.44-.46,1.96.11.52.57.48,1.46-.1,1.97-.58.52-1.46.46-1.97-.12Z"/>
      </g>
      <g>
        <path class="cls-1" d="M110.91,130.78c-.72.57-1.42,1.15-2.15,1.7l1.71,2.2c.74-.57,1.47-1.16,2.2-1.74l-1.76-2.17Z"/>
        <path class="cls-2" d="M109.62,133.59c-.47-.61-.36-1.47.23-1.95.59-.47,1.46-.37,1.95.23.49.6.39,1.47-.22,1.96-.6.49-1.49.37-1.96-.24Z"/>
      </g>
      <g>
        <path class="cls-1" d="M104.78,135.46c-.74.54-1.5,1.05-2.25,1.58l1.57,2.3c.77-.53,1.54-1.06,2.3-1.61l-1.62-2.27Z"/>
        <path class="cls-2" d="M103.32,138.19c-.43-.64-.28-1.5.34-1.93.62-.43,1.48-.29,1.93.34.45.62.31,1.51-.33,1.95-.64.44-1.51.28-1.94-.35Z"/>
      </g>
      <g>
        <path class="cls-1" d="M98.37,139.76c-.78.48-1.55.97-2.34,1.43l1.43,2.4c.81-.47,1.6-.97,2.4-1.46l-1.48-2.36Z"/>
        <path class="cls-2" d="M96.74,142.39c-.39-.67-.18-1.51.46-1.91.64-.4,1.5-.19,1.91.46.41.65.21,1.51-.45,1.92-.66.41-1.53.19-1.92-.47Z"/>
      </g>
      <g>
        <path class="cls-1" d="M91.71,143.65c-.8.44-1.62.85-2.43,1.28l1.27,2.49c.83-.43,1.66-.86,2.49-1.31l-1.33-2.45Z"/>
        <path class="cls-2" d="M89.91,146.16c-.35-.68-.09-1.52.58-1.87.67-.35,1.51-.09,1.87.58.37.68.11,1.53-.58,1.89-.69.36-1.53.1-1.88-.59Z"/>
      </g>
      <g>
        <path class="cls-1" d="M84.81,147.07c-.83.39-1.67.74-2.51,1.1l1.09,2.57c.86-.37,1.72-.74,2.57-1.13l-1.15-2.54Z"/>
        <path class="cls-2" d="M82.85,149.46c-.3-.71.02-1.53.71-1.83.69-.3,1.51,0,1.83.71.32.7,0,1.54-.71,1.84-.71.31-1.54-.02-1.83-.73Z"/>
      </g>
      <g>
        <polygon class="cls-1" points="77.69 150 76.4 150.47 75.11 150.92 76 153.56 77.33 153.1 78.65 152.62 77.69 150"/>
        <path class="cls-2" d="M75.55,152.24c-.24-.73.14-1.52.85-1.77.71-.25,1.5.12,1.77.84.27.72-.11,1.53-.84,1.79-.74.25-1.53-.13-1.78-.86Z"/>
      </g>
      <g>
        <polygon class="cls-1" points="70.37 152.38 69.06 152.74 67.73 153.07 68.4 155.78 69.77 155.43 71.13 155.06 70.37 152.38"/>
        <path class="cls-2" d="M68.07,154.43c-.18-.75.26-1.51.99-1.69.73-.2,1.48.24,1.69.98.21.74-.23,1.51-.98,1.72-.76.19-1.52-.26-1.7-1.01Z"/>
      </g>
      <g>
        <path class="cls-1" d="M62.9,154.12c-.89.18-1.79.31-2.69.46l.42,2.76c.93-.15,1.86-.29,2.78-.48l-.51-2.74Z"/>
        <path class="cls-2" d="M60.42,155.96c-.11-.76.4-1.48,1.14-1.6.74-.12,1.45.37,1.6,1.13.14.75-.36,1.5-1.13,1.62-.77.13-1.49-.39-1.6-1.15Z"/>
      </g>
      <g>
        <path class="cls-1" d="M55.31,155.16c-.45.05-.9.07-1.36.1-.45.03-.91.06-1.36.08l.13,2.79c.47-.02.94-.05,1.41-.08.47-.03.94-.06,1.41-.11l-.24-2.78Z"/>
        <path class="cls-2" d="M52.66,156.73c-.03-.77.55-1.41,1.29-1.47.37-.03.73.11.99.34.27.23.45.56.48.95.03.38-.09.75-.33,1.02-.23.27-.58.45-.97.47-.78.06-1.44-.54-1.48-1.31Z"/>
      </g>
      <g>
        <polygon class="cls-1" points="47.67 155.39 46.32 155.34 44.96 155.25 44.76 158.04 46.18 158.12 47.59 158.18 47.67 155.39"/>
        <path class="cls-2" d="M44.86,156.64c.06-.77.71-1.35,1.45-1.31.75.03,1.34.67,1.32,1.44-.02.77-.67,1.37-1.46,1.34-.79-.05-1.37-.71-1.32-1.48Z"/>
      </g>
      <g>
        <path class="cls-1" d="M40.09,154.69c-.89-.15-1.78-.3-2.66-.5l-.58,2.73c.93.2,1.86.36,2.8.52l.44-2.75Z"/>
        <path class="cls-2" d="M37.14,155.56c.16-.76.88-1.23,1.61-1.1.73.13,1.23.85,1.11,1.61-.12.77-.84,1.27-1.62,1.13-.78-.13-1.27-.9-1.11-1.64Z"/>
      </g>
      <g>
        <path class="cls-1" d="M32.7,152.95c-.43-.13-.85-.28-1.28-.43l-.64-.22-.63-.24-1,2.6.67.26.67.23c.45.16.9.32,1.35.45l.84-2.66Z"/>
        <path class="cls-2" d="M29.66,153.37c.28-.72,1.06-1.07,1.76-.84.7.25,1.08,1.02.86,1.76-.23.74-1.03,1.14-1.78.88-.75-.25-1.12-1.08-.84-1.79Z"/>
      </g>
      <g>
        <path class="cls-1" d="M25.71,150.08c-.4-.2-.79-.42-1.18-.63l-.59-.33-.58-.35-1.43,2.39.61.37.63.35c.42.23.83.47,1.26.68l1.28-2.48Z"/>
        <path class="cls-2" d="M22.65,149.97c.4-.66,1.23-.87,1.88-.53.64.37.89,1.19.54,1.87-.35.69-1.21.96-1.9.56-.7-.38-.92-1.26-.52-1.91Z"/>
      </g>
      <g>
        <path class="cls-1" d="M19.35,146.03c-.36-.27-.7-.55-1.05-.84l-.52-.43-.5-.45-1.85,2.09.54.48.55.46c.37.31.73.61,1.12.9l1.71-2.21Z"/>
        <path class="cls-2" d="M16.36,145.37c.52-.57,1.37-.63,1.94-.17.56.48.66,1.33.19,1.94-.47.61-1.36.72-1.97.21-.62-.5-.68-1.4-.16-1.98Z"/>
      </g>
      <g>
        <path class="cls-1" d="M13.85,140.89l-.45-.5-.43-.52c-.29-.34-.57-.69-.84-1.05l-2.21,1.71c.29.38.59.75.9,1.12l.46.55.48.54,2.09-1.85Z"/>
        <path class="cls-2" d="M11.04,139.68c.61-.47,1.46-.37,1.94.19.46.57.4,1.43-.17,1.94-.57.51-1.48.46-1.98-.16-.52-.61-.41-1.5.21-1.97Z"/>
      </g>
      <g>
        <path class="cls-1" d="M9.4,134.81l-.35-.58-.33-.59c-.22-.39-.44-.78-.63-1.18l-2.48,1.28c.21.43.44.85.68,1.26l.35.63.37.61,2.39-1.43Z"/>
        <path class="cls-2" d="M6.86,133.1c.69-.35,1.51-.1,1.87.54.35.65.13,1.48-.53,1.88-.66.4-1.53.18-1.91-.52-.39-.69-.12-1.55.56-1.9Z"/>
      </g>
      <g>
        <path class="cls-1" d="M6.11,128.02l-.24-.63-.22-.64c-.15-.42-.3-.85-.43-1.28l-2.66.84c.14.46.3.9.45,1.35l.23.67.26.67,2.6-1Z"/>
        <path class="cls-2" d="M3.89,125.9c.73-.23,1.51.16,1.76.86.23.7-.12,1.48-.84,1.76-.71.28-1.54-.09-1.79-.84-.27-.75.14-1.55.88-1.78Z"/>
      </g>
      <g>
        <path class="cls-1" d="M3.98,120.75c-.19-.88-.35-1.77-.5-2.66l-2.75.44c.16.94.32,1.87.52,2.8l2.73-.58Z"/>
        <path class="cls-2" d="M2.11,118.31c.76-.12,1.48.38,1.61,1.11.13.73-.34,1.45-1.1,1.61-.75.16-1.51-.33-1.64-1.11-.14-.78.37-1.5,1.13-1.62Z"/>
      </g>
      <g>
        <polygon class="cls-1" points="2.92 113.21 2.84 111.86 2.79 110.5 0 110.58 .05 112 .14 113.42 2.92 113.21"/>
        <path class="cls-2" d="M1.39,110.54c.77-.02,1.41.57,1.44,1.32.05.74-.54,1.4-1.31,1.45-.77.06-1.43-.53-1.48-1.32-.03-.79.57-1.44,1.34-1.46Z"/>
      </g>
      <g>
        <path class="cls-1" d="M2.84,105.58c.01-.45.05-.91.08-1.36.03-.45.05-.91.1-1.36l-2.78-.24c-.05.47-.07.94-.11,1.41-.03.47-.06.94-.08,1.41l2.79.13Z"/>
        <path class="cls-2" d="M1.63,102.75c.38.03.72.22.95.48.23.27.37.62.34.99-.06.75-.7,1.33-1.47,1.29-.77-.03-1.37-.7-1.31-1.48.03-.39.21-.73.47-.97.27-.23.64-.36,1.02-.33Z"/>
      </g>
      <g>
        <path class="cls-1" d="M3.59,97.97c.15-.9.28-1.8.46-2.69l-2.74-.51c-.18.92-.32,1.85-.48,2.78l2.76.42Z"/>
        <path class="cls-2" d="M2.68,95.02c.76.14,1.25.86,1.13,1.6-.12.74-.84,1.25-1.6,1.14-.76-.11-1.28-.83-1.15-1.6.12-.77.87-1.28,1.62-1.13Z"/>
      </g>
      <g>
        <polygon class="cls-1" points="5.1 90.44 5.44 89.12 5.8 87.8 3.11 87.05 2.74 88.41 2.39 89.77 5.1 90.44"/>
        <path class="cls-2" d="M4.46,87.43c.74.21,1.18.97.98,1.69-.19.73-.94,1.17-1.69.99s-1.2-.94-1.01-1.7c.2-.75.98-1.19,1.72-.98Z"/>
      </g>
      <g>
        <polygon class="cls-1" points="7.26 83.07 7.7 81.77 8.17 80.49 5.56 79.52 5.07 80.85 4.62 82.18 7.26 83.07"/>
        <path class="cls-2" d="M6.86,80.01c.72.27,1.1,1.06.84,1.77-.24.71-1.04,1.09-1.77.85-.73-.24-1.12-1.04-.86-1.78.26-.73,1.07-1.11,1.79-.84Z"/>
      </g>
      <g>
        <path class="cls-1" d="M10,75.88c.36-.84.72-1.68,1.1-2.51l-2.54-1.15c-.39.85-.76,1.71-1.13,2.57l2.57,1.09Z"/>
        <path class="cls-2" d="M9.83,72.79c.7.32,1.01,1.13.71,1.83-.3.69-1.12,1.01-1.83.71-.71-.3-1.03-1.12-.73-1.83.31-.71,1.15-1.02,1.84-.7Z"/>
      </g>
      <g>
        <path class="cls-1" d="M13.25,68.89c.42-.81.84-1.62,1.28-2.43l-2.45-1.33c-.45.82-.88,1.65-1.31,2.49l2.49,1.27Z"/>
        <path class="cls-2" d="M13.3,65.8c.68.37.93,1.2.58,1.87-.35.67-1.19.93-1.88.58-.69-.35-.96-1.19-.59-1.88.36-.69,1.21-.95,1.89-.58Z"/>
      </g>
      <g>
        <path class="cls-1" d="M16.98,62.15c.46-.79.95-1.56,1.43-2.34l-2.36-1.48c-.49.8-.99,1.59-1.46,2.4l2.4,1.43Z"/>
        <path class="cls-2" d="M17.23,59.06c.65.41.86,1.26.46,1.91-.4.64-1.24.86-1.91.46-.66-.39-.89-1.26-.47-1.92.41-.66,1.27-.86,1.92-.45Z"/>
      </g>
      <g>
        <path class="cls-1" d="M21.14,55.65c.52-.75,1.04-1.51,1.58-2.25l-2.27-1.62c-.55.75-1.08,1.53-1.61,2.3l2.3,1.57Z"/>
        <path class="cls-2" d="M21.58,52.59c.63.45.77,1.31.34,1.93-.43.62-1.3.77-1.93.34-.64-.43-.79-1.3-.35-1.94.44-.64,1.32-.78,1.95-.33Z"/>
      </g>
      <g>
        <path class="cls-1" d="M25.69,49.41c.55-.73,1.14-1.44,1.7-2.15l-2.17-1.76c-.58.73-1.18,1.45-1.74,2.2l2.2,1.71Z"/>
        <path class="cls-2" d="M26.31,46.38c.6.49.7,1.36.23,1.95-.48.59-1.34.7-1.95.22-.61-.47-.73-1.36-.24-1.96.48-.61,1.36-.7,1.96-.22Z"/>
      </g>
      <g>
        <path class="cls-1" d="M30.6,43.45c.61-.68,1.21-1.38,1.83-2.05l-2.06-1.88c-.64.68-1.25,1.39-1.87,2.09l2.1,1.84Z"/>
        <path class="cls-2" d="M31.4,40.47c.57.52.61,1.39.11,1.96-.5.57-1.38.61-1.96.11-.58-.51-.63-1.39-.12-1.97.51-.58,1.4-.62,1.97-.1Z"/>
      </g>
      <g>
        <polygon class="cls-1" points="35.85 37.79 36.81 36.81 37.79 35.85 35.84 33.86 34.84 34.84 33.86 35.84 35.85 37.79"/>
        <path class="cls-2" d="M36.82,34.85c.54.55.54,1.43,0,1.96-.53.54-1.41.54-1.96,0-.55-.54-.56-1.42-.01-1.98.55-.54,1.44-.54,1.98.01Z"/>
      </g>
      <g>
        <path class="cls-1" d="M41.41,32.43c.67-.62,1.37-1.22,2.05-1.83l-1.84-2.1c-.7.62-1.4,1.23-2.09,1.87l1.88,2.06Z"/>
        <path class="cls-2" d="M42.54,29.55c.51.58.46,1.46-.11,1.96-.57.5-1.44.46-1.96-.11-.52-.57-.48-1.46.1-1.97.58-.52,1.46-.46,1.97.12Z"/>
      </g>
      <g>
        <path class="cls-1" d="M47.26,27.39c.72-.57,1.42-1.15,2.15-1.7l-1.71-2.2c-.74.57-1.47,1.16-2.2,1.74l1.76,2.17Z"/>
        <path class="cls-2" d="M48.56,24.59c.47.61.36,1.47-.22,1.95-.59.47-1.46.37-1.95-.23-.49-.6-.39-1.47.22-1.96.6-.49,1.49-.37,1.96.24Z"/>
      </g>
      <g>
        <path class="cls-1" d="M53.4,22.72c.74-.54,1.5-1.05,2.25-1.58l-1.57-2.3c-.77.53-1.54,1.06-2.3,1.61l1.62,2.27Z"/>
        <path class="cls-2" d="M54.86,19.99c.43.64.28,1.5-.34,1.93-.62.43-1.48.29-1.93-.34-.45-.62-.31-1.51.33-1.95.64-.44,1.51-.28,1.94.35Z"/>
      </g>
      <g>
        <path class="cls-1" d="M59.81,18.41c.78-.48,1.55-.97,2.34-1.43l-1.43-2.4c-.81.47-1.6.97-2.4,1.46l1.48,2.36Z"/>
        <path class="cls-2" d="M61.43,15.79c.39.67.18,1.51-.46,1.91-.64.4-1.5.19-1.91-.46s-.21-1.51.45-1.92c.66-.41,1.53-.19,1.92.47Z"/>
      </g>
      <g>
        <path class="cls-1" d="M66.47,14.53c.8-.44,1.62-.86,2.43-1.28l-1.27-2.49c-.83.43-1.66.86-2.49,1.31l1.33,2.45Z"/>
        <path class="cls-2" d="M68.26,12.01c.35.68.09,1.52-.58,1.87-.67.35-1.51.09-1.87-.58-.37-.68-.11-1.53.58-1.89.69-.36,1.53-.1,1.88.59Z"/>
      </g>
      <g>
        <path class="cls-1" d="M73.37,11.1c.83-.39,1.67-.74,2.51-1.1l-1.09-2.57c-.86.37-1.72.74-2.57,1.13l1.15,2.54Z"/>
        <path class="cls-2" d="M75.33,8.71c.3.71-.02,1.53-.71,1.83-.69.3-1.51,0-1.83-.71-.32-.7,0-1.54.71-1.84.71-.31,1.54.02,1.83.73Z"/>
      </g>
      <g>
        <polygon class="cls-1" points="80.49 8.17 81.77 7.7 83.07 7.26 82.18 4.62 80.84 5.07 79.52 5.56 80.49 8.17"/>
        <path class="cls-2" d="M82.62,5.94c.24.73-.14,1.52-.85,1.77-.71.25-1.5-.12-1.77-.84-.27-.72.11-1.53.84-1.79.74-.25,1.53.13,1.78.86Z"/>
      </g>
      <g>
        <polygon class="cls-1" points="87.8 5.8 89.12 5.44 90.44 5.1 89.77 2.39 88.41 2.74 87.05 3.11 87.8 5.8"/>
        <path class="cls-2" d="M90.11,3.75c.18.75-.26,1.51-.99,1.69-.73.19-1.48-.24-1.69-.98-.21-.74.23-1.51.98-1.72.76-.19,1.52.26,1.7,1.01Z"/>
      </g>
      <g>
        <path class="cls-1" d="M95.28,4.05c.89-.18,1.79-.31,2.69-.46l-.42-2.76c-.93.15-1.86.29-2.78.48l.51,2.74Z"/>
        <path class="cls-2" d="M97.76,2.22c.11.76-.4,1.48-1.14,1.6-.74.12-1.45-.37-1.6-1.13-.14-.75.36-1.5,1.13-1.62.77-.13,1.49.39,1.6,1.15Z"/>
      </g>
      <g>
        <path class="cls-1" d="M102.87,3.02c.45-.05.9-.07,1.36-.1.45-.03.91-.06,1.36-.08l-.13-2.79c-.47.02-.94.05-1.41.08-.47.03-.94.06-1.41.11l.24,2.78Z"/>
        <path class="cls-2" d="M105.52,1.44c.03.77-.55,1.41-1.29,1.47-.37.03-.73-.11-.99-.34-.27-.23-.45-.56-.48-.95-.03-.38.09-.75.33-1.02.23-.27.58-.45.97-.47.78-.06,1.44.54,1.48,1.31Z"/>
      </g>
      <g>
        <polygon class="cls-1" points="110.5 2.79 111.86 2.84 113.21 2.92 113.42 .14 112 .05 110.58 0 110.5 2.79"/>
        <path class="cls-2" d="M113.32,1.53c-.06.77-.71,1.35-1.45,1.31-.75-.03-1.34-.67-1.32-1.44.02-.77.67-1.37,1.46-1.34.79.05,1.37.71,1.32,1.48Z"/>
      </g>
      <g>
        <path class="cls-1" d="M118.09,3.48c.89.15,1.78.3,2.66.5l.58-2.73c-.93-.2-1.86-.36-2.8-.52l-.44,2.75Z"/>
        <path class="cls-2" d="M121.04,2.61c-.16.76-.88,1.23-1.61,1.1-.73-.13-1.23-.85-1.11-1.61.12-.77.84-1.27,1.62-1.13.78.13,1.27.9,1.11,1.64Z"/>
      </g>
      <g>
        <path class="cls-1" d="M125.47,5.22c.43.13.85.28,1.28.43l.64.22.63.24,1-2.61-.67-.26-.67-.23c-.45-.16-.9-.32-1.35-.45l-.84,2.66Z"/>
        <path class="cls-2" d="M128.52,4.81c-.28.72-1.06,1.07-1.76.84-.7-.25-1.08-1.02-.86-1.76.23-.74,1.03-1.14,1.78-.88.75.25,1.12,1.08.84,1.79Z"/>
      </g>
      <g>
        <path class="cls-1" d="M132.46,8.1c.4.2.79.42,1.18.63l.59.33.58.35,1.43-2.39-.61-.37-.63-.35c-.42-.23-.83-.47-1.26-.68l-1.28,2.48Z"/>
        <path class="cls-2" d="M135.53,8.21c-.4.66-1.23.87-1.88.53-.64-.37-.89-1.19-.54-1.87.35-.69,1.21-.96,1.9-.56.7.38.92,1.26.52,1.91Z"/>
      </g>
      <g>
        <path class="cls-1" d="M138.82,12.14c.36.27.7.55,1.05.84l.52.43.5.45,1.85-2.09-.54-.48-.55-.46c-.37-.31-.74-.61-1.12-.9l-1.71,2.21Z"/>
        <path class="cls-2" d="M141.81,12.81c-.52.57-1.37.63-1.94.17-.56-.48-.66-1.33-.19-1.94.47-.61,1.36-.72,1.97-.21.62.5.68,1.4.16,1.98Z"/>
      </g>
    </g>
  </g>
</svg>