<?xml version="1.0" encoding="UTF-8"?>
<svg id="Layer_2" data-name="Layer 2" xmlns="http://www.w3.org/2000/svg" viewBox="0 0 165.65 144.2">
  <defs>
    <style>
      .cls-1 {
        fill: none;
      }

      .cls-1, .cls-2, .cls-3 {
        stroke-width: 0px;
      }

      .cls-2 {
        fill-rule: evenodd;
      }

      .cls-2, .cls-3 {
        fill: #191919;
      }
    </style>
  </defs>
  <g id="_ÎÓÈ_1" data-name="—ÎÓÈ_1">
    <g>
      <g>
        <polygon class="cls-1" points="5.83 36.32 7.54 38.5 9.55 36.7 7.89 34.6 5.83 36.32"/>
        <path class="cls-2" d="M8.54,37.6c-.55.5-1.39.42-1.86-.19-.47-.6-.39-1.48.18-1.95.57-.47,1.41-.39,1.86.19s.37,1.45-.18,1.95Z"/>
      </g>
      <g>
        <polygon class="cls-1" points="10.83 42.3 12.8 44.25 14.58 42.2 12.71 40.34 10.83 42.3"/>
        <path class="cls-2" d="M13.69,43.23c-.49.57-1.33.59-1.87.05-.55-.54-.57-1.42-.05-1.96.52-.54,1.36-.56,1.87-.05.51.51.54,1.39.05,1.96Z"/>
      </g>
      <g>
        <path class="cls-1" d="M16.61,47.54c.75.54,1.49,1.11,2.25,1.63l1.41-2.34c-.71-.49-1.4-1.02-2.1-1.53l-1.56,2.24Z"/>
        <path class="cls-2" d="M19.56,48c-.4.66-1.21.82-1.83.36-.62-.46-.77-1.33-.34-1.94.43-.62,1.25-.77,1.83-.35.58.42.72,1.3.35,1.93Z"/>
      </g>
      <g>
        <path class="cls-1" d="M23.23,51.64c.82.44,1.69.74,2.56,1.08l.87-2.62c-.79-.31-1.59-.57-2.35-.99l-1.09,2.53Z"/>
        <path class="cls-2" d="M26.23,51.41c-.24.73-1.01,1.09-1.73.81-.72-.27-1.02-1.16-.72-1.84.31-.71,1.05-.97,1.7-.73.65.25.99,1.04.75,1.76Z"/>
      </g>
      <g>
        <path class="cls-1" d="M30.63,54.04l1.36.24c.45.08.92.08,1.38.13l.21-2.77c-.42-.04-.84-.04-1.26-.11l-1.24-.22-.45,2.74Z"/>
        <path class="cls-2" d="M33.47,53.02c-.05.76-.72,1.36-1.48,1.26-.76-.13-1.27-.85-1.14-1.6s.79-1.27,1.47-1.15c.68.09,1.2.72,1.15,1.5Z"/>
      </g>
      <g>
        <path class="cls-1" d="M38.36,54.4c.91-.11,1.83-.15,2.73-.35l-.42-2.74c-.83.19-1.68.22-2.52.32l.21,2.77Z"/>
        <path class="cls-2" d="M40.88,52.69c.12.74-.38,1.52-1.15,1.57-.76.08-1.42-.48-1.47-1.24s.46-1.44,1.16-1.51c.69-.05,1.34.41,1.47,1.18Z"/>
      </g>
      <g>
        <path class="cls-1" d="M45.91,52.91c.86-.29,1.73-.57,2.59-.88l-.89-2.61c-.81.29-1.63.55-2.44.83l.74,2.66Z"/>
        <path class="cls-2" d="M48.06,50.72c.25.73-.13,1.51-.85,1.75-.72.24-1.47-.16-1.67-.9s.18-1.52.85-1.74c.67-.22,1.42.18,1.66.89Z"/>
      </g>
      <g>
        <path class="cls-1" d="M53.04,50.07c.83-.37,1.62-.83,2.43-1.23l-1.19-2.48c-.78.39-1.54.84-2.33,1.19l1.1,2.52Z"/>
        <path class="cls-2" d="M54.87,47.6c.33.68.06,1.52-.61,1.87-.66.36-1.47.04-1.77-.66-.3-.7-.01-1.5.62-1.84.64-.33,1.43-.05,1.76.63Z"/>
      </g>
      <g>
        <path class="cls-1" d="M59.73,46.39c.76-.49,1.55-.94,2.3-1.45l-1.39-2.36c-.73.5-1.49.94-2.23,1.41l1.33,2.4Z"/>
        <path class="cls-2" d="M61.33,43.76c.39.65.2,1.52-.45,1.91-.64.4-1.45.18-1.82-.48-.37-.66-.16-1.51.46-1.9.62-.38,1.42-.19,1.81.46Z"/>
      </g>
      <g>
        <path class="cls-1" d="M66.08,42.16c.74-.51,1.46-1.06,2.19-1.59l-1.52-2.27c-.72.52-1.43,1.06-2.16,1.56l1.48,2.3Z"/>
        <path class="cls-2" d="M67.52,39.43c.42.63.27,1.49-.33,1.94-.6.45-1.44.27-1.84-.36-.41-.64-.25-1.48.34-1.92.59-.44,1.41-.28,1.83.35Z"/>
      </g>
      <g>
        <polygon class="cls-1" points="72.19 37.61 74.32 35.94 72.73 33.72 70.62 35.38 72.19 37.61"/>
        <path class="cls-2" d="M73.52,34.83c.44.61.32,1.48-.27,1.94-.59.46-1.42.34-1.85-.28s-.31-1.49.27-1.94c.58-.46,1.41-.33,1.85.28Z"/>
      </g>
      <g>
        <polygon class="cls-1" points="78.13 32.87 80.23 31.16 78.6 28.97 76.52 30.67 78.13 32.87"/>
        <path class="cls-2" d="M79.41,30.07c.45.6.35,1.48-.23,1.95-.58.47-1.41.36-1.85-.24s-.34-1.48.23-1.95c.58-.47,1.4-.36,1.85.24Z"/>
      </g>
      <g>
        <polygon class="cls-1" points="84 28.05 86.08 26.34 84.45 24.15 82.37 25.87 84 28.05"/>
        <path class="cls-2" d="M85.26,25.25c.45.6.35,1.48-.23,1.95-.57.47-1.4.37-1.85-.23-.45-.6-.35-1.48.23-1.95.58-.47,1.41-.37,1.86.24Z"/>
      </g>
      <g>
        <polygon class="cls-1" points="89.85 23.25 91.94 21.57 90.34 19.36 88.24 21.06 89.85 23.25"/>
        <path class="cls-2" d="M91.14,20.47c.44.61.33,1.48-.25,1.95-.58.46-1.41.35-1.85-.26-.45-.61-.34-1.48.25-1.95.58-.47,1.41-.35,1.85.26Z"/>
      </g>
      <g>
        <polygon class="cls-1" points="95.76 18.57 97.88 16.95 96.35 14.69 94.2 16.33 95.76 18.57"/>
        <path class="cls-2" d="M97.12,15.82c.42.62.29,1.49-.3,1.94-.59.45-1.41.31-1.84-.31-.43-.62-.3-1.49.3-1.94.6-.45,1.42-.32,1.84.31Z"/>
      </g>
      <g>
        <path class="cls-1" d="M101.79,14.12c.72-.51,1.45-1.02,2.19-1.5l-1.42-2.34c-.76.49-1.5,1.01-2.24,1.53l1.46,2.31Z"/>
        <path class="cls-2" d="M103.28,11.45c.39.65.21,1.5-.39,1.91-.6.42-1.41.25-1.82-.39-.41-.64-.24-1.5.38-1.93.62-.42,1.45-.23,1.84.42Z"/>
      </g>
      <g>
        <polygon class="cls-1" points="108.02 10.04 110.3 8.73 109.07 6.28 106.71 7.63 108.02 10.04"/>
        <path class="cls-2" d="M109.69,7.5c.34.68.1,1.52-.52,1.88-.63.36-1.43.11-1.79-.55-.36-.67-.13-1.51.52-1.88.65-.38,1.46-.13,1.8.55Z"/>
      </g>
      <g>
        <polygon class="cls-1" points="114.53 6.58 115.71 6.03 116.91 5.55 115.97 2.96 114.7 3.47 113.46 4.04 114.53 6.58"/>
        <path class="cls-2" d="M116.44,4.25c.26.72-.07,1.51-.73,1.78-.65.3-1.42-.02-1.71-.72-.3-.7.02-1.53.7-1.84.7-.28,1.48.07,1.74.78Z"/>
      </g>
      <g>
        <polygon class="cls-1" points="121.33 4.03 122.57 3.7 123.19 3.54 123.81 3.42 123.3 .69 122.63 .82 121.97 1 120.64 1.34 121.33 4.03"/>
        <path class="cls-2" d="M123.56,2.06c.14.76-.32,1.44-.99,1.64-.68.18-1.39-.27-1.58-1.01-.19-.74.25-1.5.98-1.69.73-.21,1.46.31,1.59,1.06Z"/>
      </g>
      <g>
        <path class="cls-1" d="M128.37,2.81c.84,0,1.69-.05,2.53-.02l.1-2.77c-.92-.03-1.84.01-2.76.02l.14,2.77Z"/>
        <path class="cls-2" d="M130.95,1.4c-.03.75-.62,1.37-1.31,1.39-.69.01-1.29-.6-1.33-1.37-.04-.76.54-1.4,1.31-1.41.77-.02,1.36.61,1.33,1.39Z"/>
      </g>
      <g>
        <path class="cls-1" d="M135.43,3.35c.82.19,1.63.44,2.44.66l.77-2.66c-.89-.24-1.78-.51-2.68-.72l-.53,2.72Z"/>
        <path class="cls-2" d="M138.26,2.68c-.22.73-.94,1.18-1.6.99-.67-.19-1.09-.95-.96-1.68.14-.77.86-1.21,1.61-1.01.74.2,1.17.97.95,1.7Z"/>
      </g>
      <g>
        <path class="cls-1" d="M142.12,5.8c.78.35,1.5.81,2.23,1.26l1.33-2.4c-.79-.49-1.57-.98-2.42-1.37l-1.15,2.5Z"/>
        <path class="cls-2" d="M145.02,5.86c-.37.66-1.16.89-1.77.52-.61-.36-.88-1.14-.56-1.84.31-.68,1.14-1,1.81-.61.66.4.89,1.26.52,1.92Z"/>
      </g>
      <g>
        <polygon class="cls-1" points="148.19 9.76 150.18 11.47 151.9 9.37 149.8 7.56 148.19 9.76"/>
        <path class="cls-2" d="M151.04,10.42c-.48.58-1.31.66-1.86.2-.54-.47-.63-1.35-.19-1.96.44-.61,1.27-.7,1.86-.2.58.5.67,1.38.19,1.96Z"/>
      </g>
      <g>
        <polygon class="cls-1" points="153.56 14.86 155.32 16.85 157.29 15.01 155.45 12.93 153.56 14.86"/>
        <path class="cls-2" d="M156.3,15.93c-.55.51-1.38.47-1.87-.08-.48-.55-.45-1.43.07-1.96.52-.53,1.36-.5,1.87.08.51.58.48,1.45-.07,1.96Z"/>
      </g>
      <g>
        <polygon class="cls-1" points="158.31 20.66 159.86 22.86 161.99 21.23 160.4 18.96 158.31 20.66"/>
        <path class="cls-2" d="M160.93,22.04c-.59.45-1.42.32-1.84-.28-.43-.61-.31-1.48.27-1.95.58-.47,1.4-.34,1.84.28.44.63.32,1.5-.27,1.95Z"/>
      </g>
      <g>
        <path class="cls-1" d="M162.54,26.95l.34.53c.05.09.12.15.12.23v1.04h2.64v-1.74c.05-.2-.13-.34-.21-.5l-.29-.46-.39-.62-2.21,1.52Z"/>
        <path class="cls-2" d="M164.32,28.75c-.36,0-.69-.16-.93-.41-.12-.12-.22-.29-.28-.43-.07-.07-.1-.13-.1-.2-.02-.1,0-1.14.64-1.53.31-.21.66-.27,1-.2.08.02.17.05.25.08.1.06.19.14.29.23.1.09.19.19.29.31.09.12.21.23.18.4,0,.31-.04.62-.1.88-.07.19-.16.32-.28.45-.24.25-.57.41-.93.41Z"/>
      </g>
      <g>
        <rect class="cls-1" x="163" y="33.79" width="2.64" height="2.78"/>
        <ellipse class="cls-3" cx="164.32" cy="35.18" rx="1.32" ry="1.39"/>
      </g>
      <g>
        <rect class="cls-1" x="163" y="41.6" width="2.64" height="2.78"/>
        <ellipse class="cls-3" cx="164.32" cy="42.99" rx="1.32" ry="1.39"/>
      </g>
      <g>
        <rect class="cls-1" x="163" y="49.41" width="2.64" height="2.78"/>
        <path class="cls-2" d="M164.32,52.19c-.73,0-1.32-.62-1.32-1.39s.59-1.39,1.32-1.39,1.32.62,1.32,1.39-.59,1.39-1.32,1.39Z"/>
      </g>
      <g>
        <rect class="cls-1" x="163" y="57.23" width="2.64" height="2.78"/>
        <path class="cls-2" d="M164.32,60c-.73,0-1.32-.62-1.32-1.39s.59-1.39,1.32-1.39,1.32.62,1.32,1.39-.59,1.39-1.32,1.39Z"/>
      </g>
      <g>
        <rect class="cls-1" x="163" y="65.04" width="2.64" height="2.78"/>
        <path class="cls-2" d="M164.32,67.82c-.73,0-1.32-.62-1.32-1.39s.59-1.39,1.32-1.39,1.32.62,1.32,1.39-.59,1.39-1.32,1.39Z"/>
      </g>
      <g>
        <rect class="cls-1" x="163" y="72.85" width="2.64" height="2.78"/>
        <path class="cls-2" d="M164.32,75.63c-.73,0-1.32-.62-1.32-1.39s.59-1.39,1.32-1.39,1.32.62,1.32,1.39-.59,1.39-1.32,1.39Z"/>
      </g>
      <g>
        <rect class="cls-1" x="163" y="80.67" width="2.64" height="2.78"/>
        <ellipse class="cls-3" cx="164.32" cy="82.05" rx="1.32" ry="1.39"/>
      </g>
      <g>
        <rect class="cls-1" x="163" y="88.48" width="2.64" height="2.78"/>
        <ellipse class="cls-3" cx="164.32" cy="89.87" rx="1.32" ry="1.39"/>
      </g>
      <g>
        <rect class="cls-1" x="163" y="96.29" width="2.64" height="2.78"/>
        <path class="cls-2" d="M164.32,99.07c-.73,0-1.32-.62-1.32-1.39s.59-1.39,1.32-1.39,1.32.62,1.32,1.39-.59,1.39-1.32,1.39Z"/>
      </g>
      <g>
        <rect class="cls-1" x="163" y="104.1" width="2.64" height="2.78"/>
        <ellipse class="cls-3" cx="164.32" cy="105.49" rx="1.32" ry="1.39"/>
      </g>
      <g>
        <polygon class="cls-1" points="159.82 107.88 158.11 105.7 156.1 107.5 157.75 109.6 159.82 107.88"/>
        <path class="cls-2" d="M157.1,106.6c.55-.5,1.39-.42,1.86.19.47.6.39,1.48-.18,1.95-.57.47-1.41.39-1.86-.19-.45-.58-.37-1.45.18-1.95Z"/>
      </g>
      <g>
        <polygon class="cls-1" points="154.81 101.9 152.84 99.95 151.07 102 152.94 103.86 154.81 101.9"/>
        <path class="cls-2" d="M151.96,100.97c.49-.57,1.33-.59,1.87-.05.55.54.57,1.42.05,1.96-.52.54-1.36.56-1.87.05s-.54-1.39-.05-1.96Z"/>
      </g>
      <g>
        <path class="cls-1" d="M149.04,96.66c-.75-.54-1.49-1.11-2.25-1.63l-1.41,2.34c.71.49,1.4,1.02,2.1,1.53l1.56-2.24Z"/>
        <path class="cls-2" d="M146.09,96.2c.4-.66,1.21-.82,1.83-.36.62.46.77,1.33.34,1.94-.43.62-1.25.77-1.83.35-.58-.42-.72-1.3-.35-1.93Z"/>
      </g>
      <g>
        <path class="cls-1" d="M142.41,92.56c-.82-.44-1.69-.74-2.56-1.08l-.87,2.62c.79.31,1.59.57,2.35.99l1.09-2.53Z"/>
        <path class="cls-2" d="M139.42,92.79c.24-.73,1.01-1.09,1.73-.81.72.27,1.02,1.16.72,1.84-.31.71-1.05.97-1.7.73-.65-.25-.99-1.04-.75-1.76Z"/>
      </g>
      <g>
        <path class="cls-1" d="M135.02,90.15l-1.36-.24c-.46-.08-.92-.08-1.38-.13l-.21,2.77c.42.04.84.04,1.26.11l1.24.22.45-2.74Z"/>
        <path class="cls-2" d="M132.17,91.18c.05-.76.72-1.36,1.48-1.26.76.13,1.27.85,1.14,1.6-.13.75-.79,1.27-1.47,1.15-.68-.09-1.2-.72-1.15-1.5Z"/>
      </g>
      <g>
        <path class="cls-1" d="M127.29,89.8c-.91.11-1.83.15-2.73.35l.42,2.74c.83-.19,1.68-.22,2.52-.32l-.21-2.77Z"/>
        <path class="cls-2" d="M124.77,91.51c-.12-.74.38-1.52,1.15-1.57.76-.08,1.42.48,1.47,1.24.05.76-.46,1.44-1.16,1.51-.69.05-1.34-.41-1.47-1.18Z"/>
      </g>
      <g>
        <path class="cls-1" d="M119.73,91.29c-.86.29-1.73.57-2.59.88l.89,2.61c.81-.29,1.63-.55,2.44-.83l-.74-2.66Z"/>
        <path class="cls-2" d="M117.59,93.47c-.25-.73.13-1.51.85-1.75.72-.24,1.47.16,1.67.9s-.18,1.52-.85,1.74c-.67.22-1.42-.18-1.66-.89Z"/>
      </g>
      <g>
        <path class="cls-1" d="M112.61,94.12c-.83.37-1.62.83-2.43,1.23l1.19,2.48c.78-.39,1.54-.84,2.33-1.19l-1.1-2.52Z"/>
        <path class="cls-2" d="M110.78,96.6c-.33-.68-.06-1.52.61-1.87.66-.36,1.47-.04,1.77.66.3.7.01,1.5-.62,1.84-.64.33-1.43.05-1.76-.63Z"/>
      </g>
      <g>
        <path class="cls-1" d="M105.92,97.81c-.76.49-1.55.94-2.3,1.45l1.39,2.36c.73-.5,1.49-.94,2.23-1.41l-1.33-2.4Z"/>
        <path class="cls-2" d="M104.32,100.44c-.39-.65-.2-1.52.45-1.91.64-.4,1.45-.18,1.82.48.37.66.16,1.51-.46,1.9-.62.38-1.42.19-1.81-.46Z"/>
      </g>
      <g>
        <path class="cls-1" d="M99.56,102.04c-.74.51-1.46,1.06-2.19,1.59l1.52,2.27c.72-.52,1.43-1.06,2.16-1.56l-1.48-2.3Z"/>
        <path class="cls-2" d="M98.13,104.76c-.42-.63-.27-1.49.33-1.94.6-.45,1.44-.27,1.84.36.41.64.25,1.48-.34,1.92-.59.44-1.41.28-1.83-.35Z"/>
      </g>
      <g>
        <polygon class="cls-1" points="93.46 106.59 91.33 108.26 92.92 110.48 95.02 108.82 93.46 106.59"/>
        <path class="cls-2" d="M92.12,109.37c-.44-.61-.32-1.48.27-1.94.59-.46,1.42-.34,1.85.28.43.62.31,1.49-.27,1.94-.58.46-1.41.33-1.85-.28Z"/>
      </g>
      <g>
        <polygon class="cls-1" points="87.51 111.33 85.42 113.04 87.05 115.23 89.13 113.53 87.51 111.33"/>
        <path class="cls-2" d="M86.23,114.13c-.45-.6-.35-1.48.23-1.95.58-.47,1.41-.36,1.85.24s.34,1.48-.23,1.95c-.58.47-1.4.36-1.85-.24Z"/>
      </g>
      <g>
        <polygon class="cls-1" points="81.65 116.15 79.57 117.86 81.2 120.04 83.28 118.33 81.65 116.15"/>
        <path class="cls-2" d="M80.38,118.95c-.45-.6-.35-1.48.23-1.95.57-.47,1.4-.37,1.85.23.45.6.35,1.48-.23,1.95-.58.47-1.41.37-1.86-.24Z"/>
      </g>
      <g>
        <polygon class="cls-1" points="75.8 120.94 73.71 122.63 75.3 124.84 77.41 123.14 75.8 120.94"/>
        <path class="cls-2" d="M74.51,123.73c-.44-.61-.33-1.48.25-1.95.58-.46,1.41-.35,1.85.26.45.61.34,1.48-.25,1.95-.58.47-1.41.35-1.85-.26Z"/>
      </g>
      <g>
        <polygon class="cls-1" points="69.89 125.62 67.76 127.24 69.3 129.51 71.45 127.86 69.89 125.62"/>
        <path class="cls-2" d="M68.53,128.38c-.42-.62-.29-1.49.3-1.94.59-.45,1.41-.31,1.84.31.43.62.3,1.49-.3,1.94-.6.45-1.42.32-1.84-.31Z"/>
      </g>
      <g>
        <path class="cls-1" d="M63.85,130.07c-.72.51-1.45,1.02-2.19,1.5l1.42,2.34c.76-.49,1.5-1.01,2.24-1.53l-1.46-2.31Z"/>
        <path class="cls-2" d="M62.37,132.75c-.39-.65-.21-1.5.39-1.91.6-.42,1.41-.25,1.82.39.41.64.24,1.5-.38,1.93-.62.42-1.45.23-1.84-.42Z"/>
      </g>
      <g>
        <polygon class="cls-1" points="57.62 134.16 55.34 135.47 56.58 137.92 58.93 136.57 57.62 134.16"/>
        <path class="cls-2" d="M55.96,136.7c-.34-.68-.1-1.52.52-1.88.63-.36,1.43-.11,1.79.55.36.67.13,1.51-.52,1.88-.65.38-1.46.13-1.8-.55Z"/>
      </g>
      <g>
        <polygon class="cls-1" points="51.12 137.62 49.94 138.16 48.74 138.65 49.68 141.24 50.95 140.73 52.18 140.16 51.12 137.62"/>
        <path class="cls-2" d="M49.21,139.94c-.26-.72.07-1.51.73-1.78.65-.3,1.42.02,1.71.72.3.7-.02,1.53-.7,1.84-.7.28-1.48-.07-1.74-.79Z"/>
      </g>
      <g>
        <polygon class="cls-1" points="44.32 140.17 43.08 140.5 42.46 140.66 41.83 140.78 42.34 143.5 43.02 143.38 43.68 143.2 45 142.85 44.32 140.17"/>
        <path class="cls-2" d="M42.09,142.14c-.14-.76.32-1.44.99-1.64.68-.18,1.39.27,1.58,1.01.19.74-.25,1.5-.98,1.69-.73.21-1.46-.31-1.59-1.06Z"/>
      </g>
      <g>
        <path class="cls-1" d="M37.28,141.39c-.84,0-1.69.05-2.53.02l-.1,2.77c.92.03,1.84-.01,2.76-.02l-.14-2.77Z"/>
        <path class="cls-2" d="M34.7,142.8c.03-.75.62-1.37,1.31-1.39.69-.01,1.29.6,1.33,1.37.04.77-.54,1.4-1.31,1.41-.77.02-1.36-.61-1.33-1.39Z"/>
      </g>
      <g>
        <path class="cls-1" d="M30.22,140.84c-.82-.19-1.63-.44-2.44-.66l-.77,2.66c.89.24,1.78.51,2.68.72l.53-2.72Z"/>
        <path class="cls-2" d="M27.39,141.52c.22-.73.94-1.18,1.6-.99.67.19,1.09.95.96,1.68-.15.77-.86,1.21-1.61,1.01-.74-.2-1.17-.97-.95-1.7Z"/>
      </g>
      <g>
        <path class="cls-1" d="M23.53,138.4c-.78-.35-1.5-.81-2.23-1.26l-1.34,2.39c.79.49,1.57.98,2.42,1.37l1.15-2.5Z"/>
        <path class="cls-2" d="M20.62,138.34c.37-.66,1.16-.89,1.77-.52.61.36.88,1.14.56,1.84-.31.68-1.14,1-1.81.61-.66-.4-.89-1.26-.52-1.92Z"/>
      </g>
      <g>
        <polygon class="cls-1" points="17.45 134.43 15.47 132.72 13.74 134.82 15.85 136.64 17.45 134.43"/>
        <path class="cls-2" d="M14.61,133.77c.48-.58,1.31-.66,1.86-.2.55.47.63,1.35.19,1.96-.44.61-1.27.7-1.86.2-.58-.5-.67-1.38-.19-1.96Z"/>
      </g>
      <g>
        <polygon class="cls-1" points="12.09 129.34 10.33 127.35 8.35 129.19 10.19 131.27 12.09 129.34"/>
        <path class="cls-2" d="M9.34,128.27c.55-.51,1.38-.47,1.87.08.48.55.45,1.43-.07,1.96-.52.53-1.36.5-1.87-.08-.51-.58-.48-1.45.07-1.96Z"/>
      </g>
      <g>
        <polygon class="cls-1" points="7.34 123.54 5.79 121.34 3.65 122.97 5.25 125.24 7.34 123.54"/>
        <path class="cls-2" d="M4.72,122.15c.59-.45,1.42-.32,1.84.28s.31,1.48-.27,1.95c-.58.47-1.4.34-1.84-.28s-.32-1.5.27-1.95Z"/>
      </g>
      <g>
        <path class="cls-1" d="M3.11,117.25l-.34-.53c-.05-.09-.12-.15-.12-.23v-1.04H0v1.74c-.05.2.13.34.21.5l.29.46.39.62,2.21-1.52Z"/>
        <path class="cls-2" d="M1.33,115.45c.36,0,.69.16.93.41.12.12.22.29.28.43.07.07.1.13.1.2.02.1,0,1.14-.64,1.53-.3.21-.66.27-1,.2-.08-.02-.17-.05-.25-.08-.1-.06-.19-.14-.29-.23-.1-.09-.19-.19-.29-.31-.09-.12-.21-.23-.18-.4,0-.31.04-.62.1-.88.07-.19.16-.32.28-.45.24-.25.57-.41.93-.41Z"/>
      </g>
      <g>
        <rect class="cls-1" x="0" y="107.63" width="2.64" height="2.78"/>
        <path class="cls-2" d="M1.33,107.63c.73,0,1.32.62,1.32,1.39s-.59,1.39-1.32,1.39S0,109.79,0,109.02s.59-1.39,1.32-1.39Z"/>
      </g>
      <g>
        <rect class="cls-1" x="0" y="99.82" width="2.64" height="2.78"/>
        <path class="cls-2" d="M1.33,99.82c.73,0,1.32.62,1.32,1.39s-.59,1.39-1.32,1.39S0,101.98,0,101.21s.59-1.39,1.32-1.39Z"/>
      </g>
      <g>
        <rect class="cls-1" x="0" y="92.01" width="2.64" height="2.78"/>
        <path class="cls-2" d="M1.33,92.01c.73,0,1.32.62,1.32,1.39s-.59,1.39-1.32,1.39S0,94.16,0,93.4s.59-1.39,1.32-1.39Z"/>
      </g>
      <g>
        <rect class="cls-1" x="0" y="84.19" width="2.64" height="2.78"/>
        <path class="cls-2" d="M1.33,84.19c.73,0,1.32.62,1.32,1.39s-.59,1.39-1.32,1.39S0,86.35,0,85.58s.59-1.39,1.32-1.39Z"/>
      </g>
      <g>
        <rect class="cls-1" x="0" y="76.38" width="2.64" height="2.78"/>
        <path class="cls-2" d="M1.33,76.38c.73,0,1.32.62,1.32,1.39s-.59,1.39-1.32,1.39S0,78.54,0,77.77s.59-1.39,1.32-1.39Z"/>
      </g>
      <g>
        <rect class="cls-1" x="0" y="68.57" width="2.64" height="2.78"/>
        <path class="cls-2" d="M1.33,68.57c.73,0,1.32.62,1.32,1.39s-.59,1.39-1.32,1.39S0,70.72,0,69.96s.59-1.39,1.32-1.39Z"/>
      </g>
      <g>
        <rect class="cls-1" x="0" y="60.75" width="2.64" height="2.78"/>
        <path class="cls-2" d="M1.33,60.75c.73,0,1.32.62,1.32,1.39s-.59,1.39-1.32,1.39S0,62.91,0,62.14s.59-1.39,1.32-1.39Z"/>
      </g>
      <g>
        <rect class="cls-1" x="0" y="52.94" width="2.64" height="2.78"/>
        <path class="cls-2" d="M1.33,52.94c.73,0,1.32.62,1.32,1.39s-.59,1.39-1.32,1.39S0,55.1,0,54.33s.59-1.39,1.32-1.39Z"/>
      </g>
      <g>
        <rect class="cls-1" x="0" y="45.13" width="2.64" height="2.78"/>
        <path class="cls-2" d="M1.33,45.13c.73,0,1.32.62,1.32,1.39s-.59,1.39-1.32,1.39S0,47.29,0,46.52s.59-1.39,1.32-1.39Z"/>
      </g>
      <g>
        <rect class="cls-1" x="0" y="37.32" width="2.64" height="2.78"/>
        <path class="cls-2" d="M1.33,37.32c.73,0,1.32.62,1.32,1.39s-.59,1.39-1.32,1.39S0,39.47,0,38.7s.59-1.39,1.32-1.39Z"/>
      </g>
      <g>
        <polygon class="cls-1" points="165.64 112.18 162.88 112.18 160.72 113.78 163.21 117.69 165.64 121.7 165.64 112.18"/>
        <path class="cls-2" d="M161.8,112.98l.03-.02.03-.02h.03s.03-.03.03-.03h.03s.04-.01.04-.01h.04s.04,0,.04,0h.08s.09.02.09.02l.09.03.09.04.1.04.1.05.11.06.11.07.11.08.12.09.24.2c.05-.01.05-.01.08-.02h0s0,0,0,0h0s0-.02,0-.02v-.02s.02-.04.02-.04l.02-.08.05-.15.05-.14.05-.13.05-.12.06-.11.06-.11.06-.1.06-.09.06-.07.06-.06.06-.05.03-.02.03-.02.03-.02h.03s.03-.02.03-.02h.03s.03-.01.03-.01h.03s.03,0,.03,0h.03s.03.01.03.01h.03s.03.02.03.02l.03.02.03.02.03.02.06.05.06.06.06.07.06.09.06.1.06.11.06.11.05.12.05.13.05.14.09.31.09.34.08.37.07.39.06.42.04.44.03.46c0,.16.01.31.02.47,0,.16,0,.32,0,.49,0,.16,0,.33,0,.49,0,.16-.01.32-.02.47l-.03.46-.04.44-.06.42-.07.39-.08.37-.09.34-.24-.24-.25-.27-.26-.29-.26-.32-.26-.34-.26-.37c-.09-.13-.17-.26-.26-.39-.08-.13-.17-.27-.25-.41-.08-.14-.17-.27-.25-.4-.08-.13-.15-.27-.23-.4l-.21-.39-.19-.39-.17-.37-.15-.36-.13-.35-.11-.33-.08-.31-.03-.15-.03-.14-.02-.13v-.13s-.02-.12-.02-.12v-.11s0-.11,0-.11v-.1s.03-.09.03-.09l.02-.08v-.04s.03-.04.03-.04l.02-.03.02-.03.02-.03.02-.03.03-.02.03-.02Z"/>
      </g>
      <g>
        <polygon class="cls-1" points="0 32.02 2.76 32.01 4.93 30.42 2.44 26.51 0 22.49 0 32.02"/>
        <path class="cls-2" d="M3.85,31.22l-.03.02-.03.02h-.03s-.03.03-.03.03h-.03s-.04.01-.04.01h-.04s-.04,0-.04,0h-.08s-.09-.02-.09-.02l-.09-.03-.09-.04-.1-.04-.1-.05-.11-.06-.11-.07-.11-.08-.12-.09-.24-.2c-.05.01-.05.01-.08.02h0s0,0,0,0h0s0,.02,0,.02v.02s-.02.04-.02.04l-.02.08-.05.15-.05.14-.05.13-.05.12-.06.11-.06.11-.06.1-.06.09-.06.07-.06.06-.06.05-.03.02-.03.02-.03.02h-.03s-.03.02-.03.02h-.03s-.03.01-.03.01h-.03s-.03,0-.03,0h-.03s-.03-.01-.03-.01h-.03s-.03-.02-.03-.02l-.03-.02-.03-.02-.03-.02-.06-.05-.06-.06-.06-.07-.06-.09-.06-.1-.06-.11-.06-.11-.05-.12-.05-.13-.05-.14-.09-.31-.09-.34-.08-.37-.07-.39-.06-.42-.04-.44-.03-.46c0-.16-.01-.31-.02-.47,0-.16,0-.32,0-.49,0-.16,0-.33,0-.49,0-.16.01-.32.02-.47l.03-.46.04-.44.06-.42.07-.39.08-.37.09-.34.24.24.25.27.26.29.26.32.26.34.26.37c.09.13.17.26.26.39.08.13.17.27.25.41.08.14.17.27.25.4.08.13.15.27.23.4l.21.39.19.39.17.37.15.36.13.35.11.33.08.31.03.15.03.14.02.13v.13s.02.12.02.12v.11s0,.11,0,.11v.1s-.03.09-.03.09l-.02.08v.04s-.03.04-.03.04l-.02.03-.02.03-.02.03-.02.03-.03.02-.03.02Z"/>
      </g>
    </g>
  </g>
</svg>