<?xml version="1.0" encoding="UTF-8"?>
<svg id="Layer_2" data-name="Layer 2" xmlns="http://www.w3.org/2000/svg" viewBox="0 0 166.91 170.95">
  <defs>
    <style>
      .cls-1 {
        fill: none;
      }

      .cls-1, .cls-2 {
        stroke-width: 0px;
      }

      .cls-2 {
        fill: #191919;
        fill-rule: evenodd;
      }
    </style>
  </defs>
  <g id="_ÎÓÈ_1" data-name="—ÎÓÈ_1">
    <g>
      <g>
        <path class="cls-1" d="M88.22,27.78c.19-.41.36-.83.57-1.22l.64-1.18-2.3-1.35-.67,1.25c-.22.42-.4.86-.6,1.29l2.37,1.23Z"/>
        <path class="cls-2" d="M88.27,24.7c.63.38.87,1.21.52,1.86-.33.66-1.09.95-1.75.61-.65-.33-.94-1.2-.59-1.9.37-.69,1.19-.95,1.82-.57Z"/>
      </g>
      <g>
        <path class="cls-1" d="M91.9,21.2c.45-.77,1.01-1.46,1.54-2.18l-2.08-1.71c-.55.76-1.14,1.49-1.62,2.3l2.17,1.58Z"/>
        <path class="cls-2" d="M92.39,18.17c.57.48.68,1.34.25,1.92-.45.58-1.21.76-1.83.32-.59-.43-.77-1.34-.3-1.96.47-.63,1.31-.75,1.88-.28Z"/>
      </g>
      <g>
        <path class="cls-1" d="M96.48,15.31c.57-.67,1.24-1.25,1.85-1.88l-1.79-2.04c-.65.67-1.36,1.28-1.97,2l1.9,1.93Z"/>
        <path class="cls-2" d="M97.44,12.41c.49.57.47,1.44-.05,1.95-.53.5-1.34.51-1.86-.01-.53-.53-.55-1.44.02-1.98.55-.55,1.4-.53,1.89.04Z"/>
      </g>
      <g>
        <polygon class="cls-1" points="101.91 10.3 104.05 8.79 102.63 6.45 100.36 8.05 101.91 10.3"/>
        <path class="cls-2" d="M103.34,7.62c.39.65.23,1.51-.36,1.92-.59.41-1.41.25-1.85-.37-.43-.62-.27-1.48.36-1.92.63-.45,1.46-.28,1.85.37Z"/>
      </g>
      <g>
        <polygon class="cls-1" points="108.11 6.43 110.45 5.34 109.49 2.76 106.98 3.93 108.11 6.43"/>
        <path class="cls-2" d="M109.97,4.05c.26.71-.05,1.54-.69,1.84-.64.3-1.42-.02-1.74-.71s0-1.52.69-1.84c.7-.32,1.47-.01,1.74.71Z"/>
      </g>
      <g>
        <polygon class="cls-1" points="114.88 3.9 116.12 3.58 116.75 3.43 117.38 3.33 116.93 .6 116.25 .7 115.58 .87 114.24 1.2 114.88 3.9"/>
        <path class="cls-2" d="M117.15,1.97c.12.77-.35,1.42-1.03,1.62-.68.17-1.38-.29-1.56-1.03s.28-1.5,1.02-1.69c.74-.21,1.46.36,1.57,1.1Z"/>
      </g>
      <g>
        <path class="cls-1" d="M121.98,2.84l1.28-.07c.43,0,.85.04,1.28.06l.09-2.77c-.46-.02-.92-.05-1.37-.06l-1.37.07.1,2.77Z"/>
        <path class="cls-2" d="M124.59,1.44c-.03.77-.62,1.35-1.32,1.33-.7.04-1.3-.56-1.33-1.32-.03-.77.56-1.42,1.32-1.45.76.02,1.36.68,1.33,1.44Z"/>
      </g>
      <g>
        <path class="cls-1" d="M129.15,3.3c.84.12,1.67.38,2.5.56l.63-2.7c-.9-.2-1.78-.46-2.69-.6l-.44,2.74Z"/>
        <path class="cls-2" d="M131.96,2.51c-.18.74-.88,1.21-1.56,1.05-.34-.08-.63-.31-.81-.61-.19-.28-.28-.64-.22-1.02.06-.38.26-.7.55-.91.28-.19.65-.26,1.02-.18.75.18,1.21.92,1.03,1.67Z"/>
      </g>
      <g>
        <path class="cls-1" d="M136.07,5.32c.79.35,1.58.68,2.36,1.05l1.13-2.51c-.83-.4-1.69-.75-2.53-1.12l-.96,2.59Z"/>
        <path class="cls-2" d="M138.99,5.11c-.31.68-1.09,1.01-1.74.73-.65-.28-.96-1.1-.7-1.81.26-.72,1.04-1.05,1.75-.74.7.31,1.02,1.12.7,1.82Z"/>
      </g>
      <g>
        <path class="cls-1" d="M142.49,8.74l1.09.71c.35.26.69.53,1.04.8l1.55-2.25c-.37-.28-.73-.58-1.11-.85l-1.16-.76-1.41,2.35Z"/>
        <path class="cls-2" d="M145.39,9.13c-.43.62-1.24.75-1.81.33-.6-.39-.77-1.24-.39-1.89.38-.65,1.22-.83,1.87-.41.62.46.76,1.36.33,1.97Z"/>
      </g>
      <g>
        <path class="cls-1" d="M148.23,13.33c.65.59,1.22,1.27,1.84,1.9l1.9-1.93c-.65-.67-1.26-1.38-1.95-2.01l-1.78,2.05Z"/>
        <path class="cls-2" d="M151.02,14.26c-.53.53-1.36.53-1.86,0-.25-.26-.37-.62-.38-.97-.01-.35.1-.7.34-.99.25-.28.58-.44.93-.45.34,0,.68.14.95.42.54.57.54,1.45.02,1.98Z"/>
      </g>
      <g>
        <polygon class="cls-1" points="153.15 18.92 154.69 21.1 156.85 19.51 155.22 17.21 153.15 18.92"/>
        <path class="cls-2" d="M155.77,20.3c-.6.44-1.43.3-1.85-.29-.42-.6-.3-1.47.27-1.95.57-.48,1.4-.35,1.85.29s.33,1.51-.27,1.95Z"/>
      </g>
      <g>
        <path class="cls-1" d="M157.16,25.27c.4.8.85,1.58,1.22,2.4l2.37-1.23c-.39-.86-.86-1.68-1.28-2.53l-2.3,1.36Z"/>
        <path class="cls-2" d="M159.56,27.06c-.33.17-.68.18-1,.07-.33-.11-.61-.33-.78-.66-.34-.65-.1-1.49.53-1.87.63-.38,1.44-.12,1.81.58.18.35.21.73.12,1.07-.11.35-.34.64-.67.81Z"/>
      </g>
      <g>
        <polygon class="cls-1" points="160.24 32.19 160.86 33.9 160.96 34.17 161.11 34.35 161.11 34.36 160.9 33.99 161.22 34.81 163.67 33.77 163.33 32.91 163.25 32.72 163.11 32.55 163.11 32.54 163.36 32.99 162.7 31.2 160.24 32.19"/>
        <path class="cls-2" d="M162.44,34.29c-.53.22-1.1.07-1.47-.33l.2.34h0s-.23-.43-.23-.43c-.1-.12-.18-.26-.24-.41-.25-.7.09-1.49.77-1.77.68-.28,1.45.1,1.72.84.06.16.09.33.09.49l-.23-.42h0s.2.34.2.34c.03.58-.28,1.13-.81,1.35Z"/>
      </g>
      <g>
        <path class="cls-1" d="M162.71,39.45c.24.87.39,1.76.58,2.64l2.58-.58c-.2-.93-.36-1.88-.62-2.8l-2.54.74Z"/>
        <path class="cls-2" d="M164.58,41.8c-.71.16-1.41-.31-1.56-1.03-.14-.73.26-1.47.97-1.68.7-.21,1.45.24,1.6,1.03.16.78-.29,1.54-1,1.69Z"/>
      </g>
      <g>
        <path class="cls-1" d="M164.04,46.93c.08.9.12,1.81.18,2.71l2.64-.15c-.07-.95-.11-1.91-.19-2.86l-2.63.29Z"/>
        <path class="cls-2" d="M165.54,49.57c-.73.04-1.36-.54-1.4-1.28-.05-.75.51-1.42,1.22-1.5.74-.09,1.37.49,1.42,1.28.05.79-.5,1.47-1.23,1.5Z"/>
      </g>
      <g>
        <polygon class="cls-1" points="164.27 54.57 164.1 57.29 166.73 57.52 166.91 54.67 164.27 54.57"/>
        <path class="cls-2" d="M165.42,57.41c-.73-.07-1.28-.73-1.23-1.48.05-.75.68-1.33,1.41-1.31.73.03,1.28.69,1.23,1.48-.05.79-.68,1.38-1.41,1.31Z"/>
      </g>
      <g>
        <polygon class="cls-1" points="163.54 62.2 163.06 64.89 165.65 65.44 166.15 62.65 163.54 62.2"/>
        <path class="cls-2" d="M164.35,65.17c-.71-.15-1.19-.88-1.05-1.62.13-.74.82-1.24,1.54-1.12.72.12,1.19.84,1.05,1.62-.14.77-.83,1.28-1.54,1.12Z"/>
      </g>
      <g>
        <path class="cls-1" d="M161.99,69.73c-.23.88-.49,1.76-.74,2.63l2.53.81c.25-.91.53-1.81.76-2.72l-2.55-.72Z"/>
        <path class="cls-2" d="M162.51,72.77c-.7-.23-1.09-1-.89-1.72.21-.72.94-1.15,1.64-.96.71.2,1.12.97.9,1.72-.21.75-.95,1.18-1.65.95Z"/>
      </g>
      <g>
        <path class="cls-1" d="M159.74,77.08c-.28.87-.61,1.72-.94,2.57l2.45,1.02c.34-.87.68-1.75.96-2.64l-2.48-.95Z"/>
        <path class="cls-2" d="M160.03,80.17c-.68-.28-1.01-1.09-.74-1.79.26-.71,1-1.08,1.69-.82.68.26,1.05,1.08.78,1.81-.28.73-1.05,1.08-1.73.8Z"/>
      </g>
      <g>
        <path class="cls-1" d="M156.95,84.25c-.37.83-.72,1.68-1.09,2.51l2.38,1.21c.39-.85.75-1.71,1.12-2.57l-2.41-1.14Z"/>
        <path class="cls-2" d="M157.04,87.35c-.65-.33-.94-1.16-.64-1.85.3-.69,1.08-1,1.75-.68.66.31.95,1.15.65,1.86-.31.71-1.09,1.02-1.75.68Z"/>
      </g>
      <g>
        <polygon class="cls-1" points="153.7 91.21 152.43 93.62 154.73 94.98 156.03 92.51 153.7 91.21"/>
        <path class="cls-2" d="M153.58,94.3c-.64-.38-.87-1.22-.52-1.89.35-.67,1.16-.91,1.8-.56.64.36.88,1.2.52,1.89-.36.68-1.17.93-1.8.56Z"/>
      </g>
      <g>
        <path class="cls-1" d="M150.02,97.95c-.45.79-.89,1.58-1.38,2.35l2.23,1.49c.5-.78.95-1.59,1.41-2.4l-2.26-1.44Z"/>
        <path class="cls-2" d="M149.75,101.04c-.62-.41-.78-1.26-.41-1.91.37-.65,1.18-.86,1.81-.46.62.4.82,1.26.44,1.93-.38.67-1.22.85-1.83.44Z"/>
      </g>
      <g>
        <polygon class="cls-1" points="146.02 104.49 144.52 106.76 146.68 108.36 148.2 106.05 146.02 104.49"/>
        <path class="cls-2" d="M145.6,107.56c-.6-.44-.74-1.31-.33-1.94.41-.63,1.24-.79,1.84-.36s.75,1.3.33,1.94c-.42.64-1.25.8-1.84.36Z"/>
      </g>
      <g>
        <path class="cls-1" d="M141.71,110.81c-.53.74-1.03,1.49-1.59,2.21l2.09,1.7c.56-.73,1.07-1.5,1.61-2.25l-2.11-1.66Z"/>
        <path class="cls-2" d="M141.17,113.87c-.58-.47-.67-1.33-.24-1.95.43-.61,1.26-.74,1.84-.28.58.46.7,1.34.26,1.96-.44.63-1.28.74-1.86.27Z"/>
      </g>
      <g>
        <polygon class="cls-1" points="137.16 116.96 135.47 119.09 137.49 120.87 139.21 118.72 137.16 116.96"/>
        <path class="cls-2" d="M136.48,119.98c-.56-.49-.63-1.37-.16-1.95.47-.59,1.3-.67,1.87-.19.57.48.64,1.36.16,1.95-.47.6-1.31.68-1.87.19Z"/>
      </g>
      <g>
        <polygon class="cls-1" points="132.36 122.9 130.61 124.97 132.57 126.83 134.34 124.73 132.36 122.9"/>
        <path class="cls-2" d="M131.59,125.9c-.54-.51-.59-1.4-.1-1.97.48-.57,1.32-.63,1.87-.12.55.51.6,1.39.1,1.97-.49.58-1.33.64-1.87.12Z"/>
      </g>
      <g>
        <path class="cls-1" d="M127.36,128.66c-.6.67-1.19,1.36-1.82,2.01l1.9,1.93c.63-.66,1.23-1.36,1.84-2.04l-1.92-1.91Z"/>
        <path class="cls-2" d="M126.49,131.64c-.53-.54-.52-1.4-.03-1.96.5-.56,1.33-.59,1.86-.06.53.53.55,1.41.05,1.98-.5.57-1.36.57-1.88.05Z"/>
      </g>
      <g>
        <polygon class="cls-1" points="122.18 134.25 120.29 136.19 122.13 138.18 124.04 136.22 122.18 134.25"/>
        <path class="cls-2" d="M121.21,137.18c-.51-.55-.49-1.43.03-1.96.53-.53,1.36-.52,1.87.02.52.55.51,1.43-.03,1.96-.53.54-1.37.53-1.88-.02Z"/>
      </g>
      <g>
        <polygon class="cls-1" points="116.83 139.66 114.88 141.54 116.66 143.58 118.63 141.69 116.83 139.66"/>
        <path class="cls-2" d="M115.77,142.56c-.49-.57-.45-1.45.08-1.96.54-.52,1.37-.48,1.87.08.5.56.46,1.44-.08,1.96-.54.52-1.38.49-1.87-.08Z"/>
      </g>
      <g>
        <polygon class="cls-1" points="111.32 144.89 109.33 146.72 111.06 148.82 113.06 146.98 111.32 144.89"/>
        <path class="cls-2" d="M110.2,147.77c-.48-.58-.42-1.46.13-1.97.55-.51,1.38-.45,1.87.13.48.57.42,1.46-.13,1.97-.55.51-1.39.45-1.87-.13Z"/>
      </g>
      <g>
        <polygon class="cls-1" points="105.68 149.97 103.65 151.75 105.32 153.9 107.37 152.1 105.68 149.97"/>
        <path class="cls-2" d="M104.48,152.82c-.46-.59-.38-1.47.18-1.96.56-.49,1.39-.41,1.86.18s.39,1.47-.18,1.97c-.57.5-1.4.42-1.86-.18Z"/>
      </g>
      <g>
        <path class="cls-1" d="M99.91,154.89c-.69.58-1.38,1.16-2.08,1.71l1.62,2.2c.71-.56,1.41-1.14,2.1-1.73l-1.63-2.18Z"/>
        <path class="cls-2" d="M98.63,157.7c-.45-.61-.34-1.47.24-1.94.57-.48,1.4-.38,1.85.22.45.6.35,1.48-.22,1.96-.58.47-1.42.36-1.87-.25Z"/>
      </g>
      <g>
        <path class="cls-1" d="M94.02,159.65c-.7.56-1.42,1.1-2.13,1.65l1.56,2.24c.72-.55,1.44-1.09,2.15-1.66l-1.58-2.22Z"/>
        <path class="cls-2" d="M92.67,162.41c-.43-.62-.3-1.49.29-1.94.59-.45,1.42-.33,1.85.28.44.61.32,1.49-.28,1.95-.6.46-1.43.32-1.86-.29Z"/>
      </g>
      <g>
        <polygon class="cls-1" points="88.01 164.25 85.84 165.84 87.35 168.12 89.54 166.52 88.01 164.25"/>
        <path class="cls-2" d="M86.6,166.98c-.42-.63-.27-1.49.33-1.93.6-.44,1.43-.29,1.85.34.42.62.28,1.49-.33,1.93-.6.44-1.43.29-1.85-.34Z"/>
      </g>
      <g>
        <polygon class="cls-1" points="81.07 165.84 78.9 164.25 77.37 166.52 79.56 168.12 81.07 165.84"/>
        <path class="cls-2" d="M78.14,165.38c.42-.62,1.25-.78,1.85-.34.6.44.75,1.3.33,1.93s-1.24.78-1.85.34c-.6-.44-.75-1.31-.33-1.93Z"/>
      </g>
      <g>
        <path class="cls-1" d="M75.03,161.29c-.71-.55-1.43-1.08-2.13-1.65l-1.58,2.22c.7.57,1.43,1.11,2.15,1.66l1.56-2.24Z"/>
        <path class="cls-2" d="M72.1,160.76c.44-.61,1.26-.73,1.85-.28.59.45.72,1.32.29,1.94-.43.62-1.26.75-1.86.29-.6-.45-.72-1.33-.28-1.95Z"/>
      </g>
      <g>
        <path class="cls-1" d="M69.09,156.6c-.7-.56-1.4-1.13-2.08-1.71l-1.63,2.18c.69.59,1.39,1.17,2.1,1.73l1.62-2.2Z"/>
        <path class="cls-2" d="M66.19,155.98c.45-.6,1.28-.7,1.85-.22.58.47.69,1.33.24,1.94-.44.61-1.28.72-1.87.25-.58-.48-.68-1.36-.22-1.96Z"/>
      </g>
      <g>
        <polygon class="cls-1" points="63.26 151.75 61.24 149.97 59.55 152.1 61.6 153.9 63.26 151.75"/>
        <path class="cls-2" d="M60.39,151.04c.47-.59,1.3-.67,1.86-.18.56.49.64,1.37.18,1.96-.46.6-1.3.68-1.86.18-.57-.5-.65-1.38-.18-1.97Z"/>
      </g>
      <g>
        <polygon class="cls-1" points="57.58 146.72 55.59 144.89 53.85 146.98 55.85 148.82 57.58 146.72"/>
        <path class="cls-2" d="M54.72,145.93c.48-.57,1.32-.63,1.87-.13.55.51.61,1.39.13,1.97-.48.58-1.31.64-1.87.13-.55-.51-.61-1.39-.13-1.97Z"/>
      </g>
      <g>
        <polygon class="cls-1" points="52.03 141.54 50.08 139.66 48.28 141.69 50.25 143.58 52.03 141.54"/>
        <path class="cls-2" d="M49.18,140.67c.5-.56,1.34-.59,1.87-.08.54.52.57,1.4.08,1.96-.49.57-1.33.6-1.87.08-.54-.52-.58-1.4-.08-1.96Z"/>
      </g>
      <g>
        <polygon class="cls-1" points="46.62 136.19 44.73 134.25 42.87 136.22 44.78 138.18 46.62 136.19"/>
        <path class="cls-2" d="M43.8,135.24c.51-.54,1.35-.55,1.87-.02.52.53.54,1.41.03,1.96-.51.55-1.35.56-1.88.02-.53-.54-.54-1.42-.03-1.96Z"/>
      </g>
      <g>
        <path class="cls-1" d="M41.37,130.67c-.63-.65-1.21-1.34-1.82-2.01l-1.92,1.91c.61.68,1.21,1.38,1.84,2.04l1.9-1.93Z"/>
        <path class="cls-2" d="M38.59,129.61c.53-.53,1.36-.5,1.86.06.49.56.49,1.43-.03,1.96-.52.53-1.38.53-1.88-.05-.5-.57-.48-1.45.05-1.98Z"/>
      </g>
      <g>
        <polygon class="cls-1" points="36.31 124.97 34.56 122.9 32.57 124.73 34.35 126.83 36.31 124.97"/>
        <path class="cls-2" d="M33.56,123.81c.55-.51,1.38-.45,1.87.12.48.57.44,1.45-.1,1.97-.54.51-1.38.46-1.87-.12-.49-.58-.44-1.46.1-1.97Z"/>
      </g>
      <g>
        <polygon class="cls-1" points="31.44 119.09 29.75 116.96 27.7 118.72 29.42 120.87 31.44 119.09"/>
        <path class="cls-2" d="M28.73,117.84c.57-.48,1.4-.4,1.87.19.47.59.39,1.46-.16,1.95-.56.49-1.4.41-1.87-.19-.47-.6-.4-1.47.16-1.95Z"/>
      </g>
      <g>
        <path class="cls-1" d="M26.79,113.03c-.55-.72-1.06-1.48-1.59-2.21l-2.11,1.66c.54.75,1.05,1.52,1.61,2.25l2.09-1.7Z"/>
        <path class="cls-2" d="M24.14,111.65c.58-.46,1.41-.33,1.84.28.43.62.33,1.48-.24,1.95-.58.47-1.42.36-1.86-.27-.44-.62-.33-1.5.26-1.96Z"/>
      </g>
      <g>
        <polygon class="cls-1" points="22.39 106.76 20.89 104.49 18.71 106.05 20.24 108.36 22.39 106.76"/>
        <path class="cls-2" d="M19.8,105.27c.6-.43,1.43-.27,1.84.36.41.63.27,1.49-.33,1.94-.6.44-1.42.28-1.84-.36-.42-.64-.28-1.5.33-1.93Z"/>
      </g>
      <g>
        <path class="cls-1" d="M18.27,100.3c-.49-.77-.93-1.56-1.38-2.35l-2.26,1.44c.46.8.91,1.62,1.41,2.4l2.23-1.49Z"/>
        <path class="cls-2" d="M15.76,98.67c.62-.4,1.43-.19,1.81.46.37.65.21,1.5-.41,1.91-.61.41-1.45.22-1.83-.44-.38-.67-.19-1.53.44-1.93Z"/>
      </g>
      <g>
        <polygon class="cls-1" points="14.49 93.62 13.21 91.21 10.89 92.51 12.18 94.98 14.49 93.62"/>
        <path class="cls-2" d="M12.05,91.86c.64-.36,1.45-.11,1.8.56.35.67.12,1.51-.52,1.89-.64.38-1.44.13-1.8-.55-.36-.68-.13-1.53.52-1.89Z"/>
      </g>
      <g>
        <path class="cls-1" d="M11.06,86.75c-.38-.83-.73-1.67-1.09-2.51l-2.41,1.14c.37.86.73,1.72,1.12,2.57l2.38-1.21Z"/>
        <path class="cls-2" d="M8.76,84.82c.66-.31,1.45,0,1.75.68.3.69.01,1.52-.64,1.85-.66.34-1.45.03-1.75-.68-.31-.71-.02-1.54.65-1.86Z"/>
      </g>
      <g>
        <path class="cls-1" d="M8.1,79.65c-.33-.85-.66-1.7-.94-2.57l-2.48.95c.28.9.62,1.77.96,2.64l2.45-1.02Z"/>
        <path class="cls-2" d="M5.93,77.56c.69-.26,1.43.11,1.69.82.27.7-.06,1.5-.74,1.79-.68.28-1.45-.07-1.73-.8-.27-.73.1-1.55.78-1.81Z"/>
      </g>
      <g>
        <path class="cls-1" d="M5.67,72.36c-.24-.88-.51-1.75-.74-2.63l-2.55.72c.23.91.51,1.81.76,2.72l2.53-.81Z"/>
        <path class="cls-2" d="M3.65,70.09c.7-.19,1.43.23,1.64.96.21.72-.19,1.49-.89,1.72s-1.44-.2-1.65-.95c-.22-.75.19-1.52.9-1.72Z"/>
      </g>
      <g>
        <polygon class="cls-1" points="3.86 64.89 3.37 62.2 .77 62.65 1.27 65.44 3.86 64.89"/>
        <path class="cls-2" d="M2.07,62.42c.72-.12,1.41.38,1.54,1.12s-.34,1.47-1.05,1.62c-.71.15-1.41-.35-1.54-1.12-.14-.77.33-1.5,1.05-1.62Z"/>
      </g>
      <g>
        <polygon class="cls-1" points="2.81 57.29 2.64 54.57 0 54.67 .18 57.52 2.81 57.29"/>
        <path class="cls-2" d="M1.32,54.62c.73-.03,1.36.56,1.41,1.31.05.75-.5,1.41-1.23,1.48-.73.07-1.36-.52-1.41-1.31-.05-.79.5-1.45,1.23-1.48Z"/>
      </g>
      <g>
        <path class="cls-1" d="M2.69,49.64c.06-.9.1-1.81.18-2.71l-2.63-.29c-.09.95-.13,1.9-.19,2.86l2.64.15Z"/>
        <path class="cls-2" d="M1.56,46.78c.71.08,1.26.76,1.22,1.5-.05.75-.68,1.32-1.4,1.28s-1.28-.71-1.23-1.5c.05-.79.68-1.37,1.42-1.28Z"/>
      </g>
      <g>
        <path class="cls-1" d="M3.63,42.09c.19-.88.34-1.77.58-2.64l-2.55-.74c-.25.92-.41,1.87-.62,2.8l2.58.58Z"/>
        <path class="cls-2" d="M2.93,39.08c.71.21,1.1.95.97,1.68-.15.73-.85,1.19-1.56,1.03-.71-.16-1.16-.91-1-1.69.15-.78.9-1.23,1.6-1.03Z"/>
      </g>
      <g>
        <polygon class="cls-1" points="5.7 34.81 6.02 33.99 6.67 32.2 4.21 31.19 3.57 32.94 3.25 33.77 5.7 34.81"/>
        <path class="cls-2" d="M5.44,31.69c.68.28,1.02,1.08.76,1.78-.03.08-.07.16-.11.23-.05.07-.1.16-.16.26-.38.42-.94.54-1.46.33-.52-.21-.83-.77-.81-1.31-.02-.02-.02-.11,0-.2.02-.09.04-.17.07-.26.27-.74,1.04-1.11,1.72-.82Z"/>
      </g>
      <g>
        <path class="cls-1" d="M8.54,27.67c.36-.82.81-1.6,1.22-2.4l-2.3-1.36c-.42.84-.9,1.66-1.28,2.53l2.37,1.23Z"/>
        <path class="cls-2" d="M8.6,24.59c.63.38.87,1.22.53,1.87-.36.65-1.13.92-1.78.59-.66-.34-.93-1.2-.56-1.89.36-.7,1.17-.95,1.81-.58Z"/>
      </g>
      <g>
        <polygon class="cls-1" points="12.22 21.1 13.77 18.92 11.69 17.21 10.06 19.51 12.22 21.1"/>
        <path class="cls-2" d="M12.73,18.06c.57.48.69,1.35.27,1.94-.42.6-1.25.73-1.85.29-.6-.44-.72-1.31-.27-1.95.45-.64,1.28-.77,1.85-.29Z"/>
      </g>
      <g>
        <path class="cls-1" d="M16.84,15.23c.62-.63,1.19-1.3,1.84-1.9l-1.78-2.05c-.68.63-1.3,1.34-1.95,2.01l1.9,1.93Z"/>
        <path class="cls-2" d="M17.79,12.31c.25.28.36.64.34.99,0,.36-.13.71-.38.98-.5.53-1.33.52-1.86,0-.53-.53-.52-1.42.02-1.98.27-.28.61-.42.95-.42.35.01.68.17.93.45Z"/>
      </g>
      <g>
        <polygon class="cls-1" points="22.3 10.25 23.33 9.45 24.42 8.74 23.01 6.39 21.85 7.15 20.75 8 22.3 10.25"/>
        <path class="cls-2" d="M23.72,7.56c.39.65.21,1.5-.39,1.89-.57.43-1.38.3-1.81-.32-.43-.62-.29-1.51.33-1.97.65-.42,1.48-.24,1.87.41Z"/>
      </g>
      <g>
        <path class="cls-1" d="M28.48,6.37c.78-.37,1.57-.7,2.36-1.05l-.95-2.59c-.84.37-1.7.73-2.53,1.12l1.12,2.51Z"/>
        <path class="cls-2" d="M30.36,4.02c.26.72-.06,1.53-.71,1.81-.65.28-1.43-.05-1.74-.73-.32-.71,0-1.52.7-1.82.7-.31,1.49.02,1.75.74Z"/>
      </g>
      <g>
        <path class="cls-1" d="M35.26,3.86c.83-.18,1.66-.43,2.5-.56l-.44-2.74c-.91.14-1.79.4-2.69.6l.63,2.7Z"/>
        <path class="cls-2" d="M37.54,1.93c.06.38-.03.74-.22,1.02-.19.3-.47.53-.81.61-.68.16-1.38-.31-1.56-1.05-.18-.74.28-1.49,1.03-1.67.37-.09.73-.02,1.02.18.29.21.49.53.55.91Z"/>
      </g>
      <g>
        <polygon class="cls-1" points="42.37 2.83 43.65 2.78 44.93 2.84 45.03 .07 43.65 0 42.28 .06 42.37 2.83"/>
        <path class="cls-2" d="M44.98,1.45c-.03.77-.63,1.36-1.33,1.32-.7.02-1.29-.56-1.32-1.33-.03-.76.56-1.42,1.33-1.45.76.04,1.36.69,1.32,1.45Z"/>
      </g>
      <g>
        <path class="cls-1" d="M49.53,3.33l.63.09c.21.04.41.1.62.15l1.24.32.64-2.69-1.34-.34c-.22-.05-.44-.12-.67-.16l-.68-.1-.45,2.74Z"/>
        <path class="cls-2" d="M52.35,2.55c-.18.74-.88,1.21-1.56,1.03-.68-.2-1.15-.85-1.03-1.62.12-.74.84-1.31,1.57-1.1.74.19,1.2.94,1.02,1.69Z"/>
      </g>
      <g>
        <polygon class="cls-1" points="56.46 5.34 58.8 6.43 59.93 3.93 57.42 2.75 56.46 5.34"/>
        <path class="cls-2" d="M59.37,5.18c-.32.69-1.09,1.01-1.74.71-.64-.3-.95-1.13-.69-1.84.26-.72,1.04-1.03,1.74-.71.7.33,1.01,1.15.69,1.84Z"/>
      </g>
      <g>
        <polygon class="cls-1" points="62.87 8.79 65 10.3 66.56 8.05 64.28 6.45 62.87 8.79"/>
        <path class="cls-2" d="M65.78,9.17c-.43.62-1.26.78-1.85.37-.59-.41-.75-1.27-.36-1.92s1.21-.82,1.85-.37c.63.45.79,1.31.36,1.92Z"/>
      </g>
      <g>
        <path class="cls-1" d="M68.58,13.43c.61.63,1.28,1.21,1.85,1.88l1.9-1.93c-.61-.71-1.31-1.33-1.97-2l-1.79,2.04Z"/>
        <path class="cls-2" d="M71.38,14.34c-.52.53-1.34.51-1.86.01-.52-.51-.54-1.38-.05-1.95.49-.57,1.34-.58,1.89-.04.57.53.55,1.44.02,1.98Z"/>
      </g>
      <g>
        <path class="cls-1" d="M73.48,19.03c.52.72,1.08,1.41,1.54,2.18l2.17-1.58c-.48-.81-1.07-1.54-1.62-2.3l-2.08,1.71Z"/>
        <path class="cls-2" d="M76.1,20.41c-.61.44-1.38.26-1.83-.32-.44-.59-.33-1.45.25-1.92.57-.47,1.41-.35,1.88.28.48.62.29,1.54-.3,1.96Z"/>
      </g>
      <g>
        <path class="cls-1" d="M77.48,25.38l.64,1.18c.21.39.38.82.57,1.22l2.37-1.23c-.2-.43-.38-.87-.6-1.29l-.67-1.25-2.3,1.35Z"/>
        <path class="cls-2" d="M79.87,27.17c-.66.34-1.42.05-1.75-.61-.35-.65-.12-1.48.52-1.86.63-.38,1.45-.12,1.82.57.35.7.06,1.57-.59,1.9Z"/>
      </g>
      <g>
        <path class="cls-1" d="M84.94,169.88l-.75-1.15-.37-.57-.19-.29-.09-.14-.05-.07-.02-.04v-.02s-.02,0-.02,0h0s0,0,0,0h0s0,0,0,0c.01,0,.01,0,.02,0l-1.49,2.29,1.48,1.07,1.48-1.07Z"/>
        <path class="cls-2" d="M82.72,168.74l.08-.11.09-.11.09-.1.09-.09.1-.08.1-.07.1-.06.1-.05s0,0-.01,0h0s0,0,0,0h0s0,0,0,0h0s.01,0,.01,0h.03s.05.04.05.04l.1.06.1.07.1.08.09.09.09.1.09.11.08.11.07.12.06.12.05.12.04.12.03.12.02.12v.12s.02.12.02.12v.11s-.02.11-.02.11v.05s-.02.05-.02.05l-.02.05-.02.05-.02.05-.02.04-.03.04-.03.04-.03.04-.03.03-.03.03-.04.03-.04.03-.04.02-.04.02-.04.02h-.04s-.05.02-.05.02h-.05s-.05.01-.05.01h-.05s-.05,0-.05,0h-.05s-.05-.01-.05-.01l-.1-.03-.1-.04-.1.04-.1.03h-.05s-.05.01-.05.01h-.05s-.05,0-.05,0h-.05s-.05-.01-.05-.01h-.05s-.04-.02-.04-.02l-.04-.02-.04-.02-.04-.02-.04-.03-.04-.03-.03-.03-.03-.03-.03-.04-.03-.04-.03-.04-.02-.04-.02-.05-.02-.05-.02-.05v-.05s-.02-.05-.02-.05v-.11s-.02-.11-.02-.11v-.12s.02-.12.02-.12l.02-.12.03-.12.04-.12.05-.12.06-.12.07-.12Z"/>
      </g>
      <g>
        <polygon class="cls-1" points="80.71 32.72 81.94 32.23 82.56 31.99 82.87 31.87 83.03 31.81 83.1 31.78 83.14 31.76 83.16 31.76 83.17 31.75 83.18 31.75 83.18 31.75 83.18 31.75 83.18 31.75 83.73 31.75 86.2 32.72 85.99 33.3 85.88 33.59 85.83 33.73 85.78 33.88 85.43 35.07 84.73 37.46 83.46 42.4 82.18 37.46 81.48 35.07 81.13 33.88 81.08 33.73 81.03 33.59 80.92 33.3 80.71 32.72"/>
        <path class="cls-2" d="M84.97,32.23h-.03s-.03-.02-.03-.02h-.03s-.04,0-.04,0h-.04s-.04,0-.04,0h-.04s-.04.02-.04.02h-.04s-.04.03-.04.03l-.08.04-.09.05-.09.06-.09.08-.09.09-.1.1-.1.11-.1.12-.05.06-.03.03-.02.03-.18.29c-.18,0-.17,0-.27,0h0s0,0,0,0h0s0-.01,0-.01v-.02s-.03-.04-.03-.04l-.05-.07-.09-.14-.02-.03-.02-.03-.05-.06-.1-.12-.1-.11-.09-.1-.09-.09-.09-.08-.09-.06-.09-.05-.08-.04-.04-.02h-.04s-.04-.02-.04-.02h-.04s-.04-.01-.04-.01h-.04s-.04,0-.04,0h-.03s-.03.01-.03.01h-.03s-.03.03-.03.03l-.03.02-.03.02-.03.02-.03.03-.02.03-.02.03-.02.03-.02.04-.02.04-.04.09-.03.1-.02.11-.02.12v.12s-.03.13-.03.13v.14s0,.65,0,.65l.02.37.04.39.05.42.07.44.09.45.1.47c.04.16.08.32.12.48.05.16.09.32.14.49.05.17.09.34.14.5.05.16.1.32.15.48l.15.46.16.44.17.42.17.39.17.36.17.33.17-.33.17-.36.17-.39.17-.42.16-.44.15-.46c.05-.16.1-.32.15-.48.05-.17.09-.33.14-.5.05-.16.09-.33.14-.49.04-.16.08-.32.12-.48l.1-.47.09-.45.07-.44.05-.42.04-.39.02-.37v-.65s0-.14,0-.14v-.13s-.02-.12-.02-.12l-.02-.12-.02-.11-.03-.1-.04-.09-.02-.04-.02-.04-.02-.03-.02-.03-.02-.03-.03-.03-.03-.02-.03-.02-.03-.02h-.03Z"/>
      </g>
    </g>
  </g>
</svg>