<?xml version="1.0" encoding="UTF-8"?>
<svg id="Layer_2" data-name="Layer 2" xmlns="http://www.w3.org/2000/svg" viewBox="0 0 244.58 221.59">
  <defs>
    <style>
      .cls-1 {
        fill: none;
      }

      .cls-1, .cls-2, .cls-3 {
        stroke-width: 0px;
      }

      .cls-2 {
        fill-rule: evenodd;
      }

      .cls-2, .cls-3 {
        fill: #191919;
      }
    </style>
  </defs>
  <g id="_ÎÓÈ_1" data-name="—ÎÓÈ_1">
    <g>
      <g>
        <path class="cls-1" d="M193.12,12.61l-.84-.96c-.28-.32-.59-.61-.89-.91-.3-.3-.59-.61-.91-.89l-.95-.84-3.06,3.55.82.72c.27.24.52.51.78.76.25.26.53.5.76.78l.71.81,3.58-3.03Z"/>
        <path class="cls-2" d="M188,10.79c.42-.49,1.01-.76,1.63-.78.31,0,.63.04.93.16.3.13.58.32.83.56.25.25.44.53.57.83.12.31.17.63.16.94-.02.62-.29,1.21-.78,1.62-.49.42-1.11.6-1.69.58-.29,0-.57-.07-.83-.19-.27-.1-.52-.26-.74-.47s-.37-.46-.47-.73c-.11-.27-.18-.55-.19-.84-.02-.58.17-1.2.59-1.69Z"/>
      </g>
      <g>
        <path class="cls-1" d="M182.01,3.93c-.36-.21-.75-.37-1.12-.56l-1.14-.54c-.39-.16-.78-.32-1.16-.48-.39-.15-.77-.33-1.17-.46l-1.6,4.41c.35.11.68.27,1.03.4.34.14.68.27,1.02.42l1,.47c.33.16.67.3.99.49l2.16-4.16Z"/>
        <path class="cls-2" d="M176.61,4.11c.22-.61.68-1.08,1.24-1.3.57-.23,1.25-.24,1.89.03.63.3,1.09.8,1.3,1.37.22.56.18,1.23-.12,1.8-.3.58-.79.96-1.35,1.17-.56.21-1.17.21-1.72-.05-.56-.23-.97-.68-1.2-1.23-.22-.56-.27-1.18-.05-1.79Z"/>
      </g>
      <g>
        <polygon class="cls-1" points="168.36 .04 167.71 .01 167.38 0 167.09 0 165.91 0 163.55 0 163.55 4.69 165.91 4.69 167.09 4.69 167.38 4.69 167.65 4.7 168.17 4.72 168.36 .04"/>
        <path class="cls-2" d="M163.55,2.34c0-1.29,1.06-2.34,2.36-2.34.66,0,1.23.25,1.68.69.46.44.7,1.04.68,1.69-.03.65-.31,1.22-.7,1.63-.4.41-1.01.68-1.66.68-1.3,0-2.36-1.05-2.36-2.34Z"/>
      </g>
      <g>
        <rect class="cls-1" x="150.27" width="4.72" height="4.69"/>
        <path class="cls-2" d="M150.27,2.34c0-1.29,1.06-2.34,2.36-2.34s2.36,1.05,2.36,2.34-1.06,2.34-2.36,2.34-2.36-1.05-2.36-2.34Z"/>
      </g>
      <g>
        <rect class="cls-1" x="136.99" width="4.72" height="4.69"/>
        <ellipse class="cls-3" cx="139.35" cy="2.34" rx="2.36" ry="2.34"/>
      </g>
      <g>
        <rect class="cls-1" x="123.72" width="4.72" height="4.69"/>
        <path class="cls-2" d="M123.72,2.34c0-1.29,1.06-2.34,2.36-2.34s2.36,1.05,2.36,2.34-1.06,2.34-2.36,2.34-2.36-1.05-2.36-2.34Z"/>
      </g>
      <g>
        <rect class="cls-1" x="110.44" width="4.72" height="4.69"/>
        <path class="cls-2" d="M110.44,2.34c0-1.29,1.06-2.34,2.36-2.34s2.36,1.05,2.36,2.34-1.06,2.34-2.36,2.34-2.36-1.05-2.36-2.34Z"/>
      </g>
      <g>
        <rect class="cls-1" x="97.16" width="4.72" height="4.69"/>
        <ellipse class="cls-3" cx="99.52" cy="2.34" rx="2.36" ry="2.34"/>
      </g>
      <g>
        <rect class="cls-1" x="83.89" width="4.72" height="4.69"/>
        <ellipse class="cls-3" cx="86.25" cy="2.34" rx="2.36" ry="2.34"/>
      </g>
      <g>
        <path class="cls-1" d="M75.12.12l-1.28.16c-.21.03-.43.05-.64.09l-.63.12-1.26.25c-.41.1-.82.22-1.23.32l1.23,4.52c.35-.09.7-.19,1.05-.28l1.06-.21.53-.11c.18-.04.35-.05.53-.07l1.06-.13-.44-4.67Z"/>
        <path class="cls-2" d="M70.7,3.32c-.17-.62-.07-1.26.27-1.79.33-.54.91-.9,1.6-1.05.69-.16,1.38.04,1.88.4.5.37.83.92.89,1.56.06.64-.14,1.26-.49,1.73-.35.47-.83.78-1.42.91-.58.12-1.17-.05-1.66-.34-.49-.31-.9-.8-1.07-1.43Z"/>
      </g>
      <g>
        <path class="cls-1" d="M61.67,4.54c-.18.1-.37.2-.55.3l-.53.33-1.07.66c-.7.46-1.38.94-2.07,1.42l2.79,3.77c.6-.42,1.2-.85,1.82-1.25l.94-.58.47-.29c.16-.1.32-.18.49-.27l-2.29-4.09Z"/>
        <path class="cls-2" d="M58.85,9.13c-.39-.52-.52-1.15-.39-1.75.12-.6.48-1.19,1.07-1.56.59-.36,1.26-.47,1.86-.34.6.14,1.13.53,1.44,1.09.32.57.37,1.19.23,1.77-.13.58-.47,1.09-.99,1.41-.51.33-1.1.44-1.69.32-.58-.11-1.14-.44-1.53-.95Z"/>
      </g>
      <g>
        <path class="cls-1" d="M50.86,13.62l-.78,1.03c-.24.36-.47.73-.71,1.1l-.35.55c-.12.19-.2.35-.31.52l-.59,1.02,4.06,2.34.59-1.02c.1-.16.2-.36.29-.5l.28-.44c.19-.3.37-.59.57-.89l.65-.85-3.71-2.87Z"/>
        <path class="cls-2" d="M50.16,19.02c-.56-.32-.94-.85-1.09-1.43-.08-.29-.1-.6-.06-.9.01-.08.02-.15.04-.23.02-.08.05-.16.08-.24.06-.16.14-.32.24-.47.19-.3.43-.56.7-.75.26-.2.58-.31.88-.37.62-.12,1.24.03,1.76.42.51.4.82.96.92,1.53.06.29.04.56,0,.85-.04.28-.13.55-.29.8-.08.12-.17.23-.27.33-.05.05-.1.1-.16.14-.06.05-.12.1-.18.15-.24.19-.52.32-.81.4-.58.16-1.22.09-1.78-.23Z"/>
      </g>
      <g>
        <rect class="cls-1" x="42.34" y="26.13" width="4.72" height="4.69" transform="translate(-2.31 52.95) rotate(-60)"/>
        <path class="cls-2" d="M43.52,30.52c-1.12-.65-1.5-2.09-.85-3.22.65-1.13,2.09-1.52,3.21-.87,1.12.65,1.5,2.09.85,3.22-.65,1.13-2.09,1.52-3.21.87Z"/>
      </g>
      <g>
        <rect class="cls-1" x="35.7" y="37.63" width="4.72" height="4.69" transform="translate(-15.59 52.95) rotate(-60)"/>
        <path class="cls-2" d="M36.88,42.01c-1.12-.65-1.5-2.09-.85-3.22.65-1.13,2.09-1.52,3.21-.87,1.12.65,1.5,2.09.85,3.22-.65,1.13-2.09,1.52-3.21.87Z"/>
      </g>
      <g>
        <rect class="cls-1" x="29.06" y="49.12" width="4.72" height="4.69" transform="translate(-28.86 52.94) rotate(-60)"/>
        <path class="cls-2" d="M30.24,53.51c-1.12-.65-1.5-2.09-.85-3.22s2.09-1.52,3.21-.87c1.12.65,1.5,2.09.85,3.22-.65,1.13-2.09,1.52-3.21.87Z"/>
      </g>
      <g>
        <rect class="cls-1" x="22.42" y="60.62" width="4.72" height="4.69" transform="translate(-42.14 52.95) rotate(-60)"/>
        <path class="cls-2" d="M23.6,65.01c-1.12-.65-1.5-2.09-.85-3.22.65-1.13,2.09-1.52,3.21-.87,1.12.65,1.5,2.09.85,3.22-.65,1.13-2.09,1.52-3.21.87Z"/>
      </g>
      <g>
        <rect class="cls-1" x="15.78" y="72.12" width="4.72" height="4.69" transform="translate(-55.42 52.95) rotate(-60)"/>
        <path class="cls-2" d="M16.96,76.51c-1.12-.65-1.5-2.09-.85-3.22.65-1.13,2.09-1.52,3.21-.87,1.12.65,1.5,2.09.85,3.22-.65,1.13-2.09,1.52-3.21.87Z"/>
      </g>
      <g>
        <rect class="cls-1" x="9.15" y="83.62" width="4.72" height="4.69" transform="translate(-68.69 52.95) rotate(-60)"/>
        <path class="cls-2" d="M10.33,88.01c-1.12-.65-1.5-2.09-.85-3.22.65-1.13,2.09-1.52,3.21-.87,1.12.65,1.5,2.09.85,3.22-.65,1.13-2.09,1.52-3.21.87Z"/>
      </g>
      <g>
        <path class="cls-1" d="M4.02,94.24c-.2.35-.4.76-.6,1.14-.2.39-.42.77-.57,1.17-.33.79-.69,1.58-.94,2.39l4.43,1.53c.21-.69.51-1.34.78-2,.13-.34.31-.64.47-.95.17-.32.31-.61.5-.95l-4.06-2.34Z"/>
        <path class="cls-2" d="M4.12,99.71c-.61-.21-1.08-.66-1.33-1.24-.24-.57-.22-1.27.06-1.93.13-.33.35-.61.6-.83.25-.22.53-.39.82-.49.59-.21,1.22-.14,1.78.18.56.32.93.85,1.13,1.4.1.28.14.56.13.84-.01.28-.09.55-.19.83-.22.55-.69.93-1.22,1.16-.53.23-1.16.28-1.78.07Z"/>
      </g>
      <g>
        <path class="cls-1" d="M.11,107.91l-.05.63c-.01.21-.01.42-.02.63l-.03,1.25c-.02.42,0,.84.01,1.25l.04,1.25,4.68-.25-.03-1.11c0-.37-.03-.74-.01-1.11l.03-1.11c0-.18,0-.37.02-.55l.05-.55-4.68-.34Z"/>
        <path class="cls-2" d="M2.4,112.8c-.65.04-1.24-.2-1.68-.63-.22-.22-.4-.48-.52-.78-.13-.3-.21-.63-.19-.97.02-.69.3-1.31.73-1.74.46-.42,1.07-.65,1.71-.6.65.05,1.21.35,1.6.78.41.43.66.99.64,1.6-.02.31-.07.6-.18.86-.11.27-.28.51-.48.72-.41.42-.99.71-1.64.75Z"/>
      </g>
      <g>
        <path class="cls-1" d="M1.65,121.91c.28.81.53,1.62.89,2.41.17.4.33.79.51,1.19l.6,1.16,4.12-2.24-.49-.93c-.15-.32-.28-.65-.42-.98-.3-.64-.51-1.34-.74-2.02l-4.47,1.42Z"/>
        <path class="cls-2" d="M5.71,125.54c-.57.31-1.21.35-1.8.13-.29-.11-.59-.28-.81-.51-.23-.23-.42-.52-.56-.85-.14-.33-.22-.67-.21-.99.01-.33.09-.65.21-.93.25-.57.73-1,1.34-1.19.62-.19,1.26-.13,1.79.11.27.12.5.29.7.49.2.2.38.43.49.71.12.27.16.56.16.84-.01.29-.04.56-.15.83-.2.54-.59,1.05-1.16,1.36Z"/>
      </g>
      <g>
        <rect class="cls-1" x="8.8" y="132.65" width="4.69" height="4.72" transform="translate(-66.01 23.66) rotate(-30)"/>
        <path class="cls-2" d="M12.33,137.05c-1.12.65-2.56.26-3.21-.87-.65-1.13-.27-2.57.85-3.22,1.12-.65,2.56-.26,3.21.87.65,1.13.27,2.57-.85,3.22Z"/>
      </g>
      <g>
        <rect class="cls-1" x="15.44" y="144.14" width="4.69" height="4.72" transform="translate(-70.87 28.52) rotate(-30)"/>
        <path class="cls-2" d="M18.97,148.55c-1.12.65-2.56.26-3.21-.87-.65-1.13-.27-2.57.85-3.22,1.12-.65,2.56-.26,3.21.87.65,1.13.27,2.57-.85,3.22Z"/>
      </g>
      <g>
        <rect class="cls-1" x="22.08" y="155.64" width="4.69" height="4.72" transform="translate(-75.73 33.38) rotate(-30)"/>
        <path class="cls-2" d="M25.6,160.05c-1.12.65-2.56.26-3.21-.87-.65-1.13-.27-2.57.85-3.22,1.12-.65,2.56-.26,3.21.87.65,1.13.27,2.57-.85,3.22Z"/>
      </g>
      <g>
        <rect class="cls-1" x="28.72" y="167.14" width="4.69" height="4.72" transform="translate(-80.59 38.24) rotate(-30)"/>
        <path class="cls-2" d="M32.24,171.55c-1.12.65-2.56.26-3.21-.87-.65-1.13-.27-2.57.85-3.22,1.12-.65,2.56-.26,3.21.87.65,1.13.27,2.57-.85,3.22Z"/>
      </g>
      <g>
        <rect class="cls-1" x="35.36" y="178.64" width="4.69" height="4.72" transform="translate(-85.45 43.1) rotate(-30)"/>
        <path class="cls-2" d="M38.88,183.04c-1.12.65-2.56.26-3.21-.87-.65-1.13-.27-2.57.85-3.22,1.12-.65,2.56-.26,3.21.87.65,1.13.27,2.57-.85,3.22Z"/>
      </g>
      <g>
        <rect class="cls-1" x="41.99" y="190.14" width="4.69" height="4.72" transform="translate(-90.31 47.96) rotate(-30)"/>
        <path class="cls-2" d="M45.52,194.54c-1.12.65-2.56.26-3.21-.87s-.27-2.57.85-3.22c1.12-.65,2.56-.26,3.21.87.65,1.13.27,2.57-.85,3.22Z"/>
      </g>
      <g>
        <path class="cls-1" d="M47.77,203.12l1.18,2.04.7,1.1.35.55c.12.18.26.35.38.52l3.79-2.76c-.11-.14-.22-.28-.32-.43l-.28-.45-.57-.89-1.18-2.04-4.06,2.34Z"/>
        <path class="cls-2" d="M52.28,205.96c-.52.38-1.17.52-1.77.38-.6-.15-1.17-.56-1.56-1.17-.65-1.13-.27-2.57.85-3.22,1.12-.65,2.56-.26,3.21.87.31.49.37,1.07.23,1.64-.13.57-.43,1.11-.96,1.5Z"/>
      </g>
      <g>
        <path class="cls-1" d="M56.85,213.87c1.32,1.04,2.72,1.95,4.16,2.81l2.37-4.05c-1.26-.76-2.51-1.56-3.66-2.47l-2.86,3.71Z"/>
        <path class="cls-2" d="M62.19,214.66c-.33.56-.85.92-1.45,1.05-.3.06-.62.07-.94.01-.16-.03-.32-.07-.47-.13-.15-.07-.3-.15-.44-.25-.57-.4-.94-.96-1.05-1.57-.1-.62.05-1.25.44-1.76s.96-.82,1.53-.91c.58-.1,1.19,0,1.69.34.13.09.24.19.34.29.1.1.2.21.28.33.16.24.28.51.34.8.13.58.05,1.22-.27,1.78Z"/>
      </g>
      <g>
        <path class="cls-1" d="M69.34,220.33c1.63.45,3.28.87,5,1.05l.57-4.65c-.35-.05-.71-.07-1.06-.15l-1.06-.21c-.18-.04-.35-.07-.53-.11l-.53-.14-1.05-.28-1.34,4.49Z"/>
        <path class="cls-2" d="M74.62,219.05c-.08.64-.42,1.19-.93,1.55-.26.19-.55.3-.87.36-.32.06-.66.06-1.01-.01-.17-.03-.34-.08-.5-.15-.16-.07-.3-.16-.43-.25-.26-.19-.48-.43-.64-.69-.32-.53-.42-1.16-.23-1.78.19-.62.6-1.11,1.11-1.42.25-.15.52-.26.81-.3.14-.02.28-.03.43-.03.15,0,.29,0,.44.04.29.06.56.18.79.35.23.17.44.39.6.61.33.47.52,1.08.44,1.72Z"/>
      </g>
      <g>
        <rect class="cls-1" x="83.17" y="216.9" width="4.72" height="4.69"/>
        <path class="cls-2" d="M87.89,219.25c0,1.29-1.06,2.34-2.36,2.34s-2.36-1.05-2.36-2.34,1.06-2.34,2.36-2.34,2.36,1.05,2.36,2.34Z"/>
      </g>
      <g>
        <rect class="cls-1" x="96.44" y="216.9" width="4.72" height="4.69"/>
        <ellipse class="cls-3" cx="98.8" cy="219.25" rx="2.36" ry="2.34"/>
      </g>
      <g>
        <rect class="cls-1" x="109.72" y="216.9" width="4.72" height="4.69"/>
        <path class="cls-2" d="M114.44,219.25c0,1.29-1.06,2.34-2.36,2.34s-2.36-1.05-2.36-2.34,1.06-2.34,2.36-2.34,2.36,1.05,2.36,2.34Z"/>
      </g>
      <g>
        <rect class="cls-1" x="123" y="216.9" width="4.72" height="4.69"/>
        <path class="cls-2" d="M127.72,219.25c0,1.29-1.06,2.34-2.36,2.34s-2.36-1.05-2.36-2.34,1.06-2.34,2.36-2.34,2.36,1.05,2.36,2.34Z"/>
      </g>
      <g>
        <rect class="cls-1" x="136.27" y="216.9" width="4.72" height="4.69"/>
        <ellipse class="cls-3" cx="138.63" cy="219.25" rx="2.36" ry="2.34"/>
      </g>
      <g>
        <rect class="cls-1" x="149.55" y="216.9" width="4.72" height="4.69"/>
        <ellipse class="cls-3" cx="151.91" cy="219.25" rx="2.36" ry="2.34"/>
      </g>
      <g>
        <polygon class="cls-1" points="162.83 221.59 167.56 221.59 167.53 216.9 162.83 216.9 162.83 221.59"/>
        <path class="cls-2" d="M167.55,219.24c0,1.31-1.06,2.35-2.36,2.35-1.3,0-2.36-1.05-2.36-2.34s1.06-2.34,2.36-2.34c1.3,0,2.36,1.06,2.36,2.34Z"/>
      </g>
      <g>
        <path class="cls-1" d="M176.68,219.93c.4-.14.8-.26,1.19-.42l1.17-.47.58-.24c.19-.08.38-.18.57-.26l1.14-.54-2.08-4.2-1,.47c-.17.08-.33.16-.5.23l-.51.21-1.02.41c-.34.14-.69.24-1.04.36l1.5,4.44Z"/>
        <path class="cls-2" d="M180.28,215.9c.29.58.31,1.22.08,1.79-.22.57-.68,1.1-1.33,1.34-.65.25-1.32.27-1.89,0-.57-.26-1.01-.72-1.22-1.34-.21-.61-.15-1.25.09-1.78.24-.52.65-1,1.22-1.22.57-.21,1.17-.23,1.72-.01.55.21,1.04.62,1.33,1.2Z"/>
      </g>
      <g>
        <path class="cls-1" d="M188.95,213.09l.95-.83.47-.42.24-.21.23-.22.9-.9c.15-.15.3-.3.45-.45l.42-.48-3.5-3.12-.36.41c-.12.13-.26.26-.38.39l-.77.77-.19.19-.21.18-.41.36-.82.72,2.99,3.61Z"/>
        <path class="cls-2" d="M190.86,208.01c.48.43.74,1.02.75,1.65,0,.61-.27,1.24-.77,1.74-.24.25-.55.42-.85.53-.31.11-.62.16-.93.15-.62-.03-1.19-.3-1.6-.8-.41-.5-.59-1.12-.56-1.71.01-.3.08-.58.2-.84.12-.27.3-.49.5-.71.42-.43,1-.62,1.59-.62.57-.01,1.18.18,1.66.62Z"/>
      </g>
      <g>
        <rect class="cls-1" x="194.42" y="196.52" width="4.72" height="4.69" transform="translate(-73.83 269.85) rotate(-60)"/>
        <path class="cls-2" d="M197.96,196.82c1.12.65,1.5,2.09.85,3.22s-2.09,1.52-3.21.87c-1.12-.65-1.5-2.09-.85-3.22s2.09-1.52,3.21-.87Z"/>
      </g>
      <g>
        <rect class="cls-1" x="201.06" y="185.03" width="4.72" height="4.69" transform="translate(-60.56 269.85) rotate(-60)"/>
        <path class="cls-2" d="M204.6,185.33c1.12.65,1.5,2.09.85,3.22-.65,1.13-2.09,1.52-3.21.87-1.12-.65-1.5-2.09-.85-3.22.65-1.13,2.09-1.52,3.21-.87Z"/>
      </g>
      <g>
        <rect class="cls-1" x="207.69" y="173.53" width="4.72" height="4.69" transform="translate(-47.28 269.84) rotate(-60)"/>
        <path class="cls-2" d="M211.24,173.83c1.12.65,1.5,2.09.85,3.22-.65,1.13-2.09,1.52-3.21.87-1.12-.65-1.5-2.09-.85-3.22.65-1.13,2.09-1.52,3.21-.87Z"/>
      </g>
      <g>
        <rect class="cls-1" x="214.33" y="162.03" width="4.72" height="4.69" transform="translate(-34 269.86) rotate(-60)"/>
        <path class="cls-2" d="M217.87,162.33c1.12.65,1.5,2.09.85,3.22-.65,1.13-2.09,1.52-3.21.87s-1.5-2.09-.85-3.22c.65-1.13,2.09-1.52,3.21-.87Z"/>
      </g>
      <g>
        <rect class="cls-1" x="220.97" y="150.53" width="4.72" height="4.69" transform="translate(-20.73 269.85) rotate(-60)"/>
        <path class="cls-2" d="M224.51,150.83c1.12.65,1.5,2.09.85,3.22-.65,1.13-2.09,1.52-3.21.87-1.12-.65-1.5-2.09-.85-3.22.65-1.13,2.09-1.52,3.21-.87Z"/>
      </g>
      <g>
        <rect class="cls-1" x="227.61" y="139.03" width="4.72" height="4.69" transform="translate(-7.46 269.84) rotate(-60)"/>
        <path class="cls-2" d="M231.15,139.33c1.12.65,1.5,2.09.85,3.22s-2.09,1.52-3.21.87c-1.12-.65-1.5-2.09-.85-3.22.65-1.13,2.09-1.52,3.21-.87Z"/>
      </g>
      <g>
        <rect class="cls-1" x="234.25" y="127.54" width="4.72" height="4.69" transform="translate(5.83 269.85) rotate(-60)"/>
        <path class="cls-2" d="M237.79,127.84c1.12.65,1.5,2.09.85,3.22s-2.09,1.52-3.21.87c-1.12-.65-1.5-2.09-.85-3.22.65-1.13,2.09-1.52,3.21-.87Z"/>
      </g>
      <g>
        <path class="cls-1" d="M243.51,120.67l.33-1.23.25-1.24c.19-.82.28-1.66.4-2.49l-4.65-.58c-.11.73-.19,1.46-.35,2.17l-.22,1.08-.28,1.05,4.52,1.24Z"/>
        <path class="cls-2" d="M242.16,115.42c.64.08,1.19.42,1.54.92.18.25.31.54.39.86.07.32.06.65,0,1-.14.68-.51,1.25-1.05,1.58-.53.33-1.16.44-1.79.27-.62-.17-1.12-.58-1.43-1.07-.29-.49-.46-1.09-.33-1.68.06-.3.19-.57.35-.81.15-.24.36-.45.59-.63.48-.34,1.09-.53,1.74-.45Z"/>
      </g>
      <g>
        <path class="cls-1" d="M244.58,106.64c-.03-.42-.11-.83-.16-1.25-.06-.42-.11-.83-.18-1.25l-.25-1.24c-.08-.41-.16-.83-.28-1.23l-4.55,1.13c.1.35.17.71.24,1.07l.22,1.08c.06.36.1.73.16,1.09.05.36.11.73.14,1.09l4.66-.49Z"/>
        <path class="cls-2" d="M241.43,102.24c.62-.16,1.28-.04,1.78.31.5.35.89.92,1.02,1.6.11.69-.07,1.35-.43,1.85-.35.5-.92.82-1.56.89-.64.07-1.24-.13-1.73-.48-.48-.35-.81-.86-.9-1.46-.12-.59.03-1.18.36-1.67.34-.49.82-.88,1.45-1.04Z"/>
      </g>
      <g>
        <rect class="cls-1" x="234.62" y="89.97" width="4.69" height="4.72" transform="translate(-14.42 130.85) rotate(-30)"/>
        <path class="cls-2" d="M235.79,90.29c1.12-.65,2.56-.26,3.21.87.65,1.13.27,2.57-.85,3.22-1.12.65-2.56.26-3.21-.87-.65-1.13-.27-2.57.85-3.22Z"/>
      </g>
      <g>
        <rect class="cls-1" x="227.98" y="78.47" width="4.69" height="4.72" transform="translate(-9.56 125.99) rotate(-30)"/>
        <path class="cls-2" d="M229.15,78.79c1.12-.65,2.56-.26,3.21.87.65,1.13.27,2.57-.85,3.22-1.12.65-2.56.26-3.21-.87-.65-1.13-.27-2.57.85-3.22Z"/>
      </g>
      <g>
        <rect class="cls-1" x="221.35" y="66.98" width="4.69" height="4.72" transform="translate(-4.7 121.14) rotate(-30)"/>
        <path class="cls-2" d="M222.51,67.29c1.12-.65,2.56-.26,3.21.87.65,1.13.27,2.57-.85,3.22-1.12.65-2.56.26-3.21-.87-.65-1.13-.27-2.57.85-3.22Z"/>
      </g>
      <g>
        <rect class="cls-1" x="214.71" y="55.48" width="4.69" height="4.72" transform="translate(.16 116.27) rotate(-30)"/>
        <path class="cls-2" d="M215.87,55.8c1.12-.65,2.56-.26,3.21.87.65,1.13.27,2.57-.85,3.22-1.12.65-2.56.26-3.21-.87-.65-1.13-.27-2.57.85-3.22Z"/>
      </g>
      <g>
        <rect class="cls-1" x="208.07" y="43.98" width="4.69" height="4.72" transform="translate(5.02 111.41) rotate(-30)"/>
        <path class="cls-2" d="M209.23,44.3c1.12-.65,2.56-.26,3.21.87.65,1.13.27,2.57-.85,3.22-1.12.65-2.56.26-3.21-.87-.65-1.13-.27-2.57.85-3.22Z"/>
      </g>
      <g>
        <rect class="cls-1" x="201.43" y="32.48" width="4.69" height="4.72" transform="translate(9.88 106.56) rotate(-30)"/>
        <path class="cls-2" d="M202.6,32.8c1.12-.65,2.56-.26,3.21.87.65,1.13.27,2.57-.85,3.22-1.12.65-2.56.26-3.21-.87-.65-1.13-.27-2.57.85-3.22Z"/>
      </g>
      <g>
        <rect class="cls-1" x="194.79" y="20.99" width="4.69" height="4.72" transform="translate(14.74 101.7) rotate(-30)"/>
        <path class="cls-2" d="M195.96,21.3c1.12-.65,2.56-.26,3.21.87.65,1.13.27,2.57-.85,3.22-1.12.65-2.56.26-3.21-.87-.65-1.13-.27-2.57.85-3.22Z"/>
      </g>
    </g>
  </g>
</svg>