<?xml version="1.0" encoding="UTF-8"?>
<svg id="Layer_2" data-name="Layer 2" xmlns="http://www.w3.org/2000/svg" viewBox="0 0 165.7 151.69">
  <defs>
    <style>
      .cls-1 {
        fill: none;
      }

      .cls-1, .cls-2, .cls-3 {
        stroke-width: 0px;
      }

      .cls-2 {
        fill-rule: evenodd;
      }

      .cls-2, .cls-3 {
        fill: #191919;
      }
    </style>
  </defs>
  <g id="_ÎÓÈ_1" data-name="—ÎÓÈ_1">
    <g>
      <g>
        <rect class="cls-1" x="154.83" y="148.91" width="2.61" height="2.78"/>
        <path class="cls-2" d="M154.83,150.3c0-.77.58-1.39,1.3-1.39s1.3.62,1.3,1.39-.58,1.39-1.3,1.39-1.3-.62-1.3-1.39Z"/>
      </g>
      <g>
        <rect class="cls-1" x="147.5" y="148.91" width="2.61" height="2.78"/>
        <ellipse class="cls-3" cx="148.8" cy="150.3" rx="1.3" ry="1.39"/>
      </g>
      <g>
        <rect class="cls-1" x="140.17" y="148.91" width="2.61" height="2.78"/>
        <path class="cls-2" d="M140.17,150.3c0-.77.58-1.39,1.3-1.39s1.3.62,1.3,1.39-.58,1.39-1.3,1.39-1.3-.62-1.3-1.39Z"/>
      </g>
      <g>
        <rect class="cls-1" x="132.84" y="148.91" width="2.61" height="2.78"/>
        <ellipse class="cls-3" cx="134.15" cy="150.3" rx="1.3" ry="1.39"/>
      </g>
      <g>
        <rect class="cls-1" x="125.51" y="148.91" width="2.61" height="2.78"/>
        <path class="cls-2" d="M125.51,150.3c0-.77.58-1.39,1.3-1.39s1.3.62,1.3,1.39-.58,1.39-1.3,1.39-1.3-.62-1.3-1.39Z"/>
      </g>
      <g>
        <rect class="cls-1" x="118.19" y="148.91" width="2.61" height="2.78"/>
        <ellipse class="cls-3" cx="119.49" cy="150.3" rx="1.3" ry="1.39"/>
      </g>
      <g>
        <rect class="cls-1" x="110.86" y="148.91" width="2.61" height="2.78"/>
        <ellipse class="cls-3" cx="112.16" cy="150.3" rx="1.3" ry="1.39"/>
      </g>
      <g>
        <rect class="cls-1" x="103.53" y="148.91" width="2.61" height="2.78"/>
        <path class="cls-2" d="M103.53,150.3c0-.77.58-1.39,1.3-1.39s1.3.62,1.3,1.39-.58,1.39-1.3,1.39-1.3-.62-1.3-1.39Z"/>
      </g>
      <g>
        <rect class="cls-1" x="96.2" y="148.91" width="2.61" height="2.78"/>
        <ellipse class="cls-3" cx="97.51" cy="150.3" rx="1.3" ry="1.39"/>
      </g>
      <g>
        <rect class="cls-1" x="88.88" y="148.91" width="2.61" height="2.78"/>
        <path class="cls-2" d="M88.88,150.3c0-.77.58-1.39,1.3-1.39s1.3.62,1.3,1.39-.58,1.39-1.3,1.39-1.3-.62-1.3-1.39Z"/>
      </g>
      <g>
        <rect class="cls-1" x="81.55" y="148.91" width="2.61" height="2.78"/>
        <ellipse class="cls-3" cx="82.85" cy="150.3" rx="1.3" ry="1.39"/>
      </g>
      <g>
        <rect class="cls-1" x="74.22" y="148.91" width="2.61" height="2.78"/>
        <path class="cls-2" d="M74.22,150.3c0-.77.58-1.39,1.3-1.39s1.3.62,1.3,1.39-.58,1.39-1.3,1.39-1.3-.62-1.3-1.39Z"/>
      </g>
      <g>
        <rect class="cls-1" x="66.89" y="148.91" width="2.61" height="2.78"/>
        <ellipse class="cls-3" cx="68.19" cy="150.3" rx="1.3" ry="1.39"/>
      </g>
      <g>
        <rect class="cls-1" x="59.56" y="148.91" width="2.61" height="2.78"/>
        <path class="cls-2" d="M59.56,150.3c0-.77.58-1.39,1.3-1.39s1.3.62,1.3,1.39-.58,1.39-1.3,1.39-1.3-.62-1.3-1.39Z"/>
      </g>
      <g>
        <rect class="cls-1" x="52.24" y="148.91" width="2.61" height="2.78"/>
        <ellipse class="cls-3" cx="53.54" cy="150.3" rx="1.3" ry="1.39"/>
      </g>
      <g>
        <rect class="cls-1" x="44.91" y="148.91" width="2.61" height="2.78"/>
        <path class="cls-2" d="M44.91,150.3c0-.77.58-1.39,1.3-1.39s1.3.62,1.3,1.39-.58,1.39-1.3,1.39-1.3-.62-1.3-1.39Z"/>
      </g>
      <g>
        <rect class="cls-1" x="37.58" y="148.91" width="2.61" height="2.78"/>
        <ellipse class="cls-3" cx="38.88" cy="150.3" rx="1.3" ry="1.39"/>
      </g>
      <g>
        <rect class="cls-1" x="30.25" y="148.91" width="2.61" height="2.78"/>
        <ellipse class="cls-3" cx="31.55" cy="150.3" rx="1.3" ry="1.39"/>
      </g>
      <g>
        <rect class="cls-1" x="22.92" y="148.91" width="2.61" height="2.78"/>
        <path class="cls-2" d="M22.92,150.3c0-.77.58-1.39,1.3-1.39s1.3.62,1.3,1.39-.58,1.39-1.3,1.39-1.3-.62-1.3-1.39Z"/>
      </g>
      <g>
        <rect class="cls-1" x="15.6" y="148.91" width="2.61" height="2.78"/>
        <ellipse class="cls-3" cx="16.9" cy="150.3" rx="1.3" ry="1.39"/>
      </g>
      <g>
        <rect class="cls-1" x="8.27" y="148.91" width="2.61" height="2.78"/>
        <ellipse class="cls-3" cx="9.57" cy="150.3" rx="1.3" ry="1.39"/>
      </g>
      <g>
        <polygon class="cls-1" points="6.48 145.44 7.85 142.95 5.56 141.56 4.19 144.06 6.48 145.44"/>
        <path class="cls-2" d="M6.7,142.26c.63.38.84,1.25.46,1.94-.38.69-1.2.94-1.83.55-.63-.38-.84-1.25-.46-1.94s1.2-.94,1.83-.55Z"/>
      </g>
      <g>
        <polygon class="cls-1" points="10.33 138.44 11.69 135.95 9.41 134.56 8.04 137.05 10.33 138.44"/>
        <path class="cls-2" d="M10.55,135.25c.63.38.84,1.25.46,1.94s-1.2.94-1.83.55c-.63-.38-.84-1.25-.46-1.94.38-.69,1.2-.94,1.83-.55Z"/>
      </g>
      <g>
        <polygon class="cls-1" points="14.17 131.43 15.54 128.94 13.26 127.55 11.89 130.04 14.17 131.43"/>
        <path class="cls-2" d="M14.4,128.24c.63.38.84,1.25.46,1.94-.38.69-1.2.94-1.83.55-.63-.38-.84-1.25-.46-1.94.38-.69,1.2-.94,1.83-.55Z"/>
      </g>
      <g>
        <polygon class="cls-1" points="18.02 124.42 19.39 121.93 17.1 120.54 15.73 123.04 18.02 124.42"/>
        <path class="cls-2" d="M18.25,121.24c.63.38.84,1.25.46,1.94s-1.2.94-1.83.55-.84-1.25-.46-1.94,1.2-.94,1.83-.55Z"/>
      </g>
      <g>
        <polygon class="cls-1" points="21.87 117.42 23.24 114.93 20.95 113.54 19.58 116.03 21.87 117.42"/>
        <path class="cls-2" d="M22.09,114.23c.63.38.84,1.25.46,1.94-.38.69-1.2.94-1.83.55s-.84-1.25-.46-1.94c.38-.69,1.2-.94,1.83-.55Z"/>
      </g>
      <g>
        <polygon class="cls-1" points="25.72 110.41 27.08 107.92 24.8 106.53 23.43 109.02 25.72 110.41"/>
        <path class="cls-2" d="M25.94,107.23c.63.38.84,1.25.46,1.94s-1.2.94-1.83.55c-.63-.38-.84-1.25-.46-1.94.38-.69,1.2-.94,1.83-.55Z"/>
      </g>
      <g>
        <polygon class="cls-1" points="29.56 103.41 30.93 100.91 28.64 99.53 27.28 102.02 29.56 103.41"/>
        <path class="cls-2" d="M29.79,100.22c.63.38.84,1.25.46,1.94s-1.2.94-1.83.55c-.63-.38-.84-1.25-.46-1.94s1.2-.94,1.83-.55Z"/>
      </g>
      <g>
        <polygon class="cls-1" points="33.41 96.4 34.78 93.91 32.49 92.52 31.12 95.01 33.41 96.4"/>
        <path class="cls-2" d="M33.64,93.21c.63.38.84,1.25.46,1.94-.38.69-1.2.94-1.83.55-.63-.38-.84-1.25-.46-1.94.38-.69,1.2-.94,1.83-.55Z"/>
      </g>
      <g>
        <polygon class="cls-1" points="37.26 89.39 38.63 86.9 36.34 85.51 34.97 88 37.26 89.39"/>
        <path class="cls-2" d="M37.48,86.21c.63.38.84,1.25.46,1.94-.38.69-1.2.94-1.83.55-.63-.38-.84-1.25-.46-1.94.38-.69,1.2-.94,1.83-.55Z"/>
      </g>
      <g>
        <polygon class="cls-1" points="41.11 82.38 42.47 79.89 40.19 78.51 38.82 81 41.11 82.38"/>
        <path class="cls-2" d="M41.33,79.2c.63.38.84,1.25.46,1.94-.38.69-1.2.94-1.83.55-.63-.38-.84-1.25-.46-1.94.38-.69,1.2-.94,1.83-.55Z"/>
      </g>
      <g>
        <polygon class="cls-1" points="42.47 71.8 41.11 69.31 38.82 70.69 40.19 73.18 42.47 71.8"/>
        <path class="cls-2" d="M39.96,70c.63-.38,1.45-.14,1.83.55s.17,1.56-.46,1.94c-.63.38-1.45.14-1.83-.55-.38-.69-.17-1.56.46-1.94Z"/>
      </g>
      <g>
        <polygon class="cls-1" points="38.63 64.79 37.26 62.3 34.97 63.69 36.34 66.18 38.63 64.79"/>
        <path class="cls-2" d="M36.11,62.99c.63-.38,1.45-.14,1.83.55.38.69.17,1.56-.46,1.94-.63.38-1.45.14-1.83-.55-.38-.69-.17-1.56.46-1.94Z"/>
      </g>
      <g>
        <polygon class="cls-1" points="34.78 57.78 33.41 55.29 31.12 56.68 32.49 59.17 34.78 57.78"/>
        <path class="cls-2" d="M32.27,55.99c.63-.38,1.45-.14,1.83.55s.17,1.56-.46,1.94c-.63.38-1.45.14-1.83-.55-.38-.69-.17-1.56.46-1.94Z"/>
      </g>
      <g>
        <polygon class="cls-1" points="30.93 50.78 29.56 48.29 27.28 49.67 28.64 52.17 30.93 50.78"/>
        <path class="cls-2" d="M28.42,48.98c.63-.38,1.45-.14,1.83.55.38.69.17,1.56-.46,1.94-.63.38-1.45.14-1.83-.55-.38-.69-.17-1.56.46-1.94Z"/>
      </g>
      <g>
        <polygon class="cls-1" points="27.08 43.77 25.72 41.28 23.43 42.67 24.8 45.16 27.08 43.77"/>
        <path class="cls-2" d="M24.57,41.97c.63-.38,1.45-.14,1.83.55.38.69.17,1.56-.46,1.94-.63.38-1.45.14-1.83-.55-.38-.69-.17-1.56.46-1.94Z"/>
      </g>
      <g>
        <polygon class="cls-1" points="23.24 36.76 21.87 34.27 19.58 35.66 20.95 38.15 23.24 36.76"/>
        <path class="cls-2" d="M20.73,34.97c.63-.38,1.45-.14,1.83.55s.17,1.56-.46,1.94c-.63.38-1.45.14-1.83-.55s-.17-1.56.46-1.94Z"/>
      </g>
      <g>
        <polygon class="cls-1" points="19.39 29.76 18.02 27.27 15.73 28.65 17.1 31.15 19.39 29.76"/>
        <path class="cls-2" d="M16.88,27.96c.63-.38,1.45-.14,1.83.55.38.69.17,1.56-.46,1.94-.63.38-1.45.14-1.83-.55-.38-.69-.17-1.56.46-1.94Z"/>
      </g>
      <g>
        <polygon class="cls-1" points="15.54 22.75 14.17 20.26 11.89 21.65 13.26 24.14 15.54 22.75"/>
        <path class="cls-2" d="M13.03,20.95c.63-.38,1.45-.14,1.83.55.38.69.17,1.56-.46,1.94-.63.38-1.45.14-1.83-.55-.38-.69-.17-1.56.46-1.94Z"/>
      </g>
      <g>
        <polygon class="cls-1" points="11.69 15.75 10.33 13.25 8.04 14.64 9.41 17.13 11.69 15.75"/>
        <path class="cls-2" d="M9.18,13.95c.63-.38,1.45-.14,1.83.55.38.69.17,1.56-.46,1.94-.63.38-1.45.14-1.83-.55s-.17-1.56.46-1.94Z"/>
      </g>
      <g>
        <polygon class="cls-1" points="7.85 8.74 6.48 6.25 4.19 7.64 5.56 10.13 7.85 8.74"/>
        <path class="cls-2" d="M5.34,6.94c.63-.38,1.45-.14,1.83.55s.17,1.56-.46,1.94-1.45.14-1.83-.55-.17-1.56.46-1.94Z"/>
      </g>
      <g>
        <rect class="cls-1" x="8.27" width="2.61" height="2.78"/>
        <path class="cls-2" d="M10.87,1.39c0,.77-.58,1.39-1.3,1.39s-1.3-.62-1.3-1.39.58-1.39,1.3-1.39,1.3.62,1.3,1.39Z"/>
      </g>
      <g>
        <rect class="cls-1" x="15.6" width="2.61" height="2.78"/>
        <path class="cls-2" d="M18.2,1.39c0,.77-.58,1.39-1.3,1.39s-1.3-.62-1.3-1.39.58-1.39,1.3-1.39,1.3.62,1.3,1.39Z"/>
      </g>
      <g>
        <rect class="cls-1" x="22.92" width="2.61" height="2.78"/>
        <path class="cls-2" d="M25.53,1.39c0,.77-.58,1.39-1.3,1.39s-1.3-.62-1.3-1.39.58-1.39,1.3-1.39,1.3.62,1.3,1.39Z"/>
      </g>
      <g>
        <rect class="cls-1" x="30.25" width="2.61" height="2.78"/>
        <path class="cls-2" d="M32.86,1.39c0,.77-.58,1.39-1.3,1.39s-1.3-.62-1.3-1.39.58-1.39,1.3-1.39,1.3.62,1.3,1.39Z"/>
      </g>
      <g>
        <rect class="cls-1" x="37.58" width="2.61" height="2.78"/>
        <path class="cls-2" d="M40.19,1.39c0,.77-.58,1.39-1.3,1.39s-1.3-.62-1.3-1.39.58-1.39,1.3-1.39,1.3.62,1.3,1.39Z"/>
      </g>
      <g>
        <rect class="cls-1" x="44.91" width="2.61" height="2.78"/>
        <path class="cls-2" d="M47.51,1.39c0,.77-.58,1.39-1.3,1.39s-1.3-.62-1.3-1.39.58-1.39,1.3-1.39,1.3.62,1.3,1.39Z"/>
      </g>
      <g>
        <rect class="cls-1" x="52.24" width="2.61" height="2.78"/>
        <path class="cls-2" d="M54.84,1.39c0,.77-.58,1.39-1.3,1.39s-1.3-.62-1.3-1.39.58-1.39,1.3-1.39,1.3.62,1.3,1.39Z"/>
      </g>
      <g>
        <rect class="cls-1" x="59.56" width="2.61" height="2.78"/>
        <path class="cls-2" d="M62.17,1.39c0,.77-.58,1.39-1.3,1.39s-1.3-.62-1.3-1.39.58-1.39,1.3-1.39,1.3.62,1.3,1.39Z"/>
      </g>
      <g>
        <rect class="cls-1" x="66.89" width="2.61" height="2.78"/>
        <path class="cls-2" d="M69.5,1.39c0,.77-.58,1.39-1.3,1.39s-1.3-.62-1.3-1.39.58-1.39,1.3-1.39,1.3.62,1.3,1.39Z"/>
      </g>
      <g>
        <rect class="cls-1" x="74.22" width="2.61" height="2.78"/>
        <path class="cls-2" d="M76.83,1.39c0,.77-.58,1.39-1.3,1.39s-1.3-.62-1.3-1.39.58-1.39,1.3-1.39,1.3.62,1.3,1.39Z"/>
      </g>
      <g>
        <rect class="cls-1" x="81.55" width="2.61" height="2.78"/>
        <path class="cls-2" d="M84.15,1.39c0,.77-.58,1.39-1.3,1.39s-1.3-.62-1.3-1.39.58-1.39,1.3-1.39,1.3.62,1.3,1.39Z"/>
      </g>
      <g>
        <rect class="cls-1" x="88.88" width="2.61" height="2.78"/>
        <path class="cls-2" d="M91.48,1.39c0,.77-.58,1.39-1.3,1.39s-1.3-.62-1.3-1.39.58-1.39,1.3-1.39,1.3.62,1.3,1.39Z"/>
      </g>
      <g>
        <rect class="cls-1" x="96.2" width="2.61" height="2.78"/>
        <path class="cls-2" d="M98.81,1.39c0,.77-.58,1.39-1.3,1.39s-1.3-.62-1.3-1.39.58-1.39,1.3-1.39,1.3.62,1.3,1.39Z"/>
      </g>
      <g>
        <rect class="cls-1" x="103.53" width="2.61" height="2.78"/>
        <path class="cls-2" d="M106.14,1.39c0,.77-.58,1.39-1.3,1.39s-1.3-.62-1.3-1.39.58-1.39,1.3-1.39,1.3.62,1.3,1.39Z"/>
      </g>
      <g>
        <rect class="cls-1" x="110.86" width="2.61" height="2.78"/>
        <path class="cls-2" d="M113.46,1.39c0,.77-.58,1.39-1.3,1.39s-1.3-.62-1.3-1.39.58-1.39,1.3-1.39,1.3.62,1.3,1.39Z"/>
      </g>
      <g>
        <rect class="cls-1" x="118.19" width="2.61" height="2.78"/>
        <path class="cls-2" d="M120.79,1.39c0,.77-.58,1.39-1.3,1.39s-1.3-.62-1.3-1.39.58-1.39,1.3-1.39,1.3.62,1.3,1.39Z"/>
      </g>
      <g>
        <rect class="cls-1" x="125.51" width="2.61" height="2.78"/>
        <path class="cls-2" d="M128.12,1.39c0,.77-.58,1.39-1.3,1.39s-1.3-.62-1.3-1.39.58-1.39,1.3-1.39,1.3.62,1.3,1.39Z"/>
      </g>
      <g>
        <rect class="cls-1" x="132.84" width="2.61" height="2.78"/>
        <path class="cls-2" d="M135.45,1.39c0,.77-.58,1.39-1.3,1.39s-1.3-.62-1.3-1.39.58-1.39,1.3-1.39,1.3.62,1.3,1.39Z"/>
      </g>
      <g>
        <rect class="cls-1" x="140.17" width="2.61" height="2.78"/>
        <path class="cls-2" d="M142.78,1.39c0,.77-.58,1.39-1.3,1.39s-1.3-.62-1.3-1.39.58-1.39,1.3-1.39,1.3.62,1.3,1.39Z"/>
      </g>
      <g>
        <rect class="cls-1" x="147.5" width="2.61" height="2.78"/>
        <path class="cls-2" d="M150.1,1.39c0,.77-.58,1.39-1.3,1.39s-1.3-.62-1.3-1.39.58-1.39,1.3-1.39,1.3.62,1.3,1.39Z"/>
      </g>
      <g>
        <rect class="cls-1" x="154.83" width="2.61" height="2.78"/>
        <path class="cls-2" d="M157.43,1.39c0,.77-.58,1.39-1.3,1.39s-1.3-.62-1.3-1.39.58-1.39,1.3-1.39,1.3.62,1.3,1.39Z"/>
      </g>
      <g>
        <polygon class="cls-1" points="159.22 6.25 157.85 8.74 160.14 10.13 161.51 7.64 159.22 6.25"/>
        <path class="cls-2" d="M159,9.43c-.63-.38-.84-1.25-.46-1.94s1.2-.94,1.83-.55c.63.38.84,1.25.46,1.94s-1.2.94-1.83.55Z"/>
      </g>
      <g>
        <polygon class="cls-1" points="155.37 13.25 154.01 15.75 156.29 17.13 157.66 14.64 155.37 13.25"/>
        <path class="cls-2" d="M155.15,16.44c-.63-.38-.84-1.25-.46-1.94.38-.69,1.2-.94,1.83-.55.63.38.84,1.25.46,1.94s-1.2.94-1.83.55Z"/>
      </g>
      <g>
        <polygon class="cls-1" points="151.53 20.26 150.16 22.75 152.44 24.14 153.81 21.65 151.53 20.26"/>
        <path class="cls-2" d="M151.3,23.45c-.63-.38-.84-1.25-.46-1.94.38-.69,1.2-.94,1.83-.55.63.38.84,1.25.46,1.94-.38.69-1.2.94-1.83.55Z"/>
      </g>
      <g>
        <polygon class="cls-1" points="147.68 27.27 146.31 29.76 148.6 31.15 149.97 28.65 147.68 27.27"/>
        <path class="cls-2" d="M147.45,30.45c-.63-.38-.84-1.25-.46-1.94s1.2-.94,1.83-.55c.63.38.84,1.25.46,1.94s-1.2.94-1.83.55Z"/>
      </g>
      <g>
        <polygon class="cls-1" points="143.83 34.27 142.46 36.76 144.75 38.15 146.12 35.66 143.83 34.27"/>
        <path class="cls-2" d="M143.61,37.46c-.63-.38-.84-1.25-.46-1.94.38-.69,1.2-.94,1.83-.55.63.38.84,1.25.46,1.94-.38.69-1.2.94-1.83.55Z"/>
      </g>
      <g>
        <polygon class="cls-1" points="139.98 41.28 138.62 43.77 140.9 45.16 142.27 42.67 139.98 41.28"/>
        <path class="cls-2" d="M139.76,44.47c-.63-.38-.84-1.25-.46-1.94.38-.69,1.2-.94,1.83-.55.63.38.84,1.25.46,1.94-.38.69-1.2.94-1.83.55Z"/>
      </g>
      <g>
        <polygon class="cls-1" points="136.14 48.29 134.77 50.78 137.06 52.17 138.42 49.67 136.14 48.29"/>
        <path class="cls-2" d="M135.91,51.47c-.63-.38-.84-1.25-.46-1.94s1.2-.94,1.83-.55.84,1.25.46,1.94-1.2.94-1.83.55Z"/>
      </g>
      <g>
        <polygon class="cls-1" points="132.29 55.29 130.92 57.78 133.21 59.17 134.58 56.68 132.29 55.29"/>
        <path class="cls-2" d="M132.06,58.48c-.63-.38-.84-1.25-.46-1.94.38-.69,1.2-.94,1.83-.55.63.38.84,1.25.46,1.94-.38.69-1.2.94-1.83.55Z"/>
      </g>
      <g>
        <polygon class="cls-1" points="128.44 62.3 127.07 64.79 129.36 66.18 130.73 63.69 128.44 62.3"/>
        <path class="cls-2" d="M128.22,65.48c-.63-.38-.84-1.25-.46-1.94.38-.69,1.2-.94,1.83-.55.63.38.84,1.25.46,1.94-.38.69-1.2.94-1.83.55Z"/>
      </g>
      <g>
        <polygon class="cls-1" points="124.59 69.31 123.23 71.8 125.51 73.18 126.88 70.69 124.59 69.31"/>
        <path class="cls-2" d="M124.37,72.49c-.63-.38-.84-1.25-.46-1.94.38-.69,1.2-.94,1.83-.55.63.38.84,1.25.46,1.94-.38.69-1.2.94-1.83.55Z"/>
      </g>
      <g>
        <polygon class="cls-1" points="123.23 79.89 124.59 82.38 126.88 81 125.51 78.51 123.23 79.89"/>
        <path class="cls-2" d="M125.74,81.69c-.63.38-1.45.14-1.83-.55-.38-.69-.17-1.56.46-1.94.63-.38,1.45-.14,1.83.55.38.69.17,1.56-.46,1.94Z"/>
      </g>
      <g>
        <polygon class="cls-1" points="127.07 86.9 128.44 89.39 130.73 88 129.36 85.51 127.07 86.9"/>
        <path class="cls-2" d="M129.59,88.7c-.63.38-1.45.14-1.83-.55-.38-.69-.17-1.56.46-1.94.63-.38,1.45-.14,1.83.55.38.69.17,1.56-.46,1.94Z"/>
      </g>
      <g>
        <polygon class="cls-1" points="130.92 93.91 132.29 96.4 134.58 95.01 133.21 92.52 130.92 93.91"/>
        <path class="cls-2" d="M133.43,95.7c-.63.38-1.45.14-1.83-.55s-.17-1.56.46-1.94c.63-.38,1.45-.14,1.83.55s.17,1.56-.46,1.94Z"/>
      </g>
      <g>
        <polygon class="cls-1" points="134.77 100.91 136.14 103.4 138.42 102.02 137.06 99.53 134.77 100.91"/>
        <path class="cls-2" d="M137.28,102.71c-.63.38-1.45.14-1.83-.55s-.17-1.56.46-1.94c.63-.38,1.45-.14,1.83.55.38.69.17,1.56-.46,1.94Z"/>
      </g>
      <g>
        <polygon class="cls-1" points="138.62 107.92 139.98 110.41 142.27 109.02 140.9 106.53 138.62 107.92"/>
        <path class="cls-2" d="M141.13,109.72c-.63.38-1.45.14-1.83-.55s-.17-1.56.46-1.94c.63-.38,1.45-.14,1.83.55.38.69.17,1.56-.46,1.94Z"/>
      </g>
      <g>
        <polygon class="cls-1" points="142.46 114.93 143.83 117.42 146.12 116.03 144.75 113.54 142.46 114.93"/>
        <path class="cls-2" d="M144.97,116.72c-.63.38-1.45.14-1.83-.55-.38-.69-.17-1.56.46-1.94.63-.38,1.45-.14,1.83.55s.17,1.56-.46,1.94Z"/>
      </g>
      <g>
        <polygon class="cls-1" points="146.31 121.93 147.68 124.42 149.97 123.04 148.6 120.54 146.31 121.93"/>
        <path class="cls-2" d="M148.82,123.73c-.63.38-1.45.14-1.83-.55-.38-.69-.17-1.56.46-1.94.63-.38,1.45-.14,1.83.55s.17,1.56-.46,1.94Z"/>
      </g>
      <g>
        <polygon class="cls-1" points="150.16 128.94 151.53 131.43 153.81 130.04 152.44 127.55 150.16 128.94"/>
        <path class="cls-2" d="M152.67,130.74c-.63.38-1.45.14-1.83-.55s-.17-1.56.46-1.94c.63-.38,1.45-.14,1.83.55.38.69.17,1.56-.46,1.94Z"/>
      </g>
      <g>
        <polygon class="cls-1" points="154.01 135.94 155.37 138.44 157.66 137.05 156.29 134.56 154.01 135.94"/>
        <path class="cls-2" d="M156.52,137.74c-.63.38-1.45.14-1.83-.55-.38-.69-.17-1.56.46-1.94.63-.38,1.45-.14,1.83.55.38.69.17,1.56-.46,1.94Z"/>
      </g>
      <g>
        <polygon class="cls-1" points="157.85 142.95 159.22 145.44 161.51 144.06 160.14 141.56 157.85 142.95"/>
        <path class="cls-2" d="M160.36,144.75c-.63.38-1.45.14-1.83-.55-.38-.69-.17-1.56.46-1.94.63-.38,1.45-.14,1.83.55s.17,1.56-.46,1.94Z"/>
      </g>
      <g>
        <polygon class="cls-1" points="4.57 151.69 4.57 148.91 2.29 147.53 0 151.69 4.57 151.69"/>
        <polygon class="cls-2" points="3.43 148.22 3.49 148.26 3.54 148.3 3.59 148.35 3.64 148.4 3.68 148.46 3.72 148.52 3.75 148.59 3.78 148.65 3.81 148.73 3.84 148.8 3.86 148.88 3.87 148.96 3.89 149.05 3.9 149.14 3.9 149.23 3.9 149.32 3.98 149.37 4.05 149.42 4.12 149.47 4.18 149.53 4.24 149.58 4.3 149.64 4.35 149.7 4.39 149.76 4.43 149.83 4.47 149.89 4.5 149.96 4.53 150.02 4.55 150.09 4.56 150.16 4.57 150.23 4.57 150.3 4.57 150.37 4.56 150.44 4.55 150.51 4.53 150.58 4.5 150.65 4.47 150.72 4.43 150.78 4.39 150.84 4.35 150.9 4.3 150.96 4.24 151.02 4.18 151.08 4.12 151.13 4.05 151.19 3.98 151.24 3.9 151.28 3.82 151.33 3.74 151.37 3.56 151.45 3.38 151.52 3.18 151.58 2.97 151.63 2.75 151.66 2.52 151.68 2.29 151.69 2.05 151.68 1.83 151.66 1.61 151.63 1.4 151.58 1.2 151.52 1.01 151.45 .83 151.37 .75 151.33 .67 151.28 .67 151.19 .68 151.09 .7 150.89 .74 150.69 .79 150.47 .85 150.26 .94 150.04 1.03 149.83 1.14 149.61 1.27 149.4 1.4 149.2 1.53 149.02 1.68 148.85 1.83 148.7 1.98 148.56 2.13 148.44 2.21 148.39 2.29 148.34 2.36 148.3 2.44 148.26 2.52 148.22 2.6 148.19 2.67 148.16 2.75 148.14 2.82 148.13 2.89 148.11 2.97 148.11 3.04 148.11 3.11 148.11 3.18 148.12 3.24 148.14 3.31 148.16 3.37 148.19 3.43 148.22"/>
      </g>
      <g>
        <polygon class="cls-1" points="43.94 77.23 41.65 75.85 43.94 74.46 44.69 75.85 43.94 77.23"/>
        <polygon class="cls-2" points="42.79 75.15 42.68 75.23 42.57 75.31 42.47 75.39 42.38 75.48 42.29 75.57 42.22 75.66 42.15 75.75 42.09 75.85 42.15 75.94 42.22 76.03 42.29 76.12 42.38 76.21 42.47 76.3 42.57 76.38 42.68 76.46 42.79 76.54 42.91 76.61 43.03 76.66 43.15 76.71 43.27 76.75 43.38 76.78 43.5 76.81 43.61 76.82 43.71 76.83 43.81 76.82 43.91 76.81 43.95 76.8 44 76.78 44.04 76.77 44.08 76.75 44.12 76.73 44.15 76.71 44.18 76.69 44.22 76.66 44.24 76.64 44.27 76.61 44.29 76.57 44.32 76.54 44.33 76.5 44.35 76.46 44.36 76.42 44.37 76.38 44.37 76.34 44.38 76.3 44.38 76.26 44.37 76.21 44.37 76.17 44.36 76.12 44.35 76.08 44.33 76.03 44.3 75.94 44.25 75.85 44.3 75.75 44.33 75.66 44.35 75.61 44.36 75.57 44.37 75.52 44.37 75.48 44.38 75.43 44.38 75.39 44.37 75.35 44.37 75.31 44.36 75.27 44.35 75.23 44.33 75.19 44.32 75.15 44.29 75.12 44.27 75.09 44.24 75.06 44.22 75.03 44.18 75 44.15 74.98 44.12 74.96 44.08 74.94 44.04 74.92 44 74.91 43.95 74.89 43.91 74.88 43.81 74.87 43.71 74.87 43.61 74.87 43.5 74.88 43.38 74.91 43.27 74.94 43.15 74.98 43.03 75.03 42.91 75.09 42.79 75.15"/>
      </g>
      <g>
        <polygon class="cls-1" points="2.29 4.16 4.57 2.78 4.57 0 0 0 2.29 4.16"/>
        <polygon class="cls-2" points="4.57 1.39 4.57 1.46 4.56 1.53 4.55 1.6 4.53 1.67 4.5 1.73 4.47 1.8 4.43 1.87 4.39 1.93 4.35 1.99 4.3 2.05 4.24 2.11 4.18 2.16 4.12 2.22 4.05 2.27 3.98 2.32 3.9 2.37 3.9 2.46 3.9 2.55 3.89 2.64 3.87 2.73 3.86 2.81 3.84 2.89 3.81 2.96 3.78 3.04 3.75 3.1 3.72 3.17 3.68 3.23 3.64 3.29 3.59 3.34 3.54 3.39 3.49 3.43 3.43 3.47 3.37 3.5 3.31 3.53 3.24 3.55 3.18 3.57 3.11 3.58 3.04 3.58 2.97 3.58 2.89 3.58 2.82 3.57 2.75 3.55 2.67 3.53 2.6 3.5 2.52 3.47 2.44 3.44 2.36 3.4 2.29 3.35 2.21 3.3 2.13 3.25 1.98 3.13 1.83 2.99 1.68 2.84 1.53 2.67 1.4 2.49 1.27 2.29 1.14 2.08 1.03 1.87 .94 1.65 .85 1.43 .79 1.22 .74 1.01 .7 .8 .68 .6 .67 .5 .67 .41 .75 .36 .83 .32 1.01 .24 1.2 .17 1.4 .11 1.61 .06 1.83 .03 2.05 0 2.29 0 2.52 0 2.75 .03 2.97 .06 3.18 .11 3.38 .17 3.57 .24 3.74 .32 3.82 .36 3.9 .41 3.98 .45 4.05 .51 4.12 .56 4.18 .61 4.24 .67 4.3 .73 4.35 .79 4.39 .85 4.43 .91 4.47 .98 4.5 1.04 4.53 1.11 4.55 1.18 4.56 1.25 4.57 1.32 4.57 1.39"/>
      </g>
      <g>
        <polygon class="cls-1" points="161.13 0 161.13 2.78 163.41 4.16 165.7 0 161.13 0"/>
        <polygon class="cls-2" points="162.27 3.47 162.21 3.43 162.16 3.39 162.11 3.34 162.06 3.29 162.02 3.23 161.98 3.17 161.95 3.1 161.92 3.04 161.89 2.96 161.86 2.89 161.84 2.81 161.83 2.73 161.81 2.64 161.8 2.55 161.8 2.46 161.8 2.37 161.72 2.32 161.65 2.27 161.58 2.22 161.52 2.16 161.46 2.11 161.4 2.05 161.35 1.99 161.31 1.93 161.27 1.87 161.23 1.8 161.2 1.73 161.17 1.67 161.15 1.6 161.14 1.53 161.13 1.46 161.13 1.39 161.13 1.32 161.14 1.25 161.15 1.18 161.17 1.11 161.2 1.04 161.23 .98 161.27 .91 161.31 .85 161.35 .79 161.4 .73 161.46 .67 161.52 .61 161.58 .56 161.65 .51 161.72 .45 161.8 .41 161.88 .36 161.96 .32 162.14 .24 162.32 .17 162.52 .11 162.73 .06 162.95 .03 163.18 0 163.41 0 163.65 0 163.87 .03 164.09 .06 164.3 .11 164.5 .17 164.69 .24 164.87 .32 164.95 .36 165.03 .41 165.03 .5 165.02 .6 165 .8 164.96 1.01 164.91 1.22 164.85 1.43 164.76 1.65 164.67 1.87 164.56 2.08 164.43 2.29 164.3 2.49 164.17 2.67 164.02 2.84 163.87 2.99 163.72 3.13 163.57 3.25 163.49 3.3 163.41 3.35 163.34 3.4 163.26 3.44 163.18 3.47 163.1 3.5 163.03 3.53 162.95 3.55 162.88 3.57 162.81 3.58 162.73 3.58 162.66 3.58 162.59 3.58 162.52 3.57 162.46 3.55 162.39 3.53 162.33 3.5 162.27 3.47"/>
      </g>
      <g>
        <polygon class="cls-1" points="121.76 74.46 124.05 75.85 121.76 77.23 121.01 75.85 121.76 74.46"/>
        <polygon class="cls-2" points="122.91 76.54 123.02 76.46 123.13 76.38 123.23 76.3 123.32 76.21 123.41 76.12 123.48 76.03 123.55 75.94 123.61 75.85 123.55 75.75 123.48 75.66 123.41 75.57 123.32 75.48 123.23 75.39 123.13 75.31 123.02 75.23 122.91 75.15 122.79 75.09 122.67 75.03 122.55 74.98 122.43 74.94 122.32 74.91 122.2 74.88 122.09 74.87 121.99 74.87 121.89 74.87 121.79 74.88 121.75 74.89 121.7 74.91 121.66 74.92 121.62 74.94 121.58 74.96 121.55 74.98 121.52 75 121.48 75.03 121.46 75.06 121.43 75.09 121.41 75.12 121.38 75.15 121.37 75.19 121.35 75.23 121.34 75.27 121.33 75.31 121.33 75.35 121.32 75.39 121.32 75.43 121.33 75.48 121.33 75.52 121.34 75.57 121.35 75.61 121.37 75.66 121.4 75.75 121.45 75.85 121.4 75.94 121.37 76.03 121.35 76.08 121.34 76.12 121.33 76.17 121.33 76.21 121.32 76.26 121.32 76.3 121.33 76.34 121.33 76.38 121.34 76.42 121.35 76.46 121.37 76.5 121.38 76.54 121.41 76.57 121.43 76.61 121.46 76.64 121.48 76.66 121.52 76.69 121.55 76.71 121.58 76.73 121.62 76.75 121.66 76.77 121.7 76.78 121.75 76.8 121.79 76.81 121.89 76.82 121.99 76.83 122.09 76.82 122.2 76.81 122.32 76.78 122.43 76.75 122.55 76.71 122.67 76.66 122.79 76.61 122.91 76.54"/>
      </g>
      <g>
        <polygon class="cls-1" points="163.41 147.53 161.13 148.91 161.13 151.69 165.7 151.69 163.41 147.53"/>
        <polygon class="cls-2" points="161.13 150.3 161.13 150.23 161.14 150.16 161.15 150.09 161.17 150.02 161.2 149.96 161.23 149.89 161.27 149.83 161.31 149.76 161.35 149.7 161.4 149.64 161.46 149.58 161.52 149.53 161.58 149.47 161.65 149.42 161.72 149.37 161.8 149.32 161.8 149.23 161.8 149.14 161.81 149.05 161.83 148.96 161.84 148.88 161.86 148.8 161.89 148.73 161.92 148.65 161.95 148.59 161.98 148.52 162.02 148.46 162.06 148.4 162.11 148.35 162.16 148.3 162.21 148.26 162.27 148.22 162.33 148.19 162.39 148.16 162.46 148.14 162.52 148.12 162.59 148.11 162.66 148.11 162.73 148.11 162.81 148.11 162.88 148.13 162.95 148.14 163.03 148.16 163.1 148.19 163.18 148.22 163.26 148.26 163.34 148.3 163.41 148.34 163.49 148.39 163.57 148.44 163.72 148.56 163.87 148.7 164.02 148.85 164.17 149.02 164.3 149.2 164.43 149.4 164.56 149.61 164.67 149.83 164.76 150.04 164.85 150.26 164.91 150.47 164.96 150.69 165 150.89 165.02 151.09 165.03 151.19 165.03 151.28 164.95 151.33 164.87 151.37 164.69 151.45 164.5 151.52 164.3 151.58 164.09 151.63 163.87 151.66 163.65 151.68 163.41 151.69 163.18 151.68 162.95 151.66 162.73 151.63 162.52 151.58 162.32 151.52 162.14 151.45 161.96 151.37 161.88 151.33 161.8 151.28 161.72 151.24 161.65 151.19 161.58 151.13 161.52 151.08 161.46 151.02 161.4 150.96 161.35 150.9 161.31 150.84 161.27 150.78 161.23 150.72 161.2 150.65 161.17 150.58 161.15 150.51 161.14 150.44 161.13 150.37 161.13 150.3"/>
      </g>
    </g>
  </g>
</svg>