<?xml version="1.0" encoding="UTF-8"?>
<svg id="Layer_2" data-name="Layer 2" xmlns="http://www.w3.org/2000/svg" viewBox="0 0 66.79 138.49">
  <defs>
    <style>
      .cls-1 {
        fill: none;
      }

      .cls-1, .cls-2 {
        stroke-width: 0px;
      }

      .cls-2 {
        fill: #191919;
        fill-rule: evenodd;
      }
    </style>
  </defs>
  <g id="_ÎÓÈ_1" data-name="—ÎÓÈ_1">
    <g>
      <g>
        <path class="cls-1" d="M63.26,0c-1.27.1-2.54.16-3.8.3l.39,3.65c1.19-.14,2.39-.19,3.58-.28l-.17-3.67Z"/>
        <path class="cls-2" d="M59.66,2.13c-.12-1.02.64-1.93,1.7-1.99,1.06-.08,1.94.68,1.99,1.7.04,1.01-.72,1.89-1.7,1.96-.98.06-1.87-.67-1.98-1.67Z"/>
      </g>
      <g>
        <path class="cls-1" d="M52.65,1.42c-1.24.29-2.48.56-3.69.94l1.01,3.53c1.14-.36,2.31-.61,3.48-.88l-.79-3.58Z"/>
        <path class="cls-2" d="M49.46,4.13c-.28-.96.3-2.03,1.33-2.27,1.03-.24,2.04.37,2.25,1.36.21.99-.39,1.98-1.35,2.2-.96.22-1.95-.31-2.23-1.29Z"/>
      </g>
      <g>
        <path class="cls-1" d="M42.44,4.61c-1.19.45-2.33,1-3.48,1.54l1.58,3.31c1.08-.51,2.17-1.02,3.29-1.45l-1.38-3.4Z"/>
        <path class="cls-2" d="M39.75,7.81c-.44-.91-.02-2.01.93-2.46.96-.43,2.08.03,2.45.97.38.95-.06,1.99-.96,2.39-.89.42-1.98.01-2.42-.9Z"/>
      </g>
      <g>
        <path class="cls-1" d="M32.9,9.44c-1.08.66-2.13,1.38-3.19,2.08l2.1,3.01c1-.66,1.99-1.34,3.01-1.96l-1.92-3.13Z"/>
        <path class="cls-2" d="M30.76,13.03c-.59-.83-.34-1.97.54-2.56.88-.59,2.03-.34,2.56.54.52.86.27,1.98-.55,2.53-.82.55-1.97.31-2.55-.51Z"/>
      </g>
      <g>
        <path class="cls-1" d="M24.27,15.75c-.94.85-1.92,1.66-2.81,2.56l2.55,2.65c.84-.86,1.77-1.62,2.66-2.43l-2.39-2.78Z"/>
        <path class="cls-2" d="M22.74,19.64c-.7-.72-.69-1.93.11-2.62.79-.7,1.96-.64,2.62.13.66.77.59,1.93-.15,2.59-.75.64-1.87.64-2.58-.09Z"/>
      </g>
      <g>
        <polygon class="cls-1" points="16.75 23.33 15.53 24.78 14.37 26.29 17.29 28.51 18.39 27.09 19.55 25.71 16.75 23.33"/>
        <path class="cls-2" d="M15.83,27.4c-.81-.61-.94-1.78-.3-2.62.67-.81,1.85-.92,2.62-.26.77.66.87,1.8.24,2.57-.6.78-1.75.92-2.56.31Z"/>
      </g>
      <g>
        <path class="cls-1" d="M10.47,31.96c-.7,1.06-1.27,2.19-1.91,3.28l3.22,1.76c.61-1.03,1.15-2.11,1.82-3.11l-3.12-1.93Z"/>
        <path class="cls-2" d="M10.17,36.12c-.89-.48-1.19-1.61-.67-2.53.51-.92,1.68-1.2,2.54-.67.86.54,1.11,1.64.64,2.51-.49.86-1.61,1.17-2.5.69Z"/>
      </g>
      <g>
        <path class="cls-1" d="M5.55,41.43c-.47,1.18-.95,2.35-1.39,3.54l3.45,1.25c.41-1.13.87-2.24,1.32-3.35l-3.38-1.44Z"/>
        <path class="cls-2" d="M5.89,45.59c-.97-.35-1.44-1.42-1.04-2.4.39-.98,1.45-1.45,2.39-1.05.92.4,1.39,1.47,1.02,2.39-.37.92-1.43,1.39-2.37,1.05Z"/>
      </g>
      <g>
        <path class="cls-1" d="M2.14,51.54c-.28,1.24-.63,2.45-.84,3.7l3.6.72c.19-1.19.54-2.34.8-3.51l-3.56-.91Z"/>
        <path class="cls-2" d="M3.1,55.6c-.99-.19-1.66-1.2-1.4-2.22.24-1.03,1.24-1.65,2.22-1.39.98.26,1.59,1.25,1.36,2.21-.25.96-1.18,1.6-2.18,1.4Z"/>
      </g>
      <g>
        <path class="cls-1" d="M.28,62.05c-.11,1.26-.25,2.52-.28,3.79l3.67.17c.02-1.2.16-2.4.26-3.59l-3.65-.37Z"/>
        <path class="cls-2" d="M1.83,65.92c-1-.04-1.83-.93-1.73-1.98.09-1.05.99-1.81,2-1.71,1.01.11,1.75.99,1.66,1.98-.09.99-.91,1.76-1.93,1.71Z"/>
      </g>
      <g>
        <path class="cls-1" d="M0,72.71c.07,1.26.13,2.53.29,3.79l3.65-.38c-.16-1.19-.2-2.39-.27-3.59l-3.67.18Z"/>
        <path class="cls-2" d="M2.12,76.31c-1,.11-1.94-.65-2-1.7-.06-1.05.71-1.94,1.72-1.99,1.01-.04,1.88.72,1.94,1.71.06.99-.64,1.87-1.66,1.98Z"/>
      </g>
      <g>
        <path class="cls-1" d="M1.33,83.3c.25,1.24.51,2.48.85,3.7l3.55-.92c-.33-1.16-.57-2.33-.81-3.51l-3.6.73Z"/>
        <path class="cls-2" d="M3.96,86.54c-.97.26-2-.35-2.24-1.38-.22-1.03.42-2.03,1.41-2.22.99-.2,1.97.43,2.17,1.4.22.96-.35,1.95-1.34,2.21Z"/>
      </g>
      <g>
        <polygon class="cls-1" points="4.23 93.57 4.89 95.35 5.62 97.1 9 95.65 8.3 94 7.67 92.31 4.23 93.57"/>
        <path class="cls-2" d="M7.31,96.38c-.93.4-2.02-.06-2.43-1.03-.37-.99.11-2.07,1.06-2.41.96-.34,2,.13,2.35,1.06.39.91-.06,1.98-.99,2.38Z"/>
      </g>
      <g>
        <path class="cls-1" d="M8.63,103.28c.58,1.13,1.26,2.2,1.91,3.28l3.12-1.93c-.61-1.03-1.26-2.04-1.81-3.11l-3.22,1.76Z"/>
        <path class="cls-2" d="M12.1,105.6c-.86.54-2,.24-2.54-.66-.55-.9-.2-2.06.68-2.54.9-.49,1.97-.15,2.49.69.51.85.23,1.97-.63,2.51Z"/>
      </g>
      <g>
        <path class="cls-1" d="M14.44,112.24c.75,1.02,1.59,1.97,2.38,2.96l2.79-2.38c-.75-.94-1.54-1.84-2.25-2.81l-2.92,2.23Z"/>
        <path class="cls-2" d="M18.21,114.01c-.77.66-1.93.54-2.6-.28-.68-.81-.53-1.99.28-2.6.8-.61,1.94-.46,2.58.3.63.77.51,1.92-.26,2.59Z"/>
      </g>
      <g>
        <path class="cls-1" d="M21.54,120.21c.94.85,1.85,1.74,2.82,2.55l2.39-2.78c-.92-.77-1.78-1.61-2.67-2.41l-2.54,2.65Z"/>
        <path class="cls-2" d="M25.55,121.37c-.66.78-1.85.85-2.62.13-.78-.71-.83-1.88-.13-2.61.71-.73,1.87-.78,2.6-.11.72.68.8,1.82.15,2.59Z"/>
      </g>
      <g>
        <path class="cls-1" d="M29.8,126.98c1.05.71,2.09,1.44,3.18,2.08l1.92-3.13c-1.04-.6-2.02-1.29-3.01-1.97l-2.1,3.01Z"/>
        <path class="cls-2" d="M33.95,127.5c-.52.86-1.7,1.14-2.57.55-.87-.59-1.11-1.75-.52-2.58.58-.83,1.72-1.05,2.54-.5s1.09,1.64.56,2.52Z"/>
      </g>
      <g>
        <path class="cls-1" d="M39.04,132.35c1.14.57,2.31,1.06,3.48,1.54l1.38-3.4c-1.11-.45-2.21-.91-3.28-1.45l-1.58,3.31Z"/>
        <path class="cls-2" d="M43.21,132.19c-.38.94-1.47,1.38-2.45.97-.97-.43-1.37-1.56-.93-2.46.44-.92,1.52-1.3,2.42-.89.91.38,1.34,1.45.97,2.39Z"/>
      </g>
      <g>
        <path class="cls-1" d="M49.04,136.15c1.21.39,2.46.62,3.69.94l.79-3.59c-1.16-.3-2.34-.51-3.48-.88l-1.01,3.53Z"/>
        <path class="cls-2" d="M53.13,135.29c-.21.99-1.22,1.59-2.25,1.35-1.03-.23-1.62-1.29-1.34-2.26.28-.98,1.27-1.51,2.24-1.3.96.23,1.56,1.22,1.35,2.21Z"/>
      </g>
      <g>
        <path class="cls-1" d="M59.55,138.2c1.26.13,2.53.2,3.8.3l.17-3.67c-1.19-.09-2.39-.16-3.58-.28l-.39,3.65Z"/>
        <path class="cls-2" d="M63.44,136.66c-.04,1.01-.93,1.77-1.98,1.7-1.06-.07-1.82-.96-1.7-1.98.11-.99,1-1.74,1.98-1.68.98.07,1.75.95,1.71,1.96Z"/>
      </g>
    </g>
  </g>
</svg>