<?xml version="1.0" encoding="UTF-8"?>
<svg id="Layer_2" data-name="Layer 2" xmlns="http://www.w3.org/2000/svg" viewBox="0 0 190.75 263.23">
  <defs>
    <style>
      .cls-1 {
        fill: none;
      }

      .cls-1, .cls-2 {
        stroke-width: 0px;
      }

      .cls-2 {
        fill: #191919;
        fill-rule: evenodd;
      }
    </style>
  </defs>
  <g id="_ÎÓÈ_1" data-name="—ÎÓÈ_1">
    <g>
      <g>
        <polygon class="cls-1" points="186.07 135.83 186 138.16 185.9 140.49 190.58 140.72 190.69 138.33 190.75 135.94 186.07 135.83"/>
        <path class="cls-2" d="M188.24,140.6c-1.29-.07-2.29-1.16-2.24-2.44.03-1.28,1.11-2.3,2.41-2.27,1.29.03,2.31,1.12,2.28,2.44-.06,1.32-1.16,2.34-2.45,2.27Z"/>
      </g>
      <g>
        <polygon class="cls-1" points="185.28 148.9 185.04 151.22 184.77 153.53 189.42 154.11 189.7 151.73 189.95 149.36 185.28 148.9"/>
        <path class="cls-2" d="M187.09,153.82c-1.28-.16-2.2-1.33-2.05-2.6.13-1.28,1.28-2.21,2.57-2.09,1.29.12,2.23,1.29,2.09,2.61-.16,1.31-1.33,2.25-2.61,2.08Z"/>
      </g>
      <g>
        <path class="cls-1" d="M183.52,161.87c-.26,1.53-.56,3.05-.86,4.57l4.59.94c.3-1.57.62-3.13.88-4.7l-4.62-.81Z"/>
        <path class="cls-2" d="M184.95,166.91c-1.27-.26-2.1-1.49-1.85-2.75.25-1.26,1.44-2.11,2.72-1.89,1.27.22,2.14,1.46,1.88,2.76-.25,1.3-1.49,2.14-2.75,1.88Z"/>
      </g>
      <g>
        <path class="cls-1" d="M180.76,174.65c-.18.75-.39,1.5-.6,2.25-.21.75-.4,1.5-.63,2.24l4.5,1.3c.23-.76.43-1.54.65-2.3.21-.77.43-1.54.62-2.31l-4.54-1.17Z"/>
        <path class="cls-2" d="M181.78,179.79c-.62-.18-1.11-.6-1.4-1.12-.29-.52-.39-1.15-.22-1.77.35-1.23,1.62-1.98,2.87-1.66,1.26.32,2.01,1.62,1.65,2.9-.18.64-.58,1.15-1.11,1.44-.53.3-1.17.39-1.79.21Z"/>
      </g>
      <g>
        <path class="cls-1" d="M176.98,187.16l-.78,2.19c-.26.73-.55,1.45-.82,2.17l4.38,1.68c.28-.75.57-1.49.84-2.24l.81-2.26-4.43-1.54Z"/>
        <path class="cls-2" d="M177.56,192.37c-1.21-.47-1.81-1.81-1.37-3.01.43-1.21,1.77-1.84,3-1.42,1.22.42,1.85,1.78,1.41,3.03-.46,1.25-1.83,1.87-3.03,1.4Z"/>
      </g>
      <g>
        <path class="cls-1" d="M172.14,199.29l-.48,1.06-.5,1.05c-.33.7-.65,1.4-1.01,2.09l4.21,2.07c.36-.71.69-1.44,1.04-2.16l.51-1.08.49-1.09-4.27-1.93Z"/>
        <path class="cls-2" d="M172.26,204.52c-.58-.29-.99-.78-1.18-1.34-.2-.57-.19-1.2.09-1.78.56-1.15,1.93-1.67,3.11-1.14,1.18.53,1.71,1.95,1.13,3.14-.28.6-.78,1.03-1.34,1.23-.57.2-1.22.18-1.8-.11Z"/>
      </g>
      <g>
        <path class="cls-1" d="M166.21,210.91c-.39.67-.77,1.34-1.17,2l-1.2,1.98,3.98,2.48,1.25-2.05c.41-.69.81-1.38,1.21-2.07l-4.07-2.33Z"/>
        <path class="cls-2" d="M165.83,216.12c-1.1-.69-1.45-2.13-.79-3.22.65-1.1,2.07-1.48,3.2-.84,1.12.64,1.5,2.1.82,3.24-.69,1.14-2.14,1.5-3.24.81Z"/>
      </g>
      <g>
        <polygon class="cls-1" points="159.17 221.85 157.8 223.71 156.38 225.54 160.07 228.44 161.54 226.53 162.97 224.6 159.17 221.85"/>
        <path class="cls-2" d="M158.23,226.99c-1.02-.8-1.21-2.27-.43-3.28.76-1.02,2.22-1.24,3.27-.49,1.05.75,1.26,2.24.47,3.31-.81,1.06-2.3,1.26-3.31.46Z"/>
      </g>
      <g>
        <polygon class="cls-1" points="150.97 231.92 149.39 233.6 147.77 235.24 151.07 238.57 152.76 236.85 154.42 235.09 150.97 231.92"/>
        <path class="cls-2" d="M149.42,236.9c-.91-.92-.92-2.4-.03-3.31.87-.92,2.35-.97,3.3-.09.96.87.99,2.37.07,3.35-.94.95-2.44.98-3.35.05Z"/>
      </g>
      <g>
        <path class="cls-1" d="M141.59,240.85c-1.18.98-2.38,1.93-3.61,2.85l2.8,3.76c1.29-.97,2.56-1.96,3.8-3l-3-3.61Z"/>
        <path class="cls-2" d="M139.39,245.57c-.39-.52-.52-1.14-.45-1.73.07-.6.37-1.16.87-1.54,1-.78,2.45-.64,3.28.36.41.5.58,1.12.52,1.72-.07.6-.36,1.2-.9,1.6-.53.41-1.17.57-1.77.5-.6-.07-1.17-.39-1.56-.91Z"/>
      </g>
      <g>
        <path class="cls-1" d="M131.09,248.33c-.65.41-1.32.77-1.98,1.15-.66.39-1.34.73-2.01,1.09l2.17,4.16c.72-.38,1.44-.75,2.14-1.16.7-.4,1.41-.79,2.1-1.22l-2.41-4.02Z"/>
        <path class="cls-2" d="M128.18,252.64c-.3-.57-.34-1.22-.17-1.78.08-.28.22-.55.41-.78.18-.24.41-.44.69-.6.55-.31,1.18-.36,1.76-.21.57.15,1.1.51,1.43,1.07.33.55.41,1.2.25,1.79-.16.58-.56,1.11-1.14,1.44-.29.16-.6.27-.91.3-.31.03-.63,0-.92-.08-.59-.17-1.09-.57-1.39-1.14Z"/>
      </g>
      <g>
        <path class="cls-1" d="M119.55,253.99c-1.42.55-2.86,1.05-4.31,1.51l1.4,4.47c1.55-.49,3.08-1.02,4.6-1.61l-1.69-4.37Z"/>
        <path class="cls-2" d="M115.94,257.73c-.19-.62-.12-1.25.15-1.78.26-.54.72-.97,1.32-1.17.6-.19,1.22-.17,1.76.09.54.25,1,.71,1.23,1.31s.2,1.24-.06,1.8c-.26.55-.74,1.03-1.38,1.23-.64.22-1.3.16-1.84-.1-.55-.26-.98-.76-1.17-1.37Z"/>
      </g>
      <g>
        <path class="cls-1" d="M107.23,257.48c-.75.15-1.5.24-2.25.37-.75.12-1.51.19-2.26.29l.52,4.66c.81-.11,1.62-.19,2.42-.31.8-.13,1.61-.24,2.41-.4l-.84-4.61Z"/>
        <path class="cls-2" d="M102.98,260.47c-.14-1.29.76-2.44,2-2.62.62-.1,1.22.07,1.71.42.48.36.84.87.96,1.51.12.63-.04,1.27-.4,1.76-.36.49-.92.84-1.59.95-.67.11-1.31-.09-1.79-.46-.49-.37-.82-.92-.89-1.56Z"/>
      </g>
      <g>
        <path class="cls-1" d="M94.48,258.54c-.76-.01-1.52-.02-2.28-.07-.76-.04-1.52-.07-2.27-.15l-.39,4.67c.81.08,1.62.12,2.44.16.81.05,1.63.06,2.44.08l.07-4.69Z"/>
        <path class="cls-2" d="M89.74,260.65c.05-.65.36-1.21.81-1.59.45-.39,1.03-.63,1.66-.59.31.02.61.1.88.23.27.12.51.3.71.51.41.43.66,1.02.65,1.67,0,.65-.28,1.23-.73,1.65-.22.21-.49.38-.79.49-.3.1-.62.15-.96.13-.67-.04-1.27-.32-1.67-.78-.41-.46-.62-1.07-.57-1.71Z"/>
      </g>
      <g>
        <polygon class="cls-1" points="81.77 257.12 79.54 256.61 77.34 256.03 76.06 260.54 78.42 261.17 80.8 261.71 81.77 257.12"/>
        <path class="cls-2" d="M76.7,258.29c.36-1.24,1.63-1.99,2.84-1.67,1.22.28,2,1.54,1.74,2.8-.26,1.27-1.54,2.05-2.86,1.75-1.31-.34-2.08-1.64-1.72-2.88Z"/>
      </g>
      <g>
        <path class="cls-1" d="M69.54,253.3c-.35-.15-.71-.28-1.05-.44l-1.04-.47c-.35-.16-.7-.31-1.04-.47l-1.03-.5-2.07,4.21,1.09.53c.36.18.74.34,1.11.51l1.11.5c.37.17.75.31,1.12.47l1.8-4.33Z"/>
        <path class="cls-2" d="M64.34,253.51c.29-.58.78-.99,1.34-1.19.28-.1.57-.14.87-.13.3,0,.6.07.89.2,1.14.53,1.68,1.88,1.19,3.08s-1.91,1.76-3.13,1.19c-.31-.14-.57-.33-.79-.56-.21-.23-.37-.5-.48-.79-.21-.57-.19-1.22.1-1.8Z"/>
      </g>
      <g>
        <path class="cls-1" d="M58.14,247.35c-.64-.42-1.29-.83-1.92-1.25l-1.89-1.31-2.72,3.82,1.99,1.38c.67.45,1.35.88,2.03,1.32l2.51-3.96Z"/>
        <path class="cls-2" d="M52.97,246.7c.75-1.05,2.21-1.32,3.25-.6,1.05.69,1.36,2.13.67,3.23-.69,1.1-2.16,1.4-3.28.66-1.11-.76-1.39-2.23-.63-3.29Z"/>
      </g>
      <g>
        <path class="cls-1" d="M47.79,239.64l-.87-.75c-.29-.25-.57-.52-.85-.77-.57-.52-1.14-1.03-1.69-1.57l-3.24,3.39c.57.56,1.17,1.1,1.77,1.65.3.27.59.55.89.81l.91.79,3.07-3.55Z"/>
        <path class="cls-2" d="M42.77,238.23c.45-.47,1.04-.71,1.63-.73.6-.02,1.2.17,1.67.6.47.43.72,1.01.76,1.6.04.59-.15,1.21-.57,1.7-.42.49-1.01.76-1.62.79-.61.04-1.24-.17-1.73-.62-.49-.45-.76-1.05-.79-1.66-.02-.61.19-1.22.64-1.69Z"/>
      </g>
      <g>
        <path class="cls-1" d="M38.59,230.52c-.52-.57-1.02-1.16-1.51-1.74l-.75-.88-.73-.9-3.64,2.96.76.93.78.92c.52.61,1.04,1.23,1.58,1.82l3.51-3.11Z"/>
        <path class="cls-2" d="M33.78,228.48c1.01-.82,2.46-.66,3.3.3.82.97.72,2.44-.24,3.3-.97.86-2.47.76-3.33-.26-.87-1.01-.73-2.52.28-3.33Z"/>
      </g>
      <g>
        <path class="cls-1" d="M30.56,220.32c-.45-.63-.88-1.27-1.31-1.91-.43-.64-.86-1.28-1.27-1.93l-3.94,2.54c.43.68.87,1.34,1.32,2.01.44.67.89,1.33,1.36,1.98l3.84-2.69Z"/>
        <path class="cls-2" d="M26.01,217.74c1.09-.7,2.53-.39,3.24.67.7,1.06.44,2.51-.61,3.25-1.06.74-2.55.47-3.28-.64-.75-1.1-.44-2.58.65-3.28Z"/>
      </g>
      <g>
        <path class="cls-1" d="M23.68,209.27c-.76-1.35-1.47-2.72-2.18-4.09l-4.18,2.13c.74,1.42,1.47,2.84,2.26,4.24l4.1-2.27Z"/>
        <path class="cls-2" d="M19.41,206.24c1.15-.58,2.57-.14,3.16.99.59,1.13.19,2.54-.94,3.17-1.12.63-2.58.21-3.2-.97-.62-1.18-.18-2.6.98-3.19Z"/>
      </g>
      <g>
        <path class="cls-1" d="M17.9,197.57l-.91-2.14c-.3-.71-.58-1.43-.87-2.15l-4.36,1.74c.3.74.59,1.49.9,2.22l.94,2.21,4.3-1.87Z"/>
        <path class="cls-2" d="M13.94,194.15c1.21-.48,2.56.1,3.05,1.28.5,1.18-.05,2.55-1.24,3.07-1.18.52-2.57-.05-3.09-1.27-.51-1.23.07-2.61,1.28-3.09Z"/>
      </g>
      <g>
        <path class="cls-1" d="M13.23,185.38c-.5-1.46-.95-2.95-1.42-4.43l-4.49,1.36c.47,1.52.94,3.05,1.46,4.56l4.45-1.49Z"/>
        <path class="cls-2" d="M9.57,181.63c1.23-.37,2.55.32,2.94,1.54.38,1.22-.27,2.54-1.5,2.95-1.22.41-2.58-.26-2.97-1.53-.4-1.26.28-2.59,1.53-2.96Z"/>
      </g>
      <g>
        <path class="cls-1" d="M9.59,172.82c-.19-.75-.36-1.51-.54-2.26-.18-.75-.35-1.51-.51-2.27l-4.58.99c.16.78.33,1.56.52,2.34.18.78.36,1.55.55,2.33l4.55-1.12Z"/>
        <path class="cls-2" d="M6.26,168.78c1.27-.27,2.5.53,2.8,1.78.29,1.25-.49,2.51-1.74,2.82-1.26.31-2.53-.48-2.83-1.77-.31-1.29.51-2.56,1.77-2.83Z"/>
      </g>
      <g>
        <path class="cls-1" d="M6.97,160.01l-.36-2.3c-.12-.77-.22-1.54-.32-2.3l-4.65.63c.11.79.21,1.58.33,2.37l.37,2.36,4.63-.76Z"/>
        <path class="cls-2" d="M3.97,155.72c1.29-.17,2.46.72,2.65,1.99.2,1.27-.68,2.47-1.95,2.68-1.28.21-2.48-.68-2.68-1.98-.2-1.31.71-2.51,1.99-2.68Z"/>
      </g>
      <g>
        <polygon class="cls-1" points="5.36 147.02 5.17 144.7 5.02 142.37 .34 142.66 .49 145.04 .69 147.42 5.36 147.02"/>
        <path class="cls-2" d="M2.68,142.52c1.29-.07,2.41.9,2.49,2.18.11,1.28-.85,2.41-2.14,2.52-1.29.11-2.42-.86-2.53-2.18-.09-1.32.89-2.45,2.19-2.53Z"/>
      </g>
      <g>
        <polygon class="cls-1" points="4.71 133.94 4.69 131.61 4.71 129.28 .02 129.22 0 131.61 .02 134 4.71 133.94"/>
        <path class="cls-2" d="M2.37,129.25c1.29.02,2.33,1.08,2.32,2.36.01,1.28-1.03,2.34-2.32,2.36-1.29.02-2.35-1.04-2.37-2.36.01-1.32,1.07-2.38,2.37-2.36Z"/>
      </g>
      <g>
        <polygon class="cls-1" points="5.02 120.85 5.17 118.53 5.36 116.21 .69 115.8 .49 118.18 .34 120.57 5.02 120.85"/>
        <path class="cls-2" d="M3.02,116c1.29.11,2.25,1.24,2.14,2.52-.08,1.28-1.2,2.26-2.49,2.18-1.29-.07-2.27-1.21-2.19-2.53.11-1.32,1.24-2.3,2.53-2.18Z"/>
      </g>
      <g>
        <path class="cls-1" d="M6.29,107.82c.11-.77.2-1.54.33-2.3l.36-2.3-4.63-.76-.37,2.36c-.12.79-.22,1.58-.33,2.37l4.65.63Z"/>
        <path class="cls-2" d="M4.66,102.84c1.28.21,2.15,1.41,1.95,2.68-.19,1.27-1.36,2.16-2.65,1.99-1.28-.17-2.18-1.37-1.99-2.68.2-1.31,1.41-2.2,2.68-1.98Z"/>
      </g>
      <g>
        <path class="cls-1" d="M8.55,94.94c.16-.76.32-1.52.51-2.27.18-.75.35-1.51.54-2.26l-4.55-1.12c-.19.77-.37,1.55-.55,2.33-.19.78-.36,1.55-.52,2.34l4.58.99Z"/>
        <path class="cls-2" d="M7.31,89.84c1.25.31,2.03,1.57,1.74,2.82-.3,1.25-1.53,2.05-2.8,1.78-1.26-.27-2.08-1.54-1.77-2.83.3-1.29,1.56-2.08,2.83-1.77Z"/>
      </g>
      <g>
        <path class="cls-1" d="M11.81,82.28c.46-1.48.91-2.96,1.42-4.43l-4.45-1.49c-.52,1.51-.98,3.04-1.46,4.56l4.49,1.36Z"/>
        <path class="cls-2" d="M11,77.1c1.23.42,1.88,1.73,1.5,2.95-.39,1.22-1.7,1.91-2.94,1.54-1.25-.37-1.93-1.7-1.53-2.96.39-1.27,1.75-1.94,2.97-1.53Z"/>
      </g>
      <g>
        <path class="cls-1" d="M16.12,69.94c.29-.72.57-1.44.87-2.15l.91-2.14-4.3-1.87-.94,2.21c-.31.74-.6,1.48-.9,2.22l4.36,1.74Z"/>
        <path class="cls-2" d="M15.76,64.72c1.19.52,1.74,1.9,1.24,3.07-.49,1.18-1.84,1.76-3.05,1.28-1.2-.47-1.79-1.86-1.28-3.09.52-1.22,1.9-1.79,3.09-1.27Z"/>
      </g>
      <g>
        <path class="cls-1" d="M21.49,58.05c.71-1.37,1.42-2.75,2.18-4.09l-4.1-2.27c-.78,1.4-1.52,2.82-2.26,4.24l4.18,2.13Z"/>
        <path class="cls-2" d="M21.62,52.82c1.14.63,1.53,2.04.94,3.17-.59,1.13-2.01,1.57-3.16.99-1.16-.59-1.6-2.01-.98-3.19.62-1.18,2.07-1.6,3.2-.97Z"/>
      </g>
      <g>
        <path class="cls-1" d="M27.98,46.75c.41-.65.84-1.29,1.27-1.93.43-.64.86-1.28,1.31-1.91l-3.84-2.69c-.47.65-.91,1.32-1.36,1.98-.45.67-.89,1.33-1.32,2.01l3.94,2.54Z"/>
        <path class="cls-2" d="M28.64,41.57c1.06.75,1.32,2.19.61,3.25-.72,1.05-2.15,1.36-3.24.67-1.09-.7-1.4-2.18-.65-3.28.73-1.11,2.22-1.39,3.28-.64Z"/>
      </g>
      <g>
        <path class="cls-1" d="M35.6,36.22l.73-.9.75-.88c.5-.59,1-1.18,1.51-1.74l-3.51-3.11c-.54.59-1.06,1.21-1.58,1.82l-.78.92-.76.93,3.64,2.96Z"/>
        <path class="cls-2" d="M36.84,31.15c.96.86,1.06,2.33.24,3.3-.83.96-2.29,1.11-3.3.3-1-.81-1.15-2.32-.28-3.33.86-1.02,2.37-1.13,3.33-.26Z"/>
      </g>
      <g>
        <path class="cls-1" d="M44.39,26.69c.55-.54,1.12-1.05,1.69-1.57.28-.26.56-.52.85-.77l.87-.75-3.07-3.55-.91.79c-.3.27-.6.54-.89.81-.59.54-1.19,1.08-1.77,1.65l3.24,3.39Z"/>
        <path class="cls-2" d="M46.26,21.82c.42.49.61,1.1.57,1.7-.04.59-.29,1.17-.76,1.6-.47.43-1.07.62-1.67.6-.59-.02-1.19-.26-1.63-.73-.45-.47-.66-1.08-.64-1.69.02-.61.3-1.2.79-1.66.49-.45,1.11-.66,1.73-.62.61.03,1.19.3,1.62.79Z"/>
      </g>
      <g>
        <path class="cls-1" d="M54.33,18.43l1.89-1.31c.64-.42,1.28-.83,1.92-1.25l-2.51-3.96c-.68.44-1.36.88-2.03,1.32l-1.99,1.38,2.72,3.82Z"/>
        <path class="cls-2" d="M56.89,13.89c.69,1.1.38,2.54-.67,3.23-1.04.72-2.49.44-3.25-.6-.76-1.05-.47-2.52.63-3.29,1.12-.74,2.6-.44,3.28.66Z"/>
      </g>
      <g>
        <path class="cls-1" d="M65.38,11.82l1.03-.5c.34-.17.69-.32,1.04-.47l1.04-.47c.35-.16.7-.29,1.05-.44l-1.8-4.33c-.37.16-.75.3-1.12.47l-1.11.5c-.37.17-.74.33-1.11.51l-1.09.53,2.07,4.21Z"/>
        <path class="cls-2" d="M68.64,7.77c.49,1.2-.05,2.55-1.19,3.08-.29.13-.59.19-.89.2-.3,0-.59-.03-.87-.13-.56-.2-1.05-.61-1.34-1.19-.29-.58-.31-1.22-.1-1.8.1-.29.26-.56.48-.79.21-.23.48-.42.79-.56,1.23-.57,2.64,0,3.13,1.19Z"/>
      </g>
      <g>
        <polygon class="cls-1" points="77.34 7.2 79.54 6.61 81.77 6.1 80.8 1.51 78.42 2.06 76.06 2.68 77.34 7.2"/>
        <path class="cls-2" d="M81.28,3.81c.26,1.26-.52,2.52-1.74,2.8-1.21.32-2.48-.43-2.84-1.67-.36-1.24.41-2.54,1.72-2.88,1.32-.3,2.6.48,2.86,1.75Z"/>
      </g>
      <g>
        <path class="cls-1" d="M89.93,4.91c.76-.08,1.51-.11,2.27-.15.76-.05,1.52-.06,2.28-.07l-.07-4.69c-.81.01-1.63.02-2.44.08-.81.04-1.63.08-2.44.16l.39,4.67Z"/>
        <path class="cls-2" d="M94.45,2.34c0,.65-.25,1.24-.65,1.67-.2.22-.44.39-.71.51-.27.13-.57.21-.88.23-.63.04-1.21-.21-1.66-.59-.45-.39-.76-.95-.81-1.59s.16-1.25.57-1.71c.4-.46,1-.74,1.67-.78.34-.02.66.03.96.13.3.11.56.28.79.49.45.42.72,1,.73,1.65Z"/>
      </g>
      <g>
        <path class="cls-1" d="M102.72,5.09c.75.1,1.51.17,2.26.29.75.13,1.5.22,2.25.37l.84-4.61c-.8-.16-1.61-.26-2.41-.4-.8-.13-1.61-.21-2.42-.31l-.52,4.66Z"/>
        <path class="cls-2" d="M107.65,3.44c-.12.64-.48,1.15-.96,1.51-.48.35-1.09.52-1.71.42-1.24-.18-2.14-1.33-2-2.62.07-.64.4-1.19.89-1.56.48-.36,1.13-.57,1.79-.46.67.11,1.23.46,1.59.95.36.48.51,1.12.4,1.76Z"/>
      </g>
      <g>
        <path class="cls-1" d="M115.24,7.73c1.45.46,2.89.96,4.31,1.51l1.69-4.37c-1.51-.58-3.05-1.12-4.6-1.61l-1.4,4.47Z"/>
        <path class="cls-2" d="M120.4,7.05c-.23.6-.69,1.06-1.23,1.31-.54.26-1.16.28-1.76.09-.6-.2-1.05-.63-1.32-1.17-.26-.54-.34-1.16-.15-1.78.19-.62.62-1.11,1.17-1.37.54-.26,1.21-.32,1.84-.1.64.21,1.12.69,1.38,1.23.26.55.3,1.19.06,1.8Z"/>
      </g>
      <g>
        <path class="cls-1" d="M127.09,12.66c.67.36,1.35.7,2.01,1.09.66.38,1.33.74,1.98,1.15l2.41-4.02c-.69-.43-1.4-.82-2.1-1.22-.7-.41-1.42-.78-2.14-1.16l-2.17,4.16Z"/>
        <path class="cls-2" d="M132.29,12.89c-.33.55-.86.92-1.43,1.07-.58.15-1.21.1-1.76-.21-.28-.16-.5-.36-.69-.6-.19-.23-.32-.5-.41-.78-.17-.57-.13-1.21.17-1.79.3-.57.81-.97,1.39-1.14.29-.09.6-.11.92-.08.31.03.62.14.91.3.58.33.98.86,1.14,1.44.16.59.08,1.23-.25,1.79Z"/>
      </g>
      <g>
        <path class="cls-1" d="M137.98,19.53c1.22.92,2.43,1.86,3.61,2.85l3-3.61c-1.24-1.03-2.51-2.03-3.8-3l-2.8,3.76Z"/>
        <path class="cls-2" d="M143.09,20.58c-.84,1-2.29,1.13-3.28.36-.5-.39-.79-.95-.87-1.54-.07-.6.06-1.21.45-1.73.39-.52.96-.84,1.56-.91.6-.07,1.24.09,1.77.5.53.4.83,1,.9,1.6.07.6-.1,1.22-.52,1.72Z"/>
      </g>
      <g>
        <polygon class="cls-1" points="147.77 27.99 149.39 29.63 150.97 31.31 154.42 28.13 152.76 26.38 151.07 24.66 147.77 27.99"/>
        <path class="cls-2" d="M152.69,29.72c-.96.87-2.44.83-3.3-.09-.89-.9-.88-2.38.03-3.31.91-.92,2.41-.9,3.35.05.92.97.88,2.47-.07,3.35Z"/>
      </g>
      <g>
        <polygon class="cls-1" points="156.38 37.68 157.8 39.51 159.17 41.38 162.97 38.63 161.54 36.69 160.07 34.79 156.38 37.68"/>
        <path class="cls-2" d="M161.07,40c-1.05.75-2.52.54-3.27-.49-.77-1.01-.58-2.47.43-3.28,1.01-.8,2.5-.6,3.31.46.79,1.07.58,2.56-.47,3.31Z"/>
      </g>
      <g>
        <path class="cls-1" d="M163.84,48.34l1.2,1.98c.4.66.78,1.33,1.17,2l4.07-2.33c-.4-.69-.8-1.39-1.21-2.07l-1.25-2.05-3.98,2.48Z"/>
        <path class="cls-2" d="M168.25,51.15c-1.13.64-2.55.26-3.2-.84-.66-1.09-.31-2.53.79-3.22,1.1-.69,2.55-.32,3.24.81.68,1.14.3,2.6-.82,3.24Z"/>
      </g>
      <g>
        <path class="cls-1" d="M170.16,59.74c.35.69.67,1.39,1.01,2.09l.5,1.05.48,1.06,4.27-1.93-.49-1.09-.51-1.08c-.35-.72-.68-1.45-1.04-2.16l-4.21,2.07Z"/>
        <path class="cls-2" d="M174.27,62.97c-1.18.53-2.55,0-3.11-1.14-.27-.58-.29-1.22-.09-1.78.19-.56.6-1.06,1.18-1.34.58-.29,1.22-.31,1.8-.11.57.2,1.06.63,1.34,1.23.58,1.2.05,2.61-1.13,3.14Z"/>
      </g>
      <g>
        <path class="cls-1" d="M175.38,71.7c.27.73.56,1.45.82,2.17l.78,2.19,4.43-1.54-.81-2.26c-.27-.75-.56-1.49-.84-2.24l-4.38,1.68Z"/>
        <path class="cls-2" d="M179.19,75.29c-1.22.42-2.57-.21-3-1.42-.44-1.2.16-2.55,1.37-3.01,1.2-.47,2.57.16,3.03,1.4.45,1.25-.18,2.6-1.41,3.03Z"/>
      </g>
      <g>
        <path class="cls-1" d="M179.53,84.09c.22.74.42,1.49.63,2.24.2.75.41,1.49.6,2.25l4.54-1.17c-.19-.77-.41-1.54-.62-2.31-.21-.77-.42-1.54-.65-2.3l-4.5,1.3Z"/>
        <path class="cls-2" d="M183.03,87.99c-1.25.32-2.52-.43-2.87-1.66-.17-.62-.07-1.25.22-1.77.29-.52.78-.94,1.4-1.12.62-.18,1.26-.09,1.79.21.53.3.93.81,1.11,1.44.36,1.28-.4,2.58-1.65,2.9Z"/>
      </g>
      <g>
        <path class="cls-1" d="M182.66,96.78c.29,1.52.6,3.04.86,4.57l4.62-.81c-.26-1.57-.58-3.14-.88-4.7l-4.59.94Z"/>
        <path class="cls-2" d="M185.83,100.95c-1.28.22-2.48-.63-2.72-1.89-.25-1.26.58-2.49,1.85-2.75,1.27-.26,2.5.58,2.75,1.88.25,1.3-.61,2.54-1.88,2.76Z"/>
      </g>
      <g>
        <polygon class="cls-1" points="184.77 109.7 185.04 112.01 185.28 114.32 189.95 113.87 189.7 111.49 189.42 109.12 184.77 109.7"/>
        <path class="cls-2" d="M187.61,114.1c-1.29.12-2.44-.81-2.57-2.09-.15-1.27.77-2.44,2.05-2.6,1.28-.16,2.45.77,2.61,2.08.14,1.32-.8,2.48-2.09,2.61Z"/>
      </g>
      <g>
        <polygon class="cls-1" points="185.9 122.74 186 125.07 186.07 127.39 190.75 127.28 190.69 124.89 190.58 122.51 185.9 122.74"/>
        <path class="cls-2" d="M188.41,127.34c-1.29.03-2.37-.99-2.41-2.27-.06-1.28.94-2.38,2.24-2.44,1.29-.07,2.39.95,2.45,2.27.04,1.32-.98,2.42-2.28,2.44Z"/>
      </g>
    </g>
  </g>
</svg>