<?xml version="1.0" encoding="UTF-8"?>
<svg id="Layer_2" data-name="Layer 2" xmlns="http://www.w3.org/2000/svg" viewBox="0 0 178.97 161.72">
  <defs>
    <style>
      .cls-1 {
        fill: none;
      }

      .cls-1, .cls-2 {
        stroke-width: 0px;
      }

      .cls-2 {
        fill: #191919;
        fill-rule: evenodd;
      }
    </style>
  </defs>
  <g id="_ÎÓÈ_1" data-name="—ÎÓÈ_1">
    <g>
      <g>
        <rect class="cls-1" x="7.53" y="158.88" width="2.87" height="2.79" transform="translate(-1.02 .06) rotate(-.37)"/>
        <path class="cls-2" d="M10.39,160.26c0,.77-.63,1.4-1.42,1.4-.79,0-1.44-.62-1.44-1.39,0-.77.63-1.4,1.42-1.4.79,0,1.44.62,1.44,1.39Z"/>
      </g>
      <g>
        <rect class="cls-1" x="15.59" y="158.83" width="2.87" height="2.79" transform="translate(-1.02 .11) rotate(-.37)"/>
        <path class="cls-2" d="M18.45,160.21c0,.77-.63,1.4-1.42,1.4-.79,0-1.44-.62-1.44-1.39,0-.77.63-1.4,1.42-1.4.79,0,1.44.62,1.44,1.39Z"/>
      </g>
      <g>
        <rect class="cls-1" x="23.64" y="158.77" width="2.87" height="2.79" transform="translate(-1.02 .16) rotate(-.37)"/>
        <path class="cls-2" d="M26.51,160.16c0,.77-.63,1.4-1.42,1.4-.79,0-1.44-.62-1.44-1.39,0-.77.63-1.4,1.42-1.4s1.44.62,1.44,1.39Z"/>
      </g>
      <g>
        <rect class="cls-1" x="31.7" y="158.72" width="2.87" height="2.79" transform="translate(-1.02 .21) rotate(-.37)"/>
        <path class="cls-2" d="M34.57,160.11c0,.77-.63,1.4-1.42,1.4-.79,0-1.44-.62-1.44-1.39,0-.77.63-1.4,1.42-1.4s1.44.62,1.44,1.39Z"/>
      </g>
      <g>
        <rect class="cls-1" x="39.76" y="158.67" width="2.87" height="2.79" transform="translate(-1.02 .27) rotate(-.37)"/>
        <path class="cls-2" d="M42.62,160.06c0,.77-.63,1.4-1.42,1.4-.79,0-1.44-.62-1.44-1.39,0-.77.63-1.4,1.42-1.4.79,0,1.44.62,1.44,1.39Z"/>
      </g>
      <g>
        <rect class="cls-1" x="47.82" y="158.62" width="2.87" height="2.79" transform="translate(-1.02 .32) rotate(-.37)"/>
        <path class="cls-2" d="M50.68,160.01c0,.77-.63,1.4-1.42,1.4-.79,0-1.44-.62-1.44-1.39,0-.77.63-1.4,1.42-1.4s1.44.62,1.44,1.39Z"/>
      </g>
      <g>
        <rect class="cls-1" x="55.88" y="158.57" width="2.87" height="2.79" transform="translate(-1.02 .37) rotate(-.37)"/>
        <path class="cls-2" d="M58.74,159.96c0,.77-.63,1.4-1.42,1.4-.79,0-1.44-.62-1.44-1.39,0-.77.63-1.4,1.42-1.4s1.44.62,1.44,1.39Z"/>
      </g>
      <g>
        <rect class="cls-1" x="63.93" y="158.52" width="2.87" height="2.79" transform="translate(-1.02 .42) rotate(-.37)"/>
        <path class="cls-2" d="M66.8,159.9c0,.77-.63,1.4-1.42,1.4-.79,0-1.44-.62-1.44-1.39,0-.77.63-1.4,1.42-1.4.79,0,1.44.62,1.44,1.39Z"/>
      </g>
      <g>
        <rect class="cls-1" x="71.99" y="158.47" width="2.87" height="2.79" transform="translate(-1.02 .47) rotate(-.37)"/>
        <path class="cls-2" d="M74.86,159.85c0,.77-.63,1.4-1.42,1.4-.79,0-1.44-.62-1.44-1.39,0-.77.63-1.4,1.42-1.4.79,0,1.44.62,1.44,1.39Z"/>
      </g>
      <g>
        <rect class="cls-1" x="80.05" y="158.42" width="2.87" height="2.79" transform="translate(-1.02 .52) rotate(-.37)"/>
        <path class="cls-2" d="M82.91,159.8c0,.77-.63,1.4-1.42,1.4-.79,0-1.44-.62-1.44-1.39,0-.77.63-1.4,1.42-1.4.79,0,1.44.62,1.44,1.39Z"/>
      </g>
      <g>
        <rect class="cls-1" x="88.11" y="158.36" width="2.87" height="2.79" transform="translate(-1.02 .58) rotate(-.37)"/>
        <path class="cls-2" d="M90.97,159.75c0,.77-.63,1.4-1.42,1.4s-1.44-.62-1.44-1.39c0-.77.63-1.4,1.42-1.4s1.44.62,1.44,1.39Z"/>
      </g>
      <g>
        <rect class="cls-1" x="96.16" y="158.31" width="2.87" height="2.79" transform="translate(-1.02 .63) rotate(-.37)"/>
        <path class="cls-2" d="M99.03,159.7c0,.77-.63,1.4-1.42,1.4-.79,0-1.44-.62-1.44-1.39,0-.77.63-1.4,1.42-1.4.79,0,1.44.62,1.44,1.39Z"/>
      </g>
      <g>
        <rect class="cls-1" x="104.22" y="158.26" width="2.87" height="2.79" transform="translate(-1.01 .67) rotate(-.36)"/>
        <path class="cls-2" d="M107.09,159.65c0,.77-.63,1.4-1.42,1.4s-1.44-.62-1.44-1.39c0-.77.63-1.4,1.42-1.4.79,0,1.44.62,1.44,1.39Z"/>
      </g>
      <g>
        <rect class="cls-1" x="112.28" y="158.21" width="2.87" height="2.79" transform="translate(-1.01 .73) rotate(-.36)"/>
        <path class="cls-2" d="M115.15,159.6c0,.77-.63,1.4-1.42,1.4-.79,0-1.44-.62-1.44-1.39,0-.77.63-1.4,1.42-1.4.79,0,1.44.62,1.44,1.39Z"/>
      </g>
      <g>
        <rect class="cls-1" x="120.34" y="158.16" width="2.87" height="2.79" transform="translate(-1.01 .78) rotate(-.36)"/>
        <path class="cls-2" d="M123.2,159.54c0,.77-.63,1.4-1.42,1.4s-1.44-.62-1.44-1.39c0-.77.63-1.4,1.42-1.4.79,0,1.44.62,1.44,1.39Z"/>
      </g>
      <g>
        <rect class="cls-1" x="127.68" y="152.93" width="2.73" height="2.79" transform="translate(-56.85 231.2) rotate(-72.57)"/>
        <path class="cls-2" d="M129.45,153.02c.73.23,1.15,1,.92,1.72-.23.72-1,1.11-1.74.88-.73-.23-1.15-1-.92-1.72.23-.72,1-1.11,1.74-.88Z"/>
      </g>
      <g>
        <rect class="cls-1" x="129.98" y="145.61" width="2.73" height="2.79" transform="translate(-48.26 228.26) rotate(-72.56)"/>
        <path class="cls-2" d="M131.75,145.7c.73.23,1.15,1,.92,1.72-.23.72-1,1.11-1.74.88-.73-.23-1.15-1-.92-1.72.23-.72,1-1.11,1.74-.88Z"/>
      </g>
      <g>
        <rect class="cls-1" x="132.27" y="138.29" width="2.73" height="2.79" transform="translate(-39.67 225.33) rotate(-72.57)"/>
        <path class="cls-2" d="M134.05,138.38c.73.23,1.15,1,.92,1.72-.23.72-1,1.11-1.74.88-.73-.23-1.15-1-.92-1.72.23-.72,1-1.11,1.74-.88Z"/>
      </g>
      <g>
        <rect class="cls-1" x="134.57" y="130.97" width="2.73" height="2.79" transform="translate(-31.08 222.4) rotate(-72.57)"/>
        <path class="cls-2" d="M136.35,131.07c.73.23,1.15,1,.92,1.72-.23.72-1,1.11-1.74.88-.73-.23-1.15-1-.92-1.72.23-.72,1-1.11,1.74-.88Z"/>
      </g>
      <g>
        <rect class="cls-1" x="136.87" y="123.65" width="2.73" height="2.79" transform="translate(-22.48 219.47) rotate(-72.57)"/>
        <path class="cls-2" d="M138.64,123.75c.73.23,1.15,1,.92,1.72-.23.72-1,1.11-1.74.88-.73-.23-1.15-1-.92-1.72.23-.72,1-1.11,1.74-.88Z"/>
      </g>
      <g>
        <rect class="cls-1" x="139.17" y="116.34" width="2.73" height="2.79" transform="translate(-13.89 216.54) rotate(-72.57)"/>
        <path class="cls-2" d="M140.94,116.43c.73.23,1.15,1,.92,1.72-.23.72-1,1.11-1.74.88s-1.15-1-.92-1.72c.23-.72,1-1.11,1.74-.88Z"/>
      </g>
      <g>
        <rect class="cls-1" x="141.47" y="109.02" width="2.73" height="2.79" transform="translate(-5.3 213.6) rotate(-72.57)"/>
        <path class="cls-2" d="M143.24,109.11c.73.23,1.15,1,.92,1.72-.23.72-1,1.11-1.74.88-.73-.23-1.15-1-.92-1.72.23-.72,1-1.11,1.74-.88Z"/>
      </g>
      <g>
        <rect class="cls-1" x="143.77" y="101.7" width="2.73" height="2.79" transform="translate(3.29 210.67) rotate(-72.57)"/>
        <path class="cls-2" d="M145.54,101.79c.73.23,1.15,1,.92,1.72-.23.72-1,1.11-1.74.88-.73-.23-1.15-1-.92-1.72.23-.72,1-1.11,1.74-.88Z"/>
      </g>
      <g>
        <rect class="cls-1" x="146.06" y="94.38" width="2.73" height="2.79" transform="translate(11.88 207.73) rotate(-72.57)"/>
        <path class="cls-2" d="M147.84,94.47c.73.23,1.15,1,.92,1.72-.23.72-1,1.11-1.74.88-.73-.23-1.15-1-.92-1.72.23-.72,1-1.11,1.74-.88Z"/>
      </g>
      <g>
        <rect class="cls-1" x="148.36" y="87.06" width="2.73" height="2.79" transform="translate(20.47 204.8) rotate(-72.57)"/>
        <path class="cls-2" d="M150.13,87.16c.73.23,1.15,1,.92,1.72-.23.72-1,1.11-1.74.88-.73-.23-1.15-1-.92-1.72.23-.72,1-1.11,1.74-.88Z"/>
      </g>
      <g>
        <rect class="cls-1" x="150.66" y="79.74" width="2.73" height="2.79" transform="translate(29.06 201.87) rotate(-72.56)"/>
        <path class="cls-2" d="M152.43,79.84c.73.23,1.15,1,.92,1.72-.23.72-1,1.11-1.74.88-.73-.23-1.15-1-.92-1.72.23-.72,1-1.11,1.74-.88Z"/>
      </g>
      <g>
        <rect class="cls-1" x="152.96" y="72.43" width="2.73" height="2.79" transform="translate(37.66 198.94) rotate(-72.57)"/>
        <path class="cls-2" d="M154.73,72.52c.73.23,1.15,1,.92,1.72-.23.72-1,1.11-1.74.88-.73-.23-1.15-1-.92-1.72.23-.72,1-1.11,1.74-.88Z"/>
      </g>
      <g>
        <rect class="cls-1" x="155.26" y="65.11" width="2.73" height="2.79" transform="translate(46.25 196.01) rotate(-72.57)"/>
        <path class="cls-2" d="M157.03,65.2c.73.23,1.15,1,.92,1.72-.23.72-1,1.11-1.74.88-.73-.23-1.15-1-.92-1.72.23-.72,1-1.11,1.74-.88Z"/>
      </g>
      <g>
        <rect class="cls-1" x="157.56" y="57.79" width="2.73" height="2.79" transform="translate(54.84 193.07) rotate(-72.56)"/>
        <path class="cls-2" d="M159.33,57.88c.73.23,1.15,1,.92,1.72-.23.72-1,1.11-1.74.88-.73-.23-1.15-1-.92-1.72.23-.72,1-1.11,1.74-.88Z"/>
      </g>
      <g>
        <rect class="cls-1" x="159.85" y="50.47" width="2.73" height="2.79" transform="translate(63.43 190.13) rotate(-72.56)"/>
        <path class="cls-2" d="M161.63,50.56c.73.23,1.15,1,.92,1.72-.23.72-1,1.11-1.74.88-.73-.23-1.15-1-.92-1.72.23-.72,1-1.11,1.74-.88Z"/>
      </g>
      <g>
        <rect class="cls-1" x="162.15" y="43.15" width="2.73" height="2.79" transform="translate(72.02 187.2) rotate(-72.57)"/>
        <path class="cls-2" d="M163.92,43.25c.73.23,1.15,1,.92,1.72-.23.72-1,1.11-1.74.88-.73-.23-1.15-1-.92-1.72.23-.72,1-1.11,1.74-.88Z"/>
      </g>
      <g>
        <rect class="cls-1" x="164.45" y="35.83" width="2.73" height="2.79" transform="translate(80.62 184.27) rotate(-72.57)"/>
        <path class="cls-2" d="M166.22,35.93c.73.23,1.15,1,.92,1.72-.23.72-1,1.11-1.74.88-.73-.23-1.15-1-.92-1.72.23-.72,1-1.11,1.74-.88Z"/>
      </g>
      <g>
        <rect class="cls-1" x="166.75" y="28.52" width="2.73" height="2.79" transform="translate(89.21 181.34) rotate(-72.57)"/>
        <path class="cls-2" d="M168.52,28.61c.73.23,1.15,1,.92,1.72-.23.72-1,1.11-1.74.88s-1.15-1-.92-1.72c.23-.72,1-1.11,1.74-.88Z"/>
      </g>
      <g>
        <rect class="cls-1" x="169.05" y="21.2" width="2.73" height="2.79" transform="translate(97.8 178.41) rotate(-72.57)"/>
        <path class="cls-2" d="M170.82,21.29c.73.23,1.15,1,.92,1.72-.23.72-1,1.11-1.74.88s-1.15-1-.92-1.72c.23-.72,1-1.11,1.74-.88Z"/>
      </g>
      <g>
        <rect class="cls-1" x="171.34" y="13.88" width="2.73" height="2.79" transform="translate(106.4 175.47) rotate(-72.57)"/>
        <path class="cls-2" d="M173.12,13.97c.73.23,1.15,1,.92,1.72-.23.72-1,1.11-1.74.88-.73-.23-1.15-1-.92-1.72.23-.72,1-1.11,1.74-.88Z"/>
      </g>
      <g>
        <rect class="cls-1" x="173.64" y="6.56" width="2.73" height="2.79" transform="translate(114.98 172.54) rotate(-72.57)"/>
        <path class="cls-2" d="M175.42,6.65c.73.23,1.15,1,.92,1.72-.23.72-1,1.11-1.74.88-.73-.23-1.15-1-.92-1.72.23-.72,1-1.11,1.74-.88Z"/>
      </g>
      <g>
        <rect class="cls-1" x="168.57" y=".06" width="2.87" height="2.79" transform="translate(0 1.09) rotate(-.37)"/>
        <path class="cls-2" d="M168.57,1.46c0-.77.63-1.4,1.42-1.4.79,0,1.44.62,1.44,1.39s-.63,1.4-1.42,1.4c-.79,0-1.44-.62-1.44-1.39Z"/>
      </g>
      <g>
        <rect class="cls-1" x="160.52" y=".11" width="2.87" height="2.79" transform="translate(0 1.03) rotate(-.37)"/>
        <path class="cls-2" d="M160.52,1.51c0-.77.63-1.4,1.42-1.4.79,0,1.44.62,1.44,1.39s-.63,1.4-1.42,1.4c-.79,0-1.44-.62-1.44-1.39Z"/>
      </g>
      <g>
        <rect class="cls-1" x="152.46" y=".16" width="2.87" height="2.79" transform="translate(0 .98) rotate(-.37)"/>
        <path class="cls-2" d="M152.46,1.56c0-.77.63-1.4,1.42-1.4.79,0,1.44.62,1.44,1.39s-.63,1.4-1.42,1.4-1.44-.62-1.44-1.39Z"/>
      </g>
      <g>
        <rect class="cls-1" x="144.4" y=".21" width="2.87" height="2.79" transform="translate(0 .93) rotate(-.37)"/>
        <path class="cls-2" d="M144.4,1.61c0-.77.63-1.4,1.42-1.4.79,0,1.44.62,1.44,1.39s-.63,1.4-1.42,1.4-1.44-.62-1.44-1.39Z"/>
      </g>
      <g>
        <rect class="cls-1" x="136.34" y=".26" width="2.87" height="2.79" transform="translate(0 .88) rotate(-.37)"/>
        <path class="cls-2" d="M136.34,1.67c0-.77.63-1.4,1.42-1.4.79,0,1.44.62,1.44,1.39s-.63,1.4-1.42,1.4c-.79,0-1.44-.62-1.44-1.39Z"/>
      </g>
      <g>
        <rect class="cls-1" x="128.28" y=".31" width="2.87" height="2.79" transform="translate(0 .83) rotate(-.37)"/>
        <path class="cls-2" d="M128.28,1.72c0-.77.63-1.4,1.42-1.4.79,0,1.44.62,1.44,1.39s-.63,1.4-1.42,1.4c-.79,0-1.44-.62-1.44-1.39Z"/>
      </g>
      <g>
        <rect class="cls-1" x="120.23" y=".36" width="2.87" height="2.79" transform="translate(0 .78) rotate(-.37)"/>
        <path class="cls-2" d="M120.23,1.77c0-.77.63-1.4,1.42-1.4.79,0,1.44.62,1.44,1.39,0,.77-.63,1.4-1.42,1.4-.79,0-1.44-.62-1.44-1.39Z"/>
      </g>
      <g>
        <rect class="cls-1" x="112.17" y=".42" width="2.87" height="2.79" transform="translate(0 .73) rotate(-.37)"/>
        <path class="cls-2" d="M112.17,1.82c0-.77.63-1.4,1.42-1.4.79,0,1.44.62,1.44,1.39s-.63,1.4-1.42,1.4c-.79,0-1.44-.62-1.44-1.39Z"/>
      </g>
      <g>
        <rect class="cls-1" x="104.11" y=".47" width="2.87" height="2.79" transform="translate(0 .67) rotate(-.37)"/>
        <path class="cls-2" d="M104.11,1.87c0-.77.63-1.4,1.42-1.4.79,0,1.44.62,1.44,1.39,0,.77-.63,1.4-1.42,1.4-.79,0-1.44-.62-1.44-1.39Z"/>
      </g>
      <g>
        <rect class="cls-1" x="96.05" y=".52" width="2.87" height="2.79" transform="translate(-.01 .62) rotate(-.37)"/>
        <path class="cls-2" d="M96.05,1.92c0-.77.63-1.4,1.42-1.4.79,0,1.44.62,1.44,1.39,0,.77-.63,1.4-1.42,1.4s-1.44-.62-1.44-1.39Z"/>
      </g>
      <g>
        <rect class="cls-1" x="87.99" y=".57" width="2.87" height="2.79" transform="translate(-.01 .57) rotate(-.37)"/>
        <path class="cls-2" d="M87.99,1.97c0-.77.63-1.4,1.42-1.4.79,0,1.44.62,1.44,1.39,0,.77-.63,1.4-1.42,1.4-.79,0-1.44-.62-1.44-1.39Z"/>
      </g>
      <g>
        <rect class="cls-1" x="79.94" y=".62" width="2.87" height="2.79" transform="translate(-.01 .52) rotate(-.37)"/>
        <path class="cls-2" d="M79.94,2.03c0-.77.63-1.4,1.42-1.4.79,0,1.44.62,1.44,1.39,0,.77-.63,1.4-1.42,1.4-.79,0-1.44-.62-1.44-1.39Z"/>
      </g>
      <g>
        <rect class="cls-1" x="71.88" y=".67" width="2.87" height="2.79" transform="translate(-.01 .47) rotate(-.37)"/>
        <path class="cls-2" d="M71.88,2.08c0-.77.63-1.4,1.42-1.4.79,0,1.44.62,1.44,1.39,0,.77-.63,1.4-1.42,1.4-.79,0-1.44-.62-1.44-1.39Z"/>
      </g>
      <g>
        <rect class="cls-1" x="63.82" y=".72" width="2.87" height="2.79" transform="translate(-.01 .42) rotate(-.37)"/>
        <path class="cls-2" d="M63.82,2.13c0-.77.63-1.4,1.42-1.4.79,0,1.44.62,1.44,1.39,0,.77-.63,1.4-1.42,1.4-.79,0-1.44-.62-1.44-1.39Z"/>
      </g>
      <g>
        <rect class="cls-1" x="55.76" y=".78" width="2.87" height="2.79" transform="translate(-.01 .36) rotate(-.36)"/>
        <path class="cls-2" d="M55.76,2.18c0-.77.63-1.4,1.42-1.4.79,0,1.44.62,1.44,1.39,0,.77-.63,1.4-1.42,1.4-.79,0-1.44-.62-1.44-1.39Z"/>
      </g>
      <g>
        <rect class="cls-1" x="48.56" y="6.01" width="2.73" height="2.79" transform="translate(27.9 52.81) rotate(-72.57)"/>
        <path class="cls-2" d="M49.52,8.7c-.73-.23-1.15-1-.92-1.72.23-.72,1-1.11,1.74-.88.73.23,1.15,1,.92,1.72-.23.72-1,1.11-1.74.88Z"/>
      </g>
      <g>
        <rect class="cls-1" x="46.26" y="13.32" width="2.73" height="2.79" transform="translate(19.31 55.75) rotate(-72.57)"/>
        <path class="cls-2" d="M47.22,16.02c-.73-.23-1.15-1-.92-1.72.23-.72,1-1.11,1.74-.88.73.23,1.15,1,.92,1.72-.23.72-1,1.11-1.74.88Z"/>
      </g>
      <g>
        <rect class="cls-1" x="43.96" y="20.64" width="2.73" height="2.79" transform="translate(10.72 58.68) rotate(-72.57)"/>
        <path class="cls-2" d="M44.92,23.34c-.73-.23-1.15-1-.92-1.72.23-.72,1-1.11,1.74-.88.73.23,1.15,1,.92,1.72-.23.72-1,1.11-1.74.88Z"/>
      </g>
      <g>
        <rect class="cls-1" x="41.67" y="27.96" width="2.73" height="2.79" transform="translate(2.13 61.61) rotate(-72.56)"/>
        <path class="cls-2" d="M42.62,30.66c-.73-.23-1.15-1-.92-1.72.23-.72,1-1.11,1.74-.88.73.23,1.15,1,.92,1.72-.23.72-1,1.11-1.74.88Z"/>
      </g>
      <g>
        <rect class="cls-1" x="39.37" y="35.28" width="2.73" height="2.79" transform="translate(-6.46 64.55) rotate(-72.57)"/>
        <path class="cls-2" d="M40.32,37.98c-.73-.23-1.15-1-.92-1.72.23-.72,1-1.11,1.74-.88.73.23,1.15,1,.92,1.72-.23.72-1,1.11-1.74.88Z"/>
      </g>
      <g>
        <rect class="cls-1" x="37.07" y="42.6" width="2.73" height="2.79" transform="translate(-15.05 67.48) rotate(-72.57)"/>
        <path class="cls-2" d="M38.02,45.29c-.73-.23-1.15-1-.92-1.72.23-.72,1-1.11,1.74-.88.73.23,1.15,1,.92,1.72-.23.72-1,1.11-1.74.88Z"/>
      </g>
      <g>
        <rect class="cls-1" x="34.77" y="49.92" width="2.73" height="2.79" transform="translate(-23.65 70.41) rotate(-72.57)"/>
        <path class="cls-2" d="M35.73,52.61c-.73-.23-1.15-1-.92-1.72.23-.72,1-1.11,1.74-.88.73.23,1.15,1,.92,1.72-.23.72-1,1.11-1.74.88Z"/>
      </g>
      <g>
        <rect class="cls-1" x="32.47" y="57.24" width="2.73" height="2.79" transform="translate(-32.24 73.35) rotate(-72.57)"/>
        <path class="cls-2" d="M33.43,59.93c-.73-.23-1.15-1-.92-1.72.23-.72,1-1.11,1.74-.88s1.15,1,.92,1.72c-.23.72-1,1.11-1.74.88Z"/>
      </g>
      <g>
        <rect class="cls-1" x="30.17" y="64.55" width="2.73" height="2.79" transform="translate(-40.83 76.28) rotate(-72.57)"/>
        <path class="cls-2" d="M31.13,67.25c-.73-.23-1.15-1-.92-1.72.23-.72,1-1.11,1.74-.88.73.23,1.15,1,.92,1.72-.23.72-1,1.11-1.74.88Z"/>
      </g>
      <g>
        <rect class="cls-1" x="27.88" y="71.87" width="2.73" height="2.79" transform="translate(-49.42 79.21) rotate(-72.57)"/>
        <path class="cls-2" d="M28.83,74.57c-.73-.23-1.15-1-.92-1.72.23-.72,1-1.11,1.74-.88.73.23,1.15,1,.92,1.72-.23.72-1,1.11-1.74.88Z"/>
      </g>
      <g>
        <rect class="cls-1" x="25.58" y="79.19" width="2.73" height="2.79" transform="translate(-58.01 82.15) rotate(-72.57)"/>
        <path class="cls-2" d="M26.53,81.89c-.73-.23-1.15-1-.92-1.72.23-.72,1-1.11,1.74-.88.73.23,1.15,1,.92,1.72-.23.72-1,1.11-1.74.88Z"/>
      </g>
      <g>
        <rect class="cls-1" x="23.28" y="86.51" width="2.73" height="2.79" transform="translate(-66.61 85.08) rotate(-72.57)"/>
        <path class="cls-2" d="M24.24,89.2c-.73-.23-1.15-1-.92-1.72.23-.72,1-1.11,1.74-.88.73.23,1.15,1,.92,1.72-.23.72-1,1.11-1.74.88Z"/>
      </g>
      <g>
        <rect class="cls-1" x="20.98" y="93.83" width="2.73" height="2.79" transform="translate(-75.2 88.01) rotate(-72.57)"/>
        <path class="cls-2" d="M21.94,96.52c-.73-.23-1.15-1-.92-1.72.23-.72,1-1.11,1.74-.88.73.23,1.15,1,.92,1.72-.23.72-1,1.11-1.74.88Z"/>
      </g>
      <g>
        <rect class="cls-1" x="18.68" y="101.15" width="2.73" height="2.79" transform="translate(-83.79 90.95) rotate(-72.57)"/>
        <path class="cls-2" d="M19.64,103.84c-.73-.23-1.15-1-.92-1.72.23-.72,1-1.11,1.74-.88s1.15,1,.92,1.72c-.23.72-1,1.11-1.74.88Z"/>
      </g>
      <g>
        <rect class="cls-1" x="16.38" y="108.46" width="2.73" height="2.79" transform="translate(-92.38 93.88) rotate(-72.57)"/>
        <path class="cls-2" d="M17.34,111.16c-.73-.23-1.15-1-.92-1.72.23-.72,1-1.11,1.74-.88.73.23,1.15,1,.92,1.72-.23.72-1,1.11-1.74.88Z"/>
      </g>
      <g>
        <rect class="cls-1" x="14.09" y="115.78" width="2.73" height="2.79" transform="translate(-100.97 96.81) rotate(-72.57)"/>
        <path class="cls-2" d="M15.04,118.48c-.73-.23-1.15-1-.92-1.72.23-.72,1-1.11,1.74-.88.73.23,1.15,1,.92,1.72-.23.72-1,1.11-1.74.88Z"/>
      </g>
      <g>
        <rect class="cls-1" x="11.79" y="123.1" width="2.73" height="2.79" transform="translate(-109.56 99.75) rotate(-72.57)"/>
        <path class="cls-2" d="M12.74,125.8c-.73-.23-1.15-1-.92-1.72.23-.72,1-1.11,1.74-.88.73.23,1.15,1,.92,1.72-.23.72-1,1.11-1.74.88Z"/>
      </g>
      <g>
        <rect class="cls-1" x="9.49" y="130.42" width="2.73" height="2.79" transform="translate(-118.16 102.67) rotate(-72.56)"/>
        <path class="cls-2" d="M10.45,133.12c-.73-.23-1.15-1-.92-1.72.23-.72,1-1.11,1.74-.88.73.23,1.15,1,.92,1.72-.23.72-1,1.11-1.74.88Z"/>
      </g>
      <g>
        <rect class="cls-1" x="7.19" y="137.74" width="2.73" height="2.79" transform="translate(-126.75 105.61) rotate(-72.57)"/>
        <path class="cls-2" d="M8.15,140.43c-.73-.23-1.15-1-.92-1.72.23-.72,1-1.11,1.74-.88.73.23,1.15,1,.92,1.72-.23.72-1,1.11-1.74.88Z"/>
      </g>
      <g>
        <rect class="cls-1" x="4.89" y="145.06" width="2.73" height="2.79" transform="translate(-135.34 108.54) rotate(-72.57)"/>
        <path class="cls-2" d="M5.85,147.75c-.73-.23-1.15-1-.92-1.72.23-.72,1-1.11,1.74-.88.73.23,1.15,1,.92,1.72-.23.72-1,1.11-1.74.88Z"/>
      </g>
      <g>
        <rect class="cls-1" x="2.6" y="152.37" width="2.73" height="2.79" transform="translate(-143.93 111.48) rotate(-72.57)"/>
        <path class="cls-2" d="M3.55,155.07c-.73-.23-1.15-1-.92-1.72.23-.72,1-1.11,1.74-.88s1.15,1,.92,1.72c-.23.72-1,1.11-1.74.88Z"/>
      </g>
      <g>
        <polygon class="cls-1" points="126.4 160.92 126.39 158.13 129.05 158.97 128.44 160.91 126.4 160.92"/>
        <polygon class="cls-2" points="127.72 158.55 127.65 158.53 127.58 158.51 127.51 158.5 127.44 158.48 127.37 158.47 127.31 158.47 127.24 158.46 127.17 158.46 127.11 158.46 127.04 158.47 126.98 158.47 126.92 158.48 126.86 158.49 126.8 158.5 126.74 158.52 126.69 158.54 126.65 158.59 126.62 158.64 126.59 158.69 126.56 158.74 126.54 158.8 126.51 158.86 126.49 158.92 126.47 158.98 126.45 159.04 126.44 159.11 126.42 159.18 126.41 159.24 126.4 159.31 126.4 159.38 126.39 159.45 126.39 159.52 126.4 159.6 126.4 159.67 126.41 159.74 126.42 159.81 126.43 159.87 126.44 159.94 126.46 160 126.48 160.07 126.5 160.13 126.52 160.19 126.55 160.25 126.57 160.3 126.6 160.36 126.63 160.41 126.66 160.46 126.7 160.51 126.73 160.55 126.77 160.6 126.81 160.64 126.85 160.68 126.89 160.71 126.93 160.75 126.98 160.78 127.02 160.81 127.07 160.83 127.12 160.85 127.17 160.87 127.21 160.89 127.26 160.9 127.32 160.91 127.37 160.91 127.42 160.91 127.47 160.91 127.52 160.9 127.57 160.9 127.62 160.88 127.67 160.87 127.72 160.85 127.77 160.83 127.81 160.8 127.86 160.77 127.9 160.74 127.95 160.71 127.99 160.67 128.03 160.63 128.06 160.59 128.1 160.55 128.14 160.5 128.19 160.48 128.24 160.46 128.29 160.43 128.34 160.41 128.39 160.38 128.44 160.35 128.48 160.32 128.52 160.28 128.56 160.24 128.59 160.21 128.62 160.17 128.65 160.12 128.68 160.08 128.7 160.03 128.72 159.99 128.74 159.94 128.76 159.89 128.77 159.83 128.77 159.78 128.78 159.73 128.78 159.68 128.77 159.63 128.77 159.58 128.76 159.53 128.74 159.47 128.73 159.42 128.71 159.37 128.68 159.32 128.66 159.27 128.63 159.22 128.6 159.17 128.57 159.13 128.53 159.08 128.49 159.04 128.45 158.99 128.41 158.95 128.36 158.9 128.31 158.86 128.26 158.82 128.21 158.79 128.15 158.75 128.1 158.72 128.04 158.68 127.98 158.65 127.91 158.62 127.85 158.6 127.78 158.57 127.72 158.55"/>
      </g>
      <g>
        <polygon class="cls-1" points="177.82 3.65 175.16 2.81 175.14 .02 178.97 0 177.82 3.65"/>
        <polygon class="cls-2" points="175.15 1.42 175.15 1.49 175.16 1.56 175.17 1.63 175.19 1.7 175.21 1.77 175.24 1.83 175.27 1.9 175.3 1.96 175.34 2.02 175.39 2.08 175.43 2.14 175.48 2.2 175.54 2.25 175.59 2.3 175.65 2.35 175.72 2.4 175.74 2.48 175.77 2.55 175.81 2.62 175.84 2.69 175.88 2.75 175.92 2.81 175.97 2.87 176.02 2.93 176.07 2.98 176.12 3.02 176.18 3.07 176.23 3.11 176.29 3.15 176.36 3.18 176.42 3.21 176.49 3.23 176.56 3.25 176.63 3.26 176.7 3.27 176.77 3.28 176.84 3.28 176.91 3.27 176.98 3.26 177.05 3.25 177.12 3.23 177.19 3.21 177.26 3.18 177.33 3.15 177.4 3.12 177.47 3.08 177.53 3.04 177.6 2.99 177.66 2.94 177.73 2.89 177.79 2.83 177.85 2.77 177.9 2.71 177.96 2.64 178.01 2.57 178.07 2.5 178.12 2.43 178.16 2.35 178.21 2.27 178.25 2.18 178.29 2.1 178.33 2.01 178.36 1.92 178.39 1.82 178.42 1.73 178.45 1.64 178.47 1.54 178.48 1.45 178.49 1.36 178.5 1.26 178.51 1.17 178.51 1.08 178.51 .99 178.51 .9 178.5 .82 178.49 .73 178.47 .65 178.45 .57 178.43 .49 178.41 .41 178.34 .37 178.27 .32 178.2 .28 178.12 .24 178.05 .21 177.97 .17 177.88 .14 177.8 .12 177.71 .09 177.62 .07 177.53 .05 177.44 .04 177.35 .03 177.25 .02 177.15 .01 177.05 .01 176.96 .01 176.86 .02 176.76 .03 176.67 .04 176.58 .06 176.49 .08 176.4 .1 176.31 .13 176.23 .15 176.14 .19 176.06 .22 175.99 .26 175.91 .3 175.84 .34 175.77 .38 175.7 .43 175.64 .48 175.58 .53 175.53 .58 175.47 .64 175.42 .69 175.38 .75 175.34 .81 175.3 .88 175.26 .94 175.23 1 175.21 1.07 175.19 1.14 175.17 1.21 175.16 1.28 175.15 1.35 175.15 1.42"/>
      </g>
      <g>
        <polygon class="cls-1" points="52.56 .8 52.58 3.59 49.92 2.76 50.53 .82 52.56 .8"/>
        <polygon class="cls-2" points="51.25 3.18 51.32 3.2 51.39 3.21 51.46 3.23 51.53 3.24 51.59 3.25 51.66 3.26 51.73 3.26 51.79 3.26 51.86 3.26 51.92 3.26 51.98 3.25 52.05 3.24 52.11 3.23 52.17 3.22 52.22 3.2 52.28 3.19 52.31 3.14 52.35 3.09 52.38 3.04 52.4 2.98 52.43 2.92 52.45 2.86 52.48 2.8 52.5 2.74 52.51 2.68 52.53 2.61 52.54 2.55 52.55 2.48 52.56 2.41 52.57 2.34 52.57 2.27 52.57 2.2 52.57 2.13 52.57 2.06 52.56 1.99 52.55 1.92 52.54 1.85 52.52 1.78 52.51 1.72 52.49 1.66 52.47 1.6 52.45 1.54 52.42 1.48 52.39 1.42 52.37 1.37 52.33 1.31 52.3 1.26 52.27 1.22 52.23 1.17 52.2 1.13 52.16 1.08 52.12 1.05 52.08 1.01 52.03 .98 51.99 .95 51.94 .92 51.9 .89 51.85 .87 51.8 .85 51.75 .84 51.7 .83 51.65 .82 51.6 .81 51.55 .81 51.49 .81 51.44 .82 51.39 .83 51.34 .84 51.29 .86 51.24 .88 51.2 .9 51.15 .92 51.11 .95 51.06 .98 51.02 1.02 50.98 1.05 50.94 1.09 50.9 1.13 50.87 1.18 50.83 1.22 50.78 1.24 50.72 1.27 50.67 1.29 50.62 1.32 50.58 1.35 50.53 1.38 50.49 1.41 50.45 1.44 50.41 1.48 50.38 1.52 50.34 1.56 50.31 1.6 50.29 1.64 50.26 1.69 50.24 1.74 50.23 1.79 50.21 1.84 50.2 1.89 50.19 1.94 50.19 1.99 50.19 2.04 50.19 2.1 50.2 2.15 50.21 2.2 50.22 2.25 50.24 2.3 50.26 2.35 50.28 2.4 50.31 2.45 50.34 2.5 50.37 2.55 50.4 2.6 50.44 2.64 50.47 2.69 50.52 2.73 50.56 2.78 50.61 2.82 50.65 2.86 50.7 2.9 50.76 2.94 50.81 2.97 50.87 3.01 50.93 3.04 50.99 3.07 51.05 3.1 51.12 3.13 51.18 3.15 51.25 3.18"/>
      </g>
      <g>
        <polygon class="cls-1" points="1.15 158.07 3.81 158.91 3.82 161.7 0 161.72 1.15 158.07"/>
        <polygon class="cls-2" points="3.82 160.3 3.81 160.23 3.81 160.16 3.79 160.09 3.78 160.02 3.75 159.96 3.73 159.89 3.7 159.83 3.66 159.76 3.62 159.7 3.58 159.64 3.53 159.58 3.48 159.53 3.43 159.47 3.37 159.42 3.31 159.37 3.25 159.32 3.22 159.25 3.19 159.17 3.16 159.11 3.12 159.04 3.08 158.97 3.04 158.91 3 158.85 2.95 158.8 2.9 158.75 2.85 158.7 2.79 158.65 2.73 158.61 2.67 158.58 2.61 158.54 2.54 158.52 2.48 158.49 2.41 158.47 2.34 158.46 2.27 158.45 2.2 158.45 2.13 158.45 2.06 158.45 1.98 158.46 1.91 158.47 1.84 158.49 1.77 158.51 1.7 158.54 1.63 158.57 1.57 158.61 1.5 158.64 1.43 158.69 1.37 158.73 1.3 158.78 1.24 158.83 1.18 158.89 1.12 158.95 1.06 159.01 1.01 159.08 .95 159.15 .9 159.22 .85 159.3 .8 159.38 .76 159.46 .72 159.54 .68 159.63 .64 159.71 .6 159.81 .57 159.9 .55 159.99 .52 160.09 .5 160.18 .48 160.28 .47 160.37 .46 160.46 .46 160.55 .45 160.64 .46 160.73 .46 160.82 .47 160.91 .48 160.99 .49 161.07 .51 161.16 .53 161.23 .56 161.31 .62 161.36 .69 161.4 .77 161.44 .84 161.48 .92 161.52 1 161.55 1.08 161.58 1.17 161.61 1.25 161.63 1.34 161.65 1.43 161.67 1.53 161.69 1.62 161.7 1.72 161.71 1.81 161.71 1.91 161.71 2.01 161.71 2.11 161.7 2.2 161.69 2.3 161.68 2.39 161.66 2.48 161.65 2.57 161.62 2.66 161.6 2.74 161.57 2.82 161.54 2.9 161.5 2.98 161.47 3.05 161.43 3.13 161.39 3.2 161.34 3.26 161.29 3.33 161.25 3.38 161.19 3.44 161.14 3.49 161.09 3.54 161.03 3.59 160.97 3.63 160.91 3.67 160.85 3.7 160.79 3.73 160.72 3.76 160.65 3.78 160.59 3.8 160.52 3.81 160.45 3.81 160.38 3.82 160.3"/>
      </g>
    </g>
  </g>
</svg>