<?xml version="1.0" encoding="UTF-8"?>
<svg id="Layer_2" data-name="Layer 2" xmlns="http://www.w3.org/2000/svg" viewBox="0 0 258.06 183.02">
  <defs>
    <style>
      .cls-1 {
        fill: none;
      }

      .cls-1, .cls-2, .cls-3 {
        stroke-width: 0px;
      }

      .cls-2 {
        fill-rule: evenodd;
      }

      .cls-2, .cls-3 {
        fill: #191919;
      }
    </style>
  </defs>
  <g id="_ÎÓÈ_1" data-name="—ÎÓÈ_1">
    <g>
      <g>
        <rect class="cls-1" x="192.41" y="165.38" width="4.69" height="4.69" transform="translate(-31.39 289.88) rotate(-69.11)"/>
        <path class="cls-2" d="M195.59,165.54c1.21.46,1.82,1.82,1.35,3.03-.46,1.21-1.82,1.82-3.03,1.35-1.21-.46-1.82-1.82-1.35-3.03.46-1.21,1.82-1.82,3.03-1.35Z"/>
      </g>
      <g>
        <rect class="cls-1" x="197.1" y="153.07" width="4.69" height="4.69" transform="translate(-16.86 286.35) rotate(-69.11)"/>
        <path class="cls-2" d="M200.28,153.22c1.21.46,1.82,1.82,1.35,3.03-.46,1.21-1.82,1.82-3.03,1.35-1.21-.46-1.82-1.82-1.35-3.03.46-1.21,1.82-1.82,3.03-1.35Z"/>
      </g>
      <g>
        <rect class="cls-1" x="201.8" y="140.75" width="4.69" height="4.69" transform="translate(-2.33 282.81) rotate(-69.11)"/>
        <path class="cls-2" d="M204.98,140.91c1.21.46,1.82,1.82,1.35,3.03-.46,1.21-1.82,1.82-3.03,1.35-1.21-.46-1.82-1.82-1.35-3.03.46-1.21,1.82-1.82,3.03-1.35Z"/>
      </g>
      <g>
        <rect class="cls-1" x="206.5" y="128.44" width="4.69" height="4.69" transform="translate(12.2 279.28) rotate(-69.11)"/>
        <path class="cls-2" d="M209.68,128.59c1.21.46,1.82,1.82,1.35,3.03s-1.82,1.82-3.03,1.35c-1.21-.46-1.82-1.82-1.35-3.03.46-1.21,1.82-1.82,3.03-1.35Z"/>
      </g>
      <g>
        <rect class="cls-1" x="211.2" y="116.12" width="4.69" height="4.69" transform="translate(26.73 275.75) rotate(-69.11)"/>
        <path class="cls-2" d="M214.38,116.28c1.21.46,1.82,1.82,1.35,3.03-.46,1.21-1.82,1.82-3.03,1.35-1.21-.46-1.82-1.82-1.35-3.03.46-1.21,1.82-1.82,3.03-1.35Z"/>
      </g>
      <g>
        <rect class="cls-1" x="215.9" y="103.81" width="4.69" height="4.69" transform="translate(41.26 272.21) rotate(-69.11)"/>
        <path class="cls-2" d="M219.08,103.97c1.21.46,1.82,1.82,1.35,3.03-.46,1.21-1.82,1.82-3.03,1.35-1.21-.46-1.82-1.82-1.35-3.03.46-1.21,1.82-1.82,3.03-1.35Z"/>
      </g>
      <g>
        <rect class="cls-1" x="220.6" y="91.5" width="4.69" height="4.69" transform="translate(55.79 268.68) rotate(-69.11)"/>
        <path class="cls-2" d="M223.78,91.65c1.21.46,1.82,1.82,1.35,3.03-.46,1.21-1.82,1.82-3.03,1.35-1.21-.46-1.82-1.82-1.35-3.03.46-1.21,1.82-1.82,3.03-1.35Z"/>
      </g>
      <g>
        <rect class="cls-1" x="225.3" y="79.18" width="4.69" height="4.69" transform="translate(70.31 265.14) rotate(-69.11)"/>
        <path class="cls-2" d="M228.48,79.34c1.21.46,1.82,1.82,1.35,3.03-.46,1.21-1.82,1.82-3.03,1.35-1.21-.46-1.82-1.82-1.35-3.03.46-1.21,1.82-1.82,3.03-1.35Z"/>
      </g>
      <g>
        <rect class="cls-1" x="230" y="66.87" width="4.69" height="4.69" transform="translate(84.84 261.61) rotate(-69.11)"/>
        <path class="cls-2" d="M233.18,67.02c1.21.46,1.82,1.82,1.35,3.03-.46,1.21-1.82,1.82-3.03,1.35-1.21-.46-1.82-1.82-1.35-3.03.46-1.21,1.82-1.82,3.03-1.35Z"/>
      </g>
      <g>
        <rect class="cls-1" x="234.7" y="54.55" width="4.69" height="4.69" transform="translate(99.37 258.08) rotate(-69.11)"/>
        <path class="cls-2" d="M237.88,54.71c1.21.46,1.82,1.82,1.35,3.03-.46,1.21-1.82,1.82-3.03,1.35-1.21-.46-1.82-1.82-1.35-3.03.46-1.21,1.82-1.82,3.03-1.35Z"/>
      </g>
      <g>
        <rect class="cls-1" x="239.39" y="42.24" width="4.69" height="4.69" transform="translate(113.9 254.54) rotate(-69.11)"/>
        <path class="cls-2" d="M242.57,42.4c1.21.46,1.82,1.82,1.35,3.03-.46,1.21-1.82,1.82-3.03,1.35-1.21-.46-1.82-1.82-1.35-3.03.46-1.21,1.82-1.82,3.03-1.35Z"/>
      </g>
      <g>
        <rect class="cls-1" x="244.09" y="29.93" width="4.69" height="4.69" transform="translate(128.43 251.01) rotate(-69.11)"/>
        <path class="cls-2" d="M247.27,30.08c1.21.46,1.82,1.82,1.35,3.03-.46,1.21-1.82,1.82-3.03,1.35-1.21-.46-1.82-1.82-1.35-3.03.46-1.21,1.82-1.82,3.03-1.35Z"/>
      </g>
      <g>
        <rect class="cls-1" x="248.79" y="17.61" width="4.69" height="4.69" transform="translate(142.96 247.48) rotate(-69.11)"/>
        <path class="cls-2" d="M251.97,17.77c1.21.46,1.82,1.82,1.35,3.03-.46,1.21-1.82,1.82-3.03,1.35-1.21-.46-1.82-1.82-1.35-3.03.46-1.21,1.82-1.82,3.03-1.35Z"/>
      </g>
      <g>
        <path class="cls-1" d="M257.19,10.67l.21-.55.05-.14.06-.18.12-.37.12-.37.09-.39c.05-.26.12-.51.14-.79.15-1.07.09-2.25-.31-3.4l-4.43,1.55c.12.33.16.75.09,1.23,0,.11-.05.24-.07.36l-.04.19-.07.19-.06.19-.03.1-.05.14-.21.55,4.38,1.67Z"/>
        <path class="cls-2" d="M255.46,5.28c.62-.22,1.26-.13,1.81.36.12.12.24.27.35.43.11.17.2.35.26.54.06.2.11.41.14.63.01.21,0,.43-.02.66-.02.23-.08.43-.16.63-.08.19-.16.38-.27.54-.22.31-.49.57-.77.72-.55.24-1.19.28-1.79.05-.6-.23-1.06-.68-1.3-1.23-.13-.26-.25-.47-.3-.7-.03-.11-.06-.22-.07-.32,0-.1,0-.21,0-.3,0-.1.04-.19.08-.28.03-.08.07-.17.13-.25.07-.09.13-.17.2-.25.07-.08.16-.17.26-.26.35-.33.86-.75,1.45-.96Z"/>
      </g>
      <g>
        <rect class="cls-1" x="243.5" width="4.69" height="4.69"/>
        <path class="cls-2" d="M243.5,2.34c0-1.29,1.05-2.34,2.34-2.34s2.34,1.05,2.34,2.34-1.05,2.34-2.34,2.34-2.34-1.05-2.34-2.34Z"/>
      </g>
      <g>
        <rect class="cls-1" x="230.32" width="4.69" height="4.69"/>
        <path class="cls-2" d="M230.32,2.34c0-1.29,1.05-2.34,2.34-2.34s2.34,1.05,2.34,2.34-1.05,2.34-2.34,2.34-2.34-1.05-2.34-2.34Z"/>
      </g>
      <g>
        <rect class="cls-1" x="217.14" width="4.69" height="4.69"/>
        <path class="cls-2" d="M217.14,2.34c0-1.29,1.05-2.34,2.34-2.34s2.34,1.05,2.34,2.34-1.05,2.34-2.34,2.34-2.34-1.05-2.34-2.34Z"/>
      </g>
      <g>
        <rect class="cls-1" x="203.96" width="4.69" height="4.69"/>
        <path class="cls-2" d="M203.96,2.34c0-1.29,1.05-2.34,2.34-2.34s2.34,1.05,2.34,2.34-1.05,2.34-2.34,2.34-2.34-1.05-2.34-2.34Z"/>
      </g>
      <g>
        <rect class="cls-1" x="190.78" width="4.69" height="4.69"/>
        <path class="cls-2" d="M190.78,2.34c0-1.29,1.05-2.34,2.34-2.34s2.34,1.05,2.34,2.34-1.05,2.34-2.34,2.34-2.34-1.05-2.34-2.34Z"/>
      </g>
      <g>
        <rect class="cls-1" x="177.6" width="4.69" height="4.69"/>
        <path class="cls-2" d="M177.6,2.34c0-1.29,1.05-2.34,2.34-2.34s2.34,1.05,2.34,2.34-1.05,2.34-2.34,2.34-2.34-1.05-2.34-2.34Z"/>
      </g>
      <g>
        <rect class="cls-1" x="164.42" width="4.69" height="4.69"/>
        <path class="cls-2" d="M164.42,2.34c0-1.29,1.05-2.34,2.34-2.34s2.34,1.05,2.34,2.34-1.05,2.34-2.34,2.34-2.34-1.05-2.34-2.34Z"/>
      </g>
      <g>
        <rect class="cls-1" x="151.24" width="4.69" height="4.69"/>
        <path class="cls-2" d="M151.24,2.34c0-1.29,1.05-2.34,2.34-2.34s2.34,1.05,2.34,2.34-1.05,2.34-2.34,2.34-2.34-1.05-2.34-2.34Z"/>
      </g>
      <g>
        <rect class="cls-1" x="138.06" width="4.69" height="4.69"/>
        <path class="cls-2" d="M138.06,2.34c0-1.29,1.05-2.34,2.34-2.34s2.34,1.05,2.34,2.34-1.05,2.34-2.34,2.34-2.34-1.05-2.34-2.34Z"/>
      </g>
      <g>
        <rect class="cls-1" x="124.88" width="4.69" height="4.69"/>
        <path class="cls-2" d="M124.88,2.34c0-1.29,1.05-2.34,2.34-2.34s2.34,1.05,2.34,2.34-1.05,2.34-2.34,2.34-2.34-1.05-2.34-2.34Z"/>
      </g>
      <g>
        <rect class="cls-1" x="111.7" width="4.69" height="4.69"/>
        <path class="cls-2" d="M111.7,2.34c0-1.29,1.05-2.34,2.34-2.34s2.34,1.05,2.34,2.34-1.05,2.34-2.34,2.34-2.34-1.05-2.34-2.34Z"/>
      </g>
      <g>
        <rect class="cls-1" x="98.52" width="4.69" height="4.69"/>
        <path class="cls-2" d="M98.52,2.34c0-1.29,1.05-2.34,2.34-2.34s2.34,1.05,2.34,2.34-1.05,2.34-2.34,2.34-2.34-1.05-2.34-2.34Z"/>
      </g>
      <g>
        <rect class="cls-1" x="85.34" width="4.69" height="4.69"/>
        <path class="cls-2" d="M85.34,2.34c0-1.29,1.05-2.34,2.34-2.34s2.34,1.05,2.34,2.34-1.05,2.34-2.34,2.34-2.34-1.05-2.34-2.34Z"/>
      </g>
      <g>
        <path class="cls-1" d="M76.85,0h-3s-.09,0-.09,0h-.19s-.38.03-.38.03c-.26,0-.5.04-.75.08-.24.04-.49.06-.73.12l.93,4.59c.14-.04.28-.05.43-.07.14-.02.28-.05.42-.04h.21s.1-.02.1-.02h.05s.07,0,.07,0h2.93V0Z"/>
        <path class="cls-2" d="M72.18,2.52c-.06-.32-.06-.63.02-.94.08-.3.23-.57.46-.82.22-.25.52-.44.88-.57.09-.03.18-.06.27-.09.1-.03.15-.04.24-.06.15-.03.31-.05.47-.05,1.29,0,2.34,1.05,2.34,2.34s-1.05,2.34-2.34,2.34c-.16,0-.32-.02-.47-.05-.07-.01-.16-.04-.21-.06-.05-.02-.1-.04-.16-.07-.21-.11-.41-.28-.61-.46-.2-.19-.38-.42-.54-.68-.15-.25-.28-.54-.34-.86Z"/>
      </g>
      <g>
        <path class="cls-1" d="M63.33,5.72c-.55.79-1.04,1.64-1.41,2.58l-.84,2.19,4.38,1.67.84-2.19c.21-.52.49-1.03.83-1.52l-3.81-2.73Z"/>
        <path class="cls-2" d="M63.28,11.33c-1.21-.46-1.82-1.82-1.35-3.03.17-.38.37-.73.64-.98.27-.25.56-.44.88-.54.63-.19,1.26-.09,1.79.3.52.38.86.93,1.03,1.44.08.26.15.52.15.76,0,.24,0,.47-.11.68-.46,1.21-1.82,1.82-3.03,1.35Z"/>
      </g>
      <g>
        <rect class="cls-1" x="57.07" y="19.11" width="4.69" height="4.69" transform="translate(18.19 69.31) rotate(-69.11)"/>
        <path class="cls-2" d="M58.58,23.64c-1.21-.46-1.82-1.82-1.35-3.03.46-1.21,1.82-1.82,3.03-1.35,1.21.46,1.82,1.82,1.35,3.03-.46,1.21-1.82,1.82-3.03,1.35Z"/>
      </g>
      <g>
        <rect class="cls-1" x="52.37" y="31.42" width="4.69" height="4.69" transform="translate(3.66 72.85) rotate(-69.11)"/>
        <path class="cls-2" d="M53.88,35.96c-1.21-.46-1.82-1.82-1.35-3.03.46-1.21,1.82-1.82,3.03-1.35,1.21.46,1.82,1.82,1.35,3.03-.46,1.21-1.82,1.82-3.03,1.35Z"/>
      </g>
      <g>
        <rect class="cls-1" x="47.67" y="43.74" width="4.69" height="4.69" transform="translate(-10.87 76.38) rotate(-69.11)"/>
        <path class="cls-2" d="M49.18,48.27c-1.21-.46-1.82-1.82-1.35-3.03.46-1.21,1.82-1.82,3.03-1.35,1.21.46,1.82,1.82,1.35,3.03-.46,1.21-1.82,1.82-3.03,1.35Z"/>
      </g>
      <g>
        <rect class="cls-1" x="42.97" y="56.05" width="4.69" height="4.69" transform="translate(-25.4 79.91) rotate(-69.11)"/>
        <path class="cls-2" d="M44.48,60.58c-1.21-.46-1.82-1.82-1.35-3.03.46-1.21,1.82-1.82,3.03-1.35,1.21.46,1.82,1.82,1.35,3.03-.46,1.21-1.82,1.82-3.03,1.35Z"/>
      </g>
      <g>
        <rect class="cls-1" x="38.27" y="68.36" width="4.69" height="4.69" transform="translate(-39.93 83.45) rotate(-69.11)"/>
        <path class="cls-2" d="M39.78,72.9c-1.21-.46-1.82-1.82-1.35-3.03.46-1.21,1.82-1.82,3.03-1.35,1.21.46,1.82,1.82,1.35,3.03-.46,1.21-1.82,1.82-3.03,1.35Z"/>
      </g>
      <g>
        <rect class="cls-1" x="33.57" y="80.68" width="4.69" height="4.69" transform="translate(-54.45 86.98) rotate(-69.11)"/>
        <path class="cls-2" d="M35.08,85.21c-1.21-.46-1.82-1.82-1.35-3.03.46-1.21,1.82-1.82,3.03-1.35,1.21.46,1.82,1.82,1.35,3.03-.46,1.21-1.82,1.82-3.03,1.35Z"/>
      </g>
      <g>
        <rect class="cls-1" x="28.88" y="92.99" width="4.69" height="4.69" transform="translate(-68.98 90.51) rotate(-69.11)"/>
        <path class="cls-2" d="M30.38,97.53c-1.21-.46-1.82-1.82-1.35-3.03.46-1.21,1.82-1.82,3.03-1.35,1.21.46,1.82,1.82,1.35,3.03-.46,1.21-1.82,1.82-3.03,1.35Z"/>
      </g>
      <g>
        <rect class="cls-1" x="24.18" y="105.31" width="4.69" height="4.69" transform="translate(-83.51 94.05) rotate(-69.11)"/>
        <path class="cls-2" d="M25.68,109.84c-1.21-.46-1.82-1.82-1.35-3.03.46-1.21,1.82-1.82,3.03-1.35,1.21.46,1.82,1.82,1.35,3.03-.46,1.21-1.82,1.82-3.03,1.35Z"/>
      </g>
      <g>
        <rect class="cls-1" x="19.48" y="117.62" width="4.69" height="4.69" transform="translate(-98.04 97.58) rotate(-69.11)"/>
        <path class="cls-2" d="M20.99,122.15c-1.21-.46-1.82-1.82-1.35-3.03.46-1.21,1.82-1.82,3.03-1.35,1.21.46,1.82,1.82,1.35,3.03-.46,1.21-1.82,1.82-3.03,1.35Z"/>
      </g>
      <g>
        <rect class="cls-1" x="14.78" y="129.93" width="4.69" height="4.69" transform="translate(-112.57 101.12) rotate(-69.11)"/>
        <path class="cls-2" d="M16.29,134.47c-1.21-.46-1.82-1.82-1.35-3.03.46-1.21,1.82-1.82,3.03-1.35,1.21.46,1.82,1.82,1.35,3.03-.46,1.21-1.82,1.82-3.03,1.35Z"/>
      </g>
      <g>
        <rect class="cls-1" x="10.08" y="142.25" width="4.69" height="4.69" transform="translate(-127.1 104.65) rotate(-69.11)"/>
        <path class="cls-2" d="M11.59,146.78c-1.21-.46-1.82-1.82-1.35-3.03.46-1.21,1.82-1.82,3.03-1.35,1.21.46,1.82,1.82,1.35,3.03-.46,1.21-1.82,1.82-3.03,1.35Z"/>
      </g>
      <g>
        <rect class="cls-1" x="5.38" y="154.56" width="4.69" height="4.69" transform="translate(-141.63 108.19) rotate(-69.11)"/>
        <path class="cls-2" d="M6.89,159.1c-1.21-.46-1.82-1.82-1.35-3.03.46-1.21,1.82-1.82,3.03-1.35,1.21.46,1.82,1.82,1.35,3.03-.46,1.21-1.82,1.82-3.03,1.35Z"/>
      </g>
      <g>
        <rect class="cls-1" x=".68" y="166.88" width="4.69" height="4.69" transform="translate(-156.15 111.72) rotate(-69.11)"/>
        <path class="cls-2" d="M2.19,171.41c-1.21-.46-1.82-1.82-1.35-3.03.46-1.21,1.82-1.82,3.03-1.35,1.21.46,1.82,1.82,1.35,3.03-.46,1.21-1.82,1.82-3.03,1.35Z"/>
      </g>
      <g>
        <path class="cls-1" d="M.44,181.01c.88.86,1.97,1.41,3.04,1.7l.4.11c.13.03.26.05.4.07.26.04.53.09.79.1.25.01.53.03.77.03h.59v-4.69h-.59l-.4-.02c-.14,0-.25-.03-.37-.05-.06-.01-.12-.01-.18-.03l-.16-.05c-.44-.12-.78-.31-1.02-.54l-3.27,3.37Z"/>
        <path class="cls-2" d="M6.42,180.68c0,.65-.25,1.24-.7,1.65-.26.2-.59.37-.98.44-.39.06-.82.08-1.27-.06-.44-.1-.85-.36-1.16-.62-.16-.15-.29-.31-.4-.47-.11-.16-.2-.32-.26-.5-.25-.69-.04-1.34.42-1.8.23-.23.49-.41.74-.55.25-.14.52-.28.74-.37l.33-.13c.11-.04.2-.07.29-.08.21-.06.36-.04.55,0,.17.06.36.14.52.29.17.14.35.31.51.53.39.43.68,1.01.67,1.66Z"/>
      </g>
      <g>
        <rect class="cls-1" x="14.91" y="178.33" width="4.69" height="4.69"/>
        <path class="cls-2" d="M19.6,180.68c0,1.29-1.05,2.34-2.34,2.34s-2.34-1.05-2.34-2.34,1.05-2.34,2.34-2.34,2.34,1.05,2.34,2.34Z"/>
      </g>
      <g>
        <rect class="cls-1" x="28.09" y="178.33" width="4.69" height="4.69"/>
        <path class="cls-2" d="M32.78,180.68c0,1.29-1.05,2.34-2.34,2.34s-2.34-1.05-2.34-2.34,1.05-2.34,2.34-2.34,2.34,1.05,2.34,2.34Z"/>
      </g>
      <g>
        <rect class="cls-1" x="41.27" y="178.33" width="4.69" height="4.69"/>
        <circle class="cls-3" cx="43.61" cy="180.68" r="2.34"/>
      </g>
      <g>
        <rect class="cls-1" x="54.45" y="178.33" width="4.69" height="4.69"/>
        <path class="cls-2" d="M59.14,180.68c0,1.29-1.05,2.34-2.34,2.34s-2.34-1.05-2.34-2.34,1.05-2.34,2.34-2.34,2.34,1.05,2.34,2.34Z"/>
      </g>
      <g>
        <rect class="cls-1" x="67.63" y="178.33" width="4.69" height="4.69"/>
        <path class="cls-2" d="M72.32,180.68c0,1.29-1.05,2.34-2.34,2.34s-2.34-1.05-2.34-2.34,1.05-2.34,2.34-2.34,2.34,1.05,2.34,2.34Z"/>
      </g>
      <g>
        <rect class="cls-1" x="80.81" y="178.33" width="4.69" height="4.69"/>
        <path class="cls-2" d="M85.5,180.68c0,1.29-1.05,2.34-2.34,2.34s-2.34-1.05-2.34-2.34,1.05-2.34,2.34-2.34,2.34,1.05,2.34,2.34Z"/>
      </g>
      <g>
        <rect class="cls-1" x="93.99" y="178.33" width="4.69" height="4.69"/>
        <path class="cls-2" d="M98.68,180.68c0,1.29-1.05,2.34-2.34,2.34s-2.34-1.05-2.34-2.34,1.05-2.34,2.34-2.34,2.34,1.05,2.34,2.34Z"/>
      </g>
      <g>
        <rect class="cls-1" x="107.17" y="178.33" width="4.69" height="4.69"/>
        <path class="cls-2" d="M111.86,180.68c0,1.29-1.05,2.34-2.34,2.34s-2.34-1.05-2.34-2.34,1.05-2.34,2.34-2.34,2.34,1.05,2.34,2.34Z"/>
      </g>
      <g>
        <rect class="cls-1" x="120.35" y="178.33" width="4.69" height="4.69"/>
        <path class="cls-2" d="M125.04,180.68c0,1.29-1.05,2.34-2.34,2.34s-2.34-1.05-2.34-2.34,1.05-2.34,2.34-2.34,2.34,1.05,2.34,2.34Z"/>
      </g>
      <g>
        <rect class="cls-1" x="133.53" y="178.33" width="4.69" height="4.69"/>
        <path class="cls-2" d="M138.22,180.68c0,1.29-1.05,2.34-2.34,2.34s-2.34-1.05-2.34-2.34,1.05-2.34,2.34-2.34,2.34,1.05,2.34,2.34Z"/>
      </g>
      <g>
        <rect class="cls-1" x="146.71" y="178.33" width="4.69" height="4.69"/>
        <path class="cls-2" d="M151.4,180.68c0,1.29-1.05,2.34-2.34,2.34s-2.34-1.05-2.34-2.34,1.05-2.34,2.34-2.34,2.34,1.05,2.34,2.34Z"/>
      </g>
      <g>
        <rect class="cls-1" x="159.89" y="178.33" width="4.69" height="4.69"/>
        <path class="cls-2" d="M164.58,180.68c0,1.29-1.05,2.34-2.34,2.34s-2.34-1.05-2.34-2.34,1.05-2.34,2.34-2.34,2.34,1.05,2.34,2.34Z"/>
      </g>
      <g>
        <rect class="cls-1" x="173.07" y="178.33" width="4.69" height="4.69"/>
        <path class="cls-2" d="M177.76,180.68c0,1.29-1.05,2.34-2.34,2.34s-2.34-1.05-2.34-2.34,1.05-2.34,2.34-2.34,2.34,1.05,2.34,2.34Z"/>
      </g>
      <g>
        <path class="cls-1" d="M187.04,182.11c.87-.36,1.71-.79,2.48-1.31.78-.51,1.51-1.09,2.17-1.76l-3.29-3.34c-.44.44-.94.84-1.47,1.19-.52.36-1.09.64-1.66.88l1.77,4.34Z"/>
        <path class="cls-2" d="M190.04,177.37c.23.23.4.5.5.79.1.29.14.61.09.92-.08.64-.47,1.29-1.11,1.71-.16.11-.33.19-.5.27-.17.07-.35.11-.52.14-.17.03-.34.04-.51.04-.17-.01-.33-.04-.49-.08-.62-.17-1.1-.61-1.34-1.22-.24-.6-.23-1.23-.09-1.77.04-.13.08-.26.14-.38.05-.13.11-.24.19-.35.07-.11.15-.2.24-.29.09-.1.19-.18.3-.25.44-.28.96-.37,1.52-.3.56.09,1.13.31,1.59.78Z"/>
      </g>
    </g>
  </g>
</svg>