<?xml version="1.0" encoding="UTF-8"?>
<svg id="Layer_2" data-name="Layer 2" xmlns="http://www.w3.org/2000/svg" viewBox="0 0 167.46 164.57">
  <defs>
    <style>
      .cls-1 {
        fill: none;
      }

      .cls-1, .cls-2 {
        stroke-width: 0px;
      }

      .cls-2 {
        fill: #191919;
        fill-rule: evenodd;
      }
    </style>
  </defs>
  <g id="_ÎÓÈ_1" data-name="—ÎÓÈ_1">
    <g>
      <g>
        <rect class="cls-1" x="1.87" y="67.23" width="2.79" height="2.77" transform="translate(-20.43 4.14) rotate(-17.45)"/>
        <path class="cls-2" d="M3.68,69.94c-.73.23-1.52-.17-1.75-.91-.23-.73.18-1.51.91-1.74.73-.23,1.52.17,1.75.9.23.73-.18,1.51-.91,1.74Z"/>
      </g>
      <g>
        <rect class="cls-1" x="4.21" y="74.67" width="2.79" height="2.77" transform="translate(-22.55 5.18) rotate(-17.45)"/>
        <path class="cls-2" d="M6.02,77.38c-.73.23-1.52-.17-1.75-.91-.23-.73.18-1.51.91-1.74.73-.23,1.52.17,1.75.9.23.73-.18,1.51-.91,1.74Z"/>
      </g>
      <g>
        <rect class="cls-1" x="6.55" y="82.11" width="2.79" height="2.77" transform="translate(-24.67 6.22) rotate(-17.45)"/>
        <path class="cls-2" d="M8.36,84.82c-.73.23-1.52-.17-1.75-.91-.23-.73.18-1.51.91-1.74.73-.23,1.52.17,1.75.9.23.73-.18,1.51-.91,1.74Z"/>
      </g>
      <g>
        <rect class="cls-1" x="8.89" y="89.55" width="2.79" height="2.77" transform="translate(-26.79 7.27) rotate(-17.45)"/>
        <path class="cls-2" d="M10.7,92.26c-.73.23-1.52-.17-1.75-.91s.18-1.51.91-1.74c.73-.23,1.52.17,1.75.9.23.73-.18,1.51-.91,1.74Z"/>
      </g>
      <g>
        <rect class="cls-1" x="11.23" y="96.99" width="2.79" height="2.77" transform="translate(-28.92 8.31) rotate(-17.45)"/>
        <path class="cls-2" d="M13.04,99.7c-.73.23-1.52-.17-1.75-.91-.23-.73.18-1.51.91-1.74.73-.23,1.52.17,1.75.91.23.73-.18,1.51-.91,1.74Z"/>
      </g>
      <g>
        <rect class="cls-1" x="13.56" y="104.43" width="2.79" height="2.77" transform="translate(-31.04 9.35) rotate(-17.45)"/>
        <path class="cls-2" d="M15.37,107.14c-.73.23-1.52-.17-1.75-.91-.23-.73.18-1.51.91-1.74.73-.23,1.52.17,1.75.91.23.73-.18,1.51-.91,1.74Z"/>
      </g>
      <g>
        <rect class="cls-1" x="15.9" y="111.88" width="2.79" height="2.77" transform="translate(-33.17 10.4) rotate(-17.45)"/>
        <path class="cls-2" d="M17.71,114.59c-.73.23-1.52-.17-1.75-.91-.23-.73.18-1.51.91-1.74.73-.23,1.52.17,1.75.9.23.73-.18,1.51-.91,1.74Z"/>
      </g>
      <g>
        <rect class="cls-1" x="18.24" y="119.32" width="2.79" height="2.77" transform="translate(-35.29 11.44) rotate(-17.45)"/>
        <path class="cls-2" d="M20.05,122.03c-.73.23-1.52-.17-1.75-.9-.23-.73.18-1.51.91-1.74.73-.23,1.52.17,1.75.9.23.73-.18,1.51-.91,1.74Z"/>
      </g>
      <g>
        <rect class="cls-1" x="20.58" y="126.76" width="2.79" height="2.77" transform="translate(-37.42 12.49) rotate(-17.45)"/>
        <path class="cls-2" d="M22.39,129.47c-.73.23-1.52-.17-1.75-.91-.23-.73.18-1.51.91-1.74.73-.23,1.52.17,1.75.9.23.73-.18,1.51-.91,1.74Z"/>
      </g>
      <g>
        <rect class="cls-1" x="22.92" y="134.2" width="2.79" height="2.77" transform="translate(-39.54 13.53) rotate(-17.45)"/>
        <path class="cls-2" d="M24.73,136.91c-.73.23-1.52-.17-1.75-.91-.23-.73.18-1.51.91-1.74.73-.23,1.52.17,1.75.91.23.73-.18,1.51-.91,1.74Z"/>
      </g>
      <g>
        <rect class="cls-1" x="25.26" y="141.64" width="2.79" height="2.77" transform="translate(-41.66 14.58) rotate(-17.45)"/>
        <path class="cls-2" d="M27.07,144.35c-.73.23-1.52-.17-1.75-.9-.23-.73.18-1.51.91-1.74.73-.23,1.52.17,1.75.91.23.73-.18,1.51-.91,1.74Z"/>
      </g>
      <g>
        <rect class="cls-1" x="27.6" y="149.08" width="2.79" height="2.77" transform="translate(-43.79 15.62) rotate(-17.45)"/>
        <path class="cls-2" d="M29.41,151.79c-.73.23-1.52-.17-1.75-.9-.23-.73.18-1.51.91-1.74.73-.23,1.52.17,1.75.91.23.73-.18,1.51-.91,1.74Z"/>
      </g>
      <g>
        <rect class="cls-1" x="29.94" y="156.52" width="2.79" height="2.77" transform="translate(-45.91 16.66) rotate(-17.45)"/>
        <path class="cls-2" d="M31.75,159.23c-.73.23-1.52-.17-1.75-.91-.23-.73.18-1.51.91-1.74.73-.23,1.52.17,1.75.91.23.73-.18,1.51-.91,1.74Z"/>
      </g>
      <g>
        <rect class="cls-1" x="37.04" y="161.78" width="2.69" height="2.79"/>
        <path class="cls-2" d="M39.73,163.18c0,.77-.6,1.39-1.34,1.39s-1.34-.62-1.34-1.39.6-1.39,1.34-1.39,1.34.62,1.34,1.39Z"/>
      </g>
      <g>
        <rect class="cls-1" x="44.6" y="161.78" width="2.69" height="2.79"/>
        <path class="cls-2" d="M47.29,163.18c0,.77-.6,1.39-1.34,1.39s-1.34-.62-1.34-1.39.6-1.39,1.34-1.39,1.34.62,1.34,1.39Z"/>
      </g>
      <g>
        <rect class="cls-1" x="52.16" y="161.78" width="2.69" height="2.79"/>
        <path class="cls-2" d="M54.84,163.18c0,.77-.6,1.39-1.34,1.39s-1.34-.62-1.34-1.39.6-1.39,1.34-1.39,1.34.62,1.34,1.39Z"/>
      </g>
      <g>
        <rect class="cls-1" x="59.71" y="161.78" width="2.69" height="2.79"/>
        <path class="cls-2" d="M62.4,163.18c0,.77-.6,1.39-1.34,1.39s-1.34-.62-1.34-1.39.6-1.39,1.34-1.39,1.34.62,1.34,1.39Z"/>
      </g>
      <g>
        <rect class="cls-1" x="67.27" y="161.78" width="2.69" height="2.79"/>
        <path class="cls-2" d="M69.96,163.18c0,.77-.6,1.39-1.34,1.39s-1.34-.62-1.34-1.39.6-1.39,1.34-1.39,1.34.62,1.34,1.39Z"/>
      </g>
      <g>
        <rect class="cls-1" x="74.83" y="161.78" width="2.69" height="2.79"/>
        <path class="cls-2" d="M77.52,163.18c0,.77-.6,1.39-1.34,1.39s-1.34-.62-1.34-1.39.6-1.39,1.34-1.39,1.34.62,1.34,1.39Z"/>
      </g>
      <g>
        <rect class="cls-1" x="82.39" y="161.78" width="2.69" height="2.79"/>
        <path class="cls-2" d="M85.07,163.18c0,.77-.6,1.39-1.34,1.39s-1.34-.62-1.34-1.39.6-1.39,1.34-1.39,1.34.62,1.34,1.39Z"/>
      </g>
      <g>
        <rect class="cls-1" x="89.94" y="161.78" width="2.69" height="2.79"/>
        <path class="cls-2" d="M92.63,163.18c0,.77-.6,1.39-1.34,1.39s-1.34-.62-1.34-1.39.6-1.39,1.34-1.39,1.34.62,1.34,1.39Z"/>
      </g>
      <g>
        <rect class="cls-1" x="97.5" y="161.78" width="2.69" height="2.79"/>
        <path class="cls-2" d="M100.19,163.18c0,.77-.6,1.39-1.34,1.39s-1.34-.62-1.34-1.39.6-1.39,1.34-1.39,1.34.62,1.34,1.39Z"/>
      </g>
      <g>
        <rect class="cls-1" x="105.06" y="161.78" width="2.69" height="2.79"/>
        <path class="cls-2" d="M107.75,163.18c0,.77-.6,1.39-1.34,1.39s-1.34-.62-1.34-1.39.6-1.39,1.34-1.39,1.34.62,1.34,1.39Z"/>
      </g>
      <g>
        <rect class="cls-1" x="112.62" y="161.78" width="2.69" height="2.79"/>
        <path class="cls-2" d="M115.3,163.18c0,.77-.6,1.39-1.34,1.39s-1.34-.62-1.34-1.39.6-1.39,1.34-1.39,1.34.62,1.34,1.39Z"/>
      </g>
      <g>
        <rect class="cls-1" x="120.17" y="161.78" width="2.69" height="2.79"/>
        <path class="cls-2" d="M122.86,163.18c0,.77-.6,1.39-1.34,1.39s-1.34-.62-1.34-1.39.6-1.39,1.34-1.39,1.34.62,1.34,1.39Z"/>
      </g>
      <g>
        <rect class="cls-1" x="127.73" y="161.78" width="2.69" height="2.79"/>
        <path class="cls-2" d="M130.42,163.18c0,.77-.6,1.39-1.34,1.39s-1.34-.62-1.34-1.39.6-1.39,1.34-1.39,1.34.62,1.34,1.39Z"/>
      </g>
      <g>
        <rect class="cls-1" x="134.74" y="156.51" width="2.77" height="2.79" transform="translate(-55.33 240.42) rotate(-72.55)"/>
        <path class="cls-2" d="M136.55,156.59c.73.23,1.14,1.01.91,1.74-.23.73-1.01,1.14-1.75.91-.73-.23-1.14-1.01-.91-1.74.23-.73,1.01-1.14,1.75-.91Z"/>
      </g>
      <g>
        <rect class="cls-1" x="137.08" y="149.07" width="2.77" height="2.79" transform="translate(-46.6 237.44) rotate(-72.55)"/>
        <path class="cls-2" d="M138.88,149.14c.73.23,1.14,1.01.91,1.74-.23.73-1.01,1.14-1.75.9-.73-.23-1.14-1.01-.91-1.74.23-.73,1.01-1.14,1.75-.91Z"/>
      </g>
      <g>
        <rect class="cls-1" x="139.42" y="141.63" width="2.77" height="2.79" transform="translate(-37.86 234.46) rotate(-72.55)"/>
        <path class="cls-2" d="M141.22,141.7c.73.23,1.14,1.01.91,1.74-.23.73-1.01,1.14-1.75.9-.73-.23-1.14-1.01-.91-1.74.23-.73,1.01-1.14,1.75-.91Z"/>
      </g>
      <g>
        <rect class="cls-1" x="141.76" y="134.19" width="2.77" height="2.79" transform="translate(-29.13 231.48) rotate(-72.55)"/>
        <path class="cls-2" d="M143.56,134.26c.73.23,1.14,1.01.91,1.74-.23.73-1.01,1.14-1.75.91-.73-.23-1.14-1.01-.91-1.74.23-.73,1.01-1.14,1.75-.91Z"/>
      </g>
      <g>
        <rect class="cls-1" x="144.1" y="126.75" width="2.77" height="2.79" transform="translate(-20.39 228.5) rotate(-72.55)"/>
        <path class="cls-2" d="M145.9,126.82c.73.23,1.14,1.01.91,1.74-.23.73-1.01,1.14-1.75.91-.73-.23-1.14-1.01-.91-1.74.23-.73,1.01-1.14,1.75-.9Z"/>
      </g>
      <g>
        <rect class="cls-1" x="146.44" y="119.31" width="2.77" height="2.79" transform="translate(-11.65 225.53) rotate(-72.55)"/>
        <path class="cls-2" d="M148.24,119.38c.73.23,1.14,1.01.91,1.74-.23.73-1.01,1.14-1.75.9-.73-.23-1.14-1.01-.91-1.74.23-.73,1.01-1.14,1.75-.9Z"/>
      </g>
      <g>
        <rect class="cls-1" x="148.78" y="111.87" width="2.77" height="2.79" transform="translate(-2.91 222.56) rotate(-72.55)"/>
        <path class="cls-2" d="M150.58,111.94c.73.23,1.14,1.01.91,1.74-.23.73-1.01,1.14-1.75.91s-1.14-1.01-.91-1.74,1.01-1.14,1.75-.9Z"/>
      </g>
      <g>
        <rect class="cls-1" x="151.11" y="104.43" width="2.77" height="2.79" transform="translate(5.82 219.57) rotate(-72.55)"/>
        <path class="cls-2" d="M152.92,104.5c.73.23,1.14,1.01.91,1.74-.23.73-1.01,1.14-1.75.91-.73-.23-1.14-1.01-.91-1.74s1.01-1.14,1.75-.91Z"/>
      </g>
      <g>
        <rect class="cls-1" x="153.45" y="96.99" width="2.77" height="2.79" transform="translate(14.56 216.59) rotate(-72.55)"/>
        <path class="cls-2" d="M155.26,97.06c.73.23,1.14,1.01.91,1.74-.23.73-1.01,1.14-1.75.91-.73-.23-1.14-1.01-.91-1.74.23-.73,1.01-1.14,1.75-.91Z"/>
      </g>
      <g>
        <rect class="cls-1" x="155.79" y="89.54" width="2.77" height="2.79" transform="translate(23.29 213.62) rotate(-72.55)"/>
        <path class="cls-2" d="M157.6,89.62c.73.23,1.14,1.01.91,1.74-.23.73-1.01,1.14-1.75.91-.73-.23-1.14-1.01-.91-1.74s1.01-1.14,1.75-.9Z"/>
      </g>
      <g>
        <rect class="cls-1" x="158.13" y="82.1" width="2.77" height="2.79" transform="translate(32.03 210.64) rotate(-72.55)"/>
        <path class="cls-2" d="M159.93,82.17c.73.23,1.14,1.01.91,1.74-.23.73-1.01,1.14-1.75.91-.73-.23-1.14-1.01-.91-1.74.23-.73,1.01-1.14,1.75-.9Z"/>
      </g>
      <g>
        <rect class="cls-1" x="160.47" y="74.66" width="2.77" height="2.79" transform="translate(40.76 207.66) rotate(-72.55)"/>
        <path class="cls-2" d="M162.27,74.73c.73.23,1.14,1.01.91,1.74-.23.73-1.01,1.14-1.75.9-.73-.23-1.14-1.01-.91-1.74.23-.73,1.01-1.14,1.75-.9Z"/>
      </g>
      <g>
        <rect class="cls-1" x="162.81" y="67.22" width="2.77" height="2.79" transform="translate(49.5 204.68) rotate(-72.55)"/>
        <path class="cls-2" d="M164.61,67.29c.73.23,1.14,1.01.91,1.74-.23.73-1.01,1.14-1.75.9-.73-.23-1.14-1.01-.91-1.74.23-.73,1.01-1.14,1.75-.9Z"/>
      </g>
      <g>
        <rect class="cls-1" x="160.13" y="58.81" width="2.79" height="2.72" transform="translate(16.42 153.2) rotate(-53.09)"/>
        <path class="cls-2" d="M160.44,59.35c.46-.62,1.32-.75,1.93-.3.6.45.71,1.32.25,1.93-.46.62-1.32.75-1.93.3-.6-.45-.71-1.32-.25-1.93Z"/>
      </g>
      <g>
        <rect class="cls-1" x="154.02" y="54.22" width="2.79" height="2.72" transform="translate(17.64 146.47) rotate(-53.09)"/>
        <path class="cls-2" d="M154.32,54.76c.46-.62,1.32-.75,1.93-.3s.71,1.32.25,1.93c-.46.62-1.32.75-1.93.3-.6-.45-.71-1.32-.25-1.93Z"/>
      </g>
      <g>
        <rect class="cls-1" x="147.9" y="49.62" width="2.79" height="2.72" transform="translate(18.88 139.74) rotate(-53.09)"/>
        <path class="cls-2" d="M148.2,50.16c.46-.62,1.32-.75,1.93-.3.6.45.71,1.32.25,1.93-.46.62-1.32.75-1.93.3-.6-.45-.71-1.32-.25-1.93Z"/>
      </g>
      <g>
        <rect class="cls-1" x="141.78" y="45.03" width="2.79" height="2.72" transform="translate(20.1 133.01) rotate(-53.09)"/>
        <path class="cls-2" d="M142.09,45.57c.46-.62,1.32-.75,1.93-.3.6.45.71,1.32.25,1.93s-1.32.75-1.93.3c-.6-.45-.71-1.32-.25-1.93Z"/>
      </g>
      <g>
        <rect class="cls-1" x="135.66" y="40.43" width="2.79" height="2.72" transform="translate(21.33 126.28) rotate(-53.09)"/>
        <path class="cls-2" d="M135.97,40.98c.46-.62,1.32-.75,1.93-.3s.71,1.32.25,1.93c-.46.62-1.32.75-1.93.3s-.71-1.32-.25-1.93Z"/>
      </g>
      <g>
        <rect class="cls-1" x="129.54" y="35.84" width="2.79" height="2.72" transform="translate(22.56 119.56) rotate(-53.09)"/>
        <path class="cls-2" d="M129.85,36.38c.46-.62,1.32-.75,1.93-.3s.71,1.32.25,1.93c-.46.62-1.32.75-1.93.3-.6-.45-.71-1.32-.25-1.93Z"/>
      </g>
      <g>
        <rect class="cls-1" x="123.43" y="31.24" width="2.79" height="2.72" transform="translate(23.8 112.84) rotate(-53.09)"/>
        <path class="cls-2" d="M123.73,31.79c.46-.62,1.32-.75,1.93-.3.6.45.71,1.32.25,1.93-.46.62-1.32.75-1.93.3-.6-.45-.71-1.32-.25-1.93Z"/>
      </g>
      <g>
        <rect class="cls-1" x="117.31" y="26.65" width="2.79" height="2.72" transform="translate(25.02 106.11) rotate(-53.09)"/>
        <path class="cls-2" d="M117.62,27.19c.46-.62,1.32-.75,1.93-.3s.71,1.32.25,1.93c-.46.62-1.32.75-1.93.3-.6-.45-.71-1.32-.25-1.93Z"/>
      </g>
      <g>
        <rect class="cls-1" x="111.19" y="22.05" width="2.79" height="2.72" transform="translate(26.25 99.38) rotate(-53.09)"/>
        <path class="cls-2" d="M111.5,22.6c.46-.62,1.32-.75,1.93-.3s.71,1.32.25,1.93c-.46.62-1.32.75-1.93.3s-.71-1.32-.25-1.93Z"/>
      </g>
      <g>
        <rect class="cls-1" x="105.07" y="17.46" width="2.79" height="2.72" transform="translate(27.48 92.65) rotate(-53.09)"/>
        <path class="cls-2" d="M105.38,18c.46-.62,1.32-.75,1.93-.3s.71,1.32.25,1.93c-.46.62-1.32.75-1.93.3-.6-.45-.71-1.32-.25-1.93Z"/>
      </g>
      <g>
        <rect class="cls-1" x="98.96" y="12.87" width="2.79" height="2.72" transform="translate(28.71 85.93) rotate(-53.09)"/>
        <path class="cls-2" d="M99.26,13.41c.46-.62,1.32-.75,1.93-.3.6.45.71,1.32.25,1.93s-1.32.75-1.93.3c-.6-.45-.71-1.32-.25-1.93Z"/>
      </g>
      <g>
        <rect class="cls-1" x="92.84" y="8.27" width="2.79" height="2.72" transform="translate(29.94 79.19) rotate(-53.09)"/>
        <path class="cls-2" d="M93.14,8.81c.46-.62,1.32-.75,1.93-.3s.71,1.32.25,1.93c-.46.62-1.32.75-1.93.3s-.71-1.32-.25-1.93Z"/>
      </g>
      <g>
        <rect class="cls-1" x="86.72" y="3.68" width="2.79" height="2.72" transform="translate(31.17 72.47) rotate(-53.09)"/>
        <path class="cls-2" d="M87.03,4.22c.46-.62,1.32-.75,1.93-.3.6.45.71,1.32.25,1.93-.46.62-1.32.75-1.93.3-.6-.45-.71-1.32-.25-1.93Z"/>
      </g>
      <g>
        <rect class="cls-1" x="77.99" y="3.64" width="2.72" height="2.79" transform="translate(12.88 48.66) rotate(-36.91)"/>
        <path class="cls-2" d="M78.26,5.85c-.46-.62-.35-1.48.25-1.93.6-.45,1.46-.32,1.93.3.46.62.35,1.48-.25,1.93-.6.45-1.46.32-1.93-.3Z"/>
      </g>
      <g>
        <rect class="cls-1" x="71.87" y="8.24" width="2.72" height="2.79" transform="translate(8.89 45.91) rotate(-36.91)"/>
        <path class="cls-2" d="M72.14,10.45c-.46-.62-.35-1.48.25-1.93s1.46-.32,1.93.3c.46.62.35,1.48-.25,1.93s-1.46.32-1.93-.3Z"/>
      </g>
      <g>
        <rect class="cls-1" x="65.75" y="12.83" width="2.72" height="2.79" transform="translate(4.9 43.15) rotate(-36.9)"/>
        <path class="cls-2" d="M66.02,15.04c-.46-.62-.35-1.48.25-1.93.6-.45,1.46-.32,1.93.3.46.62.35,1.48-.25,1.93s-1.46.32-1.93-.3Z"/>
      </g>
      <g>
        <rect class="cls-1" x="59.63" y="17.43" width="2.72" height="2.79" transform="translate(.92 40.4) rotate(-36.91)"/>
        <path class="cls-2" d="M59.9,19.64c-.46-.62-.35-1.48.25-1.93s1.46-.32,1.93.3c.46.62.35,1.48-.25,1.93-.6.45-1.46.32-1.93-.3Z"/>
      </g>
      <g>
        <rect class="cls-1" x="53.51" y="22.02" width="2.72" height="2.79" transform="translate(-3.06 37.65) rotate(-36.91)"/>
        <path class="cls-2" d="M53.79,24.23c-.46-.62-.35-1.48.25-1.93.6-.45,1.46-.32,1.93.3.46.62.35,1.48-.25,1.93-.6.45-1.46.32-1.93-.3Z"/>
      </g>
      <g>
        <rect class="cls-1" x="47.4" y="26.61" width="2.72" height="2.79" transform="translate(-7.05 34.89) rotate(-36.91)"/>
        <path class="cls-2" d="M47.67,28.83c-.46-.62-.35-1.48.25-1.93s1.46-.32,1.93.3c.46.62.35,1.48-.25,1.93-.6.45-1.46.32-1.93-.3Z"/>
      </g>
      <g>
        <rect class="cls-1" x="41.28" y="31.21" width="2.72" height="2.79" transform="translate(-11.03 32.14) rotate(-36.9)"/>
        <path class="cls-2" d="M41.55,33.42c-.46-.62-.35-1.48.25-1.93.6-.45,1.46-.32,1.93.3.46.62.35,1.48-.25,1.93-.6.45-1.46.32-1.93-.3Z"/>
      </g>
      <g>
        <rect class="cls-1" x="35.16" y="35.8" width="2.72" height="2.79" transform="translate(-15.02 29.39) rotate(-36.91)"/>
        <path class="cls-2" d="M35.43,38.02c-.46-.62-.35-1.48.25-1.93s1.46-.32,1.93.3c.46.62.35,1.48-.25,1.93-.6.45-1.46.32-1.93-.3Z"/>
      </g>
      <g>
        <rect class="cls-1" x="29.04" y="40.4" width="2.72" height="2.79" transform="translate(-19 26.63) rotate(-36.91)"/>
        <path class="cls-2" d="M29.32,42.61c-.46-.62-.35-1.48.25-1.93.6-.45,1.46-.32,1.93.3.46.62.35,1.48-.25,1.93s-1.46.32-1.93-.3Z"/>
      </g>
      <g>
        <rect class="cls-1" x="22.93" y="44.99" width="2.72" height="2.79" transform="translate(-22.99 23.88) rotate(-36.91)"/>
        <path class="cls-2" d="M23.2,47.2c-.46-.62-.35-1.48.25-1.93.6-.45,1.46-.32,1.93.3.46.62.35,1.48-.25,1.93-.6.45-1.46.32-1.93-.3Z"/>
      </g>
      <g>
        <rect class="cls-1" x="16.81" y="49.59" width="2.72" height="2.79" transform="translate(-26.98 21.13) rotate(-36.91)"/>
        <path class="cls-2" d="M17.08,51.8c-.46-.62-.35-1.48.25-1.93.6-.45,1.46-.32,1.93.3.46.62.35,1.48-.25,1.93-.6.45-1.46.32-1.93-.3Z"/>
      </g>
      <g>
        <rect class="cls-1" x="10.69" y="54.18" width="2.72" height="2.79" transform="translate(-30.96 18.38) rotate(-36.91)"/>
        <path class="cls-2" d="M10.96,56.39c-.46-.62-.35-1.48.25-1.93.6-.45,1.46-.32,1.93.3.46.62.35,1.48-.25,1.93-.6.45-1.46.32-1.93-.3Z"/>
      </g>
      <g>
        <rect class="cls-1" x="4.57" y="58.78" width="2.72" height="2.79" transform="translate(-34.94 15.62) rotate(-36.9)"/>
        <path class="cls-2" d="M4.85,60.99c-.46-.62-.35-1.48.25-1.93.6-.45,1.46-.32,1.93.3.46.62.35,1.48-.25,1.93-.6.45-1.46.32-1.93-.3Z"/>
      </g>
      <g>
        <polygon class="cls-1" points="31.35 162.62 34.01 161.78 34.01 164.57 31.96 164.57 31.35 162.62"/>
        <polygon class="cls-2" points="34.01 163.18 34.01 163.1 34.01 163.03 34 162.96 33.99 162.89 33.98 162.83 33.96 162.76 33.95 162.7 33.93 162.63 33.91 162.57 33.89 162.51 33.86 162.45 33.84 162.4 33.81 162.34 33.78 162.29 33.74 162.24 33.71 162.19 33.65 162.17 33.6 162.16 33.54 162.14 33.48 162.13 33.41 162.12 33.35 162.12 33.29 162.11 33.22 162.11 33.16 162.11 33.09 162.12 33.02 162.13 32.95 162.13 32.89 162.15 32.82 162.16 32.75 162.18 32.68 162.2 32.61 162.22 32.55 162.25 32.48 162.27 32.42 162.3 32.36 162.33 32.3 162.37 32.24 162.4 32.19 162.44 32.13 162.48 32.08 162.52 32.03 162.56 31.99 162.6 31.95 162.64 31.9 162.69 31.87 162.73 31.83 162.78 31.8 162.83 31.77 162.88 31.74 162.93 31.71 162.98 31.69 163.03 31.67 163.08 31.65 163.13 31.64 163.18 31.63 163.23 31.63 163.28 31.62 163.34 31.62 163.39 31.63 163.44 31.63 163.49 31.64 163.54 31.66 163.59 31.67 163.64 31.7 163.69 31.72 163.74 31.75 163.78 31.78 163.82 31.81 163.87 31.84 163.9 31.88 163.94 31.92 163.98 31.96 164.01 32.01 164.04 32.06 164.07 32.1 164.09 32.16 164.12 32.21 164.14 32.26 164.16 32.3 164.21 32.34 164.25 32.37 164.29 32.41 164.33 32.46 164.37 32.5 164.4 32.54 164.43 32.59 164.46 32.64 164.49 32.68 164.51 32.73 164.53 32.78 164.54 32.83 164.55 32.88 164.56 32.93 164.57 32.99 164.57 33.04 164.57 33.09 164.56 33.14 164.55 33.19 164.54 33.24 164.53 33.29 164.51 33.34 164.49 33.39 164.46 33.43 164.43 33.48 164.4 33.52 164.37 33.56 164.33 33.6 164.29 33.64 164.25 33.68 164.21 33.71 164.16 33.74 164.11 33.78 164.06 33.81 164.01 33.84 163.96 33.86 163.9 33.89 163.84 33.91 163.78 33.93 163.72 33.95 163.65 33.96 163.59 33.98 163.52 33.99 163.46 34 163.39 34.01 163.32 34.01 163.25 34.01 163.18"/>
      </g>
      <g>
        <polygon class="cls-1" points="133.45 164.57 133.45 161.78 136.11 162.62 135.5 164.57 133.45 164.57"/>
        <polygon class="cls-2" points="134.78 162.2 134.71 162.18 134.64 162.16 134.57 162.15 134.51 162.13 134.44 162.13 134.37 162.12 134.3 162.11 134.24 162.11 134.17 162.11 134.11 162.12 134.05 162.12 133.98 162.13 133.92 162.14 133.86 162.16 133.81 162.17 133.75 162.19 133.72 162.24 133.68 162.29 133.65 162.34 133.63 162.4 133.6 162.45 133.57 162.51 133.55 162.57 133.53 162.63 133.51 162.7 133.5 162.76 133.48 162.83 133.47 162.89 133.46 162.96 133.46 163.03 133.45 163.1 133.45 163.18 133.45 163.25 133.46 163.32 133.46 163.39 133.47 163.46 133.48 163.52 133.5 163.59 133.51 163.65 133.53 163.72 133.55 163.78 133.57 163.84 133.6 163.9 133.63 163.96 133.65 164.01 133.68 164.06 133.72 164.11 133.75 164.16 133.79 164.21 133.82 164.25 133.86 164.29 133.9 164.33 133.94 164.37 133.99 164.4 134.03 164.43 134.08 164.46 134.12 164.49 134.17 164.51 134.22 164.53 134.27 164.54 134.32 164.55 134.37 164.56 134.42 164.57 134.47 164.57 134.53 164.57 134.58 164.56 134.63 164.55 134.68 164.54 134.73 164.53 134.78 164.51 134.83 164.49 134.87 164.46 134.92 164.43 134.96 164.4 135 164.37 135.05 164.33 135.09 164.29 135.12 164.25 135.16 164.21 135.2 164.16 135.25 164.14 135.31 164.12 135.36 164.09 135.41 164.07 135.45 164.04 135.5 164.01 135.54 163.98 135.58 163.94 135.62 163.9 135.65 163.87 135.69 163.82 135.72 163.78 135.74 163.74 135.77 163.69 135.79 163.64 135.8 163.59 135.82 163.54 135.83 163.49 135.84 163.44 135.84 163.39 135.84 163.34 135.84 163.28 135.83 163.23 135.82 163.18 135.81 163.13 135.79 163.08 135.77 163.03 135.75 162.98 135.72 162.93 135.7 162.88 135.66 162.83 135.63 162.78 135.6 162.73 135.56 162.69 135.52 162.64 135.47 162.6 135.43 162.56 135.38 162.52 135.33 162.48 135.27 162.44 135.22 162.4 135.16 162.37 135.1 162.33 135.04 162.3 134.98 162.27 134.92 162.25 134.85 162.22 134.78 162.2"/>
      </g>
      <g>
        <polygon class="cls-1" points="166.87 64.76 164.21 63.93 165.88 61.7 167.46 62.88 166.87 64.76"/>
        <polygon class="cls-2" points="165.05 62.81 165 62.87 164.96 62.93 164.93 62.99 164.89 63.05 164.86 63.11 164.83 63.17 164.81 63.23 164.78 63.29 164.76 63.35 164.74 63.42 164.73 63.48 164.71 63.54 164.7 63.6 164.69 63.66 164.69 63.72 164.68 63.77 164.72 63.82 164.76 63.87 164.8 63.91 164.85 63.95 164.89 63.99 164.94 64.03 164.99 64.07 165.04 64.11 165.1 64.15 165.16 64.18 165.22 64.21 165.28 64.24 165.34 64.27 165.4 64.3 165.47 64.32 165.54 64.35 165.61 64.37 165.68 64.38 165.74 64.4 165.81 64.41 165.88 64.42 165.95 64.43 166.01 64.43 166.08 64.44 166.14 64.43 166.21 64.43 166.27 64.43 166.33 64.42 166.39 64.41 166.45 64.4 166.51 64.38 166.57 64.37 166.62 64.35 166.67 64.33 166.72 64.3 166.77 64.28 166.82 64.25 166.86 64.22 166.91 64.19 166.95 64.16 166.98 64.12 167.02 64.08 167.05 64.05 167.08 64 167.1 63.96 167.13 63.92 167.15 63.87 167.17 63.82 167.18 63.77 167.19 63.73 167.19 63.68 167.2 63.63 167.2 63.58 167.19 63.52 167.19 63.47 167.18 63.42 167.16 63.37 167.15 63.32 167.13 63.27 167.1 63.23 167.08 63.18 167.05 63.13 167.02 63.08 166.98 63.04 166.98 62.98 166.98 62.92 166.98 62.87 166.97 62.81 166.96 62.76 166.95 62.71 166.93 62.66 166.91 62.61 166.89 62.56 166.87 62.52 166.84 62.47 166.81 62.43 166.78 62.39 166.75 62.36 166.71 62.32 166.67 62.29 166.63 62.26 166.59 62.24 166.54 62.21 166.5 62.19 166.45 62.18 166.4 62.16 166.35 62.15 166.3 62.15 166.25 62.14 166.2 62.14 166.14 62.14 166.09 62.15 166.03 62.16 165.98 62.17 165.92 62.18 165.87 62.2 165.81 62.22 165.76 62.24 165.7 62.26 165.65 62.29 165.59 62.32 165.54 62.35 165.49 62.39 165.43 62.43 165.38 62.47 165.33 62.51 165.28 62.55 165.23 62.6 165.18 62.65 165.14 62.7 165.09 62.76 165.05 62.81"/>
      </g>
      <g>
        <polygon class="cls-1" points="85.41 1.26 83.73 3.49 82.06 1.26 83.73 0 85.41 1.26"/>
        <polygon class="cls-2" points="82.89 2.37 82.94 2.43 82.98 2.48 83.03 2.54 83.08 2.58 83.13 2.63 83.18 2.68 83.23 2.72 83.28 2.76 83.34 2.79 83.39 2.83 83.45 2.86 83.5 2.89 83.56 2.92 83.62 2.94 83.67 2.96 83.73 2.98 83.79 2.96 83.84 2.94 83.9 2.92 83.96 2.89 84.01 2.86 84.07 2.83 84.12 2.79 84.18 2.76 84.23 2.72 84.28 2.68 84.33 2.63 84.38 2.58 84.43 2.54 84.48 2.48 84.52 2.43 84.57 2.37 84.61 2.31 84.65 2.26 84.69 2.2 84.72 2.14 84.75 2.07 84.78 2.01 84.81 1.95 84.83 1.89 84.85 1.83 84.87 1.77 84.88 1.7 84.89 1.64 84.9 1.58 84.91 1.52 84.91 1.46 84.91 1.4 84.91 1.34 84.91 1.28 84.9 1.23 84.89 1.17 84.88 1.12 84.87 1.06 84.85 1.01 84.83 .96 84.8 .91 84.78 .87 84.75 .82 84.72 .78 84.69 .74 84.65 .7 84.61 .66 84.57 .63 84.52 .6 84.48 .57 84.43 .55 84.38 .52 84.33 .51 84.28 .49 84.23 .48 84.18 .47 84.12 .47 84.07 .46 84.01 .46 83.96 .47 83.9 .47 83.84 .48 83.79 .5 83.73 .51 83.67 .5 83.62 .48 83.56 .47 83.5 .47 83.45 .46 83.39 .46 83.34 .47 83.28 .47 83.23 .48 83.18 .49 83.13 .51 83.08 .52 83.03 .55 82.98 .57 82.94 .6 82.89 .63 82.85 .66 82.81 .7 82.78 .74 82.74 .78 82.71 .82 82.68 .87 82.66 .91 82.63 .96 82.61 1.01 82.59 1.06 82.58 1.12 82.57 1.17 82.56 1.23 82.55 1.28 82.55 1.34 82.55 1.4 82.55 1.46 82.55 1.52 82.56 1.58 82.57 1.64 82.58 1.7 82.59 1.77 82.61 1.83 82.63 1.89 82.66 1.95 82.68 2.01 82.71 2.07 82.74 2.14 82.78 2.2 82.81 2.26 82.85 2.31 82.89 2.37"/>
      </g>
      <g>
        <polygon class="cls-1" points="1.58 61.7 3.25 63.93 .59 64.76 0 62.88 1.58 61.7"/>
        <polygon class="cls-2" points="1.92 64.35 1.99 64.32 2.06 64.3 2.12 64.27 2.18 64.24 2.25 64.21 2.3 64.18 2.36 64.15 2.42 64.11 2.47 64.07 2.52 64.03 2.57 63.99 2.62 63.95 2.66 63.91 2.7 63.87 2.74 63.82 2.78 63.77 2.77 63.72 2.77 63.66 2.76 63.6 2.75 63.54 2.73 63.48 2.72 63.42 2.7 63.35 2.68 63.29 2.65 63.23 2.63 63.17 2.6 63.11 2.57 63.05 2.53 62.99 2.5 62.93 2.46 62.87 2.41 62.81 2.37 62.76 2.33 62.7 2.28 62.65 2.23 62.6 2.18 62.55 2.13 62.51 2.08 62.47 2.03 62.43 1.97 62.39 1.92 62.35 1.87 62.32 1.81 62.29 1.76 62.26 1.7 62.24 1.65 62.22 1.59 62.2 1.54 62.18 1.48 62.17 1.43 62.16 1.37 62.15 1.32 62.14 1.27 62.14 1.21 62.14 1.16 62.15 1.11 62.15 1.06 62.16 1.01 62.18 .96 62.19 .92 62.21 .87 62.24 .83 62.26 .79 62.29 .75 62.32 .71 62.36 .68 62.39 .65 62.43 .62 62.47 .59 62.52 .57 62.56 .55 62.61 .53 62.66 .51 62.71 .5 62.76 .49 62.81 .48 62.87 .48 62.92 .48 62.98 .48 63.04 .44 63.08 .41 63.13 .38 63.18 .36 63.23 .33 63.27 .32 63.32 .3 63.37 .29 63.42 .27 63.47 .27 63.52 .26 63.58 .26 63.63 .27 63.68 .27 63.73 .28 63.77 .3 63.82 .31 63.87 .33 63.92 .36 63.96 .38 64 .41 64.05 .44 64.08 .48 64.12 .52 64.16 .56 64.19 .6 64.22 .64 64.25 .69 64.28 .74 64.3 .79 64.33 .84 64.35 .89 64.37 .95 64.38 1.01 64.4 1.07 64.41 1.13 64.42 1.19 64.43 1.25 64.43 1.32 64.43 1.38 64.44 1.45 64.43 1.51 64.43 1.58 64.42 1.65 64.41 1.72 64.4 1.78 64.38 1.85 64.37 1.92 64.35"/>
      </g>
    </g>
  </g>
</svg>