<?xml version="1.0" encoding="UTF-8"?>
<svg id="Layer_2" data-name="Layer 2" xmlns="http://www.w3.org/2000/svg" viewBox="0 0 162.3 170.63">
  <defs>
    <style>
      .cls-1 {
        fill: none;
      }

      .cls-1, .cls-2, .cls-3 {
        stroke-width: 0px;
      }

      .cls-2 {
        fill-rule: evenodd;
      }

      .cls-2, .cls-3 {
        fill: #191919;
      }
    </style>
  </defs>
  <g id="_ÎÓÈ_1" data-name="—ÎÓÈ_1">
    <g>
      <g>
        <rect class="cls-1" x="153.86" y="124.44" width="2.64" height="2.78"/>
        <path class="cls-2" d="M153.86,125.83c0-.77.59-1.39,1.32-1.39s1.32.62,1.32,1.39-.59,1.39-1.32,1.39-1.32-.62-1.32-1.39Z"/>
      </g>
      <g>
        <rect class="cls-1" x="146.43" y="124.44" width="2.64" height="2.78"/>
        <path class="cls-2" d="M146.43,125.83c0-.77.59-1.39,1.32-1.39s1.32.62,1.32,1.39-.59,1.39-1.32,1.39-1.32-.62-1.32-1.39Z"/>
      </g>
      <g>
        <rect class="cls-1" x="139.01" y="124.44" width="2.64" height="2.78"/>
        <path class="cls-2" d="M139.01,125.83c0-.77.59-1.39,1.32-1.39s1.32.62,1.32,1.39-.59,1.39-1.32,1.39-1.32-.62-1.32-1.39Z"/>
      </g>
      <g>
        <rect class="cls-1" x="131.59" y="124.44" width="2.64" height="2.78"/>
        <path class="cls-2" d="M131.59,125.83c0-.77.59-1.39,1.32-1.39s1.32.62,1.32,1.39-.59,1.39-1.32,1.39-1.32-.62-1.32-1.39Z"/>
      </g>
      <g>
        <rect class="cls-1" x="124.17" y="124.44" width="2.64" height="2.78"/>
        <path class="cls-2" d="M124.17,125.83c0-.77.59-1.39,1.32-1.39s1.32.62,1.32,1.39-.59,1.39-1.32,1.39-1.32-.62-1.32-1.39Z"/>
      </g>
      <g>
        <rect class="cls-1" x="118.37" y="130.54" width="2.64" height="2.78"/>
        <path class="cls-2" d="M119.69,133.32c-.73,0-1.32-.62-1.32-1.39s.59-1.39,1.32-1.39,1.32.62,1.32,1.39-.59,1.39-1.32,1.39Z"/>
      </g>
      <g>
        <rect class="cls-1" x="118.37" y="138.35" width="2.64" height="2.78"/>
        <path class="cls-2" d="M119.69,141.12c-.73,0-1.32-.62-1.32-1.39s.59-1.39,1.32-1.39,1.32.62,1.32,1.39-.59,1.39-1.32,1.39Z"/>
      </g>
      <g>
        <rect class="cls-1" x="118.37" y="146.15" width="2.64" height="2.78"/>
        <ellipse class="cls-3" cx="119.69" cy="147.54" rx="1.32" ry="1.39"/>
      </g>
      <g>
        <rect class="cls-1" x="118.37" y="153.95" width="2.64" height="2.78"/>
        <ellipse class="cls-3" cx="119.69" cy="155.34" rx="1.32" ry="1.39"/>
      </g>
      <g>
        <rect class="cls-1" x="118.37" y="161.76" width="2.64" height="2.78"/>
        <path class="cls-2" d="M119.69,164.53c-.73,0-1.32-.62-1.32-1.39s.59-1.39,1.32-1.39,1.32.62,1.32,1.39-.59,1.39-1.32,1.39Z"/>
      </g>
      <g>
        <rect class="cls-1" x="112.66" y="167.85" width="2.59" height="2.78"/>
        <path class="cls-2" d="M112.66,169.24c0-.77.58-1.39,1.3-1.39s1.3.62,1.3,1.39-.58,1.39-1.3,1.39-1.3-.62-1.3-1.39Z"/>
      </g>
      <g>
        <rect class="cls-1" x="105.37" y="167.85" width="2.59" height="2.78"/>
        <path class="cls-2" d="M105.37,169.24c0-.77.58-1.39,1.3-1.39s1.3.62,1.3,1.39-.58,1.39-1.3,1.39-1.3-.62-1.3-1.39Z"/>
      </g>
      <g>
        <rect class="cls-1" x="98.08" y="167.85" width="2.59" height="2.78"/>
        <path class="cls-2" d="M98.08,169.24c0-.77.58-1.39,1.3-1.39s1.3.62,1.3,1.39-.58,1.39-1.3,1.39-1.3-.62-1.3-1.39Z"/>
      </g>
      <g>
        <rect class="cls-1" x="90.79" y="167.85" width="2.59" height="2.78"/>
        <path class="cls-2" d="M90.79,169.24c0-.77.58-1.39,1.3-1.39s1.3.62,1.3,1.39-.58,1.39-1.3,1.39-1.3-.62-1.3-1.39Z"/>
      </g>
      <g>
        <rect class="cls-1" x="83.5" y="167.85" width="2.59" height="2.78"/>
        <path class="cls-2" d="M83.5,169.24c0-.77.58-1.39,1.3-1.39s1.3.62,1.3,1.39-.58,1.39-1.3,1.39-1.3-.62-1.3-1.39Z"/>
      </g>
      <g>
        <rect class="cls-1" x="76.21" y="167.85" width="2.59" height="2.78"/>
        <path class="cls-2" d="M76.21,169.24c0-.77.58-1.39,1.3-1.39s1.3.62,1.3,1.39-.58,1.39-1.3,1.39-1.3-.62-1.3-1.39Z"/>
      </g>
      <g>
        <rect class="cls-1" x="68.92" y="167.85" width="2.59" height="2.78"/>
        <path class="cls-2" d="M68.92,169.24c0-.77.58-1.39,1.3-1.39s1.3.62,1.3,1.39-.58,1.39-1.3,1.39-1.3-.62-1.3-1.39Z"/>
      </g>
      <g>
        <rect class="cls-1" x="61.63" y="167.85" width="2.59" height="2.78"/>
        <path class="cls-2" d="M61.63,169.24c0-.77.58-1.39,1.3-1.39s1.3.62,1.3,1.39-.58,1.39-1.3,1.39-1.3-.62-1.3-1.39Z"/>
      </g>
      <g>
        <rect class="cls-1" x="54.34" y="167.85" width="2.59" height="2.78"/>
        <path class="cls-2" d="M54.34,169.24c0-.77.58-1.39,1.3-1.39s1.3.62,1.3,1.39-.58,1.39-1.3,1.39-1.3-.62-1.3-1.39Z"/>
      </g>
      <g>
        <rect class="cls-1" x="47.05" y="167.85" width="2.59" height="2.78"/>
        <path class="cls-2" d="M47.05,169.24c0-.77.58-1.39,1.3-1.39s1.3.62,1.3,1.39-.58,1.39-1.3,1.39-1.3-.62-1.3-1.39Z"/>
      </g>
      <g>
        <rect class="cls-1" x="41.29" y="161.76" width="2.64" height="2.78"/>
        <path class="cls-2" d="M42.61,161.76c.73,0,1.32.62,1.32,1.39s-.59,1.39-1.32,1.39-1.32-.62-1.32-1.39.59-1.39,1.32-1.39Z"/>
      </g>
      <g>
        <rect class="cls-1" x="41.29" y="153.95" width="2.64" height="2.78"/>
        <ellipse class="cls-3" cx="42.61" cy="155.34" rx="1.32" ry="1.39"/>
      </g>
      <g>
        <rect class="cls-1" x="41.29" y="146.15" width="2.64" height="2.78"/>
        <ellipse class="cls-3" cx="42.61" cy="147.54" rx="1.32" ry="1.39"/>
      </g>
      <g>
        <rect class="cls-1" x="41.29" y="138.35" width="2.64" height="2.78"/>
        <path class="cls-2" d="M42.61,138.35c.73,0,1.32.62,1.32,1.39s-.59,1.39-1.32,1.39-1.32-.62-1.32-1.39.59-1.39,1.32-1.39Z"/>
      </g>
      <g>
        <rect class="cls-1" x="41.29" y="130.54" width="2.64" height="2.78"/>
        <path class="cls-2" d="M42.61,130.54c.73,0,1.32.62,1.32,1.39s-.59,1.39-1.32,1.39-1.32-.62-1.32-1.39.59-1.39,1.32-1.39Z"/>
      </g>
      <g>
        <rect class="cls-1" x="35.49" y="124.44" width="2.64" height="2.78"/>
        <path class="cls-2" d="M35.49,125.83c0-.77.59-1.39,1.32-1.39s1.32.62,1.32,1.39-.59,1.39-1.32,1.39-1.32-.62-1.32-1.39Z"/>
      </g>
      <g>
        <rect class="cls-1" x="28.07" y="124.44" width="2.64" height="2.78"/>
        <path class="cls-2" d="M28.07,125.83c0-.77.59-1.39,1.32-1.39s1.32.62,1.32,1.39-.59,1.39-1.32,1.39-1.32-.62-1.32-1.39Z"/>
      </g>
      <g>
        <rect class="cls-1" x="20.65" y="124.44" width="2.64" height="2.78"/>
        <path class="cls-2" d="M20.65,125.83c0-.77.59-1.39,1.32-1.39s1.32.62,1.32,1.39-.59,1.39-1.32,1.39-1.32-.62-1.32-1.39Z"/>
      </g>
      <g>
        <rect class="cls-1" x="13.22" y="124.44" width="2.64" height="2.78"/>
        <path class="cls-2" d="M13.22,125.83c0-.77.59-1.39,1.32-1.39s1.32.62,1.32,1.39-.59,1.39-1.32,1.39-1.32-.62-1.32-1.39Z"/>
      </g>
      <g>
        <rect class="cls-1" x="5.8" y="124.44" width="2.64" height="2.78"/>
        <path class="cls-2" d="M5.8,125.83c0-.77.59-1.39,1.32-1.39s1.32.62,1.32,1.39-.59,1.39-1.32,1.39-1.32-.62-1.32-1.39Z"/>
      </g>
      <g>
        <rect class="cls-1" y="118.44" width="2.64" height="2.73"/>
        <path class="cls-2" d="M1.32,118.44c.73,0,1.32.61,1.32,1.36s-.59,1.36-1.32,1.36-1.32-.61-1.32-1.36.59-1.36,1.32-1.36Z"/>
      </g>
      <g>
        <rect class="cls-1" y="110.78" width="2.64" height="2.73"/>
        <path class="cls-2" d="M1.32,110.78c.73,0,1.32.61,1.32,1.36s-.59,1.36-1.32,1.36-1.32-.61-1.32-1.36.59-1.36,1.32-1.36Z"/>
      </g>
      <g>
        <rect class="cls-1" y="103.11" width="2.64" height="2.73"/>
        <path class="cls-2" d="M1.32,103.11c.73,0,1.32.61,1.32,1.36s-.59,1.36-1.32,1.36-1.32-.61-1.32-1.36.59-1.36,1.32-1.36Z"/>
      </g>
      <g>
        <rect class="cls-1" y="95.45" width="2.64" height="2.73"/>
        <path class="cls-2" d="M1.32,95.45c.73,0,1.32.61,1.32,1.36s-.59,1.36-1.32,1.36-1.32-.61-1.32-1.36.59-1.36,1.32-1.36Z"/>
      </g>
      <g>
        <rect class="cls-1" y="87.78" width="2.64" height="2.73"/>
        <path class="cls-2" d="M1.32,87.78c.73,0,1.32.61,1.32,1.36s-.59,1.36-1.32,1.36-1.32-.61-1.32-1.36.59-1.36,1.32-1.36Z"/>
      </g>
      <g>
        <rect class="cls-1" y="80.12" width="2.64" height="2.73"/>
        <path class="cls-2" d="M1.32,80.12c.73,0,1.32.61,1.32,1.36s-.59,1.36-1.32,1.36-1.32-.61-1.32-1.36.59-1.36,1.32-1.36Z"/>
      </g>
      <g>
        <rect class="cls-1" y="72.46" width="2.64" height="2.73"/>
        <path class="cls-2" d="M1.32,72.46c.73,0,1.32.61,1.32,1.36s-.59,1.36-1.32,1.36-1.32-.61-1.32-1.36.59-1.36,1.32-1.36Z"/>
      </g>
      <g>
        <rect class="cls-1" y="64.79" width="2.64" height="2.73"/>
        <path class="cls-2" d="M1.32,64.79c.73,0,1.32.61,1.32,1.36s-.59,1.36-1.32,1.36-1.32-.61-1.32-1.36.59-1.36,1.32-1.36Z"/>
      </g>
      <g>
        <rect class="cls-1" y="57.13" width="2.64" height="2.73"/>
        <path class="cls-2" d="M1.32,57.13c.73,0,1.32.61,1.32,1.36s-.59,1.36-1.32,1.36-1.32-.61-1.32-1.36.59-1.36,1.32-1.36Z"/>
      </g>
      <g>
        <rect class="cls-1" y="49.47" width="2.64" height="2.73"/>
        <path class="cls-2" d="M1.32,49.47c.73,0,1.32.61,1.32,1.36s-.59,1.36-1.32,1.36-1.32-.61-1.32-1.36.59-1.36,1.32-1.36Z"/>
      </g>
      <g>
        <rect class="cls-1" x="5.8" y="43.41" width="2.64" height="2.78"/>
        <path class="cls-2" d="M8.44,44.8c0,.77-.59,1.39-1.32,1.39s-1.32-.62-1.32-1.39.59-1.39,1.32-1.39,1.32.62,1.32,1.39Z"/>
      </g>
      <g>
        <rect class="cls-1" x="13.22" y="43.41" width="2.64" height="2.78"/>
        <path class="cls-2" d="M15.86,44.8c0,.77-.59,1.39-1.32,1.39s-1.32-.62-1.32-1.39.59-1.39,1.32-1.39,1.32.62,1.32,1.39Z"/>
      </g>
      <g>
        <rect class="cls-1" x="20.65" y="43.41" width="2.64" height="2.78"/>
        <path class="cls-2" d="M23.29,44.8c0,.77-.59,1.39-1.32,1.39s-1.32-.62-1.32-1.39.59-1.39,1.32-1.39,1.32.62,1.32,1.39Z"/>
      </g>
      <g>
        <rect class="cls-1" x="28.07" y="43.41" width="2.64" height="2.78"/>
        <path class="cls-2" d="M30.71,44.8c0,.77-.59,1.39-1.32,1.39s-1.32-.62-1.32-1.39.59-1.39,1.32-1.39,1.32.62,1.32,1.39Z"/>
      </g>
      <g>
        <rect class="cls-1" x="35.49" y="43.41" width="2.64" height="2.78"/>
        <path class="cls-2" d="M38.13,44.8c0,.77-.59,1.39-1.32,1.39s-1.32-.62-1.32-1.39.59-1.39,1.32-1.39,1.32.62,1.32,1.39Z"/>
      </g>
      <g>
        <rect class="cls-1" x="41.29" y="37.31" width="2.64" height="2.78"/>
        <ellipse class="cls-3" cx="42.61" cy="38.7" rx="1.32" ry="1.39"/>
      </g>
      <g>
        <rect class="cls-1" x="41.29" y="29.51" width="2.64" height="2.78"/>
        <path class="cls-2" d="M42.61,29.51c.73,0,1.32.62,1.32,1.39s-.59,1.39-1.32,1.39-1.32-.62-1.32-1.39.59-1.39,1.32-1.39Z"/>
      </g>
      <g>
        <rect class="cls-1" x="41.29" y="21.71" width="2.64" height="2.78"/>
        <ellipse class="cls-3" cx="42.61" cy="23.09" rx="1.32" ry="1.39"/>
      </g>
      <g>
        <rect class="cls-1" x="41.29" y="13.9" width="2.64" height="2.78"/>
        <ellipse class="cls-3" cx="42.61" cy="15.29" rx="1.32" ry="1.39"/>
      </g>
      <g>
        <rect class="cls-1" x="41.29" y="6.1" width="2.64" height="2.78"/>
        <path class="cls-2" d="M42.61,6.1c.73,0,1.32.62,1.32,1.39s-.59,1.39-1.32,1.39-1.32-.62-1.32-1.39.59-1.39,1.32-1.39Z"/>
      </g>
      <g>
        <rect class="cls-1" x="47.05" width="2.59" height="2.78"/>
        <path class="cls-2" d="M49.64,1.39c0,.77-.58,1.39-1.3,1.39s-1.3-.62-1.3-1.39.58-1.39,1.3-1.39,1.3.62,1.3,1.39Z"/>
      </g>
      <g>
        <rect class="cls-1" x="54.34" width="2.59" height="2.78"/>
        <path class="cls-2" d="M56.93,1.39c0,.77-.58,1.39-1.3,1.39s-1.3-.62-1.3-1.39.58-1.39,1.3-1.39,1.3.62,1.3,1.39Z"/>
      </g>
      <g>
        <rect class="cls-1" x="61.63" width="2.59" height="2.78"/>
        <path class="cls-2" d="M64.22,1.39c0,.77-.58,1.39-1.3,1.39s-1.3-.62-1.3-1.39.58-1.39,1.3-1.39,1.3.62,1.3,1.39Z"/>
      </g>
      <g>
        <rect class="cls-1" x="68.92" width="2.59" height="2.78"/>
        <path class="cls-2" d="M71.51,1.39c0,.77-.58,1.39-1.3,1.39s-1.3-.62-1.3-1.39.58-1.39,1.3-1.39,1.3.62,1.3,1.39Z"/>
      </g>
      <g>
        <rect class="cls-1" x="76.21" width="2.59" height="2.78"/>
        <path class="cls-2" d="M78.8,1.39c0,.77-.58,1.39-1.3,1.39s-1.3-.62-1.3-1.39.58-1.39,1.3-1.39,1.3.62,1.3,1.39Z"/>
      </g>
      <g>
        <rect class="cls-1" x="83.5" width="2.59" height="2.78"/>
        <path class="cls-2" d="M86.09,1.39c0,.77-.58,1.39-1.3,1.39s-1.3-.62-1.3-1.39.58-1.39,1.3-1.39,1.3.62,1.3,1.39Z"/>
      </g>
      <g>
        <rect class="cls-1" x="90.79" width="2.59" height="2.78"/>
        <path class="cls-2" d="M93.38,1.39c0,.77-.58,1.39-1.3,1.39s-1.3-.62-1.3-1.39.58-1.39,1.3-1.39,1.3.62,1.3,1.39Z"/>
      </g>
      <g>
        <rect class="cls-1" x="98.08" width="2.59" height="2.78"/>
        <path class="cls-2" d="M100.67,1.39c0,.77-.58,1.39-1.3,1.39s-1.3-.62-1.3-1.39.58-1.39,1.3-1.39,1.3.62,1.3,1.39Z"/>
      </g>
      <g>
        <rect class="cls-1" x="105.37" width="2.59" height="2.78"/>
        <path class="cls-2" d="M107.96,1.39c0,.77-.58,1.39-1.3,1.39s-1.3-.62-1.3-1.39.58-1.39,1.3-1.39,1.3.62,1.3,1.39Z"/>
      </g>
      <g>
        <rect class="cls-1" x="112.66" width="2.59" height="2.78"/>
        <path class="cls-2" d="M115.25,1.39c0,.77-.58,1.39-1.3,1.39s-1.3-.62-1.3-1.39.58-1.39,1.3-1.39,1.3.62,1.3,1.39Z"/>
      </g>
      <g>
        <rect class="cls-1" x="118.37" y="6.1" width="2.64" height="2.78"/>
        <path class="cls-2" d="M119.69,8.87c-.73,0-1.32-.62-1.32-1.39s.59-1.39,1.32-1.39,1.32.62,1.32,1.39-.59,1.39-1.32,1.39Z"/>
      </g>
      <g>
        <rect class="cls-1" x="118.37" y="13.9" width="2.64" height="2.78"/>
        <ellipse class="cls-3" cx="119.69" cy="15.29" rx="1.32" ry="1.39"/>
      </g>
      <g>
        <rect class="cls-1" x="118.37" y="21.71" width="2.64" height="2.78"/>
        <ellipse class="cls-3" cx="119.69" cy="23.09" rx="1.32" ry="1.39"/>
      </g>
      <g>
        <rect class="cls-1" x="118.37" y="29.51" width="2.64" height="2.78"/>
        <path class="cls-2" d="M119.69,32.28c-.73,0-1.32-.62-1.32-1.39s.59-1.39,1.32-1.39,1.32.62,1.32,1.39-.59,1.39-1.32,1.39Z"/>
      </g>
      <g>
        <rect class="cls-1" x="118.37" y="37.31" width="2.64" height="2.78"/>
        <ellipse class="cls-3" cx="119.69" cy="38.7" rx="1.32" ry="1.39"/>
      </g>
      <g>
        <rect class="cls-1" x="124.17" y="43.41" width="2.64" height="2.78"/>
        <path class="cls-2" d="M126.81,44.8c0,.77-.59,1.39-1.32,1.39s-1.32-.62-1.32-1.39.59-1.39,1.32-1.39,1.32.62,1.32,1.39Z"/>
      </g>
      <g>
        <rect class="cls-1" x="131.59" y="43.41" width="2.64" height="2.78"/>
        <path class="cls-2" d="M134.23,44.8c0,.77-.59,1.39-1.32,1.39s-1.32-.62-1.32-1.39.59-1.39,1.32-1.39,1.32.62,1.32,1.39Z"/>
      </g>
      <g>
        <rect class="cls-1" x="139.01" y="43.41" width="2.64" height="2.78"/>
        <path class="cls-2" d="M141.65,44.8c0,.77-.59,1.39-1.32,1.39s-1.32-.62-1.32-1.39.59-1.39,1.32-1.39,1.32.62,1.32,1.39Z"/>
      </g>
      <g>
        <rect class="cls-1" x="146.43" y="43.41" width="2.64" height="2.78"/>
        <path class="cls-2" d="M149.07,44.8c0,.77-.59,1.39-1.32,1.39s-1.32-.62-1.32-1.39.59-1.39,1.32-1.39,1.32.62,1.32,1.39Z"/>
      </g>
      <g>
        <rect class="cls-1" x="153.86" y="43.41" width="2.64" height="2.78"/>
        <path class="cls-2" d="M156.5,44.8c0,.77-.59,1.39-1.32,1.39s-1.32-.62-1.32-1.39.59-1.39,1.32-1.39,1.32.62,1.32,1.39Z"/>
      </g>
      <g>
        <rect class="cls-1" x="159.66" y="49.47" width="2.64" height="2.73"/>
        <path class="cls-2" d="M160.98,52.19c-.73,0-1.32-.61-1.32-1.36s.59-1.36,1.32-1.36,1.32.61,1.32,1.36-.59,1.36-1.32,1.36Z"/>
      </g>
      <g>
        <rect class="cls-1" x="159.66" y="57.13" width="2.64" height="2.73"/>
        <path class="cls-2" d="M160.98,59.85c-.73,0-1.32-.61-1.32-1.36s.59-1.36,1.32-1.36,1.32.61,1.32,1.36-.59,1.36-1.32,1.36Z"/>
      </g>
      <g>
        <rect class="cls-1" x="159.66" y="64.79" width="2.64" height="2.73"/>
        <path class="cls-2" d="M160.98,67.52c-.73,0-1.32-.61-1.32-1.36s.59-1.36,1.32-1.36,1.32.61,1.32,1.36-.59,1.36-1.32,1.36Z"/>
      </g>
      <g>
        <rect class="cls-1" x="159.66" y="72.46" width="2.64" height="2.73"/>
        <path class="cls-2" d="M160.98,75.18c-.73,0-1.32-.61-1.32-1.36s.59-1.36,1.32-1.36,1.32.61,1.32,1.36-.59,1.36-1.32,1.36Z"/>
      </g>
      <g>
        <rect class="cls-1" x="159.66" y="80.12" width="2.64" height="2.73"/>
        <path class="cls-2" d="M160.98,82.85c-.73,0-1.32-.61-1.32-1.36s.59-1.36,1.32-1.36,1.32.61,1.32,1.36-.59,1.36-1.32,1.36Z"/>
      </g>
      <g>
        <rect class="cls-1" x="159.66" y="87.78" width="2.64" height="2.73"/>
        <path class="cls-2" d="M160.98,90.51c-.73,0-1.32-.61-1.32-1.36s.59-1.36,1.32-1.36,1.32.61,1.32,1.36-.59,1.36-1.32,1.36Z"/>
      </g>
      <g>
        <rect class="cls-1" x="159.66" y="95.45" width="2.64" height="2.73"/>
        <path class="cls-2" d="M160.98,98.17c-.73,0-1.32-.61-1.32-1.36s.59-1.36,1.32-1.36,1.32.61,1.32,1.36-.59,1.36-1.32,1.36Z"/>
      </g>
      <g>
        <rect class="cls-1" x="159.66" y="103.11" width="2.64" height="2.73"/>
        <path class="cls-2" d="M160.98,105.84c-.73,0-1.32-.61-1.32-1.36s.59-1.36,1.32-1.36,1.32.61,1.32,1.36-.59,1.36-1.32,1.36Z"/>
      </g>
      <g>
        <rect class="cls-1" x="159.66" y="110.78" width="2.64" height="2.73"/>
        <path class="cls-2" d="M160.98,113.5c-.73,0-1.32-.61-1.32-1.36s.59-1.36,1.32-1.36,1.32.61,1.32,1.36-.59,1.36-1.32,1.36Z"/>
      </g>
      <g>
        <rect class="cls-1" x="159.66" y="118.44" width="2.64" height="2.73"/>
        <path class="cls-2" d="M160.98,121.17c-.73,0-1.32-.61-1.32-1.36s.59-1.36,1.32-1.36,1.32.61,1.32,1.36-.59,1.36-1.32,1.36Z"/>
      </g>
      <g>
        <rect class="cls-1" x="118.37" y="124.44" width="2.64" height="2.78"/>
        <polygon class="cls-2" points="119.69 127.22 119.76 127.22 119.82 127.21 119.89 127.2 119.95 127.19 120.02 127.18 120.08 127.16 120.14 127.14 120.2 127.11 120.26 127.08 120.32 127.05 120.37 127.02 120.43 126.98 120.48 126.94 120.53 126.9 120.57 126.86 120.62 126.81 120.66 126.77 120.71 126.71 120.75 126.66 120.78 126.61 120.82 126.55 120.85 126.49 120.88 126.43 120.9 126.37 120.93 126.31 120.95 126.24 120.97 126.18 120.98 126.11 120.99 126.04 121 125.97 121.01 125.9 121.01 125.83 121.01 125.76 121 125.69 120.99 125.62 120.98 125.55 120.97 125.49 120.95 125.42 120.93 125.35 120.9 125.29 120.88 125.23 120.85 125.17 120.82 125.11 120.78 125.06 120.75 125 120.71 124.95 120.66 124.9 120.62 124.85 120.57 124.8 120.53 124.76 120.48 124.72 120.43 124.68 120.37 124.65 120.32 124.61 120.26 124.58 120.2 124.55 120.14 124.53 120.08 124.51 120.02 124.49 119.95 124.47 119.89 124.46 119.82 124.45 119.76 124.45 119.69 124.44 119.62 124.45 119.55 124.45 119.49 124.46 119.42 124.47 119.36 124.49 119.29 124.51 119.23 124.53 119.17 124.55 119.11 124.58 119.06 124.61 119 124.65 118.95 124.68 118.9 124.72 118.85 124.76 118.8 124.8 118.75 124.85 118.71 124.9 118.67 124.95 118.63 125 118.59 125.06 118.56 125.11 118.53 125.17 118.5 125.23 118.47 125.29 118.45 125.35 118.43 125.42 118.41 125.49 118.39 125.55 118.38 125.62 118.37 125.69 118.37 125.76 118.37 125.83 118.37 125.9 118.37 125.97 118.38 126.04 118.39 126.11 118.41 126.18 118.43 126.24 118.45 126.31 118.47 126.37 118.5 126.43 118.53 126.49 118.56 126.55 118.59 126.61 118.63 126.66 118.67 126.71 118.71 126.77 118.75 126.81 118.8 126.86 118.85 126.9 118.9 126.94 118.95 126.98 119 127.02 119.06 127.05 119.11 127.08 119.17 127.11 119.23 127.14 119.29 127.16 119.36 127.18 119.42 127.19 119.49 127.2 119.55 127.21 119.62 127.22 119.69 127.22"/>
      </g>
      <g>
        <rect class="cls-1" x="118.37" y="167.85" width="2.64" height="2.78"/>
        <polygon class="cls-2" points="118.37 169.24 118.37 169.17 118.37 169.1 118.38 169.03 118.39 168.96 118.41 168.9 118.43 168.83 118.45 168.77 118.47 168.7 118.5 168.64 118.53 168.58 118.56 168.52 118.59 168.47 118.63 168.41 118.67 168.36 118.71 168.31 118.75 168.26 118.8 168.22 118.85 168.17 118.9 168.13 118.95 168.09 119 168.06 119.06 168.02 119.11 167.99 119.17 167.96 119.23 167.94 119.29 167.92 119.36 167.9 119.42 167.88 119.49 167.87 119.55 167.86 119.62 167.86 119.69 167.85 119.76 167.86 119.82 167.86 119.89 167.87 119.95 167.88 120.02 167.9 120.08 167.92 120.14 167.94 120.2 167.96 120.26 167.99 120.32 168.02 120.37 168.06 120.43 168.09 120.48 168.13 120.53 168.17 120.57 168.22 120.62 168.26 120.66 168.31 120.71 168.36 120.75 168.41 120.78 168.47 120.82 168.52 120.85 168.58 120.88 168.64 120.9 168.7 120.93 168.77 120.95 168.83 120.97 168.9 120.98 168.96 120.99 169.03 121 169.1 121.01 169.17 121.01 169.24 121.01 169.31 121 169.38 120.99 169.45 120.98 169.52 120.97 169.59 120.95 169.66 120.93 169.72 120.9 169.78 120.88 169.84 120.85 169.9 120.82 169.96 120.78 170.02 120.75 170.07 120.71 170.13 120.66 170.18 120.62 170.22 120.57 170.27 120.53 170.31 120.48 170.36 120.43 170.39 120.37 170.43 120.32 170.46 120.26 170.49 120.2 170.52 120.14 170.55 120.08 170.57 120.02 170.59 119.95 170.6 119.89 170.61 119.82 170.62 119.76 170.63 119.69 170.63 119.62 170.63 119.55 170.62 119.49 170.61 119.42 170.6 119.36 170.59 119.29 170.57 119.23 170.55 119.17 170.52 119.11 170.49 119.06 170.46 119 170.43 118.95 170.39 118.9 170.36 118.85 170.31 118.8 170.27 118.75 170.22 118.71 170.18 118.67 170.13 118.63 170.07 118.59 170.02 118.56 169.96 118.53 169.9 118.5 169.84 118.47 169.78 118.45 169.72 118.43 169.66 118.41 169.59 118.39 169.52 118.38 169.45 118.37 169.38 118.37 169.31 118.37 169.24"/>
      </g>
      <g>
        <rect class="cls-1" x="41.29" y="167.85" width="2.64" height="2.78"/>
        <polygon class="cls-2" points="42.61 167.85 42.68 167.86 42.75 167.86 42.81 167.87 42.88 167.88 42.94 167.9 43 167.92 43.06 167.94 43.12 167.96 43.18 167.99 43.24 168.02 43.3 168.06 43.35 168.09 43.4 168.13 43.45 168.17 43.5 168.22 43.54 168.26 43.59 168.31 43.63 168.36 43.67 168.41 43.71 168.47 43.74 168.52 43.77 168.58 43.8 168.64 43.83 168.7 43.85 168.77 43.87 168.83 43.89 168.9 43.9 168.96 43.92 169.03 43.92 169.1 43.93 169.17 43.93 169.24 43.93 169.31 43.92 169.38 43.92 169.45 43.9 169.52 43.89 169.59 43.87 169.66 43.85 169.72 43.83 169.78 43.8 169.84 43.77 169.9 43.74 169.96 43.71 170.02 43.67 170.07 43.63 170.13 43.59 170.18 43.54 170.22 43.5 170.27 43.45 170.31 43.4 170.36 43.35 170.39 43.3 170.43 43.24 170.46 43.18 170.49 43.12 170.52 43.06 170.55 43 170.57 42.94 170.59 42.88 170.6 42.81 170.61 42.75 170.62 42.68 170.63 42.61 170.63 42.54 170.63 42.48 170.62 42.41 170.61 42.34 170.6 42.28 170.59 42.22 170.57 42.16 170.55 42.1 170.52 42.04 170.49 41.98 170.46 41.93 170.43 41.87 170.39 41.82 170.36 41.77 170.31 41.72 170.27 41.68 170.22 41.63 170.18 41.59 170.13 41.55 170.07 41.52 170.02 41.48 169.96 41.45 169.9 41.42 169.84 41.39 169.78 41.37 169.72 41.35 169.66 41.33 169.59 41.32 169.52 41.31 169.45 41.3 169.38 41.29 169.31 41.29 169.24 41.29 169.17 41.3 169.1 41.31 169.03 41.32 168.96 41.33 168.9 41.35 168.83 41.37 168.77 41.39 168.7 41.42 168.64 41.45 168.58 41.48 168.52 41.52 168.47 41.55 168.41 41.59 168.36 41.63 168.31 41.68 168.26 41.72 168.22 41.77 168.17 41.82 168.13 41.87 168.09 41.93 168.06 41.98 168.02 42.04 167.99 42.1 167.96 42.16 167.94 42.22 167.92 42.28 167.9 42.34 167.88 42.41 167.87 42.48 167.86 42.54 167.86 42.61 167.85"/>
      </g>
      <g>
        <rect class="cls-1" x="41.29" y="124.44" width="2.64" height="2.78"/>
        <polygon class="cls-2" points="41.29 125.83 41.29 125.9 41.3 125.97 41.31 126.04 41.32 126.11 41.33 126.18 41.35 126.24 41.37 126.31 41.39 126.37 41.42 126.43 41.45 126.49 41.48 126.55 41.52 126.61 41.55 126.66 41.59 126.71 41.63 126.77 41.68 126.81 41.72 126.86 41.77 126.9 41.82 126.94 41.87 126.98 41.93 127.02 41.98 127.05 42.04 127.08 42.1 127.11 42.16 127.14 42.22 127.16 42.28 127.18 42.34 127.19 42.41 127.2 42.48 127.21 42.54 127.22 42.61 127.22 42.68 127.22 42.75 127.21 42.81 127.2 42.88 127.19 42.94 127.18 43 127.16 43.07 127.14 43.12 127.11 43.18 127.08 43.24 127.05 43.3 127.02 43.35 126.98 43.4 126.94 43.45 126.9 43.5 126.86 43.54 126.81 43.59 126.77 43.63 126.71 43.67 126.66 43.71 126.61 43.74 126.55 43.77 126.49 43.8 126.43 43.83 126.37 43.85 126.31 43.87 126.24 43.89 126.18 43.9 126.11 43.92 126.04 43.92 125.97 43.93 125.9 43.93 125.83 43.93 125.76 43.92 125.69 43.92 125.62 43.9 125.55 43.89 125.49 43.87 125.42 43.85 125.35 43.83 125.29 43.8 125.23 43.77 125.17 43.74 125.11 43.71 125.06 43.67 125 43.63 124.95 43.59 124.9 43.54 124.85 43.5 124.8 43.45 124.76 43.4 124.72 43.35 124.68 43.3 124.65 43.24 124.61 43.18 124.58 43.12 124.55 43.07 124.53 43 124.51 42.94 124.49 42.88 124.47 42.81 124.46 42.75 124.45 42.68 124.45 42.61 124.44 42.54 124.45 42.48 124.45 42.41 124.46 42.34 124.47 42.28 124.49 42.22 124.51 42.16 124.53 42.1 124.55 42.04 124.58 41.98 124.61 41.93 124.65 41.87 124.68 41.82 124.72 41.77 124.76 41.72 124.8 41.68 124.85 41.63 124.9 41.59 124.95 41.55 125 41.52 125.06 41.48 125.11 41.45 125.17 41.42 125.23 41.39 125.29 41.37 125.35 41.35 125.42 41.33 125.49 41.32 125.55 41.31 125.62 41.3 125.69 41.29 125.76 41.29 125.83"/>
      </g>
      <g>
        <rect class="cls-1" y="124.44" width="2.64" height="2.78"/>
        <polygon class="cls-2" points="1.32 124.44 1.39 124.45 1.46 124.45 1.52 124.46 1.59 124.47 1.65 124.49 1.71 124.51 1.77 124.53 1.83 124.55 1.89 124.58 1.95 124.61 2 124.65 2.06 124.68 2.11 124.72 2.16 124.76 2.21 124.8 2.25 124.85 2.3 124.9 2.34 124.95 2.38 125 2.41 125.06 2.45 125.11 2.48 125.17 2.51 125.23 2.54 125.29 2.56 125.35 2.58 125.42 2.6 125.49 2.61 125.55 2.63 125.62 2.63 125.69 2.64 125.76 2.64 125.83 2.64 125.9 2.63 125.97 2.63 126.04 2.61 126.11 2.6 126.18 2.58 126.24 2.56 126.31 2.54 126.37 2.51 126.43 2.48 126.49 2.45 126.55 2.41 126.61 2.38 126.66 2.34 126.71 2.3 126.77 2.25 126.81 2.21 126.86 2.16 126.9 2.11 126.94 2.06 126.98 2 127.02 1.95 127.05 1.89 127.08 1.83 127.11 1.77 127.14 1.71 127.16 1.65 127.18 1.59 127.19 1.52 127.2 1.46 127.21 1.39 127.22 1.32 127.22 1.25 127.22 1.19 127.21 1.12 127.2 1.05 127.19 .99 127.18 .93 127.16 .87 127.14 .81 127.11 .75 127.08 .69 127.05 .64 127.02 .58 126.98 .53 126.94 .48 126.9 .43 126.86 .39 126.81 .34 126.77 .3 126.71 .26 126.66 .23 126.61 .19 126.55 .16 126.49 .13 126.43 .1 126.37 .08 126.31 .06 126.24 .04 126.18 .03 126.11 .02 126.04 0 125.97 0 125.9 0 125.83 0 125.76 0 125.69 .02 125.62 .03 125.55 .04 125.49 .06 125.42 .08 125.35 .1 125.29 .13 125.23 .16 125.17 .19 125.11 .23 125.06 .26 125 .3 124.95 .34 124.9 .39 124.85 .43 124.8 .48 124.76 .53 124.72 .58 124.68 .64 124.65 .69 124.61 .75 124.58 .81 124.55 .87 124.53 .93 124.51 .99 124.49 1.05 124.47 1.12 124.46 1.19 124.45 1.25 124.45 1.32 124.44"/>
      </g>
      <g>
        <rect class="cls-1" y="43.41" width="2.64" height="2.78"/>
        <polygon class="cls-2" points="2.64 44.8 2.64 44.87 2.63 44.94 2.63 45.01 2.61 45.08 2.6 45.15 2.58 45.21 2.56 45.28 2.54 45.34 2.51 45.4 2.48 45.46 2.45 45.52 2.41 45.57 2.38 45.63 2.34 45.68 2.3 45.73 2.25 45.78 2.21 45.83 2.16 45.87 2.11 45.91 2.06 45.95 2 45.99 1.95 46.02 1.89 46.05 1.83 46.08 1.77 46.1 1.71 46.12 1.65 46.14 1.59 46.16 1.52 46.17 1.46 46.18 1.39 46.18 1.32 46.19 1.25 46.18 1.19 46.18 1.12 46.17 1.05 46.16 .99 46.14 .93 46.12 .87 46.1 .81 46.08 .75 46.05 .69 46.02 .64 45.99 .58 45.95 .53 45.91 .48 45.87 .43 45.83 .39 45.78 .34 45.73 .3 45.68 .26 45.63 .23 45.57 .19 45.52 .16 45.46 .13 45.4 .1 45.34 .08 45.28 .06 45.21 .04 45.15 .03 45.08 .02 45.01 0 44.94 0 44.87 0 44.8 0 44.73 0 44.66 .02 44.59 .03 44.52 .04 44.45 .06 44.39 .08 44.32 .1 44.26 .13 44.2 .16 44.14 .19 44.08 .23 44.02 .26 43.97 .3 43.92 .34 43.87 .39 43.82 .43 43.77 .48 43.73 .53 43.69 .58 43.65 .64 43.61 .69 43.58 .75 43.55 .81 43.52 .87 43.49 .93 43.47 .99 43.45 1.05 43.44 1.12 43.43 1.19 43.42 1.25 43.41 1.32 43.41 1.39 43.41 1.46 43.42 1.52 43.43 1.59 43.44 1.65 43.45 1.71 43.47 1.77 43.49 1.83 43.52 1.89 43.55 1.95 43.58 2 43.61 2.06 43.65 2.11 43.69 2.16 43.73 2.21 43.77 2.25 43.82 2.3 43.87 2.34 43.92 2.38 43.97 2.41 44.02 2.45 44.08 2.48 44.14 2.51 44.2 2.54 44.26 2.56 44.32 2.58 44.39 2.6 44.45 2.61 44.52 2.63 44.59 2.63 44.66 2.64 44.73 2.64 44.8"/>
      </g>
      <g>
        <rect class="cls-1" x="41.29" y="43.41" width="2.64" height="2.78"/>
        <polygon class="cls-2" points="42.61 43.41 42.54 43.41 42.48 43.42 42.41 43.43 42.34 43.44 42.28 43.45 42.22 43.47 42.16 43.49 42.1 43.52 42.04 43.55 41.98 43.58 41.93 43.61 41.87 43.65 41.82 43.69 41.77 43.73 41.72 43.77 41.68 43.82 41.63 43.87 41.59 43.92 41.55 43.97 41.52 44.02 41.48 44.08 41.45 44.14 41.42 44.2 41.39 44.26 41.37 44.32 41.35 44.39 41.33 44.45 41.32 44.52 41.31 44.59 41.3 44.66 41.29 44.73 41.29 44.8 41.29 44.87 41.3 44.94 41.31 45.01 41.32 45.08 41.33 45.15 41.35 45.21 41.37 45.28 41.39 45.34 41.42 45.4 41.45 45.46 41.48 45.52 41.52 45.57 41.55 45.63 41.59 45.68 41.63 45.73 41.68 45.78 41.72 45.83 41.77 45.87 41.82 45.91 41.87 45.95 41.93 45.99 41.98 46.02 42.04 46.05 42.1 46.08 42.16 46.1 42.22 46.12 42.28 46.14 42.34 46.16 42.41 46.17 42.48 46.18 42.54 46.18 42.61 46.19 42.68 46.18 42.75 46.18 42.81 46.17 42.88 46.16 42.94 46.14 43 46.12 43.06 46.1 43.12 46.08 43.18 46.05 43.24 46.02 43.3 45.99 43.35 45.95 43.4 45.91 43.45 45.87 43.5 45.83 43.54 45.78 43.59 45.73 43.63 45.68 43.67 45.63 43.71 45.57 43.74 45.52 43.77 45.46 43.8 45.4 43.83 45.34 43.85 45.28 43.87 45.21 43.89 45.15 43.9 45.08 43.92 45.01 43.92 44.94 43.93 44.87 43.93 44.8 43.93 44.73 43.92 44.66 43.92 44.59 43.9 44.52 43.89 44.45 43.87 44.39 43.85 44.32 43.83 44.26 43.8 44.2 43.77 44.14 43.74 44.08 43.71 44.02 43.67 43.97 43.63 43.92 43.59 43.87 43.54 43.82 43.5 43.77 43.45 43.73 43.4 43.69 43.35 43.65 43.3 43.61 43.24 43.58 43.18 43.55 43.12 43.52 43.06 43.49 43 43.47 42.94 43.45 42.88 43.44 42.81 43.43 42.75 43.42 42.68 43.41 42.61 43.41"/>
      </g>
      <g>
        <rect class="cls-1" x="41.29" width="2.64" height="2.78"/>
        <polygon class="cls-2" points="43.93 1.39 43.93 1.46 43.92 1.53 43.92 1.6 43.9 1.67 43.89 1.73 43.87 1.8 43.85 1.87 43.83 1.93 43.8 1.99 43.77 2.05 43.74 2.11 43.71 2.16 43.67 2.22 43.63 2.27 43.59 2.32 43.54 2.37 43.5 2.42 43.45 2.46 43.4 2.5 43.35 2.54 43.3 2.57 43.24 2.61 43.18 2.64 43.12 2.67 43.07 2.69 43 2.71 42.94 2.73 42.88 2.75 42.81 2.76 42.75 2.77 42.68 2.77 42.61 2.78 42.54 2.77 42.48 2.77 42.41 2.76 42.34 2.75 42.28 2.73 42.22 2.71 42.16 2.69 42.1 2.67 42.04 2.64 41.98 2.61 41.93 2.57 41.87 2.54 41.82 2.5 41.77 2.46 41.72 2.42 41.68 2.37 41.63 2.32 41.59 2.27 41.55 2.22 41.52 2.16 41.48 2.11 41.45 2.05 41.42 1.99 41.39 1.93 41.37 1.87 41.35 1.8 41.33 1.73 41.32 1.67 41.31 1.6 41.3 1.53 41.29 1.46 41.29 1.39 41.29 1.32 41.3 1.25 41.31 1.18 41.32 1.11 41.33 1.04 41.35 .98 41.37 .91 41.39 .85 41.42 .79 41.45 .73 41.48 .67 41.52 .61 41.55 .56 41.59 .51 41.63 .45 41.68 .41 41.72 .36 41.77 .32 41.82 .28 41.87 .24 41.93 .2 41.98 .17 42.04 .14 42.1 .11 42.16 .08 42.22 .06 42.28 .04 42.34 .03 42.41 .02 42.48 0 42.54 0 42.61 0 42.68 0 42.75 0 42.81 .02 42.88 .03 42.94 .04 43 .06 43.07 .08 43.12 .11 43.18 .14 43.24 .17 43.3 .2 43.35 .24 43.4 .28 43.45 .32 43.5 .36 43.54 .41 43.59 .45 43.63 .51 43.67 .56 43.71 .61 43.74 .67 43.77 .73 43.8 .79 43.83 .85 43.85 .91 43.87 .98 43.89 1.04 43.9 1.11 43.92 1.18 43.92 1.25 43.93 1.32 43.93 1.39"/>
      </g>
      <g>
        <rect class="cls-1" x="118.37" width="2.64" height="2.78"/>
        <polygon class="cls-2" points="119.69 2.78 119.62 2.77 119.55 2.77 119.49 2.76 119.42 2.75 119.36 2.73 119.29 2.71 119.23 2.69 119.17 2.67 119.11 2.64 119.06 2.61 119 2.57 118.95 2.54 118.9 2.5 118.85 2.46 118.8 2.42 118.75 2.37 118.71 2.32 118.67 2.27 118.63 2.22 118.59 2.16 118.56 2.11 118.53 2.05 118.5 1.99 118.47 1.93 118.45 1.87 118.43 1.8 118.41 1.73 118.39 1.67 118.38 1.6 118.37 1.53 118.37 1.46 118.37 1.39 118.37 1.32 118.37 1.25 118.38 1.18 118.39 1.11 118.41 1.04 118.43 .98 118.45 .91 118.47 .85 118.5 .79 118.53 .73 118.56 .67 118.59 .61 118.63 .56 118.67 .51 118.71 .45 118.75 .41 118.8 .36 118.85 .32 118.9 .28 118.95 .24 119 .2 119.06 .17 119.11 .14 119.17 .11 119.23 .08 119.29 .06 119.36 .04 119.42 .03 119.49 .02 119.55 0 119.62 0 119.69 0 119.76 0 119.82 0 119.89 .02 119.95 .03 120.02 .04 120.08 .06 120.14 .08 120.2 .11 120.26 .14 120.32 .17 120.37 .2 120.43 .24 120.48 .28 120.53 .32 120.57 .36 120.62 .41 120.66 .45 120.71 .51 120.75 .56 120.78 .61 120.82 .67 120.85 .73 120.88 .79 120.9 .85 120.93 .91 120.95 .98 120.97 1.04 120.98 1.11 120.99 1.18 121 1.25 121.01 1.32 121.01 1.39 121.01 1.46 121 1.53 120.99 1.6 120.98 1.67 120.97 1.73 120.95 1.8 120.93 1.87 120.9 1.93 120.88 1.99 120.85 2.05 120.82 2.11 120.78 2.16 120.75 2.22 120.71 2.27 120.66 2.32 120.62 2.37 120.57 2.42 120.53 2.46 120.48 2.5 120.43 2.54 120.37 2.57 120.32 2.61 120.26 2.64 120.2 2.67 120.14 2.69 120.08 2.71 120.02 2.73 119.95 2.75 119.89 2.76 119.82 2.77 119.76 2.77 119.69 2.78"/>
      </g>
      <g>
        <rect class="cls-1" x="118.37" y="43.41" width="2.64" height="2.78"/>
        <polygon class="cls-2" points="121.01 44.8 121.01 44.73 121 44.66 120.99 44.59 120.98 44.52 120.97 44.45 120.95 44.39 120.93 44.32 120.9 44.26 120.88 44.2 120.85 44.14 120.82 44.08 120.78 44.02 120.75 43.97 120.71 43.92 120.66 43.87 120.62 43.82 120.57 43.77 120.53 43.73 120.48 43.69 120.43 43.65 120.37 43.61 120.32 43.58 120.26 43.55 120.2 43.52 120.14 43.49 120.08 43.47 120.02 43.45 119.95 43.44 119.89 43.43 119.82 43.42 119.76 43.41 119.69 43.41 119.62 43.41 119.55 43.42 119.49 43.43 119.42 43.44 119.36 43.45 119.29 43.47 119.23 43.49 119.17 43.52 119.11 43.55 119.06 43.58 119 43.61 118.95 43.65 118.9 43.69 118.85 43.73 118.8 43.77 118.75 43.82 118.71 43.87 118.67 43.92 118.63 43.97 118.59 44.02 118.56 44.08 118.53 44.14 118.5 44.2 118.47 44.26 118.45 44.32 118.43 44.39 118.41 44.45 118.39 44.52 118.38 44.59 118.37 44.66 118.37 44.73 118.37 44.8 118.37 44.87 118.37 44.94 118.38 45.01 118.39 45.08 118.41 45.15 118.43 45.21 118.45 45.28 118.47 45.34 118.5 45.4 118.53 45.46 118.56 45.52 118.59 45.57 118.63 45.63 118.67 45.68 118.71 45.73 118.75 45.78 118.8 45.83 118.85 45.87 118.9 45.91 118.95 45.95 119 45.99 119.06 46.02 119.11 46.05 119.17 46.08 119.23 46.1 119.29 46.12 119.36 46.14 119.42 46.16 119.49 46.17 119.55 46.18 119.62 46.18 119.69 46.19 119.76 46.18 119.82 46.18 119.89 46.17 119.95 46.16 120.02 46.14 120.08 46.12 120.14 46.1 120.2 46.08 120.26 46.05 120.32 46.02 120.37 45.99 120.43 45.95 120.48 45.91 120.53 45.87 120.57 45.83 120.62 45.78 120.66 45.73 120.71 45.68 120.75 45.63 120.78 45.57 120.82 45.52 120.85 45.46 120.88 45.4 120.9 45.34 120.93 45.28 120.95 45.21 120.97 45.15 120.98 45.08 120.99 45.01 121 44.94 121.01 44.87 121.01 44.8"/>
      </g>
      <g>
        <rect class="cls-1" x="159.66" y="43.41" width="2.64" height="2.78"/>
        <polygon class="cls-2" points="160.98 46.19 160.91 46.18 160.84 46.18 160.78 46.17 160.71 46.16 160.65 46.14 160.59 46.12 160.52 46.1 160.46 46.08 160.41 46.05 160.35 46.02 160.29 45.99 160.24 45.95 160.19 45.91 160.14 45.87 160.09 45.83 160.04 45.78 160 45.73 159.96 45.68 159.92 45.63 159.88 45.57 159.85 45.52 159.82 45.46 159.79 45.4 159.76 45.34 159.74 45.28 159.72 45.21 159.7 45.15 159.68 45.08 159.67 45.01 159.66 44.94 159.66 44.87 159.66 44.8 159.66 44.73 159.66 44.66 159.67 44.59 159.68 44.52 159.7 44.45 159.72 44.39 159.74 44.32 159.76 44.26 159.79 44.2 159.82 44.14 159.85 44.08 159.88 44.02 159.92 43.97 159.96 43.92 160 43.87 160.04 43.82 160.09 43.77 160.14 43.73 160.19 43.69 160.24 43.65 160.29 43.61 160.35 43.58 160.41 43.55 160.46 43.52 160.52 43.49 160.59 43.47 160.65 43.45 160.71 43.44 160.78 43.43 160.84 43.42 160.91 43.41 160.98 43.41 161.05 43.41 161.11 43.42 161.18 43.43 161.24 43.44 161.31 43.45 161.37 43.47 161.43 43.49 161.49 43.52 161.55 43.55 161.61 43.58 161.66 43.61 161.72 43.65 161.77 43.69 161.82 43.73 161.87 43.77 161.91 43.82 161.96 43.87 162 43.92 162.04 43.97 162.07 44.02 162.11 44.08 162.14 44.14 162.17 44.2 162.19 44.26 162.22 44.32 162.24 44.39 162.26 44.45 162.27 44.52 162.28 44.59 162.29 44.66 162.3 44.73 162.3 44.8 162.3 44.87 162.29 44.94 162.28 45.01 162.27 45.08 162.26 45.15 162.24 45.21 162.22 45.28 162.19 45.34 162.17 45.4 162.14 45.46 162.11 45.52 162.07 45.57 162.04 45.63 162 45.68 161.96 45.73 161.91 45.78 161.87 45.83 161.82 45.87 161.77 45.91 161.72 45.95 161.66 45.99 161.61 46.02 161.55 46.05 161.49 46.08 161.43 46.1 161.37 46.12 161.31 46.14 161.24 46.16 161.18 46.17 161.11 46.18 161.05 46.18 160.98 46.19"/>
      </g>
      <g>
        <rect class="cls-1" x="159.66" y="124.44" width="2.64" height="2.78"/>
        <polygon class="cls-2" points="159.66 125.83 159.66 125.76 159.66 125.69 159.67 125.62 159.68 125.55 159.7 125.49 159.72 125.42 159.74 125.35 159.76 125.29 159.79 125.23 159.82 125.17 159.85 125.11 159.88 125.06 159.92 125 159.96 124.95 160 124.9 160.04 124.85 160.09 124.8 160.14 124.76 160.19 124.72 160.24 124.68 160.29 124.65 160.35 124.61 160.41 124.58 160.46 124.55 160.52 124.53 160.59 124.51 160.65 124.49 160.71 124.47 160.78 124.46 160.84 124.45 160.91 124.45 160.98 124.44 161.05 124.45 161.11 124.45 161.18 124.46 161.24 124.47 161.31 124.49 161.37 124.51 161.43 124.53 161.49 124.55 161.55 124.58 161.61 124.61 161.66 124.65 161.72 124.68 161.77 124.72 161.82 124.76 161.87 124.8 161.91 124.85 161.96 124.9 162 124.95 162.04 125 162.07 125.06 162.11 125.11 162.14 125.17 162.17 125.23 162.19 125.29 162.22 125.35 162.24 125.42 162.26 125.49 162.27 125.55 162.28 125.62 162.29 125.69 162.3 125.76 162.3 125.83 162.3 125.9 162.29 125.97 162.28 126.04 162.27 126.11 162.26 126.18 162.24 126.24 162.22 126.31 162.19 126.37 162.17 126.43 162.14 126.49 162.11 126.55 162.07 126.61 162.04 126.66 162 126.71 161.96 126.77 161.91 126.81 161.87 126.86 161.82 126.9 161.77 126.94 161.72 126.98 161.66 127.02 161.61 127.05 161.55 127.08 161.49 127.11 161.43 127.14 161.37 127.16 161.31 127.18 161.24 127.19 161.18 127.2 161.11 127.21 161.05 127.22 160.98 127.22 160.91 127.22 160.84 127.21 160.78 127.2 160.71 127.19 160.65 127.18 160.59 127.16 160.52 127.14 160.46 127.11 160.41 127.08 160.35 127.05 160.29 127.02 160.24 126.98 160.19 126.94 160.14 126.9 160.09 126.86 160.04 126.81 160 126.77 159.96 126.71 159.92 126.66 159.88 126.61 159.85 126.55 159.82 126.49 159.79 126.43 159.76 126.37 159.74 126.31 159.72 126.24 159.7 126.18 159.68 126.11 159.67 126.04 159.66 125.97 159.66 125.9 159.66 125.83"/>
      </g>
    </g>
  </g>
</svg>