<?xml version="1.0" encoding="UTF-8"?>
<svg id="Layer_2" data-name="Layer 2" xmlns="http://www.w3.org/2000/svg" viewBox="0 0 274.5 173.32">
  <defs>
    <style>
      .cls-1 {
        fill: none;
      }

      .cls-1, .cls-2, .cls-3 {
        stroke-width: 0px;
      }

      .cls-2 {
        fill-rule: evenodd;
      }

      .cls-2, .cls-3 {
        fill: #191919;
      }
    </style>
  </defs>
  <g id="_ÎÓÈ_1" data-name="—ÎÓÈ_1">
    <g>
      <g>
        <rect class="cls-1" x="234.81" y="168.63" width="4.67" height="4.69"/>
        <path class="cls-2" d="M234.81,170.98c0-1.29,1.05-2.34,2.34-2.34s2.34,1.05,2.34,2.34-1.05,2.34-2.34,2.34-2.34-1.05-2.34-2.34Z"/>
      </g>
      <g>
        <rect class="cls-1" x="221.67" y="168.63" width="4.67" height="4.69"/>
        <path class="cls-2" d="M221.67,170.98c0-1.29,1.05-2.34,2.34-2.34s2.34,1.05,2.34,2.34-1.05,2.34-2.34,2.34-2.34-1.05-2.34-2.34Z"/>
      </g>
      <g>
        <rect class="cls-1" x="208.53" y="168.63" width="4.67" height="4.69"/>
        <ellipse class="cls-3" cx="210.86" cy="170.98" rx="2.34" ry="2.34"/>
      </g>
      <g>
        <rect class="cls-1" x="195.38" y="168.63" width="4.67" height="4.69"/>
        <ellipse class="cls-3" cx="197.72" cy="170.98" rx="2.34" ry="2.34"/>
      </g>
      <g>
        <rect class="cls-1" x="182.24" y="168.63" width="4.67" height="4.69"/>
        <path class="cls-2" d="M182.24,170.98c0-1.29,1.05-2.34,2.34-2.34s2.34,1.05,2.34,2.34-1.05,2.34-2.34,2.34-2.34-1.05-2.34-2.34Z"/>
      </g>
      <g>
        <rect class="cls-1" x="169.1" y="168.63" width="4.67" height="4.69"/>
        <path class="cls-2" d="M169.1,170.98c0-1.29,1.05-2.34,2.34-2.34s2.34,1.05,2.34,2.34-1.05,2.34-2.34,2.34-2.34-1.05-2.34-2.34Z"/>
      </g>
      <g>
        <rect class="cls-1" x="155.96" y="168.63" width="4.67" height="4.69"/>
        <path class="cls-2" d="M155.96,170.98c0-1.29,1.05-2.34,2.34-2.34s2.34,1.05,2.34,2.34-1.05,2.34-2.34,2.34-2.34-1.05-2.34-2.34Z"/>
      </g>
      <g>
        <rect class="cls-1" x="142.82" y="168.63" width="4.67" height="4.69"/>
        <ellipse class="cls-3" cx="145.15" cy="170.98" rx="2.34" ry="2.34"/>
      </g>
      <g>
        <rect class="cls-1" x="129.67" y="168.63" width="4.67" height="4.69"/>
        <ellipse class="cls-3" cx="132.01" cy="170.98" rx="2.34" ry="2.34"/>
      </g>
      <g>
        <rect class="cls-1" x="116.53" y="168.63" width="4.67" height="4.69"/>
        <path class="cls-2" d="M116.53,170.98c0-1.29,1.05-2.34,2.34-2.34s2.34,1.05,2.34,2.34-1.05,2.34-2.34,2.34-2.34-1.05-2.34-2.34Z"/>
      </g>
      <g>
        <rect class="cls-1" x="103.39" y="168.63" width="4.67" height="4.69"/>
        <path class="cls-2" d="M103.39,170.98c0-1.29,1.05-2.34,2.34-2.34s2.34,1.05,2.34,2.34-1.05,2.34-2.34,2.34-2.34-1.05-2.34-2.34Z"/>
      </g>
      <g>
        <rect class="cls-1" x="90.25" y="168.63" width="4.67" height="4.69"/>
        <path class="cls-2" d="M90.25,170.98c0-1.29,1.05-2.34,2.34-2.34s2.34,1.05,2.34,2.34-1.05,2.34-2.34,2.34-2.34-1.05-2.34-2.34Z"/>
      </g>
      <g>
        <rect class="cls-1" x="77.1" y="168.63" width="4.67" height="4.69"/>
        <ellipse class="cls-3" cx="79.44" cy="170.98" rx="2.34" ry="2.34"/>
      </g>
      <g>
        <rect class="cls-1" x="63.96" y="168.63" width="4.67" height="4.69"/>
        <ellipse class="cls-3" cx="66.3" cy="170.98" rx="2.34" ry="2.34"/>
      </g>
      <g>
        <rect class="cls-1" x="50.82" y="168.63" width="4.67" height="4.69"/>
        <ellipse class="cls-3" cx="53.16" cy="170.98" rx="2.34" ry="2.34"/>
      </g>
      <g>
        <rect class="cls-1" x="37.68" y="168.63" width="4.67" height="4.69"/>
        <path class="cls-2" d="M37.68,170.98c0-1.29,1.05-2.34,2.34-2.34s2.34,1.05,2.34,2.34-1.05,2.34-2.34,2.34-2.34-1.05-2.34-2.34Z"/>
      </g>
      <g>
        <path class="cls-1" d="M29.34,168.59c-1.43-.08-2.85-.29-4.24-.59l-1.03,4.57c1.65.36,3.32.61,5.01.7l.26-4.68Z"/>
        <path class="cls-2" d="M24.59,170.28c.14-.64.52-1.14.99-1.48.24-.17.5-.3.77-.37.27-.07.56-.08.86-.05.29.04.56.14.81.29.24.15.46.33.64.56.36.45.59,1.06.55,1.7-.03.65-.33,1.21-.81,1.6-.24.19-.52.35-.84.43-.31.08-.65.1-1,.06-.35-.04-.67-.16-.94-.33-.28-.17-.51-.39-.69-.63-.36-.5-.49-1.14-.34-1.77Z"/>
      </g>
      <g>
        <path class="cls-1" d="M17.89,165.19c-1.24-.71-2.43-1.51-3.53-2.42l-2.96,3.64c1.3,1.07,2.7,2.02,4.16,2.86l2.33-4.07Z"/>
        <path class="cls-2" d="M12.88,164.59c.41-.5.98-.8,1.55-.89.57-.08,1.16.01,1.64.36.49.33.8.84.92,1.41.12.56.06,1.2-.27,1.76-.32.56-.84.94-1.45,1.08-.6.12-1.28,0-1.86-.38-.57-.41-.94-.98-1.02-1.6-.09-.61.07-1.23.48-1.73Z"/>
      </g>
      <g>
        <path class="cls-1" d="M9.13,157.05c-.8-1.19-1.49-2.44-2.09-3.74l-4.26,1.95c.7,1.53,1.52,3.01,2.47,4.41l3.89-2.62Z"/>
        <path class="cls-2" d="M4.91,154.28c.59-.27,1.23-.28,1.78-.1.57.17,1.03.53,1.32,1.04.15.26.23.53.26.82.03.28.02.57-.06.85-.14.56-.49,1.11-1.03,1.47-.54.36-1.17.47-1.77.32-.3-.08-.6-.21-.85-.4-.25-.2-.48-.45-.65-.76-.35-.61-.39-1.3-.22-1.88.19-.59.62-1.08,1.2-1.35Z"/>
      </g>
      <g>
        <path class="cls-1" d="M4.91,145.87c-.11-.71-.14-1.42-.19-2.13l-.03-1.07c0-.37,0-.77,0-1.16H0c0,.39,0,.77,0,1.18l.03,1.26c.05.84.1,1.68.23,2.52l4.65-.6Z"/>
        <path class="cls-2" d="M2.34,141.51c1.3,0,2.34,1.09,2.38,2.23.03.59-.18,1.14-.57,1.58-.37.44-.92.77-1.56.85-.64.08-1.26-.11-1.74-.51-.46-.4-.78-1.01-.81-1.71-.05-1.44,1.02-2.44,2.31-2.44Z"/>
      </g>
      <g>
        <rect class="cls-1" x="0" y="128.37" width="4.69" height="4.67"/>
        <path class="cls-2" d="M2.34,128.37c1.29,0,2.34,1.05,2.34,2.34s-1.05,2.34-2.34,2.34S0,131.99,0,130.7s1.05-2.34,2.34-2.34Z"/>
      </g>
      <g>
        <rect class="cls-1" x="0" y="115.22" width="4.69" height="4.67"/>
        <path class="cls-2" d="M2.34,115.22c1.29,0,2.34,1.05,2.34,2.34s-1.05,2.34-2.34,2.34S0,118.85,0,117.56s1.05-2.34,2.34-2.34Z"/>
      </g>
      <g>
        <rect class="cls-1" x="0" y="102.08" width="4.69" height="4.67"/>
        <path class="cls-2" d="M2.34,102.08c1.29,0,2.34,1.05,2.34,2.34s-1.05,2.34-2.34,2.34S0,105.71,0,104.42s1.05-2.34,2.34-2.34Z"/>
      </g>
      <g>
        <rect class="cls-1" x="0" y="88.94" width="4.69" height="4.67"/>
        <path class="cls-2" d="M2.34,88.94c1.29,0,2.34,1.05,2.34,2.34s-1.05,2.34-2.34,2.34S0,92.57,0,91.28s1.05-2.34,2.34-2.34Z"/>
      </g>
      <g>
        <rect class="cls-1" x="0" y="75.8" width="4.69" height="4.67"/>
        <path class="cls-2" d="M2.34,75.8c1.29,0,2.34,1.05,2.34,2.34s-1.05,2.34-2.34,2.34S0,79.43,0,78.13s1.05-2.34,2.34-2.34Z"/>
      </g>
      <g>
        <rect class="cls-1" x="0" y="62.66" width="4.69" height="4.67"/>
        <path class="cls-2" d="M2.34,62.66c1.29,0,2.34,1.05,2.34,2.34s-1.05,2.34-2.34,2.34S0,66.28,0,64.99s1.05-2.34,2.34-2.34Z"/>
      </g>
      <g>
        <rect class="cls-1" x="0" y="49.51" width="4.69" height="4.67"/>
        <path class="cls-2" d="M2.34,49.51c1.29,0,2.34,1.05,2.34,2.34s-1.05,2.34-2.34,2.34S0,53.14,0,51.85s1.05-2.34,2.34-2.34Z"/>
      </g>
      <g>
        <rect class="cls-1" x="0" y="36.37" width="4.69" height="4.67"/>
        <path class="cls-2" d="M2.34,36.37c1.29,0,2.34,1.05,2.34,2.34s-1.05,2.34-2.34,2.34S0,40,0,38.71s1.05-2.34,2.34-2.34Z"/>
      </g>
      <g>
        <path class="cls-1" d="M4.82,28.14c.15-1.42.42-2.83.79-4.21l-4.52-1.24c-.44,1.63-.75,3.29-.93,4.97l4.66.47Z"/>
        <path class="cls-2" d="M3.35,23.32c.63.17,1.11.57,1.44,1.06.33.49.44,1.06.35,1.65-.05.29-.17.56-.33.79-.15.24-.35.45-.59.62-.47.34-1.09.54-1.73.47-.65-.06-1.19-.39-1.56-.89-.18-.25-.32-.54-.4-.86-.07-.31-.07-.65,0-1,.11-.69.54-1.25,1.04-1.58.51-.34,1.16-.43,1.78-.26Z"/>
      </g>
      <g>
        <path class="cls-1" d="M8.75,16.86c.77-1.21,1.62-2.36,2.58-3.42l-3.5-3.12c-1.13,1.25-2.14,2.61-3.04,4.03l3.96,2.52Z"/>
        <path class="cls-2" d="M9.59,11.88c.48.43.75,1.02.81,1.59.05.57-.06,1.16-.43,1.63-.35.48-.87.76-1.45.85-.57.1-1.2,0-1.75-.35s-.9-.89-1.01-1.5c-.1-.61.05-1.28.47-1.84.43-.55,1.02-.89,1.64-.95.62-.06,1.23.13,1.71.56Z"/>
      </g>
      <g>
        <path class="cls-1" d="M17.28,8.48c1.22-.74,2.51-1.38,3.83-1.91l-1.75-4.35c-1.56.63-3.08,1.39-4.52,2.26l2.44,4Z"/>
        <path class="cls-2" d="M20.24,4.39c.24.6.22,1.23.02,1.78-.1.28-.24.53-.43.75-.19.21-.41.39-.67.53-.26.14-.54.21-.83.22-.28.02-.57,0-.85-.09-.56-.17-1.08-.54-1.42-1.09-.34-.55-.41-1.19-.24-1.78.09-.29.24-.58.44-.83.21-.24.48-.45.79-.61.31-.16.64-.25.96-.26.32-.02.64.03.93.13.58.21,1.05.67,1.29,1.26Z"/>
      </g>
      <g>
        <path class="cls-1" d="M28.64,4.79c.71-.07,1.43-.08,2.14-.1h2.34V0h-2.34c-.84.02-1.69.03-2.53.11l.38,4.67Z"/>
        <path class="cls-2" d="M33.12,2.34c0,1.29-1.05,2.34-2.34,2.34-.59.02-1.13-.24-1.56-.64-.42-.39-.72-.96-.78-1.6-.05-.64.16-1.25.59-1.71.42-.46,1.05-.72,1.75-.74,1.29,0,2.34,1.05,2.34,2.34Z"/>
      </g>
      <g>
        <rect class="cls-1" x="41.59" width="4.67" height="4.69"/>
        <ellipse class="cls-3" cx="43.93" cy="2.34" rx="2.34" ry="2.34"/>
      </g>
      <g>
        <rect class="cls-1" x="54.73" width="4.67" height="4.69"/>
        <ellipse class="cls-3" cx="57.07" cy="2.34" rx="2.34" ry="2.34"/>
      </g>
      <g>
        <rect class="cls-1" x="67.87" width="4.67" height="4.69"/>
        <path class="cls-2" d="M72.55,2.34c0,1.29-1.05,2.34-2.34,2.34s-2.34-1.05-2.34-2.34,1.05-2.34,2.34-2.34,2.34,1.05,2.34,2.34Z"/>
      </g>
      <g>
        <rect class="cls-1" x="81.02" width="4.67" height="4.69"/>
        <path class="cls-2" d="M85.69,2.34c0,1.29-1.05,2.34-2.34,2.34s-2.34-1.05-2.34-2.34,1.05-2.34,2.34-2.34,2.34,1.05,2.34,2.34Z"/>
      </g>
      <g>
        <rect class="cls-1" x="94.16" width="4.67" height="4.69"/>
        <ellipse class="cls-3" cx="96.49" cy="2.34" rx="2.34" ry="2.34"/>
      </g>
      <g>
        <rect class="cls-1" x="107.3" width="4.67" height="4.69"/>
        <ellipse class="cls-3" cx="109.64" cy="2.34" rx="2.34" ry="2.34"/>
      </g>
      <g>
        <rect class="cls-1" x="120.44" width="4.67" height="4.69"/>
        <path class="cls-2" d="M125.12,2.34c0,1.29-1.05,2.34-2.34,2.34s-2.34-1.05-2.34-2.34,1.05-2.34,2.34-2.34,2.34,1.05,2.34,2.34Z"/>
      </g>
      <g>
        <rect class="cls-1" x="133.58" width="4.67" height="4.69"/>
        <path class="cls-2" d="M138.26,2.34c0,1.29-1.05,2.34-2.34,2.34s-2.34-1.05-2.34-2.34,1.05-2.34,2.34-2.34,2.34,1.05,2.34,2.34Z"/>
      </g>
      <g>
        <rect class="cls-1" x="146.73" width="4.67" height="4.69"/>
        <path class="cls-2" d="M151.4,2.34c0,1.29-1.05,2.34-2.34,2.34s-2.34-1.05-2.34-2.34,1.05-2.34,2.34-2.34,2.34,1.05,2.34,2.34Z"/>
      </g>
      <g>
        <rect class="cls-1" x="159.87" width="4.67" height="4.69"/>
        <ellipse class="cls-3" cx="162.21" cy="2.34" rx="2.34" ry="2.34"/>
      </g>
      <g>
        <rect class="cls-1" x="173.01" width="4.67" height="4.69"/>
        <ellipse class="cls-3" cx="175.35" cy="2.34" rx="2.34" ry="2.34"/>
      </g>
      <g>
        <rect class="cls-1" x="186.15" width="4.67" height="4.69"/>
        <path class="cls-2" d="M190.83,2.34c0,1.29-1.05,2.34-2.34,2.34s-2.34-1.05-2.34-2.34,1.05-2.34,2.34-2.34,2.34,1.05,2.34,2.34Z"/>
      </g>
      <g>
        <rect class="cls-1" x="199.3" width="4.67" height="4.69"/>
        <path class="cls-2" d="M203.97,2.34c0,1.29-1.05,2.34-2.34,2.34s-2.34-1.05-2.34-2.34,1.05-2.34,2.34-2.34,2.34,1.05,2.34,2.34Z"/>
      </g>
      <g>
        <rect class="cls-1" x="212.44" width="4.67" height="4.69"/>
        <ellipse class="cls-3" cx="214.77" cy="2.34" rx="2.34" ry="2.34"/>
      </g>
      <g>
        <rect class="cls-1" x="225.58" width="4.67" height="4.69"/>
        <ellipse class="cls-3" cx="227.92" cy="2.34" rx="2.34" ry="2.34"/>
      </g>
      <g>
        <rect class="cls-1" x="238.72" width="4.67" height="4.69"/>
        <ellipse class="cls-3" cx="241.06" cy="2.34" rx="2.34" ry="2.34"/>
      </g>
      <g>
        <path class="cls-1" d="M251.09,5.76c1.37.41,2.7.93,3.99,1.55l2.06-4.21c-1.52-.73-3.1-1.35-4.71-1.83l-1.33,4.5Z"/>
        <path class="cls-2" d="M256.1,5.2c-.28.58-.77,1-1.31,1.22-.27.11-.55.17-.83.17-.29.01-.57-.03-.85-.14-.54-.23-.97-.62-1.21-1.16-.24-.54-.33-1.15-.14-1.78.18-.62.61-1.12,1.16-1.38.55-.25,1.25-.32,1.9-.05.32.13.61.31.84.54.23.23.4.5.52.79.23.57.22,1.21-.07,1.79Z"/>
      </g>
      <g>
        <path class="cls-1" d="M261.46,11.7c1.05.97,2.02,2.03,2.89,3.17l3.71-2.87c-1.03-1.33-2.16-2.59-3.4-3.73l-3.19,3.43Z"/>
        <path class="cls-2" d="M266.2,13.43c-.51.4-1.13.55-1.71.51-.58-.05-1.13-.27-1.52-.72-.41-.42-.58-1.01-.58-1.58,0-.58.22-1.18.66-1.66.44-.47,1.03-.72,1.65-.71.63,0,1.24.29,1.73.79.46.53.68,1.17.63,1.79-.05.62-.35,1.19-.86,1.58Z"/>
      </g>
      <g>
        <path class="cls-1" d="M268.14,21.62c.5,1.34.9,2.71,1.18,4.11l4.6-.91c-.33-1.65-.8-3.28-1.39-4.86l-4.39,1.66Z"/>
        <path class="cls-2" d="M271.61,25.28c-.63.12-1.25-.01-1.76-.31-.5-.3-.87-.75-1.04-1.32-.15-.57-.08-1.15.19-1.67.28-.52.73-.96,1.33-1.19.6-.23,1.26-.19,1.8.09.54.28,1.01.8,1.19,1.48.2.67.09,1.36-.23,1.88-.31.53-.84.91-1.47,1.03Z"/>
      </g>
      <g>
        <rect class="cls-1" x="269.81" y="33.71" width="4.69" height="4.67"/>
        <ellipse class="cls-3" cx="272.16" cy="36.05" rx="2.34" ry="2.34"/>
      </g>
      <g>
        <rect class="cls-1" x="269.81" y="46.85" width="4.69" height="4.67"/>
        <ellipse class="cls-3" cx="272.16" cy="49.19" rx="2.34" ry="2.34"/>
      </g>
      <g>
        <rect class="cls-1" x="269.81" y="60" width="4.69" height="4.67"/>
        <path class="cls-2" d="M272.16,64.67c-1.29,0-2.34-1.05-2.34-2.34s1.05-2.34,2.34-2.34,2.34,1.05,2.34,2.34-1.05,2.34-2.34,2.34Z"/>
      </g>
      <g>
        <rect class="cls-1" x="269.81" y="73.14" width="4.69" height="4.67"/>
        <ellipse class="cls-3" cx="272.16" cy="75.47" rx="2.34" ry="2.34"/>
      </g>
      <g>
        <rect class="cls-1" x="269.81" y="86.28" width="4.69" height="4.67"/>
        <ellipse class="cls-3" cx="272.16" cy="88.62" rx="2.34" ry="2.34"/>
      </g>
      <g>
        <rect class="cls-1" x="269.81" y="99.42" width="4.69" height="4.67"/>
        <ellipse class="cls-3" cx="272.16" cy="101.76" rx="2.34" ry="2.34"/>
      </g>
      <g>
        <rect class="cls-1" x="269.81" y="112.56" width="4.69" height="4.67"/>
        <path class="cls-2" d="M272.16,117.24c-1.29,0-2.34-1.05-2.34-2.34s1.05-2.34,2.34-2.34,2.34,1.05,2.34,2.34-1.05,2.34-2.34,2.34Z"/>
      </g>
      <g>
        <rect class="cls-1" x="269.81" y="125.71" width="4.69" height="4.67"/>
        <path class="cls-2" d="M272.16,130.38c-1.29,0-2.34-1.05-2.34-2.34s1.05-2.34,2.34-2.34,2.34,1.05,2.34,2.34-1.05,2.34-2.34,2.34Z"/>
      </g>
      <g>
        <path class="cls-1" d="M269.81,138.85v3.51c0,.39-.02.72-.02,1.09l4.69.16c0-.41.03-.86.03-1.25v-3.51h-4.69Z"/>
        <path class="cls-2" d="M272.13,143.52c-1.29-.07-2.31-1.02-2.32-2.34,0-1.29,1.05-2.34,2.34-2.34s2.34,1.05,2.34,2.34c.01,1.27-1.08,2.41-2.37,2.34Z"/>
      </g>
      <g>
        <path class="cls-1" d="M268.37,151.04c-.47,1.35-1.05,2.66-1.73,3.92l4.12,2.25c.8-1.48,1.49-3.03,2.04-4.62l-4.43-1.54Z"/>
        <path class="cls-2" d="M268.7,156.09c-.57-.31-.96-.82-1.16-1.37-.1-.27-.14-.56-.13-.84,0-.29.06-.57.18-.84.06-.13.14-.26.22-.38.08-.12.17-.23.27-.32.2-.2.45-.35.72-.46.54-.22,1.17-.28,1.78-.06.61.21,1.09.66,1.32,1.23.12.28.18.6.18.92,0,.16-.02.33-.05.49-.04.16-.09.32-.17.48-.14.32-.34.59-.57.82-.24.22-.52.38-.81.48-.58.2-1.22.16-1.79-.15Z"/>
      </g>
      <g>
        <path class="cls-1" d="M261.97,161.14c-1.02,1.01-2.13,1.92-3.3,2.74l2.7,3.83c1.38-.97,2.68-2.04,3.88-3.23l-3.28-3.35Z"/>
        <path class="cls-2" d="M260.02,165.8c-.37-.53-.5-1.16-.43-1.73.07-.58.32-1.12.78-1.49.44-.39,1.03-.53,1.6-.51.58.04,1.17.28,1.63.74s.67,1.06.64,1.68c-.02.63-.34,1.23-.87,1.69-.54.44-1.2.63-1.81.55-.62-.08-1.17-.41-1.54-.94Z"/>
      </g>
      <g>
        <path class="cls-1" d="M251.75,167.35c-1.36.44-2.75.77-4.16.99l.7,4.64c1.67-.26,3.32-.65,4.92-1.17l-1.45-4.46Z"/>
        <path class="cls-2" d="M247.94,170.66c-.09-.64.07-1.26.39-1.75.16-.24.36-.45.59-.62.23-.17.49-.3.78-.37.58-.12,1.15-.03,1.66.27.51.3.93.76,1.13,1.38.2.61.13,1.27-.18,1.79-.31.52-.85.97-1.53,1.12-.34.08-.68.09-1,.04-.32-.06-.62-.18-.87-.35-.52-.34-.86-.87-.96-1.52Z"/>
      </g>
    </g>
  </g>
</svg>