<?xml version="1.0" encoding="UTF-8"?>
<svg id="Layer_2" data-name="Layer 2" xmlns="http://www.w3.org/2000/svg" viewBox="0 0 190.34 242.27">
  <defs>
    <style>
      .cls-1 {
        fill: none;
      }

      .cls-1, .cls-2 {
        stroke-width: 0px;
      }

      .cls-2 {
        fill: #191919;
        fill-rule: evenodd;
      }
    </style>
  </defs>
  <g id="_ÎÓÈ_1" data-name="—ÎÓÈ_1">
    <g>
      <g>
        <path class="cls-1" d="M103.65,232.72c-1.06.95-2.21,1.77-3.42,2.46l2.33,4.07c1.5-.86,2.91-1.87,4.19-3.01l-3.1-3.52Z"/>
        <path class="cls-2" d="M101.39,237.22c-.32-.56-.39-1.2-.28-1.76.06-.28.16-.55.3-.79.14-.24.34-.44.58-.62.46-.35,1.05-.45,1.62-.4.57.07,1.16.34,1.59.83.43.48.61,1.1.54,1.72-.07.63-.43,1.22-1,1.65-.29.21-.61.34-.93.42-.32.07-.64.08-.95.01-.62-.13-1.14-.5-1.46-1.06Z"/>
      </g>
      <g>
        <path class="cls-1" d="M93.13,237.5c-1.37.14-2.75.1-4.1-.11l-.7,4.64c1.74.26,3.51.31,5.26.14l-.46-4.67Z"/>
        <path class="cls-2" d="M88.68,239.71c.1-.63.44-1.19.87-1.56.43-.36.96-.61,1.53-.57.57,0,1.08.27,1.5.65.41.4.72.97.79,1.61.07.65-.15,1.25-.58,1.7-.43.47-1.09.73-1.82.73-.73-.04-1.37-.33-1.78-.82-.41-.48-.59-1.08-.49-1.73Z"/>
      </g>
      <g>
        <path class="cls-1" d="M82.06,234.71c-1.17-.76-2.28-1.64-3.29-2.64l-3.28,3.35c1.22,1.2,2.57,2.28,4.03,3.23l2.54-3.94Z"/>
        <path class="cls-2" d="M77.13,233.75c.45-.46,1.05-.71,1.63-.75.57-.03,1.15.1,1.6.48.23.18.41.39.54.64.13.25.22.53.26.81.09.57-.02,1.2-.37,1.75-.35.54-.89.89-1.51.98-.31.05-.63.03-.95-.06-.31-.09-.63-.24-.91-.46-.55-.46-.88-1.07-.91-1.7-.04-.62.17-1.23.62-1.69Z"/>
      </g>
      <g>
        <rect class="cls-1" x="68.07" y="222.89" width="4.69" height="4.7" transform="translate(-120.15 86.04) rotate(-36.49)"/>
        <path class="cls-2" d="M69.02,223.35c1.04-.77,2.51-.55,3.28.49s.55,2.51-.49,3.28c-1.04.77-2.51.55-3.28-.49-.77-1.04-.55-2.51.49-3.28Z"/>
      </g>
      <g>
        <rect class="cls-1" x="60.22" y="212.27" width="4.69" height="4.7" transform="translate(-115.37 79.29) rotate(-36.49)"/>
        <path class="cls-2" d="M61.16,212.73c1.04-.77,2.51-.55,3.28.49.77,1.04.55,2.51-.49,3.28-1.04.77-2.51.55-3.28-.49-.77-1.04-.55-2.51.49-3.28Z"/>
      </g>
      <g>
        <rect class="cls-1" x="52.36" y="201.65" width="4.69" height="4.7" transform="translate(-110.6 72.53) rotate(-36.49)"/>
        <path class="cls-2" d="M53.31,202.11c1.04-.77,2.51-.55,3.28.49.77,1.04.55,2.51-.49,3.28-1.04.77-2.51.55-3.28-.49-.77-1.04-.55-2.51.49-3.28Z"/>
      </g>
      <g>
        <rect class="cls-1" x="44.51" y="191.04" width="4.69" height="4.7" transform="translate(-105.83 65.78) rotate(-36.49)"/>
        <path class="cls-2" d="M45.45,191.5c1.04-.77,2.51-.55,3.28.49.77,1.04.55,2.51-.49,3.28-1.04.77-2.51.55-3.28-.49-.77-1.04-.55-2.51.49-3.28Z"/>
      </g>
      <g>
        <rect class="cls-1" x="36.65" y="180.42" width="4.69" height="4.7" transform="translate(-101.05 59.03) rotate(-36.49)"/>
        <path class="cls-2" d="M37.6,180.88c1.04-.77,2.51-.55,3.28.49.77,1.04.55,2.51-.49,3.28-1.04.77-2.51.55-3.28-.49-.77-1.04-.55-2.51.49-3.28Z"/>
      </g>
      <g>
        <rect class="cls-1" x="28.8" y="169.8" width="4.69" height="4.7" transform="translate(-96.28 52.28) rotate(-36.49)"/>
        <path class="cls-2" d="M29.74,170.26c1.04-.77,2.51-.55,3.28.49.77,1.04.55,2.51-.49,3.28-1.04.77-2.51.55-3.28-.49-.77-1.04-.55-2.51.49-3.28Z"/>
      </g>
      <g>
        <rect class="cls-1" x="20.94" y="159.18" width="4.69" height="4.7" transform="translate(-91.5 45.52) rotate(-36.49)"/>
        <path class="cls-2" d="M21.89,159.64c1.04-.77,2.51-.55,3.28.49.77,1.04.55,2.51-.49,3.28-1.04.77-2.51.55-3.28-.49-.77-1.04-.55-2.51.49-3.28Z"/>
      </g>
      <g>
        <rect class="cls-1" x="13.09" y="148.57" width="4.69" height="4.7" transform="translate(-86.73 38.77) rotate(-36.49)"/>
        <path class="cls-2" d="M14.04,149.03c1.04-.77,2.51-.55,3.28.49.77,1.04.55,2.51-.49,3.28-1.04.77-2.51.55-3.28-.49s-.55-2.51.49-3.28Z"/>
      </g>
      <g>
        <path class="cls-1" d="M10.86,140.79l-.35-.47-.31-.44c-.2-.3-.43-.58-.61-.89l-.58-.92-.54-.94-4.11,2.25.62,1.1.67,1.07c.22.36.48.7.72,1.05l.36.51.35.47,3.77-2.79Z"/>
        <path class="cls-2" d="M6.42,138.25c.57-.31,1.21-.37,1.78-.23.56.14,1.08.46,1.39.96.32.5.43,1.08.31,1.66-.09.59-.4,1.15-.93,1.54-.52.38-1.15.52-1.74.43-.59-.12-1.19-.48-1.57-1.07-.38-.59-.5-1.26-.34-1.87.15-.6.53-1.12,1.1-1.43Z"/>
      </g>
      <g>
        <path class="cls-1" d="M5.61,129.77c-.36-1.42-.63-2.87-.82-4.33l-4.65.58c.21,1.65.52,3.28.93,4.9l4.54-1.15Z"/>
        <path class="cls-2" d="M2.47,125.73c.64-.08,1.26.1,1.74.45.24.17.44.38.6.63.16.24.28.51.34.81.1.6-.02,1.18-.35,1.68-.33.49-.82.89-1.45,1.05-.62.16-1.27.05-1.78-.29-.5-.34-.92-.89-1.03-1.57-.06-.34-.06-.67,0-.98.07-.31.21-.6.39-.85.36-.5.9-.84,1.54-.92Z"/>
      </g>
      <g>
        <path class="cls-1" d="M4.67,117.45c.14-1.47.35-2.92.66-4.36l-4.58-.98c-.35,1.63-.59,3.27-.74,4.92l4.67.43Z"/>
        <path class="cls-2" d="M3.04,112.6c.63.14,1.16.51,1.49.99.17.24.29.51.36.79.08.28.1.58.05.88-.11.6-.41,1.12-.89,1.47-.47.36-1.07.56-1.72.5-.64-.06-1.21-.38-1.58-.86-.36-.48-.57-1.14-.45-1.82.05-.34.17-.65.33-.93.17-.27.39-.5.64-.68.5-.35,1.13-.49,1.76-.36Z"/>
      </g>
      <g>
        <path class="cls-1" d="M7.88,105.58c.64-1.31,1.36-2.57,2.17-3.77l-3.88-2.64c-.94,1.4-1.78,2.86-2.51,4.37l4.22,2.04Z"/>
        <path class="cls-2" d="M8.11,100.49c.53.36.87.91,1.01,1.48.14.57.07,1.16-.22,1.68-.31.51-.78.88-1.35,1.04-.57.16-1.2.14-1.79-.14-.58-.28-1-.78-1.17-1.37-.17-.59-.12-1.28.24-1.88.34-.61.91-1.01,1.51-1.15.59-.15,1.23-.04,1.77.33Z"/>
      </g>
      <g>
        <rect class="cls-1" x="12.56" y="89.68" width="4.7" height="4.69" transform="translate(-65.64 45.08) rotate(-50.56)"/>
        <path class="cls-2" d="M16.4,90.21c1,.82,1.14,2.3.32,3.3-.82,1-2.3,1.15-3.3.32-1-.82-1.14-2.3-.32-3.3.82-1,2.3-1.15,3.3-.32Z"/>
      </g>
      <g>
        <rect class="cls-1" x="20.95" y="79.48" width="4.7" height="4.69" transform="translate(-54.7 47.84) rotate(-50.56)"/>
        <path class="cls-2" d="M24.79,80.01c1,.82,1.14,2.3.32,3.3-.82,1-2.3,1.15-3.3.32-1-.82-1.14-2.3-.32-3.3s2.3-1.15,3.3-.32Z"/>
      </g>
      <g>
        <rect class="cls-1" x="29.34" y="69.28" width="4.7" height="4.69" transform="translate(-43.76 50.6) rotate(-50.56)"/>
        <path class="cls-2" d="M33.18,69.81c1,.82,1.14,2.3.32,3.3-.82,1-2.3,1.15-3.3.32-1-.82-1.14-2.3-.32-3.3s2.3-1.15,3.3-.32Z"/>
      </g>
      <g>
        <rect class="cls-1" x="37.73" y="59.08" width="4.7" height="4.69" transform="translate(-32.82 53.36) rotate(-50.57)"/>
        <path class="cls-2" d="M41.57,59.61c1,.82,1.14,2.3.32,3.3-.82,1-2.3,1.15-3.3.32-1-.82-1.14-2.3-.32-3.3s2.3-1.15,3.3-.32Z"/>
      </g>
      <g>
        <rect class="cls-1" x="46.12" y="48.88" width="4.7" height="4.69" transform="translate(-21.89 56.12) rotate(-50.56)"/>
        <path class="cls-2" d="M49.96,49.41c1,.82,1.14,2.3.32,3.3s-2.3,1.15-3.3.32c-1-.82-1.14-2.3-.32-3.3s2.3-1.15,3.3-.32Z"/>
      </g>
      <g>
        <rect class="cls-1" x="54.51" y="38.68" width="4.7" height="4.69" transform="translate(-10.95 58.88) rotate(-50.56)"/>
        <path class="cls-2" d="M58.35,39.21c1,.82,1.14,2.3.32,3.3-.82,1-2.3,1.15-3.3.32-1-.82-1.14-2.3-.32-3.3.82-1,2.3-1.15,3.3-.32Z"/>
      </g>
      <g>
        <rect class="cls-1" x="62.89" y="28.48" width="4.7" height="4.69" transform="translate(0 61.64) rotate(-50.56)"/>
        <path class="cls-2" d="M66.74,29.01c1,.82,1.14,2.3.32,3.3-.82,1-2.3,1.15-3.3.32-1-.82-1.14-2.3-.32-3.3s2.3-1.15,3.3-.32Z"/>
      </g>
      <g>
        <rect class="cls-1" x="71.28" y="18.28" width="4.7" height="4.69" transform="translate(10.93 64.39) rotate(-50.56)"/>
        <path class="cls-2" d="M75.12,18.81c1,.82,1.14,2.3.32,3.3-.82,1-2.3,1.15-3.3.32-1-.82-1.14-2.3-.32-3.3.82-1,2.3-1.15,3.3-.32Z"/>
      </g>
      <g>
        <path class="cls-1" d="M82.34,13.73l1.49-1.81.7-.81c.23-.27.49-.52.73-.78l-3.35-3.28c-.29.31-.6.61-.87.93l-.83.96-1.49,1.81,3.62,2.98Z"/>
        <path class="cls-2" d="M83.59,8.68c.46.45.7,1.05.74,1.62.03.57-.11,1.17-.5,1.61-.82,1-2.3,1.15-3.3.32-1-.82-1.14-2.3-.32-3.3.46-.53,1.07-.85,1.69-.89.62-.04,1.23.18,1.69.63Z"/>
      </g>
      <g>
        <path class="cls-1" d="M91.45,5.89c1.26-.58,2.58-1.02,3.93-1.29l-.92-4.6c-1.72.34-3.39.9-4.97,1.63l1.96,4.26Z"/>
        <path class="cls-2" d="M94.93,2.3c.13.64-.01,1.24-.29,1.76-.14.25-.32.48-.53.65-.21.18-.45.33-.72.42-.28.08-.55.12-.83.1-.28-.02-.56-.11-.82-.22-.52-.23-1-.66-1.27-1.25-.27-.59-.27-1.23-.02-1.81.13-.29.33-.54.57-.76.25-.22.55-.41.9-.51.35-.11.69-.16,1.03-.12.33.04.65.14.92.29.54.29.93.84,1.05,1.47Z"/>
      </g>
      <g>
        <path class="cls-1" d="M102.78,4.79c1.33.34,2.63.84,3.86,1.49l2.18-4.15c-1.54-.81-3.18-1.45-4.88-1.88l-1.16,4.54Z"/>
        <path class="cls-2" d="M107.73,4.2c-.3.57-.8.97-1.33,1.18-.27.1-.55.17-.83.18-.28,0-.55-.05-.82-.14-.27-.1-.5-.26-.7-.45-.2-.19-.37-.42-.49-.68-.25-.53-.36-1.14-.2-1.77.16-.62.57-1.15,1.13-1.41.28-.14.6-.22.93-.24.33-.02.68.05,1.02.18.34.12.63.32.87.56.24.24.42.5.53.79.23.59.19,1.23-.11,1.81Z"/>
      </g>
      <g>
        <path class="cls-1" d="M112.59,11.03c.23.27.48.53.69.82l.66.85,1.4,1.89,3.77-2.79-1.4-1.89-.78-1c-.26-.34-.55-.65-.82-.97l-3.52,3.1Z"/>
        <path class="cls-2" d="M117.22,13.19c-1.04.77-2.51.55-3.28-.49-.37-.46-.48-1.06-.42-1.63.07-.57.34-1.16.82-1.58.48-.43,1.1-.61,1.72-.54.62.07,1.21.42,1.64.97.77,1.04.55,2.51-.49,3.28Z"/>
      </g>
      <g>
        <rect class="cls-1" x="121.34" y="19.57" width="4.69" height="4.7" transform="translate(11.22 77.85) rotate(-36.49)"/>
        <path class="cls-2" d="M125.08,23.8c-1.04.77-2.51.55-3.28-.49-.77-1.04-.55-2.51.49-3.28,1.04-.77,2.51-.55,3.28.49.77,1.04.55,2.51-.49,3.28Z"/>
      </g>
      <g>
        <rect class="cls-1" x="129.19" y="30.19" width="4.69" height="4.7" transform="translate(6.44 84.61) rotate(-36.49)"/>
        <path class="cls-2" d="M132.93,34.42c-1.04.77-2.51.55-3.28-.49-.77-1.04-.55-2.51.49-3.28,1.04-.77,2.51-.55,3.28.49s.55,2.51-.49,3.28Z"/>
      </g>
      <g>
        <rect class="cls-1" x="137.05" y="40.8" width="4.69" height="4.7" transform="translate(1.67 91.36) rotate(-36.49)"/>
        <path class="cls-2" d="M140.79,45.04c-1.04.77-2.51.55-3.28-.49-.77-1.04-.55-2.51.49-3.28,1.04-.77,2.51-.55,3.28.49.77,1.04.55,2.51-.49,3.28Z"/>
      </g>
      <g>
        <rect class="cls-1" x="144.9" y="51.42" width="4.69" height="4.7" transform="translate(-3.11 98.12) rotate(-36.49)"/>
        <path class="cls-2" d="M148.64,55.66c-1.04.77-2.51.55-3.28-.49s-.55-2.51.49-3.28c1.04-.77,2.51-.55,3.28.49s.55,2.51-.49,3.28Z"/>
      </g>
      <g>
        <rect class="cls-1" x="152.75" y="62.04" width="4.69" height="4.7" transform="translate(-7.88 104.87) rotate(-36.49)"/>
        <path class="cls-2" d="M156.5,66.27c-1.04.77-2.51.55-3.28-.49s-.55-2.51.49-3.28c1.04-.77,2.51-.55,3.28.49.77,1.04.55,2.51-.49,3.28Z"/>
      </g>
      <g>
        <rect class="cls-1" x="160.61" y="72.66" width="4.69" height="4.7" transform="translate(-12.66 111.62) rotate(-36.49)"/>
        <path class="cls-2" d="M164.35,76.89c-1.04.77-2.51.55-3.28-.49-.77-1.04-.55-2.51.49-3.28,1.04-.77,2.51-.55,3.28.49.77,1.04.55,2.51-.49,3.28Z"/>
      </g>
      <g>
        <rect class="cls-1" x="168.46" y="83.27" width="4.69" height="4.7" transform="translate(-17.43 118.37) rotate(-36.49)"/>
        <path class="cls-2" d="M172.2,87.51c-1.04.77-2.51.55-3.28-.49-.77-1.04-.55-2.51.49-3.28,1.04-.77,2.51-.55,3.28.49.77,1.04.55,2.51-.49,3.28Z"/>
      </g>
      <g>
        <rect class="cls-1" x="176.32" y="93.89" width="4.69" height="4.7" transform="translate(-22.2 125.13) rotate(-36.49)"/>
        <path class="cls-2" d="M180.06,98.13c-1.04.77-2.51.55-3.28-.49-.77-1.04-.55-2.51.49-3.28,1.04-.77,2.51-.55,3.28.49.77,1.04.55,2.51-.49,3.28Z"/>
      </g>
      <g>
        <path class="cls-1" d="M182.49,106.29c.63,1.31,1.14,2.68,1.58,4.07l4.48-1.39c-.5-1.59-1.09-3.16-1.81-4.68l-4.24,2Z"/>
        <path class="cls-2" d="M186.31,109.67c-.62.19-1.25.12-1.78-.13-.54-.25-.96-.68-1.18-1.24-.23-.56-.18-1.17.03-1.7.22-.54.64-1.02,1.23-1.3.59-.28,1.23-.28,1.8-.05.58.23,1.05.72,1.31,1.36.25.65.2,1.33-.05,1.88-.27.56-.75.99-1.37,1.18Z"/>
      </g>
      <g>
        <path class="cls-1" d="M185.55,118.19c.12,1.47.13,2.94.07,4.42l4.68.2c.07-1.66.06-3.32-.08-4.97l-4.68.35Z"/>
        <path class="cls-2" d="M187.96,122.71c-.65-.03-1.22-.31-1.63-.73-.42-.42-.67-.97-.68-1.58-.02-.61.24-1.17.63-1.6.4-.43.96-.73,1.61-.78.65-.05,1.25.17,1.7.59.46.42.73,1.03.75,1.72,0,.69-.27,1.31-.69,1.74-.44.43-1.04.67-1.69.64Z"/>
      </g>
      <g>
        <path class="cls-1" d="M184.42,130.49c-.37,1.42-.85,2.81-1.41,4.15l4.33,1.8c.64-1.54,1.18-3.12,1.61-4.73l-4.53-1.22Z"/>
        <path class="cls-2" d="M185.17,135.54c-.6-.25-1.04-.71-1.28-1.24-.26-.54-.31-1.14-.11-1.71.18-.58.61-1.02,1.12-1.29.52-.27,1.15-.37,1.78-.2.63.17,1.12.58,1.41,1.12.3.55.34,1.22.13,1.88-.22.65-.69,1.15-1.24,1.41-.57.26-1.21.28-1.81.03Z"/>
      </g>
      <g>
        <path class="cls-1" d="M179.08,141.45c-.42.55-.95,1.18-1.44,1.78l-1.49,1.81,3.62,2.98,1.49-1.81c.5-.61.98-1.18,1.52-1.87l-3.7-2.88Z"/>
        <path class="cls-2" d="M177.96,146.53c-1-.82-1.14-2.3-.32-3.3.41-.5.99-.79,1.58-.84.57-.05,1.2.11,1.71.51.51.4.81.97.86,1.59.06.61-.11,1.22-.53,1.72-.82,1-2.3,1.15-3.3.32Z"/>
      </g>
      <g>
        <rect class="cls-1" x="168.72" y="152.57" width="4.7" height="4.69" transform="translate(-57.25 188.63) rotate(-50.56)"/>
        <path class="cls-2" d="M169.57,156.73c-1-.82-1.14-2.3-.32-3.3.82-1,2.3-1.15,3.3-.32,1,.82,1.14,2.3.32,3.3s-2.3,1.15-3.3.32Z"/>
      </g>
      <g>
        <rect class="cls-1" x="160.33" y="162.77" width="4.7" height="4.69" transform="translate(-68.18 185.87) rotate(-50.56)"/>
        <path class="cls-2" d="M161.18,166.93c-1-.82-1.14-2.3-.32-3.3s2.3-1.15,3.3-.32c1,.82,1.14,2.3.32,3.3-.82,1-2.3,1.15-3.3.32Z"/>
      </g>
      <g>
        <rect class="cls-1" x="151.94" y="172.97" width="4.7" height="4.69" transform="translate(-79.12 183.12) rotate(-50.56)"/>
        <path class="cls-2" d="M152.8,177.13c-1-.82-1.14-2.3-.32-3.3.82-1,2.3-1.15,3.3-.32,1,.82,1.14,2.3.32,3.3-.82,1-2.3,1.15-3.3.32Z"/>
      </g>
      <g>
        <rect class="cls-1" x="143.55" y="183.17" width="4.7" height="4.69" transform="translate(-90.06 180.35) rotate(-50.56)"/>
        <path class="cls-2" d="M144.41,187.33c-1-.82-1.14-2.3-.32-3.3.82-1,2.3-1.15,3.3-.32,1,.82,1.14,2.3.32,3.3-.82,1-2.3,1.15-3.3.32Z"/>
      </g>
      <g>
        <rect class="cls-1" x="135.16" y="193.37" width="4.7" height="4.69" transform="translate(-101 177.6) rotate(-50.57)"/>
        <path class="cls-2" d="M136.02,197.53c-1-.82-1.14-2.3-.32-3.3.82-1,2.3-1.15,3.3-.32,1,.82,1.14,2.3.32,3.3s-2.3,1.15-3.3.32Z"/>
      </g>
      <g>
        <rect class="cls-1" x="126.77" y="203.57" width="4.7" height="4.69" transform="translate(-111.94 174.84) rotate(-50.56)"/>
        <path class="cls-2" d="M127.63,207.73c-1-.82-1.14-2.3-.32-3.3s2.3-1.15,3.3-.32c1,.82,1.14,2.3.32,3.3s-2.3,1.15-3.3.32Z"/>
      </g>
      <g>
        <rect class="cls-1" x="118.38" y="213.77" width="4.7" height="4.69" transform="translate(-122.88 172.08) rotate(-50.56)"/>
        <path class="cls-2" d="M119.24,217.93c-1-.82-1.14-2.3-.32-3.3s2.3-1.15,3.3-.32c1,.82,1.14,2.3.32,3.3-.82,1-2.3,1.15-3.3.32Z"/>
      </g>
      <g>
        <rect class="cls-1" x="109.99" y="223.97" width="4.7" height="4.69" transform="translate(-133.82 169.33) rotate(-50.57)"/>
        <path class="cls-2" d="M110.85,228.13c-1-.82-1.14-2.3-.32-3.3s2.3-1.15,3.3-.32c1,.82,1.14,2.3.32,3.3s-2.3,1.15-3.3.32Z"/>
      </g>
    </g>
  </g>
</svg>