<?xml version="1.0" encoding="UTF-8"?>
<svg id="Layer_2" data-name="Layer 2" xmlns="http://www.w3.org/2000/svg" viewBox="0 0 175.66 175.66">
  <defs>
    <style>
      .cls-1 {
        fill: none;
      }

      .cls-1, .cls-2 {
        stroke-width: 0px;
      }

      .cls-2 {
        fill: #191919;
        fill-rule: evenodd;
      }
    </style>
  </defs>
  <g id="_ÎÓÈ_1" data-name="—ÎÓÈ_1">
    <g>
      <g>
        <rect class="cls-1" x="161.73" y="172.28" width="2.77" height="2.79" transform="translate(-.63 .59) rotate(-.21)"/>
        <path class="cls-2" d="M161.73,173.68c0-.77.61-1.4,1.38-1.4.76,0,1.39.62,1.39,1.39,0,.77-.61,1.4-1.38,1.4-.76,0-1.39-.62-1.39-1.39Z"/>
      </g>
      <g>
        <rect class="cls-1" x="153.95" y="172.31" width="2.77" height="2.79" transform="translate(-.63 .56) rotate(-.21)"/>
        <path class="cls-2" d="M153.95,173.71c0-.77.61-1.4,1.38-1.4.76,0,1.39.62,1.39,1.39,0,.77-.61,1.4-1.38,1.4-.76,0-1.39-.62-1.39-1.39Z"/>
      </g>
      <g>
        <rect class="cls-1" x="146.17" y="172.34" width="2.77" height="2.79" transform="translate(-.63 .53) rotate(-.21)"/>
        <path class="cls-2" d="M146.17,173.74c0-.77.61-1.4,1.38-1.4.76,0,1.39.62,1.39,1.39,0,.77-.61,1.4-1.38,1.4s-1.39-.62-1.39-1.39Z"/>
      </g>
      <g>
        <rect class="cls-1" x="138.39" y="172.37" width="2.77" height="2.79" transform="translate(-.62 .5) rotate(-.21)"/>
        <path class="cls-2" d="M138.39,173.77c0-.77.61-1.4,1.38-1.4.76,0,1.39.62,1.39,1.39,0,.77-.61,1.4-1.38,1.4-.76,0-1.39-.62-1.39-1.39Z"/>
      </g>
      <g>
        <rect class="cls-1" x="130.61" y="172.4" width="2.77" height="2.79" transform="translate(-.62 .47) rotate(-.2)"/>
        <path class="cls-2" d="M130.61,173.8c0-.77.61-1.4,1.38-1.4.76,0,1.39.62,1.39,1.39,0,.77-.61,1.4-1.38,1.4-.76,0-1.39-.62-1.39-1.39Z"/>
      </g>
      <g>
        <rect class="cls-1" x="122.83" y="172.42" width="2.77" height="2.79" transform="translate(-.62 .45) rotate(-.21)"/>
        <path class="cls-2" d="M122.83,173.82c0-.77.61-1.4,1.38-1.4.76,0,1.39.62,1.39,1.39,0,.77-.61,1.4-1.38,1.4-.76,0-1.39-.62-1.39-1.39Z"/>
      </g>
      <g>
        <rect class="cls-1" x="115.05" y="172.45" width="2.77" height="2.79" transform="translate(-.63 .42) rotate(-.21)"/>
        <path class="cls-2" d="M115.05,173.85c0-.77.61-1.4,1.38-1.4.76,0,1.39.62,1.39,1.39,0,.77-.61,1.4-1.38,1.4-.76,0-1.39-.62-1.39-1.39Z"/>
      </g>
      <g>
        <rect class="cls-1" x="107.27" y="172.48" width="2.77" height="2.79" transform="translate(-.62 .39) rotate(-.21)"/>
        <path class="cls-2" d="M107.27,173.88c0-.77.61-1.4,1.38-1.4.76,0,1.39.62,1.39,1.39,0,.77-.61,1.4-1.38,1.4-.76,0-1.39-.62-1.39-1.39Z"/>
      </g>
      <g>
        <rect class="cls-1" x="99.49" y="172.51" width="2.77" height="2.79" transform="translate(-.62 .36) rotate(-.21)"/>
        <path class="cls-2" d="M99.49,173.91c0-.77.61-1.4,1.38-1.4.76,0,1.39.62,1.39,1.39,0,.77-.61,1.4-1.38,1.4-.76,0-1.39-.62-1.39-1.39Z"/>
      </g>
      <g>
        <rect class="cls-1" x="91.71" y="172.54" width="2.77" height="2.79" transform="translate(-.62 .33) rotate(-.21)"/>
        <path class="cls-2" d="M91.71,173.93c0-.77.61-1.4,1.38-1.4.76,0,1.39.62,1.39,1.39,0,.77-.61,1.4-1.38,1.4-.76,0-1.39-.62-1.39-1.39Z"/>
      </g>
      <g>
        <rect class="cls-1" x="83.93" y="172.56" width="2.77" height="2.79" transform="translate(-.62 .3) rotate(-.2)"/>
        <path class="cls-2" d="M83.93,173.96c0-.77.61-1.4,1.38-1.4.76,0,1.39.62,1.39,1.39,0,.77-.61,1.4-1.38,1.4-.76,0-1.39-.62-1.39-1.39Z"/>
      </g>
      <g>
        <rect class="cls-1" x="76.15" y="172.59" width="2.77" height="2.79" transform="translate(-.62 .28) rotate(-.21)"/>
        <path class="cls-2" d="M76.15,173.99c0-.77.61-1.4,1.38-1.4.76,0,1.39.62,1.39,1.39,0,.77-.61,1.4-1.38,1.4-.76,0-1.39-.62-1.39-1.39Z"/>
      </g>
      <g>
        <rect class="cls-1" x="68.37" y="172.62" width="2.77" height="2.79" transform="translate(-.63 .25) rotate(-.21)"/>
        <path class="cls-2" d="M68.37,174.02c0-.77.61-1.4,1.38-1.4.76,0,1.39.62,1.39,1.39,0,.77-.61,1.4-1.38,1.4-.76,0-1.39-.62-1.39-1.39Z"/>
      </g>
      <g>
        <rect class="cls-1" x="60.59" y="172.65" width="2.77" height="2.79" transform="translate(-.63 .23) rotate(-.21)"/>
        <path class="cls-2" d="M60.59,174.05c0-.77.61-1.4,1.38-1.4.76,0,1.39.62,1.39,1.39,0,.77-.61,1.4-1.38,1.4-.76,0-1.39-.62-1.39-1.39Z"/>
      </g>
      <g>
        <rect class="cls-1" x="52.81" y="172.68" width="2.77" height="2.79" transform="translate(-.63 .2) rotate(-.21)"/>
        <path class="cls-2" d="M52.81,174.07c0-.77.61-1.4,1.38-1.4.76,0,1.39.62,1.39,1.39,0,.77-.61,1.4-1.38,1.4-.76,0-1.39-.62-1.39-1.39Z"/>
      </g>
      <g>
        <rect class="cls-1" x="45.03" y="172.7" width="2.77" height="2.79" transform="translate(-.63 .17) rotate(-.21)"/>
        <path class="cls-2" d="M45.03,174.1c0-.77.61-1.4,1.38-1.4.76,0,1.39.62,1.39,1.39,0,.77-.61,1.4-1.38,1.4-.76,0-1.39-.62-1.39-1.39Z"/>
      </g>
      <g>
        <rect class="cls-1" x="37.25" y="172.73" width="2.77" height="2.79" transform="translate(-.62 .14) rotate(-.21)"/>
        <path class="cls-2" d="M37.25,174.13c0-.77.61-1.4,1.38-1.4.76,0,1.39.62,1.39,1.39,0,.77-.61,1.4-1.38,1.4-.76,0-1.39-.62-1.39-1.39Z"/>
      </g>
      <g>
        <rect class="cls-1" x="29.47" y="172.76" width="2.77" height="2.79" transform="translate(-.62 .11) rotate(-.21)"/>
        <path class="cls-2" d="M29.47,174.16c0-.77.61-1.4,1.38-1.4.76,0,1.39.62,1.39,1.39,0,.77-.61,1.4-1.38,1.4-.76,0-1.39-.62-1.39-1.39Z"/>
      </g>
      <g>
        <rect class="cls-1" x="21.69" y="172.79" width="2.77" height="2.79" transform="translate(-.62 .08) rotate(-.21)"/>
        <path class="cls-2" d="M21.69,174.19c0-.77.61-1.4,1.38-1.4.76,0,1.39.62,1.39,1.39,0,.77-.61,1.4-1.38,1.4-.76,0-1.39-.62-1.39-1.39Z"/>
      </g>
      <g>
        <rect class="cls-1" x="13.91" y="172.81" width="2.77" height="2.79" transform="translate(-.62 .06) rotate(-.21)"/>
        <path class="cls-2" d="M13.91,174.21c0-.77.61-1.4,1.38-1.4.76,0,1.39.62,1.39,1.39,0,.77-.61,1.4-1.38,1.4-.76,0-1.39-.62-1.39-1.39Z"/>
      </g>
      <g>
        <rect class="cls-1" x="6.13" y="172.84" width="2.77" height="2.79" transform="translate(-.63 .03) rotate(-.21)"/>
        <path class="cls-2" d="M6.13,174.24c0-.77.61-1.4,1.38-1.4.76,0,1.39.62,1.39,1.39,0,.77-.61,1.4-1.38,1.4s-1.39-.62-1.39-1.39Z"/>
      </g>
      <g>
        <rect class="cls-1" x=".04" y="166.75" width="2.77" height="2.79" transform="translate(-166.73 168.97) rotate(-89.79)"/>
        <path class="cls-2" d="M1.43,166.76c.77,0,1.39.62,1.39,1.39,0,.76-.63,1.38-1.4,1.38-.77,0-1.39-.62-1.39-1.39,0-.76.63-1.38,1.4-1.38Z"/>
      </g>
      <g>
        <rect class="cls-1" x=".07" y="158.97" width="2.77" height="2.79" transform="translate(-158.92 161.24) rotate(-89.79)"/>
        <path class="cls-2" d="M1.45,158.98c.77,0,1.39.62,1.39,1.39,0,.76-.63,1.38-1.4,1.38-.77,0-1.39-.62-1.39-1.39,0-.76.63-1.38,1.4-1.38Z"/>
      </g>
      <g>
        <rect class="cls-1" x=".09" y="151.19" width="2.77" height="2.79" transform="translate(-151.11 153.51) rotate(-89.79)"/>
        <path class="cls-2" d="M1.48,151.2c.77,0,1.39.62,1.39,1.39,0,.76-.63,1.38-1.4,1.38-.77,0-1.39-.62-1.39-1.39,0-.76.63-1.38,1.4-1.38Z"/>
      </g>
      <g>
        <rect class="cls-1" x=".12" y="143.41" width="2.77" height="2.79" transform="translate(-143.3 145.79) rotate(-89.79)"/>
        <path class="cls-2" d="M1.51,143.42c.77,0,1.39.62,1.39,1.39,0,.76-.63,1.38-1.4,1.38-.77,0-1.39-.62-1.39-1.39,0-.76.63-1.38,1.4-1.38Z"/>
      </g>
      <g>
        <rect class="cls-1" x=".15" y="135.63" width="2.77" height="2.79" transform="translate(-135.5 138.07) rotate(-89.79)"/>
        <path class="cls-2" d="M1.54,135.64c.77,0,1.39.62,1.39,1.39,0,.76-.63,1.38-1.4,1.38-.77,0-1.39-.62-1.39-1.39,0-.76.63-1.38,1.4-1.38Z"/>
      </g>
      <g>
        <rect class="cls-1" x=".18" y="127.85" width="2.77" height="2.79" transform="translate(-127.69 130.35) rotate(-89.79)"/>
        <path class="cls-2" d="M1.57,127.86c.77,0,1.39.62,1.39,1.39,0,.76-.63,1.38-1.4,1.38-.77,0-1.39-.62-1.39-1.39,0-.76.63-1.38,1.4-1.38Z"/>
      </g>
      <g>
        <rect class="cls-1" x=".21" y="120.07" width="2.77" height="2.79" transform="translate(-119.88 122.62) rotate(-89.8)"/>
        <path class="cls-2" d="M1.59,120.08c.77,0,1.39.62,1.39,1.39,0,.76-.63,1.38-1.4,1.38-.77,0-1.39-.62-1.39-1.39,0-.76.63-1.38,1.4-1.38Z"/>
      </g>
      <g>
        <rect class="cls-1" x=".23" y="112.29" width="2.77" height="2.79" transform="translate(-112.07 114.89) rotate(-89.79)"/>
        <path class="cls-2" d="M1.62,112.3c.77,0,1.39.62,1.39,1.39,0,.76-.63,1.38-1.4,1.38s-1.39-.62-1.39-1.39c0-.76.63-1.38,1.4-1.38Z"/>
      </g>
      <g>
        <rect class="cls-1" x=".26" y="104.51" width="2.77" height="2.79" transform="translate(-104.27 107.17) rotate(-89.79)"/>
        <path class="cls-2" d="M1.65,104.52c.77,0,1.39.62,1.39,1.39,0,.76-.63,1.38-1.4,1.38-.77,0-1.39-.62-1.39-1.39,0-.76.63-1.38,1.4-1.38Z"/>
      </g>
      <g>
        <rect class="cls-1" x=".29" y="96.73" width="2.77" height="2.79" transform="translate(-96.46 99.45) rotate(-89.79)"/>
        <path class="cls-2" d="M1.68,96.74c.77,0,1.39.62,1.39,1.39,0,.76-.63,1.38-1.4,1.38-.77,0-1.39-.62-1.39-1.39,0-.76.63-1.38,1.4-1.38Z"/>
      </g>
      <g>
        <rect class="cls-1" x=".32" y="88.95" width="2.77" height="2.79" transform="translate(-88.65 91.72) rotate(-89.8)"/>
        <path class="cls-2" d="M1.71,88.96c.77,0,1.39.62,1.39,1.39,0,.76-.63,1.38-1.4,1.38-.77,0-1.39-.62-1.39-1.39,0-.76.63-1.38,1.4-1.38Z"/>
      </g>
      <g>
        <rect class="cls-1" x=".35" y="81.17" width="2.77" height="2.79" transform="translate(-80.84 84) rotate(-89.79)"/>
        <path class="cls-2" d="M1.73,81.18c.77,0,1.39.62,1.39,1.39,0,.76-.63,1.38-1.4,1.38-.77,0-1.39-.62-1.39-1.39,0-.76.63-1.38,1.4-1.38Z"/>
      </g>
      <g>
        <rect class="cls-1" x=".37" y="73.39" width="2.77" height="2.79" transform="translate(-73.04 76.28) rotate(-89.79)"/>
        <path class="cls-2" d="M1.76,73.4c.77,0,1.39.62,1.39,1.39,0,.76-.63,1.38-1.4,1.38s-1.39-.62-1.39-1.39c0-.76.63-1.38,1.4-1.38Z"/>
      </g>
      <g>
        <rect class="cls-1" x=".4" y="65.61" width="2.77" height="2.79" transform="translate(-65.23 68.55) rotate(-89.79)"/>
        <path class="cls-2" d="M1.79,65.62c.77,0,1.39.62,1.39,1.39,0,.76-.63,1.38-1.4,1.38-.77,0-1.39-.62-1.39-1.39,0-.76.63-1.38,1.4-1.38Z"/>
      </g>
      <g>
        <rect class="cls-1" x=".43" y="57.83" width="2.77" height="2.79" transform="translate(-57.42 60.83) rotate(-89.79)"/>
        <path class="cls-2" d="M1.82,57.84c.77,0,1.39.62,1.39,1.39,0,.76-.63,1.38-1.4,1.38-.77,0-1.39-.62-1.39-1.39,0-.76.63-1.38,1.4-1.38Z"/>
      </g>
      <g>
        <rect class="cls-1" x=".46" y="50.05" width="2.77" height="2.79" transform="translate(-49.61 53.1) rotate(-89.79)"/>
        <path class="cls-2" d="M1.85,50.06c.77,0,1.39.62,1.39,1.39,0,.76-.63,1.38-1.4,1.38-.77,0-1.39-.62-1.39-1.39,0-.76.63-1.38,1.4-1.38Z"/>
      </g>
      <g>
        <rect class="cls-1" x=".49" y="42.27" width="2.77" height="2.79" transform="translate(-41.81 45.38) rotate(-89.79)"/>
        <path class="cls-2" d="M1.87,42.28c.77,0,1.39.62,1.39,1.39,0,.76-.63,1.38-1.4,1.38-.77,0-1.39-.62-1.39-1.39,0-.76.63-1.38,1.4-1.38Z"/>
      </g>
      <g>
        <rect class="cls-1" x=".51" y="34.49" width="2.77" height="2.79" transform="translate(-34 37.66) rotate(-89.79)"/>
        <path class="cls-2" d="M1.9,34.5c.77,0,1.39.62,1.39,1.39,0,.76-.63,1.38-1.4,1.38s-1.39-.62-1.39-1.39c0-.76.63-1.38,1.4-1.38Z"/>
      </g>
      <g>
        <rect class="cls-1" x=".54" y="26.71" width="2.77" height="2.79" transform="translate(-26.19 29.93) rotate(-89.79)"/>
        <path class="cls-2" d="M1.93,26.72c.77,0,1.39.62,1.39,1.39,0,.76-.63,1.38-1.4,1.38-.77,0-1.39-.62-1.39-1.39,0-.76.63-1.38,1.4-1.38Z"/>
      </g>
      <g>
        <rect class="cls-1" x=".57" y="18.93" width="2.77" height="2.79" transform="translate(-18.38 22.21) rotate(-89.79)"/>
        <path class="cls-2" d="M1.96,18.94c.77,0,1.39.62,1.39,1.39,0,.76-.63,1.38-1.4,1.38-.77,0-1.39-.62-1.39-1.39,0-.76.63-1.38,1.4-1.38Z"/>
      </g>
      <g>
        <rect class="cls-1" x=".6" y="11.15" width="2.77" height="2.79" transform="translate(-10.57 14.48) rotate(-89.79)"/>
        <path class="cls-2" d="M1.99,11.16c.77,0,1.39.62,1.39,1.39,0,.76-.63,1.38-1.4,1.38-.77,0-1.39-.62-1.39-1.39,0-.76.63-1.38,1.4-1.38Z"/>
      </g>
      <g>
        <rect class="cls-1" x="7.18" y="8.5" width="2.79" height="2.82" transform="translate(-4.5 8.96) rotate(-45)"/>
        <path class="cls-2" d="M9.57,10.91c-.54.54-1.43.54-1.98-.01-.55-.55-.56-1.44-.01-1.98s1.43-.54,1.98.01c.55.55.56,1.44.01,1.98Z"/>
      </g>
      <g>
        <rect class="cls-1" x="12.79" y="14.11" width="2.79" height="2.82" transform="translate(-6.82 14.58) rotate(-45)"/>
        <path class="cls-2" d="M15.18,16.52c-.54.54-1.43.54-1.98-.01s-.56-1.44-.01-1.98c.54-.54,1.43-.54,1.98.01.55.55.56,1.44.01,1.98Z"/>
      </g>
      <g>
        <rect class="cls-1" x="18.4" y="19.73" width="2.79" height="2.82" transform="translate(-9.15 20.19) rotate(-45)"/>
        <path class="cls-2" d="M20.8,22.14c-.54.54-1.43.54-1.98-.01-.55-.55-.56-1.44-.01-1.98s1.43-.54,1.98.01c.55.55.56,1.44.01,1.98Z"/>
      </g>
      <g>
        <rect class="cls-1" x="24.02" y="25.34" width="2.79" height="2.82" transform="translate(-11.47 25.8) rotate(-45)"/>
        <path class="cls-2" d="M26.41,27.75c-.54.54-1.43.54-1.98-.01-.55-.55-.56-1.44-.01-1.98.54-.54,1.43-.54,1.98.01s.56,1.44.01,1.98Z"/>
      </g>
      <g>
        <rect class="cls-1" x="29.63" y="30.95" width="2.79" height="2.82" transform="translate(-13.8 31.42) rotate(-45)"/>
        <path class="cls-2" d="M32.02,33.36c-.54.54-1.43.54-1.98-.01s-.56-1.44-.01-1.98c.54-.54,1.43-.54,1.98.01s.56,1.44.01,1.98Z"/>
      </g>
      <g>
        <rect class="cls-1" x="35.24" y="36.57" width="2.79" height="2.82" transform="translate(-16.12 37.03) rotate(-45)"/>
        <path class="cls-2" d="M37.64,38.98c-.54.54-1.43.54-1.98-.01-.55-.55-.56-1.44-.01-1.98.54-.54,1.43-.54,1.98.01.55.55.56,1.44.01,1.98Z"/>
      </g>
      <g>
        <rect class="cls-1" x="40.86" y="42.18" width="2.79" height="2.82" transform="translate(-18.45 42.64) rotate(-45)"/>
        <path class="cls-2" d="M43.25,44.59c-.54.54-1.43.54-1.98-.01-.55-.55-.56-1.44-.01-1.98.54-.54,1.43-.54,1.98.01.55.55.56,1.44.01,1.98Z"/>
      </g>
      <g>
        <rect class="cls-1" x="46.47" y="47.79" width="2.79" height="2.82" transform="translate(-20.77 48.26) rotate(-45)"/>
        <path class="cls-2" d="M48.86,50.2c-.54.54-1.43.54-1.98-.01-.55-.55-.56-1.44-.01-1.98.54-.54,1.43-.54,1.98.01s.56,1.44.01,1.98Z"/>
      </g>
      <g>
        <rect class="cls-1" x="52.08" y="53.41" width="2.79" height="2.82" transform="translate(-23.1 53.87) rotate(-45)"/>
        <path class="cls-2" d="M54.48,55.82c-.54.54-1.43.54-1.98-.01-.55-.55-.56-1.44-.01-1.98s1.43-.54,1.98.01.56,1.44.01,1.98Z"/>
      </g>
      <g>
        <rect class="cls-1" x="57.7" y="59.02" width="2.79" height="2.82" transform="translate(-25.42 59.48) rotate(-45)"/>
        <path class="cls-2" d="M60.09,61.43c-.54.54-1.43.54-1.98-.01-.55-.55-.56-1.44-.01-1.98.54-.54,1.43-.54,1.98.01s.56,1.44.01,1.98Z"/>
      </g>
      <g>
        <rect class="cls-1" x="63.31" y="64.63" width="2.79" height="2.82" transform="translate(-27.75 65.1) rotate(-45)"/>
        <path class="cls-2" d="M65.7,67.04c-.54.54-1.43.54-1.98-.01-.55-.55-.56-1.44-.01-1.98.54-.54,1.43-.54,1.98.01s.56,1.44.01,1.98Z"/>
      </g>
      <g>
        <rect class="cls-1" x="68.92" y="70.25" width="2.79" height="2.82" transform="translate(-30.08 70.71) rotate(-45)"/>
        <path class="cls-2" d="M71.32,72.66c-.54.54-1.43.54-1.98-.01-.55-.55-.56-1.44-.01-1.98.54-.54,1.43-.54,1.98.01.55.55.56,1.44.01,1.98Z"/>
      </g>
      <g>
        <rect class="cls-1" x="74.54" y="75.86" width="2.79" height="2.82" transform="translate(-32.4 76.32) rotate(-45)"/>
        <path class="cls-2" d="M76.93,78.27c-.54.54-1.43.54-1.98-.01-.55-.55-.56-1.44-.01-1.98.54-.54,1.43-.54,1.98.01.55.55.56,1.44.01,1.98Z"/>
      </g>
      <g>
        <rect class="cls-1" x="80.15" y="81.47" width="2.79" height="2.82" transform="translate(-34.73 81.94) rotate(-45)"/>
        <path class="cls-2" d="M82.54,83.88c-.54.54-1.43.54-1.98-.01s-.56-1.44-.01-1.98,1.43-.54,1.98.01.56,1.44.01,1.98Z"/>
      </g>
      <g>
        <rect class="cls-1" x="85.76" y="87.09" width="2.79" height="2.82" transform="translate(-37.05 87.55) rotate(-45)"/>
        <path class="cls-2" d="M88.16,89.5c-.54.54-1.43.54-1.98-.01-.55-.55-.56-1.44-.01-1.98.54-.54,1.43-.54,1.98.01s.56,1.44.01,1.98Z"/>
      </g>
      <g>
        <rect class="cls-1" x="91.38" y="92.7" width="2.79" height="2.82" transform="translate(-39.38 93.17) rotate(-45)"/>
        <path class="cls-2" d="M93.77,95.11c-.54.54-1.43.54-1.98-.01-.55-.55-.56-1.44-.01-1.98.54-.54,1.43-.54,1.98.01s.56,1.44.01,1.98Z"/>
      </g>
      <g>
        <rect class="cls-1" x="96.99" y="98.32" width="2.79" height="2.82" transform="translate(-41.7 98.78) rotate(-45)"/>
        <path class="cls-2" d="M99.38,100.73c-.54.54-1.43.54-1.98-.01-.55-.55-.56-1.44-.01-1.98.54-.54,1.43-.54,1.98.01s.56,1.44.01,1.98Z"/>
      </g>
      <g>
        <rect class="cls-1" x="102.6" y="103.93" width="2.79" height="2.82" transform="translate(-44.03 104.4) rotate(-45)"/>
        <path class="cls-2" d="M105,106.34c-.54.54-1.43.54-1.98-.01-.55-.55-.56-1.44-.01-1.98s1.43-.54,1.98.01c.55.55.56,1.44.01,1.98Z"/>
      </g>
      <g>
        <rect class="cls-1" x="108.22" y="109.54" width="2.79" height="2.82" transform="translate(-46.35 110.01) rotate(-45)"/>
        <path class="cls-2" d="M110.61,111.95c-.54.54-1.43.54-1.98-.01-.55-.55-.56-1.44-.01-1.98.54-.54,1.43-.54,1.98.01.55.55.56,1.44.01,1.98Z"/>
      </g>
      <g>
        <rect class="cls-1" x="113.83" y="115.16" width="2.79" height="2.82" transform="translate(-48.68 115.62) rotate(-45)"/>
        <path class="cls-2" d="M116.22,117.57c-.54.54-1.43.54-1.98-.01-.55-.55-.56-1.44-.01-1.98s1.43-.54,1.98.01.56,1.44.01,1.98Z"/>
      </g>
      <g>
        <rect class="cls-1" x="119.45" y="120.77" width="2.79" height="2.82" transform="translate(-51 121.23) rotate(-45)"/>
        <path class="cls-2" d="M121.84,123.18c-.54.54-1.43.54-1.98-.01-.55-.55-.56-1.44-.01-1.98.54-.54,1.43-.54,1.98.01s.56,1.44.01,1.98Z"/>
      </g>
      <g>
        <rect class="cls-1" x="125.06" y="126.38" width="2.79" height="2.82" transform="translate(-53.33 126.85) rotate(-45)"/>
        <path class="cls-2" d="M127.45,128.79c-.54.54-1.43.54-1.98-.01-.55-.55-.56-1.44-.01-1.98.54-.54,1.43-.54,1.98.01s.56,1.44.01,1.98Z"/>
      </g>
      <g>
        <rect class="cls-1" x="130.67" y="132" width="2.79" height="2.82" transform="translate(-55.65 132.46) rotate(-45)"/>
        <path class="cls-2" d="M133.06,134.41c-.54.54-1.43.54-1.98-.01s-.56-1.44-.01-1.98,1.43-.54,1.98.01.56,1.44.01,1.98Z"/>
      </g>
      <g>
        <rect class="cls-1" x="136.29" y="137.61" width="2.79" height="2.82" transform="translate(-57.98 138.07) rotate(-45)"/>
        <path class="cls-2" d="M138.68,140.02c-.54.54-1.43.54-1.98-.01-.55-.55-.56-1.44-.01-1.98.54-.54,1.43-.54,1.98.01.55.55.56,1.44.01,1.98Z"/>
      </g>
      <g>
        <rect class="cls-1" x="141.9" y="143.22" width="2.79" height="2.82" transform="translate(-60.3 143.68) rotate(-45)"/>
        <path class="cls-2" d="M144.29,145.63c-.54.54-1.43.54-1.98-.01-.55-.55-.56-1.44-.01-1.98.54-.54,1.43-.54,1.98.01.55.55.56,1.44.01,1.98Z"/>
      </g>
      <g>
        <rect class="cls-1" x="147.51" y="148.84" width="2.79" height="2.82" transform="translate(-62.63 149.3) rotate(-45)"/>
        <path class="cls-2" d="M149.91,151.25c-.54.54-1.43.54-1.98-.01-.55-.55-.56-1.44-.01-1.98.54-.54,1.43-.54,1.98.01.55.55.56,1.44.01,1.98Z"/>
      </g>
      <g>
        <rect class="cls-1" x="153.13" y="154.45" width="2.79" height="2.82" transform="translate(-64.95 154.91) rotate(-45)"/>
        <path class="cls-2" d="M155.52,156.86c-.54.54-1.43.54-1.98-.01-.55-.55-.56-1.44-.01-1.98s1.43-.54,1.98.01.56,1.44.01,1.98Z"/>
      </g>
      <g>
        <rect class="cls-1" x="158.74" y="160.06" width="2.79" height="2.82" transform="translate(-67.28 160.53) rotate(-45)"/>
        <path class="cls-2" d="M161.13,162.47c-.54.54-1.43.54-1.98-.01-.55-.55-.56-1.44-.01-1.98.54-.54,1.43-.54,1.98.01s.56,1.44.01,1.98Z"/>
      </g>
      <g>
        <rect class="cls-1" x="164.35" y="165.68" width="2.79" height="2.82" transform="translate(-69.6 166.13) rotate(-45)"/>
        <path class="cls-2" d="M166.75,168.09c-.54.54-1.43.54-1.98-.01-.55-.55-.56-1.44-.01-1.98.54-.54,1.43-.54,1.98.01s.56,1.44.01,1.98Z"/>
      </g>
      <g>
        <polygon class="cls-1" points="2.81 175.65 2.8 172.86 .01 172.85 0 175.66 2.81 175.65"/>
        <polygon class="cls-2" points="1.4 172.85 1.48 172.86 1.55 172.86 1.62 172.87 1.69 172.88 1.75 172.9 1.82 172.92 1.88 172.94 1.95 172.97 2.01 173 2.07 173.03 2.13 173.06 2.18 173.1 2.24 173.14 2.29 173.18 2.34 173.22 2.39 173.27 2.44 173.32 2.48 173.37 2.52 173.42 2.56 173.48 2.6 173.53 2.63 173.59 2.66 173.65 2.69 173.71 2.72 173.77 2.74 173.84 2.76 173.91 2.77 173.97 2.79 174.04 2.8 174.11 2.8 174.18 2.8 174.25 2.8 174.33 2.8 174.4 2.79 174.47 2.78 174.54 2.76 174.6 2.74 174.67 2.72 174.73 2.7 174.8 2.67 174.86 2.64 174.92 2.6 174.98 2.57 175.03 2.53 175.09 2.49 175.14 2.44 175.19 2.4 175.24 2.35 175.29 2.3 175.33 2.24 175.37 2.19 175.41 2.13 175.45 2.07 175.48 2.01 175.51 1.95 175.54 1.89 175.57 1.82 175.59 1.76 175.61 1.69 175.62 1.62 175.64 1.55 175.65 1.48 175.65 1.4 175.65 1.33 175.65 1.26 175.65 1.19 175.64 1.12 175.63 1.05 175.61 .99 175.59 .92 175.57 .86 175.55 .8 175.52 .73 175.49 .68 175.45 .62 175.42 .56 175.38 .51 175.34 .46 175.3 .41 175.25 .36 175.2 .32 175.15 .28 175.1 .24 175.04 .2 174.98 .17 174.92 .14 174.86 .11 174.8 .09 174.74 .07 174.67 .05 174.61 .03 174.54 .02 174.47 .01 174.4 0 174.33 0 174.25 0 174.18 .01 174.11 .02 174.04 .03 173.97 .05 173.9 .07 173.84 .09 173.77 .12 173.71 .14 173.65 .18 173.59 .21 173.53 .25 173.47 .29 173.41 .33 173.36 .37 173.31 .42 173.26 .47 173.22 .52 173.17 .57 173.13 .62 173.09 .68 173.06 .74 173.02 .8 172.99 .86 172.96 .92 172.94 .99 172.92 1.06 172.9 1.12 172.88 1.19 172.87 1.26 172.86 1.33 172.86 1.4 172.85"/>
      </g>
      <g>
        <polygon class="cls-1" points=".61 6.7 3.4 6.71 5.37 4.74 .63 0 .61 6.7"/>
        <polygon class="cls-2" points="4.38 5.72 4.36 5.75 4.33 5.77 4.3 5.79 4.27 5.81 4.24 5.83 4.2 5.85 4.17 5.86 4.14 5.87 4.1 5.89 4.06 5.9 4.02 5.9 3.98 5.91 3.94 5.92 3.9 5.92 3.81 5.92 3.72 5.92 3.63 5.91 3.53 5.89 3.43 5.87 3.32 5.84 3.21 5.81 3.1 5.77 2.99 5.73 2.94 5.84 2.89 5.94 2.84 6.04 2.78 6.14 2.73 6.22 2.67 6.3 2.61 6.38 2.55 6.44 2.48 6.5 2.45 6.53 2.42 6.56 2.38 6.58 2.35 6.6 2.32 6.62 2.28 6.64 2.25 6.65 2.21 6.67 2.18 6.68 2.14 6.69 2.11 6.69 2.07 6.7 2.04 6.7 2 6.7 1.97 6.7 1.93 6.7 1.89 6.69 1.86 6.69 1.82 6.68 1.79 6.66 1.75 6.65 1.72 6.64 1.69 6.62 1.65 6.6 1.62 6.58 1.59 6.55 1.55 6.53 1.52 6.5 1.46 6.44 1.4 6.37 1.34 6.3 1.28 6.22 1.22 6.13 1.17 6.04 1.12 5.94 1.07 5.83 1.02 5.72 .97 5.6 .93 5.48 .89 5.35 .85 5.22 .81 5.09 .78 4.95 .75 4.8 .72 4.65 .7 4.5 .68 4.35 .66 4.19 .64 4.02 .63 3.86 .62 3.69 .62 3.52 .62 3.35 .62 3.18 .63 3.01 .64 2.84 .65 2.67 .67 2.51 .69 2.35 .71 2.2 .73 2.05 .76 1.9 .79 1.75 .83 1.61 .86 1.48 .9 1.35 .95 1.22 .99 1.1 1.04 .98 1.15 1.03 1.27 1.09 1.39 1.15 1.51 1.21 1.63 1.28 1.75 1.36 1.88 1.44 2 1.52 2.13 1.61 2.25 1.71 2.38 1.81 2.5 1.91 2.63 2.02 2.75 2.13 2.88 2.25 3 2.37 3.12 2.49 3.24 2.62 3.35 2.74 3.46 2.87 3.56 2.99 3.66 3.12 3.75 3.24 3.84 3.37 3.93 3.49 4.01 3.62 4.09 3.74 4.16 3.86 4.22 3.98 4.28 4.1 4.34 4.22 4.39 4.33 4.43 4.45 4.47 4.56 4.5 4.66 4.53 4.77 4.55 4.87 4.57 4.97 4.58 5.06 4.58 5.15 4.58 5.24 4.57 5.28 4.57 5.32 4.56 5.36 4.55 5.4 4.54 5.44 4.53 5.48 4.52 5.51 4.51 5.55 4.49 5.58 4.47 5.61 4.45 5.64 4.43 5.67 4.41 5.7 4.38 5.72"/>
      </g>
      <g>
        <polygon class="cls-1" points="170.92 170.29 168.95 172.26 168.96 175.05 175.66 175.03 170.92 170.29"/>
        <polygon class="cls-2" points="168.95 173.66 168.96 173.62 168.96 173.59 168.96 173.55 168.97 173.51 168.98 173.48 168.99 173.44 169.01 173.41 169.02 173.38 169.04 173.34 169.06 173.31 169.08 173.28 169.1 173.24 169.13 173.21 169.16 173.18 169.22 173.11 169.28 173.05 169.36 172.99 169.44 172.93 169.52 172.88 169.62 172.82 169.72 172.77 169.82 172.72 169.93 172.67 169.89 172.56 169.85 172.45 169.82 172.34 169.79 172.23 169.77 172.13 169.75 172.03 169.74 171.94 169.74 171.85 169.74 171.76 169.74 171.72 169.75 171.68 169.76 171.64 169.76 171.6 169.77 171.56 169.78 171.52 169.8 171.49 169.81 171.45 169.83 171.42 169.85 171.39 169.87 171.36 169.89 171.33 169.91 171.3 169.94 171.28 169.96 171.25 169.99 171.23 170.02 171.21 170.05 171.19 170.08 171.17 170.11 171.15 170.15 171.14 170.18 171.13 170.22 171.11 170.26 171.1 170.3 171.1 170.34 171.09 170.38 171.09 170.42 171.08 170.51 171.08 170.6 171.08 170.69 171.09 170.79 171.11 170.89 171.13 171 171.16 171.1 171.19 171.21 171.23 171.33 171.27 171.44 171.32 171.56 171.38 171.68 171.44 171.8 171.5 171.92 171.57 172.04 171.65 172.17 171.73 172.29 171.81 172.42 171.9 172.54 172 172.67 172.1 172.79 172.2 172.92 172.31 173.04 172.42 173.17 172.54 173.29 172.66 173.41 172.78 173.53 172.91 173.64 173.03 173.75 173.16 173.85 173.28 173.95 173.41 174.04 173.53 174.13 173.66 174.22 173.78 174.3 173.91 174.38 174.03 174.45 174.15 174.51 174.27 174.57 174.39 174.63 174.51 174.68 174.62 174.56 174.67 174.44 174.71 174.31 174.76 174.18 174.8 174.05 174.83 173.91 174.87 173.76 174.9 173.61 174.93 173.46 174.95 173.31 174.97 173.15 174.99 172.98 175.01 172.82 175.02 172.65 175.03 172.48 175.04 172.31 175.04 172.14 175.04 171.97 175.03 171.8 175.03 171.63 175.01 171.47 175 171.31 174.98 171.16 174.96 171 174.93 170.86 174.91 170.71 174.88 170.57 174.84 170.44 174.81 170.3 174.77 170.18 174.73 170.06 174.69 169.94 174.64 169.83 174.59 169.72 174.54 169.62 174.49 169.53 174.43 169.44 174.38 169.36 174.32 169.29 174.26 169.22 174.2 169.16 174.14 169.13 174.1 169.11 174.07 169.08 174.04 169.06 174.01 169.04 173.97 169.02 173.94 169.01 173.9 168.99 173.87 168.98 173.84 168.97 173.8 168.96 173.76 168.96 173.73 168.96 173.69 168.95 173.66"/>
      </g>
    </g>
  </g>
</svg>