<?xml version="1.0" encoding="UTF-8"?>
<svg id="Layer_2" data-name="Layer 2" xmlns="http://www.w3.org/2000/svg" viewBox="0 0 66.79 138.49">
  <defs>
    <style>
      .cls-1 {
        fill: none;
      }

      .cls-1, .cls-2 {
        stroke-width: 0px;
      }

      .cls-2 {
        fill: #191919;
        fill-rule: evenodd;
      }
    </style>
  </defs>
  <g id="_ÎÓÈ_1" data-name="—ÎÓÈ_1">
    <g>
      <g>
        <path class="cls-1" d="M3.35,3.67c1.19.1,2.39.15,3.58.28l.39-3.65c-1.26-.15-2.53-.2-3.8-.3l-.17,3.67Z"/>
        <path class="cls-2" d="M7.13,2.13c-.11,1-1,1.73-1.98,1.67-.98-.07-1.75-.95-1.7-1.96.04-1.01.93-1.77,1.99-1.7,1.06.06,1.82.97,1.7,1.99Z"/>
      </g>
      <g>
        <path class="cls-1" d="M13.34,5.01c1.16.28,2.34.52,3.48.88l1.01-3.53c-1.21-.38-2.46-.64-3.69-.94l-.79,3.58Z"/>
        <path class="cls-2" d="M17.32,4.13c-.29.99-1.27,1.51-2.23,1.29-.96-.22-1.56-1.21-1.35-2.2.21-.99,1.22-1.6,2.25-1.36,1.03.24,1.61,1.31,1.33,2.27Z"/>
      </g>
      <g>
        <path class="cls-1" d="M22.96,8.01c1.12.43,2.2.94,3.29,1.45l1.58-3.31c-1.15-.54-2.3-1.08-3.48-1.54l-1.38,3.4Z"/>
        <path class="cls-2" d="M27.04,7.81c-.44.91-1.53,1.31-2.42.9-.9-.4-1.35-1.44-.96-2.39.37-.93,1.49-1.4,2.45-.97.96.45,1.38,1.55.93,2.46Z"/>
      </g>
      <g>
        <path class="cls-1" d="M31.97,12.57c1.02.62,2.01,1.31,3.01,1.96l2.1-3.01c-1.06-.7-2.1-1.42-3.19-2.08l-1.92,3.13Z"/>
        <path class="cls-2" d="M36.03,13.03c-.58.82-1.72,1.06-2.55.51-.82-.55-1.07-1.68-.55-2.53.53-.87,1.69-1.13,2.56-.54.88.58,1.12,1.72.54,2.56Z"/>
      </g>
      <g>
        <path class="cls-1" d="M40.12,18.53c.89.81,1.82,1.57,2.66,2.43l2.55-2.65c-.89-.91-1.87-1.71-2.81-2.56l-2.39,2.78Z"/>
        <path class="cls-2" d="M44.05,19.64c-.71.74-1.83.73-2.58.09-.74-.66-.8-1.82-.15-2.59.66-.77,1.83-.83,2.62-.13.8.69.81,1.9.11,2.62Z"/>
      </g>
      <g>
        <polygon class="cls-1" points="47.24 25.71 48.4 27.09 49.5 28.51 52.42 26.29 51.26 24.78 50.03 23.33 47.24 25.71"/>
        <path class="cls-2" d="M50.96,27.4c-.81.61-1.96.47-2.56-.31-.63-.76-.53-1.9.24-2.57.77-.66,1.95-.55,2.62.26.64.83.51,2.01-.3,2.62Z"/>
      </g>
      <g>
        <path class="cls-1" d="M53.19,33.89c.66,1,1.21,2.08,1.82,3.11l3.22-1.76c-.64-1.09-1.22-2.22-1.91-3.28l-3.12,1.93Z"/>
        <path class="cls-2" d="M56.62,36.12c-.89.48-2.01.17-2.5-.69-.47-.87-.23-1.97.64-2.51.86-.53,2.03-.26,2.54.67.52.92.22,2.05-.67,2.53Z"/>
      </g>
      <g>
        <path class="cls-1" d="M57.86,42.87c.44,1.12.9,2.23,1.32,3.35l3.45-1.25c-.44-1.19-.92-2.36-1.39-3.54l-3.38,1.44Z"/>
        <path class="cls-2" d="M60.9,45.59c-.94.34-2-.13-2.37-1.05-.37-.92.1-1.99,1.02-2.39.94-.41,2,.07,2.39,1.05.39.98-.08,2.05-1.04,2.4Z"/>
      </g>
      <g>
        <path class="cls-1" d="M61.09,52.45c.26,1.17.6,2.33.8,3.51l3.6-.72c-.21-1.25-.56-2.47-.84-3.7l-3.56.91Z"/>
        <path class="cls-2" d="M63.69,55.6c-1,.2-1.93-.44-2.18-1.4-.23-.96.38-1.95,1.36-2.21.98-.26,1.97.37,2.22,1.39.26,1.02-.41,2.02-1.4,2.22Z"/>
      </g>
      <g>
        <path class="cls-1" d="M62.86,62.41c.1,1.2.24,2.39.26,3.59l3.67-.17c-.03-1.27-.17-2.53-.28-3.79l-3.65.37Z"/>
        <path class="cls-2" d="M64.95,65.92c-1.02.04-1.84-.73-1.93-1.71-.09-.99.66-1.87,1.66-1.98,1.01-.11,1.9.66,2,1.71.1,1.05-.73,1.94-1.73,1.98Z"/>
      </g>
      <g>
        <path class="cls-1" d="M63.12,72.53c-.07,1.2-.12,2.4-.27,3.59l3.65.38c.16-1.26.21-2.52.29-3.79l-3.67-.18Z"/>
        <path class="cls-2" d="M64.67,76.31c-1.02-.11-1.71-.99-1.66-1.98.06-.99.92-1.75,1.94-1.71,1.01.04,1.78.93,1.72,1.99-.06,1.05-1.01,1.81-2,1.7Z"/>
      </g>
      <g>
        <path class="cls-1" d="M61.86,82.57c-.24,1.18-.48,2.35-.81,3.51l3.55.92c.34-1.22.6-2.46.85-3.7l-3.6-.73Z"/>
        <path class="cls-2" d="M62.83,86.54c-.99-.26-1.56-1.24-1.34-2.21.2-.97,1.17-1.6,2.17-1.4.99.2,1.63,1.19,1.41,2.22-.24,1.03-1.27,1.64-2.24,1.38Z"/>
      </g>
      <g>
        <polygon class="cls-1" points="59.11 92.31 58.49 94 57.79 95.65 61.16 97.1 61.9 95.35 62.56 93.57 59.11 92.31"/>
        <path class="cls-2" d="M59.48,96.38c-.93-.4-1.37-1.47-.99-2.38.35-.93,1.39-1.4,2.35-1.06.95.34,1.44,1.43,1.06,2.41-.41.97-1.5,1.43-2.43,1.03Z"/>
      </g>
      <g>
        <path class="cls-1" d="M54.94,101.52c-.55,1.07-1.2,2.08-1.81,3.11l3.12,1.93c.65-1.09,1.33-2.16,1.91-3.28l-3.22-1.76Z"/>
        <path class="cls-2" d="M54.69,105.6c-.86-.54-1.14-1.66-.63-2.51.52-.84,1.59-1.18,2.49-.69.88.48,1.23,1.64.68,2.54-.54.9-1.68,1.2-2.54.66Z"/>
      </g>
      <g>
        <path class="cls-1" d="M49.43,110.01c-.71.96-1.51,1.87-2.25,2.81l2.79,2.38c.79-.99,1.62-1.95,2.38-2.96l-2.92-2.23Z"/>
        <path class="cls-2" d="M48.57,114.01c-.77-.66-.88-1.82-.26-2.59.64-.76,1.77-.91,2.58-.3.81.62.96,1.8.28,2.6-.67.82-1.83.94-2.6.28Z"/>
      </g>
      <g>
        <path class="cls-1" d="M42.71,117.56c-.89.8-1.75,1.64-2.67,2.41l2.39,2.78c.97-.81,1.88-1.7,2.82-2.55l-2.54-2.65Z"/>
        <path class="cls-2" d="M41.24,121.37c-.65-.77-.57-1.91.15-2.59.73-.67,1.89-.62,2.6.11.71.73.65,1.9-.13,2.61-.77.72-1.95.65-2.62-.13Z"/>
      </g>
      <g>
        <path class="cls-1" d="M34.89,123.97c-.99.67-1.97,1.36-3.01,1.97l1.92,3.13c1.1-.64,2.13-1.37,3.18-2.08l-2.1-3.01Z"/>
        <path class="cls-2" d="M32.84,127.5c-.53-.88-.26-1.96.56-2.52.82-.56,1.95-.33,2.54.5.58.83.35,1.98-.52,2.58-.87.59-2.05.3-2.57-.55Z"/>
      </g>
      <g>
        <path class="cls-1" d="M26.17,129.04c-1.07.54-2.17,1-3.28,1.45l1.38,3.4c1.18-.48,2.35-.97,3.48-1.54l-1.58-3.31Z"/>
        <path class="cls-2" d="M23.57,132.19c-.38-.94.06-2.01.97-2.39.9-.4,1.97-.02,2.42.89.44.91.03,2.03-.93,2.46-.98.41-2.07-.03-2.45-.97Z"/>
      </g>
      <g>
        <path class="cls-1" d="M16.74,132.61c-1.14.37-2.32.58-3.48.88l.79,3.59c1.23-.32,2.48-.55,3.69-.94l-1.01-3.53Z"/>
        <path class="cls-2" d="M13.65,135.29c-.21-.99.39-1.98,1.35-2.21.96-.21,1.95.32,2.24,1.3.28.97-.3,2.03-1.34,2.26-1.03.25-2.04-.36-2.25-1.35Z"/>
      </g>
      <g>
        <path class="cls-1" d="M6.85,134.55c-1.19.12-2.39.18-3.58.28l.17,3.67c1.27-.1,2.54-.17,3.8-.3l-.39-3.65Z"/>
        <path class="cls-2" d="M3.35,136.66c-.04-1.01.72-1.89,1.71-1.96.98-.07,1.87.68,1.98,1.68.11,1.02-.65,1.91-1.7,1.98-1.06.08-1.94-.68-1.98-1.7Z"/>
      </g>
    </g>
  </g>
</svg>