<?xml version="1.0" encoding="UTF-8"?>
<svg id="Layer_2" data-name="Layer 2" xmlns="http://www.w3.org/2000/svg" viewBox="0 0 164.05 164.05">
  <defs>
    <style>
      .cls-1 {
        fill: none;
      }

      .cls-1, .cls-2, .cls-3 {
        stroke-width: 0px;
      }

      .cls-2 {
        fill-rule: evenodd;
      }

      .cls-2, .cls-3 {
        fill: #191919;
      }
    </style>
  </defs>
  <g id="_ÎÓÈ_1" data-name="—ÎÓÈ_1">
    <g>
      <g>
        <rect class="cls-1" x="161.26" y="6.13" width="2.79" height="2.79"/>
        <path class="cls-2" d="M162.66,8.92c-.77,0-1.39-.62-1.39-1.39s.62-1.39,1.39-1.39,1.39.62,1.39,1.39-.62,1.39-1.39,1.39Z"/>
      </g>
      <g>
        <rect class="cls-1" x="161.26" y="13.97" width="2.79" height="2.79"/>
        <path class="cls-2" d="M162.66,16.76c-.77,0-1.39-.62-1.39-1.39s.62-1.39,1.39-1.39,1.39.62,1.39,1.39-.62,1.39-1.39,1.39Z"/>
      </g>
      <g>
        <rect class="cls-1" x="161.26" y="21.81" width="2.79" height="2.79"/>
        <circle class="cls-3" cx="162.66" cy="23.21" r="1.39"/>
      </g>
      <g>
        <rect class="cls-1" x="161.26" y="29.66" width="2.79" height="2.79"/>
        <path class="cls-2" d="M162.66,32.45c-.77,0-1.39-.62-1.39-1.39s.62-1.39,1.39-1.39,1.39.62,1.39,1.39-.62,1.39-1.39,1.39Z"/>
      </g>
      <g>
        <rect class="cls-1" x="161.26" y="37.5" width="2.79" height="2.79"/>
        <path class="cls-2" d="M162.66,40.29c-.77,0-1.39-.62-1.39-1.39s.62-1.39,1.39-1.39,1.39.62,1.39,1.39-.62,1.39-1.39,1.39Z"/>
      </g>
      <g>
        <rect class="cls-1" x="161.26" y="45.34" width="2.79" height="2.79"/>
        <path class="cls-2" d="M162.66,48.13c-.77,0-1.39-.62-1.39-1.39s.62-1.39,1.39-1.39,1.39.62,1.39,1.39-.62,1.39-1.39,1.39Z"/>
      </g>
      <g>
        <rect class="cls-1" x="161.26" y="53.18" width="2.79" height="2.79"/>
        <path class="cls-2" d="M162.66,55.97c-.77,0-1.39-.62-1.39-1.39s.62-1.39,1.39-1.39,1.39.62,1.39,1.39-.62,1.39-1.39,1.39Z"/>
      </g>
      <g>
        <rect class="cls-1" x="161.26" y="61.03" width="2.79" height="2.79"/>
        <path class="cls-2" d="M162.66,63.81c-.77,0-1.39-.62-1.39-1.39s.62-1.39,1.39-1.39,1.39.62,1.39,1.39-.62,1.39-1.39,1.39Z"/>
      </g>
      <g>
        <rect class="cls-1" x="161.26" y="68.87" width="2.79" height="2.79"/>
        <circle class="cls-3" cx="162.66" cy="70.26" r="1.39"/>
      </g>
      <g>
        <rect class="cls-1" x="161.26" y="76.71" width="2.79" height="2.79"/>
        <path class="cls-2" d="M162.66,79.5c-.77,0-1.39-.62-1.39-1.39s.62-1.39,1.39-1.39,1.39.62,1.39,1.39-.62,1.39-1.39,1.39Z"/>
      </g>
      <g>
        <rect class="cls-1" x="161.26" y="84.55" width="2.79" height="2.79"/>
        <path class="cls-2" d="M162.66,87.34c-.77,0-1.39-.62-1.39-1.39s.62-1.39,1.39-1.39,1.39.62,1.39,1.39-.62,1.39-1.39,1.39Z"/>
      </g>
      <g>
        <rect class="cls-1" x="161.26" y="92.39" width="2.79" height="2.79"/>
        <path class="cls-2" d="M162.66,95.18c-.77,0-1.39-.62-1.39-1.39s.62-1.39,1.39-1.39,1.39.62,1.39,1.39-.62,1.39-1.39,1.39Z"/>
      </g>
      <g>
        <rect class="cls-1" x="161.26" y="100.24" width="2.79" height="2.79"/>
        <path class="cls-2" d="M162.66,103.03c-.77,0-1.39-.62-1.39-1.39s.62-1.39,1.39-1.39,1.39.62,1.39,1.39-.62,1.39-1.39,1.39Z"/>
      </g>
      <g>
        <rect class="cls-1" x="161.26" y="108.08" width="2.79" height="2.79"/>
        <circle class="cls-3" cx="162.66" cy="109.47" r="1.39"/>
      </g>
      <g>
        <rect class="cls-1" x="161.26" y="115.92" width="2.79" height="2.79"/>
        <circle class="cls-3" cx="162.66" cy="117.32" r="1.39"/>
      </g>
      <g>
        <rect class="cls-1" x="161.26" y="123.76" width="2.79" height="2.79"/>
        <path class="cls-2" d="M162.66,126.55c-.77,0-1.39-.62-1.39-1.39s.62-1.39,1.39-1.39,1.39.62,1.39,1.39-.62,1.39-1.39,1.39Z"/>
      </g>
      <g>
        <rect class="cls-1" x="161.26" y="131.61" width="2.79" height="2.79"/>
        <path class="cls-2" d="M162.66,134.4c-.77,0-1.39-.62-1.39-1.39s.62-1.39,1.39-1.39,1.39.62,1.39,1.39-.62,1.39-1.39,1.39Z"/>
      </g>
      <g>
        <rect class="cls-1" x="161.26" y="139.45" width="2.79" height="2.79"/>
        <path class="cls-2" d="M162.66,142.24c-.77,0-1.39-.62-1.39-1.39s.62-1.39,1.39-1.39,1.39.62,1.39,1.39-.62,1.39-1.39,1.39Z"/>
      </g>
      <g>
        <rect class="cls-1" x="161.26" y="147.29" width="2.79" height="2.79"/>
        <circle class="cls-3" cx="162.66" cy="148.69" r="1.39"/>
      </g>
      <g>
        <rect class="cls-1" x="161.26" y="155.13" width="2.79" height="2.79"/>
        <path class="cls-2" d="M162.66,157.92c-.77,0-1.39-.62-1.39-1.39s.62-1.39,1.39-1.39,1.39.62,1.39,1.39-.62,1.39-1.39,1.39Z"/>
      </g>
      <g>
        <rect class="cls-1" x="155.13" y="161.26" width="2.79" height="2.79"/>
        <path class="cls-2" d="M155.13,162.66c0-.77.62-1.39,1.39-1.39s1.39.62,1.39,1.39-.62,1.39-1.39,1.39-1.39-.62-1.39-1.39Z"/>
      </g>
      <g>
        <rect class="cls-1" x="147.29" y="161.26" width="2.79" height="2.79"/>
        <circle class="cls-3" cx="148.69" cy="162.66" r="1.39"/>
      </g>
      <g>
        <rect class="cls-1" x="139.45" y="161.26" width="2.79" height="2.79"/>
        <path class="cls-2" d="M139.45,162.66c0-.77.62-1.39,1.39-1.39s1.39.62,1.39,1.39-.62,1.39-1.39,1.39-1.39-.62-1.39-1.39Z"/>
      </g>
      <g>
        <rect class="cls-1" x="131.61" y="161.26" width="2.79" height="2.79"/>
        <path class="cls-2" d="M131.61,162.66c0-.77.62-1.39,1.39-1.39s1.39.62,1.39,1.39-.62,1.39-1.39,1.39-1.39-.62-1.39-1.39Z"/>
      </g>
      <g>
        <rect class="cls-1" x="123.76" y="161.26" width="2.79" height="2.79"/>
        <path class="cls-2" d="M123.76,162.66c0-.77.62-1.39,1.39-1.39s1.39.62,1.39,1.39-.62,1.39-1.39,1.39-1.39-.62-1.39-1.39Z"/>
      </g>
      <g>
        <rect class="cls-1" x="115.92" y="161.26" width="2.79" height="2.79"/>
        <path class="cls-2" d="M115.92,162.66c0-.77.62-1.39,1.39-1.39s1.39.62,1.39,1.39-.62,1.39-1.39,1.39-1.39-.62-1.39-1.39Z"/>
      </g>
      <g>
        <rect class="cls-1" x="108.08" y="161.26" width="2.79" height="2.79"/>
        <circle class="cls-3" cx="109.47" cy="162.66" r="1.39"/>
      </g>
      <g>
        <rect class="cls-1" x="100.24" y="161.26" width="2.79" height="2.79"/>
        <circle class="cls-3" cx="101.63" cy="162.66" r="1.39"/>
      </g>
      <g>
        <rect class="cls-1" x="92.39" y="161.26" width="2.79" height="2.79"/>
        <path class="cls-2" d="M92.39,162.66c0-.77.62-1.39,1.39-1.39s1.39.62,1.39,1.39-.62,1.39-1.39,1.39-1.39-.62-1.39-1.39Z"/>
      </g>
      <g>
        <rect class="cls-1" x="84.55" y="161.26" width="2.79" height="2.79"/>
        <path class="cls-2" d="M84.55,162.66c0-.77.62-1.39,1.39-1.39s1.39.62,1.39,1.39-.62,1.39-1.39,1.39-1.39-.62-1.39-1.39Z"/>
      </g>
      <g>
        <rect class="cls-1" x="76.71" y="161.26" width="2.79" height="2.79"/>
        <path class="cls-2" d="M76.71,162.66c0-.77.62-1.39,1.39-1.39s1.39.62,1.39,1.39-.62,1.39-1.39,1.39-1.39-.62-1.39-1.39Z"/>
      </g>
      <g>
        <rect class="cls-1" x="68.87" y="161.26" width="2.79" height="2.79"/>
        <circle class="cls-3" cx="70.26" cy="162.66" r="1.39"/>
      </g>
      <g>
        <rect class="cls-1" x="61.03" y="161.26" width="2.79" height="2.79"/>
        <path class="cls-2" d="M61.03,162.66c0-.77.62-1.39,1.39-1.39s1.39.62,1.39,1.39-.62,1.39-1.39,1.39-1.39-.62-1.39-1.39Z"/>
      </g>
      <g>
        <rect class="cls-1" x="53.18" y="161.26" width="2.79" height="2.79"/>
        <path class="cls-2" d="M53.18,162.66c0-.77.62-1.39,1.39-1.39s1.39.62,1.39,1.39-.62,1.39-1.39,1.39-1.39-.62-1.39-1.39Z"/>
      </g>
      <g>
        <rect class="cls-1" x="45.34" y="161.26" width="2.79" height="2.79"/>
        <path class="cls-2" d="M45.34,162.66c0-.77.62-1.39,1.39-1.39s1.39.62,1.39,1.39-.62,1.39-1.39,1.39-1.39-.62-1.39-1.39Z"/>
      </g>
      <g>
        <rect class="cls-1" x="37.5" y="161.26" width="2.79" height="2.79"/>
        <path class="cls-2" d="M37.5,162.66c0-.77.62-1.39,1.39-1.39s1.39.62,1.39,1.39-.62,1.39-1.39,1.39-1.39-.62-1.39-1.39Z"/>
      </g>
      <g>
        <rect class="cls-1" x="29.66" y="161.26" width="2.79" height="2.79"/>
        <circle class="cls-3" cx="31.05" cy="162.66" r="1.39"/>
      </g>
      <g>
        <rect class="cls-1" x="21.81" y="161.26" width="2.79" height="2.79"/>
        <path class="cls-2" d="M21.81,162.66c0-.77.62-1.39,1.39-1.39s1.39.62,1.39,1.39-.62,1.39-1.39,1.39-1.39-.62-1.39-1.39Z"/>
      </g>
      <g>
        <rect class="cls-1" x="13.97" y="161.26" width="2.79" height="2.79"/>
        <path class="cls-2" d="M13.97,162.66c0-.77.62-1.39,1.39-1.39s1.39.62,1.39,1.39-.62,1.39-1.39,1.39-1.39-.62-1.39-1.39Z"/>
      </g>
      <g>
        <rect class="cls-1" x="6.13" y="161.26" width="2.79" height="2.79"/>
        <path class="cls-2" d="M6.13,162.66c0-.77.62-1.39,1.39-1.39s1.39.62,1.39,1.39-.62,1.39-1.39,1.39-1.39-.62-1.39-1.39Z"/>
      </g>
      <g>
        <rect class="cls-1" y="155.13" width="2.79" height="2.79"/>
        <path class="cls-2" d="M1.39,155.13c.77,0,1.39.62,1.39,1.39s-.62,1.39-1.39,1.39-1.39-.62-1.39-1.39.62-1.39,1.39-1.39Z"/>
      </g>
      <g>
        <rect class="cls-1" y="147.29" width="2.79" height="2.79"/>
        <path class="cls-2" d="M1.39,147.29c.77,0,1.39.62,1.39,1.39s-.62,1.39-1.39,1.39-1.39-.62-1.39-1.39.62-1.39,1.39-1.39Z"/>
      </g>
      <g>
        <rect class="cls-1" y="139.45" width="2.79" height="2.79"/>
        <path class="cls-2" d="M1.39,139.45c.77,0,1.39.62,1.39,1.39s-.62,1.39-1.39,1.39-1.39-.62-1.39-1.39.62-1.39,1.39-1.39Z"/>
      </g>
      <g>
        <rect class="cls-1" y="131.61" width="2.79" height="2.79"/>
        <path class="cls-2" d="M1.39,131.61c.77,0,1.39.62,1.39,1.39s-.62,1.39-1.39,1.39-1.39-.62-1.39-1.39.62-1.39,1.39-1.39Z"/>
      </g>
      <g>
        <rect class="cls-1" y="123.76" width="2.79" height="2.79"/>
        <path class="cls-2" d="M1.39,123.76c.77,0,1.39.62,1.39,1.39s-.62,1.39-1.39,1.39-1.39-.62-1.39-1.39.62-1.39,1.39-1.39Z"/>
      </g>
      <g>
        <rect class="cls-1" y="115.92" width="2.79" height="2.79"/>
        <path class="cls-2" d="M1.39,115.92c.77,0,1.39.62,1.39,1.39s-.62,1.39-1.39,1.39-1.39-.62-1.39-1.39.62-1.39,1.39-1.39Z"/>
      </g>
      <g>
        <rect class="cls-1" y="108.08" width="2.79" height="2.79"/>
        <path class="cls-2" d="M1.39,108.08c.77,0,1.39.62,1.39,1.39s-.62,1.39-1.39,1.39-1.39-.62-1.39-1.39.62-1.39,1.39-1.39Z"/>
      </g>
      <g>
        <rect class="cls-1" y="100.24" width="2.79" height="2.79"/>
        <path class="cls-2" d="M1.39,100.24c.77,0,1.39.62,1.39,1.39s-.62,1.39-1.39,1.39-1.39-.62-1.39-1.39.62-1.39,1.39-1.39Z"/>
      </g>
      <g>
        <rect class="cls-1" y="92.39" width="2.79" height="2.79"/>
        <path class="cls-2" d="M1.39,92.39c.77,0,1.39.62,1.39,1.39s-.62,1.39-1.39,1.39-1.39-.62-1.39-1.39.62-1.39,1.39-1.39Z"/>
      </g>
      <g>
        <rect class="cls-1" y="84.55" width="2.79" height="2.79"/>
        <path class="cls-2" d="M1.39,84.55c.77,0,1.39.62,1.39,1.39s-.62,1.39-1.39,1.39-1.39-.62-1.39-1.39.62-1.39,1.39-1.39Z"/>
      </g>
      <g>
        <rect class="cls-1" y="76.71" width="2.79" height="2.79"/>
        <path class="cls-2" d="M1.39,76.71c.77,0,1.39.62,1.39,1.39s-.62,1.39-1.39,1.39-1.39-.62-1.39-1.39.62-1.39,1.39-1.39Z"/>
      </g>
      <g>
        <rect class="cls-1" y="68.87" width="2.79" height="2.79"/>
        <path class="cls-2" d="M1.39,68.87c.77,0,1.39.62,1.39,1.39s-.62,1.39-1.39,1.39-1.39-.62-1.39-1.39.62-1.39,1.39-1.39Z"/>
      </g>
      <g>
        <rect class="cls-1" y="61.03" width="2.79" height="2.79"/>
        <path class="cls-2" d="M1.39,61.03c.77,0,1.39.62,1.39,1.39s-.62,1.39-1.39,1.39-1.39-.62-1.39-1.39.62-1.39,1.39-1.39Z"/>
      </g>
      <g>
        <rect class="cls-1" y="53.18" width="2.79" height="2.79"/>
        <path class="cls-2" d="M1.39,53.18c.77,0,1.39.62,1.39,1.39s-.62,1.39-1.39,1.39-1.39-.62-1.39-1.39.62-1.39,1.39-1.39Z"/>
      </g>
      <g>
        <rect class="cls-1" y="45.34" width="2.79" height="2.79"/>
        <path class="cls-2" d="M1.39,45.34c.77,0,1.39.62,1.39,1.39s-.62,1.39-1.39,1.39-1.39-.62-1.39-1.39.62-1.39,1.39-1.39Z"/>
      </g>
      <g>
        <rect class="cls-1" y="37.5" width="2.79" height="2.79"/>
        <path class="cls-2" d="M1.39,37.5c.77,0,1.39.62,1.39,1.39s-.62,1.39-1.39,1.39-1.39-.62-1.39-1.39.62-1.39,1.39-1.39Z"/>
      </g>
      <g>
        <rect class="cls-1" y="29.66" width="2.79" height="2.79"/>
        <path class="cls-2" d="M1.39,29.66c.77,0,1.39.62,1.39,1.39s-.62,1.39-1.39,1.39-1.39-.62-1.39-1.39.62-1.39,1.39-1.39Z"/>
      </g>
      <g>
        <rect class="cls-1" y="21.81" width="2.79" height="2.79"/>
        <path class="cls-2" d="M1.39,21.81c.77,0,1.39.62,1.39,1.39s-.62,1.39-1.39,1.39-1.39-.62-1.39-1.39.62-1.39,1.39-1.39Z"/>
      </g>
      <g>
        <rect class="cls-1" y="13.97" width="2.79" height="2.79"/>
        <path class="cls-2" d="M1.39,13.97c.77,0,1.39.62,1.39,1.39s-.62,1.39-1.39,1.39-1.39-.62-1.39-1.39.62-1.39,1.39-1.39Z"/>
      </g>
      <g>
        <rect class="cls-1" y="6.13" width="2.79" height="2.79"/>
        <path class="cls-2" d="M1.39,6.13c.77,0,1.39.62,1.39,1.39s-.62,1.39-1.39,1.39-1.39-.62-1.39-1.39.62-1.39,1.39-1.39Z"/>
      </g>
      <g>
        <rect class="cls-1" x="6.13" width="2.79" height="2.79"/>
        <path class="cls-2" d="M8.92,1.39c0,.77-.62,1.39-1.39,1.39s-1.39-.62-1.39-1.39.62-1.39,1.39-1.39,1.39.62,1.39,1.39Z"/>
      </g>
      <g>
        <rect class="cls-1" x="13.97" width="2.79" height="2.79"/>
        <path class="cls-2" d="M16.76,1.39c0,.77-.62,1.39-1.39,1.39s-1.39-.62-1.39-1.39.62-1.39,1.39-1.39,1.39.62,1.39,1.39Z"/>
      </g>
      <g>
        <rect class="cls-1" x="21.81" width="2.79" height="2.79"/>
        <path class="cls-2" d="M24.6,1.39c0,.77-.62,1.39-1.39,1.39s-1.39-.62-1.39-1.39.62-1.39,1.39-1.39,1.39.62,1.39,1.39Z"/>
      </g>
      <g>
        <rect class="cls-1" x="29.66" width="2.79" height="2.79"/>
        <path class="cls-2" d="M32.45,1.39c0,.77-.62,1.39-1.39,1.39s-1.39-.62-1.39-1.39.62-1.39,1.39-1.39,1.39.62,1.39,1.39Z"/>
      </g>
      <g>
        <rect class="cls-1" x="37.5" width="2.79" height="2.79"/>
        <path class="cls-2" d="M40.29,1.39c0,.77-.62,1.39-1.39,1.39s-1.39-.62-1.39-1.39.62-1.39,1.39-1.39,1.39.62,1.39,1.39Z"/>
      </g>
      <g>
        <rect class="cls-1" x="45.34" width="2.79" height="2.79"/>
        <path class="cls-2" d="M48.13,1.39c0,.77-.62,1.39-1.39,1.39s-1.39-.62-1.39-1.39.62-1.39,1.39-1.39,1.39.62,1.39,1.39Z"/>
      </g>
      <g>
        <rect class="cls-1" x="53.18" width="2.79" height="2.79"/>
        <path class="cls-2" d="M55.97,1.39c0,.77-.62,1.39-1.39,1.39s-1.39-.62-1.39-1.39.62-1.39,1.39-1.39,1.39.62,1.39,1.39Z"/>
      </g>
      <g>
        <rect class="cls-1" x="61.03" width="2.79" height="2.79"/>
        <path class="cls-2" d="M63.81,1.39c0,.77-.62,1.39-1.39,1.39s-1.39-.62-1.39-1.39.62-1.39,1.39-1.39,1.39.62,1.39,1.39Z"/>
      </g>
      <g>
        <rect class="cls-1" x="68.87" width="2.79" height="2.79"/>
        <path class="cls-2" d="M71.66,1.39c0,.77-.62,1.39-1.39,1.39s-1.39-.62-1.39-1.39.62-1.39,1.39-1.39,1.39.62,1.39,1.39Z"/>
      </g>
      <g>
        <rect class="cls-1" x="76.71" width="2.79" height="2.79"/>
        <path class="cls-2" d="M79.5,1.39c0,.77-.62,1.39-1.39,1.39s-1.39-.62-1.39-1.39.62-1.39,1.39-1.39,1.39.62,1.39,1.39Z"/>
      </g>
      <g>
        <rect class="cls-1" x="84.55" width="2.79" height="2.79"/>
        <path class="cls-2" d="M87.34,1.39c0,.77-.62,1.39-1.39,1.39s-1.39-.62-1.39-1.39.62-1.39,1.39-1.39,1.39.62,1.39,1.39Z"/>
      </g>
      <g>
        <rect class="cls-1" x="92.39" width="2.79" height="2.79"/>
        <path class="cls-2" d="M95.18,1.39c0,.77-.62,1.39-1.39,1.39s-1.39-.62-1.39-1.39.62-1.39,1.39-1.39,1.39.62,1.39,1.39Z"/>
      </g>
      <g>
        <rect class="cls-1" x="100.24" width="2.79" height="2.79"/>
        <path class="cls-2" d="M103.03,1.39c0,.77-.62,1.39-1.39,1.39s-1.39-.62-1.39-1.39.62-1.39,1.39-1.39,1.39.62,1.39,1.39Z"/>
      </g>
      <g>
        <rect class="cls-1" x="108.08" width="2.79" height="2.79"/>
        <path class="cls-2" d="M110.87,1.39c0,.77-.62,1.39-1.39,1.39s-1.39-.62-1.39-1.39.62-1.39,1.39-1.39,1.39.62,1.39,1.39Z"/>
      </g>
      <g>
        <rect class="cls-1" x="115.92" width="2.79" height="2.79"/>
        <path class="cls-2" d="M118.71,1.39c0,.77-.62,1.39-1.39,1.39s-1.39-.62-1.39-1.39.62-1.39,1.39-1.39,1.39.62,1.39,1.39Z"/>
      </g>
      <g>
        <rect class="cls-1" x="123.76" width="2.79" height="2.79"/>
        <path class="cls-2" d="M126.55,1.39c0,.77-.62,1.39-1.39,1.39s-1.39-.62-1.39-1.39.62-1.39,1.39-1.39,1.39.62,1.39,1.39Z"/>
      </g>
      <g>
        <rect class="cls-1" x="131.61" width="2.79" height="2.79"/>
        <path class="cls-2" d="M134.4,1.39c0,.77-.62,1.39-1.39,1.39s-1.39-.62-1.39-1.39.62-1.39,1.39-1.39,1.39.62,1.39,1.39Z"/>
      </g>
      <g>
        <rect class="cls-1" x="139.45" width="2.79" height="2.79"/>
        <path class="cls-2" d="M142.24,1.39c0,.77-.62,1.39-1.39,1.39s-1.39-.62-1.39-1.39.62-1.39,1.39-1.39,1.39.62,1.39,1.39Z"/>
      </g>
      <g>
        <rect class="cls-1" x="147.29" width="2.79" height="2.79"/>
        <path class="cls-2" d="M150.08,1.39c0,.77-.62,1.39-1.39,1.39s-1.39-.62-1.39-1.39.62-1.39,1.39-1.39,1.39.62,1.39,1.39Z"/>
      </g>
      <g>
        <rect class="cls-1" x="155.13" width="2.79" height="2.79"/>
        <path class="cls-2" d="M157.92,1.39c0,.77-.62,1.39-1.39,1.39s-1.39-.62-1.39-1.39.62-1.39,1.39-1.39,1.39.62,1.39,1.39Z"/>
      </g>
      <g>
        <rect class="cls-1" x="161.26" y="161.26" width="2.79" height="2.79"/>
        <polygon class="cls-2" points="161.26 162.66 161.26 162.59 161.27 162.51 161.28 162.44 161.29 162.38 161.31 162.31 161.32 162.24 161.35 162.18 161.37 162.11 161.4 162.05 161.43 161.99 161.46 161.93 161.5 161.88 161.54 161.82 161.58 161.77 161.62 161.72 161.67 161.67 161.72 161.62 161.77 161.58 161.82 161.54 161.88 161.5 161.93 161.46 161.99 161.43 162.05 161.4 162.11 161.37 162.18 161.35 162.24 161.32 162.31 161.31 162.38 161.29 162.44 161.28 162.51 161.27 162.59 161.26 162.66 161.26 162.73 161.26 162.8 161.27 162.87 161.28 162.94 161.29 163.01 161.31 163.07 161.32 163.14 161.35 163.2 161.37 163.26 161.4 163.32 161.43 163.38 161.46 163.44 161.5 163.49 161.54 163.54 161.58 163.59 161.62 163.64 161.67 163.69 161.72 163.73 161.77 163.77 161.82 163.81 161.88 163.85 161.93 163.88 161.99 163.91 162.05 163.94 162.11 163.97 162.18 163.99 162.24 164.01 162.31 164.02 162.38 164.04 162.44 164.04 162.51 164.05 162.59 164.05 162.66 164.05 162.73 164.04 162.8 164.04 162.87 164.02 162.94 164.01 163.01 163.99 163.07 163.97 163.14 163.94 163.2 163.91 163.26 163.88 163.32 163.85 163.38 163.81 163.44 163.77 163.49 163.73 163.54 163.69 163.59 163.64 163.64 163.59 163.69 163.54 163.73 163.49 163.77 163.44 163.81 163.38 163.85 163.32 163.88 163.26 163.91 163.2 163.94 163.14 163.97 163.07 163.99 163.01 164.01 162.94 164.02 162.87 164.04 162.8 164.04 162.73 164.05 162.66 164.05 162.59 164.05 162.51 164.04 162.44 164.04 162.38 164.02 162.31 164.01 162.24 163.99 162.18 163.97 162.11 163.94 162.05 163.91 161.99 163.88 161.93 163.85 161.88 163.81 161.82 163.77 161.77 163.73 161.72 163.69 161.67 163.64 161.62 163.59 161.58 163.54 161.54 163.49 161.5 163.44 161.46 163.38 161.43 163.32 161.4 163.26 161.37 163.2 161.35 163.14 161.32 163.07 161.31 163.01 161.29 162.94 161.28 162.87 161.27 162.8 161.26 162.73 161.26 162.66"/>
      </g>
      <g>
        <rect class="cls-1" y="161.26" width="2.79" height="2.79"/>
        <polygon class="cls-2" points="1.39 161.26 1.47 161.26 1.54 161.27 1.61 161.28 1.68 161.29 1.74 161.31 1.81 161.32 1.87 161.35 1.94 161.37 2 161.4 2.06 161.43 2.12 161.46 2.17 161.5 2.23 161.54 2.28 161.58 2.33 161.62 2.38 161.67 2.43 161.72 2.47 161.77 2.51 161.82 2.55 161.88 2.59 161.93 2.62 161.99 2.65 162.05 2.68 162.11 2.7 162.18 2.73 162.24 2.75 162.31 2.76 162.38 2.77 162.44 2.78 162.51 2.79 162.59 2.79 162.66 2.79 162.73 2.78 162.8 2.77 162.87 2.76 162.94 2.75 163.01 2.73 163.07 2.7 163.14 2.68 163.2 2.65 163.26 2.62 163.32 2.59 163.38 2.55 163.44 2.51 163.49 2.47 163.54 2.43 163.59 2.38 163.64 2.33 163.69 2.28 163.73 2.23 163.77 2.17 163.81 2.12 163.85 2.06 163.88 2 163.91 1.94 163.94 1.87 163.97 1.81 163.99 1.74 164.01 1.68 164.02 1.61 164.04 1.54 164.04 1.47 164.05 1.39 164.05 1.32 164.05 1.25 164.04 1.18 164.04 1.11 164.02 1.05 164.01 .98 163.99 .92 163.97 .85 163.94 .79 163.91 .73 163.88 .67 163.85 .61 163.81 .56 163.77 .51 163.73 .46 163.69 .41 163.64 .36 163.59 .32 163.54 .28 163.49 .24 163.44 .2 163.38 .17 163.32 .14 163.26 .11 163.2 .08 163.14 .06 163.07 .04 163.01 .03 162.94 .02 162.87 0 162.8 0 162.73 0 162.66 0 162.59 0 162.51 .02 162.44 .03 162.38 .04 162.31 .06 162.24 .08 162.18 .11 162.11 .14 162.05 .17 161.99 .2 161.93 .24 161.88 .28 161.82 .32 161.77 .36 161.72 .41 161.67 .46 161.62 .51 161.58 .56 161.54 .61 161.5 .67 161.46 .73 161.43 .79 161.4 .85 161.37 .92 161.35 .98 161.32 1.05 161.31 1.11 161.29 1.18 161.28 1.25 161.27 1.32 161.26 1.39 161.26"/>
      </g>
      <g>
        <rect class="cls-1" width="2.79" height="2.79"/>
        <polygon class="cls-2" points="2.79 1.39 2.79 1.47 2.78 1.54 2.77 1.61 2.76 1.68 2.75 1.74 2.73 1.81 2.7 1.87 2.68 1.94 2.65 2 2.62 2.06 2.59 2.12 2.55 2.17 2.51 2.23 2.47 2.28 2.43 2.33 2.38 2.38 2.33 2.43 2.28 2.47 2.23 2.51 2.17 2.55 2.12 2.59 2.06 2.62 2 2.65 1.94 2.68 1.87 2.7 1.81 2.73 1.74 2.75 1.68 2.76 1.61 2.77 1.54 2.78 1.47 2.79 1.39 2.79 1.32 2.79 1.25 2.78 1.18 2.77 1.11 2.76 1.05 2.75 .98 2.73 .92 2.7 .85 2.68 .79 2.65 .73 2.62 .67 2.59 .61 2.55 .56 2.51 .51 2.47 .46 2.43 .41 2.38 .36 2.33 .32 2.28 .28 2.23 .24 2.17 .2 2.12 .17 2.06 .14 2 .11 1.94 .08 1.87 .06 1.81 .04 1.74 .03 1.68 .02 1.61 0 1.54 0 1.47 0 1.39 0 1.32 0 1.25 .02 1.18 .03 1.11 .04 1.05 .06 .98 .08 .92 .11 .85 .14 .79 .17 .73 .2 .67 .24 .61 .28 .56 .32 .51 .36 .46 .41 .41 .46 .36 .51 .32 .56 .28 .61 .24 .67 .2 .73 .17 .79 .14 .85 .11 .92 .08 .98 .06 1.05 .04 1.11 .03 1.18 .02 1.25 0 1.32 0 1.39 0 1.47 0 1.54 0 1.61 .02 1.68 .03 1.74 .04 1.81 .06 1.87 .08 1.94 .11 2 .14 2.06 .17 2.12 .2 2.17 .24 2.23 .28 2.28 .32 2.33 .36 2.38 .41 2.43 .46 2.47 .51 2.51 .56 2.55 .61 2.59 .67 2.62 .73 2.65 .79 2.68 .85 2.7 .92 2.73 .98 2.75 1.05 2.76 1.11 2.77 1.18 2.78 1.25 2.79 1.32 2.79 1.39"/>
      </g>
      <g>
        <rect class="cls-1" x="161.26" y="0" width="2.79" height="2.79"/>
        <polygon class="cls-2" points="162.66 2.79 162.59 2.79 162.51 2.78 162.44 2.77 162.38 2.76 162.31 2.75 162.24 2.73 162.18 2.7 162.11 2.68 162.05 2.65 161.99 2.62 161.93 2.59 161.88 2.55 161.82 2.51 161.77 2.47 161.72 2.43 161.67 2.38 161.62 2.33 161.58 2.28 161.54 2.23 161.5 2.17 161.46 2.12 161.43 2.06 161.4 2 161.37 1.94 161.35 1.87 161.32 1.81 161.31 1.74 161.29 1.68 161.28 1.61 161.27 1.54 161.26 1.47 161.26 1.39 161.26 1.32 161.27 1.25 161.28 1.18 161.29 1.11 161.31 1.05 161.32 .98 161.35 .92 161.37 .85 161.4 .79 161.43 .73 161.46 .67 161.5 .61 161.54 .56 161.58 .51 161.62 .46 161.67 .41 161.72 .36 161.77 .32 161.82 .28 161.88 .24 161.93 .2 161.99 .17 162.05 .14 162.11 .11 162.18 .08 162.24 .06 162.31 .04 162.38 .03 162.44 .02 162.51 0 162.59 0 162.66 0 162.73 0 162.8 0 162.87 .02 162.94 .03 163.01 .04 163.07 .06 163.14 .08 163.2 .11 163.26 .14 163.32 .17 163.38 .2 163.44 .24 163.49 .28 163.54 .32 163.59 .36 163.64 .41 163.69 .46 163.73 .51 163.77 .56 163.81 .61 163.85 .67 163.88 .73 163.91 .79 163.94 .85 163.97 .92 163.99 .98 164.01 1.05 164.02 1.11 164.04 1.18 164.04 1.25 164.05 1.32 164.05 1.39 164.05 1.47 164.04 1.54 164.04 1.61 164.02 1.68 164.01 1.74 163.99 1.81 163.97 1.87 163.94 1.94 163.91 2 163.88 2.06 163.85 2.12 163.81 2.17 163.77 2.23 163.73 2.28 163.69 2.33 163.64 2.38 163.59 2.43 163.54 2.47 163.49 2.51 163.44 2.55 163.38 2.59 163.32 2.62 163.26 2.65 163.2 2.68 163.14 2.7 163.07 2.73 163.01 2.75 162.94 2.76 162.87 2.77 162.8 2.78 162.73 2.79 162.66 2.79"/>
      </g>
    </g>
  </g>
</svg>