<?xml version="1.0" encoding="UTF-8"?>
<svg id="Layer_2" data-name="Layer 2" xmlns="http://www.w3.org/2000/svg" viewBox="0 0 168.12 168.16">
  <defs>
    <style>
      .cls-1 {
        fill: none;
      }

      .cls-1, .cls-2 {
        stroke-width: 0px;
      }

      .cls-2 {
        fill: #191919;
        fill-rule: evenodd;
      }
    </style>
  </defs>
  <g id="_ÎÓÈ_1" data-name="—ÎÓÈ_1">
    <g>
      <g>
        <polygon class="cls-1" points="159.64 68.95 157.78 70.87 159.62 72.86 161.49 70.94 159.64 68.95"/>
        <path class="cls-2" d="M158.7,71.86c-.51-.55-.5-1.42.01-1.95.52-.53,1.35-.51,1.86.03.51.55.5,1.42-.01,1.95-.52.53-1.35.51-1.86-.03Z"/>
      </g>
      <g>
        <polygon class="cls-1" points="154.39 74.35 152.53 76.26 154.37 78.25 156.24 76.33 154.39 74.35"/>
        <path class="cls-2" d="M153.45,77.26c-.51-.55-.5-1.42.01-1.95.52-.53,1.35-.51,1.86.03.51.55.5,1.42-.01,1.95-.52.53-1.35.51-1.86-.03Z"/>
      </g>
      <g>
        <polygon class="cls-1" points="149.14 79.74 147.27 81.65 149.12 83.64 150.99 81.72 149.14 79.74"/>
        <path class="cls-2" d="M148.2,82.65c-.51-.55-.5-1.42.01-1.95.52-.53,1.35-.51,1.86.03.51.55.5,1.42-.01,1.95-.52.53-1.35.51-1.86-.03Z"/>
      </g>
      <g>
        <polygon class="cls-1" points="143.89 85.13 142.02 87.05 143.87 89.03 145.74 87.11 143.89 85.13"/>
        <path class="cls-2" d="M142.95,88.04c-.51-.55-.5-1.42.01-1.95.52-.53,1.35-.51,1.86.03.51.55.5,1.42-.01,1.95s-1.35.51-1.86-.03Z"/>
      </g>
      <g>
        <polygon class="cls-1" points="138.64 90.52 136.77 92.44 138.62 94.42 140.48 92.51 138.64 90.52"/>
        <path class="cls-2" d="M137.69,93.43c-.51-.55-.5-1.42.01-1.95.52-.53,1.35-.51,1.86.03.51.55.5,1.42-.01,1.95-.52.53-1.35.51-1.86-.03Z"/>
      </g>
      <g>
        <polygon class="cls-1" points="133.39 95.91 131.52 97.83 133.37 99.82 135.23 97.9 133.39 95.91"/>
        <path class="cls-2" d="M132.44,98.82c-.51-.55-.5-1.42.01-1.95.52-.53,1.35-.51,1.86.03.51.55.5,1.42-.01,1.95-.52.53-1.35.51-1.86-.03Z"/>
      </g>
      <g>
        <polygon class="cls-1" points="128.14 101.3 126.27 103.22 128.11 105.21 129.98 103.29 128.14 101.3"/>
        <path class="cls-2" d="M127.19,104.21c-.51-.55-.5-1.42.01-1.95.52-.53,1.35-.51,1.86.03.51.55.5,1.42-.01,1.95-.52.53-1.35.51-1.86-.03Z"/>
      </g>
      <g>
        <polygon class="cls-1" points="124 110.58 124.45 113.29 127.05 112.82 126.6 110.11 124 110.58"/>
        <path class="cls-2" d="M125.75,113.05c-.72.13-1.4-.37-1.52-1.12-.12-.75.36-1.46,1.08-1.59.72-.13,1.4.37,1.52,1.12.12.75-.36,1.46-1.08,1.59Z"/>
      </g>
      <g>
        <polygon class="cls-1" points="125.25 118.19 125.69 120.89 128.3 120.42 127.85 117.72 125.25 118.19"/>
        <path class="cls-2" d="M126.99,120.66c-.72.13-1.4-.37-1.52-1.12-.12-.75.36-1.46,1.08-1.59.72-.13,1.4.37,1.52,1.12.12.75-.36,1.46-1.08,1.59Z"/>
      </g>
      <g>
        <polygon class="cls-1" points="126.5 125.79 126.94 128.5 129.54 128.03 129.1 125.32 126.5 125.79"/>
        <path class="cls-2" d="M128.24,128.26c-.72.13-1.4-.37-1.52-1.12-.12-.75.36-1.46,1.08-1.59.72-.13,1.4.37,1.52,1.12.12.75-.36,1.46-1.08,1.59Z"/>
      </g>
      <g>
        <polygon class="cls-1" points="127.74 133.4 128.19 136.1 130.79 135.63 130.35 132.93 127.74 133.4"/>
        <path class="cls-2" d="M129.49,135.87c-.72.13-1.4-.37-1.52-1.12-.12-.75.36-1.46,1.08-1.59.72-.13,1.4.37,1.52,1.12.12.75-.36,1.46-1.08,1.59Z"/>
      </g>
      <g>
        <polygon class="cls-1" points="128.99 141 129.44 143.71 132.04 143.23 131.59 140.53 128.99 141"/>
        <path class="cls-2" d="M130.74,143.47c-.72.13-1.4-.37-1.52-1.12-.12-.75.36-1.46,1.08-1.59.72-.13,1.4.37,1.52,1.12.12.75-.36,1.46-1.08,1.59Z"/>
      </g>
      <g>
        <polygon class="cls-1" points="130.24 148.61 130.68 151.31 133.29 150.84 132.84 148.14 130.24 148.61"/>
        <path class="cls-2" d="M131.99,151.08c-.72.13-1.4-.37-1.52-1.12-.12-.75.36-1.46,1.08-1.59.72-.13,1.4.37,1.52,1.12.12.75-.36,1.46-1.08,1.59Z"/>
      </g>
      <g>
        <polygon class="cls-1" points="131.49 156.21 131.93 158.92 134.53 158.44 134.09 155.74 131.49 156.21"/>
        <path class="cls-2" d="M133.23,158.68c-.72.13-1.4-.37-1.52-1.12-.12-.75.36-1.46,1.08-1.59.72-.13,1.4.37,1.52,1.12.12.75-.36,1.46-1.08,1.59Z"/>
      </g>
      <g>
        <polygon class="cls-1" points="129.12 161.07 126.81 159.79 125.58 162.25 127.9 163.52 129.12 161.07"/>
        <path class="cls-2" d="M126.2,161.02c.34-.68,1.13-.94,1.77-.59s.88,1.19.54,1.87c-.34.68-1.13.94-1.77.59-.64-.35-.88-1.19-.54-1.87Z"/>
      </g>
      <g>
        <polygon class="cls-1" points="122.62 157.48 120.31 156.21 119.08 158.66 121.4 159.94 122.62 157.48"/>
        <path class="cls-2" d="M119.7,157.44c.34-.68,1.13-.94,1.77-.59.64.35.88,1.19.54,1.87-.34.68-1.13.94-1.77.59s-.88-1.19-.54-1.87Z"/>
      </g>
      <g>
        <polygon class="cls-1" points="116.12 153.9 113.81 152.62 112.58 155.08 114.9 156.36 116.12 153.9"/>
        <path class="cls-2" d="M113.2,153.85c.34-.68,1.13-.94,1.77-.59s.88,1.19.54,1.87c-.34.68-1.13.94-1.77.59s-.88-1.19-.54-1.87Z"/>
      </g>
      <g>
        <polygon class="cls-1" points="109.62 150.31 107.31 149.04 106.08 151.5 108.4 152.77 109.62 150.31"/>
        <path class="cls-2" d="M106.7,150.27c.34-.68,1.13-.94,1.77-.59s.88,1.19.54,1.87c-.34.68-1.13.94-1.77.59-.64-.35-.88-1.19-.54-1.87Z"/>
      </g>
      <g>
        <polygon class="cls-1" points="103.12 146.73 100.81 145.45 99.58 147.91 101.9 149.19 103.12 146.73"/>
        <path class="cls-2" d="M100.2,146.68c.34-.68,1.13-.94,1.77-.59.64.35.88,1.19.54,1.87-.34.68-1.13.94-1.77.59-.64-.35-.88-1.19-.54-1.87Z"/>
      </g>
      <g>
        <polygon class="cls-1" points="96.62 143.14 94.31 141.87 93.08 144.33 95.4 145.6 96.62 143.14"/>
        <path class="cls-2" d="M93.7,143.1c.34-.68,1.13-.94,1.77-.59.64.35.88,1.19.54,1.87-.34.68-1.13.94-1.77.59-.64-.35-.88-1.19-.54-1.87Z"/>
      </g>
      <g>
        <polygon class="cls-1" points="90.12 139.56 87.81 138.28 86.58 140.74 88.9 142.02 90.12 139.56"/>
        <path class="cls-2" d="M87.2,139.51c.34-.68,1.13-.94,1.77-.59.64.35.88,1.19.54,1.87-.34.68-1.13.94-1.77.59s-.88-1.19-.54-1.87Z"/>
      </g>
      <g>
        <polygon class="cls-1" points="80.45 138.29 78.14 139.57 79.37 142.03 81.68 140.75 80.45 138.29"/>
        <path class="cls-2" d="M78.76,140.8c-.34-.68-.1-1.51.54-1.87.64-.35,1.43-.09,1.77.59.34.68.1,1.51-.54,1.87-.64.35-1.43.09-1.77-.59Z"/>
      </g>
      <g>
        <polygon class="cls-1" points="73.96 141.89 71.65 143.17 72.88 145.62 75.19 144.34 73.96 141.89"/>
        <path class="cls-2" d="M72.26,144.4c-.34-.68-.1-1.51.54-1.87s1.43-.09,1.77.59c.34.68.1,1.51-.54,1.87-.64.35-1.43.09-1.77-.59Z"/>
      </g>
      <g>
        <polygon class="cls-1" points="67.46 145.49 65.15 146.77 66.38 149.22 68.69 147.94 67.46 145.49"/>
        <path class="cls-2" d="M65.77,147.99c-.34-.68-.1-1.51.54-1.87.64-.35,1.43-.09,1.77.59.34.68.1,1.51-.54,1.87-.64.35-1.43.09-1.77-.59Z"/>
      </g>
      <g>
        <polygon class="cls-1" points="60.97 149.08 58.66 150.36 59.89 152.82 62.2 151.54 60.97 149.08"/>
        <path class="cls-2" d="M59.27,151.59c-.34-.68-.1-1.51.54-1.87.64-.35,1.43-.09,1.77.59.34.68.1,1.51-.54,1.87-.64.35-1.43.09-1.77-.59Z"/>
      </g>
      <g>
        <polygon class="cls-1" points="54.47 152.68 52.17 153.96 53.4 156.42 55.71 155.14 54.47 152.68"/>
        <path class="cls-2" d="M52.78,155.19c-.34-.68-.1-1.51.54-1.87.64-.35,1.43-.09,1.77.59.34.68.1,1.51-.54,1.87-.64.35-1.43.09-1.77-.59Z"/>
      </g>
      <g>
        <polygon class="cls-1" points="47.98 156.28 45.67 157.56 46.9 160.01 49.21 158.73 47.98 156.28"/>
        <path class="cls-2" d="M46.29,158.79c-.34-.68-.1-1.51.54-1.87.64-.35,1.43-.09,1.77.59.34.68.1,1.51-.54,1.87-.64.35-1.43.09-1.77-.59Z"/>
      </g>
      <g>
        <polygon class="cls-1" points="41.49 159.88 39.18 161.16 40.41 163.61 42.72 162.33 41.49 159.88"/>
        <path class="cls-2" d="M39.79,162.38c-.34-.68-.1-1.51.54-1.87.64-.35,1.43-.09,1.77.59.34.68.1,1.51-.54,1.87-.64.35-1.43.09-1.77-.59Z"/>
      </g>
      <g>
        <polygon class="cls-1" points="36.37 159.01 36.8 156.31 34.2 155.84 33.76 158.55 36.37 159.01"/>
        <path class="cls-2" d="M35.5,156.07c.72.13,1.2.84,1.08,1.59s-.8,1.25-1.52,1.12-1.2-.84-1.08-1.59.8-1.25,1.52-1.12Z"/>
      </g>
      <g>
        <polygon class="cls-1" points="37.6 151.4 38.04 148.7 35.44 148.23 35 150.94 37.6 151.4"/>
        <path class="cls-2" d="M36.74,148.47c.72.13,1.2.84,1.08,1.59-.12.75-.8,1.25-1.52,1.12-.72-.13-1.2-.84-1.08-1.59s.8-1.25,1.52-1.12Z"/>
      </g>
      <g>
        <polygon class="cls-1" points="38.83 143.8 39.27 141.09 36.67 140.63 36.23 143.33 38.83 143.8"/>
        <path class="cls-2" d="M37.97,140.86c.72.13,1.2.84,1.08,1.59-.12.75-.8,1.25-1.52,1.12-.72-.13-1.2-.84-1.08-1.59.12-.75.8-1.25,1.52-1.12Z"/>
      </g>
      <g>
        <polygon class="cls-1" points="40.07 136.19 40.51 133.49 37.9 133.02 37.46 135.72 40.07 136.19"/>
        <path class="cls-2" d="M39.2,133.25c.72.13,1.2.84,1.08,1.59s-.8,1.25-1.52,1.12c-.72-.13-1.2-.84-1.08-1.59.12-.75.8-1.25,1.52-1.12Z"/>
      </g>
      <g>
        <polygon class="cls-1" points="41.3 128.58 41.74 125.88 39.14 125.41 38.7 128.12 41.3 128.58"/>
        <path class="cls-2" d="M40.44,125.64c.72.13,1.2.84,1.08,1.59-.12.75-.8,1.25-1.52,1.12-.72-.13-1.2-.84-1.08-1.59s.8-1.25,1.52-1.12Z"/>
      </g>
      <g>
        <polygon class="cls-1" points="42.53 120.98 42.97 118.27 40.37 117.8 39.93 120.51 42.53 120.98"/>
        <path class="cls-2" d="M41.67,118.04c.72.13,1.2.84,1.08,1.59-.12.75-.8,1.25-1.52,1.12-.72-.13-1.2-.84-1.08-1.59.12-.75.8-1.25,1.52-1.12Z"/>
      </g>
      <g>
        <polygon class="cls-1" points="43.77 113.37 44.21 110.66 41.6 110.2 41.17 112.9 43.77 113.37"/>
        <path class="cls-2" d="M42.91,110.43c.72.13,1.2.84,1.08,1.59s-.8,1.25-1.52,1.12c-.72-.13-1.2-.84-1.08-1.59.12-.75.8-1.25,1.52-1.12Z"/>
      </g>
      <g>
        <polygon class="cls-1" points="41.93 103.31 40.06 101.39 38.21 103.38 40.09 105.3 41.93 103.31"/>
        <path class="cls-2" d="M39.13,102.39c.51-.55,1.34-.57,1.86-.04s.52,1.4.01,1.95c-.51.55-1.34.57-1.86.04-.52-.53-.52-1.4-.02-1.95Z"/>
      </g>
      <g>
        <polygon class="cls-1" points="36.67 97.93 34.79 96.01 32.95 98 34.82 99.91 36.67 97.93"/>
        <path class="cls-2" d="M33.87,97.01c.51-.55,1.34-.57,1.86-.04.52.53.52,1.4.01,1.95-.51.55-1.34.57-1.86.04-.52-.53-.52-1.4-.01-1.95Z"/>
      </g>
      <g>
        <polygon class="cls-1" points="31.4 92.54 29.53 90.63 27.69 92.62 29.56 94.53 31.4 92.54"/>
        <path class="cls-2" d="M28.61,91.62c.51-.55,1.34-.57,1.86-.04.52.53.52,1.4.01,1.95-.51.55-1.34.57-1.86.04-.52-.53-.52-1.4-.01-1.95Z"/>
      </g>
      <g>
        <polygon class="cls-1" points="26.14 87.16 24.27 85.25 22.43 87.24 24.3 89.15 26.14 87.16"/>
        <path class="cls-2" d="M23.35,86.24c.51-.55,1.34-.57,1.86-.04.52.53.52,1.4.01,1.95-.51.55-1.34.57-1.86.04-.52-.53-.52-1.4-.01-1.95Z"/>
      </g>
      <g>
        <polygon class="cls-1" points="20.88 81.78 19.01 79.87 17.17 81.86 19.04 83.77 20.88 81.78"/>
        <path class="cls-2" d="M18.09,80.86c.51-.55,1.34-.57,1.86-.04.52.53.52,1.4.01,1.95-.51.55-1.34.57-1.86.04-.52-.53-.52-1.4-.02-1.95Z"/>
      </g>
      <g>
        <polygon class="cls-1" points="15.62 76.4 13.75 74.49 11.91 76.48 13.78 78.39 15.62 76.4"/>
        <path class="cls-2" d="M12.83,75.48c.51-.55,1.34-.57,1.86-.04.52.53.52,1.4.01,1.95-.51.55-1.34.57-1.86.04-.52-.53-.52-1.4-.01-1.95Z"/>
      </g>
      <g>
        <polygon class="cls-1" points="10.36 71.02 8.49 69.11 6.65 71.09 8.52 73.01 10.36 71.02"/>
        <path class="cls-2" d="M7.57,70.1c.51-.55,1.34-.57,1.86-.04.52.53.52,1.4.01,1.95-.51.55-1.34.57-1.86.04-.52-.53-.52-1.4-.01-1.95Z"/>
      </g>
      <g>
        <polygon class="cls-1" points="9.56 65.63 12.14 65.23 11.76 62.49 9.18 62.88 9.56 65.63"/>
        <path class="cls-2" d="M11.95,63.86c.11.76-.39,1.46-1.1,1.57-.71.11-1.38-.42-1.48-1.17-.11-.76.39-1.46,1.1-1.57.71-.11,1.38.42,1.48,1.17Z"/>
      </g>
      <g>
        <polygon class="cls-1" points="16.82 64.51 19.41 64.12 19.02 61.37 16.44 61.77 16.82 64.51"/>
        <path class="cls-2" d="M19.21,62.74c.11.76-.39,1.46-1.1,1.57-.71.11-1.38-.42-1.48-1.17-.11-.76.39-1.46,1.1-1.57.71-.11,1.38.42,1.48,1.17Z"/>
      </g>
      <g>
        <polygon class="cls-1" points="24.09 63.4 26.67 63 26.29 60.25 23.7 60.65 24.09 63.4"/>
        <path class="cls-2" d="M26.48,61.63c.11.76-.39,1.46-1.1,1.57-.71.11-1.38-.42-1.48-1.17-.11-.76.39-1.46,1.1-1.57.71-.11,1.38.42,1.48,1.17Z"/>
      </g>
      <g>
        <polygon class="cls-1" points="31.35 62.28 33.93 61.88 33.55 59.14 30.97 59.53 31.35 62.28"/>
        <path class="cls-2" d="M33.74,60.51c.11.76-.39,1.46-1.1,1.57-.71.11-1.38-.42-1.48-1.17-.11-.76.39-1.46,1.1-1.57.71-.11,1.38.42,1.48,1.17Z"/>
      </g>
      <g>
        <polygon class="cls-1" points="38.61 61.16 41.19 60.77 40.81 58.02 38.23 58.42 38.61 61.16"/>
        <path class="cls-2" d="M41,59.39c.11.76-.39,1.46-1.1,1.57-.71.11-1.38-.42-1.48-1.17-.11-.76.39-1.46,1.1-1.57.71-.11,1.38.42,1.48,1.17Z"/>
      </g>
      <g>
        <polygon class="cls-1" points="45.87 60.05 48.46 59.65 48.07 56.9 45.49 57.3 45.87 60.05"/>
        <path class="cls-2" d="M48.27,58.27c.11.76-.39,1.46-1.1,1.57-.71.11-1.38-.42-1.48-1.17-.11-.76.39-1.46,1.1-1.57.71-.11,1.38.42,1.48,1.17Z"/>
      </g>
      <g>
        <polygon class="cls-1" points="53.14 58.93 55.72 58.53 55.34 55.78 52.75 56.18 53.14 58.93"/>
        <path class="cls-2" d="M55.53,57.16c.11.76-.39,1.46-1.1,1.57s-1.38-.42-1.48-1.17c-.11-.76.39-1.46,1.1-1.57.71-.11,1.38.42,1.48,1.17Z"/>
      </g>
      <g>
        <polygon class="cls-1" points="61.67 53.98 62.82 51.51 60.45 50.29 59.3 52.75 61.67 53.98"/>
        <path class="cls-2" d="M61.64,50.9c.65.34.93,1.16.61,1.84s-1.11.96-1.76.62c-.65-.34-.93-1.16-.61-1.84.32-.68,1.11-.96,1.76-.62Z"/>
      </g>
      <g>
        <polygon class="cls-1" points="64.91 47.05 66.07 44.59 63.7 43.37 62.54 45.83 64.91 47.05"/>
        <path class="cls-2" d="M64.88,43.98c.65.34.93,1.16.61,1.84s-1.11.96-1.76.62c-.65-.34-.93-1.16-.61-1.84.32-.68,1.11-.96,1.76-.62Z"/>
      </g>
      <g>
        <polygon class="cls-1" points="68.15 40.13 69.31 37.67 66.94 36.44 65.79 38.9 68.15 40.13"/>
        <path class="cls-2" d="M68.12,37.05c.65.34.93,1.16.61,1.84s-1.11.96-1.76.62c-.65-.34-.93-1.16-.61-1.84.32-.68,1.11-.96,1.76-.62Z"/>
      </g>
      <g>
        <polygon class="cls-1" points="71.4 33.21 72.55 30.74 70.18 29.52 69.03 31.98 71.4 33.21"/>
        <path class="cls-2" d="M71.37,30.13c.65.34.93,1.16.61,1.84s-1.11.96-1.76.62-.93-1.16-.61-1.84c.32-.68,1.11-.96,1.76-.62Z"/>
      </g>
      <g>
        <polygon class="cls-1" points="74.64 26.28 75.79 23.82 73.42 22.59 72.27 25.06 74.64 26.28"/>
        <path class="cls-2" d="M74.61,23.21c.65.34.93,1.16.61,1.84-.32.68-1.11.96-1.76.62-.65-.34-.93-1.16-.61-1.84.32-.68,1.11-.96,1.76-.62Z"/>
      </g>
      <g>
        <polygon class="cls-1" points="77.88 19.36 79.03 16.9 76.67 15.67 75.51 18.13 77.88 19.36"/>
        <path class="cls-2" d="M77.85,16.28c.65.34.93,1.16.61,1.84-.32.68-1.11.96-1.76.62-.65-.34-.93-1.16-.61-1.84.32-.68,1.11-.96,1.76-.62Z"/>
      </g>
      <g>
        <polygon class="cls-1" points="81.12 12.44 82.28 9.97 79.91 8.75 78.75 11.21 81.12 12.44"/>
        <path class="cls-2" d="M81.09,9.36c.65.34.93,1.16.61,1.84-.32.68-1.11.96-1.76.62-.65-.34-.93-1.16-.61-1.84.32-.68,1.11-.96,1.76-.62Z"/>
      </g>
      <g>
        <polygon class="cls-1" points="85.75 9.97 86.91 12.43 89.27 11.2 88.12 8.74 85.75 9.97"/>
        <path class="cls-2" d="M88.09,11.82c-.65.34-1.44.06-1.76-.61-.32-.68-.05-1.51.6-1.85.65-.34,1.44-.06,1.76.61.32.68.05,1.51-.6,1.85Z"/>
      </g>
      <g>
        <polygon class="cls-1" points="89.01 16.89 90.16 19.35 92.53 18.12 91.37 15.66 89.01 16.89"/>
        <path class="cls-2" d="M91.35,18.73c-.65.34-1.44.06-1.76-.61-.32-.68-.05-1.51.6-1.85.65-.34,1.44-.06,1.76.61.32.68.05,1.51-.6,1.85Z"/>
      </g>
      <g>
        <polygon class="cls-1" points="92.26 23.8 93.42 26.26 95.78 25.03 94.63 22.57 92.26 23.8"/>
        <path class="cls-2" d="M94.6,25.65c-.65.34-1.44.06-1.76-.61-.32-.68-.05-1.51.6-1.85.65-.34,1.44-.06,1.76.61.32.68.05,1.51-.6,1.85Z"/>
      </g>
      <g>
        <polygon class="cls-1" points="95.51 30.72 96.67 33.18 99.04 31.95 97.88 29.49 95.51 30.72"/>
        <path class="cls-2" d="M97.86,32.57c-.65.34-1.44.06-1.76-.61s-.05-1.51.6-1.85,1.44-.06,1.76.61.05,1.51-.6,1.85Z"/>
      </g>
      <g>
        <polygon class="cls-1" points="98.77 37.64 99.93 40.1 102.29 38.87 101.14 36.41 98.77 37.64"/>
        <path class="cls-2" d="M101.11,39.48c-.65.34-1.44.06-1.76-.61s-.05-1.51.6-1.85c.65-.34,1.44-.06,1.76.61s.05,1.51-.6,1.85Z"/>
      </g>
      <g>
        <polygon class="cls-1" points="102.02 44.56 103.18 47.02 105.55 45.78 104.39 43.32 102.02 44.56"/>
        <path class="cls-2" d="M104.37,46.4c-.65.34-1.44.06-1.76-.61-.32-.68-.05-1.51.6-1.85.65-.34,1.44-.06,1.76.61.32.68.05,1.51-.6,1.85Z"/>
      </g>
      <g>
        <polygon class="cls-1" points="105.28 51.47 106.44 53.93 108.8 52.7 107.65 50.24 105.28 51.47"/>
        <path class="cls-2" d="M107.62,53.32c-.65.34-1.44.06-1.76-.61-.32-.68-.05-1.51.6-1.85.65-.34,1.44-.06,1.76.61s.05,1.51-.6,1.85Z"/>
      </g>
      <g>
        <polygon class="cls-1" points="112.4 58.47 114.98 58.87 115.36 56.12 112.77 55.73 112.4 58.47"/>
        <path class="cls-2" d="M115.17,57.49c-.1.76-.77,1.29-1.48,1.18-.71-.11-1.21-.81-1.1-1.57.1-.76.77-1.29,1.48-1.18s1.21.81,1.1,1.57Z"/>
      </g>
      <g>
        <polygon class="cls-1" points="119.66 59.58 122.24 59.97 122.62 57.22 120.04 56.83 119.66 59.58"/>
        <path class="cls-2" d="M122.43,58.6c-.1.76-.77,1.29-1.48,1.18-.71-.11-1.21-.81-1.1-1.57.1-.76.77-1.29,1.48-1.18.71.11,1.21.81,1.1,1.57Z"/>
      </g>
      <g>
        <polygon class="cls-1" points="126.92 60.68 129.51 61.07 129.89 58.32 127.3 57.93 126.92 60.68"/>
        <path class="cls-2" d="M129.7,59.7c-.1.76-.77,1.29-1.48,1.18-.71-.11-1.21-.81-1.1-1.57.1-.76.77-1.29,1.48-1.18s1.21.81,1.1,1.57Z"/>
      </g>
      <g>
        <polygon class="cls-1" points="134.19 61.78 136.77 62.17 137.15 59.43 134.57 59.03 134.19 61.78"/>
        <path class="cls-2" d="M136.96,60.8c-.1.76-.77,1.29-1.48,1.18-.71-.11-1.21-.81-1.1-1.57.1-.76.77-1.29,1.48-1.18.71.11,1.21.81,1.1,1.57Z"/>
      </g>
      <g>
        <polygon class="cls-1" points="141.45 62.88 144.04 63.28 144.42 60.53 141.83 60.14 141.45 62.88"/>
        <path class="cls-2" d="M144.23,61.9c-.1.76-.77,1.29-1.48,1.18-.71-.11-1.21-.81-1.1-1.57.1-.76.77-1.29,1.48-1.18.71.11,1.21.81,1.1,1.57Z"/>
      </g>
      <g>
        <polygon class="cls-1" points="148.72 63.99 151.3 64.38 151.68 61.63 149.1 61.24 148.72 63.99"/>
        <path class="cls-2" d="M151.49,63c-.1.76-.77,1.29-1.48,1.18s-1.21-.81-1.1-1.57c.1-.76.77-1.29,1.48-1.18.71.11,1.21.81,1.1,1.57Z"/>
      </g>
      <g>
        <polygon class="cls-1" points="155.98 65.09 158.57 65.48 158.95 62.73 156.36 62.34 155.98 65.09"/>
        <path class="cls-2" d="M158.76,64.11c-.1.76-.77,1.29-1.48,1.18-.71-.11-1.21-.81-1.1-1.57.1-.76.77-1.29,1.48-1.18.71.11,1.21.81,1.1,1.57Z"/>
      </g>
      <g>
        <polygon class="cls-1" points="124.29 105.26 126.13 107.24 123.53 107.71 123.29 106.28 124.29 105.26"/>
        <polygon class="cls-2" points="124.83 107.48 124.96 107.45 125.09 107.42 125.21 107.38 125.33 107.33 125.44 107.28 125.54 107.22 125.63 107.16 125.72 107.1 125.68 107 125.64 106.89 125.59 106.78 125.53 106.68 125.46 106.57 125.39 106.46 125.3 106.35 125.21 106.25 125.11 106.15 125.01 106.06 124.91 105.98 124.81 105.9 124.71 105.84 124.61 105.78 124.51 105.73 124.41 105.7 124.32 105.67 124.23 105.65 124.14 105.64 124.1 105.64 124.06 105.65 124.02 105.65 123.98 105.66 123.94 105.67 123.91 105.68 123.88 105.7 123.85 105.72 123.82 105.74 123.79 105.77 123.77 105.79 123.75 105.82 123.73 105.86 123.71 105.89 123.7 105.92 123.69 105.96 123.68 106 123.67 106.04 123.67 106.09 123.67 106.13 123.67 106.22 123.69 106.32 123.71 106.42 123.64 106.48 123.57 106.55 123.51 106.62 123.49 106.66 123.47 106.7 123.45 106.73 123.44 106.77 123.42 106.81 123.42 106.85 123.41 106.88 123.41 106.92 123.41 106.96 123.41 107 123.42 107.03 123.43 107.07 123.45 107.1 123.46 107.14 123.48 107.17 123.51 107.2 123.53 107.23 123.56 107.26 123.59 107.28 123.63 107.31 123.7 107.36 123.78 107.4 123.88 107.43 123.98 107.46 124.08 107.49 124.2 107.5 124.32 107.51 124.44 107.52 124.57 107.51 124.7 107.5 124.83 107.48"/>
      </g>
      <g>
        <polygon class="cls-1" points="135.2 162.51 132.6 162.98 131.37 165.44 136.11 168.05 135.2 162.51"/>
        <polygon class="cls-2" points="131.99 164.21 132.02 164.15 132.06 164.09 132.11 164.04 132.16 163.99 132.21 163.95 132.27 163.9 132.34 163.87 132.41 163.84 132.49 163.81 132.56 163.78 132.65 163.76 132.73 163.75 132.82 163.74 132.92 163.73 133.01 163.72 133.11 163.73 133.14 163.63 133.18 163.53 133.21 163.44 133.25 163.35 133.29 163.27 133.33 163.19 133.38 163.12 133.43 163.06 133.48 163 133.53 162.94 133.59 162.89 133.65 162.85 133.71 162.81 133.77 162.79 133.83 162.76 133.9 162.75 133.97 162.74 134.04 162.74 134.1 162.74 134.17 162.76 134.24 162.77 134.31 162.8 134.37 162.83 134.44 162.87 134.51 162.92 134.58 162.97 134.64 163.03 134.71 163.09 134.77 163.16 134.83 163.23 134.89 163.31 134.95 163.39 135.01 163.48 135.07 163.57 135.18 163.77 135.28 163.99 135.38 164.22 135.46 164.47 135.54 164.73 135.6 165 135.66 165.28 135.7 165.57 135.72 165.85 135.73 166.12 135.73 166.38 135.72 166.63 135.69 166.87 135.65 167.1 135.62 167.21 135.6 167.31 135.49 167.31 135.39 167.3 135.17 167.27 134.94 167.22 134.71 167.16 134.47 167.08 134.23 166.99 133.99 166.87 133.74 166.75 133.5 166.61 133.28 166.46 133.06 166.3 132.87 166.14 132.69 165.98 132.52 165.81 132.37 165.64 132.31 165.55 132.25 165.46 132.19 165.38 132.14 165.29 132.09 165.21 132.05 165.12 132.01 165.04 131.98 164.96 131.95 164.87 131.93 164.79 131.92 164.71 131.91 164.64 131.91 164.56 131.91 164.49 131.92 164.41 131.94 164.34 131.96 164.28 131.99 164.21"/>
      </g>
      <g>
        <polygon class="cls-1" points="85.36 136.93 84.13 139.39 82.9 136.93 84.13 136.25 85.36 136.93"/>
        <polygon class="cls-2" points="83.52 138.16 83.58 138.29 83.65 138.4 83.73 138.51 83.8 138.61 83.88 138.71 83.96 138.79 84.05 138.87 84.13 138.93 84.21 138.87 84.3 138.79 84.38 138.71 84.46 138.61 84.53 138.51 84.61 138.4 84.68 138.28 84.74 138.16 84.8 138.03 84.86 137.91 84.9 137.78 84.93 137.66 84.96 137.53 84.98 137.42 84.99 137.3 85 137.19 84.99 137.09 84.98 136.99 84.96 136.9 84.95 136.86 84.93 136.82 84.92 136.78 84.9 136.75 84.88 136.72 84.85 136.69 84.83 136.66 84.8 136.63 84.77 136.61 84.74 136.59 84.71 136.58 84.68 136.56 84.64 136.56 84.61 136.55 84.57 136.55 84.53 136.55 84.49 136.55 84.46 136.56 84.42 136.57 84.38 136.58 84.29 136.61 84.21 136.66 84.13 136.71 84.05 136.66 83.96 136.61 83.88 136.58 83.84 136.57 83.8 136.56 83.76 136.55 83.72 136.55 83.69 136.55 83.65 136.55 83.61 136.56 83.58 136.57 83.55 136.58 83.51 136.59 83.48 136.61 83.45 136.63 83.43 136.66 83.4 136.69 83.38 136.72 83.36 136.75 83.34 136.79 83.32 136.82 83.31 136.86 83.3 136.9 83.28 136.99 83.26 137.09 83.26 137.19 83.26 137.3 83.28 137.42 83.3 137.54 83.32 137.66 83.36 137.78 83.4 137.91 83.46 138.03 83.52 138.16"/>
      </g>
      <g>
        <polygon class="cls-1" points="36.94 165.54 35.71 163.08 33.1 162.61 32.2 168.16 36.94 165.54"/>
        <polygon class="cls-2" points="34.4 162.85 34.47 162.86 34.53 162.88 34.6 162.91 34.66 162.95 34.72 162.99 34.77 163.04 34.82 163.09 34.88 163.16 34.92 163.22 34.97 163.29 35.01 163.37 35.05 163.45 35.09 163.54 35.13 163.63 35.16 163.72 35.19 163.82 35.29 163.82 35.39 163.83 35.48 163.83 35.57 163.85 35.66 163.86 35.74 163.88 35.82 163.9 35.9 163.93 35.97 163.97 36.03 164 36.09 164.04 36.15 164.09 36.2 164.14 36.25 164.19 36.29 164.25 36.32 164.31 36.35 164.37 36.37 164.44 36.39 164.51 36.4 164.58 36.4 164.66 36.4 164.73 36.39 164.81 36.37 164.89 36.35 164.97 36.33 165.05 36.3 165.13 36.26 165.22 36.22 165.3 36.17 165.39 36.12 165.47 36.06 165.56 36 165.65 35.93 165.73 35.79 165.9 35.62 166.07 35.44 166.24 35.25 166.4 35.03 166.56 34.81 166.71 34.57 166.85 34.32 166.97 34.08 167.09 33.84 167.18 33.6 167.26 33.37 167.32 33.14 167.37 32.92 167.4 32.82 167.41 32.72 167.41 32.69 167.31 32.66 167.2 32.62 166.98 32.6 166.74 32.58 166.48 32.58 166.22 32.59 165.95 32.61 165.67 32.65 165.39 32.71 165.1 32.77 164.83 32.85 164.57 32.93 164.32 33.02 164.09 33.13 163.88 33.24 163.68 33.29 163.58 33.35 163.49 33.41 163.41 33.47 163.33 33.54 163.26 33.6 163.19 33.66 163.13 33.73 163.07 33.8 163.02 33.86 162.97 33.93 162.93 34 162.9 34.06 162.88 34.13 162.86 34.2 162.84 34.27 162.84 34.34 162.84 34.4 162.85"/>
      </g>
      <g>
        <polygon class="cls-1" points="44.67 107.79 42.07 107.33 43.91 105.34 44.91 106.35 44.67 107.79"/>
        <polygon class="cls-2" points="42.99 106.33 42.9 106.44 42.82 106.54 42.74 106.65 42.67 106.76 42.61 106.87 42.56 106.97 42.52 107.08 42.49 107.18 42.57 107.25 42.66 107.31 42.77 107.36 42.87 107.41 42.99 107.46 43.11 107.5 43.24 107.53 43.37 107.56 43.51 107.58 43.64 107.59 43.76 107.6 43.89 107.59 44.01 107.58 44.12 107.57 44.23 107.54 44.33 107.51 44.42 107.48 44.5 107.44 44.58 107.39 44.61 107.36 44.64 107.34 44.67 107.31 44.7 107.28 44.72 107.25 44.74 107.21 44.76 107.18 44.77 107.15 44.78 107.11 44.79 107.07 44.79 107.04 44.8 107 44.79 106.96 44.79 106.92 44.78 106.89 44.77 106.85 44.75 106.81 44.73 106.78 44.71 106.74 44.69 106.7 44.63 106.63 44.57 106.56 44.49 106.5 44.52 106.4 44.53 106.3 44.54 106.21 44.53 106.16 44.53 106.12 44.52 106.08 44.52 106.04 44.5 106 44.49 105.97 44.47 105.93 44.46 105.9 44.43 105.87 44.41 105.85 44.38 105.82 44.35 105.8 44.32 105.78 44.29 105.76 44.26 105.75 44.22 105.74 44.18 105.73 44.14 105.73 44.1 105.72 44.06 105.72 43.97 105.73 43.88 105.75 43.79 105.78 43.69 105.82 43.59 105.86 43.49 105.92 43.39 105.98 43.29 106.06 43.19 106.14 43.09 106.23 42.99 106.33"/>
      </g>
      <g>
        <polygon class="cls-1" points="3.83 68.22 5.68 66.23 5.29 63.48 0 64.3 3.83 68.22"/>
        <polygon class="cls-2" points="5.48 64.85 5.49 64.93 5.49 65 5.48 65.07 5.47 65.14 5.45 65.21 5.42 65.28 5.39 65.35 5.35 65.42 5.31 65.49 5.26 65.56 5.2 65.63 5.14 65.69 5.07 65.76 5 65.82 4.93 65.88 4.84 65.94 4.88 66.04 4.9 66.14 4.93 66.24 4.94 66.33 4.96 66.42 4.96 66.51 4.97 66.6 4.96 66.68 4.96 66.76 4.94 66.84 4.92 66.91 4.9 66.98 4.87 67.05 4.84 67.11 4.8 67.17 4.76 67.22 4.71 67.27 4.65 67.31 4.59 67.35 4.53 67.38 4.46 67.41 4.4 67.43 4.32 67.45 4.25 67.46 4.17 67.46 4.08 67.46 4 67.45 3.91 67.44 3.82 67.43 3.73 67.41 3.64 67.38 3.54 67.35 3.45 67.32 3.35 67.28 3.15 67.18 2.94 67.07 2.74 66.94 2.53 66.79 2.32 66.63 2.12 66.45 1.92 66.26 1.73 66.05 1.55 65.84 1.39 65.63 1.24 65.41 1.11 65.2 1 64.99 .91 64.78 .87 64.68 .83 64.58 .92 64.52 1.01 64.46 1.2 64.35 1.41 64.25 1.63 64.15 1.87 64.07 2.12 64 2.38 63.94 2.65 63.89 2.92 63.85 3.18 63.83 3.44 63.83 3.69 63.84 3.93 63.86 4.16 63.89 4.37 63.94 4.48 63.97 4.57 64 4.67 64.04 4.76 64.07 4.84 64.11 4.93 64.16 5 64.2 5.07 64.25 5.14 64.3 5.2 64.35 5.26 64.41 5.31 64.46 5.35 64.52 5.39 64.59 5.43 64.65 5.45 64.72 5.47 64.78 5.48 64.85"/>
      </g>
      <g>
        <polygon class="cls-1" points="58.46 58.11 58.08 55.36 60.45 56.59 59.83 57.9 58.46 58.11"/>
        <polygon class="cls-2" points="59.26 55.98 59.14 55.92 59.02 55.87 58.9 55.82 58.78 55.79 58.66 55.76 58.55 55.75 58.44 55.74 58.33 55.73 58.3 55.84 58.28 55.95 58.26 56.07 58.25 56.19 58.24 56.32 58.24 56.46 58.25 56.6 58.27 56.74 58.29 56.88 58.32 57.01 58.36 57.14 58.4 57.26 58.44 57.38 58.49 57.49 58.55 57.59 58.61 57.68 58.67 57.76 58.73 57.83 58.8 57.89 58.83 57.91 58.86 57.94 58.9 57.96 58.93 57.97 58.97 57.99 59 58 59.04 58 59.08 58.01 59.11 58.01 59.15 58 59.18 58 59.22 57.99 59.25 57.97 59.28 57.95 59.31 57.93 59.34 57.91 59.37 57.88 59.4 57.86 59.43 57.82 59.45 57.79 59.5 57.71 59.54 57.62 59.58 57.53 59.67 57.52 59.77 57.51 59.85 57.48 59.89 57.47 59.93 57.45 59.96 57.43 60 57.41 60.03 57.39 60.05 57.36 60.08 57.34 60.1 57.31 60.12 57.28 60.14 57.24 60.15 57.21 60.17 57.17 60.17 57.14 60.18 57.1 60.18 57.06 60.18 57.02 60.17 56.98 60.17 56.94 60.16 56.9 60.14 56.86 60.11 56.77 60.06 56.69 60.01 56.6 59.95 56.52 59.87 56.43 59.79 56.35 59.7 56.27 59.6 56.19 59.49 56.11 59.38 56.04 59.26 55.98"/>
      </g>
      <g>
        <polygon class="cls-1" points="81.64 5.05 84.01 6.27 86.38 5.04 84 0 81.64 5.05"/>
        <polygon class="cls-2" points="85.19 5.66 85.13 5.69 85.07 5.71 85 5.72 84.93 5.73 84.86 5.73 84.79 5.73 84.71 5.72 84.64 5.7 84.56 5.68 84.49 5.65 84.41 5.61 84.33 5.57 84.25 5.52 84.17 5.47 84.09 5.42 84.01 5.35 83.93 5.42 83.85 5.47 83.77 5.52 83.69 5.57 83.61 5.61 83.53 5.65 83.46 5.68 83.38 5.7 83.3 5.72 83.23 5.73 83.16 5.73 83.09 5.73 83.02 5.72 82.95 5.71 82.89 5.69 82.83 5.66 82.77 5.62 82.71 5.58 82.66 5.54 82.61 5.48 82.57 5.43 82.53 5.36 82.49 5.3 82.46 5.22 82.43 5.14 82.4 5.06 82.38 4.98 82.37 4.89 82.35 4.79 82.34 4.69 82.34 4.59 82.33 4.49 82.34 4.38 82.34 4.27 82.36 4.04 82.4 3.8 82.46 3.55 82.52 3.3 82.61 3.04 82.71 2.78 82.82 2.52 82.95 2.27 83.08 2.03 83.23 1.8 83.38 1.59 83.53 1.39 83.69 1.22 83.84 1.06 83.92 .99 84.01 .92 84.09 .99 84.17 1.06 84.33 1.22 84.48 1.39 84.64 1.59 84.78 1.8 84.93 2.03 85.06 2.27 85.19 2.52 85.31 2.78 85.41 3.04 85.49 3.3 85.56 3.55 85.61 3.8 85.65 4.04 85.67 4.26 85.68 4.38 85.68 4.48 85.68 4.59 85.68 4.69 85.67 4.79 85.65 4.88 85.64 4.97 85.61 5.06 85.59 5.14 85.56 5.22 85.53 5.29 85.49 5.36 85.45 5.42 85.41 5.48 85.36 5.53 85.31 5.58 85.25 5.62 85.19 5.66"/>
      </g>
      <g>
        <polygon class="cls-1" points="107.66 56.54 110.03 55.31 109.65 58.06 108.28 57.85 107.66 56.54"/>
        <polygon class="cls-2" points="109.84 56.68 109.86 56.54 109.87 56.41 109.87 56.27 109.86 56.14 109.85 56.02 109.83 55.9 109.81 55.79 109.77 55.68 109.67 55.68 109.56 55.69 109.45 55.71 109.33 55.74 109.21 55.77 109.09 55.82 108.97 55.87 108.85 55.93 108.73 55.99 108.62 56.06 108.51 56.14 108.41 56.22 108.32 56.3 108.24 56.38 108.17 56.47 108.1 56.55 108.05 56.64 108 56.73 107.97 56.81 107.96 56.85 107.95 56.89 107.94 56.93 107.93 56.97 107.93 57.01 107.93 57.05 107.94 57.09 107.95 57.13 107.96 57.16 107.97 57.2 107.99 57.23 108.01 57.26 108.03 57.29 108.06 57.32 108.09 57.34 108.12 57.36 108.15 57.38 108.19 57.4 108.22 57.42 108.26 57.43 108.35 57.46 108.44 57.47 108.54 57.48 108.57 57.57 108.62 57.66 108.66 57.74 108.69 57.77 108.71 57.81 108.74 57.83 108.77 57.86 108.8 57.88 108.83 57.91 108.86 57.92 108.9 57.94 108.93 57.95 108.97 57.95 109 57.96 109.04 57.96 109.07 57.95 109.11 57.95 109.14 57.94 109.18 57.92 109.21 57.91 109.25 57.89 109.28 57.86 109.32 57.84 109.38 57.78 109.45 57.71 109.51 57.63 109.57 57.53 109.62 57.43 109.67 57.33 109.72 57.21 109.76 57.09 109.79 56.96 109.82 56.82 109.84 56.68"/>
      </g>
      <g>
        <polygon class="cls-1" points="162.83 63.32 162.45 66.07 164.3 68.06 168.12 64.13 162.83 63.32"/>
        <polygon class="cls-2" points="163.38 67.06 163.33 67.01 163.29 66.95 163.26 66.89 163.23 66.82 163.2 66.75 163.19 66.68 163.17 66.6 163.17 66.52 163.16 66.44 163.17 66.35 163.17 66.26 163.19 66.17 163.2 66.08 163.23 65.98 163.25 65.89 163.28 65.79 163.2 65.72 163.13 65.66 163.05 65.6 162.99 65.53 162.93 65.47 162.87 65.4 162.82 65.33 162.78 65.26 162.74 65.19 162.7 65.12 162.68 65.05 162.66 64.98 162.64 64.91 162.64 64.84 162.64 64.77 162.64 64.7 162.65 64.63 162.67 64.56 162.7 64.49 162.73 64.43 162.77 64.37 162.82 64.31 162.87 64.25 162.92 64.19 162.98 64.14 163.05 64.09 163.12 64.04 163.2 64 163.28 63.95 163.37 63.91 163.46 63.88 163.55 63.84 163.65 63.81 163.75 63.78 163.97 63.73 164.19 63.7 164.43 63.68 164.68 63.67 164.94 63.67 165.21 63.69 165.48 63.72 165.75 63.77 166.01 63.83 166.26 63.91 166.49 63.99 166.72 64.08 166.93 64.18 167.12 64.29 167.21 64.35 167.29 64.41 167.26 64.51 167.22 64.61 167.12 64.82 167.01 65.03 166.88 65.25 166.74 65.46 166.58 65.68 166.4 65.89 166.21 66.09 166.01 66.29 165.81 66.47 165.6 66.63 165.39 66.78 165.19 66.91 164.98 67.02 164.78 67.11 164.68 67.15 164.59 67.19 164.49 67.22 164.4 67.25 164.31 67.27 164.22 67.28 164.13 67.29 164.05 67.3 163.96 67.3 163.88 67.3 163.81 67.29 163.74 67.27 163.67 67.25 163.6 67.22 163.54 67.19 163.48 67.15 163.43 67.11 163.38 67.06"/>
      </g>
    </g>
  </g>
</svg>