<?xml version="1.0" encoding="UTF-8"?>
<svg id="Layer_2" data-name="Layer 2" xmlns="http://www.w3.org/2000/svg" viewBox="0 0 160.44 161.77">
  <defs>
    <style>
      .cls-1 {
        fill: none;
      }

      .cls-1, .cls-2 {
        stroke-width: 0px;
      }

      .cls-2 {
        fill: #191919;
        fill-rule: evenodd;
      }
    </style>
  </defs>
  <g id="_ÎÓÈ_1" data-name="—ÎÓÈ_1">
    <g>
      <g>
        <rect class="cls-1" x="38.73" y="5.54" width="2.83" height="2.79" transform="translate(23.68 44.2) rotate(-75.96)"/>
        <path class="cls-2" d="M39.8,8.31c-.75-.19-1.2-.95-1.01-1.71s.95-1.22,1.7-1.04c.75.19,1.2.95,1.01,1.71s-.95,1.22-1.7,1.04Z"/>
      </g>
      <g>
        <rect class="cls-1" x="36.8" y="13.26" width="2.83" height="2.79" transform="translate(14.73 48.18) rotate(-75.96)"/>
        <path class="cls-2" d="M37.87,16.03c-.75-.19-1.2-.95-1.01-1.71.19-.76.95-1.22,1.7-1.04.75.19,1.2.95,1.01,1.71-.19.76-.95,1.22-1.7,1.04Z"/>
      </g>
      <g>
        <rect class="cls-1" x="34.87" y="20.99" width="2.83" height="2.79" transform="translate(5.76 52.16) rotate(-75.96)"/>
        <path class="cls-2" d="M35.94,23.76c-.75-.19-1.2-.95-1.01-1.71s.95-1.22,1.7-1.04c.75.19,1.2.95,1.01,1.71-.19.76-.95,1.22-1.7,1.04Z"/>
      </g>
      <g>
        <rect class="cls-1" x="32.93" y="28.72" width="2.83" height="2.79" transform="translate(-3.2 56.14) rotate(-75.96)"/>
        <path class="cls-2" d="M34.01,31.49c-.75-.19-1.2-.95-1.01-1.71s.95-1.22,1.7-1.04c.75.19,1.2.95,1.01,1.71-.19.76-.95,1.22-1.7,1.04Z"/>
      </g>
      <g>
        <rect class="cls-1" x="31" y="36.45" width="2.83" height="2.79" transform="translate(-12.16 60.12) rotate(-75.96)"/>
        <path class="cls-2" d="M32.08,39.22c-.75-.19-1.2-.95-1.01-1.71.19-.76.95-1.22,1.7-1.04.75.19,1.2.95,1.01,1.71-.19.76-.95,1.22-1.7,1.04Z"/>
      </g>
      <g>
        <rect class="cls-1" x="29.07" y="44.18" width="2.83" height="2.79" transform="translate(-21.12 64.1) rotate(-75.96)"/>
        <path class="cls-2" d="M30.14,46.95c-.75-.19-1.2-.95-1.01-1.71s.95-1.22,1.7-1.04c.75.19,1.2.95,1.01,1.71s-.95,1.22-1.7,1.04Z"/>
      </g>
      <g>
        <rect class="cls-1" x="27.14" y="51.91" width="2.83" height="2.79" transform="translate(-30.08 68.08) rotate(-75.96)"/>
        <path class="cls-2" d="M28.21,54.67c-.75-.19-1.2-.95-1.01-1.71.19-.76.95-1.22,1.7-1.04s1.2.95,1.01,1.71c-.19.76-.95,1.22-1.7,1.04Z"/>
      </g>
      <g>
        <rect class="cls-1" x="25.21" y="59.63" width="2.83" height="2.79" transform="translate(-39.04 72.06) rotate(-75.96)"/>
        <path class="cls-2" d="M26.28,62.4c-.75-.19-1.2-.95-1.01-1.71.19-.76.95-1.22,1.7-1.04.75.19,1.2.95,1.01,1.71-.19.76-.95,1.22-1.7,1.04Z"/>
      </g>
      <g>
        <rect class="cls-1" x="23.27" y="67.36" width="2.83" height="2.79" transform="translate(-48 76.03) rotate(-75.96)"/>
        <path class="cls-2" d="M24.35,70.13c-.75-.19-1.2-.95-1.01-1.71.19-.76.95-1.22,1.7-1.04.75.19,1.2.95,1.01,1.71-.19.76-.95,1.22-1.7,1.04Z"/>
      </g>
      <g>
        <rect class="cls-1" x="21.34" y="75.09" width="2.83" height="2.79" transform="translate(-56.96 80.01) rotate(-75.96)"/>
        <path class="cls-2" d="M22.41,77.86c-.75-.19-1.2-.95-1.01-1.71.19-.76.95-1.22,1.7-1.04s1.2.95,1.01,1.71c-.19.76-.95,1.22-1.7,1.04Z"/>
      </g>
      <g>
        <rect class="cls-1" x="19.41" y="82.82" width="2.83" height="2.79" transform="translate(-65.92 83.99) rotate(-75.96)"/>
        <path class="cls-2" d="M20.48,85.59c-.75-.19-1.2-.95-1.01-1.71s.95-1.22,1.7-1.04c.75.19,1.2.95,1.01,1.71-.19.76-.95,1.22-1.7,1.04Z"/>
      </g>
      <g>
        <rect class="cls-1" x="17.48" y="90.55" width="2.83" height="2.79" transform="translate(-74.88 87.97) rotate(-75.96)"/>
        <path class="cls-2" d="M18.55,93.32c-.75-.19-1.2-.95-1.01-1.71.19-.76.95-1.22,1.7-1.04s1.2.95,1.01,1.71-.95,1.22-1.7,1.04Z"/>
      </g>
      <g>
        <rect class="cls-1" x="15.55" y="98.27" width="2.83" height="2.79" transform="translate(-83.84 91.95) rotate(-75.96)"/>
        <path class="cls-2" d="M16.62,101.04c-.75-.19-1.2-.95-1.01-1.71.19-.76.95-1.22,1.7-1.04.75.19,1.2.95,1.01,1.71-.19.76-.95,1.22-1.7,1.04Z"/>
      </g>
      <g>
        <rect class="cls-1" x="13.61" y="106" width="2.83" height="2.79" transform="translate(-92.81 95.93) rotate(-75.96)"/>
        <path class="cls-2" d="M14.69,108.77c-.75-.19-1.2-.95-1.01-1.71.19-.76.95-1.22,1.7-1.04.75.19,1.2.95,1.01,1.71-.19.76-.95,1.22-1.7,1.04Z"/>
      </g>
      <g>
        <rect class="cls-1" x="11.68" y="113.73" width="2.83" height="2.79" transform="translate(-101.77 99.91) rotate(-75.96)"/>
        <path class="cls-2" d="M12.75,116.5c-.75-.19-1.2-.95-1.01-1.71.19-.76.95-1.22,1.7-1.04s1.2.95,1.01,1.71-.95,1.22-1.7,1.04Z"/>
      </g>
      <g>
        <rect class="cls-1" x="9.75" y="121.46" width="2.83" height="2.79" transform="translate(-110.73 103.89) rotate(-75.96)"/>
        <path class="cls-2" d="M10.82,124.23c-.75-.19-1.2-.95-1.01-1.71s.95-1.22,1.7-1.04c.75.19,1.2.95,1.01,1.71-.19.76-.95,1.22-1.7,1.04Z"/>
      </g>
      <g>
        <rect class="cls-1" x="7.82" y="129.19" width="2.83" height="2.79" transform="translate(-119.69 107.87) rotate(-75.96)"/>
        <path class="cls-2" d="M8.89,131.96c-.75-.19-1.2-.95-1.01-1.71.19-.76.95-1.22,1.7-1.04.75.19,1.2.95,1.01,1.71s-.95,1.22-1.7,1.04Z"/>
      </g>
      <g>
        <rect class="cls-1" x="5.89" y="136.92" width="2.83" height="2.79" transform="translate(-128.65 111.85) rotate(-75.96)"/>
        <path class="cls-2" d="M6.96,139.68c-.75-.19-1.2-.95-1.01-1.71s.95-1.22,1.7-1.04c.75.19,1.2.95,1.01,1.71-.19.76-.95,1.22-1.7,1.04Z"/>
      </g>
      <g>
        <rect class="cls-1" x="3.95" y="144.64" width="2.83" height="2.79" transform="translate(-137.61 115.83) rotate(-75.96)"/>
        <path class="cls-2" d="M5.03,147.41c-.75-.19-1.2-.95-1.01-1.71.19-.76.95-1.22,1.7-1.04.75.19,1.2.95,1.01,1.71s-.95,1.22-1.7,1.04Z"/>
      </g>
      <g>
        <rect class="cls-1" x="2.02" y="152.37" width="2.83" height="2.79" transform="translate(-146.57 119.81) rotate(-75.96)"/>
        <path class="cls-2" d="M3.09,155.14c-.75-.19-1.2-.95-1.01-1.71.19-.76.95-1.22,1.7-1.04.75.19,1.2.95,1.01,1.71s-.95,1.22-1.7,1.04Z"/>
      </g>
      <g>
        <rect class="cls-1" x="7.18" y="158.98" width="2.83" height="2.79"/>
        <path class="cls-2" d="M10.01,160.37c0,.77-.63,1.39-1.42,1.39s-1.42-.62-1.42-1.39.63-1.39,1.42-1.39,1.42.62,1.42,1.39Z"/>
      </g>
      <g>
        <rect class="cls-1" x="15.14" y="158.98" width="2.83" height="2.79"/>
        <path class="cls-2" d="M17.97,160.37c0,.77-.63,1.39-1.42,1.39s-1.42-.62-1.42-1.39.63-1.39,1.42-1.39,1.42.62,1.42,1.39Z"/>
      </g>
      <g>
        <rect class="cls-1" x="23.1" y="158.98" width="2.83" height="2.79"/>
        <path class="cls-2" d="M25.93,160.37c0,.77-.63,1.39-1.42,1.39s-1.42-.62-1.42-1.39.63-1.39,1.42-1.39,1.42.62,1.42,1.39Z"/>
      </g>
      <g>
        <rect class="cls-1" x="31.06" y="158.98" width="2.83" height="2.79"/>
        <path class="cls-2" d="M33.89,160.37c0,.77-.63,1.39-1.42,1.39s-1.42-.62-1.42-1.39.63-1.39,1.42-1.39,1.42.62,1.42,1.39Z"/>
      </g>
      <g>
        <rect class="cls-1" x="39.02" y="158.98" width="2.83" height="2.79"/>
        <path class="cls-2" d="M41.86,160.37c0,.77-.63,1.39-1.42,1.39s-1.42-.62-1.42-1.39.63-1.39,1.42-1.39,1.42.62,1.42,1.39Z"/>
      </g>
      <g>
        <rect class="cls-1" x="46.99" y="158.98" width="2.83" height="2.79"/>
        <path class="cls-2" d="M49.82,160.37c0,.77-.63,1.39-1.42,1.39s-1.42-.62-1.42-1.39.63-1.39,1.42-1.39,1.42.62,1.42,1.39Z"/>
      </g>
      <g>
        <rect class="cls-1" x="54.95" y="158.98" width="2.83" height="2.79"/>
        <path class="cls-2" d="M57.78,160.37c0,.77-.63,1.39-1.42,1.39s-1.42-.62-1.42-1.39.63-1.39,1.42-1.39,1.42.62,1.42,1.39Z"/>
      </g>
      <g>
        <rect class="cls-1" x="62.91" y="158.98" width="2.83" height="2.79"/>
        <path class="cls-2" d="M65.74,160.37c0,.77-.63,1.39-1.42,1.39s-1.42-.62-1.42-1.39.63-1.39,1.42-1.39,1.42.62,1.42,1.39Z"/>
      </g>
      <g>
        <rect class="cls-1" x="70.87" y="158.98" width="2.83" height="2.79"/>
        <path class="cls-2" d="M73.7,160.37c0,.77-.63,1.39-1.42,1.39s-1.42-.62-1.42-1.39.63-1.39,1.42-1.39,1.42.62,1.42,1.39Z"/>
      </g>
      <g>
        <rect class="cls-1" x="78.83" y="158.98" width="2.83" height="2.79"/>
        <path class="cls-2" d="M81.66,160.37c0,.77-.63,1.39-1.42,1.39s-1.42-.62-1.42-1.39.63-1.39,1.42-1.39,1.42.62,1.42,1.39Z"/>
      </g>
      <g>
        <rect class="cls-1" x="86.79" y="158.98" width="2.83" height="2.79"/>
        <path class="cls-2" d="M89.62,160.37c0,.77-.63,1.39-1.42,1.39s-1.42-.62-1.42-1.39.63-1.39,1.42-1.39,1.42.62,1.42,1.39Z"/>
      </g>
      <g>
        <rect class="cls-1" x="94.75" y="158.98" width="2.83" height="2.79"/>
        <path class="cls-2" d="M97.59,160.37c0,.77-.63,1.39-1.42,1.39s-1.42-.62-1.42-1.39.63-1.39,1.42-1.39,1.42.62,1.42,1.39Z"/>
      </g>
      <g>
        <rect class="cls-1" x="102.72" y="158.98" width="2.83" height="2.79"/>
        <path class="cls-2" d="M105.55,160.37c0,.77-.63,1.39-1.42,1.39s-1.42-.62-1.42-1.39.63-1.39,1.42-1.39,1.42.62,1.42,1.39Z"/>
      </g>
      <g>
        <rect class="cls-1" x="110.68" y="158.98" width="2.83" height="2.79"/>
        <path class="cls-2" d="M113.51,160.37c0,.77-.63,1.39-1.42,1.39s-1.42-.62-1.42-1.39.63-1.39,1.42-1.39,1.42.62,1.42,1.39Z"/>
      </g>
      <g>
        <rect class="cls-1" x="118.64" y="158.98" width="2.83" height="2.79"/>
        <path class="cls-2" d="M121.47,160.37c0,.77-.63,1.39-1.42,1.39s-1.42-.62-1.42-1.39.63-1.39,1.42-1.39,1.42.62,1.42,1.39Z"/>
      </g>
      <g>
        <rect class="cls-1" x="126.6" y="158.98" width="2.83" height="2.79"/>
        <path class="cls-2" d="M129.43,160.37c0,.77-.63,1.39-1.42,1.39s-1.42-.62-1.42-1.39.63-1.39,1.42-1.39,1.42.62,1.42,1.39Z"/>
      </g>
      <g>
        <rect class="cls-1" x="134.56" y="158.98" width="2.83" height="2.79"/>
        <path class="cls-2" d="M137.39,160.37c0,.77-.63,1.39-1.42,1.39s-1.42-.62-1.42-1.39.63-1.39,1.42-1.39,1.42.62,1.42,1.39Z"/>
      </g>
      <g>
        <rect class="cls-1" x="142.52" y="158.98" width="2.83" height="2.79"/>
        <path class="cls-2" d="M145.35,160.37c0,.77-.63,1.39-1.42,1.39s-1.42-.62-1.42-1.39.63-1.39,1.42-1.39,1.42.62,1.42,1.39Z"/>
      </g>
      <g>
        <rect class="cls-1" x="150.48" y="158.98" width="2.83" height="2.79"/>
        <path class="cls-2" d="M153.32,160.37c0,.77-.63,1.39-1.42,1.39s-1.42-.62-1.42-1.39.63-1.39,1.42-1.39,1.42.62,1.42,1.39Z"/>
      </g>
      <g>
        <rect class="cls-1" x="155.72" y="152.38" width="2.79" height="2.82" transform="translate(-31.21 40.35) rotate(-13.32)"/>
        <path class="cls-2" d="M156.79,152.42c.75-.18,1.5.29,1.68,1.05.18.76-.28,1.52-1.03,1.7-.75.18-1.5-.29-1.68-1.05-.18-.76.28-1.52,1.03-1.7Z"/>
      </g>
      <g>
        <rect class="cls-1" x="153.89" y="144.65" width="2.79" height="2.82" transform="translate(-29.48 39.72) rotate(-13.33)"/>
        <path class="cls-2" d="M154.96,144.69c.75-.18,1.5.29,1.68,1.05.18.76-.28,1.52-1.03,1.7-.75.18-1.5-.29-1.68-1.05s.28-1.52,1.03-1.7Z"/>
      </g>
      <g>
        <rect class="cls-1" x="152.06" y="136.92" width="2.79" height="2.82" transform="translate(-27.75 39.09) rotate(-13.32)"/>
        <path class="cls-2" d="M153.13,136.96c.75-.18,1.5.29,1.68,1.05.18.76-.28,1.52-1.03,1.7-.75.18-1.5-.29-1.68-1.05s.28-1.52,1.03-1.7Z"/>
      </g>
      <g>
        <rect class="cls-1" x="150.23" y="129.2" width="2.79" height="2.82" transform="translate(-26.02 38.46) rotate(-13.33)"/>
        <path class="cls-2" d="M151.3,129.23c.75-.18,1.5.29,1.68,1.05s-.28,1.52-1.03,1.7c-.75.18-1.5-.29-1.68-1.05-.18-.76.28-1.52,1.03-1.7Z"/>
      </g>
      <g>
        <rect class="cls-1" x="148.4" y="121.47" width="2.79" height="2.82" transform="translate(-24.28 37.83) rotate(-13.32)"/>
        <path class="cls-2" d="M149.47,121.51c.75-.18,1.5.29,1.68,1.05.18.76-.28,1.52-1.03,1.7-.75.18-1.5-.29-1.68-1.05s.28-1.52,1.03-1.7Z"/>
      </g>
      <g>
        <rect class="cls-1" x="146.57" y="113.74" width="2.79" height="2.82" transform="translate(-22.56 37.2) rotate(-13.33)"/>
        <path class="cls-2" d="M147.64,113.78c.75-.18,1.5.29,1.68,1.05s-.28,1.52-1.03,1.7c-.75.18-1.5-.29-1.68-1.05-.18-.76.28-1.52,1.03-1.7Z"/>
      </g>
      <g>
        <rect class="cls-1" x="144.74" y="106.01" width="2.79" height="2.82" transform="translate(-20.82 36.57) rotate(-13.32)"/>
        <path class="cls-2" d="M145.81,106.05c.75-.18,1.5.29,1.68,1.05s-.28,1.52-1.03,1.7c-.75.18-1.5-.29-1.68-1.05s.28-1.52,1.03-1.7Z"/>
      </g>
      <g>
        <rect class="cls-1" x="142.91" y="98.28" width="2.79" height="2.82" transform="translate(-19.09 35.94) rotate(-13.32)"/>
        <path class="cls-2" d="M143.98,98.32c.75-.18,1.5.29,1.68,1.05.18.76-.28,1.52-1.03,1.7-.75.18-1.5-.29-1.68-1.05-.18-.76.28-1.52,1.03-1.7Z"/>
      </g>
      <g>
        <rect class="cls-1" x="141.08" y="90.56" width="2.79" height="2.82" transform="translate(-17.36 35.31) rotate(-13.33)"/>
        <path class="cls-2" d="M142.15,90.59c.75-.18,1.5.29,1.68,1.05s-.28,1.52-1.03,1.7c-.75.18-1.5-.29-1.68-1.05-.18-.76.28-1.52,1.03-1.7Z"/>
      </g>
      <g>
        <rect class="cls-1" x="139.25" y="82.83" width="2.79" height="2.82" transform="translate(-15.63 34.68) rotate(-13.32)"/>
        <path class="cls-2" d="M140.32,82.87c.75-.18,1.5.29,1.68,1.05.18.76-.28,1.52-1.03,1.7-.75.18-1.5-.29-1.68-1.05-.18-.76.28-1.52,1.03-1.7Z"/>
      </g>
      <g>
        <rect class="cls-1" x="137.42" y="75.1" width="2.79" height="2.82" transform="translate(-13.9 34.05) rotate(-13.33)"/>
        <path class="cls-2" d="M138.49,75.14c.75-.18,1.5.29,1.68,1.05s-.28,1.52-1.03,1.7c-.75.18-1.5-.29-1.68-1.05s.28-1.52,1.03-1.7Z"/>
      </g>
      <g>
        <rect class="cls-1" x="135.59" y="67.37" width="2.79" height="2.82" transform="translate(-12.16 33.42) rotate(-13.32)"/>
        <path class="cls-2" d="M136.66,67.41c.75-.18,1.5.29,1.68,1.05.18.76-.28,1.52-1.03,1.7-.75.18-1.5-.29-1.68-1.05s.28-1.52,1.03-1.7Z"/>
      </g>
      <g>
        <rect class="cls-1" x="133.76" y="59.64" width="2.79" height="2.82" transform="translate(-10.43 32.79) rotate(-13.32)"/>
        <path class="cls-2" d="M134.82,59.68c.75-.18,1.5.29,1.68,1.05s-.28,1.52-1.03,1.7c-.75.18-1.5-.29-1.68-1.05s.28-1.52,1.03-1.7Z"/>
      </g>
      <g>
        <rect class="cls-1" x="131.93" y="51.91" width="2.79" height="2.82" transform="translate(-8.7 32.17) rotate(-13.33)"/>
        <path class="cls-2" d="M132.99,51.95c.75-.18,1.5.29,1.68,1.05.18.76-.28,1.52-1.03,1.7-.75.18-1.5-.29-1.68-1.05-.18-.76.28-1.52,1.03-1.7Z"/>
      </g>
      <g>
        <rect class="cls-1" x="130.1" y="44.19" width="2.79" height="2.82" transform="translate(-6.97 31.53) rotate(-13.33)"/>
        <path class="cls-2" d="M131.16,44.22c.75-.18,1.5.29,1.68,1.05.18.76-.28,1.52-1.03,1.7-.75.18-1.5-.29-1.68-1.05s.28-1.52,1.03-1.7Z"/>
      </g>
      <g>
        <rect class="cls-1" x="128.26" y="36.46" width="2.79" height="2.82" transform="translate(-5.24 30.9) rotate(-13.32)"/>
        <path class="cls-2" d="M129.33,36.5c.75-.18,1.5.29,1.68,1.05.18.76-.28,1.52-1.03,1.7-.75.18-1.5-.29-1.68-1.05s.28-1.52,1.03-1.7Z"/>
      </g>
      <g>
        <rect class="cls-1" x="126.43" y="28.73" width="2.79" height="2.82" transform="translate(-3.51 30.27) rotate(-13.33)"/>
        <path class="cls-2" d="M127.5,28.77c.75-.18,1.5.29,1.68,1.05.18.76-.28,1.52-1.03,1.7s-1.5-.29-1.68-1.05c-.18-.76.28-1.52,1.03-1.7Z"/>
      </g>
      <g>
        <rect class="cls-1" x="124.6" y="21" width="2.79" height="2.82" transform="translate(-1.77 29.64) rotate(-13.32)"/>
        <path class="cls-2" d="M125.67,21.04c.75-.18,1.5.29,1.68,1.05s-.28,1.52-1.03,1.7c-.75.18-1.5-.29-1.68-1.05s.28-1.52,1.03-1.7Z"/>
      </g>
      <g>
        <rect class="cls-1" x="122.77" y="13.27" width="2.79" height="2.82" transform="translate(-.04 29.01) rotate(-13.32)"/>
        <path class="cls-2" d="M123.84,13.31c.75-.18,1.5.29,1.68,1.05s-.28,1.52-1.03,1.7c-.75.18-1.5-.29-1.68-1.05-.18-.76.28-1.52,1.03-1.7Z"/>
      </g>
      <g>
        <rect class="cls-1" x="120.94" y="5.55" width="2.79" height="2.82" transform="translate(1.69 28.38) rotate(-13.32)"/>
        <path class="cls-2" d="M122.01,5.58c.75-.18,1.5.29,1.68,1.05.18.76-.28,1.52-1.03,1.7-.75.18-1.5-.29-1.68-1.05-.18-.76.28-1.52,1.03-1.7Z"/>
      </g>
      <g>
        <rect class="cls-1" x="114.12" y="0" width="2.7" height="2.79"/>
        <path class="cls-2" d="M114.12,1.39C114.12.62,114.73,0,115.47,0s1.35.62,1.35,1.39-.61,1.39-1.35,1.39-1.35-.62-1.35-1.39Z"/>
      </g>
      <g>
        <rect class="cls-1" x="106.52" y="0" width="2.7" height="2.79"/>
        <path class="cls-2" d="M106.52,1.39C106.52.62,107.12,0,107.87,0s1.35.62,1.35,1.39-.61,1.39-1.35,1.39-1.35-.62-1.35-1.39Z"/>
      </g>
      <g>
        <rect class="cls-1" x="98.92" y="0" width="2.7" height="2.79"/>
        <path class="cls-2" d="M98.92,1.39C98.92.62,99.52,0,100.27,0s1.35.62,1.35,1.39-.61,1.39-1.35,1.39-1.35-.62-1.35-1.39Z"/>
      </g>
      <g>
        <rect class="cls-1" x="91.32" y="0" width="2.7" height="2.79"/>
        <path class="cls-2" d="M91.32,1.39C91.32.62,91.92,0,92.67,0s1.35.62,1.35,1.39-.61,1.39-1.35,1.39-1.35-.62-1.35-1.39Z"/>
      </g>
      <g>
        <rect class="cls-1" x="83.71" y="0" width="2.7" height="2.79"/>
        <path class="cls-2" d="M83.71,1.39C83.71.62,84.32,0,85.07,0s1.35.62,1.35,1.39-.61,1.39-1.35,1.39-1.35-.62-1.35-1.39Z"/>
      </g>
      <g>
        <rect class="cls-1" x="76.11" y="0" width="2.7" height="2.79"/>
        <path class="cls-2" d="M76.11,1.39C76.11.62,76.72,0,77.46,0s1.35.62,1.35,1.39-.61,1.39-1.35,1.39-1.35-.62-1.35-1.39Z"/>
      </g>
      <g>
        <rect class="cls-1" x="68.51" y="0" width="2.7" height="2.79"/>
        <path class="cls-2" d="M68.51,1.39C68.51.62,69.11,0,69.86,0s1.35.62,1.35,1.39-.61,1.39-1.35,1.39-1.35-.62-1.35-1.39Z"/>
      </g>
      <g>
        <rect class="cls-1" x="60.91" y="0" width="2.7" height="2.79"/>
        <path class="cls-2" d="M60.91,1.39C60.91.62,61.51,0,62.26,0s1.35.62,1.35,1.39-.61,1.39-1.35,1.39-1.35-.62-1.35-1.39Z"/>
      </g>
      <g>
        <rect class="cls-1" x="53.31" y="0" width="2.7" height="2.79"/>
        <path class="cls-2" d="M53.31,1.39C53.31.62,53.91,0,54.66,0s1.35.62,1.35,1.39-.61,1.39-1.35,1.39-1.35-.62-1.35-1.39Z"/>
      </g>
      <g>
        <rect class="cls-1" x="45.7" y="0" width="2.7" height="2.79"/>
        <path class="cls-2" d="M45.7,1.39C45.7.62,46.31,0,47.06,0s1.35.62,1.35,1.39-.61,1.39-1.35,1.39-1.35-.62-1.35-1.39Z"/>
      </g>
      <g>
        <polygon class="cls-1" points=".87 158.3 3.57 158.98 3.57 161.77 0 161.77 .87 158.3"/>
        <polygon class="cls-2" points="3.57 160.37 3.57 160.3 3.56 160.23 3.55 160.16 3.54 160.09 3.52 160.03 3.49 159.96 3.46 159.89 3.43 159.83 3.4 159.77 3.36 159.71 3.31 159.65 3.27 159.59 3.22 159.54 3.16 159.49 3.11 159.44 3.05 159.39 3.02 159.32 2.98 159.25 2.94 159.19 2.9 159.13 2.86 159.07 2.81 159.01 2.76 158.96 2.71 158.91 2.66 158.86 2.6 158.82 2.54 158.78 2.48 158.74 2.42 158.71 2.36 158.68 2.29 158.66 2.22 158.64 2.15 158.63 2.08 158.62 2.01 158.61 1.94 158.61 1.87 158.61 1.8 158.62 1.73 158.63 1.66 158.65 1.59 158.67 1.52 158.69 1.45 158.72 1.39 158.75 1.32 158.78 1.26 158.82 1.2 158.86 1.14 158.91 1.08 158.96 1.02 159.01 .96 159.07 .91 159.12 .85 159.19 .8 159.25 .75 159.32 .71 159.39 .66 159.46 .62 159.54 .58 159.61 .55 159.69 .51 159.78 .48 159.86 .46 159.95 .43 160.04 .41 160.12 .4 160.21 .38 160.3 .37 160.39 .37 160.48 .37 160.57 .37 160.65 .37 160.74 .38 160.82 .39 160.9 .4 160.98 .42 161.06 .44 161.14 .47 161.21 .49 161.29 .52 161.36 .59 161.41 .65 161.45 .72 161.49 .79 161.53 .86 161.57 .93 161.6 1.01 161.63 1.09 161.66 1.17 161.68 1.25 161.71 1.34 161.72 1.43 161.74 1.51 161.75 1.6 161.76 1.69 161.77 1.79 161.77 1.88 161.77 1.97 161.76 2.06 161.75 2.15 161.74 2.23 161.72 2.32 161.71 2.4 161.68 2.48 161.66 2.56 161.63 2.64 161.6 2.71 161.57 2.78 161.53 2.85 161.49 2.92 161.45 2.99 161.41 3.05 161.36 3.11 161.31 3.16 161.26 3.22 161.21 3.27 161.15 3.31 161.1 3.36 161.04 3.4 160.98 3.43 160.92 3.46 160.85 3.49 160.79 3.52 160.72 3.54 160.65 3.55 160.59 3.56 160.52 3.57 160.45 3.57 160.37"/>
      </g>
      <g>
        <polygon class="cls-1" points="156.91 161.77 156.91 158.98 159.62 158.34 160.44 161.77 156.91 161.77"/>
        <polygon class="cls-2" points="158.27 158.66 158.2 158.68 158.13 158.7 158.06 158.73 158 158.76 157.94 158.79 157.88 158.83 157.82 158.87 157.77 158.92 157.72 158.97 157.67 159.02 157.62 159.07 157.58 159.13 157.54 159.19 157.5 159.25 157.46 159.32 157.43 159.39 157.37 159.44 157.31 159.49 157.26 159.54 157.21 159.59 157.17 159.65 157.12 159.71 157.08 159.77 157.05 159.83 157.02 159.89 156.99 159.96 156.97 160.03 156.95 160.09 156.93 160.16 156.92 160.23 156.91 160.3 156.91 160.37 156.91 160.45 156.92 160.52 156.93 160.59 156.95 160.65 156.97 160.72 156.99 160.79 157.02 160.85 157.05 160.92 157.08 160.98 157.12 161.04 157.17 161.1 157.21 161.15 157.26 161.21 157.31 161.26 157.37 161.31 157.43 161.36 157.49 161.41 157.55 161.45 157.62 161.49 157.69 161.53 157.76 161.57 157.83 161.6 157.91 161.63 157.99 161.66 158.07 161.68 158.15 161.71 158.23 161.72 158.32 161.74 158.4 161.75 158.49 161.76 158.58 161.77 158.67 161.77 158.76 161.77 158.85 161.76 158.94 161.75 159.03 161.74 159.11 161.72 159.2 161.71 159.28 161.68 159.36 161.66 159.44 161.63 159.51 161.6 159.59 161.57 159.66 161.53 159.73 161.49 159.8 161.45 159.86 161.41 159.92 161.36 159.95 161.29 159.98 161.22 160 161.14 160.03 161.07 160.04 160.99 160.06 160.91 160.07 160.83 160.08 160.75 160.09 160.66 160.09 160.58 160.09 160.49 160.08 160.4 160.08 160.32 160.06 160.23 160.05 160.14 160.03 160.05 160.01 159.96 159.98 159.88 159.95 159.79 159.92 159.71 159.89 159.63 159.85 159.56 159.81 159.48 159.77 159.41 159.72 159.34 159.67 159.27 159.62 159.21 159.57 159.15 159.52 159.09 159.46 159.03 159.4 158.98 159.35 158.93 159.28 158.89 159.22 158.85 159.16 158.81 159.09 158.77 159.03 158.74 158.96 158.71 158.9 158.69 158.83 158.67 158.76 158.65 158.69 158.64 158.62 158.63 158.55 158.63 158.48 158.63 158.41 158.63 158.34 158.64 158.27 158.66"/>
      </g>
      <g>
        <polygon class="cls-1" points="122.63 2.15 119.92 2.79 119.92 0 122.12 0 122.63 2.15"/>
        <polygon class="cls-2" points="119.92 1.39 119.92 1.47 119.92 1.54 119.93 1.61 119.94 1.68 119.95 1.74 119.97 1.81 119.98 1.87 120 1.94 120.03 2 120.05 2.06 120.08 2.12 120.11 2.17 120.14 2.23 120.17 2.28 120.2 2.33 120.24 2.38 120.3 2.41 120.35 2.43 120.41 2.45 120.47 2.46 120.53 2.48 120.6 2.49 120.66 2.5 120.73 2.51 120.79 2.51 120.86 2.52 120.93 2.51 121 2.51 121.06 2.5 121.13 2.5 121.2 2.48 121.27 2.47 121.34 2.45 121.41 2.43 121.48 2.41 121.54 2.38 121.61 2.35 121.67 2.32 121.73 2.29 121.78 2.26 121.84 2.22 121.89 2.19 121.94 2.15 121.99 2.1 122.04 2.06 122.08 2.02 122.12 1.97 122.16 1.93 122.2 1.88 122.23 1.83 122.26 1.78 122.29 1.73 122.31 1.68 122.33 1.62 122.35 1.57 122.37 1.52 122.38 1.46 122.39 1.41 122.4 1.35 122.4 1.3 122.4 1.24 122.4 1.18 122.39 1.13 122.38 1.07 122.36 1.02 122.34 .97 122.32 .91 122.3 .86 122.27 .82 122.24 .77 122.21 .72 122.17 .68 122.13 .64 122.09 .6 122.05 .56 122 .53 121.96 .49 121.91 .46 121.85 .44 121.8 .41 121.76 .36 121.72 .32 121.68 .28 121.64 .24 121.59 .2 121.55 .17 121.5 .14 121.45 .11 121.4 .08 121.35 .06 121.3 .04 121.24 .03 121.19 .02 121.13 0 121.08 0 121.02 0 120.96 0 120.91 0 120.85 .02 120.8 .03 120.74 .04 120.69 .06 120.64 .08 120.59 .11 120.54 .14 120.49 .17 120.45 .2 120.4 .24 120.36 .28 120.32 .32 120.28 .36 120.24 .41 120.2 .46 120.17 .51 120.14 .56 120.11 .61 120.08 .67 120.05 .73 120.03 .79 120 .85 119.98 .92 119.97 .98 119.95 1.05 119.94 1.11 119.93 1.18 119.92 1.25 119.92 1.32 119.92 1.39"/>
      </g>
      <g>
        <polygon class="cls-1" points="42.62 0 42.62 2.79 39.91 2.11 40.44 0 42.62 0"/>
        <polygon class="cls-2" points="41.27 2.45 41.34 2.47 41.41 2.48 41.48 2.49 41.54 2.5 41.61 2.5 41.68 2.5 41.75 2.5 41.81 2.5 41.88 2.49 41.94 2.48 42.01 2.47 42.07 2.46 42.13 2.44 42.19 2.42 42.24 2.4 42.3 2.38 42.34 2.33 42.37 2.28 42.4 2.23 42.43 2.17 42.46 2.12 42.49 2.06 42.51 2 42.53 1.94 42.55 1.87 42.57 1.81 42.59 1.74 42.6 1.68 42.61 1.61 42.61 1.54 42.62 1.47 42.62 1.39 42.62 1.32 42.61 1.25 42.61 1.18 42.6 1.11 42.59 1.05 42.57 .98 42.55 .92 42.53 .85 42.51 .79 42.49 .73 42.46 .67 42.43 .61 42.4 .56 42.37 .51 42.34 .46 42.3 .41 42.26 .36 42.22 .32 42.18 .28 42.14 .24 42.1 .2 42.05 .17 42 .14 41.95 .11 41.91 .08 41.85 .06 41.8 .04 41.75 .03 41.7 .02 41.64 0 41.59 0 41.53 0 41.47 0 41.42 0 41.37 .02 41.31 .03 41.26 .04 41.21 .06 41.16 .08 41.11 .11 41.06 .14 41.01 .17 40.97 .2 40.92 .24 40.88 .28 40.84 .32 40.8 .36 40.76 .41 40.71 .43 40.65 .46 40.6 .49 40.56 .52 40.51 .56 40.47 .59 40.43 .63 40.39 .67 40.35 .71 40.32 .76 40.29 .8 40.26 .85 40.23 .9 40.21 .95 40.19 1 40.18 1.06 40.17 1.11 40.16 1.17 40.15 1.22 40.15 1.28 40.15 1.33 40.16 1.39 40.17 1.44 40.18 1.49 40.2 1.55 40.22 1.6 40.24 1.65 40.26 1.7 40.29 1.76 40.32 1.81 40.35 1.85 40.39 1.9 40.43 1.95 40.47 1.99 40.51 2.04 40.56 2.08 40.6 2.12 40.65 2.16 40.71 2.2 40.76 2.24 40.82 2.27 40.88 2.3 40.94 2.33 41 2.36 41.06 2.39 41.13 2.41 41.2 2.43 41.27 2.45"/>
      </g>
    </g>
  </g>
</svg>