<?xml version="1.0" encoding="UTF-8"?>
<svg id="Layer_2" data-name="Layer 2" xmlns="http://www.w3.org/2000/svg" viewBox="0 0 164.22 142.22">
  <defs>
    <style>
      .cls-1 {
        fill: none;
      }

      .cls-1, .cls-2, .cls-3 {
        stroke-width: 0px;
      }

      .cls-2 {
        fill-rule: evenodd;
      }

      .cls-2, .cls-3 {
        fill: #191919;
      }
    </style>
  </defs>
  <g id="_ÎÓÈ_1" data-name="—ÎÓÈ_1">
    <g>
      <g>
        <rect class="cls-1" x="8.14" y="126.42" width="4.64" height="4.64" transform="translate(-106.26 73.43) rotate(-60)"/>
        <path class="cls-2" d="M11.62,126.74c1.11.64,1.49,2.06.85,3.17-.64,1.11-2.06,1.49-3.17.85-1.11-.64-1.49-2.06-.85-3.17.64-1.11,2.06-1.49,3.17-.85Z"/>
      </g>
      <g>
        <rect class="cls-1" x="14.66" y="115.13" width="4.64" height="4.64" transform="translate(-93.22 73.43) rotate(-60)"/>
        <path class="cls-2" d="M18.14,115.44c1.11.64,1.49,2.06.85,3.17-.64,1.11-2.06,1.49-3.17.85-1.11-.64-1.49-2.06-.85-3.17.64-1.11,2.06-1.49,3.17-.85Z"/>
      </g>
      <g>
        <rect class="cls-1" x="21.18" y="103.83" width="4.64" height="4.64" transform="translate(-80.18 73.43) rotate(-60)"/>
        <path class="cls-2" d="M24.66,104.15c1.11.64,1.49,2.06.85,3.17s-2.06,1.49-3.17.85c-1.11-.64-1.49-2.06-.85-3.17.64-1.11,2.06-1.49,3.17-.85Z"/>
      </g>
      <g>
        <rect class="cls-1" x="27.71" y="92.54" width="4.64" height="4.64" transform="translate(-67.14 73.43) rotate(-60)"/>
        <path class="cls-2" d="M31.18,92.85c1.11.64,1.49,2.06.85,3.17-.64,1.11-2.06,1.49-3.17.85-1.11-.64-1.49-2.06-.85-3.17.64-1.11,2.06-1.49,3.17-.85Z"/>
      </g>
      <g>
        <rect class="cls-1" x="34.23" y="81.25" width="4.64" height="4.64" transform="translate(-54.1 73.43) rotate(-60)"/>
        <path class="cls-2" d="M37.7,81.56c1.11.64,1.49,2.06.85,3.17-.64,1.11-2.06,1.49-3.17.85-1.11-.64-1.49-2.06-.85-3.17.64-1.11,2.06-1.49,3.17-.85Z"/>
      </g>
      <g>
        <rect class="cls-1" x="40.75" y="69.95" width="4.64" height="4.64" transform="translate(-41.06 73.43) rotate(-60)"/>
        <path class="cls-2" d="M44.23,70.26c1.11.64,1.49,2.06.85,3.17s-2.06,1.49-3.17.85c-1.11-.64-1.49-2.06-.85-3.17.64-1.11,2.06-1.49,3.17-.85Z"/>
      </g>
      <g>
        <rect class="cls-1" x="47.27" y="58.66" width="4.64" height="4.64" transform="translate(-28.01 73.43) rotate(-60)"/>
        <path class="cls-2" d="M50.75,58.97c1.11.64,1.49,2.06.85,3.17s-2.06,1.49-3.17.85c-1.11-.64-1.49-2.06-.85-3.17.64-1.11,2.06-1.49,3.17-.85Z"/>
      </g>
      <g>
        <rect class="cls-1" x="53.79" y="47.36" width="4.64" height="4.64" transform="translate(-14.97 73.43) rotate(-60)"/>
        <path class="cls-2" d="M57.27,47.67c1.11.64,1.49,2.06.85,3.17-.64,1.11-2.06,1.49-3.17.85-1.11-.64-1.49-2.06-.85-3.17.64-1.11,2.06-1.49,3.17-.85Z"/>
      </g>
      <g>
        <rect class="cls-1" x="60.31" y="36.07" width="4.64" height="4.64" transform="translate(-1.93 73.43) rotate(-60)"/>
        <path class="cls-2" d="M63.79,36.38c1.11.64,1.49,2.06.85,3.17s-2.06,1.49-3.17.85c-1.11-.64-1.49-2.06-.85-3.17s2.06-1.49,3.17-.85Z"/>
      </g>
      <g>
        <rect class="cls-1" x="66.83" y="24.77" width="4.64" height="4.64" transform="translate(11.11 73.43) rotate(-60)"/>
        <path class="cls-2" d="M70.31,25.09c1.11.64,1.49,2.06.85,3.17-.64,1.11-2.06,1.49-3.17.85-1.11-.64-1.49-2.06-.85-3.17.64-1.11,2.06-1.49,3.17-.85Z"/>
      </g>
      <g>
        <rect class="cls-1" x="73.35" y="13.48" width="4.64" height="4.64" transform="translate(24.15 73.43) rotate(-60)"/>
        <path class="cls-2" d="M76.83,13.79c1.11.64,1.49,2.06.85,3.17-.64,1.11-2.06,1.49-3.17.85-1.11-.64-1.49-2.06-.85-3.17.64-1.11,2.06-1.49,3.17-.85Z"/>
      </g>
      <g>
        <rect class="cls-1" x="86.23" y="13.48" width="4.64" height="4.64" transform="translate(3.96 46.39) rotate(-30)"/>
        <path class="cls-2" d="M89.71,17.81c-1.11.64-2.53.26-3.17-.85-.64-1.11-.26-2.53.85-3.17,1.11-.64,2.53-.26,3.17.85s.26,2.53-.85,3.17Z"/>
      </g>
      <g>
        <rect class="cls-1" x="92.75" y="24.78" width="4.64" height="4.64" transform="translate(-.81 51.17) rotate(-30)"/>
        <path class="cls-2" d="M96.24,29.1c-1.11.64-2.53.26-3.17-.85-.64-1.11-.26-2.53.85-3.17,1.11-.64,2.53-.26,3.17.85.64,1.11.26,2.53-.85,3.17Z"/>
      </g>
      <g>
        <rect class="cls-1" x="99.28" y="36.07" width="4.64" height="4.64" transform="translate(-5.58 55.94) rotate(-30)"/>
        <path class="cls-2" d="M102.76,40.4c-1.11.64-2.53.26-3.17-.85s-.26-2.53.85-3.17c1.11-.64,2.53-.26,3.17.85s.26,2.53-.85,3.17Z"/>
      </g>
      <g>
        <rect class="cls-1" x="105.8" y="47.36" width="4.64" height="4.64" transform="translate(-10.36 60.72) rotate(-30)"/>
        <path class="cls-2" d="M109.28,51.69c-1.11.64-2.53.26-3.17-.85-.64-1.11-.26-2.53.85-3.17,1.11-.64,2.53-.26,3.17.85s.26,2.53-.85,3.17Z"/>
      </g>
      <g>
        <rect class="cls-1" x="112.32" y="58.66" width="4.64" height="4.64" transform="translate(-15.13 65.49) rotate(-30)"/>
        <path class="cls-2" d="M115.8,62.99c-1.11.64-2.53.26-3.17-.85s-.26-2.53.85-3.17c1.11-.64,2.53-.26,3.17.85.64,1.11.26,2.53-.85,3.17Z"/>
      </g>
      <g>
        <rect class="cls-1" x="118.84" y="69.95" width="4.64" height="4.64" transform="translate(-19.9 70.26) rotate(-30)"/>
        <path class="cls-2" d="M122.32,74.28c-1.11.64-2.53.26-3.17-.85s-.26-2.53.85-3.17c1.11-.64,2.53-.26,3.17.85.64,1.11.26,2.53-.85,3.17Z"/>
      </g>
      <g>
        <rect class="cls-1" x="125.36" y="81.25" width="4.64" height="4.64" transform="translate(-24.68 75.04) rotate(-30)"/>
        <path class="cls-2" d="M128.84,85.57c-1.11.64-2.53.26-3.17-.85s-.26-2.53.85-3.17c1.11-.64,2.53-.26,3.17.85.64,1.11.26,2.53-.85,3.17Z"/>
      </g>
      <g>
        <rect class="cls-1" x="131.88" y="92.54" width="4.64" height="4.64" transform="translate(-29.45 79.81) rotate(-30)"/>
        <path class="cls-2" d="M135.36,96.87c-1.11.64-2.53.26-3.17-.85-.64-1.11-.26-2.53.85-3.17,1.11-.64,2.53-.26,3.17.85.64,1.11.26,2.53-.85,3.17Z"/>
      </g>
      <g>
        <rect class="cls-1" x="138.4" y="103.84" width="4.64" height="4.64" transform="translate(-34.22 84.58) rotate(-30)"/>
        <path class="cls-2" d="M141.88,108.16c-1.11.64-2.53.26-3.17-.85s-.26-2.53.85-3.17c1.11-.64,2.53-.26,3.17.85.64,1.11.26,2.53-.85,3.17Z"/>
      </g>
      <g>
        <rect class="cls-1" x="144.92" y="115.13" width="4.64" height="4.64" transform="translate(-39 89.36) rotate(-30)"/>
        <path class="cls-2" d="M148.4,119.46c-1.11.64-2.53.26-3.17-.85s-.26-2.53.85-3.17c1.11-.64,2.53-.26,3.17.85.64,1.11.26,2.53-.85,3.17Z"/>
      </g>
      <g>
        <rect class="cls-1" x="151.44" y="126.42" width="4.64" height="4.64" transform="translate(-43.77 94.13) rotate(-30)"/>
        <path class="cls-2" d="M154.92,130.75c-1.11.64-2.53.26-3.17-.85-.64-1.11-.26-2.53.85-3.17,1.11-.64,2.53-.26,3.17.85.64,1.11.26,2.53-.85,3.17Z"/>
      </g>
      <g>
        <rect class="cls-1" x="145" y="137.58" width="4.64" height="4.64"/>
        <circle class="cls-3" cx="147.32" cy="139.9" r="2.32"/>
      </g>
      <g>
        <rect class="cls-1" x="131.96" y="137.58" width="4.64" height="4.64"/>
        <circle class="cls-3" cx="134.28" cy="139.9" r="2.32"/>
      </g>
      <g>
        <rect class="cls-1" x="118.92" y="137.58" width="4.64" height="4.64"/>
        <circle class="cls-3" cx="121.24" cy="139.9" r="2.32"/>
      </g>
      <g>
        <rect class="cls-1" x="105.88" y="137.58" width="4.64" height="4.64"/>
        <circle class="cls-3" cx="108.2" cy="139.9" r="2.32"/>
      </g>
      <g>
        <rect class="cls-1" x="92.83" y="137.58" width="4.64" height="4.64"/>
        <circle class="cls-3" cx="95.15" cy="139.9" r="2.32"/>
      </g>
      <g>
        <rect class="cls-1" x="79.79" y="137.58" width="4.64" height="4.64"/>
        <circle class="cls-3" cx="82.11" cy="139.9" r="2.32"/>
      </g>
      <g>
        <rect class="cls-1" x="66.75" y="137.58" width="4.64" height="4.64"/>
        <circle class="cls-3" cx="69.07" cy="139.9" r="2.32"/>
      </g>
      <g>
        <rect class="cls-1" x="53.71" y="137.58" width="4.64" height="4.64"/>
        <path class="cls-2" d="M53.71,139.9c0-1.28,1.04-2.32,2.32-2.32s2.32,1.04,2.32,2.32-1.04,2.32-2.32,2.32-2.32-1.04-2.32-2.32Z"/>
      </g>
      <g>
        <rect class="cls-1" x="40.67" y="137.58" width="4.64" height="4.64"/>
        <circle class="cls-3" cx="42.99" cy="139.9" r="2.32"/>
      </g>
      <g>
        <rect class="cls-1" x="27.63" y="137.58" width="4.64" height="4.64"/>
        <circle class="cls-3" cx="29.95" cy="139.9" r="2.32"/>
      </g>
      <g>
        <rect class="cls-1" x="14.59" y="137.58" width="4.64" height="4.64"/>
        <circle class="cls-3" cx="16.9" cy="139.9" r="2.32"/>
      </g>
      <g>
        <polygon class="cls-1" points="78.09 6.96 82.11 9.28 86.13 6.96 82.11 0 78.09 6.96"/>
        <polygon class="cls-2" points="84.12 8.12 84.07 8.15 84.02 8.18 83.96 8.2 83.91 8.22 83.85 8.24 83.79 8.26 83.74 8.27 83.68 8.29 83.62 8.3 83.56 8.3 83.5 8.31 83.43 8.31 83.37 8.31 83.31 8.31 83.25 8.31 83.18 8.3 83.12 8.29 83.05 8.28 82.99 8.27 82.92 8.26 82.79 8.22 82.66 8.18 82.52 8.13 82.38 8.07 82.25 8 82.11 7.92 81.98 8 81.84 8.07 81.7 8.13 81.57 8.18 81.44 8.22 81.3 8.26 81.24 8.27 81.17 8.28 81.11 8.29 81.04 8.3 80.98 8.31 80.92 8.31 80.85 8.31 80.79 8.31 80.73 8.31 80.67 8.3 80.61 8.3 80.55 8.29 80.49 8.27 80.43 8.26 80.37 8.24 80.32 8.22 80.26 8.2 80.21 8.18 80.16 8.15 80.1 8.12 80.05 8.09 80 8.06 79.95 8.02 79.91 7.99 79.86 7.95 79.82 7.91 79.78 7.86 79.74 7.82 79.7 7.77 79.66 7.72 79.63 7.67 79.6 7.62 79.56 7.57 79.53 7.51 79.51 7.46 79.48 7.4 79.45 7.34 79.43 7.28 79.41 7.21 79.39 7.15 79.35 7.02 79.32 6.88 79.3 6.74 79.28 6.59 79.27 6.44 79.27 6.28 79.27 6.12 79.28 5.96 79.3 5.79 79.32 5.63 79.35 5.45 79.39 5.28 79.43 5.1 79.48 4.93 79.53 4.75 79.6 4.57 79.66 4.39 79.74 4.21 79.82 4.02 79.91 3.84 80 3.66 80.1 3.48 80.21 3.3 80.32 3.13 80.43 2.96 80.55 2.8 80.67 2.65 80.79 2.5 80.92 2.35 81.04 2.22 81.17 2.09 81.3 1.96 81.44 1.84 81.57 1.73 81.7 1.63 81.84 1.53 81.98 1.44 82.11 1.36 82.25 1.44 82.38 1.53 82.52 1.63 82.66 1.73 82.79 1.84 82.92 1.96 83.05 2.09 83.18 2.22 83.31 2.35 83.43 2.5 83.56 2.65 83.68 2.8 83.79 2.96 83.91 3.13 84.02 3.3 84.12 3.48 84.22 3.66 84.32 3.84 84.41 4.02 84.49 4.21 84.56 4.39 84.63 4.57 84.69 4.75 84.75 4.93 84.8 5.1 84.84 5.28 84.87 5.45 84.9 5.63 84.93 5.79 84.94 5.96 84.95 6.12 84.95 6.28 84.95 6.44 84.94 6.59 84.93 6.74 84.9 6.88 84.87 7.02 84.84 7.15 84.82 7.21 84.8 7.28 84.77 7.34 84.75 7.4 84.72 7.46 84.69 7.51 84.66 7.57 84.63 7.62 84.6 7.67 84.56 7.72 84.52 7.77 84.49 7.82 84.45 7.86 84.41 7.91 84.36 7.95 84.32 7.99 84.27 8.02 84.22 8.06 84.17 8.09 84.12 8.12"/>
      </g>
      <g>
        <polygon class="cls-1" points="160.21 135.26 156.19 137.58 156.19 142.22 164.22 142.22 160.21 135.26"/>
        <polygon class="cls-2" points="156.19 139.9 156.19 139.84 156.19 139.78 156.2 139.72 156.21 139.66 156.22 139.61 156.23 139.55 156.25 139.49 156.27 139.43 156.29 139.38 156.31 139.32 156.34 139.27 156.37 139.21 156.4 139.16 156.43 139.1 156.46 139.05 156.5 139 156.54 138.95 156.58 138.9 156.63 138.85 156.67 138.8 156.77 138.7 156.87 138.6 156.98 138.51 157.1 138.43 157.23 138.34 157.36 138.26 157.37 138.11 157.38 137.95 157.39 137.81 157.41 137.66 157.44 137.53 157.48 137.39 157.5 137.33 157.52 137.27 157.55 137.21 157.57 137.15 157.6 137.09 157.63 137.03 157.66 136.98 157.69 136.92 157.72 136.87 157.76 136.82 157.79 136.77 157.83 136.73 157.87 136.68 157.91 136.64 157.96 136.6 158 136.56 158.05 136.52 158.09 136.49 158.14 136.45 158.2 136.42 158.25 136.39 158.3 136.37 158.36 136.34 158.41 136.32 158.47 136.3 158.52 136.28 158.58 136.27 158.64 136.26 158.7 136.25 158.76 136.24 158.82 136.24 158.88 136.23 158.95 136.23 159.01 136.23 159.07 136.24 159.14 136.24 159.2 136.25 159.26 136.26 159.33 136.27 159.4 136.29 159.53 136.32 159.66 136.37 159.8 136.42 159.93 136.48 160.07 136.55 160.21 136.62 160.34 136.7 160.48 136.79 160.61 136.89 160.75 136.99 160.88 137.1 161.01 137.22 161.15 137.35 161.27 137.48 161.4 137.62 161.53 137.76 161.65 137.91 161.77 138.06 161.89 138.23 162 138.39 162.11 138.56 162.21 138.74 162.32 138.92 162.41 139.1 162.5 139.29 162.58 139.47 162.65 139.65 162.72 139.83 162.78 140.01 162.84 140.19 162.89 140.37 162.93 140.54 162.97 140.71 163 140.89 163.02 141.05 163.03 141.22 163.04 141.38 163.05 141.54 162.91 141.62 162.76 141.69 162.61 141.76 162.45 141.83 162.29 141.89 162.12 141.94 161.95 141.99 161.77 142.04 161.59 142.08 161.4 142.12 161.21 142.15 161.02 142.18 160.82 142.2 160.62 142.21 160.41 142.22 160.21 142.22 160 142.22 159.79 142.21 159.59 142.2 159.39 142.18 159.2 142.15 159.01 142.12 158.82 142.08 158.64 142.04 158.46 141.99 158.29 141.94 158.12 141.89 157.96 141.83 157.8 141.76 157.65 141.69 157.5 141.62 157.36 141.54 157.23 141.46 157.1 141.38 156.98 141.29 156.87 141.2 156.77 141.11 156.67 141.01 156.63 140.96 156.58 140.91 156.54 140.86 156.5 140.81 156.46 140.75 156.43 140.7 156.4 140.65 156.37 140.59 156.34 140.54 156.31 140.48 156.29 140.43 156.27 140.37 156.25 140.31 156.23 140.26 156.22 140.2 156.21 140.14 156.2 140.08 156.19 140.02 156.19 139.96 156.19 139.9"/>
      </g>
      <g>
        <polygon class="cls-1" points="8.04 142.22 8.04 137.58 4.02 135.26 0 142.22 8.04 142.22"/>
        <polygon class="cls-2" points="6.03 136.42 6.08 136.45 6.13 136.49 6.18 136.52 6.22 136.56 6.27 136.6 6.31 136.64 6.35 136.68 6.39 136.73 6.43 136.77 6.47 136.82 6.5 136.87 6.54 136.92 6.57 136.98 6.6 137.03 6.63 137.09 6.65 137.15 6.68 137.21 6.7 137.27 6.72 137.33 6.74 137.39 6.78 137.53 6.81 137.66 6.83 137.81 6.85 137.95 6.86 138.11 6.86 138.26 6.99 138.34 7.12 138.43 7.24 138.51 7.35 138.6 7.46 138.7 7.55 138.8 7.6 138.85 7.64 138.9 7.68 138.95 7.72 139 7.76 139.05 7.8 139.1 7.83 139.16 7.86 139.21 7.89 139.27 7.91 139.32 7.94 139.38 7.96 139.43 7.98 139.49 7.99 139.55 8.01 139.61 8.02 139.66 8.03 139.72 8.03 139.78 8.04 139.84 8.04 139.9 8.04 139.96 8.03 140.02 8.03 140.08 8.02 140.14 8.01 140.2 7.99 140.26 7.98 140.31 7.96 140.37 7.94 140.43 7.91 140.48 7.89 140.54 7.86 140.59 7.83 140.65 7.8 140.7 7.76 140.75 7.72 140.81 7.68 140.86 7.64 140.91 7.6 140.96 7.55 141.01 7.46 141.11 7.35 141.2 7.24 141.29 7.12 141.38 6.99 141.46 6.86 141.54 6.72 141.62 6.58 141.69 6.42 141.76 6.27 141.83 6.1 141.89 5.94 141.94 5.76 141.99 5.58 142.04 5.4 142.08 5.21 142.12 5.02 142.15 4.83 142.18 4.63 142.2 4.43 142.21 4.23 142.22 4.02 142.22 3.81 142.22 3.61 142.21 3.41 142.2 3.21 142.18 3.02 142.15 2.82 142.12 2.64 142.08 2.46 142.04 2.28 141.99 2.1 141.94 1.94 141.89 1.77 141.83 1.61 141.76 1.46 141.69 1.32 141.62 1.18 141.54 1.18 141.38 1.19 141.22 1.21 141.06 1.23 140.89 1.26 140.71 1.29 140.54 1.34 140.37 1.39 140.19 1.44 140.01 1.5 139.83 1.57 139.65 1.65 139.47 1.73 139.29 1.81 139.1 1.91 138.92 2.01 138.74 2.12 138.56 2.23 138.39 2.34 138.22 2.46 138.06 2.58 137.91 2.7 137.76 2.82 137.62 2.95 137.48 3.08 137.35 3.21 137.22 3.34 137.1 3.48 136.99 3.61 136.89 3.75 136.79 3.88 136.7 4.02 136.62 4.16 136.55 4.29 136.48 4.43 136.42 4.56 136.37 4.7 136.32 4.83 136.29 4.89 136.27 4.96 136.26 5.02 136.25 5.09 136.24 5.15 136.24 5.22 136.23 5.28 136.23 5.34 136.23 5.4 136.24 5.46 136.24 5.52 136.25 5.58 136.26 5.64 136.27 5.7 136.28 5.76 136.3 5.81 136.32 5.87 136.34 5.92 136.37 5.98 136.39 6.03 136.42"/>
      </g>
    </g>
  </g>
</svg>