<?xml version="1.0" encoding="UTF-8"?>
<svg id="Layer_2" data-name="Layer 2" xmlns="http://www.w3.org/2000/svg" viewBox="0 0 71.69 106.53">
  <defs>
    <style>
      .cls-1 {
        fill: #3c3c3b;
        stroke-width: 0px;
      }
    </style>
  </defs>
  <g id="V">
    <path class="cls-1" d="M.12,2.13C-.2,1.22.12.53,1.1.07c.86-.23,1.46.12,1.79,1.03.43,1.03.1,1.66-.97,1.89-.87.46-1.46.17-1.79-.86ZM2.07,8.15c-.22-1.03.11-1.72.97-2.06.33-.11.67-.09,1.06.09.38.17.62.49.73.95.21.46.21.86,0,1.2-.22.34-.49.58-.81.69-.97.34-1.62.06-1.95-.86ZM4.02,13.83c-.32-1.03-.06-1.72.81-2.06.97-.23,1.62.11,1.95,1.03.21,1.03-.11,1.66-.97,1.89-.97.46-1.57.17-1.79-.86ZM5.64,18.82c-.22-.46-.22-.86,0-1.2.22-.34.49-.57.81-.69.87-.34,1.51-.06,1.95.86.22,1.03-.11,1.72-.97,2.06-.32.12-.68.09-1.05-.09-.38-.17-.62-.49-.73-.95ZM7.27,23.81c-.33-.92-.06-1.61.81-2.06.86-.34,1.51,0,1.95,1.03.22.92-.11,1.55-.97,1.89-.43.23-.81.23-1.14,0-.32-.23-.54-.52-.65-.86ZM8.89,28.97c-.22-1.03.11-1.72.97-2.06.33-.11.67-.09,1.06.09.38.17.62.49.73.95.21.46.21.86,0,1.2-.22.34-.49.58-.81.69-.87.34-1.52.06-1.95-.86ZM11,35.34c-.32-.92,0-1.61.97-2.06.76-.46,1.35-.11,1.79,1.03.43.8.11,1.44-.98,1.89-.76.34-1.35.06-1.79-.86ZM12.95,41.01c-.32-1.03-.06-1.72.81-2.06.97-.23,1.62.11,1.95,1.03.1.34.08.72-.08,1.12-.16.4-.46.66-.89.77-.44.23-.81.23-1.14,0-.33-.23-.54-.52-.65-.86ZM14.9,47.04c-.32-.92-.06-1.61.81-2.06.86-.34,1.51,0,1.95,1.03.21.92-.11,1.55-.97,1.89-.44.23-.81.23-1.14,0-.32-.23-.54-.52-.65-.86ZM16.68,52.71c-.22-1.03.11-1.72.97-2.06.32-.11.67-.09,1.05.09.38.17.62.49.73.95.21.34.21.72,0,1.12-.22.4-.49.66-.81.77-.87.34-1.52.06-1.95-.86ZM18.31,57.7c-.22-1.03.11-1.72.97-2.06.97-.23,1.57.12,1.79,1.03.43,1.03.16,1.66-.81,1.89-.97.34-1.62.06-1.95-.86ZM19.93,62.52c-.11-.34-.08-.72.08-1.12.16-.4.46-.66.89-.77.32-.23.67-.23,1.05,0,.38.23.62.52.73.86.33.92.05,1.61-.81,2.06-.97.23-1.62-.11-1.95-1.03ZM21.72,67.68c-.32-.8-.06-1.43.81-1.89.86-.34,1.51,0,1.95,1.03.21.92-.11,1.55-.97,1.89-.97.46-1.57.12-1.79-1.03ZM23.34,73.01c-.22-1.03.11-1.72.97-2.06.97-.23,1.57.11,1.79,1.03.22.34.22.72,0,1.12-.22.4-.49.66-.81.77-.87.34-1.52.06-1.95-.86ZM25.29,78.69c-.32-.92-.06-1.61.81-2.06.97-.23,1.62.12,1.95,1.03.22,1.03-.11,1.66-.97,1.89-.43.23-.81.23-1.14,0-.33-.23-.54-.52-.65-.86ZM27.24,84.71c-.32-.92-.06-1.61.81-2.06.97-.23,1.62.12,1.95,1.03.43,1.03.11,1.66-.97,1.89-.76.34-1.35.06-1.79-.86ZM29.02,90.39c-.22-1.03.11-1.72.97-2.06.97-.23,1.57.12,1.79,1.03.43,1.03.16,1.66-.81,1.89-.87.34-1.52.06-1.95-.86ZM30.81,95.38c-.43-1.03-.16-1.66.81-1.89.97-.34,1.62-.06,1.95.86.22,1.03-.11,1.72-.97,2.06-.97.23-1.57-.11-1.79-1.03ZM32.27,100.2c-.22-.92.11-1.55.97-1.89.43-.23.81-.23,1.14,0,.32.23.54.52.65.86.33,1.03.05,1.72-.81,2.06-.87.34-1.52,0-1.95-1.03ZM34.06,105.53c-.32-.92,0-1.61.97-2.06.76-.46,1.35-.11,1.79,1.03.43.8.11,1.44-.97,1.89-.76.34-1.36.06-1.79-.86ZM37.63,105.53c-.43.92-1.03,1.2-1.79.86-1.08-.46-1.41-1.09-.97-1.89.43-1.15,1.03-1.49,1.79-1.03.97.46,1.3,1.15.97,2.06ZM39.41,100.2c-.43,1.03-1.08,1.38-1.95,1.03-.87-.34-1.13-1.03-.81-2.06.11-.34.32-.63.65-.86.32-.23.7-.23,1.14,0,.86.34,1.19.98.97,1.89ZM40.88,95.38c-.22.92-.81,1.26-1.79,1.03-.87-.34-1.19-1.03-.97-2.06.32-.92.97-1.2,1.95-.86.97.23,1.24.86.81,1.89ZM42.66,90.39c-.43.92-1.08,1.2-1.95.86-.97-.23-1.25-.86-.81-1.89.22-.92.81-1.26,1.79-1.03.86.34,1.19,1.03.97,2.06ZM44.45,84.71c-.43.92-1.03,1.2-1.79.86-1.08-.23-1.41-.86-.97-1.89.32-.92.97-1.26,1.95-1.03.86.46,1.14,1.15.81,2.06ZM46.4,78.69c-.11.34-.32.63-.65.86-.32.23-.7.23-1.14,0-.87-.23-1.19-.86-.97-1.89.32-.92.97-1.26,1.95-1.03.86.46,1.14,1.15.81,2.06ZM48.34,73.01c-.43.92-1.08,1.2-1.95.86-.32-.11-.6-.37-.81-.77-.22-.4-.22-.77,0-1.12.21-.92.81-1.26,1.79-1.03.86.34,1.19,1.03.97,2.06ZM49.97,67.68c-.22,1.15-.81,1.49-1.79,1.03-.87-.34-1.19-.97-.97-1.89.43-1.03,1.08-1.38,1.95-1.03.87.46,1.14,1.09.81,1.89ZM51.75,62.52c-.32.92-.97,1.26-1.95,1.03-.87-.46-1.14-1.15-.81-2.06.1-.34.35-.63.73-.86.38-.23.73-.23,1.05,0,.43.12.73.37.89.77.16.4.19.77.08,1.12ZM53.38,57.7c-.32.92-.97,1.2-1.95.86-.97-.23-1.25-.86-.81-1.89.22-.92.81-1.26,1.79-1.03.86.34,1.19,1.03.97,2.06ZM55,52.71c-.44.92-1.08,1.2-1.95.86-.33-.11-.6-.37-.81-.77-.22-.4-.22-.77,0-1.12.11-.46.35-.77.73-.95.38-.17.73-.2,1.06-.09.86.34,1.19,1.03.97,2.06ZM56.79,47.04c-.11.34-.32.63-.65.86-.32.23-.7.23-1.14,0-.87-.34-1.19-.97-.97-1.89.43-1.03,1.08-1.38,1.95-1.03.86.46,1.14,1.15.81,2.06ZM58.74,41.01c-.11.34-.32.63-.65.86-.32.23-.7.23-1.13,0-.44-.11-.73-.37-.89-.77-.16-.4-.19-.77-.08-1.12.32-.92.97-1.26,1.95-1.03.86.34,1.14,1.03.81,2.06ZM60.69,35.34c-.43.92-1.03,1.2-1.79.86-1.08-.46-1.41-1.09-.97-1.89.43-1.15,1.03-1.49,1.79-1.03.97.46,1.3,1.15.97,2.06ZM62.8,28.97c-.43.92-1.08,1.2-1.95.86-.33-.11-.6-.34-.81-.69-.22-.34-.22-.75,0-1.2.11-.46.35-.77.73-.95.38-.17.73-.2,1.06-.09.86.34,1.19,1.03.97,2.06ZM64.42,23.81c-.11.34-.32.63-.65.86-.33.23-.71.23-1.14,0-.87-.34-1.19-.97-.97-1.89.43-1.03,1.08-1.38,1.95-1.03.86.46,1.14,1.15.81,2.06ZM66.04,18.82c-.11.46-.35.77-.73.95-.38.17-.73.2-1.05.09-.87-.34-1.19-1.03-.97-2.06.43-.92,1.08-1.2,1.95-.86.32.11.59.34.81.69.22.34.22.75,0,1.2ZM67.67,13.83c-.22,1.03-.81,1.32-1.79.86-.87-.23-1.19-.86-.97-1.89.33-.92.97-1.26,1.95-1.03.87.34,1.14,1.03.81,2.06ZM69.62,8.15c-.33.92-.97,1.2-1.95.86-.33-.11-.6-.34-.81-.69s-.22-.75,0-1.2c.11-.46.35-.77.73-.95.38-.17.73-.2,1.06-.09.86.34,1.19,1.03.97,2.06ZM71.56,2.13c-.43,1.03-1.03,1.32-1.79.86-1.08-.23-1.41-.86-.97-1.89.33-.92.92-1.26,1.79-1.03.97.46,1.3,1.15.97,2.06Z"/>
  </g>
</svg>