<?xml version="1.0" encoding="UTF-8"?>
<svg id="Layer_2" data-name="Layer 2" xmlns="http://www.w3.org/2000/svg" viewBox="0 0 63.14 107.5">
  <defs>
    <style>
      .cls-1 {
        fill: #3c3c3b;
        stroke-width: 0px;
      }
    </style>
  </defs>
  <g id="N">
    <path class="cls-1" d="M0,105.92c0-1.06.5-1.59,1.5-1.59s1.5.53,1.5,1.59-.5,1.59-1.5,1.59-1.5-.53-1.5-1.59ZM.17,1.59C.17.53.67,0,1.67,0s1.5.53,1.5,1.59-.5,1.59-1.5,1.59S.17,2.65.17,1.59ZM.17,7.24c0-1.06.5-1.59,1.5-1.59s1.5.53,1.5,1.59-.5,1.59-1.5,1.59-1.5-.53-1.5-1.59ZM.17,12.53c0-1.06.5-1.59,1.5-1.59s1.5.53,1.5,1.59-.5,1.59-1.5,1.59-1.5-.53-1.5-1.59ZM.17,18.01c0-1.06.5-1.59,1.5-1.59s1.5.53,1.5,1.59-.5,1.59-1.5,1.59-1.5-.53-1.5-1.59ZM.17,24.18c0-1.06.5-1.59,1.5-1.59s1.5.53,1.5,1.59-.5,1.59-1.5,1.59-1.5-.53-1.5-1.59ZM.17,30.72c0-1.06.5-1.59,1.5-1.59s1.5.53,1.5,1.59-.5,1.59-1.5,1.59-1.5-.53-1.5-1.59ZM.17,36.89c0-1.06.5-1.59,1.5-1.59s1.5.53,1.5,1.59-.5,1.59-1.5,1.59-1.5-.53-1.5-1.59ZM.17,42.54c0-1.06.5-1.59,1.5-1.59s1.5.53,1.5,1.59-.5,1.59-1.5,1.59-1.5-.53-1.5-1.59ZM.17,48.19c0-1.06.5-1.59,1.5-1.59s1.5.53,1.5,1.59-.5,1.59-1.5,1.59-1.5-.53-1.5-1.59ZM.17,53.49c0-1.06.5-1.59,1.5-1.59s1.5.53,1.5,1.59-.5,1.59-1.5,1.59-1.5-.53-1.5-1.59ZM.17,58.96c0-1.06.5-1.59,1.5-1.59s1.5.53,1.5,1.59-.5,1.59-1.5,1.59-1.5-.53-1.5-1.59ZM.17,65.14c0-1.06.5-1.59,1.5-1.59s1.5.53,1.5,1.59-.5,1.59-1.5,1.59-1.5-.53-1.5-1.59ZM.17,71.32c0-1.06.5-1.59,1.5-1.59s1.5.53,1.5,1.59-.5,1.59-1.5,1.59-1.5-.53-1.5-1.59ZM.17,77.5c0-1.06.5-1.59,1.5-1.59s1.5.53,1.5,1.59-.5,1.59-1.5,1.59-1.5-.53-1.5-1.59ZM.17,84.38c0-1.06.5-1.59,1.5-1.59s1.5.53,1.5,1.59-.5,1.59-1.5,1.59-1.5-.53-1.5-1.59ZM.17,90.03c0-1.06.5-1.59,1.5-1.59s1.5.53,1.5,1.59-.5,1.59-1.5,1.59-1.5-.53-1.5-1.59ZM.17,95.32c0-1.06.5-1.59,1.5-1.59s1.5.53,1.5,1.59-.5,1.59-1.5,1.59-1.5-.53-1.5-1.59ZM.17,100.8c0-1.06.5-1.59,1.5-1.59s1.5.53,1.5,1.59-.5,1.59-1.5,1.59-1.5-.53-1.5-1.59ZM4.17,6.18c-.44-.94-.22-1.7.67-2.29.22-.23.55-.29,1-.18.44.12.77.42,1,.88.22.35.28.74.16,1.15-.11.41-.33.74-.66.97-.44.24-.86.33-1.25.27-.39-.06-.69-.32-.92-.8ZM6.83,10.94c-.67-.94-.5-1.65.5-2.12.89-.47,1.61-.23,2.16.71.44.94.22,1.71-.66,2.29-.89.47-1.56.18-2-.88ZM9.16,15.71c-.22-.35-.22-.73,0-1.15.22-.41.44-.73.67-.97.77-.35,1.5-.18,2.16.53.22.94-.06,1.71-.83,2.29-.89.47-1.56.24-2-.71ZM11.66,20.65c-.33-1.06-.11-1.82.67-2.29.33-.23.69-.29,1.08-.18.39.12.69.41.92.88.67.71.5,1.35-.5,1.94-.33.24-.72.3-1.17.18-.44-.11-.78-.29-1-.53ZM14.66,25.77c-.44-.82-.22-1.53.67-2.12.33-.23.69-.26,1.08-.09.39.18.64.44.75.79.44.71.33,1.41-.33,2.12-.78.47-1.5.24-2.17-.71ZM17.83,31.6c-.44-.94-.28-1.65.5-2.12.89-.59,1.55-.47,2,.35.44.83.33,1.59-.33,2.29-1,.35-1.72.18-2.17-.53ZM20.49,36.72c-.22-.23-.28-.56-.17-.97.11-.41.39-.73.83-.97.22-.23.55-.29,1-.18.44.12.78.3,1,.53.44.94.28,1.71-.5,2.29-.89.47-1.61.24-2.16-.71ZM23.16,41.84c-.56-.94-.33-1.65.67-2.12.89-.47,1.61-.29,2.17.53.22,1.06-.06,1.77-.83,2.12-.89.47-1.56.3-2-.53ZM25.99,46.96c-.44-1.06-.28-1.82.5-2.29.89-.47,1.55-.29,2,.53.22.35.28.74.17,1.15-.11.41-.33.74-.66.97-.67.47-1.33.35-2-.35ZM28.15,51.37c-.44-.94-.17-1.7.83-2.29,1-.47,1.61-.23,1.83.71.33,1.06.17,1.77-.5,2.12-.89.59-1.61.41-2.17-.53ZM30.99,55.96c-.33-.35-.44-.71-.33-1.06.11-.35.33-.59.67-.71.89-.59,1.61-.47,2.17.35.33,1.06.11,1.83-.67,2.29-.22.24-.53.3-.92.18-.39-.11-.69-.47-.91-1.06ZM33.82,61.43c-.44-.71-.33-1.41.33-2.12.89-.59,1.61-.41,2.16.53.33.94.17,1.71-.5,2.29-1,.47-1.66.24-2-.71ZM36.65,66.73c-.22-.35-.28-.73-.17-1.15.11-.41.39-.73.83-.97.89-.71,1.61-.47,2.17.71.22.35.25.74.08,1.15-.17.41-.53.74-1.08.97-.33.24-.69.3-1.08.18-.39-.11-.64-.41-.75-.88ZM39.48,72.2c-.44-.94-.28-1.65.5-2.12.89-.59,1.55-.35,2,.71.67.94.55,1.65-.33,2.12-1,.35-1.72.12-2.17-.71ZM42.82,78.38c-.56-.94-.44-1.7.33-2.29.89-.35,1.61-.18,2.16.53.44.94.28,1.65-.5,2.12-.89.59-1.56.47-2-.35ZM45.48,83.14c-.33-.94-.17-1.7.5-2.29.89-.47,1.55-.18,2,.88.55.83.39,1.47-.5,1.94-1,.59-1.67.41-2-.53ZM47.65,87.73c-.22-.35-.28-.73-.17-1.15.11-.41.39-.73.83-.97.78-.47,1.39-.29,1.83.53.77.83.66,1.59-.33,2.29-1,.35-1.72.12-2.16-.71ZM50.31,92.5c-.22-.35-.25-.73-.08-1.15.17-.41.36-.73.58-.97.78-.47,1.5-.35,2.17.35.33.94.11,1.71-.66,2.29-.89.47-1.56.3-2-.53ZM53.65,97.8c-.44-.82-.28-1.53.5-2.12.33-.23.69-.26,1.08-.09.39.18.69.44.92.79.55.94.44,1.65-.33,2.12-.89.35-1.61.12-2.17-.71ZM56.48,101.5c0-1.06.5-1.59,1.5-1.59s1.5.53,1.5,1.59-.5,1.59-1.5,1.59-1.5-.53-1.5-1.59ZM59.98,105.92c0-1.06.5-1.59,1.5-1.59s1.5.53,1.5,1.59-.5,1.59-1.5,1.59-1.5-.53-1.5-1.59ZM60.14,1.59c0-1.06.5-1.59,1.5-1.59s1.5.53,1.5,1.59-.5,1.59-1.5,1.59-1.5-.53-1.5-1.59ZM60.14,7.24c0-1.06.5-1.59,1.5-1.59s1.5.53,1.5,1.59-.5,1.59-1.5,1.59-1.5-.53-1.5-1.59ZM60.14,12.53c0-1.06.5-1.59,1.5-1.59s1.5.53,1.5,1.59-.5,1.59-1.5,1.59-1.5-.53-1.5-1.59ZM60.14,18.01c0-1.06.5-1.59,1.5-1.59s1.5.53,1.5,1.59-.5,1.59-1.5,1.59-1.5-.53-1.5-1.59ZM60.14,24.18c0-1.06.5-1.59,1.5-1.59s1.5.53,1.5,1.59-.5,1.59-1.5,1.59-1.5-.53-1.5-1.59ZM60.14,30.72c0-1.06.5-1.59,1.5-1.59s1.5.53,1.5,1.59-.5,1.59-1.5,1.59-1.5-.53-1.5-1.59ZM60.14,36.89c0-1.06.5-1.59,1.5-1.59s1.5.53,1.5,1.59-.5,1.59-1.5,1.59-1.5-.53-1.5-1.59ZM60.14,42.54c0-1.06.5-1.59,1.5-1.59s1.5.53,1.5,1.59-.5,1.59-1.5,1.59-1.5-.53-1.5-1.59ZM60.14,48.19c0-1.06.5-1.59,1.5-1.59s1.5.53,1.5,1.59-.5,1.59-1.5,1.59-1.5-.53-1.5-1.59ZM60.14,53.49c0-1.06.5-1.59,1.5-1.59s1.5.53,1.5,1.59-.5,1.59-1.5,1.59-1.5-.53-1.5-1.59ZM60.14,58.96c0-1.06.5-1.59,1.5-1.59s1.5.53,1.5,1.59-.5,1.59-1.5,1.59-1.5-.53-1.5-1.59ZM60.14,65.14c0-1.06.5-1.59,1.5-1.59s1.5.53,1.5,1.59-.5,1.59-1.5,1.59-1.5-.53-1.5-1.59ZM60.14,71.32c0-1.06.5-1.59,1.5-1.59s1.5.53,1.5,1.59-.5,1.59-1.5,1.59-1.5-.53-1.5-1.59ZM60.14,77.5c0-1.06.5-1.59,1.5-1.59s1.5.53,1.5,1.59-.5,1.59-1.5,1.59-1.5-.53-1.5-1.59ZM60.14,84.38c0-1.06.5-1.59,1.5-1.59s1.5.53,1.5,1.59-.5,1.59-1.5,1.59-1.5-.53-1.5-1.59ZM60.14,90.03c0-1.06.5-1.59,1.5-1.59s1.5.53,1.5,1.59-.5,1.59-1.5,1.59-1.5-.53-1.5-1.59ZM60.14,95.32c0-1.06.5-1.59,1.5-1.59s1.5.53,1.5,1.59-.5,1.59-1.5,1.59-1.5-.53-1.5-1.59ZM60.14,100.8c0-1.06.5-1.59,1.5-1.59s1.5.53,1.5,1.59-.5,1.59-1.5,1.59-1.5-.53-1.5-1.59Z"/>
  </g>
</svg>