<?xml version="1.0" encoding="UTF-8"?>
<svg id="Layer_2" data-name="Layer 2" xmlns="http://www.w3.org/2000/svg" viewBox="0 0 61.93 109.19">
  <defs>
    <style>
      .cls-1 {
        fill: #3c3c3b;
        stroke-width: 0px;
      }
    </style>
  </defs>
  <g id="H">
    <path class="cls-1" d="M0,107.58c0-1.08.51-1.61,1.52-1.61s1.53.54,1.53,1.61-.51,1.61-1.53,1.61-1.52-.54-1.52-1.61ZM.17,1.61C.17.54.68,0,1.69,0s1.52.54,1.52,1.61-.51,1.61-1.52,1.61S.17,2.69.17,1.61ZM.17,7.35c0-1.08.51-1.61,1.52-1.61s1.52.54,1.52,1.61-.51,1.61-1.52,1.61-1.52-.54-1.52-1.61ZM.17,12.73c0-1.08.51-1.61,1.52-1.61s1.52.54,1.52,1.61-.51,1.61-1.52,1.61-1.52-.54-1.52-1.61ZM.17,18.29c0-1.08.51-1.61,1.52-1.61s1.52.54,1.52,1.61-.51,1.61-1.52,1.61-1.52-.54-1.52-1.61ZM.17,24.56c0-1.08.51-1.61,1.52-1.61s1.52.54,1.52,1.61-.51,1.61-1.52,1.61-1.52-.54-1.52-1.61ZM.17,31.2c0-1.08.51-1.61,1.52-1.61s1.52.54,1.52,1.61-.51,1.61-1.52,1.61-1.52-.54-1.52-1.61ZM.17,37.47c0-1.08.51-1.61,1.52-1.61s1.52.54,1.52,1.61-.51,1.61-1.52,1.61-1.52-.54-1.52-1.61ZM.17,43.21c0-1.08.51-1.61,1.52-1.61s1.52.54,1.52,1.61-.51,1.61-1.52,1.61-1.52-.54-1.52-1.61ZM.17,48.95c0-1.08.51-1.61,1.52-1.61s1.52.54,1.52,1.61-.51,1.61-1.52,1.61-1.52-.54-1.52-1.61ZM.17,54.33c0-1.08.51-1.61,1.52-1.61s1.52.54,1.52,1.61-.51,1.61-1.52,1.61-1.52-.54-1.52-1.61ZM.17,59.88c0-1.08.51-1.61,1.52-1.61s1.52.54,1.52,1.61-.51,1.61-1.52,1.61-1.52-.54-1.52-1.61ZM.17,66.16c0-1.08.51-1.61,1.52-1.61s1.52.54,1.52,1.61-.51,1.61-1.52,1.61-1.52-.54-1.52-1.61ZM.17,72.43c0-1.08.51-1.61,1.52-1.61s1.52.54,1.52,1.61-.51,1.61-1.52,1.61-1.52-.54-1.52-1.61ZM.17,78.71c0-1.08.51-1.61,1.52-1.61s1.52.54,1.52,1.61-.51,1.61-1.52,1.61-1.52-.54-1.52-1.61ZM.17,85.7c0-1.08.51-1.61,1.52-1.61s1.52.54,1.52,1.61-.51,1.61-1.52,1.61-1.52-.54-1.52-1.61ZM.17,91.44c0-1.08.51-1.61,1.52-1.61s1.52.54,1.52,1.61-.51,1.61-1.52,1.61-1.52-.54-1.52-1.61ZM.17,96.82c0-1.08.51-1.61,1.52-1.61s1.52.54,1.52,1.61-.51,1.61-1.52,1.61-1.52-.54-1.52-1.61ZM.17,102.38c0-1.08.51-1.61,1.52-1.61s1.52.54,1.52,1.61-.51,1.61-1.52,1.61-1.52-.54-1.52-1.61ZM6.09,52.53c-1.02,0-1.52-.54-1.52-1.61s.51-1.61,1.52-1.61,1.52.54,1.52,1.61-.51,1.61-1.52,1.61ZM11.34,52.53c-1.02,0-1.52-.54-1.52-1.61s.51-1.61,1.52-1.61,1.52.54,1.52,1.61-.51,1.61-1.52,1.61ZM17.26,52.53c-1.02,0-1.52-.54-1.52-1.61s.51-1.61,1.52-1.61,1.52.54,1.52,1.61-.51,1.61-1.52,1.61ZM23.18,52.53c-1.02,0-1.52-.54-1.52-1.61s.51-1.61,1.52-1.61,1.52.54,1.52,1.61-.51,1.61-1.52,1.61ZM29.11,52.53c-1.02,0-1.52-.54-1.52-1.61s.51-1.61,1.52-1.61,1.52.54,1.52,1.61-.51,1.61-1.52,1.61ZM35.7,52.53c-1.02,0-1.52-.54-1.52-1.61s.51-1.61,1.52-1.61,1.52.54,1.52,1.61-.51,1.61-1.52,1.61ZM41.12,52.53c-1.02,0-1.52-.54-1.52-1.61s.51-1.61,1.52-1.61,1.52.54,1.52,1.61-.51,1.61-1.52,1.61ZM46.19,52.53c-1.02,0-1.52-.54-1.52-1.61s.51-1.61,1.52-1.61,1.52.54,1.52,1.61-.51,1.61-1.52,1.61ZM51.44,52.53c-1.02,0-1.52-.54-1.52-1.61s.51-1.61,1.52-1.61,1.52.54,1.52,1.61-.51,1.61-1.52,1.61ZM56.35,52.71c-1.02,0-1.52-.54-1.52-1.61s.51-1.61,1.52-1.61,1.52.54,1.52,1.61-.51,1.61-1.52,1.61ZM58.72,107.58c0-1.08.51-1.61,1.52-1.61s1.52.54,1.52,1.61-.51,1.61-1.52,1.61-1.52-.54-1.52-1.61ZM58.88,1.61c0-1.08.51-1.61,1.52-1.61s1.53.54,1.53,1.61-.51,1.61-1.53,1.61-1.52-.54-1.52-1.61ZM58.88,7.35c0-1.08.51-1.61,1.52-1.61s1.53.54,1.53,1.61-.51,1.61-1.53,1.61-1.52-.54-1.52-1.61ZM58.88,12.73c0-1.08.51-1.61,1.52-1.61s1.53.54,1.53,1.61-.51,1.61-1.53,1.61-1.52-.54-1.52-1.61ZM58.88,18.29c0-1.08.51-1.61,1.52-1.61s1.53.54,1.53,1.61-.51,1.61-1.53,1.61-1.52-.54-1.52-1.61ZM58.88,24.56c0-1.08.51-1.61,1.52-1.61s1.53.54,1.53,1.61-.51,1.61-1.53,1.61-1.52-.54-1.52-1.61ZM58.88,31.2c0-1.08.51-1.61,1.52-1.61s1.53.54,1.53,1.61-.51,1.61-1.53,1.61-1.52-.54-1.52-1.61ZM58.88,37.47c0-1.08.51-1.61,1.52-1.61s1.53.54,1.53,1.61-.51,1.61-1.53,1.61-1.52-.54-1.52-1.61ZM58.88,43.21c0-1.08.51-1.61,1.52-1.61s1.53.54,1.53,1.61-.51,1.61-1.53,1.61-1.52-.54-1.52-1.61ZM58.88,48.95c0-1.08.51-1.61,1.52-1.61s1.53.54,1.53,1.61-.51,1.61-1.53,1.61-1.52-.54-1.52-1.61ZM58.88,54.33c0-1.08.51-1.61,1.52-1.61s1.53.54,1.53,1.61-.51,1.61-1.53,1.61-1.52-.54-1.52-1.61ZM58.88,59.88c0-1.08.51-1.61,1.52-1.61s1.53.54,1.53,1.61-.51,1.61-1.53,1.61-1.52-.54-1.52-1.61ZM58.88,66.16c0-1.08.51-1.61,1.52-1.61s1.53.54,1.53,1.61-.51,1.61-1.53,1.61-1.52-.54-1.52-1.61ZM58.88,72.43c0-1.08.51-1.61,1.52-1.61s1.53.54,1.53,1.61-.51,1.61-1.53,1.61-1.52-.54-1.52-1.61ZM58.88,78.71c0-1.08.51-1.61,1.52-1.61s1.53.54,1.53,1.61-.51,1.61-1.53,1.61-1.52-.54-1.52-1.61ZM58.88,85.7c0-1.08.51-1.61,1.52-1.61s1.53.54,1.53,1.61-.51,1.61-1.53,1.61-1.52-.54-1.52-1.61ZM58.88,91.44c0-1.08.51-1.61,1.52-1.61s1.53.54,1.53,1.61-.51,1.61-1.53,1.61-1.52-.54-1.52-1.61ZM58.88,96.82c0-1.08.51-1.61,1.52-1.61s1.53.54,1.53,1.61-.51,1.61-1.53,1.61-1.52-.54-1.52-1.61ZM58.88,102.38c0-1.08.51-1.61,1.52-1.61s1.53.54,1.53,1.61-.51,1.61-1.53,1.61-1.52-.54-1.52-1.61Z"/>
  </g>
</svg>