<?xml version="1.0" encoding="UTF-8"?>
<svg id="Layer_2" data-name="Layer 2" xmlns="http://www.w3.org/2000/svg" viewBox="0 0 143.4 213.11">
  <defs>
    <style>
      .cls-1 {
        fill: #3c3c3b;
        stroke-width: 0px;
      }
    </style>
  </defs>
  <g id="A">
    <path class="cls-1" d="M.24,208.85c.65-2.06,1.84-2.63,3.57-1.72,2.16.46,2.81,1.72,1.95,3.79-.65,1.83-1.84,2.52-3.57,2.07-1.95-.91-2.6-2.29-1.95-4.13ZM4.14,196.8c.65-1.83,1.95-2.41,3.9-1.72.65.23,1.19.69,1.62,1.38.43.69.43,1.5,0,2.41-.22.92-.71,1.55-1.46,1.89-.76.34-1.46.4-2.11.17-1.74-.69-2.38-2.06-1.95-4.13ZM8.04,185.44c.43-2.06,1.62-2.63,3.57-1.72,1.73.46,2.38,1.72,1.95,3.79-.65,1.84-1.95,2.53-3.9,2.07-1.74-.69-2.28-2.07-1.62-4.13ZM11.29,175.46c.21-.91.7-1.55,1.46-1.89.76-.34,1.46-.4,2.11-.17,1.73.69,2.38,2.06,1.95,4.13-.87,1.84-2.17,2.41-3.9,1.72-.65-.23-1.19-.69-1.62-1.38-.44-.69-.44-1.49,0-2.41ZM14.54,165.48c.21-.69.65-1.26,1.3-1.72.65-.46,1.41-.46,2.27,0,1.73.69,2.38,1.95,1.95,3.79-.87,2.06-2.17,2.75-3.9,2.06-1.74-.91-2.27-2.29-1.62-4.13ZM17.78,155.16c.86-1.83,2.16-2.41,3.9-1.72.65.23,1.19.69,1.62,1.38.43.69.43,1.5,0,2.41-.22.92-.71,1.55-1.46,1.89-.76.34-1.46.4-2.11.17-1.73-.69-2.38-2.07-1.95-4.13ZM22.01,142.42c.86-1.83,2.05-2.41,3.57-1.72,2.16.92,2.81,2.18,1.95,3.79-.87,2.3-2.06,2.98-3.57,2.06-1.95-.91-2.6-2.29-1.95-4.13ZM25.9,131.06c.21-.69.65-1.26,1.3-1.72.65-.46,1.41-.46,2.28,0,.86.23,1.46.75,1.79,1.55.32.81.38,1.55.16,2.24-.65,1.84-1.95,2.53-3.9,2.06-1.74-.69-2.28-2.06-1.62-4.13ZM29.8,119.02c.21-.69.65-1.26,1.3-1.72.65-.46,1.41-.46,2.28,0,1.73.69,2.38,1.95,1.95,3.79-.87,2.06-2.17,2.75-3.9,2.06-1.74-.91-2.27-2.29-1.62-4.13ZM33.38,107.66c.86-1.83,2.16-2.41,3.9-1.72.65.23,1.19.75,1.62,1.55.43.81.43,1.55,0,2.24-.22.92-.7,1.55-1.46,1.89-.76.34-1.46.4-2.11.17-1.74-.69-2.39-2.07-1.95-4.13ZM39.22,123.84c-1.95,0-2.92-1.03-2.92-3.1s.97-3.1,2.92-3.1,2.92,1.03,2.92,3.1-.97,3.1-2.92,3.1ZM36.62,97.68c.65-1.83,1.95-2.41,3.9-1.72,1.95.46,2.49,1.72,1.62,3.79-.44,1.84-1.62,2.53-3.57,2.06-1.74-.69-2.38-2.06-1.95-4.13ZM39.87,88.04c.65-1.83,1.95-2.52,3.9-2.07,1.73.92,2.28,2.3,1.62,4.13-.22.69-.71,1.26-1.46,1.72-.76.46-1.46.46-2.11,0-.87-.23-1.46-.74-1.79-1.55-.32-.8-.38-1.55-.16-2.24ZM43.44,77.72c.43-2.29,1.62-2.98,3.57-2.06,1.73.69,2.38,1.95,1.95,3.79-.87,2.07-2.17,2.75-3.9,2.07-1.74-.91-2.28-2.18-1.62-3.79ZM49.29,123.84c-1.95,0-2.92-1.03-2.92-3.1s.97-3.1,2.92-3.1,2.92,1.03,2.92,3.1-.97,3.1-2.92,3.1ZM46.69,67.05c.86-1.83,2.16-2.41,3.9-1.72.65.23,1.19.75,1.62,1.55.43.81.43,1.55,0,2.24-.43,1.84-1.62,2.53-3.57,2.06-1.73-.69-2.39-2.06-1.95-4.13ZM50.59,55.69c.21-.69.65-1.26,1.3-1.72.65-.46,1.4-.46,2.27,0,1.73.46,2.38,1.72,1.95,3.79-.65,1.84-1.95,2.53-3.9,2.06-1.73-.91-2.27-2.29-1.62-4.13ZM54.49,43.65c.86-1.83,2.06-2.41,3.57-1.72,2.16.46,2.81,1.72,1.95,3.79-.65,1.84-1.95,2.53-3.9,2.06-1.73-.91-2.27-2.29-1.62-4.13ZM60.66,123.84c-1.95,0-2.92-1.03-2.92-3.1s.97-3.1,2.92-3.1,2.92,1.03,2.92,3.1-.97,3.1-2.92,3.1ZM58.06,32.29c.86-1.83,2.16-2.41,3.9-1.72,1.95.46,2.49,1.72,1.63,3.79-.44,1.84-1.63,2.53-3.58,2.07-1.73-.69-2.38-2.07-1.95-4.13ZM61.63,22.31c.43-1.83,1.62-2.52,3.57-2.07,1.73.69,2.38,2.07,1.95,4.13-.65,1.84-1.95,2.41-3.9,1.72-1.95-.46-2.49-1.72-1.62-3.79ZM64.56,12.67c.86-2.06,2.16-2.75,3.9-2.06,1.73.69,2.28,2.06,1.62,4.13-.22.69-.65,1.26-1.3,1.72-.65.46-1.41.46-2.28,0-1.73-.69-2.39-1.95-1.95-3.79ZM68.13,2c.86-1.83,2.06-2.41,3.58-1.72,2.16.92,2.81,2.18,1.95,3.79-.87,2.3-2.06,2.98-3.58,2.06-1.95-.91-2.6-2.29-1.95-4.13ZM75.27,2c.65,1.84,0,3.22-1.95,4.13-1.52.92-2.71.23-3.57-2.06-.87-1.6-.22-2.87,1.95-3.79,1.51-.69,2.7-.11,3.57,1.72ZM72.68,123.84c-1.95,0-2.92-1.03-2.92-3.1s.97-3.1,2.92-3.1,2.92,1.03,2.92,3.1-.97,3.1-2.92,3.1ZM78.85,12.67c.43,1.84-.22,3.1-1.95,3.79-.87.46-1.62.46-2.27,0-.65-.46-1.09-1.03-1.3-1.72-.65-2.06-.11-3.44,1.62-4.13,1.73-.69,3.03,0,3.9,2.06ZM81.77,22.31c.86,2.07.33,3.33-1.62,3.79-1.95.69-3.25.12-3.9-1.72-.44-2.07.21-3.44,1.95-4.13,1.95-.46,3.14.23,3.57,2.07ZM85.34,32.29c.43,2.06-.22,3.44-1.95,4.13-1.95.46-3.14-.23-3.58-2.07-.87-2.06-.32-3.32,1.63-3.79,1.73-.69,3.03-.11,3.9,1.72ZM84.04,123.84c-1.95,0-2.92-1.03-2.92-3.1s.97-3.1,2.92-3.1,2.92,1.03,2.92,3.1-.97,3.1-2.92,3.1ZM88.92,43.65c.65,1.84.11,3.22-1.62,4.13-1.95.46-3.25-.23-3.9-2.06-.87-2.07-.22-3.32,1.95-3.79,1.51-.69,2.7-.11,3.57,1.72ZM92.81,55.69c.65,1.84.11,3.22-1.62,4.13-1.95.46-3.25-.23-3.9-2.06-.44-2.07.21-3.32,1.95-3.79.86-.46,1.62-.46,2.27,0,.65.46,1.08,1.03,1.3,1.72ZM96.71,67.05c.43,2.07-.22,3.44-1.95,4.13-1.95.46-3.14-.23-3.57-2.06-.44-.69-.44-1.43,0-2.24.43-.8.97-1.32,1.62-1.55,1.73-.69,3.03-.11,3.9,1.72ZM94.44,123.84c-1.95,0-2.92-1.03-2.92-3.1s.97-3.1,2.92-3.1,2.92,1.03,2.92,3.1-.97,3.1-2.92,3.1ZM99.96,77.72c.65,1.61.11,2.87-1.63,3.79-1.73.69-3.03,0-3.9-2.07-.43-1.83.21-3.1,1.95-3.79,1.95-.91,3.14-.23,3.58,2.06ZM103.53,88.04c.21.69.17,1.43-.16,2.24-.33.81-.93,1.32-1.79,1.55-.65.46-1.35.46-2.11,0-.76-.46-1.25-1.03-1.46-1.72-.65-1.83-.11-3.21,1.62-4.13,1.95-.46,3.25.23,3.9,2.07ZM106.78,97.68c.43,2.07-.22,3.44-1.95,4.13-1.95.46-3.14-.23-3.58-2.06-.87-2.07-.32-3.32,1.63-3.79,1.95-.69,3.25-.11,3.9,1.72ZM104.83,123.84c-1.95,0-2.92-1.03-2.92-3.1s.97-3.1,2.92-3.1,2.92,1.03,2.92,3.1-.97,3.1-2.92,3.1ZM110.03,107.66c.43,2.06-.22,3.44-1.95,4.13-.65.23-1.36.17-2.11-.17-.76-.34-1.25-.97-1.46-1.89-.43-.69-.43-1.43,0-2.24.43-.8.97-1.32,1.63-1.55,1.73-.69,3.03-.11,3.9,1.72ZM113.6,119.02c.65,1.84.11,3.22-1.62,4.13-1.74.69-3.03,0-3.9-2.06-.44-1.83.21-3.1,1.95-3.79.86-.46,1.62-.46,2.27,0,.65.46,1.08,1.03,1.3,1.72ZM117.5,131.06c.65,2.07.11,3.44-1.62,4.13-1.95.46-3.25-.23-3.9-2.06-.22-.69-.17-1.43.16-2.24.33-.8.92-1.32,1.79-1.55.86-.46,1.62-.46,2.27,0,.65.46,1.08,1.03,1.3,1.72ZM121.4,142.42c.65,1.84,0,3.22-1.95,4.13-1.52.92-2.71.23-3.57-2.06-.87-1.6-.22-2.87,1.95-3.79,1.51-.69,2.7-.11,3.57,1.72ZM125.62,155.16c.43,2.07-.22,3.44-1.95,4.13-.65.23-1.35.17-2.11-.17-.76-.34-1.25-.97-1.46-1.89-.43-.91-.43-1.72,0-2.41.43-.69.97-1.15,1.63-1.38,1.73-.69,3.03-.11,3.9,1.72ZM128.87,165.48c.65,1.84.11,3.22-1.62,4.13-1.73.69-3.03,0-3.9-2.06-.44-1.83.21-3.1,1.95-3.79.86-.46,1.62-.46,2.28,0,.65.46,1.08,1.03,1.3,1.72ZM132.12,175.46c.43.92.43,1.72,0,2.41-.44.69-.97,1.15-1.62,1.38-1.74.69-3.03.12-3.9-1.72-.44-2.07.21-3.44,1.95-4.13.65-.23,1.35-.17,2.11.17.76.34,1.24.98,1.46,1.89ZM135.36,185.44c.65,2.06.11,3.44-1.63,4.13-1.95.46-3.24-.23-3.9-2.07-.43-2.06.21-3.32,1.95-3.79,1.95-.91,3.14-.34,3.58,1.72ZM139.26,196.8c.43,2.07-.22,3.44-1.95,4.13-.65.23-1.35.17-2.11-.17-.76-.34-1.25-.97-1.46-1.89-.43-.91-.43-1.72,0-2.41.43-.69.97-1.15,1.63-1.38,1.95-.69,3.24-.11,3.9,1.72ZM143.16,208.85c.65,1.84,0,3.22-1.95,4.13-1.73.46-2.92-.23-3.58-2.07-.87-2.07-.21-3.32,1.95-3.79,1.52-.91,2.71-.34,3.58,1.72Z"/>
  </g>
</svg>