<?xml version="1.0" encoding="UTF-8"?>
<svg id="Layer_2" data-name="Layer 2" xmlns="http://www.w3.org/2000/svg" viewBox="0 0 72.63 113.94">
  <defs>
    <style>
      .cls-1 {
        fill: #3c3c3b;
        stroke-width: 0px;
      }
    </style>
  </defs>
  <g id="Q">
    <path class="cls-1" d="M3.12,56.02c0,1.1-.58,1.65-1.73,1.65-.93,0-1.39-.55-1.39-1.65s.52-1.65,1.56-1.65,1.56.55,1.56,1.65ZM.17,62.63c0-1.1.52-1.65,1.56-1.65s1.56.55,1.56,1.65-.52,1.65-1.56,1.65-1.56-.55-1.56-1.65ZM.52,49.96c0-1.1.52-1.65,1.56-1.65s1.56.55,1.56,1.65-.52,1.65-1.56,1.65-1.56-.55-1.56-1.65ZM2.43,67.04c1.15.25,1.62.86,1.39,1.84-.23,1.23-.81,1.72-1.73,1.47-.93,0-1.39-.61-1.39-1.84.23-.98.81-1.47,1.73-1.47ZM1.21,43.53c0-1.1.52-1.65,1.56-1.65s1.56.55,1.56,1.65-.52,1.65-1.56,1.65-1.56-.55-1.56-1.65ZM2.43,75.3c0-1.1.52-1.65,1.56-1.65s1.56.55,1.56,1.65-.52,1.65-1.56,1.65-1.56-.55-1.56-1.65ZM2.77,37.65c0-1.1.52-1.65,1.56-1.65s1.56.55,1.56,1.65-.52,1.65-1.56,1.65-1.56-.55-1.56-1.65ZM6.93,81.36c0,.98-.52,1.47-1.56,1.47s-1.56-.55-1.56-1.65.52-1.65,1.56-1.65,1.56.62,1.56,1.84ZM4.16,31.96c0-1.1.52-1.65,1.56-1.65s1.56.55,1.56,1.65-.52,1.65-1.56,1.65-1.56-.55-1.56-1.65ZM6.93,85.03c1.15,0,1.73.62,1.73,1.84,0,.98-.46,1.47-1.39,1.47-1.15.25-1.73-.24-1.73-1.47,0-.98.46-1.59,1.39-1.84ZM9.36,27.18c0,.98-.58,1.47-1.73,1.47-.93,0-1.39-.55-1.39-1.65s.52-1.65,1.56-1.65,1.56.62,1.56,1.84ZM9.71,90.36c1.04.25,1.62.8,1.73,1.65,0,.49-.15.92-.43,1.29-.29.37-.67.49-1.13.37-1.04.25-1.56-.24-1.56-1.47-.23-.98.23-1.59,1.39-1.84ZM11.79,21.12c0,1.1-.52,1.65-1.56,1.65-1.04-.24-1.56-.85-1.56-1.84.23-1.22.81-1.71,1.73-1.47,1.15,0,1.62.55,1.39,1.65ZM13.17,95.5c1.04-.24,1.67.18,1.91,1.29,0,1.1-.47,1.78-1.39,2.02-1.16,0-1.73-.61-1.73-1.84-.23-.98.17-1.47,1.21-1.47ZM15.43,15.61c0,1.1-.52,1.65-1.56,1.65s-1.56-.55-1.56-1.65.52-1.65,1.56-1.65,1.56.55,1.56,1.65ZM16.47,99.73c1.15-.24,1.62.25,1.39,1.47.23.98-.17,1.59-1.21,1.84-1.04,0-1.68-.55-1.91-1.65.11-.85.69-1.4,1.73-1.65ZM18.89,10.65c0,1.1-.58,1.65-1.73,1.65-.93,0-1.39-.55-1.39-1.65s.52-1.65,1.56-1.65,1.56.55,1.56,1.65ZM20.11,103.4c1.04-.24,1.56.18,1.56,1.29.23,1.1-.17,1.78-1.21,2.02-1.16-.24-1.79-.79-1.91-1.65,0-.49.14-.92.43-1.29.29-.37.66-.49,1.13-.37ZM22.53,7.16c0,1.1-.52,1.65-1.56,1.65s-1.56-.61-1.56-1.84c0-.98.52-1.47,1.56-1.47s1.56.55,1.56,1.65ZM25.48,105.97c1.04-.24,1.67.25,1.91,1.47,0,.98-.58,1.59-1.73,1.84-1.15,0-1.62-.49-1.39-1.47-.23-1.22.17-1.84,1.21-1.84ZM27.56,3.86c-.23,1.1-.81,1.65-1.73,1.65-1.16,0-1.62-.55-1.39-1.65,0-1.1.52-1.65,1.56-1.65s1.56.55,1.56,1.65ZM30.85,107.44c1.04,0,1.56.49,1.56,1.47,0,1.23-.46,1.84-1.39,1.84-.46,0-.87-.12-1.21-.37-.35-.24-.46-.61-.35-1.1,0-1.22.46-1.84,1.39-1.84ZM32.76,2.39c0,1.1-.58,1.65-1.73,1.65-.93,0-1.39-.55-1.39-1.65s.52-1.65,1.56-1.65,1.56.55,1.56,1.65ZM36.4,107.99c1.15.25,1.62.86,1.39,1.84-.23,1.1-.75,1.65-1.56,1.65-1.04,0-1.56-.61-1.56-1.84.11-.85.69-1.4,1.73-1.65ZM34.84,1.65c0-1.1.52-1.65,1.56-1.65s1.56.55,1.56,1.65-.52,1.65-1.56,1.65-1.56-.55-1.56-1.65ZM40.04,2.02c0-1.1.52-1.65,1.56-1.65s1.56.55,1.56,1.65-.46,1.65-1.39,1.65c-1.16,0-1.73-.55-1.73-1.65ZM41.77,107.99c.92,0,1.39.62,1.39,1.84.11.49,0,.86-.35,1.1-.35.25-.75.37-1.21.37-.93,0-1.39-.61-1.39-1.84,0-.98.52-1.47,1.56-1.47ZM44.72,77.14c-.58-.85-.41-1.65.52-2.39.92-.49,1.62-.3,2.08.55.69.86.58,1.65-.35,2.39-.93.37-1.68.18-2.25-.55ZM45.07,4.04c0-1.1.52-1.65,1.56-1.65s1.56.55,1.56,1.65c.23,1.1-.23,1.65-1.39,1.65-.93,0-1.5-.55-1.73-1.65ZM47.15,106.15c1.04,0,1.45.62,1.21,1.84.23.98-.23,1.47-1.39,1.47-1.16-.24-1.73-.85-1.73-1.84.23-1.22.87-1.71,1.91-1.47ZM47.67,81.91c-.69-.85-.58-1.65.35-2.39.92-.37,1.67-.18,2.25.55.58.86.41,1.65-.52,2.39-.93.49-1.62.31-2.08-.55ZM50.09,7.35c0-1.1.52-1.65,1.56-1.65s1.56.49,1.56,1.47c0,1.23-.52,1.84-1.56,1.84s-1.56-.55-1.56-1.65ZM50.96,87.24c-.58-.85-.46-1.59.35-2.2.81-.49,1.56-.3,2.25.55.46.98.29,1.72-.52,2.2-.93.73-1.62.55-2.08-.55ZM52.52,103.58c.46-.12.84,0,1.13.37.29.37.43.8.43,1.29-.12.86-.75,1.41-1.91,1.65-1.04-.24-1.45-.92-1.21-2.02,0-1.1.52-1.53,1.56-1.29ZM53.73,10.84c0-1.1.52-1.65,1.56-1.65s1.56.55,1.56,1.65-.46,1.65-1.39,1.65c-1.16,0-1.73-.55-1.73-1.65ZM54.25,93.11c-.35-.98-.17-1.77.52-2.39.92-.49,1.67-.3,2.25.55.46.98.29,1.72-.52,2.2-.81.73-1.56.62-2.25-.37ZM56.16,99.91c1.04.25,1.62.8,1.73,1.65-.23,1.1-.87,1.65-1.91,1.65-1.04-.24-1.45-.85-1.21-1.84-.23-1.22.23-1.71,1.39-1.47ZM57.2,15.79c0-1.1.52-1.65,1.56-1.65s1.56.55,1.56,1.65-.52,1.65-1.56,1.65-1.56-.55-1.56-1.65ZM57.55,98.44c-.23-.37-.29-.76-.17-1.19.11-.43.35-.76.69-1.01.92-.73,1.61-.55,2.08.55.57.86.46,1.59-.35,2.2-.81.49-1.56.31-2.25-.55ZM59.45,95.69c1.04,0,1.44.49,1.21,1.47,0,1.23-.58,1.84-1.73,1.84-.93-.24-1.39-.92-1.39-2.02.23-1.1.87-1.53,1.91-1.29ZM60.49,103.4c-.46-.98-.29-1.71.52-2.2.92-.73,1.67-.55,2.25.55.46.86.29,1.59-.52,2.2-.81.62-1.56.43-2.25-.55ZM60.84,21.3c-.23-1.1.23-1.65,1.39-1.65.92-.24,1.5.25,1.73,1.47,0,.98-.52,1.59-1.56,1.84-1.04,0-1.56-.55-1.56-1.65ZM62.92,90.54c1.15.25,1.62.86,1.39,1.84,0,1.23-.52,1.72-1.56,1.47-.47.12-.84,0-1.13-.37-.29-.37-.43-.79-.43-1.29.11-.85.69-1.4,1.73-1.65ZM63.61,108.36c-.69-.98-.58-1.71.35-2.2.93-.61,1.67-.43,2.25.55.46.86.29,1.59-.52,2.2-.35.25-.72.31-1.13.18-.41-.12-.72-.37-.95-.73ZM63.27,27.37c0-1.22.52-1.84,1.56-1.84s1.56.55,1.56,1.65-.46,1.65-1.39,1.65c-1.15,0-1.73-.49-1.73-1.47ZM65.69,85.22c.92.25,1.39.86,1.39,1.84,0,1.23-.58,1.72-1.73,1.47-.93,0-1.39-.49-1.39-1.47,0-1.22.58-1.84,1.73-1.84ZM68.47,32.14c0,1.1-.52,1.65-1.56,1.65s-1.56-.55-1.56-1.65.52-1.65,1.56-1.65,1.56.55,1.56,1.65ZM65.69,81.54c0-1.22.52-1.84,1.56-1.84s1.56.55,1.56,1.65-.52,1.65-1.56,1.65-1.56-.49-1.56-1.47ZM66.39,112.95c-.58-.86-.46-1.59.35-2.2.81-.49,1.56-.3,2.25.55.23.37.29.76.17,1.2-.11.43-.35.76-.69,1.01-.93.73-1.62.55-2.08-.55ZM69.85,37.83c0,1.1-.52,1.65-1.56,1.65s-1.56-.55-1.56-1.65.52-1.65,1.56-1.65,1.56.55,1.56,1.65ZM70.2,75.48c0,1.1-.52,1.65-1.56,1.65s-1.56-.55-1.56-1.65.52-1.65,1.56-1.65,1.56.55,1.56,1.65ZM71.41,43.71c0,1.1-.52,1.65-1.56,1.65s-1.56-.55-1.56-1.65.52-1.65,1.56-1.65,1.56.55,1.56,1.65ZM70.2,67.22c.93,0,1.5.49,1.73,1.47,0,1.23-.46,1.84-1.39,1.84-.93.25-1.5-.24-1.73-1.47-.23-.98.23-1.59,1.39-1.84ZM72.11,50.14c0,1.1-.52,1.65-1.56,1.65s-1.56-.55-1.56-1.65.52-1.65,1.56-1.65,1.56.55,1.56,1.65ZM72.45,62.81c0,1.1-.52,1.65-1.56,1.65s-1.56-.55-1.56-1.65.52-1.65,1.56-1.65,1.56.55,1.56,1.65ZM69.51,56.2c0-1.1.52-1.65,1.56-1.65s1.56.55,1.56,1.65-.46,1.65-1.39,1.65c-1.15,0-1.73-.55-1.73-1.65Z"/>
  </g>
</svg>