<?xml version="1.0" encoding="UTF-8"?>
<svg id="Layer_2" data-name="Layer 2" xmlns="http://www.w3.org/2000/svg" viewBox="0 0 57.87 111.18">
  <defs>
    <style>
      .cls-1 {
        fill: #3c3c3b;
        stroke-width: 0px;
      }
    </style>
  </defs>
  <g id="F">
    <path class="cls-1" d="M0,109.54c0-1.09.52-1.64,1.55-1.64s1.55.55,1.55,1.64-.52,1.64-1.55,1.64-1.55-.55-1.55-1.64ZM.17,2C.17.91.69.36,1.72.36s1.55.55,1.55,1.64-.52,1.64-1.55,1.64S.17,3.09.17,2ZM.17,7.82c0-1.09.52-1.64,1.55-1.64s1.55.55,1.55,1.64-.52,1.64-1.55,1.64-1.55-.55-1.55-1.64ZM.17,13.28c0-1.09.52-1.64,1.55-1.64s1.55.55,1.55,1.64-.52,1.64-1.55,1.64-1.55-.55-1.55-1.64ZM.17,18.92c0-1.09.52-1.64,1.55-1.64s1.55.55,1.55,1.64-.52,1.64-1.55,1.64-1.55-.55-1.55-1.64ZM.17,25.29c0-1.09.52-1.64,1.55-1.64s1.55.55,1.55,1.64-.52,1.64-1.55,1.64-1.55-.55-1.55-1.64ZM.17,32.03c0-1.09.52-1.64,1.55-1.64s1.55.55,1.55,1.64-.52,1.64-1.55,1.64-1.55-.55-1.55-1.64ZM.17,38.39c0-1.09.52-1.64,1.55-1.64s1.55.55,1.55,1.64-.52,1.64-1.55,1.64-1.55-.55-1.55-1.64ZM.17,44.22c0-1.09.52-1.64,1.55-1.64s1.55.55,1.55,1.64-.52,1.64-1.55,1.64-1.55-.55-1.55-1.64ZM.17,50.04c0-1.09.52-1.64,1.55-1.64s1.55.55,1.55,1.64-.52,1.64-1.55,1.64-1.55-.55-1.55-1.64ZM.17,55.5c0-1.09.52-1.64,1.55-1.64s1.55.55,1.55,1.64-.52,1.64-1.55,1.64-1.55-.55-1.55-1.64ZM.17,61.14c0-1.09.52-1.64,1.55-1.64s1.55.55,1.55,1.64-.52,1.64-1.55,1.64-1.55-.55-1.55-1.64ZM.17,67.51c0-1.09.52-1.64,1.55-1.64s1.55.55,1.55,1.64-.52,1.64-1.55,1.64-1.55-.55-1.55-1.64ZM.17,73.88c0-1.09.52-1.64,1.55-1.64s1.55.55,1.55,1.64-.52,1.64-1.55,1.64-1.55-.55-1.55-1.64ZM.17,80.25c0-1.09.52-1.64,1.55-1.64s1.55.55,1.55,1.64-.52,1.64-1.55,1.64-1.55-.55-1.55-1.64ZM.17,87.34c0-1.09.52-1.64,1.55-1.64s1.55.55,1.55,1.64-.52,1.64-1.55,1.64-1.55-.55-1.55-1.64ZM.17,93.17c0-1.09.52-1.64,1.55-1.64s1.55.55,1.55,1.64-.52,1.64-1.55,1.64-1.55-.55-1.55-1.64ZM.17,98.63c0-1.09.52-1.64,1.55-1.64s1.55.55,1.55,1.64-.52,1.64-1.55,1.64-1.55-.55-1.55-1.64ZM.17,104.27c0-1.09.52-1.64,1.55-1.64s1.55.55,1.55,1.64-.52,1.64-1.55,1.64-1.55-.55-1.55-1.64ZM6.7,53.68c-1.03,0-1.55-.55-1.55-1.64s.52-1.64,1.55-1.64,1.55.55,1.55,1.64-.52,1.64-1.55,1.64ZM6.87,3.28c-1.03,0-1.55-.55-1.55-1.64s.52-1.64,1.55-1.64,1.55.55,1.55,1.64-.52,1.64-1.55,1.64ZM12.19,53.68c-1.03,0-1.55-.55-1.55-1.64s.52-1.64,1.55-1.64,1.55.55,1.55,1.64-.52,1.64-1.55,1.64ZM12.36,3.28c-1.03,0-1.55-.55-1.55-1.64s.52-1.64,1.55-1.64,1.55.55,1.55,1.64-.52,1.64-1.55,1.64ZM17.34,53.68c-1.03,0-1.55-.55-1.55-1.64s.52-1.64,1.55-1.64,1.55.55,1.55,1.64-.52,1.64-1.55,1.64ZM17.52,3.28c-1.03,0-1.55-.55-1.55-1.64s.52-1.64,1.55-1.64,1.55.55,1.55,1.64-.52,1.64-1.55,1.64ZM22.67,53.68c-1.03,0-1.55-.55-1.55-1.64s.52-1.64,1.55-1.64,1.55.55,1.55,1.64-.52,1.64-1.55,1.64ZM22.84,3.28c-1.03,0-1.55-.55-1.55-1.64s.52-1.64,1.55-1.64,1.55.55,1.55,1.64-.52,1.64-1.55,1.64ZM28.68,53.68c-1.03,0-1.55-.55-1.55-1.64s.52-1.64,1.55-1.64c.92,0,1.4.55,1.46,1.64.06,1.09-.43,1.64-1.46,1.64ZM28.85,3.28c-1.03,0-1.55-.55-1.55-1.64s.52-1.64,1.55-1.64c.91,0,1.4.55,1.46,1.64.06,1.09-.43,1.64-1.46,1.64ZM34,53.68c-1.03,0-1.55-.55-1.55-1.64s.52-1.64,1.55-1.64,1.55.55,1.55,1.64-.52,1.64-1.55,1.64ZM34.17,3.28c-1.03,0-1.55-.55-1.55-1.64s.52-1.64,1.55-1.64,1.55.55,1.55,1.64-.52,1.64-1.55,1.64ZM40.01,53.68c-1.03,0-1.55-.55-1.55-1.64s.52-1.64,1.55-1.64,1.55.55,1.55,1.64-.52,1.64-1.55,1.64ZM40.18,3.28c-1.03,0-1.55-.55-1.55-1.64s.52-1.64,1.55-1.64,1.55.55,1.55,1.64-.52,1.64-1.55,1.64ZM45.68,3.28c-1.03,0-1.55-.55-1.55-1.64s.52-1.64,1.55-1.64,1.55.55,1.55,1.64-.52,1.64-1.55,1.64ZM51.17,3.28c-1.03,0-1.55-.55-1.55-1.64s.52-1.64,1.55-1.64,1.55.55,1.55,1.64-.52,1.64-1.55,1.64ZM56.33,3.28c-1.03,0-1.55-.55-1.55-1.64s.52-1.64,1.55-1.64,1.55.55,1.55,1.64-.52,1.64-1.55,1.64Z"/>
  </g>
</svg>