<?xml version="1.0" encoding="UTF-8"?>
<svg id="Layer_2" data-name="Layer 2" xmlns="http://www.w3.org/2000/svg" viewBox="0 0 52.85 114.34">
  <defs>
    <style>
      .cls-1 {
        fill: #3c3c3b;
        stroke-width: 0px;
      }
    </style>
  </defs>
  <g id="K">
    <path class="cls-1" d="M0,112.27c0-1.12.53-1.68,1.59-1.68s1.59.56,1.59,1.68-.53,1.68-1.59,1.68-1.59-.56-1.59-1.68ZM.18,1.68C.18.56.71,0,1.77,0s1.59.56,1.59,1.68-.53,1.68-1.59,1.68S.18,2.81.18,1.68ZM.18,7.67c0-1.12.53-1.68,1.59-1.68s1.59.56,1.59,1.68-.53,1.68-1.59,1.68-1.59-.56-1.59-1.68ZM.18,13.29c0-1.12.53-1.68,1.59-1.68s1.59.56,1.59,1.68-.53,1.68-1.59,1.68-1.59-.56-1.59-1.68ZM.18,19.09c0-1.12.53-1.68,1.59-1.68s1.59.56,1.59,1.68-.53,1.68-1.59,1.68-1.59-.56-1.59-1.68ZM.18,25.64c0-1.12.53-1.68,1.59-1.68s1.59.56,1.59,1.68-.53,1.68-1.59,1.68-1.59-.56-1.59-1.68ZM.18,32.56c0-1.12.53-1.68,1.59-1.68s1.59.56,1.59,1.68-.53,1.68-1.59,1.68-1.59-.56-1.59-1.68ZM.18,39.11c0-1.12.53-1.68,1.59-1.68s1.59.56,1.59,1.68-.53,1.68-1.59,1.68-1.59-.56-1.59-1.68ZM.18,45.1c0-1.12.53-1.68,1.59-1.68s1.59.56,1.59,1.68-.53,1.68-1.59,1.68-1.59-.56-1.59-1.68ZM.18,51.08c0-1.12.53-1.68,1.59-1.68s1.59.56,1.59,1.68-.53,1.68-1.59,1.68-1.59-.56-1.59-1.68ZM.18,56.7c0-1.12.53-1.68,1.59-1.68s1.59.56,1.59,1.68-.53,1.68-1.59,1.68-1.59-.56-1.59-1.68ZM.18,62.5c0-1.12.53-1.68,1.59-1.68s1.59.56,1.59,1.68-.53,1.68-1.59,1.68-1.59-.56-1.59-1.68ZM.18,69.05c0-1.12.53-1.68,1.59-1.68s1.59.56,1.59,1.68-.53,1.68-1.59,1.68-1.59-.56-1.59-1.68ZM.18,75.6c0-1.12.53-1.68,1.59-1.68s1.59.56,1.59,1.68-.53,1.68-1.59,1.68-1.59-.56-1.59-1.68ZM.18,82.15c0-1.12.53-1.68,1.59-1.68s1.59.56,1.59,1.68-.53,1.68-1.59,1.68-1.59-.56-1.59-1.68ZM.18,89.45c0-1.12.53-1.68,1.59-1.68s1.59.56,1.59,1.68-.53,1.68-1.59,1.68-1.59-.56-1.59-1.68ZM.18,95.43c0-1.12.53-1.68,1.59-1.68s1.59.56,1.59,1.68-.53,1.68-1.59,1.68-1.59-.56-1.59-1.68ZM.18,101.05c0-1.12.53-1.68,1.59-1.68s1.59.56,1.59,1.68-.53,1.68-1.59,1.68-1.59-.56-1.59-1.68ZM.18,106.85c0-1.12.53-1.68,1.59-1.68s1.59.56,1.59,1.68-.53,1.68-1.59,1.68-1.59-.56-1.59-1.68ZM5.34,50.07c.71-.62,1.47-.62,2.3,0,.59.87.59,1.68,0,2.43-.83.62-1.59.62-2.3,0-.59-.75-.59-1.56,0-2.43ZM9.05,46.33c.71-.62,1.47-.62,2.3,0,.59.87.59,1.68,0,2.43-.83.62-1.59.62-2.3,0-.59-.75-.59-1.56,0-2.43ZM12.94,42.22c.71-.75,1.47-.75,2.3,0,.71.75.71,1.56,0,2.43-.83.62-1.59.62-2.3,0-.83-.75-.83-1.56,0-2.43ZM16.64,38.29c.71-.87,1.47-.87,2.3,0,.71.75.71,1.5,0,2.25-.83.87-1.59.87-2.3,0-.94-.75-.94-1.5,0-2.25ZM20.53,33.98c.71-.75,1.47-.75,2.3,0,.94.75.94,1.5,0,2.25-.59.87-1.36.94-2.3.19-.71-.87-.71-1.68,0-2.43ZM25.47,28.74c.7-1,1.41-1,2.12,0,.82.75.82,1.56,0,2.43-.71.75-1.41.75-2.12,0-.83-.75-.83-1.56,0-2.43ZM29.71,24.06c.82-.75,1.59-.75,2.29,0,.71.75.71,1.56,0,2.43-.82.62-1.59.62-2.29,0-.59-.75-.59-1.56,0-2.43ZM8.16,56.98c-.59-1-.47-1.75.35-2.25.82-.75,1.53-.62,2.12.37.71.87.59,1.62-.35,2.25-.83.62-1.53.5-2.12-.37ZM11.16,61.66c-.59-.87-.47-1.62.35-2.25.94-.75,1.71-.69,2.3.19.71,1.12.59,1.93-.35,2.43-.83.75-1.59.62-2.3-.37ZM34.13,19.39c.24-.25.59-.4,1.06-.47.47-.06.82.09,1.06.47.82.62.88,1.43.18,2.43-.82.75-1.59.75-2.3,0-.82-.75-.82-1.56,0-2.43ZM14.69,67.08c-.59-.87-.47-1.62.35-2.25.94-.62,1.71-.5,2.3.37.59.87.47,1.62-.35,2.25-.82.75-1.59.62-2.3-.37ZM38.37,14.71c.7-.62,1.47-.62,2.29,0,.71.87.71,1.68,0,2.43-.7.75-1.47.75-2.29,0-.59-.75-.59-1.56,0-2.43ZM18.4,72.7c-.71-1-.53-1.81.53-2.43.35-.25.73-.31,1.15-.19.41.12.73.37.97.75.7.87.59,1.68-.35,2.43-.82.62-1.59.44-2.29-.56ZM42.25,10.59c.71-.87,1.47-.87,2.3,0,.71.75.71,1.56,0,2.43-.83.62-1.59.62-2.3,0-.82-.75-.82-1.56,0-2.43ZM21.93,78.12c-.59-.87-.41-1.68.53-2.43.94-.5,1.71-.37,2.3.37.59.87.41,1.68-.53,2.43-.83.75-1.59.62-2.3-.37ZM45.96,6.66c.71-.87,1.47-.87,2.3,0,.71.75.71,1.5,0,2.25-.82.87-1.59.87-2.3,0-.94-.75-.94-1.5,0-2.25ZM25.29,82.99c-.71-1-.59-1.75.35-2.25.82-.75,1.59-.62,2.3.37.7,1,.53,1.81-.53,2.43-.95.75-1.65.56-2.12-.56ZM49.84,2.36c.82-.87,1.59-.87,2.3,0,.94.75.94,1.5,0,2.25-.59.87-1.36.94-2.3.19-.71-.87-.71-1.68,0-2.43ZM28.47,87.85c-.59-.87-.47-1.62.35-2.25.82-.75,1.59-.62,2.3.37.59,1,.47,1.75-.35,2.25-.94.75-1.71.62-2.29-.37ZM31.47,92.72c-.71-1.12-.59-1.93.35-2.43.94-.62,1.71-.5,2.3.37.59.87.47,1.62-.35,2.25-.95.75-1.71.69-2.3-.19ZM34.65,97.4c-.59-1-.47-1.81.35-2.43.94-.75,1.71-.56,2.3.56.47,1,.29,1.68-.53,2.06-.82.62-1.53.56-2.12-.19ZM38,102.82c-.47-1-.3-1.81.53-2.43.82-.75,1.59-.62,2.3.37.23.37.29.78.17,1.22-.12.44-.35.78-.7,1.03-.95.75-1.71.69-2.3-.19ZM41.71,108.06c-.71-.87-.59-1.68.35-2.43.82-.62,1.59-.44,2.3.56.71.87.59,1.68-.35,2.43-1.06.62-1.83.44-2.3-.56ZM45.24,113.49c-.7-.87-.59-1.68.35-2.43.82-.75,1.59-.62,2.29.37.71.87.59,1.68-.35,2.43-.83.75-1.59.62-2.3-.37Z"/>
  </g>
</svg>