<svg xmlns="http://www.w3.org/2000/svg" id="Layer_2" data-name="Layer 2" viewBox="0 0 53.82 112.57"><defs><style>.cls-1{fill:#3c3c3b;stroke-width:0}</style></defs><g id="I"><path d="M1.57,112.57c-1.05,0-1.57-.56-1.57-1.67s.52-1.67,1.57-1.67,1.57.56,1.57,1.67-.52,1.67-1.57,1.67ZM1.75,3.33C.7,3.33.17,2.78.17,1.67S.7,0,1.75,0s1.57.56,1.57,1.67-.52,1.67-1.57,1.67ZM7.16,112.57c-1.05,0-1.57-.56-1.57-1.67s.52-1.67,1.57-1.67,1.57.56,1.57,1.67-.52,1.67-1.57,1.67ZM7.34,3.33c-1.05,0-1.57-.56-1.57-1.67s.52-1.67,1.57-1.67,1.57.56,1.57,1.67-.52,1.67-1.57,1.67ZM12.41,112.57c-1.05,0-1.57-.56-1.57-1.67s.52-1.67,1.57-1.67,1.57.56,1.57,1.67-.52,1.67-1.57,1.67ZM12.58,3.33c-1.05,0-1.57-.56-1.57-1.67s.52-1.67,1.57-1.67,1.57.56,1.57,1.67-.52,1.67-1.57,1.67ZM17.82,112.57c-1.05,0-1.57-.56-1.57-1.67s.52-1.67,1.57-1.67,1.57.56,1.57,1.67-.52,1.67-1.57,1.67ZM18,3.33c-1.05,0-1.58-.56-1.58-1.67s.52-1.67,1.58-1.67,1.57.56,1.57,1.67-.52,1.67-1.57,1.67ZM23.94,112.57c-1.05,0-1.57-.56-1.57-1.67s.52-1.67,1.57-1.67,1.57.56,1.57,1.67-.52,1.67-1.57,1.67ZM24.11,3.33c-1.05,0-1.57-.56-1.57-1.67s.52-1.67,1.57-1.67c.93,0,1.43.56,1.49,1.67.06,1.11-.44,1.67-1.49,1.67ZM25.16,6.85c0-1.11.52-1.67,1.57-1.67s1.57.56,1.57,1.67-.52,1.67-1.57,1.67-1.57-.56-1.57-1.67ZM25.16,12.96c0-1.11.52-1.67,1.57-1.67s1.57.56,1.57,1.67-.52,1.67-1.57,1.67-1.57-.56-1.57-1.67ZM25.16,18.7c0-1.11.52-1.67,1.57-1.67s1.57.56,1.57,1.67-.52,1.67-1.57,1.67-1.57-.56-1.57-1.67ZM25.16,25.18c0-1.11.52-1.67,1.57-1.67s1.57.56,1.57,1.67-.52,1.67-1.57,1.67-1.57-.56-1.57-1.67ZM25.16,32.03c0-1.11.52-1.67,1.57-1.67s1.57.56,1.57,1.67-.52,1.67-1.57,1.67-1.57-.56-1.57-1.67ZM25.16,38.51c0-1.11.52-1.67,1.57-1.67s1.57.56,1.57,1.67-.52,1.67-1.57,1.67-1.57-.56-1.57-1.67ZM25.16,44.44c0-1.11.52-1.67,1.57-1.67s1.57.56,1.57,1.67-.52,1.67-1.57,1.67-1.57-.56-1.57-1.67ZM25.16,50.36c0-1.11.52-1.67,1.57-1.67s1.57.56,1.57,1.67-.52,1.67-1.57,1.67-1.57-.56-1.57-1.67ZM25.16,55.92c0-1.11.52-1.67,1.57-1.67s1.57.56,1.57,1.67-.52,1.67-1.57,1.67-1.57-.56-1.57-1.67ZM25.16,61.66c0-1.11.52-1.67,1.57-1.67s1.57.56,1.57,1.67-.52,1.67-1.57,1.67-1.57-.56-1.57-1.67ZM25.16,68.14c0-1.11.52-1.67,1.57-1.67s1.57.56,1.57,1.67-.52,1.67-1.57,1.67-1.57-.56-1.57-1.67ZM25.16,74.62c0-1.11.52-1.67,1.57-1.67s1.57.56,1.57,1.67-.52,1.67-1.57,1.67-1.57-.56-1.57-1.67ZM25.16,81.1c0-1.11.52-1.67,1.57-1.67s1.57.56,1.57,1.67-.52,1.67-1.57,1.67-1.57-.56-1.57-1.67ZM25.16,88.32c0-1.11.52-1.67,1.57-1.67s1.57.56,1.57,1.67-.52,1.67-1.57,1.67-1.57-.56-1.57-1.67ZM25.16,94.24c0-1.11.52-1.67,1.57-1.67s1.57.56,1.57,1.67-.52,1.67-1.57,1.67-1.57-.56-1.57-1.67ZM25.16,99.8c0-1.11.52-1.67,1.57-1.67s1.57.56,1.57,1.67-.52,1.67-1.57,1.67-1.57-.56-1.57-1.67ZM25.16,105.54c0-1.11.52-1.67,1.57-1.67s1.57.56,1.57,1.67-.52,1.67-1.57,1.67-1.57-.56-1.57-1.67ZM29.53,3.33c-1.05,0-1.57-.56-1.57-1.67s.52-1.67,1.57-1.67,1.57.56,1.57,1.67-.52,1.67-1.57,1.67ZM29.7,112.57c-1.05,0-1.57-.56-1.57-1.67s.52-1.67,1.57-1.67,1.57.56,1.57,1.67-.52,1.67-1.57,1.67ZM35.65,3.33c-1.05,0-1.57-.56-1.57-1.67s.52-1.67,1.57-1.67,1.57.56,1.57,1.67-.52,1.67-1.57,1.67ZM35.82,112.57c-1.05,0-1.57-.56-1.57-1.67s.52-1.67,1.57-1.67,1.57.56,1.57,1.67-.52,1.67-1.57,1.67ZM41.24,3.33c-1.05,0-1.57-.56-1.57-1.67s.52-1.67,1.57-1.67,1.57.56,1.57,1.67-.52,1.67-1.57,1.67ZM41.41,112.57c-1.05,0-1.57-.56-1.57-1.67s.52-1.67,1.57-1.67,1.57.56,1.57,1.67-.52,1.67-1.57,1.67ZM46.83,3.33c-1.05,0-1.57-.56-1.57-1.67s.52-1.67,1.57-1.67,1.57.56,1.57,1.67-.52,1.67-1.57,1.67ZM47,112.57c-1.05,0-1.57-.56-1.57-1.67s.52-1.67,1.57-1.67,1.57.56,1.57,1.67-.52,1.67-1.57,1.67ZM52.07,3.33c-1.05,0-1.57-.56-1.57-1.67s.52-1.67,1.57-1.67,1.57.56,1.57,1.67-.52,1.67-1.57,1.67ZM52.25,112.57c-1.05,0-1.57-.56-1.57-1.67s.52-1.67,1.57-1.67,1.57.56,1.57,1.67-.52,1.67-1.57,1.67Z" class="cls-1"/></g></svg>