<svg xmlns="http://www.w3.org/2000/svg" id="Layer_2" data-name="Layer 2" viewBox="0 0 73.48 112.8"><defs><style>.cls-1{fill:#3c3c3b;stroke-width:0}</style></defs><g id="O"><path d="M3.16,56.68c0,1.11-.59,1.67-1.75,1.67-.94,0-1.4-.56-1.4-1.67s.53-1.67,1.58-1.67,1.58.56,1.58,1.67ZM.18,63.37c0-1.11.53-1.67,1.58-1.67s1.58.56,1.58,1.67-.53,1.67-1.58,1.67-1.58-.56-1.58-1.67ZM.53,50.54c0-1.11.53-1.67,1.58-1.67s1.58.56,1.58,1.67-.53,1.67-1.58,1.67-1.58-.56-1.58-1.67ZM2.46,67.83c1.17.25,1.64.87,1.4,1.86-.24,1.24-.82,1.74-1.75,1.49-.94,0-1.4-.62-1.4-1.86.23-.99.82-1.49,1.75-1.49ZM1.23,44.04c0-1.12.53-1.67,1.58-1.67s1.58.56,1.58,1.67-.53,1.67-1.58,1.67-1.58-.56-1.58-1.67ZM2.46,76.19c0-1.11.53-1.67,1.58-1.67s1.58.56,1.58,1.67-.53,1.67-1.58,1.67-1.58-.56-1.58-1.67ZM2.81,38.09c0-1.11.53-1.67,1.58-1.67s1.58.56,1.58,1.67-.53,1.67-1.58,1.67-1.58-.56-1.58-1.67ZM7.02,82.32c0,.99-.53,1.49-1.58,1.49s-1.58-.56-1.58-1.67.53-1.67,1.58-1.67,1.58.62,1.58,1.86ZM4.21,32.33c0-1.11.53-1.67,1.58-1.67s1.58.56,1.58,1.67-.53,1.67-1.58,1.67-1.58-.56-1.58-1.67ZM7.02,86.04c1.17,0,1.75.62,1.75,1.86,0,.99-.47,1.49-1.4,1.49-1.17.25-1.75-.25-1.75-1.49,0-.99.47-1.61,1.4-1.86ZM9.47,27.5c0,.99-.59,1.49-1.75,1.49-.94,0-1.4-.56-1.4-1.67s.53-1.67,1.58-1.67,1.58.62,1.58,1.86ZM9.82,91.43c1.05.25,1.64.81,1.75,1.67,0,.5-.15.93-.44,1.3-.29.37-.68.5-1.14.37-1.05.25-1.58-.25-1.58-1.49-.23-.99.23-1.61,1.4-1.86ZM11.93,21.37c0,1.11-.53,1.67-1.58,1.67-1.05-.25-1.58-.86-1.58-1.86.23-1.24.82-1.73,1.75-1.49,1.17,0,1.64.56,1.4,1.67ZM13.33,96.63c1.05-.25,1.69.19,1.93,1.3,0,1.11-.47,1.8-1.4,2.04-1.17,0-1.75-.62-1.75-1.86-.23-.99.18-1.49,1.23-1.49ZM15.61,15.8c0,1.11-.53,1.67-1.58,1.67s-1.58-.56-1.58-1.67.53-1.67,1.58-1.67,1.58.56,1.58,1.67ZM16.66,100.9c1.17-.25,1.64.25,1.4,1.49.23.99-.17,1.61-1.23,1.86-1.05,0-1.7-.56-1.93-1.67.12-.86.7-1.42,1.75-1.67ZM19.12,10.78c0,1.11-.59,1.67-1.75,1.67-.94,0-1.4-.56-1.4-1.67s.53-1.67,1.58-1.67,1.58.56,1.58,1.67ZM20.34,104.62c1.05-.25,1.58.19,1.58,1.3.23,1.11-.18,1.8-1.23,2.04-1.17-.25-1.81-.8-1.93-1.67,0-.49.14-.93.44-1.3.29-.37.67-.49,1.14-.37ZM22.8,7.25c0,1.11-.53,1.67-1.58,1.67s-1.58-.62-1.58-1.86c0-.99.53-1.49,1.58-1.49s1.58.56,1.58,1.67ZM25.78,107.22c1.05-.25,1.69.25,1.93,1.49,0,.99-.59,1.61-1.75,1.86-1.17,0-1.64-.49-1.4-1.49-.24-1.24.18-1.86,1.23-1.86ZM27.89,3.9c-.24,1.11-.82,1.67-1.75,1.67-1.17,0-1.64-.56-1.4-1.67,0-1.11.53-1.67,1.58-1.67s1.58.56,1.58,1.67ZM31.22,108.71c1.05,0,1.58.5,1.58,1.49,0,1.24-.47,1.86-1.4,1.86-.47,0-.88-.12-1.23-.37-.35-.25-.47-.62-.35-1.11,0-1.24.47-1.86,1.4-1.86ZM33.15,2.42c0,1.11-.59,1.67-1.75,1.67-.94,0-1.4-.56-1.4-1.67s.53-1.67,1.58-1.67,1.58.56,1.58,1.67ZM36.83,109.27c1.17.25,1.64.87,1.4,1.86-.23,1.11-.76,1.67-1.58,1.67-1.05,0-1.58-.62-1.58-1.86.12-.86.7-1.42,1.75-1.67ZM35.25,1.67c0-1.11.53-1.67,1.58-1.67s1.58.56,1.58,1.67-.53,1.67-1.58,1.67-1.58-.56-1.58-1.67ZM40.51,2.04c0-1.11.53-1.67,1.58-1.67s1.58.56,1.58,1.67-.47,1.67-1.4,1.67c-1.17,0-1.75-.56-1.75-1.67ZM42.27,109.27c.93,0,1.4.62,1.4,1.86.12.5,0,.87-.35,1.11-.35.25-.76.37-1.23.37-.94,0-1.4-.62-1.4-1.86,0-.99.53-1.49,1.58-1.49ZM45.6,4.09c0-1.11.53-1.67,1.58-1.67s1.58.56,1.58,1.67c.23,1.11-.23,1.67-1.4,1.67-.94,0-1.52-.56-1.75-1.67ZM47.7,107.41c1.05,0,1.46.62,1.23,1.86.23.99-.24,1.49-1.4,1.49-1.17-.25-1.75-.86-1.75-1.86.23-1.24.88-1.73,1.93-1.49ZM50.68,7.43c0-1.11.53-1.67,1.58-1.67s1.58.5,1.58,1.49c0,1.24-.53,1.86-1.58,1.86s-1.58-.56-1.58-1.67ZM53.14,104.81c.47-.12.85,0,1.14.37.29.37.44.81.44,1.3-.12.87-.76,1.43-1.93,1.67-1.05-.25-1.46-.93-1.23-2.04,0-1.11.53-1.55,1.58-1.3ZM54.37,10.96c0-1.12.53-1.67,1.58-1.67s1.58.56,1.58,1.67-.47,1.67-1.4,1.67c-1.17,0-1.75-.56-1.75-1.67ZM56.82,101.09c1.05.25,1.64.81,1.75,1.67-.24,1.11-.88,1.67-1.93,1.67-1.05-.25-1.46-.86-1.23-1.86-.24-1.24.23-1.73,1.4-1.49ZM57.87,15.98c0-1.11.53-1.67,1.58-1.67s1.58.56,1.58,1.67-.53,1.67-1.58,1.67-1.58-.56-1.58-1.67ZM60.15,96.81c1.05,0,1.46.5,1.23,1.49,0,1.24-.59,1.86-1.75,1.86-.94-.25-1.4-.93-1.4-2.04.23-1.11.88-1.55,1.93-1.3ZM61.56,21.56c-.23-1.11.23-1.67,1.4-1.67.93-.25,1.52.25,1.75,1.49,0,.99-.53,1.61-1.58,1.86-1.05,0-1.58-.56-1.58-1.67ZM63.66,91.61c1.17.25,1.64.87,1.4,1.86,0,1.24-.53,1.74-1.58,1.49-.47.13-.85,0-1.14-.37-.29-.37-.44-.8-.44-1.3.11-.86.7-1.42,1.75-1.67ZM64.01,27.69c0-1.24.53-1.86,1.58-1.86s1.58.56,1.58,1.67-.47,1.67-1.4,1.67c-1.17,0-1.75-.49-1.75-1.49ZM66.47,86.22c.93.25,1.4.87,1.4,1.86,0,1.24-.59,1.74-1.75,1.49-.94,0-1.4-.49-1.4-1.49,0-1.24.58-1.86,1.75-1.86ZM69.27,32.52c0,1.11-.53,1.67-1.58,1.67s-1.58-.56-1.58-1.67.53-1.67,1.58-1.67,1.58.56,1.58,1.67ZM66.47,82.51c0-1.24.53-1.86,1.58-1.86s1.58.56,1.58,1.67-.53,1.67-1.58,1.67-1.58-.49-1.58-1.49ZM70.68,38.28c0,1.12-.53,1.67-1.58,1.67s-1.58-.56-1.58-1.67.53-1.67,1.58-1.67,1.58.56,1.58,1.67ZM71.03,76.37c0,1.11-.53,1.67-1.58,1.67s-1.58-.56-1.58-1.67.53-1.67,1.58-1.67,1.58.56,1.58,1.67ZM72.25,44.23c0,1.11-.53,1.67-1.58,1.67s-1.58-.56-1.58-1.67.53-1.67,1.58-1.67,1.58.56,1.58,1.67ZM71.03,68.01c.94,0,1.52.5,1.75,1.49,0,1.24-.47,1.86-1.4,1.86-.94.25-1.52-.25-1.75-1.49-.24-.99.23-1.61,1.4-1.86ZM72.96,50.73c0,1.11-.53,1.67-1.58,1.67s-1.58-.56-1.58-1.67.53-1.67,1.58-1.67,1.58.56,1.58,1.67ZM73.31,63.55c0,1.11-.53,1.67-1.58,1.67s-1.58-.56-1.58-1.67.53-1.67,1.58-1.67,1.58.56,1.58,1.67ZM70.33,56.86c0-1.12.53-1.67,1.58-1.67s1.58.56,1.58,1.67-.47,1.67-1.4,1.67c-1.17,0-1.75-.56-1.75-1.67Z" class="cls-1"/></g></svg>