<?xml version="1.0" encoding="UTF-8"?>
<svg id="Layer_2" data-name="Layer 2" xmlns="http://www.w3.org/2000/svg" viewBox="0 0 115.06 105.56">
  <defs>
    <style>
      .cls-1 {
        fill: #3c3c3b;
        stroke-width: 0px;
      }
    </style>
  </defs>
  <g id="W">
    <path class="cls-1" d="M.07,2.08C-.15,1.05.17.43,1.04.2c.97-.46,1.57-.11,1.78,1.03.32.8,0,1.43-.97,1.89-.87.23-1.46-.11-1.78-1.03ZM1.52,7.07c-.22-1.03.11-1.66.97-1.89.97-.46,1.57-.11,1.78,1.03.32.8,0,1.43-.97,1.89-.87.23-1.46-.11-1.78-1.03ZM3.15,12.39c-.32-.92,0-1.6.97-2.06.75-.23,1.35.11,1.78,1.03.22,1.03-.11,1.72-.97,2.06-.97.23-1.57-.11-1.78-1.03ZM4.44,17.2c-.22-.92.11-1.55.97-1.89.97-.23,1.57.11,1.78,1.03.21.46.21.86,0,1.2-.22.34-.49.57-.81.69-.87.34-1.51,0-1.95-1.03ZM5.9,22.35c-.22-1.03.11-1.66.97-1.89.87-.34,1.51,0,1.95,1.03.22.8-.11,1.43-.97,1.89-.97.23-1.62-.11-1.95-1.03ZM7.52,28.02c-.22-.8.11-1.43.97-1.89.97-.23,1.62.11,1.95,1.03.22,1.03-.11,1.66-.97,1.89-.87.34-1.51,0-1.95-1.03ZM9.3,34.2c-.22-1.03.11-1.66.97-1.89.97-.46,1.57-.11,1.78,1.03.43.8.11,1.43-.97,1.89-.87.23-1.46-.11-1.78-1.03ZM10.93,39.87c-.22-.8.11-1.43.97-1.89.97-.23,1.62.11,1.95,1.03.22,1.03-.11,1.66-.97,1.89-.87.34-1.51,0-1.95-1.03ZM12.55,45.2c-.43-1.03-.11-1.66.97-1.89.97-.46,1.57-.11,1.78,1.03.22.92-.11,1.55-.97,1.89-.97.23-1.57-.11-1.78-1.03ZM14.01,50.52c-.22-1.03.11-1.72.97-2.06.97-.23,1.57.11,1.78,1.03.33.92,0,1.6-.97,2.06-.76.23-1.35-.11-1.78-1.03ZM15.47,55.33c-.43-1.03-.11-1.66.97-1.89.97-.23,1.57.11,1.78,1.03.43,1.03.11,1.66-.97,1.89-.97.46-1.57.11-1.78-1.03ZM16.92,60.48c-.43-1.03-.11-1.66.97-1.89.97-.46,1.57-.11,1.78,1.03.43.8.11,1.43-.97,1.89-.97.23-1.57-.11-1.78-1.03ZM18.55,66.15c-.22-.92.1-1.55.97-1.89.97-.23,1.56.11,1.78,1.03.43,1.03.11,1.66-.97,1.89-.76.34-1.35,0-1.78-1.03ZM20.17,71.99c-.22-1.03.11-1.66.97-1.89.97-.46,1.57-.11,1.78,1.03.43.8.1,1.43-.97,1.89-.87.23-1.46-.11-1.78-1.03ZM21.79,77.66c-.22-.8.11-1.43.97-1.89.97-.23,1.62.11,1.95,1.03.22,1.03-.11,1.66-.97,1.89-.87.34-1.51,0-1.95-1.03ZM23.73,84.19c-.32-.92,0-1.6.97-2.06.97-.23,1.57.11,1.78,1.03.22,1.03-.11,1.72-.97,2.06-.97.23-1.57-.11-1.78-1.03ZM25.19,89.34c-.22-1.03.11-1.66.97-1.89.97-.23,1.57.11,1.78,1.03.43,1.03.11,1.66-.97,1.89-.76.46-1.35.11-1.78-1.03ZM26.65,94.32c-.43-1.03-.11-1.66.97-1.89.97-.46,1.57-.11,1.78,1.03.33.8,0,1.43-.97,1.89-.97.23-1.57-.11-1.78-1.03ZM28.11,99.48c-.32-.92,0-1.6.97-2.06.97-.23,1.57.11,1.78,1.03.33.92,0,1.6-.97,2.06-.97.23-1.57-.11-1.78-1.03ZM29.25,104.28c-.22-.92.1-1.6.97-2.06.86-.23,1.51.11,1.95,1.03.21.92-.11,1.6-.97,2.06-.87.23-1.51-.11-1.95-1.03ZM34.92,99.82c-.43.92-1.08,1.26-1.95,1.03-.87-.46-1.19-1.14-.97-2.06.43-.92,1.08-1.26,1.95-1.03.86.46,1.19,1.15.97,2.06ZM36.05,95.01c-.22.92-.81,1.26-1.78,1.03-.97-.46-1.3-1.14-.97-2.06.21-.92.81-1.26,1.78-1.03.97.46,1.3,1.15.97,2.06ZM37.51,89.86c-.22.92-.81,1.26-1.78,1.03-.97-.46-1.3-1.09-.97-1.89.21-1.14.81-1.49,1.78-1.03,1.08.23,1.4.86.97,1.89ZM38.97,84.88c-.43,1.15-1.03,1.49-1.78,1.03-1.08-.23-1.41-.86-.97-1.89.21-.92.81-1.26,1.78-1.03.86.23,1.19.86.97,1.89ZM40.43,79.72c-.22.92-.81,1.26-1.78,1.03-.87-.34-1.19-1.03-.97-2.06.21-.92.81-1.26,1.78-1.03.97.46,1.3,1.15.97,2.06ZM42.37,73.2c-.43,1.03-1.08,1.37-1.95,1.03-.87-.23-1.19-.86-.97-1.89.32-.92.97-1.26,1.95-1.03.86.46,1.19,1.09.97,1.89ZM44,67.53c-.33.92-.92,1.26-1.78,1.03-1.08-.46-1.41-1.09-.97-1.89.22-1.14.81-1.49,1.78-1.03.86.23,1.19.86.97,1.89ZM45.62,61.69c-.43,1.03-1.03,1.37-1.78,1.03-1.08-.23-1.41-.86-.97-1.89.22-.92.81-1.26,1.78-1.03.87.34,1.19.97.97,1.89ZM47.24,56.02c-.22.92-.81,1.26-1.78,1.03-1.08-.46-1.41-1.09-.97-1.89.21-1.14.81-1.49,1.78-1.03,1.08.23,1.4.86.97,1.89ZM48.7,50.87c-.22,1.15-.81,1.49-1.78,1.03-1.08-.23-1.41-.86-.97-1.89.21-.92.81-1.26,1.78-1.03,1.08.23,1.4.86.97,1.89ZM50.16,46.06c-.43.92-1.03,1.26-1.78,1.03-.97-.46-1.3-1.14-.97-2.06.21-.92.81-1.26,1.78-1.03.86.34,1.19,1.03.97,2.06ZM51.61,40.73c-.22.92-.81,1.26-1.78,1.03-.87-.34-1.19-.97-.97-1.89.21-1.14.81-1.49,1.78-1.03,1.08.23,1.4.86.97,1.89ZM53.24,35.41c-.43,1.03-1.08,1.37-1.95,1.03-.87-.23-1.19-.86-.97-1.89.32-.92.97-1.26,1.95-1.03.86.46,1.19,1.09.97,1.89ZM54.86,29.74c-.33.92-.92,1.26-1.78,1.03-1.08-.46-1.41-1.09-.97-1.89.22-1.14.81-1.49,1.78-1.03.86.23,1.19.86.97,1.89ZM56.64,23.56c-.43,1.03-1.08,1.37-1.95,1.03-.87-.23-1.19-.86-.97-1.89.32-.92.97-1.26,1.95-1.03.86.46,1.19,1.09.97,1.89ZM58.91,18.4c-.43,1.03-1.08,1.37-1.95,1.03-.87-.23-1.19-.86-.97-1.89.33-.92.97-1.26,1.95-1.03.86.46,1.19,1.09.97,1.89ZM58.75,23.73c-.22-.8.1-1.43.97-1.89.97-.23,1.62.11,1.95,1.03.21,1.03-.11,1.66-.97,1.89-.87.34-1.51,0-1.95-1.03ZM60.53,29.91c-.22-1.03.11-1.66.97-1.89.97-.46,1.57-.11,1.78,1.03.43.8.11,1.43-.97,1.89-.87.23-1.46-.11-1.78-1.03ZM62.15,35.58c-.22-.8.1-1.43.97-1.89.97-.23,1.62.11,1.95,1.03.21,1.03-.11,1.66-.97,1.89-.87.34-1.51,0-1.95-1.03ZM63.77,40.9c-.43-1.03-.11-1.66.97-1.89.97-.46,1.57-.11,1.78,1.03.21.92-.11,1.55-.97,1.89-.97.23-1.57-.11-1.78-1.03ZM65.23,46.23c-.22-1.03.11-1.72.97-2.06.97-.23,1.57.11,1.78,1.03.32.92,0,1.6-.97,2.06-.76.23-1.35-.11-1.78-1.03ZM66.69,51.04c-.43-1.03-.11-1.66.97-1.89.97-.23,1.57.11,1.78,1.03.43,1.03.11,1.66-.97,1.89-.97.46-1.57.11-1.78-1.03ZM68.15,56.19c-.43-1.03-.11-1.66.97-1.89.97-.46,1.57-.11,1.78,1.03.43.8.11,1.43-.97,1.89-.97.23-1.57-.11-1.78-1.03ZM69.77,61.86c-.22-.92.11-1.55.97-1.89.97-.23,1.57.11,1.78,1.03.43,1.03.1,1.66-.97,1.89-.76.34-1.35,0-1.78-1.03ZM71.39,67.7c-.22-1.03.11-1.66.97-1.89.97-.46,1.57-.11,1.78,1.03.43.8.11,1.43-.97,1.89-.87.23-1.46-.11-1.78-1.03ZM73.01,73.37c-.22-.8.1-1.43.97-1.89.97-.23,1.62.11,1.95,1.03.21,1.03-.11,1.66-.97,1.89-.87.34-1.51,0-1.95-1.03ZM74.96,79.89c-.33-.92,0-1.6.97-2.06.97-.23,1.56.11,1.78,1.03.21,1.03-.11,1.72-.97,2.06-.97.23-1.57-.11-1.78-1.03ZM76.42,85.05c-.22-1.03.1-1.66.97-1.89.97-.23,1.56.11,1.78,1.03.43,1.03.11,1.66-.97,1.89-.76.46-1.35.11-1.78-1.03ZM77.88,90.03c-.44-1.03-.11-1.66.97-1.89.97-.46,1.56-.11,1.78,1.03.32.8,0,1.43-.97,1.89-.97.23-1.57-.11-1.78-1.03ZM79.34,95.18c-.33-.92,0-1.6.97-2.06.97-.23,1.56.11,1.78,1.03.32.92,0,1.6-.97,2.06-.97.23-1.57-.11-1.78-1.03ZM80.47,99.99c-.22-.92.11-1.6.97-2.06.87-.23,1.51.11,1.95,1.03.22.92-.11,1.61-.97,2.06-.87.23-1.51-.11-1.95-1.03ZM85.82,104.46c-.43.92-1.08,1.26-1.95,1.03-.87-.46-1.19-1.14-.97-2.06.43-.92,1.08-1.26,1.95-1.03.87.46,1.19,1.15.97,2.06ZM86.95,99.65c-.22.92-.81,1.26-1.78,1.03-.97-.46-1.3-1.14-.97-2.06.21-.92.81-1.26,1.78-1.03.97.46,1.3,1.15.97,2.06ZM88.41,94.49c-.22.92-.81,1.26-1.78,1.03-.97-.46-1.3-1.09-.97-1.89.21-1.14.81-1.49,1.78-1.03,1.08.23,1.4.86.97,1.89ZM89.87,89.51c-.43,1.15-1.03,1.49-1.78,1.03-1.08-.23-1.41-.86-.97-1.89.21-.92.81-1.26,1.78-1.03.86.23,1.19.86.97,1.89ZM91.33,84.36c-.22.92-.81,1.26-1.78,1.03-.87-.34-1.19-1.03-.97-2.06.21-.92.81-1.26,1.78-1.03.97.46,1.3,1.15.97,2.06ZM93.28,77.83c-.43,1.03-1.08,1.37-1.95,1.03-.87-.23-1.19-.86-.97-1.89.33-.92.97-1.26,1.95-1.03.86.46,1.19,1.09.97,1.89ZM94.9,72.16c-.32.92-.92,1.26-1.78,1.03-1.08-.46-1.41-1.09-.97-1.89.21-1.14.81-1.49,1.78-1.03.86.23,1.19.86.97,1.89ZM96.52,66.32c-.43,1.03-1.03,1.37-1.78,1.03-1.08-.23-1.41-.86-.97-1.89.22-.92.81-1.26,1.78-1.03.86.34,1.19.97.97,1.89ZM98.14,60.66c-.22.92-.81,1.26-1.78,1.03-1.08-.46-1.41-1.09-.97-1.89.21-1.14.81-1.49,1.78-1.03,1.08.23,1.4.86.97,1.89ZM99.6,55.5c-.22,1.15-.81,1.49-1.78,1.03-1.08-.23-1.41-.86-.97-1.89.22-.92.81-1.26,1.78-1.03,1.08.23,1.4.86.97,1.89ZM101.06,50.69c-.43.92-1.03,1.26-1.78,1.03-.97-.46-1.3-1.14-.97-2.06.22-.92.81-1.26,1.78-1.03.87.34,1.19,1.03.97,2.06ZM102.52,45.37c-.22.92-.81,1.26-1.78,1.03-.87-.34-1.19-.97-.97-1.89.22-1.14.81-1.49,1.78-1.03,1.08.23,1.4.86.97,1.89ZM104.14,40.04c-.43,1.03-1.08,1.37-1.95,1.03-.87-.23-1.19-.86-.97-1.89.32-.92.97-1.26,1.95-1.03.86.46,1.19,1.09.97,1.89ZM105.76,34.38c-.33.92-.92,1.26-1.78,1.03-1.08-.46-1.41-1.09-.97-1.89.22-1.14.81-1.49,1.78-1.03.86.23,1.19.86.97,1.89ZM107.54,28.19c-.43,1.03-1.08,1.37-1.95,1.03-.87-.23-1.19-.86-.97-1.89.32-.92.97-1.26,1.95-1.03.86.46,1.19,1.09.97,1.89ZM109.16,22.52c-.32.92-.97,1.26-1.95,1.03-.87-.46-1.19-1.09-.97-1.89.43-1.03,1.08-1.37,1.95-1.03.86.23,1.19.86.97,1.89ZM110.62,17.37c-.43,1.03-1.08,1.37-1.95,1.03-.32-.11-.6-.34-.81-.69-.22-.34-.22-.74,0-1.2.21-.92.81-1.26,1.78-1.03.86.34,1.19.97.97,1.89ZM111.92,12.56c-.22.92-.81,1.26-1.78,1.03-.87-.34-1.19-1.03-.97-2.06.43-.92,1.03-1.26,1.78-1.03.97.46,1.3,1.15.97,2.06ZM113.54,7.24c-.32.92-.92,1.26-1.78,1.03-.97-.46-1.3-1.09-.97-1.89.21-1.14.81-1.49,1.78-1.03.86.23,1.19.86.97,1.89ZM115,2.26c-.32.92-.92,1.26-1.78,1.03-.97-.46-1.3-1.09-.97-1.89.21-1.14.81-1.49,1.78-1.03.86.23,1.19.86.97,1.89Z"/>
  </g>
</svg>