<svg xmlns="http://www.w3.org/2000/svg" id="Layer_2" data-name="Layer 2" viewBox="0 0 59.19 113.7"><defs><style>.cls-1{fill:#3c3c3b;stroke-width:0}</style></defs><g id="E"><path d="M0,112.03c0-1.12.53-1.67,1.58-1.67s1.58.56,1.58,1.67-.53,1.67-1.58,1.67-1.58-.56-1.58-1.67ZM.17,1.86C.17.74.7.19,1.75.19s1.58.56,1.58,1.67-.53,1.67-1.58,1.67S.17,2.98.17,1.86ZM.17,8c0-1.12.53-1.67,1.58-1.67s1.58.56,1.58,1.67-.53,1.67-1.58,1.67-1.58-.56-1.58-1.67ZM.17,13.58c0-1.12.53-1.67,1.58-1.67s1.58.56,1.58,1.67-.53,1.67-1.58,1.67-1.58-.56-1.58-1.67ZM.17,19.35c0-1.12.53-1.67,1.58-1.67s1.58.56,1.58,1.67-.53,1.67-1.58,1.67-1.58-.56-1.58-1.67ZM.17,25.87c0-1.12.53-1.67,1.58-1.67s1.58.56,1.58,1.67-.53,1.67-1.58,1.67-1.58-.56-1.58-1.67ZM.17,32.75c0-1.12.53-1.67,1.58-1.67s1.58.56,1.58,1.67-.53,1.67-1.58,1.67-1.58-.56-1.58-1.67ZM.17,39.27c0-1.12.53-1.67,1.58-1.67s1.58.56,1.58,1.67-.53,1.67-1.58,1.67-1.58-.56-1.58-1.67ZM.17,45.22c0-1.12.53-1.67,1.58-1.67s1.58.56,1.58,1.67-.53,1.67-1.58,1.67-1.58-.56-1.58-1.67ZM.17,51.18c0-1.12.53-1.67,1.58-1.67s1.58.56,1.58,1.67-.53,1.67-1.58,1.67-1.58-.56-1.58-1.67ZM.17,56.76c0-1.12.53-1.67,1.58-1.67s1.58.56,1.58,1.67-.53,1.67-1.58,1.67-1.58-.56-1.58-1.67ZM.17,62.53c0-1.12.53-1.67,1.58-1.67s1.58.56,1.58,1.67-.53,1.67-1.58,1.67-1.58-.56-1.58-1.67ZM.17,69.04c0-1.12.53-1.67,1.58-1.67s1.58.56,1.58,1.67-.53,1.67-1.58,1.67-1.58-.56-1.58-1.67ZM.17,75.55c0-1.12.53-1.67,1.58-1.67s1.58.56,1.58,1.67-.53,1.67-1.58,1.67-1.58-.56-1.58-1.67ZM.17,82.07c0-1.12.53-1.67,1.58-1.67s1.58.56,1.58,1.67-.53,1.67-1.58,1.67-1.58-.56-1.58-1.67ZM.17,89.33c0-1.12.53-1.67,1.58-1.67s1.58.56,1.58,1.67-.53,1.67-1.58,1.67-1.58-.56-1.58-1.67ZM.17,95.28c0-1.12.53-1.67,1.58-1.67s1.58.56,1.58,1.67-.53,1.67-1.58,1.67-1.58-.56-1.58-1.67ZM.17,100.86c0-1.12.53-1.67,1.58-1.67s1.58.56,1.58,1.67-.53,1.67-1.58,1.67-1.58-.56-1.58-1.67ZM.17,106.63c0-1.12.53-1.67,1.58-1.67s1.58.56,1.58,1.67-.53,1.67-1.58,1.67-1.58-.56-1.58-1.67ZM6.85,54.9c-1.05,0-1.58-.56-1.58-1.67s.53-1.67,1.58-1.67,1.58.56,1.58,1.67-.53,1.67-1.58,1.67ZM6.85,113.7c-1.05,0-1.58-.56-1.58-1.67s.53-1.67,1.58-1.67,1.58.56,1.58,1.67-.53,1.67-1.58,1.67ZM7.02,3.35c-1.05,0-1.58-.56-1.58-1.67s.53-1.67,1.58-1.67,1.58.56,1.58,1.67-.53,1.67-1.58,1.67ZM12.47,54.9c-1.05,0-1.58-.56-1.58-1.67s.53-1.67,1.58-1.67,1.58.56,1.58,1.67-.53,1.67-1.58,1.67ZM12.47,113.7c-1.05,0-1.58-.56-1.58-1.67s.53-1.67,1.58-1.67,1.58.56,1.58,1.67-.53,1.67-1.58,1.67ZM12.64,3.35c-1.05,0-1.58-.56-1.58-1.67s.53-1.67,1.58-1.67,1.58.56,1.58,1.67-.53,1.67-1.58,1.67ZM17.74,54.9c-1.05,0-1.58-.56-1.58-1.67s.53-1.67,1.58-1.67,1.58.56,1.58,1.67-.53,1.67-1.58,1.67ZM17.74,113.7c-1.05,0-1.58-.56-1.58-1.67s.53-1.67,1.58-1.67,1.58.56,1.58,1.67-.53,1.67-1.58,1.67ZM17.91,3.35c-1.05,0-1.58-.56-1.58-1.67s.53-1.67,1.58-1.67,1.58.56,1.58,1.67-.53,1.67-1.58,1.67ZM23.18,54.9c-1.05,0-1.58-.56-1.58-1.67s.53-1.67,1.58-1.67,1.58.56,1.58,1.67-.53,1.67-1.58,1.67ZM23.18,113.7c-1.05,0-1.58-.56-1.58-1.67s.53-1.67,1.58-1.67,1.58.56,1.58,1.67-.53,1.67-1.58,1.67ZM23.36,3.35c-1.05,0-1.58-.56-1.58-1.67s.53-1.67,1.58-1.67,1.58.56,1.58,1.67-.53,1.67-1.58,1.67ZM29.33,54.9c-1.05,0-1.58-.56-1.58-1.67s.53-1.67,1.58-1.67c.94,0,1.43.56,1.49,1.67.06,1.12-.44,1.67-1.49,1.67ZM29.33,113.7c-1.05,0-1.58-.56-1.58-1.67s.53-1.67,1.58-1.67c.94,0,1.43.56,1.49,1.67.06,1.12-.44,1.67-1.49,1.67ZM29.5,3.35c-1.05,0-1.58-.56-1.58-1.67s.53-1.67,1.58-1.67c.94,0,1.43.56,1.49,1.67.06,1.12-.44,1.67-1.49,1.67ZM34.77,54.9c-1.05,0-1.58-.56-1.58-1.67s.53-1.67,1.58-1.67,1.58.56,1.58,1.67-.53,1.67-1.58,1.67ZM34.77,113.7c-1.05,0-1.58-.56-1.58-1.67s.53-1.67,1.58-1.67,1.58.56,1.58,1.67-.53,1.67-1.58,1.67ZM34.95,3.35c-1.05,0-1.58-.56-1.58-1.67s.53-1.67,1.58-1.67,1.58.56,1.58,1.67-.53,1.67-1.58,1.67ZM40.92,54.9c-1.05,0-1.58-.56-1.58-1.67s.53-1.67,1.58-1.67,1.58.56,1.58,1.67-.53,1.67-1.58,1.67ZM40.92,113.7c-1.05,0-1.58-.56-1.58-1.67s.53-1.67,1.58-1.67,1.58.56,1.58,1.67-.53,1.67-1.58,1.67ZM41.1,3.35c-1.05,0-1.58-.56-1.58-1.67s.53-1.67,1.58-1.67,1.58.56,1.58,1.67-.53,1.67-1.58,1.67ZM46.54,113.7c-1.05,0-1.58-.56-1.58-1.67s.53-1.67,1.58-1.67,1.58.56,1.58,1.67-.53,1.67-1.58,1.67ZM46.72,3.35c-1.05,0-1.58-.56-1.58-1.67s.53-1.67,1.58-1.67,1.58.56,1.58,1.67-.53,1.67-1.58,1.67ZM52.16,113.7c-1.06,0-1.58-.56-1.58-1.67s.53-1.67,1.58-1.67,1.58.56,1.58,1.67-.53,1.67-1.58,1.67ZM52.34,3.35c-1.05,0-1.58-.56-1.58-1.67s.53-1.67,1.58-1.67,1.58.56,1.58,1.67-.53,1.67-1.58,1.67ZM57.43,113.7c-1.05,0-1.58-.56-1.58-1.67s.53-1.67,1.58-1.67,1.58.56,1.58,1.67-.53,1.67-1.58,1.67ZM57.6,3.35c-1.05,0-1.58-.56-1.58-1.67s.53-1.67,1.58-1.67,1.58.56,1.58,1.67-.53,1.67-1.58,1.67Z" class="cls-1"/></g></svg>