<?xml version="1.0" encoding="UTF-8"?>
<svg id="Layer_2" data-name="Layer 2" xmlns="http://www.w3.org/2000/svg" viewBox="0 0 71.6 109.23">
  <defs>
    <style>
      .cls-1 {
        fill: #3c3c3b;
        stroke-width: 0px;
      }
    </style>
  </defs>
  <g id="T">
    <path class="cls-1" d="M1.52,3.23c-1.02,0-1.52-.54-1.52-1.61S.51,0,1.52,0s1.52.54,1.52,1.61-.51,1.61-1.52,1.61ZM6.94,3.23c-1.02,0-1.52-.54-1.52-1.61s.51-1.61,1.52-1.61,1.52.54,1.52,1.61-.51,1.61-1.52,1.61ZM11.34,3.23c-1.02,0-1.52-.54-1.52-1.61s.51-1.61,1.52-1.61,1.52.54,1.52,1.61-.51,1.61-1.52,1.61ZM16.76,3.23c-1.02,0-1.52-.54-1.52-1.61s.51-1.61,1.52-1.61,1.52.54,1.52,1.61-.51,1.61-1.52,1.61ZM21.83,3.23c-1.02,0-1.52-.54-1.52-1.61s.51-1.61,1.52-1.61,1.52.54,1.52,1.61-.51,1.61-1.52,1.61ZM27.08,3.23c-1.02,0-1.52-.54-1.52-1.61s.51-1.61,1.52-1.61,1.52.54,1.52,1.61-.51,1.61-1.52,1.61ZM33.01,3.23c-1.02,0-1.52-.54-1.52-1.61s.51-1.61,1.52-1.61,1.52.54,1.52,1.61-.51,1.61-1.52,1.61ZM34.02,7.17c0-1.08.51-1.61,1.53-1.61s1.52.54,1.52,1.61-.51,1.61-1.52,1.61-1.53-.54-1.53-1.61ZM34.02,12.55c0-1.08.51-1.61,1.53-1.61s1.52.54,1.52,1.61-.51,1.61-1.52,1.61-1.53-.54-1.53-1.61ZM34.02,18.11c0-1.08.51-1.61,1.53-1.61s1.52.54,1.52,1.61-.51,1.61-1.52,1.61-1.53-.54-1.53-1.61ZM34.02,24.39c0-1.08.51-1.61,1.53-1.61s1.52.54,1.52,1.61-.51,1.61-1.52,1.61-1.53-.54-1.53-1.61ZM34.02,31.03c0-1.08.51-1.61,1.53-1.61s1.52.54,1.52,1.61-.51,1.61-1.52,1.61-1.53-.54-1.53-1.61ZM34.02,37.31c0-1.08.51-1.61,1.53-1.61s1.52.54,1.52,1.61-.51,1.61-1.52,1.61-1.53-.54-1.53-1.61ZM34.02,43.05c0-1.08.51-1.61,1.53-1.61s1.52.54,1.52,1.61-.51,1.61-1.52,1.61-1.53-.54-1.53-1.61ZM34.02,48.78c0-1.08.51-1.61,1.53-1.61s1.52.54,1.52,1.61-.51,1.61-1.52,1.61-1.53-.54-1.53-1.61ZM34.02,54.17c0-1.08.51-1.61,1.53-1.61s1.52.54,1.52,1.61-.51,1.61-1.52,1.61-1.53-.54-1.53-1.61ZM34.02,59.73c0-1.08.51-1.61,1.53-1.61s1.52.54,1.52,1.61-.51,1.61-1.52,1.61-1.53-.54-1.53-1.61ZM34.02,66c0-1.08.51-1.61,1.53-1.61s1.52.54,1.52,1.61-.51,1.61-1.52,1.61-1.53-.54-1.53-1.61ZM34.02,72.28c0-1.08.51-1.61,1.53-1.61s1.52.54,1.52,1.61-.51,1.61-1.52,1.61-1.53-.54-1.53-1.61ZM34.02,78.56c0-1.08.51-1.61,1.53-1.61s1.52.54,1.52,1.61-.51,1.61-1.52,1.61-1.53-.54-1.53-1.61ZM34.02,85.55c0-1.08.51-1.61,1.53-1.61s1.52.54,1.52,1.61-.51,1.61-1.52,1.61-1.53-.54-1.53-1.61ZM34.02,91.29c0-1.08.51-1.61,1.53-1.61s1.52.54,1.52,1.61-.51,1.61-1.52,1.61-1.53-.54-1.53-1.61ZM34.02,96.67c0-1.08.51-1.61,1.53-1.61s1.52.54,1.52,1.61-.51,1.61-1.52,1.61-1.53-.54-1.53-1.61ZM34.02,102.23c0-1.08.51-1.61,1.53-1.61s1.52.54,1.52,1.61-.51,1.61-1.52,1.61-1.53-.54-1.53-1.61ZM34.02,107.61c0-1.08.51-1.61,1.53-1.61s1.52.54,1.52,1.61-.51,1.61-1.52,1.61-1.53-.54-1.53-1.61ZM38.42,3.23c-1.02,0-1.52-.54-1.52-1.61s.51-1.61,1.52-1.61,1.52.54,1.52,1.61-.51,1.61-1.52,1.61ZM44.35,3.23c-1.02,0-1.52-.54-1.52-1.61s.51-1.61,1.52-1.61,1.52.54,1.52,1.61-.51,1.61-1.52,1.61ZM49.77,3.23c-1.02,0-1.52-.54-1.52-1.61s.51-1.61,1.52-1.61,1.52.54,1.52,1.61-.51,1.61-1.52,1.61ZM55.18,3.23c-1.02,0-1.52-.54-1.52-1.61s.51-1.61,1.52-1.61,1.52.54,1.52,1.61-.51,1.61-1.52,1.61ZM60.26,3.23c-1.02,0-1.52-.54-1.52-1.61s.51-1.61,1.52-1.61,1.52.54,1.52,1.61-.51,1.61-1.52,1.61ZM65,3.23c-1.02,0-1.52-.54-1.52-1.61s.51-1.61,1.52-1.61,1.52.54,1.52,1.61-.51,1.61-1.52,1.61ZM70.08,3.23c-1.02,0-1.52-.54-1.52-1.61s.51-1.61,1.52-1.61,1.52.54,1.52,1.61-.51,1.61-1.52,1.61Z"/>
  </g>
</svg>