<?xml version="1.0" encoding="UTF-8"?>
<svg id="Layer_2" data-name="Layer 2" xmlns="http://www.w3.org/2000/svg" viewBox="0 0 58.57 108.88">
  <defs>
    <style>
      .cls-1 {
        fill: #3c3c3b;
        stroke-width: 0px;
      }
    </style>
  </defs>
  <g id="Z">
    <path class="cls-1" d="M.36,106.17c.45-.84,1.14-.96,2.05-.36.34.12.6.39.77.81.17.43.14.82-.08,1.18-.68.84-1.48,1.09-2.39.72-.8-.6-.91-1.39-.34-2.35ZM2.58,3.29c-1.03,0-1.54-.54-1.54-1.63S1.55.03,2.58.03s1.54.54,1.54,1.63-.51,1.63-1.54,1.63ZM3.09,101.09c.57-.84,1.37-1.09,2.39-.72.8.61.91,1.39.34,2.35-.23.24-.51.45-.86.63-.34.18-.74.16-1.2-.09-.8-.48-1.03-1.2-.68-2.17ZM4.97,107.25c0-1.09.51-1.63,1.54-1.63s1.54.54,1.54,1.63-.51,1.63-1.54,1.63-1.54-.54-1.54-1.63ZM5.83,96.02c.23-.24.51-.45.85-.64.34-.18.74-.15,1.2.09.45.24.71.6.77,1.09.06.48-.03.84-.26,1.09-.57.84-1.26,1.09-2.05.72-.91-.6-1.08-1.39-.51-2.35ZM8.05,3.29c-1.03,0-1.54-.54-1.54-1.63S7.02.03,8.05.03s1.54.54,1.54,1.63-.51,1.63-1.54,1.63ZM8.39,91.31c.11-.84.74-1.03,1.88-.54.91.6,1.2,1.39.85,2.35-.68.97-1.48,1.09-2.39.36-.8-.48-.91-1.2-.34-2.17ZM11.64,108.7c-1.03,0-1.54-.54-1.54-1.63s.51-1.63,1.54-1.63,1.54.54,1.54,1.63-.51,1.63-1.54,1.63ZM11.13,86.42c.11-.36.4-.63.86-.82.45-.18.8-.21,1.03-.09.8.61.97,1.39.51,2.35-.23.36-.54.63-.94.82-.4.18-.77.15-1.11-.09-.34-.24-.57-.57-.68-1-.12-.42,0-.82.34-1.18ZM13.18,3.29c-1.03,0-1.54-.54-1.54-1.63S12.15.03,13.18.03s1.54.54,1.54,1.63-.51,1.63-1.54,1.63ZM14.2,80.26c.45-1.09,1.14-1.33,2.05-.72.34.12.57.43.68.91.11.48.06.85-.17,1.09-.46,1.09-1.14,1.33-2.05.72-.34-.12-.57-.42-.68-.91-.11-.48-.06-.84.17-1.09ZM17.11,108.7c-1.03,0-1.54-.54-1.54-1.63s.51-1.63,1.54-1.63,1.54.54,1.54,1.63-.51,1.63-1.54,1.63ZM18.48,3.29c-1.03,0-1.54-.54-1.54-1.63S17.45.03,18.48.03s1.54.54,1.54,1.63-.51,1.63-1.54,1.63ZM17.11,74.47c.68-.72,1.42-.84,2.22-.36.23.24.43.57.6,1,.17.43.14.82-.08,1.18-.68.84-1.43,1.03-2.22.54-.68-.6-.85-1.39-.51-2.35ZM20.02,69.22c.45-1.09,1.14-1.39,2.05-.91.8.48.97,1.27.51,2.35-.23.48-.54.76-.94.81-.4.06-.77.03-1.11-.09-.91-.72-1.08-1.45-.51-2.17ZM22.24,108.7c-1.03,0-1.54-.54-1.54-1.63s.51-1.63,1.54-1.63,1.54.54,1.54,1.63-.51,1.63-1.54,1.63ZM22.75,63.42c.57-.72,1.31-.91,2.22-.54.91.48,1.14,1.21.68,2.17-.57.97-1.31,1.15-2.22.54-.23-.12-.46-.39-.68-.81-.23-.42-.23-.88,0-1.36ZM24.46,3.29c-1.03,0-1.54-.54-1.54-1.63S23.43.03,24.46.03c.91,0,1.39.54,1.45,1.63.06,1.09-.43,1.63-1.45,1.63ZM25.31,58.71c.8-1.09,1.59-1.27,2.39-.54.8.48.97,1.15.51,1.99-.57,1.09-1.31,1.33-2.22.72-.91-.48-1.14-1.2-.68-2.17ZM27.54,108.7c-1.03,0-1.54-.54-1.54-1.63s.51-1.63,1.54-1.63,1.54.54,1.54,1.63-.51,1.63-1.54,1.63ZM27.88,54c.57-1.09,1.31-1.33,2.22-.72.34.12.57.42.68.91.11.48.06.84-.17,1.09-.23.72-.91,1.09-2.05,1.09-.92-.48-1.14-1.27-.68-2.35ZM29.76,3.29c-1.03,0-1.54-.54-1.54-1.63S28.73.03,29.76.03s1.54.54,1.54,1.63-.51,1.63-1.54,1.63ZM30.61,48.75c.23-.48.54-.75.94-.82.4-.06.77.03,1.11.27.91.61,1.14,1.33.68,2.17-.68.97-1.37,1.15-2.05.54-.8-.48-1.03-1.21-.68-2.17ZM33.52,108.7c-1.03,0-1.54-.54-1.54-1.63s.51-1.63,1.54-1.63c.91,0,1.39.54,1.45,1.63.06,1.09-.43,1.63-1.45,1.63ZM33.35,43.86c.45-1.2,1.14-1.45,2.05-.72.8.61.97,1.39.51,2.35-.57.84-1.26,1.03-2.05.54-1.03-.72-1.2-1.45-.51-2.17ZM35.74,3.29c-1.03,0-1.54-.54-1.54-1.63S34.72.03,35.74.03s1.54.54,1.54,1.63-.51,1.63-1.54,1.63ZM36.08,38.06c.23-.24.54-.45.94-.64.4-.18.83-.15,1.28.09.8.48,1.03,1.21.68,2.17-.57.97-1.26,1.21-2.05.72-.8-.48-1.08-1.27-.86-2.35ZM38.82,108.7c-1.03,0-1.54-.54-1.54-1.63s.51-1.63,1.54-1.63,1.54.54,1.54,1.63-.51,1.63-1.54,1.63ZM39.33,32.27c.23-.48.54-.75.94-.81.4-.06.77.03,1.11.27.91.72,1.08,1.45.51,2.17-.34.97-1.03,1.21-2.05.72-.8-.48-.97-1.27-.51-2.35ZM41.21,3.29c-1.03,0-1.54-.54-1.54-1.63S40.18.03,41.21.03s1.54.54,1.54,1.63-.51,1.63-1.54,1.63ZM42.24,26.83c.45-.84,1.14-1.09,2.05-.72.68.48.86,1.33.51,2.54-.68.72-1.43.85-2.22.36-.23-.24-.43-.54-.6-.91-.17-.36-.08-.78.26-1.27ZM44.8,108.7c-1.03,0-1.54-.54-1.54-1.63s.51-1.63,1.54-1.63,1.54.54,1.54,1.63-.51,1.63-1.54,1.63ZM44.8,21.94c.11-.48.37-.78.77-.91.4-.12.83-.06,1.28.18.45.24.74.57.86,1,.11.43.06.82-.17,1.18-.8.84-1.6,1.09-2.39.72-.57-.6-.68-1.33-.34-2.17ZM46.68,3.29c-1.03,0-1.54-.54-1.54-1.63S45.66.03,46.68.03s1.54.54,1.54,1.63-.51,1.63-1.54,1.63ZM47.19,17.05c.23-.36.57-.6,1.03-.72.45-.12.85,0,1.19.36.68.48.86,1.21.51,2.17-.57.72-1.31.91-2.22.54-.23-.24-.43-.57-.6-1-.17-.42-.14-.88.09-1.36ZM50.27,108.7c-1.03,0-1.54-.54-1.54-1.63s.51-1.63,1.54-1.63,1.54.54,1.54,1.63-.51,1.63-1.54,1.63ZM49.93,12.16c.23-.97.91-1.21,2.05-.72.91.72,1.08,1.45.51,2.17-.12.48-.4.79-.86.91-.46.12-.8.06-1.03-.18-.46-.24-.71-.57-.77-.99-.06-.42-.03-.82.08-1.18ZM51.81,3.29c-1.03,0-1.54-.54-1.54-1.63S50.78.03,51.81.03s1.54.54,1.54,1.63-.51,1.63-1.54,1.63ZM52.32,6.91c.23-.36.51-.64.85-.81.34-.18.74-.15,1.2.09.91.72,1.03,1.45.34,2.17-.12.48-.4.79-.85.91-.46.12-.8.06-1.03-.18-.46-.12-.71-.42-.77-.91-.06-.48.03-.91.26-1.27ZM55.74,108.7c-1.03,0-1.54-.54-1.54-1.63s.51-1.63,1.54-1.63,1.54.54,1.54,1.63-.51,1.63-1.54,1.63ZM55.74.93c.23-.36.51-.63.86-.82.34-.18.74-.15,1.19.09.91.72,1.03,1.45.34,2.17-.12.48-.4.79-.86.91-.46.12-.8.06-1.03-.18-.46-.12-.71-.42-.77-.91-.06-.48.03-.91.26-1.27Z"/>
  </g>
</svg>