<?xml version="1.0" encoding="UTF-8"?>
<svg id="Layer_2" data-name="Layer 2" xmlns="http://www.w3.org/2000/svg" viewBox="0 0 84.01 107.14">
  <defs>
    <style>
      .cls-1 {
        fill: #3c3c3b;
        stroke-width: 0px;
      }
    </style>
  </defs>
  <g id="M">
    <path class="cls-1" d="M0,105.55c0-1.06.5-1.58,1.49-1.58s1.49.53,1.49,1.58-.5,1.58-1.49,1.58-1.49-.53-1.49-1.58ZM.16,1.58C.16.53.66,0,1.66,0s1.49.53,1.49,1.58-.5,1.58-1.49,1.58S.16,2.64.16,1.58ZM.16,7.21c0-1.06.5-1.58,1.49-1.58s1.49.53,1.49,1.58-.5,1.58-1.49,1.58-1.49-.53-1.49-1.58ZM.16,12.49c0-1.06.5-1.58,1.49-1.58s1.49.53,1.49,1.58-.5,1.58-1.49,1.58-1.49-.53-1.49-1.58ZM.16,17.94c0-1.06.5-1.58,1.49-1.58s1.49.53,1.49,1.58-.5,1.58-1.49,1.58-1.49-.53-1.49-1.58ZM.16,24.1c0-1.06.5-1.58,1.49-1.58s1.49.53,1.49,1.58-.5,1.58-1.49,1.58-1.49-.53-1.49-1.58ZM.16,30.61c0-1.06.5-1.58,1.49-1.58s1.49.53,1.49,1.58-.5,1.58-1.49,1.58-1.49-.53-1.49-1.58ZM.16,36.77c0-1.06.5-1.58,1.49-1.58s1.49.53,1.49,1.58-.5,1.58-1.49,1.58-1.49-.53-1.49-1.58ZM.16,42.4c0-1.06.5-1.58,1.49-1.58s1.49.53,1.49,1.58-.5,1.58-1.49,1.58-1.49-.53-1.49-1.58ZM.16,48.03c0-1.06.5-1.58,1.49-1.58s1.49.53,1.49,1.58-.5,1.58-1.49,1.58-1.49-.53-1.49-1.58ZM.16,53.3c0-1.06.5-1.58,1.49-1.58s1.49.53,1.49,1.58-.5,1.58-1.49,1.58-1.49-.53-1.49-1.58ZM.16,58.76c0-1.06.5-1.58,1.49-1.58s1.49.53,1.49,1.58-.5,1.58-1.49,1.58-1.49-.53-1.49-1.58ZM.16,64.91c0-1.06.5-1.58,1.49-1.58s1.49.53,1.49,1.58-.5,1.58-1.49,1.58-1.49-.53-1.49-1.58ZM.16,71.07c0-1.06.5-1.58,1.49-1.58s1.49.53,1.49,1.58-.5,1.58-1.49,1.58-1.49-.53-1.49-1.58ZM.16,77.23c0-1.06.5-1.58,1.49-1.58s1.49.53,1.49,1.58-.5,1.58-1.49,1.58-1.49-.53-1.49-1.58ZM.16,84.09c0-1.06.5-1.58,1.49-1.58s1.49.53,1.49,1.58-.5,1.58-1.49,1.58-1.49-.53-1.49-1.58ZM.16,89.72c0-1.06.5-1.58,1.49-1.58s1.49.53,1.49,1.58-.5,1.58-1.49,1.58-1.49-.53-1.49-1.58ZM.16,95c0-1.06.5-1.58,1.49-1.58s1.49.53,1.49,1.58-.5,1.58-1.49,1.58-1.49-.53-1.49-1.58ZM.16,100.45c0-1.06.5-1.58,1.49-1.58s1.49.53,1.49,1.58-.5,1.58-1.49,1.58-1.49-.53-1.49-1.58ZM3.65,5.98c-.33-.82-.06-1.47.83-1.94.88-.35,1.55-.12,1.99.7.33,1.06.05,1.76-.83,2.11-.89.47-1.55.18-1.99-.88ZM5.81,11.26c-.33-1.06-.06-1.76.83-2.11.33-.24.69-.26,1.08-.09.39.18.64.5.75.97.44.94.22,1.64-.66,2.11-.89.35-1.55.06-1.99-.88ZM7.8,16.01c-.44-.82-.22-1.47.66-1.94.88-.35,1.55-.12,1.99.7.33,1.06.05,1.76-.83,2.11-.89.47-1.49.18-1.83-.88ZM9.79,21.11c-.33-1.06-.06-1.76.83-2.11.77-.47,1.38-.18,1.83.88.33.94.11,1.64-.66,2.11-1,.35-1.66.06-1.99-.88ZM11.95,26.74c-.22-.94.05-1.64.83-2.11.88-.35,1.55-.06,1.99.88.33,1.06.05,1.76-.83,2.11-.89.47-1.55.18-1.99-.88ZM14.44,32.72c-.44-.94-.17-1.64.83-2.11.33-.24.69-.24,1.08,0,.39.24.64.53.75.88.33.94.11,1.64-.66,2.11-1,.35-1.66.06-1.99-.88ZM16.77,38.35c-.44-.82-.22-1.47.66-1.94.88-.35,1.55-.12,1.99.7.33,1.06.05,1.76-.83,2.11-.89.47-1.49.18-1.83-.88ZM18.76,43.63c-.33-1.06-.06-1.76.83-2.11.88-.47,1.55-.18,1.99.88.44.94.16,1.64-.83,2.11-.89.35-1.55.06-1.99-.88ZM20.92,48.73c-.22-.35-.25-.73-.08-1.14.16-.41.41-.67.75-.79.88-.35,1.55-.12,1.99.7.33,1.06.05,1.76-.83,2.11-.89.47-1.49.18-1.83-.88ZM22.74,53.66c-.33-.94-.06-1.64.83-2.11,1-.35,1.66-.06,1.99.88.33,1.06.05,1.76-.83,2.11-.89.47-1.55.18-1.99-.88ZM24.9,58.58c-.44-.82-.22-1.47.66-1.94.88-.35,1.55-.12,1.99.7.33,1.06.05,1.76-.83,2.11-.33.24-.69.26-1.08.09-.39-.18-.64-.5-.75-.97ZM27.06,64.39c-.33-1.06-.06-1.76.83-2.11,1-.35,1.66-.06,1.99.88.22.35.25.73.08,1.14-.17.41-.47.68-.91.79-.89.35-1.55.12-1.99-.7ZM29.39,70.02c-.33-1.06-.06-1.76.83-2.11.33-.24.69-.26,1.08-.09.39.18.64.5.75.97.44.94.22,1.64-.66,2.11-1,.35-1.66.06-1.99-.88ZM31.71,75.65c-.45-.94-.22-1.64.66-2.11,1-.35,1.66-.06,1.99.88.33,1.06.05,1.76-.83,2.11-.89.47-1.49.18-1.83-.88ZM34.2,81.98c-.33-1.06-.06-1.76.83-2.11.77-.47,1.38-.18,1.83.88.33.94.11,1.64-.66,2.11-1,.35-1.66.06-1.99-.88ZM36.19,87.08c-.33-.82-.06-1.47.83-1.94.88-.35,1.55-.12,1.99.7.33,1.06.05,1.76-.83,2.11-.89.47-1.55.18-1.99-.88ZM38.19,92.01c-.33-1.06-.06-1.76.83-2.11.88-.47,1.55-.18,1.99.88.33.94.05,1.64-.83,2.11-1,.35-1.66.06-1.99-.88ZM40.18,97.11c-.33-1.06-.06-1.76.83-2.11,1-.35,1.66-.06,1.99.88.44.94.17,1.58-.83,1.94-.89.35-1.55.12-1.99-.7ZM43.33,97.46c-.44.82-1.11,1.06-1.99.7-1-.35-1.27-1-.83-1.94.33-.94,1-1.23,1.99-.88.88.35,1.16,1.06.83,2.11ZM45.32,92.36c-.33.94-1,1.23-1.99.88-.89-.47-1.16-1.17-.83-2.11.44-1.06,1.11-1.35,1.99-.88.88.35,1.16,1.06.83,2.11ZM47.32,87.43c-.44,1.06-1.11,1.35-1.99.88-.89-.35-1.16-1.06-.83-2.11.44-.82,1.11-1.06,1.99-.7.88.47,1.16,1.11.83,1.94ZM49.31,82.33c-.33.94-1,1.23-1.99.88-.77-.47-1-1.17-.66-2.11.33-1.06.94-1.35,1.83-.88.88.35,1.16,1.06.83,2.11ZM51.8,76c-.45,1.06-1.05,1.35-1.83.88-.89-.35-1.16-1.06-.83-2.11.33-.94,1-1.23,1.99-.88.88.47,1.11,1.17.66,2.11ZM54.12,70.37c-.33.94-1,1.23-1.99.88-.89-.47-1.11-1.17-.66-2.11.11-.47.36-.79.75-.97.39-.18.75-.15,1.08.09.88.35,1.16,1.06.83,2.11ZM56.45,64.74c-.44.82-1.11,1.06-1.99.7-.44-.12-.75-.38-.91-.79-.17-.41-.14-.79.08-1.14.33-.94,1-1.23,1.99-.88.88.35,1.16,1.06.83,2.11ZM58.61,58.93c-.11.47-.36.79-.75.97-.39.18-.75.15-1.08-.09-.89-.35-1.16-1.06-.83-2.11.44-.82,1.11-1.06,1.99-.7.89.47,1.11,1.11.66,1.94ZM60.77,54.01c-.44,1.06-1.11,1.35-1.99.88-.89-.35-1.16-1.06-.83-2.11.33-.94,1-1.23,1.99-.88.89.47,1.16,1.17.83,2.11ZM62.59,49.08c-.44,1.06-1.05,1.35-1.83.88-.89-.35-1.16-1.06-.83-2.11.44-.82,1.11-1.06,1.99-.7.33.12.58.38.75.79.17.41.14.79-.08,1.14ZM64.75,43.98c-.44.94-1.11,1.23-1.99.88-1-.47-1.27-1.17-.83-2.11.44-1.06,1.11-1.35,1.99-.88.89.35,1.16,1.06.83,2.11ZM66.74,38.7c-.44,1.06-1.05,1.35-1.83.88-.89-.35-1.16-1.06-.83-2.11.44-.82,1.11-1.06,1.99-.7.88.47,1.11,1.11.66,1.94ZM69.07,33.07c-.33.94-1,1.23-1.99.88-.77-.47-1-1.17-.66-2.11.11-.35.36-.64.75-.88.39-.24.75-.24,1.08,0,1,.47,1.27,1.17.83,2.11ZM71.56,27.09c-.44,1.06-1.11,1.35-1.99.88-.89-.35-1.16-1.06-.83-2.11.44-.94,1.11-1.23,1.99-.88.77.47,1.05,1.17.83,2.11ZM73.72,21.46c-.33.94-1,1.23-1.99.88-.78-.47-1-1.17-.66-2.11.33-1.06.94-1.35,1.83-.88.88.35,1.16,1.06.83,2.11ZM75.71,16.36c-.44,1.06-1.05,1.35-1.83.88-.89-.35-1.16-1.06-.83-2.11.44-.82,1.11-1.06,1.99-.7.88.47,1.11,1.11.66,1.94ZM77.7,11.61c-.44.94-1.11,1.23-1.99.88-.89-.47-1.11-1.17-.66-2.11.11-.47.36-.79.75-.97.39-.18.75-.15,1.08.09.88.35,1.16,1.06.83,2.11ZM80.19,6.33c-.44,1.06-1.11,1.35-1.99.88-.89-.35-1.16-1.06-.83-2.11.44-.82,1.1-1.06,1.99-.7.88.47,1.16,1.11.83,1.94ZM80.36,1.58c0-1.06.5-1.58,1.49-1.58s1.49.53,1.49,1.58-.5,1.58-1.49,1.58-1.49-.53-1.49-1.58ZM80.85,105.55c0-1.06.5-1.58,1.49-1.58s1.49.53,1.49,1.58-.5,1.58-1.49,1.58-1.49-.53-1.49-1.58ZM81.02,7.21c0-1.06.5-1.58,1.49-1.58s1.49.53,1.49,1.58-.5,1.58-1.49,1.58-1.49-.53-1.49-1.58ZM81.02,12.49c0-1.06.5-1.58,1.49-1.58s1.49.53,1.49,1.58-.5,1.58-1.49,1.58-1.49-.53-1.49-1.58ZM81.02,17.94c0-1.06.5-1.58,1.49-1.58s1.49.53,1.49,1.58-.5,1.58-1.49,1.58-1.49-.53-1.49-1.58ZM81.02,24.1c0-1.06.5-1.58,1.49-1.58s1.49.53,1.49,1.58-.5,1.58-1.49,1.58-1.49-.53-1.49-1.58ZM81.02,30.61c0-1.06.5-1.58,1.49-1.58s1.49.53,1.49,1.58-.5,1.58-1.49,1.58-1.49-.53-1.49-1.58ZM81.02,36.77c0-1.06.5-1.58,1.49-1.58s1.49.53,1.49,1.58-.5,1.58-1.49,1.58-1.49-.53-1.49-1.58ZM81.02,42.4c0-1.06.5-1.58,1.49-1.58s1.49.53,1.49,1.58-.5,1.58-1.49,1.58-1.49-.53-1.49-1.58ZM81.02,48.03c0-1.06.5-1.58,1.49-1.58s1.49.53,1.49,1.58-.5,1.58-1.49,1.58-1.49-.53-1.49-1.58ZM81.02,53.3c0-1.06.5-1.58,1.49-1.58s1.49.53,1.49,1.58-.5,1.58-1.49,1.58-1.49-.53-1.49-1.58ZM81.02,58.76c0-1.06.5-1.58,1.49-1.58s1.49.53,1.49,1.58-.5,1.58-1.49,1.58-1.49-.53-1.49-1.58ZM81.02,64.91c0-1.06.5-1.58,1.49-1.58s1.49.53,1.49,1.58-.5,1.58-1.49,1.58-1.49-.53-1.49-1.58ZM81.02,71.07c0-1.06.5-1.58,1.49-1.58s1.49.53,1.49,1.58-.5,1.58-1.49,1.58-1.49-.53-1.49-1.58ZM81.02,77.23c0-1.06.5-1.58,1.49-1.58s1.49.53,1.49,1.58-.5,1.58-1.49,1.58-1.49-.53-1.49-1.58ZM81.02,84.09c0-1.06.5-1.58,1.49-1.58s1.49.53,1.49,1.58-.5,1.58-1.49,1.58-1.49-.53-1.49-1.58ZM81.02,89.72c0-1.06.5-1.58,1.49-1.58s1.49.53,1.49,1.58-.5,1.58-1.49,1.58-1.49-.53-1.49-1.58ZM81.02,95c0-1.06.5-1.58,1.49-1.58s1.49.53,1.49,1.58-.5,1.58-1.49,1.58-1.49-.53-1.49-1.58ZM81.02,100.45c0-1.06.5-1.58,1.49-1.58s1.49.53,1.49,1.58-.5,1.58-1.49,1.58-1.49-.53-1.49-1.58Z"/>
  </g>
</svg>