<svg xmlns="http://www.w3.org/2000/svg" id="Layer_2" data-name="Layer 2" viewBox="0 0 69.15 113.51"><defs><style>.cls-1{fill:#3c3c3b;stroke-width:0}</style></defs><g id="G"><path d="M3.01,60.81c0,1.06-.56,1.59-1.67,1.59-.89,0-1.34-.53-1.34-1.59s.5-1.59,1.5-1.59,1.5.53,1.5,1.59ZM3.01,54.54c0,1.06-.56,1.59-1.67,1.59-.89,0-1.34-.53-1.34-1.59s.5-1.59,1.5-1.59,1.5.53,1.5,1.59ZM.17,67.18c0-1.06.5-1.59,1.5-1.59s1.5.53,1.5,1.59-.5,1.59-1.5,1.59-1.5-.53-1.5-1.59ZM.5,48.13c0-1.06.5-1.59,1.5-1.59s1.5.53,1.5,1.59-.5,1.59-1.5,1.59-1.5-.53-1.5-1.59ZM2.34,71.42c1.11.24,1.56.83,1.34,1.77-.23,1.18-.78,1.65-1.67,1.42-.89,0-1.34-.59-1.34-1.77.22-.94.78-1.42,1.67-1.42ZM1.17,41.94c0-1.06.5-1.59,1.5-1.59s1.5.53,1.5,1.59-.5,1.59-1.5,1.59-1.5-.53-1.5-1.59ZM2.34,79.38c0-1.06.5-1.59,1.5-1.59s1.5.53,1.5,1.59-.5,1.59-1.5,1.59-1.5-.53-1.5-1.59ZM2.67,36.27c0-1.06.5-1.59,1.5-1.59s1.5.53,1.5,1.59-.5,1.59-1.5,1.59-1.5-.53-1.5-1.59ZM6.68,85.22c0,.95-.5,1.42-1.5,1.42s-1.5-.53-1.5-1.59.5-1.59,1.5-1.59,1.5.59,1.5,1.77ZM4.01,30.79c0-1.06.5-1.59,1.5-1.59s1.5.53,1.5,1.59-.5,1.59-1.5,1.59-1.5-.53-1.5-1.59ZM6.68,88.76c1.11,0,1.67.59,1.67,1.77,0,.95-.45,1.42-1.34,1.42-1.11.24-1.67-.24-1.67-1.42,0-.94.44-1.53,1.34-1.77ZM9.02,26.19c0,.95-.56,1.42-1.67,1.42-.89,0-1.34-.53-1.34-1.59s.5-1.59,1.5-1.59,1.5.59,1.5,1.77ZM9.35,93.89c1,.24,1.56.77,1.67,1.59,0,.47-.14.88-.42,1.24-.28.35-.64.47-1.09.35-1,.24-1.5-.24-1.5-1.42-.22-.94.22-1.53,1.34-1.77ZM11.36,20.35c0,1.06-.5,1.59-1.5,1.59-1-.24-1.5-.82-1.5-1.77.22-1.18.78-1.65,1.67-1.42,1.11,0,1.56.53,1.34,1.59ZM12.69,98.85c1-.24,1.61.18,1.84,1.24,0,1.06-.45,1.71-1.34,1.95-1.11,0-1.67-.59-1.67-1.77-.22-.94.17-1.42,1.17-1.42ZM14.86,15.04c0,1.06-.5,1.59-1.5,1.59s-1.5-.53-1.5-1.59.5-1.59,1.5-1.59,1.5.53,1.5,1.59ZM15.87,102.92c1.11-.24,1.56.24,1.34,1.42.22.95-.17,1.53-1.17,1.77-1,0-1.62-.53-1.84-1.59.11-.82.67-1.35,1.67-1.59ZM18.2,10.26c0,1.06-.56,1.59-1.67,1.59-.89,0-1.34-.53-1.34-1.59s.5-1.59,1.5-1.59,1.5.53,1.5,1.59ZM19.37,106.46c1-.24,1.5.18,1.5,1.24.22,1.06-.17,1.71-1.17,1.95-1.11-.24-1.73-.77-1.84-1.59,0-.47.14-.88.42-1.24.28-.35.64-.47,1.08-.35ZM21.71,6.9c0,1.06-.5,1.59-1.5,1.59s-1.5-.59-1.5-1.77c0-.94.5-1.42,1.5-1.42s1.5.53,1.5,1.59ZM24.55,108.93c1-.24,1.61.24,1.84,1.42,0,.95-.56,1.53-1.67,1.77-1.11,0-1.56-.47-1.34-1.42-.23-1.18.17-1.77,1.17-1.77ZM26.55,3.72c-.23,1.06-.78,1.59-1.67,1.59-1.11,0-1.56-.53-1.34-1.59,0-1.06.5-1.59,1.5-1.59s1.5.53,1.5,1.59ZM29.72,109.62c1,0,1.5.47,1.5,1.42,0,1.18-.45,1.77-1.34,1.77-.45,0-.83-.12-1.17-.35-.33-.24-.45-.59-.33-1.06,0-1.18.44-1.77,1.34-1.77ZM31.56,2.3c0,1.06-.56,1.59-1.67,1.59-.89,0-1.34-.53-1.34-1.59s.5-1.59,1.5-1.59,1.5.53,1.5,1.59ZM35.07,110.15c1.11.24,1.56.83,1.34,1.77-.22,1.06-.72,1.59-1.5,1.59-1,0-1.5-.59-1.5-1.77.11-.82.67-1.35,1.67-1.59ZM33.57,1.59c0-1.06.5-1.59,1.5-1.59s1.5.53,1.5,1.59-.5,1.59-1.5,1.59-1.5-.53-1.5-1.59ZM37.25,69.44c0,1.06-.5,1.59-1.5,1.59s-1.5-.53-1.5-1.59.5-1.59,1.5-1.59,1.5.53,1.5,1.59ZM38.58,1.95c0-1.06.5-1.59,1.5-1.59s1.5.53,1.5,1.59-.45,1.59-1.34,1.59c-1.11,0-1.67-.53-1.67-1.59ZM40.25,110.15c.89,0,1.34.59,1.34,1.77.11.47,0,.83-.33,1.06-.34.24-.73.35-1.17.35-.89,0-1.34-.59-1.34-1.77,0-.94.5-1.42,1.5-1.42ZM42.76,69.5c0,1.06-.5,1.59-1.5,1.59s-1.5-.53-1.5-1.59.5-1.59,1.5-1.59,1.5.53,1.5,1.59ZM43.42,3.89c0-1.06.5-1.59,1.5-1.59s1.5.53,1.5,1.59c.22,1.06-.22,1.59-1.34,1.59-.89,0-1.45-.53-1.67-1.59ZM45.42,109.11c1,0,1.39.59,1.17,1.77.22.95-.23,1.42-1.34,1.42-1.11-.24-1.67-.82-1.67-1.77.22-1.18.83-1.65,1.84-1.42ZM47.94,69.57c0,1.06-.5,1.59-1.5,1.59s-1.5-.53-1.5-1.59.5-1.59,1.5-1.59,1.5.53,1.5,1.59ZM48.26,7.08c0-1.06.5-1.59,1.5-1.59s1.5.47,1.5,1.42c0,1.18-.5,1.77-1.5,1.77s-1.5-.53-1.5-1.59ZM50.6,106.63c.44-.12.81,0,1.09.35.28.35.42.77.42,1.24-.11.83-.72,1.36-1.84,1.59-1-.24-1.39-.88-1.17-1.95,0-1.06.5-1.47,1.5-1.24ZM53.12,69.57c0,1.06-.5,1.59-1.5,1.59s-1.5-.53-1.5-1.59.5-1.59,1.5-1.59,1.5.53,1.5,1.59ZM51.77,10.44c0-1.06.5-1.59,1.5-1.59s1.5.53,1.5,1.59-.45,1.59-1.34,1.59c-1.11,0-1.67-.53-1.67-1.59ZM54.11,103.09c1,.24,1.56.77,1.67,1.59-.23,1.06-.83,1.59-1.84,1.59-1-.24-1.39-.82-1.17-1.77-.23-1.18.22-1.65,1.34-1.42ZM55.11,15.22c0-1.06.5-1.59,1.5-1.59s1.5.53,1.5,1.59-.5,1.59-1.5,1.59-1.5-.53-1.5-1.59ZM57.28,99.03c1,0,1.39.47,1.17,1.42,0,1.18-.56,1.77-1.67,1.77-.89-.24-1.34-.88-1.34-1.95.22-1.06.83-1.47,1.84-1.24ZM58.63,69.57c0,1.06-.5,1.59-1.5,1.59s-1.5-.53-1.5-1.59.5-1.59,1.5-1.59,1.5.53,1.5,1.59ZM58.61,20.53c-.22-1.06.22-1.59,1.34-1.59.89-.24,1.45.24,1.67,1.42,0,.95-.5,1.53-1.5,1.77-1,0-1.5-.53-1.5-1.59ZM60.62,94.07c1.11.24,1.56.83,1.34,1.77,0,1.18-.5,1.65-1.5,1.42-.45.12-.81,0-1.09-.35-.28-.35-.42-.77-.42-1.24.11-.82.67-1.35,1.67-1.59ZM60.95,26.36c0-1.18.5-1.77,1.5-1.77s1.5.53,1.5,1.59-.45,1.59-1.34,1.59c-1.11,0-1.67-.47-1.67-1.42ZM63.8,69.39c0,1.06-.5,1.59-1.5,1.59s-1.5-.53-1.5-1.59.5-1.59,1.5-1.59,1.5.53,1.5,1.59ZM63.29,88.94c.89.24,1.34.83,1.34,1.77,0,1.18-.56,1.65-1.67,1.42-.89,0-1.34-.47-1.34-1.42,0-1.18.56-1.77,1.67-1.77ZM65.46,31.14c0,1.06-.5,1.59-1.5,1.59s-1.5-.53-1.5-1.59.5-1.59,1.5-1.59,1.5.53,1.5,1.59ZM63.29,85.4c0-1.18.5-1.77,1.5-1.77s1.5.53,1.5,1.59-.5,1.59-1.5,1.59-1.5-.47-1.5-1.42ZM67.63,79.56c0,1.06-.5,1.59-1.5,1.59s-1.5-.53-1.5-1.59.5-1.59,1.5-1.59,1.5.53,1.5,1.59ZM66.74,73.15c.89,0,1.45.47,1.67,1.42,0,1.18-.45,1.77-1.34,1.77-.89.24-1.45-.24-1.67-1.42-.23-.94.22-1.53,1.34-1.77ZM66.14,69.75c0-1.06.5-1.59,1.5-1.59s1.5.53,1.5,1.59-.45,1.59-1.34,1.59c-1.11,0-1.67-.53-1.67-1.59Z" class="cls-1"/></g></svg>