<?xml version="1.0" encoding="UTF-8"?>
<svg id="Layer_2" data-name="Layer 2" xmlns="http://www.w3.org/2000/svg" viewBox="0 0 115.08 206.48">
  <defs>
    <style>
      .cls-1 {
        fill: #3c3c3b;
        stroke-width: 0px;
      }
    </style>
  </defs>
  <g id="D">
    <path class="cls-1" d="M0,202.78c0-2.02.95-3.03,2.86-3.03s2.86,1.01,2.86,3.03-.95,3.03-2.86,3.03-2.86-1.01-2.86-3.03ZM.32,3.71C.32,1.68,1.27.67,3.18.67s2.86,1.01,2.86,3.03-.95,3.03-2.86,3.03S.32,5.73.32,3.71ZM.32,14.48c0-2.02.95-3.03,2.86-3.03s2.86,1.01,2.86,3.03-.95,3.03-2.86,3.03-2.86-1.01-2.86-3.03ZM.32,24.59c0-2.02.95-3.03,2.86-3.03s2.86,1.01,2.86,3.03-.95,3.03-2.86,3.03-2.86-1.01-2.86-3.03ZM.32,35.03c0-2.02.95-3.03,2.86-3.03s2.86,1.01,2.86,3.03-.95,3.03-2.86,3.03-2.86-1.01-2.86-3.03ZM.32,46.82c0-2.02.95-3.03,2.86-3.03s2.86,1.01,2.86,3.03-.95,3.03-2.86,3.03-2.86-1.01-2.86-3.03ZM.32,59.28c0-2.02.95-3.03,2.86-3.03s2.86,1.01,2.86,3.03-.95,3.03-2.86,3.03-2.86-1.01-2.86-3.03ZM.32,71.07c0-2.02.95-3.03,2.86-3.03s2.86,1.01,2.86,3.03-.95,3.03-2.86,3.03-2.86-1.01-2.86-3.03ZM.32,81.85c0-2.02.95-3.03,2.86-3.03s2.86,1.01,2.86,3.03-.95,3.03-2.86,3.03-2.86-1.01-2.86-3.03ZM.32,92.63c0-2.02.95-3.03,2.86-3.03s2.86,1.01,2.86,3.03-.95,3.03-2.86,3.03-2.86-1.01-2.86-3.03ZM.32,102.74c0-2.02.95-3.03,2.86-3.03s2.86,1.01,2.86,3.03-.95,3.03-2.86,3.03-2.86-1.01-2.86-3.03ZM.32,113.18c0-2.02.95-3.03,2.86-3.03s2.86,1.01,2.86,3.03-.95,3.03-2.86,3.03-2.86-1.01-2.86-3.03ZM.32,124.97c0-2.02.95-3.03,2.86-3.03s2.86,1.01,2.86,3.03-.95,3.03-2.86,3.03-2.86-1.01-2.86-3.03ZM.32,136.76c0-2.02.95-3.03,2.86-3.03s2.86,1.01,2.86,3.03-.95,3.03-2.86,3.03-2.86-1.01-2.86-3.03ZM.32,148.55c0-2.02.95-3.03,2.86-3.03s2.86,1.01,2.86,3.03-.95,3.03-2.86,3.03-2.86-1.01-2.86-3.03ZM.32,161.68c0-2.02.95-3.03,2.86-3.03s2.86,1.01,2.86,3.03-.95,3.03-2.86,3.03-2.86-1.01-2.86-3.03ZM.32,172.46c0-2.02.95-3.03,2.86-3.03s2.86,1.01,2.86,3.03-.95,3.03-2.86,3.03-2.86-1.01-2.86-3.03ZM.32,182.57c0-2.02.95-3.03,2.86-3.03s2.86,1.01,2.86,3.03-.95,3.03-2.86,3.03-2.86-1.01-2.86-3.03ZM.32,193.01c0-2.02.95-3.03,2.86-3.03s2.86,1.01,2.86,3.03-.95,3.03-2.86,3.03-2.86-1.01-2.86-3.03ZM10.49,199.75c2.11-.45,2.97.45,2.54,2.69.42,1.8-.32,2.92-2.23,3.37-1.91,0-3.07-1.01-3.5-3.03.21-1.57,1.27-2.58,3.18-3.03ZM14.62,3.37c0,2.02-.95,3.03-2.86,3.03s-2.86-1.12-2.86-3.37c0-1.8.95-2.69,2.86-2.69s2.86,1.01,2.86,3.03ZM19.07,200.42c1.91-.45,2.86.34,2.86,2.36.42,2.02-.32,3.26-2.23,3.71-2.12-.45-3.29-1.46-3.5-3.03,0-.89.26-1.68.79-2.36.53-.67,1.22-.89,2.07-.67ZM25.75,3.03c-.43,2.02-1.49,3.03-3.18,3.03-2.12,0-2.97-1.01-2.54-3.03,0-2.02.95-3.03,2.86-3.03s2.86,1.01,2.86,3.03ZM28.61,200.08c1.91-.45,3.07.45,3.5,2.69,0,1.8-1.06,2.92-3.18,3.37-2.12,0-2.97-.89-2.55-2.69-.42-2.24.32-3.37,2.23-3.37ZM37.19,3.03c0,2.02-1.06,3.03-3.18,3.03-1.7,0-2.54-1.01-2.54-3.03s.95-3.03,2.86-3.03,2.86,1.01,2.86,3.03ZM38.47,199.75c1.91,0,2.86.9,2.86,2.69,0,2.25-.85,3.37-2.55,3.37-.85,0-1.59-.22-2.22-.67-.64-.45-.85-1.12-.64-2.02,0-2.24.84-3.37,2.55-3.37ZM48.64,3.71c0,2.02-.95,3.03-2.86,3.03s-2.86-1.01-2.86-3.03.95-3.03,2.86-3.03,2.86,1.01,2.86,3.03ZM48.32,199.41c1.91.45,2.97,1.46,3.18,3.03,0,2.25-.95,3.37-2.86,3.37-1.48,0-2.44-1.01-2.86-3.03-.43-1.8.42-2.92,2.54-3.37ZM54.99,5.39c0-2.02.95-3.03,2.87-3.03s2.86,1.01,2.86,3.03-.85,3.03-2.55,3.03c-2.12,0-3.18-1.01-3.18-3.03ZM58.49,197.39c1.69,0,2.54,1.13,2.54,3.37.21.9,0,1.57-.63,2.02-.63.45-1.38.67-2.23.67-1.7,0-2.54-1.12-2.54-3.37,0-1.8.95-2.69,2.86-2.69ZM64.53,8.08c0-2.02.95-3.03,2.86-3.03s2.86,1.01,2.86,3.03c.42,2.02-.43,3.03-2.55,3.03-1.7,0-2.76-1.01-3.18-3.03ZM68.35,194.69c1.91,0,2.65,1.13,2.22,3.37.42,1.8-.42,2.69-2.54,2.69-2.12-.45-3.18-1.57-3.18-3.37.42-2.24,1.59-3.14,3.5-2.69ZM73.75,13.47c0-2.02.95-3.03,2.86-3.03s2.86.9,2.86,2.69c0,2.25-.95,3.37-2.86,3.37s-2.86-1.01-2.86-3.03ZM78.2,189.98c.84-.22,1.54,0,2.07.67.52.67.79,1.46.79,2.36-.21,1.57-1.38,2.58-3.5,3.03-1.91-.45-2.65-1.68-2.23-3.71,0-2.02.95-2.81,2.86-2.36ZM80.43,19.87c0-2.02.95-3.03,2.86-3.03s2.86,1.01,2.86,3.03-.85,3.03-2.54,3.03c-2.12,0-3.18-1.01-3.18-3.03ZM84.87,183.24c1.91.45,2.97,1.46,3.18,3.03-.43,2.02-1.59,3.03-3.5,3.03-1.91-.45-2.66-1.57-2.23-3.37-.43-2.24.42-3.14,2.54-2.69ZM86.78,28.97c0-2.02.95-3.03,2.86-3.03s2.86,1.01,2.86,3.03-.95,3.03-2.86,3.03-2.86-1.01-2.86-3.03ZM90.92,175.49c1.91,0,2.65.9,2.23,2.69,0,2.25-1.06,3.37-3.18,3.37-1.7-.45-2.54-1.68-2.54-3.71.42-2.02,1.59-2.81,3.5-2.36ZM93.46,39.07c-.43-2.02.42-3.03,2.54-3.03,1.69-.45,2.75.45,3.18,2.69,0,1.8-.95,2.92-2.86,3.37-1.91,0-2.86-1.01-2.86-3.03ZM97.28,166.06c2.11.45,2.96,1.57,2.54,3.37,0,2.25-.95,3.15-2.86,2.69-.85.23-1.54,0-2.06-.67-.53-.67-.8-1.46-.8-2.36.21-1.57,1.27-2.58,3.18-3.03ZM97.91,50.19c0-2.24.95-3.37,2.86-3.37s2.86,1.01,2.86,3.03-.85,3.03-2.54,3.03c-2.12,0-3.18-.89-3.18-2.69ZM102.36,156.29c1.69.45,2.55,1.57,2.55,3.37,0,2.25-1.06,3.15-3.18,2.69-1.7,0-2.54-.89-2.54-2.69,0-2.24,1.05-3.37,3.18-3.37ZM107.45,58.95c0,2.02-.95,3.03-2.86,3.03s-2.86-1.01-2.86-3.03.95-3.03,2.86-3.03,2.86,1.01,2.86,3.03ZM102.36,149.56c0-2.24.95-3.37,2.86-3.37s2.86,1.01,2.86,3.03-.95,3.03-2.86,3.03-2.86-.89-2.86-2.69ZM109.99,69.39c0,2.02-.95,3.03-2.86,3.03s-2.86-1.01-2.86-3.03.95-3.03,2.86-3.03,2.86,1.01,2.86,3.03ZM110.63,138.44c0,2.02-.95,3.03-2.86,3.03s-2.86-1.01-2.86-3.03.95-3.03,2.86-3.03,2.86,1.01,2.86,3.03ZM112.85,80.17c0,2.02-.95,3.03-2.86,3.03s-2.86-1.01-2.86-3.03.95-3.03,2.86-3.03,2.86,1.01,2.86,3.03ZM110.63,123.28c1.69,0,2.75.9,3.18,2.69,0,2.25-.85,3.37-2.54,3.37-1.7.45-2.76-.45-3.18-2.69-.42-1.8.42-2.92,2.55-3.37ZM114.12,91.96c0,2.02-.95,3.03-2.86,3.03s-2.86-1.01-2.86-3.03.95-3.03,2.86-3.03,2.86,1.01,2.86,3.03ZM114.76,115.2c0,2.02-.95,3.03-2.86,3.03s-2.86-1.01-2.86-3.03.95-3.03,2.86-3.03,2.86,1.01,2.86,3.03ZM109.35,103.07c0-2.02.95-3.03,2.86-3.03s2.86,1.01,2.86,3.03-.85,3.03-2.54,3.03c-2.12,0-3.18-1.01-3.18-3.03Z"/>
  </g>
</svg>