<?xml version="1.0" encoding="UTF-8"?>
<svg id="Layer_2" data-name="Layer 2" xmlns="http://www.w3.org/2000/svg" viewBox="0 0 60.42 114.34">
  <defs>
    <style>
      .cls-1 {
        fill: #3c3c3b;
        stroke-width: 0px;
      }
    </style>
  </defs>
  <g id="L">
    <path class="cls-1" d="M0,112.66c0-1.13.53-1.69,1.59-1.69s1.59.56,1.59,1.69-.53,1.69-1.59,1.69-1.59-.56-1.59-1.69ZM.18,1.69C.18.56.71,0,1.77,0s1.59.56,1.59,1.69-.53,1.69-1.59,1.69S.18,2.82.18,1.69ZM.18,7.7c0-1.13.53-1.69,1.59-1.69s1.59.56,1.59,1.69-.53,1.69-1.59,1.69-1.59-.56-1.59-1.69ZM.18,13.33c0-1.13.53-1.69,1.59-1.69s1.59.56,1.59,1.69-.53,1.69-1.59,1.69-1.59-.56-1.59-1.69ZM.18,19.15c0-1.13.53-1.69,1.59-1.69s1.59.56,1.59,1.69-.53,1.69-1.59,1.69-1.59-.56-1.59-1.69ZM.18,25.72c0-1.13.53-1.69,1.59-1.69s1.59.56,1.59,1.69-.53,1.69-1.59,1.69-1.59-.56-1.59-1.69ZM.18,32.67c0-1.13.53-1.69,1.59-1.69s1.59.56,1.59,1.69-.53,1.69-1.59,1.69-1.59-.56-1.59-1.69ZM.18,39.24c0-1.13.53-1.69,1.59-1.69s1.59.56,1.59,1.69-.53,1.69-1.59,1.69-1.59-.56-1.59-1.69ZM.18,45.25c0-1.13.53-1.69,1.59-1.69s1.59.56,1.59,1.69-.53,1.69-1.59,1.69-1.59-.56-1.59-1.69ZM.18,51.26c0-1.13.53-1.69,1.59-1.69s1.59.56,1.59,1.69-.53,1.69-1.59,1.69-1.59-.56-1.59-1.69ZM.18,56.89c0-1.13.53-1.69,1.59-1.69s1.59.56,1.59,1.69-.53,1.69-1.59,1.69-1.59-.56-1.59-1.69ZM.18,62.71c0-1.13.53-1.69,1.59-1.69s1.59.56,1.59,1.69-.53,1.69-1.59,1.69-1.59-.56-1.59-1.69ZM.18,69.28c0-1.13.53-1.69,1.59-1.69s1.59.56,1.59,1.69-.53,1.69-1.59,1.69-1.59-.56-1.59-1.69ZM.18,75.85c0-1.13.53-1.69,1.59-1.69s1.59.56,1.59,1.69-.53,1.69-1.59,1.69-1.59-.56-1.59-1.69ZM.18,82.43c0-1.13.53-1.69,1.59-1.69s1.59.56,1.59,1.69-.53,1.69-1.59,1.69-1.59-.56-1.59-1.69ZM.18,89.75c0-1.13.53-1.69,1.59-1.69s1.59.56,1.59,1.69-.53,1.69-1.59,1.69-1.59-.56-1.59-1.69ZM.18,95.76c0-1.13.53-1.69,1.59-1.69s1.59.56,1.59,1.69-.53,1.69-1.59,1.69-1.59-.56-1.59-1.69ZM.18,101.39c0-1.13.53-1.69,1.59-1.69s1.59.56,1.59,1.69-.53,1.69-1.59,1.69-1.59-.56-1.59-1.69ZM.18,107.21c0-1.13.53-1.69,1.59-1.69s1.59.56,1.59,1.69-.53,1.69-1.59,1.69-1.59-.56-1.59-1.69ZM6.73,113.97c-1.06,0-1.59-.56-1.59-1.69s.53-1.69,1.59-1.69,1.59.56,1.59,1.69-.53,1.69-1.59,1.69ZM12.4,113.97c-1.07,0-1.6-.56-1.6-1.69s.53-1.69,1.6-1.69,1.59.56,1.59,1.69-.53,1.69-1.59,1.69ZM17.72,113.97c-1.06,0-1.59-.56-1.59-1.69s.53-1.69,1.59-1.69,1.59.56,1.59,1.69-.53,1.69-1.59,1.69ZM23.21,113.97c-1.06,0-1.59-.56-1.59-1.69s.53-1.69,1.59-1.69,1.59.56,1.59,1.69-.53,1.69-1.59,1.69ZM29.41,113.97c-1.06,0-1.59-.56-1.59-1.69s.53-1.69,1.59-1.69,1.59.56,1.59,1.69-.53,1.69-1.59,1.69ZM35.97,113.97c-1.06,0-1.59-.56-1.59-1.69s.53-1.69,1.59-1.69,1.59.56,1.59,1.69-.53,1.69-1.59,1.69ZM42.17,113.97c-1.06,0-1.59-.56-1.59-1.69s.53-1.69,1.59-1.69,1.59.56,1.59,1.69-.53,1.69-1.59,1.69ZM47.84,113.97c-1.06,0-1.59-.56-1.59-1.69s.53-1.69,1.59-1.69,1.59.56,1.59,1.69-.53,1.69-1.59,1.69ZM53.51,113.97c-1.06,0-1.59-.56-1.59-1.69s.53-1.69,1.59-1.69,1.59.56,1.59,1.69-.53,1.69-1.59,1.69ZM58.83,113.97c-1.06,0-1.59-.56-1.59-1.69s.53-1.69,1.59-1.69,1.59.56,1.59,1.69-.53,1.69-1.59,1.69Z"/>
  </g>
</svg>