<svg xmlns="http://www.w3.org/2000/svg" id="Layer_2" data-name="Layer 2" viewBox="0 0 66.56 108.03"><defs><style>.cls-1{fill:#3c3c3b;stroke-width:0}</style></defs><g id="U"><g><path d="M3,46.07c0,1.06-.5,1.59-1.5,1.59s-1.5-.53-1.5-1.59.5-1.59,1.5-1.59,1.5.53,1.5,1.59ZM3,51.55c0,1.06-.5,1.59-1.5,1.59s-1.5-.53-1.5-1.59.5-1.59,1.5-1.59,1.5.53,1.5,1.59ZM3.16,18.18c0,1.06-.5,1.59-1.5,1.59s-1.5-.53-1.5-1.59.5-1.59,1.5-1.59,1.5.53,1.5,1.59ZM3.16,28.77c0,1.06-.5,1.59-1.5,1.59s-1.5-.53-1.5-1.59.5-1.59,1.5-1.59,1.5.53,1.5,1.59ZM3.16,34.25c0,1.06-.5,1.59-1.5,1.59s-1.5-.53-1.5-1.59.5-1.59,1.5-1.59,1.5.53,1.5,1.59ZM3.16,40.07c0,1.06-.5,1.59-1.5,1.59s-1.5-.53-1.5-1.59.5-1.59,1.5-1.59,1.5.53,1.5,1.59ZM3.16,56.49c0,1.06-.5,1.59-1.5,1.59s-1.5-.53-1.5-1.59.5-1.59,1.5-1.59,1.5.53,1.5,1.59ZM3.16,61.61c0,1.06-.5,1.59-1.5,1.59s-1.5-.53-1.5-1.59.5-1.59,1.5-1.59,1.5.53,1.5,1.59ZM3.33,12.71c0,1.06-.44,1.59-1.33,1.59-1.11,0-1.67-.53-1.67-1.59s.5-1.59,1.5-1.59,1.5.53,1.5,1.59ZM3.33,23.65c0,1.06-.5,1.59-1.5,1.59s-1.5-.53-1.5-1.59.5-1.59,1.5-1.59,1.5.53,1.5,1.59ZM3.5,1.59c0,1.06-.5,1.59-1.5,1.59S.5,2.65.5,1.59,1,0,2,0s1.5.53,1.5,1.59ZM3.5,7.59c0,1.06-.5,1.59-1.5,1.59s-1.5-.53-1.5-1.59.5-1.59,1.5-1.59,1.5.53,1.5,1.59ZM3.5,66.9c0,1.06-.5,1.59-1.5,1.59s-1.5-.53-1.5-1.59.5-1.59,1.5-1.59,1.5.53,1.5,1.59ZM4,72.55c0,1.06-.5,1.59-1.5,1.59s-1.5-.53-1.5-1.59.5-1.59,1.5-1.59,1.5.53,1.5,1.59ZM5,78.55c0,1.06-.5,1.59-1.5,1.59s-1.5-.53-1.5-1.59.5-1.59,1.5-1.59,1.5.53,1.5,1.59ZM6.16,84.38c0,1.06-.5,1.59-1.5,1.59s-1.5-.53-1.5-1.59.5-1.59,1.5-1.59,1.5.53,1.5,1.59ZM8.16,89.67c0,1.06-.5,1.59-1.5,1.59s-1.5-.53-1.5-1.59.5-1.59,1.5-1.59,1.5.53,1.5,1.59ZM10.5,94.44c0,1.06-.5,1.59-1.5,1.59s-1.5-.53-1.5-1.59.5-1.59,1.5-1.59,1.5.53,1.5,1.59ZM13.66,98.68c0,1.06-.5,1.59-1.5,1.59s-1.5-.53-1.5-1.59.5-1.59,1.5-1.59,1.5.53,1.5,1.59ZM16.66,102.21c0,1.06-.5,1.59-1.5,1.59s-1.5-.53-1.5-1.59.5-1.59,1.5-1.59,1.5.53,1.5,1.59ZM20.82,103.97c0,1.06-.5,1.59-1.5,1.59s-1.5-.53-1.5-1.59.5-1.59,1.5-1.59,1.5.53,1.5,1.59ZM25.49,105.38c0,1.06-.5,1.59-1.5,1.59s-1.5-.53-1.5-1.59.5-1.59,1.5-1.59,1.5.53,1.5,1.59ZM30.32,106.44c0,1.06-.5,1.59-1.5,1.59s-1.5-.53-1.5-1.59.5-1.59,1.5-1.59,1.5.53,1.5,1.59ZM34.82,106.44c0,1.06-.5,1.59-1.5,1.59s-1.5-.53-1.5-1.59.5-1.59,1.5-1.59,1.5.53,1.5,1.59Z" class="cls-1"/><path d="M65.06,44.48c1,0,1.5.53,1.5,1.59s-.5,1.59-1.5,1.59-1.5-.53-1.5-1.59.5-1.59,1.5-1.59ZM65.06,49.96c1,0,1.5.53,1.5,1.59s-.5,1.59-1.5,1.59-1.5-.53-1.5-1.59.5-1.59,1.5-1.59ZM64.9,16.59c1,0,1.5.53,1.5,1.59s-.5,1.59-1.5,1.59-1.5-.53-1.5-1.59.5-1.59,1.5-1.59ZM64.9,27.18c1,0,1.5.53,1.5,1.59s-.5,1.59-1.5,1.59-1.5-.53-1.5-1.59.5-1.59,1.5-1.59ZM64.9,32.66c1,0,1.5.53,1.5,1.59s-.5,1.59-1.5,1.59-1.5-.53-1.5-1.59.5-1.59,1.5-1.59ZM64.9,38.48c1,0,1.5.53,1.5,1.59s-.5,1.59-1.5,1.59-1.5-.53-1.5-1.59.5-1.59,1.5-1.59ZM64.9,54.9c1,0,1.5.53,1.5,1.59s-.5,1.59-1.5,1.59-1.5-.53-1.5-1.59.5-1.59,1.5-1.59ZM64.9,60.02c1,0,1.5.53,1.5,1.59s-.5,1.59-1.5,1.59-1.5-.53-1.5-1.59.5-1.59,1.5-1.59ZM64.73,11.12c1,0,1.5.53,1.5,1.59s-.55,1.59-1.67,1.59c-.89,0-1.33-.53-1.33-1.59s.5-1.59,1.5-1.59ZM64.73,22.07c1,0,1.5.53,1.5,1.59s-.5,1.59-1.5,1.59-1.5-.53-1.5-1.59.5-1.59,1.5-1.59ZM64.56,0c1,0,1.5.53,1.5,1.59s-.5,1.59-1.5,1.59-1.5-.53-1.5-1.59.5-1.59,1.5-1.59ZM64.56,6c1,0,1.5.53,1.5,1.59s-.5,1.59-1.5,1.59-1.5-.53-1.5-1.59.5-1.59,1.5-1.59ZM64.56,65.31c1,0,1.5.53,1.5,1.59s-.5,1.59-1.5,1.59-1.5-.53-1.5-1.59.5-1.59,1.5-1.59ZM64.06,70.96c1,0,1.5.53,1.5,1.59s-.5,1.59-1.5,1.59-1.5-.53-1.5-1.59.5-1.59,1.5-1.59ZM63.07,76.96c1,0,1.5.53,1.5,1.59s-.5,1.59-1.5,1.59-1.5-.53-1.5-1.59.5-1.59,1.5-1.59ZM61.9,82.79c1,0,1.5.53,1.5,1.59s-.5,1.59-1.5,1.59-1.5-.53-1.5-1.59.5-1.59,1.5-1.59ZM59.9,88.09c1,0,1.5.53,1.5,1.59s-.5,1.59-1.5,1.59-1.5-.53-1.5-1.59.5-1.59,1.5-1.59ZM57.57,92.85c1,0,1.5.53,1.5,1.59s-.5,1.59-1.5,1.59-1.5-.53-1.5-1.59.5-1.59,1.5-1.59ZM54.4,97.09c1,0,1.5.53,1.5,1.59s-.5,1.59-1.5,1.59-1.5-.53-1.5-1.59.5-1.59,1.5-1.59ZM51.4,100.62c1,0,1.5.53,1.5,1.59s-.5,1.59-1.5,1.59-1.5-.53-1.5-1.59.5-1.59,1.5-1.59ZM47.24,102.38c1,0,1.5.53,1.5,1.59s-.5,1.59-1.5,1.59-1.5-.53-1.5-1.59.5-1.59,1.5-1.59ZM42.57,103.8c1,0,1.5.53,1.5,1.59s-.5,1.59-1.5,1.59-1.5-.53-1.5-1.59.5-1.59,1.5-1.59ZM37.74,104.86c1,0,1.5.53,1.5,1.59s-.5,1.59-1.5,1.59-1.5-.53-1.5-1.59.5-1.59,1.5-1.59ZM33.25,104.86c1,0,1.5.53,1.5,1.59s-.5,1.59-1.5,1.59-1.5-.53-1.5-1.59.5-1.59,1.5-1.59Z" class="cls-1"/></g></g></svg>