<?xml version="1.0" encoding="UTF-8"?>
<svg id="Layer_2" data-name="Layer 2" xmlns="http://www.w3.org/2000/svg" viewBox="0 0 116.73 209.79">
  <defs>
    <style>
      .cls-1 {
        fill: #3c3c3b;
        stroke-width: 0px;
      }
    </style>
  </defs>
  <g id="B">
    <path class="cls-1" d="M5.8,3.76c0,2.05-.97,3.08-2.9,3.08S0,5.81,0,3.76.97.68,2.9.68s2.9,1.03,2.9,3.08ZM5.8,16.4c0,2.05-.97,3.08-2.9,3.08s-2.9-1.02-2.9-3.08.97-3.08,2.9-3.08,2.9,1.02,2.9,3.08ZM5.8,28.36c0,2.05-.97,3.08-2.9,3.08s-2.9-1.02-2.9-3.08.97-3.08,2.9-3.08,2.9,1.02,2.9,3.08ZM5.8,38.95c0,2.05-.97,3.08-2.9,3.08s-2.9-1.02-2.9-3.08.97-3.08,2.9-3.08,2.9,1.02,2.9,3.08ZM5.8,49.2c0,2.05-.97,3.08-2.9,3.08s-2.9-1.03-2.9-3.08.97-3.08,2.9-3.08,2.9,1.03,2.9,3.08ZM5.8,60.14c0,2.05-.97,3.08-2.9,3.08s-2.9-1.03-2.9-3.08.97-3.08,2.9-3.08,2.9,1.03,2.9,3.08ZM5.8,73.46c0,2.05-.97,3.08-2.9,3.08s-2.9-1.03-2.9-3.08.97-3.08,2.9-3.08,2.9,1.03,2.9,3.08ZM5.8,85.42c0,2.05-.97,3.08-2.9,3.08s-2.9-1.03-2.9-3.08.97-3.08,2.9-3.08,2.9,1.03,2.9,3.08ZM5.8,98.06c0,2.05-.97,3.08-2.9,3.08s-2.9-1.02-2.9-3.08.97-3.08,2.9-3.08,2.9,1.02,2.9,3.08ZM5.8,110.02c0,2.05-.97,3.08-2.9,3.08s-2.9-1.03-2.9-3.08.97-3.08,2.9-3.08,2.9,1.02,2.9,3.08ZM5.8,122.32c0,2.05-.97,3.08-2.9,3.08s-2.9-1.02-2.9-3.08.97-3.08,2.9-3.08,2.9,1.02,2.9,3.08ZM5.8,132.57c0,2.05-.97,3.08-2.9,3.08s-2.9-1.03-2.9-3.08.97-3.08,2.9-3.08,2.9,1.02,2.9,3.08ZM5.8,143.51c0,2.05-.97,3.08-2.9,3.08s-2.9-1.02-2.9-3.08.97-3.08,2.9-3.08,2.9,1.02,2.9,3.08ZM5.8,155.81c0,2.05-.97,3.08-2.9,3.08s-2.9-1.02-2.9-3.08.97-3.08,2.9-3.08,2.9,1.03,2.9,3.08ZM5.8,167.76c0,2.05-.97,3.08-2.9,3.08s-2.9-1.02-2.9-3.08.97-3.08,2.9-3.08,2.9,1.02,2.9,3.08ZM5.8,180.41c0,2.05-.97,3.08-2.9,3.08s-2.9-1.03-2.9-3.08.97-3.08,2.9-3.08,2.9,1.03,2.9,3.08ZM5.8,192.71c0,2.05-.97,3.08-2.9,3.08s-2.9-1.02-2.9-3.08.97-3.08,2.9-3.08,2.9,1.03,2.9,3.08ZM5.8,205.35c0,2.05-.97,3.08-2.9,3.08s-2.9-1.03-2.9-3.08.97-3.08,2.9-3.08,2.9,1.02,2.9,3.08ZM13.22,6.49c-1.93-.45-2.9-1.82-2.9-4.1.21-1.37,1.4-2.05,3.55-2.05,1.93.46,2.69,1.6,2.26,3.42,0,2.28-.97,3.19-2.9,2.73ZM16.45,100.45c0,2.05-.97,3.08-2.9,3.08s-2.9-1.03-2.9-3.08.97-3.08,2.9-3.08,2.9,1.03,2.9,3.08ZM16.76,206.37c0,2.05-.97,3.08-2.9,3.08s-2.9-1.02-2.9-3.08.97-3.08,2.9-3.08,2.9,1.02,2.9,3.08ZM21.93,6.15c-1.93,0-2.9-1.14-2.9-3.42.43-1.82,1.61-2.73,3.55-2.73,1.93.46,2.69,1.71,2.26,3.76,0,2.05-.97,2.85-2.9,2.39ZM30.31,100.45c0,2.05-.97,3.08-2.9,3.08s-2.91-1.03-2.91-3.08.97-3.08,2.91-3.08,2.9,1.03,2.9,3.08ZM30.63,206.37c0,2.05-.97,3.08-2.9,3.08s-2.9-1.02-2.9-3.08.97-3.08,2.9-3.08,2.9,1.02,2.9,3.08ZM31.28,6.15c-1.93,0-2.69-1.14-2.26-3.42,0-1.82.97-2.73,2.9-2.73,1.93.46,2.9,1.25,2.9,2.39-.22.91-.64,1.83-1.29,2.73-.64.91-1.4,1.25-2.25,1.03ZM42.24,100.8c0,2.05-.97,3.08-2.9,3.08s-2.9-1.03-2.9-3.08.97-3.08,2.9-3.08,2.9,1.03,2.9,3.08ZM42.56,206.72c0,2.05-.97,3.08-2.9,3.08s-2.9-1.03-2.9-3.08.97-3.08,2.9-3.08,2.9,1.03,2.9,3.08ZM42.24,6.15c-.64,0-1.24-.34-1.77-1.03-.54-.68-.7-1.48-.48-2.39-.22-.91,0-1.59.64-2.05.64-.45,1.39-.68,2.26-.68,1.72,0,2.58,1.14,2.58,3.42-.43,1.83-1.51,2.73-3.23,2.73ZM54.5,100.45c0,2.05-.97,3.08-2.9,3.08s-2.9-1.03-2.9-3.08.97-3.08,2.9-3.08,2.9,1.03,2.9,3.08ZM54.82,206.37c0,2.05-.97,3.08-2.9,3.08s-2.9-1.02-2.9-3.08.97-3.08,2.9-3.08,2.9,1.02,2.9,3.08ZM52.88,7.18c-2.15-.45-3.01-1.59-2.58-3.42.43-2.05,1.4-3.08,2.9-3.08,1.93,0,2.9,1.14,2.9,3.42-.22,1.6-1.29,2.62-3.23,3.08ZM60.3,205.69c0-2.05,1.07-3.08,3.22-3.08,1.72,0,2.58,1.03,2.58,3.08s-.97,3.08-2.9,3.08-2.9-1.03-2.9-3.08ZM64.49,10.25c-1.93,0-2.9-.91-2.9-2.73,0-2.27.86-3.42,2.58-3.42.86,0,1.61.23,2.26.68.64.46.86,1.14.64,2.05,0,2.28-.86,3.42-2.58,3.42ZM62.23,100.11c.43-2.05,1.5-3.08,3.23-3.08,2.14,0,3,1.02,2.58,3.08,0,2.05-.97,3.08-2.9,3.08s-2.9-1.03-2.9-3.08ZM70.62,204.32c.43-2.05,1.5-3.08,3.23-3.08,2.15,0,3.01,1.03,2.58,3.08,0,2.05-.97,3.08-2.9,3.08s-2.9-1.03-2.9-3.08ZM74.49,14.01c-1.93.46-3.12-.45-3.55-2.73,0-1.82,1.07-2.96,3.23-3.42,2.14,0,3,.91,2.58,2.73.43,2.28-.32,3.42-2.26,3.42ZM74.81,94.99c0-2.05.97-3.08,2.9-3.08s2.9,1.14,2.9,3.42c0,1.83-.97,2.73-2.9,2.73s-2.9-1.02-2.9-3.08ZM79.32,109.34c-1.93,0-2.9-.91-2.9-2.73,0-2.27.86-3.42,2.58-3.42.86,0,1.61.23,2.25.68.65.46.86,1.14.65,2.05,0,2.28-.87,3.42-2.58,3.42ZM80.61,201.59c0-2.05.97-3.08,2.9-3.08s2.9,1.14,2.9,3.42c0,1.83-.97,2.73-2.9,2.73s-2.9-1.03-2.9-3.08ZM84.48,18.79c-1.93.46-2.9-.34-2.9-2.39-.43-2.05.32-3.3,2.26-3.76,2.14.46,3.33,1.48,3.55,3.08,0,.91-.27,1.71-.81,2.39s-1.24.91-2.09.68ZM84.81,87.13c0-2.05.97-3.08,2.9-3.08s2.9,1.03,2.9,3.08-.97,3.08-2.9,3.08-2.9-1.03-2.9-3.08ZM88.35,114.8c-1.93.46-3.12-.45-3.55-2.73,0-1.82,1.07-2.96,3.22-3.42,2.15,0,3.01.91,2.58,2.73.43,2.28-.32,3.42-2.26,3.42ZM91.26,25.63c-2.15.46-3.01-.45-2.58-2.73-.43-1.82.32-2.96,2.25-3.42,1.93,0,3.12,1.03,3.55,3.08-.22,1.6-1.29,2.62-3.23,3.08ZM89,197.15c0-2.05.97-3.08,2.9-3.08s2.9,1.02,2.9,3.08-.97,3.08-2.9,3.08-2.9-1.03-2.9-3.08ZM96.09,121.64c-2.15-.45-3.01-1.59-2.58-3.42.43-2.05,1.39-3.08,2.9-3.08,1.93,0,2.9,1.14,2.9,3.42-.22,1.6-1.29,2.62-3.23,3.08ZM97.38,33.48c-1.93.46-3.12-.34-3.55-2.39,0-2.05.86-3.3,2.58-3.76,2.14,0,3.22,1.14,3.22,3.42.43,1.83-.32,2.73-2.25,2.73ZM94.16,79.61c0-2.05.97-3.08,2.9-3.08,1.93.46,2.9,1.6,2.9,3.42-.43,2.28-1.5,3.19-3.23,2.73-2.15,0-3.01-1.03-2.58-3.08ZM96.74,191.34c0-2.05.97-3.08,2.9-3.08s2.91,1.03,2.91,3.08-.97,3.08-2.91,3.08-2.9-1.02-2.9-3.08ZM100.93,43.05c-1.93-.45-3.01-1.48-3.23-3.08,0-.91.27-1.71.81-2.39.53-.68,1.23-.91,2.09-.68,1.94-.45,2.91.46,2.91,2.73.43,1.83-.43,2.96-2.58,3.42ZM102.22,52.96c-2.15,0-3.23-1.14-3.23-3.42,0-1.82.86-2.73,2.58-2.73,2.15-.45,3.23.46,3.23,2.73,0,1.83-.86,2.96-2.58,3.42ZM98.99,69.36c0-1.82,1.07-2.73,3.23-2.73,1.72,0,2.58,1.02,2.58,3.08s-.97,3.08-2.9,3.08-2.9-1.14-2.9-3.42ZM100.29,59.79c0-1.82.97-2.73,2.9-2.73s2.9,1.03,2.9,3.08-.97,3.08-2.9,3.08-2.9-1.14-2.9-3.42ZM103.83,129.15c-.64,0-1.24-.34-1.78-1.03-.54-.68-.7-1.48-.48-2.39-.21-.91,0-1.59.65-2.05.64-.45,1.39-.68,2.26-.68,1.72,0,2.58,1.14,2.58,3.42-.43,1.83-1.51,2.73-3.23,2.73ZM103.19,182.8c0-2.05.97-3.08,2.9-3.08,1.93.46,2.9,1.6,2.9,3.42-.43,2.28-1.51,3.19-3.23,2.73-2.15,0-3.01-1.02-2.58-3.08ZM111.25,138.38c-1.93.46-3.12-.34-3.55-2.39,0-2.05.86-3.3,2.58-3.76,2.14,0,3.22,1.14,3.22,3.42.43,1.83-.32,2.73-2.25,2.73ZM107.7,173.91c0-1.82,1.07-2.73,3.23-2.73,1.72,0,2.58,1.03,2.58,3.08s-.97,3.08-2.9,3.08-2.9-1.14-2.9-3.42ZM113.5,148.63c-1.93-.45-3.01-1.48-3.22-3.08,0-.91.27-1.71.8-2.39.54-.68,1.23-.91,2.1-.68,1.93-.45,2.9.46,2.9,2.73.43,1.83-.43,2.96-2.58,3.42ZM110.6,164.35c0-1.82.97-2.73,2.9-2.73s2.9,1.02,2.9,3.08-.97,3.08-2.9,3.08-2.9-1.14-2.9-3.42ZM114.15,157.86c-2.15,0-3.23-1.14-3.23-3.42,0-1.82.86-2.73,2.58-2.73,2.15-.45,3.23.46,3.23,2.73,0,1.83-.86,2.96-2.58,3.42Z"/>
  </g>
</svg>