<?xml version="1.0" encoding="UTF-8"?>
<svg id="Layer_2" data-name="Layer 2" xmlns="http://www.w3.org/2000/svg" viewBox="0 0 60.77 109.41">
  <defs>
    <style>
      .cls-1 {
        fill: #3c3c3b;
        stroke-width: 0px;
      }
    </style>
  </defs>
  <g id="Y">
    <path class="cls-1" d="M.23,2.59C0,2.23-.06,1.84.06,1.42c.11-.42.4-.75.86-.99.34-.24.71-.3,1.11-.18.4.12.71.42.94.91.23.36.28.75.17,1.18-.12.42-.4.75-.85.99-.34.24-.71.3-1.11.18-.4-.12-.71-.42-.94-.91ZM2.62,7.48c-.46-1.09-.23-1.81.68-2.17.34-.24.71-.3,1.11-.18s.71.36.94.72c.34,1.09.11,1.87-.68,2.35-.91.48-1.6.24-2.05-.72ZM5.18,12.37c-.23-.36-.28-.75-.17-1.18.11-.42.34-.75.68-.99,1.03-.36,1.77-.12,2.22.72.45.97.23,1.69-.68,2.17-1.03.48-1.71.24-2.05-.72ZM7.92,17.98c-.23-.36-.28-.75-.17-1.18.11-.42.4-.75.86-1,.34-.24.71-.3,1.11-.18.4.12.71.43.94.91.45.85.23,1.57-.68,2.17-.91.48-1.6.24-2.05-.72ZM10.65,23.59c-.46-.97-.23-1.69.68-2.17.91-.6,1.59-.36,2.05.72.57.72.4,1.45-.51,2.17-.91.36-1.65.12-2.22-.72ZM13.56,29.21c-.46-1.09-.23-1.81.68-2.17.68-.6,1.37-.42,2.05.54.34.97.11,1.75-.68,2.35-.91.48-1.6.24-2.05-.72ZM16.63,35.36c-.34-.84-.12-1.57.68-2.17.34-.24.71-.3,1.11-.18.4.12.71.43.94.91.23.36.28.75.17,1.18-.12.43-.4.76-.86,1-.8.48-1.48.24-2.05-.72ZM19.19,40.61c-.34-.97-.12-1.75.68-2.35.91-.48,1.59-.24,2.05.72.45,1.09.23,1.81-.68,2.17-.68.61-1.37.42-2.05-.54ZM21.59,45.32c-.46-.97-.23-1.69.68-2.17.34-.24.71-.3,1.11-.18.4.12.71.42.94.91.57.84.34,1.57-.68,2.17-.8.48-1.48.24-2.05-.72ZM24.15,50.21c-.57-.84-.34-1.57.68-2.17.8-.36,1.48-.12,2.05.72.45.97.23,1.69-.68,2.17-.91.72-1.6.48-2.05-.72ZM26.37,55.1c-.46-.84-.28-1.63.51-2.35.91-.36,1.59-.12,2.05.72.57.97.4,1.69-.51,2.17-.91.61-1.6.42-2.05-.54ZM28.42,107.78c0-1.09.51-1.63,1.54-1.63s1.54.54,1.54,1.63-.51,1.63-1.54,1.63-1.54-.54-1.54-1.63ZM28.59,59.62c0-1.09.51-1.63,1.54-1.63s1.54.54,1.54,1.63-.51,1.63-1.54,1.63-1.54-.54-1.54-1.63ZM28.59,65.96c0-1.09.51-1.63,1.54-1.63s1.54.54,1.54,1.63-.51,1.63-1.54,1.63-1.54-.54-1.54-1.63ZM28.59,72.29c0-1.09.51-1.63,1.54-1.63s1.54.54,1.54,1.63-.51,1.63-1.54,1.63-1.54-.54-1.54-1.63ZM28.59,78.63c0-1.09.51-1.63,1.54-1.63s1.54.54,1.54,1.63-.51,1.63-1.54,1.63-1.54-.54-1.54-1.63ZM28.59,85.69c0-1.09.51-1.63,1.54-1.63s1.54.54,1.54,1.63-.51,1.63-1.54,1.63-1.54-.54-1.54-1.63ZM28.59,91.49c0-1.09.51-1.63,1.54-1.63s1.54.54,1.54,1.63-.51,1.63-1.54,1.63-1.54-.54-1.54-1.63ZM28.59,96.92c0-1.09.51-1.63,1.54-1.63s1.54.54,1.54,1.63-.51,1.63-1.54,1.63-1.54-.54-1.54-1.63ZM28.59,102.53c0-1.09.51-1.63,1.54-1.63s1.54.54,1.54,1.63-.51,1.63-1.54,1.63-1.54-.54-1.54-1.63ZM34.4,54.91c-.46.97-1.14,1.15-2.05.54-.91-.48-1.08-1.21-.51-2.17.45-.84,1.14-1.09,2.05-.72.79.72.97,1.51.51,2.35ZM36.62,50.03c-.46,1.21-1.14,1.45-2.05.72-.91-.48-1.14-1.21-.68-2.17.57-.84,1.25-1.09,2.05-.72,1.03.6,1.25,1.33.68,2.17ZM39.19,45.14c-.57.97-1.26,1.21-2.05.72-1.03-.6-1.26-1.33-.68-2.17.23-.48.54-.79.94-.91.4-.12.77-.06,1.11.18.91.48,1.14,1.21.68,2.17ZM41.58,40.43c-.68.97-1.37,1.15-2.05.54-.91-.36-1.14-1.09-.68-2.17.45-.97,1.14-1.21,2.05-.72.8.6,1.03,1.39.68,2.35ZM44.14,35.18c-.57.97-1.26,1.21-2.05.72-.46-.24-.74-.57-.85-.99-.12-.42-.06-.82.17-1.18.23-.48.54-.78.94-.91.4-.12.77-.06,1.11.18.8.6,1.03,1.33.68,2.17ZM47.22,29.03c-.46.97-1.14,1.21-2.05.72-.8-.6-1.03-1.38-.68-2.35.68-.96,1.37-1.15,2.05-.54.91.36,1.14,1.09.68,2.17ZM50.12,23.41c-.57.85-1.31,1.09-2.22.72-.91-.72-1.08-1.45-.51-2.17.45-1.09,1.14-1.33,2.05-.72.91.48,1.14,1.21.68,2.17ZM52.85,17.8c-.46.97-1.14,1.21-2.05.72-.91-.6-1.14-1.33-.68-2.17.23-.48.54-.78.94-.91.4-.12.77-.06,1.11.18.46.24.74.57.86.99.11.43.06.82-.17,1.18ZM55.59,12.19c-.34.97-1.03,1.21-2.05.72-.91-.48-1.14-1.2-.68-2.17.45-.84,1.2-1.09,2.22-.72.34.24.57.57.68,1,.11.42.05.81-.17,1.18ZM58.15,7.3c-.46.97-1.14,1.21-2.05.72-.8-.48-1.03-1.27-.68-2.35.23-.36.54-.6.94-.72.4-.12.77-.06,1.11.18.91.36,1.14,1.09.68,2.17ZM60.54,2.41c-.23.48-.54.79-.94.91-.4.12-.77.06-1.11-.18-.46-.24-.74-.57-.85-1-.12-.42-.06-.81.17-1.18.23-.48.54-.79.94-.91.4-.12.77-.06,1.11.18.45.24.74.57.85,1,.11.42.06.81-.17,1.18Z"/>
  </g>
</svg>