<?xml version="1.0" encoding="UTF-8"?>
<svg id="Layer_2" data-name="Layer 2" xmlns="http://www.w3.org/2000/svg" viewBox="0 0 81.69 110.4">
  <defs>
    <style>
      .cls-1 {
        fill: #3c3c3b;
        stroke-width: 0px;
      }
    </style>
  </defs>
  <g id="J">
    <path class="cls-1" d="M3.12,82.71c0,1.1-.52,1.65-1.56,1.65s-1.56-.55-1.56-1.65.52-1.65,1.56-1.65,1.56.55,1.56,1.65ZM4.5,88.02c0,1.1-.52,1.65-1.56,1.65s-1.56-.55-1.56-1.65.52-1.65,1.56-1.65,1.56.55,1.56,1.65ZM6.75,92.79c0,1.1-.52,1.65-1.56,1.65s-1.56-.55-1.56-1.65.52-1.65,1.56-1.65,1.56.55,1.56,1.65ZM9.52,97.01c0,1.1-.52,1.65-1.56,1.65s-1.56-.55-1.56-1.65.52-1.65,1.56-1.65,1.56.55,1.56,1.65ZM12.81,101.23c0,1.1-.52,1.65-1.56,1.65s-1.56-.55-1.56-1.65.52-1.65,1.56-1.65,1.56.55,1.56,1.65ZM17.31,104.53c0,1.1-.52,1.65-1.56,1.65s-1.56-.55-1.56-1.65.52-1.65,1.56-1.65,1.56.55,1.56,1.65ZM20.25,3.3c-1.04,0-1.56-.55-1.56-1.65s.52-1.65,1.56-1.65,1.56.55,1.56,1.65-.52,1.65-1.56,1.65ZM21.81,107.1c0,1.1-.52,1.65-1.56,1.65s-1.56-.55-1.56-1.65.52-1.65,1.56-1.65,1.56.55,1.56,1.65ZM27.17,108.56c0,1.1-.52,1.65-1.56,1.65s-1.56-.55-1.56-1.65.52-1.65,1.56-1.65,1.56.55,1.56,1.65ZM25.79,3.3c-1.04,0-1.56-.55-1.56-1.65s.52-1.65,1.56-1.65,1.56.55,1.56,1.65-.52,1.65-1.56,1.65ZM32.19,108.75c0,1.1-.52,1.65-1.56,1.65s-1.56-.55-1.56-1.65.52-1.65,1.56-1.65,1.56.55,1.56,1.65ZM30.98,3.3c-1.04,0-1.56-.55-1.56-1.65s.52-1.65,1.56-1.65,1.56.55,1.56,1.65-.52,1.65-1.56,1.65ZM37.56,107.83c0,1.1-.52,1.65-1.56,1.65s-1.56-.55-1.56-1.65.52-1.65,1.56-1.65,1.56.55,1.56,1.65ZM36.35,3.3c-1.04,0-1.56-.55-1.56-1.65s.52-1.65,1.56-1.65,1.56.55,1.56,1.65-.52,1.65-1.56,1.65ZM42.75,105.45c0,1.1-.52,1.65-1.56,1.65s-1.56-.55-1.56-1.65.52-1.65,1.56-1.65,1.56.55,1.56,1.65ZM42.4,3.3c-1.04,0-1.56-.55-1.56-1.65s.52-1.65,1.56-1.65c.92,0,1.41.55,1.47,1.65.06,1.1-.43,1.65-1.47,1.65ZM46.56,101.96c0,1.1-.52,1.65-1.56,1.65s-1.56-.55-1.56-1.65.52-1.65,1.56-1.65,1.56.55,1.56,1.65ZM47.77,3.3c-1.04,0-1.56-.55-1.56-1.65s.52-1.65,1.56-1.65,1.56.55,1.56,1.65-.52,1.65-1.56,1.65ZM49.84,97.93c0,1.1-.52,1.65-1.56,1.65s-1.56-.55-1.56-1.65.52-1.65,1.56-1.65,1.56.55,1.56,1.65ZM51.75,93.53c0,1.1-.52,1.65-1.56,1.65s-1.56-.55-1.56-1.65.52-1.65,1.56-1.65,1.56.55,1.56,1.65ZM53.48,87.66c0,1.1-.52,1.65-1.56,1.65s-1.56-.55-1.56-1.65.52-1.65,1.56-1.65,1.56.55,1.56,1.65ZM54.17,81.79c0,1.1-.52,1.65-1.56,1.65s-1.56-.55-1.56-1.65.52-1.65,1.56-1.65,1.56.55,1.56,1.65ZM54.52,76.29c0,1.1-.52,1.65-1.56,1.65s-1.56-.55-1.56-1.65.52-1.65,1.56-1.65,1.56.55,1.56,1.65ZM55.04,70.6c0,1.1-.52,1.65-1.56,1.65s-1.56-.55-1.56-1.65.52-1.65,1.56-1.65,1.56.55,1.56,1.65ZM53.82,3.3c-1.04,0-1.56-.55-1.56-1.65s.52-1.65,1.56-1.65,1.56.55,1.56,1.65-.52,1.65-1.56,1.65ZM53.82,8.99c-1.04,0-1.56-.55-1.56-1.65s.52-1.65,1.56-1.65,1.56.55,1.56,1.65-.52,1.65-1.56,1.65ZM55.38,13.57c0,1.1-.52,1.65-1.56,1.65s-1.56-.55-1.56-1.65.52-1.65,1.56-1.65,1.56.55,1.56,1.65ZM55.38,13.57c0,1.1-.52,1.65-1.56,1.65s-1.56-.55-1.56-1.65.52-1.65,1.56-1.65,1.56.55,1.56,1.65ZM55.38,20.36c0,1.1-.52,1.65-1.56,1.65s-1.56-.55-1.56-1.65.52-1.65,1.56-1.65,1.56.55,1.56,1.65ZM55.38,26.77c0,1.1-.52,1.65-1.56,1.65s-1.56-.55-1.56-1.65.52-1.65,1.56-1.65,1.56.55,1.56,1.65ZM55.38,32.46c0,1.1-.52,1.65-1.56,1.65s-1.56-.55-1.56-1.65.52-1.65,1.56-1.65,1.56.55,1.56,1.65ZM55.38,37.96c0,1.1-.52,1.65-1.56,1.65s-1.56-.55-1.56-1.65.52-1.65,1.56-1.65,1.56.55,1.56,1.65ZM55.38,43.83c0,1.1-.52,1.65-1.56,1.65s-1.56-.55-1.56-1.65.52-1.65,1.56-1.65,1.56.55,1.56,1.65ZM55.38,50.98c0,1.1-.52,1.65-1.56,1.65s-1.56-.55-1.56-1.65.52-1.65,1.56-1.65,1.56.55,1.56,1.65ZM55.38,57.4c0,1.1-.52,1.65-1.56,1.65s-1.56-.55-1.56-1.65.52-1.65,1.56-1.65,1.56.55,1.56,1.65ZM55.38,64.18c0,1.1-.52,1.65-1.56,1.65s-1.56-.55-1.56-1.65.52-1.65,1.56-1.65,1.56.55,1.56,1.65ZM59.36,3.3c-1.04,0-1.56-.55-1.56-1.65s.52-1.65,1.56-1.65,1.56.55,1.56,1.65-.52,1.65-1.56,1.65ZM64.9,3.3c-1.04,0-1.56-.55-1.56-1.65s.52-1.65,1.56-1.65,1.56.55,1.56,1.65-.52,1.65-1.56,1.65ZM70.09,3.3c-1.04,0-1.56-.55-1.56-1.65s.52-1.65,1.56-1.65,1.56.55,1.56,1.65-.52,1.65-1.56,1.65ZM74.94,3.3c-1.04,0-1.56-.55-1.56-1.65s.52-1.65,1.56-1.65,1.56.55,1.56,1.65-.52,1.65-1.56,1.65ZM80.13,3.3c-1.04,0-1.56-.55-1.56-1.65s.52-1.65,1.56-1.65,1.56.55,1.56,1.65-.52,1.65-1.56,1.65Z"/>
  </g>
</svg>