<?xml version="1.0" encoding="UTF-8"?>
<svg id="Layer_2" data-name="Layer 2" xmlns="http://www.w3.org/2000/svg" viewBox="0 0 62.61 110.87">
  <defs>
    <style>
      .cls-1 {
        fill: #3c3c3b;
        stroke-width: 0px;
      }
    </style>
  </defs>
  <g id="X">
    <path class="cls-1" d="M2.8,109.91c-.23.48-.54.78-.93.9-.4.12-.77.06-1.11-.18-.79-.72-.97-1.5-.51-2.34.45-.84,1.13-1.02,2.04-.54.34.24.57.57.68.99.11.42.06.81-.17,1.17ZM2.8,2.4c-.45-1.08-.23-1.8.68-2.16C3.82,0,4.19-.06,4.59.06c.4.12.71.36.94.72.23.36.28.75.17,1.17-.11.42-.4.75-.85.99-.68.6-1.36.42-2.04-.54ZM5.53,105.4c-.23.48-.54.78-.94.9-.4.12-.77.06-1.11-.18-.8-.72-.97-1.5-.51-2.34.45-.84,1.13-1.02,2.04-.54.34.24.57.57.68.99.11.42.06.81-.17,1.17ZM7.91,100.71c-.45.84-1.19,1.08-2.21.72-.91-.72-1.08-1.44-.51-2.16.22-.48.54-.78.93-.9.4-.12.77-.06,1.11.18.91.6,1.13,1.33.68,2.16ZM5.53,7.45c-.57-.96-.4-1.68.51-2.16.79-.48,1.53-.3,2.21.54.45.97.22,1.69-.68,2.16-.34.24-.71.3-1.11.18-.4-.12-.71-.36-.94-.72ZM7.91,12.14c-.45-.96-.23-1.68.68-2.16.34-.24.71-.3,1.11-.18.4.12.71.36.94.72.57.97.4,1.69-.51,2.16-.79.48-1.53.3-2.21-.54ZM10.97,95.48c-.23.48-.54.78-.93.9-.4.12-.77.06-1.11-.18-.79-.72-.97-1.5-.51-2.35.45-.84,1.13-1.02,2.04-.54.34.24.57.57.68.99.11.42.06.81-.17,1.17ZM13.36,90.79c-.45.84-1.19,1.08-2.21.72-.91-.72-1.08-1.44-.51-2.16.23-.48.54-.78.94-.9.4-.12.77-.06,1.11.18.91.6,1.13,1.32.68,2.16ZM10.63,17.01c-.23-.36-.28-.75-.17-1.17.11-.42.34-.75.68-.99.34-.24.71-.3,1.11-.18.4.12.71.36.94.72.57.96.4,1.68-.51,2.16-.91.6-1.59.42-2.04-.54ZM15.91,85.92c-.45.84-1.19,1.08-2.21.72-.79-.6-.97-1.32-.51-2.16.23-.48.54-.78.94-.9.4-.12.77-.06,1.11.18.91.6,1.13,1.33.68,2.16ZM13.53,22.61c-.45-.84-.28-1.62.51-2.34.34-.24.71-.3,1.11-.18.4.12.71.42.94.9.22.36.28.75.17,1.17-.11.42-.34.75-.68.99-.91.48-1.59.3-2.05-.54ZM18.29,81.23c-.23.48-.54.78-.93.9-.4.12-.77.06-1.11-.18-.79-.72-.97-1.5-.51-2.34.23-.36.54-.6.94-.72.4-.12.77-.06,1.11.18.34.24.57.57.68.99.11.42.06.81-.17,1.17ZM16.59,28.38c-.23-.36-.29-.75-.17-1.17.11-.42.34-.75.68-.99.91-.6,1.59-.42,2.04.54.22.36.28.75.17,1.17-.11.42-.34.75-.68.99-.34.24-.71.3-1.11.18-.4-.12-.71-.36-.93-.72ZM21.02,76.18c-.23.48-.54.78-.94.9-.4.12-.77.06-1.11-.18-.8-.48-1.02-1.26-.68-2.34.57-.72,1.3-.9,2.21-.54.79.48.96,1.2.51,2.16ZM19.49,33.79c-.57-.72-.4-1.44.51-2.16,1.02-.36,1.76-.12,2.21.72.34.84.11,1.56-.68,2.16-.34.24-.71.3-1.11.18-.4-.12-.71-.42-.94-.9ZM24.25,70.05c-.23.48-.54.78-.94.9-.4.12-.77.06-1.11-.18-.8-.48-1.02-1.26-.68-2.34.57-.72,1.3-.9,2.21-.54.79.48.96,1.2.51,2.16ZM22.04,38.84c-.34-.84-.11-1.56.68-2.16.34-.24.71-.3,1.11-.18.4.12.71.42.94.9.57.72.4,1.44-.51,2.16-1.02.36-1.76.12-2.21-.72ZM27.15,64.63c-.23.36-.54.6-.94.72-.4.12-.77.06-1.11-.18-.45-.24-.74-.57-.85-.99-.11-.42-.06-.81.17-1.17.57-.84,1.3-1.08,2.21-.72.79.72.96,1.51.51,2.34ZM24.76,43.89c-.45-.96-.29-1.68.51-2.16,1.02-.36,1.76-.12,2.21.72.45.84.23,1.56-.68,2.16-.34.24-.71.3-1.11.18-.4-.12-.71-.42-.93-.9ZM27.32,48.58c-.57-.72-.4-1.44.51-2.16.34-.24.71-.3,1.11-.18.4.12.71.42.94.9.22.36.28.75.17,1.17-.11.42-.34.75-.68.99-.34.24-.71.3-1.11.18-.4-.12-.71-.42-.93-.9ZM30.04,59.04c-.45.96-1.13,1.2-2.04.72-.79-.6-1.02-1.38-.68-2.34.68-.84,1.42-1.02,2.21-.54.34.24.57.57.68.99.11.42.06.81-.17,1.17ZM29.87,53.63c-.45-.84-.29-1.62.51-2.34,1.02-.48,1.7-.24,2.04.72.22.36.28.75.17,1.17-.11.42-.34.75-.68.99-.91.48-1.59.3-2.04-.54ZM32.93,53.63c-.45.84-1.14,1.02-2.04.54-.34-.24-.57-.57-.68-.99-.11-.42-.06-.81.17-1.17.34-.96,1.02-1.2,2.04-.72.79.72.96,1.5.51,2.34ZM32.76,59.04c-.23-.36-.28-.75-.17-1.17.11-.42.34-.75.68-.99.79-.48,1.53-.3,2.21.54.34.97.11,1.74-.68,2.34-.91.48-1.59.24-2.04-.72ZM35.49,48.58c-.23.48-.54.78-.94.9-.4.12-.77.06-1.11-.18-.34-.24-.57-.57-.68-.99-.11-.42-.06-.81.17-1.17.22-.48.54-.78.94-.9.4-.12.77-.06,1.11.18.91.72,1.08,1.44.51,2.16ZM38.04,43.89c-.23.48-.54.78-.94.9-.4.12-.77.06-1.11-.18-.91-.6-1.14-1.32-.68-2.16.45-.84,1.19-1.08,2.21-.72.79.48.96,1.2.51,2.16ZM35.66,64.63c-.46-.84-.29-1.62.51-2.34.91-.36,1.64-.12,2.21.72.23.36.28.75.17,1.17-.11.42-.4.75-.85.99-.34.24-.71.3-1.11.18-.4-.12-.71-.36-.93-.72ZM40.77,38.84c-.46.84-1.19,1.08-2.21.72-.91-.72-1.08-1.44-.51-2.16.22-.48.54-.78.94-.9.4-.12.77-.06,1.11.18.79.6,1.02,1.32.68,2.16ZM38.55,70.05c-.45-.96-.29-1.68.51-2.16.91-.36,1.64-.18,2.21.54.34,1.08.11,1.87-.68,2.34-.34.24-.71.3-1.11.18-.4-.12-.71-.42-.94-.9ZM43.32,33.79c-.23.48-.54.78-.94.9-.4.12-.77.06-1.11-.18-.8-.6-1.02-1.32-.68-2.16.45-.84,1.19-1.08,2.21-.72.91.72,1.08,1.44.51,2.16ZM41.79,76.18c-.46-.96-.29-1.68.51-2.16.91-.36,1.64-.18,2.21.54.34,1.08.11,1.87-.68,2.34-.34.24-.71.3-1.11.18-.4-.12-.71-.42-.93-.9ZM46.21,28.38c-.23.36-.54.6-.94.72-.4.12-.77.06-1.11-.18-.34-.24-.57-.57-.68-.99-.11-.42-.06-.81.17-1.17.45-.96,1.13-1.14,2.04-.54.34.24.57.57.68.99.11.42.06.81-.17,1.17ZM44.51,81.23c-.23-.36-.28-.75-.17-1.17.11-.42.34-.75.68-.99.34-.24.71-.3,1.11-.18.4.12.71.36.93.72.45.84.28,1.62-.51,2.34-.34.24-.71.3-1.11.18-.4-.12-.71-.42-.94-.9ZM49.28,22.61c-.45.84-1.14,1.02-2.04.54-.34-.24-.57-.57-.68-.99-.11-.42-.06-.81.17-1.17.23-.48.54-.78.94-.9.4-.12.77-.06,1.11.18.79.72.96,1.5.51,2.34ZM46.89,85.92c-.45-.84-.23-1.56.68-2.16.34-.24.71-.3,1.11-.18.4.12.71.42.93.9.45.84.28,1.56-.51,2.16-1.02.36-1.76.12-2.21-.72ZM49.45,90.79c-.45-.84-.23-1.56.68-2.16.34-.24.71-.3,1.11-.18.4.12.71.42.93.9.57.72.4,1.44-.51,2.16-1.02.36-1.76.12-2.21-.72ZM52.17,17.01c-.45.97-1.13,1.14-2.04.54-.91-.48-1.08-1.2-.51-2.16.23-.36.54-.6.94-.72.4-.12.77-.06,1.11.18.34.24.57.57.68.99.11.42.06.81-.17,1.17ZM51.83,95.48c-.23-.36-.28-.75-.17-1.17.11-.42.34-.75.68-.99.91-.48,1.59-.3,2.04.54.45.84.28,1.62-.51,2.35-.34.24-.71.3-1.11.18-.4-.12-.71-.42-.94-.9ZM54.89,12.14c-.68.84-1.42,1.02-2.21.54-.91-.48-1.08-1.2-.51-2.16.23-.36.54-.6.94-.72.4-.12.77-.06,1.11.18.91.48,1.13,1.2.68,2.16ZM57.28,7.45c-.23.36-.54.6-.94.72-.4.12-.77.06-1.11-.18-.91-.48-1.14-1.2-.68-2.16.68-.84,1.42-1.02,2.21-.54.91.48,1.08,1.2.51,2.16ZM54.89,100.71c-.45-.84-.23-1.56.68-2.16.34-.24.71-.3,1.11-.18.4.12.71.42.94.9.57.72.4,1.44-.51,2.16-1.02.36-1.76.12-2.21-.72ZM60,2.4c-.68.96-1.36,1.15-2.04.54-.45-.24-.74-.57-.85-.99-.11-.42-.06-.81.17-1.17.22-.36.54-.6.93-.72.4-.12.77-.06,1.11.18.91.36,1.13,1.08.68,2.16ZM57.28,105.4c-.23-.36-.29-.75-.17-1.17.11-.42.34-.75.68-.99.91-.48,1.59-.3,2.04.54.45.84.28,1.62-.51,2.34-.34.24-.71.3-1.11.18-.4-.12-.71-.42-.93-.9ZM62.39,109.37c-.23.48-.54.78-.94.9-.4.12-.77.06-1.11-.18-.8-.72-.97-1.5-.51-2.34.45-.84,1.13-1.02,2.04-.54.34.24.56.57.68.99.11.42.06.81-.17,1.17Z"/>
  </g>
</svg>