<?xml version="1.0" encoding="UTF-8"?>
<svg id="Layer_2" data-name="Layer 2" xmlns="http://www.w3.org/2000/svg" viewBox="0 0 61.55 110.72">
  <defs>
    <style>
      .cls-1 {
        fill: #3c3c3b;
        stroke-width: 0px;
      }
    </style>
  </defs>
  <g id="R">
    <path class="cls-1" d="M3.07,2.53c0,1.08-.51,1.63-1.53,1.63s-1.53-.54-1.53-1.63S.51.9,1.53.9s1.53.54,1.53,1.63ZM3.07,9.21c0,1.08-.51,1.63-1.53,1.63s-1.53-.54-1.53-1.63.51-1.63,1.53-1.63,1.53.54,1.53,1.63ZM3.07,15.53c0,1.08-.51,1.63-1.53,1.63s-1.53-.54-1.53-1.63.51-1.63,1.53-1.63,1.53.54,1.53,1.63ZM3.07,21.13c0,1.08-.51,1.63-1.53,1.63s-1.53-.54-1.53-1.63.51-1.63,1.53-1.63,1.53.54,1.53,1.63ZM3.07,26.55c0,1.08-.51,1.63-1.53,1.63s-1.53-.54-1.53-1.63.51-1.63,1.53-1.63,1.53.54,1.53,1.63ZM3.07,32.33c0,1.08-.51,1.63-1.53,1.63s-1.53-.54-1.53-1.63.51-1.63,1.53-1.63,1.53.54,1.53,1.63ZM3.07,39.38c0,1.08-.51,1.63-1.53,1.63s-1.53-.54-1.53-1.63.51-1.63,1.53-1.63,1.53.54,1.53,1.63ZM3.07,45.7c0,1.08-.51,1.63-1.53,1.63s-1.53-.54-1.53-1.63.51-1.63,1.53-1.63,1.53.54,1.53,1.63ZM3.07,52.38c0,1.08-.51,1.63-1.53,1.63s-1.53-.54-1.53-1.63.51-1.63,1.53-1.63,1.53.54,1.53,1.63ZM3.07,58.7c0,1.08-.51,1.63-1.53,1.63s-1.53-.54-1.53-1.63.51-1.63,1.53-1.63,1.53.54,1.53,1.63ZM3.07,65.21c0,1.08-.51,1.63-1.53,1.63s-1.53-.54-1.53-1.63.51-1.63,1.53-1.63,1.53.54,1.53,1.63ZM3.07,70.62c0,1.08-.51,1.63-1.53,1.63s-1.53-.54-1.53-1.63.51-1.63,1.53-1.63,1.53.54,1.53,1.63ZM3.07,76.4c0,1.08-.51,1.63-1.53,1.63s-1.53-.54-1.53-1.63.51-1.63,1.53-1.63,1.53.54,1.53,1.63ZM3.07,82.91c0,1.08-.51,1.63-1.53,1.63s-1.53-.54-1.53-1.63.51-1.63,1.53-1.63,1.53.54,1.53,1.63ZM3.07,89.23c0,1.08-.51,1.63-1.53,1.63s-1.53-.54-1.53-1.63.51-1.63,1.53-1.63,1.53.54,1.53,1.63ZM3.07,95.91c0,1.08-.51,1.63-1.53,1.63s-1.53-.54-1.53-1.63.51-1.63,1.53-1.63,1.53.54,1.53,1.63ZM3.07,102.41c0,1.08-.51,1.63-1.53,1.63s-1.53-.54-1.53-1.63.51-1.63,1.53-1.63,1.53.54,1.53,1.63ZM3.07,109.1c0,1.08-.51,1.63-1.53,1.63s-1.53-.54-1.53-1.63.51-1.63,1.53-1.63,1.53.54,1.53,1.63ZM6.99,3.43c-1.02-.24-1.53-.78-1.53-1.63.23-1.08.85-1.63,1.87-1.63,1.02.24,1.42.84,1.19,1.81,0,1.21-.51,1.69-1.53,1.44ZM8.52,58.34c0,1.08-.51,1.63-1.53,1.63s-1.53-.54-1.53-1.63.51-1.63,1.53-1.63,1.53.54,1.53,1.63ZM11.59,3.25c-1.02,0-1.53-.6-1.53-1.81.23-.96.85-1.44,1.87-1.44,1.02.24,1.42.9,1.19,1.99,0,1.08-.51,1.51-1.53,1.26ZM15.51,58.16c0,1.08-.51,1.63-1.54,1.63s-1.53-.54-1.53-1.63.51-1.63,1.53-1.63,1.54.54,1.54,1.63ZM16.54,3.25c-1.02,0-1.42-.6-1.19-1.81,0-.96.51-1.44,1.53-1.44,1.02.24,1.53.66,1.53,1.26-.11.48-.34.97-.68,1.44-.34.48-.74.66-1.19.54ZM22.16,57.8c0,1.08-.51,1.63-1.53,1.63s-1.53-.54-1.53-1.63.51-1.63,1.53-1.63,1.53.54,1.53,1.63ZM22.33,3.79c-.34,0-.65-.18-.94-.54-.29-.36-.37-.78-.26-1.26-.11-.48,0-.84.34-1.08.34-.24.74-.36,1.19-.36.91,0,1.36.61,1.36,1.81-.23.97-.8,1.44-1.71,1.44ZM28.81,57.44c0,1.08-.51,1.63-1.53,1.63s-1.53-.54-1.53-1.63.51-1.63,1.53-1.63,1.53.54,1.53,1.63ZM27.95,4.33c-1.14-.24-1.59-.84-1.36-1.81.23-1.08.74-1.63,1.53-1.63,1.02,0,1.53.61,1.53,1.81-.11.84-.68,1.39-1.71,1.63ZM29.83,63.04c-.68-.96-.51-1.68.51-2.17.68-.72,1.36-.6,2.05.36.23.36.31.79.26,1.26-.06.48-.31.84-.77,1.08-.91.48-1.59.3-2.05-.54ZM31.53,56.54c0-1.08.57-1.63,1.71-1.63.91,0,1.37.54,1.37,1.63s-.51,1.63-1.54,1.63-1.53-.54-1.53-1.63ZM32.9,67.73c-.34-.24-.46-.57-.34-.99.11-.42.34-.81.68-1.18.8-.36,1.53-.18,2.22.54.45.97.28,1.69-.51,2.17-.91.84-1.59.66-2.05-.54ZM34.09,5.96c-1.02,0-1.53-.48-1.53-1.44,0-1.2.45-1.81,1.37-1.81.45,0,.85.12,1.19.36.34.24.45.61.34,1.08,0,1.21-.46,1.81-1.37,1.81ZM35.46,72.43c-.46-.96-.29-1.74.51-2.35,1.02-.48,1.71-.3,2.05.54.34.36.48.75.43,1.18-.06.42-.26.75-.6.99-.91.61-1.7.48-2.39-.36ZM36.65,54.91c.23-1.08.79-1.63,1.7-1.63,1.14,0,1.59.54,1.37,1.63,0,1.08-.51,1.63-1.53,1.63s-1.53-.54-1.53-1.63ZM39.38,7.95c-1.02.24-1.65-.24-1.87-1.45,0-.96.57-1.56,1.71-1.81,1.13,0,1.59.48,1.36,1.45.23,1.21-.17,1.81-1.19,1.81ZM38.52,77.13c-.57-1.08-.4-1.81.51-2.17.68-.72,1.36-.6,2.05.36.45.61.34,1.39-.34,2.35-.91.36-1.65.18-2.22-.54ZM41.76,82.37c-.68-.96-.51-1.68.51-2.17.79-.6,1.48-.42,2.05.54.23.24.28.61.17,1.08-.11.48-.28.84-.51,1.08-.8.48-1.53.3-2.21-.54ZM42.44,52.02c0-1.08.57-1.63,1.71-1.63.91,0,1.36.54,1.36,1.63s-.51,1.63-1.53,1.63-1.53-.54-1.53-1.63ZM44.66,10.48c-1.02.24-1.53-.18-1.53-1.26-.23-1.08.17-1.74,1.19-1.99,1.13.24,1.76.79,1.87,1.63,0,.48-.14.9-.43,1.26-.28.36-.65.48-1.11.36ZM45.34,87.96c-.34-.36-.46-.75-.34-1.17.11-.42.34-.75.68-.99.68-.6,1.42-.48,2.22.36.45.97.28,1.75-.51,2.35-.91.61-1.59.42-2.05-.54ZM48.24,14.09c-1.14.24-1.59-.24-1.36-1.44-.23-.96.17-1.56,1.19-1.81,1.02,0,1.65.54,1.88,1.63-.11.84-.68,1.39-1.71,1.63ZM48.58,93.2c-.68-.72-.51-1.44.51-2.17.57-.6,1.25-.42,2.05.54.45.84.28,1.57-.51,2.17-.34.24-.71.3-1.11.18-.4-.12-.71-.36-.94-.72ZM48.58,48.59c0-1.08.51-1.63,1.53-1.63s1.53.54,1.53,1.63-.51,1.63-1.53,1.63-1.53-.54-1.53-1.63ZM51.48,18.24c-1.02.24-1.65-.18-1.88-1.26,0-1.08.45-1.74,1.37-1.99,1.13,0,1.7.61,1.7,1.81.23.97-.17,1.44-1.19,1.44ZM50.97,43.17c0-1.08.51-1.63,1.53-1.63,1.02.24,1.53.84,1.53,1.81-.23,1.21-.8,1.69-1.71,1.45-1.14,0-1.59-.54-1.36-1.63ZM53.36,23.3c-1.02-.24-1.59-.78-1.71-1.63,0-.48.14-.9.43-1.26.28-.36.65-.48,1.11-.36,1.03-.24,1.54.24,1.54,1.45.23.97-.23,1.57-1.37,1.81ZM52.16,98.98c-.23-.36-.28-.75-.17-1.17.11-.42.28-.75.51-.99.91-.6,1.65-.48,2.22.36.68.97.51,1.75-.51,2.35-.91.48-1.6.3-2.05-.54ZM54.04,28.54c-1.14,0-1.71-.6-1.71-1.81,0-.96.45-1.44,1.36-1.44,1.14-.24,1.71.24,1.71,1.44,0,.97-.46,1.57-1.36,1.81ZM52.33,37.21c0-.96.57-1.44,1.71-1.44.91,0,1.36.54,1.36,1.63s-.51,1.63-1.53,1.63-1.53-.6-1.53-1.81ZM53.01,32.15c0-.96.51-1.44,1.53-1.44s1.53.54,1.53,1.63-.51,1.63-1.53,1.63-1.53-.6-1.53-1.81ZM55.91,105.12c-.57-.96-.46-1.68.34-2.17.34-.36.74-.48,1.19-.36.45.12.8.36,1.02.72.45.97.28,1.75-.51,2.35-.91.48-1.59.3-2.05-.54ZM58.64,109.64c-.57-.84-.4-1.63.51-2.35.79-.48,1.48-.3,2.05.54.57.97.45,1.69-.34,2.17-.8.72-1.53.61-2.22-.36Z"/>
  </g>
</svg>