<?xml version="1.0" encoding="UTF-8"?>
<svg id="Layer_2" data-name="Layer 2" xmlns="http://www.w3.org/2000/svg" viewBox="0 0 60.04 111.4">
  <defs>
    <style>
      .cls-1 {
        fill: #3c3c3b;
        stroke-width: 0px;
      }
    </style>
  </defs>
  <g id="S">
    <path class="cls-1" d="M3.02,88.98c0,1.08-.5,1.61-1.51,1.61s-1.51-.54-1.51-1.61.5-1.61,1.51-1.61,1.51.54,1.51,1.61ZM1.01,26.55c0-1.08.5-1.61,1.51-1.61s1.51.54,1.51,1.61-.5,1.61-1.51,1.61-1.51-.54-1.51-1.61ZM1.17,31.75c0-1.08.5-1.61,1.51-1.61s1.51.54,1.51,1.61-.5,1.61-1.51,1.61-1.51-.54-1.51-1.61ZM4.36,93.64c0,1.08-.5,1.61-1.51,1.61s-1.51-.54-1.51-1.61.5-1.61,1.51-1.61,1.51.54,1.51,1.61ZM1.68,21.71c0-1.08.5-1.61,1.51-1.61s1.51.54,1.51,1.61-.5,1.61-1.51,1.61-1.51-.54-1.51-1.61ZM2.18,37.31c0-1.08.5-1.61,1.51-1.61s1.51.54,1.51,1.61-.5,1.61-1.51,1.61-1.51-.54-1.51-1.61ZM3.36,16.5c0-1.08.5-1.61,1.51-1.61s1.51.54,1.51,1.61-.5,1.61-1.51,1.61-1.51-.54-1.51-1.61ZM7.21,97.95c0,1.08-.5,1.61-1.51,1.61s-1.51-.54-1.51-1.61.5-1.61,1.51-1.61,1.51.54,1.51,1.61ZM4.36,42.34c0-1.08.5-1.61,1.51-1.61s1.51.54,1.51,1.61-.5,1.61-1.51,1.61-1.51-.54-1.51-1.61ZM6.21,12.02c0-1.08.5-1.61,1.51-1.61s1.51.54,1.51,1.61-.5,1.61-1.51,1.61-1.51-.54-1.51-1.61ZM10.9,101.89c0,1.08-.5,1.61-1.51,1.61s-1.51-.54-1.51-1.61.5-1.61,1.51-1.61,1.51.54,1.51,1.61ZM8.22,46.46c0-1.08.5-1.61,1.51-1.61s1.51.54,1.51,1.61-.5,1.61-1.51,1.61-1.51-.54-1.51-1.61ZM9.22,8.43c0-1.08.5-1.61,1.51-1.61s1.51.54,1.51,1.61-.5,1.61-1.51,1.61-1.51-.54-1.51-1.61ZM11.74,104.94c0-1.08.5-1.61,1.51-1.61s1.51.54,1.51,1.61-.5,1.61-1.51,1.61-1.51-.54-1.51-1.61ZM12.75,50.05c0-1.08.5-1.61,1.51-1.61s1.51.54,1.51,1.61-.5,1.61-1.51,1.61-1.51-.54-1.51-1.61ZM13.25,5.74c0-1.08.5-1.61,1.51-1.61s1.51.54,1.51,1.61-.5,1.61-1.51,1.61-1.51-.54-1.51-1.61ZM16.77,107.45c0-1.08.5-1.61,1.51-1.61s1.51.54,1.51,1.61-.5,1.61-1.51,1.61-1.51-.54-1.51-1.61ZM19.96,52.92c0,1.08-.5,1.61-1.51,1.61s-1.51-.54-1.51-1.61.5-1.61,1.51-1.61,1.51.54,1.51,1.61ZM17.78,3.05c0-1.08.5-1.61,1.51-1.61s1.51.54,1.51,1.61-.5,1.61-1.51,1.61-1.51-.54-1.51-1.61ZM22.3,54.35c0-1.08.5-1.61,1.51-1.61s1.51.54,1.51,1.61-.5,1.61-1.51,1.61-1.51-.54-1.51-1.61ZM22.47,109.25c0-1.08.5-1.61,1.51-1.61s1.51.54,1.51,1.61-.5,1.61-1.51,1.61-1.51-.54-1.51-1.61ZM23.14,1.79c0-1.08.5-1.61,1.51-1.61s1.51.54,1.51,1.61-.5,1.61-1.51,1.61-1.51-.54-1.51-1.61ZM28.01,1.61c0-1.08.5-1.61,1.51-1.61s1.51.54,1.51,1.61-.5,1.61-1.51,1.61-1.51-.54-1.51-1.61ZM28.51,55.61c0-1.08.5-1.61,1.51-1.61s1.51.54,1.51,1.61-.5,1.61-1.51,1.61-1.51-.54-1.51-1.61ZM31.86,109.79c0,1.08-.5,1.61-1.51,1.61s-1.51-.54-1.51-1.61.5-1.61,1.51-1.61,1.51.54,1.51,1.61ZM33.21,1.79c0-1.08.5-1.61,1.51-1.61s1.51.54,1.51,1.61-.5,1.61-1.51,1.61-1.51-.54-1.51-1.61ZM35.05,57.05c0-1.08.5-1.61,1.51-1.61s1.51.54,1.51,1.61-.5,1.61-1.51,1.61-1.51-.54-1.51-1.61ZM38.74,109.43c0,1.08-.5,1.61-1.51,1.61s-1.51-.54-1.51-1.61.5-1.61,1.51-1.61,1.51.54,1.51,1.61ZM37.9,3.41c0-1.08.5-1.61,1.51-1.61s1.51.54,1.51,1.61-.5,1.61-1.51,1.61-1.51-.54-1.51-1.61ZM41.09,59.38c0-1.08.5-1.61,1.51-1.61s1.51.54,1.51,1.61-.5,1.61-1.51,1.61-1.51-.54-1.51-1.61ZM44.94,5.2c0,1.08-.5,1.61-1.51,1.61s-1.51-.54-1.51-1.61.5-1.61,1.51-1.61,1.51.54,1.51,1.61ZM45.95,107.81c0,1.08-.5,1.61-1.51,1.61s-1.51-.54-1.51-1.61.5-1.61,1.51-1.61,1.51.54,1.51,1.61ZM48.97,7.89c0,1.08-.5,1.61-1.51,1.61s-1.51-.54-1.51-1.61.5-1.61,1.51-1.61,1.51.54,1.51,1.61ZM46.45,61.53c0-1.08.5-1.61,1.51-1.61s1.51.54,1.51,1.61-.5,1.61-1.51,1.61-1.51-.54-1.51-1.61ZM47.96,104.4c0-1.08.5-1.61,1.51-1.61s1.51.54,1.51,1.61-.5,1.61-1.51,1.61-1.51-.54-1.51-1.61ZM49.47,11.84c0-1.08.5-1.61,1.51-1.61s1.51.54,1.51,1.61-.5,1.61-1.51,1.61-1.51-.54-1.51-1.61ZM51.32,64.94c0-1.08.5-1.61,1.51-1.61s1.51.54,1.51,1.61-.5,1.61-1.51,1.61-1.51-.54-1.51-1.61ZM51.82,99.56c0-1.08.5-1.61,1.51-1.61s1.51.54,1.51,1.61-.5,1.61-1.51,1.61-1.51-.54-1.51-1.61ZM51.99,15.97c0-1.08.5-1.61,1.51-1.61s1.51.54,1.51,1.61-.5,1.61-1.51,1.61-1.51-.54-1.51-1.61ZM54.33,21.17c0-1.08.5-1.61,1.51-1.61s1.51.54,1.51,1.61-.5,1.61-1.51,1.61-1.51-.54-1.51-1.61ZM54.67,70.14c0-1.08.5-1.61,1.51-1.61s1.51.54,1.51,1.61-.5,1.61-1.51,1.61-1.51-.54-1.51-1.61ZM55.01,94.54c0-1.08.5-1.61,1.51-1.61s1.51.54,1.51,1.61-.5,1.61-1.51,1.61-1.51-.54-1.51-1.61ZM55.51,25.83c0-1.08.5-1.61,1.51-1.61s1.51.54,1.51,1.61-.5,1.61-1.51,1.61-1.51-.54-1.51-1.61ZM56.52,76.42c0-1.08.5-1.61,1.51-1.61s1.51.54,1.51,1.61-.5,1.61-1.51,1.61-1.51-.54-1.51-1.61ZM56.52,89.16c0-1.08.5-1.61,1.51-1.61s1.51.54,1.51,1.61-.5,1.61-1.51,1.61-1.51-.54-1.51-1.61ZM57.02,82.7c0-1.08.5-1.61,1.51-1.61s1.51.54,1.51,1.61-.5,1.61-1.51,1.61-1.51-.54-1.51-1.61Z"/>
  </g>
</svg>