<?xml version="1.0" encoding="UTF-8"?>
<svg id="Layer_2" data-name="Layer 2" xmlns="http://www.w3.org/2000/svg" viewBox="0 0 75.86 122.37">
  <defs>
    <style>
      .cls-1, .cls-2, .cls-3, .cls-4 {
        stroke-width: 0px;
      }

      .cls-2 {
        fill: #6f6f6e;
      }

      .cls-3 {
        fill: #fff;
      }

      .cls-4 {
        fill: #ff0600;
      }
    </style>
  </defs>
  <g id="P">
    <g>
      <g>
        <path class="cls-2" d="M23.95,8.78c-.23,0-.47-.09-.64-.28-.31-.35-.29-.88.06-1.2.04-.03.39-.35,1.15-.79.41-.24.93-.1,1.17.31.24.41.1.93-.31,1.17-.6.35-.86.58-.87.58-.16.14-.37.22-.57.22Z"/>
        <path class="cls-2" d="M44.36,75.69c-.46,0-.85-.37-.85-.84,0-.47.37-.86.84-.87.8-.02,1.6-.05,2.37-.11.47-.03.88.32.91.79.03.47-.32.88-.79.91-.8.06-1.63.1-2.46.11,0,0-.01,0-.02,0ZM41.94,75.69s-.01,0-.02,0c-.83-.02-1.65-.05-2.45-.1-.47-.03-.83-.43-.8-.9.03-.47.44-.83.9-.8.78.05,1.58.08,2.39.1.47.01.85.4.84.87,0,.47-.39.84-.85.84ZM37.11,75.39s-.06,0-.09,0c-.83-.09-1.65-.19-2.44-.31-.47-.07-.79-.51-.72-.97.07-.47.5-.79.97-.72.76.12,1.56.22,2.36.3.47.05.81.47.76.94-.05.44-.42.77-.85.77ZM49.18,75.34c-.42,0-.79-.31-.85-.74-.06-.47.27-.9.74-.96.79-.1,1.57-.23,2.33-.39.46-.09.91.21,1.01.67.09.46-.21.91-.67,1.01-.79.16-1.61.3-2.44.4-.04,0-.08,0-.11,0ZM32.33,74.65c-.06,0-.12,0-.18-.02-.83-.17-1.63-.37-2.41-.59-.45-.13-.72-.6-.59-1.05.13-.45.6-.72,1.05-.59.74.21,1.51.39,2.3.56.46.1.76.55.66,1.01-.08.4-.44.68-.84.68ZM53.92,74.38c-.37,0-.72-.25-.82-.63-.13-.45.14-.93.59-1.05.76-.21,1.51-.45,2.23-.72.44-.16.93.06,1.1.51.16.44-.06.93-.51,1.1-.76.28-1.56.54-2.37.76-.08.02-.15.03-.23.03ZM58.45,72.71c-.32,0-.63-.18-.77-.49-.2-.43-.02-.94.41-1.14.71-.33,1.4-.7,2.06-1.1.41-.24.93-.11,1.17.3.24.41.11.93-.3,1.17-.71.42-1.45.82-2.2,1.17-.12.06-.24.08-.37.08ZM62.59,70.24c-.26,0-.52-.12-.69-.35-.28-.38-.2-.92.18-1.19.62-.46,1.23-.96,1.81-1.47.35-.32.89-.29,1.21.06.32.35.29.89-.06,1.21-.62.56-1.27,1.09-1.94,1.58-.15.11-.33.17-.51.17ZM66.17,67c-.21,0-.41-.07-.57-.22-.35-.32-.37-.86-.06-1.21.52-.57,1.02-1.17,1.49-1.8.28-.38.82-.45,1.2-.17.38.28.45.82.17,1.2-.5.67-1.04,1.32-1.59,1.92-.17.19-.4.28-.63.28ZM69.08,63.15c-.15,0-.31-.04-.45-.13-.4-.25-.52-.78-.27-1.18.4-.65.79-1.34,1.16-2.04.22-.42.73-.58,1.15-.37.42.22.58.73.37,1.15-.38.75-.8,1.47-1.23,2.16-.16.26-.44.4-.73.4ZM71.3,58.85c-.11,0-.22-.02-.33-.07-.43-.18-.64-.69-.45-1.12.3-.71.59-1.45.85-2.2.16-.45.64-.68,1.09-.52s.68.64.52,1.09c-.28.79-.58,1.56-.89,2.31-.14.33-.45.52-.79.52ZM72.9,54.29c-.08,0-.16-.01-.24-.03-.45-.13-.72-.6-.59-1.06.21-.74.41-1.52.59-2.3.11-.46.56-.75,1.02-.64.46.11.75.56.64,1.02-.19.81-.39,1.62-.61,2.39-.11.38-.45.62-.82.62ZM73.98,49.58c-.05,0-.1,0-.15-.01-.46-.08-.77-.53-.69-.99.14-.76.26-1.56.37-2.35.06-.47.5-.8.96-.73.47.06.79.5.73.96-.11.82-.24,1.64-.38,2.42-.07.41-.43.7-.84.7ZM74.64,44.79s-.06,0-.09,0c-.47-.05-.81-.47-.77-.93.08-.77.14-1.57.19-2.38.03-.47.44-.83.91-.8.47.03.83.44.8.91-.05.83-.12,1.65-.2,2.44-.04.44-.42.77-.85.77ZM74.96,39.96s-.02,0-.03,0c-.47-.02-.84-.41-.82-.88.03-.78.04-1.58.05-2.39,0-.47.38-.85.85-.85h0c.47,0,.85.39.85.86,0,.83-.02,1.65-.05,2.44-.02.46-.4.83-.85.83ZM74.97,35.12c-.45,0-.83-.36-.85-.82-.04-.79-.1-1.59-.18-2.36-.05-.47.29-.89.76-.94.47-.05.89.29.94.76.09.81.15,1.64.19,2.46.02.47-.34.87-.81.89-.01,0-.03,0-.04,0ZM74.44,30.32c-.41,0-.77-.29-.84-.7-.14-.78-.31-1.55-.5-2.3-.12-.46.16-.92.62-1.04.46-.12.92.16,1.04.62.2.79.38,1.61.52,2.42.08.46-.23.91-.69.99-.05,0-.1.01-.15.01ZM73.25,25.64c-.36,0-.69-.23-.81-.58-.25-.74-.53-1.48-.83-2.2-.18-.43.02-.94.45-1.12.44-.18.94.02,1.12.45.32.76.61,1.54.88,2.32.15.45-.09.93-.54,1.08-.09.03-.18.04-.27.04ZM71.37,21.19c-.31,0-.61-.17-.76-.46-.36-.69-.75-1.38-1.16-2.04-.25-.4-.13-.93.27-1.18.4-.25.93-.13,1.18.27.44.7.85,1.43,1.23,2.16.22.42.05.93-.37,1.15-.13.07-.26.1-.39.1ZM68.81,17.09c-.26,0-.52-.12-.69-.34-.47-.63-.96-1.24-1.48-1.83-.31-.36-.27-.9.08-1.21.35-.31.9-.27,1.21.08.54.62,1.07,1.27,1.56,1.93.28.38.2.91-.18,1.2-.15.11-.33.17-.51.17ZM65.62,13.45c-.22,0-.43-.08-.6-.24-.56-.54-1.15-1.07-1.75-1.58-.36-.3-.41-.84-.11-1.2s.84-.41,1.2-.11c.64.53,1.26,1.09,1.85,1.66.34.33.34.87.02,1.21-.17.17-.39.26-.61.26ZM61.91,10.35c-.17,0-.34-.05-.5-.16-.64-.45-1.3-.89-1.97-1.29-.4-.24-.53-.77-.29-1.17.24-.4.77-.53,1.17-.29.71.43,1.4.89,2.08,1.36.38.27.47.81.2,1.19-.17.23-.43.36-.7.36ZM57.77,7.85c-.13,0-.26-.03-.39-.09-.7-.36-1.42-.69-2.14-.99-.44-.18-.64-.68-.46-1.12.18-.44.68-.64,1.12-.46.76.32,1.52.67,2.25,1.04.42.21.59.73.37,1.15-.15.3-.45.47-.76.47ZM27.13,7.05c-.34,0-.66-.2-.79-.54-.17-.44.04-.94.48-1.11.73-.29,1.52-.56,2.36-.81.45-.13.93.13,1.06.58.13.45-.13.93-.58,1.06-.79.23-1.53.49-2.21.76-.1.04-.21.06-.32.06ZM53.31,5.98c-.09,0-.18-.01-.27-.04-.75-.25-1.51-.47-2.26-.66-.46-.11-.74-.58-.62-1.04.11-.46.58-.74,1.04-.62.8.2,1.6.43,2.39.69.45.15.69.63.54,1.08-.12.36-.45.59-.81.59ZM31.77,5.67c-.39,0-.75-.27-.83-.67-.1-.46.19-.92.65-1.02.77-.17,1.59-.32,2.42-.46.47-.07.9.24.98.71.08.47-.24.9-.71.98-.8.13-1.59.28-2.33.44-.06.01-.12.02-.18.02ZM36.54,4.89c-.43,0-.8-.32-.85-.76-.05-.47.28-.89.75-.95.79-.09,1.61-.17,2.44-.23.47-.03.88.32.91.79.03.47-.32.88-.79.91-.81.06-1.61.13-2.38.22-.03,0-.07,0-.1,0ZM48.61,4.82s-.09,0-.14-.01c-.78-.13-1.56-.22-2.33-.27-.47-.03-.83-.44-.79-.91.03-.47.44-.83.91-.79.81.06,1.65.16,2.48.29.47.08.78.51.71.98-.07.42-.43.72-.84.72ZM41.37,4.54c-.46,0-.84-.36-.85-.82-.02-.47.35-.87.82-.89.8-.03,1.62-.05,2.45-.06h0c.47,0,.85.38.85.85,0,.47-.38.86-.85.86-.81,0-1.61.03-2.39.06-.01,0-.02,0-.03,0Z"/>
        <path class="cls-2" d="M27.59,73.32c-.1,0-.2-.02-.29-.05-.4-.15-.79-.3-1.17-.46-.44-.18-.64-.68-.46-1.12.18-.43.68-.64,1.12-.46.36.15.73.3,1.1.43.44.16.67.65.51,1.1-.13.35-.45.56-.8.56Z"/>
      </g>
      <g>
        <g>
          <path class="cls-3" d="M19.97,2.59c-1.81,2.22-1.48,5.48.74,7.29,2.22,1.81,5.48,1.48,7.29-.74,1.81-2.22,1.48-5.48-.74-7.29-2.22-1.81-5.48-1.48-7.29.74Z"/>
          <path class="cls-2" d="M19.43,2.16c-2.05,2.51-1.67,6.21.84,8.26,2.51,2.05,6.21,1.67,8.26-.84,2.05-2.51,1.67-6.21-.84-8.26-2.51-2.05-6.21-1.67-8.26.84-2.05,2.51,2.05-2.51,0,0ZM27.46,8.71c-1.57,1.92-4.4,2.21-6.32.64-1.92-1.57-2.21-4.4-.64-6.32,1.57-1.92,4.4-2.21,6.32-.64,1.92,1.57,2.21,4.4.64,6.32-1.57,1.92,1.57-1.92,0,0Z"/>
        </g>
        <polygon class="cls-2" points="27.34 75.91 27.87 72.49 30.7 70.48 22.59 69.23 27.34 75.91"/>
        <circle class="cls-2" cx="19.76" cy="66.96" r="2.91"/>
      </g>
      <path class="cls-4" d="M23.31,7.9h2.45c.24,0,.43.05.56.15.13.1.19.24.19.41,0,.15-.05.28-.15.39-.1.11-.26.16-.46.16h-3.45c-.23,0-.42-.06-.55-.19-.13-.13-.2-.28-.2-.46,0-.11.04-.26.13-.45.08-.19.18-.33.28-.44.42-.43.79-.8,1.13-1.11.33-.31.57-.51.72-.61.26-.18.47-.36.64-.55.17-.18.3-.37.39-.56s.13-.38.13-.57c0-.2-.05-.38-.14-.54s-.23-.28-.39-.37c-.16-.09-.34-.13-.54-.13-.41,0-.73.18-.97.54-.03.05-.08.17-.16.38-.07.21-.16.37-.25.48-.09.11-.23.17-.41.17-.16,0-.29-.05-.39-.15-.1-.1-.16-.24-.16-.42,0-.22.05-.44.15-.68.1-.23.24-.45.43-.64.19-.19.44-.34.73-.46.3-.12.64-.18,1.04-.18.48,0,.89.08,1.22.23.22.1.41.24.58.41.17.18.3.38.39.61.09.23.14.47.14.72,0,.39-.1.74-.29,1.06-.19.32-.39.57-.59.75-.2.18-.54.46-1.01.85-.47.38-.79.68-.97.9-.08.08-.15.19-.23.31Z"/>
      <g>
        <g>
          <path class="cls-2" d="M5,107.61v-2.58c0-.48.39-.86.86-.86s.86.39.86.86v2.58c0,.48-.39.86-.86.86s-.86-.39-.86-.86ZM5,102.44v-2.58c0-.48.39-.86.86-.86s.86.39.86.86v2.58c0,.48-.39.86-.86.86s-.86-.39-.86-.86ZM5,97.27v-2.58c0-.48.39-.86.86-.86s.86.39.86.86v2.58c0,.48-.39.86-.86.86s-.86-.39-.86-.86ZM5.01,91.99v-2.58c0-.48.39-.86.86-.86s.86.39.86.86v2.58c0,.48-.39.86-.86.86s-.86-.39-.86-.86ZM5.01,86.82v-2.58c0-.48.39-.86.86-.86s.86.39.86.86v2.58c0,.48-.39.86-.86.86s-.86-.39-.86-.86ZM5.01,81.65v-2.58c0-.48.39-.86.86-.86s.86.39.86.86v2.58c0,.48-.39.86-.86.86s-.86-.39-.86-.86ZM5.01,76.48v-2.58c0-.48.39-.86.86-.86s.86.39.86.86v2.58c0,.48-.39.86-.86.86s-.86-.39-.86-.86ZM5.01,71.32v-2.58c0-.48.39-.86.86-.86s.86.39.86.86v2.58c0,.48-.39.86-.86.86s-.86-.39-.86-.86Z"/>
          <path class="cls-2" d="M5,65.97v-2.58c0-.48.39-.86.86-.86s.86.39.86.86v2.58c0,.48-.39.86-.86.86s-.86-.39-.86-.86ZM5,60.81v-2.58c0-.48.39-.86.86-.86s.86.39.86.86v2.58c0,.48-.39.86-.86.86s-.86-.39-.86-.86ZM5,55.64v-2.58c0-.48.39-.86.86-.86s.86.39.86.86v2.58c0,.48-.39.86-.86.86s-.86-.39-.86-.86ZM5.01,50.35v-2.58c0-.48.39-.86.86-.86s.86.39.86.86v2.58c0,.48-.39.86-.86.86s-.86-.39-.86-.86ZM5.01,45.18v-2.58c0-.48.39-.86.86-.86s.86.39.86.86v2.58c0,.48-.39.86-.86.86s-.86-.39-.86-.86ZM5.01,40.02v-2.58c0-.48.39-.86.86-.86s.86.39.86.86v2.58c0,.48-.39.86-.86.86s-.86-.39-.86-.86ZM5.01,34.85v-2.58c0-.48.39-.86.86-.86s.86.39.86.86v2.58c0,.48-.39.86-.86.86s-.86-.39-.86-.86ZM5.01,29.68v-2.58c0-.48.39-.86.86-.86s.86.39.86.86v2.58c0,.48-.39.86-.86.86s-.86-.39-.86-.86ZM5.01,24.47v-2.58c0-.48.39-.86.86-.86s.86.39.86.86v2.58c0,.48-.39.86-.86.86s-.86-.39-.86-.86ZM5.01,19.3v-2.58c0-.48.39-.86.86-.86s.86.39.86.86v2.58c0,.48-.39.86-.86.86s-.86-.39-.86-.86Z"/>
          <g>
            <path class="cls-3" d="M11.05,14.28c0-2.86-2.32-5.18-5.18-5.18-2.86,0-5.18,2.32-5.18,5.18,0,2.86,2.32,5.18,5.18,5.18,2.86,0,5.18-2.32,5.18-5.18Z"/>
            <path class="cls-2" d="M11.74,14.28c0-3.24-2.63-5.87-5.87-5.87C2.63,8.41,0,11.05,0,14.28c0,3.24,2.63,5.87,5.87,5.87,3.24,0,5.87-2.63,5.87-5.87,0-3.24,0,3.24,0,0ZM1.38,14.28c0-2.48,2.02-4.49,4.49-4.49,2.48,0,4.49,2.02,4.49,4.49,0,2.48-2.02,4.49-4.49,4.49-2.48,0-4.49-2.02-4.49-4.49,0-2.48,0,2.48,0,0Z"/>
          </g>
          <polygon class="cls-2" points="9.05 108.05 5.86 109.4 2.67 108.04 5.86 115.61 9.05 108.05"/>
        </g>
        <path class="cls-4" d="M5.78,16.87v-4.27c-.79.61-1.33.91-1.6.91-.13,0-.25-.05-.35-.16-.1-.11-.15-.23-.15-.36,0-.16.05-.28.15-.35.1-.08.28-.17.53-.29.38-.18.68-.37.91-.56.23-.2.43-.42.6-.66.17-.24.29-.39.34-.45.05-.06.15-.08.3-.08.17,0,.3.06.4.19.1.13.15.31.15.53v5.37c0,.63-.21.94-.64.94-.19,0-.34-.06-.46-.19-.12-.13-.17-.32-.17-.57Z"/>
        <circle class="cls-2" cx="5.84" cy="119.46" r="2.91"/>
      </g>
      <g>
        <path class="cls-1" d="M14.2,122.34c-.81,0-1.47-.66-1.47-1.47V10.38c0-.81.66-1.47,1.47-1.47s1.47.66,1.47,1.47v110.5c0,.81-.66,1.47-1.47,1.47Z"/>
        <path class="cls-1" d="M40.88,70.33c-15.52,0-28.14-12.63-28.14-28.14v-5.13c0-15.52,12.63-28.14,28.14-28.14s28.14,12.63,28.14,28.14v5.13c0,15.52-12.63,28.14-28.14,28.14ZM40.88,11.84c-13.9,0-25.21,11.31-25.21,25.21v5.13c0,13.9,11.31,25.21,25.21,25.21s25.21-11.31,25.21-25.21v-5.13c0-13.9-11.31-25.21-25.21-25.21Z"/>
      </g>
    </g>
  </g>
</svg>