<?xml version="1.0" encoding="UTF-8"?>
<svg id="Layer_2" data-name="Layer 2" xmlns="http://www.w3.org/2000/svg" viewBox="0 0 82.02 130.64">
  <defs>
    <style>
      .cls-1, .cls-2, .cls-3, .cls-4 {
        stroke-width: 0px;
      }

      .cls-2 {
        fill: #6f6f6e;
      }

      .cls-3 {
        fill: #fff;
      }

      .cls-4 {
        fill: #ff0600;
      }
    </style>
  </defs>
  <g id="F">
    <g>
      <g>
        <path class="cls-2" d="M42.82,56.33h-2.44c-.47,0-.85-.38-.85-.85s.38-.85.85-.85h2.44c.47,0,.85.38.85.85s-.38.85-.85.85ZM37.93,56.33h-2.44c-.47,0-.85-.38-.85-.85s.38-.85.85-.85h2.44c.47,0,.85.38.85.85s-.38.85-.85.85ZM33.05,56.33h-2.44c-.47,0-.85-.38-.85-.85s.38-.85.85-.85h2.44c.47,0,.85.38.85.85s-.38.85-.85.85ZM28.17,56.33h-2.44c-.47,0-.85-.38-.85-.85s.38-.85.85-.85h2.44c.47,0,.85.38.85.85s-.38.85-.85.85ZM23.28,56.33h-2.44c-.47,0-.85-.38-.85-.85s.38-.85.85-.85h2.44c.47,0,.85.38.85.85s-.38.85-.85.85ZM18.4,56.33h-2.44c-.47,0-.85-.38-.85-.85s.38-.85.85-.85h2.44c.47,0,.85.38.85.85s-.38.85-.85.85ZM13.51,56.33h-2.44c-.47,0-.85-.38-.85-.85s.38-.85.85-.85h2.44c.47,0,.85.38.85.85s-.38.85-.85.85ZM8.63,56.33h-2.44c-.47,0-.85-.38-.85-.85s.38-.85.85-.85h2.44c.47,0,.85.38.85.85s-.38.85-.85.85Z"/>
        <g>
          <polygon class="cls-2" points="40.78 58.66 42.14 55.48 40.8 52.28 48.35 55.5 40.78 58.66"/>
          <path class="cls-2" d="M48.99,55.47c0,1.61,1.3,2.91,2.91,2.91s2.91-1.3,2.91-2.91-1.3-2.91-2.91-2.91-2.91,1.3-2.91,2.91Z"/>
          <g>
            <g>
              <path class="cls-3" d="M5.85,60.65c-2.86-.01-5.17-2.34-5.16-5.2.01-2.86,2.34-5.17,5.2-5.16,2.86.01,5.17,2.34,5.16,5.2-.01,2.86-2.34,5.17-5.2,5.16Z"/>
              <path class="cls-2" d="M5.85,61.34c3.24.01,5.88-2.61,5.89-5.85.01-3.24-2.61-5.88-5.85-5.89C2.65,49.59.01,52.21,0,55.45c-.01,3.24,2.61,5.88,5.85,5.89,3.24.01-3.24-.01,0,0ZM5.89,50.98c2.48,0,4.49,2.03,4.48,4.51s-2.03,4.49-4.51,4.48c-2.48,0-4.49-2.03-4.48-4.51,0-2.48,2.03-4.49,4.51-4.48,2.48,0-2.48,0,0,0Z"/>
            </g>
            <path class="cls-4" d="M5.22,57.67h2.45c.24,0,.43.05.56.15.13.1.19.24.19.41,0,.15-.05.28-.15.39-.1.11-.26.16-.46.16h-3.45c-.23,0-.42-.06-.55-.19-.13-.13-.2-.28-.2-.46,0-.11.04-.26.13-.45.08-.19.18-.33.28-.44.42-.43.79-.8,1.13-1.11.33-.31.57-.51.72-.61.26-.18.47-.36.64-.55.17-.18.3-.37.39-.56s.13-.38.13-.57c0-.2-.05-.38-.14-.54s-.23-.28-.39-.37c-.16-.09-.34-.13-.54-.13-.41,0-.73.18-.97.54-.03.05-.08.17-.16.38-.07.21-.16.37-.25.48-.09.11-.23.17-.41.17-.16,0-.29-.05-.39-.15-.1-.1-.15-.24-.15-.42,0-.22.05-.44.15-.68.1-.23.24-.45.43-.64.19-.19.44-.34.73-.46.3-.12.64-.18,1.04-.18.48,0,.89.08,1.22.23.22.1.41.24.58.41.17.18.3.38.39.61.09.23.14.47.14.72,0,.39-.1.74-.29,1.06-.19.32-.39.57-.59.75-.2.18-.54.46-1.01.85-.47.38-.79.68-.97.9-.08.08-.15.19-.23.31Z"/>
          </g>
        </g>
      </g>
      <g>
        <path class="cls-2" d="M18.9,120.86c-.47,0-.85-.38-.85-.85v-2.44c0-.47.38-.85.85-.85s.85.38.85.85v2.44c0,.47-.38.85-.85.85ZM18.9,115.98c-.47,0-.85-.38-.85-.85v-2.44c0-.47.38-.85.85-.85s.85.38.85.85v2.44c0,.47-.38.85-.85.85ZM18.9,111.09c-.47,0-.85-.38-.85-.85v-2.44c0-.47.38-.85.85-.85s.85.38.85.85v2.44c0,.47-.38.85-.85.85ZM18.9,106.21c-.47,0-.85-.38-.85-.85v-2.44c0-.47.38-.85.85-.85s.85.38.85.85v2.44c0,.47-.38.85-.85.85ZM18.9,101.32c-.47,0-.85-.38-.85-.85v-2.44c0-.47.38-.85.85-.85s.85.38.85.85v2.44c0,.47-.38.85-.85.85ZM18.9,96.44c-.47,0-.85-.38-.85-.85v-2.44c0-.47.38-.85.85-.85s.85.38.85.85v2.44c0,.47-.38.85-.85.85ZM18.9,91.56c-.47,0-.85-.38-.85-.85v-2.44c0-.47.38-.85.85-.85s.85.38.85.85v2.44c0,.47-.38.85-.85.85ZM18.9,86.67c-.47,0-.85-.38-.85-.85v-2.44c0-.47.38-.85.85-.85s.85.38.85.85v2.44c0,.47-.38.85-.85.85ZM18.9,81.79c-.47,0-.85-.38-.85-.85v-2.44c0-.47.38-.85.85-.85s.85.38.85.85v2.44c0,.47-.38.85-.85.85ZM18.9,76.9c-.47,0-.85-.38-.85-.85v-2.44c0-.47.38-.85.85-.85s.85.38.85.85v2.44c0,.47-.38.85-.85.85ZM18.9,72.02c-.47,0-.85-.38-.85-.85v-2.44c0-.47.38-.85.85-.85s.85.38.85.85v2.44c0,.47-.38.85-.85.85ZM18.9,67.14c-.47,0-.85-.38-.85-.85v-2.44c0-.47.38-.85.85-.85s.85.38.85.85v2.44c0,.47-.38.85-.85.85ZM18.9,62.25c-.47,0-.85-.38-.85-.85v-2.44c0-.47.38-.85.85-.85s.85.38.85.85v2.44c0,.47-.38.85-.85.85ZM18.9,57.37c-.47,0-.85-.38-.85-.85v-2.44c0-.47.38-.85.85-.85s.85.38.85.85v2.44c0,.47-.38.85-.85.85ZM18.9,52.49c-.47,0-.85-.38-.85-.85v-2.44c0-.47.38-.85.85-.85s.85.38.85.85v2.44c0,.47-.38.85-.85.85ZM18.9,47.6c-.47,0-.85-.38-.85-.85v-2.44c0-.47.38-.85.85-.85s.85.38.85.85v2.44c0,.47-.38.85-.85.85ZM18.9,42.72c-.47,0-.85-.38-.85-.85v-2.44c0-.47.38-.85.85-.85s.85.38.85.85v2.44c0,.47-.38.85-.85.85ZM18.9,37.83c-.47,0-.85-.38-.85-.85v-2.44c0-.47.38-.85.85-.85s.85.38.85.85v2.44c0,.47-.38.85-.85.85ZM18.89,32.94s-.01,0-.02,0c-.47-.01-.85-.4-.83-.87.02-.81.06-1.65.13-2.5.04-.47.45-.82.92-.78.47.04.82.45.78.92-.07.82-.11,1.62-.13,2.4-.01.47-.39.83-.85.83ZM19.29,28.07s-.08,0-.11,0c-.47-.06-.8-.49-.73-.96.11-.83.24-1.65.4-2.46.09-.46.53-.77,1-.68.46.09.77.53.68,1-.15.78-.28,1.57-.38,2.37-.06.43-.42.74-.85.74ZM75.92,25.81c-.42,0-.77-.3-.84-.7,0-.03-.02-.11-.05-.25-.11-.46.18-.92.64-1.02.46-.11.92.18,1.02.64.08.37.08.39.08.48,0,.47-.38.85-.85.85ZM20.2,23.26c-.07,0-.14,0-.21-.03-.46-.11-.74-.58-.62-1.04.2-.82.43-1.63.68-2.4.14-.45.62-.7,1.07-.56.45.14.7.62.56,1.07-.23.75-.45,1.52-.65,2.3-.1.39-.45.65-.83.65ZM75.2,23.16c-.36,0-.7-.23-.81-.59-.24-.74-.52-1.5-.81-2.25-.18-.44.04-.94.48-1.11.44-.18.94.04,1.11.48.31.78.6,1.57.85,2.35.15.45-.1.93-.55,1.08-.09.03-.18.04-.26.04ZM73.38,18.62c-.32,0-.63-.18-.77-.49-.34-.72-.71-1.43-1.1-2.12-.23-.41-.09-.93.33-1.16.41-.23.93-.09,1.16.33.4.72.79,1.47,1.15,2.22.2.43.02.94-.4,1.14-.12.06-.24.08-.37.08ZM21.67,18.6c-.1,0-.21-.02-.31-.06-.44-.17-.66-.67-.49-1.11.31-.79.64-1.56,1-2.3.2-.43.71-.61,1.14-.4.43.2.61.71.4,1.14-.34.7-.65,1.44-.95,2.18-.13.34-.45.54-.8.54ZM70.99,14.36c-.28,0-.55-.14-.71-.38-.44-.67-.91-1.32-1.38-1.94-.29-.37-.22-.91.15-1.2.37-.29.91-.22,1.2.15.5.65.99,1.34,1.46,2.04.26.39.15.92-.24,1.18-.14.1-.31.14-.47.14ZM23.78,14.2c-.15,0-.29-.04-.43-.12-.41-.24-.55-.76-.31-1.17.43-.73.88-1.44,1.36-2.12.27-.39.81-.48,1.19-.2.39.27.48.81.2,1.19-.45.63-.88,1.3-1.28,1.99-.16.27-.45.42-.74.42ZM68,10.5c-.23,0-.46-.09-.63-.28-.54-.59-1.1-1.15-1.67-1.68-.35-.32-.37-.86-.05-1.21.32-.35.86-.37,1.21-.05.61.56,1.2,1.16,1.77,1.78.32.35.29.89-.06,1.21-.16.15-.37.22-.58.22ZM26.6,10.22c-.2,0-.4-.07-.56-.21-.36-.31-.4-.85-.09-1.21.55-.64,1.14-1.25,1.74-1.83.34-.32.88-.31,1.21.03.32.34.31.88-.03,1.21-.56.53-1.11,1.1-1.62,1.7-.17.2-.41.3-.65.3ZM64.41,7.2c-.18,0-.36-.06-.52-.18-.62-.48-1.28-.93-1.94-1.35-.4-.25-.52-.78-.27-1.18s.78-.52,1.18-.27c.7.44,1.4.93,2.07,1.44.37.29.44.82.16,1.2-.17.22-.42.33-.68.33ZM30.14,6.88c-.26,0-.51-.12-.68-.34-.29-.38-.21-.91.16-1.2.67-.51,1.37-.99,2.09-1.43.4-.25.93-.12,1.17.29.25.4.12.93-.29,1.17-.67.41-1.32.85-1.94,1.32-.15.12-.34.18-.52.18ZM60.28,4.61c-.13,0-.26-.03-.38-.09-.7-.35-1.42-.67-2.15-.96-.44-.17-.66-.67-.49-1.11s.67-.66,1.11-.49c.78.3,1.56.65,2.3,1.02.42.21.59.73.38,1.15-.15.3-.45.47-.76.47ZM34.3,4.35c-.32,0-.63-.18-.77-.49-.2-.43-.02-.94.41-1.14.75-.36,1.53-.68,2.33-.97.44-.16.93.07,1.09.52.16.44-.07.93-.51,1.09-.74.27-1.47.57-2.17.9-.12.06-.24.08-.37.08ZM55.75,2.83c-.08,0-.16-.01-.24-.03-.75-.21-1.52-.4-2.3-.55-.46-.09-.77-.54-.67-1,.09-.46.54-.76,1-.67.83.16,1.65.36,2.44.59.45.13.72.6.58,1.06-.11.37-.45.62-.82.62ZM38.87,2.7c-.38,0-.73-.26-.83-.64-.12-.46.16-.92.61-1.04.79-.21,1.62-.38,2.45-.53.46-.08.91.23.99.7s-.23.91-.7.99c-.79.14-1.56.3-2.31.5-.07.02-.14.03-.22.03ZM50.97,1.89s-.06,0-.1,0c-.77-.09-1.57-.14-2.37-.17-.47-.02-.84-.41-.82-.89s.41-.84.89-.82c.84.03,1.68.09,2.49.18.47.05.81.48.75.94-.05.44-.42.76-.85.76ZM43.67,1.86c-.43,0-.81-.33-.85-.77-.05-.47.3-.89.77-.93.81-.08,1.65-.13,2.49-.16.47-.01.87.36.88.83.01.47-.36.87-.83.88-.81.02-1.61.07-2.38.15-.03,0-.06,0-.08,0Z"/>
        <g>
          <path class="cls-3" d="M70.97,26.26c0-2.86,2.32-5.18,5.18-5.18,2.86,0,5.18,2.32,5.18,5.18,0,2.86-2.32,5.18-5.18,5.18-2.86,0-5.18-2.32-5.18-5.18Z"/>
          <path class="cls-2" d="M70.28,26.26c0,3.24,2.63,5.87,5.87,5.87s5.87-2.63,5.87-5.87c0-3.24-2.63-5.87-5.87-5.87s-5.87,2.63-5.87,5.87c0,3.24,0-3.24,0,0ZM80.64,26.26c0,2.48-2.01,4.49-4.49,4.49-2.48,0-4.49-2.01-4.49-4.49,0-2.48,2.01-4.49,4.49-4.49s4.49,2.01,4.49,4.49c0,2.48,0-2.48,0,0Z"/>
        </g>
        <path class="cls-4" d="M75.92,29.1v-4.27c-.79.61-1.33.91-1.6.91-.13,0-.25-.05-.35-.16-.1-.11-.15-.23-.15-.36,0-.16.05-.28.15-.35.1-.08.28-.17.53-.29.38-.18.68-.37.91-.56.23-.2.43-.42.6-.66.17-.24.29-.39.34-.45.05-.06.15-.08.3-.08.17,0,.3.06.4.19.1.13.15.31.15.53v5.37c0,.63-.21.94-.64.94-.19,0-.34-.06-.46-.19-.12-.13-.17-.32-.17-.57Z"/>
        <polygon class="cls-2" points="15.79 116.4 18.98 117.76 22.17 116.4 18.98 123.96 15.79 116.4"/>
        <circle class="cls-2" cx="18.88" cy="127.74" r="2.91"/>
      </g>
      <g>
        <path class="cls-1" d="M26.21,122.45c-.81,0-1.47-.66-1.47-1.47V37.74c-.04-.98-.43-15.16,7.71-23.67,3.91-4.08,9.12-6.15,15.49-6.15,8.08,0,14.29,3.87,17.95,11.19,2.7,5.4,3.04,10.72,3.05,10.95.05.81-.57,1.5-1.38,1.55-.81.05-1.5-.57-1.55-1.38,0-.05-.33-5.02-2.79-9.89-3.18-6.3-8.32-9.49-15.29-9.49-5.53,0-10.03,1.76-13.36,5.24-7.4,7.71-6.91,21.42-6.91,21.56,0,.02,0,.04,0,.06v83.27c0,.81-.66,1.47-1.47,1.47Z"/>
        <path class="cls-1" d="M52.34,49.31H1.89c-.81,0-1.47-.66-1.47-1.47s.66-1.47,1.47-1.47h50.45c.81,0,1.47.66,1.47,1.47s-.66,1.47-1.47,1.47Z"/>
      </g>
      <g>
        <path class="cls-1" d="M26.21,122.45c-.81,0-1.47-.66-1.47-1.47V37.74c-.04-.98-.43-15.16,7.71-23.67,3.91-4.08,9.12-6.15,15.49-6.15,8.08,0,14.29,3.87,17.95,11.19,2.7,5.4,3.04,10.72,3.05,10.95.05.81-.57,1.5-1.38,1.55-.81.05-1.5-.57-1.55-1.38,0-.05-.33-5.02-2.79-9.89-3.18-6.3-8.32-9.49-15.29-9.49-5.53,0-10.03,1.76-13.36,5.24-7.4,7.71-6.91,21.42-6.91,21.56,0,.02,0,.04,0,.06v83.27c0,.81-.66,1.47-1.47,1.47Z"/>
        <path class="cls-1" d="M52.34,49.31H1.89c-.81,0-1.47-.66-1.47-1.47s.66-1.47,1.47-1.47h50.45c.81,0,1.47.66,1.47,1.47s-.66,1.47-1.47,1.47Z"/>
      </g>
    </g>
  </g>
</svg>