<svg xmlns="http://www.w3.org/2000/svg" id="Layer_2" data-name="Layer 2" viewBox="0 0 56.04 121.17"><defs><style>.cls-1,.cls-2,.cls-3,.cls-4{stroke-width:0}.cls-2{fill:#6f6f6e}.cls-3{fill:#fff}.cls-4{fill:#ff0600}</style></defs><g id="J"><g><g><path d="M24.54,114.13c-7.14,0-11.19-3.5-13.34-6.44-2.3-3.15-2.91-6.3-2.93-6.43-.15-.8.37-1.56,1.17-1.71.8-.15,1.56.37,1.71,1.17.08.42,2.17,10.48,13.39,10.48,4.18,0,7.56-1.32,10.03-3.93,5.47-5.76,5.01-15.98,5-16.08,0-.02,0-.05,0-.08V23.05c0-.81.66-1.47,1.47-1.47s1.47.66,1.47,1.47v68.04c.04.88.41,11.65-5.8,18.2-3.05,3.22-7.14,4.85-12.17,4.85Z" class="cls-1"/><path d="M38.61,5.73c0-.74.26-1.39.79-1.95.52-.56,1.13-.83,1.83-.83s1.28.28,1.75.83c.46.56.7,1.2.7,1.95,0,1.73-.82,2.59-2.45,2.59-.7,0-1.31-.25-1.83-.74s-.79-1.11-.79-1.85Z" class="cls-1"/></g><g><polygon points="11.44 112.76 8 113.21 5.94 115.99 4.86 107.86 11.44 112.76" class="cls-2"/><path d="M5.72,102.27c-.41-1.55-2-2.48-3.55-2.07-1.55.41-2.48,2-2.07,3.55.41,1.55,2,2.48,3.55,2.07s2.48-2,2.07-3.55Z" class="cls-2"/><g><path d="M24.14,121.17s0,0-.01,0c-.85-.01-1.7-.07-2.53-.17-.47-.06-.8-.49-.74-.95.06-.47.49-.8.95-.74.77.1,1.56.15,2.34.16.47,0,.85.4.84.87,0,.47-.39.84-.85.84ZM26.58,121.11c-.45,0-.82-.35-.85-.8-.03-.47.33-.88.8-.9.8-.05,1.59-.13,2.36-.23.47-.07.9.26.97.73.07.47-.26.9-.73.97-.81.11-1.65.2-2.49.25-.02,0-.04,0-.05,0ZM19.31,120.56c-.07,0-.13,0-.2-.02-.82-.2-1.64-.45-2.43-.74-.44-.16-.67-.65-.51-1.1.16-.44.65-.67,1.1-.51.73.27,1.49.5,2.24.68.46.11.74.57.63,1.03-.09.39-.44.65-.83.65ZM31.4,120.43c-.39,0-.74-.27-.83-.66-.11-.46.18-.92.64-1.02.77-.18,1.54-.39,2.27-.64.45-.15.93.09,1.08.54.15.45-.09.93-.54,1.08-.78.26-1.6.49-2.42.68-.06.02-.13.02-.19.02ZM14.73,118.89c-.13,0-.26-.03-.38-.09-.75-.37-1.49-.8-2.2-1.25-.4-.26-.51-.78-.26-1.18.26-.4.78-.51,1.18-.26.66.42,1.35.82,2.04,1.16.42.21.59.72.38,1.15-.15.3-.45.47-.77.47ZM36.02,118.88c-.32,0-.63-.19-.78-.5-.2-.43,0-.94.42-1.13.71-.32,1.41-.69,2.08-1.09.41-.24.93-.11,1.17.3.24.41.11.93-.3,1.17-.72.43-1.47.82-2.24,1.17-.11.05-.24.08-.35.08ZM40.2,116.39c-.26,0-.51-.12-.68-.34-.29-.38-.21-.91.16-1.2.62-.47,1.22-.98,1.78-1.52.34-.33.88-.31,1.21.03.33.34.31.88-.03,1.21-.61.58-1.26,1.13-1.93,1.64-.15.12-.34.17-.52.17ZM10.63,116.26c-.19,0-.38-.06-.53-.19-.66-.53-1.3-1.1-1.89-1.69-.34-.33-.34-.87,0-1.21.33-.33.87-.34,1.21,0,.55.55,1.14,1.07,1.76,1.57.37.3.43.83.13,1.2-.17.21-.42.32-.67.32ZM43.73,113.03c-.2,0-.39-.07-.55-.2-.36-.31-.4-.84-.1-1.2.5-.59.98-1.22,1.43-1.87.27-.39.8-.49,1.19-.22s.49.8.22,1.19c-.48.7-1,1.38-1.53,2.01-.17.2-.41.3-.65.3ZM7.18,112.81c-.25,0-.51-.11-.67-.33-.34-.43-.45-.58-.45-.89,0-.47.38-.85.85-.85.3,0,.56.15.71.38.02.03.1.14.24.31.29.37.22.91-.15,1.2-.16.12-.34.18-.52.18ZM46.5,109.02c-.14,0-.28-.03-.42-.11-.41-.23-.56-.75-.33-1.16.38-.68.74-1.39,1.06-2.12.19-.43.7-.62,1.13-.43.43.19.62.7.43,1.13-.35.77-.73,1.53-1.13,2.25-.16.28-.45.44-.75.44ZM48.5,104.56c-.1,0-.19-.02-.29-.05-.44-.16-.68-.65-.52-1.09.26-.74.5-1.51.71-2.27.12-.46.59-.72,1.05-.6.46.12.72.59.6,1.05-.22.81-.47,1.61-.75,2.4-.12.35-.45.57-.81.57ZM49.79,99.84c-.05,0-.11,0-.16-.01-.46-.09-.77-.53-.68-1,.2-1.06.27-1.76.28-1.91v-.37c0-.47.38-.85.85-.85s.85.38.85.85v.4s0,.04,0,.06c0,.03-.06.83-.31,2.13-.08.41-.44.7-.84.7ZM50.08,94.97c-.47,0-.85-.38-.85-.85v-2.44c0-.47.38-.85.85-.85s.85.38.85.85v2.44c0,.47-.38.85-.85.85ZM50.08,90.08c-.47,0-.85-.38-.85-.85v-2.44c0-.47.38-.85.85-.85s.85.38.85.85v2.44c0,.47-.38.85-.85.85ZM50.08,85.2c-.47,0-.85-.38-.85-.85v-2.44c0-.47.38-.85.85-.85s.85.38.85.85v2.44c0,.47-.38.85-.85.85ZM50.08,80.31c-.47,0-.85-.38-.85-.85v-2.44c0-.47.38-.85.85-.85s.85.38.85.85v2.44c0,.47-.38.85-.85.85ZM50.08,75.43c-.47,0-.85-.38-.85-.85v-2.44c0-.47.38-.85.85-.85s.85.38.85.85v2.44c0,.47-.38.85-.85.85ZM50.08,70.55c-.47,0-.85-.38-.85-.85v-2.44c0-.47.38-.85.85-.85s.85.38.85.85v2.44c0,.47-.38.85-.85.85ZM50.08,65.66c-.47,0-.85-.38-.85-.85v-2.44c0-.47.38-.85.85-.85s.85.38.85.85v2.44c0,.47-.38.85-.85.85ZM50.08,60.78c-.47,0-.85-.38-.85-.85v-2.44c0-.47.38-.85.85-.85s.85.38.85.85v2.44c0,.47-.38.85-.85.85ZM50.08,55.89c-.47,0-.85-.38-.85-.85v-2.44c0-.47.38-.85.85-.85s.85.38.85.85v2.44c0,.47-.38.85-.85.85ZM50.08,51.01c-.47,0-.85-.38-.85-.85v-2.44c0-.47.38-.85.85-.85s.85.38.85.85v2.44c0,.47-.38.85-.85.85ZM50.08,46.13c-.47,0-.85-.38-.85-.85v-2.44c0-.47.38-.85.85-.85s.85.38.85.85v2.44c0,.47-.38.85-.85.85ZM50.08,41.24c-.47,0-.85-.38-.85-.85v-2.44c0-.47.38-.85.85-.85s.85.38.85.85v2.44c0,.47-.38.85-.85.85ZM50.08,36.36c-.47,0-.85-.38-.85-.85v-2.44c0-.47.38-.85.85-.85s.85.38.85.85v2.44c0,.47-.38.85-.85.85ZM50.08,31.47c-.47,0-.85-.38-.85-.85v-2.44c0-.47.38-.85.85-.85s.85.38.85.85v2.44c0,.47-.38.85-.85.85Z" class="cls-2"/><g><g><path d="M50.15,11.05c-2.86-.01-5.17-2.34-5.16-5.2.01-2.86,2.34-5.17,5.2-5.16,2.86.01,5.17,2.34,5.16,5.2-.01,2.86-2.34,5.17-5.2,5.16Z" class="cls-3"/><path d="M50.15,11.74c3.24.01,5.88-2.61,5.89-5.85C56.05,2.65,53.43.01,50.19,0c-3.24-.01-5.88,2.61-5.89,5.85-.01,3.24,2.61,5.88,5.85,5.89,3.24.01-3.24-.01,0,0ZM50.19,1.38c2.48,0,4.49,2.03,4.48,4.51s-2.03,4.49-4.51,4.48c-2.48,0-4.49-2.03-4.48-4.51,0-2.48,2.03-4.49,4.51-4.48,2.48,0-2.48,0,0,0Z" class="cls-2"/></g><path d="M49.52,8.07h2.45c.24,0,.43.05.56.15.13.1.19.24.19.41,0,.15-.05.28-.15.39-.1.11-.26.16-.46.16h-3.45c-.23,0-.42-.06-.55-.19-.13-.13-.2-.28-.2-.46,0-.11.04-.26.13-.45.08-.19.18-.33.28-.44.42-.43.79-.8,1.13-1.11.33-.31.57-.51.72-.61.26-.18.47-.36.64-.55s.3-.37.39-.56c.09-.19.13-.38.13-.57,0-.2-.05-.38-.14-.54-.1-.16-.23-.28-.39-.37s-.34-.13-.54-.13c-.41,0-.73.18-.97.54-.03.05-.08.17-.16.38-.07.21-.16.37-.25.48-.09.11-.23.17-.41.17-.16,0-.29-.05-.39-.15-.1-.1-.15-.24-.15-.42,0-.22.05-.44.15-.68.1-.23.24-.45.43-.64.19-.19.44-.34.73-.46.3-.12.64-.18,1.04-.18.48,0,.89.08,1.22.23.22.1.41.24.58.41.17.18.3.38.39.61.09.23.14.47.14.72,0,.39-.1.74-.29,1.06-.19.32-.39.57-.59.75-.2.18-.54.46-1.01.85-.47.38-.79.68-.97.9-.08.08-.15.19-.23.31Z" class="cls-4"/></g><g><g><path d="M50.15,32.38c-2.86-.01-5.17-2.34-5.16-5.2.01-2.86,2.34-5.17,5.2-5.16,2.86.01,5.17,2.34,5.16,5.2-.01,2.86-2.34,5.17-5.2,5.16Z" class="cls-3"/><path d="M50.15,33.07c3.24.01,5.88-2.61,5.89-5.85.01-3.24-2.61-5.88-5.85-5.89-3.24-.01-5.88,2.61-5.89,5.85-.01,3.24,2.61,5.88,5.85,5.89,3.24.01-3.24-.01,0,0ZM50.19,22.7c2.48,0,4.49,2.03,4.48,4.51s-2.03,4.49-4.51,4.48c-2.48,0-4.49-2.03-4.48-4.51,0-2.48,2.03-4.49,4.51-4.48,2.48,0-2.48,0,0,0Z" class="cls-2"/></g><path d="M49.96,29.92v-4.27c-.79.61-1.33.92-1.6.92-.13,0-.25-.05-.35-.16-.1-.11-.15-.23-.15-.36,0-.16.05-.28.15-.35.1-.08.28-.17.53-.29.38-.18.68-.37.91-.56.23-.2.43-.42.6-.66.17-.24.29-.39.34-.45.05-.06.15-.08.3-.08.17,0,.3.06.4.19.1.13.15.31.15.53v5.37c0,.63-.21.94-.64.94-.19,0-.34-.06-.46-.19-.12-.13-.17-.32-.17-.57Z" class="cls-4"/></g></g></g></g></g></svg>