<?xml version="1.0" encoding="UTF-8"?>
<svg id="Layer_2" data-name="Layer 2" xmlns="http://www.w3.org/2000/svg" viewBox="0 0 156.65 252.66">
  <defs>
    <style>
      .cls-1, .cls-2, .cls-3, .cls-4 {
        stroke-width: 0px;
      }

      .cls-2 {
        fill: #6f6f6e;
      }

      .cls-3 {
        fill: #fff;
      }

      .cls-4 {
        fill: #ff0600;
      }
    </style>
  </defs>
  <g id="B">
    <g>
      <g>
        <path class="cls-2" d="M38.43,12.86h-2.3c-.89,0-1.61-.72-1.61-1.61s.72-1.61,1.61-1.61h2.3c.89,0,1.61.72,1.61,1.61s-.72,1.61-1.61,1.61Z"/>
        <path class="cls-2" d="M82.85,138.45h0c-1.46,0-3.02-.01-4.66-.03-.89,0-1.61-.73-1.6-1.62,0-.89.73-1.6,1.61-1.6,0,0,0,0,.01,0,1.63.01,3.2.02,4.65.03.89,0,1.61.73,1.61,1.62,0,.89-.72,1.61-1.61,1.61ZM87.51,138.39c-.84,0-1.55-.65-1.61-1.51-.06-.89.61-1.66,1.5-1.72,1.37-.09,2.87-.28,4.45-.56.88-.16,1.71.43,1.87,1.31.16.88-.43,1.71-1.31,1.87-1.69.3-3.31.5-4.8.6-.04,0-.07,0-.11,0ZM73.54,138.39s0,0-.02,0c-1.53-.01-3.09-.03-4.66-.05-.89,0-1.61-.74-1.6-1.63,0-.89.73-1.6,1.61-1.6,0,0,.01,0,.02,0,1.56.02,3.12.03,4.65.05.89,0,1.61.74,1.6,1.63,0,.89-.73,1.6-1.61,1.6ZM64.23,138.29s-.01,0-.02,0c-1.58-.02-3.14-.04-4.66-.06-.89-.01-1.6-.74-1.59-1.63.01-.89.76-1.6,1.63-1.59,1.51.02,3.07.04,4.65.06.89.01,1.6.74,1.59,1.63-.01.88-.73,1.59-1.61,1.59ZM54.92,138.17s-.02,0-.02,0l-4.66-.07c-.89-.01-1.6-.75-1.59-1.64.01-.88.73-1.59,1.61-1.59,0,0,.02,0,.02,0l4.66.07c.89.01,1.6.74,1.59,1.64-.01.88-.73,1.59-1.61,1.59ZM96.67,136.81c-.71,0-1.37-.48-1.56-1.2-.23-.86.29-1.74,1.15-1.97,1.44-.38,2.9-.83,4.34-1.32.84-.29,1.76.16,2.05,1,.29.84-.16,1.76-1,2.05-1.51.52-3.05.99-4.57,1.39-.14.04-.28.05-.41.05ZM105.47,133.77c-.63,0-1.22-.37-1.48-.98-.35-.82.03-1.77.85-2.12,1.39-.59,2.77-1.24,4.11-1.93.79-.41,1.76-.1,2.17.69.41.79.1,1.76-.69,2.17-1.4.72-2.86,1.41-4.32,2.03-.21.09-.42.13-.63.13ZM113.74,129.51c-.54,0-1.07-.27-1.38-.77-.47-.76-.23-1.75.53-2.22,1.29-.79,2.56-1.64,3.77-2.51.72-.52,1.73-.36,2.25.36.52.72.36,1.73-.36,2.25-1.28.92-2.61,1.81-3.97,2.65-.26.16-.55.24-.84.24ZM121.27,124.06c-.46,0-.91-.19-1.23-.57-.58-.68-.5-1.7.18-2.27,1.15-.98,2.27-2.01,3.32-3.07.63-.63,1.65-.63,2.28,0,.63.63.63,1.65,0,2.28-1.12,1.12-2.3,2.21-3.51,3.24-.3.26-.68.38-1.04.38ZM127.83,117.48c-.37,0-.74-.13-1.04-.38-.68-.58-.77-1.59-.19-2.27.97-1.14,1.9-2.34,2.77-3.56.52-.73,1.52-.9,2.25-.38.73.52.9,1.52.38,2.25-.92,1.29-1.91,2.56-2.93,3.78-.32.38-.77.57-1.23.57ZM133.21,109.92c-.28,0-.56-.07-.82-.23-.77-.45-1.02-1.44-.56-2.21.76-1.28,1.48-2.62,2.14-3.97.39-.8,1.36-1.13,2.16-.74.8.39,1.13,1.36.74,2.16-.7,1.43-1.46,2.85-2.27,4.2-.3.51-.84.79-1.39.79ZM137.29,101.58c-.2,0-.4-.04-.59-.11-.83-.33-1.24-1.26-.91-2.09.55-1.38,1.05-2.82,1.5-4.27.26-.85,1.17-1.33,2.02-1.06.85.26,1.33,1.17,1.06,2.02-.47,1.53-1.01,3.04-1.58,4.5-.25.63-.86,1.02-1.5,1.02ZM140.05,92.71c-.12,0-.25-.01-.37-.04-.87-.2-1.41-1.07-1.2-1.94.34-1.45.64-2.95.89-4.45.15-.88.98-1.47,1.86-1.33.88.15,1.47.98,1.33,1.86-.26,1.57-.58,3.14-.93,4.66-.17.74-.84,1.24-1.57,1.24ZM141.59,83.56c-.06,0-.11,0-.17,0-.89-.09-1.53-.89-1.44-1.77.16-1.48.27-3.01.35-4.54.04-.89.8-1.58,1.69-1.53.89.04,1.58.8,1.53,1.69-.08,1.59-.2,3.18-.36,4.72-.09.83-.79,1.44-1.6,1.44ZM142.04,74.28c-.89,0-1.61-.72-1.61-1.61,0-1.53-.06-3.06-.15-4.55-.06-.89.62-1.66,1.51-1.71.89-.06,1.66.62,1.71,1.51.1,1.56.15,3.15.16,4.75,0,.89-.72,1.62-1.61,1.62h0ZM141.43,65.01c-.8,0-1.49-.59-1.6-1.41-.2-1.51-.44-3.01-.74-4.47-.18-.87.39-1.72,1.26-1.9.87-.18,1.72.39,1.9,1.26.31,1.54.57,3.11.78,4.69.11.88-.51,1.69-1.39,1.81-.07,0-.14.01-.21.01ZM139.6,55.9c-.71,0-1.35-.47-1.55-1.18-.41-1.46-.87-2.9-1.38-4.31-.3-.84.13-1.76.97-2.07.84-.3,1.76.13,2.07.97.54,1.48,1.03,3.01,1.45,4.54.24.86-.26,1.75-1.12,1.99-.14.04-.29.06-.43.06ZM136.43,47.18c-.61,0-1.2-.35-1.47-.95-.62-1.37-1.31-2.73-2.03-4.03-.43-.78-.15-1.76.63-2.19.78-.43,1.76-.15,2.19.63.77,1.38,1.49,2.82,2.15,4.27.37.81,0,1.77-.8,2.14-.22.1-.44.14-.67.14ZM131.92,39.06c-.52,0-1.03-.25-1.34-.72-.83-1.25-1.73-2.48-2.66-3.65-.55-.7-.43-1.71.26-2.27.7-.55,1.71-.43,2.27.26.98,1.24,1.93,2.55,2.81,3.86.49.74.29,1.74-.45,2.24-.27.18-.59.27-.89.27ZM126.15,31.77c-.43,0-.86-.17-1.18-.51-1.02-1.09-2.1-2.17-3.21-3.18-.66-.6-.7-1.62-.1-2.28.6-.66,1.62-.7,2.28-.1,1.17,1.07,2.32,2.21,3.39,3.36.61.65.57,1.67-.08,2.28-.31.29-.71.43-1.1.43ZM119.3,25.5c-.35,0-.7-.11-.99-.34-1.18-.92-2.42-1.81-3.67-2.65-.74-.49-.94-1.49-.45-2.24.49-.74,1.49-.94,2.24-.45,1.32.88,2.63,1.82,3.87,2.79.7.55.83,1.56.28,2.26-.32.41-.79.62-1.27.62ZM111.56,20.36c-.27,0-.54-.07-.79-.21-1.31-.73-2.67-1.43-4.03-2.06-.81-.38-1.16-1.33-.78-2.14.38-.81,1.33-1.16,2.14-.78,1.44.67,2.87,1.4,4.25,2.17.78.44,1.06,1.42.62,2.2-.3.53-.84.83-1.41.83ZM103.12,16.44c-.19,0-.38-.03-.57-.1-1.42-.53-2.86-1.01-4.3-1.42-.86-.25-1.35-1.14-1.1-2,.25-.86,1.14-1.35,2-1.1,1.52.44,3.04.94,4.54,1.5.83.31,1.26,1.24.94,2.08-.24.65-.86,1.05-1.51,1.05ZM94.19,13.87c-.11,0-.21-.01-.32-.03-1.49-.3-2.99-.54-4.46-.7-.89-.1-1.52-.9-1.42-1.78.1-.89.89-1.52,1.78-1.42,1.56.17,3.15.42,4.74.74.87.18,1.44,1.03,1.26,1.9-.15.77-.83,1.29-1.58,1.29ZM84.95,12.86s-.01,0-.02,0c-.17,0-.34,0-.5,0h-4.13c-.89,0-1.61-.72-1.61-1.61s.72-1.61,1.61-1.61h4.13c.18,0,.36,0,.54,0,.89.01,1.6.74,1.59,1.63-.01.88-.73,1.59-1.61,1.59ZM75.64,12.86h-4.65c-.89,0-1.61-.72-1.61-1.61s.72-1.61,1.61-1.61h4.65c.89,0,1.61.72,1.61,1.61s-.72,1.61-1.61,1.61ZM66.34,12.86h-4.65c-.89,0-1.61-.72-1.61-1.61s.72-1.61,1.61-1.61h4.65c.89,0,1.61.72,1.61,1.61s-.72,1.61-1.61,1.61ZM57.04,12.86h-4.65c-.89,0-1.61-.72-1.61-1.61s.72-1.61,1.61-1.61h4.65c.89,0,1.61.72,1.61,1.61s-.72,1.61-1.61,1.61ZM47.73,12.86h-4.65c-.89,0-1.61-.72-1.61-1.61s.72-1.61,1.61-1.61h4.65c.89,0,1.61.72,1.61,1.61s-.72,1.61-1.61,1.61Z"/>
        <path class="cls-2" d="M45.57,138.03s-.02,0-.03,0l-2.3-.04c-.89-.01-1.6-.75-1.59-1.64.01-.89.75-1.6,1.64-1.59l2.3.04c.89.01,1.6.75,1.59,1.64-.01.88-.73,1.59-1.61,1.59Z"/>
      </g>
      <g>
        <path class="cls-2" d="M31.97,247.77h-2.3c-.89,0-1.61-.72-1.61-1.61s.72-1.61,1.61-1.61h2.3c.89,0,1.61.72,1.61,1.61s-.72,1.61-1.61,1.61Z"/>
        <path class="cls-2" d="M96.41,247.77h-4.2c-.89,0-1.61-.72-1.61-1.61s.72-1.61,1.61-1.61h4.62s.01,0,.02,0c.88,0,1.6.71,1.61,1.6,0,.89-.71,1.62-1.6,1.63-.15,0-.3,0-.45,0ZM87.58,247.77h-4.64c-.89,0-1.61-.72-1.61-1.61s.72-1.61,1.61-1.61h4.64c.89,0,1.61.72,1.61,1.61s-.72,1.61-1.61,1.61ZM78.31,247.77h-4.63c-.89,0-1.61-.72-1.61-1.61s.72-1.61,1.61-1.61h4.63c.89,0,1.61.72,1.61,1.61s-.72,1.61-1.61,1.61ZM69.04,247.77h-4.63c-.89,0-1.61-.72-1.61-1.61s.72-1.61,1.61-1.61h4.63c.89,0,1.61.72,1.61,1.61s-.72,1.61-1.61,1.61ZM59.77,247.77h-4.63c-.89,0-1.61-.72-1.61-1.61s.72-1.61,1.61-1.61h4.63c.89,0,1.61.72,1.61,1.61s-.72,1.61-1.61,1.61ZM50.5,247.77h-4.63c-.89,0-1.61-.72-1.61-1.61s.72-1.61,1.61-1.61h4.63c.89,0,1.61.72,1.61,1.61s-.72,1.61-1.61,1.61ZM41.23,247.77h-4.64c-.89,0-1.61-.72-1.61-1.61s.72-1.61,1.61-1.61h4.64c.89,0,1.61.72,1.61,1.61s-.72,1.61-1.61,1.61ZM101.46,247.47c-.81,0-1.51-.61-1.6-1.43-.1-.89.53-1.69,1.42-1.79,1.45-.17,2.94-.41,4.42-.72.87-.18,1.73.38,1.91,1.25.18.87-.38,1.73-1.25,1.91-1.58.33-3.17.59-4.72.77-.06,0-.12.01-.19.01ZM110.53,245.58c-.69,0-1.33-.45-1.54-1.15-.26-.85.23-1.75,1.08-2.01,1.42-.43,2.85-.92,4.26-1.47.83-.32,1.77.09,2.09.92s-.09,1.77-.92,2.09c-1.48.58-3,1.1-4.5,1.56-.15.05-.31.07-.47.07ZM119.15,242.22c-.6,0-1.18-.34-1.45-.91-.39-.8-.05-1.77.75-2.15,1.34-.65,2.68-1.36,3.98-2.11.77-.45,1.76-.19,2.21.59.45.77.19,1.76-.59,2.21-1.37.79-2.78,1.54-4.2,2.23-.23.11-.47.16-.7.16ZM127.16,237.57c-.51,0-1.02-.25-1.33-.7-.5-.73-.32-1.74.42-2.24,1.23-.85,2.45-1.75,3.62-2.69.69-.56,1.71-.45,2.27.25.56.7.45,1.71-.25,2.27-1.23.99-2.51,1.94-3.82,2.83-.28.19-.6.28-.91.28ZM134.37,231.78c-.43,0-.86-.17-1.18-.51-.61-.65-.57-1.67.08-2.28,1.09-1.02,2.16-2.1,3.18-3.2.6-.65,1.62-.7,2.28-.09.66.6.7,1.62.09,2.28-1.07,1.16-2.2,2.29-3.35,3.37-.31.29-.71.43-1.1.43ZM140.65,224.98c-.35,0-.7-.11-1-.35-.7-.55-.82-1.57-.26-2.27.93-1.17,1.83-2.39,2.67-3.64.5-.74,1.5-.93,2.24-.43.74.5.93,1.5.43,2.24-.89,1.31-1.83,2.59-2.81,3.83-.32.4-.79.61-1.27.61ZM145.84,217.32c-.27,0-.55-.07-.8-.22-.77-.44-1.04-1.43-.59-2.2.74-1.29,1.45-2.64,2.11-3.99.39-.8,1.35-1.14,2.15-.75.8.39,1.14,1.35.75,2.15-.69,1.42-1.43,2.83-2.22,4.2-.3.52-.84.81-1.4.81ZM149.86,209c-.2,0-.4-.04-.6-.12-.83-.33-1.23-1.27-.9-2.1.55-1.38,1.07-2.81,1.53-4.25.27-.85,1.18-1.31,2.03-1.04.85.27,1.31,1.18,1.04,2.03-.48,1.51-1.02,3.01-1.6,4.46-.25.63-.86,1.02-1.5,1.02ZM152.7,200.19c-.13,0-.26-.02-.39-.05-.86-.22-1.39-1.09-1.17-1.96.36-1.44.69-2.93.96-4.42.16-.88,1.01-1.45,1.88-1.29.88.16,1.45,1,1.29,1.88-.29,1.56-.63,3.11-1.01,4.62-.18.73-.84,1.22-1.56,1.22ZM154.39,191.1c-.07,0-.13,0-.2-.01-.88-.11-1.51-.92-1.4-1.8.18-1.48.33-3,.43-4.52.06-.89.83-1.56,1.72-1.5.89.06,1.56.83,1.5,1.72-.11,1.58-.26,3.16-.45,4.7-.1.82-.8,1.41-1.6,1.41ZM155.03,181.87s-.02,0-.03,0c-.89-.01-1.6-.75-1.59-1.64,0-.47.01-.95.01-1.43,0-1.05-.01-2.11-.04-3.13-.02-.89.68-1.63,1.57-1.66.88-.03,1.63.68,1.66,1.57.03,1.06.04,2.14.04,3.22,0,.5,0,.99-.01,1.48-.01.88-.73,1.59-1.61,1.59ZM154.77,172.61c-.84,0-1.55-.65-1.61-1.5-.1-1.53-.24-3.06-.41-4.54-.1-.89.53-1.68,1.42-1.79.88-.1,1.68.53,1.79,1.42.18,1.53.32,3.11.43,4.68.06.89-.61,1.66-1.5,1.72-.04,0-.07,0-.11,0ZM153.71,163.41c-.78,0-1.46-.56-1.59-1.35-.25-1.51-.54-3.01-.86-4.46-.19-.87.36-1.73,1.22-1.92.87-.19,1.73.35,1.92,1.22.33,1.5.64,3.06.9,4.63.15.88-.45,1.71-1.33,1.85-.09.01-.18.02-.27.02ZM151.7,154.38c-.7,0-1.35-.46-1.55-1.17-.42-1.47-.89-2.92-1.38-4.31-.3-.84.13-1.76.97-2.06.84-.3,1.76.13,2.06.97.52,1.46,1.01,2.97,1.45,4.51.24.86-.25,1.75-1.11,1.99-.15.04-.3.06-.44.06ZM148.57,145.67c-.62,0-1.21-.36-1.48-.96-.62-1.39-1.28-2.75-1.99-4.04-.43-.78-.14-1.76.65-2.19.78-.43,1.76-.14,2.19.65.74,1.36,1.45,2.8,2.1,4.27.36.81,0,1.77-.82,2.13-.21.09-.43.14-.65.14ZM144.13,137.55c-.52,0-1.03-.25-1.34-.72-.85-1.27-1.75-2.47-2.67-3.58-.57-.68-.48-1.7.21-2.27.69-.57,1.7-.48,2.27.21.99,1.19,1.96,2.48,2.87,3.85.5.74.3,1.74-.44,2.24-.28.18-.59.27-.89.27Z"/>
        <path class="cls-2" d="M138.15,130.46c-.39,0-.78-.14-1.08-.42-.98-.89-1.59-1.3-1.59-1.31-.74-.5-.94-1.5-.45-2.24.49-.74,1.49-.94,2.23-.45.08.05.82.55,1.98,1.61.66.6.71,1.62.11,2.28-.32.35-.76.53-1.19.53Z"/>
      </g>
      <polygon class="cls-2" points="51.47 130.51 49.01 136.58 51.67 142.55 37.3 136.77 51.47 130.51"/>
      <g>
        <g>
          <path class="cls-3" d="M140.21,141.09c-5.4,0-9.78-4.38-9.78-9.78s4.38-9.78,9.78-9.78,9.78,4.38,9.78,9.78-4.38,9.78-9.78,9.78Z"/>
          <path class="cls-2" d="M140.21,142.39c6.11,0,11.08-4.97,11.08-11.08s-4.97-11.08-11.08-11.08-11.08,4.97-11.08,11.08,4.97,11.08,11.08,11.08-6.11,0,0,0ZM140.21,122.83c4.68,0,8.48,3.8,8.48,8.48s-3.8,8.48-8.48,8.48-8.48-3.8-8.48-8.48,3.8-8.48,8.48-8.48-4.68,0,0,0Z"/>
        </g>
        <polygon class="cls-2" points="33.93 240.62 31.36 246.64 33.91 252.66 19.65 246.61 33.93 240.62"/>
      </g>
      <path class="cls-4" d="M139.76,129.49c.62,0,1.15-.18,1.6-.53.45-.35.67-.87.67-1.53,0-.51-.18-.94-.54-1.31-.36-.37-.84-.55-1.45-.55-.41,0-.75.06-1.02.17-.27.11-.48.26-.63.44-.16.18-.3.42-.44.71-.14.29-.26.56-.38.82-.07.14-.19.25-.36.33-.18.08-.38.12-.61.12-.27,0-.52-.11-.74-.32-.23-.21-.34-.5-.34-.85s.11-.7.32-1.08c.21-.38.52-.74.93-1.08.41-.34.91-.62,1.52-.82.61-.21,1.28-.31,2.03-.31.65,0,1.25.09,1.79.26.54.17,1.01.43,1.4.76.4.33.7.71.9,1.15.2.43.3.9.3,1.4,0,.66-.15,1.22-.44,1.69-.29.47-.71.93-1.26,1.38.53.28.97.59,1.33.95.36.36.63.75.81,1.18.18.43.27.9.27,1.4,0,.6-.12,1.18-.37,1.74-.25.56-.61,1.06-1.09,1.5-.48.44-1.05.78-1.7,1.03-.66.25-1.38.37-2.18.37s-1.53-.14-2.17-.42c-.64-.28-1.17-.64-1.58-1.06-.41-.42-.73-.86-.94-1.32-.21-.45-.32-.83-.32-1.13,0-.38.13-.69.38-.92s.57-.35.95-.35c.19,0,.37.05.55.16.18.11.29.24.34.39.35.92.73,1.6,1.13,2.04.4.44.97.67,1.69.67.42,0,.82-.1,1.21-.3.39-.2.71-.5.96-.89.25-.4.38-.85.38-1.37,0-.77-.22-1.37-.65-1.81-.43-.44-1.03-.66-1.8-.66-.13,0-.34.01-.63.04-.28.03-.46.04-.55.04-.37,0-.66-.09-.86-.27-.2-.18-.3-.43-.3-.76s.12-.57.36-.77c.24-.19.6-.29,1.08-.29h.41Z"/>
      <g>
        <path class="cls-3" d="M37.99,20.86c-5.4,0-9.78-4.38-9.78-9.78S32.59,1.3,37.99,1.3s9.78,4.38,9.78,9.78-4.38,9.78-9.78,9.78Z"/>
        <path class="cls-2" d="M37.99,22.16c6.11,0,11.08-4.97,11.08-11.08S44.1,0,37.99,0s-11.08,4.97-11.08,11.08,4.97,11.08,11.08,11.08-6.11,0,0,0ZM37.99,2.6c4.68,0,8.48,3.8,8.48,8.48s-3.8,8.48-8.48,8.48-8.48-3.8-8.48-8.48,3.8-8.48,8.48-8.48-4.68,0,0,0Z"/>
      </g>
      <path class="cls-4" d="M36.57,15.52h4.62c.46,0,.81.09,1.05.28.24.19.36.45.36.77,0,.29-.1.53-.29.74-.19.2-.48.3-.87.3h-6.52c-.44,0-.79-.12-1.04-.37-.25-.24-.37-.53-.37-.86,0-.21.08-.49.24-.85.16-.35.33-.63.52-.83.79-.81,1.49-1.51,2.13-2.09.63-.58,1.08-.96,1.35-1.15.48-.34.89-.69,1.21-1.03.32-.35.57-.7.74-1.06.17-.36.25-.72.25-1.07,0-.38-.09-.72-.27-1.01-.18-.3-.43-.53-.73-.69-.31-.17-.65-.25-1.01-.25-.77,0-1.38.34-1.82,1.02-.06.09-.16.33-.3.73-.14.4-.3.7-.47.91-.17.21-.43.32-.77.32-.3,0-.54-.1-.73-.29-.19-.19-.29-.46-.29-.8,0-.41.09-.83.28-1.28.18-.44.46-.84.82-1.21.36-.36.82-.65,1.38-.87.56-.22,1.21-.33,1.96-.33.9,0,1.67.14,2.31.43.41.19.78.45,1.09.78.31.33.56.71.73,1.15.17.43.26.88.26,1.35,0,.73-.18,1.4-.54,2-.36.6-.73,1.07-1.11,1.41-.38.34-1.01.87-1.9,1.6-.89.73-1.5,1.29-1.83,1.69-.14.16-.29.35-.43.58Z"/>
      <g>
        <g>
          <path class="cls-2" d="M9.44,211.58v-4.88c0-.9.73-1.63,1.63-1.63s1.63.73,1.63,1.63v4.88c0,.9-.73,1.63-1.63,1.63s-1.63-.73-1.63-1.63ZM9.44,201.82v-4.88c0-.9.73-1.63,1.63-1.63s1.63.73,1.63,1.63v4.88c0,.9-.73,1.63-1.63,1.63s-1.63-.73-1.63-1.63ZM9.44,230.94v-4.88c0-.9.73-1.63,1.63-1.63s1.63.73,1.63,1.63v4.88c0,.9-.73,1.63-1.63,1.63s-1.63-.73-1.63-1.63ZM9.44,221.18v-4.88c0-.9.73-1.63,1.63-1.63s1.63.73,1.63,1.63v4.88c0,.9-.73,1.63-1.63,1.63s-1.63-.73-1.63-1.63ZM9.44,192.07v-4.88c0-.9.73-1.63,1.63-1.63s1.63.73,1.63,1.63v4.88c0,.9-.73,1.63-1.63,1.63s-1.63-.73-1.63-1.63ZM9.45,182.09v-4.88c0-.9.73-1.63,1.63-1.63s1.63.73,1.63,1.63v4.88c0,.9-.73,1.63-1.63,1.63s-1.63-.73-1.63-1.63ZM9.45,172.34v-4.88c0-.9.73-1.63,1.63-1.63s1.63.73,1.63,1.63v4.88c0,.9-.73,1.63-1.63,1.63s-1.63-.73-1.63-1.63ZM9.45,162.58v-4.88c0-.9.73-1.63,1.63-1.63s1.63.73,1.63,1.63v4.88c0,.9-.73,1.63-1.63,1.63s-1.63-.73-1.63-1.63ZM9.45,152.83v-4.88c0-.9.73-1.63,1.63-1.63s1.63.73,1.63,1.63v4.88c0,.9-.73,1.63-1.63,1.63s-1.63-.73-1.63-1.63ZM9.45,143.07v-4.88c0-.9.73-1.63,1.63-1.63s1.63.73,1.63,1.63v4.88c0,.9-.73,1.63-1.63,1.63s-1.63-.73-1.63-1.63Z"/>
          <path class="cls-2" d="M9.44,132.99v-4.88c0-.9.73-1.63,1.63-1.63s1.63.73,1.63,1.63v4.88c0,.9-.73,1.63-1.63,1.63s-1.63-.73-1.63-1.63ZM9.44,123.24v-4.88c0-.9.73-1.63,1.63-1.63s1.63.73,1.63,1.63v4.88c0,.9-.73,1.63-1.63,1.63s-1.63-.73-1.63-1.63ZM9.44,113.48v-4.88c0-.9.73-1.63,1.63-1.63s1.63.73,1.63,1.63v4.88c0,.9-.73,1.63-1.63,1.63s-1.63-.73-1.63-1.63ZM9.45,103.5v-4.88c0-.9.73-1.63,1.63-1.63s1.63.73,1.63,1.63v4.88c0,.9-.73,1.63-1.63,1.63s-1.63-.73-1.63-1.63ZM9.45,93.75v-4.88c0-.9.73-1.63,1.63-1.63s1.63.73,1.63,1.63v4.88c0,.9-.73,1.63-1.63,1.63s-1.63-.73-1.63-1.63ZM9.45,83.99v-4.88c0-.9.73-1.63,1.63-1.63s1.63.73,1.63,1.63v4.88c0,.9-.73,1.63-1.63,1.63s-1.63-.73-1.63-1.63ZM9.45,74.24v-4.88c0-.9.73-1.63,1.63-1.63s1.63.73,1.63,1.63v4.88c0,.9-.73,1.63-1.63,1.63s-1.63-.73-1.63-1.63ZM9.45,64.49v-4.88c0-.9.73-1.63,1.63-1.63s1.63.73,1.63,1.63v4.88c0,.9-.73,1.63-1.63,1.63s-1.63-.73-1.63-1.63ZM9.45,54.65v-4.88c0-.9.73-1.63,1.63-1.63s1.63.73,1.63,1.63v4.88c0,.9-.73,1.63-1.63,1.63s-1.63-.73-1.63-1.63ZM9.45,44.9v-4.88c0-.9.73-1.63,1.63-1.63s1.63.73,1.63,1.63v4.88c0,.9-.73,1.63-1.63,1.63s-1.63-.73-1.63-1.63Z"/>
          <g>
            <path class="cls-3" d="M20.86,35.43c0-5.4-4.38-9.78-9.78-9.78S1.3,30.02,1.3,35.42c0,5.4,4.38,9.78,9.78,9.78,5.4,0,9.78-4.38,9.78-9.78Z"/>
            <path class="cls-2" d="M22.16,35.43c0-6.11-4.97-11.08-11.08-11.08S0,29.31,0,35.42c0,6.11,4.97,11.08,11.08,11.08s11.08-4.97,11.08-11.08,0,6.11,0,0ZM2.6,35.42c0-4.68,3.8-8.48,8.48-8.48s8.48,3.8,8.48,8.48c0,4.68-3.8,8.48-8.48,8.48-4.68,0-8.48-3.8-8.48-8.48,0-4.68,0,4.68,0,0Z"/>
          </g>
          <polygon class="cls-2" points="17.08 223.31 11.06 225.87 5.04 223.31 11.06 237.58 17.08 223.31"/>
        </g>
        <path class="cls-4" d="M10.91,40.31v-8.06c-1.5,1.15-2.51,1.73-3.03,1.73-.25,0-.47-.1-.66-.3-.19-.2-.29-.43-.29-.69,0-.3.09-.52.28-.66.19-.14.52-.32,1-.55.72-.34,1.29-.69,1.71-1.06s.81-.79,1.14-1.25c.33-.46.55-.74.65-.85.1-.11.29-.16.57-.16.31,0,.56.12.75.36.19.24.28.58.28,1v10.14c0,1.19-.4,1.78-1.21,1.78-.36,0-.65-.12-.87-.36-.22-.24-.33-.6-.33-1.07Z"/>
        <path class="cls-2" d="M5.53,245.01c0,3.03,2.46,5.49,5.49,5.49s5.49-2.46,5.49-5.49-2.46-5.49-5.49-5.49-5.49,2.46-5.49,5.49Z"/>
      </g>
      <path class="cls-1" d="M27.74,237.32c-1.53,0-2.77-1.24-2.77-2.77V25.99c0-1.53,1.24-2.77,2.77-2.77s2.77,1.24,2.77,2.77v208.57c0,1.53-1.24,2.77-2.77,2.77Z"/>
      <path class="cls-1" d="M81.37,125.86H27.82c-1.53,0-2.77-1.24-2.77-2.77s1.24-2.77,2.77-2.77h53.54c24.1,0,43.71-19.61,43.71-43.71v-4.15c0-24.1-19.61-43.71-43.71-43.71H28.8c-1.53,0-2.77-1.24-2.77-2.77s1.24-2.77,2.77-2.77h52.56c27.15,0,49.24,22.09,49.24,49.24v4.15c0,27.15-22.09,49.24-49.24,49.24Z"/>
      <path class="cls-1" d="M83.9,237.4H27.82c-1.53,0-2.77-1.24-2.77-2.77s1.24-2.77,2.77-2.77h56.08c29.06,0,52.7-23.64,52.7-52.7v-.92c0-29.06-23.64-52.7-52.7-52.7H28.91c-1.53,0-2.77-1.24-2.77-2.77s1.24-2.77,2.77-2.77h54.99c32.11,0,58.23,26.12,58.23,58.23v.92c0,32.11-26.12,58.23-58.23,58.23Z"/>
    </g>
  </g>
</svg>