<?xml version="1.0" encoding="UTF-8"?>
<svg id="Layer_2" data-name="Layer 2" xmlns="http://www.w3.org/2000/svg" viewBox="0 0 76.38 119.28">
  <defs>
    <style>
      .cls-1, .cls-2, .cls-3, .cls-4 {
        stroke-width: 0px;
      }

      .cls-2 {
        fill: #6f6f6e;
      }

      .cls-3 {
        fill: #fff;
      }

      .cls-4 {
        fill: #ff0600;
      }
    </style>
  </defs>
  <g id="S">
    <g>
      <path class="cls-1" d="M37.5,119.28c-13.03,0-20.97-6.21-25.33-11.41-4.71-5.62-6.33-11.19-6.4-11.43-.22-.78.23-1.59,1.01-1.81.78-.22,1.59.23,1.81,1.01.01.05,1.55,5.29,5.9,10.43,5.76,6.82,13.5,10.28,23.01,10.28,6.18,0,26.33-1.87,26.33-25.97,0-8.37-3.59-15.05-10.67-19.87-5.39-3.67-10.89-4.84-10.95-4.85-.03,0-.06-.01-.09-.02l-11.53-3.14c-.48-.12-6.14-1.55-11.87-5.5-7.87-5.43-12.04-13.01-12.04-21.92,0-7.28,2.76-14.49,7.58-19.76,5.27-5.77,12.7-8.95,20.91-8.95,13.53,0,20.69,7.62,24.32,14,3.87,6.82,4.58,13.56,4.61,13.84.08.81-.51,1.52-1.31,1.6-.8.08-1.52-.51-1.6-1.31h0c0-.06-.69-6.48-4.29-12.77-4.72-8.25-12.03-12.44-21.73-12.44-16.6,0-25.56,13.29-25.56,25.79,0,8.02,3.62,14.58,10.77,19.51,5.41,3.73,10.86,5.05,10.91,5.07.02,0,.03,0,.05.01l11.51,3.14c.63.13,6.22,1.41,11.87,5.23,7.88,5.33,12.04,13.06,12.04,22.35,0,10.67-3.67,18.61-10.92,23.61-6.92,4.78-15.14,5.29-18.35,5.29Z"/>
      <path class="cls-2" d="M36.98,111.76c-.28,0-.56,0-.84-.01-.47-.01-.84-.41-.83-.88.01-.46.39-.83.85-.83,0,0,.02,0,.02,0,.26,0,.52.01.78.01h.01c.53,0,1.06-.01,1.58-.04.46-.03.87.34.9.81.02.47-.34.87-.81.9-.55.03-1.11.04-1.67.04ZM33.73,111.57s-.07,0-.11,0c-.85-.1-1.68-.25-2.49-.43-.46-.1-.75-.56-.64-1.02.11-.46.56-.75,1.02-.64.75.17,1.53.31,2.32.4.47.06.8.48.74.95-.05.43-.42.75-.85.75ZM41.04,111.5c-.42,0-.79-.31-.85-.74-.06-.47.27-.9.74-.96.79-.1,1.58-.24,2.34-.4.46-.1.92.19,1.02.65.1.46-.19.92-.65,1.02-.81.17-1.64.32-2.48.43-.04,0-.07,0-.11,0ZM28.98,110.48c-.09,0-.19-.02-.28-.05-.8-.28-1.59-.6-2.35-.97-.43-.2-.6-.72-.4-1.14.2-.43.72-.6,1.14-.4.7.34,1.43.64,2.17.89.45.15.68.64.53,1.09-.12.35-.45.57-.81.57ZM45.8,110.47c-.36,0-.7-.23-.81-.6-.14-.45.11-.93.56-1.07.76-.24,1.5-.51,2.21-.82.43-.19.94.01,1.12.45.19.43-.01.94-.45,1.12-.76.33-1.56.62-2.37.88-.09.03-.17.04-.26.04ZM50.28,108.53c-.3,0-.59-.16-.74-.43-.23-.41-.09-.93.32-1.17.69-.39,1.34-.82,1.95-1.28.38-.28.91-.21,1.2.17.28.38.21.91-.17,1.2-.67.5-1.38.97-2.13,1.39-.13.08-.28.11-.42.11ZM24.59,108.37c-.16,0-.31-.04-.46-.13-.71-.45-1.4-.94-2.06-1.47-.37-.3-.43-.83-.13-1.2.3-.37.83-.43,1.2-.13.61.49,1.25.95,1.91,1.36.4.25.52.78.27,1.18-.16.26-.44.4-.72.4ZM54.17,105.61c-.22,0-.44-.09-.61-.26-.33-.34-.33-.88.01-1.21.55-.54,1.07-1.13,1.53-1.74.29-.38.82-.45,1.2-.16.38.29.45.82.16,1.2-.51.67-1.08,1.32-1.69,1.92-.17.16-.38.25-.6.25ZM20.79,105.32c-.22,0-.44-.08-.6-.25-.59-.59-1.16-1.22-1.7-1.87-.3-.36-.25-.9.12-1.2.36-.3.9-.25,1.2.12.5.61,1.03,1.2,1.58,1.75.33.33.34.87,0,1.21-.17.17-.39.25-.61.25ZM57.12,101.74c-.14,0-.28-.03-.41-.11-.41-.23-.56-.75-.33-1.16.37-.67.7-1.38.98-2.1.17-.44.66-.66,1.1-.49.44.17.66.66.49,1.1-.31.8-.67,1.58-1.08,2.32-.16.28-.45.44-.75.44ZM17.69,101.55c-.27,0-.54-.13-.71-.38-.24-.36-.48-.73-.71-1.1-.25-.4-.12-.93.29-1.17.4-.25.93-.12,1.17.29.21.35.44.7.67,1.04.26.39.16.92-.23,1.19-.15.1-.31.15-.48.15ZM58.86,97.2c-.07,0-.13,0-.2-.02-.46-.11-.74-.57-.63-1.03.18-.74.31-1.52.4-2.3.05-.47.48-.8.95-.75.47.05.8.48.75.95-.1.85-.25,1.69-.44,2.5-.09.39-.44.66-.83.66ZM59.43,92.36h-.01c-.47,0-.85-.39-.84-.86,0-.1,0-.19,0-.29,0-.7-.04-1.38-.11-2.04-.05-.47.29-.89.76-.94.47-.05.89.29.94.76.08.72.12,1.47.12,2.23,0,.1,0,.21,0,.31,0,.47-.39.84-.85.84ZM58.89,87.53c-.38,0-.73-.26-.83-.65-.19-.75-.43-1.49-.73-2.19-.18-.44.02-.94.46-1.12.44-.18.94.02,1.12.46.33.78.6,1.6.81,2.43.12.46-.16.92-.62,1.04-.07.02-.14.03-.21.03ZM57.03,83.05c-.29,0-.57-.15-.73-.41-.39-.65-.84-1.28-1.34-1.89-.3-.37-.25-.9.12-1.2.36-.3.9-.25,1.2.12.55.67,1.04,1.37,1.48,2.09.24.4.12.93-.29,1.17-.14.08-.29.12-.44.12ZM53.95,79.28c-.21,0-.42-.08-.59-.23-.55-.52-1.15-1.03-1.79-1.52-.38-.29-.45-.82-.16-1.2.29-.38.82-.45,1.2-.16.69.52,1.34,1.08,1.93,1.64.34.33.36.87.03,1.21-.17.18-.39.27-.62.27ZM50.08,76.31c-.16,0-.31-.04-.45-.13-.65-.41-1.34-.81-2.06-1.19-.42-.22-.58-.74-.36-1.16.22-.42.74-.58,1.16-.36.76.4,1.49.82,2.17,1.25.4.25.52.78.27,1.18-.16.26-.44.4-.72.4ZM45.77,74.02c-.12,0-.24-.02-.35-.08-.7-.32-1.44-.63-2.21-.94-.44-.17-.65-.67-.48-1.11.17-.44.67-.65,1.11-.48.79.31,1.56.64,2.29.97.43.2.62.7.42,1.13-.14.32-.45.5-.78.5ZM41.23,72.21c-.09,0-.19-.02-.28-.05-.73-.26-1.48-.51-2.29-.76-.45-.14-.7-.62-.56-1.07.14-.45.62-.7,1.07-.56.83.26,1.6.52,2.35.78.45.16.68.64.52,1.09-.12.35-.45.57-.81.57ZM36.57,70.74c-.08,0-.16-.01-.24-.03-.8-.23-1.59-.45-2.34-.66-.45-.13-.72-.6-.6-1.05.13-.45.6-.72,1.05-.6.76.21,1.55.43,2.36.67.45.13.71.61.58,1.06-.11.37-.45.62-.82.62ZM31.86,69.42c-.08,0-.15-.01-.23-.03-.64-.18-1.47-.41-2.24-.64l-.13-.04c-.45-.14-.71-.62-.57-1.07.14-.45.62-.71,1.07-.57l.13.04c.75.23,1.57.46,2.2.63.45.13.72.6.59,1.05-.11.38-.45.63-.82.63ZM27.19,68c-.09,0-.18-.01-.27-.05-.8-.27-1.59-.55-2.33-.84-.44-.17-.66-.66-.49-1.1.17-.44.66-.66,1.1-.49.72.28,1.49.55,2.27.82.45.15.69.64.54,1.08-.12.36-.45.58-.81.58ZM22.62,66.25c-.11,0-.23-.02-.34-.07-.77-.33-1.53-.69-2.25-1.05-.42-.21-.6-.72-.39-1.15.21-.42.72-.6,1.15-.39.7.35,1.43.69,2.18,1.01.43.19.63.69.44,1.12-.14.32-.45.51-.78.51ZM18.25,64.08c-.14,0-.29-.04-.42-.11-.73-.41-1.45-.85-2.13-1.29-.4-.26-.51-.79-.25-1.18.26-.4.79-.51,1.18-.25.66.43,1.34.84,2.04,1.24.41.23.56.75.32,1.16-.16.28-.45.43-.74.43ZM14.16,61.41c-.18,0-.36-.06-.51-.17-.67-.5-1.33-1.03-1.95-1.57-.36-.31-.4-.85-.09-1.21.31-.36.85-.4,1.21-.09.59.51,1.22,1.01,1.86,1.49.38.28.45.82.17,1.2-.17.22-.42.34-.69.34ZM10.47,58.22c-.22,0-.44-.08-.61-.25-.59-.59-1.16-1.21-1.7-1.84-.31-.36-.26-.9.1-1.2.36-.31.9-.26,1.2.1.51.6,1.05,1.18,1.61,1.75.33.33.33.88,0,1.21-.17.17-.38.25-.6.25ZM7.31,54.51c-.26,0-.53-.12-.69-.35-.49-.68-.96-1.38-1.39-2.09-.25-.4-.12-.93.28-1.17.4-.25.93-.12,1.17.28.41.67.85,1.34,1.32,1.97.28.38.19.92-.19,1.19-.15.11-.33.16-.5.16ZM4.77,50.35c-.31,0-.61-.17-.76-.47-.37-.74-.73-1.5-1.05-2.27-.18-.44.02-.94.46-1.12.44-.18.94.02,1.12.46.31.73.64,1.46,1,2.16.21.42.05.94-.37,1.15-.12.06-.26.09-.39.09ZM2.89,45.85c-.36,0-.69-.23-.81-.58-.26-.78-.5-1.58-.71-2.39-.12-.46.15-.92.61-1.04.46-.12.92.15,1.04.61.2.77.43,1.54.68,2.28.15.45-.09.93-.54,1.08-.09.03-.18.04-.27.04ZM1.65,41.14c-.4,0-.76-.28-.84-.69-.16-.8-.29-1.62-.41-2.46-.06-.47.26-.9.73-.96.47-.06.9.26.96.73.11.8.24,1.59.39,2.36.09.46-.21.91-.68,1-.06.01-.11.02-.16.02ZM.99,36.31c-.44,0-.81-.34-.85-.79-.07-.81-.11-1.64-.14-2.48-.02-.47.35-.87.83-.88.47,0,.87.35.88.83.03.81.07,1.61.14,2.39.04.47-.31.88-.78.92-.02,0-.05,0-.07,0ZM.86,31.43s-.03,0-.04,0c-.47-.02-.83-.43-.81-.9.04-.82.13-1.67.27-2.52.08-.47.51-.78.98-.71.47.08.78.51.71.98-.13.79-.21,1.57-.25,2.33-.02.46-.4.81-.85.81ZM68.63,26.94c-.41,0-.77-.29-.84-.71h0s-.16-.88-.59-2.27c-.14-.45.11-.93.56-1.07.45-.14.93.11,1.07.56.47,1.51.63,2.45.64,2.48.08.47-.23.91-.7.99-.05,0-.1.01-.15.01ZM1.63,26.62c-.07,0-.15,0-.22-.03-.46-.12-.73-.59-.61-1.05.21-.8.46-1.6.75-2.4.16-.44.65-.67,1.09-.51.44.16.67.65.51,1.09-.27.75-.51,1.51-.71,2.26-.1.38-.45.64-.83.64ZM67.21,22.26c-.34,0-.66-.21-.8-.54-.29-.73-.61-1.47-.95-2.19-.2-.43-.02-.94.4-1.14.43-.2.94-.02,1.14.4.36.75.7,1.53,1,2.3.17.44-.04.94-.48,1.11-.1.04-.21.06-.31.06ZM3.28,22.03c-.12,0-.24-.03-.35-.08-.43-.2-.62-.7-.42-1.13.34-.75.72-1.5,1.13-2.24.23-.41.75-.56,1.16-.33.41.23.56.75.33,1.16-.39.7-.75,1.41-1.07,2.12-.14.31-.45.5-.78.5ZM65.09,17.85c-.3,0-.59-.15-.74-.43-.39-.69-.82-1.37-1.25-2.02-.26-.39-.16-.92.23-1.19.39-.26.92-.16,1.19.23.46.69.91,1.4,1.32,2.13.23.41.09.93-.32,1.17-.13.08-.28.11-.42.11ZM5.64,17.76c-.16,0-.32-.04-.47-.14-.4-.26-.51-.79-.25-1.18.45-.69.94-1.38,1.44-2.05.28-.38.82-.45,1.2-.17.38.28.45.82.17,1.2-.48.63-.94,1.29-1.37,1.95-.16.25-.44.39-.72.39ZM8.59,13.86c-.2,0-.4-.07-.56-.21-.36-.31-.39-.85-.08-1.21.55-.63,1.12-1.24,1.7-1.83.33-.33.87-.33,1.21,0s.33.87,0,1.21c-.56.56-1.11,1.15-1.63,1.74-.17.19-.41.29-.64.29ZM62.37,13.8c-.25,0-.5-.11-.67-.33-.49-.62-1.01-1.23-1.54-1.81-.32-.35-.3-.89.05-1.21.35-.32.89-.3,1.21.05.56.61,1.11,1.25,1.63,1.91.29.37.23.91-.14,1.2-.16.12-.34.18-.53.18ZM12.03,10.41c-.24,0-.47-.1-.64-.29-.31-.36-.28-.9.08-1.21.62-.55,1.28-1.08,1.93-1.58.38-.29.91-.21,1.2.16.29.38.21.91-.16,1.2-.63.48-1.25.99-1.85,1.51-.16.14-.36.21-.56.21ZM59.06,10.21c-.21,0-.42-.07-.58-.23-.58-.53-1.19-1.05-1.81-1.54-.37-.29-.44-.83-.15-1.2.29-.37.83-.44,1.2-.15.66.51,1.3,1.06,1.91,1.63.35.32.37.86.05,1.21-.17.18-.4.27-.63.27ZM15.92,7.45c-.28,0-.55-.13-.71-.38-.26-.39-.15-.92.24-1.18.7-.46,1.41-.9,2.13-1.3.41-.23.93-.09,1.16.32.23.41.09.93-.32,1.16-.69.39-1.37.81-2.03,1.24-.15.1-.31.14-.47.14ZM55.22,7.21c-.16,0-.32-.05-.47-.14-.66-.43-1.34-.84-2.03-1.22-.41-.23-.57-.75-.34-1.16.23-.41.75-.57,1.16-.34.73.4,1.45.84,2.15,1.29.39.26.5.79.24,1.18-.16.25-.44.38-.71.38ZM20.16,5.05c-.32,0-.63-.18-.77-.49-.2-.43-.02-.94.4-1.14.75-.36,1.52-.69,2.29-1,.44-.17.94.04,1.11.48.17.44-.04.94-.48,1.11-.73.29-1.47.61-2.18.95-.12.06-.24.08-.37.08ZM50.95,4.86c-.12,0-.24-.02-.35-.08-.71-.32-1.45-.62-2.2-.89-.44-.16-.67-.65-.51-1.1.16-.44.65-.67,1.1-.51.79.29,1.57.6,2.32.94.43.19.62.7.43,1.13-.14.32-.45.5-.78.5ZM24.7,3.27c-.36,0-.7-.23-.82-.6-.14-.45.11-.93.56-1.07.79-.25,1.6-.47,2.41-.66.46-.11.92.18,1.03.64.11.46-.18.92-.64,1.03-.77.18-1.54.39-2.29.63-.08.03-.17.04-.26.04ZM46.37,3.2c-.08,0-.16-.01-.23-.03-.75-.21-1.53-.41-2.31-.57-.46-.1-.76-.55-.66-1.01.1-.46.55-.76,1.01-.66.82.17,1.64.38,2.42.6.45.13.72.6.59,1.06-.11.38-.45.62-.82.62ZM41.61,2.18s-.08,0-.13,0c-.77-.11-1.57-.21-2.37-.28-.47-.04-.82-.46-.77-.93.04-.47.46-.81.93-.77.84.08,1.67.17,2.47.29.47.07.79.5.72.97-.06.42-.43.73-.84.73ZM29.45,2.15c-.41,0-.77-.3-.84-.72-.08-.47.24-.9.71-.98.82-.13,1.65-.24,2.48-.31.47-.04.89.31.93.78.04.47-.31.89-.78.93-.79.07-1.58.17-2.36.29-.05,0-.09.01-.14.01ZM36.75,1.74s-.02,0-.03,0c-.79-.03-1.6-.04-2.39-.03,0,0-.01,0-.02,0-.46,0-.85-.37-.85-.84,0-.47.37-.86.84-.87.83-.02,1.67,0,2.49.03.47.02.84.41.82.88-.02.46-.4.82-.85.82Z"/>
      <g>
        <path class="cls-3" d="M65.33,29.68c0-2.86,2.32-5.18,5.18-5.18,2.86,0,5.18,2.32,5.18,5.18,0,2.86-2.32,5.18-5.18,5.18-2.86,0-5.18-2.32-5.18-5.18Z"/>
        <path class="cls-2" d="M64.64,29.68c0,3.24,2.63,5.87,5.87,5.87,3.24,0,5.87-2.63,5.87-5.87,0-3.24-2.63-5.87-5.87-5.87-3.24,0-5.87,2.63-5.87,5.87,0,3.24,0-3.24,0,0ZM75,29.68c0,2.48-2.01,4.49-4.49,4.49-2.48,0-4.49-2.01-4.49-4.49,0-2.48,2.01-4.49,4.49-4.49,2.48,0,4.49,2.01,4.49,4.49,0,2.48,0-2.48,0,0Z"/>
      </g>
      <polygon class="cls-2" points="21.66 101.03 18.22 101.46 16.14 104.23 15.11 96.09 21.66 101.03"/>
      <path class="cls-4" d="M70.29,32.52v-4.27c-.79.61-1.33.92-1.6.92-.13,0-.25-.05-.35-.16-.1-.11-.15-.23-.15-.36,0-.16.05-.28.15-.35.1-.08.28-.17.53-.29.38-.18.68-.37.91-.56.23-.2.43-.42.6-.66.17-.24.29-.39.34-.45.05-.06.15-.08.3-.08.17,0,.3.06.4.19.1.13.15.31.15.53v5.37c0,.63-.21.94-.64.94-.19,0-.34-.06-.46-.19-.12-.13-.17-.32-.17-.57Z"/>
      <path class="cls-2" d="M10.78,94.24c-.81-1.39-.33-3.17,1.06-3.97,1.39-.81,3.17-.33,3.97,1.06.81,1.39.33,3.17-1.06,3.97-1.39.81-3.17.33-3.97-1.06Z"/>
    </g>
  </g>
</svg>