<?xml version="1.0" encoding="UTF-8"?>
<svg id="Layer_2" data-name="Layer 2" xmlns="http://www.w3.org/2000/svg" viewBox="0 0 60.44 69.35">
  <defs>
    <style>
      .cls-1, .cls-2, .cls-3, .cls-4 {
        stroke-width: 0px;
      }

      .cls-2 {
        fill: #6f6f6e;
      }

      .cls-3 {
        fill: #fff;
      }

      .cls-4 {
        fill: #ff0600;
      }
    </style>
  </defs>
  <g id="S">
    <g>
      <polygon class="cls-2" points="19.64 57.12 16.2 57.55 14.12 60.32 13.09 52.18 19.64 57.12"/>
      <path class="cls-2" d="M8.89,49.47c-.81-1.39-.33-3.17,1.06-3.97,1.39-.81,3.17-.33,3.97,1.06.81,1.39.33,3.17-1.06,3.97-1.39.81-3.17.33-3.97-1.06Z"/>
      <path class="cls-2" d="M25.96,63.76s-.04,0-.06,0c-.87-.06-1.73-.19-2.54-.37-.46-.1-.75-.56-.64-1.02.1-.46.56-.75,1.02-.64.73.17,1.5.28,2.29.33.47.03.83.44.79.91-.03.45-.41.8-.85.8ZM28.4,63.76c-.44,0-.82-.34-.85-.79-.03-.47.32-.88.79-.91.78-.06,1.55-.17,2.3-.33.46-.1.92.19,1.01.66.1.46-.19.92-.66,1.01-.83.18-1.68.3-2.53.36-.02,0-.04,0-.06,0ZM33.15,62.73c-.34,0-.67-.21-.8-.55-.17-.44.05-.93.5-1.1.74-.28,1.43-.61,2.06-.99.4-.24.93-.11,1.17.29.24.4.11.93-.29,1.17-.72.43-1.5.81-2.33,1.13-.1.04-.2.06-.3.06ZM21.22,62.67c-.11,0-.22-.02-.33-.07-.83-.35-1.6-.77-2.29-1.26-.39-.27-.48-.8-.21-1.19.27-.39.8-.48,1.19-.21.6.42,1.26.78,1.98,1.09.43.18.64.69.45,1.12-.14.33-.45.52-.79.52ZM37.29,60.19c-.22,0-.45-.09-.61-.26-.33-.34-.32-.88.02-1.21.55-.53,1-1.11,1.33-1.72.23-.41.75-.57,1.16-.34.41.23.57.75.34,1.16-.42.76-.97,1.48-1.64,2.13-.17.16-.38.24-.6.24ZM17.27,59.87c-.24,0-.48-.1-.65-.29-.58-.67-1.08-1.41-1.47-2.21-.21-.42-.03-.94.39-1.14.42-.21.94-.03,1.14.39.33.67.74,1.29,1.23,1.84.31.36.27.9-.08,1.21-.16.14-.36.21-.56.21ZM39.55,55.97s-.08,0-.13,0c-.47-.07-.79-.51-.72-.97.05-.3.07-.62.07-.93v-.08c0-.38-.05-.75-.12-1.1-.1-.46.19-.92.65-1.02.46-.1.92.19,1.02.65.1.46.16.95.16,1.45v.1c0,.4-.03.8-.09,1.18-.06.42-.43.73-.84.73ZM38.48,51.35c-.26,0-.52-.12-.69-.35-.39-.53-.92-1.03-1.56-1.49-.39-.27-.48-.81-.2-1.19.27-.39.81-.48,1.19-.2.79.56,1.45,1.19,1.95,1.86.28.38.2.91-.18,1.2-.15.11-.33.17-.51.17ZM34.6,48.48c-.12,0-.24-.02-.36-.08-.65-.3-1.38-.58-2.19-.85-.45-.15-.69-.63-.54-1.08.15-.45.63-.69,1.08-.54.88.29,1.65.59,2.36.92.43.2.62.7.42,1.13-.14.31-.45.5-.78.5ZM29.98,46.91c-.07,0-.14,0-.21-.03-.7-.18-1.47-.36-2.35-.55-.46-.1-.75-.56-.65-1.02.1-.46.56-.75,1.02-.65.9.2,1.69.38,2.41.57.46.12.73.58.61,1.04-.1.39-.45.64-.83.64ZM25.21,45.85c-.06,0-.11,0-.17-.02l-.38-.08c-.69-.14-1.36-.28-2.02-.42-.46-.1-.76-.55-.66-1.01.1-.46.55-.76,1.01-.66.65.14,1.32.27,2,.41l.38.08c.46.09.76.54.67,1.01-.08.41-.44.68-.84.68ZM20.43,44.82c-.06,0-.13,0-.19-.02-.75-.17-1.56-.37-2.4-.58-.46-.12-.73-.58-.61-1.04.12-.46.58-.73,1.04-.61.82.21,1.61.4,2.36.57.46.11.75.57.64,1.03-.09.39-.44.66-.83.66ZM15.7,43.58c-.08,0-.17-.01-.26-.04-.84-.26-1.62-.54-2.36-.84-.44-.18-.65-.67-.48-1.11.17-.44.67-.65,1.11-.48.71.28,1.44.54,2.24.79.45.14.7.62.56,1.07-.11.37-.45.6-.82.6ZM11.18,41.75c-.13,0-.27-.03-.39-.1-.77-.4-1.51-.84-2.18-1.3-.39-.27-.49-.8-.22-1.19.27-.39.8-.49,1.19-.22.62.43,1.3.83,2.01,1.2.42.22.58.73.36,1.15-.15.29-.45.46-.76.46ZM7.17,38.99c-.21,0-.41-.07-.57-.22-.63-.57-1.23-1.2-1.76-1.86-.3-.36-.25-.9.12-1.2.36-.3.9-.25,1.2.12.49.59,1.02,1.16,1.59,1.68.35.32.37.86.06,1.21-.17.19-.4.28-.63.28ZM4.08,35.24c-.29,0-.57-.15-.73-.41-.43-.71-.83-1.47-1.18-2.26-.19-.43,0-.94.44-1.13.43-.19.94,0,1.13.44.32.72.68,1.42,1.07,2.06.25.4.12.93-.29,1.17-.14.08-.29.12-.44.12ZM2.1,30.79c-.36,0-.7-.23-.82-.6-.24-.78-.46-1.6-.63-2.44-.1-.46.2-.92.66-1.01.46-.1.92.2,1.01.66.17.79.37,1.56.59,2.28.14.45-.11.93-.56,1.07-.09.03-.17.04-.26.04ZM1.09,26.03c-.42,0-.79-.31-.85-.75-.1-.8-.18-1.63-.23-2.48-.03-.47.33-.88.8-.9.47-.03.88.33.9.8.05.81.12,1.61.22,2.37.06.47-.27.9-.74.96-.04,0-.07,0-.11,0ZM.86,21.17s-.05,0-.08,0c-.47-.04-.81-.46-.77-.93.08-.82.24-1.67.48-2.54.13-.45.6-.72,1.05-.6.45.13.72.6.6,1.05-.21.77-.36,1.53-.43,2.25-.04.44-.41.77-.85.77ZM2.12,16.47c-.11,0-.23-.02-.34-.07-.43-.19-.63-.69-.45-1.12.33-.76.71-1.52,1.14-2.27.23-.41.76-.55,1.17-.32.41.23.55.76.32,1.17-.4.69-.75,1.4-1.05,2.1-.14.32-.45.52-.79.52ZM52.21,15.87c-.33,0-.64-.19-.78-.51-.02-.03-.37-.82-1.16-1.98-.26-.39-.16-.92.23-1.19.39-.27.92-.16,1.19.23.9,1.32,1.29,2.22,1.31,2.25.19.43,0,.94-.44,1.13-.11.05-.23.07-.34.07ZM4.53,12.23c-.17,0-.35-.05-.5-.16-.38-.28-.47-.81-.2-1.19.49-.68,1.02-1.34,1.57-1.98.31-.35.85-.39,1.21-.08.35.31.39.85.08,1.21-.52.59-1.02,1.21-1.47,1.84-.17.23-.43.36-.69.36ZM49.5,11.81c-.24,0-.48-.1-.65-.3-.5-.59-1.04-1.18-1.61-1.73-.34-.33-.34-.87-.01-1.21.33-.34.87-.34,1.21-.01.6.59,1.18,1.21,1.72,1.85.3.36.26.9-.1,1.2-.16.14-.36.2-.55.2ZM7.76,8.57c-.23,0-.46-.09-.62-.27-.32-.34-.31-.89.04-1.21.61-.57,1.26-1.12,1.92-1.64.37-.29.91-.22,1.2.15.29.37.22.91-.15,1.2-.62.48-1.22.99-1.8,1.53-.17.15-.37.23-.58.23ZM46.01,8.4c-.19,0-.38-.06-.54-.19-.61-.49-1.25-.96-1.9-1.4-.39-.26-.5-.79-.23-1.19.26-.39.79-.5,1.19-.23.7.47,1.38.97,2.03,1.49.37.3.42.84.13,1.2-.17.21-.42.32-.66.32ZM41.96,5.68c-.14,0-.28-.03-.41-.11-.68-.38-1.4-.73-2.12-1.05-.43-.19-.63-.7-.43-1.13.19-.43.7-.62,1.13-.43.77.34,1.52.72,2.25,1.12.41.23.56.75.34,1.16-.16.28-.45.44-.75.44ZM11.61,5.59c-.28,0-.56-.14-.72-.4-.25-.4-.13-.93.27-1.18.71-.45,1.45-.86,2.2-1.24.42-.21.94-.04,1.15.38.21.42.04.94-.38,1.15-.7.35-1.39.74-2.05,1.16-.14.09-.3.13-.46.13ZM37.51,3.69c-.09,0-.19-.02-.28-.05-.73-.26-1.5-.5-2.27-.7-.46-.12-.73-.59-.6-1.05.12-.46.59-.73,1.05-.6.81.22,1.62.47,2.39.74.45.16.68.64.52,1.09-.12.35-.45.57-.81.57ZM15.97,3.4c-.34,0-.67-.21-.8-.55-.17-.44.05-.94.49-1.1.78-.3,1.59-.57,2.4-.79.46-.13.93.14,1.05.6.13.45-.14.93-.6,1.05-.76.21-1.51.46-2.24.74-.1.04-.21.06-.31.06ZM32.8,2.42c-.05,0-.11,0-.16-.02-.77-.15-1.56-.28-2.35-.38-.47-.06-.8-.49-.74-.96.06-.47.49-.8.96-.74.83.11,1.66.24,2.46.4.46.09.77.54.68,1-.08.41-.44.69-.84.69ZM20.67,2.1c-.41,0-.77-.29-.84-.71-.08-.47.23-.91.69-.99.82-.14,1.66-.25,2.5-.32.47-.03.88.31.92.78s-.31.88-.78.92c-.78.06-1.57.16-2.34.3-.05,0-.1.01-.15.01ZM27.97,1.8s-.04,0-.06,0c-.78-.05-1.58-.08-2.39-.09-.47,0-.85-.39-.85-.86,0-.47.39-.85.85-.85h0c.84,0,1.68.04,2.49.09.47.03.83.44.8.91-.03.45-.41.8-.85.8Z"/>
      <path class="cls-1" d="M27.62,69.35c-11.27,0-16.89-5-19.63-9.19-2.97-4.54-3.23-9.07-3.24-9.26-.04-.81.58-1.5,1.39-1.54.82-.04,1.5.58,1.54,1.39.04.64,1.1,15.67,19.94,15.67,4.27,0,12.06-.63,16.18-4.85,1.96-2.01,2.87-4.57,2.79-7.83-.29-11.28-17.04-12.75-17.21-12.76-.03,0-.07,0-.1-.01l-7.13-1.07c-.33-.04-4.18-.6-8.07-2.81-5.43-3.08-8.29-7.87-8.29-13.85,0-4.2,2.11-8.33,5.8-11.33,3.96-3.23,9.3-4.93,15.42-4.93,9.97,0,15.3,4.23,18.01,7.78,2.96,3.87,3.5,7.73,3.53,7.9.11.8-.45,1.54-1.26,1.65-.8.11-1.54-.45-1.65-1.25-.08-.54-2.05-13.14-18.64-13.14-5.37,0-10.19,1.52-13.57,4.27-3,2.44-4.72,5.74-4.72,9.06,0,4.91,2.27,8.7,6.74,11.26,3.48,2,7.06,2.49,7.09,2.5,0,0,.02,0,.03,0l7.09,1.07c.57.05,5.02.49,9.56,2.42,6.59,2.8,10.14,7.36,10.29,13.19.1,4.03-1.12,7.38-3.62,9.95-4.62,4.74-12.49,5.74-18.28,5.74Z"/>
      <g>
        <path class="cls-3" d="M49.39,17.88c0-2.86,2.32-5.18,5.18-5.18,2.86,0,5.18,2.32,5.18,5.18,0,2.86-2.32,5.18-5.18,5.18-2.86,0-5.18-2.32-5.18-5.18Z"/>
        <path class="cls-2" d="M48.7,17.88c0,3.24,2.63,5.87,5.87,5.87,3.24,0,5.87-2.63,5.87-5.87,0-3.24-2.63-5.87-5.87-5.87-3.24,0-5.87,2.63-5.87,5.87,0,3.24,0-3.24,0,0ZM59.06,17.87c0,2.48-2.01,4.49-4.49,4.49-2.48,0-4.49-2.01-4.49-4.49,0-2.48,2.01-4.49,4.49-4.49,2.48,0,4.49,2.01,4.49,4.49,0,2.48,0-2.48,0,0Z"/>
      </g>
      <path class="cls-4" d="M54.35,20.71v-4.27c-.79.61-1.33.91-1.6.91-.13,0-.25-.05-.35-.16-.1-.11-.15-.23-.15-.36,0-.16.05-.28.15-.35.1-.08.28-.17.53-.29.38-.18.68-.37.91-.56s.43-.42.6-.66c.17-.24.29-.39.34-.45.05-.06.15-.08.3-.08.17,0,.3.06.4.19.1.13.15.31.15.53v5.37c0,.63-.21.94-.64.94-.19,0-.34-.06-.46-.19-.12-.13-.17-.32-.17-.57Z"/>
    </g>
  </g>
</svg>