<?xml version="1.0" encoding="UTF-8"?>
<svg id="Layer_2" data-name="Layer 2" xmlns="http://www.w3.org/2000/svg" viewBox="0 0 73.19 113.53">
  <defs>
    <style>
      .cls-1, .cls-2, .cls-3, .cls-4 {
        stroke-width: 0px;
      }

      .cls-2 {
        fill: #6f6f6e;
      }

      .cls-3 {
        fill: #fff;
      }

      .cls-4 {
        fill: #ff0600;
      }
    </style>
  </defs>
  <g id="K">
    <g>
      <g>
        <path class="cls-1" d="M14.48,113.39c-.81,0-1.47-.66-1.47-1.47V1.63c0-.81.66-1.47,1.47-1.47s1.47.66,1.47,1.47v110.3c0,.81-.66,1.47-1.47,1.47Z"/>
        <path class="cls-1" d="M14.7,52.91c-.35,0-.71-.13-.99-.38-.6-.55-.64-1.47-.1-2.07L59.04.64c.55-.6,1.47-.64,2.07-.1.6.55.64,1.47.1,2.07L15.78,52.44c-.29.32-.69.48-1.08.48Z"/>
        <path class="cls-1" d="M60.12,113.39c-.45,0-.89-.21-1.18-.6L14.01,51.66c-.48-.65-.34-1.57.31-2.05s1.57-.34,2.05.31l44.93,61.13c.48.65.34,1.57-.31,2.05-.26.19-.57.28-.87.28Z"/>
      </g>
      <g>
        <path class="cls-2" d="M35.21,43.92c-.2,0-.4-.07-.56-.21-.36-.31-.4-.85-.09-1.21l1.52-1.76c.31-.36.85-.4,1.21-.09.36.31.4.85.09,1.21l-1.52,1.76c-.17.2-.41.3-.65.3ZM38.33,40.31c-.2,0-.4-.07-.56-.21-.36-.31-.4-.85-.09-1.21l1.6-1.85c.31-.36.85-.4,1.21-.09.36.31.4.85.09,1.21l-1.6,1.85c-.17.2-.41.3-.65.3ZM41.52,36.61c-.2,0-.4-.07-.56-.21-.36-.31-.4-.85-.09-1.21l1.6-1.85c.31-.36.85-.4,1.21-.09.36.31.4.85.09,1.21l-1.6,1.85c-.17.2-.41.3-.65.3ZM44.72,32.91c-.2,0-.4-.07-.56-.21-.36-.31-.4-.85-.09-1.21l1.6-1.85c.31-.36.85-.4,1.21-.09.36.31.4.85.09,1.21l-1.6,1.85c-.17.2-.41.3-.65.3ZM47.91,29.22c-.2,0-.4-.07-.56-.21-.36-.31-.4-.85-.09-1.21l1.6-1.85c.31-.36.85-.4,1.21-.09.36.31.4.85.09,1.21l-1.6,1.85c-.17.2-.41.3-.65.3ZM51.1,25.52c-.2,0-.4-.07-.56-.21-.36-.31-.4-.85-.09-1.21l1.6-1.85c.31-.36.85-.4,1.21-.09.36.31.4.85.09,1.21l-1.6,1.85c-.17.2-.41.3-.65.3ZM54.29,21.83c-.2,0-.4-.07-.56-.21-.36-.31-.4-.85-.09-1.21l1.6-1.85c.31-.36.85-.4,1.21-.09.36.31.4.85.09,1.21l-1.6,1.85c-.17.2-.41.3-.65.3ZM57.49,18.13c-.2,0-.4-.07-.56-.21-.36-.31-.4-.85-.09-1.21l1.6-1.85c.31-.36.85-.4,1.21-.09.36.31.4.85.09,1.21l-1.6,1.85c-.17.2-.41.3-.65.3ZM60.68,14.43c-.2,0-.4-.07-.56-.21-.36-.31-.4-.85-.09-1.21l1.6-1.85c.31-.36.85-.4,1.21-.09.36.31.4.85.09,1.21l-1.6,1.85c-.17.2-.41.3-.65.3ZM63.87,10.74c-.2,0-.4-.07-.56-.21-.36-.31-.4-.85-.09-1.21l1.6-1.85c.31-.36.85-.4,1.21-.09.36.31.4.85.09,1.21l-1.6,1.85c-.17.2-.41.3-.65.3Z"/>
        <g>
          <polygon class="cls-2" points="35.03 38.56 36.48 41.71 39.75 42.85 32.3 46.29 35.03 38.56"/>
          <g>
            <g>
              <path class="cls-3" d="M67.43,11.17c-2.86.06-5.23-2.21-5.29-5.07-.06-2.86,2.21-5.23,5.07-5.29,2.86-.06,5.23,2.21,5.29,5.07.06,2.86-2.21,5.23-5.07,5.29Z"/>
              <path class="cls-2" d="M67.44,11.85c3.24-.07,5.81-2.76,5.75-5.99-.07-3.24-2.76-5.81-5.99-5.75-3.24.07-5.81,2.76-5.75,5.99.07,3.24,2.76,5.81,5.99,5.75,3.24-.07-3.24.07,0,0ZM67.22,1.49c2.48-.05,4.53,1.92,4.59,4.4.05,2.48-1.92,4.53-4.4,4.59-2.48.05-4.53-1.92-4.59-4.4-.05-2.48,1.92-4.53,4.4-4.59,2.48-.05-2.48.05,0,0Z"/>
            </g>
            <path class="cls-4" d="M66.72,8.2l2.45-.06c.24,0,.43.04.56.14.13.1.2.23.2.4,0,.15-.04.28-.14.39-.1.11-.25.17-.46.17l-3.45.08c-.23,0-.42-.05-.55-.18-.13-.13-.2-.28-.21-.45,0-.11.04-.26.12-.45.08-.19.17-.34.27-.45.41-.44.77-.82,1.1-1.14.33-.32.56-.52.7-.62.25-.19.46-.38.63-.56.17-.19.29-.38.38-.57s.12-.38.12-.57c0-.2-.06-.38-.16-.53-.1-.16-.23-.27-.4-.36s-.35-.12-.54-.12c-.41.01-.73.2-.95.56-.03.05-.08.18-.15.39-.07.21-.15.37-.24.49-.09.11-.22.17-.4.18-.16,0-.29-.04-.39-.14-.11-.1-.16-.24-.17-.42,0-.22.04-.44.13-.68.09-.24.23-.45.42-.65.19-.19.43-.36.72-.48s.64-.19,1.03-.2c.48-.01.89.05,1.23.2.22.09.42.23.59.4.17.17.3.37.4.6.1.23.15.46.16.71,0,.39-.08.74-.26,1.07-.18.32-.37.58-.57.76-.2.18-.52.48-.99.87-.46.4-.78.7-.95.92-.07.09-.15.19-.22.31Z"/>
          </g>
        </g>
      </g>
      <g>
        <path class="cls-2" d="M64.08,104.42c-.27,0-.53-.12-.7-.36l-1.42-1.99c-.27-.38-.19-.92.2-1.19.38-.27.92-.19,1.19.2l1.42,1.99c.27.38.19.92-.2,1.19-.15.11-.32.16-.5.16ZM61.23,100.45c-.27,0-.53-.12-.7-.36l-1.42-1.99c-.27-.38-.19-.92.2-1.19.38-.27.92-.19,1.19.2l1.42,1.99c.27.38.19.92-.2,1.19-.15.11-.32.16-.5.16ZM58.39,96.48c-.27,0-.53-.12-.7-.36l-1.42-1.99c-.27-.38-.19-.92.2-1.19.38-.27.92-.19,1.19.2l1.42,1.99c.27.38.19.92-.2,1.19-.15.11-.32.16-.5.16ZM55.55,92.51c-.27,0-.53-.12-.7-.36l-1.42-1.99c-.27-.38-.19-.92.2-1.19.38-.27.92-.19,1.19.2l1.42,1.99c.27.38.19.92-.2,1.19-.15.11-.32.16-.5.16ZM52.71,88.53c-.27,0-.53-.12-.7-.36l-1.42-1.99c-.27-.38-.19-.92.2-1.19.38-.27.92-.19,1.19.2l1.42,1.99c.27.38.19.92-.2,1.19-.15.11-.32.16-.5.16ZM49.87,84.56c-.27,0-.53-.12-.7-.36l-1.42-1.99c-.27-.38-.19-.92.2-1.19.38-.27.92-.19,1.19.2l1.42,1.99c.27.38.19.92-.2,1.19-.15.11-.32.16-.5.16ZM47.03,80.59c-.27,0-.53-.12-.7-.36l-1.42-1.99c-.27-.38-.19-.92.2-1.19.38-.27.92-.19,1.19.2l1.42,1.99c.27.38.19.92-.2,1.19-.15.11-.32.16-.5.16ZM44.19,76.62c-.27,0-.53-.12-.7-.36l-1.42-1.99c-.27-.38-.19-.92.2-1.19.38-.27.92-.19,1.19.2l1.42,1.99c.27.38.19.92-.2,1.19-.15.11-.32.16-.5.16ZM41.34,72.65c-.27,0-.53-.12-.7-.36l-1.42-1.99c-.27-.38-.19-.92.2-1.19.38-.27.92-.19,1.19.2l1.42,1.99c.27.38.19.92-.2,1.19-.15.11-.32.16-.5.16ZM38.5,68.67c-.27,0-.53-.12-.7-.36l-1.42-1.99c-.27-.38-.19-.92.2-1.19.38-.27.92-.19,1.19.2l1.42,1.99c.27.38.19.92-.2,1.19-.15.11-.32.16-.5.16ZM35.66,64.7c-.27,0-.53-.12-.7-.36l-1.42-1.99c-.27-.38-.19-.92.2-1.19.38-.27.92-.19,1.19.2l1.42,1.99c.27.38.19.92-.2,1.19-.15.11-.32.16-.5.16ZM32.82,60.73c-.27,0-.53-.12-.7-.36l-1.42-1.99c-.27-.38-.19-.92.2-1.19.38-.27.92-.19,1.19.2l1.42,1.99c.27.38.19.92-.2,1.19-.15.11-.32.16-.5.16ZM29.98,56.76c-.27,0-.53-.12-.7-.36l-1.42-1.99c-.27-.38-.19-.92.2-1.19.38-.27.92-.19,1.19.2l1.42,1.99c.27.38.19.92-.2,1.19-.15.11-.32.16-.5.16Z"/>
        <g>
          <polygon class="cls-2" points="60.27 103.35 63.64 102.55 65.41 99.57 67.32 107.55 60.27 103.35"/>
          <path class="cls-2" d="M67.73,108.05c-1.29.96-1.56,2.78-.6,4.07.96,1.29,2.78,1.56,4.07.6,1.29-.96,1.56-2.78.6-4.07-.96-1.29-2.78-1.56-4.07-.6Z"/>
          <g>
            <path class="cls-3" d="M26.95,56.88c-2.86.02-5.2-2.28-5.22-5.14-.02-2.86,2.28-5.2,5.14-5.22s5.2,2.28,5.22,5.14c.02,2.86-2.28,5.2-5.14,5.22Z"/>
            <path class="cls-2" d="M26.96,57.57c3.24-.03,5.85-2.68,5.82-5.92-.03-3.24-2.68-5.85-5.92-5.82-3.24.03-5.85,2.68-5.82,5.92.03,3.24,2.68,5.85,5.92,5.82,3.24-.03-3.24.03,0,0ZM26.88,47.2c2.48-.02,4.51,1.98,4.53,4.46.02,2.48-1.98,4.51-4.46,4.53-2.48.02-4.51-1.98-4.53-4.46-.02-2.48,1.98-4.51,4.46-4.53,2.48-.02-2.48.02,0,0Z"/>
          </g>
          <path class="cls-4" d="M26.82,50.95c.29,0,.53-.09.74-.26.21-.17.31-.41.3-.73,0-.24-.09-.45-.26-.62-.17-.17-.39-.26-.67-.25-.19,0-.35.03-.47.08-.12.05-.22.13-.29.21-.07.09-.14.2-.2.34-.06.14-.12.27-.17.39-.03.07-.09.12-.17.16-.08.04-.17.06-.28.06-.13,0-.24-.05-.35-.15-.11-.1-.16-.23-.16-.4,0-.16.05-.33.14-.52.1-.18.24-.35.43-.52.19-.16.42-.3.7-.4.28-.1.59-.15.94-.16.3,0,.58.03.83.11.25.08.47.2.66.35.19.15.33.33.42.54.1.21.15.43.15.66,0,.31-.06.58-.19.81-.13.23-.33.45-.58.66.25.13.45.28.62.44.17.17.3.35.38.56.09.2.13.42.13.66,0,.28-.05.56-.16.83s-.28.51-.5.72c-.22.21-.48.38-.79.5-.3.12-.64.18-1.01.19-.38,0-.71-.06-1.01-.19-.3-.13-.55-.3-.74-.5-.19-.2-.34-.41-.44-.62-.1-.21-.15-.39-.15-.53,0-.18.05-.33.17-.44.12-.11.26-.17.44-.17.09,0,.17.02.25.07.08.05.14.11.16.18.17.43.35.75.53.96.19.21.45.31.79.31.19,0,.38-.05.56-.15.18-.1.33-.24.44-.43.12-.19.17-.41.17-.65,0-.37-.11-.65-.31-.86-.2-.21-.48-.31-.84-.3-.06,0-.16,0-.29.02-.13.01-.22.02-.25.02-.17,0-.31-.04-.4-.12-.09-.08-.14-.2-.15-.36,0-.15.05-.27.16-.37.11-.09.28-.14.5-.14h.19Z"/>
        </g>
      </g>
      <g>
        <path class="cls-2" d="M5.95,102.14c-.47,0-.85-.38-.85-.85v-2.44c0-.47.38-.85.85-.85s.85.38.85.85v2.44c0,.47-.38.85-.85.85ZM5.95,97.25c-.47,0-.85-.38-.85-.85v-2.44c0-.47.38-.85.85-.85s.85.38.85.85v2.44c0,.47-.38.85-.85.85ZM5.95,92.37c-.47,0-.85-.38-.85-.85v-2.44c0-.47.38-.85.85-.85s.85.38.85.85v2.44c0,.47-.38.85-.85.85ZM5.95,87.48c-.47,0-.85-.38-.85-.85v-2.44c0-.47.38-.85.85-.85s.85.38.85.85v2.44c0,.47-.38.85-.85.85ZM5.95,82.6c-.47,0-.85-.38-.85-.85v-2.44c0-.47.38-.85.85-.85s.85.38.85.85v2.44c0,.47-.38.85-.85.85ZM5.95,77.72c-.47,0-.85-.38-.85-.85v-2.44c0-.47.38-.85.85-.85s.85.38.85.85v2.44c0,.47-.38.85-.85.85ZM5.95,72.83c-.47,0-.85-.38-.85-.85v-2.44c0-.47.38-.85.85-.85s.85.38.85.85v2.44c0,.47-.38.85-.85.85ZM5.95,67.95c-.47,0-.85-.38-.85-.85v-2.44c0-.47.38-.85.85-.85s.85.38.85.85v2.44c0,.47-.38.85-.85.85ZM5.95,63.06c-.47,0-.85-.38-.85-.85v-2.44c0-.47.38-.85.85-.85s.85.38.85.85v2.44c0,.47-.38.85-.85.85ZM5.95,58.18c-.47,0-.85-.38-.85-.85v-2.44c0-.47.38-.85.85-.85s.85.38.85.85v2.44c0,.47-.38.85-.85.85ZM5.95,53.3c-.47,0-.85-.38-.85-.85v-2.44c0-.47.38-.85.85-.85s.85.38.85.85v2.44c0,.47-.38.85-.85.85ZM5.95,48.41c-.47,0-.85-.38-.85-.85v-2.44c0-.47.38-.85.85-.85s.85.38.85.85v2.44c0,.47-.38.85-.85.85ZM5.95,43.53c-.47,0-.85-.38-.85-.85v-2.44c0-.47.38-.85.85-.85s.85.38.85.85v2.44c0,.47-.38.85-.85.85ZM5.95,38.64c-.47,0-.85-.38-.85-.85v-2.44c0-.47.38-.85.85-.85s.85.38.85.85v2.44c0,.47-.38.85-.85.85ZM5.95,33.76c-.47,0-.85-.38-.85-.85v-2.44c0-.47.38-.85.85-.85s.85.38.85.85v2.44c0,.47-.38.85-.85.85ZM5.95,28.88c-.47,0-.85-.38-.85-.85v-2.44c0-.47.38-.85.85-.85s.85.38.85.85v2.44c0,.47-.38.85-.85.85ZM5.95,23.99c-.47,0-.85-.38-.85-.85v-2.44c0-.47.38-.85.85-.85s.85.38.85.85v2.44c0,.47-.38.85-.85.85ZM5.95,19.11c-.47,0-.85-.38-.85-.85v-2.44c0-.47.38-.85.85-.85s.85.38.85.85v2.44c0,.47-.38.85-.85.85ZM5.95,14.22c-.47,0-.85-.38-.85-.85v-2.44c0-.47.38-.85.85-.85s.85.38.85.85v2.44c0,.47-.38.85-.85.85Z"/>
        <g>
          <path class="cls-3" d="M.69,5.87c0-2.86,2.32-5.18,5.18-5.18,2.86,0,5.18,2.32,5.18,5.18,0,2.86-2.32,5.18-5.18,5.18-2.86,0-5.18-2.32-5.18-5.18Z"/>
          <path class="cls-2" d="M0,5.87c0,3.24,2.63,5.87,5.87,5.87s5.87-2.63,5.87-5.87C11.74,2.63,9.11,0,5.87,0S0,2.63,0,5.87C0,9.11,0,2.63,0,5.87ZM10.36,5.87c0,2.48-2.01,4.49-4.49,4.49-2.48,0-4.49-2.01-4.49-4.49,0-2.48,2.01-4.49,4.49-4.49s4.49,2.01,4.49,4.49c0,2.48,0-2.48,0,0Z"/>
        </g>
        <polygon class="cls-2" points="2.81 99.29 6 100.64 9.19 99.29 6 106.85 2.81 99.29"/>
        <path class="cls-4" d="M5.65,8.71v-4.27c-.79.61-1.33.91-1.6.91-.13,0-.25-.05-.35-.16-.1-.11-.15-.23-.15-.36,0-.16.05-.28.15-.35.1-.08.28-.17.53-.29.38-.18.68-.37.91-.56.23-.2.43-.42.6-.66.17-.24.29-.39.34-.45.05-.06.15-.08.3-.08.17,0,.3.06.4.19.1.13.15.31.15.53v5.37c0,.63-.21.94-.64.94-.19,0-.34-.06-.46-.19-.12-.13-.17-.32-.17-.57Z"/>
        <path class="cls-2" d="M8.81,110.62c0,1.61-1.3,2.91-2.91,2.91s-2.91-1.3-2.91-2.91,1.3-2.91,2.91-2.91,2.91,1.3,2.91,2.91Z"/>
      </g>
    </g>
  </g>
</svg>