<svg xmlns="http://www.w3.org/2000/svg" id="Layer_2" data-name="Layer 2" viewBox="0 0 88.69 114.87"><defs><style>.cls-1,.cls-2,.cls-3,.cls-4{stroke-width:0}.cls-2{fill:#6f6f6e}.cls-3{fill:#fff}.cls-4{fill:#ff0600}</style></defs><g id="H"><g><g><path d="M15.66,114.46c-.81,0-1.47-.66-1.47-1.47V2.5c0-.81.66-1.47,1.47-1.47s1.47.66,1.47,1.47v110.5c0,.81-.66,1.47-1.47,1.47Z" class="cls-1"/><path d="M74.43,114.46c-.81,0-1.47-.66-1.47-1.47V2.5c0-.81.66-1.47,1.47-1.47s1.47.66,1.47,1.47v110.5c0,.81-.66,1.47-1.47,1.47Z" class="cls-1"/><path d="M74.1,58.17H15.66c-.81,0-1.47-.66-1.47-1.47s.66-1.47,1.47-1.47h58.44c.81,0,1.47.66,1.47,1.47s-.66,1.47-1.47,1.47Z" class="cls-1"/></g><g><path d="M5.95,103.58c-.47,0-.85-.38-.85-.85v-1.93c0-.47.38-.85.85-.85s.85.38.85.85v1.93c0,.47-.38.85-.85.85ZM5.95,99.21c-.47,0-.85-.38-.85-.85v-2.44c0-.47.38-.85.85-.85s.85.38.85.85v2.44c0,.47-.38.85-.85.85ZM5.95,94.32c-.47,0-.85-.38-.85-.85v-2.44c0-.47.38-.85.85-.85s.85.38.85.85v2.44c0,.47-.38.85-.85.85ZM5.95,89.44c-.47,0-.85-.38-.85-.85v-2.44c0-.47.38-.85.85-.85s.85.38.85.85v2.44c0,.47-.38.85-.85.85ZM5.95,84.55c-.47,0-.85-.38-.85-.85v-2.44c0-.47.38-.85.85-.85s.85.38.85.85v2.44c0,.47-.38.85-.85.85ZM5.95,79.67c-.47,0-.85-.38-.85-.85v-2.44c0-.47.38-.85.85-.85s.85.38.85.85v2.44c0,.47-.38.85-.85.85ZM5.95,74.79c-.47,0-.85-.38-.85-.85v-2.44c0-.47.38-.85.85-.85s.85.38.85.85v2.44c0,.47-.38.85-.85.85ZM5.95,69.9c-.47,0-.85-.38-.85-.85v-2.44c0-.47.38-.85.85-.85s.85.38.85.85v2.44c0,.47-.38.85-.85.85ZM5.95,65.02c-.47,0-.85-.38-.85-.85v-2.44c0-.47.38-.85.85-.85s.85.38.85.85v2.44c0,.47-.38.85-.85.85ZM5.95,60.13c-.47,0-.85-.38-.85-.85v-2.44c0-.47.38-.85.85-.85s.85.38.85.85v2.44c0,.47-.38.85-.85.85ZM5.95,55.25c-.47,0-.85-.38-.85-.85v-2.44c0-.47.38-.85.85-.85s.85.38.85.85v2.44c0,.47-.38.85-.85.85ZM5.95,50.37c-.47,0-.85-.38-.85-.85v-2.44c0-.47.38-.85.85-.85s.85.38.85.85v2.44c0,.47-.38.85-.85.85ZM5.95,45.48c-.47,0-.85-.38-.85-.85v-2.44c0-.47.38-.85.85-.85s.85.38.85.85v2.44c0,.47-.38.85-.85.85ZM5.95,40.6c-.47,0-.85-.38-.85-.85v-2.44c0-.47.38-.85.85-.85s.85.38.85.85v2.44c0,.47-.38.85-.85.85ZM5.95,35.71c-.47,0-.85-.38-.85-.85v-2.44c0-.47.38-.85.85-.85s.85.38.85.85v2.44c0,.47-.38.85-.85.85ZM5.95,30.83c-.47,0-.85-.38-.85-.85v-2.44c0-.47.38-.85.85-.85s.85.38.85.85v2.44c0,.47-.38.85-.85.85ZM5.95,25.95c-.47,0-.85-.38-.85-.85v-2.44c0-.47.38-.85.85-.85s.85.38.85.85v2.44c0,.47-.38.85-.85.85ZM5.95,21.06c-.47,0-.85-.38-.85-.85v-2.44c0-.47.38-.85.85-.85s.85.38.85.85v2.44c0,.47-.38.85-.85.85ZM5.95,16.18c-.47,0-.85-.38-.85-.85v-2.44c0-.47.38-.85.85-.85s.85.38.85.85v2.44c0,.47-.38.85-.85.85Z" class="cls-2"/><g><path d="M.69,5.87c0-2.86,2.32-5.18,5.18-5.18,2.86,0,5.18,2.32,5.18,5.18,0,2.86-2.32,5.18-5.18,5.18-2.86,0-5.18-2.32-5.18-5.18Z" class="cls-3"/><path d="M0,5.87c0,3.24,2.63,5.87,5.87,5.87s5.87-2.63,5.87-5.87C11.74,2.63,9.11,0,5.87,0,2.63,0,0,2.63,0,5.87,0,9.11,0,2.63,0,5.87ZM10.36,5.87c0,2.48-2.01,4.49-4.49,4.49-2.48,0-4.49-2.01-4.49-4.49,0-2.48,2.01-4.49,4.49-4.49,2.48,0,4.49,2.01,4.49,4.49,0,2.48,0-2.48,0,0Z" class="cls-2"/></g><polygon points="2.81 100.39 6 101.74 9.19 100.39 6 107.95 2.81 100.39" class="cls-2"/><path d="M5.65,8.71v-4.27c-.79.61-1.33.91-1.6.91-.13,0-.25-.05-.35-.16-.1-.11-.15-.23-.15-.36,0-.16.05-.28.15-.35.1-.08.28-.17.53-.29.38-.18.68-.37.91-.56s.43-.42.6-.66c.17-.24.29-.39.34-.45.05-.06.15-.08.3-.08.17,0,.3.06.4.19.1.13.15.31.15.53v5.37c0,.63-.21.94-.64.94-.19,0-.34-.06-.46-.19-.12-.13-.17-.32-.17-.57Z" class="cls-4"/><path d="M8.81,111.72c0,1.61-1.3,2.91-2.91,2.91s-2.91-1.3-2.91-2.91,1.3-2.91,2.91-2.91,2.91,1.3,2.91,2.91Z" class="cls-2"/></g><g><path d="M82.89,103.58c-.47,0-.85-.38-.85-.85v-1.93c0-.47.38-.85.85-.85s.85.38.85.85v1.93c0,.47-.38.85-.85.85ZM82.89,99.21c-.47,0-.85-.38-.85-.85v-2.44c0-.47.38-.85.85-.85s.85.38.85.85v2.44c0,.47-.38.85-.85.85ZM82.89,94.32c-.47,0-.85-.38-.85-.85v-2.44c0-.47.38-.85.85-.85s.85.38.85.85v2.44c0,.47-.38.85-.85.85ZM82.89,89.44c-.47,0-.85-.38-.85-.85v-2.44c0-.47.38-.85.85-.85s.85.38.85.85v2.44c0,.47-.38.85-.85.85ZM82.89,84.55c-.47,0-.85-.38-.85-.85v-2.44c0-.47.38-.85.85-.85s.85.38.85.85v2.44c0,.47-.38.85-.85.85ZM82.89,79.67c-.47,0-.85-.38-.85-.85v-2.44c0-.47.38-.85.85-.85s.85.38.85.85v2.44c0,.47-.38.85-.85.85ZM82.89,74.79c-.47,0-.85-.38-.85-.85v-2.44c0-.47.38-.85.85-.85s.85.38.85.85v2.44c0,.47-.38.85-.85.85ZM82.89,69.9c-.47,0-.85-.38-.85-.85v-2.44c0-.47.38-.85.85-.85s.85.38.85.85v2.44c0,.47-.38.85-.85.85ZM82.89,65.02c-.47,0-.85-.38-.85-.85v-2.44c0-.47.38-.85.85-.85s.85.38.85.85v2.44c0,.47-.38.85-.85.85ZM82.89,60.13c-.47,0-.85-.38-.85-.85v-2.44c0-.47.38-.85.85-.85s.85.38.85.85v2.44c0,.47-.38.85-.85.85ZM82.89,55.25c-.47,0-.85-.38-.85-.85v-2.44c0-.47.38-.85.85-.85s.85.38.85.85v2.44c0,.47-.38.85-.85.85ZM82.89,50.37c-.47,0-.85-.38-.85-.85v-2.44c0-.47.38-.85.85-.85s.85.38.85.85v2.44c0,.47-.38.85-.85.85ZM82.89,45.48c-.47,0-.85-.38-.85-.85v-2.44c0-.47.38-.85.85-.85s.85.38.85.85v2.44c0,.47-.38.85-.85.85ZM82.89,40.6c-.47,0-.85-.38-.85-.85v-2.44c0-.47.38-.85.85-.85s.85.38.85.85v2.44c0,.47-.38.85-.85.85ZM82.89,35.71c-.47,0-.85-.38-.85-.85v-2.44c0-.47.38-.85.85-.85s.85.38.85.85v2.44c0,.47-.38.85-.85.85ZM82.89,30.83c-.47,0-.85-.38-.85-.85v-2.44c0-.47.38-.85.85-.85s.85.38.85.85v2.44c0,.47-.38.85-.85.85ZM82.89,25.95c-.47,0-.85-.38-.85-.85v-2.44c0-.47.38-.85.85-.85s.85.38.85.85v2.44c0,.47-.38.85-.85.85ZM82.89,21.06c-.47,0-.85-.38-.85-.85v-2.44c0-.47.38-.85.85-.85s.85.38.85.85v2.44c0,.47-.38.85-.85.85ZM82.89,16.18c-.47,0-.85-.38-.85-.85v-2.44c0-.47.38-.85.85-.85s.85.38.85.85v2.44c0,.47-.38.85-.85.85Z" class="cls-2"/><g><path d="M77.64,5.87c0-2.86,2.32-5.18,5.18-5.18,2.86,0,5.18,2.32,5.18,5.18,0,2.86-2.32,5.18-5.18,5.18-2.86,0-5.18-2.32-5.18-5.18Z" class="cls-3"/><path d="M82.02,7.83h2.45c.24,0,.43.05.56.15.13.1.19.24.19.41,0,.15-.05.28-.15.39-.1.11-.26.16-.46.16h-3.45c-.23,0-.42-.06-.55-.19-.13-.13-.2-.28-.2-.46,0-.11.04-.26.13-.45.08-.19.18-.33.28-.44.42-.43.79-.8,1.13-1.11.33-.31.57-.51.72-.61.26-.18.47-.36.64-.55.17-.18.3-.37.39-.56.09-.19.13-.38.13-.57,0-.2-.05-.38-.14-.54s-.23-.28-.39-.37c-.16-.09-.34-.13-.54-.13-.41,0-.73.18-.97.54-.03.05-.08.17-.16.38-.07.21-.16.37-.25.48-.09.11-.23.17-.41.17-.16,0-.29-.05-.39-.15s-.15-.24-.15-.42c0-.22.05-.44.15-.68.1-.23.24-.45.43-.64.19-.19.44-.34.73-.46.3-.12.64-.18,1.04-.18.48,0,.89.08,1.22.23.22.1.41.24.58.41.17.18.3.38.39.61.09.23.14.47.14.72,0,.39-.1.74-.29,1.06-.19.32-.39.57-.59.75-.2.18-.54.46-1.01.85-.47.38-.79.68-.97.9-.08.08-.15.19-.23.31Z" class="cls-4"/><path d="M76.95,5.87c0,3.24,2.63,5.87,5.87,5.87,3.24,0,5.87-2.63,5.87-5.87C88.69,2.63,86.05,0,82.82,0c-3.24,0-5.87,2.63-5.87,5.87,0,3.24,0-3.24,0,0ZM87.31,5.87c0,2.48-2.01,4.49-4.49,4.49-2.48,0-4.49-2.01-4.49-4.49,0-2.48,2.01-4.49,4.49-4.49,2.48,0,4.49,2.01,4.49,4.49,0,2.48,0-2.48,0,0Z" class="cls-2"/></g><polygon points="79.76 100.63 82.95 101.99 86.14 100.63 82.95 108.19 79.76 100.63" class="cls-2"/><path d="M85.76,111.96c0,1.61-1.3,2.91-2.91,2.91s-2.91-1.3-2.91-2.91,1.3-2.91,2.91-2.91,2.91,1.3,2.91,2.91Z" class="cls-2"/></g><g><polygon points="56.58 68.39 57.95 65.21 56.61 62.01 64.15 65.23 56.58 68.39" class="cls-2"/><circle cx="67.71" cy="65.2" r="2.91" class="cls-2"/><path d="M58.89,66.06h-2.44c-.47,0-.85-.38-.85-.85s.38-.85.85-.85h2.44c.47,0,.85.38.85.85s-.38.85-.85.85ZM54,66.06h-2.44c-.47,0-.85-.38-.85-.85s.38-.85.85-.85h2.44c.47,0,.85.38.85.85s-.38.85-.85.85ZM49.12,66.06h-2.44c-.47,0-.85-.38-.85-.85s.38-.85.85-.85h2.44c.47,0,.85.38.85.85s-.38.85-.85.85ZM44.24,66.06h-2.44c-.47,0-.85-.38-.85-.85s.38-.85.85-.85h2.44c.47,0,.85.38.85.85s-.38.85-.85.85ZM39.35,66.06h-2.44c-.47,0-.85-.38-.85-.85s.38-.85.85-.85h2.44c.47,0,.85.38.85.85s-.38.85-.85.85ZM34.47,66.06h-2.44c-.47,0-.85-.38-.85-.85s.38-.85.85-.85h2.44c.47,0,.85.38.85.85s-.38.85-.85.85ZM29.58,66.06h-2.44c-.47,0-.85-.38-.85-.85s.38-.85.85-.85h2.44c.47,0,.85.38.85.85s-.38.85-.85.85ZM24.7,66.06h-2.44c-.47,0-.85-.38-.85-.85s.38-.85.85-.85h2.44c.47,0,.85.38.85.85s-.38.85-.85.85Z" class="cls-2"/><g><path d="M23.06,70.38c-2.86-.01-5.17-2.34-5.16-5.2.01-2.86,2.34-5.17,5.2-5.16,2.86.01,5.17,2.34,5.16,5.2-.01,2.86-2.34,5.17-5.2,5.16Z" class="cls-3"/><path d="M22.96,64.3c.29,0,.54-.08.75-.25.21-.17.32-.41.32-.72,0-.24-.08-.45-.24-.62-.16-.18-.39-.26-.67-.27-.19,0-.35.02-.47.07-.12.05-.22.12-.3.21-.07.09-.14.2-.21.34-.07.14-.13.27-.18.39-.03.07-.09.12-.17.15-.08.04-.18.06-.28.05-.13,0-.24-.05-.34-.16-.1-.1-.16-.24-.15-.41,0-.16.05-.33.15-.51.1-.18.25-.35.44-.51.19-.16.43-.29.71-.39.28-.1.6-.14.94-.14.3,0,.58.05.83.13.25.09.47.21.65.37.18.16.32.34.41.55.09.21.14.43.13.67,0,.31-.07.58-.21.8-.14.22-.34.44-.59.65.24.13.45.29.61.46.17.17.29.36.37.56.08.21.12.43.12.67,0,.28-.06.56-.18.82-.12.26-.29.5-.51.71-.22.21-.49.37-.8.48-.31.11-.64.17-1.01.17-.38,0-.71-.07-1.01-.21-.3-.14-.54-.31-.73-.51-.19-.2-.33-.41-.43-.63-.1-.22-.14-.4-.14-.54,0-.18.06-.33.18-.44.12-.11.27-.16.44-.16.09,0,.17.03.25.08.08.05.13.11.16.19.16.44.33.76.51.97.18.21.45.32.78.32.19,0,.38-.04.56-.14.18-.09.33-.23.45-.42.12-.19.18-.4.18-.65,0-.37-.09-.65-.29-.86-.2-.21-.48-.32-.83-.32-.06,0-.16,0-.29.02-.13.01-.22.02-.25.02-.17,0-.3-.05-.4-.13-.09-.09-.14-.21-.14-.36,0-.15.06-.27.17-.36.11-.09.28-.14.5-.13h.19Z" class="cls-4"/><path d="M23.06,71.07c3.24.01,5.88-2.61,5.89-5.85.01-3.24-2.61-5.88-5.85-5.89-3.24-.01-5.88,2.61-5.89,5.85-.01,3.24,2.61,5.88,5.85,5.89,3.24.01-3.24-.01,0,0ZM23.1,60.71c2.48,0,4.48,2.03,4.47,4.51,0,2.48-2.03,4.48-4.51,4.47-2.48,0-4.48-2.03-4.47-4.51,0-2.48,2.03-4.48,4.51-4.47,2.48,0-2.48,0,0,0Z" class="cls-2"/></g></g></g></g></svg>