<?xml version="1.0" encoding="UTF-8"?>
<svg id="Layer_2" data-name="Layer 2" xmlns="http://www.w3.org/2000/svg" viewBox="0 0 153.59 246.11">
  <defs>
    <style>
      .cls-1, .cls-2, .cls-3, .cls-4 {
        stroke-width: 0px;
      }

      .cls-2 {
        fill: #6f6f6e;
      }

      .cls-3 {
        fill: #fff;
      }

      .cls-4 {
        fill: #ff0600;
      }
    </style>
  </defs>
  <g id="D">
    <g>
      <path class="cls-1" d="M71.32,230.15H30.3c-1.53,0-2.77-1.24-2.77-2.77V26.88c0-1.53,1.24-2.77,2.77-2.77h41.02c20.31,0,37.63,7.81,50.11,22.58,11.68,13.82,18.1,32.98,18.1,53.93v53.01c0,20.96-6.43,40.11-18.1,53.93-12.48,14.77-29.81,22.58-50.11,22.58ZM33.06,224.62h38.26c36.91,0,62.69-29.19,62.69-70.98v-53.01c0-41.79-25.78-70.98-62.69-70.98h-38.26v194.97Z"/>
      <path class="cls-2" d="M72.97,241.9h-.61c-.89,0-1.61-.72-1.61-1.61s.72-1.61,1.61-1.61h.61c1.31,0,2.64-.03,3.93-.08.88-.04,1.64.65,1.68,1.54.04.89-.65,1.64-1.54,1.68-1.34.06-2.71.09-4.07.09ZM67.76,241.9h-4.61c-.89,0-1.61-.72-1.61-1.61s.72-1.61,1.61-1.61h4.61c.89,0,1.61.72,1.61,1.61s-.72,1.61-1.61,1.61ZM58.54,241.9h-4.61c-.89,0-1.61-.72-1.61-1.61s.72-1.61,1.61-1.61h4.61c.89,0,1.61.72,1.61,1.61s-.72,1.61-1.61,1.61ZM49.32,241.9h-4.61c-.89,0-1.61-.72-1.61-1.61s.72-1.61,1.61-1.61h4.61c.89,0,1.61.72,1.61,1.61s-.72,1.61-1.61,1.61ZM40.1,241.9h-4.61c-.89,0-1.61-.72-1.61-1.61s.72-1.61,1.61-1.61h4.61c.89,0,1.61.72,1.61,1.61s-.72,1.61-1.61,1.61ZM81.57,241.51c-.82,0-1.53-.63-1.6-1.46-.08-.89.57-1.67,1.46-1.76,1.5-.14,3.01-.32,4.49-.54.88-.13,1.7.48,1.83,1.36.13.88-.48,1.7-1.36,1.83-1.53.23-3.1.42-4.66.56-.05,0-.1,0-.15,0ZM90.68,240.16c-.75,0-1.42-.53-1.58-1.29-.18-.87.38-1.73,1.26-1.9,1.48-.3,2.95-.65,4.39-1.03.86-.23,1.74.28,1.97,1.14.23.86-.28,1.74-1.14,1.97-1.5.4-3.04.76-4.57,1.08-.11.02-.22.03-.33.03ZM99.58,237.79c-.68,0-1.31-.43-1.53-1.11-.28-.85.18-1.76,1.02-2.04,1.43-.47,2.85-.99,4.23-1.55.83-.33,1.77.07,2.1.9.33.83-.07,1.77-.9,2.1-1.44.58-2.93,1.12-4.42,1.61-.17.06-.34.08-.51.08ZM108.12,234.36c-.6,0-1.18-.34-1.46-.92-.38-.8-.04-1.77.77-2.15,1.35-.64,2.7-1.33,4-2.06.78-.43,1.76-.15,2.19.63.43.78.15,1.76-.63,2.19-1.36.76-2.77,1.48-4.19,2.15-.22.11-.46.16-.69.16ZM116.17,229.89c-.53,0-1.05-.26-1.36-.74-.48-.75-.26-1.75.49-2.23,1.26-.81,2.5-1.67,3.71-2.55.72-.53,1.73-.38,2.26.34.53.72.38,1.73-.34,2.26-1.26.93-2.56,1.83-3.88,2.67-.27.17-.57.26-.87.26ZM123.57,224.43c-.46,0-.92-.2-1.24-.57-.57-.68-.49-1.7.2-2.27,1.14-.96,2.27-1.97,3.35-3.01.64-.62,1.66-.59,2.28.05.62.64.59,1.66-.05,2.28-1.13,1.08-2.31,2.14-3.5,3.14-.3.25-.67.38-1.04.38ZM130.22,218.07c-.39,0-.78-.14-1.09-.43-.66-.6-.7-1.62-.09-2.28,1.01-1.1,2-2.24,2.95-3.41.56-.69,1.58-.8,2.27-.23.69.56.8,1.58.23,2.27-.99,1.22-2.03,2.41-3.08,3.56-.32.35-.75.52-1.19.52ZM136.03,210.92c-.32,0-.65-.1-.94-.3-.72-.52-.89-1.53-.37-2.25.87-1.22,1.72-2.48,2.52-3.75.47-.75,1.47-.98,2.22-.51.75.47.98,1.47.51,2.22-.84,1.33-1.72,2.64-2.63,3.91-.31.44-.81.67-1.31.67ZM140.95,203.12c-.26,0-.53-.06-.78-.2-.78-.43-1.06-1.41-.63-2.19.72-1.31,1.42-2.66,2.07-4.02.39-.8,1.35-1.14,2.15-.76.8.39,1.14,1.35.76,2.15-.68,1.41-1.4,2.82-2.15,4.18-.29.53-.85.83-1.41.83ZM144.94,194.82c-.21,0-.42-.04-.62-.12-.82-.34-1.21-1.29-.87-2.11.57-1.38,1.12-2.8,1.62-4.22.3-.84,1.22-1.28,2.06-.98.84.3,1.28,1.22.98,2.06-.52,1.48-1.09,2.95-1.68,4.38-.26.62-.86,1-1.49,1ZM148.01,186.13c-.15,0-.31-.02-.46-.07-.85-.25-1.34-1.15-1.09-2.01.43-1.44.82-2.91,1.18-4.37.21-.87,1.08-1.4,1.95-1.19.87.21,1.4,1.08,1.19,1.95-.37,1.52-.78,3.04-1.22,4.53-.21.7-.85,1.16-1.55,1.16ZM150.19,177.18c-.1,0-.2,0-.31-.03-.88-.17-1.45-1.01-1.28-1.89.28-1.47.53-2.97.75-4.47.13-.88.95-1.49,1.83-1.37.88.13,1.49.94,1.37,1.83-.22,1.55-.48,3.1-.77,4.62-.15.77-.82,1.31-1.58,1.31ZM151.5,168.06c-.05,0-.1,0-.16,0-.89-.09-1.54-.87-1.45-1.76.14-1.49.26-3.01.34-4.52.05-.89.81-1.57,1.69-1.53.89.05,1.57.81,1.53,1.69-.08,1.56-.2,3.13-.35,4.67-.08.83-.78,1.46-1.6,1.46ZM151.98,158.86h-.01c-.89,0-1.61-.74-1.6-1.63,0-.3,0-.6,0-.9v-3.69c0-.89.72-1.61,1.61-1.61s1.61.72,1.61,1.61v3.69c0,.31,0,.62,0,.93,0,.89-.73,1.6-1.61,1.6ZM151.98,149.64c-.89,0-1.61-.72-1.61-1.61v-4.61c0-.89.72-1.61,1.61-1.61s1.61.72,1.61,1.61v4.61c0,.89-.72,1.61-1.61,1.61ZM151.98,140.42c-.89,0-1.61-.72-1.61-1.61v-4.61c0-.89.72-1.61,1.61-1.61s1.61.72,1.61,1.61v4.61c0,.89-.72,1.61-1.61,1.61ZM151.98,131.2c-.89,0-1.61-.72-1.61-1.61v-4.61c0-.89.72-1.61,1.61-1.61s1.61.72,1.61,1.61v4.61c0,.89-.72,1.61-1.61,1.61ZM151.98,121.99c-.89,0-1.61-.72-1.61-1.61v-4.61c0-.89.72-1.61,1.61-1.61s1.61.72,1.61,1.61v4.61c0,.89-.72,1.61-1.61,1.61ZM151.98,112.77c-.89,0-1.61-.72-1.61-1.61v-4.61c0-.89.72-1.61,1.61-1.61s1.61.72,1.61,1.61v4.61c0,.89-.72,1.61-1.61,1.61ZM151.98,103.55c-.89,0-1.61-.72-1.61-1.61v-4.61c0-.89.72-1.61,1.61-1.61s1.61.72,1.61,1.61v4.61c0,.89-.72,1.61-1.61,1.61ZM151.93,94.33c-.87,0-1.58-.69-1.61-1.56-.05-1.51-.13-3.04-.24-4.53-.07-.89.6-1.66,1.49-1.73.88-.07,1.66.6,1.73,1.49.11,1.54.2,3.11.24,4.67.03.89-.67,1.63-1.56,1.66-.02,0-.03,0-.05,0ZM151.24,85.14c-.81,0-1.5-.6-1.6-1.42-.18-1.5-.4-3.01-.65-4.49-.15-.88.45-1.71,1.32-1.86.88-.15,1.71.45,1.86,1.32.26,1.52.48,3.08.67,4.64.11.88-.52,1.69-1.41,1.79-.07,0-.13.01-.19.01ZM149.71,76.06c-.74,0-1.41-.52-1.57-1.27-.32-1.48-.68-2.96-1.07-4.4-.23-.86.28-1.75,1.14-1.98.86-.23,1.75.28,1.98,1.14.4,1.49.78,3.02,1.11,4.55.19.87-.36,1.73-1.23,1.92-.12.03-.23.04-.34.04ZM147.31,67.16c-.68,0-1.31-.43-1.53-1.11-.47-1.44-.98-2.87-1.51-4.26-.32-.83.1-1.76.93-2.08.83-.32,1.76.1,2.08.93.55,1.44,1.08,2.93,1.57,4.42.28.85-.19,1.76-1.03,2.03-.17.05-.33.08-.5.08ZM144.01,58.56c-.62,0-1.21-.36-1.47-.96-.62-1.38-1.27-2.75-1.96-4.07-.41-.79-.1-1.76.69-2.17.79-.41,1.76-.1,2.17.69.71,1.38,1.4,2.8,2.04,4.23.36.81,0,1.77-.81,2.13-.21.1-.44.14-.66.14ZM139.79,50.38c-.55,0-1.09-.28-1.39-.79-.77-1.3-1.58-2.58-2.41-3.82-.5-.74-.3-1.74.44-2.24.74-.5,1.74-.3,2.24.44.87,1.29,1.71,2.63,2.51,3.98.45.77.2,1.76-.57,2.21-.26.15-.54.22-.82.22ZM134.65,42.74c-.49,0-.97-.22-1.28-.63-.91-1.19-1.87-2.37-2.84-3.49-.58-.67-.51-1.69.16-2.28.67-.58,1.69-.51,2.28.16,1.02,1.17,2.01,2.4,2.96,3.65.54.71.4,1.72-.3,2.26-.29.22-.64.33-.98.33ZM128.63,35.79c-.42,0-.84-.16-1.15-.48-1.05-1.07-2.15-2.12-3.25-3.11-.66-.6-.72-1.62-.12-2.28.59-.66,1.61-.72,2.28-.12,1.16,1.04,2.3,2.14,3.4,3.26.62.64.61,1.66-.02,2.28-.31.31-.72.46-1.13.46ZM121.77,29.64c-.35,0-.7-.11-1-.35-1.18-.93-2.4-1.83-3.63-2.68-.73-.51-.92-1.51-.41-2.24.5-.73,1.51-.92,2.24-.41,1.29.89,2.56,1.83,3.8,2.8.7.55.82,1.57.27,2.27-.32.4-.79.62-1.27.62ZM114.18,24.41c-.28,0-.57-.07-.83-.23-1.28-.76-2.6-1.5-3.94-2.18-.79-.41-1.1-1.38-.7-2.17.41-.79,1.38-1.11,2.17-.7,1.39.72,2.78,1.48,4.12,2.28.76.46,1.01,1.45.56,2.21-.3.51-.84.79-1.39.79ZM105.99,20.2c-.22,0-.43-.04-.64-.14-1.37-.6-2.77-1.16-4.18-1.67-.84-.31-1.27-1.23-.96-2.07.31-.84,1.23-1.27,2.07-.96,1.47.54,2.94,1.12,4.37,1.75.82.36,1.19,1.31.83,2.12-.26.61-.86.97-1.48.97ZM97.35,17.05c-.15,0-.31-.02-.46-.07-1.43-.42-2.89-.81-4.36-1.16-.87-.2-1.41-1.07-1.2-1.94.2-.87,1.07-1.41,1.94-1.2,1.53.36,3.05.76,4.54,1.21.85.25,1.34,1.15,1.09,2.01-.21.7-.85,1.15-1.55,1.15ZM88.39,14.94c-.09,0-.19,0-.28-.02-1.47-.26-2.97-.48-4.47-.66-.88-.11-1.52-.91-1.41-1.79.11-.88.91-1.52,1.79-1.41,1.56.19,3.12.42,4.64.69.88.15,1.46.99,1.31,1.87-.14.78-.82,1.33-1.59,1.33ZM79.24,13.84s-.07,0-.11,0c-1.49-.1-3.01-.16-4.52-.19-.89-.02-1.6-.75-1.58-1.64.02-.88.73-1.59,1.61-1.59,0,0,.02,0,.03,0,1.57.03,3.14.09,4.68.2.89.06,1.56.83,1.5,1.72-.06.85-.77,1.5-1.61,1.5ZM70.01,13.63h-4.62c-.89,0-1.61-.72-1.61-1.61s.72-1.61,1.61-1.61h4.62c.89,0,1.61.72,1.61,1.61s-.72,1.61-1.61,1.61ZM60.77,13.63h-4.62c-.89,0-1.61-.72-1.61-1.61s.72-1.61,1.61-1.61h4.62c.89,0,1.61.72,1.61,1.61s-.72,1.61-1.61,1.61ZM51.54,13.63h-4.62c-.89,0-1.61-.72-1.61-1.61s.72-1.61,1.61-1.61h4.62c.89,0,1.61.72,1.61,1.61s-.72,1.61-1.61,1.61ZM42.31,13.63h-4.62c-.89,0-1.61-.72-1.61-1.61s.72-1.61,1.61-1.61h4.62c.89,0,1.61.72,1.61,1.61s-.72,1.61-1.61,1.61ZM33.07,13.63h-4.62c-.89,0-1.61-.72-1.61-1.61s.72-1.61,1.61-1.61h4.62c.89,0,1.61.72,1.61,1.61s-.72,1.61-1.61,1.61Z"/>
      <path class="cls-2" d="M11.22,220.44c-.89,0-1.61-.72-1.61-1.61v-4.61c0-.89.72-1.61,1.61-1.61s1.61.72,1.61,1.61v4.61c0,.89-.72,1.61-1.61,1.61ZM11.22,211.22c-.89,0-1.61-.72-1.61-1.61v-4.61c0-.89.72-1.61,1.61-1.61s1.61.72,1.61,1.61v4.61c0,.89-.72,1.61-1.61,1.61ZM11.22,202c-.89,0-1.61-.72-1.61-1.61v-4.61c0-.89.72-1.61,1.61-1.61s1.61.72,1.61,1.61v4.61c0,.89-.72,1.61-1.61,1.61ZM11.22,192.78c-.89,0-1.61-.72-1.61-1.61v-4.61c0-.89.72-1.61,1.61-1.61s1.61.72,1.61,1.61v4.61c0,.89-.72,1.61-1.61,1.61ZM11.22,183.56c-.89,0-1.61-.72-1.61-1.61v-4.61c0-.89.72-1.61,1.61-1.61s1.61.72,1.61,1.61v4.61c0,.89-.72,1.61-1.61,1.61ZM11.22,174.34c-.89,0-1.61-.72-1.61-1.61v-4.61c0-.89.72-1.61,1.61-1.61s1.61.72,1.61,1.61v4.61c0,.89-.72,1.61-1.61,1.61ZM11.22,165.13c-.89,0-1.61-.72-1.61-1.61v-4.61c0-.89.72-1.61,1.61-1.61s1.61.72,1.61,1.61v4.61c0,.89-.72,1.61-1.61,1.61ZM11.22,155.91c-.89,0-1.61-.72-1.61-1.61v-4.61c0-.89.72-1.61,1.61-1.61s1.61.72,1.61,1.61v4.61c0,.89-.72,1.61-1.61,1.61ZM11.22,146.69c-.89,0-1.61-.72-1.61-1.61v-4.61c0-.89.72-1.61,1.61-1.61s1.61.72,1.61,1.61v4.61c0,.89-.72,1.61-1.61,1.61ZM11.22,137.47c-.89,0-1.61-.72-1.61-1.61v-4.61c0-.89.72-1.61,1.61-1.61s1.61.72,1.61,1.61v4.61c0,.89-.72,1.61-1.61,1.61ZM11.22,128.25c-.89,0-1.61-.72-1.61-1.61v-4.61c0-.89.72-1.61,1.61-1.61s1.61.72,1.61,1.61v4.61c0,.89-.72,1.61-1.61,1.61ZM11.22,119.03c-.89,0-1.61-.72-1.61-1.61v-4.61c0-.89.72-1.61,1.61-1.61s1.61.72,1.61,1.61v4.61c0,.89-.72,1.61-1.61,1.61ZM11.22,109.81c-.89,0-1.61-.72-1.61-1.61v-4.61c0-.89.72-1.61,1.61-1.61s1.61.72,1.61,1.61v4.61c0,.89-.72,1.61-1.61,1.61ZM11.22,100.6c-.89,0-1.61-.72-1.61-1.61v-4.61c0-.89.72-1.61,1.61-1.61s1.61.72,1.61,1.61v4.61c0,.89-.72,1.61-1.61,1.61ZM11.22,91.38c-.89,0-1.61-.72-1.61-1.61v-4.61c0-.89.72-1.61,1.61-1.61s1.61.72,1.61,1.61v4.61c0,.89-.72,1.61-1.61,1.61ZM11.22,82.16c-.89,0-1.61-.72-1.61-1.61v-4.61c0-.89.72-1.61,1.61-1.61s1.61.72,1.61,1.61v4.61c0,.89-.72,1.61-1.61,1.61ZM11.22,72.94c-.89,0-1.61-.72-1.61-1.61v-4.61c0-.89.72-1.61,1.61-1.61s1.61.72,1.61,1.61v4.61c0,.89-.72,1.61-1.61,1.61ZM11.22,63.72c-.89,0-1.61-.72-1.61-1.61v-4.61c0-.89.72-1.61,1.61-1.61s1.61.72,1.61,1.61v4.61c0,.89-.72,1.61-1.61,1.61ZM11.22,54.5c-.89,0-1.61-.72-1.61-1.61v-4.61c0-.89.72-1.61,1.61-1.61s1.61.72,1.61,1.61v4.61c0,.89-.72,1.61-1.61,1.61ZM11.22,45.29c-.89,0-1.61-.72-1.61-1.61v-4.61c0-.89.72-1.61,1.61-1.61s1.61.72,1.61,1.61v4.61c0,.89-.72,1.61-1.61,1.61ZM11.22,36.07c-.89,0-1.61-.72-1.61-1.61v-4.61c0-.89.72-1.61,1.61-1.61s1.61.72,1.61,1.61v4.61c0,.89-.72,1.61-1.61,1.61ZM11.22,26.85c-.89,0-1.61-.72-1.61-1.61v-4.61c0-.89.72-1.61,1.61-1.61s1.61.72,1.61,1.61v4.61c0,.89-.72,1.61-1.61,1.61Z"/>
      <g>
        <g>
          <path class="cls-3" d="M1.3,11.08c0-5.4,4.38-9.78,9.78-9.78s9.78,4.38,9.78,9.78c0,5.4-4.38,9.78-9.78,9.78S1.3,16.48,1.3,11.08Z"/>
          <path class="cls-2" d="M0,11.08c0,6.11,4.97,11.08,11.08,11.08,6.11,0,11.08-4.97,11.08-11.08C22.16,4.97,17.19,0,11.08,0S0,4.97,0,11.08C0,17.19,0,4.97,0,11.08ZM19.56,11.08c0,4.68-3.8,8.48-8.48,8.48-4.68,0-8.48-3.8-8.48-8.48,0-4.68,3.8-8.48,8.48-8.48s8.48,3.8,8.48,8.48c0,4.68,0-4.68,0,0Z"/>
        </g>
        <polygon class="cls-2" points="5.31 215.06 11.33 217.61 17.35 215.06 11.33 229.33 5.31 215.06"/>
        <polygon class="cls-2" points="38.21 246.11 35.65 240.09 38.21 234.07 23.93 240.09 38.21 246.11"/>
        <path class="cls-4" d="M10.66,16.44v-8.06c-1.5,1.15-2.51,1.73-3.03,1.73-.25,0-.47-.1-.66-.3-.19-.2-.29-.43-.29-.69,0-.3.09-.52.28-.66.19-.14.52-.32,1-.55.71-.34,1.29-.69,1.71-1.06.43-.37.81-.79,1.14-1.25.33-.46.55-.74.65-.85.1-.11.29-.16.57-.16.31,0,.56.12.75.36.19.24.28.58.28,1v10.14c0,1.19-.4,1.78-1.21,1.78-.36,0-.65-.12-.87-.36-.22-.24-.33-.6-.33-1.07Z"/>
        <g>
          <path class="cls-3" d="M25.04,11.08c0-5.4,4.38-9.78,9.78-9.78,5.4,0,9.78,4.38,9.78,9.78,0,5.4-4.38,9.78-9.78,9.78s-9.78-4.38-9.78-9.78Z"/>
          <path class="cls-2" d="M23.74,11.08c0,6.11,4.97,11.08,11.08,11.08s11.08-4.97,11.08-11.08C45.9,4.97,40.93,0,34.82,0s-11.08,4.97-11.08,11.08c0,6.11,0-6.11,0,0ZM43.3,11.08c0,4.68-3.8,8.48-8.48,8.48-4.68,0-8.48-3.8-8.48-8.48,0-4.68,3.8-8.48,8.48-8.48,4.68,0,8.48,3.8,8.48,8.48,0,4.68,0-4.68,0,0Z"/>
        </g>
        <path class="cls-4" d="M33.63,15.3h4.62c.46,0,.81.09,1.05.28.24.19.36.45.36.77,0,.29-.1.53-.29.74-.19.2-.48.3-.87.3h-6.52c-.44,0-.79-.12-1.04-.37-.25-.24-.37-.53-.37-.86,0-.21.08-.49.24-.85.16-.35.33-.63.52-.83.79-.81,1.49-1.51,2.13-2.09.63-.58,1.08-.96,1.35-1.15.48-.34.89-.69,1.21-1.03s.57-.7.74-1.06.25-.72.25-1.07c0-.38-.09-.72-.27-1.01-.18-.3-.43-.53-.74-.69s-.65-.25-1.01-.25c-.77,0-1.38.34-1.82,1.02-.06.09-.16.33-.3.73-.14.4-.3.7-.47.91-.17.21-.43.32-.77.32-.3,0-.54-.1-.74-.29s-.29-.46-.29-.8c0-.41.09-.83.28-1.28.18-.44.46-.84.82-1.2.36-.36.82-.65,1.38-.87.56-.22,1.21-.33,1.96-.33.9,0,1.67.14,2.31.43.41.19.78.45,1.09.78.31.33.56.71.73,1.15.17.43.26.88.26,1.35,0,.73-.18,1.4-.54,2-.36.6-.73,1.07-1.11,1.41-.38.34-1.01.87-1.9,1.6-.89.73-1.5,1.29-1.83,1.69-.14.16-.29.35-.43.58Z"/>
      </g>
      <path class="cls-2" d="M17.09,240.14c0,3.03-2.46,5.49-5.49,5.49s-5.49-2.46-5.49-5.49,2.46-5.49,5.49-5.49,5.49,2.46,5.49,5.49Z"/>
    </g>
  </g>
</svg>