<svg xmlns="http://www.w3.org/2000/svg" id="Layer_2" data-name="Layer 2" viewBox="0 0 82.56 126.71"><defs><style>.cls-1,.cls-2,.cls-3,.cls-4{stroke-width:0}.cls-2{fill:#6f6f6e}.cls-3{fill:#fff}.cls-4{fill:#ff0600}</style></defs><g id="R"><g><g><path d="M20.57,6.81h-1.22c-.47,0-.85-.38-.85-.85s.38-.85.85-.85h1.22c.47,0,.85.38.85.85s-.38.85-.85.85Z" class="cls-2"/><path d="M43.87,80.56c-.39,0-.78,0-1.18,0-.47,0-.85-.39-.85-.86,0-.47.38-.85.85-.85h0c.39,0,.78,0,1.17,0,.37,0,.77-.02,1.21-.07.47-.05.89.29.94.76.05.47-.3.89-.76.94-.5.05-.96.08-1.38.08ZM40.22,80.54h-.01c-.84,0-1.67-.02-2.48-.04-.47,0-.85-.4-.84-.87,0-.47.39-.84.85-.84,0,0,0,0,.01,0,.81.01,1.63.03,2.47.03.47,0,.85.39.84.86,0,.47-.39.85-.85.85ZM35.27,80.45s-.01,0-.02,0c-.89-.02-1.73-.04-2.48-.06-.47-.01-.84-.4-.83-.88.01-.47.41-.85.88-.83.75.02,1.58.04,2.47.06.47.01.85.4.84.87,0,.47-.39.84-.85.84ZM47.61,80.09c-.39,0-.75-.27-.83-.67-.1-.46.19-.92.65-1.02.76-.17,1.54-.37,2.32-.62.45-.14.93.11,1.07.56.14.45-.11.93-.56,1.07-.83.26-1.66.48-2.46.66-.06.01-.12.02-.18.02ZM52.33,78.62c-.34,0-.66-.2-.79-.54-.17-.44.04-.94.48-1.11.74-.3,1.48-.62,2.21-.98.42-.21.94-.03,1.14.39s.03.94-.39,1.14c-.76.37-1.54.72-2.32,1.03-.1.04-.21.06-.32.06ZM56.78,76.46c-.29,0-.58-.15-.74-.43-.24-.41-.1-.93.31-1.17.69-.4,1.38-.83,2.04-1.29.39-.27.92-.17,1.19.22.27.39.17.92-.22,1.19-.69.47-1.42.93-2.15,1.35-.14.08-.28.12-.43.12ZM60.86,73.67c-.25,0-.5-.11-.67-.32-.29-.37-.23-.91.13-1.2.63-.5,1.24-1.03,1.82-1.57.35-.32.89-.3,1.21.04.32.35.3.89-.04,1.21-.62.57-1.26,1.13-1.92,1.66-.16.13-.35.19-.53.19ZM64.48,70.31c-.21,0-.42-.08-.58-.23-.35-.32-.37-.86-.05-1.21.54-.59,1.07-1.2,1.56-1.83.29-.37.83-.43,1.2-.14.37.29.43.83.14,1.2-.52.66-1.08,1.31-1.65,1.93-.17.18-.4.27-.63.27ZM67.55,66.43c-.16,0-.33-.05-.48-.15-.39-.26-.49-.8-.23-1.19.45-.66.87-1.35,1.27-2.04.23-.41.76-.55,1.17-.32.41.23.55.76.32,1.17-.42.73-.87,1.46-1.34,2.15-.17.24-.43.38-.71.38ZM70,62.15c-.12,0-.25-.03-.37-.08-.43-.2-.6-.72-.4-1.14.34-.72.67-1.46.97-2.21.17-.44.67-.65,1.11-.48.44.17.65.67.48,1.11-.31.78-.65,1.56-1.02,2.32-.15.31-.45.48-.77.48ZM71.83,57.57c-.09,0-.18-.01-.26-.04-.45-.15-.69-.63-.55-1.08.24-.75.47-1.54.67-2.32.12-.46.58-.73,1.04-.62.46.12.73.58.62,1.04-.21.82-.45,1.64-.7,2.42-.12.36-.45.59-.81.59ZM73.06,52.78c-.05,0-.11,0-.16-.02-.46-.09-.77-.54-.67-1,.15-.78.29-1.58.4-2.39.07-.47.5-.79.96-.73.47.07.79.5.73.96-.12.84-.26,1.67-.42,2.48-.08.41-.44.69-.84.69ZM73.75,47.89s-.05,0-.08,0c-.47-.04-.82-.46-.78-.93.07-.79.12-1.61.16-2.43.02-.47.41-.84.89-.82.47.02.84.42.82.89-.04.84-.09,1.69-.16,2.5-.04.44-.41.78-.85.78ZM73.96,42.96c-.47,0-.85-.38-.85-.85,0-.81-.03-1.62-.08-2.42-.03-.47.33-.88.8-.91.47-.03.88.33.91.8.05.83.08,1.68.08,2.52,0,.47-.38.86-.85.86h0ZM73.65,38.03c-.42,0-.79-.32-.85-.75-.1-.8-.23-1.6-.38-2.38-.09-.46.21-.91.68-1,.46-.09.91.21,1,.68.16.82.29,1.66.4,2.49.06.47-.27.9-.74.95-.04,0-.07,0-.11,0ZM72.71,33.18c-.38,0-.72-.25-.83-.63-.21-.78-.44-1.55-.7-2.31-.15-.45.08-.93.53-1.09.45-.15.93.08,1.09.53.27.79.52,1.61.74,2.42.12.46-.15.92-.61,1.05-.07.02-.15.03-.22.03ZM71.1,28.51c-.33,0-.65-.19-.79-.52-.31-.74-.66-1.47-1.03-2.18-.22-.42-.05-.93.37-1.15.42-.22.93-.05,1.15.37.39.75.75,1.52,1.08,2.29.19.43-.02.94-.45,1.12-.11.05-.22.07-.34.07ZM68.84,24.13c-.29,0-.57-.15-.73-.41-.42-.68-.86-1.36-1.33-2.01-.27-.38-.19-.92.2-1.19.38-.27.92-.19,1.19.2.49.69.96,1.4,1.4,2.11.25.4.12.93-.28,1.18-.14.08-.29.13-.44.13ZM65.97,20.1c-.25,0-.49-.11-.66-.31-.51-.62-1.05-1.22-1.6-1.81-.32-.34-.31-.88.03-1.21.34-.33.88-.31,1.21.03.58.61,1.15,1.25,1.68,1.89.3.36.25.9-.11,1.2-.16.13-.35.2-.54.2ZM62.57,16.52c-.21,0-.41-.07-.58-.23-.59-.54-1.2-1.07-1.83-1.58-.37-.3-.42-.83-.13-1.2.3-.37.83-.42,1.2-.13.66.53,1.3,1.09,1.91,1.65.35.32.37.86.05,1.21-.17.18-.4.28-.63.28ZM58.72,13.41c-.17,0-.34-.05-.49-.16-.65-.46-1.33-.91-2.02-1.33-.4-.25-.53-.77-.28-1.18.25-.4.77-.53,1.18-.28.72.44,1.43.91,2.11,1.39.39.27.48.81.21,1.19-.17.24-.43.36-.7.36ZM54.51,10.82c-.14,0-.27-.03-.4-.1-.71-.38-1.44-.74-2.17-1.07-.43-.19-.62-.7-.43-1.13.19-.43.7-.62,1.13-.43.76.34,1.52.72,2.27,1.12.42.22.57.74.35,1.16-.15.29-.45.45-.76.45ZM50,8.78c-.1,0-.2-.02-.3-.05-.76-.29-1.53-.54-2.29-.77-.45-.13-.71-.61-.58-1.06.13-.45.61-.71,1.06-.58.8.24,1.61.51,2.4.81.44.17.67.66.5,1.1-.13.34-.45.55-.8.55ZM45.26,7.38c-.06,0-.12,0-.18-.02-.81-.17-1.6-.31-2.36-.4-.47-.06-.8-.48-.75-.95.06-.47.48-.8.95-.75.81.1,1.66.24,2.52.42.46.1.76.55.66,1.01-.09.4-.44.68-.83.68ZM40.35,6.81h-2.47c-.47,0-.85-.38-.85-.85s.38-.85.85-.85h2.47c.47,0,.85.38.85.85s-.38.85-.85.85ZM35.41,6.81h-2.47c-.47,0-.85-.38-.85-.85s.38-.85.85-.85h2.47c.47,0,.85.38.85.85s-.38.85-.85.85ZM30.46,6.81h-2.47c-.47,0-.85-.38-.85-.85s.38-.85.85-.85h2.47c.47,0,.85.38.85.85s-.38.85-.85.85ZM25.52,6.81h-2.47c-.47,0-.85-.38-.85-.85s.38-.85.85-.85h2.47c.47,0,.85.38.85.85s-.38.85-.85.85Z" class="cls-2"/><path d="M30.29,80.33s-.02,0-.03,0c-.77-.02-1.22-.04-1.22-.04-.47-.02-.84-.41-.83-.88.02-.47.41-.84.88-.83,0,0,.45.01,1.22.04.47.01.84.41.83.88-.01.46-.39.83-.85.83Z" class="cls-2"/></g><g><g><path d="M20.34,11.05c-2.86,0-5.18-2.32-5.18-5.18S17.48.69,20.34.69s5.18,2.32,5.18,5.18-2.32,5.18-5.18,5.18Z" class="cls-3"/><path d="M20.34,11.74c3.24,0,5.87-2.63,5.87-5.87S23.58,0,20.34,0s-5.87,2.63-5.87,5.87,2.63,5.87,5.87,5.87-3.24,0,0,0ZM20.34,1.38c2.48,0,4.49,2.01,4.49,4.49s-2.01,4.49-4.49,4.49-4.49-2.01-4.49-4.49,2.01-4.49,4.49-4.49-2.48,0,0,0Z" class="cls-2"/></g><path d="M19.59,8.22h2.45c.24,0,.43.05.56.15.13.1.19.24.19.41,0,.15-.05.28-.15.39-.1.11-.26.16-.46.16h-3.45c-.23,0-.42-.06-.55-.19-.13-.13-.2-.28-.2-.46,0-.11.04-.26.13-.45.08-.19.18-.33.28-.44.42-.43.79-.8,1.13-1.11.33-.31.57-.51.72-.61.26-.18.47-.36.64-.55s.3-.37.39-.56c.09-.19.13-.38.13-.57,0-.2-.05-.38-.14-.54-.1-.16-.23-.28-.39-.37s-.34-.13-.54-.13c-.41,0-.73.18-.97.54-.03.05-.08.17-.16.38-.07.21-.16.37-.25.48-.09.11-.23.17-.41.17-.16,0-.29-.05-.39-.15-.1-.1-.15-.24-.15-.42,0-.22.05-.44.15-.68.1-.23.24-.45.43-.64.19-.19.44-.34.73-.46.3-.12.64-.18,1.04-.18.48,0,.89.08,1.22.23.22.1.41.24.58.41.17.18.3.38.39.61.09.23.14.47.14.72,0,.39-.1.74-.29,1.06-.19.32-.39.57-.59.75-.2.18-.54.46-1.01.85-.47.38-.79.68-.97.9-.08.08-.15.19-.23.31Z" class="cls-4"/></g><g><path d="M5.95,116.7c-.47,0-.85-.38-.85-.85v-2.22c0-.47.38-.85.85-.85s.85.38.85.85v2.22c0,.47-.38.85-.85.85ZM5.95,112.04c-.47,0-.85-.38-.85-.85v-2.44c0-.47.38-.85.85-.85s.85.38.85.85v2.44c0,.47-.38.85-.85.85ZM5.95,107.15c-.47,0-.85-.38-.85-.85v-2.44c0-.47.38-.85.85-.85s.85.38.85.85v2.44c0,.47-.38.85-.85.85ZM5.95,102.27c-.47,0-.85-.38-.85-.85v-2.44c0-.47.38-.85.85-.85s.85.38.85.85v2.44c0,.47-.38.85-.85.85ZM5.95,97.39c-.47,0-.85-.38-.85-.85v-2.44c0-.47.38-.85.85-.85s.85.38.85.85v2.44c0,.47-.38.85-.85.85ZM5.95,92.5c-.47,0-.85-.38-.85-.85v-2.44c0-.47.38-.85.85-.85s.85.38.85.85v2.44c0,.47-.38.85-.85.85ZM5.95,87.62c-.47,0-.85-.38-.85-.85v-2.44c0-.47.38-.85.85-.85s.85.38.85.85v2.44c0,.47-.38.85-.85.85ZM5.95,82.73c-.47,0-.85-.38-.85-.85v-2.44c0-.47.38-.85.85-.85s.85.38.85.85v2.44c0,.47-.38.85-.85.85ZM5.95,77.85c-.47,0-.85-.38-.85-.85v-2.44c0-.47.38-.85.85-.85s.85.38.85.85v2.44c0,.47-.38.85-.85.85ZM5.95,72.97c-.47,0-.85-.38-.85-.85v-2.44c0-.47.38-.85.85-.85s.85.38.85.85v2.44c0,.47-.38.85-.85.85ZM5.95,68.08c-.47,0-.85-.38-.85-.85v-2.44c0-.47.38-.85.85-.85s.85.38.85.85v2.44c0,.47-.38.85-.85.85ZM5.95,63.2c-.47,0-.85-.38-.85-.85v-2.44c0-.47.38-.85.85-.85s.85.38.85.85v2.44c0,.47-.38.85-.85.85ZM5.95,58.31c-.47,0-.85-.38-.85-.85v-2.44c0-.47.38-.85.85-.85s.85.38.85.85v2.44c0,.47-.38.85-.85.85ZM5.95,53.43c-.47,0-.85-.38-.85-.85v-2.44c0-.47.38-.85.85-.85s.85.38.85.85v2.44c0,.47-.38.85-.85.85ZM5.95,48.55c-.47,0-.85-.38-.85-.85v-2.44c0-.47.38-.85.85-.85s.85.38.85.85v2.44c0,.47-.38.85-.85.85ZM5.95,43.66c-.47,0-.85-.38-.85-.85v-2.44c0-.47.38-.85.85-.85s.85.38.85.85v2.44c0,.47-.38.85-.85.85ZM5.95,38.78c-.47,0-.85-.38-.85-.85v-2.44c0-.47.38-.85.85-.85s.85.38.85.85v2.44c0,.47-.38.85-.85.85ZM5.95,33.9c-.47,0-.85-.38-.85-.85v-2.44c0-.47.38-.85.85-.85s.85.38.85.85v2.44c0,.47-.38.85-.85.85ZM5.95,29.01c-.47,0-.85-.38-.85-.85v-2.44c0-.47.38-.85.85-.85s.85.38.85.85v2.44c0,.47-.38.85-.85.85ZM5.95,24.13c-.47,0-.85-.38-.85-.85v-2.44c0-.47.38-.85.85-.85s.85.38.85.85v2.44c0,.47-.38.85-.85.85ZM5.95,19.24c-.47,0-.85-.38-.85-.85v-2.44c0-.47.38-.85.85-.85s.85.38.85.85v2.44c0,.47-.38.85-.85.85ZM5.95,14.36c-.47,0-.85-.38-.85-.85v-2.44c0-.47.38-.85.85-.85s.85.38.85.85v2.44c0,.47-.38.85-.85.85Z" class="cls-2"/><g><path d="M.69,6.01c0-2.86,2.32-5.18,5.18-5.18,2.86,0,5.18,2.32,5.18,5.18,0,2.86-2.32,5.18-5.18,5.18-2.86,0-5.18-2.32-5.18-5.18Z" class="cls-3"/><path d="M0,6.01c0,3.24,2.63,5.87,5.87,5.87,3.24,0,5.87-2.63,5.87-5.87,0-3.24-2.63-5.87-5.87-5.87C2.63.14,0,2.77,0,6.01,0,9.24,0,2.77,0,6.01ZM10.36,6c0,2.48-2.01,4.49-4.49,4.49-2.48,0-4.49-2.01-4.49-4.49,0-2.48,2.01-4.49,4.49-4.49s4.49,2.01,4.49,4.49c0,2.48,0-2.48,0,0Z" class="cls-2"/></g><polygon points="2.81 112.44 6 113.8 9.19 112.44 6 120.01 2.81 112.44" class="cls-2"/><path d="M5.65,8.84v-4.27c-.79.61-1.33.92-1.6.92-.13,0-.25-.05-.35-.16-.1-.11-.15-.23-.15-.36,0-.16.05-.28.15-.35.1-.08.28-.17.53-.29.38-.18.68-.37.91-.56.23-.2.43-.42.6-.66.17-.24.29-.39.34-.45.05-.06.15-.08.3-.08.17,0,.3.06.4.19.1.13.15.31.15.53v5.37c0,.63-.21.94-.64.94-.19,0-.34-.06-.46-.19-.12-.13-.17-.32-.17-.57Z" class="cls-4"/><circle cx="5.9" cy="123.78" r="2.91" class="cls-2"/></g><g><polygon points="30.47 76.11 29.17 79.32 30.58 82.49 22.97 79.42 30.47 76.11" class="cls-2"/><path d="M15.9,79.62c0,1.61,1.3,2.91,2.91,2.91s2.91-1.3,2.91-2.91-1.3-2.91-2.91-2.91-2.91,1.3-2.91,2.91Z" class="cls-2"/></g><g><path d="M12.71,126.71c-.81,0-1.47-.66-1.47-1.47V14.75c0-.81.66-1.47,1.47-1.47s1.47.66,1.47,1.47v110.5c0,.81-.66,1.47-1.47,1.47Z" class="cls-1"/><path d="M41.12,73.35H12.75c-.81,0-1.47-.66-1.47-1.47s.66-1.47,1.47-1.47h28.37c12.77,0,23.16-11.61,23.16-25.89v-2.44c0-14.27-10.39-25.89-23.16-25.89H13.27c-.81,0-1.47-.66-1.47-1.47s.66-1.47,1.47-1.47h27.85c14.39,0,26.09,12.93,26.09,28.82v2.44c0,15.89-11.7,28.82-26.09,28.82Z" class="cls-1"/><path d="M71.27,125.86c-.5,0-.98-.25-1.26-.71l-31.26-52.26c-.42-.69-.19-1.59.51-2.01.69-.42,1.59-.19,2.01.51l31.26,52.26c.42.69.19,1.59-.51,2.01-.24.14-.49.21-.75.21Z" class="cls-1"/></g><g><path d="M75.91,117.19c-.29,0-.57-.15-.73-.42l-.6-1.01c-.24-.41-.11-.93.3-1.17.41-.24.93-.11,1.17.3l.6,1.01c.24.41.11.93-.3,1.17-.14.08-.29.12-.44.12ZM74.06,114.08c-.29,0-.57-.15-.73-.42l-1.25-2.1c-.24-.41-.11-.93.3-1.17.41-.24.93-.11,1.17.3l1.25,2.1c.24.41.11.93-.3,1.17-.14.08-.29.12-.44.12ZM71.56,109.89c-.29,0-.57-.15-.73-.42l-1.25-2.1c-.24-.41-.11-.93.3-1.17.41-.24.93-.11,1.17.3l1.25,2.1c.24.41.11.93-.3,1.17-.14.08-.29.12-.44.12ZM69.05,105.7c-.29,0-.57-.15-.73-.42l-1.25-2.1c-.24-.41-.11-.93.3-1.17.41-.24.93-.11,1.17.3l1.25,2.1c.24.41.11.93-.3,1.17-.14.08-.29.12-.44.12ZM66.55,101.5c-.29,0-.57-.15-.73-.42l-1.25-2.1c-.24-.41-.11-.93.3-1.17.41-.24.93-.11,1.17.3l1.25,2.1c.24.41.11.93-.3,1.17-.14.08-.29.12-.44.12ZM64.04,97.31c-.29,0-.57-.15-.73-.42l-1.25-2.1c-.24-.41-.11-.93.3-1.17.41-.24.93-.11,1.17.3l1.25,2.1c.24.41.11.93-.3,1.17-.14.08-.29.12-.44.12ZM61.54,93.12c-.29,0-.57-.15-.73-.42l-1.25-2.1c-.24-.41-.11-.93.3-1.17.41-.24.93-.11,1.17.3l1.25,2.1c.24.41.11.93-.3,1.17-.14.08-.29.12-.44.12ZM59.04,88.92c-.29,0-.57-.15-.73-.42l-1.25-2.1c-.24-.41-.11-.93.3-1.17.41-.24.93-.11,1.17.3l1.25,2.1c.24.41.11.93-.3,1.17-.14.08-.29.12-.44.12ZM56.53,84.73c-.29,0-.57-.15-.73-.42l-1.25-2.1c-.24-.41-.11-.93.3-1.17.41-.24.93-.11,1.17.3l1.25,2.1c.24.41.11.93-.3,1.17-.14.08-.29.12-.44.12Z" class="cls-2"/><g><path d="M58.28,89.79c-2.85.3-5.39-1.77-5.69-4.62-.3-2.85,1.77-5.39,4.62-5.69s5.39,1.77,5.69,4.62c.3,2.85-1.77,5.39-4.62,5.69Z" class="cls-3"/><path d="M58.35,90.48c3.22-.33,5.57-3.23,5.23-6.45-.34-3.22-3.23-5.57-6.45-5.23-3.22.34-5.57,3.23-5.23,6.45.34,3.22,3.23,5.57,6.45,5.23,3.22-.33-3.22.34,0,0ZM57.28,80.17c2.46-.26,4.68,1.54,4.93,4,.26,2.46-1.54,4.68-4,4.93-2.46.26-4.68-1.54-4.93-4-.26-2.46,1.54-4.68,4-4.93,2.46-.26-2.46.26,0,0Z" class="cls-2"/></g><polygon points="71.62 114.9 75.06 114.52 77.18 111.78 78.1 119.94 71.62 114.9" class="cls-2"/><path d="M57.68,83.83c.29,0,.54-.07.75-.23.21-.16.32-.4.33-.72,0-.24-.07-.45-.23-.63-.16-.18-.38-.27-.66-.28-.19,0-.35.02-.47.07-.12.05-.22.12-.3.2-.07.09-.15.2-.21.33s-.13.26-.19.38c-.03.06-.09.11-.17.15-.08.04-.18.05-.28.05-.13,0-.24-.06-.34-.16-.1-.1-.15-.24-.15-.41,0-.16.06-.33.16-.51.1-.18.25-.34.45-.5.19-.16.43-.28.72-.37.28-.09.6-.13.95-.12.3,0,.58.06.83.15.25.09.46.22.64.38.18.16.31.35.4.56.09.21.13.43.12.67,0,.31-.08.58-.23.8-.14.22-.34.43-.6.64.24.14.44.29.6.47.16.17.28.36.36.57.08.21.11.43.11.67,0,.28-.07.56-.19.82-.12.26-.3.49-.52.7-.23.2-.5.36-.8.47-.31.11-.65.16-1.02.15-.38-.01-.71-.09-1-.23-.29-.14-.53-.32-.72-.53-.19-.21-.33-.42-.42-.64-.09-.22-.14-.4-.13-.54,0-.18.07-.33.19-.43.12-.11.27-.16.44-.15.09,0,.17.03.25.08.08.05.13.12.15.19.15.44.32.77.5.98.18.22.44.33.78.34.19,0,.38-.04.56-.13.18-.09.34-.23.46-.41.12-.18.19-.4.19-.65.01-.37-.08-.66-.28-.87-.19-.21-.47-.33-.83-.34-.06,0-.16,0-.29.01-.13,0-.22.01-.25.01-.17,0-.3-.05-.39-.14-.09-.09-.14-.21-.13-.36,0-.15.06-.27.18-.36.11-.09.28-.13.51-.12h.19Z" class="cls-4"/></g><path d="M82.56,123.05c0,1.61-1.3,2.91-2.91,2.91s-2.91-1.3-2.91-2.91,1.3-2.91,2.91-2.91,2.91,1.3,2.91,2.91Z" class="cls-2"/></g></g></svg>