<?xml version="1.0" encoding="UTF-8"?>
<svg id="Layer_2" data-name="Layer 2" xmlns="http://www.w3.org/2000/svg" viewBox="0 0 79.37 95.58">
  <defs>
    <style>
      .cls-1, .cls-2, .cls-3, .cls-4 {
        stroke-width: 0px;
      }

      .cls-2 {
        fill: #6f6f6e;
      }

      .cls-3 {
        fill: #fff;
      }

      .cls-4 {
        fill: #ff0600;
      }
    </style>
  </defs>
  <g id="Y">
    <g>
      <g>
        <path class="cls-1" d="M44.83,60.81c-.53,0-1.04-.29-1.3-.79L13.5,2.39c-.37-.72-.1-1.6.62-1.98.72-.37,1.6-.1,1.98.62l30.04,57.63c.37.72.1,1.6-.62,1.98-.22.11-.45.17-.68.17Z"/>
        <path class="cls-1" d="M33.35,94.51c-.16,0-.33-.03-.49-.08-.76-.27-1.16-1.11-.9-1.87L64.21.98c.27-.76,1.11-1.16,1.87-.9.76.27,1.16,1.11.9,1.87l-32.23,91.57c-.21.6-.78.98-1.38.98Z"/>
      </g>
      <g>
        <g>
          <path class="cls-2" d="M44.12,85.31c-.1,0-.2-.02-.29-.05-.44-.16-.67-.65-.51-1.1l.83-2.3c.16-.44.65-.67,1.1-.51.44.16.67.65.51,1.1l-.83,2.3c-.13.35-.45.56-.8.56ZM45.79,80.72c-.1,0-.2-.02-.29-.05-.44-.16-.67-.65-.51-1.1l.83-2.3c.16-.44.65-.67,1.09-.51.44.16.67.65.51,1.1l-.83,2.3c-.13.35-.45.56-.8.56ZM47.46,76.13c-.1,0-.2-.02-.29-.05-.44-.16-.67-.65-.51-1.1l.83-2.3c.16-.44.65-.67,1.1-.51.44.16.67.65.51,1.1l-.83,2.3c-.13.35-.45.56-.8.56ZM49.12,71.54c-.1,0-.2-.02-.29-.05-.44-.16-.67-.65-.51-1.09l.83-2.3c.16-.44.65-.67,1.09-.51.44.16.67.65.51,1.1l-.83,2.3c-.13.35-.45.56-.8.56ZM50.79,66.95c-.1,0-.2-.02-.29-.05-.44-.16-.67-.65-.51-1.1l.83-2.3c.16-.44.65-.67,1.1-.51.44.16.67.65.51,1.09l-.83,2.3c-.13.35-.45.56-.8.56ZM52.45,62.35c-.1,0-.2-.02-.29-.05-.44-.16-.67-.65-.51-1.1l.83-2.3c.16-.44.65-.67,1.1-.51.44.16.67.65.51,1.1l-.83,2.3c-.13.35-.45.56-.8.56ZM54.12,57.76c-.1,0-.2-.02-.29-.05-.44-.16-.67-.65-.51-1.1l.83-2.3c.16-.44.65-.67,1.09-.51.44.16.67.65.51,1.1l-.83,2.3c-.13.35-.45.56-.8.56ZM55.79,53.17c-.1,0-.2-.02-.29-.05-.44-.16-.67-.65-.51-1.1l.83-2.3c.16-.44.65-.67,1.1-.51.44.16.67.65.51,1.1l-.83,2.3c-.13.35-.45.56-.8.56ZM57.45,48.58c-.1,0-.2-.02-.29-.05-.44-.16-.67-.65-.51-1.09l.83-2.3c.16-.44.65-.67,1.1-.51.44.16.67.65.51,1.1l-.83,2.3c-.13.35-.45.56-.8.56ZM59.12,43.99c-.1,0-.2-.02-.29-.05-.44-.16-.67-.65-.51-1.1l.83-2.3c.16-.44.65-.67,1.09-.51.44.16.67.65.51,1.1l-.83,2.3c-.13.35-.45.56-.8.56ZM60.79,39.4c-.1,0-.2-.02-.29-.05-.44-.16-.67-.65-.51-1.1l.83-2.3c.16-.44.65-.67,1.1-.51.44.16.67.65.51,1.1l-.83,2.3c-.13.35-.45.56-.8.56ZM62.45,34.81c-.1,0-.2-.02-.29-.05-.44-.16-.67-.65-.51-1.1l.83-2.3c.16-.44.65-.67,1.1-.51.44.16.67.65.51,1.1l-.83,2.3c-.13.35-.45.56-.8.56ZM64.12,30.22c-.1,0-.2-.02-.29-.05-.44-.16-.67-.65-.51-1.1l.83-2.3c.16-.44.65-.67,1.09-.51.44.16.67.65.51,1.1l-.83,2.3c-.13.35-.45.56-.8.56ZM65.78,25.63c-.1,0-.2-.02-.29-.05-.44-.16-.67-.65-.51-1.1l.83-2.3c.16-.44.65-.67,1.1-.51.44.16.67.65.51,1.1l-.83,2.3c-.13.35-.45.56-.8.56ZM67.45,21.04c-.1,0-.2-.02-.29-.05-.44-.16-.67-.65-.51-1.09l.83-2.3c.16-.44.65-.67,1.1-.51.44.16.67.65.51,1.1l-.83,2.3c-.13.35-.45.56-.8.56ZM69.12,16.44c-.1,0-.2-.02-.29-.05-.44-.16-.67-.65-.51-1.1l.83-2.3c.16-.44.65-.67,1.09-.51.44.16.67.65.51,1.1l-.83,2.3c-.13.35-.45.56-.8.56ZM70.78,11.85c-.1,0-.2-.02-.29-.05-.44-.16-.67-.65-.51-1.1l.83-2.3c.16-.44.65-.67,1.1-.51.44.16.67.65.51,1.1l-.83,2.3c-.13.35-.45.56-.8.56Z"/>
          <g>
            <g>
              <path class="cls-3" d="M73.52,11.87c-2.86.01-5.19-2.3-5.2-5.16-.01-2.86,2.3-5.19,5.16-5.2,2.86-.01,5.19,2.3,5.2,5.16.01,2.86-2.3,5.19-5.16,5.2Z"/>
              <path class="cls-2" d="M73.53,12.56c3.24-.01,5.86-2.66,5.84-5.9-.01-3.24-2.66-5.86-5.9-5.84-3.24.01-5.86,2.66-5.84,5.9.01,3.24,2.66,5.86,5.9,5.84,3.24-.01-3.24.01,0,0ZM73.48,2.19c2.48-.01,4.5,2,4.51,4.47.01,2.48-1.99,4.5-4.47,4.51-2.48.01-4.5-1.99-4.51-4.47-.01-2.48,1.99-4.5,4.47-4.51,2.48-.01-2.48.01,0,0Z"/>
            </g>
            <path class="cls-4" d="M72.89,8.9l2.45-.04c.24,0,.43.04.56.14.13.1.2.23.2.4,0,.15-.05.28-.15.39-.1.11-.25.16-.46.17l-3.45.06c-.23,0-.42-.06-.55-.18-.13-.13-.2-.28-.21-.45,0-.11.04-.26.12-.45.08-.19.17-.34.27-.44.41-.44.78-.82,1.11-1.13.33-.31.56-.52.71-.62.25-.19.46-.37.63-.56.17-.19.29-.38.38-.57s.13-.38.12-.57c0-.2-.05-.38-.15-.53-.1-.16-.23-.28-.4-.36-.17-.08-.35-.13-.54-.12-.41,0-.73.19-.96.56-.03.05-.08.18-.15.39-.07.21-.15.37-.24.49-.09.11-.22.17-.4.18-.16,0-.29-.05-.39-.15s-.16-.24-.16-.42c0-.22.04-.44.13-.68.09-.24.23-.45.42-.65.19-.19.43-.35.72-.48s.64-.19,1.04-.19c.48,0,.89.06,1.23.2.22.1.42.23.58.4.17.17.3.37.4.6.1.23.15.47.15.71,0,.39-.08.74-.27,1.06-.19.32-.38.57-.58.76-.2.18-.53.47-.99.87-.46.39-.78.7-.95.91-.07.09-.15.19-.22.31Z"/>
          </g>
        </g>
        <polygon class="cls-2" points="48.05 82.8 44.58 82.95 42.07 80.56 42.4 88.76 48.05 82.8"/>
        <path class="cls-2" d="M38.32,91.65c-.56,1.5.2,3.18,1.7,3.74s3.18-.2,3.74-1.7-.2-3.18-1.7-3.74c-1.5-.56-3.18.2-3.74,1.7Z"/>
      </g>
      <g>
        <path class="cls-2" d="M33.81,55.59c-.3,0-.58-.15-.74-.43l-.87-1.51c-.24-.41-.1-.93.31-1.17.41-.24.93-.1,1.17.31l.87,1.51c.24.41.1.93-.31,1.17-.13.08-.28.11-.43.11ZM31.72,51.97c-.3,0-.58-.15-.74-.43l-1.22-2.12c-.24-.41-.1-.93.31-1.17.41-.24.93-.1,1.17.31l1.22,2.12c.24.41.1.93-.31,1.17-.13.08-.28.11-.43.11ZM29.29,47.74c-.3,0-.58-.15-.74-.43l-1.22-2.12c-.24-.41-.1-.93.31-1.17.41-.24.93-.1,1.17.31l1.22,2.12c.24.41.1.93-.31,1.17-.13.08-.28.11-.43.11ZM26.85,43.5c-.3,0-.58-.15-.74-.43l-1.22-2.12c-.24-.41-.1-.93.31-1.17.41-.24.93-.1,1.17.31l1.22,2.12c.24.41.1.93-.31,1.17-.13.08-.28.11-.43.11ZM24.41,39.27c-.3,0-.58-.15-.74-.43l-1.22-2.12c-.24-.41-.1-.93.31-1.17.41-.24.93-.1,1.17.31l1.22,2.12c.24.41.1.93-.31,1.17-.13.08-.28.11-.43.11ZM21.97,35.04c-.3,0-.58-.15-.74-.43l-1.22-2.12c-.24-.41-.1-.93.31-1.17.41-.24.93-.1,1.17.31l1.22,2.12c.24.41.1.93-.31,1.17-.13.08-.28.11-.43.11ZM19.53,30.81c-.3,0-.58-.15-.74-.43l-1.22-2.12c-.24-.41-.1-.93.31-1.17.41-.24.93-.1,1.17.31l1.22,2.12c.24.41.1.93-.31,1.17-.13.08-.28.11-.43.11ZM17.09,26.58c-.3,0-.58-.15-.74-.43l-1.22-2.12c-.24-.41-.1-.93.31-1.17.41-.24.93-.1,1.17.31l1.22,2.12c.24.41.1.93-.31,1.17-.13.08-.28.11-.43.11ZM14.65,22.35c-.3,0-.58-.15-.74-.43l-1.22-2.12c-.24-.41-.1-.93.31-1.17.41-.24.93-.1,1.17.31l1.22,2.12c.24.41.1.93-.31,1.17-.13.08-.28.11-.43.11ZM12.21,18.11c-.3,0-.58-.15-.74-.43l-1.22-2.12c-.24-.41-.1-.93.31-1.17.41-.24.93-.1,1.17.31l1.22,2.12c.24.41.1.93-.31,1.17-.13.08-.28.11-.43.11ZM9.78,13.88c-.3,0-.58-.15-.74-.43l-1.22-2.12c-.24-.41-.1-.93.31-1.17.41-.24.93-.1,1.17.31l1.22,2.12c.24.41.1.93-.31,1.17-.13.08-.28.11-.43.11Z"/>
        <g>
          <path class="cls-3" d="M1.44,9.31C-.04,6.87.74,3.68,3.18,2.2c2.45-1.48,5.63-.7,7.12,1.74,1.48,2.45.7,5.63-1.74,7.12s-5.63.7-7.12-1.74Z"/>
          <path class="cls-2" d="M.85,9.67c1.68,2.77,5.3,3.65,8.06,1.97s3.65-5.3,1.97-8.06C9.21.81,5.59-.07,2.82,1.61S-.83,6.9.85,9.67s-1.68-2.77,0,0ZM9.71,4.3c1.28,2.12.61,4.89-1.51,6.17-2.12,1.29-4.89.61-6.17-1.51-1.29-2.12-.61-4.89,1.51-6.17,2.12-1.29,4.89-.61,6.17,1.51,1.28,2.12-1.29-2.12,0,0Z"/>
        </g>
        <polygon class="cls-2" points="28.41 51.47 31.86 51.13 34.01 48.42 34.82 56.59 28.41 51.47"/>
        <path class="cls-4" d="M5.83,9.4v-4.27c-.8.61-1.33.92-1.61.92-.13,0-.25-.05-.35-.16-.1-.1-.15-.23-.15-.36,0-.16.05-.28.15-.35.1-.08.28-.17.53-.29.38-.18.68-.37.91-.56.23-.2.43-.42.6-.66.17-.24.29-.39.34-.45.05-.06.15-.08.3-.08.17,0,.3.06.4.19.1.13.15.3.15.53v5.37c0,.63-.21.94-.63.94-.19,0-.34-.06-.46-.19-.12-.13-.17-.32-.17-.57Z"/>
        <path class="cls-2" d="M39.75,60.21c.42-1.55-.5-3.15-2.05-3.57-1.55-.42-3.15.5-3.57,2.05s.5,3.15,2.05,3.57c1.55.42,3.15-.5,3.57-2.05Z"/>
      </g>
    </g>
  </g>
</svg>