<?xml version="1.0" encoding="UTF-8"?>
<svg id="Layer_2" data-name="Layer 2" xmlns="http://www.w3.org/2000/svg" viewBox="0 0 89.33 113.95">
  <defs>
    <style>
      .cls-1, .cls-2, .cls-3, .cls-4 {
        stroke-width: 0px;
      }

      .cls-2 {
        fill: #6f6f6e;
      }

      .cls-3 {
        fill: #fff;
      }

      .cls-4 {
        fill: #ff0600;
      }
    </style>
  </defs>
  <g id="N">
    <g>
      <g>
        <path class="cls-1" d="M14.38,113.95c-.81,0-1.47-.66-1.47-1.47V2.49c0-.81.66-1.47,1.47-1.47s1.47.66,1.47,1.47v109.99c0,.81-.66,1.47-1.47,1.47Z"/>
        <path class="cls-1" d="M74.45,113.43c-.52,0-1.02-.27-1.29-.76L13.09,3.2c-.39-.71-.13-1.6.58-1.99.71-.39,1.6-.13,1.99.58l60.07,109.48c.39.71.13,1.6-.58,1.99-.22.12-.47.18-.7.18Z"/>
        <path class="cls-1" d="M74.96,113.95c-.81,0-1.47-.66-1.47-1.47V2.49c0-.81.66-1.47,1.47-1.47s1.47.66,1.47,1.47v109.99c0,.81-.66,1.47-1.47,1.47Z"/>
      </g>
      <g>
        <path class="cls-2" d="M5.95,105.94c-.47,0-.85-.38-.85-.85v-1.12c0-.47.38-.85.85-.85s.85.38.85.85v1.12c0,.47-.38.85-.85.85ZM5.95,102.38c-.47,0-.85-.38-.85-.85v-2.44c0-.47.38-.85.85-.85s.85.38.85.85v2.44c0,.47-.38.85-.85.85ZM5.95,97.5c-.47,0-.85-.38-.85-.85v-2.44c0-.47.38-.85.85-.85s.85.38.85.85v2.44c0,.47-.38.85-.85.85ZM5.95,92.61c-.47,0-.85-.38-.85-.85v-2.44c0-.47.38-.85.85-.85s.85.38.85.85v2.44c0,.47-.38.85-.85.85ZM5.95,87.73c-.47,0-.85-.38-.85-.85v-2.44c0-.47.38-.85.85-.85s.85.38.85.85v2.44c0,.47-.38.85-.85.85ZM5.95,82.84c-.47,0-.85-.38-.85-.85v-2.44c0-.47.38-.85.85-.85s.85.38.85.85v2.44c0,.47-.38.85-.85.85ZM5.95,77.96c-.47,0-.85-.38-.85-.85v-2.44c0-.47.38-.85.85-.85s.85.38.85.85v2.44c0,.47-.38.85-.85.85ZM5.95,73.08c-.47,0-.85-.38-.85-.85v-2.44c0-.47.38-.85.85-.85s.85.38.85.85v2.44c0,.47-.38.85-.85.85ZM5.95,68.19c-.47,0-.85-.38-.85-.85v-2.44c0-.47.38-.85.85-.85s.85.38.85.85v2.44c0,.47-.38.85-.85.85ZM5.95,63.31c-.47,0-.85-.38-.85-.85v-2.44c0-.47.38-.85.85-.85s.85.38.85.85v2.44c0,.47-.38.85-.85.85ZM5.95,58.42c-.47,0-.85-.38-.85-.85v-2.44c0-.47.38-.85.85-.85s.85.38.85.85v2.44c0,.47-.38.85-.85.85ZM5.95,53.54c-.47,0-.85-.38-.85-.85v-2.44c0-.47.38-.85.85-.85s.85.38.85.85v2.44c0,.47-.38.85-.85.85ZM5.95,48.66c-.47,0-.85-.38-.85-.85v-2.44c0-.47.38-.85.85-.85s.85.38.85.85v2.44c0,.47-.38.85-.85.85ZM5.95,43.77c-.47,0-.85-.38-.85-.85v-2.44c0-.47.38-.85.85-.85s.85.38.85.85v2.44c0,.47-.38.85-.85.85ZM5.95,38.89c-.47,0-.85-.38-.85-.85v-2.44c0-.47.38-.85.85-.85s.85.38.85.85v2.44c0,.47-.38.85-.85.85ZM5.95,34c-.47,0-.85-.38-.85-.85v-2.44c0-.47.38-.85.85-.85s.85.38.85.85v2.44c0,.47-.38.85-.85.85ZM5.95,29.12c-.47,0-.85-.38-.85-.85v-2.44c0-.47.38-.85.85-.85s.85.38.85.85v2.44c0,.47-.38.85-.85.85ZM5.95,24.24c-.47,0-.85-.38-.85-.85v-2.44c0-.47.38-.85.85-.85s.85.38.85.85v2.44c0,.47-.38.85-.85.85ZM5.95,19.35c-.47,0-.85-.38-.85-.85v-2.44c0-.47.38-.85.85-.85s.85.38.85.85v2.44c0,.47-.38.85-.85.85ZM5.95,14.47c-.47,0-.85-.38-.85-.85v-2.44c0-.47.38-.85.85-.85s.85.38.85.85v2.44c0,.47-.38.85-.85.85Z"/>
        <g>
          <path class="cls-3" d="M.69,5.87c0-2.86,2.32-5.18,5.18-5.18,2.86,0,5.18,2.32,5.18,5.18,0,2.86-2.32,5.18-5.18,5.18-2.86,0-5.18-2.32-5.18-5.18Z"/>
          <path class="cls-2" d="M0,5.87c0,3.24,2.63,5.87,5.87,5.87,3.24,0,5.87-2.63,5.87-5.87C11.74,2.63,9.11,0,5.87,0,2.63,0,0,2.63,0,5.87S0,2.63,0,5.87ZM10.36,5.87c0,2.48-2.01,4.49-4.49,4.49-2.48,0-4.49-2.01-4.49-4.49,0-2.48,2.01-4.49,4.49-4.49,2.48,0,4.49,2.01,4.49,4.49,0,2.48,0-2.48,0,0Z"/>
        </g>
        <polygon class="cls-2" points="2.81 99.37 6 100.72 9.19 99.37 6 106.93 2.81 99.37"/>
        <path class="cls-4" d="M5.65,8.71v-4.27c-.79.61-1.33.91-1.6.91-.13,0-.25-.05-.35-.16-.1-.11-.15-.23-.15-.36,0-.16.05-.28.15-.35.1-.08.28-.17.53-.29.38-.18.68-.37.91-.56.23-.2.43-.42.6-.66.17-.24.29-.39.34-.45.05-.06.15-.08.3-.08.17,0,.3.06.4.19.1.13.15.31.15.53v5.37c0,.63-.21.94-.64.94-.19,0-.34-.06-.46-.19-.12-.13-.17-.32-.17-.57Z"/>
        <circle class="cls-2" cx="5.9" cy="110.7" r="2.91"/>
      </g>
      <g>
        <path class="cls-2" d="M83.54,102.38c-.47,0-.85-.38-.85-.85v-2.44c0-.47.38-.85.85-.85s.85.38.85.85v2.44c0,.47-.38.85-.85.85ZM83.54,97.5c-.47,0-.85-.38-.85-.85v-2.44c0-.47.38-.85.85-.85s.85.38.85.85v2.44c0,.47-.38.85-.85.85ZM83.54,92.61c-.47,0-.85-.38-.85-.85v-2.44c0-.47.38-.85.85-.85s.85.38.85.85v2.44c0,.47-.38.85-.85.85ZM83.54,87.73c-.47,0-.85-.38-.85-.85v-2.44c0-.47.38-.85.85-.85s.85.38.85.85v2.44c0,.47-.38.85-.85.85ZM83.54,82.84c-.47,0-.85-.38-.85-.85v-2.44c0-.47.38-.85.85-.85s.85.38.85.85v2.44c0,.47-.38.85-.85.85ZM83.54,77.96c-.47,0-.85-.38-.85-.85v-2.44c0-.47.38-.85.85-.85s.85.38.85.85v2.44c0,.47-.38.85-.85.85ZM83.54,73.08c-.47,0-.85-.38-.85-.85v-2.44c0-.47.38-.85.85-.85s.85.38.85.85v2.44c0,.47-.38.85-.85.85ZM83.54,68.19c-.47,0-.85-.38-.85-.85v-2.44c0-.47.38-.85.85-.85s.85.38.85.85v2.44c0,.47-.38.85-.85.85ZM83.54,63.31c-.47,0-.85-.38-.85-.85v-2.44c0-.47.38-.85.85-.85s.85.38.85.85v2.44c0,.47-.38.85-.85.85ZM83.54,58.42c-.47,0-.85-.38-.85-.85v-2.44c0-.47.38-.85.85-.85s.85.38.85.85v2.44c0,.47-.38.85-.85.85ZM83.54,53.54c-.47,0-.85-.38-.85-.85v-2.44c0-.47.38-.85.85-.85s.85.38.85.85v2.44c0,.47-.38.85-.85.85ZM83.54,48.66c-.47,0-.85-.38-.85-.85v-2.44c0-.47.38-.85.85-.85s.85.38.85.85v2.44c0,.47-.38.85-.85.85ZM83.54,43.77c-.47,0-.85-.38-.85-.85v-2.44c0-.47.38-.85.85-.85s.85.38.85.85v2.44c0,.47-.38.85-.85.85ZM83.54,38.89c-.47,0-.85-.38-.85-.85v-2.44c0-.47.38-.85.85-.85s.85.38.85.85v2.44c0,.47-.38.85-.85.85ZM83.54,34c-.47,0-.85-.38-.85-.85v-2.44c0-.47.38-.85.85-.85s.85.38.85.85v2.44c0,.47-.38.85-.85.85ZM83.54,29.12c-.47,0-.85-.38-.85-.85v-2.44c0-.47.38-.85.85-.85s.85.38.85.85v2.44c0,.47-.38.85-.85.85ZM83.54,24.24c-.47,0-.85-.38-.85-.85v-2.44c0-.47.38-.85.85-.85s.85.38.85.85v2.44c0,.47-.38.85-.85.85ZM83.54,19.35c-.47,0-.85-.38-.85-.85v-2.44c0-.47.38-.85.85-.85s.85.38.85.85v2.44c0,.47-.38.85-.85.85ZM83.54,14.47c-.47,0-.85-.38-.85-.85v-2.44c0-.47.38-.85.85-.85s.85.38.85.85v2.44c0,.47-.38.85-.85.85Z"/>
        <g>
          <path class="cls-3" d="M78.28,6.12c0-2.86,2.32-5.18,5.18-5.18,2.86,0,5.18,2.32,5.18,5.18,0,2.86-2.32,5.18-5.18,5.18-2.86,0-5.18-2.32-5.18-5.18Z"/>
          <path class="cls-2" d="M77.59,6.12c0,3.24,2.63,5.87,5.87,5.87,3.24,0,5.87-2.63,5.87-5.87,0-3.24-2.63-5.87-5.87-5.87-3.24,0-5.87,2.63-5.87,5.87,0,3.24,0-3.24,0,0ZM87.95,6.11c0,2.48-2.01,4.49-4.49,4.49-2.48,0-4.49-2.01-4.49-4.49,0-2.48,2.01-4.49,4.49-4.49s4.49,2.01,4.49,4.49c0,2.48,0-2.48,0,0Z"/>
        </g>
        <polygon class="cls-2" points="80.4 99.37 83.59 100.72 86.78 99.37 83.59 106.93 80.4 99.37"/>
        <circle class="cls-2" cx="83.49" cy="110.7" r="2.91"/>
        <path class="cls-4" d="M83.23,5.56c.29,0,.54-.08.74-.25.21-.17.31-.41.31-.73,0-.24-.08-.45-.25-.62-.17-.17-.39-.26-.67-.26-.19,0-.35.03-.47.08-.12.05-.22.12-.29.21-.07.09-.14.2-.2.34-.06.14-.12.27-.18.39-.03.07-.09.12-.17.15-.08.04-.18.06-.28.06-.13,0-.24-.05-.34-.15-.11-.1-.16-.24-.16-.41s.05-.33.15-.51c.1-.18.24-.35.43-.51.19-.16.42-.29.71-.39.28-.1.6-.15.94-.15.3,0,.58.04.83.12.25.08.47.2.65.36.18.16.32.34.42.54.09.21.14.43.14.67,0,.31-.07.58-.2.8-.14.22-.33.44-.58.65.24.13.45.28.62.45.17.17.29.36.38.56.08.2.13.43.13.66,0,.28-.06.56-.17.83-.11.27-.28.5-.5.71-.22.21-.49.37-.79.49-.3.12-.64.18-1.01.18s-.71-.07-1.01-.2c-.3-.13-.54-.3-.73-.5-.19-.2-.34-.41-.44-.63-.1-.22-.15-.39-.15-.53,0-.18.06-.33.18-.44.12-.11.26-.17.44-.17.09,0,.17.03.25.08.08.05.13.11.16.19.16.43.34.76.52.97.19.21.45.32.79.32.19,0,.38-.05.56-.14.18-.1.33-.24.45-.42.12-.19.18-.41.18-.65,0-.37-.1-.65-.3-.86-.2-.21-.48-.31-.84-.31-.06,0-.16,0-.29.02-.13.01-.22.02-.25.02-.17,0-.3-.04-.4-.13-.09-.09-.14-.21-.14-.36s.06-.27.17-.36c.11-.09.28-.14.5-.14h.19Z"/>
      </g>
      <g>
        <path class="cls-2" d="M68.74,85.78c-.3,0-.6-.16-.75-.45l-1.16-2.15c-.22-.42-.07-.93.34-1.16.42-.22.93-.07,1.16.34l1.16,2.15c.22.42.07.93-.34,1.16-.13.07-.27.1-.41.1ZM66.41,81.49c-.3,0-.6-.16-.75-.45l-1.16-2.15c-.22-.42-.07-.93.34-1.16.41-.22.93-.07,1.16.34l1.16,2.15c.22.42.07.93-.34,1.16-.13.07-.27.1-.41.1ZM64.08,77.19c-.3,0-.6-.16-.75-.45l-1.16-2.15c-.22-.42-.07-.93.34-1.16.41-.22.93-.07,1.16.34l1.16,2.15c.22.42.07.93-.34,1.16-.13.07-.27.1-.41.1ZM61.76,72.9c-.3,0-.6-.16-.75-.45l-1.16-2.15c-.22-.42-.07-.93.34-1.16.42-.22.93-.07,1.16.34l1.16,2.15c.22.42.07.93-.34,1.16-.13.07-.27.1-.41.1ZM59.43,68.6c-.3,0-.6-.16-.75-.45l-1.16-2.15c-.22-.42-.07-.93.34-1.16.41-.22.93-.07,1.16.34l1.16,2.15c.22.42.07.93-.34,1.16-.13.07-.27.1-.41.1ZM57.1,64.31c-.3,0-.6-.16-.75-.45l-1.16-2.15c-.22-.42-.07-.93.34-1.16.42-.22.93-.07,1.16.34l1.16,2.15c.22.42.07.93-.34,1.16-.13.07-.27.1-.41.1ZM54.78,60.02c-.3,0-.6-.16-.75-.45l-1.16-2.15c-.22-.42-.07-.93.34-1.16.41-.22.93-.07,1.16.34l1.16,2.15c.22.42.07.93-.34,1.16-.13.07-.27.1-.41.1ZM52.45,55.72c-.3,0-.6-.16-.75-.45l-1.16-2.15c-.22-.42-.07-.93.34-1.16.42-.22.93-.07,1.16.34l1.16,2.15c.22.42.07.93-.34,1.16-.13.07-.27.1-.41.1ZM50.12,51.43c-.3,0-.6-.16-.75-.45l-1.16-2.15c-.22-.41-.07-.93.34-1.16.41-.22.93-.07,1.16.34l1.16,2.15c.22.42.07.93-.34,1.16-.13.07-.27.1-.41.1ZM47.8,47.13c-.3,0-.6-.16-.75-.45l-1.16-2.15c-.22-.42-.07-.93.34-1.16.41-.22.93-.07,1.16.34l1.16,2.15c.22.42.07.93-.34,1.16-.13.07-.27.1-.41.1ZM45.47,42.84c-.3,0-.6-.16-.75-.45l-1.16-2.15c-.22-.42-.07-.93.34-1.16s.93-.07,1.16.34l1.16,2.15c.22.42.07.93-.34,1.16-.13.07-.27.1-.41.1ZM43.14,38.54c-.3,0-.6-.16-.75-.45l-1.16-2.15c-.22-.41-.07-.93.34-1.16.41-.22.93-.07,1.16.34l1.16,2.15c.22.42.07.93-.34,1.16-.13.07-.27.1-.41.1ZM40.82,34.25c-.3,0-.6-.16-.75-.45l-1.16-2.15c-.22-.41-.07-.93.34-1.16.42-.22.93-.07,1.16.34l1.16,2.15c.22.42.07.93-.34,1.16-.13.07-.27.1-.41.1ZM38.49,29.96c-.3,0-.6-.16-.75-.45l-1.16-2.15c-.22-.42-.07-.93.34-1.16.41-.22.93-.07,1.16.34l1.16,2.15c.22.42.07.93-.34,1.16-.13.07-.27.1-.41.1ZM36.16,25.66c-.3,0-.6-.16-.75-.45l-1.16-2.15c-.22-.42-.07-.93.34-1.16.41-.22.93-.07,1.16.34l1.16,2.15c.22.42.07.93-.34,1.16-.13.07-.27.1-.41.1ZM33.84,21.37c-.3,0-.6-.16-.75-.45l-1.16-2.15c-.22-.42-.07-.93.34-1.16.41-.22.93-.07,1.16.34l1.16,2.15c.22.41.07.93-.34,1.16-.13.07-.27.1-.41.1ZM31.51,17.07c-.3,0-.6-.16-.75-.45l-1.16-2.15c-.22-.41-.07-.93.34-1.16.41-.22.93-.07,1.16.34l1.16,2.15c.22.42.07.93-.34,1.16-.13.07-.27.1-.41.1ZM29.18,12.78c-.3,0-.6-.16-.75-.45l-1.16-2.15c-.22-.42-.07-.93.34-1.16.42-.22.93-.07,1.16.34l1.16,2.15c.22.41.07.93-.34,1.16-.13.07-.27.1-.41.1ZM26.86,8.49c-.3,0-.6-.16-.75-.45l-1.16-2.15c-.22-.42-.07-.93.34-1.16.42-.22.93-.07,1.16.34l1.16,2.15c.22.41.07.93-.34,1.16-.13.07-.27.1-.41.1Z"/>
        <g>
          <path class="cls-3" d="M26.02,11.15c-2.86.02-5.19-2.29-5.21-5.15-.02-2.86,2.29-5.19,5.15-5.21,2.86-.02,5.19,2.29,5.21,5.15.02,2.86-2.29,5.19-5.15,5.21Z"/>
          <path class="cls-2" d="M26.02,11.84c3.24-.02,5.86-2.67,5.84-5.9S29.19.08,25.96.1c-3.24.02-5.86,2.67-5.84,5.9.02,3.24,2.67,5.86,5.9,5.84,3.24-.02-3.24.02,0,0ZM25.96,1.48c2.48-.01,4.5,1.99,4.52,4.47.01,2.48-1.99,4.5-4.47,4.52-2.48.01-4.5-1.99-4.52-4.47s1.99-4.5,4.47-4.52c2.48-.01-2.48.01,0,0Z"/>
        </g>
        <polygon class="cls-2" points="64.86 84.61 68.32 84.36 70.54 81.7 71.15 89.88 64.86 84.61"/>
        <path class="cls-4" d="M25.24,8.2h2.45c.24,0,.43.05.56.15.13.1.19.24.19.41,0,.15-.05.28-.15.39-.1.11-.26.16-.46.16h-3.45c-.23,0-.42-.06-.55-.19-.13-.13-.2-.28-.2-.46,0-.11.04-.26.13-.45.08-.19.18-.33.28-.44.42-.43.79-.8,1.13-1.11.33-.31.57-.51.72-.61.26-.18.47-.36.64-.55s.3-.37.39-.56c.09-.19.13-.38.13-.57,0-.2-.05-.38-.14-.54-.1-.16-.23-.28-.39-.37-.16-.09-.34-.13-.54-.13-.41,0-.73.18-.97.54-.03.05-.08.17-.16.38-.07.21-.16.37-.25.48-.09.11-.23.17-.41.17-.16,0-.29-.05-.39-.15s-.15-.24-.15-.42c0-.22.05-.44.15-.68.1-.23.24-.45.43-.64.19-.19.44-.34.73-.46.3-.12.64-.18,1.04-.18.48,0,.89.08,1.22.23.22.1.41.24.58.41.17.18.3.38.39.61.09.23.14.47.14.72,0,.39-.1.74-.29,1.06-.19.32-.39.57-.59.75-.2.18-.54.46-1.01.85-.47.38-.79.68-.97.9-.08.08-.15.19-.23.31Z"/>
      </g>
    </g>
  </g>
</svg>