<?xml version="1.0" encoding="UTF-8"?>
<svg id="Layer_2" data-name="Layer 2" xmlns="http://www.w3.org/2000/svg" viewBox="0 0 61.77 139.54">
  <defs>
    <style>
      .cls-1, .cls-2, .cls-3, .cls-4 {
        stroke-width: 0px;
      }

      .cls-2 {
        fill: #6f6f6e;
      }

      .cls-3 {
        fill: #fff;
      }

      .cls-4 {
        fill: #ff0600;
      }
    </style>
  </defs>
  <g id="I">
    <g>
      <g>
        <path class="cls-1" d="M29.86,125.62c-.81,0-1.47-.66-1.47-1.47V14.17c0-.81.66-1.47,1.47-1.47s1.47.66,1.47,1.47v109.99c0,.81-.66,1.47-1.47,1.47Z"/>
        <path class="cls-1" d="M59.93,15.63H3.12c-.81,0-1.47-.66-1.47-1.47s.66-1.47,1.47-1.47h56.8c.81,0,1.47.66,1.47,1.47s-.66,1.47-1.47,1.47Z"/>
        <path class="cls-1" d="M59.65,125.62H3.12c-.81,0-1.47-.66-1.47-1.47s.66-1.47,1.47-1.47h56.53c.81,0,1.47.66,1.47,1.47s-.66,1.47-1.47,1.47Z"/>
      </g>
      <g>
        <path class="cls-2" d="M21.2,109.21c-.47,0-.85-.38-.85-.85v-2.44c0-.47.38-.85.85-.85s.85.38.85.85v2.44c0,.47-.38.85-.85.85ZM21.2,104.33c-.47,0-.85-.38-.85-.85v-2.44c0-.47.38-.85.85-.85s.85.38.85.85v2.44c0,.47-.38.85-.85.85ZM21.2,99.45c-.47,0-.85-.38-.85-.85v-2.44c0-.47.38-.85.85-.85s.85.38.85.85v2.44c0,.47-.38.85-.85.85ZM21.2,94.56c-.47,0-.85-.38-.85-.85v-2.44c0-.47.38-.85.85-.85s.85.38.85.85v2.44c0,.47-.38.85-.85.85ZM21.2,89.68c-.47,0-.85-.38-.85-.85v-2.44c0-.47.38-.85.85-.85s.85.38.85.85v2.44c0,.47-.38.85-.85.85ZM21.2,84.79c-.47,0-.85-.38-.85-.85v-2.44c0-.47.38-.85.85-.85s.85.38.85.85v2.44c0,.47-.38.85-.85.85ZM21.2,79.91c-.47,0-.85-.38-.85-.85v-2.44c0-.47.38-.85.85-.85s.85.38.85.85v2.44c0,.47-.38.85-.85.85ZM21.2,75.03c-.47,0-.85-.38-.85-.85v-2.44c0-.47.38-.85.85-.85s.85.38.85.85v2.44c0,.47-.38.85-.85.85ZM21.2,70.14c-.47,0-.85-.38-.85-.85v-2.44c0-.47.38-.85.85-.85s.85.38.85.85v2.44c0,.47-.38.85-.85.85ZM21.2,65.26c-.47,0-.85-.38-.85-.85v-2.44c0-.47.38-.85.85-.85s.85.38.85.85v2.44c0,.47-.38.85-.85.85ZM21.2,60.37c-.47,0-.85-.38-.85-.85v-2.44c0-.47.38-.85.85-.85s.85.38.85.85v2.44c0,.47-.38.85-.85.85ZM21.2,55.49c-.47,0-.85-.38-.85-.85v-2.44c0-.47.38-.85.85-.85s.85.38.85.85v2.44c0,.47-.38.85-.85.85ZM21.2,50.61c-.47,0-.85-.38-.85-.85v-2.44c0-.47.38-.85.85-.85s.85.38.85.85v2.44c0,.47-.38.85-.85.85ZM21.2,45.72c-.47,0-.85-.38-.85-.85v-2.44c0-.47.38-.85.85-.85s.85.38.85.85v2.44c0,.47-.38.85-.85.85ZM21.2,40.84c-.47,0-.85-.38-.85-.85v-2.44c0-.47.38-.85.85-.85s.85.38.85.85v2.44c0,.47-.38.85-.85.85ZM21.2,35.95c-.47,0-.85-.38-.85-.85v-2.44c0-.47.38-.85.85-.85s.85.38.85.85v2.44c0,.47-.38.85-.85.85ZM21.2,31.07c-.47,0-.85-.38-.85-.85v-2.44c0-.47.38-.85.85-.85s.85.38.85.85v2.44c0,.47-.38.85-.85.85Z"/>
        <g>
          <path class="cls-3" d="M15.95,22.47c0-2.86,2.32-5.18,5.18-5.18,2.86,0,5.18,2.32,5.18,5.18,0,2.86-2.32,5.18-5.18,5.18-2.86,0-5.18-2.32-5.18-5.18Z"/>
          <path class="cls-2" d="M15.26,22.47c0,3.24,2.63,5.87,5.87,5.87,3.24,0,5.87-2.63,5.87-5.87,0-3.24-2.63-5.87-5.87-5.87-3.24,0-5.87,2.63-5.87,5.87,0,3.24,0-3.24,0,0ZM25.62,22.47c0,2.48-2.01,4.49-4.49,4.49-2.48,0-4.49-2.01-4.49-4.49,0-2.48,2.01-4.49,4.49-4.49s4.49,2.01,4.49,4.49c0,2.48,0-2.48,0,0Z"/>
        </g>
        <polygon class="cls-2" points="18.07 107.34 21.26 108.7 24.45 107.34 21.26 114.9 18.07 107.34"/>
        <path class="cls-4" d="M20.9,25.31v-4.27c-.79.61-1.33.92-1.6.92-.13,0-.25-.05-.35-.16-.1-.11-.15-.23-.15-.36,0-.16.05-.28.15-.35.1-.08.28-.17.53-.29.38-.18.68-.37.91-.56.23-.2.43-.42.6-.66.17-.24.29-.39.34-.45.05-.06.15-.08.3-.08.17,0,.3.06.4.19.1.13.15.31.15.53v5.37c0,.63-.21.94-.64.94-.19,0-.34-.06-.46-.19-.12-.13-.17-.32-.17-.57Z"/>
        <path class="cls-2" d="M24.07,118.68c0,1.61-1.3,2.91-2.91,2.91s-2.91-1.3-2.91-2.91,1.3-2.91,2.91-2.91,2.91,1.3,2.91,2.91Z"/>
      </g>
      <g>
        <path class="cls-2" d="M49,6.73h-1.3c-.47,0-.85-.38-.85-.85s.38-.85.85-.85h1.3c.47,0,.85.38.85.85s-.38.85-.85.85ZM45.26,6.73h-2.44c-.47,0-.85-.38-.85-.85s.38-.85.85-.85h2.44c.47,0,.85.38.85.85s-.38.85-.85.85ZM40.38,6.73h-2.44c-.47,0-.85-.38-.85-.85s.38-.85.85-.85h2.44c.47,0,.85.38.85.85s-.38.85-.85.85ZM35.49,6.73h-2.44c-.47,0-.85-.38-.85-.85s.38-.85.85-.85h2.44c.47,0,.85.38.85.85s-.38.85-.85.85ZM30.61,6.73h-2.44c-.47,0-.85-.38-.85-.85s.38-.85.85-.85h2.44c.47,0,.85.38.85.85s-.38.85-.85.85ZM25.72,6.73h-2.44c-.47,0-.85-.38-.85-.85s.38-.85.85-.85h2.44c.47,0,.85.38.85.85s-.38.85-.85.85ZM20.84,6.73h-2.44c-.47,0-.85-.38-.85-.85s.38-.85.85-.85h2.44c.47,0,.85.38.85.85s-.38.85-.85.85ZM15.96,6.73h-2.44c-.47,0-.85-.38-.85-.85s.38-.85.85-.85h2.44c.47,0,.85.38.85.85s-.38.85-.85.85ZM11.07,6.73h-2.44c-.47,0-.85-.38-.85-.85s.38-.85.85-.85h2.44c.47,0,.85.38.85.85s-.38.85-.85.85Z"/>
        <g>
          <polygon class="cls-2" points="47.74 9.06 49.1 5.88 47.76 2.68 55.31 5.9 47.74 9.06"/>
          <circle class="cls-2" cx="58.86" cy="5.87" r="2.91"/>
          <g>
            <g>
              <path class="cls-3" d="M5.85,11.05c-2.86-.01-5.17-2.34-5.16-5.2.01-2.86,2.34-5.17,5.2-5.16,2.86.01,5.17,2.34,5.16,5.2-.01,2.86-2.34,5.17-5.2,5.16Z"/>
              <path class="cls-2" d="M5.85,11.74c3.24.01,5.88-2.61,5.89-5.85C11.75,2.65,9.13.01,5.89,0,2.65-.01.01,2.61,0,5.85c-.01,3.24,2.61,5.88,5.85,5.89,3.24.01-3.24-.01,0,0ZM5.89,1.38c2.48,0,4.49,2.03,4.48,4.51s-2.03,4.49-4.51,4.48c-2.48,0-4.49-2.03-4.48-4.51,0-2.48,2.03-4.49,4.51-4.48,2.48,0-2.48,0,0,0Z"/>
            </g>
            <path class="cls-4" d="M5.22,8.07h2.45c.24,0,.43.05.56.15.13.1.19.24.19.41,0,.15-.05.28-.15.39-.1.11-.26.16-.46.16h-3.45c-.23,0-.42-.06-.55-.19-.13-.13-.2-.28-.2-.46,0-.11.04-.26.13-.45.08-.19.18-.33.28-.44.42-.43.79-.8,1.13-1.11.33-.31.57-.51.72-.61.26-.18.47-.36.64-.55s.3-.37.39-.56c.09-.19.13-.38.13-.57,0-.2-.05-.38-.14-.54-.1-.16-.23-.28-.39-.37-.16-.09-.34-.13-.54-.13-.41,0-.73.18-.97.54-.03.05-.08.17-.16.38-.07.21-.16.37-.25.48-.09.11-.23.17-.41.17-.16,0-.29-.05-.39-.15s-.15-.24-.15-.42c0-.22.05-.44.15-.68.1-.23.24-.45.43-.64.19-.19.44-.34.73-.46.3-.12.64-.18,1.04-.18.48,0,.89.07,1.22.23.22.1.41.24.58.41.17.18.29.38.39.61.09.23.14.47.14.72,0,.39-.1.74-.29,1.06-.19.32-.39.57-.59.75-.2.18-.54.46-1.01.85-.47.38-.79.68-.97.9-.08.08-.15.19-.23.31Z"/>
          </g>
        </g>
      </g>
      <g>
        <path class="cls-2" d="M49,134.52h-1.3c-.47,0-.85-.38-.85-.85s.38-.85.85-.85h1.3c.47,0,.85.38.85.85s-.38.85-.85.85ZM45.26,134.52h-2.44c-.47,0-.85-.38-.85-.85s.38-.85.85-.85h2.44c.47,0,.85.38.85.85s-.38.85-.85.85ZM40.38,134.52h-2.44c-.47,0-.85-.38-.85-.85s.38-.85.85-.85h2.44c.47,0,.85.38.85.85s-.38.85-.85.85ZM35.49,134.52h-2.44c-.47,0-.85-.38-.85-.85s.38-.85.85-.85h2.44c.47,0,.85.38.85.85s-.38.85-.85.85ZM30.61,134.52h-2.44c-.47,0-.85-.38-.85-.85s.38-.85.85-.85h2.44c.47,0,.85.38.85.85s-.38.85-.85.85ZM25.72,134.52h-2.44c-.47,0-.85-.38-.85-.85s.38-.85.85-.85h2.44c.47,0,.85.38.85.85s-.38.85-.85.85ZM20.84,134.52h-2.44c-.47,0-.85-.38-.85-.85s.38-.85.85-.85h2.44c.47,0,.85.38.85.85s-.38.85-.85.85ZM15.96,134.52h-2.44c-.47,0-.85-.38-.85-.85s.38-.85.85-.85h2.44c.47,0,.85.38.85.85s-.38.85-.85.85ZM11.07,134.52h-2.44c-.47,0-.85-.38-.85-.85s.38-.85.85-.85h2.44c.47,0,.85.38.85.85s-.38.85-.85.85Z"/>
        <g>
          <polygon class="cls-2" points="47.74 136.86 49.1 133.67 47.76 130.48 55.31 133.69 47.74 136.86"/>
          <circle class="cls-2" cx="58.86" cy="133.67" r="2.91"/>
          <g>
            <path class="cls-3" d="M5.85,138.85c-2.86-.01-5.17-2.34-5.16-5.2.01-2.86,2.34-5.17,5.2-5.16,2.86.01,5.17,2.34,5.16,5.2-.01,2.86-2.34,5.17-5.2,5.16Z"/>
            <path class="cls-2" d="M5.85,139.54c3.24.01,5.88-2.61,5.89-5.85.01-3.24-2.61-5.88-5.85-5.89C2.65,127.78.01,130.41,0,133.64c-.01,3.24,2.61,5.88,5.85,5.89,3.24.01-3.24-.01,0,0ZM5.89,129.17c2.48,0,4.49,2.03,4.48,4.51s-2.03,4.49-4.51,4.48c-2.48,0-4.49-2.03-4.48-4.51,0-2.48,2.03-4.49,4.51-4.48,2.48,0-2.48,0,0,0Z"/>
          </g>
          <path class="cls-4" d="M5.78,132.92c.29,0,.54-.08.74-.25.21-.17.31-.41.31-.73,0-.24-.08-.45-.25-.62-.17-.17-.39-.26-.67-.26-.19,0-.35.03-.47.08-.12.05-.22.12-.29.21-.07.09-.14.2-.2.34-.06.14-.12.27-.18.39-.03.07-.09.12-.17.15-.08.04-.18.06-.28.06-.13,0-.24-.05-.34-.15-.11-.1-.16-.24-.16-.41s.05-.33.15-.51c.1-.18.24-.35.43-.51.19-.16.42-.29.71-.39.28-.1.6-.15.94-.15.3,0,.58.04.83.12.25.08.47.2.65.36.18.16.32.34.42.54.09.21.14.43.14.67,0,.31-.07.58-.2.8-.14.22-.33.44-.58.65.24.13.45.28.62.45.17.17.29.36.38.56.08.2.13.43.13.66,0,.28-.06.56-.17.83s-.28.5-.5.71c-.22.21-.49.37-.79.49-.3.12-.64.18-1.01.18s-.71-.07-1.01-.2c-.3-.13-.54-.3-.73-.5-.19-.2-.34-.41-.44-.63-.1-.22-.15-.39-.15-.53,0-.18.06-.33.18-.44s.26-.17.44-.17c.09,0,.17.03.25.08.08.05.13.11.16.18.16.43.34.76.52.97.19.21.45.32.79.32.19,0,.38-.05.56-.14.18-.1.33-.24.45-.42.12-.19.18-.41.18-.65,0-.37-.1-.65-.3-.86-.2-.21-.48-.31-.83-.31-.06,0-.16,0-.29.02-.13.01-.22.02-.25.02-.17,0-.3-.04-.4-.13-.09-.09-.14-.21-.14-.36s.06-.27.17-.36c.11-.09.28-.14.5-.14h.19Z"/>
        </g>
      </g>
    </g>
  </g>
</svg>