<?xml version="1.0" encoding="UTF-8"?>
<svg id="Layer_2" data-name="Layer 2" xmlns="http://www.w3.org/2000/svg" viewBox="0 0 75.65 110.1">
  <defs>
    <style>
      .cls-1, .cls-2, .cls-3, .cls-4 {
        stroke-width: 0px;
      }

      .cls-2 {
        fill: #6f6f6e;
      }

      .cls-3 {
        fill: #fff;
      }

      .cls-4 {
        fill: #ff0600;
      }
    </style>
  </defs>
  <g id="G">
    <g>
      <g>
        <path class="cls-1" d="M37.3,69.63c-16.06,0-29.12-13.78-29.12-30.71s13.06-30.71,29.12-30.71c10.38,0,20.81,5.67,25.96,14.1.42.69.2,1.59-.49,2.01-.69.42-1.59.2-2.01-.49-4.64-7.59-14.07-12.7-23.46-12.7-14.44,0-26.19,12.46-26.19,27.78s11.75,27.78,26.19,27.78c10.15,0,19.1-6.33,23.36-16.53.31-.75,1.17-1.1,1.92-.79.75.31,1.1,1.17.79,1.92-4.73,11.31-14.71,18.33-26.06,18.33Z"/>
        <path class="cls-1" d="M34.91,102.13c-10.48,0-17-4.89-20.62-8.99-3.91-4.43-5.33-8.83-5.39-9.02-.24-.77.18-1.59.96-1.84.77-.24,1.59.18,1.84.96.01.04,1.33,4.08,4.87,8.05,4.68,5.25,10.85,7.91,18.34,7.91,23.39,0,25.91-21.42,25.91-30.64V9.34c0-.81.66-1.47,1.47-1.47s1.47.66,1.47,1.47v59.22c0,6.16-.98,15-5.67,22.16-4.95,7.57-12.75,11.4-23.18,11.4Z"/>
      </g>
      <g>
        <path class="cls-2" d="M38.25,110.1c-.46,0-.84-.37-.85-.84-.01-.47.36-.86.84-.87.8-.02,1.61-.06,2.38-.12.47-.04.88.31.92.78.04.47-.31.88-.78.92-.81.07-1.65.11-2.49.13,0,0-.01,0-.02,0ZM35.81,110.08s-.02,0-.03,0c-.83-.03-1.67-.07-2.48-.14-.47-.04-.82-.45-.78-.92.04-.47.45-.82.92-.78.78.07,1.59.11,2.39.14.47.01.84.41.83.88-.01.46-.39.83-.85.83ZM43.1,109.69c-.42,0-.78-.3-.84-.73-.07-.47.25-.9.72-.97.79-.12,1.57-.27,2.33-.44.46-.11.92.18,1.02.64.11.46-.18.92-.64,1.02-.8.18-1.62.34-2.45.47-.04,0-.09,0-.13,0ZM30.95,109.67s-.08,0-.12,0c-.83-.12-1.65-.26-2.46-.42-.46-.09-.76-.55-.67-1.01.09-.46.55-.76,1.01-.67.77.16,1.56.29,2.35.41.47.07.79.5.73.97-.06.43-.43.73-.85.73ZM26.17,108.69c-.07,0-.15,0-.22-.03-.81-.22-1.61-.47-2.39-.73-.45-.15-.68-.64-.53-1.09.15-.45.64-.68,1.09-.53.74.26,1.51.49,2.28.7.46.12.72.59.6,1.05-.1.38-.45.63-.82.63ZM47.85,108.59c-.36,0-.7-.23-.81-.6-.14-.45.11-.93.56-1.07.76-.24,1.5-.51,2.22-.8.44-.18.94.03,1.12.47.18.44-.03.94-.47,1.12-.76.31-1.56.6-2.36.85-.09.03-.17.04-.26.04ZM21.55,107.1c-.11,0-.22-.02-.33-.07-.77-.33-1.53-.68-2.27-1.06-.42-.21-.59-.73-.37-1.15.21-.42.73-.59,1.15-.37.7.36,1.43.7,2.16,1.01.43.18.64.69.45,1.12-.14.33-.45.52-.79.52ZM52.35,106.74c-.31,0-.61-.17-.76-.46-.22-.42-.05-.93.37-1.15.7-.36,1.39-.76,2.05-1.18.4-.25.93-.14,1.18.26.25.4.14.93-.26,1.18-.7.45-1.44.87-2.18,1.25-.13.06-.26.1-.39.1ZM17.21,104.88c-.15,0-.3-.04-.44-.12-.71-.43-1.42-.89-2.09-1.37-.38-.27-.48-.81-.2-1.19.27-.38.81-.48,1.19-.2.64.46,1.31.9,1.99,1.31.4.24.53.77.29,1.17-.16.27-.44.41-.73.41ZM56.46,104.13c-.26,0-.51-.11-.68-.33-.29-.37-.22-.91.16-1.2.62-.48,1.23-.99,1.81-1.52.35-.32.89-.3,1.21.05.32.35.3.89-.05,1.21-.62.57-1.26,1.11-1.92,1.62-.16.12-.34.18-.52.18ZM13.23,102.06c-.19,0-.38-.06-.54-.2-.64-.53-1.27-1.09-1.87-1.66-.34-.33-.35-.87-.03-1.21.33-.34.87-.35,1.21-.03.57.55,1.17,1.08,1.78,1.58.36.3.42.84.12,1.2-.17.2-.41.31-.66.31ZM60.05,100.83c-.21,0-.41-.07-.58-.23-.35-.32-.37-.86-.05-1.21.53-.57,1.04-1.18,1.53-1.81.29-.37.83-.44,1.2-.15.37.29.44.83.15,1.2-.52.66-1.06,1.31-1.62,1.91-.17.18-.4.28-.63.28ZM9.7,98.69c-.23,0-.46-.09-.63-.28-.56-.61-1.1-1.25-1.62-1.91-.29-.37-.23-.91.14-1.2.37-.29.91-.23,1.2.14.49.62,1.01,1.23,1.54,1.82.32.35.29.89-.06,1.21-.16.15-.37.22-.58.22ZM63.05,96.99c-.16,0-.33-.05-.47-.14-.39-.26-.5-.79-.24-1.19.43-.65.85-1.33,1.25-2.03.23-.41.76-.55,1.17-.32.41.23.55.76.32,1.17-.42.73-.86,1.45-1.31,2.13-.16.25-.44.38-.71.38ZM6.67,94.86c-.27,0-.54-.13-.71-.37-.1-.14-.19-.28-.28-.42-.26-.39-.16-.92.24-1.19.39-.26.92-.16,1.19.24.09.13.18.27.27.4.27.39.17.92-.22,1.19-.15.1-.32.15-.48.15ZM65.47,92.75c-.13,0-.25-.03-.37-.09-.42-.21-.6-.72-.39-1.14.34-.7.67-1.44.98-2.18.18-.44.68-.64,1.12-.46.44.18.64.68.46,1.12-.32.77-.67,1.54-1.02,2.28-.15.3-.45.48-.77.48ZM67.35,88.24c-.09,0-.19-.02-.28-.05-.45-.16-.68-.64-.52-1.09.26-.75.51-1.52.73-2.29.13-.45.61-.71,1.06-.58.45.13.71.61.58,1.06-.23.8-.49,1.6-.76,2.37-.12.35-.45.57-.81.57ZM68.72,83.54c-.07,0-.13,0-.2-.02-.46-.11-.74-.57-.63-1.03.19-.78.35-1.57.49-2.35.09-.46.53-.77.99-.69.46.09.77.53.69.99-.15.81-.32,1.63-.51,2.44-.09.39-.44.66-.83.66ZM69.6,78.72s-.07,0-.11,0c-.47-.06-.8-.49-.74-.95.1-.82.14-1.34.15-1.45v-.9c0-.47.38-.85.85-.85s.85.38.85.85v.92s0,.03,0,.05c0,.02-.03.6-.16,1.59-.05.43-.42.75-.85.75ZM69.76,73.83c-.47,0-.85-.38-.85-.85v-2.44c0-.47.38-.85.85-.85s.85.38.85.85v2.44c0,.47-.38.85-.85.85ZM69.76,68.95c-.47,0-.85-.38-.85-.85v-2.44c0-.47.38-.85.85-.85s.85.38.85.85v2.44c0,.47-.38.85-.85.85ZM69.76,64.06c-.47,0-.85-.38-.85-.85v-2.44c0-.47.38-.85.85-.85s.85.38.85.85v2.44c0,.47-.38.85-.85.85ZM69.76,59.18c-.47,0-.85-.38-.85-.85v-2.44c0-.47.38-.85.85-.85s.85.38.85.85v2.44c0,.47-.38.85-.85.85ZM69.76,54.29c-.47,0-.85-.38-.85-.85v-2.44c0-.47.38-.85.85-.85s.85.38.85.85v2.44c0,.47-.38.85-.85.85ZM69.76,49.41c-.47,0-.85-.38-.85-.85v-2.44c0-.47.38-.85.85-.85s.85.38.85.85v2.44c0,.47-.38.85-.85.85ZM69.76,44.53c-.47,0-.85-.38-.85-.85v-2.44c0-.47.38-.85.85-.85s.85.38.85.85v2.44c0,.47-.38.85-.85.85ZM69.76,39.64c-.47,0-.85-.38-.85-.85v-2.44c0-.47.38-.85.85-.85s.85.38.85.85v2.44c0,.47-.38.85-.85.85ZM69.76,34.76c-.47,0-.85-.38-.85-.85v-2.44c0-.47.38-.85.85-.85s.85.38.85.85v2.44c0,.47-.38.85-.85.85ZM69.76,29.87c-.47,0-.85-.38-.85-.85v-2.44c0-.47.38-.85.85-.85s.85.38.85.85v2.44c0,.47-.38.85-.85.85ZM69.76,24.99c-.47,0-.85-.38-.85-.85v-2.44c0-.47.38-.85.85-.85s.85.38.85.85v2.44c0,.47-.38.85-.85.85ZM69.76,20.11c-.47,0-.85-.38-.85-.85v-2.44c0-.47.38-.85.85-.85s.85.38.85.85v2.44c0,.47-.38.85-.85.85ZM69.76,15.22c-.47,0-.85-.38-.85-.85v-2.44c0-.47.38-.85.85-.85s.85.38.85.85v2.44c0,.47-.38.85-.85.85ZM69.76,10.34c-.47,0-.85-.38-.85-.85v-2.44c0-.47.38-.85.85-.85s.85.38.85.85v2.44c0,.47-.38.85-.85.85Z"/>
        <polygon class="cls-2" points="6.55 99.81 8.47 96.76 11.89 96.09 5.07 91.3 6.55 99.81"/>
      </g>
      <g>
        <path class="cls-2" d="M36.87,77.53c-.39,0-.79,0-1.19-.02-.47-.02-.84-.41-.82-.88.02-.47.4-.84.88-.82.79.03,1.59.03,2.38,0,.47-.02.87.35.89.82.02.47-.35.87-.82.89-.44.02-.88.03-1.32.03ZM33.28,77.33s-.06,0-.09,0c-.83-.09-1.66-.21-2.48-.37-.46-.09-.77-.53-.68-1,.09-.46.53-.77,1-.68.78.14,1.57.26,2.35.35.47.05.81.47.76.94-.05.44-.42.76-.85.76ZM40.58,77.3c-.43,0-.79-.32-.85-.75-.06-.47.28-.89.74-.95.78-.1,1.57-.22,2.34-.38.46-.1.91.2,1.01.67.09.46-.2.91-.67,1.01-.82.17-1.65.3-2.48.41-.04,0-.07,0-.11,0ZM28.48,76.44c-.07,0-.15,0-.22-.03-.8-.21-1.61-.46-2.4-.73-.45-.15-.68-.64-.53-1.09.15-.45.64-.68,1.09-.53.75.26,1.51.49,2.28.69.46.12.73.59.61,1.04-.1.38-.45.64-.83.64ZM45.36,76.32c-.37,0-.71-.24-.82-.62-.13-.45.13-.93.58-1.06.76-.22,1.51-.47,2.25-.75.44-.17.93.06,1.1.5.17.44-.06.93-.5,1.1-.78.3-1.58.56-2.38.79-.08.02-.16.03-.24.03ZM23.86,74.86c-.11,0-.23-.02-.34-.07-.76-.33-1.52-.69-2.26-1.07-.42-.22-.58-.73-.37-1.15.22-.42.73-.58,1.15-.37.7.36,1.43.7,2.15,1.01.43.19.64.69.45,1.12-.14.32-.45.52-.79.52ZM49.93,74.6c-.32,0-.63-.18-.77-.49-.2-.43-.02-.94.41-1.14.71-.33,1.42-.7,2.11-1.09.41-.23.93-.09,1.17.32s.09.93-.32,1.17c-.73.41-1.47.8-2.23,1.15-.12.06-.24.08-.36.08ZM19.53,72.62c-.15,0-.31-.04-.44-.13-.71-.43-1.41-.9-2.09-1.38-.38-.27-.47-.81-.2-1.19.27-.38.81-.47,1.19-.2.65.46,1.31.9,1.98,1.31.4.25.53.77.28,1.17-.16.26-.44.41-.73.41ZM54.17,72.19c-.28,0-.55-.13-.71-.38-.26-.39-.16-.92.23-1.19.65-.44,1.3-.91,1.93-1.4.37-.29.91-.23,1.2.15.29.37.23.91-.15,1.2-.66.51-1.34,1.01-2.03,1.47-.15.1-.31.15-.48.15ZM15.56,69.79c-.19,0-.38-.06-.54-.2-.64-.53-1.27-1.08-1.87-1.65-.34-.32-.36-.87-.03-1.21.32-.34.87-.36,1.21-.03.57.54,1.17,1.07,1.78,1.58.36.3.42.84.12,1.2-.17.2-.41.31-.66.31ZM12.02,66.44c-.23,0-.46-.09-.63-.28-.56-.61-1.11-1.25-1.63-1.9-.3-.37-.24-.91.13-1.2.37-.3.91-.24,1.2.13.5.62,1.02,1.23,1.55,1.81.32.35.3.89-.05,1.21-.16.15-.37.23-.58.23ZM8.97,62.63c-.27,0-.54-.13-.7-.37-.47-.68-.93-1.39-1.36-2.1-.24-.4-.11-.93.29-1.17.4-.24.93-.11,1.17.29.41.68.84,1.35,1.3,2,.27.39.17.92-.21,1.19-.15.1-.32.15-.49.15ZM6.46,58.45c-.31,0-.61-.17-.76-.46-.38-.73-.74-1.49-1.07-2.25-.19-.43,0-.94.44-1.12.43-.19.94,0,1.13.44.32.73.66,1.45,1.02,2.16.22.42.05.93-.37,1.15-.13.06-.26.09-.39.09ZM4.51,53.97c-.35,0-.68-.22-.8-.56-.28-.78-.54-1.57-.77-2.37-.13-.45.13-.93.58-1.06.45-.13.93.13,1.06.58.22.76.47,1.53.74,2.27.16.44-.07.93-.51,1.09-.1.03-.19.05-.29.05ZM3.14,49.29c-.39,0-.74-.27-.83-.67-.18-.81-.34-1.63-.48-2.45-.08-.47.24-.91.71-.98.47-.08.91.24.98.71.13.78.28,1.57.46,2.34.1.46-.18.92-.65,1.02-.06.01-.13.02-.19.02ZM2.35,44.48c-.43,0-.8-.33-.85-.77-.08-.82-.15-1.65-.19-2.48-.02-.47.34-.87.81-.89.47-.02.87.34.89.81.04.8.1,1.6.18,2.39.05.47-.29.89-.76.94-.03,0-.06,0-.09,0ZM2.13,39.6s0,0,0,0c-.47,0-.85-.39-.85-.86,0-.83.04-1.66.08-2.48.03-.47.43-.83.9-.8.47.03.83.43.8.9-.05.79-.07,1.6-.08,2.4,0,.47-.39.85-.85.85ZM2.42,34.73s-.06,0-.1,0c-.47-.05-.81-.48-.75-.95.09-.83.21-1.65.35-2.46.08-.47.52-.78.99-.7.47.08.78.52.7.99-.13.78-.24,1.58-.33,2.37-.05.44-.42.76-.85.76ZM3.23,29.92c-.06,0-.13,0-.19-.02-.46-.11-.75-.56-.64-1.02.19-.81.4-1.62.63-2.41.13-.45.61-.71,1.06-.58.45.13.71.61.58,1.06-.22.75-.43,1.53-.61,2.31-.09.4-.44.66-.83.66ZM4.61,25.24c-.1,0-.2-.02-.29-.05-.44-.16-.67-.65-.51-1.1.28-.78.6-1.56.93-2.32.19-.43.69-.63,1.13-.44.43.19.63.69.44,1.13-.32.72-.62,1.47-.89,2.21-.13.35-.45.56-.8.56ZM6.58,20.78c-.13,0-.27-.03-.4-.1-.42-.22-.58-.74-.36-1.15.39-.74.8-1.47,1.23-2.17.25-.4.77-.53,1.18-.28.4.25.53.77.28,1.18-.41.67-.81,1.37-1.18,2.07-.15.29-.45.46-.76.46ZM9.13,16.62c-.17,0-.35-.05-.5-.16-.38-.27-.47-.81-.2-1.19.49-.68,1-1.35,1.53-1.98.3-.36.84-.41,1.2-.11.36.3.41.84.11,1.2-.5.6-.99,1.24-1.45,1.88-.17.23-.43.36-.7.36ZM12.25,12.87c-.21,0-.43-.08-.59-.24-.34-.33-.35-.87-.03-1.21.58-.6,1.18-1.19,1.8-1.74.35-.32.89-.29,1.21.06.32.35.29.89-.06,1.21-.59.53-1.16,1.08-1.71,1.66-.17.17-.39.26-.62.26ZM15.87,9.6c-.26,0-.51-.11-.68-.33-.29-.37-.22-.91.15-1.2.66-.51,1.34-1,2.03-1.46.39-.26.92-.15,1.18.24.26.39.15.92-.24,1.18-.66.44-1.31.9-1.93,1.39-.16.12-.34.18-.52.18ZM19.94,6.9c-.3,0-.59-.16-.75-.44-.23-.41-.09-.93.33-1.16.72-.41,1.47-.79,2.22-1.15.43-.2.94-.02,1.14.41.2.43.02.94-.41,1.14-.71.34-1.43.7-2.11,1.09-.13.07-.28.11-.42.11ZM53.76,6.75c-.14,0-.29-.04-.42-.11-.31-.18-.63-.35-.95-.52-.42-.22-.58-.73-.36-1.15.22-.42.73-.58,1.15-.36.34.18.68.36,1,.55.41.23.56.75.32,1.16-.16.28-.45.43-.74.43ZM50.57,5.18c-.11,0-.22-.02-.33-.07-.72-.31-1.47-.59-2.22-.84-.45-.15-.69-.63-.54-1.08.15-.45.63-.69,1.08-.54.79.27,1.58.56,2.34.89.43.18.64.69.45,1.12-.14.33-.45.52-.79.52ZM24.35,4.82c-.34,0-.67-.21-.8-.55-.17-.44.05-.94.49-1.1.77-.3,1.57-.57,2.36-.81.45-.14.93.12,1.07.57.14.45-.12.93-.57,1.07-.76.23-1.51.49-2.25.77-.1.04-.2.06-.31.06ZM45.95,3.63c-.07,0-.14,0-.21-.03-.76-.19-1.54-.36-2.33-.51-.46-.08-.77-.53-.69-.99.08-.46.53-.77.99-.69.82.15,1.65.33,2.45.53.46.12.73.58.62,1.04-.1.39-.45.64-.83.64ZM29.01,3.4c-.39,0-.74-.27-.83-.66-.11-.46.18-.92.64-1.02.81-.18,1.63-.34,2.46-.47.47-.07.9.25.98.71.07.47-.25.9-.71.98-.78.12-1.57.27-2.34.45-.06.01-.13.02-.19.02ZM41.15,2.76s-.06,0-.1,0c-.78-.09-1.58-.15-2.38-.19-.47-.02-.84-.42-.81-.89.02-.47.43-.84.89-.81.83.04,1.67.11,2.49.2.47.05.81.48.75.94-.05.44-.42.76-.85.76ZM33.83,2.65c-.44,0-.81-.34-.85-.78-.04-.47.31-.88.78-.92.82-.07,1.66-.11,2.5-.13,0,0,0,0,.01,0,.47,0,.85.37.85.84,0,.47-.37.86-.84.87-.79.01-1.59.05-2.38.12-.02,0-.05,0-.07,0Z"/>
        <polygon class="cls-2" points="55.7 74.51 54.66 71.06 51.56 69.5 59.41 66.71 55.7 74.51"/>
        <g>
          <path class="cls-3" d="M59.54,4.07c1.01,2.68-.33,5.67-3.01,6.68-2.68,1.01-5.67-.33-6.68-3.01-1.01-2.68.33-5.67,3.01-6.68,2.68-1.01,5.67.33,6.68,3.01Z"/>
          <path class="cls-2" d="M60.19,3.83c-1.15-3.03-4.54-4.56-7.57-3.41-3.03,1.15-4.56,4.54-3.41,7.57,1.15,3.03,4.54,4.56,7.57,3.41,3.03-1.15,4.56-4.54,3.41-7.57-1.15-3.03,1.15,3.03,0,0ZM50.5,7.5c-.88-2.32.29-4.91,2.61-5.79s4.91.29,5.79,2.61c.88,2.32-.29,4.91-2.61,5.79-2.32.88-4.91-.29-5.79-2.61-.88-2.32.88,2.32,0,0Z"/>
          <path class="cls-4" d="M54.36,8.7v-4.27c-.79.61-1.33.91-1.6.91-.13,0-.25-.05-.35-.16-.1-.11-.15-.23-.15-.36,0-.16.05-.28.15-.35.1-.08.28-.17.53-.29.38-.18.68-.37.91-.56.23-.2.43-.42.6-.66.17-.24.29-.39.34-.45.05-.06.15-.08.3-.08.17,0,.3.06.4.19.1.13.15.31.15.53v5.37c0,.63-.21.94-.64.94-.19,0-.34-.06-.46-.19s-.17-.32-.17-.57Z"/>
        </g>
      </g>
      <circle class="cls-2" cx="2.91" cy="86.62" r="2.91"/>
      <g>
        <g>
          <path class="cls-3" d="M69.79,11.05c2.86-.01,5.17-2.34,5.16-5.2-.01-2.86-2.34-5.17-5.2-5.16s-5.17,2.34-5.16,5.2c.01,2.86,2.34,5.17,5.2,5.16Z"/>
          <path class="cls-2" d="M69.8,11.74c3.24-.01,5.86-2.65,5.85-5.89C75.64,2.61,72.99-.01,69.76,0c-3.24.01-5.86,2.65-5.85,5.89.01,3.24,2.65,5.86,5.89,5.85,3.24-.01-3.24.01,0,0ZM69.76,1.38c2.48,0,4.5,2,4.51,4.48,0,2.48-2,4.5-4.48,4.51-2.48,0-4.5-2-4.51-4.48s2-4.5,4.48-4.51c2.48,0-2.48,0,0,0Z"/>
        </g>
        <path class="cls-4" d="M69.09,7.95h2.45c.24,0,.43.05.56.15.13.1.19.24.19.41,0,.15-.05.28-.15.39-.1.11-.26.16-.46.16h-3.45c-.23,0-.42-.06-.55-.19-.13-.13-.2-.28-.2-.46,0-.11.04-.26.13-.45.08-.19.18-.33.28-.44.42-.43.79-.8,1.13-1.11.33-.31.57-.51.72-.61.26-.18.47-.36.64-.55s.3-.37.39-.56c.09-.19.13-.38.13-.57,0-.2-.05-.38-.14-.54-.1-.16-.23-.28-.39-.37-.16-.09-.34-.13-.54-.13-.41,0-.73.18-.97.54-.03.05-.08.17-.16.38-.07.21-.16.37-.25.48-.09.11-.23.17-.41.17-.16,0-.29-.05-.39-.15s-.15-.24-.15-.42c0-.22.05-.44.15-.68.1-.23.24-.45.43-.64.19-.19.44-.34.73-.46.3-.12.64-.18,1.04-.18.48,0,.89.07,1.22.23.22.1.41.24.58.41.17.18.29.38.39.61.09.23.14.47.14.72,0,.39-.1.74-.29,1.06-.19.32-.39.57-.59.75-.2.18-.54.46-1.01.85-.47.38-.79.68-.97.9-.07.08-.15.19-.23.31Z"/>
      </g>
    </g>
  </g>
</svg>