<?xml version="1.0" encoding="UTF-8"?>
<svg id="Layer_2" data-name="Layer 2" xmlns="http://www.w3.org/2000/svg" viewBox="0 0 109.75 116.46">
  <defs>
    <style>
      .cls-1, .cls-2, .cls-3, .cls-4 {
        stroke-width: 0px;
      }

      .cls-2 {
        fill: #6f6f6e;
      }

      .cls-3 {
        fill: #fff;
      }

      .cls-4 {
        fill: #ff0600;
      }
    </style>
  </defs>
  <g id="M">
    <g>
      <g>
        <path class="cls-2" d="M5.95,107.33c-.47,0-.85-.38-.85-.85v-1.12c0-.47.38-.85.85-.85s.85.38.85.85v1.12c0,.47-.38.85-.85.85ZM5.95,103.76c-.47,0-.85-.38-.85-.85v-2.44c0-.47.38-.85.85-.85s.85.38.85.85v2.44c0,.47-.38.85-.85.85ZM5.95,98.88c-.47,0-.85-.38-.85-.85v-2.44c0-.47.38-.85.85-.85s.85.38.85.85v2.44c0,.47-.38.85-.85.85ZM5.95,94c-.47,0-.85-.38-.85-.85v-2.44c0-.47.38-.85.85-.85s.85.38.85.85v2.44c0,.47-.38.85-.85.85ZM5.95,89.11c-.47,0-.85-.38-.85-.85v-2.44c0-.47.38-.85.85-.85s.85.38.85.85v2.44c0,.47-.38.85-.85.85ZM5.95,84.23c-.47,0-.85-.38-.85-.85v-2.44c0-.47.38-.85.85-.85s.85.38.85.85v2.44c0,.47-.38.85-.85.85ZM5.95,79.34c-.47,0-.85-.38-.85-.85v-2.44c0-.47.38-.85.85-.85s.85.38.85.85v2.44c0,.47-.38.85-.85.85ZM5.95,74.46c-.47,0-.85-.38-.85-.85v-2.44c0-.47.38-.85.85-.85s.85.38.85.85v2.44c0,.47-.38.85-.85.85ZM5.95,69.58c-.47,0-.85-.38-.85-.85v-2.44c0-.47.38-.85.85-.85s.85.38.85.85v2.44c0,.47-.38.85-.85.85ZM5.95,64.69c-.47,0-.85-.38-.85-.85v-2.44c0-.47.38-.85.85-.85s.85.38.85.85v2.44c0,.47-.38.85-.85.85ZM5.95,59.81c-.47,0-.85-.38-.85-.85v-2.44c0-.47.38-.85.85-.85s.85.38.85.85v2.44c0,.47-.38.85-.85.85ZM5.95,54.92c-.47,0-.85-.38-.85-.85v-2.44c0-.47.38-.85.85-.85s.85.38.85.85v2.44c0,.47-.38.85-.85.85ZM5.95,50.04c-.47,0-.85-.38-.85-.85v-2.44c0-.47.38-.85.85-.85s.85.38.85.85v2.44c0,.47-.38.85-.85.85ZM5.95,45.16c-.47,0-.85-.38-.85-.85v-2.44c0-.47.38-.85.85-.85s.85.38.85.85v2.44c0,.47-.38.85-.85.85ZM5.95,40.27c-.47,0-.85-.38-.85-.85v-2.44c0-.47.38-.85.85-.85s.85.38.85.85v2.44c0,.47-.38.85-.85.85ZM5.95,35.39c-.47,0-.85-.38-.85-.85v-2.44c0-.47.38-.85.85-.85s.85.38.85.85v2.44c0,.47-.38.85-.85.85ZM5.95,30.5c-.47,0-.85-.38-.85-.85v-2.44c0-.47.38-.85.85-.85s.85.38.85.85v2.44c0,.47-.38.85-.85.85ZM5.95,25.62c-.47,0-.85-.38-.85-.85v-2.44c0-.47.38-.85.85-.85s.85.38.85.85v2.44c0,.47-.38.85-.85.85ZM5.95,20.74c-.47,0-.85-.38-.85-.85v-2.44c0-.47.38-.85.85-.85s.85.38.85.85v2.44c0,.47-.38.85-.85.85ZM5.95,15.85c-.47,0-.85-.38-.85-.85v-2.44c0-.47.38-.85.85-.85s.85.38.85.85v2.44c0,.47-.38.85-.85.85Z"/>
        <g>
          <path class="cls-3" d="M.69,7.5c0-2.86,2.32-5.18,5.18-5.18,2.86,0,5.18,2.32,5.18,5.18,0,2.86-2.32,5.18-5.18,5.18-2.86,0-5.18-2.32-5.18-5.18Z"/>
          <path class="cls-2" d="M0,7.5c0,3.24,2.63,5.87,5.87,5.87,3.24,0,5.87-2.63,5.87-5.87,0-3.24-2.63-5.87-5.87-5.87C2.63,1.63,0,4.26,0,7.5,0,10.74,0,4.26,0,7.5ZM10.36,7.5c0,2.48-2.01,4.49-4.49,4.49-2.48,0-4.49-2.01-4.49-4.49,0-2.48,2.01-4.49,4.49-4.49s4.49,2.01,4.49,4.49c0,2.48,0-2.48,0,0Z"/>
        </g>
        <polygon class="cls-2" points="2.81 102.22 6 103.57 9.19 102.22 6 109.78 2.81 102.22"/>
        <path class="cls-4" d="M5.65,10.34v-4.27c-.79.61-1.33.92-1.6.92-.13,0-.25-.05-.35-.16-.1-.11-.15-.23-.15-.36,0-.16.05-.28.15-.35.1-.08.28-.17.53-.29.38-.18.68-.37.91-.56.23-.2.43-.42.6-.66.17-.24.29-.39.34-.45.05-.06.15-.08.3-.08.17,0,.3.06.4.19.1.13.15.31.15.53v5.37c0,.63-.21.94-.64.94-.19,0-.34-.06-.46-.19-.12-.13-.17-.32-.17-.57Z"/>
        <circle class="cls-2" cx="5.9" cy="113.55" r="2.91"/>
      </g>
      <g>
        <path class="cls-2" d="M103.95,107.33c-.47,0-.85-.38-.85-.85v-1.12c0-.47.38-.85.85-.85s.85.38.85.85v1.12c0,.47-.38.85-.85.85ZM103.95,103.76c-.47,0-.85-.38-.85-.85v-2.44c0-.47.38-.85.85-.85s.85.38.85.85v2.44c0,.47-.38.85-.85.85ZM103.95,98.88c-.47,0-.85-.38-.85-.85v-2.44c0-.47.38-.85.85-.85s.85.38.85.85v2.44c0,.47-.38.85-.85.85ZM103.95,94c-.47,0-.85-.38-.85-.85v-2.44c0-.47.38-.85.85-.85s.85.38.85.85v2.44c0,.47-.38.85-.85.85ZM103.95,89.11c-.47,0-.85-.38-.85-.85v-2.44c0-.47.38-.85.85-.85s.85.38.85.85v2.44c0,.47-.38.85-.85.85ZM103.95,84.23c-.47,0-.85-.38-.85-.85v-2.44c0-.47.38-.85.85-.85s.85.38.85.85v2.44c0,.47-.38.85-.85.85ZM103.95,79.34c-.47,0-.85-.38-.85-.85v-2.44c0-.47.38-.85.85-.85s.85.38.85.85v2.44c0,.47-.38.85-.85.85ZM103.95,74.46c-.47,0-.85-.38-.85-.85v-2.44c0-.47.38-.85.85-.85s.85.38.85.85v2.44c0,.47-.38.85-.85.85ZM103.95,69.58c-.47,0-.85-.38-.85-.85v-2.44c0-.47.38-.85.85-.85s.85.38.85.85v2.44c0,.47-.38.85-.85.85ZM103.95,64.69c-.47,0-.85-.38-.85-.85v-2.44c0-.47.38-.85.85-.85s.85.38.85.85v2.44c0,.47-.38.85-.85.85ZM103.95,59.81c-.47,0-.85-.38-.85-.85v-2.44c0-.47.38-.85.85-.85s.85.38.85.85v2.44c0,.47-.38.85-.85.85ZM103.95,54.92c-.47,0-.85-.38-.85-.85v-2.44c0-.47.38-.85.85-.85s.85.38.85.85v2.44c0,.47-.38.85-.85.85ZM103.95,50.04c-.47,0-.85-.38-.85-.85v-2.44c0-.47.38-.85.85-.85s.85.38.85.85v2.44c0,.47-.38.85-.85.85ZM103.95,45.16c-.47,0-.85-.38-.85-.85v-2.44c0-.47.38-.85.85-.85s.85.38.85.85v2.44c0,.47-.38.85-.85.85ZM103.95,40.27c-.47,0-.85-.38-.85-.85v-2.44c0-.47.38-.85.85-.85s.85.38.85.85v2.44c0,.47-.38.85-.85.85ZM103.95,35.39c-.47,0-.85-.38-.85-.85v-2.44c0-.47.38-.85.85-.85s.85.38.85.85v2.44c0,.47-.38.85-.85.85ZM103.95,30.5c-.47,0-.85-.38-.85-.85v-2.44c0-.47.38-.85.85-.85s.85.38.85.85v2.44c0,.47-.38.85-.85.85ZM103.95,25.62c-.47,0-.85-.38-.85-.85v-2.44c0-.47.38-.85.85-.85s.85.38.85.85v2.44c0,.47-.38.85-.85.85ZM103.95,20.74c-.47,0-.85-.38-.85-.85v-2.44c0-.47.38-.85.85-.85s.85.38.85.85v2.44c0,.47-.38.85-.85.85ZM103.95,15.85c-.47,0-.85-.38-.85-.85v-2.44c0-.47.38-.85.85-.85s.85.38.85.85v2.44c0,.47-.38.85-.85.85Z"/>
        <g>
          <path class="cls-3" d="M98.69,7.5c0-2.86,2.32-5.18,5.18-5.18,2.86,0,5.18,2.32,5.18,5.18,0,2.86-2.32,5.18-5.18,5.18-2.86,0-5.18-2.32-5.18-5.18Z"/>
          <path class="cls-2" d="M98,7.5c0,3.24,2.63,5.87,5.87,5.87,3.24,0,5.87-2.63,5.87-5.87,0-3.24-2.63-5.87-5.87-5.87-3.24,0-5.87,2.63-5.87,5.87,0,3.24,0-3.24,0,0ZM108.37,7.5c0,2.48-2.01,4.49-4.49,4.49-2.48,0-4.49-2.01-4.49-4.49,0-2.48,2.01-4.49,4.49-4.49s4.49,2.01,4.49,4.49c0,2.48,0-2.48,0,0Z"/>
        </g>
        <polygon class="cls-2" points="100.82 102.22 104.01 103.57 107.2 102.22 104.01 109.78 100.82 102.22"/>
        <circle class="cls-2" cx="103.91" cy="113.55" r="2.91"/>
        <path class="cls-4" d="M104.06,10.28v-.87h-2.36c-.3,0-.52-.07-.67-.2-.15-.13-.22-.32-.22-.55,0-.06.01-.12.03-.18.02-.06.05-.12.1-.19.04-.07.09-.13.14-.19.05-.06.11-.14.17-.23l2.49-3.33c.16-.22.3-.38.4-.48.11-.1.23-.15.38-.15.48,0,.71.27.71.82v3.63h.2c.24,0,.43.03.58.1.15.07.22.21.22.43,0,.18-.06.31-.18.4s-.3.12-.53.12h-.29v.87c0,.24-.05.42-.16.54-.11.12-.25.18-.43.18s-.32-.06-.42-.18c-.11-.12-.16-.3-.16-.53ZM102.05,8.36h2.02v-2.73l-2.02,2.73Z"/>
      </g>
      <g>
        <path class="cls-2" d="M49.88,69c-.33,0-.65-.2-.79-.52l-.95-2.25c-.18-.43.02-.94.45-1.12.43-.18.94.02,1.12.45l.95,2.25c.18.43-.02.94-.45,1.12-.11.05-.22.07-.33.07ZM47.98,64.5c-.33,0-.65-.2-.79-.52l-.95-2.25c-.18-.43.02-.94.45-1.12.43-.18.94.02,1.12.45l.95,2.25c.18.43-.02.94-.45,1.12-.11.05-.22.07-.33.07ZM46.08,60c-.33,0-.65-.2-.79-.52l-.95-2.25c-.18-.43.02-.94.45-1.12.43-.18.94.02,1.12.45l.95,2.25c.18.43-.02.94-.45,1.12-.11.05-.22.07-.33.07ZM44.18,55.5c-.33,0-.65-.2-.79-.52l-.95-2.25c-.18-.43.02-.94.45-1.12.43-.18.94.02,1.12.45l.95,2.25c.18.43-.02.94-.45,1.12-.11.05-.22.07-.33.07ZM42.28,51c-.33,0-.65-.2-.79-.52l-.95-2.25c-.18-.43.02-.94.45-1.12.43-.18.94.02,1.12.45l.95,2.25c.18.43-.02.94-.45,1.12-.11.05-.22.07-.33.07ZM40.38,46.5c-.33,0-.65-.2-.79-.52l-.95-2.25c-.18-.43.02-.94.45-1.12.43-.18.94.02,1.12.45l.95,2.25c.18.43-.02.94-.45,1.12-.11.05-.22.07-.33.07ZM38.48,42c-.33,0-.65-.2-.79-.52l-.95-2.25c-.18-.43.02-.94.45-1.12.43-.18.94.02,1.12.45l.95,2.25c.18.43-.02.94-.45,1.12-.11.05-.22.07-.33.07ZM36.58,37.5c-.33,0-.65-.2-.79-.52l-.95-2.25c-.18-.43.02-.94.45-1.12.43-.18.94.02,1.12.45l.95,2.25c.18.43-.02.94-.45,1.12-.11.05-.22.07-.33.07ZM34.68,33c-.33,0-.65-.2-.79-.52l-.95-2.25c-.18-.43.02-.94.45-1.12.43-.18.94.02,1.12.45l.95,2.25c.18.43-.02.94-.45,1.12-.11.05-.22.07-.33.07ZM32.78,28.5c-.33,0-.65-.2-.79-.52l-.95-2.25c-.18-.43.02-.94.45-1.12.43-.18.94.02,1.12.45l.95,2.25c.18.43-.02.94-.45,1.12-.11.05-.22.07-.33.07ZM30.88,24.01c-.33,0-.65-.2-.79-.52l-.95-2.25c-.18-.43.02-.94.45-1.12.43-.18.94.02,1.12.45l.95,2.25c.18.43-.02.94-.45,1.12-.11.05-.22.07-.33.07ZM28.98,19.51c-.33,0-.65-.2-.79-.52l-.95-2.25c-.18-.43.02-.94.45-1.12.44-.18.94.02,1.12.45l.95,2.25c.18.43-.02.94-.45,1.12-.11.05-.22.07-.33.07ZM27.08,15.01c-.33,0-.65-.2-.79-.52l-.95-2.25c-.18-.43.02-.94.45-1.12.43-.18.94.02,1.12.45l.95,2.25c.18.43-.02.94-.45,1.12-.11.05-.22.07-.33.07ZM25.18,10.51c-.33,0-.65-.2-.79-.52l-.95-2.25c-.18-.43.02-.94.45-1.12.43-.18.94.02,1.12.45l.95,2.25c.18.43-.02.94-.45,1.12-.11.05-.22.07-.33.07Z"/>
        <g>
          <g>
            <path class="cls-3" d="M24.36,13.34c-2.86-.09-5.1-2.49-5.01-5.35.09-2.86,2.49-5.1,5.35-5.01,2.86.09,5.1,2.49,5.01,5.34-.09,2.86-2.49,5.1-5.34,5.01Z"/>
            <path class="cls-2" d="M24.34,14.03c3.24.1,5.95-2.44,6.06-5.68s-2.44-5.95-5.68-6.06c-3.24-.1-5.95,2.44-6.06,5.68-.1,3.24,2.44,5.95,5.68,6.06,3.24.1-3.24-.1,0,0ZM24.67,3.68c2.48.08,4.43,2.16,4.35,4.63-.08,2.48-2.16,4.43-4.63,4.35-2.48-.08-4.43-2.16-4.35-4.63.08-2.48,2.16-4.43,4.63-4.35,2.48.08-2.48-.08,0,0Z"/>
          </g>
          <path class="cls-4" d="M23.82,10.19h2.45c.24,0,.43.05.56.15.13.1.19.24.19.41,0,.15-.05.28-.15.39-.1.11-.26.16-.46.16h-3.45c-.23,0-.42-.06-.55-.19-.13-.13-.2-.28-.2-.46,0-.11.04-.26.13-.45.08-.19.18-.33.28-.44.42-.43.79-.8,1.13-1.11.33-.31.57-.51.72-.61.26-.18.47-.36.64-.55s.3-.37.39-.56.13-.38.13-.57c0-.2-.05-.38-.14-.54s-.23-.28-.39-.37-.34-.13-.54-.13c-.41,0-.73.18-.97.54-.03.05-.08.17-.16.38-.07.21-.16.37-.25.48-.09.11-.23.17-.41.17-.16,0-.29-.05-.39-.15s-.15-.24-.15-.42c0-.22.05-.44.15-.68.1-.23.24-.45.43-.64.19-.19.44-.34.73-.46.3-.12.64-.18,1.04-.18.48,0,.89.08,1.22.23.22.1.41.24.58.41.17.18.3.38.39.61.09.23.14.47.14.72,0,.39-.1.74-.29,1.06-.19.32-.39.57-.59.75-.2.18-.54.46-1.01.85-.47.38-.79.68-.97.9-.08.08-.15.19-.23.31Z"/>
        </g>
        <polygon class="cls-2" points="46.37 67.74 49.83 67.83 52.3 65.4 52.11 73.6 46.37 67.74"/>
      </g>
      <g>
        <path class="cls-2" d="M83.17,9.48c.11,0,.21.02.32.06.44.18.65.68.47,1.12l-.93,2.26c-.18.44-.68.65-1.12.47-.44-.18-.65-.68-.47-1.12l.93-2.26c.14-.33.46-.53.8-.53ZM81.31,14c.11,0,.21.02.32.06.44.18.65.68.47,1.12l-.93,2.26c-.18.44-.68.65-1.12.47s-.65-.68-.47-1.12l.93-2.26c.14-.33.46-.53.8-.53ZM79.46,18.52c.11,0,.21.02.32.06.44.18.65.68.47,1.12l-.93,2.26c-.18.44-.68.65-1.12.47s-.65-.68-.47-1.12l.93-2.26c.14-.33.46-.53.8-.53ZM77.61,23.04c.11,0,.21.02.32.06.44.18.65.68.47,1.12l-.93,2.26c-.18.44-.68.65-1.12.47-.44-.18-.65-.68-.47-1.12l.93-2.26c.14-.33.46-.53.8-.53ZM75.75,27.56c.11,0,.21.02.32.06.44.18.65.68.47,1.12l-.93,2.26c-.18.44-.68.65-1.12.47-.44-.18-.65-.68-.47-1.12l.93-2.26c.14-.33.46-.53.8-.53ZM73.9,32.08c.11,0,.21.02.32.06.44.18.65.68.47,1.12l-.93,2.26c-.18.44-.68.65-1.12.47-.44-.18-.65-.68-.47-1.12l.93-2.26c.14-.33.46-.53.8-.53ZM72.05,36.6c.11,0,.21.02.32.06.44.18.65.68.47,1.12l-.93,2.26c-.18.44-.68.65-1.12.47-.44-.18-.65-.68-.47-1.12l.93-2.26c.14-.33.46-.53.8-.53ZM70.19,41.11c.11,0,.21.02.32.06.44.18.65.68.47,1.12l-.93,2.26c-.18.44-.68.65-1.12.47s-.65-.68-.47-1.12l.93-2.26c.14-.33.46-.53.8-.53ZM68.34,45.63c.11,0,.21.02.32.06.44.18.65.68.47,1.12l-.93,2.26c-.18.44-.68.65-1.12.47-.44-.18-.65-.68-.47-1.12l.93-2.26c.14-.33.46-.53.8-.53ZM66.49,50.15c.11,0,.21.02.32.06.44.18.65.68.47,1.12l-.93,2.26c-.18.44-.68.65-1.12.47-.44-.18-.65-.68-.47-1.12l.93-2.26c.14-.33.46-.53.8-.53ZM64.63,54.67c.11,0,.21.02.32.06.44.18.65.68.47,1.12l-.93,2.26c-.18.44-.68.65-1.11.47-.44-.18-.65-.68-.47-1.12l.93-2.26c.14-.33.46-.53.8-.53ZM62.78,59.19c.11,0,.21.02.32.06.44.18.65.68.47,1.12l-.93,2.26c-.18.44-.68.65-1.12.47s-.65-.68-.47-1.12l.93-2.26c.14-.33.46-.53.8-.53ZM60.93,63.71c.11,0,.21.02.32.06.44.18.65.68.47,1.12l-.93,2.26c-.18.44-.68.65-1.12.47-.44-.18-.65-.68-.47-1.12l.93-2.26c.14-.33.46-.53.8-.53ZM59.07,68.23c.11,0,.21.02.32.06.44.18.65.68.47,1.12l-.93,2.26c-.18.44-.68.65-1.12.47-.44-.18-.65-.68-.47-1.12l.93-2.26c.14-.33.46-.53.8-.53ZM57.22,72.75c.11,0,.21.02.32.06.44.18.65.68.47,1.12l-.93,2.26c-.18.44-.68.65-1.11.47-.44-.18-.65-.68-.47-1.12l.93-2.26c.14-.33.46-.53.8-.53Z"/>
        <g>
          <g>
            <path class="cls-3" d="M85.54,11.05c2.86-.07,5.13-2.44,5.06-5.3-.06-2.86-2.44-5.13-5.3-5.06-2.86.06-5.13,2.44-5.06,5.3.06,2.86,2.44,5.13,5.3,5.06Z"/>
            <path class="cls-2" d="M85.55,11.74c3.24-.07,5.81-2.77,5.74-6-.07-3.24-2.77-5.81-6-5.74-3.24.07-5.81,2.77-5.74,6,.07,3.24,2.77,5.81,6,5.74,3.24-.07-3.24.07,0,0ZM85.32,1.38c2.48-.06,4.54,1.91,4.59,4.39.06,2.48-1.91,4.54-4.39,4.59-2.48.06-4.54-1.91-4.59-4.39-.06-2.48,1.91-4.54,4.39-4.59,2.48-.06-2.48.06,0,0Z"/>
          </g>
          <path class="cls-4" d="M85.23,5.2c.29.01.54-.06.75-.23.21-.16.33-.4.34-.71,0-.24-.07-.45-.23-.63-.16-.18-.38-.27-.66-.28-.19,0-.35.01-.47.06-.13.05-.23.12-.3.2-.08.08-.15.2-.22.33-.07.14-.13.26-.19.38-.03.06-.09.11-.17.15-.08.03-.18.05-.28.05-.13,0-.24-.06-.34-.17-.1-.11-.15-.24-.14-.41,0-.16.06-.33.17-.51.11-.18.26-.34.45-.5.19-.16.44-.28.72-.37.28-.09.6-.13.95-.11.3.01.58.06.83.16.25.09.46.22.64.38.18.16.31.35.4.56.09.21.12.43.12.67-.01.31-.09.58-.23.8-.14.22-.35.43-.61.63.24.14.44.3.6.47.16.18.28.37.36.57.08.21.11.43.1.67-.01.28-.08.56-.2.82-.12.26-.3.49-.53.69-.23.2-.5.35-.81.46-.31.11-.65.15-1.02.14-.38-.01-.71-.09-1-.24-.29-.15-.53-.32-.71-.53-.18-.21-.32-.42-.41-.64-.09-.22-.13-.4-.13-.54,0-.18.07-.33.19-.43.12-.11.27-.16.44-.15.09,0,.17.03.25.09.08.05.13.12.15.19.15.44.31.77.49.99.18.22.44.33.77.35.19,0,.38-.03.57-.12.18-.09.34-.22.46-.41.12-.18.19-.4.2-.65.01-.37-.08-.66-.27-.87-.19-.22-.47-.33-.82-.34-.06,0-.16,0-.29,0-.13,0-.22.01-.25,0-.17,0-.3-.05-.39-.14-.09-.09-.13-.21-.13-.36,0-.15.07-.27.18-.36.12-.09.28-.13.51-.12h.19Z"/>
        </g>
        <polygon class="cls-2" points="59.78 76.32 56.32 76.38 53.87 73.92 53.99 82.13 59.78 76.32"/>
      </g>
      <g>
        <path class="cls-1" d="M14.38,116.03c-.81,0-1.47-.66-1.47-1.47V4.57c0-.81.66-1.47,1.47-1.47s1.47.66,1.47,1.47v109.99c0,.81-.66,1.47-1.47,1.47Z"/>
        <path class="cls-1" d="M54.78,105.5c-.58,0-1.13-.34-1.36-.91L13.02,5.12c-.3-.75.06-1.6.81-1.91.75-.3,1.6.06,1.91.81l40.4,99.47c.3.75-.06,1.6-.81,1.91-.18.07-.37.11-.55.11Z"/>
        <path class="cls-1" d="M54.83,105.5c-.18,0-.37-.03-.55-.11-.75-.3-1.11-1.16-.81-1.91L93.87,4.02c.3-.75,1.16-1.11,1.91-.81.75.3,1.11,1.16.81,1.91l-40.4,99.47c-.23.57-.78.91-1.36.91Z"/>
        <path class="cls-1" d="M95.23,116.03c-.81,0-1.47-.66-1.47-1.47V4.57c0-.81.66-1.47,1.47-1.47s1.47.66,1.47,1.47v109.99c0,.81-.66,1.47-1.47,1.47Z"/>
      </g>
    </g>
  </g>
</svg>