<svg xmlns="http://www.w3.org/2000/svg" id="Layer_2" data-name="Layer 2" viewBox="0 0 87.99 128.42"><defs><style>.cls-1,.cls-2,.cls-3,.cls-4{stroke-width:0}.cls-2{fill:#6f6f6e}.cls-3{fill:#fff}.cls-4{fill:#ff0600}</style></defs><g id="G"><g><path d="M42.12,120.67c-14.47,0-24.66-7.45-30.28-22.14-4.77-12.46-5.32-27.89-5.32-38.4,0-4.2.52-18.95,7.19-32.35,6.39-12.83,16.32-19.61,28.73-19.61,11.67,0,20.94,5.63,26.8,16.28,4.36,7.93,5.28,15.74,5.32,16.07.09.8-.49,1.53-1.29,1.62-.8.09-1.53-.49-1.62-1.29h0c0-.08-.91-7.64-5.02-15.06-5.39-9.75-13.53-14.69-24.19-14.69-11.38,0-20.16,6.05-26.1,17.98-5.08,10.19-6.89,22.72-6.89,31.04,0,10.28.53,25.35,5.12,37.36,5.21,13.63,14.22,20.26,27.54,20.26,8.34,0,15.17-2.69,20.28-7.98,9.68-10.02,10.72-26.65,10.81-31.58h-29.63c-.81,0-1.47-.66-1.47-1.47s.66-1.47,1.47-1.47h31.09c.79,0,1.44.63,1.46,1.41.03.91.63,22.44-11.63,35.13-5.69,5.89-13.22,8.87-22.39,8.87Z" class="cls-1"/><g><path d="M43.52,128.42c-.46,0-.85-.37-.85-.84,0-.47.37-.86.84-.87.81-.02,1.61-.05,2.4-.1.47-.03.88.33.91.8.03.47-.33.88-.8.91-.81.05-1.64.09-2.48.11,0,0-.01,0-.02,0ZM41.08,128.42s-.02,0-.02,0c-.84-.02-1.67-.07-2.48-.13-.47-.04-.82-.45-.79-.92.04-.47.45-.82.92-.79.78.06,1.59.1,2.39.12.47.01.84.41.83.88-.01.46-.39.83-.85.83ZM48.39,128.1c-.43,0-.8-.32-.85-.76-.05-.47.28-.89.75-.95.8-.09,1.6-.21,2.37-.34.47-.08.91.23.99.7.08.47-.23.91-.7.99-.8.14-1.63.26-2.46.36-.03,0-.07,0-.1,0ZM36.22,128.03s-.08,0-.12,0c-.83-.11-1.66-.25-2.45-.4-.46-.09-.77-.54-.67-1,.09-.46.54-.76,1-.67.77.15,1.56.28,2.35.39.47.06.8.49.73.96-.06.43-.42.74-.85.74ZM53.2,127.26c-.39,0-.74-.27-.83-.66-.11-.46.18-.92.64-1.03.78-.18,1.55-.39,2.3-.62.45-.14.93.12,1.07.57.14.45-.12.93-.57,1.07-.78.24-1.59.45-2.41.65-.07.02-.13.02-.2.02ZM31.44,127.09c-.07,0-.15,0-.22-.03-.81-.21-1.61-.46-2.39-.72-.45-.15-.69-.64-.53-1.08.15-.45.64-.69,1.08-.54.74.25,1.51.48,2.28.68.46.12.73.59.61,1.04-.1.38-.45.64-.83.64ZM57.86,125.85c-.35,0-.67-.21-.8-.55-.17-.44.06-.93.5-1.1.74-.28,1.48-.59,2.19-.92.43-.2.94-.01,1.13.42.2.43.01.94-.42,1.13-.75.35-1.52.67-2.3.97-.1.04-.2.06-.3.06ZM26.83,125.53c-.11,0-.22-.02-.33-.07-.77-.32-1.53-.68-2.27-1.06-.42-.22-.59-.73-.37-1.15.22-.42.73-.59,1.15-.37.7.36,1.42.69,2.15,1,.44.18.64.68.46,1.12-.14.33-.45.52-.79.52ZM62.29,123.79c-.3,0-.59-.16-.75-.44-.23-.41-.08-.93.33-1.16.69-.38,1.37-.8,2.03-1.23.39-.26.92-.15,1.18.24.26.39.15.92-.24,1.18-.69.46-1.41.9-2.14,1.3-.13.07-.27.11-.42.11ZM22.5,123.31c-.15,0-.31-.04-.45-.13-.71-.43-1.41-.9-2.08-1.39-.38-.28-.47-.81-.19-1.19.28-.38.81-.47,1.19-.19.64.46,1.3.91,1.97,1.32.4.25.53.77.28,1.18-.16.26-.44.41-.73.41ZM66.35,121.1c-.25,0-.51-.11-.67-.33-.29-.37-.22-.91.15-1.2.62-.48,1.23-1,1.81-1.53.35-.32.89-.29,1.21.05.32.35.29.89-.05,1.21-.62.56-1.26,1.11-1.91,1.62-.16.12-.34.18-.53.18ZM18.56,120.45c-.2,0-.39-.07-.55-.2-.63-.53-1.25-1.1-1.85-1.68-.34-.33-.34-.87-.01-1.21.33-.34.87-.34,1.21-.01.57.55,1.16,1.09,1.75,1.6.36.3.41.84.1,1.2-.17.2-.41.3-.65.3ZM69.94,117.81c-.21,0-.42-.08-.58-.23-.34-.32-.36-.86-.04-1.21.54-.57,1.06-1.17,1.56-1.79.3-.37.83-.42,1.2-.13.37.3.42.83.13,1.2-.52.65-1.08,1.28-1.64,1.89-.17.18-.4.27-.62.27ZM15.08,117.04c-.24,0-.47-.1-.64-.29-.54-.61-1.08-1.26-1.59-1.92-.29-.37-.22-.91.15-1.2.37-.29.91-.22,1.2.15.49.63,1,1.25,1.52,1.84.31.35.28.89-.07,1.21-.16.14-.37.22-.57.22ZM73.01,114.03c-.17,0-.34-.05-.49-.15-.39-.27-.48-.8-.21-1.19.45-.64.88-1.31,1.3-2,.24-.4.77-.53,1.17-.29.4.24.53.77.29,1.17-.43.72-.89,1.42-1.36,2.09-.17.24-.43.37-.7.37ZM12.08,113.19c-.27,0-.54-.13-.71-.37-.46-.67-.91-1.38-1.34-2.1-.24-.4-.11-.93.29-1.17.4-.24.93-.11,1.17.29.41.69.85,1.37,1.29,2.01.27.39.16.92-.23,1.19-.15.1-.31.15-.48.15ZM75.53,109.85c-.13,0-.27-.03-.4-.1-.42-.22-.58-.73-.36-1.15.36-.69.71-1.42,1.04-2.15.19-.43.7-.62,1.13-.43.43.19.62.7.43,1.13-.34.76-.71,1.52-1.09,2.24-.15.29-.45.46-.76.46ZM9.57,109.01c-.31,0-.6-.16-.76-.45-.38-.72-.75-1.46-1.11-2.22-.2-.43-.02-.94.41-1.14.43-.2.94-.02,1.14.41.34.73.71,1.46,1.07,2.15.22.42.06.93-.35,1.16-.13.07-.26.1-.4.1ZM77.54,105.41c-.1,0-.21-.02-.31-.06-.44-.17-.66-.67-.49-1.11.28-.73.56-1.49.81-2.26.15-.45.63-.69,1.08-.54.45.15.69.63.54,1.08-.26.79-.55,1.58-.84,2.33-.13.34-.45.55-.8.55ZM7.49,104.59c-.33,0-.65-.2-.79-.53-.31-.75-.62-1.53-.91-2.3-.16-.44.06-.93.5-1.1.44-.16.93.06,1.1.5.28.76.58,1.51.88,2.24.18.44-.02.94-.46,1.12-.11.04-.22.07-.33.07ZM79.09,100.78c-.08,0-.16-.01-.23-.03-.45-.13-.72-.6-.59-1.06.22-.76.42-1.54.61-2.33.11-.46.57-.74,1.03-.63.46.11.74.57.63,1.03-.19.81-.41,1.61-.63,2.39-.11.38-.45.62-.82.62ZM5.79,100.01c-.36,0-.69-.23-.81-.59-.25-.77-.5-1.57-.73-2.36-.13-.45.13-.93.58-1.06.45-.13.93.13,1.06.58.23.78.47,1.55.71,2.31.15.45-.1.93-.55,1.08-.09.03-.18.04-.27.04ZM80.23,96.04c-.06,0-.11,0-.17-.02-.46-.09-.76-.54-.67-1.01.16-.77.3-1.57.43-2.37.08-.47.52-.78.98-.7.47.08.78.52.7.98-.14.82-.28,1.64-.44,2.43-.08.41-.44.69-.84.69ZM4.42,95.32c-.38,0-.73-.26-.83-.64-.2-.78-.4-1.59-.58-2.4-.1-.46.18-.92.64-1.02.46-.1.92.18,1.02.64.18.79.37,1.59.57,2.35.12.46-.16.92-.61,1.04-.07.02-.14.03-.21.03ZM81.03,91.22s-.08,0-.11,0c-.47-.06-.8-.49-.74-.96.1-.79.2-1.59.28-2.4.05-.47.47-.81.94-.76.47.05.81.47.76.94-.08.82-.18,1.65-.29,2.45-.06.43-.42.74-.85.74ZM3.33,90.55c-.4,0-.76-.28-.84-.69-.16-.8-.31-1.61-.45-2.43-.08-.47.23-.91.69-.99.47-.08.91.23.99.69.14.8.29,1.6.45,2.38.09.46-.21.91-.67,1.01-.06.01-.11.02-.17.02ZM81.53,86.37s-.04,0-.06,0c-.47-.03-.82-.45-.79-.92.06-.79.11-1.6.15-2.42.02-.47.43-.83.9-.81.47.02.83.42.81.9-.04.83-.09,1.66-.15,2.46-.03.45-.41.79-.85.79ZM2.49,85.73c-.42,0-.78-.3-.84-.73-.12-.8-.24-1.62-.34-2.43-.06-.47.27-.9.74-.96.47-.06.9.27.96.74.11.81.22,1.61.34,2.4.07.47-.25.9-.72.97-.04,0-.09,0-.13,0ZM81.77,81.49s-.01,0-.02,0c-.47-.01-.84-.4-.83-.88.02-.79.03-1.6.04-2.42,0-.47.38-.85.85-.85h0c.47,0,.85.39.85.86,0,.83-.02,1.66-.04,2.46-.01.46-.39.83-.85.83ZM1.86,80.9c-.43,0-.8-.32-.85-.76-.09-.8-.17-1.62-.25-2.45-.04-.47.3-.89.77-.93.48-.04.89.3.93.77.08.81.16,1.63.25,2.42.05.47-.29.89-.75.94-.03,0-.06,0-.1,0ZM1.4,76.03c-.44,0-.82-.34-.85-.79-.06-.81-.12-1.63-.17-2.45-.03-.47.33-.88.8-.91.48-.03.88.33.91.8.05.81.11,1.63.17,2.43.04.47-.32.88-.79.92-.02,0-.04,0-.07,0ZM1.1,71.15c-.45,0-.83-.36-.85-.81-.04-.83-.07-1.64-.1-2.45-.02-.47.35-.87.82-.88.48-.02.87.35.88.82.03.8.06,1.61.1,2.43.02.47-.34.87-.81.89-.01,0-.03,0-.04,0ZM.92,66.26c-.46,0-.84-.37-.85-.83-.02-.83-.03-1.65-.05-2.45,0-.47.37-.86.84-.87,0,0,0,0,.01,0,.47,0,.85.38.85.84.01.8.03,1.61.04,2.44.01.47-.36.86-.83.87,0,0-.01,0-.02,0ZM.86,61.37c-.47,0-.85-.38-.85-.85,0-.43,0-.85,0-1.27,0-.39,0-.78.01-1.19,0-.47.4-.85.87-.84.47,0,.85.4.84.87,0,.39,0,.78,0,1.16,0,.42,0,.84,0,1.27,0,.47-.38.86-.85.86h0ZM.95,56.49s-.03,0-.04,0c-.47-.02-.84-.42-.81-.9.04-.81.09-1.64.16-2.47.04-.47.45-.82.92-.78.47.04.82.45.78.92-.06.81-.12,1.63-.15,2.42-.02.46-.4.81-.85.81ZM1.33,51.61s-.06,0-.09,0c-.47-.05-.81-.47-.76-.94.09-.81.19-1.64.3-2.45.06-.47.5-.8.96-.73.47.06.8.49.73.96-.11.8-.21,1.61-.29,2.4-.05.44-.42.76-.85.76ZM1.98,46.77s-.09,0-.14-.01c-.47-.08-.78-.51-.71-.98.13-.81.27-1.62.43-2.43.09-.46.54-.77,1-.68.46.09.77.54.68,1-.15.79-.29,1.59-.42,2.39-.07.42-.43.72-.84.72ZM2.89,41.96c-.06,0-.12,0-.18-.02-.46-.1-.75-.56-.65-1.02.18-.8.36-1.61.56-2.4.11-.46.58-.74,1.04-.62.46.11.74.58.62,1.04-.19.78-.38,1.57-.55,2.36-.09.4-.44.67-.83.67ZM81.93,37.62c-.41,0-.77-.3-.84-.71,0,0-.15-.89-.52-2.33-.12-.46.16-.92.62-1.04.46-.12.92.16,1.04.62.39,1.52.54,2.43.55,2.47.08.47-.24.91-.7.98-.05,0-.1.01-.14.01ZM4.07,37.22c-.08,0-.15-.01-.23-.03-.45-.13-.72-.6-.59-1.05.22-.79.46-1.59.7-2.37.14-.45.62-.7,1.07-.56.45.14.7.62.56,1.07-.24.76-.47,1.54-.68,2.32-.11.38-.45.63-.82.63ZM80.74,32.85c-.37,0-.71-.24-.82-.61-.23-.76-.48-1.53-.75-2.29-.16-.45.08-.93.52-1.09.45-.16.93.08,1.09.52.27.78.53,1.58.77,2.36.14.45-.12.93-.57,1.07-.08.03-.17.04-.25.04ZM5.52,32.55c-.09,0-.19-.02-.28-.05-.45-.15-.68-.64-.53-1.09.27-.79.56-1.57.85-2.33.17-.44.66-.66,1.1-.49.44.17.66.66.49,1.1-.28.74-.56,1.5-.83,2.27-.12.35-.45.57-.81.57ZM79.12,28.23c-.34,0-.66-.2-.79-.54-.3-.75-.61-1.49-.94-2.22-.19-.43,0-.94.43-1.13.43-.19.94,0,1.13.43.34.75.66,1.52.97,2.29.17.44-.04.94-.48,1.11-.1.04-.21.06-.32.06ZM7.28,27.98c-.11,0-.23-.02-.33-.07-.43-.19-.64-.69-.45-1.12.33-.76.67-1.52,1.01-2.26.2-.43.71-.61,1.14-.41.43.2.61.71.41,1.14-.34.72-.67,1.46-.99,2.2-.14.32-.45.52-.79.52ZM77.11,23.77c-.31,0-.61-.17-.76-.47-.36-.72-.74-1.43-1.13-2.12-.23-.41-.09-.93.32-1.16.41-.23.93-.09,1.16.32.4.71.8,1.45,1.17,2.19.21.42.04.94-.38,1.15-.12.06-.25.09-.38.09ZM9.37,23.57c-.13,0-.27-.03-.39-.1-.42-.22-.58-.73-.36-1.15.38-.74.79-1.47,1.19-2.17.24-.41.76-.55,1.17-.31.41.24.55.76.31,1.17-.39.68-.78,1.39-1.16,2.11-.15.29-.45.46-.76.46ZM74.7,19.52c-.28,0-.56-.14-.72-.4-.43-.68-.88-1.35-1.34-1.99-.27-.39-.18-.92.2-1.19.38-.27.92-.18,1.19.2.47.67.94,1.36,1.39,2.07.25.4.13.93-.27,1.18-.14.09-.3.13-.46.13ZM11.81,19.34c-.16,0-.32-.04-.46-.14-.4-.25-.51-.78-.26-1.18.45-.7.92-1.39,1.39-2.05.27-.38.81-.47,1.19-.2.38.27.47.81.2,1.19-.46.64-.91,1.31-1.34,1.98-.16.25-.44.39-.72.39ZM71.87,15.54c-.25,0-.5-.11-.67-.32-.5-.63-1.02-1.24-1.54-1.83-.32-.35-.29-.89.07-1.21.35-.31.89-.29,1.21.07.55.61,1.09,1.25,1.61,1.9.29.37.23.91-.14,1.2-.16.13-.35.19-.53.19ZM14.64,15.38c-.19,0-.38-.06-.53-.19-.37-.29-.43-.83-.14-1.2.52-.65,1.06-1.29,1.6-1.9.32-.35.86-.38,1.21-.07.35.31.38.86.07,1.21-.52.58-1.04,1.2-1.54,1.82-.17.21-.42.32-.67.32ZM68.61,11.91c-.22,0-.43-.08-.6-.25-.57-.56-1.16-1.1-1.75-1.62-.36-.31-.4-.85-.09-1.21.31-.36.85-.4,1.21-.09.62.54,1.24,1.11,1.84,1.69.34.33.34.87,0,1.21-.17.17-.39.26-.61.26ZM17.9,11.76c-.22,0-.44-.08-.61-.25-.33-.34-.33-.88,0-1.21.59-.59,1.21-1.16,1.83-1.69.36-.31.9-.27,1.21.09.31.36.27.9-.09,1.21-.59.51-1.18,1.06-1.75,1.62-.17.16-.38.25-.6.25ZM64.92,8.72c-.18,0-.36-.06-.51-.17-.63-.48-1.29-.93-1.95-1.36-.4-.26-.51-.79-.25-1.18.26-.4.79-.51,1.18-.25.69.45,1.38.93,2.05,1.43.38.28.45.82.17,1.2-.17.22-.42.34-.68.34ZM21.58,8.56c-.26,0-.51-.12-.68-.34-.28-.38-.21-.91.17-1.2.67-.5,1.36-.99,2.05-1.44.4-.26.93-.14,1.18.25.26.4.14.93-.25,1.18-.66.43-1.32.89-1.95,1.37-.15.12-.34.17-.51.17ZM60.82,6.08c-.14,0-.28-.03-.41-.11-.69-.38-1.41-.74-2.12-1.07-.43-.2-.62-.7-.42-1.13.2-.43.7-.62,1.13-.42.75.35,1.51.72,2.23,1.12.41.23.56.75.34,1.16-.16.28-.45.44-.75.44ZM25.68,5.91c-.3,0-.59-.16-.75-.44-.23-.41-.08-.93.34-1.16.73-.4,1.48-.78,2.23-1.12.43-.2.94,0,1.13.42.2.43,0,.94-.42,1.13-.72.33-1.43.69-2.12,1.07-.13.07-.27.11-.41.11ZM56.39,4.04c-.1,0-.2-.02-.3-.05-.74-.28-1.49-.53-2.25-.76-.45-.13-.71-.61-.58-1.06.13-.45.61-.71,1.06-.58.8.24,1.59.5,2.37.79.44.17.67.66.5,1.1-.13.34-.45.55-.8.55ZM30.11,3.88c-.35,0-.67-.21-.8-.56-.16-.44.06-.93.5-1.1.78-.29,1.57-.55,2.37-.78.45-.13.93.13,1.06.58s-.13.93-.58,1.06c-.76.22-1.52.47-2.26.74-.1.04-.2.05-.3.05ZM51.73,2.65c-.06,0-.12,0-.19-.02-.77-.17-1.55-.32-2.34-.45-.47-.07-.78-.51-.71-.98.07-.47.51-.79.98-.71.82.13,1.65.29,2.45.47.46.1.75.56.65,1.02-.09.4-.44.67-.83.67ZM34.78,2.53c-.39,0-.75-.27-.83-.68-.1-.46.19-.92.66-1.01.8-.17,1.63-.32,2.46-.44.46-.07.9.26.97.72.07.47-.26.9-.72.97-.79.11-1.58.25-2.34.42-.06.01-.12.02-.18.02ZM46.91,1.89s-.05,0-.08,0c-.78-.07-1.58-.13-2.38-.16-.47-.02-.84-.41-.82-.89.02-.46.4-.82.85-.82.01,0,.02,0,.03,0,.83.03,1.67.09,2.48.16.47.04.81.46.77.93-.04.44-.41.77-.85.77ZM39.6,1.83c-.44,0-.82-.34-.85-.79-.04-.47.31-.88.78-.92.81-.06,1.65-.11,2.49-.12,0,0,.01,0,.02,0,.46,0,.85.37.85.84,0,.47-.37.86-.84.87-.8.01-1.6.05-2.38.12-.02,0-.05,0-.07,0Z" class="cls-2"/><g><path d="M86.97,35.25c1.01,2.68-.33,5.67-3.01,6.68s-5.67-.33-6.68-3.01c-1.01-2.68.33-5.67,3.01-6.68,2.68-1.01,5.67.33,6.68,3.01Z" class="cls-3"/><path d="M87.61,35.01c-1.15-3.03-4.54-4.56-7.57-3.41-3.03,1.15-4.56,4.54-3.41,7.57,1.15,3.03,4.54,4.56,7.57,3.41,3.03-1.15,4.56-4.54,3.41-7.57-1.15-3.03,1.15,3.03,0,0ZM77.92,38.69c-.88-2.32.29-4.91,2.61-5.79s4.91.29,5.79,2.61c.88,2.32-.29,4.91-2.61,5.79-2.32.88-4.91-.29-5.79-2.61-.88-2.32.88,2.32,0,0Z" class="cls-2"/><path d="M81.79,39.89v-4.27c-.79.61-1.33.91-1.6.91-.13,0-.25-.05-.35-.16-.1-.11-.15-.23-.15-.36,0-.16.05-.28.15-.35.1-.08.28-.17.53-.29.38-.18.68-.37.91-.56.23-.2.43-.42.6-.66.17-.24.29-.39.34-.45.05-.06.15-.08.3-.08.17,0,.3.06.4.19.1.13.15.31.15.53v5.37c0,.63-.21.94-.64.94-.19,0-.34-.06-.46-.19-.12-.13-.17-.32-.17-.57Z" class="cls-4"/></g></g><polygon points="78.59 79.79 81.78 78.43 84.97 79.79 81.78 72.23 78.59 79.79" class="cls-2"/><g><polygon points="70.28 70.24 71.65 67.06 70.31 63.87 77.86 67.08 70.28 70.24" class="cls-2"/><circle cx="82.26" cy="67.05" r="2.91" class="cls-2"/><path d="M73.04,67.91h-2.44c-.47,0-.85-.38-.85-.85s.38-.85.85-.85h2.44c.47,0,.85.38.85.85s-.38.85-.85.85ZM68.15,67.91h-2.44c-.47,0-.85-.38-.85-.85s.38-.85.85-.85h2.44c.47,0,.85.38.85.85s-.38.85-.85.85ZM63.27,67.91h-2.44c-.47,0-.85-.38-.85-.85s.38-.85.85-.85h2.44c.47,0,.85.38.85.85s-.38.85-.85.85ZM58.39,67.91h-2.44c-.47,0-.85-.38-.85-.85s.38-.85.85-.85h2.44c.47,0,.85.38.85.85s-.38.85-.85.85ZM53.5,67.91h-2.44c-.47,0-.85-.38-.85-.85s.38-.85.85-.85h2.44c.47,0,.85.38.85.85s-.38.85-.85.85ZM48.62,67.91h-2.44c-.47,0-.85-.38-.85-.85s.38-.85.85-.85h2.44c.47,0,.85.38.85.85s-.38.85-.85.85Z" class="cls-2"/><g><path d="M46.98,72.23c-2.86-.01-5.17-2.34-5.16-5.2.01-2.86,2.34-5.17,5.2-5.16,2.86.01,5.17,2.34,5.16,5.2-.01,2.86-2.34,5.17-5.2,5.16Z" class="cls-3"/><path d="M46.98,72.92c3.24.01,5.88-2.61,5.89-5.85.01-3.24-2.61-5.88-5.85-5.89-3.24-.01-5.88,2.61-5.89,5.85-.01,3.24,2.61,5.88,5.85,5.89,3.24.01-3.24-.01,0,0ZM47.02,62.56c2.48,0,4.48,2.03,4.47,4.51,0,2.48-2.03,4.48-4.51,4.47-2.48,0-4.48-2.03-4.47-4.51,0-2.48,2.03-4.48,4.51-4.47,2.48,0-2.48,0,0,0Z" class="cls-2"/></g><path d="M46.2,69.32h2.45c.24,0,.43.05.56.15.13.1.19.24.19.41,0,.15-.05.28-.15.39-.1.11-.26.16-.46.16h-3.45c-.23,0-.42-.06-.55-.19-.13-.13-.2-.28-.2-.46,0-.11.04-.26.13-.45.08-.19.18-.33.28-.44.42-.43.79-.8,1.13-1.11.33-.31.57-.51.72-.61.26-.18.47-.36.64-.55s.3-.37.39-.56c.09-.19.13-.38.13-.57,0-.2-.05-.38-.14-.54-.1-.16-.23-.28-.39-.37s-.34-.13-.54-.13c-.41,0-.73.18-.97.54-.03.05-.08.17-.16.38-.07.21-.16.37-.25.48-.09.11-.23.17-.41.17-.16,0-.29-.05-.39-.15s-.15-.24-.15-.42c0-.22.05-.44.15-.68.1-.23.24-.45.43-.64.19-.19.44-.34.73-.46.3-.12.64-.18,1.04-.18.48,0,.89.08,1.22.23.22.1.41.24.58.41.17.18.29.38.39.61.09.23.14.47.14.72,0,.39-.1.74-.29,1.06-.19.32-.39.57-.59.75-.2.18-.54.46-1.01.85-.47.38-.79.68-.97.9-.07.08-.15.19-.23.31Z" class="cls-4"/></g></g></g></svg>