<?xml version="1.0" encoding="UTF-8"?>
<svg id="Layer_2" data-name="Layer 2" xmlns="http://www.w3.org/2000/svg" viewBox="0 0 76.21 122.37">
  <defs>
    <style>
      .cls-1, .cls-2, .cls-3, .cls-4 {
        stroke-width: 0px;
      }

      .cls-2 {
        fill: #6f6f6e;
      }

      .cls-3 {
        fill: #fff;
      }

      .cls-4 {
        fill: #ff0600;
      }
    </style>
  </defs>
  <g id="Q">
    <g>
      <g>
        <path class="cls-2" d="M51.92,8.78c-.2,0-.41-.07-.57-.22-.01-.01-.28-.24-.87-.58-.41-.24-.55-.76-.31-1.17.24-.41.76-.55,1.17-.31.76.44,1.12.76,1.15.79.35.32.37.86.05,1.21-.17.18-.4.28-.63.28Z"/>
        <path class="cls-2" d="M31.51,75.69s-.01,0-.02,0c-.83-.02-1.66-.05-2.46-.11-.47-.03-.82-.44-.79-.91.03-.47.44-.82.91-.79.77.06,1.57.09,2.37.11.47,0,.85.4.84.87,0,.47-.39.84-.85.84ZM33.93,75.69c-.46,0-.84-.37-.85-.84-.01-.47.36-.86.84-.87.81-.02,1.61-.05,2.38-.1.47-.03.88.33.9.8.03.47-.33.88-.8.9-.8.05-1.62.08-2.45.1,0,0-.01,0-.02,0ZM38.76,75.39c-.43,0-.8-.33-.85-.77-.05-.47.29-.89.76-.94.81-.08,1.6-.18,2.36-.3.47-.07.9.25.97.72.07.47-.25.9-.72.97-.79.12-1.61.23-2.44.31-.03,0-.06,0-.09,0ZM26.68,75.34s-.08,0-.11,0c-.83-.11-1.65-.25-2.44-.4-.46-.09-.76-.54-.67-1.01.09-.46.54-.76,1.01-.67.75.15,1.54.28,2.33.39.47.06.8.49.74.96-.06.43-.42.74-.85.74ZM43.54,74.65c-.4,0-.75-.28-.84-.68-.1-.46.2-.92.66-1.01.79-.17,1.56-.35,2.3-.56.45-.13.93.14,1.05.59.13.45-.14.93-.59,1.05-.77.22-1.58.41-2.4.59-.06.01-.12.02-.18.02ZM21.95,74.38c-.08,0-.15-.01-.23-.03-.81-.23-1.6-.48-2.37-.76-.44-.16-.67-.65-.51-1.1.16-.44.65-.67,1.1-.51.72.27,1.47.51,2.23.72.45.13.72.6.59,1.05-.11.38-.45.63-.82.63ZM17.42,72.71c-.12,0-.25-.03-.37-.08-.76-.36-1.5-.75-2.2-1.17-.41-.24-.54-.77-.3-1.17.24-.41.77-.54,1.17-.3.66.39,1.36.76,2.06,1.1.43.2.61.71.41,1.14-.15.31-.45.49-.77.49ZM13.27,70.24c-.18,0-.35-.05-.51-.17-.67-.49-1.32-1.02-1.94-1.58-.35-.32-.38-.86-.06-1.21.32-.35.86-.38,1.21-.06.58.52,1.18,1.02,1.81,1.47.38.28.46.81.18,1.19-.17.23-.43.35-.69.35ZM9.69,67c-.23,0-.46-.09-.63-.28-.55-.61-1.09-1.26-1.59-1.92-.28-.38-.21-.91.17-1.2.38-.28.91-.21,1.2.17.47.63.97,1.23,1.49,1.8.32.35.29.89-.06,1.21-.16.15-.37.22-.58.22ZM6.79,63.15c-.29,0-.56-.14-.73-.4-.43-.69-.84-1.42-1.23-2.16-.22-.42-.05-.94.37-1.15.42-.22.94-.05,1.15.37.36.7.75,1.39,1.16,2.04.25.4.13.93-.27,1.18-.14.09-.3.13-.45.13ZM4.57,58.85c-.33,0-.65-.2-.79-.52-.32-.74-.62-1.52-.89-2.31-.16-.45.08-.93.52-1.09.45-.16.93.08,1.09.52.26.75.55,1.49.85,2.2.18.43-.02.94-.45,1.12-.11.05-.22.07-.33.07ZM2.96,54.29c-.37,0-.71-.25-.82-.62-.22-.77-.43-1.57-.61-2.39-.11-.46.18-.92.64-1.02.46-.11.92.18,1.02.64.18.78.38,1.56.59,2.3.13.45-.13.93-.59,1.06-.08.02-.16.03-.23.03ZM1.88,49.58c-.41,0-.77-.29-.84-.7-.14-.79-.27-1.6-.38-2.42-.06-.47.26-.9.73-.96.47-.06.9.26.96.73.11.8.24,1.59.37,2.35.08.46-.22.91-.69.99-.05,0-.1.01-.15.01ZM1.22,44.79c-.43,0-.81-.33-.85-.77-.08-.79-.15-1.62-.2-2.44-.03-.47.33-.88.8-.91.47-.03.88.33.91.8.05.81.12,1.61.19,2.38.05.47-.3.89-.77.93-.03,0-.06,0-.09,0ZM.9,39.96c-.46,0-.84-.36-.85-.83-.03-.8-.04-1.62-.05-2.44,0-.47.38-.86.85-.86h0c.47,0,.85.38.85.85,0,.81.02,1.61.05,2.4.02.47-.35.87-.83.88,0,0-.02,0-.03,0ZM.9,35.12s-.03,0-.04,0c-.47-.02-.84-.42-.81-.89.04-.83.1-1.66.19-2.46.05-.47.47-.8.94-.76.47.05.81.47.76.94-.08.77-.15,1.56-.18,2.36-.02.46-.4.82-.85.82ZM1.43,30.32s-.1,0-.15-.01c-.46-.08-.77-.53-.69-.99.15-.82.32-1.63.52-2.42.12-.46.58-.73,1.04-.62.46.12.73.58.62,1.04-.19.75-.36,1.53-.5,2.3-.07.41-.43.7-.84.7ZM2.61,25.64c-.09,0-.18-.01-.27-.04-.45-.15-.69-.63-.54-1.08.26-.79.56-1.57.88-2.32.18-.44.68-.64,1.12-.45.43.18.64.69.45,1.12-.3.72-.58,1.46-.83,2.2-.12.36-.45.58-.81.58ZM4.5,21.19c-.13,0-.27-.03-.39-.1-.42-.22-.58-.73-.36-1.15.38-.73.8-1.46,1.23-2.16.25-.4.78-.52,1.18-.27.4.25.52.78.27,1.18-.41.66-.81,1.35-1.16,2.04-.15.29-.45.46-.76.46ZM7.06,17.09c-.18,0-.36-.05-.51-.17-.38-.28-.46-.82-.18-1.2.49-.66,1.02-1.31,1.56-1.94.31-.35.85-.39,1.21-.08.36.31.39.85.08,1.21-.52.59-1.01,1.2-1.48,1.83-.17.23-.43.35-.69.35ZM10.24,13.45c-.22,0-.44-.09-.61-.26-.33-.34-.32-.88.02-1.21.59-.57,1.21-1.13,1.85-1.66.36-.3.9-.25,1.2.11.3.36.25.9-.11,1.2-.6.5-1.19,1.03-1.75,1.58-.17.16-.38.24-.6.24ZM13.95,10.35c-.27,0-.53-.12-.7-.36-.27-.38-.18-.92.2-1.19.67-.48,1.37-.94,2.08-1.36.4-.24.93-.12,1.17.29.24.4.12.93-.29,1.17-.67.41-1.33.84-1.97,1.29-.15.11-.32.16-.5.16ZM18.09,7.85c-.31,0-.61-.17-.76-.47-.21-.42-.05-.94.38-1.15.74-.37,1.49-.72,2.25-1.04.44-.18.94.02,1.12.46.18.44-.02.94-.46,1.12-.72.3-1.44.63-2.14.99-.12.06-.26.09-.39.09ZM48.73,7.05c-.11,0-.21-.02-.32-.06-.68-.27-1.42-.53-2.21-.76-.45-.13-.71-.61-.58-1.06.13-.45.61-.71,1.06-.58.84.25,1.63.52,2.36.81.44.17.65.67.48,1.11-.13.33-.45.54-.79.54ZM22.56,5.98c-.36,0-.69-.23-.81-.58-.15-.45.09-.93.54-1.08.79-.26,1.59-.5,2.39-.69.46-.11.92.17,1.04.62.11.46-.17.92-.62,1.04-.75.19-1.51.41-2.26.66-.09.03-.18.04-.27.04ZM44.1,5.67c-.06,0-.12,0-.18-.02-.74-.16-1.53-.31-2.33-.44-.47-.08-.78-.51-.71-.98s.51-.78.98-.71c.84.13,1.65.29,2.42.46.46.1.75.56.65,1.02-.09.4-.44.67-.83.67ZM39.32,4.89s-.06,0-.1,0c-.77-.09-1.57-.16-2.38-.22-.47-.03-.82-.44-.79-.91.03-.47.44-.83.91-.79.83.06,1.65.14,2.44.23.47.05.81.48.75.95-.05.44-.42.76-.85.76ZM27.25,4.82c-.41,0-.77-.3-.84-.72-.08-.47.24-.91.71-.98.83-.14,1.67-.23,2.48-.29.47-.03.88.32.91.79s-.32.88-.79.91c-.76.05-1.55.15-2.33.27-.05,0-.09.01-.14.01ZM34.5,4.54s-.02,0-.03,0c-.78-.03-1.59-.05-2.39-.05-.47,0-.85-.39-.85-.86,0-.47.39-.86.86-.85.82,0,1.65.03,2.45.06.47.02.84.42.82.89-.02.46-.4.82-.85.82Z"/>
        <path class="cls-2" d="M48.27,73.32c-.35,0-.68-.21-.8-.56-.16-.44.06-.93.51-1.1.37-.14.74-.28,1.1-.43.43-.18.94.02,1.12.46s-.02.94-.46,1.12c-.38.16-.78.32-1.17.46-.1.04-.2.05-.29.05Z"/>
      </g>
      <g>
        <g>
          <path class="cls-3" d="M56.25,2.59c1.81,2.22,1.48,5.48-.74,7.29-2.22,1.81-5.48,1.48-7.29-.74-1.81-2.22-1.48-5.48.74-7.29,2.22-1.81,5.48-1.48,7.29.74Z"/>
          <path class="cls-4" d="M51.94,8.73v-4.27c-.79.61-1.33.91-1.6.91-.13,0-.25-.05-.35-.16-.1-.11-.15-.23-.15-.36,0-.16.05-.28.15-.35.1-.08.28-.17.53-.29.38-.18.68-.37.91-.56.23-.2.43-.42.6-.66.17-.24.29-.39.34-.45.05-.06.15-.08.3-.08.17,0,.3.06.4.19.1.13.15.31.15.53v5.37c0,.63-.21.94-.64.94-.19,0-.34-.06-.46-.19-.12-.13-.17-.32-.17-.57Z"/>
          <path class="cls-2" d="M56.78,2.16c-2.05-2.51-5.75-2.88-8.26-.84-2.51,2.05-2.88,5.75-.84,8.26,2.05,2.51,5.75,2.88,8.26.84,2.51-2.05,2.88-5.75.84-8.26-2.05-2.51,2.05,2.51,0,0ZM48.75,8.71c-1.57-1.92-1.28-4.75.64-6.32,1.92-1.57,4.75-1.28,6.32.64,1.57,1.92,1.28,4.75-.64,6.32-1.92,1.57-4.75,1.28-6.32-.64-1.57-1.92,1.57,1.92,0,0Z"/>
        </g>
        <polygon class="cls-2" points="48.87 75.91 48.35 72.49 45.52 70.48 53.63 69.23 48.87 75.91"/>
        <path class="cls-2" d="M59.36,66.96c0,1.61-1.3,2.91-2.91,2.91s-2.91-1.3-2.91-2.91,1.3-2.91,2.91-2.91,2.91,1.3,2.91,2.91Z"/>
      </g>
      <g>
        <path class="cls-1" d="M62.01,122.34c-.81,0-1.47-.66-1.47-1.47V10.38c0-.81.66-1.47,1.47-1.47s1.47.66,1.47,1.47v110.5c0,.81-.66,1.47-1.47,1.47Z"/>
        <path class="cls-1" d="M35.33,70.33c-15.52,0-28.14-12.63-28.14-28.14v-5.13c0-15.52,12.63-28.14,28.14-28.14s28.14,12.63,28.14,28.14v5.13c0,15.52-12.63,28.14-28.14,28.14ZM35.33,11.84c-13.9,0-25.21,11.31-25.21,25.21v5.13c0,13.9,11.31,25.21,25.21,25.21s25.21-11.31,25.21-25.21v-5.13c0-13.9-11.31-25.21-25.21-25.21Z"/>
      </g>
      <g>
        <g>
          <path class="cls-2" d="M69.47,107.61v-2.58c0-.48.39-.86.86-.86s.86.39.86.86v2.58c0,.48-.39.86-.86.86s-.86-.39-.86-.86ZM69.47,102.44v-2.58c0-.48.39-.86.86-.86s.86.39.86.86v2.58c0,.48-.39.86-.86.86s-.86-.39-.86-.86ZM69.48,97.27v-2.58c0-.48.39-.86.86-.86s.86.39.86.86v2.58c0,.48-.39.86-.86.86s-.86-.39-.86-.86ZM69.48,91.99v-2.58c0-.48.39-.86.86-.86s.86.39.86.86v2.58c0,.48-.39.86-.86.86s-.86-.39-.86-.86ZM69.48,86.82v-2.58c0-.48.39-.86.86-.86s.86.39.86.86v2.58c0,.48-.39.86-.86.86s-.86-.39-.86-.86ZM69.48,81.65v-2.58c0-.48.39-.86.86-.86s.86.39.86.86v2.58c0,.48-.39.86-.86.86s-.86-.39-.86-.86ZM69.48,76.48v-2.58c0-.48.39-.86.86-.86s.86.39.86.86v2.58c0,.48-.39.86-.86.86s-.86-.39-.86-.86ZM69.48,71.32v-2.58c0-.48.39-.86.86-.86s.86.39.86.86v2.58c0,.48-.39.86-.86.86s-.86-.39-.86-.86Z"/>
          <path class="cls-2" d="M69.47,65.97v-2.58c0-.48.39-.86.86-.86s.86.39.86.86v2.58c0,.48-.39.86-.86.86s-.86-.39-.86-.86ZM69.47,60.81v-2.58c0-.48.39-.86.86-.86s.86.39.86.86v2.58c0,.48-.39.86-.86.86s-.86-.39-.86-.86ZM69.48,55.64v-2.58c0-.48.39-.86.86-.86s.86.39.86.86v2.58c0,.48-.39.86-.86.86s-.86-.39-.86-.86ZM69.48,50.35v-2.58c0-.48.39-.86.86-.86s.86.39.86.86v2.58c0,.48-.39.86-.86.86s-.86-.39-.86-.86ZM69.48,45.18v-2.58c0-.48.39-.86.86-.86s.86.39.86.86v2.58c0,.48-.39.86-.86.86s-.86-.39-.86-.86ZM69.48,40.02v-2.58c0-.48.39-.86.86-.86s.86.39.86.86v2.58c0,.48-.39.86-.86.86s-.86-.39-.86-.86ZM69.48,34.85v-2.58c0-.48.39-.86.86-.86s.86.39.86.86v2.58c0,.48-.39.86-.86.86s-.86-.39-.86-.86ZM69.48,29.68v-2.58c0-.48.39-.86.86-.86s.86.39.86.86v2.58c0,.48-.39.86-.86.86s-.86-.39-.86-.86ZM69.48,24.47v-2.58c0-.48.39-.86.86-.86s.86.39.86.86v2.58c0,.48-.39.86-.86.86s-.86-.39-.86-.86ZM69.48,19.3v-2.58c0-.48.39-.86.86-.86s.86.39.86.86v2.58c0,.48-.39.86-.86.86s-.86-.39-.86-.86Z"/>
          <g>
            <path class="cls-3" d="M75.53,14.28c0-2.86-2.32-5.18-5.18-5.18-2.86,0-5.18,2.32-5.18,5.18,0,2.86,2.32,5.18,5.18,5.18,2.86,0,5.18-2.32,5.18-5.18Z"/>
            <path class="cls-4" d="M69.53,16.36h2.45c.24,0,.43.05.56.15.13.1.19.24.19.41,0,.15-.05.28-.15.39-.1.11-.26.16-.46.16h-3.45c-.23,0-.42-.06-.55-.19-.13-.13-.2-.28-.2-.46,0-.11.04-.26.13-.45.08-.19.18-.33.28-.44.42-.43.79-.8,1.13-1.11.33-.31.57-.51.72-.61.26-.18.47-.36.64-.55s.3-.37.39-.56c.09-.19.13-.38.13-.57,0-.2-.05-.38-.14-.54s-.23-.28-.39-.37c-.16-.09-.34-.13-.54-.13-.41,0-.73.18-.97.54-.03.05-.08.17-.16.38-.07.21-.16.37-.25.48-.09.11-.23.17-.41.17-.16,0-.29-.05-.39-.15-.1-.1-.16-.24-.16-.42,0-.22.05-.44.15-.68.1-.23.24-.45.43-.64.19-.19.44-.34.73-.46s.64-.18,1.04-.18c.48,0,.89.08,1.22.23.22.1.41.24.58.41.17.18.3.38.39.61.09.23.14.47.14.72,0,.39-.1.74-.29,1.06-.19.32-.39.57-.59.75-.2.18-.54.46-1.01.85-.47.38-.79.68-.97.9-.08.08-.15.19-.23.31Z"/>
            <path class="cls-2" d="M76.21,14.28c0-3.24-2.63-5.87-5.87-5.87-3.24,0-5.87,2.63-5.87,5.87,0,3.24,2.63,5.87,5.87,5.87,3.24,0,5.87-2.63,5.87-5.87,0-3.24,0,3.24,0,0ZM65.85,14.28c0-2.48,2.02-4.49,4.49-4.49s4.49,2.02,4.49,4.49c0,2.48-2.02,4.49-4.49,4.49-2.48,0-4.49-2.02-4.49-4.49,0-2.48,0,2.48,0,0Z"/>
          </g>
          <polygon class="cls-2" points="73.52 108.05 70.34 109.4 67.15 108.04 70.33 115.61 73.52 108.05"/>
        </g>
        <circle class="cls-2" cx="70.31" cy="119.46" r="2.91"/>
      </g>
    </g>
  </g>
</svg>