<?xml version="1.0" encoding="UTF-8"?>
<svg id="Layer_2" data-name="Layer 2" xmlns="http://www.w3.org/2000/svg" viewBox="0 0 89.57 125.94">
  <defs>
    <style>
      .cls-1, .cls-2, .cls-3, .cls-4 {
        stroke-width: 0px;
      }

      .cls-2 {
        fill: #6f6f6e;
      }

      .cls-3 {
        fill: #fff;
      }

      .cls-4 {
        fill: #ff0600;
      }
    </style>
  </defs>
  <g id="Q">
    <g>
      <path class="cls-1" d="M43.76,120.26c-9.84,0-19.05-5.94-25.92-16.73-6.74-10.59-10.46-24.63-10.46-39.55s3.71-28.96,10.46-39.55c6.87-10.79,16.08-16.73,25.92-16.73s19.05,5.94,25.92,16.73c6.74,10.59,10.46,24.63,10.46,39.55s-3.71,28.96-10.46,39.55c-6.87,10.79-16.08,16.73-25.92,16.73ZM43.76,10.62c-18.44,0-33.45,23.93-33.45,53.35s15.01,53.35,33.45,53.35,33.45-23.93,33.45-53.35S62.21,10.62,43.76,10.62Z"/>
      <path class="cls-2" d="M43.76,125.94c-.45,0-.9,0-1.34-.03-.47-.02-.84-.42-.82-.89.02-.47.42-.84.89-.82.78.03,1.59.04,2.37,0,.01,0,.02,0,.03,0,.46,0,.84.36.85.82.02.47-.35.87-.82.89-.39.01-.78.02-1.17.02ZM47.33,125.73c-.43,0-.8-.32-.85-.76-.05-.47.28-.89.75-.95.78-.09,1.57-.22,2.34-.37.46-.09.91.21,1,.67.09.46-.21.91-.67,1-.82.16-1.65.29-2.48.39-.03,0-.07,0-.1,0ZM40.03,125.71s-.07,0-.1,0c-.83-.1-1.66-.24-2.48-.4-.46-.09-.76-.54-.67-1.01.09-.46.54-.76,1.01-.67.77.16,1.56.28,2.34.38.47.06.8.48.75.95-.05.43-.42.75-.85.75ZM52.11,124.79c-.37,0-.72-.25-.82-.62-.13-.45.14-.93.59-1.05.76-.21,1.52-.46,2.26-.73.44-.16.93.07,1.1.51.16.44-.07.93-.51,1.1-.79.29-1.59.54-2.39.77-.08.02-.15.03-.23.03ZM35.25,124.74c-.08,0-.16-.01-.23-.03-.79-.23-1.59-.49-2.37-.78-.44-.16-.67-.65-.51-1.1.16-.44.65-.67,1.1-.51.74.27,1.5.52,2.25.74.45.13.72.6.59,1.06-.11.38-.45.62-.82.62ZM56.7,123.12c-.33,0-.64-.19-.78-.5-.19-.43,0-.94.43-1.13.72-.32,1.43-.68,2.14-1.05.42-.22.93-.07,1.16.35s.07.93-.35,1.16c-.74.39-1.49.77-2.24,1.1-.11.05-.23.08-.35.08ZM30.68,123.06c-.12,0-.24-.02-.35-.08-.75-.34-1.5-.72-2.24-1.11-.42-.22-.57-.74-.34-1.16.22-.41.74-.57,1.16-.34.7.38,1.42.74,2.13,1.06.43.2.62.7.42,1.13-.14.32-.45.5-.78.5ZM61,120.82c-.28,0-.56-.14-.73-.4-.25-.4-.13-.93.27-1.18.67-.42,1.33-.86,1.98-1.33.38-.28.92-.19,1.19.2.28.38.19.92-.2,1.19-.68.49-1.37.95-2.07,1.39-.14.09-.3.13-.45.13ZM26.4,120.74c-.16,0-.31-.04-.46-.13-.69-.44-1.39-.91-2.07-1.4-.38-.28-.47-.81-.19-1.19.28-.38.81-.47,1.19-.19.65.47,1.31.92,1.98,1.34.4.25.52.78.27,1.18-.16.26-.44.4-.72.4ZM64.96,117.98c-.25,0-.49-.11-.66-.32-.3-.37-.24-.9.12-1.2.61-.5,1.22-1.02,1.81-1.56.35-.32.89-.29,1.21.05.32.35.29.89-.05,1.21-.61.56-1.25,1.11-1.88,1.63-.16.13-.35.19-.54.19ZM22.44,117.88c-.19,0-.38-.06-.54-.19-.63-.52-1.26-1.07-1.88-1.63-.35-.32-.37-.86-.05-1.21.32-.35.86-.37,1.21-.05.59.54,1.2,1.07,1.81,1.57.36.3.42.84.12,1.2-.17.21-.41.31-.66.31ZM68.56,114.69c-.22,0-.43-.08-.6-.25-.34-.33-.34-.87-.01-1.21.55-.56,1.1-1.15,1.64-1.75.31-.35.85-.38,1.21-.07.35.31.39.85.07,1.21-.55.62-1.12,1.23-1.7,1.82-.17.17-.39.26-.61.26ZM18.85,114.58c-.22,0-.44-.09-.61-.26-.57-.59-1.14-1.2-1.69-1.82-.31-.35-.28-.89.08-1.21.35-.31.89-.28,1.21.08.53.6,1.08,1.19,1.63,1.76.33.34.32.88-.01,1.21-.17.16-.38.24-.6.24ZM71.81,111.04c-.19,0-.38-.06-.54-.19-.37-.3-.43-.83-.13-1.2.49-.61.99-1.26,1.46-1.91.28-.38.81-.46,1.19-.18.38.28.46.81.18,1.19-.49.67-1,1.33-1.51,1.97-.17.21-.42.32-.67.32ZM15.62,110.92c-.25,0-.5-.11-.67-.32-.51-.64-1.02-1.3-1.5-1.97-.28-.38-.19-.92.19-1.19.38-.28.92-.19,1.19.19.47.65.96,1.29,1.46,1.91.29.37.24.91-.13,1.2-.16.13-.35.19-.53.19ZM74.69,107.1c-.16,0-.33-.05-.47-.14-.39-.26-.5-.79-.24-1.19.44-.66.87-1.34,1.29-2.03.25-.4.77-.53,1.17-.29.4.25.53.77.29,1.17-.43.71-.88,1.41-1.33,2.09-.16.25-.44.38-.71.38ZM12.75,106.97c-.28,0-.55-.13-.71-.38-.45-.68-.9-1.38-1.33-2.09-.24-.4-.12-.93.29-1.17.4-.24.93-.11,1.17.29.42.69.85,1.37,1.29,2.03.26.39.15.92-.24,1.18-.15.1-.31.14-.47.14ZM77.23,102.93c-.14,0-.28-.03-.41-.11-.41-.23-.56-.75-.33-1.16.39-.7.77-1.41,1.13-2.13.21-.42.73-.59,1.15-.38.42.21.59.73.38,1.15-.37.74-.76,1.47-1.16,2.19-.16.28-.45.44-.75.44ZM10.22,102.8c-.3,0-.59-.16-.75-.44-.39-.71-.78-1.45-1.15-2.19-.21-.42-.04-.94.38-1.15.42-.21.94-.04,1.15.38.36.72.74,1.44,1.12,2.13.23.41.08.93-.33,1.16-.13.07-.27.11-.41.11ZM79.44,98.58c-.12,0-.24-.03-.36-.08-.43-.2-.62-.71-.42-1.13.33-.72.66-1.46.97-2.21.18-.44.68-.64,1.12-.46.44.18.64.68.46,1.12-.32.76-.65,1.52-1,2.26-.14.31-.45.5-.78.5ZM8.02,98.44c-.32,0-.63-.18-.78-.5-.34-.74-.67-1.5-.99-2.26-.18-.44.02-.94.46-1.12.44-.18.94.02,1.12.46.31.74.64,1.49.97,2.21.2.43,0,.94-.42,1.13-.12.05-.24.08-.36.08ZM81.33,94.08c-.1,0-.2-.02-.3-.06-.44-.17-.66-.66-.5-1.1.28-.75.56-1.51.82-2.27.15-.45.64-.68,1.09-.53.45.15.68.64.53,1.09-.27.78-.55,1.56-.84,2.32-.13.34-.45.55-.8.55ZM6.14,93.93c-.35,0-.67-.21-.8-.55-.29-.76-.57-1.54-.83-2.32-.15-.45.09-.93.53-1.08.45-.15.93.09,1.08.53.26.76.53,1.53.82,2.27.17.44-.06.93-.5,1.1-.1.04-.2.06-.3.06ZM82.92,89.46c-.08,0-.17-.01-.25-.04-.45-.14-.7-.62-.57-1.07.23-.76.46-1.54.68-2.32.12-.46.6-.72,1.05-.6.46.12.72.6.6,1.05-.22.79-.45,1.59-.69,2.37-.11.37-.45.6-.82.6ZM4.56,89.31c-.37,0-.7-.24-.82-.6-.24-.78-.47-1.58-.69-2.37-.12-.46.14-.93.6-1.05.46-.12.93.14,1.05.6.21.78.44,1.56.67,2.32.14.45-.12.93-.57,1.07-.08.03-.17.04-.25.04ZM84.21,84.75c-.07,0-.13,0-.2-.02-.46-.11-.74-.57-.63-1.03.19-.78.37-1.57.53-2.36.1-.46.55-.76,1.01-.66.46.1.76.55.66,1.01-.17.8-.35,1.61-.55,2.41-.09.39-.44.65-.83.65ZM3.28,84.6c-.39,0-.74-.26-.83-.66-.19-.79-.37-1.6-.54-2.41-.1-.46.2-.91.66-1.01.46-.1.92.2,1.01.66.17.79.34,1.58.53,2.36.11.46-.17.92-.63,1.03-.07.02-.13.02-.2.02ZM85.22,79.97c-.05,0-.1,0-.15-.01-.46-.08-.77-.53-.69-.99.14-.79.28-1.59.4-2.38.07-.47.51-.79.97-.72.47.07.79.51.72.97-.12.81-.26,1.63-.41,2.43-.07.41-.43.7-.84.7ZM2.27,79.82c-.41,0-.77-.29-.84-.7-.14-.8-.28-1.62-.4-2.43-.07-.47.25-.9.72-.97.47-.07.9.25.97.72.12.8.25,1.6.39,2.39.08.46-.23.91-.69.99-.05,0-.1.01-.15.01ZM85.96,75.14s-.07,0-.11,0c-.47-.06-.8-.49-.74-.95.1-.79.19-1.6.27-2.4.05-.47.46-.82.93-.77.47.05.81.46.77.93-.08.82-.17,1.64-.27,2.45-.05.43-.42.75-.85.75ZM1.54,74.99c-.43,0-.79-.32-.85-.75-.1-.81-.19-1.63-.27-2.45-.04-.47.3-.89.77-.93.47-.04.89.3.93.77.08.8.17,1.61.26,2.4.06.47-.28.9-.74.95-.04,0-.07,0-.11,0ZM86.43,70.28s-.04,0-.06,0c-.47-.03-.83-.44-.79-.91.06-.8.1-1.61.14-2.42.02-.47.42-.84.89-.82.47.02.84.42.82.89-.04.82-.08,1.65-.14,2.46-.03.45-.41.79-.85.79ZM1.08,70.13c-.45,0-.82-.34-.85-.8-.06-.81-.1-1.64-.14-2.46-.02-.47.35-.87.82-.89.47-.01.87.35.89.82.03.8.08,1.62.14,2.42.03.47-.32.88-.79.91-.02,0-.04,0-.06,0ZM86.65,65.41s-.01,0-.02,0c-.47,0-.85-.4-.84-.87.01-.6.02-1.2.02-1.8,0-.21,0-.41,0-.62,0-.47.38-.86.85-.86.47,0,.86.38.86.85,0,.21,0,.42,0,.63,0,.61,0,1.23-.02,1.84,0,.47-.39.84-.85.84ZM.87,65.25c-.47,0-.85-.37-.85-.84,0-.56-.01-1.12-.01-1.68,0-.26,0-.52,0-.78,0-.47.38-.86.86-.85.47,0,.85.39.85.86,0,.26,0,.51,0,.77,0,.55,0,1.1.01,1.65,0,.47-.37.86-.84.87h-.02ZM86.62,60.52c-.46,0-.84-.36-.85-.83-.03-.8-.06-1.62-.11-2.42-.03-.47.33-.88.8-.9.47-.02.88.33.9.8.05.81.08,1.64.11,2.46.02.47-.36.87-.83.88,0,0-.02,0-.03,0ZM.91,60.37s-.02,0-.03,0c-.47-.02-.84-.41-.83-.88.03-.82.07-1.65.11-2.46.03-.47.43-.83.9-.8.47.03.83.43.8.9-.05.8-.09,1.61-.11,2.42-.02.46-.4.83-.85.83ZM86.34,55.65c-.44,0-.81-.34-.85-.78-.07-.8-.15-1.61-.24-2.41-.05-.47.29-.89.75-.94.47-.05.89.29.94.75.09.81.17,1.63.24,2.45.04.47-.31.88-.78.92-.02,0-.05,0-.07,0ZM1.2,55.49s-.05,0-.07,0c-.47-.04-.82-.45-.78-.92.07-.82.15-1.64.24-2.45.05-.47.48-.81.95-.75.47.05.81.48.75.95-.09.79-.17,1.6-.24,2.41-.04.45-.41.78-.85.78ZM85.79,50.8c-.42,0-.79-.31-.85-.74-.11-.8-.23-1.6-.37-2.39-.08-.47.24-.91.7-.98.47-.08.91.24.98.7.14.8.26,1.62.37,2.44.07.47-.26.9-.73.96-.04,0-.08,0-.12,0ZM1.75,50.64s-.08,0-.12,0c-.47-.07-.79-.5-.73-.97.12-.81.24-1.63.38-2.44.08-.47.52-.78.99-.7.47.08.78.52.7.99-.13.79-.26,1.59-.37,2.39-.06.43-.43.74-.85.74ZM84.98,45.99c-.4,0-.76-.28-.84-.69-.16-.79-.33-1.58-.5-2.36-.11-.46.18-.92.64-1.02.46-.1.92.18,1.02.64.18.79.35,1.61.51,2.41.09.46-.21.91-.67,1-.06.01-.11.02-.17.02ZM2.57,45.83c-.06,0-.11,0-.17-.02-.46-.09-.76-.54-.67-1.01.16-.81.34-1.62.52-2.41.11-.46.56-.75,1.02-.64.46.11.75.56.64,1.02-.18.78-.35,1.57-.51,2.36-.08.41-.44.69-.84.69ZM83.89,41.23c-.38,0-.73-.25-.83-.64-.2-.78-.42-1.56-.64-2.33-.13-.45.13-.93.58-1.06.45-.13.93.13,1.06.58.23.78.45,1.58.66,2.38.12.46-.15.92-.61,1.04-.07.02-.14.03-.22.03ZM3.67,41.07c-.07,0-.15,0-.22-.03-.46-.12-.73-.59-.61-1.04.21-.8.43-1.6.66-2.38.13-.45.61-.71,1.06-.58.45.13.71.61.58,1.06-.23.76-.45,1.55-.65,2.33-.1.38-.45.64-.83.64ZM5.06,36.39c-.09,0-.18-.01-.27-.04-.45-.15-.69-.63-.54-1.08.26-.78.53-1.57.82-2.33.16-.44.65-.67,1.1-.51s.67.65.51,1.1c-.28.75-.54,1.51-.8,2.28-.12.36-.45.59-.81.59ZM6.75,31.8c-.11,0-.22-.02-.32-.06-.44-.18-.65-.68-.47-1.11.31-.77.64-1.53.97-2.27.19-.43.7-.62,1.13-.43.43.19.62.7.43,1.13-.33.72-.65,1.47-.95,2.22-.14.33-.45.53-.79.53ZM8.75,27.35c-.13,0-.26-.03-.38-.09-.42-.21-.6-.72-.39-1.14.37-.74.75-1.48,1.14-2.2.23-.41.74-.57,1.16-.34.41.23.57.74.34,1.16-.38.7-.75,1.42-1.11,2.14-.15.3-.45.48-.77.48ZM11.08,23.06c-.15,0-.3-.04-.44-.12-.41-.24-.54-.77-.3-1.17.42-.71.86-1.42,1.31-2.1.26-.4.79-.51,1.18-.25s.51.79.25,1.18c-.43.66-.86,1.35-1.27,2.04-.16.27-.44.42-.74.42ZM75.32,21.25c-.28,0-.56-.14-.72-.39-.27-.42-.55-.83-.82-1.24-.27-.39-.17-.92.22-1.19.39-.27.92-.17,1.19.22.29.42.57.85.85,1.28.26.4.14.93-.25,1.18-.14.09-.3.14-.46.14ZM13.75,18.97c-.17,0-.35-.05-.5-.16-.38-.27-.47-.81-.2-1.19.48-.67.99-1.34,1.49-1.98.29-.37.83-.43,1.2-.14s.43.83.14,1.2c-.49.62-.98,1.27-1.44,1.92-.17.23-.43.36-.7.36ZM73.07,18.01c-.26,0-.52-.12-.68-.34-.48-.64-.98-1.28-1.49-1.89-.3-.36-.25-.9.11-1.2.36-.3.9-.25,1.2.11.52.63,1.04,1.29,1.54,1.95.28.38.21.91-.17,1.2-.15.12-.33.17-.51.17ZM16.78,15.14c-.2,0-.4-.07-.56-.21-.36-.31-.39-.85-.08-1.21.55-.63,1.11-1.24,1.68-1.83.33-.34.87-.35,1.21-.02.34.33.35.87.02,1.21-.55.57-1.09,1.16-1.62,1.77-.17.19-.41.29-.65.29ZM69.95,14.25c-.23,0-.46-.09-.63-.28-.54-.59-1.1-1.17-1.66-1.73-.34-.33-.34-.87,0-1.21.33-.34.87-.34,1.21,0,.58.58,1.16,1.18,1.72,1.79.32.35.29.89-.05,1.21-.16.15-.37.22-.58.22ZM20.16,11.63c-.23,0-.46-.09-.63-.27-.32-.35-.3-.89.04-1.21.61-.57,1.24-1.12,1.87-1.65.36-.3.9-.25,1.2.11.3.36.25.9-.11,1.2-.6.5-1.21,1.04-1.79,1.58-.16.15-.37.23-.58.23ZM66.47,10.83c-.2,0-.4-.07-.57-.21-.6-.53-1.22-1.05-1.84-1.53-.37-.29-.44-.83-.15-1.2.29-.37.83-.44,1.2-.15.64.51,1.29,1.04,1.91,1.59.35.31.39.85.07,1.21-.17.19-.4.29-.64.29ZM23.92,8.51c-.26,0-.52-.12-.69-.35-.28-.38-.2-.92.18-1.19.67-.49,1.36-.97,2.05-1.42.4-.26.93-.14,1.18.26.26.4.14.93-.26,1.18-.66.43-1.32.88-1.97,1.35-.15.11-.33.17-.51.17ZM62.63,7.82c-.17,0-.34-.05-.48-.15-.66-.45-1.33-.89-2.01-1.29-.4-.24-.54-.77-.29-1.17.24-.41.77-.54,1.17-.29.71.42,1.41.88,2.1,1.35.39.27.49.8.22,1.19-.17.24-.43.37-.7.37ZM28.02,5.88c-.3,0-.59-.16-.75-.44-.23-.41-.08-.93.33-1.16.73-.4,1.48-.79,2.23-1.13.43-.2.94-.01,1.14.41.2.43.01.94-.41,1.14-.71.33-1.43.7-2.12,1.08-.13.07-.27.11-.41.11ZM58.44,5.31c-.13,0-.26-.03-.39-.09-.71-.36-1.43-.7-2.16-1.01-.43-.18-.64-.69-.45-1.12.18-.43.69-.64,1.12-.45.76.32,1.52.68,2.27,1.06.42.21.59.73.37,1.15-.15.3-.45.47-.76.47ZM32.44,3.82c-.34,0-.67-.21-.8-.55-.17-.44.05-.94.49-1.1.78-.3,1.58-.57,2.37-.81.45-.13.93.12,1.06.57.13.45-.12.93-.57,1.06-.75.22-1.51.48-2.25.76-.1.04-.2.06-.3.06ZM53.95,3.41c-.09,0-.18-.01-.28-.05-.75-.26-1.52-.48-2.28-.68-.46-.12-.73-.58-.61-1.04.12-.46.58-.73,1.04-.61.8.21,1.61.45,2.4.72.45.15.69.64.53,1.08-.12.36-.45.58-.81.58ZM37.11,2.42c-.39,0-.75-.27-.83-.67-.1-.46.19-.92.65-1.02.81-.18,1.64-.32,2.46-.43.47-.06.9.26.96.73.06.47-.26.9-.73.96-.78.11-1.56.25-2.33.41-.06.01-.12.02-.18.02ZM49.23,2.19s-.1,0-.15-.01c-.78-.14-1.57-.25-2.35-.32-.47-.05-.81-.46-.77-.93.05-.47.46-.82.93-.77.83.08,1.66.2,2.48.34.46.08.77.53.69.99-.07.41-.43.71-.84.71ZM41.93,1.76c-.45,0-.83-.35-.85-.81-.03-.47.33-.88.8-.9.62-.04,1.25-.05,1.86-.05.21,0,.43,0,.64,0,.47,0,.85.4.84.87,0,.47-.39.84-.85.84,0,0-.01,0-.02,0-.2,0-.4,0-.61,0-.59,0-1.18.02-1.77.05-.02,0-.03,0-.05,0Z"/>
      <g>
        <g>
          <path class="cls-3" d="M69.62,18.61c0-2.86,2.32-5.18,5.18-5.18,2.86,0,5.18,2.32,5.18,5.18,0,2.86-2.32,5.18-5.18,5.18-2.86,0-5.18-2.32-5.18-5.18Z"/>
          <path class="cls-2" d="M68.93,18.61c0,3.24,2.63,5.87,5.87,5.87,3.24,0,5.87-2.63,5.87-5.87,0-3.24-2.63-5.87-5.87-5.87-3.24,0-5.87,2.63-5.87,5.87,0,3.24,0-3.24,0,0ZM79.29,18.61c0,2.48-2.01,4.49-4.49,4.49-2.48,0-4.49-2.01-4.49-4.49,0-2.48,2.01-4.49,4.49-4.49s4.49,2.01,4.49,4.49c0,2.48,0-2.48,0,0Z"/>
        </g>
        <polygon class="cls-2" points="86.78 38.29 83.33 37.96 80.7 40.2 81.47 32.03 86.78 38.29"/>
        <path class="cls-4" d="M74.58,21.45v-4.27c-.79.61-1.33.91-1.6.91-.13,0-.25-.05-.35-.16-.1-.11-.15-.23-.15-.36,0-.16.05-.28.15-.35.1-.08.28-.17.53-.29.38-.18.68-.37.91-.56.23-.2.43-.42.6-.66.17-.24.29-.39.34-.45.05-.06.15-.08.3-.08.17,0,.3.06.4.19.1.13.15.31.15.53v5.37c0,.63-.21.94-.64.94-.19,0-.34-.06-.46-.19-.12-.13-.17-.32-.17-.57Z"/>
        <path class="cls-2" d="M77.66,29.28c-.48-1.53.37-3.16,1.9-3.64s3.16.37,3.64,1.9c.48,1.53-.37,3.16-1.9,3.64s-3.16-.37-3.64-1.9Z"/>
      </g>
      <path class="cls-1" d="M80.72,121.21c-.42,0-.85-.18-1.14-.54l-26.72-32.68c-.51-.63-.42-1.55.21-2.06.63-.51,1.55-.42,2.06.21l26.72,32.68c.51.63.42,1.55-.21,2.06-.27.22-.6.33-.93.33Z"/>
      <g>
        <path class="cls-2" d="M81.11,107.27c-.25,0-.49-.11-.66-.31l-1.56-1.88c-.3-.36-.25-.9.11-1.2.36-.3.9-.25,1.2.11l1.56,1.88c.3.36.25.9-.11,1.2-.16.13-.35.2-.54.2ZM78,103.5c-.25,0-.49-.11-.66-.31l-1.56-1.88c-.3-.36-.25-.9.11-1.2.36-.3.9-.25,1.2.11l1.56,1.88c.3.36.25.9-.11,1.2-.16.13-.35.2-.54.2ZM74.89,99.74c-.25,0-.49-.11-.66-.31l-1.56-1.88c-.3-.36-.25-.9.11-1.2.36-.3.9-.25,1.2.11l1.56,1.88c.3.36.25.9-.11,1.2-.16.13-.35.2-.54.2ZM71.78,95.97c-.25,0-.49-.11-.66-.31l-1.56-1.88c-.3-.36-.25-.9.11-1.2.36-.3.9-.25,1.2.11l1.56,1.88c.3.36.25.9-.11,1.2-.16.13-.35.2-.54.2ZM68.66,92.21c-.25,0-.49-.11-.66-.31l-1.56-1.88c-.3-.36-.25-.9.11-1.2.36-.3.9-.25,1.2.11l1.56,1.88c.3.36.25.9-.11,1.2-.16.13-.35.2-.54.2ZM65.55,88.44c-.25,0-.49-.11-.66-.31l-1.56-1.88c-.3-.36-.25-.9.11-1.2.36-.3.9-.25,1.2.11l1.56,1.88c.3.36.25.9-.11,1.2-.16.13-.35.2-.54.2ZM62.44,84.68c-.25,0-.49-.11-.66-.31l-1.56-1.88c-.3-.36-.25-.9.11-1.2.36-.3.9-.25,1.2.11l1.56,1.88c.3.36.25.9-.11,1.2-.16.13-.35.2-.54.2Z"/>
        <g>
          <g>
            <path class="cls-3" d="M61.03,87.88c-2.86-.09-5.1-2.49-5.01-5.34.09-2.86,2.49-5.1,5.34-5.01,2.86.09,5.1,2.49,5.01,5.34-.09,2.86-2.49,5.1-5.34,5.01Z"/>
            <path class="cls-2" d="M61,88.57c3.23.1,5.95-2.44,6.06-5.68s-2.44-5.95-5.68-6.06c-3.24-.1-5.95,2.44-6.06,5.68s2.44,5.95,5.68,6.06c3.23.1-3.24-.1,0,0ZM61.34,78.21c2.48.08,4.43,2.16,4.35,4.63-.08,2.48-2.16,4.43-4.63,4.35-2.48-.08-4.43-2.16-4.35-4.63.08-2.48,2.16-4.43,4.63-4.35,2.48.08-2.48-.08,0,0Z"/>
          </g>
          <path class="cls-4" d="M60.49,84.72h2.45c.24,0,.43.05.56.15.13.1.19.24.19.41,0,.15-.05.28-.15.39-.1.11-.26.16-.46.16h-3.45c-.23,0-.42-.06-.55-.19-.13-.13-.2-.28-.2-.46,0-.11.04-.26.13-.45.08-.19.18-.33.28-.44.42-.43.79-.8,1.13-1.11.33-.31.57-.51.72-.61.26-.18.47-.36.64-.55.17-.18.3-.37.39-.56.09-.19.13-.38.13-.57,0-.2-.05-.38-.14-.54-.1-.16-.23-.28-.39-.37-.16-.09-.34-.13-.54-.13-.41,0-.73.18-.97.54-.03.05-.08.17-.16.38-.07.21-.16.37-.25.48-.09.11-.23.17-.41.17-.16,0-.29-.05-.39-.15-.1-.1-.16-.24-.16-.42,0-.22.05-.44.15-.68.1-.23.24-.45.43-.64.19-.19.44-.34.73-.46.3-.12.64-.18,1.04-.18.48,0,.89.08,1.22.23.22.1.41.24.58.41.17.18.29.38.39.61.09.23.14.47.14.72,0,.39-.1.74-.29,1.06-.19.32-.39.57-.59.75-.2.18-.54.46-1.01.85-.47.38-.79.68-.97.9-.08.08-.15.19-.23.31Z"/>
        </g>
        <polygon class="cls-2" points="77.03 106.47 80.36 105.5 81.98 102.44 84.28 110.31 77.03 106.47"/>
        <circle class="cls-2" cx="86.66" cy="113.72" r="2.91"/>
      </g>
    </g>
  </g>
</svg>