<?xml version="1.0" encoding="UTF-8"?>
<svg id="Layer_2" data-name="Layer 2" xmlns="http://www.w3.org/2000/svg" viewBox="0 0 143.19 223.3">
  <defs>
    <style>
      .cls-1, .cls-2, .cls-3, .cls-4 {
        stroke-width: 0px;
      }

      .cls-2 {
        fill: #6f6f6e;
      }

      .cls-3 {
        fill: #fff;
      }

      .cls-4 {
        fill: #ff0600;
      }
    </style>
  </defs>
  <g id="D">
    <g>
      <g>
        <path class="cls-2" d="M98,99.17c-.38,0-.76-.13-1.07-.41-.02-.02-.53-.45-1.64-1.09-.77-.44-1.04-1.43-.6-2.2.44-.77,1.43-1.04,2.2-.6,1.45.83,2.12,1.42,2.19,1.48.66.6.72,1.62.12,2.28-.32.35-.76.54-1.2.54Z"/>
        <path class="cls-2" d="M63.49,223.3c-.88,0-1.6-.7-1.61-1.59-.02-.89.69-1.63,1.59-1.64,1.56-.03,3.1-.08,4.6-.16.89-.05,1.65.63,1.7,1.52.05.89-.63,1.65-1.52,1.7-1.54.09-3.13.14-4.72.17,0,0-.02,0-.03,0ZM58.83,223.28s-.04,0-.06,0c-1.6-.06-3.21-.17-4.76-.33-.89-.09-1.53-.89-1.43-1.77.09-.89.89-1.53,1.77-1.43,1.48.16,3.01.26,4.53.32.89.03,1.59.78,1.56,1.67-.03.87-.75,1.56-1.61,1.56ZM72.8,222.78c-.82,0-1.52-.62-1.6-1.46-.09-.89.56-1.68,1.45-1.76,1.55-.15,3.08-.34,4.55-.56.88-.13,1.7.48,1.83,1.36.13.88-.48,1.7-1.36,1.83-1.52.22-3.11.42-4.71.58-.05,0-.11,0-.16,0ZM49.57,222.28c-.1,0-.19,0-.29-.03-1.58-.29-3.15-.65-4.67-1.06-.86-.23-1.37-1.12-1.14-1.98.23-.86,1.12-1.37,1.98-1.14,1.44.39,2.93.72,4.42,1,.88.16,1.46,1,1.29,1.88-.14.78-.82,1.32-1.58,1.32ZM82.03,221.4c-.75,0-1.42-.53-1.58-1.29-.18-.87.38-1.73,1.26-1.9,1.53-.31,3.02-.67,4.43-1.05.86-.24,1.75.27,1.98,1.13.23.86-.27,1.75-1.13,1.98-1.48.41-3.04.78-4.64,1.1-.11.02-.22.03-.33.03ZM40.58,219.86c-.18,0-.37-.03-.55-.1-1.51-.55-3-1.16-4.44-1.83-.81-.38-1.16-1.34-.78-2.14.38-.81,1.34-1.16,2.14-.78,1.35.63,2.76,1.21,4.17,1.73.84.3,1.27,1.23.97,2.07-.24.66-.86,1.06-1.52,1.06ZM91.01,218.93c-.66,0-1.28-.41-1.52-1.07-.3-.84.13-1.76.97-2.06,1.47-.53,2.87-1.11,4.16-1.72.8-.38,1.77-.04,2.15.77.38.8.04,1.77-.77,2.15-1.38.66-2.88,1.28-4.46,1.84-.18.06-.36.1-.55.1ZM32.14,215.92c-.27,0-.55-.07-.81-.22-1.38-.8-2.74-1.67-4.04-2.6-.73-.52-.9-1.52-.38-2.25.52-.73,1.52-.9,2.25-.38,1.22.87,2.5,1.69,3.79,2.44.77.45,1.03,1.43.59,2.21-.3.52-.84.8-1.4.8ZM24.55,210.55c-.37,0-.74-.13-1.05-.39-1.21-1.03-2.39-2.13-3.52-3.27-.63-.63-.62-1.66.02-2.28.64-.62,1.66-.62,2.28.02,1.06,1.08,2.17,2.11,3.31,3.08.68.58.76,1.6.18,2.27-.32.37-.77.57-1.23.57ZM18.01,203.92c-.46,0-.92-.2-1.24-.58-1.01-1.21-1.99-2.49-2.91-3.8-.51-.73-.34-1.73.39-2.25.73-.51,1.73-.34,2.25.39.88,1.24,1.8,2.45,2.76,3.6.57.68.48,1.7-.21,2.27-.3.25-.67.37-1.03.37ZM12.64,196.31c-.55,0-1.08-.28-1.39-.79-.81-1.35-1.58-2.76-2.3-4.18-.4-.8-.08-1.77.71-2.17.8-.4,1.77-.08,2.17.71.69,1.36,1.43,2.7,2.19,3.98.46.76.21,1.76-.56,2.21-.26.16-.55.23-.83.23ZM8.42,188c-.63,0-1.22-.37-1.49-.98-.61-1.44-1.19-2.93-1.73-4.44-.3-.84.14-1.76.98-2.06.84-.3,1.76.14,2.06.98.51,1.44,1.07,2.88,1.65,4.25.35.82-.03,1.77-.85,2.12-.21.09-.42.13-.63.13ZM5.31,179.21c-.7,0-1.34-.46-1.55-1.16-.43-1.5-.84-3.05-1.2-4.6-.2-.87.34-1.73,1.21-1.94.87-.2,1.74.34,1.94,1.21.35,1.49.73,2.98,1.15,4.43.25.86-.25,1.75-1.1,2-.15.04-.3.06-.45.06ZM3.2,170.13c-.77,0-1.45-.55-1.59-1.33-.27-1.54-.52-3.11-.72-4.69-.11-.88.51-1.69,1.39-1.81.88-.11,1.69.51,1.81,1.39.2,1.52.43,3.05.7,4.53.16.88-.43,1.72-1.3,1.87-.1.02-.19.03-.28.03ZM2,160.88c-.83,0-1.54-.64-1.61-1.48-.13-1.56-.23-3.14-.29-4.72-.04-.89.66-1.64,1.55-1.68.89-.03,1.64.66,1.68,1.55.06,1.53.16,3.08.29,4.59.07.89-.59,1.67-1.47,1.74-.05,0-.09,0-.14,0ZM1.61,151.56c-.89,0-1.61-.72-1.61-1.61v-.07c0-1.58.05-3.15.15-4.69.06-.89.81-1.57,1.71-1.51.89.06,1.56.82,1.51,1.71-.09,1.47-.14,2.98-.14,4.49v.07c0,.89-.72,1.61-1.61,1.61ZM2.21,142.26c-.07,0-.14,0-.21-.01-.88-.12-1.5-.93-1.39-1.81.21-1.59.48-3.17.79-4.71.18-.87,1.03-1.43,1.91-1.25.87.18,1.43,1.03,1.25,1.91-.3,1.46-.56,2.97-.75,4.48-.11.81-.8,1.4-1.6,1.4ZM4.09,133.14c-.15,0-.3-.02-.45-.06-.86-.25-1.35-1.14-1.11-2,.44-1.54.95-3.06,1.5-4.55.31-.83,1.24-1.26,2.08-.94.83.31,1.26,1.24.94,2.08-.53,1.4-1,2.85-1.42,4.3-.2.71-.85,1.17-1.55,1.17ZM7.37,124.43c-.23,0-.47-.05-.69-.15-.81-.38-1.15-1.34-.77-2.15.68-1.44,1.43-2.87,2.23-4.25.45-.77,1.43-1.03,2.2-.59.77.45,1.03,1.43.59,2.2-.75,1.3-1.46,2.65-2.1,4.01-.28.58-.86.92-1.46.92ZM12.03,116.37c-.32,0-.64-.09-.92-.29-.73-.51-.91-1.51-.4-2.25.91-1.3,1.88-2.59,2.9-3.82.57-.69,1.58-.78,2.27-.21.69.57.78,1.58.21,2.27-.96,1.16-1.88,2.37-2.74,3.6-.31.45-.82.69-1.33.69ZM17.97,109.19c-.41,0-.81-.15-1.13-.46-.64-.62-.65-1.64-.03-2.28,1.11-1.13,2.28-2.24,3.48-3.29.67-.59,1.69-.52,2.28.16.59.67.52,1.69-.16,2.28-1.14.99-2.25,2.04-3.3,3.11-.32.32-.74.49-1.15.49ZM24.99,103.06c-.49,0-.98-.23-1.3-.65-.53-.72-.38-1.73.33-2.26,1.27-.95,2.6-1.86,3.95-2.7.75-.47,1.75-.25,2.22.51.47.75.25,1.75-.51,2.22-1.28.8-2.54,1.67-3.75,2.56-.29.21-.63.32-.96.32ZM32.88,98.1c-.58,0-1.14-.31-1.43-.86-.42-.79-.11-1.76.67-2.18,1.41-.74,2.86-1.44,4.31-2.08.82-.36,1.77.02,2.12.83.36.82-.02,1.77-.83,2.12-1.38.6-2.76,1.27-4.09,1.97-.24.13-.5.19-.75.19ZM91.86,95.92c-.19,0-.39-.04-.58-.11-1.31-.51-2.75-.99-4.28-1.43-.86-.24-1.35-1.14-1.11-1.99.24-.86,1.14-1.35,1.99-1.11,1.62.46,3.16.97,4.57,1.52.83.32,1.24,1.26.92,2.09-.25.64-.86,1.03-1.5,1.03ZM41.43,94.37c-.67,0-1.29-.42-1.52-1.08-.29-.84.15-1.76.99-2.05,1.51-.53,3.05-1,4.58-1.4.86-.23,1.74.29,1.97,1.15.23.86-.29,1.74-1.15,1.97-1.45.38-2.91.83-4.34,1.33-.18.06-.36.09-.53.09ZM82.91,93.33c-.11,0-.22-.01-.33-.04-1.43-.3-2.95-.58-4.5-.82-.88-.14-1.49-.96-1.35-1.84.14-.88.96-1.49,1.84-1.35,1.61.25,3.18.53,4.68.85.87.18,1.43,1.04,1.25,1.91-.16.76-.83,1.28-1.58,1.28ZM50.44,91.99c-.77,0-1.45-.55-1.59-1.33-.16-.88.43-1.72,1.3-1.87,1.6-.29,3.2-.5,4.76-.64.89-.08,1.67.58,1.75,1.46.08.89-.58,1.67-1.46,1.75-1.47.13-2.98.33-4.48.6-.1.02-.19.03-.29.03ZM73.7,91.9c-.06,0-.11,0-.17,0-1.48-.16-3.02-.29-4.58-.4-.89-.06-1.56-.83-1.5-1.72.06-.89.83-1.56,1.72-1.5,1.6.11,3.19.24,4.71.41.89.09,1.53.89,1.43,1.78-.09.83-.79,1.44-1.6,1.44ZM64.39,91.27s-.04,0-.05,0c-1.5-.05-3.05-.08-4.62-.08-.89,0-1.61-.73-1.61-1.62,0-.89.72-1.61,1.61-1.61h0c1.6,0,3.18.03,4.71.08.89.03,1.59.78,1.56,1.67-.03.87-.74,1.56-1.61,1.56Z"/>
        <path class="cls-2" d="M99.5,214.81c-.52,0-1.03-.25-1.34-.71-.5-.74-.3-1.74.44-2.24,1.09-.73,1.6-1.21,1.6-1.22.64-.61,1.66-.6,2.28.04.62.64.61,1.65-.03,2.27-.07.07-.71.68-2.06,1.59-.28.19-.59.27-.9.27Z"/>
      </g>
      <g>
        <g>
          <path class="cls-2" d="M132.13,189.98c-.9,0-1.63-.73-1.63-1.63v-4.88c0-.9.73-1.63,1.62-1.63s1.63.73,1.63,1.63v4.88c0,.9-.73,1.63-1.62,1.63ZM132.13,180.22c-.9,0-1.63-.73-1.63-1.63v-4.88c0-.9.73-1.63,1.62-1.63s1.63.73,1.63,1.63v4.88c0,.9-.73,1.63-1.62,1.63ZM132.13,170.47c-.9,0-1.63-.73-1.63-1.63v-4.88c0-.9.73-1.63,1.62-1.63s1.63.73,1.63,1.63v4.88c0,.9-.73,1.63-1.62,1.63ZM132.12,160.49c-.9,0-1.63-.73-1.63-1.63v-4.88c0-.9.73-1.63,1.62-1.63s1.63.73,1.63,1.63v4.88c0,.9-.73,1.63-1.62,1.63ZM132.12,150.74c-.9,0-1.63-.73-1.63-1.63v-4.88c0-.9.73-1.63,1.62-1.63s1.63.73,1.63,1.63v4.88c0,.9-.73,1.63-1.62,1.63ZM132.12,140.98c-.9,0-1.63-.73-1.63-1.63v-4.88c0-.9.73-1.63,1.62-1.63s1.63.73,1.63,1.63v4.88c0,.9-.73,1.63-1.62,1.63ZM132.11,131.23c-.9,0-1.63-.73-1.63-1.63v-4.88c0-.9.73-1.63,1.62-1.63s1.63.73,1.63,1.63v4.88c0,.9-.73,1.63-1.62,1.63ZM132.11,121.47c-.9,0-1.63-.73-1.63-1.63v-4.88c0-.9.73-1.63,1.62-1.63s1.63.73,1.63,1.63v4.88c0,.9-.73,1.63-1.62,1.63Z"/>
          <path class="cls-2" d="M132.13,111.39c-.9,0-1.63-.73-1.63-1.63v-4.88c0-.9.73-1.63,1.62-1.63s1.63.73,1.63,1.63v4.88c0,.9-.73,1.63-1.62,1.63ZM132.13,101.63c-.9,0-1.63-.73-1.63-1.63v-4.88c0-.9.73-1.63,1.62-1.63s1.63.73,1.63,1.63v4.88c0,.9-.73,1.63-1.62,1.63ZM132.13,91.88c-.9,0-1.63-.73-1.63-1.63v-4.88c0-.9.73-1.63,1.62-1.63s1.63.73,1.63,1.63v4.88c0,.9-.73,1.63-1.62,1.63ZM132.12,81.9c-.9,0-1.63-.73-1.63-1.63v-4.88c0-.9.73-1.63,1.62-1.63s1.63.73,1.63,1.63v4.88c0,.9-.73,1.63-1.62,1.63ZM132.12,72.15c-.9,0-1.63-.73-1.63-1.63v-4.88c0-.9.73-1.63,1.62-1.63s1.63.73,1.63,1.63v4.88c0,.9-.73,1.63-1.62,1.63ZM132.12,62.39c-.9,0-1.63-.73-1.63-1.63v-4.88c0-.9.73-1.63,1.62-1.63s1.63.73,1.63,1.63v4.88c0,.9-.73,1.63-1.62,1.63ZM132.11,52.64c-.9,0-1.63-.73-1.63-1.63v-4.88c0-.9.73-1.63,1.62-1.63s1.63.73,1.63,1.63v4.88c0,.9-.73,1.63-1.62,1.63ZM132.11,42.88c-.9,0-1.63-.73-1.63-1.63v-4.88c0-.9.73-1.63,1.62-1.63s1.63.73,1.63,1.63v4.88c0,.9-.73,1.63-1.62,1.63ZM132.11,33.05c-.9,0-1.63-.73-1.63-1.63v-4.88c0-.9.73-1.63,1.62-1.63s1.63.73,1.63,1.63v4.88c0,.9-.73,1.63-1.62,1.63ZM132.11,23.3c-.9,0-1.63-.73-1.63-1.63v-4.88c0-.9.73-1.63,1.62-1.63s1.63.73,1.63,1.63v4.88c0,.9-.73,1.63-1.62,1.63Z"/>
          <g>
            <path class="cls-3" d="M122.33,12.2c0-5.4,4.38-9.78,9.78-9.78,5.4,0,9.78,4.38,9.78,9.78,0,5.4-4.38,9.78-9.78,9.78s-9.78-4.38-9.78-9.78Z"/>
            <path class="cls-2" d="M121.03,12.2c0,6.11,4.97,11.08,11.08,11.08s11.08-4.97,11.08-11.08c0-6.11-4.97-11.08-11.08-11.08s-11.08,4.97-11.08,11.08c0,6.11,0-6.11,0,0ZM140.59,12.2c0,4.68-3.8,8.48-8.48,8.48-4.68,0-8.48-3.8-8.48-8.48,0-4.68,3.8-8.48,8.48-8.48,4.68,0,8.48,3.8,8.48,8.48,0,4.68,0-4.68,0,0Z"/>
          </g>
          <polygon class="cls-2" points="126.11 188.25 132.13 190.81 138.15 188.25 132.13 202.52 126.11 188.25"/>
        </g>
        <g>
          <g>
            <path class="cls-3" d="M105.5,87.63c3.41,4.19,2.79,10.35-1.4,13.76-4.18,3.41-10.35,2.79-13.76-1.4-3.41-4.18-2.79-10.35,1.4-13.76,4.18-3.41,10.35-2.79,13.76,1.4Z"/>
            <path class="cls-2" d="M106.51,86.81c-3.86-4.73-10.86-5.44-15.59-1.58s-5.44,10.86-1.58,15.59c3.86,4.73,10.86,5.44,15.59,1.58s5.44-10.86,1.58-15.59c-3.86-4.73,3.86,4.73,0,0ZM91.36,99.17c-2.96-3.62-2.41-8.97,1.21-11.93,3.62-2.96,8.97-2.41,11.93,1.21,2.96,3.62,2.41,8.97-1.21,11.93-3.62,2.96-8.97,2.41-11.93-1.21-2.96-3.62,2.96,3.62,0,0Z"/>
          </g>
          <polygon class="cls-2" points="103.36 217.64 100.78 211.63 94.66 209.31 108.88 203.16 103.36 217.64"/>
        </g>
        <path class="cls-4" d="M132.01,17.08v-8.06c-1.5,1.15-2.51,1.73-3.03,1.73-.25,0-.47-.1-.66-.3-.19-.2-.29-.43-.29-.69,0-.3.09-.52.28-.66.19-.14.52-.32,1-.55.71-.34,1.29-.69,1.71-1.06.43-.37.81-.79,1.14-1.25.33-.46.55-.74.65-.85.1-.11.29-.16.57-.16.31,0,.56.12.75.36.19.24.28.58.28,1v10.14c0,1.19-.4,1.78-1.21,1.78-.36,0-.65-.12-.87-.36-.22-.24-.33-.6-.33-1.07Z"/>
        <path class="cls-4" d="M96.21,97.64h4.62c.46,0,.81.09,1.05.28.24.19.36.45.36.77,0,.29-.1.53-.29.73-.19.2-.48.3-.87.3h-6.52c-.44,0-.79-.12-1.04-.37-.25-.24-.37-.53-.37-.86,0-.21.08-.49.24-.85.16-.35.33-.63.52-.83.79-.81,1.49-1.51,2.13-2.09.63-.58,1.08-.96,1.35-1.15.48-.34.89-.69,1.21-1.03.32-.35.57-.7.74-1.06.17-.36.25-.72.25-1.07,0-.38-.09-.72-.27-1.01-.18-.3-.43-.53-.74-.69-.31-.17-.65-.25-1.01-.25-.77,0-1.38.34-1.82,1.02-.06.09-.16.33-.3.73-.14.4-.3.7-.47.91-.17.21-.43.32-.77.32-.3,0-.54-.1-.74-.29s-.29-.46-.29-.8c0-.41.09-.83.28-1.28.18-.44.46-.84.82-1.2.36-.36.82-.65,1.38-.87s1.21-.33,1.96-.33c.9,0,1.67.14,2.31.43.41.19.78.45,1.09.78.31.33.56.71.73,1.15.17.43.26.88.26,1.35,0,.73-.18,1.4-.54,2-.36.6-.73,1.07-1.11,1.41-.38.34-1.01.87-1.9,1.6-.89.73-1.5,1.29-1.83,1.69-.14.16-.29.35-.43.58Z"/>
        <path class="cls-2" d="M137.66,208.42c0,3.03-2.46,5.49-5.49,5.49s-5.49-2.46-5.49-5.49,2.46-5.49,5.49-5.49,5.49,2.46,5.49,5.49Z"/>
      </g>
      <g>
        <path class="cls-1" d="M116.38,214.1c-1.53,0-2.77-1.24-2.77-2.77V2.77c0-1.53,1.24-2.77,2.77-2.77s2.77,1.24,2.77,2.77v208.57c0,1.53-1.24,2.77-2.77,2.77Z"/>
        <path class="cls-1" d="M66.03,214.1c-29.29,0-53.12-23.83-53.12-53.12v-9.68c0-29.29,23.83-53.12,53.12-53.12s53.12,23.83,53.12,53.12v9.68c0,29.29-23.83,53.12-53.12,53.12ZM66.03,103.71c-26.24,0-47.59,21.35-47.59,47.59v9.68c0,26.24,21.35,47.59,47.59,47.59s47.59-21.35,47.59-47.59v-9.68c0-26.24-21.35-47.59-47.59-47.59Z"/>
      </g>
    </g>
  </g>
</svg>