<svg xmlns="http://www.w3.org/2000/svg" id="Layer_2" data-name="Layer 2" viewBox="0 0 66.48 62.35"><defs><style>.cls-1,.cls-2,.cls-3,.cls-4{stroke-width:0}.cls-2{fill:#6f6f6e}.cls-3{fill:#fff}.cls-4{fill:#ff0600}</style></defs><g id="X"><g><g><path d="M54.38,62.35c-.46,0-.91-.22-1.2-.62L11.34,2.31c-.47-.66-.31-1.58.35-2.04.66-.47,1.58-.31,2.04.35l41.84,59.42c.47.66.31,1.58-.35,2.04-.26.18-.55.27-.84.27Z" class="cls-1"/><path d="M12.54,62.35c-.29,0-.59-.09-.84-.27-.66-.47-.82-1.38-.35-2.04L53.18.62c.47-.66,1.38-.82,2.04-.35.66.47.82,1.38.35,2.04L13.74,61.73c-.29.41-.74.62-1.2.62Z" class="cls-1"/></g><g><path d="M39.28,52.38c-.26,0-.52-.12-.68-.34l-1.47-1.95c-.28-.38-.21-.91.17-1.2.38-.28.91-.21,1.2.17l1.47,1.95c.28.38.21.91-.17,1.2-.15.12-.33.17-.51.17ZM36.35,48.47c-.26,0-.52-.12-.68-.34l-1.47-1.95c-.28-.38-.21-.91.17-1.2.38-.28.91-.21,1.2.17l1.47,1.95c.28.38.21.91-.17,1.2-.15.12-.33.17-.51.17ZM33.42,44.56c-.26,0-.52-.12-.68-.34l-1.47-1.95c-.28-.38-.21-.91.17-1.2.38-.28.91-.21,1.2.17l1.47,1.95c.28.38.21.91-.17,1.2-.15.12-.33.17-.51.17ZM30.49,40.66c-.26,0-.52-.12-.68-.34l-1.47-1.95c-.28-.38-.21-.91.17-1.2.38-.28.91-.21,1.2.17l1.47,1.95c.28.38.21.91-.17,1.2-.15.12-.33.17-.51.17ZM27.56,36.75c-.26,0-.52-.12-.68-.34l-1.47-1.95c-.28-.38-.21-.91.17-1.2.38-.28.91-.21,1.2.17l1.47,1.95c.28.38.21.91-.17,1.2-.15.12-.33.17-.51.17ZM24.63,32.84c-.26,0-.52-.12-.68-.34l-1.47-1.95c-.28-.38-.21-.91.17-1.2.38-.28.91-.21,1.2.17l1.47,1.95c.28.38.21.91-.17,1.2-.15.12-.33.17-.51.17ZM21.7,28.94c-.26,0-.52-.12-.68-.34l-1.47-1.95c-.28-.38-.21-.91.17-1.2.38-.28.91-.21,1.2.17l1.47,1.95c.28.38.21.91-.17,1.2-.15.12-.33.17-.51.17ZM18.77,25.03c-.26,0-.52-.12-.68-.34l-1.47-1.95c-.28-.38-.21-.91.17-1.2.38-.28.91-.21,1.2.17l1.47,1.95c.28.38.21.91-.17,1.2-.15.12-.33.17-.51.17ZM15.84,21.12c-.26,0-.52-.12-.68-.34l-1.47-1.95c-.28-.38-.21-.91.17-1.2.38-.28.91-.21,1.2.17l1.47,1.95c.28.38.21.91-.17,1.2-.15.12-.33.17-.51.17ZM12.91,17.22c-.26,0-.52-.12-.68-.34l-1.47-1.95c-.28-.38-.21-.91.17-1.2.38-.28.91-.21,1.2.17l1.47,1.95c.28.38.21.91-.17,1.2-.15.12-.33.17-.51.17ZM9.97,13.31c-.26,0-.52-.12-.68-.34l-1.47-1.95c-.28-.38-.21-.91.17-1.2.38-.28.91-.21,1.2.17l1.47,1.95c.28.38.21.91-.17,1.2-.15.12-.33.17-.51.17Z" class="cls-2"/><g><path d="M1.41,8.83C-.05,6.36.77,3.19,3.23,1.73c2.46-1.46,5.64-.64,7.1,1.82,1.46,2.46.64,5.64-1.82,7.1-2.46,1.46-5.64.64-7.1-1.82Z" class="cls-3"/><path d="M.82,9.18c1.65,2.79,5.26,3.71,8.04,2.06s3.71-5.26,2.06-8.04C9.27.41,5.67-.51,2.88,1.14S-.83,6.39.82,9.18c1.65,2.79-1.65-2.79,0,0ZM9.74,3.9c1.26,2.13.55,4.89-1.58,6.15-2.13,1.26-4.89.55-6.15-1.58-1.26-2.13-.55-4.89,1.58-6.15s4.89-.55,6.15,1.58c1.26,2.13-1.26-2.13,0,0Z" class="cls-2"/></g><polygon points="36.22 52.51 39.59 51.7 41.35 48.72 43.28 56.69 36.22 52.51" class="cls-2"/><path d="M5.99,8.97l.12-4.27c-.81.59-1.36.88-1.63.87-.13,0-.25-.06-.34-.17-.1-.11-.15-.23-.14-.37,0-.16.06-.28.16-.35.1-.07.28-.16.54-.28.38-.17.69-.35.92-.54.23-.19.44-.41.62-.64.18-.24.3-.39.36-.44.05-.05.16-.08.3-.08.17,0,.3.07.39.2.1.13.14.31.13.53l-.15,5.37c-.02.63-.24.94-.67.92-.19,0-.34-.07-.45-.21-.11-.13-.16-.32-.16-.57Z" class="cls-4"/><path d="M48.35,59.95c.33-1.57-.68-3.11-2.25-3.44-1.57-.33-3.11.68-3.44,2.25-.33,1.57.68,3.11,2.25,3.44,1.57.33,3.11-.68,3.44-2.25Z" class="cls-2"/></g><g><path d="M27.2,52.38c-.18,0-.36-.06-.51-.17-.38-.28-.45-.82-.17-1.2l1.47-1.95c.28-.38.82-.45,1.2-.17.38.28.45.82.17,1.2l-1.47,1.95c-.17.22-.42.34-.68.34ZM30.13,48.47c-.18,0-.36-.06-.51-.17-.38-.28-.45-.82-.17-1.2l1.47-1.95c.28-.38.82-.45,1.2-.17.38.28.45.82.17,1.2l-1.47,1.95c-.17.22-.42.34-.68.34ZM33.06,44.56c-.18,0-.36-.06-.51-.17-.38-.28-.45-.82-.17-1.2l1.47-1.95c.28-.38.82-.45,1.2-.17.38.28.45.82.17,1.2l-1.47,1.95c-.17.22-.42.34-.68.34ZM35.99,40.66c-.18,0-.36-.06-.51-.17-.38-.28-.45-.82-.17-1.2l1.47-1.95c.28-.38.82-.45,1.2-.17.38.28.45.82.17,1.2l-1.47,1.95c-.17.22-.42.34-.68.34ZM38.92,36.75c-.18,0-.36-.06-.51-.17-.38-.28-.45-.82-.17-1.2l1.47-1.95c.28-.38.82-.45,1.2-.17.38.28.45.82.17,1.2l-1.47,1.95c-.17.22-.42.34-.68.34ZM41.85,32.84c-.18,0-.36-.06-.51-.17-.38-.28-.45-.82-.17-1.2l1.47-1.95c.28-.38.82-.45,1.2-.17.38.28.45.82.17,1.2l-1.47,1.95c-.17.22-.42.34-.68.34ZM44.78,28.94c-.18,0-.36-.06-.51-.17-.38-.28-.45-.82-.17-1.2l1.47-1.95c.28-.38.82-.45,1.2-.17.38.28.45.82.17,1.2l-1.47,1.95c-.17.22-.42.34-.68.34ZM47.71,25.03c-.18,0-.36-.06-.51-.17-.38-.28-.45-.82-.17-1.2l1.47-1.95c.28-.38.82-.45,1.2-.17.38.28.45.82.17,1.2l-1.47,1.95c-.17.22-.42.34-.68.34ZM50.64,21.12c-.18,0-.36-.06-.51-.17-.38-.28-.45-.82-.17-1.2l1.47-1.95c.28-.38.82-.45,1.2-.17.38.28.45.82.17,1.2l-1.47,1.95c-.17.22-.42.34-.68.34ZM53.57,17.22c-.18,0-.36-.06-.51-.17-.38-.28-.45-.82-.17-1.2l1.47-1.95c.28-.38.82-.45,1.2-.17.38.28.45.82.17,1.2l-1.47,1.95c-.17.22-.42.34-.68.34ZM56.51,13.31c-.18,0-.36-.06-.51-.17-.38-.28-.45-.82-.17-1.2l1.47-1.95c.28-.38.82-.45,1.2-.17.38.28.45.82.17,1.2l-1.47,1.95c-.17.22-.42.34-.68.34Z" class="cls-2"/><g><path d="M65.07,8.83c1.46-2.46.64-5.64-1.82-7.1-2.46-1.46-5.64-.64-7.1,1.82-1.46,2.46-.64,5.64,1.82,7.1,2.46,1.46,5.64.64,7.1-1.82Z" class="cls-3"/><path d="M65.66,9.18c1.65-2.79.72-6.39-2.06-8.04s-6.39-.72-8.04,2.06c-1.65,2.79-.72,6.39,2.06,8.04s6.39.72,8.04-2.06c1.65-2.79-1.65,2.79,0,0ZM56.74,3.9c1.26-2.13,4.02-2.84,6.15-1.58s2.84,4.02,1.58,6.15c-1.26,2.13-4.02,2.84-6.15,1.58-2.13-1.26-2.84-4.02-1.58-6.15,1.26-2.13-1.26,2.13,0,0Z" class="cls-2"/></g><polygon points="30.26 52.51 26.89 51.7 25.13 48.72 23.2 56.69 30.26 52.51" class="cls-2"/><path d="M18.13,59.95c-.33-1.57.68-3.11,2.25-3.44,1.57-.33,3.11.68,3.44,2.25.33,1.57-.68,3.11-2.25,3.44-1.57.33-3.11-.68-3.44-2.25Z" class="cls-2"/><path d="M59.8,8.52h2.45c.24-.01.43.03.56.13.13.1.19.23.19.41,0,.15-.05.28-.15.39-.1.11-.25.16-.46.16l-3.45.02c-.23,0-.42-.06-.55-.19-.13-.13-.2-.28-.2-.46,0-.11.04-.26.12-.45.08-.19.18-.33.27-.44.41-.43.79-.81,1.12-1.12.33-.31.57-.51.71-.61.26-.18.47-.37.64-.55.17-.18.3-.37.39-.56.09-.19.13-.38.13-.57,0-.2-.05-.38-.15-.54s-.23-.28-.39-.37c-.16-.09-.34-.13-.54-.13-.41,0-.73.18-.96.54-.03.05-.08.18-.15.39-.07.21-.15.37-.25.48-.09.11-.23.17-.4.17-.16,0-.29-.05-.39-.15-.1-.1-.16-.24-.16-.42,0-.22.05-.44.14-.68.1-.23.24-.45.43-.64.19-.19.43-.35.73-.47.29-.12.64-.18,1.04-.18.48,0,.89.07,1.23.22.22.1.41.24.58.41.17.17.3.38.39.61.09.23.14.47.14.71,0,.39-.09.74-.28,1.06-.19.32-.39.57-.59.75-.2.18-.53.47-1,.85-.47.39-.79.69-.96.9-.07.08-.15.19-.23.31Z" class="cls-4"/></g></g></g></svg>