<?xml version="1.0" encoding="UTF-8"?>
<svg id="Layer_2" data-name="Layer 2" xmlns="http://www.w3.org/2000/svg" viewBox="0 0 74.38 72.8">
  <defs>
    <style>
      .cls-1, .cls-2, .cls-3, .cls-4 {
        stroke-width: 0px;
      }

      .cls-2 {
        fill: #6f6f6e;
      }

      .cls-3 {
        fill: #fff;
      }

      .cls-4 {
        fill: #ff0600;
      }
    </style>
  </defs>
  <g id="E">
    <g>
      <polygon class="cls-2" points="54.99 47.03 56.36 43.84 55.01 40.65 62.56 43.86 54.99 47.03"/>
      <path class="cls-1" d="M35.12,66.58c-16.06,0-29.12-13.78-29.12-30.71S19.07,5.16,35.12,5.16c3.03,0,10.81.64,17.47,6.52,6.42,5.67,9.68,14.24,9.68,25.47,0,.81-.66,1.47-1.47,1.47H9.06c1.31,14.03,12.5,25.03,26.06,25.03,10.35,0,19.76-6.49,23.95-16.53.31-.75,1.17-1.1,1.92-.79.75.31,1.1,1.17.79,1.92-4.66,11.14-15.12,18.33-26.66,18.33ZM8.93,35.69h50.38c-.58-20.33-13.28-27.6-24.19-27.6-14.38,0-26.1,12.36-26.19,27.6Z"/>
      <g>
        <path class="cls-2" d="M35.61,72.8c-.67,0-1.35-.02-2.01-.06-.47-.03-.83-.43-.81-.9.03-.47.43-.83.9-.81.64.04,1.27.05,1.92.05.15,0,.31,0,.46,0,.48-.01.86.37.87.84,0,.47-.37.86-.84.87-.16,0-.33,0-.49,0ZM38.52,72.66c-.44,0-.81-.33-.85-.78-.04-.47.3-.89.77-.93.79-.07,1.58-.17,2.36-.31.47-.08.91.23.99.7.08.47-.24.91-.7.99-.82.14-1.66.25-2.49.32-.03,0-.05,0-.08,0ZM31.22,72.52s-.07,0-.11,0c-.83-.11-1.66-.24-2.47-.4-.46-.09-.76-.54-.67-1.01.09-.46.54-.76,1.01-.67.78.16,1.57.28,2.35.38.47.06.8.49.74.96-.05.43-.42.75-.85.75ZM43.33,71.85c-.38,0-.73-.26-.83-.65-.11-.46.17-.92.62-1.04.76-.19,1.53-.41,2.28-.66.45-.15.93.09,1.08.54.15.45-.09.93-.54,1.08-.79.26-1.6.5-2.41.7-.07.02-.14.03-.21.03ZM26.43,71.56c-.08,0-.15-.01-.23-.03-.8-.22-1.61-.47-2.39-.75-.45-.16-.68-.65-.52-1.09.16-.45.65-.68,1.09-.52.75.26,1.51.5,2.27.71.46.12.72.6.6,1.05-.1.38-.45.63-.82.63ZM47.96,70.32c-.33,0-.65-.2-.79-.53-.18-.44.02-.94.46-1.12.73-.3,1.45-.64,2.16-1,.42-.21.94-.05,1.15.37.21.42.05.94-.37,1.15-.74.38-1.51.73-2.27,1.05-.11.05-.22.07-.33.07ZM21.82,69.94c-.11,0-.23-.02-.34-.07-.76-.33-1.52-.69-2.26-1.08-.42-.22-.58-.73-.36-1.15.22-.42.73-.58,1.15-.36.7.37,1.42.71,2.15,1.02.43.19.63.69.44,1.12-.14.32-.45.51-.78.51ZM52.31,68.1c-.29,0-.57-.15-.73-.41-.24-.4-.12-.93.29-1.17.67-.41,1.34-.85,1.99-1.31.38-.27.92-.18,1.19.2s.18.92-.2,1.19c-.68.48-1.38.95-2.09,1.38-.14.08-.29.12-.44.12ZM17.49,67.69c-.15,0-.31-.04-.45-.13-.71-.43-1.41-.9-2.08-1.38-.38-.27-.47-.81-.2-1.19.27-.38.81-.47,1.19-.2.64.46,1.31.9,1.98,1.32.4.25.53.77.28,1.18-.16.26-.44.41-.73.41ZM56.28,65.28c-.25,0-.49-.11-.66-.31-.3-.36-.25-.9.11-1.2.61-.5,1.21-1.03,1.78-1.58.34-.33.88-.31,1.21.03.33.34.31.88-.03,1.21-.6.57-1.23,1.13-1.87,1.66-.16.13-.35.2-.54.2ZM13.53,64.85c-.19,0-.39-.06-.54-.2-.64-.53-1.27-1.09-1.87-1.66-.34-.33-.35-.87-.03-1.21.33-.34.87-.35,1.21-.03.57.55,1.17,1.08,1.78,1.58.36.3.41.84.11,1.2-.17.2-.41.31-.66.31ZM59.82,61.91c-.21,0-.41-.07-.58-.22-.35-.32-.37-.86-.06-1.21.53-.58,1.05-1.19,1.54-1.82.29-.37.83-.43,1.2-.14.37.29.43.83.14,1.2-.52.65-1.06,1.29-1.62,1.91-.17.19-.4.28-.63.28ZM10,61.48c-.23,0-.46-.09-.63-.28-.56-.61-1.1-1.25-1.62-1.91-.29-.37-.23-.91.14-1.2.37-.29.91-.23,1.2.14.49.62,1.01,1.23,1.54,1.81.32.35.29.89-.06,1.21-.16.15-.37.22-.57.22ZM6.98,57.65c-.27,0-.54-.13-.71-.37-.47-.69-.92-1.4-1.33-2.12-.24-.41-.1-.93.31-1.17.41-.24.93-.1,1.17.31.4.68.82,1.36,1.27,2.01.27.39.16.92-.23,1.19-.15.1-.31.15-.48.15ZM4.53,53.44c-.32,0-.62-.18-.77-.48-.37-.74-.71-1.51-1.02-2.28-.18-.44.03-.94.47-1.11.44-.18.94.03,1.11.47.3.73.63,1.46.97,2.17.21.42.03.94-.39,1.14-.12.06-.25.09-.38.09ZM2.69,48.92c-.36,0-.69-.23-.81-.59-.26-.79-.49-1.59-.7-2.4-.12-.46.16-.92.62-1.04.46-.12.92.16,1.04.62.2.77.42,1.54.67,2.29.15.45-.1.93-.54,1.08-.09.03-.18.04-.27.04ZM1.48,44.19c-.4,0-.76-.29-.84-.7-.15-.81-.28-1.64-.37-2.47-.06-.47.28-.89.75-.95.47-.06.89.28.95.75.09.79.21,1.58.36,2.36.09.46-.22.91-.69,1-.05,0-.1.01-.16.01ZM.91,39.35c-.45,0-.83-.35-.85-.81-.04-.71-.06-1.43-.06-2.15,0-.12,0-.23,0-.35,0-.47.39-.85.85-.85h0c.47,0,.85.39.85.86,0,.11,0,.22,0,.33,0,.69.02,1.38.05,2.06.03.47-.34.87-.81.9-.02,0-.03,0-.05,0ZM68.5,37.96h0c-.47,0-.85-.38-.85-.85,0-.22,0-.44,0-.66,0-.47.37-.86.85-.86.47-.01.86.37.86.85,0,.22,0,.45,0,.68,0,.47-.38.85-.85.85ZM68.42,34.85c-.45,0-.83-.35-.85-.81-.04-.81-.1-1.61-.18-2.39-.05-.47.3-.89.77-.93.47-.05.89.3.93.77.08.81.14,1.64.18,2.47.02.47-.34.87-.81.9-.02,0-.03,0-.05,0ZM.94,34.47s-.04,0-.06,0c-.47-.03-.83-.44-.8-.91.05-.83.13-1.67.23-2.48.06-.47.48-.8.95-.74.47.06.8.48.74.95-.1.78-.17,1.58-.22,2.38-.03.45-.41.8-.85.8ZM67.94,30c-.42,0-.78-.31-.84-.73-.12-.8-.26-1.59-.41-2.36-.09-.46.2-.91.67-1.01.46-.09.91.2,1.01.67.16.8.31,1.62.43,2.45.07.47-.25.9-.72.97-.04,0-.08,0-.13,0ZM1.54,29.63c-.05,0-.1,0-.16-.01-.46-.09-.77-.53-.68-1,.15-.82.33-1.64.54-2.44.12-.46.58-.73,1.04-.62.46.12.73.58.62,1.04-.19.76-.37,1.55-.51,2.33-.08.41-.44.7-.84.7ZM66.96,25.22c-.38,0-.72-.25-.83-.64-.21-.78-.44-1.54-.69-2.28-.15-.45.09-.93.54-1.08.45-.15.93.09,1.08.54.26.77.5,1.58.72,2.39.12.46-.15.92-.61,1.05-.07.02-.15.03-.22.03ZM2.75,24.9c-.09,0-.18-.01-.27-.04-.45-.15-.69-.63-.55-1.08.26-.79.55-1.58.86-2.35.18-.44.68-.65,1.11-.47.44.18.65.68.47,1.11-.3.73-.57,1.48-.82,2.24-.12.36-.45.59-.81.59ZM65.41,20.61c-.34,0-.65-.2-.79-.53-.31-.74-.64-1.46-.99-2.16-.21-.42-.04-.94.38-1.15.42-.21.94-.04,1.15.38.37.73.72,1.5,1.05,2.27.18.44-.03.94-.46,1.12-.11.04-.22.07-.33.07ZM4.59,20.39c-.13,0-.26-.03-.38-.09-.42-.21-.6-.72-.39-1.14.37-.75.77-1.49,1.19-2.2.24-.41.76-.54,1.17-.3.41.24.54.76.3,1.17-.4.68-.78,1.38-1.13,2.09-.15.3-.45.48-.77.48ZM63.2,16.26c-.29,0-.57-.15-.73-.41-.41-.68-.85-1.34-1.31-1.97-.28-.38-.19-.92.19-1.19s.92-.19,1.19.19c.49.67.96,1.37,1.39,2.09.25.4.12.93-.28,1.17-.14.08-.29.12-.44.12ZM7.06,16.18c-.17,0-.34-.05-.48-.15-.39-.27-.49-.8-.22-1.19.47-.68.98-1.36,1.5-2.01.3-.37.83-.42,1.2-.13.37.3.42.83.13,1.2-.49.61-.97,1.25-1.42,1.9-.17.24-.43.37-.7.37ZM10.12,12.38c-.21,0-.42-.08-.58-.23-.34-.32-.36-.86-.04-1.21.57-.61,1.17-1.2,1.78-1.76.35-.32.89-.3,1.21.05.32.35.3.89-.05,1.21-.58.53-1.15,1.1-1.69,1.67-.17.18-.4.27-.62.27ZM60.33,12.32c-.24,0-.48-.1-.65-.29-.51-.59-1.06-1.17-1.63-1.72-.34-.33-.35-.87-.02-1.21.33-.34.87-.35,1.21-.02.6.58,1.18,1.19,1.73,1.83.31.36.27.9-.09,1.21-.16.14-.36.21-.56.21ZM13.72,9.08c-.25,0-.5-.11-.67-.33-.29-.37-.23-.91.14-1.2.65-.51,1.33-1.01,2.02-1.48.39-.26.92-.16,1.19.23.26.39.16.92-.23,1.19-.66.44-1.3.91-1.92,1.4-.16.12-.34.18-.53.18ZM56.83,8.93c-.19,0-.38-.06-.54-.19-.61-.5-1.24-.97-1.9-1.42-.39-.27-.49-.8-.22-1.19.27-.39.8-.49,1.19-.22.69.47,1.37.98,2.01,1.51.37.3.42.84.12,1.2-.17.21-.41.31-.66.31ZM17.76,6.35c-.3,0-.58-.15-.74-.43-.24-.41-.09-.93.32-1.17.72-.41,1.46-.8,2.21-1.17.43-.21.94-.03,1.14.4.2.43.03.94-.4,1.14-.71.34-1.42.72-2.1,1.11-.13.08-.28.11-.42.11ZM52.81,6.17c-.14,0-.29-.04-.42-.11-.68-.39-1.39-.76-2.11-1.1-.43-.2-.61-.71-.41-1.14.2-.43.71-.61,1.14-.41.76.36,1.51.75,2.22,1.16.41.23.55.76.32,1.17-.16.28-.45.43-.74.43ZM22.15,4.23c-.34,0-.66-.2-.79-.54-.17-.44.04-.94.48-1.11.77-.31,1.56-.59,2.35-.84.45-.14.93.1,1.07.55.14.45-.1.93-.55,1.07-.75.24-1.51.51-2.24.8-.1.04-.21.06-.32.06ZM48.41,4.08c-.1,0-.21-.02-.31-.06-.73-.28-1.49-.54-2.25-.78-.45-.14-.71-.62-.57-1.07.14-.45.62-.71,1.07-.57.8.24,1.6.52,2.37.82.44.17.66.66.49,1.11-.13.34-.45.55-.8.55ZM26.79,2.75c-.38,0-.73-.26-.83-.65-.11-.46.17-.92.63-1.03.8-.2,1.63-.37,2.45-.51.46-.08.91.23.99.69.08.46-.23.91-.69.99-.78.14-1.57.3-2.33.49-.07.02-.14.02-.2.02ZM43.74,2.65c-.06,0-.13,0-.19-.02-.77-.18-1.56-.33-2.34-.46-.47-.08-.78-.52-.71-.98s.52-.78.98-.71c.82.13,1.65.3,2.45.48.46.11.75.57.64,1.03-.09.39-.44.66-.83.66ZM31.6,1.91c-.43,0-.8-.33-.85-.76-.05-.47.29-.89.76-.94.82-.09,1.66-.15,2.49-.18.47-.02.87.35.89.82.02.47-.35.87-.82.89-.79.03-1.59.09-2.38.18-.03,0-.06,0-.09,0ZM38.92,1.86s-.05,0-.08,0c-.8-.08-1.6-.13-2.38-.15-.47-.01-.84-.41-.83-.88.01-.47.41-.84.88-.83.82.02,1.66.07,2.5.15.47.04.81.46.77.93-.04.44-.41.77-.85.77Z"/>
        <g>
          <path class="cls-3" d="M73.25,35.23c1.16,2.62-.02,5.68-2.63,6.84-2.61,1.16-5.68-.02-6.84-2.63s.02-5.68,2.63-6.84c2.61-1.16,5.68.02,6.84,2.63Z"/>
          <path class="cls-2" d="M73.88,34.95c-1.31-2.96-4.79-4.3-7.75-2.98-2.96,1.31-4.3,4.79-2.98,7.75,1.31,2.96,4.79,4.3,7.75,2.98,2.96-1.31,4.3-4.79,2.98-7.75-1.31-2.96,1.31,2.96,0,0ZM64.41,39.15c-1.01-2.26.02-4.92,2.28-5.93s4.92.02,5.93,2.28c1.01,2.26-.02,4.92-2.28,5.93-2.26,1.01-4.92-.02-5.93-2.28-1.01-2.26,1.01,2.26,0,0Z"/>
        </g>
        <polygon class="cls-2" points="62.6 62.84 60.81 59.88 57.43 59.12 64.43 54.84 62.6 62.84"/>
        <path class="cls-2" d="M69.48,52.18c0,1.61-1.3,2.91-2.91,2.91s-2.91-1.3-2.91-2.91,1.3-2.91,2.91-2.91,2.91,1.3,2.91,2.91Z"/>
        <path class="cls-4" d="M67.89,39.34h2.45c.24,0,.43.05.56.15.13.1.19.24.19.41,0,.15-.05.28-.15.39-.1.11-.26.16-.46.16h-3.45c-.23,0-.42-.06-.55-.19-.13-.13-.2-.28-.2-.46,0-.11.04-.26.13-.45.08-.19.18-.33.28-.44.42-.43.79-.8,1.13-1.11.33-.31.57-.51.72-.61.26-.18.47-.36.64-.55.17-.18.3-.37.39-.56s.13-.38.13-.57c0-.2-.05-.38-.14-.54s-.23-.28-.39-.37c-.16-.09-.34-.13-.54-.13-.41,0-.73.18-.97.54-.03.05-.08.17-.16.38-.07.21-.16.37-.25.48-.09.11-.23.17-.41.17-.16,0-.29-.05-.39-.15s-.15-.24-.15-.42c0-.22.05-.44.15-.68.1-.23.24-.45.43-.64.19-.19.44-.34.73-.46s.64-.18,1.04-.18c.48,0,.89.08,1.22.23.22.1.41.24.58.41.17.18.3.38.39.61.09.23.14.47.14.72,0,.39-.1.74-.29,1.06-.19.32-.39.57-.59.75-.2.18-.54.46-1.01.85-.47.38-.79.68-.97.9-.08.08-.15.19-.23.31Z"/>
      </g>
      <path class="cls-2" d="M56.29,44.8h-2.44c-.47,0-.85-.38-.85-.85s.38-.85.85-.85h2.44c.47,0,.85.38.85.85s-.38.85-.85.85ZM51.4,44.8h-2.44c-.47,0-.85-.38-.85-.85s.38-.85.85-.85h2.44c.47,0,.85.38.85.85s-.38.85-.85.85ZM46.52,44.8h-2.44c-.47,0-.85-.38-.85-.85s.38-.85.85-.85h2.44c.47,0,.85.38.85.85s-.38.85-.85.85ZM41.64,44.8h-2.44c-.47,0-.85-.38-.85-.85s.38-.85.85-.85h2.44c.47,0,.85.38.85.85s-.38.85-.85.85ZM36.75,44.8h-2.44c-.47,0-.85-.38-.85-.85s.38-.85.85-.85h2.44c.47,0,.85.38.85.85s-.38.85-.85.85ZM31.87,44.8h-2.44c-.47,0-.85-.38-.85-.85s.38-.85.85-.85h2.44c.47,0,.85.38.85.85s-.38.85-.85.85ZM26.98,44.8h-2.44c-.47,0-.85-.38-.85-.85s.38-.85.85-.85h2.44c.47,0,.85.38.85.85s-.38.85-.85.85Z"/>
      <g>
        <path class="cls-3" d="M23.67,42.8c1.16,2.62-.02,5.68-2.63,6.84-2.61,1.16-5.68-.02-6.84-2.63-1.16-2.61.02-5.68,2.63-6.84,2.61-1.16,5.68.02,6.84,2.63Z"/>
        <path class="cls-2" d="M24.3,42.52c-1.31-2.96-4.79-4.3-7.75-2.98-2.96,1.31-4.3,4.79-2.98,7.75s4.79,4.3,7.75,2.98c2.96-1.31,4.3-4.79,2.98-7.75-1.31-2.96,1.31,2.96,0,0ZM14.83,46.72c-1.01-2.26.02-4.92,2.28-5.93,2.26-1.01,4.92.02,5.93,2.28,1.01,2.26-.02,4.92-2.28,5.93s-4.92-.02-5.93-2.28c-1.01-2.26,1.01,2.26,0,0Z"/>
      </g>
      <path class="cls-4" d="M18.57,47.68v-4.27c-.79.61-1.33.92-1.6.92-.13,0-.25-.05-.35-.16-.1-.11-.15-.23-.15-.36,0-.16.05-.28.15-.35.1-.08.28-.17.53-.29.38-.18.68-.37.91-.56.23-.2.43-.42.6-.66.17-.24.29-.39.34-.45.05-.06.15-.08.3-.08.17,0,.3.06.4.19.1.13.15.31.15.53v5.37c0,.63-.21.94-.64.94-.19,0-.34-.06-.46-.19-.12-.13-.17-.32-.17-.57Z"/>
    </g>
  </g>
</svg>