<?xml version="1.0" encoding="UTF-8"?>
<svg id="Layer_2" data-name="Layer 2" xmlns="http://www.w3.org/2000/svg" viewBox="0 0 69.8 68.34">
  <defs>
    <style>
      .cls-1, .cls-2, .cls-3, .cls-4 {
        stroke-width: 0px;
      }

      .cls-2 {
        fill: #6f6f6e;
      }

      .cls-3 {
        fill: #fff;
      }

      .cls-4 {
        fill: #ff0600;
      }
    </style>
  </defs>
  <g id="N">
    <g>
      <g>
        <path class="cls-1" d="M14.1,68.28c-.81,0-1.47-.66-1.47-1.47V8.17c0-.81.66-1.47,1.47-1.47s1.47.66,1.47,1.47v58.65c0,.81-.66,1.47-1.47,1.47Z"/>
        <path class="cls-1" d="M60.33,68.2c-.81,0-1.47-.66-1.47-1.47v-34.33s0-.02,0-.03c0-.11.13-10.98-6.24-17.47-3.17-3.23-7.48-4.87-12.81-4.87-16.79,0-24.29,18.38-24.36,18.56-.3.75-1.15,1.12-1.9.82-.75-.3-1.12-1.15-.82-1.9.08-.21,2.07-5.16,6.37-10.16,5.76-6.71,12.92-10.26,20.72-10.26,6.15,0,11.17,1.94,14.91,5.76,7.16,7.31,7.08,18.86,7.07,19.55v34.31c0,.81-.66,1.47-1.47,1.47Z"/>
      </g>
      <g>
        <path class="cls-2" d="M5.95,58.14c-.47,0-.85-.38-.85-.85v-2.44c0-.47.38-.85.85-.85s.85.38.85.85v2.44c0,.47-.38.85-.85.85ZM5.95,53.26c-.47,0-.85-.38-.85-.85v-2.44c0-.47.38-.85.85-.85s.85.38.85.85v2.44c0,.47-.38.85-.85.85ZM5.95,48.37c-.47,0-.85-.38-.85-.85v-2.44c0-.47.38-.85.85-.85s.85.38.85.85v2.44c0,.47-.38.85-.85.85ZM5.95,43.49c-.47,0-.85-.38-.85-.85v-2.44c0-.47.38-.85.85-.85s.85.38.85.85v2.44c0,.47-.38.85-.85.85ZM5.95,38.61c-.47,0-.85-.38-.85-.85v-2.44c0-.47.38-.85.85-.85s.85.38.85.85v2.44c0,.47-.38.85-.85.85ZM5.95,33.72c-.47,0-.85-.38-.85-.85v-2.44c0-.47.38-.85.85-.85s.85.38.85.85v2.44c0,.47-.38.85-.85.85ZM5.95,28.84c-.47,0-.85-.38-.85-.85v-2.44c0-.47.38-.85.85-.85s.85.38.85.85v2.44c0,.47-.38.85-.85.85ZM5.95,23.95c-.47,0-.85-.38-.85-.85v-2.44c0-.47.38-.85.85-.85s.85.38.85.85v2.44c0,.47-.38.85-.85.85ZM5.95,19.07c-.47,0-.85-.38-.85-.85v-2.44c0-.47.38-.85.85-.85s.85.38.85.85v2.44c0,.47-.38.85-.85.85ZM5.95,14.19c-.47,0-.85-.38-.85-.85v-2.44c0-.47.38-.85.85-.85s.85.38.85.85v2.44c0,.47-.38.85-.85.85Z"/>
        <g>
          <path class="cls-3" d="M.69,6.15c0-2.86,2.32-5.18,5.18-5.18,2.86,0,5.18,2.32,5.18,5.18,0,2.86-2.32,5.18-5.18,5.18-2.86,0-5.18-2.32-5.18-5.18Z"/>
          <path class="cls-2" d="M0,6.15c0,3.24,2.63,5.87,5.87,5.87,3.24,0,5.87-2.63,5.87-5.87,0-3.24-2.63-5.87-5.87-5.87C2.63.28,0,2.91,0,6.15,0,9.38,0,2.91,0,6.15ZM10.36,6.14c0,2.48-2.01,4.49-4.49,4.49-2.48,0-4.49-2.01-4.49-4.49,0-2.48,2.01-4.49,4.49-4.49s4.49,2.01,4.49,4.49c0,2.48,0-2.48,0,0Z"/>
        </g>
        <polygon class="cls-2" points="2.81 54.1 6 55.46 9.19 54.1 6 61.66 2.81 54.1"/>
        <path class="cls-4" d="M5.65,8.98v-4.27c-.79.61-1.33.91-1.6.91-.13,0-.25-.05-.35-.16-.1-.11-.15-.23-.15-.36,0-.16.05-.28.15-.35.1-.08.28-.17.53-.29.38-.18.68-.37.91-.56.23-.2.43-.42.6-.66.17-.24.29-.39.34-.45.05-.06.15-.08.3-.08.17,0,.3.06.4.19.1.13.15.31.15.53v5.37c0,.63-.21.94-.64.94-.19,0-.34-.06-.46-.19-.12-.13-.17-.32-.17-.57Z"/>
        <path class="cls-2" d="M8.81,65.43c0,1.61-1.3,2.91-2.91,2.91s-2.91-1.3-2.91-2.91,1.3-2.91,2.91-2.91,2.91,1.3,2.91,2.91Z"/>
      </g>
      <g>
        <path class="cls-2" d="M66.58,58.71c-.47,0-.85-.38-.85-.85v-2.44c0-.47.38-.85.85-.85s.85.38.85.85v2.44c0,.47-.38.85-.85.85ZM66.58,53.83c-.47,0-.85-.38-.85-.85v-2.44c0-.47.38-.85.85-.85s.85.38.85.85v2.44c0,.47-.38.85-.85.85ZM66.58,48.94c-.47,0-.85-.38-.85-.85v-2.44c0-.47.38-.85.85-.85s.85.38.85.85v2.44c0,.47-.38.85-.85.85ZM66.58,44.06c-.47,0-.85-.38-.85-.85v-2.44c0-.47.38-.85.85-.85s.85.38.85.85v2.44c0,.47-.38.85-.85.85ZM66.58,39.18c-.47,0-.85-.38-.85-.85v-2.44c0-.47.38-.85.85-.85s.85.38.85.85v2.44c0,.47-.38.85-.85.85ZM66.58,34.29c-.47,0-.85-.38-.85-.85v-2.44c0-.47.38-.85.85-.85s.85.38.85.85v2.44c0,.47-.38.85-.85.85ZM66.52,29.4c-.44,0-.81-.34-.85-.78-.04-.52-.13-1.35-.29-2.38-.07-.47.25-.9.72-.97.47-.07.9.25.97.72.17,1.08.25,1.95.3,2.49.04.47-.31.88-.78.92-.02,0-.05,0-.07,0ZM65.79,24.56c-.39,0-.75-.27-.83-.68-.17-.78-.36-1.57-.57-2.33-.13-.45.14-.93.59-1.05.45-.13.93.14,1.05.59.22.79.42,1.61.6,2.43.1.46-.2.92-.66,1.01-.06.01-.12.02-.18.02ZM64.47,19.84c-.35,0-.68-.22-.81-.57-.26-.76-.55-1.51-.86-2.23-.19-.43.02-.94.45-1.12.43-.19.94.02,1.12.45.32.75.63,1.54.9,2.34.16.45-.08.93-.53,1.09-.09.03-.19.05-.28.05ZM62.55,15.36c-.31,0-.61-.17-.76-.46-.37-.71-.77-1.4-1.19-2.05-.25-.4-.14-.93.26-1.18.4-.25.93-.14,1.18.26.44.69.86,1.42,1.26,2.18.22.42.06.93-.36,1.15-.13.07-.26.1-.4.1ZM59.92,11.24c-.25,0-.51-.11-.67-.33-.49-.62-1-1.22-1.54-1.78-.33-.34-.32-.88.02-1.21s.88-.32,1.21.02c.57.6,1.13,1.24,1.66,1.91.29.37.22.91-.15,1.2-.16.12-.34.18-.53.18ZM56.53,7.74c-.19,0-.39-.06-.55-.2-.6-.5-1.23-.96-1.88-1.39-.4-.26-.51-.79-.25-1.18.26-.4.79-.51,1.18-.25.7.46,1.39.96,2.04,1.5.36.3.41.84.11,1.2-.17.2-.41.31-.66.31ZM21.69,7.1c-.33,0-.65-.19-.79-.52-.19-.43.02-.94.45-1.12.74-.32,1.52-.63,2.3-.93.44-.17.93.06,1.1.5s-.06.93-.5,1.1c-.76.29-1.51.59-2.23.9-.11.05-.22.07-.34.07ZM26.26,5.38c-.36,0-.69-.23-.81-.59-.15-.45.09-.93.54-1.08.79-.26,1.58-.51,2.37-.73.45-.13.93.13,1.06.59.13.45-.13.93-.59,1.06-.76.22-1.54.46-2.3.71-.09.03-.18.04-.27.04ZM52.45,5.09c-.13,0-.26-.03-.38-.09-.69-.34-1.41-.65-2.15-.91-.44-.16-.67-.65-.52-1.09.16-.44.65-.68,1.09-.52.8.29,1.58.62,2.33.99.42.21.6.72.39,1.14-.15.3-.45.48-.77.48ZM30.96,4.04c-.39,0-.74-.26-.83-.66-.11-.46.17-.92.63-1.03.81-.19,1.63-.37,2.43-.52.46-.09.91.22,1,.68.09.46-.22.91-.68,1-.77.15-1.56.32-2.35.5-.07.02-.13.02-.2.02ZM47.88,3.44c-.07,0-.13,0-.2-.02-.75-.18-1.52-.33-2.31-.44-.47-.07-.79-.5-.73-.97.07-.47.5-.79.97-.73.84.12,1.67.28,2.47.47.46.11.74.57.63,1.03-.09.39-.44.65-.83.65ZM35.76,3.13c-.42,0-.79-.31-.85-.74-.06-.47.26-.9.73-.96.83-.12,1.66-.21,2.47-.28.47-.04.88.31.92.78.04.47-.31.88-.78.92-.78.06-1.58.15-2.38.26-.04,0-.08,0-.12,0ZM43.07,2.76s-.03,0-.05,0c-.77-.04-1.58-.05-2.38-.03-.48.01-.86-.36-.87-.83-.01-.47.36-.86.83-.87.84-.02,1.69-.01,2.5.03.47.02.83.43.81.9-.02.46-.4.81-.85.81Z"/>
        <g>
          <path class="cls-3" d="M27.4,5.87c0-2.86-2.32-5.18-5.18-5.18-2.86,0-5.18,2.32-5.18,5.18,0,2.86,2.32,5.18,5.18,5.18,2.86,0,5.18-2.32,5.18-5.18Z"/>
          <path class="cls-2" d="M28.09,5.87C28.09,2.63,25.46,0,22.22,0c-3.24,0-5.87,2.63-5.87,5.87,0,3.24,2.63,5.87,5.87,5.87,3.24,0,5.87-2.63,5.87-5.87,0-3.24,0,3.24,0,0ZM17.73,5.87c0-2.48,2.02-4.49,4.49-4.49s4.49,2.02,4.49,4.49c0,2.48-2.02,4.49-4.49,4.49-2.48,0-4.49-2.02-4.49-4.49,0-2.48,0,2.48,0,0Z"/>
        </g>
        <polygon class="cls-2" points="69.8 54.01 66.61 55.36 63.42 54.01 66.61 61.57 69.8 54.01"/>
        <circle class="cls-2" cx="66.71" cy="65.34" r="2.91"/>
        <path class="cls-4" d="M21.57,8.2h2.45c.24,0,.43.05.56.15.13.1.19.24.19.41,0,.15-.05.28-.15.39-.1.11-.26.16-.46.16h-3.45c-.23,0-.42-.06-.55-.19-.13-.13-.2-.28-.2-.46,0-.11.04-.26.13-.45.08-.19.18-.33.28-.44.42-.43.79-.8,1.13-1.11.33-.31.57-.51.72-.61.26-.18.47-.36.64-.55s.3-.37.39-.56.13-.38.13-.57c0-.2-.05-.38-.14-.54s-.23-.28-.39-.37-.34-.13-.54-.13c-.41,0-.73.18-.97.54-.03.05-.08.17-.16.38-.07.21-.16.37-.25.48-.09.11-.23.17-.41.17-.16,0-.29-.05-.39-.15-.1-.1-.15-.24-.15-.42,0-.22.05-.44.15-.68.1-.23.24-.45.43-.64.19-.19.44-.34.73-.46.3-.12.64-.18,1.04-.18.48,0,.89.08,1.22.23.22.1.41.24.58.41.17.18.3.38.39.61.09.23.14.47.14.72,0,.39-.1.74-.29,1.06-.19.32-.39.57-.59.75-.2.18-.54.46-1.01.85-.47.38-.79.68-.97.9-.08.08-.15.19-.23.31Z"/>
      </g>
    </g>
  </g>
</svg>