<?xml version="1.0" encoding="UTF-8"?>
<svg id="Layer_2" data-name="Layer 2" xmlns="http://www.w3.org/2000/svg" viewBox="0 0 77.33 123.47">
  <defs>
    <style>
      .cls-1, .cls-2, .cls-3, .cls-4 {
        stroke-width: 0px;
      }

      .cls-2 {
        fill: #6f6f6e;
      }

      .cls-3 {
        fill: #fff;
      }

      .cls-4 {
        fill: #ff0600;
      }
    </style>
  </defs>
  <g id="Z">
    <g>
      <g>
        <path class="cls-1" d="M59.82,123.47H1.58c-.81,0-1.47-.66-1.47-1.47s.66-1.47,1.47-1.47h58.24c.81,0,1.47.66,1.47,1.47s-.66,1.47-1.47,1.47Z"/>
        <path class="cls-1" d="M1.58,123.47c-.24,0-.47-.06-.7-.18-.71-.39-.98-1.27-.59-1.99L58.26,14.17c.39-.71,1.27-.98,1.99-.59.71.39.98,1.27.59,1.99L2.87,122.7c-.27.49-.77.77-1.29.77Z"/>
        <path class="cls-1" d="M59.82,15.42H1.58c-.81,0-1.47-.66-1.47-1.47s.66-1.47,1.47-1.47h58.24c.81,0,1.47.66,1.47,1.47s-.66,1.47-1.47,1.47Z"/>
      </g>
      <g>
        <path class="cls-2" d="M59.91,6.73h-2.44c-.47,0-.85-.38-.85-.85s.38-.85.85-.85h2.44c.47,0,.85.38.85.85s-.38.85-.85.85ZM55.03,6.73h-2.44c-.47,0-.85-.38-.85-.85s.38-.85.85-.85h2.44c.47,0,.85.38.85.85s-.38.85-.85.85ZM50.14,6.73h-2.44c-.47,0-.85-.38-.85-.85s.38-.85.85-.85h2.44c.47,0,.85.38.85.85s-.38.85-.85.85ZM45.26,6.73h-2.44c-.47,0-.85-.38-.85-.85s.38-.85.85-.85h2.44c.47,0,.85.38.85.85s-.38.85-.85.85ZM40.38,6.73h-2.44c-.47,0-.85-.38-.85-.85s.38-.85.85-.85h2.44c.47,0,.85.38.85.85s-.38.85-.85.85ZM35.49,6.73h-2.44c-.47,0-.85-.38-.85-.85s.38-.85.85-.85h2.44c.47,0,.85.38.85.85s-.38.85-.85.85ZM30.61,6.73h-2.44c-.47,0-.85-.38-.85-.85s.38-.85.85-.85h2.44c.47,0,.85.38.85.85s-.38.85-.85.85ZM25.72,6.73h-2.44c-.47,0-.85-.38-.85-.85s.38-.85.85-.85h2.44c.47,0,.85.38.85.85s-.38.85-.85.85ZM20.84,6.73h-2.44c-.47,0-.85-.38-.85-.85s.38-.85.85-.85h2.44c.47,0,.85.38.85.85s-.38.85-.85.85ZM15.96,6.73h-2.44c-.47,0-.85-.38-.85-.85s.38-.85.85-.85h2.44c.47,0,.85.38.85.85s-.38.85-.85.85ZM11.07,6.73h-2.44c-.47,0-.85-.38-.85-.85s.38-.85.85-.85h2.44c.47,0,.85.38.85.85s-.38.85-.85.85Z"/>
        <g>
          <polygon class="cls-2" points="57.18 9.06 58.54 5.88 57.2 2.68 64.75 5.9 57.18 9.06"/>
          <g>
            <path class="cls-3" d="M5.85,11.05c-2.86,0-5.17-2.34-5.16-5.2.01-2.86,2.34-5.17,5.2-5.16,2.86.01,5.17,2.34,5.16,5.2-.01,2.86-2.34,5.17-5.2,5.16Z"/>
            <path class="cls-2" d="M5.85,11.74c3.24.01,5.88-2.61,5.89-5.85C11.75,2.65,9.13.01,5.89,0,2.65-.01.01,2.61,0,5.85c-.01,3.24,2.61,5.88,5.85,5.89,3.24.01-3.24-.01,0,0ZM5.89,1.38c2.48,0,4.49,2.03,4.48,4.51,0,2.48-2.03,4.49-4.51,4.48-2.48,0-4.49-2.03-4.48-4.51,0-2.48,2.03-4.49,4.51-4.48,2.48,0-2.48,0,0,0Z"/>
          </g>
        </g>
        <path class="cls-4" d="M5.45,8.5l.06-4.27c-.8.6-1.34.9-1.62.89-.13,0-.25-.06-.35-.16-.1-.11-.15-.23-.15-.37,0-.16.05-.28.16-.35.1-.07.28-.17.53-.28.38-.17.69-.36.92-.55.23-.19.43-.41.61-.65.18-.24.29-.39.35-.45.05-.06.15-.08.3-.08.17,0,.3.07.4.2.1.13.15.31.14.53l-.07,5.37c0,.63-.23.94-.66.93-.19,0-.34-.07-.46-.2-.11-.13-.17-.32-.17-.57Z"/>
      </g>
      <g>
        <path class="cls-2" d="M52.75,114.57h-1.16c-.47,0-.85-.38-.85-.85s.38-.85.85-.85h1.16c.47,0,.85.38.85.85s-.38.85-.85.85ZM49.14,114.57h-2.44c-.47,0-.85-.38-.85-.85s.38-.85.85-.85h2.44c.47,0,.85.38.85.85s-.38.85-.85.85ZM44.26,114.57h-2.44c-.47,0-.85-.38-.85-.85s.38-.85.85-.85h2.44c.47,0,.85.38.85.85s-.38.85-.85.85ZM39.38,114.57h-2.44c-.47,0-.85-.38-.85-.85s.38-.85.85-.85h2.44c.47,0,.85.38.85.85s-.38.85-.85.85ZM34.49,114.57h-2.44c-.47,0-.85-.38-.85-.85s.38-.85.85-.85h2.44c.47,0,.85.38.85.85s-.38.85-.85.85ZM29.61,114.57h-2.44c-.47,0-.85-.38-.85-.85s.38-.85.85-.85h2.44c.47,0,.85.38.85.85s-.38.85-.85.85ZM24.72,114.57h-2.44c-.47,0-.85-.38-.85-.85s.38-.85.85-.85h2.44c.47,0,.85.38.85.85s-.38.85-.85.85ZM19.84,114.57h-2.44c-.47,0-.85-.38-.85-.85s.38-.85.85-.85h2.44c.47,0,.85.38.85.85s-.38.85-.85.85Z"/>
        <g>
          <polygon class="cls-2" points="47.55 116.9 48.92 113.72 47.57 110.52 55.12 113.74 47.55 116.9"/>
          <path class="cls-2" d="M55.77,113.71c0,1.61,1.3,2.91,2.91,2.91s2.91-1.3,2.91-2.91-1.3-2.91-2.91-2.91-2.91,1.3-2.91,2.91Z"/>
          <g>
            <path class="cls-3" d="M15.92,118.89c-2.86-.01-5.17-2.34-5.16-5.2.01-2.86,2.34-5.17,5.2-5.16,2.86,0,5.17,2.34,5.16,5.2-.01,2.86-2.34,5.17-5.2,5.16Z"/>
            <path class="cls-2" d="M15.92,119.58c3.24.01,5.88-2.61,5.89-5.85.01-3.24-2.61-5.88-5.85-5.89-3.24-.01-5.88,2.61-5.89,5.85-.01,3.24,2.61,5.88,5.85,5.89,3.24.01-3.24-.01,0,0ZM15.96,109.22c2.48,0,4.49,2.03,4.48,4.51,0,2.48-2.03,4.49-4.51,4.48-2.48,0-4.49-2.03-4.48-4.51,0-2.48,2.03-4.49,4.51-4.48,2.48,0-2.48,0,0,0Z"/>
          </g>
          <path class="cls-4" d="M15.85,112.96c.29,0,.54-.08.74-.25.21-.17.31-.41.31-.73,0-.24-.08-.45-.25-.62-.17-.17-.39-.26-.67-.26-.19,0-.35.03-.47.08-.12.05-.22.12-.29.21-.07.09-.14.2-.2.34-.06.14-.12.27-.18.39-.03.07-.09.12-.17.15-.08.04-.18.06-.28.06-.13,0-.24-.05-.34-.15-.11-.1-.16-.24-.16-.41s.05-.33.15-.51c.1-.18.24-.35.43-.51.19-.16.42-.29.71-.39.28-.1.6-.15.94-.15.3,0,.58.04.83.12.25.08.47.2.65.36.18.16.32.34.42.54.09.21.14.43.14.67,0,.31-.07.58-.2.8-.14.22-.33.44-.58.65.24.13.45.28.62.45.17.17.29.36.38.56.08.2.13.43.13.66,0,.28-.06.56-.17.83s-.28.5-.5.71c-.22.21-.49.37-.79.49-.3.12-.64.18-1.01.18s-.71-.07-1.01-.2c-.3-.13-.54-.3-.73-.5-.19-.2-.34-.41-.44-.63-.1-.22-.15-.39-.15-.53,0-.18.06-.33.18-.44.12-.11.26-.17.44-.17.09,0,.17.03.25.08.08.05.13.11.16.19.16.43.34.76.52.97.19.21.45.32.79.32.19,0,.38-.05.56-.14.18-.1.33-.24.45-.42.12-.19.18-.41.18-.65,0-.37-.1-.65-.3-.86-.2-.21-.48-.31-.84-.31-.06,0-.16,0-.29.02-.13.01-.22.02-.25.02-.17,0-.3-.04-.4-.13-.09-.09-.14-.21-.14-.36s.06-.27.17-.36c.11-.09.28-.14.5-.14h.19Z"/>
        </g>
      </g>
      <g>
        <path class="cls-2" d="M18.98,102.78c-.14,0-.28-.03-.41-.11-.41-.23-.57-.75-.34-1.16l1.17-2.14c.23-.41.75-.57,1.16-.34.41.23.57.75.34,1.16l-1.17,2.14c-.16.28-.45.44-.75.44ZM21.33,98.49c-.14,0-.28-.03-.41-.11-.41-.23-.57-.75-.34-1.16l1.17-2.14c.23-.41.75-.57,1.16-.34.41.23.57.75.34,1.16l-1.17,2.14c-.16.28-.45.44-.75.44ZM23.67,94.21c-.14,0-.28-.03-.41-.11-.41-.23-.57-.75-.34-1.16l1.17-2.14c.23-.41.75-.57,1.16-.34.41.23.57.75.34,1.16l-1.17,2.14c-.16.28-.45.44-.75.44ZM26.02,89.92c-.14,0-.28-.03-.41-.11-.41-.23-.57-.75-.34-1.16l1.17-2.14c.23-.41.75-.57,1.16-.34.41.23.57.75.34,1.16l-1.17,2.14c-.16.28-.45.44-.75.44ZM28.36,85.64c-.14,0-.28-.03-.41-.11-.41-.23-.57-.75-.34-1.16l1.17-2.14c.23-.41.75-.57,1.16-.34.41.23.57.75.34,1.16l-1.17,2.14c-.16.28-.45.44-.75.44ZM30.71,81.36c-.14,0-.28-.03-.41-.11-.41-.23-.57-.75-.34-1.16l1.17-2.14c.23-.41.75-.57,1.16-.34.41.23.57.75.34,1.16l-1.17,2.14c-.16.28-.45.44-.75.44ZM33.05,77.07c-.14,0-.28-.03-.41-.11-.41-.23-.57-.75-.34-1.16l1.17-2.14c.23-.41.75-.57,1.16-.34.41.23.57.75.34,1.16l-1.17,2.14c-.16.28-.45.44-.75.44ZM35.4,72.79c-.14,0-.28-.03-.41-.11-.41-.23-.57-.75-.34-1.16l1.17-2.14c.23-.41.75-.57,1.16-.34.41.23.57.75.34,1.16l-1.17,2.14c-.16.28-.45.44-.75.44ZM37.75,68.51c-.14,0-.28-.03-.41-.11-.41-.23-.57-.75-.34-1.16l1.17-2.14c.23-.41.75-.57,1.16-.34.41.23.57.75.34,1.16l-1.17,2.14c-.16.28-.45.44-.75.44ZM40.09,64.22c-.14,0-.28-.03-.41-.11-.41-.23-.57-.75-.34-1.16l1.17-2.14c.23-.41.75-.57,1.16-.34.41.23.57.75.34,1.16l-1.17,2.14c-.16.28-.45.44-.75.44ZM42.44,59.94c-.14,0-.28-.03-.41-.11-.41-.23-.57-.75-.34-1.16l1.17-2.14c.23-.41.75-.57,1.16-.34.41.23.57.75.34,1.16l-1.17,2.14c-.16.28-.45.44-.75.44ZM44.78,55.65c-.14,0-.28-.03-.41-.11-.41-.23-.57-.75-.34-1.16l1.17-2.14c.23-.41.75-.57,1.16-.34.41.23.57.75.34,1.16l-1.17,2.14c-.16.28-.45.44-.75.44ZM47.13,51.37c-.14,0-.28-.03-.41-.11-.41-.23-.57-.75-.34-1.16l1.17-2.14c.23-.41.75-.57,1.16-.34.41.23.57.75.34,1.16l-1.17,2.14c-.16.28-.45.44-.75.44ZM49.47,47.09c-.14,0-.28-.03-.41-.11-.41-.23-.57-.75-.34-1.16l1.17-2.14c.23-.41.75-.57,1.16-.34.41.23.57.75.34,1.16l-1.17,2.14c-.16.28-.45.44-.75.44ZM51.82,42.8c-.14,0-.28-.03-.41-.11-.41-.23-.57-.75-.34-1.16l1.17-2.14c.23-.41.75-.57,1.16-.34.41.23.57.75.34,1.16l-1.17,2.14c-.16.28-.45.44-.75.44ZM54.16,38.52c-.14,0-.28-.03-.41-.11-.41-.23-.57-.75-.34-1.16l1.17-2.14c.23-.41.75-.57,1.16-.34.41.23.57.75.34,1.16l-1.17,2.14c-.16.28-.45.44-.75.44ZM56.51,34.23c-.14,0-.28-.03-.41-.11-.41-.23-.57-.75-.34-1.16l1.17-2.14c.23-.41.75-.57,1.16-.34.41.23.57.75.34,1.16l-1.17,2.14c-.16.28-.45.44-.75.44ZM58.85,29.95c-.14,0-.28-.03-.41-.11-.41-.23-.57-.75-.34-1.16l1.17-2.14c.23-.41.75-.57,1.16-.34.41.23.57.75.34,1.16l-1.17,2.14c-.16.28-.45.44-.75.44ZM61.2,25.67c-.14,0-.28-.03-.41-.11-.41-.23-.57-.75-.34-1.16l1.17-2.14c.23-.41.75-.57,1.16-.34.41.23.57.75.34,1.16l-1.17,2.14c-.16.28-.45.44-.75.44ZM63.54,21.38c-.14,0-.28-.03-.41-.11-.41-.23-.57-.75-.34-1.16l1.17-2.14c.23-.41.75-.57,1.16-.34.41.23.57.75.34,1.16l-1.17,2.14c-.16.28-.45.44-.75.44ZM65.89,17.1c-.14,0-.28-.03-.41-.11-.41-.23-.57-.75-.34-1.16l1.17-2.14c.23-.41.75-.57,1.16-.34.41.23.57.75.34,1.16l-1.17,2.14c-.16.28-.45.44-.75.44ZM68.24,12.81c-.14,0-.28-.03-.41-.11-.41-.23-.57-.75-.34-1.16l1.17-2.14c.23-.41.75-.57,1.16-.34s.57.75.34,1.16l-1.17,2.14c-.16.28-.45.44-.75.44ZM70.58,8.53c-.14,0-.28-.03-.41-.11-.41-.23-.57-.75-.34-1.16l1.17-2.14c.23-.41.75-.57,1.16-.34.41.23.57.75.34,1.16l-1.17,2.14c-.16.28-.45.44-.75.44Z"/>
        <g>
          <path class="cls-3" d="M71.43,11.2c2.86.02,5.19-2.29,5.21-5.15.02-2.86-2.29-5.19-5.15-5.21-2.86-.02-5.19,2.29-5.21,5.15-.02,2.86,2.29,5.19,5.15,5.21Z"/>
          <path class="cls-2" d="M71.43,11.89c3.24.02,5.89-2.6,5.9-5.84.02-3.24-2.6-5.88-5.84-5.9-3.24-.02-5.88,2.6-5.9,5.84-.02,3.24,2.6,5.89,5.84,5.9,3.24.02-3.24-.02,0,0ZM71.48,1.52c2.48.01,4.48,2.04,4.47,4.52-.01,2.48-2.04,4.48-4.52,4.47-2.48-.01-4.48-2.04-4.47-4.52.01-2.48,2.04-4.48,4.52-4.47,2.48.01-2.48-.01,0,0Z"/>
        </g>
        <polygon class="cls-2" points="22.51 102.3 19.05 102.05 16.83 99.39 16.22 107.57 22.51 102.3"/>
        <path class="cls-4" d="M70.62,8.25h2.45c.24,0,.43.05.56.15.13.1.19.24.19.41,0,.15-.05.28-.15.39-.1.11-.26.16-.46.16h-3.45c-.23,0-.42-.06-.55-.19-.13-.13-.2-.28-.2-.46,0-.11.04-.26.13-.45.08-.19.18-.33.28-.44.42-.43.79-.8,1.13-1.11.33-.31.57-.51.72-.61.26-.18.47-.36.64-.55s.3-.37.39-.56c.09-.19.13-.38.13-.57,0-.2-.05-.38-.14-.54-.1-.16-.23-.28-.39-.37s-.34-.13-.54-.13c-.41,0-.73.18-.97.54-.03.05-.08.17-.16.38-.07.21-.16.37-.25.48-.09.11-.23.17-.41.17-.16,0-.29-.05-.39-.15-.1-.1-.16-.24-.16-.42,0-.22.05-.44.15-.68.1-.23.24-.45.43-.64.19-.19.44-.34.73-.46.3-.12.64-.18,1.04-.18.48,0,.89.08,1.22.23.22.1.41.24.58.41.17.18.29.38.39.61.09.23.14.47.14.72,0,.39-.1.74-.29,1.06-.19.32-.39.57-.59.75-.2.18-.54.46-1.01.85-.47.38-.79.68-.97.9-.08.08-.15.19-.23.31Z"/>
      </g>
    </g>
  </g>
</svg>