<svg xmlns="http://www.w3.org/2000/svg" id="Layer_2" data-name="Layer 2" viewBox="0 0 18.88 83.24"><defs><style>.cls-1,.cls-2,.cls-3,.cls-4{stroke-width:0}.cls-2{fill:#6f6f6e}.cls-3{fill:#fff}.cls-4{fill:#ff0600}</style></defs><g id="I"><g><g><path d="M2.53,82.15c-.81,0-1.47-.66-1.47-1.47V20.15c0-.81.66-1.47,1.47-1.47s1.47.66,1.47,1.47v60.54c0,.81-.66,1.47-1.47,1.47Z" class="cls-1"/><path d="M0,5.72c0-.74.26-1.39.79-1.95.52-.56,1.13-.83,1.83-.83s1.28.28,1.75.83c.46.56.7,1.2.7,1.95,0,1.73-.82,2.59-2.45,2.59-.7,0-1.31-.25-1.83-.74-.52-.49-.79-1.11-.79-1.85Z" class="cls-1"/></g><g><path d="M13.08,72.97c-.47,0-.85-.38-.85-.85v-.49c0-.47.38-.85.85-.85s.85.38.85.85v.49c0,.47-.38.85-.85.85ZM13.08,70.04c-.47,0-.85-.38-.85-.85v-2.44c0-.47.38-.85.85-.85s.85.38.85.85v2.44c0,.47-.38.85-.85.85ZM13.08,65.16c-.47,0-.85-.38-.85-.85v-2.44c0-.47.38-.85.85-.85s.85.38.85.85v2.44c0,.47-.38.85-.85.85ZM13.08,60.27c-.47,0-.85-.38-.85-.85v-2.44c0-.47.38-.85.85-.85s.85.38.85.85v2.44c0,.47-.38.85-.85.85ZM13.08,55.39c-.47,0-.85-.38-.85-.85v-2.44c0-.47.38-.85.85-.85s.85.38.85.85v2.44c0,.47-.38.85-.85.85ZM13.08,50.51c-.47,0-.85-.38-.85-.85v-2.44c0-.47.38-.85.85-.85s.85.38.85.85v2.44c0,.47-.38.85-.85.85ZM13.08,45.62c-.47,0-.85-.38-.85-.85v-2.44c0-.47.38-.85.85-.85s.85.38.85.85v2.44c0,.47-.38.85-.85.85ZM13.08,40.74c-.47,0-.85-.38-.85-.85v-2.44c0-.47.38-.85.85-.85s.85.38.85.85v2.44c0,.47-.38.85-.85.85ZM13.08,35.85c-.47,0-.85-.38-.85-.85v-2.44c0-.47.38-.85.85-.85s.85.38.85.85v2.44c0,.47-.38.85-.85.85ZM13.08,30.97c-.47,0-.85-.38-.85-.85v-2.44c0-.47.38-.85.85-.85s.85.38.85.85v2.44c0,.47-.38.85-.85.85ZM13.08,26.09c-.47,0-.85-.38-.85-.85v-2.44c0-.47.38-.85.85-.85s.85.38.85.85v2.44c0,.47-.38.85-.85.85Z" class="cls-2"/><g><path d="M7.83,22.72c0-2.86,2.32-5.18,5.18-5.18,2.86,0,5.18,2.32,5.18,5.18,0,2.86-2.32,5.18-5.18,5.18-2.86,0-5.18-2.32-5.18-5.18Z" class="cls-3"/><path d="M7.14,22.72c0,3.24,2.63,5.87,5.87,5.87,3.24,0,5.87-2.63,5.87-5.87,0-3.24-2.63-5.87-5.87-5.87-3.24,0-5.87,2.63-5.87,5.87,0,3.24,0-3.24,0,0ZM17.5,22.72c0,2.48-2.01,4.49-4.49,4.49-2.48,0-4.49-2.01-4.49-4.49,0-2.48,2.01-4.49,4.49-4.49s4.49,2.01,4.49,4.49c0,2.48,0-2.48,0,0Z" class="cls-2"/></g><polygon points="9.96 69 13.15 70.36 16.34 69.01 13.14 76.56 9.96 69" class="cls-2"/><path d="M12.79,25.56v-4.27c-.79.61-1.33.92-1.6.92-.13,0-.25-.05-.35-.16-.1-.11-.15-.23-.15-.36,0-.16.05-.28.15-.35.1-.07.28-.17.53-.29.38-.18.68-.37.91-.56.23-.2.43-.42.6-.66.17-.24.29-.39.34-.45.05-.06.15-.08.3-.08.17,0,.3.06.4.19.1.13.15.31.15.53v5.37c0,.63-.21.94-.64.94-.19,0-.34-.06-.46-.19-.12-.13-.17-.32-.17-.57Z" class="cls-4"/><path d="M15.94,80.34c0,1.61-1.31,2.91-2.91,2.9s-2.91-1.31-2.9-2.91,1.31-2.91,2.91-2.9c1.61,0,2.91,1.31,2.9,2.91Z" class="cls-2"/></g><g><g><path d="M12.99,11.05c-2.86-.01-5.17-2.34-5.16-5.2.01-2.86,2.34-5.17,5.2-5.16s5.17,2.34,5.16,5.2c-.01,2.86-2.34,5.17-5.2,5.16Z" class="cls-3"/><path d="M12.99,11.74c3.24.01,5.88-2.61,5.89-5.85C18.89,2.65,16.27.01,13.03,0c-3.24-.01-5.88,2.61-5.89,5.85-.01,3.24,2.61,5.88,5.85,5.89,3.24.01-3.24-.01,0,0ZM13.03,1.38c2.48,0,4.49,2.03,4.48,4.51s-2.03,4.49-4.51,4.48c-2.48,0-4.49-2.03-4.48-4.51,0-2.48,2.03-4.49,4.51-4.48,2.48,0-2.48,0,0,0Z" class="cls-2"/></g><path d="M12.36,8.07h2.45c.24,0,.43.05.56.15.13.1.19.24.19.41,0,.15-.05.28-.15.39-.1.11-.26.16-.46.16h-3.45c-.23,0-.42-.06-.55-.19-.13-.13-.2-.28-.2-.46,0-.11.04-.26.13-.45.08-.19.18-.33.28-.44.42-.43.79-.8,1.13-1.11.33-.31.57-.51.72-.61.26-.18.47-.36.64-.55.17-.18.3-.37.39-.56.09-.19.13-.38.13-.57,0-.2-.05-.38-.14-.54-.1-.16-.23-.28-.39-.37-.16-.09-.34-.13-.54-.13-.41,0-.73.18-.97.54-.03.05-.08.17-.16.38-.07.21-.16.37-.25.48-.09.11-.23.17-.41.17-.16,0-.29-.05-.39-.15-.1-.1-.16-.24-.16-.42,0-.22.05-.44.15-.68.1-.23.24-.45.43-.64.19-.19.44-.34.73-.46.3-.12.64-.18,1.04-.18.48,0,.89.07,1.22.23.22.1.41.24.58.41.17.18.29.38.39.61.09.23.14.47.14.72,0,.39-.1.74-.29,1.06-.19.32-.39.57-.59.75-.2.18-.54.46-1.01.85-.47.38-.79.68-.97.9-.07.08-.15.19-.23.31Z" class="cls-4"/></g></g></g></svg>