<?xml version="1.0" encoding="UTF-8"?>
<svg id="Layer_2" data-name="Layer 2" xmlns="http://www.w3.org/2000/svg" viewBox="0 0 95.95 130.47">
  <defs>
    <style>
      .cls-1, .cls-2, .cls-3, .cls-4 {
        stroke-width: 0px;
      }

      .cls-2 {
        fill: #6f6f6e;
      }

      .cls-3 {
        fill: #fff;
      }

      .cls-4 {
        fill: #ff0600;
      }
    </style>
  </defs>
  <g id="J">
    <g>
      <g>
        <path class="cls-1" d="M34.87,123.81c-10.14,0-17.92-4.97-22.51-14.38-3.4-6.96-3.82-13.82-3.84-14.11-.05-.81.57-1.5,1.38-1.55.81-.04,1.5.57,1.55,1.38,0,.06.42,6.63,3.59,13.07,4.12,8.4,10.8,12.65,19.84,12.65,8.52,0,15.13-2.41,19.62-7.15,7.12-7.51,6.61-18.53,6.6-18.64,0-.03,0-.05,0-.08V14.65c0-.81.66-1.47,1.47-1.47s1.47.66,1.47,1.47v80.32c.05.94.44,12.47-7.38,20.75-5.07,5.37-12.4,8.09-21.77,8.09Z"/>
        <path class="cls-1" d="M94.48,16.04H29.28c-.81,0-1.47-.66-1.47-1.47s.66-1.47,1.47-1.47h65.2c.81,0,1.47.66,1.47,1.47s-.66,1.47-1.47,1.47Z"/>
      </g>
      <g>
        <path class="cls-2" d="M85.81,6.73h-.94c-.47,0-.85-.38-.85-.85s.38-.85.85-.85h.94c.47,0,.85.38.85.85s-.38.85-.85.85ZM82.43,6.73h-2.44c-.47,0-.85-.38-.85-.85s.38-.85.85-.85h2.44c.47,0,.85.38.85.85s-.38.85-.85.85ZM77.55,6.73h-2.44c-.47,0-.85-.38-.85-.85s.38-.85.85-.85h2.44c.47,0,.85.38.85.85s-.38.85-.85.85ZM72.67,6.73h-2.44c-.47,0-.85-.38-.85-.85s.38-.85.85-.85h2.44c.47,0,.85.38.85.85s-.38.85-.85.85ZM67.78,6.73h-2.44c-.47,0-.85-.38-.85-.85s.38-.85.85-.85h2.44c.47,0,.85.38.85.85s-.38.85-.85.85ZM62.9,6.73h-2.44c-.47,0-.85-.38-.85-.85s.38-.85.85-.85h2.44c.47,0,.85.38.85.85s-.38.85-.85.85ZM58.01,6.73h-2.44c-.47,0-.85-.38-.85-.85s.38-.85.85-.85h2.44c.47,0,.85.38.85.85s-.38.85-.85.85ZM53.13,6.73h-2.44c-.47,0-.85-.38-.85-.85s.38-.85.85-.85h2.44c.47,0,.85.38.85.85s-.38.85-.85.85ZM48.25,6.73h-2.44c-.47,0-.85-.38-.85-.85s.38-.85.85-.85h2.44c.47,0,.85.38.85.85s-.38.85-.85.85ZM43.36,6.73h-2.44c-.47,0-.85-.38-.85-.85s.38-.85.85-.85h2.44c.47,0,.85.38.85.85s-.38.85-.85.85ZM38.48,6.73h-2.44c-.47,0-.85-.38-.85-.85s.38-.85.85-.85h2.44c.47,0,.85.38.85.85s-.38.85-.85.85Z"/>
        <g>
          <polygon class="cls-2" points="81.74 9.06 83.1 5.88 81.76 2.68 89.31 5.9 81.74 9.06"/>
          <circle class="cls-2" cx="92.86" cy="5.87" r="2.91"/>
          <g>
            <path class="cls-3" d="M31.92,11.05c-2.86-.01-5.17-2.34-5.16-5.2,0-2.86,2.34-5.17,5.2-5.16,2.86.01,5.17,2.34,5.16,5.2-.01,2.86-2.34,5.17-5.2,5.16Z"/>
            <path class="cls-2" d="M31.91,11.74c3.24.01,5.88-2.61,5.89-5.85C37.82,2.65,35.19.01,31.95,0c-3.24-.01-5.88,2.61-5.89,5.85-.01,3.24,2.61,5.88,5.85,5.89,3.24.01-3.24-.01,0,0ZM31.95,1.38c2.48,0,4.49,2.03,4.48,4.51s-2.03,4.49-4.51,4.48c-2.48,0-4.49-2.03-4.48-4.51,0-2.48,2.03-4.49,4.51-4.48,2.48,0-2.48,0,0,0Z"/>
          </g>
          <path class="cls-4" d="M31.23,8.06h2.45c.24,0,.43.05.56.15.13.1.19.24.19.41,0,.15-.05.28-.15.39-.1.11-.26.16-.46.16h-3.45c-.23,0-.42-.06-.55-.19-.13-.13-.2-.28-.2-.46,0-.11.04-.26.13-.45.08-.19.18-.33.28-.44.42-.43.79-.8,1.13-1.11.33-.31.57-.51.72-.61.26-.18.47-.36.64-.55s.3-.37.39-.56.13-.38.13-.57c0-.2-.05-.38-.14-.54s-.23-.28-.39-.37-.34-.13-.54-.13c-.41,0-.73.18-.97.54-.03.05-.08.17-.16.38-.07.21-.16.37-.25.48-.09.11-.23.17-.41.17-.16,0-.29-.05-.39-.15-.1-.1-.16-.24-.16-.42,0-.22.05-.44.15-.68.1-.23.24-.45.43-.64.19-.19.44-.34.73-.46s.64-.18,1.04-.18c.48,0,.89.08,1.22.23.22.1.41.24.58.41.17.18.3.38.39.61.09.23.14.47.14.72,0,.39-.1.74-.29,1.06-.19.32-.39.57-.59.75-.2.18-.54.46-1.01.85-.47.38-.79.68-.97.9-.08.08-.15.19-.23.31Z"/>
        </g>
      </g>
      <g>
        <polygon class="cls-2" points="7.91 108.97 4.53 108.2 1.64 110.09 3.44 102.09 7.91 108.97"/>
        <path class="cls-2" d="M5.81,97.11c0-1.61-1.3-2.91-2.91-2.91s-2.91,1.3-2.91,2.91,1.3,2.91,2.91,2.91,2.91-1.3,2.91-2.91Z"/>
        <g>
          <path class="cls-2" d="M36.31,130.47s-.01,0-.02,0c-.83-.02-1.67-.05-2.47-.1-.47-.03-.83-.44-.8-.91.03-.47.44-.83.91-.8.78.05,1.59.08,2.4.1.47,0,.85.4.84.87,0,.47-.39.84-.85.84ZM38.75,130.46c-.46,0-.84-.37-.85-.83-.01-.47.36-.86.83-.88.81-.02,1.61-.07,2.39-.13.47-.04.88.31.92.78.04.47-.31.88-.78.92-.81.07-1.65.12-2.48.14,0,0-.02,0-.02,0ZM31.44,130.16s-.06,0-.1,0c-.83-.09-1.66-.21-2.46-.34-.47-.08-.78-.52-.7-.98.08-.47.52-.78.98-.7.77.13,1.57.24,2.37.33.47.05.81.48.75.94-.05.44-.42.76-.85.76ZM43.6,130.05c-.42,0-.78-.31-.84-.73-.07-.47.25-.9.72-.97.79-.12,1.58-.26,2.34-.43.46-.1.92.19,1.02.65.1.46-.19.92-.65,1.02-.8.17-1.62.32-2.45.45-.04,0-.08,0-.13,0ZM26.64,129.35c-.06,0-.13,0-.19-.02-.82-.19-1.63-.4-2.41-.63-.45-.13-.71-.61-.58-1.06.13-.45.61-.71,1.06-.58.75.22,1.52.42,2.31.6.46.1.75.56.64,1.02-.09.4-.44.67-.83.67ZM48.36,129c-.37,0-.71-.24-.82-.61-.13-.45.12-.93.58-1.06.76-.23,1.52-.48,2.24-.76.44-.17.94.05,1.1.49.17.44-.05.94-.49,1.1-.77.3-1.57.57-2.37.81-.08.02-.16.04-.24.04ZM21.97,127.96c-.1,0-.2-.02-.3-.05-.79-.29-1.56-.62-2.31-.96-.43-.2-.61-.71-.42-1.14.2-.43.71-.61,1.14-.42.71.33,1.44.63,2.19.91.44.17.67.66.5,1.1-.13.34-.45.56-.8.56ZM52.91,127.25c-.32,0-.62-.18-.77-.48-.21-.42-.03-.94.4-1.14.71-.34,1.41-.72,2.08-1.12.41-.24.93-.11,1.17.3.24.41.11.93-.3,1.17-.71.42-1.46.82-2.21,1.19-.12.06-.25.09-.37.09ZM17.55,125.91c-.14,0-.29-.04-.42-.11-.73-.41-1.45-.86-2.13-1.33-.39-.27-.49-.8-.22-1.19.27-.39.8-.49,1.19-.22.64.44,1.32.86,2,1.25.41.23.55.75.32,1.16-.16.28-.45.43-.74.43ZM57.09,124.76c-.27,0-.53-.12-.69-.35-.28-.38-.19-.92.19-1.19.64-.46,1.26-.95,1.85-1.46.36-.31.9-.27,1.21.09.31.36.27.9-.09,1.21-.63.55-1.3,1.07-1.97,1.56-.15.11-.33.16-.5.16ZM13.53,123.15c-.19,0-.39-.06-.54-.2-.65-.53-1.27-1.1-1.86-1.69-.33-.33-.34-.87,0-1.21.33-.33.87-.34,1.21,0,.55.55,1.14,1.09,1.75,1.59.36.3.41.84.11,1.2-.17.2-.41.31-.66.31ZM60.78,121.58c-.22,0-.43-.08-.6-.24-.34-.33-.35-.87-.02-1.21.54-.56,1.08-1.15,1.58-1.76.3-.36.84-.42,1.2-.12.36.3.42.84.12,1.2-.53.65-1.1,1.28-1.68,1.87-.17.17-.39.26-.61.26ZM10.08,119.71c-.24,0-.49-.1-.66-.31-.53-.64-1.05-1.32-1.52-2.01-.27-.39-.17-.92.22-1.19.39-.27.92-.17,1.19.22.45.65.93,1.28,1.43,1.88.3.36.25.9-.11,1.2-.16.13-.35.2-.55.2ZM63.88,117.82c-.17,0-.34-.05-.49-.15-.39-.27-.48-.8-.21-1.19.45-.64.88-1.31,1.29-2,.24-.41.77-.54,1.17-.3.41.24.54.77.3,1.17-.43.72-.89,1.43-1.36,2.11-.17.24-.43.36-.7.36ZM7.32,115.69c-.3,0-.59-.16-.75-.44-.41-.73-.79-1.48-1.14-2.25-.19-.43,0-.94.43-1.13.43-.19.94,0,1.13.43.33.72.68,1.43,1.07,2.11.23.41.09.93-.33,1.16-.13.07-.28.11-.42.11ZM66.38,113.62c-.13,0-.26-.03-.38-.09-.42-.21-.59-.73-.38-1.15.35-.7.69-1.43,1-2.17.18-.43.69-.64,1.12-.45.43.18.64.69.45,1.12-.33.77-.68,1.54-1.05,2.27-.15.3-.45.47-.76.47ZM5.3,111.24c-.35,0-.68-.22-.81-.57-.28-.8-.53-1.61-.73-2.42-.12-.46.16-.92.62-1.04.46-.12.92.16,1.04.62.19.75.42,1.52.69,2.27.16.45-.08.93-.52,1.09-.09.03-.19.05-.28.05ZM68.29,109.13c-.09,0-.19-.02-.29-.05-.44-.16-.68-.65-.52-1.09.26-.74.51-1.51.74-2.28.13-.45.61-.71,1.06-.58.45.13.71.61.58,1.06-.23.8-.49,1.6-.77,2.38-.12.35-.45.57-.81.57ZM4.12,106.5c-.42,0-.79-.31-.85-.74-.08-.61-.12-.89.19-1.2.33-.33.87-.33,1.21,0,.15.15.23.35.25.54,0,.03.02.18.05.43.06.47-.26.9-.73.96-.04,0-.08,0-.12,0ZM69.66,104.43c-.06,0-.13,0-.19-.02-.46-.11-.75-.57-.64-1.03.18-.78.34-1.58.47-2.35.08-.47.52-.78.99-.7.47.08.78.52.7.99-.14.81-.31,1.63-.49,2.45-.09.4-.44.66-.83.66ZM70.49,99.6s-.06,0-.09,0c-.47-.05-.81-.47-.76-.94.07-.64.09-1.03.09-1.12v-1.25c0-.47.38-.85.85-.85s.85.38.85.85v1.27s0,.02,0,.04c0,.02-.02.46-.1,1.24-.05.44-.42.76-.85.76ZM70.58,94.71c-.47,0-.85-.38-.85-.85v-2.44c0-.47.38-.85.85-.85s.85.38.85.85v2.44c0,.47-.38.85-.85.85ZM70.58,89.82c-.47,0-.85-.38-.85-.85v-2.44c0-.47.38-.85.85-.85s.85.38.85.85v2.44c0,.47-.38.85-.85.85ZM70.58,84.94c-.47,0-.85-.38-.85-.85v-2.44c0-.47.38-.85.85-.85s.85.38.85.85v2.44c0,.47-.38.85-.85.85ZM70.58,80.05c-.47,0-.85-.38-.85-.85v-2.44c0-.47.38-.85.85-.85s.85.38.85.85v2.44c0,.47-.38.85-.85.85ZM70.58,75.17c-.47,0-.85-.38-.85-.85v-2.44c0-.47.38-.85.85-.85s.85.38.85.85v2.44c0,.47-.38.85-.85.85ZM70.58,70.29c-.47,0-.85-.38-.85-.85v-2.44c0-.47.38-.85.85-.85s.85.38.85.85v2.44c0,.47-.38.85-.85.85ZM70.58,65.4c-.47,0-.85-.38-.85-.85v-2.44c0-.47.38-.85.85-.85s.85.38.85.85v2.44c0,.47-.38.85-.85.85ZM70.58,60.52c-.47,0-.85-.38-.85-.85v-2.44c0-.47.38-.85.85-.85s.85.38.85.85v2.44c0,.47-.38.85-.85.85ZM70.58,55.63c-.47,0-.85-.38-.85-.85v-2.44c0-.47.38-.85.85-.85s.85.38.85.85v2.44c0,.47-.38.85-.85.85ZM70.58,50.75c-.47,0-.85-.38-.85-.85v-2.44c0-.47.38-.85.85-.85s.85.38.85.85v2.44c0,.47-.38.85-.85.85ZM70.58,45.87c-.47,0-.85-.38-.85-.85v-2.44c0-.47.38-.85.85-.85s.85.38.85.85v2.44c0,.47-.38.85-.85.85ZM70.58,40.98c-.47,0-.85-.38-.85-.85v-2.44c0-.47.38-.85.85-.85s.85.38.85.85v2.44c0,.47-.38.85-.85.85ZM70.58,36.1c-.47,0-.85-.38-.85-.85v-2.44c0-.47.38-.85.85-.85s.85.38.85.85v2.44c0,.47-.38.85-.85.85ZM70.58,31.21c-.47,0-.85-.38-.85-.85v-2.44c0-.47.38-.85.85-.85s.85.38.85.85v2.44c0,.47-.38.85-.85.85ZM70.58,26.33c-.47,0-.85-.38-.85-.85v-2.44c0-.47.38-.85.85-.85s.85.38.85.85v2.44c0,.47-.38.85-.85.85Z"/>
          <g>
            <g>
              <path class="cls-3" d="M70.65,28.05c-2.86-.01-5.17-2.34-5.16-5.2.01-2.86,2.34-5.17,5.2-5.16,2.86.01,5.17,2.34,5.16,5.2-.01,2.86-2.34,5.17-5.2,5.16Z"/>
              <path class="cls-2" d="M70.65,28.74c3.24.01,5.88-2.61,5.89-5.85.01-3.24-2.61-5.88-5.85-5.89-3.24-.01-5.88,2.61-5.89,5.85-.01,3.24,2.61,5.88,5.85,5.89,3.24.01-3.24-.01,0,0ZM70.69,18.38c2.48,0,4.49,2.03,4.48,4.51,0,2.48-2.03,4.49-4.51,4.48-2.48,0-4.49-2.03-4.48-4.51,0-2.48,2.03-4.49,4.51-4.48,2.48,0-2.48,0,0,0Z"/>
            </g>
            <path class="cls-4" d="M70.54,25.7v-4.27c-.79.61-1.33.91-1.6.91-.13,0-.25-.05-.35-.16-.1-.11-.15-.23-.15-.36,0-.16.05-.28.15-.35.1-.08.28-.17.53-.29.38-.18.68-.37.91-.56.23-.2.43-.42.6-.66.17-.24.29-.39.34-.45.05-.06.15-.08.3-.08.17,0,.3.06.4.19.1.13.15.31.15.53v5.37c0,.63-.21.94-.64.94-.19,0-.34-.06-.46-.19-.12-.13-.17-.32-.17-.57Z"/>
          </g>
        </g>
      </g>
    </g>
  </g>
</svg>