<?xml version="1.0" encoding="UTF-8"?>
<svg id="Layer_2" data-name="Layer 2" xmlns="http://www.w3.org/2000/svg" viewBox="0 0 166.09 242.4">
  <defs>
    <style>
      .cls-1, .cls-2, .cls-3, .cls-4 {
        stroke-width: 0px;
      }

      .cls-2 {
        fill: #6f6f6e;
      }

      .cls-3 {
        fill: #fff;
      }

      .cls-4 {
        fill: #ff0600;
      }
    </style>
  </defs>
  <g id="C">
    <g>
      <path class="cls-1" d="M81.81,228.96c-27.32,0-46.54-14.06-57.15-41.79-9-23.53-10.04-52.64-10.04-72.49,0-7.93.98-35.77,13.58-61.06,12.06-24.21,30.81-37.01,54.22-37.01,22.04,0,39.53,10.63,50.59,30.74,8.23,14.96,9.97,29.71,10.04,30.33.17,1.52-.92,2.89-2.44,3.06-1.52.17-2.89-.92-3.06-2.44h0c-.02-.14-1.72-14.42-9.47-28.43-10.18-18.4-25.54-27.73-45.67-27.73-21.47,0-38.05,11.42-49.27,33.95-9.58,19.24-13,42.88-13,58.59,0,19.41,1,47.84,9.67,70.51,9.84,25.73,26.84,38.23,51.98,38.23,19.73,0,35.08-8.59,45.62-25.53,8.01-12.87,10.12-25.98,10.14-26.11.23-1.51,1.65-2.54,3.16-2.31,1.51.23,2.54,1.64,2.31,3.15-.09.57-2.26,14.21-10.81,28.03-7.99,12.91-23.22,28.31-50.42,28.31Z"/>
      <path class="cls-2" d="M82.14,242.4c-.88,0-1.6-.7-1.61-1.58-.02-.89.69-1.63,1.58-1.64,1.53-.03,3.05-.09,4.53-.19.88-.06,1.66.61,1.72,1.5.06.89-.61,1.66-1.5,1.72-1.53.1-3.1.17-4.68.2-.01,0-.02,0-.03,0ZM77.54,242.39s-.03,0-.04,0c-1.58-.04-3.15-.12-4.68-.24-.89-.07-1.55-.85-1.48-1.73.07-.89.85-1.55,1.73-1.48,1.48.12,3,.19,4.52.23.89.02,1.59.76,1.57,1.66-.02.88-.74,1.57-1.61,1.57ZM91.33,241.79c-.81,0-1.5-.6-1.6-1.43-.1-.88.53-1.69,1.42-1.79,1.51-.18,3.01-.39,4.47-.65.88-.15,1.71.44,1.86,1.31s-.44,1.71-1.31,1.86c-1.52.26-3.08.49-4.65.67-.06,0-.13.01-.19.01ZM68.37,241.66c-.07,0-.14,0-.22-.01-1.56-.21-3.12-.47-4.63-.76-.87-.17-1.44-1.02-1.27-1.89.17-.87,1.02-1.44,1.89-1.27,1.45.28,2.94.53,4.44.73.88.12,1.5.93,1.38,1.81-.11.81-.8,1.4-1.6,1.4ZM100.4,240.21c-.73,0-1.39-.5-1.57-1.24-.2-.87.33-1.74,1.2-1.94,1.47-.35,2.94-.74,4.35-1.17.85-.26,1.75.22,2.01,1.07.26.85-.22,1.75-1.07,2.01-1.48.45-3.01.86-4.55,1.22-.12.03-.25.04-.37.04ZM59.34,239.89c-.14,0-.27-.02-.41-.05-1.52-.4-3.04-.86-4.51-1.36-.84-.29-1.3-1.2-1.01-2.05.29-.84,1.2-1.3,2.05-1.01,1.4.47,2.84.91,4.3,1.29.86.23,1.38,1.11,1.15,1.97-.19.72-.84,1.2-1.56,1.2ZM109.21,237.53c-.65,0-1.26-.4-1.51-1.04-.32-.83.1-1.76.93-2.08,1.4-.53,2.8-1.12,4.14-1.74.81-.38,1.77-.03,2.14.78.38.81.03,1.77-.78,2.14-1.41.66-2.87,1.27-4.35,1.83-.19.07-.38.11-.57.11ZM50.64,236.93c-.21,0-.42-.04-.63-.13-1.45-.61-2.89-1.28-4.28-1.99-.79-.41-1.11-1.38-.7-2.17.41-.79,1.38-1.11,2.17-.7,1.32.68,2.68,1.31,4.06,1.89.82.35,1.21,1.29.86,2.11-.26.62-.86.99-1.49.99ZM117.55,233.64c-.56,0-1.11-.3-1.41-.82-.44-.78-.16-1.76.62-2.2,1.3-.73,2.59-1.52,3.82-2.34.74-.49,1.74-.3,2.24.45.5.74.3,1.74-.45,2.24-1.3.87-2.66,1.7-4.03,2.47-.25.14-.52.21-.79.21ZM42.47,232.74c-.29,0-.58-.08-.84-.24-1.33-.82-2.66-1.7-3.93-2.62-.72-.52-.88-1.53-.36-2.25.52-.72,1.53-.88,2.25-.36,1.2.87,2.46,1.71,3.72,2.48.76.47,1,1.46.53,2.22-.3.5-.83.77-1.38.77ZM125.2,228.53c-.48,0-.95-.21-1.27-.61-.55-.7-.43-1.71.27-2.27,1.16-.92,2.31-1.9,3.41-2.91.65-.6,1.67-.56,2.28.09.6.65.56,1.68-.09,2.28-1.16,1.07-2.37,2.1-3.6,3.07-.3.23-.65.35-1,.35ZM35.02,227.35c-.37,0-.74-.13-1.04-.38-1.19-1.01-2.36-2.08-3.49-3.18-.64-.62-.65-1.64-.02-2.28.62-.64,1.64-.65,2.28-.02,1.07,1.05,2.18,2.06,3.31,3.02.68.58.76,1.59.19,2.27-.32.38-.77.57-1.23.57ZM131.96,222.28c-.39,0-.79-.14-1.1-.43-.65-.61-.69-1.63-.09-2.28,1.01-1.09,1.99-2.23,2.93-3.4.56-.7,1.57-.81,2.27-.26.7.56.81,1.57.26,2.27-.98,1.23-2.02,2.44-3.08,3.58-.32.34-.75.52-1.18.52ZM28.46,220.92c-.45,0-.89-.18-1.21-.54-1.03-1.16-2.04-2.38-3.01-3.63-.55-.7-.42-1.72.29-2.26.71-.55,1.72-.42,2.26.29.92,1.19,1.89,2.36,2.87,3.46.59.67.53,1.69-.14,2.28-.31.27-.69.41-1.07.41ZM137.71,215.09c-.32,0-.63-.09-.91-.28-.73-.5-.92-1.51-.41-2.24.84-1.22,1.65-2.49,2.42-3.79.46-.77,1.44-1.02,2.21-.56.77.45,1.02,1.44.56,2.21-.81,1.36-1.66,2.7-2.54,3.98-.31.45-.82.7-1.33.7ZM22.81,213.64c-.52,0-1.02-.25-1.33-.71-.87-1.27-1.72-2.6-2.53-3.96-.46-.76-.21-1.76.55-2.21.76-.46,1.75-.21,2.21.55.78,1.3,1.6,2.58,2.43,3.8.5.74.31,1.74-.43,2.24-.28.19-.59.28-.91.28ZM142.41,207.16c-.25,0-.5-.06-.73-.18-.79-.41-1.11-1.38-.7-2.17.67-1.32,1.32-2.69,1.93-4.08.36-.82,1.31-1.19,2.13-.83.82.36,1.19,1.31.83,2.13-.64,1.45-1.31,2.88-2.02,4.25-.29.56-.85.88-1.44.88ZM18.07,205.75c-.58,0-1.14-.31-1.43-.86-.72-1.35-1.42-2.76-2.09-4.19-.38-.81-.03-1.77.77-2.15.81-.38,1.77-.03,2.15.77.65,1.38,1.33,2.75,2.03,4.05.42.79.12,1.76-.67,2.18-.24.13-.5.19-.75.19ZM14.14,197.41c-.63,0-1.23-.37-1.49-.99-.59-1.42-1.17-2.88-1.71-4.35-.31-.84.12-1.76.95-2.07.83-.31,1.76.12,2.07.95.53,1.43,1.09,2.85,1.66,4.23.34.82-.05,1.77-.87,2.11-.2.08-.41.12-.62.12ZM10.93,188.77c-.68,0-1.31-.43-1.53-1.11-.47-1.44-.94-2.94-1.38-4.46-.25-.86.24-1.75,1.1-2,.86-.25,1.75.24,2,1.1.43,1.48.88,2.94,1.35,4.35.28.85-.18,1.76-1.03,2.04-.17.06-.34.08-.5.08ZM8.34,179.92c-.72,0-1.37-.48-1.56-1.21-.38-1.47-.75-3-1.1-4.53-.2-.87.35-1.73,1.22-1.93.87-.2,1.73.35,1.93,1.22.34,1.5.7,2.99,1.08,4.44.22.86-.3,1.74-1.16,1.97-.14.03-.27.05-.4.05ZM6.29,170.92c-.75,0-1.43-.53-1.58-1.3-.3-1.5-.59-3.04-.86-4.58-.15-.88.43-1.71,1.31-1.87.88-.15,1.71.43,1.87,1.31.26,1.51.55,3.02.84,4.5.17.87-.39,1.72-1.27,1.9-.11.02-.21.03-.32.03ZM4.7,161.82c-.78,0-1.47-.57-1.59-1.37-.23-1.51-.45-3.05-.65-4.59-.12-.88.51-1.69,1.39-1.81.89-.12,1.69.51,1.81,1.39.2,1.52.41,3.05.64,4.53.13.88-.47,1.7-1.35,1.84-.08.01-.16.02-.24.02ZM3.5,152.69c-.81,0-1.51-.61-1.6-1.43-.17-1.51-.33-3.06-.47-4.62-.08-.89.57-1.67,1.46-1.76.9-.08,1.67.57,1.76,1.46.14,1.54.3,3.07.47,4.56.1.89-.54,1.68-1.42,1.78-.06,0-.12.01-.18.01ZM2.64,143.51c-.83,0-1.54-.64-1.61-1.49-.12-1.52-.23-3.08-.32-4.63-.06-.89.62-1.65,1.51-1.71.9-.06,1.66.62,1.71,1.51.09,1.53.2,3.07.32,4.58.07.89-.6,1.66-1.48,1.73-.04,0-.08,0-.13,0ZM2.07,134.3c-.86,0-1.57-.67-1.61-1.54-.07-1.56-.14-3.1-.19-4.63-.03-.89.67-1.64,1.56-1.67.9-.03,1.64.67,1.67,1.56.05,1.51.12,3.05.19,4.59.04.89-.64,1.65-1.53,1.69-.03,0-.05,0-.08,0ZM1.74,125.07c-.87,0-1.59-.7-1.61-1.58-.04-1.56-.06-3.11-.09-4.63-.01-.89.7-1.62,1.59-1.63.88-.02,1.62.7,1.63,1.59.02,1.51.05,3.04.08,4.6.02.89-.68,1.63-1.57,1.65-.01,0-.03,0-.04,0ZM1.62,115.84c-.89,0-1.61-.72-1.61-1.61,0-.81,0-1.61,0-2.4,0-.73,0-1.48.02-2.24.01-.89.77-1.6,1.64-1.59.89.02,1.6.75,1.59,1.64-.01.74-.02,1.47-.02,2.19,0,.79,0,1.59,0,2.39,0,.89-.72,1.62-1.61,1.62h0ZM1.79,106.62s-.05,0-.08,0c-.89-.04-1.58-.8-1.53-1.69.07-1.52.18-3.09.3-4.65.07-.89.85-1.55,1.74-1.48.89.07,1.55.85,1.48,1.73-.12,1.53-.22,3.07-.29,4.56-.04.86-.76,1.53-1.61,1.53ZM2.51,97.42c-.06,0-.12,0-.17,0-.89-.09-1.53-.89-1.43-1.78.16-1.53.35-3.09.56-4.63.12-.88.93-1.5,1.81-1.38.88.12,1.5.93,1.38,1.81-.2,1.51-.39,3.03-.55,4.54-.09.83-.79,1.44-1.6,1.44ZM3.74,88.27c-.09,0-.17,0-.26-.02-.88-.14-1.48-.97-1.33-1.85.25-1.52.52-3.07.81-4.59.17-.88,1.01-1.45,1.89-1.28.88.17,1.45,1.01,1.28,1.89-.28,1.49-.55,3.01-.79,4.5-.13.79-.81,1.36-1.59,1.36ZM5.46,79.2c-.11,0-.23-.01-.35-.04-.87-.19-1.42-1.05-1.23-1.92.33-1.52.69-3.05,1.06-4.54.21-.86,1.09-1.39,1.95-1.18.86.21,1.39,1.09,1.18,1.95-.36,1.46-.71,2.96-1.04,4.45-.16.75-.83,1.27-1.58,1.27ZM154.64,71c-.77,0-1.46-.56-1.59-1.35,0-.02-.28-1.67-.98-4.41-.22-.86.3-1.74,1.17-1.96.86-.22,1.74.3,1.96,1.17.73,2.88,1.02,4.6,1.03,4.67.15.88-.45,1.71-1.32,1.86-.09.02-.18.02-.27.02ZM7.68,70.25c-.14,0-.29-.02-.43-.06-.86-.24-1.36-1.13-1.12-1.99.42-1.5.86-3,1.32-4.47.26-.85,1.17-1.33,2.02-1.06.85.27,1.33,1.17,1.06,2.02-.45,1.44-.88,2.91-1.29,4.38-.2.71-.85,1.18-1.55,1.18ZM152.39,62.01c-.69,0-1.33-.45-1.54-1.15-.44-1.44-.91-2.89-1.42-4.33-.29-.84.15-1.76.99-2.06.84-.29,1.76.15,2.06.99.52,1.48,1.01,2.98,1.46,4.46.26.85-.22,1.75-1.07,2.01-.16.05-.31.07-.47.07ZM10.42,61.44c-.18,0-.35-.03-.53-.09-.84-.29-1.29-1.21-1-2.05.51-1.49,1.06-2.96,1.61-4.39.32-.83,1.25-1.25,2.08-.93.83.32,1.25,1.25.93,2.08-.54,1.4-1.06,2.84-1.57,4.29-.23.67-.86,1.09-1.52,1.09ZM149.33,53.29c-.64,0-1.25-.38-1.5-1.02-.56-1.41-1.16-2.82-1.78-4.19-.37-.81,0-1.77.81-2.13.81-.37,1.77,0,2.13.81.64,1.41,1.25,2.86,1.83,4.32.33.83-.07,1.77-.9,2.1-.2.08-.4.12-.6.12ZM13.74,52.82c-.21,0-.43-.04-.63-.13-.82-.35-1.2-1.3-.85-2.12.62-1.44,1.26-2.88,1.91-4.26.38-.81,1.34-1.15,2.15-.77.81.38,1.15,1.34.77,2.15-.64,1.35-1.26,2.75-1.86,4.15-.26.61-.86.98-1.48.98ZM145.54,44.87c-.59,0-1.16-.32-1.44-.89-.69-1.36-1.41-2.71-2.14-4-.44-.78-.17-1.76.61-2.2.78-.44,1.76-.17,2.2.61.76,1.34,1.5,2.73,2.21,4.14.4.8.08,1.77-.71,2.17-.23.12-.48.17-.73.17ZM17.68,44.48c-.25,0-.51-.06-.74-.18-.79-.41-1.1-1.39-.68-2.18.73-1.39,1.48-2.77,2.25-4.1.45-.77,1.43-1.04,2.2-.59.77.45,1.04,1.43.59,2.2-.74,1.29-1.48,2.62-2.18,3.98-.29.55-.85.87-1.43.87ZM141,36.84c-.53,0-1.06-.27-1.36-.75-.81-1.28-1.66-2.55-2.52-3.76-.52-.73-.34-1.73.38-2.25.73-.52,1.73-.34,2.25.38.89,1.26,1.77,2.57,2.61,3.9.48.75.25,1.75-.5,2.23-.27.17-.57.25-.86.25ZM22.29,36.51c-.3,0-.6-.08-.87-.26-.75-.48-.97-1.48-.49-2.23.85-1.32,1.73-2.62,2.62-3.88.52-.73,1.53-.89,2.25-.38.73.52.89,1.53.38,2.25-.86,1.21-1.71,2.47-2.53,3.74-.31.48-.83.74-1.36.74ZM135.66,29.33c-.47,0-.94-.21-1.26-.61-.94-1.18-1.92-2.34-2.91-3.45-.6-.66-.54-1.68.12-2.28.66-.59,1.68-.54,2.28.12,1.03,1.15,2.06,2.36,3.04,3.59.56.7.44,1.71-.26,2.27-.3.24-.65.35-1,.35ZM27.64,29.03c-.35,0-.71-.12-1.01-.35-.7-.56-.81-1.57-.25-2.27.98-1.23,2-2.44,3.03-3.58.59-.66,1.61-.72,2.28-.12.66.59.72,1.61.12,2.28-.99,1.1-1.97,2.26-2.91,3.44-.32.4-.79.61-1.26.61ZM129.5,22.47c-.41,0-.82-.15-1.13-.46-1.07-1.06-2.19-2.08-3.31-3.05-.67-.58-.75-1.6-.17-2.28.58-.67,1.6-.75,2.28-.17,1.18,1.01,2.34,2.09,3.46,3.19.64.62.64,1.65.02,2.28-.32.32-.73.48-1.15.48ZM33.78,22.19c-.42,0-.83-.16-1.15-.48-.63-.63-.62-1.66.01-2.28,1.12-1.11,2.28-2.18,3.45-3.2.67-.58,1.69-.51,2.28.16.58.67.51,1.69-.16,2.28-1.12.97-2.23,2-3.3,3.06-.31.31-.72.47-1.13.47ZM122.53,16.46c-.34,0-.68-.11-.97-.32-1.2-.9-2.44-1.76-3.68-2.57-.75-.48-.96-1.48-.48-2.23.48-.75,1.48-.96,2.23-.48,1.31.85,2.61,1.75,3.87,2.7.71.53.86,1.55.32,2.26-.32.42-.8.64-1.29.64ZM40.74,16.16c-.49,0-.97-.22-1.29-.64-.54-.71-.4-1.72.32-2.26,1.26-.95,2.56-1.86,3.87-2.71.75-.48,1.75-.27,2.23.48.48.75.27,1.75-.48,2.23-1.25.81-2.49,1.68-3.68,2.58-.29.22-.63.33-.97.33ZM114.8,11.47c-.26,0-.53-.06-.78-.2-1.31-.72-2.65-1.4-4.01-2.02-.81-.37-1.16-1.33-.79-2.14.37-.81,1.33-1.16,2.14-.79,1.42.65,2.84,1.37,4.21,2.12.78.43,1.07,1.41.64,2.19-.29.53-.85.84-1.42.84ZM48.46,11.15c-.57,0-1.12-.3-1.42-.84-.43-.78-.14-1.76.64-2.19,1.38-.76,2.79-1.47,4.22-2.12.81-.37,1.77-.01,2.14.8.37.81.01,1.77-.8,2.14-1.35.62-2.7,1.29-4,2.01-.25.14-.51.2-.78.2ZM106.44,7.63c-.19,0-.38-.03-.57-.1-1.39-.52-2.82-1-4.25-1.43-.85-.25-1.34-1.15-1.09-2.01.25-.85,1.15-1.34,2.01-1.09,1.51.45,3.01.95,4.47,1.5.83.31,1.26,1.24.94,2.08-.24.65-.86,1.05-1.51,1.05ZM56.83,7.33c-.66,0-1.27-.4-1.51-1.05-.31-.84.12-1.76.95-2.07,1.46-.54,2.97-1.04,4.48-1.48.86-.25,1.75.24,2,1.1.25.86-.24,1.75-1.1,2-1.44.42-2.87.89-4.26,1.4-.18.07-.37.1-.56.1ZM97.63,5.01c-.12,0-.24-.01-.36-.04-1.44-.32-2.93-.61-4.42-.84-.88-.14-1.48-.96-1.34-1.84.14-.88.96-1.48,1.84-1.34,1.55.24,3.11.54,4.62.88.87.2,1.42,1.06,1.22,1.93-.17.75-.83,1.26-1.57,1.26ZM65.65,4.77c-.74,0-1.41-.52-1.58-1.28-.19-.87.37-1.73,1.24-1.92,1.52-.33,3.08-.6,4.63-.83.88-.13,1.7.48,1.83,1.37.13.88-.48,1.7-1.37,1.83-1.49.21-2.97.48-4.42.79-.11.02-.23.04-.34.04ZM88.55,3.57c-.05,0-.1,0-.15,0-1.47-.14-2.99-.24-4.5-.3-.89-.03-1.59-.78-1.55-1.67.03-.87.75-1.55,1.61-1.55.02,0,.04,0,.06,0,1.57.06,3.15.16,4.69.31.89.08,1.54.87,1.45,1.76-.08.84-.78,1.46-1.6,1.46ZM74.75,3.45c-.83,0-1.54-.64-1.61-1.49-.07-.89.59-1.67,1.48-1.74,1.54-.12,3.12-.2,4.69-.23.01,0,.02,0,.03,0,.88,0,1.6.7,1.61,1.58.02.89-.69,1.63-1.58,1.64-1.51.03-3.02.1-4.5.22-.04,0-.09,0-.13,0Z"/>
      <g>
        <path class="cls-3" d="M164.15,66.54c1.92,5.05-.63,10.7-5.68,12.61-5.05,1.92-10.7-.63-12.61-5.68-1.92-5.05.63-10.7,5.68-12.61,5.05-1.91,10.7.63,12.61,5.68Z"/>
        <path class="cls-2" d="M165.37,66.08c-2.17-5.71-8.58-8.6-14.29-6.43-5.71,2.17-8.6,8.58-6.43,14.29,2.17,5.71,8.58,8.6,14.29,6.43,5.71-2.17,8.6-8.58,6.43-14.29-2.17-5.71,2.17,5.71,0,0ZM147.08,73.02c-1.66-4.37.55-9.28,4.92-10.94,4.37-1.66,9.28.55,10.94,4.92,1.66,4.37-.55,9.28-4.92,10.94-4.37,1.66-9.28-.55-10.94-4.92-1.66-4.37,1.66,4.37,0,0Z"/>
        <polygon class="cls-2" points="149.88 203.62 145.25 199 138.71 199.12 149.64 188.14 149.88 203.62"/>
        <path class="cls-4" d="M154.26,74.48v-8.06c-1.5,1.15-2.51,1.73-3.03,1.73-.25,0-.47-.1-.66-.3-.19-.2-.29-.43-.29-.69,0-.3.09-.52.28-.66.19-.14.52-.32,1-.55.71-.34,1.29-.69,1.71-1.06.43-.37.81-.79,1.14-1.25.33-.46.55-.74.65-.85.1-.11.29-.16.57-.16.31,0,.56.12.75.36.19.24.28.58.28,1v10.14c0,1.19-.4,1.78-1.21,1.78-.36,0-.65-.12-.87-.36-.22-.24-.33-.6-.33-1.07Z"/>
        <path class="cls-2" d="M157.83,179.13c0,3.03-2.46,5.49-5.49,5.49s-5.49-2.46-5.49-5.49,2.46-5.49,5.49-5.49,5.49,2.46,5.49,5.49Z"/>
      </g>
    </g>
  </g>
</svg>