<?xml version="1.0" encoding="UTF-8"?>
<svg id="Layer_2" data-name="Layer 2" xmlns="http://www.w3.org/2000/svg" viewBox="0 0 76.1 125.74">
  <defs>
    <style>
      .cls-1, .cls-2, .cls-3, .cls-4 {
        stroke-width: 0px;
      }

      .cls-2 {
        fill: #6f6f6e;
      }

      .cls-3 {
        fill: #fff;
      }

      .cls-4 {
        fill: #ff0600;
      }
    </style>
  </defs>
  <g id="P">
    <g>
      <g>
        <path class="cls-2" d="M20.36,6.81h-1.22c-.47,0-.85-.38-.85-.85s.38-.85.85-.85h1.22c.47,0,.85.38.85.85s-.38.85-.85.85Z"/>
        <path class="cls-2" d="M45.41,73.35h-.03c-.79,0-1.6,0-2.41,0-.47,0-.85-.39-.85-.86,0-.47.39-.85.85-.85h0c.81,0,1.61,0,2.4,0h.03c.47,0,.85.38.85.85s-.38.85-.85.85ZM40.54,73.33h0c-.83,0-1.65-.02-2.44-.03-.47,0-.85-.4-.84-.87,0-.47.39-.85.87-.84.79.01,1.61.02,2.43.03.47,0,.85.39.85.86,0,.47-.39.85-.85.85ZM35.67,73.25s-.01,0-.02,0c-.88-.02-1.7-.03-2.44-.05-.47-.01-.85-.4-.84-.87.01-.47.39-.84.87-.84.74.02,1.55.03,2.43.05.47,0,.85.4.84.87,0,.47-.39.84-.85.84ZM47.84,73.17c-.42,0-.79-.31-.85-.74-.06-.47.26-.9.73-.96.75-.1,1.53-.25,2.32-.43.46-.11.92.18,1.02.64.11.46-.18.92-.64,1.02-.84.19-1.68.35-2.47.46-.04,0-.08,0-.12,0ZM52.59,72.09c-.36,0-.7-.23-.82-.6-.14-.45.11-.93.56-1.07.75-.23,1.5-.5,2.24-.79.44-.17.94.04,1.11.48.17.44-.04.94-.48,1.11-.78.3-1.57.58-2.36.83-.08.03-.17.04-.25.04ZM57.13,70.31c-.32,0-.63-.18-.77-.49-.2-.43-.02-.94.4-1.14.71-.34,1.42-.71,2.11-1.1.41-.23.93-.09,1.17.32.23.41.09.93-.32,1.17-.72.41-1.46.8-2.22,1.15-.12.06-.24.08-.37.08ZM61.36,67.91c-.28,0-.55-.13-.71-.38-.26-.39-.16-.92.23-1.19.66-.44,1.3-.91,1.92-1.39.37-.29.91-.23,1.2.14.29.37.23.91-.14,1.2-.65.51-1.33,1-2.02,1.47-.15.1-.31.14-.47.14ZM65.18,64.9c-.23,0-.46-.09-.63-.27-.32-.35-.3-.89.05-1.21.58-.53,1.14-1.1,1.67-1.67.32-.35.86-.37,1.21-.05.35.32.37.86.05,1.21-.56.61-1.16,1.21-1.77,1.77-.16.15-.37.23-.58.23ZM68.47,61.32c-.18,0-.37-.06-.52-.18-.37-.29-.44-.83-.15-1.2.48-.62.94-1.26,1.37-1.92.26-.4.79-.51,1.18-.25.39.26.51.79.25,1.18-.46.7-.94,1.38-1.45,2.04-.17.22-.42.33-.68.33ZM71.13,57.25c-.14,0-.28-.03-.41-.1-.41-.23-.57-.74-.34-1.16.37-.69.72-1.4,1.05-2.12.19-.43.7-.62,1.13-.43.43.19.63.7.43,1.13-.34.76-.71,1.52-1.1,2.24-.16.29-.45.45-.75.45ZM73.11,52.81c-.1,0-.19-.02-.29-.05-.44-.16-.68-.65-.52-1.09.26-.73.5-1.49.71-2.26.13-.45.6-.72,1.05-.59.45.13.72.6.6,1.05-.22.8-.48,1.6-.75,2.38-.12.35-.45.57-.8.57ZM74.42,48.13c-.06,0-.12,0-.17-.02-.46-.1-.76-.55-.66-1.01.16-.76.29-1.55.41-2.34.07-.47.5-.79.97-.73.47.07.79.5.73.97-.12.83-.26,1.65-.42,2.45-.08.4-.44.68-.84.68ZM75.1,43.32s-.05,0-.07,0c-.47-.04-.82-.45-.78-.92.06-.78.11-1.58.13-2.38.01-.47.42-.84.88-.83.47.01.84.41.83.88-.02.83-.07,1.66-.14,2.47-.04.45-.41.78-.85.78ZM75.24,38.46c-.46,0-.84-.37-.85-.83-.02-.8-.06-1.6-.13-2.38-.04-.47.31-.88.78-.93.46-.04.88.31.93.78.07.81.12,1.65.14,2.48.01.47-.36.86-.83.88,0,0-.01,0-.02,0ZM74.82,33.62c-.41,0-.78-.3-.84-.72-.12-.79-.27-1.57-.44-2.33-.1-.46.19-.92.65-1.02.46-.1.92.19,1.02.65.18.8.34,1.62.46,2.45.07.47-.25.9-.71.97-.04,0-.09.01-.13.01ZM73.74,28.88c-.37,0-.71-.24-.82-.61-.23-.76-.49-1.51-.77-2.24-.17-.44.05-.94.49-1.11.44-.17.94.05,1.11.49.3.77.57,1.56.82,2.36.14.45-.12.93-.57,1.07-.08.03-.17.04-.25.04ZM71.98,24.35c-.32,0-.62-.18-.77-.48-.34-.71-.72-1.41-1.11-2.09-.24-.41-.1-.93.31-1.17.41-.24.93-.1,1.17.31.42.72.81,1.46,1.18,2.21.21.43.03.94-.4,1.14-.12.06-.25.09-.37.09ZM69.52,20.15c-.27,0-.54-.13-.7-.37-.45-.64-.93-1.28-1.43-1.88-.3-.36-.25-.9.12-1.2.36-.3.9-.25,1.2.12.53.64,1.04,1.31,1.51,1.99.27.39.18.92-.21,1.19-.15.1-.32.15-.49.15ZM66.43,16.4c-.22,0-.45-.09-.61-.26-.55-.56-1.12-1.11-1.71-1.63-.35-.31-.39-.85-.08-1.21.31-.35.85-.39,1.21-.08.62.55,1.23,1.13,1.81,1.73.33.34.32.88-.02,1.21-.17.16-.38.24-.59.24ZM62.78,13.18c-.18,0-.36-.06-.51-.17-.63-.47-1.28-.93-1.94-1.35-.4-.26-.51-.78-.26-1.18.25-.4.78-.51,1.18-.26.7.45,1.39.93,2.05,1.43.38.28.45.82.17,1.2-.17.22-.42.34-.68.34ZM58.69,10.55c-.14,0-.28-.03-.41-.1-.69-.37-1.41-.73-2.13-1.05-.43-.19-.62-.7-.43-1.13.19-.43.7-.62,1.13-.43.76.34,1.51.71,2.24,1.11.42.22.57.74.35,1.16-.15.29-.45.45-.75.45ZM54.24,8.57c-.1,0-.19-.02-.29-.05-.74-.27-1.5-.51-2.26-.72-.46-.13-.72-.6-.6-1.05.13-.45.59-.72,1.05-.6.8.22,1.6.47,2.38.76.44.16.67.65.51,1.09-.13.35-.45.57-.8.57ZM49.55,7.28c-.05,0-.11,0-.16-.02-.78-.15-1.57-.26-2.34-.34-.47-.05-.81-.46-.77-.93.05-.47.47-.81.93-.77.82.08,1.65.2,2.48.36.46.09.77.53.68,1-.08.41-.44.7-.84.7ZM44.71,6.81h-2.44c-.47,0-.85-.38-.85-.85s.38-.85.85-.85h2.44c.47,0,.85.38.85.85s-.38.85-.85.85ZM39.84,6.81h-2.43c-.47,0-.85-.38-.85-.85s.38-.85.85-.85h2.43c.47,0,.85.38.85.85s-.38.85-.85.85ZM34.97,6.81h-2.44c-.47,0-.85-.38-.85-.85s.38-.85.85-.85h2.44c.47,0,.85.38.85.85s-.38.85-.85.85ZM30.1,6.81h-2.44c-.47,0-.85-.38-.85-.85s.38-.85.85-.85h2.44c.47,0,.85.38.85.85s-.38.85-.85.85ZM25.23,6.81h-2.44c-.47,0-.85-.38-.85-.85s.38-.85.85-.85h2.44c.47,0,.85.38.85.85s-.38.85-.85.85Z"/>
        <path class="cls-2" d="M30.77,73.14s-.01,0-.02,0c-.78-.02-1.22-.03-1.22-.03-.47-.01-.84-.41-.83-.88.01-.47.41-.84.88-.83,0,0,.44.01,1.22.03.47.01.84.4.83.88-.01.46-.39.83-.85.83Z"/>
      </g>
      <g>
        <polygon class="cls-2" points="32.32 69.15 31.01 72.36 32.42 75.53 24.81 72.46 32.32 69.15"/>
        <circle class="cls-2" cx="20.65" cy="72.66" r="2.91"/>
      </g>
      <g>
        <path class="cls-3" d="M20.13,11.05c-2.86,0-5.18-2.32-5.18-5.18S17.27.69,20.13.69s5.18,2.32,5.18,5.18-2.32,5.18-5.18,5.18Z"/>
        <path class="cls-2" d="M20.13,11.74c3.24,0,5.87-2.63,5.87-5.87S23.37,0,20.13,0s-5.87,2.63-5.87,5.87,2.63,5.87,5.87,5.87-3.24,0,0,0ZM20.13,1.38c2.48,0,4.49,2.01,4.49,4.49s-2.01,4.49-4.49,4.49-4.49-2.01-4.49-4.49,2.01-4.49,4.49-4.49-2.48,0,0,0Z"/>
      </g>
      <path class="cls-4" d="M19.38,8.22h2.45c.24,0,.43.05.56.15.13.1.19.24.19.41,0,.15-.05.28-.15.39-.1.11-.26.16-.46.16h-3.45c-.23,0-.42-.06-.55-.19-.13-.13-.2-.28-.2-.46,0-.11.04-.26.13-.45.08-.19.18-.33.28-.44.42-.43.79-.8,1.13-1.11.33-.31.57-.51.72-.61.26-.18.47-.36.64-.55s.3-.37.39-.56.13-.38.13-.57c0-.2-.05-.38-.14-.54s-.23-.28-.39-.37-.34-.13-.54-.13c-.41,0-.73.18-.97.54-.03.05-.08.17-.16.38-.07.21-.16.37-.25.48-.09.11-.23.17-.41.17-.16,0-.29-.05-.39-.15-.1-.1-.15-.24-.15-.42,0-.22.05-.44.15-.68.1-.23.24-.45.43-.64.19-.19.44-.34.73-.46.3-.12.64-.18,1.04-.18.48,0,.89.08,1.22.23.22.1.41.24.58.41.17.18.3.38.39.61.09.23.14.47.14.72,0,.39-.1.74-.29,1.06-.19.32-.39.57-.59.75-.2.18-.54.46-1.01.85-.47.38-.79.68-.97.9-.08.08-.15.19-.23.31Z"/>
      <g>
        <g>
          <path class="cls-2" d="M5,99.48v-2.58c0-.48.39-.86.86-.86s.86.39.86.86v2.58c0,.48-.39.86-.86.86s-.86-.39-.86-.86ZM5,94.31v-2.58c0-.48.39-.86.86-.86s.86.39.86.86v2.58c0,.48-.39.86-.86.86s-.86-.39-.86-.86ZM5,109.73v-2.58c0-.48.39-.86.86-.86s.86.39.86.86v2.58c0,.48-.39.86-.86.86s-.86-.39-.86-.86ZM5,104.57v-2.58c0-.48.39-.86.86-.86s.86.39.86.86v2.58c0,.48-.39.86-.86.86s-.86-.39-.86-.86ZM5,89.14v-2.58c0-.48.39-.86.86-.86s.86.39.86.86v2.58c0,.48-.39.86-.86.86s-.86-.39-.86-.86ZM5.01,83.86v-2.58c0-.48.39-.86.86-.86s.86.39.86.86v2.58c0,.48-.39.86-.86.86s-.86-.39-.86-.86ZM5.01,78.69v-2.58c0-.48.39-.86.86-.86s.86.39.86.86v2.58c0,.48-.39.86-.86.86s-.86-.39-.86-.86ZM5.01,73.52v-2.58c0-.48.39-.86.86-.86s.86.39.86.86v2.58c0,.48-.39.86-.86.86s-.86-.39-.86-.86ZM5.01,68.35v-2.58c0-.48.39-.86.86-.86s.86.39.86.86v2.58c0,.48-.39.86-.86.86s-.86-.39-.86-.86ZM5.01,63.18v-2.58c0-.48.39-.86.86-.86s.86.39.86.86v2.58c0,.48-.39.86-.86.86s-.86-.39-.86-.86Z"/>
          <path class="cls-2" d="M5,57.84v-2.58c0-.48.39-.86.86-.86s.86.39.86.86v2.58c0,.48-.39.86-.86.86s-.86-.39-.86-.86ZM5,52.67v-2.58c0-.48.39-.86.86-.86s.86.39.86.86v2.58c0,.48-.39.86-.86.86s-.86-.39-.86-.86ZM5,47.51v-2.58c0-.48.39-.86.86-.86s.86.39.86.86v2.58c0,.48-.39.86-.86.86s-.86-.39-.86-.86ZM5.01,42.22v-2.58c0-.48.39-.86.86-.86s.86.39.86.86v2.58c0,.48-.39.86-.86.86s-.86-.39-.86-.86ZM5.01,37.05v-2.58c0-.48.39-.86.86-.86s.86.39.86.86v2.58c0,.48-.39.86-.86.86s-.86-.39-.86-.86ZM5.01,31.88v-2.58c0-.48.39-.86.86-.86s.86.39.86.86v2.58c0,.48-.39.86-.86.86s-.86-.39-.86-.86ZM5.01,26.72v-2.58c0-.48.39-.86.86-.86s.86.39.86.86v2.58c0,.48-.39.86-.86.86s-.86-.39-.86-.86ZM5.01,21.55v-2.58c0-.48.39-.86.86-.86s.86.39.86.86v2.58c0,.48-.39.86-.86.86s-.86-.39-.86-.86ZM5.01,16.34v-2.58c0-.48.39-.86.86-.86s.86.39.86.86v2.58c0,.48-.39.86-.86.86s-.86-.39-.86-.86ZM5.01,11.17v-2.58c0-.48.39-.86.86-.86s.86.39.86.86v2.58c0,.48-.39.86-.86.86s-.86-.39-.86-.86Z"/>
          <g>
            <path class="cls-3" d="M11.05,6.15c0-2.86-2.32-5.18-5.18-5.18-2.86,0-5.18,2.32-5.18,5.18,0,2.86,2.32,5.18,5.18,5.18,2.86,0,5.18-2.32,5.18-5.18Z"/>
            <path class="cls-2" d="M11.74,6.15c0-3.24-2.63-5.87-5.87-5.87C2.63.28,0,2.91,0,6.15c0,3.24,2.63,5.87,5.87,5.87,3.24,0,5.87-2.63,5.87-5.87,0-3.24,0,3.24,0,0ZM1.38,6.15c0-2.48,2.02-4.49,4.49-4.49s4.49,2.02,4.49,4.49c0,2.48-2.02,4.49-4.49,4.49-2.48,0-4.49-2.02-4.49-4.49,0-2.48,0,2.48,0,0Z"/>
          </g>
          <polygon class="cls-2" points="9.05 110.58 5.86 111.93 2.67 110.58 5.86 118.14 9.05 110.58"/>
        </g>
        <path class="cls-4" d="M5.78,8.74v-4.27c-.79.61-1.33.92-1.6.92-.13,0-.25-.05-.35-.16-.1-.11-.15-.23-.15-.36,0-.16.05-.28.15-.35.1-.08.28-.17.53-.29.38-.18.68-.37.91-.56.23-.2.43-.42.6-.66.17-.24.29-.39.34-.45.05-.06.15-.08.3-.08.17,0,.3.06.4.19.1.13.15.31.15.53v5.37c0,.63-.21.94-.64.94-.19,0-.34-.06-.46-.19-.12-.13-.17-.32-.17-.57Z"/>
        <circle class="cls-2" cx="5.84" cy="122.72" r="2.91"/>
      </g>
      <path class="cls-1" d="M14.7,125.74c-.81,0-1.47-.66-1.47-1.47V13.77c0-.81.66-1.47,1.47-1.47s1.47.66,1.47,1.47v110.5c0,.81-.66,1.47-1.47,1.47Z"/>
      <path class="cls-1" d="M43.11,66.68H14.74c-.81,0-1.47-.66-1.47-1.47s.66-1.47,1.47-1.47h28.37c12.77,0,23.16-10.39,23.16-23.16v-2.2c0-12.77-10.39-23.16-23.16-23.16H15.26c-.81,0-1.47-.66-1.47-1.47s.66-1.47,1.47-1.47h27.85c14.39,0,26.09,11.7,26.09,26.09v2.2c0,14.39-11.7,26.09-26.09,26.09Z"/>
    </g>
  </g>
</svg>