<?xml version="1.0" encoding="UTF-8"?>
<svg id="Layer_2" data-name="Layer 2" xmlns="http://www.w3.org/2000/svg" viewBox="0 0 85.7 114.53">
  <defs>
    <style>
      .cls-1, .cls-2, .cls-3, .cls-4 {
        stroke-width: 0px;
      }

      .cls-2 {
        fill: #6f6f6e;
      }

      .cls-3 {
        fill: #fff;
      }

      .cls-4 {
        fill: #ff0600;
      }
    </style>
  </defs>
  <g id="Y">
    <g>
      <g>
        <g>
          <path class="cls-1" d="M42.6,64.01c-.54,0-1.07-.3-1.32-.83L11.76,2.39c-.35-.73-.05-1.6.68-1.96.73-.35,1.6-.05,1.96.68l29.52,60.79c.35.73.05,1.6-.68,1.96-.21.1-.42.15-.64.15Z"/>
          <path class="cls-1" d="M42.63,64.01c-.21,0-.43-.05-.64-.15-.73-.35-1.03-1.23-.68-1.96L70.83,1.11c.35-.73,1.23-1.03,1.96-.68.73.35,1.03,1.23.68,1.96l-29.52,60.79c-.25.52-.78.83-1.32.83Z"/>
        </g>
        <path class="cls-1" d="M42.52,114.31c-.81,0-1.47-.66-1.47-1.47v-50.3c0-.81.66-1.47,1.47-1.47s1.47.66,1.47,1.47v50.3c0,.81-.66,1.47-1.47,1.47Z"/>
      </g>
      <g>
        <path class="cls-2" d="M30.69,56.52c-.32,0-.62-.17-.77-.48l-.77-1.56c-.21-.42-.04-.94.39-1.14.42-.21.94-.04,1.15.39l.77,1.56c.21.42.04.94-.39,1.14-.12.06-.25.09-.38.09ZM28.84,52.77c-.31,0-.62-.17-.77-.48l-1.08-2.19c-.21-.42-.04-.94.39-1.14.42-.21.94-.04,1.14.39l1.08,2.19c.21.42.04.94-.39,1.14-.12.06-.25.09-.38.09ZM26.67,48.39c-.31,0-.62-.17-.77-.48l-1.08-2.19c-.21-.42-.04-.94.39-1.14.42-.21.94-.04,1.15.39l1.08,2.19c.21.42.04.94-.39,1.14-.12.06-.25.09-.38.09ZM24.51,44.01c-.32,0-.62-.17-.77-.48l-1.08-2.19c-.21-.42-.04-.94.39-1.14.42-.21.94-.04,1.15.39l1.08,2.19c.21.42.04.94-.39,1.15-.12.06-.25.09-.38.09ZM22.35,39.63c-.32,0-.62-.17-.77-.48l-1.08-2.19c-.21-.42-.04-.94.39-1.15.42-.21.94-.04,1.15.39l1.08,2.19c.21.42.04.94-.39,1.14-.12.06-.25.09-.38.09ZM20.18,35.25c-.32,0-.62-.17-.77-.48l-1.08-2.19c-.21-.42-.04-.94.39-1.14.42-.21.94-.04,1.15.39l1.08,2.19c.21.42.04.94-.39,1.14-.12.06-.25.09-.38.09ZM18.02,30.87c-.31,0-.62-.17-.77-.48l-1.08-2.19c-.21-.42-.04-.94.39-1.14.42-.21.94-.04,1.14.39l1.08,2.19c.21.42.04.94-.39,1.14-.12.06-.25.09-.38.09ZM15.85,26.5c-.32,0-.62-.17-.77-.48l-1.08-2.19c-.21-.42-.04-.94.39-1.15.42-.21.94-.04,1.15.39l1.08,2.19c.21.42.04.94-.39,1.14-.12.06-.25.09-.38.09ZM13.69,22.12c-.31,0-.62-.17-.77-.48l-1.08-2.19c-.21-.42-.04-.94.39-1.14.42-.21.94-.04,1.15.39l1.08,2.19c.21.42.04.94-.39,1.14-.12.06-.25.09-.38.09ZM11.52,17.74c-.31,0-.62-.17-.77-.48l-1.08-2.19c-.21-.42-.04-.94.39-1.14.42-.21.94-.04,1.14.39l1.08,2.19c.21.42.04.94-.39,1.14-.12.06-.25.09-.38.09ZM9.36,13.36c-.31,0-.62-.17-.77-.48l-1.08-2.19c-.21-.42-.04-.94.39-1.14.42-.21.94-.04,1.14.39l1.08,2.19c.21.42.04.94-.39,1.14-.12.06-.25.09-.38.09Z"/>
        <g>
          <path class="cls-3" d="M1.28,8.27C-.05,5.73.93,2.6,3.47,1.28,6.01-.05,9.14.93,10.46,3.47c1.33,2.54.34,5.67-2.19,6.99-2.54,1.33-5.67.34-6.99-2.19Z"/>
          <path class="cls-2" d="M.67,8.59c1.5,2.87,5.05,3.98,7.92,2.48,2.87-1.5,3.98-5.05,2.48-7.92C9.57.28,6.02-.83,3.15.67.28,2.17-.83,5.72.67,8.59c1.5,2.87-1.5-2.87,0,0ZM9.85,3.79c1.15,2.2.29,4.91-1.9,6.06-2.2,1.15-4.91.3-6.06-1.9-1.15-2.2-.29-4.91,1.9-6.06s4.91-.29,6.06,1.9c1.15,2.2-1.15-2.2,0,0Z"/>
        </g>
        <polygon class="cls-2" points="27.32 56.33 30.78 56.22 33.1 53.65 33.39 61.85 27.32 56.33"/>
        <path class="cls-4" d="M5.78,8.62l.06-4.27c-.8.6-1.34.9-1.62.89-.13,0-.25-.06-.35-.16-.1-.11-.15-.23-.15-.37,0-.16.05-.28.15-.35.1-.07.28-.17.53-.28.38-.17.69-.36.92-.55s.43-.41.61-.65c.18-.24.29-.39.35-.45.05-.06.15-.08.3-.08.17,0,.3.07.4.2.1.13.15.31.14.53l-.07,5.37c0,.63-.23.94-.66.93-.19,0-.34-.07-.46-.2-.11-.13-.17-.32-.17-.57Z"/>
        <path class="cls-2" d="M38.07,65.78c.52-1.52-.3-3.17-1.82-3.69-1.52-.52-3.17.3-3.69,1.82-.52,1.52.3,3.17,1.82,3.69,1.52.52,3.17-.3,3.69-1.82Z"/>
      </g>
      <g>
        <g>
          <path class="cls-2" d="M48.34,104.8c-.47,0-.85-.38-.85-.85v-.48c0-.47.38-.86.85-.86h0c.47,0,.85.38.85.85v.48c0,.47-.38.86-.85.86h0ZM48.33,101.88c-.47,0-.85-.38-.85-.85v-2.44c0-.47.37-.86.84-.86h0c.47,0,.85.38.85.85v2.44c0,.47-.37.86-.84.86h0ZM48.31,97c-.47,0-.85-.38-.85-.85v-2.44c0-.47.37-.86.84-.86h0c.47,0,.85.38.85.85v2.44c0,.47-.37.86-.84.86h0ZM48.3,92.11c-.47,0-.85-.38-.85-.85v-2.44c0-.47.37-.86.84-.86h0c.47,0,.85.38.85.85v2.44c0,.47-.37.86-.84.86h0ZM48.28,87.23c-.47,0-.85-.38-.85-.85v-2.44c0-.47.37-.86.84-.86h0c.47,0,.85.38.85.85v2.44c0,.47-.37.86-.84.86h0ZM48.27,82.35c-.47,0-.85-.38-.85-.85v-2.44c0-.47.37-.86.84-.86h0c.47,0,.85.38.85.85v2.44c0,.47-.37.86-.84.86h0ZM48.25,77.46c-.47,0-.85-.38-.85-.85v-2.44c0-.47.37-.86.84-.86h0c.47,0,.85.38.85.85v2.44c0,.47-.37.86-.84.86h0ZM48.24,72.58c-.47,0-.85-.38-.85-.85v-2.44c0-.47.37-.86.84-.86h0c.47,0,.85.38.85.85v2.44c0,.47-.37.86-.84.86h0ZM48.22,67.69c-.47,0-.85-.38-.85-.85v-.87c0-.14.03-.27.09-.39l.72-1.4c.22-.42.73-.59,1.15-.37.42.22.58.73.37,1.15l-.63,1.22v.66c0,.47-.38.86-.85.86h0ZM50.05,63.26c-.13,0-.27-.03-.39-.09-.42-.22-.58-.73-.37-1.15l1.12-2.17c.22-.42.73-.59,1.15-.37.42.22.59.73.37,1.15l-1.12,2.17c-.15.29-.45.46-.76.46ZM52.29,58.91c-.13,0-.27-.03-.39-.09-.42-.22-.58-.73-.37-1.15l1.12-2.17c.22-.42.73-.59,1.15-.37.42.22.58.73.37,1.15l-1.12,2.17c-.15.29-.45.46-.76.46ZM54.52,54.57c-.13,0-.27-.03-.39-.09-.42-.22-.59-.73-.37-1.15l1.12-2.17c.22-.42.73-.59,1.15-.37.42.22.59.73.37,1.15l-1.12,2.17c-.15.29-.45.46-.76.46ZM56.76,50.23c-.13,0-.27-.03-.39-.09-.42-.22-.59-.73-.37-1.15l1.12-2.17c.22-.42.73-.59,1.15-.37.42.22.58.73.37,1.15l-1.12,2.17c-.15.29-.45.46-.76.46ZM58.99,45.88c-.13,0-.27-.03-.39-.09-.42-.22-.59-.73-.37-1.15l1.12-2.17c.22-.42.73-.59,1.15-.37.42.22.58.73.37,1.15l-1.12,2.17c-.15.29-.45.46-.76.46ZM61.23,41.54c-.13,0-.27-.03-.39-.09-.42-.22-.58-.73-.37-1.15l1.12-2.17c.22-.42.73-.59,1.15-.37.42.22.59.73.37,1.15l-1.12,2.17c-.15.29-.45.46-.76.46ZM63.46,37.2c-.13,0-.27-.03-.39-.09-.42-.22-.58-.73-.37-1.15l1.12-2.17c.22-.42.73-.59,1.15-.37.42.22.58.73.37,1.15l-1.12,2.17c-.15.29-.45.46-.76.46ZM65.69,32.85c-.13,0-.27-.03-.39-.09-.42-.22-.59-.73-.37-1.15l1.12-2.17c.22-.42.73-.59,1.15-.37.42.22.59.73.37,1.15l-1.12,2.17c-.15.29-.45.46-.76.46ZM67.93,28.51c-.13,0-.27-.03-.39-.09-.42-.22-.58-.73-.37-1.15l1.12-2.17c.22-.42.73-.59,1.15-.37.42.22.58.73.37,1.15l-1.12,2.17c-.15.29-.45.46-.76.46ZM70.16,24.17c-.13,0-.27-.03-.39-.09-.42-.22-.59-.73-.37-1.15l1.12-2.17c.22-.42.73-.59,1.15-.37.42.22.58.73.37,1.15l-1.12,2.17c-.15.29-.45.46-.76.46ZM72.4,19.83c-.13,0-.27-.03-.39-.09-.42-.22-.58-.73-.37-1.15l1.12-2.17c.22-.42.73-.59,1.15-.37.42.22.59.73.37,1.15l-1.12,2.17c-.15.29-.45.46-.76.46ZM74.63,15.48c-.13,0-.27-.03-.39-.09-.42-.22-.58-.73-.37-1.15l1.12-2.17c.22-.42.73-.59,1.15-.37.42.22.58.73.37,1.15l-1.12,2.17c-.15.29-.45.46-.76.46ZM76.86,11.14c-.13,0-.27-.03-.39-.09-.42-.22-.59-.73-.37-1.15l1.12-2.17c.22-.42.73-.59,1.15-.37.42.22.59.73.37,1.15l-1.12,2.17c-.15.29-.45.46-.76.46Z"/>
          <g>
            <g>
              <path class="cls-3" d="M79.94,11.25c-2.86.06-5.23-2.21-5.29-5.07-.06-2.86,2.21-5.23,5.07-5.29,2.86-.06,5.23,2.21,5.29,5.07.06,2.86-2.21,5.23-5.07,5.29Z"/>
              <path class="cls-2" d="M79.96,11.93c3.24-.07,5.81-2.76,5.75-5.99-.07-3.24-2.76-5.81-5.99-5.75-3.24.07-5.81,2.76-5.75,5.99.07,3.24,2.76,5.81,5.99,5.75,3.24-.07-3.24.07,0,0ZM79.74,1.57c2.48-.05,4.53,1.92,4.59,4.4.05,2.48-1.92,4.53-4.4,4.59-2.48.05-4.53-1.92-4.59-4.4-.05-2.48,1.92-4.53,4.4-4.59,2.48-.05-2.48.05,0,0Z"/>
            </g>
            <path class="cls-4" d="M79.24,8.28l2.45-.06c.24,0,.43.04.56.14.13.1.2.23.2.4,0,.15-.04.28-.14.39-.1.11-.25.17-.46.17l-3.45.08c-.23,0-.42-.05-.55-.18-.13-.13-.2-.28-.21-.45,0-.11.04-.26.12-.45.08-.19.17-.34.27-.45.41-.44.77-.82,1.1-1.14.33-.32.56-.52.7-.62.25-.19.46-.38.63-.56.17-.19.29-.38.38-.57.08-.19.12-.38.12-.57,0-.2-.06-.38-.16-.53-.1-.16-.23-.27-.4-.36-.17-.08-.35-.12-.54-.12-.41.01-.73.2-.95.56-.03.05-.08.18-.15.39-.07.21-.15.37-.24.49-.09.11-.22.17-.4.18-.16,0-.29-.04-.39-.14-.11-.1-.16-.24-.17-.42,0-.22.04-.44.13-.68.09-.24.23-.45.42-.65.19-.19.43-.36.72-.48s.64-.19,1.03-.2c.48-.01.89.05,1.23.2.22.09.42.23.59.4.17.17.3.37.4.6.1.23.15.46.16.71,0,.39-.08.74-.26,1.07-.18.32-.37.58-.57.76-.2.19-.52.48-.99.87-.46.4-.78.7-.95.92-.07.09-.15.19-.22.31Z"/>
          </g>
        </g>
        <polygon class="cls-2" points="51.51 100.21 48.32 101.57 45.13 100.21 48.32 107.77 51.51 100.21"/>
        <path class="cls-2" d="M45.41,111.63c0,1.61,1.3,2.91,2.91,2.91s2.91-1.3,2.91-2.91-1.3-2.91-2.91-2.91-2.91,1.3-2.91,2.91Z"/>
      </g>
    </g>
  </g>
</svg>