<?xml version="1.0" encoding="UTF-8"?>
<svg id="Layer_2" data-name="Layer 2" xmlns="http://www.w3.org/2000/svg" viewBox="0 0 130.94 137.41">
  <defs>
    <style>
      .cls-1, .cls-2, .cls-3, .cls-4 {
        stroke-width: 0px;
      }

      .cls-2 {
        fill: #6f6f6e;
      }

      .cls-3 {
        fill: #fff;
      }

      .cls-4 {
        fill: #ff0600;
      }
    </style>
  </defs>
  <g id="C">
    <g>
      <path class="cls-1" d="M66.72,126.66c-30.31,0-54.96-26-54.96-57.96S36.41,10.73,66.72,10.73c18.77,0,36.06,9.95,46.24,26.61.8,1.3.39,3.01-.92,3.8-1.3.8-3.01.39-3.8-.92-9.17-15.01-24.69-23.96-41.52-23.96-27.26,0-49.43,23.52-49.43,52.43s22.18,52.43,49.43,52.43c19.54,0,37.29-12.25,45.21-31.2.59-1.41,2.21-2.07,3.62-1.48,1.41.59,2.07,2.21,1.48,3.62-8.79,21.02-28.54,34.6-50.32,34.6Z"/>
      <g>
        <path class="cls-2" d="M67.2,137.41c-1.26,0-2.53-.04-3.78-.11-.89-.05-1.57-.81-1.52-1.7.05-.89.81-1.57,1.7-1.52,1.49.08,3,.12,4.49.09,0,0,.02,0,.02,0,.88,0,1.6.71,1.61,1.59.01.89-.7,1.62-1.59,1.64-.31,0-.63,0-.94,0ZM72.71,137.16c-.83,0-1.53-.63-1.6-1.47-.08-.89.57-1.67,1.46-1.75,1.48-.14,2.98-.33,4.45-.58.88-.15,1.71.44,1.86,1.32.15.88-.44,1.71-1.32,1.86-1.55.26-3.13.47-4.69.61-.05,0-.1,0-.15,0ZM58.92,136.89c-.07,0-.14,0-.21-.01-1.56-.2-3.13-.45-4.67-.76-.87-.17-1.44-1.02-1.27-1.9.17-.87,1.02-1.44,1.9-1.27,1.46.29,2.96.54,4.44.73.88.11,1.51.92,1.4,1.8-.1.81-.8,1.41-1.6,1.41ZM81.79,135.63c-.72,0-1.38-.49-1.56-1.22-.22-.86.31-1.74,1.18-1.96,1.44-.36,2.89-.78,4.31-1.25.84-.28,1.76.18,2.04,1.02.28.85-.18,1.76-1.02,2.04-1.49.49-3.02.94-4.54,1.32-.13.03-.26.05-.39.05ZM49.88,135.08c-.14,0-.28-.02-.43-.06-1.51-.42-3.03-.89-4.51-1.41-.84-.3-1.28-1.22-.99-2.06.3-.84,1.22-1.28,2.06-.99,1.41.5,2.85.95,4.29,1.34.86.24,1.36,1.12,1.13,1.98-.2.72-.85,1.19-1.55,1.19ZM90.53,132.73c-.63,0-1.23-.37-1.49-.99-.34-.82.04-1.77.87-2.11,1.37-.57,2.74-1.21,4.07-1.89.79-.4,1.77-.09,2.17.71.4.79.09,1.77-.7,2.17-1.4.71-2.84,1.38-4.29,1.99-.2.09-.41.13-.62.13ZM41.19,132.02c-.21,0-.43-.04-.64-.13-1.44-.62-2.87-1.31-4.26-2.03-.79-.41-1.1-1.39-.69-2.18.41-.79,1.39-1.1,2.18-.69,1.32.69,2.69,1.34,4.06,1.93.82.35,1.19,1.3.84,2.12-.26.61-.86.97-1.48.97ZM98.73,128.55c-.55,0-1.08-.28-1.38-.78-.46-.76-.22-1.75.54-2.22,1.27-.77,2.53-1.6,3.75-2.47.73-.52,1.73-.35,2.25.38.52.73.35,1.73-.38,2.25-1.28.91-2.61,1.79-3.95,2.6-.26.16-.55.23-.84.23ZM33.02,127.76c-.29,0-.58-.08-.84-.24-1.34-.82-2.66-1.7-3.93-2.61-.72-.52-.89-1.53-.37-2.25.52-.72,1.53-.89,2.25-.37,1.21.87,2.47,1.7,3.74,2.48.76.47,1,1.46.53,2.22-.3.5-.83.77-1.38.77ZM106.24,123.21c-.46,0-.93-.2-1.24-.59-.57-.69-.47-1.7.22-2.27,1.15-.95,2.28-1.95,3.36-2.98.64-.62,1.67-.59,2.28.05.61.64.59,1.67-.05,2.28-1.14,1.09-2.33,2.14-3.53,3.14-.3.25-.66.37-1.03.37ZM25.53,122.4c-.36,0-.73-.12-1.03-.37-1.21-1-2.39-2.05-3.53-3.14-.64-.62-.67-1.64-.05-2.28.62-.64,1.64-.67,2.28-.05,1.08,1.03,2.21,2.03,3.36,2.98.69.57.78,1.59.21,2.27-.32.39-.78.58-1.24.58ZM112.9,116.86c-.39,0-.78-.14-1.09-.42-.66-.6-.71-1.62-.11-2.28,1-1.1,1.98-2.25,2.91-3.43.55-.7,1.57-.82,2.27-.26.7.55.82,1.57.26,2.27-.97,1.23-2,2.44-3.06,3.6-.32.35-.76.53-1.19.53ZM18.88,116.05c-.44,0-.88-.18-1.19-.53-1.05-1.16-2.08-2.37-3.05-3.6-.55-.7-.43-1.71.27-2.27.7-.55,1.71-.43,2.27.27.92,1.17,1.9,2.32,2.9,3.43.6.66.55,1.68-.11,2.28-.31.28-.7.42-1.09.42ZM13.18,108.83c-.52,0-1.02-.25-1.34-.71-.88-1.29-1.73-2.64-2.51-3.99-.45-.77-.19-1.76.58-2.21.77-.45,1.76-.19,2.21.58.75,1.29,1.56,2.57,2.39,3.8.5.74.31,1.74-.43,2.24-.28.19-.59.28-.91.28ZM8.55,100.87c-.6,0-1.17-.33-1.45-.9-.69-1.4-1.34-2.85-1.93-4.31-.34-.83.06-1.77.89-2.1.82-.34,1.77.06,2.1.89.56,1.38,1.18,2.76,1.84,4.1.39.8.06,1.77-.74,2.16-.23.11-.47.17-.71.17ZM5.08,92.34c-.68,0-1.31-.43-1.53-1.11-.49-1.48-.93-3-1.32-4.53-.22-.86.3-1.74,1.16-1.96.86-.22,1.74.3,1.96,1.16.37,1.45.79,2.91,1.26,4.32.28.85-.18,1.76-1.03,2.04-.17.06-.34.08-.5.08ZM2.8,83.42c-.76,0-1.44-.54-1.58-1.32-.28-1.53-.52-3.1-.7-4.66-.1-.88.53-1.69,1.41-1.79.88-.1,1.69.53,1.79,1.41.18,1.49.4,2.99.67,4.45.16.88-.42,1.72-1.29,1.88-.1.02-.2.03-.3.03ZM1.72,74.28c-.85,0-1.56-.67-1.61-1.53-.07-1.34-.11-2.7-.11-4.05v-.65c0-.89.73-1.6,1.62-1.6h.01c.89,0,1.61.73,1.6,1.62v.63c0,1.3.03,2.6.1,3.88.05.89-.63,1.65-1.52,1.7-.03,0-.06,0-.09,0ZM1.78,65.07s-.07,0-.1,0c-.89-.06-1.56-.82-1.51-1.71.1-1.57.25-3.14.44-4.68.11-.88.91-1.51,1.8-1.4.88.11,1.51.91,1.4,1.8-.18,1.48-.32,2.99-.42,4.49-.05.85-.76,1.51-1.61,1.51ZM2.92,55.93c-.1,0-.2,0-.3-.03-.88-.16-1.45-1.01-1.29-1.88.29-1.55.63-3.1,1.02-4.6.22-.86,1.1-1.38,1.96-1.16.86.22,1.38,1.1,1.16,1.96-.37,1.44-.69,2.91-.97,4.39-.15.78-.82,1.32-1.58,1.32ZM5.19,47.01c-.17,0-.34-.03-.5-.08-.85-.28-1.31-1.19-1.03-2.04.49-1.49,1.04-2.98,1.62-4.43.34-.83,1.28-1.22,2.1-.89.82.34,1.22,1.28.89,2.1-.56,1.38-1.08,2.8-1.55,4.22-.22.68-.85,1.11-1.53,1.11ZM8.66,38.48c-.24,0-.48-.05-.71-.17-.8-.39-1.13-1.36-.73-2.16.69-1.41,1.45-2.81,2.24-4.16.45-.77,1.44-1.03,2.21-.58.77.45,1.03,1.44.58,2.21-.75,1.28-1.47,2.61-2.13,3.95-.28.57-.85.9-1.45.9ZM13.32,30.54c-.32,0-.64-.09-.92-.29-.73-.51-.92-1.51-.41-2.24.89-1.29,1.84-2.57,2.83-3.79.56-.69,1.57-.8,2.27-.24.69.56.8,1.57.24,2.27-.93,1.16-1.84,2.37-2.68,3.59-.31.45-.82.7-1.33.7ZM119.76,29.87c-.53,0-1.05-.26-1.36-.74-.81-1.26-1.68-2.49-2.57-3.66-.54-.71-.41-1.72.3-2.26.71-.54,1.72-.41,2.26.3.95,1.24,1.87,2.54,2.72,3.87.48.75.27,1.75-.48,2.23-.27.17-.57.26-.87.26ZM19.11,23.37c-.4,0-.79-.14-1.1-.44-.65-.61-.68-1.63-.07-2.28,1.07-1.14,2.21-2.26,3.36-3.33.66-.6,1.68-.56,2.28.1.6.66.56,1.68-.1,2.28-1.1,1.01-2.17,2.07-3.19,3.16-.32.34-.75.51-1.18.51ZM114.17,22.56c-.44,0-.88-.18-1.2-.53-1-1.1-2.05-2.18-3.13-3.19-.65-.61-.68-1.63-.07-2.28.61-.65,1.63-.68,2.28-.07,1.15,1.08,2.27,2.21,3.32,3.38.6.66.55,1.68-.12,2.28-.31.28-.7.42-1.08.42ZM25.9,17.15c-.48,0-.95-.21-1.27-.61-.55-.7-.43-1.71.27-2.27,1.23-.97,2.51-1.91,3.82-2.79.74-.5,1.74-.3,2.24.43.5.74.3,1.74-.43,2.24-1.24.84-2.46,1.73-3.62,2.65-.3.23-.65.35-1,.35ZM107.46,16.27c-.35,0-.7-.11-1-.35-1.16-.92-2.38-1.81-3.62-2.63-.74-.49-.94-1.5-.45-2.24.49-.74,1.5-.94,2.24-.45,1.31.87,2.6,1.81,3.83,2.79.7.55.82,1.57.26,2.27-.32.4-.79.61-1.27.61ZM33.53,11.99c-.56,0-1.1-.29-1.4-.81-.44-.77-.18-1.76.6-2.2,1.36-.78,2.76-1.52,4.18-2.2.8-.39,1.77-.05,2.15.75.39.8.05,1.77-.75,2.15-1.35.65-2.68,1.35-3.97,2.09-.25.15-.53.21-.8.21ZM99.8,11.16c-.27,0-.53-.07-.78-.2-1.29-.72-2.64-1.4-4-2.02-.81-.37-1.17-1.33-.8-2.14s1.33-1.17,2.14-.8c1.44.66,2.86,1.37,4.23,2.13.78.43,1.06,1.41.63,2.19-.29.53-.84.83-1.41.83ZM41.81,7.99c-.64,0-1.25-.39-1.5-1.02-.33-.83.07-1.77.9-2.1,1.45-.58,2.94-1.11,4.44-1.59.85-.27,1.76.2,2.03,1.05.27.85-.2,1.76-1.05,2.03-1.43.45-2.85.96-4.23,1.51-.2.08-.4.11-.6.11ZM91.42,7.34c-.19,0-.37-.03-.56-.1-1.39-.51-2.83-.98-4.27-1.4-.86-.25-1.35-1.14-1.11-2,.25-.86,1.14-1.35,2-1.1,1.52.44,3.03.93,4.49,1.47.84.31,1.26,1.23.96,2.07-.24.65-.86,1.06-1.51,1.06ZM50.57,5.2c-.73,0-1.39-.49-1.57-1.23-.21-.87.32-1.74,1.18-1.95,1.52-.37,3.07-.7,4.62-.97.88-.15,1.71.43,1.87,1.31.15.88-.43,1.71-1.31,1.87-1.47.26-2.96.57-4.4.92-.13.03-.26.05-.39.05ZM82.57,4.79c-.11,0-.23-.01-.34-.04-1.45-.31-2.94-.58-4.43-.79-.88-.13-1.49-.95-1.37-1.83.13-.88.95-1.49,1.83-1.36,1.56.23,3.12.51,4.64.83.87.19,1.43,1.04,1.24,1.91-.16.76-.83,1.28-1.58,1.28ZM59.64,3.61c-.81,0-1.51-.61-1.6-1.44-.09-.89.55-1.68,1.43-1.78,1.55-.17,3.13-.28,4.7-.35.89-.03,1.64.66,1.68,1.55s-.65,1.64-1.55,1.68c-1.5.06-3.01.17-4.49.33-.06,0-.12,0-.17,0ZM73.45,3.46s-.09,0-.13,0c-1.48-.12-3-.2-4.51-.23-.89-.02-1.6-.76-1.58-1.65.02-.89.73-1.6,1.65-1.58,1.57.03,3.15.11,4.7.24.89.07,1.55.85,1.48,1.74s-.77,1.48-1.61,1.48Z"/>
        <g>
          <g>
            <path class="cls-3" d="M128.8,21.32c2.19,4.94-.03,10.72-4.97,12.91-4.94,2.19-10.72-.03-12.91-4.97-2.19-4.94.03-10.72,4.97-12.91,4.94-2.19,10.72.03,12.91,4.97Z"/>
            <path class="cls-2" d="M129.99,20.79c-2.48-5.58-9.04-8.11-14.62-5.63-5.58,2.48-8.11,9.04-5.63,14.62,2.48,5.58,9.04,8.11,14.62,5.63,5.58-2.48,8.11-9.04,5.63-14.62-2.48-5.58,2.48,5.58,0,0ZM112.12,28.73c-1.9-4.27.03-9.29,4.31-11.19,4.27-1.9,9.29.03,11.19,4.31,1.9,4.27-.03,9.29-4.31,11.19-4.27,1.9-9.29-.03-11.19-4.31s1.9,4.27,0,0Z"/>
          </g>
          <polygon class="cls-2" points="118.16 118.62 114.77 113.03 108.39 111.59 121.61 103.52 118.16 118.62"/>
          <path class="cls-4" d="M119.18,30.55v-8.06c-1.5,1.15-2.51,1.73-3.03,1.73-.25,0-.47-.1-.66-.3-.19-.2-.29-.43-.29-.69,0-.3.09-.52.28-.66.19-.14.52-.32,1-.55.71-.34,1.29-.69,1.71-1.06.43-.37.81-.79,1.14-1.25.33-.46.55-.74.65-.85.1-.11.29-.16.57-.16.31,0,.56.12.75.36.19.24.28.58.28,1v10.14c0,1.19-.4,1.78-1.21,1.78-.36,0-.65-.12-.87-.36s-.33-.6-.33-1.07Z"/>
          <path class="cls-2" d="M130.68,96.19c0,3.03-2.46,5.49-5.49,5.49s-5.49-2.46-5.49-5.49,2.46-5.49,5.49-5.49,5.49,2.46,5.49,5.49Z"/>
        </g>
      </g>
    </g>
  </g>
</svg>