<?xml version="1.0" encoding="UTF-8"?>
<svg id="Layer_2" data-name="Layer 2" xmlns="http://www.w3.org/2000/svg" viewBox="0 0 70.06 74.39">
  <defs>
    <style>
      .cls-1, .cls-2, .cls-3, .cls-4 {
        stroke-width: 0px;
      }

      .cls-2 {
        fill: #6f6f6e;
      }

      .cls-3 {
        fill: #fff;
      }

      .cls-4 {
        fill: #ff0600;
      }
    </style>
  </defs>
  <g id="Z">
    <g>
      <g>
        <path class="cls-1" d="M49.56,74.39H1.58c-.81,0-1.47-.66-1.47-1.47s.66-1.47,1.47-1.47h47.98c.81,0,1.47.66,1.47,1.47s-.66,1.47-1.47,1.47Z"/>
        <path class="cls-1" d="M1.58,74.39c-.33,0-.66-.11-.93-.33-.62-.51-.71-1.44-.2-2.06L48.21,13.94c.51-.62,1.44-.71,2.06-.2.62.51.71,1.44.2,2.06L2.71,73.85c-.29.35-.71.53-1.13.53Z"/>
        <path class="cls-1" d="M49.56,15.84H1.58c-.81,0-1.47-.66-1.47-1.47s.66-1.47,1.47-1.47h47.98c.81,0,1.47.66,1.47,1.47s-.66,1.47-1.47,1.47Z"/>
      </g>
      <g>
        <path class="cls-2" d="M53.24,6.73h-.65c-.47,0-.85-.38-.85-.85s.38-.85.85-.85h.65c.47,0,.85.38.85.85s-.38.85-.85.85ZM50.14,6.73h-2.44c-.47,0-.85-.38-.85-.85s.38-.85.85-.85h2.44c.47,0,.85.38.85.85s-.38.85-.85.85ZM45.26,6.73h-2.44c-.47,0-.85-.38-.85-.85s.38-.85.85-.85h2.44c.47,0,.85.38.85.85s-.38.85-.85.85ZM40.38,6.73h-2.44c-.47,0-.85-.38-.85-.85s.38-.85.85-.85h2.44c.47,0,.85.38.85.85s-.38.85-.85.85ZM35.49,6.73h-2.44c-.47,0-.85-.38-.85-.85s.38-.85.85-.85h2.44c.47,0,.85.38.85.85s-.38.85-.85.85ZM30.61,6.73h-2.44c-.47,0-.85-.38-.85-.85s.38-.85.85-.85h2.44c.47,0,.85.38.85.85s-.38.85-.85.85ZM25.72,6.73h-2.44c-.47,0-.85-.38-.85-.85s.38-.85.85-.85h2.44c.47,0,.85.38.85.85s-.38.85-.85.85ZM20.84,6.73h-2.44c-.47,0-.85-.38-.85-.85s.38-.85.85-.85h2.44c.47,0,.85.38.85.85s-.38.85-.85.85ZM15.96,6.73h-2.44c-.47,0-.85-.38-.85-.85s.38-.85.85-.85h2.44c.47,0,.85.38.85.85s-.38.85-.85.85ZM11.07,6.73h-2.44c-.47,0-.85-.38-.85-.85s.38-.85.85-.85h2.44c.47,0,.85.38.85.85s-.38.85-.85.85Z"/>
        <g>
          <polygon class="cls-2" points="50.04 9.06 51.4 5.88 50.06 2.68 57.61 5.9 50.04 9.06"/>
          <g>
            <path class="cls-3" d="M5.85,11.05c-2.86-.01-5.17-2.34-5.16-5.2.01-2.86,2.34-5.17,5.2-5.16s5.17,2.34,5.16,5.2c-.01,2.86-2.34,5.17-5.2,5.16Z"/>
            <path class="cls-2" d="M5.85,11.74c3.24.01,5.88-2.61,5.89-5.85C11.75,2.65,9.13.01,5.89,0,2.65-.01.01,2.61,0,5.85c-.01,3.24,2.61,5.88,5.85,5.89,3.24.01-3.24-.01,0,0ZM5.89,1.38c2.48,0,4.49,2.03,4.48,4.51,0,2.48-2.03,4.49-4.51,4.48-2.48,0-4.49-2.03-4.48-4.51,0-2.48,2.03-4.49,4.51-4.48,2.48,0-2.48,0,0,0Z"/>
          </g>
        </g>
        <path class="cls-4" d="M5.45,8.5l.06-4.27c-.8.6-1.34.9-1.62.89-.13,0-.25-.06-.35-.16-.1-.11-.15-.23-.15-.37,0-.16.05-.28.15-.35.1-.07.28-.17.53-.28.38-.17.69-.36.92-.55.23-.19.43-.41.61-.65.18-.24.29-.39.35-.45.05-.06.15-.08.3-.08.17,0,.3.07.4.2.1.13.15.31.14.53l-.07,5.37c0,.63-.23.94-.66.93-.19,0-.34-.07-.46-.2-.11-.13-.17-.32-.17-.57Z"/>
      </g>
      <g>
        <path class="cls-2" d="M41.64,66.19h-.67c-.47,0-.85-.38-.85-.85s.38-.85.85-.85h.67c.47,0,.85.38.85.85s-.38.85-.85.85ZM38.53,66.19h-2.44c-.47,0-.85-.38-.85-.85s.38-.85.85-.85h2.44c.47,0,.85.38.85.85s-.38.85-.85.85ZM33.64,66.19h-2.44c-.47,0-.85-.38-.85-.85s.38-.85.85-.85h2.44c.47,0,.85.38.85.85s-.38.85-.85.85ZM28.76,66.19h-2.44c-.47,0-.85-.38-.85-.85s.38-.85.85-.85h2.44c.47,0,.85.38.85.85s-.38.85-.85.85ZM23.87,66.19h-2.44c-.47,0-.85-.38-.85-.85s.38-.85.85-.85h2.44c.47,0,.85.38.85.85s-.38.85-.85.85ZM18.99,66.19h-2.44c-.47,0-.85-.38-.85-.85s.38-.85.85-.85h2.44c.47,0,.85.38.85.85s-.38.85-.85.85Z"/>
        <g>
          <polygon class="cls-2" points="38.28 68.53 39.65 65.34 38.3 62.15 45.85 65.36 38.28 68.53"/>
          <path class="cls-2" d="M46.5,65.34c0,1.61,1.3,2.91,2.91,2.91s2.91-1.3,2.91-2.91-1.3-2.91-2.91-2.91-2.91,1.3-2.91,2.91Z"/>
          <g>
            <path class="cls-3" d="M19.05,70.52c-2.86-.01-5.17-2.34-5.16-5.2.01-2.86,2.34-5.17,5.2-5.16s5.17,2.34,5.16,5.2c-.01,2.86-2.34,5.17-5.2,5.16Z"/>
            <path class="cls-2" d="M19.04,71.21c3.24.01,5.88-2.61,5.89-5.85.01-3.24-2.61-5.88-5.85-5.89-3.24-.01-5.88,2.61-5.89,5.85-.01,3.24,2.61,5.88,5.85,5.89,3.24.01-3.24-.01,0,0ZM19.08,60.84c2.48,0,4.49,2.03,4.48,4.51,0,2.48-2.03,4.49-4.51,4.48-2.48,0-4.49-2.03-4.48-4.51,0-2.48,2.03-4.49,4.51-4.48,2.48,0-2.48,0,0,0Z"/>
          </g>
          <path class="cls-4" d="M18.98,64.59c.29,0,.54-.08.74-.25.21-.17.31-.41.31-.73,0-.24-.08-.45-.25-.62-.17-.17-.39-.26-.67-.26-.19,0-.35.03-.47.08-.12.05-.22.12-.29.21-.07.09-.14.2-.2.34-.06.14-.12.27-.18.39-.03.07-.09.12-.17.15-.08.04-.18.06-.28.06-.13,0-.24-.05-.34-.15-.11-.1-.16-.24-.16-.41s.05-.33.15-.51c.1-.18.24-.35.43-.51.19-.16.42-.29.71-.39.28-.1.6-.15.94-.15.3,0,.58.04.83.12.25.08.47.2.65.36.18.16.32.34.42.54.09.21.14.43.14.67,0,.31-.07.58-.2.8-.14.22-.33.44-.58.65.24.13.45.28.62.45.17.17.29.36.38.56.08.2.13.43.13.66,0,.28-.06.56-.17.83s-.28.5-.5.71c-.22.21-.49.37-.79.49-.3.12-.64.18-1.01.18s-.71-.07-1.01-.2c-.3-.13-.54-.3-.73-.5-.19-.2-.34-.41-.44-.63-.1-.22-.15-.39-.15-.53,0-.18.06-.33.18-.44.12-.11.26-.17.44-.17.09,0,.17.03.25.08.08.05.13.11.16.19.16.43.34.76.52.97.19.21.45.32.79.32.19,0,.38-.05.56-.14.18-.1.33-.24.45-.42.12-.19.18-.41.18-.65,0-.37-.1-.65-.3-.86-.2-.21-.48-.31-.84-.31-.06,0-.16,0-.29.02-.13.01-.22.02-.25.02-.17,0-.3-.04-.4-.13-.09-.09-.14-.21-.14-.36s.06-.27.17-.36c.11-.09.28-.14.5-.14h.19Z"/>
        </g>
      </g>
      <g>
        <path class="cls-2" d="M23.12,56.98c-.19,0-.39-.07-.55-.2-.36-.3-.41-.84-.11-1.2l1.57-1.87c.3-.36.84-.41,1.2-.11.36.3.41.84.11,1.2l-1.57,1.87c-.17.2-.41.31-.66.31ZM26.26,53.23c-.19,0-.39-.07-.55-.2-.36-.3-.41-.84-.11-1.2l1.57-1.87c.3-.36.84-.41,1.2-.11.36.3.41.84.11,1.2l-1.57,1.87c-.17.2-.41.31-.66.31ZM29.39,49.48c-.19,0-.39-.07-.55-.2-.36-.3-.41-.84-.11-1.2l1.57-1.87c.3-.36.84-.41,1.2-.11.36.3.41.84.11,1.2l-1.57,1.87c-.17.2-.41.31-.66.31ZM32.52,45.74c-.19,0-.39-.07-.55-.2-.36-.3-.41-.84-.11-1.2l1.57-1.87c.3-.36.84-.41,1.2-.11.36.3.41.84.11,1.2l-1.57,1.87c-.17.2-.41.31-.66.31ZM35.65,41.99c-.19,0-.39-.07-.55-.2-.36-.3-.41-.84-.11-1.2l1.57-1.87c.3-.36.84-.41,1.2-.11.36.3.41.84.11,1.2l-1.57,1.87c-.17.2-.41.31-.66.31ZM38.78,38.24c-.19,0-.39-.07-.55-.2-.36-.3-.41-.84-.11-1.2l1.57-1.87c.3-.36.84-.41,1.2-.11.36.3.41.84.11,1.2l-1.57,1.87c-.17.2-.41.31-.66.31ZM41.92,34.49c-.19,0-.39-.07-.55-.2-.36-.3-.41-.84-.11-1.2l1.57-1.87c.3-.36.84-.41,1.2-.11.36.3.41.84.11,1.2l-1.57,1.87c-.17.2-.41.31-.66.31ZM45.05,30.75c-.19,0-.39-.07-.55-.2-.36-.3-.41-.84-.11-1.2l1.57-1.87c.3-.36.84-.41,1.2-.11.36.3.41.84.11,1.2l-1.57,1.87c-.17.2-.41.31-.66.31ZM48.18,27c-.19,0-.39-.07-.55-.2-.36-.3-.41-.84-.11-1.2l1.57-1.87c.3-.36.84-.41,1.2-.11.36.3.41.84.11,1.2l-1.57,1.87c-.17.2-.41.31-.66.31ZM51.31,23.25c-.19,0-.39-.07-.55-.2-.36-.3-.41-.84-.11-1.2l1.57-1.87c.3-.36.84-.41,1.2-.11.36.3.41.84.11,1.2l-1.57,1.87c-.17.2-.41.31-.66.31ZM54.44,19.5c-.19,0-.39-.07-.55-.2-.36-.3-.41-.84-.11-1.2l1.57-1.87c.3-.36.84-.41,1.2-.11.36.3.41.84.11,1.2l-1.57,1.87c-.17.2-.41.31-.66.31ZM57.58,15.76c-.19,0-.39-.07-.55-.2-.36-.3-.41-.84-.11-1.2l1.57-1.87c.3-.36.84-.41,1.2-.11.36.3.41.84.11,1.2l-1.57,1.87c-.17.2-.41.31-.66.31ZM60.71,12.01c-.19,0-.39-.07-.55-.2-.36-.3-.41-.84-.11-1.2l1.57-1.87c.3-.36.84-.41,1.2-.11.36.3.41.84.11,1.2l-1.57,1.87c-.17.2-.41.31-.66.31ZM63.84,8.26c-.19,0-.39-.07-.55-.2-.36-.3-.41-.84-.11-1.2l1.57-1.87c.3-.36.84-.41,1.2-.11.36.3.41.84.11,1.2l-1.57,1.87c-.17.2-.41.31-.66.31Z"/>
        <g>
          <path class="cls-3" d="M64.16,11.2c2.86.02,5.19-2.29,5.21-5.15.02-2.86-2.29-5.19-5.15-5.21-2.86-.02-5.19,2.29-5.21,5.15-.02,2.86,2.29,5.19,5.15,5.21Z"/>
          <path class="cls-2" d="M64.15,11.89c3.24.02,5.88-2.6,5.9-5.84S67.46.16,64.22.15c-3.24-.02-5.88,2.6-5.9,5.84-.02,3.24,2.6,5.89,5.84,5.9,3.24.02-3.24-.02,0,0ZM64.21,1.52c2.48.01,4.48,2.04,4.47,4.52-.01,2.48-2.04,4.48-4.52,4.47-2.48-.01-4.48-2.04-4.47-4.52.01-2.48,2.04-4.48,4.52-4.47,2.48.01-2.48-.01,0,0Z"/>
        </g>
        <polygon class="cls-2" points="28.33 55.58 25.11 54.27 23.83 51.06 20.72 58.65 28.33 55.58"/>
        <path class="cls-4" d="M63.34,8.25h2.45c.24,0,.43.05.56.15s.19.24.19.41c0,.15-.05.28-.15.39-.1.11-.26.16-.46.16h-3.45c-.23,0-.42-.06-.55-.19-.13-.13-.2-.28-.2-.46,0-.11.04-.26.13-.45.08-.19.18-.33.28-.44.42-.43.79-.8,1.13-1.11.33-.31.57-.51.72-.61.26-.18.47-.36.64-.55s.3-.37.39-.56c.09-.19.13-.38.13-.57,0-.2-.05-.38-.14-.54s-.23-.28-.39-.37-.34-.13-.54-.13c-.41,0-.73.18-.97.54-.03.05-.08.17-.16.38-.07.21-.16.37-.25.48-.09.11-.23.17-.41.17-.16,0-.29-.05-.39-.15-.1-.1-.15-.24-.15-.42,0-.22.05-.44.15-.68.1-.23.24-.45.43-.64.19-.19.44-.34.73-.46.3-.12.64-.18,1.04-.18.48,0,.89.08,1.22.23.22.1.41.24.58.41.17.18.29.38.39.61.09.23.14.47.14.72,0,.39-.1.74-.29,1.06-.19.32-.39.57-.59.75-.2.18-.54.46-1.01.85-.47.38-.79.68-.97.9-.08.08-.15.19-.23.31Z"/>
      </g>
    </g>
  </g>
</svg>