<?xml version="1.0" encoding="UTF-8"?>
<svg id="Layer_2" data-name="Layer 2" xmlns="http://www.w3.org/2000/svg" viewBox="0 0 100.14 114.29">
  <defs>
    <style>
      .cls-1, .cls-2, .cls-3, .cls-4 {
        stroke-width: 0px;
      }

      .cls-2 {
        fill: #6f6f6e;
      }

      .cls-3 {
        fill: #fff;
      }

      .cls-4 {
        fill: #ff0600;
      }
    </style>
  </defs>
  <g id="V">
    <g>
      <g>
        <path class="cls-2" d="M41.1,111.23c-.36,0-.69-.23-.81-.58l-.78-2.31c-.15-.45.09-.93.54-1.08.45-.15.93.09,1.08.54l.78,2.31c.15.45-.09.93-.54,1.08-.09.03-.18.05-.27.05ZM39.54,106.6c-.36,0-.69-.23-.81-.58l-.78-2.31c-.15-.45.09-.93.54-1.08.45-.15.93.09,1.08.54l.78,2.31c.15.45-.09.93-.54,1.08-.09.03-.18.05-.27.05ZM37.98,101.97c-.36,0-.69-.23-.81-.58l-.78-2.31c-.15-.45.09-.93.54-1.08.45-.15.93.09,1.08.54l.78,2.31c.15.45-.09.93-.54,1.08-.09.03-.18.05-.27.05ZM36.42,97.35c-.36,0-.69-.23-.81-.58l-.78-2.31c-.15-.45.09-.93.54-1.08.45-.15.93.09,1.08.54l.78,2.31c.15.45-.09.93-.54,1.08-.09.03-.18.05-.27.05ZM34.86,92.72c-.36,0-.69-.23-.81-.58l-.78-2.31c-.15-.45.09-.93.54-1.08.45-.15.93.09,1.08.54l.78,2.31c.15.45-.09.93-.54,1.08-.09.03-.18.05-.27.05ZM33.3,88.09c-.36,0-.69-.23-.81-.58l-.78-2.31c-.15-.45.09-.93.54-1.08.45-.15.93.09,1.08.54l.78,2.31c.15.45-.09.93-.54,1.08-.09.03-.18.05-.27.05ZM31.75,83.46c-.36,0-.69-.23-.81-.58l-.78-2.31c-.15-.45.09-.93.54-1.08.45-.15.93.09,1.08.54l.78,2.31c.15.45-.09.93-.54,1.08-.09.03-.18.05-.27.05ZM30.19,78.83c-.36,0-.69-.23-.81-.58l-.78-2.31c-.15-.45.09-.93.54-1.08.45-.15.93.09,1.08.54l.78,2.31c.15.45-.09.93-.54,1.08-.09.03-.18.05-.27.05ZM28.63,74.2c-.36,0-.69-.23-.81-.58l-.78-2.31c-.15-.45.09-.93.54-1.08.45-.15.93.09,1.08.54l.78,2.31c.15.45-.09.93-.54,1.08-.09.03-.18.05-.27.05ZM27.07,69.58c-.36,0-.69-.23-.81-.58l-.78-2.31c-.15-.45.09-.93.54-1.08.45-.15.93.09,1.08.54l.78,2.31c.15.45-.09.93-.54,1.08-.09.03-.18.05-.27.05ZM25.51,64.95c-.36,0-.69-.23-.81-.58l-.78-2.31c-.15-.45.09-.93.54-1.08.45-.15.93.09,1.08.54l.78,2.31c.15.45-.09.93-.54,1.08-.09.03-.18.05-.27.05ZM23.95,60.32c-.36,0-.69-.23-.81-.58l-.78-2.31c-.15-.45.09-.93.54-1.08.45-.15.93.09,1.08.54l.78,2.31c.15.45-.09.93-.54,1.08-.09.03-.18.04-.27.04ZM22.39,55.69c-.36,0-.69-.23-.81-.58l-.78-2.31c-.15-.45.09-.93.54-1.08s.93.09,1.08.54l.78,2.31c.15.45-.09.93-.54,1.08-.09.03-.18.05-.27.05ZM20.83,51.06c-.36,0-.69-.23-.81-.58l-.78-2.31c-.15-.45.09-.93.54-1.08.45-.15.93.09,1.08.54l.78,2.31c.15.45-.09.93-.54,1.08-.09.03-.18.05-.27.05ZM19.27,46.43c-.36,0-.69-.23-.81-.58l-.78-2.31c-.15-.45.09-.93.54-1.08.45-.15.93.09,1.08.54l.78,2.31c.15.45-.09.93-.54,1.08-.09.03-.18.05-.27.05ZM17.71,41.81c-.36,0-.69-.23-.81-.58l-.78-2.31c-.15-.45.09-.93.54-1.08.45-.15.93.09,1.08.54l.78,2.31c.15.45-.09.93-.54,1.08-.09.03-.18.05-.27.05ZM16.15,37.18c-.36,0-.69-.23-.81-.58l-.78-2.31c-.15-.45.09-.93.54-1.08.45-.15.93.09,1.08.54l.78,2.31c.15.45-.09.93-.54,1.08-.09.03-.18.05-.27.05ZM14.59,32.55c-.36,0-.69-.23-.81-.58l-.78-2.31c-.15-.45.09-.93.54-1.08.45-.15.93.09,1.08.54l.78,2.31c.15.45-.09.93-.54,1.08-.09.03-.18.05-.27.05ZM13.03,27.92c-.36,0-.69-.23-.81-.58l-.78-2.31c-.15-.45.09-.93.54-1.08.45-.15.93.09,1.08.54l.78,2.31c.15.45-.09.93-.54,1.08-.09.03-.18.05-.27.05ZM11.47,23.29c-.36,0-.69-.23-.81-.58l-.78-2.31c-.15-.45.09-.93.54-1.08s.93.09,1.08.54l.78,2.31c.15.45-.09.93-.54,1.08-.09.03-.18.05-.27.05ZM9.91,18.66c-.36,0-.69-.23-.81-.58l-.78-2.31c-.15-.45.09-.93.54-1.08.45-.15.93.09,1.08.54l.78,2.31c.15.45-.09.93-.54,1.08-.09.03-.18.05-.27.05ZM8.35,14.04c-.36,0-.69-.23-.81-.58l-.78-2.31c-.15-.45.09-.93.54-1.08.45-.15.93.09,1.08.54l.78,2.31c.15.45-.09.93-.54,1.08-.09.03-.18.05-.27.05Z"/>
        <g>
          <path class="cls-3" d="M.97,7.78C.04,5.07,1.49,2.12,4.2,1.2c2.71-.92,5.65.52,6.58,3.23.92,2.71-.52,5.65-3.23,6.58-2.71.92-5.65-.52-6.58-3.23Z"/>
          <path class="cls-2" d="M.31,8c1.05,3.06,4.39,4.71,7.45,3.66,3.06-1.05,4.71-4.39,3.66-7.45C10.38,1.15,7.04-.5,3.98.55.91,1.59-.73,4.94.31,8c1.05,3.06-1.05-3.06,0,0ZM10.12,4.65c.8,2.34-.46,4.9-2.8,5.7-2.34.8-4.9-.46-5.7-2.8-.8-2.34.46-4.9,2.8-5.7,2.34-.8,4.9.46,5.7,2.8.8,2.34-.8-2.35,0,0Z"/>
        </g>
        <polygon class="cls-2" points="36.88 107.93 40.33 108.18 42.91 105.87 42.34 114.05 36.88 107.93"/>
        <path class="cls-4" d="M5.89,8.77l-.1-4.27c-.78.63-1.31.95-1.58.95-.13,0-.25-.05-.35-.15-.1-.1-.16-.22-.16-.36,0-.16.04-.28.14-.36.1-.08.27-.18.52-.3.37-.19.67-.38.89-.58.22-.2.42-.43.59-.68.17-.25.28-.4.33-.46.05-.06.15-.09.3-.09.17,0,.3.06.4.18.1.13.16.3.16.53l.13,5.37c.01.63-.19.95-.62.96-.19,0-.35-.06-.46-.18-.12-.13-.18-.31-.19-.56Z"/>
      </g>
      <g>
        <path class="cls-2" d="M93.78,7.01c.09,0,.18.02.27.05.45.16.68.64.53,1.09l-.8,2.31c-.16.45-.64.68-1.09.53-.45-.16-.68-.64-.53-1.09l.8-2.31c.12-.36.46-.58.81-.57ZM92.17,11.62c.09,0,.18.02.27.05.45.16.68.64.53,1.09l-.8,2.31c-.16.45-.64.68-1.09.53-.45-.16-.68-.64-.53-1.09l.8-2.31c.12-.36.46-.58.81-.57ZM90.57,16.23c.09,0,.18.02.27.05.45.16.68.64.53,1.09l-.8,2.31c-.16.45-.64.68-1.09.53-.45-.16-.68-.64-.53-1.09l.8-2.31c.12-.36.46-.58.81-.57ZM88.96,20.85c.09,0,.18.02.27.05.45.16.68.64.53,1.09l-.8,2.31c-.16.45-.64.68-1.09.53-.45-.16-.68-.64-.53-1.09l.8-2.31c.12-.36.46-.58.81-.57ZM87.35,25.46c.09,0,.18.02.27.05.45.16.68.64.53,1.09l-.8,2.31c-.16.45-.64.68-1.09.53-.45-.16-.68-.64-.53-1.09l.8-2.31c.12-.36.46-.58.81-.57ZM85.75,30.07c.09,0,.18.02.27.05.45.16.68.64.53,1.09l-.8,2.31c-.16.45-.64.68-1.09.53-.45-.16-.68-.64-.53-1.09l.8-2.31c.12-.36.46-.58.81-.57ZM84.14,34.68c.09,0,.18.02.27.05.45.16.68.64.53,1.09l-.8,2.31c-.15.45-.64.68-1.09.53-.45-.16-.68-.64-.53-1.09l.8-2.31c.12-.36.46-.58.81-.57ZM82.54,39.3c.09,0,.18.02.27.05.45.16.68.64.53,1.09l-.8,2.31c-.16.45-.64.68-1.09.53-.45-.16-.68-.64-.53-1.09l.8-2.31c.12-.36.46-.58.81-.57ZM80.93,43.91c.09,0,.18.02.27.05.45.16.68.64.53,1.09l-.8,2.31c-.16.45-.64.68-1.09.53-.45-.16-.68-.64-.53-1.09l.8-2.31c.12-.36.46-.58.81-.57ZM79.33,48.52c.09,0,.18.02.27.05.45.16.68.64.53,1.09l-.8,2.31c-.16.45-.64.68-1.09.53-.45-.16-.68-.64-.53-1.09l.8-2.31c.12-.36.46-.58.81-.57ZM77.72,53.13c.09,0,.18.02.27.05.45.16.68.64.53,1.09l-.8,2.31c-.16.45-.64.68-1.09.53-.45-.16-.68-.64-.53-1.09l.8-2.31c.12-.36.46-.58.81-.57ZM76.11,57.75c.09,0,.18.02.27.05.45.16.68.64.53,1.09l-.8,2.31c-.16.45-.64.68-1.09.53-.45-.16-.68-.64-.53-1.09l.8-2.31c.12-.36.46-.58.81-.57ZM74.51,62.36c.09,0,.18.02.27.05.45.16.68.64.53,1.09l-.8,2.31c-.16.45-.64.68-1.09.53-.45-.16-.68-.64-.53-1.09l.8-2.31c.12-.36.46-.58.81-.57ZM72.9,66.97c.09,0,.18.02.27.05.45.16.68.64.53,1.09l-.8,2.31c-.16.45-.64.68-1.09.53-.45-.16-.68-.64-.53-1.09l.8-2.31c.12-.36.46-.58.81-.57ZM71.3,71.58c.09,0,.18.02.27.05.45.16.68.64.53,1.09l-.8,2.31c-.16.45-.64.68-1.09.53-.45-.16-.68-.64-.53-1.09l.8-2.31c.12-.36.46-.58.81-.57ZM69.69,76.2c.09,0,.18.02.27.05.45.16.68.64.53,1.09l-.8,2.31c-.16.45-.64.68-1.09.53-.45-.16-.68-.64-.53-1.09l.8-2.31c.12-.36.46-.58.81-.57ZM68.09,80.81c.09,0,.18.02.27.05.45.16.68.64.53,1.09l-.8,2.31c-.16.45-.64.68-1.09.53-.45-.16-.68-.64-.53-1.09l.8-2.31c.12-.36.46-.58.81-.57ZM66.48,85.42c.09,0,.18.02.27.05.45.16.68.64.53,1.09l-.8,2.31c-.16.45-.64.68-1.09.53-.45-.16-.68-.64-.53-1.09l.8-2.31c.12-.36.46-.58.81-.57ZM64.88,90.03c.09,0,.18.02.27.05.45.16.68.64.53,1.09l-.8,2.31c-.16.45-.64.68-1.09.53-.45-.16-.68-.64-.53-1.09l.8-2.31c.12-.36.46-.58.81-.57ZM63.27,94.65c.09,0,.18.02.27.05.45.16.68.64.53,1.09l-.8,2.31c-.16.45-.64.68-1.09.53-.45-.16-.68-.64-.53-1.09l.8-2.31c.12-.36.46-.58.81-.57ZM61.66,99.26c.09,0,.18.02.27.05.45.16.68.64.53,1.09l-.8,2.31c-.16.45-.64.68-1.09.53-.45-.16-.68-.64-.53-1.09l.8-2.31c.12-.36.46-.58.81-.57Z"/>
        <g>
          <path class="cls-3" d="M99.16,8.67c.95-2.7-.48-5.66-3.18-6.6s-5.66.48-6.6,3.18c-.95,2.7.48,5.66,3.18,6.6,2.7.95,5.66-.48,6.6-3.18Z"/>
          <path class="cls-2" d="M99.81,8.9c1.07-3.05-.54-6.41-3.6-7.48-3.05-1.07-6.41.54-7.48,3.6-1.07,3.05.54,6.41,3.6,7.48,3.05,1.07,6.41-.54,7.48-3.6s-1.07,3.05,0,0ZM90.03,5.47c.82-2.34,3.39-3.57,5.73-2.75,2.34.82,3.57,3.39,2.75,5.73-.82,2.34-3.39,3.57-5.73,2.75-2.34-.82-3.57-3.39-2.75-5.73.82-2.34-.82,2.34,0,0Z"/>
        </g>
        <polygon class="cls-2" points="64.51 101.48 61.05 101.7 58.49 99.37 59 107.56 64.51 101.48"/>
        <path class="cls-2" d="M55.1,110.19c-.53,1.52.27,3.17,1.78,3.7s3.17-.27,3.7-1.78c.53-1.52-.27-3.17-1.78-3.7-1.52-.53-3.17.27-3.7,1.78Z"/>
        <path class="cls-4" d="M93.63,9.2l2.45-.03c.24,0,.43.04.56.14.13.1.2.23.2.41,0,.15-.05.28-.15.39-.1.11-.25.16-.46.17l-3.45.05c-.23,0-.42-.06-.55-.19-.13-.13-.2-.28-.2-.45,0-.11.04-.26.12-.45.08-.19.17-.33.27-.44.41-.44.78-.81,1.11-1.12.33-.31.57-.52.71-.62.25-.19.46-.37.63-.56.17-.19.3-.37.38-.57.09-.19.13-.38.13-.57,0-.2-.05-.38-.15-.54-.1-.16-.23-.28-.39-.36-.17-.09-.35-.13-.54-.12-.41,0-.73.19-.96.55-.03.05-.08.18-.15.39-.07.21-.15.37-.24.49-.09.11-.23.17-.4.17-.16,0-.29-.05-.39-.15-.1-.1-.16-.24-.16-.42,0-.22.04-.44.14-.68.09-.24.24-.45.43-.64.19-.19.43-.35.73-.47.29-.12.64-.18,1.04-.19.48,0,.89.06,1.23.21.22.1.41.23.58.4.17.17.3.37.4.6.1.23.14.47.15.71,0,.39-.09.74-.27,1.06-.19.32-.38.57-.58.75-.2.18-.53.47-1,.86-.47.39-.78.69-.96.91-.07.09-.15.19-.23.31Z"/>
      </g>
      <g>
        <path class="cls-1" d="M49.44,114.29c-.62,0-1.19-.39-1.39-1.01L11.82,1.92c-.25-.77.17-1.6.94-1.85.77-.25,1.6.17,1.85.94l36.23,111.36c.25.77-.17,1.6-.94,1.85-.15.05-.3.07-.45.07Z"/>
        <path class="cls-1" d="M49.48,114.29c-.15,0-.3-.02-.45-.07-.77-.25-1.19-1.08-.94-1.85L84.32,1.01c.25-.77,1.08-1.19,1.85-.94.77.25,1.19,1.08.94,1.85l-36.23,111.36c-.2.62-.78,1.01-1.39,1.01Z"/>
      </g>
    </g>
  </g>
</svg>