<?xml version="1.0" encoding="UTF-8"?>
<svg id="Layer_2" data-name="Layer 2" xmlns="http://www.w3.org/2000/svg" viewBox="0 0 142.45 113.24">
  <defs>
    <style>
      .cls-1, .cls-2, .cls-3, .cls-4 {
        stroke-width: 0px;
      }

      .cls-2 {
        fill: #6f6f6e;
      }

      .cls-3 {
        fill: #fff;
      }

      .cls-4 {
        fill: #ff0600;
      }
    </style>
  </defs>
  <g id="W">
    <g>
      <g>
        <path class="cls-2" d="M36.88,108.52c-.37,0-.7-.24-.82-.6l-.71-2.34c-.14-.45.12-.93.57-1.07.45-.14.93.12,1.07.57l.71,2.34c.14.45-.12.93-.57,1.07-.08.03-.17.04-.25.04ZM35.45,103.85c-.37,0-.7-.24-.82-.6l-.71-2.34c-.14-.45.12-.93.57-1.07.45-.14.93.12,1.07.57l.71,2.34c.14.45-.12.93-.57,1.07-.08.03-.17.04-.25.04ZM34.02,99.18c-.37,0-.7-.24-.82-.6l-.71-2.34c-.14-.45.12-.93.57-1.07.45-.14.93.12,1.07.57l.71,2.34c.14.45-.12.93-.57,1.07-.08.03-.17.04-.25.04ZM32.59,94.51c-.37,0-.7-.24-.82-.6l-.71-2.34c-.14-.45.12-.93.57-1.07.45-.14.93.12,1.07.57l.71,2.34c.14.45-.12.93-.57,1.07-.08.03-.17.04-.25.04ZM31.16,89.84c-.37,0-.7-.24-.82-.6l-.71-2.33c-.14-.45.12-.93.57-1.07.45-.14.93.12,1.07.57l.71,2.33c.14.45-.12.93-.57,1.07-.08.03-.17.04-.25.04ZM29.73,85.17c-.37,0-.7-.24-.82-.6l-.71-2.33c-.14-.45.12-.93.57-1.07.45-.14.93.12,1.07.57l.71,2.33c.14.45-.12.93-.57,1.07-.08.03-.17.04-.25.04ZM28.3,80.5c-.37,0-.7-.24-.82-.6l-.71-2.33c-.14-.45.12-.93.57-1.07.45-.14.93.12,1.07.57l.71,2.33c.14.45-.12.93-.57,1.07-.08.03-.17.04-.25.04ZM26.87,75.83c-.37,0-.7-.24-.82-.6l-.71-2.33c-.14-.45.12-.93.57-1.07.45-.14.93.12,1.07.57l.71,2.33c.14.45-.12.93-.57,1.07-.08.03-.17.04-.25.04ZM25.44,71.16c-.37,0-.7-.24-.82-.6l-.71-2.34c-.14-.45.12-.93.57-1.07.45-.14.93.12,1.07.57l.71,2.34c.14.45-.12.93-.57,1.07-.08.03-.17.04-.25.04ZM24.01,66.49c-.37,0-.7-.24-.82-.6l-.71-2.34c-.14-.45.12-.93.57-1.07.45-.14.93.12,1.07.57l.71,2.34c.14.45-.12.93-.57,1.07-.08.03-.17.04-.25.04ZM22.58,61.82c-.37,0-.7-.24-.82-.6l-.71-2.34c-.14-.45.12-.93.57-1.07.45-.14.93.12,1.07.57l.71,2.34c.14.45-.12.93-.57,1.07-.08.03-.17.04-.25.04ZM21.15,57.15c-.37,0-.7-.24-.82-.6l-.71-2.34c-.14-.45.12-.93.57-1.07.45-.14.93.12,1.07.57l.71,2.34c.14.45-.12.93-.57,1.07-.08.03-.17.04-.25.04ZM19.72,52.48c-.37,0-.7-.24-.82-.6l-.71-2.34c-.14-.45.12-.93.57-1.07.45-.14.93.12,1.07.57l.71,2.34c.14.45-.12.93-.57,1.07-.08.03-.17.04-.25.04ZM18.3,47.81c-.37,0-.7-.24-.82-.6l-.71-2.33c-.14-.45.12-.93.57-1.07.45-.14.93.12,1.07.57l.71,2.33c.14.45-.12.93-.57,1.07-.08.03-.17.04-.25.04ZM16.87,43.14c-.37,0-.7-.24-.82-.6l-.71-2.33c-.14-.45.12-.93.57-1.07.45-.14.93.12,1.07.57l.71,2.33c.14.45-.12.93-.57,1.07-.08.03-.17.04-.25.04ZM15.44,38.47c-.37,0-.7-.24-.82-.6l-.72-2.33c-.14-.45.12-.93.57-1.07.45-.14.93.12,1.07.57l.72,2.33c.14.45-.12.93-.57,1.07-.08.03-.17.04-.25.04ZM14.01,33.8c-.37,0-.7-.24-.82-.6l-.71-2.33c-.14-.45.12-.93.57-1.07.45-.14.93.12,1.07.57l.71,2.33c.14.45-.12.93-.57,1.07-.08.03-.17.04-.25.04ZM12.58,29.13c-.37,0-.7-.24-.82-.6l-.71-2.34c-.14-.45.12-.93.57-1.07.45-.14.93.12,1.07.57l.71,2.34c.14.45-.12.93-.57,1.07-.08.03-.17.04-.25.04ZM11.15,24.46c-.37,0-.7-.24-.82-.6l-.71-2.34c-.14-.45.12-.93.57-1.07.45-.14.93.12,1.07.57l.71,2.34c.14.45-.12.93-.57,1.07-.08.03-.17.04-.25.04ZM9.72,19.79c-.37,0-.7-.24-.82-.6l-.71-2.34c-.14-.45.12-.93.57-1.07.45-.14.93.12,1.07.57l.71,2.34c.14.45-.12.93-.57,1.07-.08.03-.17.04-.25.04ZM8.29,15.12c-.37,0-.7-.24-.82-.6l-.71-2.34c-.14-.45.12-.93.57-1.07.45-.14.93.12,1.07.57l.71,2.34c.14.45-.12.93-.57,1.07-.08.03-.17.04-.25.04Z"/>
        <g>
          <path class="cls-3" d="M.97,8.84C.04,6.13,1.49,3.19,4.2,2.26c2.71-.92,5.65.52,6.58,3.23.92,2.71-.52,5.65-3.23,6.58-2.71.92-5.65-.52-6.58-3.23Z"/>
          <path class="cls-2" d="M.31,9.06c1.05,3.06,4.39,4.71,7.45,3.66,3.06-1.05,4.71-4.39,3.66-7.45C10.38,2.21,7.04.57,3.98,1.61.91,2.66-.73,6,.31,9.06c1.05,3.06-1.05-3.06,0,0ZM10.12,5.72c.8,2.34-.46,4.9-2.8,5.7-2.35.8-4.9-.46-5.7-2.8-.8-2.34.46-4.9,2.8-5.7,2.35-.8,4.9.46,5.7,2.8.8,2.34-.8-2.35,0,0Z"/>
        </g>
        <polygon class="cls-2" points="33.48 106.84 36.91 107.27 39.61 105.1 38.6 113.24 33.48 106.84"/>
        <path class="cls-4" d="M5.89,9.83l-.1-4.27c-.78.63-1.31.95-1.58.95-.13,0-.25-.05-.35-.15-.1-.1-.16-.22-.16-.36,0-.16.04-.28.14-.36.1-.08.27-.18.52-.3.37-.19.67-.38.89-.58s.42-.43.59-.68c.17-.25.28-.4.33-.46.05-.06.15-.09.3-.09.17,0,.3.06.4.18.1.13.16.3.16.53l.13,5.37c.01.63-.19.95-.62.96-.19,0-.35-.06-.46-.18-.12-.13-.18-.31-.19-.56Z"/>
      </g>
      <g>
        <path class="cls-2" d="M136.08,8.28c.08,0,.16.01.24.04.45.14.7.62.56,1.07l-.72,2.33c-.14.45-.62.7-1.07.56-.45-.14-.7-.62-.56-1.07l.72-2.33c.11-.37.46-.61.83-.6ZM134.64,12.95c.08,0,.16.01.24.04.45.14.7.62.56,1.07l-.72,2.33c-.14.45-.62.7-1.07.56-.45-.14-.7-.62-.56-1.07l.72-2.33c.11-.37.46-.61.83-.6ZM133.2,17.62c.08,0,.16.01.24.04.45.14.7.62.56,1.07l-.72,2.33c-.14.45-.62.7-1.07.56-.45-.14-.7-.62-.56-1.07l.72-2.33c.11-.37.46-.61.83-.6ZM131.76,22.28c.08,0,.16.01.24.04.45.14.7.62.56,1.07l-.72,2.33c-.14.45-.62.7-1.07.56-.45-.14-.7-.62-.56-1.07l.72-2.33c.11-.37.46-.61.83-.6ZM130.32,26.95c.08,0,.16.01.24.04.45.14.7.62.56,1.07l-.72,2.33c-.14.45-.62.7-1.07.56-.45-.14-.7-.62-.56-1.07l.72-2.33c.11-.37.46-.61.83-.6ZM128.87,31.62c.08,0,.16.01.24.04.45.14.7.62.56,1.07l-.72,2.33c-.14.45-.62.7-1.07.56-.45-.14-.7-.62-.56-1.07l.72-2.33c.11-.37.46-.61.83-.6ZM127.43,36.28c.08,0,.16.01.24.04.45.14.7.62.56,1.07l-.72,2.33c-.14.45-.62.7-1.07.56-.45-.14-.7-.62-.56-1.07l.72-2.33c.11-.37.46-.61.83-.6ZM125.99,40.95c.08,0,.16.01.24.04.45.14.7.62.56,1.07l-.72,2.33c-.14.45-.62.7-1.07.56-.45-.14-.7-.62-.56-1.07l.72-2.33c.11-.37.46-.61.83-.6ZM124.55,45.61c.08,0,.16.01.24.04.45.14.7.62.56,1.07l-.72,2.33c-.14.45-.62.7-1.07.56-.45-.14-.7-.62-.56-1.07l.72-2.33c.11-.37.46-.61.83-.6ZM123.11,50.28c.08,0,.16.01.24.04.45.14.7.62.56,1.07l-.72,2.33c-.14.45-.62.7-1.07.56-.45-.14-.7-.62-.56-1.07l.72-2.33c.11-.37.46-.61.83-.6ZM121.66,54.95c.08,0,.16.01.24.04.45.14.7.62.56,1.07l-.72,2.33c-.14.45-.62.7-1.07.56-.45-.14-.7-.62-.56-1.07l.72-2.33c.11-.37.46-.61.83-.6ZM120.22,59.61c.08,0,.16.01.24.04.45.14.7.62.56,1.07l-.72,2.33c-.14.45-.62.7-1.07.56-.45-.14-.7-.62-.56-1.07l.72-2.33c.11-.37.46-.61.83-.6ZM118.78,64.28c.08,0,.16.01.24.04.45.14.7.62.56,1.07l-.72,2.33c-.14.45-.62.7-1.07.56-.45-.14-.7-.62-.56-1.07l.72-2.33c.11-.37.46-.61.83-.6ZM117.34,68.95c.08,0,.16.01.24.04.45.14.7.62.56,1.07l-.72,2.33c-.14.45-.62.7-1.07.56-.45-.14-.7-.62-.56-1.07l.72-2.33c.11-.37.46-.61.83-.6ZM115.9,73.61c.08,0,.16.01.24.04.45.14.7.62.56,1.07l-.72,2.33c-.14.45-.62.7-1.07.56-.45-.14-.7-.62-.56-1.07l.72-2.33c.11-.37.46-.61.83-.6ZM114.45,78.28c.08,0,.16.01.24.04.45.14.7.62.56,1.07l-.72,2.33c-.14.45-.62.7-1.07.56-.45-.14-.7-.62-.56-1.07l.72-2.33c.11-.37.46-.61.83-.6ZM113.01,82.94c.08,0,.16.01.24.04.45.14.7.62.56,1.07l-.72,2.33c-.14.45-.62.7-1.07.56-.45-.14-.7-.62-.56-1.07l.72-2.33c.11-.37.46-.61.83-.6ZM111.57,87.61c.08,0,.16.01.24.04.45.14.7.62.56,1.07l-.72,2.33c-.14.45-.62.7-1.07.56-.45-.14-.7-.62-.56-1.07l.72-2.33c.11-.37.46-.61.83-.6ZM110.13,92.28c.08,0,.16.01.24.04.45.14.7.62.56,1.07l-.72,2.33c-.14.45-.62.7-1.07.56-.45-.14-.7-.62-.56-1.07l.72-2.33c.11-.37.46-.61.83-.6ZM108.69,96.94c.08,0,.16.01.24.04.45.14.7.62.56,1.07l-.72,2.33c-.14.45-.62.7-1.07.56-.45-.14-.7-.62-.56-1.07l.72-2.33c.11-.37.46-.61.83-.6ZM107.24,101.61c.08,0,.16.01.24.04.45.14.7.62.56,1.07l-.13.43c-.14.45-.62.7-1.07.56-.45-.14-.7-.62-.56-1.07l.13-.43c.11-.37.46-.61.83-.6Z"/>
        <g>
          <path class="cls-3" d="M141.46,9.08c.96-2.7-.45-5.66-3.15-6.62-2.7-.96-5.66.45-6.62,3.15-.96,2.7.45,5.66,3.15,6.62,2.7.96,5.66-.45,6.62-3.15Z"/>
          <path class="cls-2" d="M142.11,9.31c1.08-3.05-.52-6.41-3.57-7.5-3.05-1.08-6.41.52-7.5,3.57-1.08,3.05.52,6.41,3.57,7.5,3.05,1.08,6.41-.52,7.5-3.57,1.08-3.05-1.08,3.05,0,0ZM132.34,5.85c.83-2.34,3.4-3.56,5.74-2.73s3.56,3.4,2.73,5.74c-.83,2.34-3.4,3.56-5.74,2.73-2.34-.83-3.56-3.4-2.73-5.74.83-2.34-.83,2.33,0,0Z"/>
        </g>
        <polygon class="cls-2" points="111.11 99.55 107.67 99.95 105 97.74 105.91 105.9 111.11 99.55"/>
        <path class="cls-2" d="M101.43,108.46c-.59,1.5.15,3.18,1.65,3.77,1.5.59,3.18-.15,3.77-1.65.59-1.5-.15-3.18-1.65-3.77s-3.18.15-3.77,1.65Z"/>
        <path class="cls-4" d="M136.99,9.99v-.87s-2.37.04-2.37.04c-.3,0-.52-.06-.67-.19-.15-.13-.23-.31-.23-.55,0-.06,0-.12.03-.18.02-.06.05-.13.1-.19.04-.07.09-.13.13-.2.05-.06.1-.14.17-.23l2.43-3.37c.16-.22.29-.38.39-.48.1-.1.23-.15.38-.15.48,0,.72.26.73.8l.06,3.63h.2c.24,0,.43.02.58.09.15.06.22.21.23.43,0,.18-.05.31-.17.4s-.3.13-.53.13h-.29s.01.88.01.88c0,.24-.05.42-.15.54-.1.12-.25.18-.42.18-.18,0-.32-.05-.43-.17-.11-.12-.17-.3-.17-.53ZM134.94,8.1l2.02-.03-.05-2.73-1.97,2.76Z"/>
      </g>
      <g>
        <path class="cls-2" d="M63.8,13.91c.08,0,.17,0,.25.03.45.13.72.6.59,1.06l-.67,2.35c-.13.45-.6.72-1.06.59-.45-.13-.72-.6-.59-1.06l.67-2.35c.11-.37.44-.61.8-.62ZM62.45,18.6c.08,0,.17,0,.25.03.45.13.72.6.59,1.06l-.67,2.35c-.13.45-.6.72-1.06.59-.45-.13-.72-.6-.59-1.06l.67-2.35c.11-.37.44-.61.8-.62ZM61.11,23.3c.08,0,.17,0,.25.03.45.13.72.6.59,1.06l-.67,2.35c-.13.45-.6.72-1.06.59-.45-.13-.72-.6-.59-1.06l.67-2.35c.11-.37.44-.61.8-.62ZM59.76,27.99c.08,0,.17,0,.25.03.45.13.72.6.59,1.06l-.67,2.35c-.13.45-.6.72-1.06.59-.45-.13-.72-.6-.59-1.06l.67-2.35c.11-.37.44-.61.8-.62ZM58.42,32.69c.08,0,.17,0,.25.03.45.13.72.6.59,1.06l-.67,2.35c-.13.45-.6.72-1.06.59-.45-.13-.72-.6-.59-1.06l.67-2.35c.11-.37.44-.61.8-.62ZM57.07,37.38c.08,0,.17,0,.25.03.45.13.72.6.59,1.06l-.67,2.35c-.13.45-.6.72-1.06.59-.45-.13-.72-.6-.59-1.06l.67-2.35c.11-.37.44-.61.8-.62ZM55.73,42.08c.08,0,.17,0,.25.03.45.13.72.6.59,1.06l-.67,2.35c-.13.45-.6.72-1.06.59-.45-.13-.72-.6-.59-1.06l.67-2.35c.11-.37.44-.61.8-.62ZM54.38,46.77c.08,0,.17,0,.25.03.45.13.72.6.59,1.06l-.67,2.35c-.13.45-.6.72-1.06.59-.45-.13-.72-.6-.59-1.06l.67-2.35c.11-.37.44-.61.8-.62ZM53.04,51.47c.08,0,.17,0,.25.03.45.13.72.6.59,1.06l-.67,2.35c-.13.45-.6.72-1.06.59-.45-.13-.72-.6-.59-1.06l.67-2.35c.11-.37.44-.61.8-.62ZM51.69,56.16c.08,0,.17,0,.25.03.45.13.72.6.59,1.06l-.67,2.35c-.13.45-.6.72-1.06.59-.45-.13-.72-.6-.59-1.06l.67-2.35c.11-.37.44-.61.8-.62ZM50.35,60.86c.08,0,.17,0,.25.03.45.13.72.6.59,1.06l-.67,2.35c-.13.45-.6.72-1.06.59-.45-.13-.72-.6-.59-1.06l.67-2.35c.11-.37.44-.61.8-.62ZM49,65.55c.08,0,.17,0,.25.03.45.13.72.6.59,1.06l-.67,2.35c-.13.45-.6.72-1.06.59-.45-.13-.72-.6-.59-1.06l.67-2.35c.11-.37.44-.61.8-.62ZM47.66,70.25c.08,0,.17,0,.25.03.45.13.72.6.59,1.06l-.67,2.35c-.13.45-.6.72-1.06.59-.45-.13-.72-.6-.59-1.06l.67-2.35c.11-.37.44-.61.8-.62ZM46.31,74.94c.08,0,.17,0,.25.03.45.13.72.6.59,1.06l-.67,2.35c-.13.45-.6.72-1.06.59-.45-.13-.72-.6-.59-1.06l.67-2.35c.11-.37.44-.61.8-.62ZM44.97,79.64c.08,0,.17,0,.25.03.45.13.72.6.59,1.06l-.67,2.35c-.13.45-.6.72-1.06.59-.45-.13-.72-.6-.59-1.06l.67-2.35c.11-.37.44-.61.8-.62Z"/>
        <g>
          <path class="cls-3" d="M69.19,15.67c1-2.68-.37-5.67-3.05-6.66-2.68-1-5.67.37-6.66,3.05-1,2.68.37,5.67,3.05,6.66,2.68,1,5.67-.37,6.66-3.05Z"/>
          <path class="cls-2" d="M69.83,15.91c1.13-3.03-.42-6.42-3.46-7.55s-6.42.42-7.55,3.46c-1.13,3.03.42,6.42,3.46,7.55,3.03,1.13,6.42-.42,7.55-3.46,1.13-3.03-1.13,3.03,0,0ZM60.12,12.3c.86-2.32,3.45-3.51,5.78-2.65,2.32.86,3.51,3.45,2.65,5.78-.86,2.32-3.45,3.51-5.78,2.65-2.32-.86-3.51-3.45-2.65-5.78.86-2.32-.86,2.32,0,0Z"/>
        </g>
        <polygon class="cls-2" points="47.72 82.61 44.28 83.07 41.56 80.92 42.65 89.06 47.72 82.61"/>
        <path class="cls-4" d="M63.78,16.07l2.44-.15c.24-.02.43.02.57.12s.21.22.22.4c0,.15-.03.29-.13.4-.09.11-.25.17-.45.19l-3.45.21c-.23.01-.42-.04-.56-.16-.14-.12-.21-.27-.23-.44,0-.11.03-.26.1-.45.07-.19.16-.34.25-.46.39-.46.74-.85,1.06-1.18.31-.33.54-.55.68-.65.24-.2.45-.39.61-.59s.28-.39.35-.59c.08-.2.11-.39.1-.57-.01-.2-.07-.38-.18-.53-.11-.15-.24-.27-.41-.34-.17-.08-.35-.11-.54-.1-.41.03-.72.22-.93.6-.03.05-.07.18-.13.39-.06.21-.13.38-.22.5-.08.12-.22.18-.39.19-.16,0-.29-.03-.4-.13-.11-.1-.17-.23-.18-.41-.01-.22.02-.44.1-.68.08-.24.21-.46.39-.66.18-.2.41-.37.7-.51s.63-.22,1.03-.24c.48-.03.89.02,1.24.15.22.09.43.21.6.38.18.16.32.36.42.58.11.22.17.46.18.71.02.39-.05.75-.22,1.07-.17.33-.35.59-.54.78-.19.19-.51.49-.95.91-.45.41-.75.73-.91.95-.07.09-.14.19-.21.32Z"/>
      </g>
      <g>
        <g>
          <path class="cls-1" d="M45.51,112.54c-.63,0-1.22-.41-1.4-1.05L12.05,2.94c-.23-.78.21-1.59.99-1.82.77-.23,1.59.21,1.82.99l32.06,108.54c.23.78-.21,1.59-.99,1.82-.14.04-.28.06-.42.06Z"/>
          <path class="cls-1" d="M45.55,112.54c-.13,0-.27-.02-.4-.06-.78-.22-1.23-1.03-1-1.81l25.71-89.62c.22-.78,1.03-1.23,1.81-1,.78.22,1.23,1.03,1,1.81l-25.71,89.62c-.18.64-.77,1.06-1.41,1.06Z"/>
        </g>
        <g>
          <path class="cls-1" d="M97.32,112.54c-.14,0-.28-.02-.42-.06-.78-.23-1.22-1.04-.99-1.82L127.98,2.11c.23-.78,1.05-1.22,1.82-.99.78.23,1.22,1.04.99,1.82l-32.06,108.54c-.19.64-.77,1.05-1.4,1.05Z"/>
          <path class="cls-1" d="M97.28,112.54c-.64,0-1.22-.42-1.41-1.06l-25.71-89.62c-.22-.78.23-1.59,1-1.81.78-.22,1.59.23,1.81,1l25.71,89.62c.22.78-.23,1.59-1,1.81-.14.04-.27.06-.4.06Z"/>
        </g>
      </g>
      <g>
        <path class="cls-2" d="M98.12,79.17c-.37,0-.71-.24-.82-.61l-.71-2.34c-.14-.45.12-.93.57-1.07.45-.14.93.12,1.07.57l.71,2.34c.14.45-.12.93-.57,1.07-.08.03-.17.04-.25.04ZM96.71,74.49c-.37,0-.71-.24-.82-.61l-.71-2.34c-.14-.45.12-.93.57-1.07.45-.14.93.12,1.07.57l.71,2.34c.14.45-.12.93-.57,1.07-.08.02-.17.04-.25.04ZM95.29,69.82c-.37,0-.71-.24-.82-.61l-.71-2.34c-.14-.45.12-.93.57-1.07.45-.14.93.12,1.07.57l.71,2.34c.14.45-.12.93-.57,1.07-.08.03-.17.04-.25.04ZM93.88,65.15c-.37,0-.71-.24-.82-.61l-.71-2.34c-.14-.45.12-.93.57-1.07.45-.14.93.12,1.07.57l.71,2.34c.14.45-.12.93-.57,1.07-.08.02-.17.04-.25.04ZM92.47,60.47c-.37,0-.71-.24-.82-.61l-.71-2.34c-.14-.45.12-.93.57-1.07.45-.14.93.12,1.07.57l.71,2.34c.14.45-.12.93-.57,1.07-.08.03-.17.04-.25.04ZM91.05,55.8c-.37,0-.71-.24-.82-.61l-.71-2.34c-.14-.45.12-.93.57-1.07.45-.14.93.12,1.07.57l.71,2.34c.14.45-.12.93-.57,1.07-.08.02-.17.04-.25.04ZM89.64,51.12c-.37,0-.71-.24-.82-.61l-.71-2.34c-.14-.45.12-.93.57-1.07.45-.14.93.12,1.07.57l.71,2.34c.14.45-.12.93-.57,1.07-.08.03-.17.04-.25.04ZM88.22,46.45c-.37,0-.71-.24-.82-.61l-.71-2.34c-.14-.45.12-.93.57-1.07.45-.14.93.12,1.07.57l.71,2.34c.14.45-.12.93-.57,1.07-.08.02-.17.04-.25.04ZM86.81,41.77c-.37,0-.71-.24-.82-.61l-.71-2.34c-.14-.45.12-.93.57-1.07.45-.14.93.12,1.07.57l.71,2.34c.14.45-.12.93-.57,1.07-.08.03-.17.04-.25.04ZM85.39,37.1c-.37,0-.71-.24-.82-.61l-.71-2.34c-.14-.45.12-.93.57-1.07.45-.14.93.12,1.07.57l.71,2.34c.14.45-.12.93-.57,1.07-.08.03-.17.04-.25.04ZM83.98,32.42c-.37,0-.71-.24-.82-.61l-.71-2.34c-.14-.45.12-.93.57-1.07.45-.14.93.12,1.07.57l.71,2.34c.14.45-.12.93-.57,1.07-.08.02-.17.04-.25.04ZM82.56,27.75c-.37,0-.71-.24-.82-.61l-.71-2.34c-.14-.45.12-.93.57-1.07.45-.14.93.12,1.07.57l.71,2.34c.14.45-.12.93-.57,1.07-.08.02-.17.04-.25.04ZM81.15,23.07c-.37,0-.71-.24-.82-.61l-.71-2.34c-.14-.45.12-.93.57-1.07.45-.14.93.12,1.07.57l.71,2.34c.14.45-.12.93-.57,1.07-.08.03-.17.04-.25.04ZM79.73,18.4c-.37,0-.71-.24-.82-.61l-.71-2.34c-.14-.45.12-.93.57-1.07.45-.14.93.12,1.07.57l.71,2.34c.14.45-.12.93-.57,1.07-.08.03-.17.04-.25.04ZM78.32,13.73c-.37,0-.71-.24-.82-.61l-.71-2.34c-.14-.45.12-.93.57-1.07.45-.14.93.12,1.07.57l.71,2.34c.14.45-.12.93-.57,1.07-.08.02-.17.04-.25.04Z"/>
        <g>
          <g>
            <path class="cls-3" d="M75.72,11.05c-2.86-.03-5.15-2.38-5.12-5.24.03-2.86,2.38-5.15,5.24-5.12,2.86.03,5.15,2.38,5.12,5.24-.03,2.86-2.38,5.15-5.24,5.12Z"/>
            <path class="cls-2" d="M75.71,11.74c3.24.04,5.9-2.56,5.94-5.8C81.69,2.7,79.09.04,75.86,0c-3.24-.04-5.9,2.56-5.94,5.8-.04,3.24,2.56,5.9,5.8,5.94,3.24.04-3.24-.04,0,0ZM75.84,1.38c2.48.03,4.47,2.07,4.44,4.55-.03,2.48-2.07,4.47-4.55,4.44-2.48-.03-4.47-2.07-4.44-4.55.03-2.48,2.07-4.47,4.55-4.44,2.48.03-2.48-.03,0,0Z"/>
          </g>
          <path class="cls-4" d="M75.74,5.06c.29,0,.54-.07.75-.23.21-.16.32-.4.33-.72,0-.24-.07-.45-.23-.63-.16-.18-.38-.27-.66-.28-.19,0-.35.02-.47.07-.12.05-.22.12-.3.2-.07.09-.15.2-.21.33-.07.14-.13.26-.19.38-.03.06-.09.11-.17.15-.08.04-.18.05-.28.05-.13,0-.24-.06-.34-.16-.1-.1-.15-.24-.15-.41,0-.16.06-.33.16-.51.1-.18.25-.34.45-.5.19-.16.43-.28.72-.37.28-.09.6-.13.95-.12.3,0,.58.06.83.15.25.09.46.22.64.38.18.16.31.35.4.56.09.21.13.43.12.67,0,.31-.08.58-.23.8-.14.22-.34.43-.6.64.24.14.44.29.6.47.16.17.28.36.36.57.08.21.11.43.11.67,0,.28-.07.56-.19.82s-.3.49-.52.7c-.23.2-.5.36-.8.47-.31.11-.65.16-1.02.15-.38-.01-.71-.09-1-.23-.29-.14-.53-.32-.72-.53-.19-.21-.33-.42-.42-.64-.09-.22-.14-.4-.13-.54,0-.18.07-.33.19-.43.12-.11.27-.16.44-.15.09,0,.17.03.25.08.08.05.13.12.15.19.15.44.32.77.5.98.18.22.44.33.78.34.19,0,.38-.04.56-.13.18-.09.33-.23.46-.41.12-.18.19-.4.19-.65.01-.37-.08-.66-.28-.87-.19-.21-.47-.33-.83-.34-.06,0-.16,0-.29.01-.13,0-.22.01-.25.01-.17,0-.3-.05-.39-.14-.09-.09-.14-.21-.13-.36,0-.15.06-.27.18-.36.11-.09.28-.13.51-.12h.19Z"/>
        </g>
        <polygon class="cls-2" points="94.6 78.44 98.04 78.82 100.71 76.62 99.81 84.77 94.6 78.44"/>
      </g>
    </g>
  </g>
</svg>