<?xml version="1.0" encoding="UTF-8"?>
<svg id="Layer_2" data-name="Layer 2" xmlns="http://www.w3.org/2000/svg" viewBox="0 0 178.5 212.5">
  <defs>
    <style>
      .cls-1, .cls-2, .cls-3, .cls-4 {
        stroke-width: 0px;
      }

      .cls-2 {
        fill: #6f6f6e;
      }

      .cls-3 {
        fill: #fff;
      }

      .cls-4 {
        fill: #ff0600;
      }
    </style>
  </defs>
  <g id="A">
    <g>
      <g>
        <g>
          <path class="cls-2" d="M115.83,140.32h0l-4.88-.02c-.9,0-1.62-.74-1.62-1.63,0-.9.73-1.62,1.63-1.62h0l4.88.02c.9,0,1.62.74,1.62,1.63,0,.9-.73,1.62-1.63,1.62ZM105.53,140.24h0l-4.88-.02c-.9,0-1.62-.74-1.62-1.63,0-.9.73-1.62,1.63-1.62h0l4.88.02c.9,0,1.62.74,1.62,1.63,0,.9-.73,1.62-1.63,1.62ZM95.78,140.2h0l-4.88-.02c-.9,0-1.62-.74-1.62-1.63,0-.9.73-1.62,1.63-1.62h0l4.88.02c.9,0,1.62.74,1.62,1.63,0,.9-.73,1.62-1.63,1.62ZM86.03,140.15h0l-4.88-.02c-.9,0-1.62-.74-1.62-1.63,0-.9.73-1.62,1.63-1.62h0l4.88.02c.9,0,1.62.74,1.62,1.63,0,.9-.73,1.62-1.63,1.62ZM76.27,140.11h0l-4.88-.02c-.9,0-1.62-.74-1.62-1.63,0-.9.73-1.62,1.63-1.62h0l4.88.02c.9,0,1.62.74,1.62,1.63,0,.9-.73,1.62-1.63,1.62ZM66.52,140.07h0l-4.88-.02c-.9,0-1.62-.74-1.62-1.63,0-.9.69-1.62,1.63-1.62l4.88.02c.9,0,1.62.74,1.62,1.63,0,.9-.73,1.62-1.63,1.62Z"/>
          <g>
            <path class="cls-3" d="M62.15,148.2c-5.4-.02-9.76-4.42-9.74-9.82.02-5.4,4.42-9.76,9.82-9.74,5.4.02,9.76,4.42,9.74,9.82-.02,5.4-4.42,9.76-9.82,9.74Z"/>
            <path class="cls-2" d="M62.15,149.51c6.11.03,11.1-4.92,11.13-11.03.03-6.11-4.92-11.1-11.03-11.13-6.11-.03-11.1,4.92-11.13,11.03-.03,6.11,4.92,11.1,11.03,11.13,6.11.03-6.11-.03,0,0ZM62.23,129.95c4.68.02,8.46,3.84,8.44,8.52-.02,4.68-3.84,8.46-8.52,8.44-4.68-.02-8.46-3.84-8.44-8.52.02-4.68,3.84-8.46,8.52-8.44,4.68.02-4.68-.02,0,0Z"/>
          </g>
          <polygon class="cls-2" points="112.78 144.73 115.37 138.72 112.84 132.69 127.08 138.77 112.78 144.73"/>
        </g>
        <path class="cls-4" d="M61.45,137.23c.54,0,1.01-.16,1.4-.48.39-.32.59-.78.59-1.37,0-.45-.16-.85-.47-1.17-.31-.33-.74-.49-1.27-.49-.36,0-.66.05-.89.15-.23.1-.42.23-.55.4-.14.17-.27.38-.39.64-.12.26-.23.5-.33.74-.06.12-.17.22-.32.29-.15.07-.33.11-.53.11-.24,0-.45-.1-.65-.29-.2-.19-.3-.45-.3-.77s.09-.63.28-.97c.19-.34.46-.66.82-.97.36-.31.8-.55,1.33-.74.53-.19,1.12-.28,1.78-.28.57,0,1.1.08,1.57.23.47.16.88.38,1.23.68.35.3.61.64.79,1.03.18.39.27.81.27,1.26,0,.59-.13,1.1-.38,1.52-.26.42-.62.83-1.1,1.24.46.25.85.53,1.16.85.32.32.55.67.71,1.06.16.39.24.8.24,1.25,0,.54-.11,1.06-.32,1.56-.22.5-.53.95-.95,1.34-.42.39-.92.7-1.49.92-.58.22-1.21.33-1.91.33s-1.34-.13-1.9-.38c-.56-.25-1.02-.57-1.39-.95-.36-.38-.64-.77-.82-1.18-.19-.41-.28-.74-.28-1.01,0-.34.11-.62.33-.83.22-.21.5-.31.83-.31.17,0,.32.05.48.15.15.1.25.21.3.35.31.82.64,1.43.99,1.83.35.4.85.6,1.48.6.37,0,.72-.09,1.06-.27.34-.18.62-.45.84-.8.22-.35.33-.77.33-1.23,0-.69-.19-1.23-.57-1.63-.38-.39-.9-.59-1.58-.59-.12,0-.3.01-.55.04-.25.02-.41.04-.48.04-.32,0-.58-.08-.75-.24-.18-.16-.27-.39-.27-.68s.11-.51.32-.69c.21-.17.53-.26.95-.26h.36Z"/>
      </g>
      <g>
        <path class="cls-2" d="M11.65,188.5c-.19,0-.38-.02-.57-.08-.85-.29-1.31-1.21-1.02-2.06l1.56-4.62c.29-.85,1.21-1.31,2.06-1.02.85.29,1.31,1.21,1.02,2.06l-1.56,4.62c-.22.66-.83,1.09-1.49,1.11ZM14.83,178.48c-.19,0-.38-.02-.57-.08-.85-.29-1.31-1.21-1.02-2.06l1.56-4.62c.29-.85,1.21-1.31,2.06-1.02.85.29,1.31,1.21,1.02,2.06l-1.56,4.62c-.22.66-.83,1.09-1.49,1.11ZM17.94,169.23c-.19,0-.38-.02-.57-.08-.85-.29-1.31-1.21-1.02-2.06l1.56-4.62c.29-.85,1.21-1.31,2.06-1.02.85.29,1.31,1.21,1.02,2.06l-1.56,4.62c-.22.66-.83,1.09-1.49,1.11ZM21.05,159.99c-.19,0-.38-.02-.57-.08-.85-.29-1.31-1.21-1.02-2.06l1.56-4.62c.29-.85,1.21-1.31,2.06-1.02.85.29,1.31,1.21,1.02,2.06l-1.56,4.62c-.22.66-.83,1.09-1.49,1.11ZM24.17,150.74c-.19,0-.38-.02-.57-.08-.85-.29-1.31-1.21-1.02-2.06l1.56-4.62c.29-.85,1.21-1.31,2.06-1.02.85.29,1.31,1.21,1.02,2.06l-1.56,4.62c-.22.66-.83,1.09-1.49,1.11ZM27.28,141.5c-.19,0-.38-.02-.57-.08-.85-.29-1.31-1.21-1.02-2.06l1.56-4.62c.29-.85,1.21-1.31,2.06-1.02.85.29,1.31,1.21,1.02,2.06l-1.56,4.62c-.22.66-.83,1.09-1.49,1.11ZM30.39,132.25c-.19,0-.38-.02-.57-.08-.85-.29-1.31-1.21-1.02-2.06l1.56-4.62c.29-.85,1.21-1.31,2.06-1.02.85.29,1.31,1.21,1.02,2.06l-1.56,4.62c-.22.66-.83,1.09-1.49,1.11ZM33.5,123.01c-.19,0-.38-.02-.57-.08-.85-.29-1.31-1.21-1.02-2.06l1.56-4.62c.29-.85,1.21-1.31,2.06-1.02.85.29,1.31,1.21,1.02,2.06l-1.56,4.62c-.22.66-.83,1.09-1.49,1.11ZM36.61,113.76c-.19,0-.38-.02-.57-.08-.85-.29-1.31-1.21-1.02-2.06l1.56-4.62c.29-.85,1.21-1.31,2.06-1.02.85.29,1.31,1.21,1.02,2.06l-1.56,4.62c-.22.66-.83,1.09-1.49,1.11ZM39.73,104.52c-.19,0-.38-.02-.57-.08-.85-.29-1.31-1.21-1.02-2.06l1.56-4.62c.29-.85,1.21-1.31,2.06-1.02.85.29,1.31,1.21,1.02,2.06l-1.56,4.62c-.22.66-.83,1.09-1.49,1.11ZM42.84,95.27c-.19,0-.38-.02-.57-.08-.85-.29-1.31-1.21-1.02-2.06l1.56-4.62c.29-.85,1.21-1.31,2.06-1.02.85.29,1.31,1.21,1.02,2.06l-1.56,4.62c-.22.66-.83,1.09-1.49,1.11ZM45.95,86.03c-.19,0-.38-.02-.57-.08-.85-.29-1.31-1.21-1.02-2.06l1.56-4.62c.29-.85,1.21-1.31,2.06-1.02.85.29,1.31,1.21,1.02,2.06l-1.56,4.62c-.22.66-.83,1.09-1.49,1.11ZM49.06,76.78c-.19,0-.38-.02-.57-.08-.85-.29-1.31-1.21-1.02-2.06l1.56-4.62c.29-.85,1.21-1.31,2.06-1.02.85.29,1.31,1.21,1.02,2.06l-1.56,4.62c-.22.66-.83,1.09-1.49,1.11ZM52.17,67.54c-.19,0-.38-.02-.57-.08-.85-.29-1.31-1.21-1.02-2.06l1.56-4.62c.29-.85,1.21-1.31,2.06-1.02.85.29,1.31,1.21,1.02,2.06l-1.56,4.62c-.22.66-.83,1.09-1.49,1.11ZM55.29,58.29c-.19,0-.38-.02-.57-.08-.85-.29-1.31-1.21-1.02-2.06l1.56-4.62c.29-.85,1.21-1.31,2.06-1.02.85.29,1.31,1.21,1.02,2.06l-1.56,4.62c-.22.66-.83,1.09-1.49,1.11ZM58.4,49.05c-.19,0-.38-.02-.57-.08-.85-.29-1.31-1.21-1.02-2.06l1.56-4.62c.29-.85,1.21-1.31,2.06-1.02.85.29,1.31,1.21,1.02,2.06l-1.56,4.62c-.22.66-.83,1.09-1.49,1.11ZM61.51,39.8c-.19,0-.38-.02-.57-.08-.85-.29-1.31-1.21-1.02-2.06l1.56-4.62c.29-.85,1.21-1.31,2.06-1.02.85.29,1.31,1.21,1.02,2.06l-1.56,4.62c-.22.66-.83,1.09-1.49,1.11ZM64.62,30.56c-.19,0-.38-.02-.57-.08-.85-.29-1.31-1.21-1.02-2.06l1.56-4.62c.29-.85,1.21-1.31,2.06-1.02.85.29,1.31,1.21,1.02,2.06l-1.56,4.62c-.22.66-.83,1.09-1.49,1.11ZM67.73,21.31c-.19,0-.38-.02-.57-.08-.85-.29-1.31-1.21-1.02-2.06l1.56-4.62c.29-.85,1.21-1.31,2.06-1.02.85.29,1.31,1.21,1.02,2.06l-1.56,4.62c-.22.66-.83,1.09-1.49,1.11Z"/>
        <g>
          <path class="cls-3" d="M60.98,7.96c1.72-5.12,7.27-7.87,12.39-6.15,5.12,1.72,7.87,7.27,6.15,12.39-1.72,5.12-7.27,7.87-12.39,6.15-5.12-1.72-7.87-7.27-6.15-12.39Z"/>
          <path class="cls-2" d="M59.75,7.55c-1.95,5.79,1.18,12.09,6.97,14.04s12.09-1.18,14.04-6.97c1.95-5.79-1.18-12.09-6.97-14.04s-12.09,1.18-14.04,6.97c-1.95,5.79,1.95-5.79,0,0ZM78.29,13.79c-1.49,4.43-6.31,6.82-10.74,5.33-4.43-1.49-6.82-6.31-5.33-10.74,1.49-4.43,6.31-6.82,10.74-5.33,4.43,1.49,6.82,6.31,5.33,10.74-1.49,4.43,1.49-4.43,0,0Z"/>
        </g>
        <polygon class="cls-2" points="6.7 182.54 11.59 186.89 18.12 186.38 7.86 197.99 6.7 182.54"/>
        <path class="cls-4" d="M69.43,16.31v-8.06c-1.5,1.15-2.51,1.73-3.03,1.73-.25,0-.47-.1-.66-.3-.19-.2-.29-.43-.29-.69,0-.3.09-.52.28-.66.19-.14.52-.32,1-.55.71-.34,1.29-.69,1.71-1.06.43-.37.81-.79,1.14-1.25.33-.46.55-.74.65-.85.1-.11.29-.16.57-.16.31,0,.56.12.75.36.19.24.28.58.28,1v10.14c0,1.19-.4,1.78-1.21,1.78-.36,0-.65-.12-.87-.36s-.33-.6-.33-1.07Z"/>
        <circle class="cls-2" cx="5.49" cy="204.77" r="5.49"/>
      </g>
      <g>
        <g>
          <g>
            <path class="cls-2" d="M165.42,187.59l-1.54-4.63c-.28-.85.18-1.77,1.03-2.06.85-.29,1.77.18,2.06,1.03l1.54,4.63c.28.85-.18,1.77-1.03,2.06-.19.06-.38.09-.57.08-.66-.02-1.27-.45-1.49-1.11ZM162.27,177.55l-1.54-4.63c-.28-.85.18-1.77,1.03-2.06.85-.29,1.77.18,2.06,1.03l1.54,4.63c.28.85-.18,1.77-1.03,2.06-.19.06-.38.09-.57.08-.66-.02-1.27-.45-1.49-1.11ZM159.19,168.3l-1.54-4.63c-.28-.85.18-1.77,1.03-2.06.85-.29,1.77.18,2.06,1.03l1.54,4.63c.28.85-.18,1.77-1.03,2.06-.19.06-.38.09-.57.08-.66-.02-1.27-.45-1.49-1.11ZM156.11,159.04l-1.54-4.63c-.28-.85.18-1.77,1.03-2.06.85-.28,1.77.18,2.06,1.03l1.54,4.63c.28.85-.18,1.77-1.03,2.06-.19.06-.38.09-.57.08-.66-.02-1.27-.45-1.49-1.11ZM153.03,149.78l-1.54-4.63c-.28-.85.18-1.77,1.03-2.06.85-.29,1.77.18,2.06,1.03l1.54,4.63c.28.85-.18,1.77-1.03,2.06-.19.06-.38.09-.57.08-.66-.02-1.27-.45-1.49-1.11ZM149.95,140.53l-1.54-4.63c-.28-.85.18-1.77,1.03-2.06.85-.29,1.77.18,2.06,1.03l1.54,4.63c.28.85-.18,1.77-1.03,2.06-.19.06-.38.09-.57.08-.66-.02-1.27-.45-1.49-1.11ZM146.87,131.27l-1.54-4.63c-.28-.85.18-1.77,1.03-2.06.85-.29,1.77.18,2.06,1.03l1.54,4.63c.28.85-.18,1.77-1.03,2.06-.19.06-.38.09-.57.08-.66-.02-1.27-.45-1.49-1.11ZM143.79,122.02l-1.54-4.63c-.28-.85.18-1.77,1.03-2.06.85-.29,1.77.18,2.06,1.03l1.54,4.63c.28.85-.18,1.77-1.03,2.06-.19.06-.38.09-.57.08-.66-.02-1.27-.45-1.49-1.11ZM140.71,112.76l-1.54-4.63c-.28-.85.18-1.77,1.03-2.06.85-.29,1.77.18,2.06,1.03l1.54,4.63c.28.85-.18,1.77-1.03,2.06-.19.06-.38.09-.57.08-.66-.02-1.27-.45-1.49-1.11ZM137.63,103.51l-1.54-4.63c-.28-.85.18-1.77,1.03-2.06.85-.29,1.77.18,2.06,1.03l1.54,4.63c.28.85-.18,1.77-1.03,2.06-.19.06-.38.09-.57.08-.66-.02-1.27-.45-1.49-1.11ZM134.55,94.25l-1.54-4.63c-.28-.85.18-1.77,1.03-2.06.85-.29,1.77.18,2.06,1.03l1.54,4.63c.28.85-.18,1.77-1.03,2.06-.19.06-.38.09-.57.08-.66-.02-1.27-.45-1.49-1.11ZM131.47,85l-1.54-4.63c-.28-.85.18-1.77,1.03-2.06.85-.29,1.77.18,2.06,1.03l1.54,4.63c.28.85-.18,1.77-1.03,2.06-.19.06-.38.09-.57.08-.66-.02-1.27-.45-1.49-1.11ZM128.38,75.74l-1.54-4.63c-.28-.85.18-1.77,1.03-2.06.85-.29,1.77.18,2.06,1.03l1.54,4.63c.28.85-.18,1.77-1.03,2.06-.19.06-.38.09-.57.08-.66-.02-1.27-.45-1.49-1.11ZM125.3,66.48l-1.54-4.63c-.28-.85.18-1.77,1.03-2.06.85-.28,1.77.18,2.06,1.03l1.54,4.63c.28.85-.18,1.77-1.03,2.06-.19.06-.38.09-.57.08-.66-.02-1.27-.45-1.49-1.11ZM122.22,57.23l-1.54-4.63c-.28-.85.18-1.77,1.03-2.06.85-.29,1.77.18,2.06,1.03l1.54,4.63c.28.85-.18,1.77-1.03,2.06-.19.06-.38.09-.57.08-.66-.02-1.27-.45-1.49-1.11ZM119.14,47.97l-1.54-4.63c-.28-.85.18-1.77,1.03-2.06.85-.29,1.77.18,2.06,1.03l1.54,4.63c.28.85-.18,1.77-1.03,2.06-.19.06-.38.09-.57.08-.66-.02-1.27-.45-1.49-1.11ZM116.06,38.72l-1.54-4.63c-.28-.85.18-1.77,1.03-2.06.85-.29,1.77.18,2.06,1.03l1.54,4.63c.28.85-.18,1.77-1.03,2.06-.19.06-.38.09-.57.08-.66-.02-1.27-.45-1.49-1.11ZM112.98,29.46l-1.54-4.63c-.28-.85.18-1.77,1.03-2.06.85-.29,1.77.18,2.06,1.03l1.54,4.63c.28.85-.18,1.77-1.03,2.06-.19.06-.38.09-.57.08-.66-.02-1.27-.45-1.49-1.11ZM109.9,20.21l-1.54-4.63c-.28-.85.18-1.77,1.03-2.06.85-.29,1.77.18,2.06,1.03l1.54,4.63c.28.85-.18,1.77-1.03,2.06-.19.06-.38.09-.57.08-.66-.02-1.27-.45-1.49-1.11Z"/>
            <g>
              <path class="cls-3" d="M118.74,8.05c-1.71-5.12-7.24-7.9-12.37-6.19-5.12,1.71-7.9,7.24-6.19,12.37,1.71,5.12,7.24,7.9,12.37,6.19,5.12-1.71,7.9-7.24,6.19-12.37Z"/>
              <path class="cls-2" d="M119.98,7.64c-1.93-5.8-8.22-8.94-14.01-7.01s-8.94,8.22-7.01,14.01c1.93,5.8,8.22,8.94,14.01,7.01,5.8-1.93,8.94-8.22,7.01-14.01-1.93-5.8,1.93,5.8,0,0ZM101.42,13.81c-1.48-4.44.93-9.25,5.37-10.72,4.44-1.48,9.25.93,10.72,5.37,1.48,4.44-.93,9.25-5.37,10.72-4.44,1.48-9.25-.93-10.72-5.37-1.48-4.44,1.48,4.44,0,0Z"/>
            </g>
            <polygon class="cls-2" points="171.87 182.75 166.96 187.08 160.44 186.56 170.66 198.2 171.87 182.75"/>
          </g>
          <path class="cls-2" d="M167.53,204.8c-.1,3.03,2.27,5.57,5.3,5.67,3.03.1,5.57-2.27,5.67-5.3.1-3.03-2.27-5.57-5.3-5.67-3.03-.1-5.57,2.27-5.67,5.3Z"/>
        </g>
        <path class="cls-4" d="M108.1,15.42h4.62c.46,0,.81.09,1.05.28.24.19.36.45.36.77,0,.29-.1.53-.29.74-.19.2-.48.3-.87.3h-6.52c-.44,0-.79-.12-1.04-.37-.25-.25-.37-.53-.37-.86,0-.21.08-.49.24-.85.16-.35.33-.63.52-.83.79-.81,1.49-1.51,2.13-2.09.63-.58,1.08-.96,1.35-1.15.48-.34.89-.69,1.21-1.03s.57-.7.73-1.06c.17-.36.25-.72.25-1.07,0-.38-.09-.72-.27-1.01s-.43-.53-.73-.69-.65-.25-1.01-.25c-.77,0-1.38.34-1.82,1.02-.06.09-.16.33-.3.73-.14.4-.3.7-.47.91-.17.21-.43.32-.77.32-.3,0-.54-.1-.73-.29-.19-.19-.29-.46-.29-.8,0-.41.09-.83.28-1.28.18-.44.46-.84.82-1.2.36-.36.82-.65,1.38-.87.56-.22,1.21-.33,1.96-.33.9,0,1.67.14,2.31.43.41.19.78.45,1.09.78.31.33.56.71.73,1.15.17.43.26.88.26,1.35,0,.73-.18,1.4-.54,2-.36.6-.73,1.07-1.11,1.41-.38.34-1.01.87-1.9,1.6-.89.73-1.5,1.29-1.83,1.69-.14.16-.29.35-.43.58Z"/>
      </g>
      <g>
        <path class="cls-1" d="M157.09,212.5c-1.16,0-2.24-.74-2.63-1.9L89.3,12.46,22.51,210.62c-.49,1.45-2.06,2.23-3.5,1.74-1.45-.49-2.23-2.06-1.74-3.5L86.71,2.82c.38-1.13,1.45-1.9,2.63-1.88,1.19,0,2.24.77,2.62,1.9l67.76,206.03c.48,1.45-.31,3.01-1.76,3.49-.29.09-.58.14-.86.14Z"/>
        <path class="cls-1" d="M127.28,123.39H49.85c-1.53,0-2.77-1.24-2.77-2.77s1.24-2.77,2.77-2.77h77.43c1.53,0,2.77,1.24,2.77,2.77s-1.24,2.77-2.77,2.77Z"/>
      </g>
    </g>
  </g>
</svg>