<?xml version="1.0" encoding="UTF-8"?>
<svg id="Layer_2" data-name="Layer 2" xmlns="http://www.w3.org/2000/svg" viewBox="0 0 107.49 70.2">
  <defs>
    <style>
      .cls-1, .cls-2, .cls-3, .cls-4 {
        stroke-width: 0px;
      }

      .cls-2 {
        fill: #6f6f6e;
      }

      .cls-3 {
        fill: #fff;
      }

      .cls-4 {
        fill: #ff0600;
      }
    </style>
  </defs>
  <g id="M">
    <g>
      <g>
        <path class="cls-2" d="M5.95,57.65c-.47,0-.85-.38-.85-.85v-2.44c0-.47.38-.85.85-.85s.85.38.85.85v2.44c0,.47-.38.85-.85.85ZM5.95,52.77c-.47,0-.85-.38-.85-.85v-2.44c0-.47.38-.85.85-.85s.85.38.85.85v2.44c0,.47-.38.85-.85.85ZM5.95,47.89c-.47,0-.85-.38-.85-.85v-2.44c0-.47.38-.85.85-.85s.85.38.85.85v2.44c0,.47-.38.85-.85.85ZM5.95,43c-.47,0-.85-.38-.85-.85v-2.44c0-.47.38-.85.85-.85s.85.38.85.85v2.44c0,.47-.38.85-.85.85ZM5.95,38.12c-.47,0-.85-.38-.85-.85v-2.44c0-.47.38-.85.85-.85s.85.38.85.85v2.44c0,.47-.38.85-.85.85ZM5.95,33.23c-.47,0-.85-.38-.85-.85v-2.44c0-.47.38-.85.85-.85s.85.38.85.85v2.44c0,.47-.38.85-.85.85ZM5.95,28.35c-.47,0-.85-.38-.85-.85v-2.44c0-.47.38-.85.85-.85s.85.38.85.85v2.44c0,.47-.38.85-.85.85ZM5.95,23.47c-.47,0-.85-.38-.85-.85v-2.44c0-.47.38-.85.85-.85s.85.38.85.85v2.44c0,.47-.38.85-.85.85ZM5.95,18.58c-.47,0-.85-.38-.85-.85v-2.44c0-.47.38-.85.85-.85s.85.38.85.85v2.44c0,.47-.38.85-.85.85ZM5.95,13.7c-.47,0-.85-.38-.85-.85v-2.44c0-.47.38-.85.85-.85s.85.38.85.85v2.44c0,.47-.38.85-.85.85ZM5.95,8.81c-.47,0-.85-.38-.85-.85v-2.44c0-.47.38-.85.85-.85s.85.38.85.85v2.44c0,.47-.38.85-.85.85Z"/>
        <g>
          <path class="cls-3" d="M.69,7.45c0-2.86,2.32-5.18,5.18-5.18,2.86,0,5.18,2.32,5.18,5.18,0,2.86-2.32,5.18-5.18,5.18-2.86,0-5.18-2.32-5.18-5.18Z"/>
          <path class="cls-2" d="M0,7.45c0,3.24,2.63,5.87,5.87,5.87,3.24,0,5.87-2.63,5.87-5.87,0-3.24-2.63-5.87-5.87-5.87C2.63,1.58,0,4.21,0,7.45,0,10.69,0,4.21,0,7.45ZM10.36,7.45c0,2.48-2.01,4.49-4.49,4.49-2.48,0-4.49-2.01-4.49-4.49,0-2.48,2.01-4.49,4.49-4.49s4.49,2.01,4.49,4.49c0,2.48,0-2.48,0,0Z"/>
        </g>
        <polygon class="cls-2" points="2.81 55.48 6 56.84 9.19 55.48 6 63.05 2.81 55.48"/>
        <path class="cls-4" d="M5.65,10.29v-4.27c-.79.61-1.33.92-1.6.92-.13,0-.25-.05-.35-.16-.1-.11-.15-.23-.15-.36,0-.16.05-.28.15-.35.1-.08.28-.17.53-.29.38-.18.68-.37.91-.56.23-.2.43-.42.6-.66.17-.24.29-.39.34-.45.05-.06.15-.08.3-.08.17,0,.3.06.4.19.1.13.15.31.15.53v5.37c0,.63-.21.94-.64.94-.19,0-.34-.06-.46-.19-.12-.13-.17-.32-.17-.57Z"/>
        <circle class="cls-2" cx="5.9" cy="66.82" r="2.91"/>
      </g>
      <g>
        <path class="cls-2" d="M64.55,61.89c-.47,0-.85-.38-.85-.85v-2.44c0-.47.38-.85.85-.85s.85.38.85.85v2.44c0,.47-.38.85-.85.85ZM64.55,57c-.47,0-.85-.38-.85-.85v-2.44c0-.47.38-.85.85-.85s.85.38.85.85v2.44c0,.47-.38.85-.85.85ZM64.55,52.12c-.47,0-.85-.38-.85-.85v-2.44c0-.47.38-.85.85-.85s.85.38.85.85v2.44c0,.47-.38.85-.85.85ZM64.55,47.23c-.47,0-.85-.38-.85-.85v-2.44c0-.47.38-.85.85-.85s.85.38.85.85v2.44c0,.47-.38.85-.85.85ZM64.55,42.35c-.47,0-.85-.38-.85-.85v-2.44c0-.47.38-.85.85-.85s.85.38.85.85v2.44c0,.47-.38.85-.85.85ZM64.55,37.47c-.47,0-.85-.38-.85-.85v-2.44c0-.47.38-.85.85-.85s.85.38.85.85v2.44c0,.47-.38.85-.85.85ZM64.55,32.58c-.47,0-.85-.38-.85-.85v-.11c0-.11-.04-.94-.19-2.25-.05-.47.28-.89.75-.95.47-.06.89.28.95.75.17,1.47.2,2.37.2,2.4,0,0,0,.02,0,.03v.12c0,.47-.38.85-.85.85ZM64,27.71c-.41,0-.77-.29-.84-.71-.14-.79-.29-1.58-.47-2.36-.1-.46.18-.92.64-1.02.46-.1.92.18,1.02.64.18.8.35,1.63.49,2.44.08.47-.23.91-.7.99-.05,0-.1.01-.15.01ZM62.91,22.94c-.37,0-.71-.24-.82-.62-.22-.78-.47-1.54-.73-2.28-.16-.44.08-.93.52-1.09.44-.16.93.08,1.09.52.27.77.53,1.57.76,2.38.13.45-.13.93-.59,1.06-.08.02-.16.03-.24.03ZM61.27,18.33c-.33,0-.65-.19-.78-.52-.32-.74-.66-1.46-1.02-2.15-.22-.42-.06-.93.36-1.15.42-.22.93-.06,1.15.36.38.72.74,1.49,1.08,2.26.19.43-.01.94-.45,1.12-.11.05-.23.07-.34.07ZM59,14.01c-.28,0-.56-.14-.72-.39-.43-.67-.89-1.32-1.36-1.93-.29-.37-.23-.91.15-1.2.37-.29.91-.23,1.2.15.51.65,1,1.34,1.46,2.06.25.4.14.93-.26,1.18-.14.09-.3.13-.46.13ZM55.98,10.18c-.22,0-.45-.09-.61-.26-.55-.56-1.13-1.1-1.72-1.58-.37-.3-.42-.84-.12-1.2.3-.37.84-.42,1.2-.12.65.53,1.27,1.1,1.87,1.72.33.34.32.88-.02,1.21-.17.16-.38.24-.6.24ZM19.37,9.51c-.47,0-.85-.38-.85-.85,0-.33.19-.61.46-.76.02-.01.07-.04.15-.08.42-.22.93-.07,1.16.35.22.42.07.93-.35,1.16l-.14.08c-.13.07-.27.11-.42.11ZM21.72,8.35c-.33,0-.64-.19-.78-.5-.19-.43,0-.94.43-1.13.74-.34,1.51-.66,2.29-.97.44-.17.94.04,1.11.48.17.44-.04.94-.48,1.11-.75.3-1.5.62-2.21.94-.11.05-.23.08-.35.08ZM52.21,7.11c-.16,0-.31-.04-.45-.13-.65-.41-1.34-.79-2.04-1.12-.43-.2-.61-.71-.41-1.14.2-.43.71-.61,1.14-.41.77.36,1.52.77,2.23,1.22.4.25.52.78.27,1.18-.16.26-.44.4-.72.4ZM26.26,6.54c-.35,0-.68-.22-.81-.57-.15-.45.08-.93.53-1.09.79-.27,1.58-.53,2.36-.76.45-.13.93.12,1.06.58.13.45-.12.93-.58,1.06-.76.22-1.53.47-2.29.74-.09.03-.19.05-.28.05ZM30.94,5.15c-.38,0-.73-.26-.83-.65-.11-.46.17-.92.63-1.03.81-.2,1.63-.38,2.43-.53.46-.09.91.22,1,.68.09.46-.22.91-.68,1-.77.15-1.56.32-2.34.51-.07.02-.14.02-.2.02ZM47.81,5.05c-.09,0-.18-.01-.27-.04-.73-.24-1.49-.44-2.26-.6-.46-.09-.76-.55-.67-1.01.09-.46.55-.76,1.01-.67.83.17,1.66.39,2.45.65.45.15.69.63.55,1.08-.12.36-.45.59-.81.59ZM35.74,4.25c-.42,0-.79-.31-.85-.75-.06-.47.27-.9.74-.96.84-.11,1.67-.19,2.48-.24.47-.03.88.33.91.8.03.47-.33.88-.8.91-.78.05-1.58.13-2.38.23-.04,0-.07,0-.11,0ZM43.05,4.06s-.06,0-.09,0c-.76-.08-1.56-.12-2.36-.12-.47,0-.85-.39-.85-.86,0-.47.39-.85.85-.85h0c.85,0,1.7.05,2.51.13.47.05.81.46.77.93-.04.44-.42.77-.85.77Z"/>
        <g>
          <path class="cls-3" d="M27.24,7.09c0-2.86-2.32-5.18-5.18-5.18-2.86,0-5.18,2.32-5.18,5.18,0,2.86,2.32,5.18,5.18,5.18,2.86,0,5.18-2.32,5.18-5.18Z"/>
          <path class="cls-2" d="M27.93,7.09c0-3.24-2.63-5.87-5.87-5.87s-5.87,2.63-5.87,5.87c0,3.24,2.63,5.87,5.87,5.87,3.24,0,5.87-2.63,5.87-5.87,0-3.24,0,3.24,0,0ZM17.57,7.09c0-2.48,2.02-4.49,4.49-4.49s4.49,2.02,4.49,4.49c0,2.48-2.02,4.49-4.49,4.49-2.48,0-4.49-2.02-4.49-4.49,0-2.48,0,2.48,0,0Z"/>
        </g>
        <polygon class="cls-2" points="67.93 55.96 64.74 57.32 61.55 55.96 64.74 63.52 67.93 55.96"/>
        <circle class="cls-2" cx="64.84" cy="67.3" r="2.91"/>
        <path class="cls-4" d="M21.4,9.43h2.45c.24,0,.43.05.56.15.13.1.19.24.19.41,0,.15-.05.28-.15.39-.1.11-.26.16-.46.16h-3.45c-.23,0-.42-.06-.55-.19-.13-.13-.2-.28-.2-.46,0-.11.04-.26.13-.45.08-.19.18-.33.28-.44.42-.43.79-.8,1.13-1.11.33-.31.57-.51.72-.61.26-.18.47-.36.64-.55.17-.18.3-.37.39-.56.09-.19.13-.38.13-.57,0-.2-.05-.38-.14-.54s-.23-.28-.39-.37-.34-.13-.54-.13c-.41,0-.73.18-.97.54-.03.05-.08.17-.16.38-.07.21-.16.37-.25.48-.09.11-.23.17-.41.17-.16,0-.29-.05-.39-.15s-.15-.24-.15-.42c0-.22.05-.44.15-.68.1-.23.24-.45.43-.64.19-.19.44-.34.73-.46.3-.12.64-.18,1.04-.18.48,0,.89.08,1.22.23.22.1.41.24.58.41.17.18.3.38.39.61.09.23.14.47.14.72,0,.39-.1.74-.29,1.06-.19.32-.39.57-.59.75-.2.18-.54.46-1.01.85-.47.38-.79.68-.97.9-.08.08-.15.19-.23.31Z"/>
      </g>
      <g>
        <path class="cls-2" d="M104.14,61.89c-.47,0-.85-.38-.85-.85v-2.44c0-.47.38-.85.85-.85s.85.38.85.85v2.44c0,.47-.38.85-.85.85ZM104.14,57c-.47,0-.85-.38-.85-.85v-2.44c0-.47.38-.85.85-.85s.85.38.85.85v2.44c0,.47-.38.85-.85.85ZM104.14,52.12c-.47,0-.85-.38-.85-.85v-2.44c0-.47.38-.85.85-.85s.85.38.85.85v2.44c0,.47-.38.85-.85.85ZM104.14,47.23c-.47,0-.85-.38-.85-.85v-2.44c0-.47.38-.85.85-.85s.85.38.85.85v2.44c0,.47-.38.85-.85.85ZM104.14,42.35c-.47,0-.85-.38-.85-.85v-2.44c0-.47.38-.85.85-.85s.85.38.85.85v2.44c0,.47-.38.85-.85.85ZM104.14,37.47c-.47,0-.85-.38-.85-.85v-2.44c0-.47.38-.85.85-.85s.85.38.85.85v2.44c0,.47-.38.85-.85.85ZM104.14,32.58c-.47,0-.85-.38-.85-.85v-.11c0-.11-.04-.94-.2-2.24-.06-.47.28-.89.75-.95s.89.28.95.75c.18,1.47.21,2.37.21,2.41,0,0,0,.02,0,.03v.12c0,.47-.38.85-.85.85ZM103.58,27.71c-.41,0-.77-.29-.84-.7-.14-.79-.31-1.58-.49-2.35-.11-.46.18-.92.63-1.03.46-.11.92.18,1.03.63.19.8.36,1.62.51,2.44.08.46-.23.91-.69.99-.05,0-.1.01-.15.01ZM102.45,22.95c-.37,0-.71-.24-.82-.61-.23-.77-.48-1.54-.76-2.27-.16-.44.06-.93.51-1.1.44-.16.93.06,1.1.51.28.77.55,1.56.79,2.37.14.45-.12.93-.57,1.06-.08.02-.16.04-.24.04ZM100.75,18.36c-.33,0-.64-.19-.78-.51-.33-.73-.68-1.45-1.05-2.13-.23-.41-.07-.93.34-1.16.41-.23.93-.07,1.16.34.39.72.77,1.48,1.11,2.25.19.43,0,.94-.43,1.13-.11.05-.23.08-.35.08ZM98.41,14.08c-.28,0-.55-.13-.71-.38-.44-.67-.91-1.31-1.39-1.91-.3-.37-.24-.91.13-1.2.37-.3.91-.24,1.2.13.52.64,1.02,1.33,1.49,2.04.26.39.15.92-.24,1.18-.15.1-.31.14-.47.14ZM95.35,10.29c-.22,0-.44-.08-.61-.25-.55-.56-1.14-1.08-1.74-1.56-.37-.3-.43-.83-.13-1.2.29-.37.83-.43,1.2-.13.65.52,1.29,1.09,1.89,1.69.33.33.33.88,0,1.21-.17.17-.39.25-.6.25ZM60.99,7.77c-.31,0-.61-.17-.76-.47-.22-.42-.05-.94.37-1.15.46-.24,1.24-.61,2.31-1.03.44-.17.94.04,1.11.48s-.04.94-.48,1.11c-1.01.4-1.73.74-2.16.96-.12.06-.26.09-.39.09ZM91.54,7.25c-.15,0-.31-.04-.45-.13-.66-.41-1.35-.78-2.05-1.12-.43-.2-.61-.71-.41-1.14.2-.43.71-.61,1.14-.41.76.36,1.51.77,2.23,1.21.4.25.52.78.27,1.18-.16.26-.44.4-.73.4ZM65.52,5.96c-.36,0-.7-.23-.81-.6-.14-.45.11-.93.56-1.07.78-.25,1.59-.48,2.4-.68.46-.12.92.16,1.04.62.12.46-.16.92-.62,1.04-.78.2-1.55.42-2.3.65-.09.03-.17.04-.26.04ZM87.15,5.18c-.09,0-.18-.01-.27-.04-.73-.24-1.49-.45-2.26-.62-.46-.1-.75-.56-.65-1.02.1-.46.56-.75,1.02-.65.83.18,1.65.41,2.43.67.45.15.69.64.54,1.08-.12.36-.45.58-.81.58ZM70.25,4.76c-.4,0-.76-.28-.84-.69-.09-.46.21-.91.68-1,.81-.15,1.63-.29,2.46-.4.47-.06.9.26.96.73.06.47-.26.9-.73.96-.79.11-1.59.24-2.36.39-.05.01-.11.02-.16.02ZM82.4,4.13s-.07,0-.1,0c-.76-.09-1.55-.15-2.36-.17-.47-.01-.84-.41-.83-.88.01-.47.41-.84.88-.83.85.03,1.69.09,2.51.18.47.06.8.48.75.95-.05.43-.42.75-.85.75ZM75.09,4.1c-.44,0-.81-.34-.85-.78-.04-.47.31-.88.78-.92.82-.07,1.65-.12,2.48-.14.47-.02.87.36.88.83.01.47-.36.87-.83.88-.8.03-1.6.07-2.39.14-.02,0-.05,0-.07,0Z"/>
        <g>
          <path class="cls-3" d="M68.35,5.87c0-2.86-2.32-5.18-5.18-5.18-2.86,0-5.18,2.32-5.18,5.18,0,2.86,2.32,5.18,5.18,5.18,2.86,0,5.18-2.32,5.18-5.18Z"/>
          <path class="cls-2" d="M69.04,5.87C69.04,2.63,66.4,0,63.17,0c-3.24,0-5.87,2.63-5.87,5.87,0,3.24,2.63,5.87,5.87,5.87,3.24,0,5.87-2.63,5.87-5.87,0-3.24,0,3.24,0,0ZM58.67,5.87c0-2.48,2.02-4.49,4.49-4.49s4.49,2.02,4.49,4.49c0,2.48-2.02,4.49-4.49,4.49-2.48,0-4.49-2.02-4.49-4.49,0-2.48,0,2.48,0,0Z"/>
        </g>
        <path class="cls-4" d="M63,4.92c.29,0,.54-.07.75-.23.21-.16.32-.4.33-.72,0-.24-.07-.45-.23-.63-.16-.18-.38-.27-.66-.28-.19,0-.35.02-.47.07-.12.05-.22.12-.3.2-.07.09-.15.2-.21.33s-.13.26-.19.38c-.03.06-.09.11-.17.15-.08.04-.18.05-.28.05-.13,0-.24-.06-.34-.16-.1-.1-.15-.24-.15-.41,0-.16.06-.33.16-.51.1-.18.25-.34.45-.5.19-.16.43-.28.72-.37.28-.09.6-.13.95-.12.3,0,.58.06.83.15.25.09.46.22.64.38.18.16.31.35.4.56.09.21.13.43.12.67,0,.31-.08.58-.23.8-.14.22-.34.43-.6.64.24.14.44.29.6.47.16.17.28.36.36.57.08.21.11.43.11.67,0,.28-.07.56-.19.82-.12.26-.3.49-.52.7-.23.2-.5.36-.8.47-.31.11-.65.16-1.02.15-.38-.01-.71-.09-1-.23-.29-.14-.53-.32-.72-.53-.19-.21-.33-.42-.42-.64-.09-.22-.14-.4-.13-.54,0-.18.07-.33.19-.43.12-.11.27-.16.44-.15.09,0,.17.03.25.08.08.05.13.12.15.19.15.44.32.77.5.98.18.22.44.33.78.34.19,0,.38-.04.56-.13.18-.09.34-.23.46-.41.12-.18.19-.4.19-.65.01-.37-.08-.66-.28-.87-.19-.21-.47-.33-.83-.34-.06,0-.16,0-.29.01-.13,0-.22.01-.25.01-.17,0-.3-.05-.39-.14-.09-.09-.14-.21-.13-.36,0-.15.06-.27.18-.36.11-.09.28-.13.51-.12h.19Z"/>
        <polygon class="cls-2" points="107.49 55.96 104.3 57.32 101.11 55.96 104.3 63.52 107.49 55.96"/>
        <path class="cls-2" d="M101.49,67.3c0,1.61,1.3,2.91,2.91,2.91s2.91-1.3,2.91-2.91-1.3-2.91-2.91-2.91-2.91,1.3-2.91,2.91Z"/>
      </g>
      <g>
        <path class="cls-1" d="M14.42,69.38c-.81,0-1.47-.66-1.47-1.47V10.08c0-.81.66-1.47,1.47-1.47s1.47.66,1.47,1.47v57.83c0,.81-.66,1.47-1.47,1.47Z"/>
        <path class="cls-1" d="M57.79,69.66c-.81,0-1.47-.66-1.47-1.47v-34.49s0-.02,0-.03c0-.11.12-10.95-6.06-17.24-2.93-2.99-6.88-4.5-11.72-4.5-15.68,0-22.69,17.87-22.76,18.05-.29.76-1.14,1.13-1.89.85-.76-.29-1.13-1.14-.85-1.89.08-.2,1.95-5.03,5.98-9.91,5.42-6.56,12.17-10.03,19.52-10.03,5.67,0,10.32,1.81,13.82,5.39,6.98,7.12,6.89,18.64,6.88,19.32v34.47c0,.81-.66,1.47-1.47,1.47Z"/>
        <path class="cls-1" d="M97.53,69.66c-.81,0-1.47-.66-1.47-1.47v-34.49s0-.02,0-.03c0-.1.12-10.52-6.08-16.84-3.19-3.25-7.55-4.9-12.97-4.9s-10.42,1.87-14.6,5.55c-3.16,2.79-4.7,5.63-4.72,5.66-.38.71-1.27.98-1.98.6-.71-.38-.99-1.26-.61-1.98.07-.13,1.75-3.27,5.28-6.4,3.26-2.9,8.8-6.37,16.62-6.37,6.24,0,11.31,1.95,15.07,5.79,7,7.15,6.92,18.25,6.91,18.92v34.47c0,.81-.66,1.47-1.47,1.47Z"/>
      </g>
    </g>
  </g>
</svg>