<?xml version="1.0" encoding="UTF-8"?>
<svg id="Layer_2" data-name="Layer 2" xmlns="http://www.w3.org/2000/svg" viewBox="0 0 74.81 68.45">
  <defs>
    <style>
      .cls-1, .cls-2, .cls-3, .cls-4 {
        stroke-width: 0px;
      }

      .cls-2 {
        fill: #6f6f6e;
      }

      .cls-3 {
        fill: #fff;
      }

      .cls-4 {
        fill: #ff0600;
      }
    </style>
  </defs>
  <g id="U">
    <g>
      <g>
        <path class="cls-1" d="M60.72,62.02c-.81,0-1.47-.66-1.47-1.47V1.91c0-.81.66-1.47,1.47-1.47s1.47.66,1.47,1.47v58.65c0,.81-.66,1.47-1.47,1.47Z"/>
        <path class="cls-1" d="M35,61.62c-6.15,0-11.17-1.94-14.91-5.76-7.17-7.31-7.08-18.87-7.07-19.55V1.99c0-.81.66-1.47,1.47-1.47s1.47.66,1.47,1.47v34.33s0,.02,0,.03c0,.11-.13,10.98,6.24,17.47,3.17,3.23,7.48,4.87,12.81,4.87,6.98,0,13.19-3.08,18.44-9.17,4-4.63,5.91-9.35,5.92-9.4.3-.75,1.15-1.12,1.9-.82.75.3,1.12,1.15.82,1.9-.08.21-2.07,5.16-6.37,10.16-5.76,6.71-12.92,10.26-20.72,10.26Z"/>
      </g>
      <g>
        <path class="cls-2" d="M69.02,58.25c-.47,0-.85-.38-.85-.85v-2.44c0-.47.38-.85.85-.85s.85.38.85.85v2.44c0,.47-.38.85-.85.85ZM69.02,53.36c-.47,0-.85-.38-.85-.85v-2.44c0-.47.38-.85.85-.85s.85.38.85.85v2.44c0,.47-.38.85-.85.85ZM69.02,48.48c-.47,0-.85-.38-.85-.85v-2.44c0-.47.38-.85.85-.85s.85.38.85.85v2.44c0,.47-.38.85-.85.85ZM69.02,43.59c-.47,0-.85-.38-.85-.85v-2.44c0-.47.38-.85.85-.85s.85.38.85.85v2.44c0,.47-.38.85-.85.85ZM69.02,38.71c-.47,0-.85-.38-.85-.85v-2.44c0-.47.38-.85.85-.85s.85.38.85.85v2.44c0,.47-.38.85-.85.85ZM69.02,33.83c-.47,0-.85-.38-.85-.85v-2.44c0-.47.38-.85.85-.85s.85.38.85.85v2.44c0,.47-.38.85-.85.85ZM69.02,28.94c-.47,0-.85-.38-.85-.85v-2.44c0-.47.38-.85.85-.85s.85.38.85.85v2.44c0,.47-.38.85-.85.85ZM69.02,24.06c-.47,0-.85-.38-.85-.85v-2.44c0-.47.38-.85.85-.85s.85.38.85.85v2.44c0,.47-.38.85-.85.85ZM69.02,19.17c-.47,0-.85-.38-.85-.85v-2.44c0-.47.38-.85.85-.85s.85.38.85.85v2.44c0,.47-.38.85-.85.85ZM69.02,14.29c-.47,0-.85-.38-.85-.85v-2.44c0-.47.38-.85.85-.85s.85.38.85.85v2.44c0,.47-.38.85-.85.85Z"/>
        <g>
          <path class="cls-3" d="M63.76,6.25c0-2.86,2.32-5.18,5.18-5.18,2.86,0,5.18,2.32,5.18,5.18,0,2.86-2.32,5.18-5.18,5.18-2.86,0-5.18-2.32-5.18-5.18Z"/>
          <path class="cls-2" d="M63.07,6.25c0,3.24,2.63,5.87,5.87,5.87,3.24,0,5.87-2.63,5.87-5.87,0-3.24-2.63-5.87-5.87-5.87-3.24,0-5.87,2.63-5.87,5.87,0,3.24,0-3.24,0,0ZM73.44,6.25c0,2.48-2.01,4.49-4.49,4.49-2.48,0-4.49-2.01-4.49-4.49,0-2.48,2.01-4.49,4.49-4.49s4.49,2.01,4.49,4.49c0,2.48,0-2.48,0,0Z"/>
        </g>
        <polygon class="cls-2" points="65.84 54.2 69.03 55.56 72.22 54.2 69.03 61.77 65.84 54.2"/>
        <circle class="cls-2" cx="69.03" cy="65.54" r="2.91"/>
        <path class="cls-4" d="M68.35,8.49h2.45c.24,0,.43.05.56.15.13.1.19.24.19.41,0,.15-.05.28-.15.39-.1.11-.26.16-.46.16h-3.45c-.23,0-.42-.06-.55-.19-.13-.13-.2-.28-.2-.46,0-.11.04-.26.13-.45.08-.19.18-.33.28-.44.42-.43.79-.8,1.13-1.11.33-.31.57-.51.72-.61.26-.18.47-.36.64-.55.17-.18.3-.37.39-.56s.13-.38.13-.57c0-.2-.05-.38-.14-.54s-.23-.28-.39-.37c-.16-.09-.34-.13-.54-.13-.41,0-.73.18-.97.54-.03.05-.08.17-.16.38-.07.21-.16.37-.25.48-.09.11-.23.17-.41.17-.16,0-.29-.05-.39-.15-.1-.1-.16-.24-.16-.42,0-.22.05-.44.15-.68.1-.23.24-.45.43-.64.19-.19.44-.34.73-.46.3-.12.64-.18,1.04-.18.48,0,.89.08,1.22.23.22.1.41.24.58.41.17.18.3.38.39.61.09.23.14.47.14.72,0,.39-.1.74-.29,1.06-.19.32-.39.57-.59.75-.2.18-.54.46-1.01.85-.47.38-.79.68-.97.9-.08.08-.15.19-.23.31Z"/>
      </g>
      <g>
        <path class="cls-2" d="M31.9,67.71h0c-.85,0-1.69-.04-2.5-.11-.47-.04-.82-.45-.78-.92s.45-.82.92-.78c.77.06,1.57.1,2.37.1.47,0,.85.39.85.86,0,.47-.39.85-.85.85ZM34.34,67.67c-.46,0-.83-.36-.85-.82-.02-.47.35-.87.82-.89.81-.03,1.62-.08,2.39-.15.47-.04.89.3.93.77.04.47-.3.89-.77.93-.8.07-1.64.13-2.48.16-.01,0-.02,0-.03,0ZM27.05,67.32s-.09,0-.14-.01c-.84-.14-1.66-.31-2.46-.52-.46-.12-.73-.58-.61-1.04.12-.46.58-.73,1.04-.61.75.19,1.52.36,2.31.48.47.08.78.52.71.98-.07.42-.43.72-.84.72ZM39.2,67.23c-.42,0-.78-.31-.84-.73-.07-.47.25-.9.72-.97.81-.12,1.59-.26,2.34-.43.46-.1.92.19,1.02.65.1.46-.19.92-.65,1.02-.79.17-1.61.32-2.46.45-.04,0-.08,0-.13,0ZM43.97,66.18c-.37,0-.71-.24-.82-.61-.14-.45.12-.93.57-1.07.79-.24,1.53-.51,2.21-.8.43-.18.94.02,1.12.45.18.43-.02.94-.45,1.12-.74.31-1.54.6-2.38.86-.08.02-.17.04-.25.04ZM22.34,66.09c-.1,0-.2-.02-.3-.05-.79-.29-1.57-.63-2.32-1-.42-.21-.6-.72-.39-1.15.21-.42.72-.6,1.14-.39.69.34,1.42.65,2.15.92.44.16.67.65.51,1.1-.13.35-.45.56-.8.56ZM48.43,64.24c-.28,0-.56-.14-.72-.4-.25-.4-.14-.93.26-1.18.28-.18.41-.28.41-.28.36-.3.9-.24,1.2.12.3.36.25.9-.11,1.2-.03.03-.22.18-.58.41-.14.09-.3.13-.46.13ZM17.98,63.93c-.16,0-.32-.04-.46-.13-.71-.45-1.4-.95-2.05-1.48-.37-.3-.42-.83-.13-1.2.3-.37.83-.42,1.2-.13.61.49,1.25.95,1.9,1.37.4.25.51.78.26,1.18-.16.26-.44.39-.72.39ZM14.19,60.88c-.22,0-.44-.08-.6-.25-.59-.59-1.16-1.22-1.69-1.88-.3-.37-.24-.9.12-1.2.37-.3.9-.24,1.2.12.5.61,1.03,1.2,1.57,1.75.33.33.33.88,0,1.21-.17.17-.39.25-.6.25ZM11.11,57.1c-.28,0-.55-.13-.71-.38-.46-.68-.9-1.41-1.3-2.15-.23-.41-.08-.93.34-1.16.41-.23.93-.08,1.16.34.38.7.8,1.38,1.23,2.03.26.39.16.92-.24,1.19-.15.1-.31.14-.47.14ZM8.76,52.82c-.33,0-.64-.19-.78-.5-.34-.75-.66-1.53-.95-2.32-.16-.44.07-.93.51-1.1.44-.16.93.07,1.1.51.28.75.58,1.5.9,2.21.19.43,0,.94-.43,1.13-.11.05-.23.08-.35.08ZM7.07,48.24c-.37,0-.71-.24-.82-.61-.23-.79-.44-1.61-.63-2.42-.1-.46.18-.92.65-1.02.46-.1.92.18,1.02.65.18.78.38,1.56.6,2.32.13.45-.13.93-.58,1.06-.08.02-.16.03-.24.03ZM5.99,43.46c-.41,0-.77-.3-.84-.72-.17-1.08-.27-1.95-.32-2.49-.04-.47.31-.89.78-.93.47-.04.89.31.93.78.05.51.14,1.34.3,2.37.08.47-.24.9-.71.98-.05,0-.09.01-.14.01ZM5.62,38.58c-.47,0-.85-.38-.85-.85v-2.44c0-.47.38-.85.85-.85s.85.38.85.85v2.44c0,.47-.38.85-.85.85ZM5.62,33.7c-.47,0-.85-.38-.85-.85v-2.44c0-.47.38-.85.85-.85s.85.38.85.85v2.44c0,.47-.38.85-.85.85ZM5.62,28.81c-.47,0-.85-.38-.85-.85v-2.44c0-.47.38-.85.85-.85s.85.38.85.85v2.44c0,.47-.38.85-.85.85ZM5.62,23.93c-.47,0-.85-.38-.85-.85v-2.44c0-.47.38-.85.85-.85s.85.38.85.85v2.44c0,.47-.38.85-.85.85ZM5.62,19.04c-.47,0-.85-.38-.85-.85v-2.44c0-.47.38-.85.85-.85s.85.38.85.85v2.44c0,.47-.38.85-.85.85ZM5.62,14.16c-.47,0-.85-.38-.85-.85v-2.44c0-.47.38-.85.85-.85s.85.38.85.85v2.44c0,.47-.38.85-.85.85Z"/>
        <g>
          <path class="cls-3" d="M.69,5.87c0,2.86,2.32,5.18,5.18,5.18,2.86,0,5.18-2.32,5.18-5.18,0-2.86-2.32-5.18-5.18-5.18-2.86,0-5.18,2.32-5.18,5.18Z"/>
          <path class="cls-2" d="M0,5.87c0,3.24,2.63,5.87,5.87,5.87,3.24,0,5.87-2.63,5.87-5.87C11.74,2.63,9.11,0,5.87,0,2.63,0,0,2.63,0,5.87S0,2.63,0,5.87ZM10.36,5.87c0,2.48-2.02,4.49-4.49,4.49-2.48,0-4.49-2.02-4.49-4.49,0-2.48,2.02-4.49,4.49-4.49,2.48,0,4.49,2.02,4.49,4.49,0,2.48,0-2.48,0,0Z"/>
        </g>
        <path class="cls-4" d="M5.47,8.84v-4.27c-.79.61-1.33.92-1.6.92-.13,0-.25-.05-.35-.16-.1-.11-.15-.23-.15-.36,0-.16.05-.28.15-.35.1-.08.28-.17.53-.29.38-.18.68-.37.91-.56.23-.2.43-.42.6-.66.17-.24.29-.39.34-.45.05-.06.15-.08.3-.08.17,0,.3.06.4.19.1.13.15.31.15.53v5.37c0,.63-.21.94-.64.94-.19,0-.34-.06-.46-.19-.12-.13-.17-.32-.17-.57Z"/>
        <polygon class="cls-2" points="43.7 62.36 46.49 64.42 46.94 67.86 51.84 61.27 43.7 62.36"/>
        <circle class="cls-2" cx="54.59" cy="59.14" r="2.91"/>
      </g>
    </g>
  </g>
</svg>