<?xml version="1.0" encoding="UTF-8"?>
<svg id="Layer_2" data-name="Layer 2" xmlns="http://www.w3.org/2000/svg" viewBox="0 0 66.33 61.44">
  <defs>
    <style>
      .cls-1, .cls-2, .cls-3, .cls-4 {
        stroke-width: 0px;
      }

      .cls-2 {
        fill: #6f6f6e;
      }

      .cls-3 {
        fill: #fff;
      }

      .cls-4 {
        fill: #ff0600;
      }
    </style>
  </defs>
  <g id="V">
    <g>
      <g>
        <path class="cls-2" d="M60.57,6.25c.1,0,.2.02.3.06.44.17.66.67.48,1.11l-.89,2.27c-.17.44-.67.66-1.11.48-.44-.17-.66-.67-.48-1.11l.89-2.27c.13-.34.46-.55.81-.54ZM58.78,10.8c.1,0,.2.02.3.06.44.17.66.67.48,1.11l-.89,2.27c-.17.44-.67.66-1.11.48-.44-.17-.66-.67-.48-1.11l.89-2.27c.13-.34.46-.55.81-.54ZM57,15.34c.1,0,.2.02.3.06.44.17.66.67.48,1.11l-.89,2.27c-.17.44-.67.66-1.11.48-.44-.17-.66-.67-.48-1.11l.89-2.27c.13-.34.46-.55.81-.54ZM55.21,19.89c.1,0,.2.02.3.06.44.17.66.67.48,1.11l-.89,2.27c-.17.44-.67.66-1.11.48-.44-.17-.66-.67-.48-1.11l.89-2.27c.13-.34.46-.55.81-.54ZM53.42,24.43c.1,0,.2.02.3.06.44.17.66.67.48,1.11l-.89,2.27c-.17.44-.67.65-1.11.48-.44-.17-.66-.67-.48-1.11l.89-2.27c.13-.34.46-.55.81-.54ZM51.63,28.98c.1,0,.2.02.3.06.44.17.66.67.48,1.11l-.89,2.27c-.17.44-.67.66-1.11.48-.44-.17-.66-.67-.48-1.11l.89-2.27c.13-.34.46-.55.81-.54ZM49.84,33.52c.1,0,.2.02.3.06.44.17.66.67.48,1.11l-.89,2.27c-.17.44-.67.66-1.11.48-.44-.17-.66-.67-.48-1.11l.89-2.27c.13-.34.46-.55.81-.54ZM48.05,38.07c.1,0,.2.02.3.06.44.17.66.67.48,1.11l-.89,2.27c-.17.44-.67.66-1.11.48-.44-.17-.66-.67-.48-1.11l.89-2.27c.13-.34.46-.55.81-.54ZM46.27,42.61c.1,0,.2.02.3.06.44.17.66.67.48,1.11l-.89,2.27c-.17.44-.67.66-1.11.48-.44-.17-.66-.67-.48-1.11l.89-2.27c.13-.34.46-.55.81-.54ZM44.48,47.16c.1,0,.2.02.3.06.44.17.66.67.48,1.11l-.89,2.27c-.17.44-.67.66-1.11.48-.44-.17-.66-.67-.48-1.11l.89-2.27c.13-.34.46-.55.81-.54Z"/>
        <g>
          <path class="cls-3" d="M65.28,9.71c1.05-2.66-.25-5.67-2.91-6.72-2.66-1.05-5.67.25-6.72,2.91-1.05,2.66.25,5.67,2.91,6.72,2.66,1.05,5.67-.25,6.72-2.91Z"/>
          <path class="cls-2" d="M65.92,9.96c1.19-3.01-.29-6.43-3.3-7.62-3.01-1.19-6.43.29-7.62,3.3-1.19,3.01.29,6.43,3.3,7.62,3.01,1.19,6.43-.29,7.62-3.3,1.19-3.01-1.19,3.01,0,0ZM56.28,6.15c.91-2.3,3.53-3.44,5.83-2.53s3.44,3.52,2.53,5.83c-.91,2.3-3.53,3.44-5.83,2.53-2.3-.91-3.44-3.52-2.53-5.83.91-2.3-.91,2.3,0,0Z"/>
        </g>
        <polygon class="cls-2" points="47.46 48.93 43.99 49.02 41.53 46.59 41.71 54.79 47.46 48.93"/>
        <path class="cls-2" d="M37.72,57.27c-.59,1.49.14,3.18,1.64,3.77,1.49.59,3.18-.14,3.77-1.64.59-1.49-.14-3.18-1.64-3.77-1.49-.59-3.18.14-3.77,1.64Z"/>
        <path class="cls-4" d="M59.93,10.02l2.45-.03c.24,0,.43.04.56.14.13.1.2.23.2.41,0,.15-.05.28-.15.39-.1.11-.25.16-.46.16l-3.45.04c-.23,0-.42-.06-.55-.19-.13-.13-.2-.28-.2-.46,0-.11.04-.26.12-.45.08-.19.17-.33.27-.44.41-.44.78-.81,1.11-1.12.33-.31.57-.52.71-.62.25-.18.47-.37.63-.55.17-.19.3-.37.38-.57.09-.19.13-.38.13-.57,0-.2-.05-.38-.15-.54-.1-.16-.23-.28-.39-.36-.17-.09-.35-.13-.54-.12-.41,0-.73.19-.96.55-.03.05-.08.18-.15.39-.07.21-.15.37-.24.49-.09.11-.23.17-.4.17-.16,0-.29-.05-.39-.15-.1-.1-.16-.24-.16-.42,0-.22.04-.44.14-.68.09-.24.24-.45.43-.64.19-.19.43-.35.73-.47.29-.12.64-.18,1.04-.19.48,0,.89.06,1.23.21.22.1.41.23.58.41.17.17.3.37.39.6.1.23.14.47.15.71,0,.39-.09.74-.28,1.06-.19.32-.38.57-.58.75-.2.18-.53.47-1,.86-.47.39-.79.69-.96.91-.07.09-.15.19-.23.31Z"/>
      </g>
      <g>
        <path class="cls-2" d="M25.89,58.48c-.34,0-.67-.21-.8-.55l-.88-2.28c-.17-.44.05-.93.49-1.11.44-.17.94.05,1.11.49l.88,2.28c.17.44-.05.94-.49,1.11-.1.04-.21.06-.31.06ZM24.13,53.92c-.34,0-.67-.21-.8-.55l-.88-2.28c-.17-.44.05-.94.49-1.11.44-.17.94.05,1.11.49l.88,2.28c.17.44-.05.94-.49,1.11-.1.04-.21.06-.31.06ZM22.36,49.37c-.34,0-.67-.21-.8-.55l-.88-2.28c-.17-.44.05-.94.49-1.11.44-.17.94.05,1.11.49l.88,2.28c.17.44-.05.93-.49,1.11-.1.04-.21.06-.31.06ZM20.6,44.82c-.34,0-.67-.21-.8-.55l-.88-2.28c-.17-.44.05-.94.49-1.11.44-.17.94.05,1.11.49l.88,2.28c.17.44-.05.94-.49,1.11-.1.04-.21.06-.31.06ZM18.83,40.26c-.34,0-.67-.21-.8-.55l-.88-2.28c-.17-.44.05-.94.49-1.11.44-.17.94.05,1.11.49l.88,2.28c.17.44-.05.94-.49,1.11-.1.04-.21.06-.31.06ZM17.07,35.71c-.34,0-.67-.21-.8-.55l-.88-2.28c-.17-.44.05-.94.49-1.11.44-.17.94.05,1.11.49l.88,2.28c.17.44-.05.94-.49,1.11-.1.04-.21.06-.31.06ZM15.3,31.15c-.34,0-.67-.21-.8-.55l-.88-2.28c-.17-.44.05-.93.49-1.11.44-.17.94.05,1.11.49l.88,2.28c.17.44-.05.94-.49,1.11-.1.04-.21.06-.31.06ZM13.54,26.6c-.34,0-.67-.21-.8-.55l-.88-2.28c-.17-.44.05-.94.49-1.11.44-.17.94.05,1.11.49l.88,2.28c.17.44-.05.93-.49,1.11-.1.04-.21.06-.31.06ZM11.77,22.05c-.34,0-.67-.21-.8-.55l-.88-2.28c-.17-.44.05-.93.49-1.11.44-.17.94.05,1.11.49l.88,2.28c.17.44-.05.94-.49,1.11-.1.04-.21.06-.31.06ZM10.01,17.49c-.34,0-.67-.21-.8-.55l-.88-2.28c-.17-.44.05-.94.49-1.11.44-.17.94.05,1.11.49l.88,2.28c.17.44-.05.94-.49,1.11-.1.04-.21.06-.31.06ZM8.24,12.94c-.34,0-.67-.21-.8-.55l-.88-2.28c-.17-.44.05-.94.49-1.11.44-.17.94.05,1.11.49l.88,2.28c.17.44-.05.93-.49,1.11-.1.04-.21.06-.31.06ZM6.47,8.39c-.34,0-.67-.21-.8-.55l-.88-2.28c-.17-.44.05-.94.49-1.11.44-.17.94.05,1.11.49l.88,2.28c.17.44-.05.94-.49,1.11-.1.04-.21.06-.31.06Z"/>
        <g>
          <path class="cls-3" d="M5.53,11.2c-2.86-.19-5.02-2.65-4.83-5.51C.89,2.83,3.35.67,6.21.85c2.86.19,5.02,2.65,4.83,5.51-.19,2.86-2.65,5.02-5.51,4.83Z"/>
          <path class="cls-2" d="M5.49,11.88c3.23.21,6.03-2.24,6.24-5.47C11.94,3.18,9.48.38,6.25.17,3.02-.04.22,2.41.01,5.64c-.21,3.23,2.24,6.03,5.47,6.24,3.23.21-3.23-.21,0,0ZM6.16,1.54c2.47.16,4.35,2.3,4.19,4.78-.16,2.47-2.3,4.35-4.78,4.19-2.47-.16-4.35-2.3-4.19-4.78C1.55,3.26,3.69,1.38,6.16,1.54s-2.47-.16,0,0Z"/>
        </g>
        <polygon class="cls-2" points="21.81 55.38 25.27 55.59 27.82 53.24 27.35 61.44 21.81 55.38"/>
        <path class="cls-4" d="M5.95,8.93l-.1-4.27c-.78.63-1.31.95-1.58.95-.13,0-.25-.05-.35-.15-.1-.1-.16-.22-.16-.36,0-.16.04-.28.14-.36.1-.08.27-.18.52-.3.37-.19.67-.38.89-.58.22-.2.42-.43.59-.68.17-.25.28-.4.33-.46.05-.06.15-.09.3-.09.17,0,.3.06.4.18.1.13.16.3.16.53l.13,5.37c.01.63-.19.95-.62.96-.19,0-.35-.06-.46-.18-.12-.13-.18-.31-.19-.56Z"/>
      </g>
      <g>
        <path class="cls-1" d="M33.63,61.05c-.6,0-1.17-.38-1.38-.98L11.64,1.95c-.27-.76.13-1.6.89-1.87.76-.27,1.6.13,1.87.89l20.61,58.12c.27.76-.13,1.6-.89,1.87-.16.06-.33.08-.49.08Z"/>
        <path class="cls-1" d="M33.66,61.05c-.16,0-.33-.03-.49-.08-.76-.27-1.16-1.11-.89-1.87L52.89.98c.27-.76,1.11-1.16,1.87-.89.76.27,1.16,1.11.89,1.87l-20.61,58.12c-.21.6-.78.98-1.38.98Z"/>
      </g>
    </g>
  </g>
</svg>