<?xml version="1.0" encoding="UTF-8"?>
<svg id="Layer_2" data-name="Layer 2" xmlns="http://www.w3.org/2000/svg" viewBox="0 0 69.3 70.59">
  <defs>
    <style>
      .cls-1, .cls-2, .cls-3, .cls-4 {
        stroke-width: 0px;
      }

      .cls-2 {
        fill: #6f6f6e;
      }

      .cls-3 {
        fill: #fff;
      }

      .cls-4 {
        fill: #ff0600;
      }
    </style>
  </defs>
  <g id="R">
    <g>
      <g>
        <path class="cls-1" d="M13.05,70.59c-.81,0-1.47-.66-1.47-1.47V10.48c0-.81.66-1.47,1.47-1.47s1.47.66,1.47,1.47v58.65c0,.81-.66,1.47-1.47,1.47Z"/>
        <path class="cls-1" d="M13.05,31.83c-.17,0-.35-.03-.52-.1-.76-.29-1.14-1.13-.85-1.89.08-.22,2.13-5.53,6.47-10.9,5.84-7.23,13.06-11.05,20.87-11.05,9.77,0,14.87,4.11,17.42,7.55,2.79,3.76,3.21,7.52,3.23,7.68.08.8-.5,1.53-1.3,1.61-.8.09-1.53-.5-1.61-1.3-.06-.51-1.6-12.61-17.74-12.61-6.97,0-13.21,3.33-18.54,9.9-4.07,5.01-6.04,10.11-6.06,10.17-.22.58-.78.94-1.37.94Z"/>
      </g>
      <g>
        <path class="cls-2" d="M22.19,7.04c-.22,0-.44-.09-.61-.26-.33-.34-.33-.87,0-1.2.04-.04.38-.37,1.08-.85.39-.26.92-.16,1.19.23.27.39.16.92-.23,1.19-.57.39-.84.65-.85.65-.17.16-.38.24-.6.24Z"/>
        <path class="cls-2" d="M62.92,13.14c-.31,0-.61-.17-.76-.46-.36-.71-.77-1.39-1.21-2.04-.27-.39-.17-.92.22-1.19.39-.27.92-.17,1.19.22.48.7.92,1.45,1.32,2.22.22.42.05.94-.37,1.15-.12.06-.26.09-.39.09ZM60.12,9.06c-.23,0-.47-.1-.64-.28-.52-.58-1.09-1.14-1.69-1.65-.36-.31-.4-.85-.09-1.21.31-.36.85-.4,1.21-.09.65.56,1.28,1.17,1.85,1.81.31.35.29.89-.07,1.21-.16.15-.37.22-.57.22ZM56.38,5.84c-.16,0-.32-.05-.47-.14-.65-.43-1.34-.83-2.06-1.19-.42-.21-.59-.73-.38-1.15.21-.42.73-.59,1.15-.38.78.39,1.53.82,2.23,1.29.39.26.5.79.24,1.18-.16.25-.44.38-.71.38ZM25.31,5.07c-.32,0-.62-.18-.77-.48-.21-.43-.03-.94.4-1.14.74-.35,1.53-.69,2.37-.99.44-.16.93.07,1.09.51.16.44-.07.93-.51,1.09-.78.28-1.52.59-2.21.92-.12.06-.25.09-.37.09ZM51.96,3.61c-.1,0-.2-.02-.3-.05-.73-.27-1.5-.52-2.28-.72-.46-.12-.73-.59-.61-1.05.12-.46.59-.73,1.05-.61.84.22,1.66.48,2.44.77.44.16.67.66.5,1.1-.13.34-.45.56-.8.56ZM29.96,3.38c-.38,0-.72-.25-.82-.63-.12-.46.15-.92.6-1.05.79-.21,1.62-.41,2.47-.58.46-.09.91.21,1.01.67.09.46-.21.91-.67,1-.81.16-1.6.35-2.36.55-.07.02-.15.03-.22.03ZM34.82,2.4c-.42,0-.79-.31-.85-.74-.06-.47.26-.9.73-.96.81-.11,1.66-.21,2.51-.28.47-.04.88.31.93.78.04.47-.31.88-.78.93-.82.07-1.64.16-2.42.27-.04,0-.08,0-.12,0ZM47.17,2.34s-.1,0-.14-.01c-.78-.13-1.59-.24-2.39-.3-.47-.04-.82-.45-.78-.92.04-.47.45-.82.92-.78.85.07,1.7.18,2.53.32.47.08.78.52.7.99-.07.42-.43.71-.84.71ZM39.75,1.97c-.46,0-.83-.36-.85-.82-.02-.47.35-.87.82-.89.78-.03,1.57-.05,2.37-.05h.14c.47,0,.85.38.85.85s-.38.85-.85.85h-.14c-.78,0-1.55.02-2.31.05-.01,0-.02,0-.04,0Z"/>
        <path class="cls-2" d="M64.32,16.57c-.36,0-.7-.23-.81-.6-.12-.37-.25-.75-.38-1.11-.17-.44.06-.93.5-1.1.44-.17.93.06,1.1.5.15.39.29.79.41,1.2.14.45-.11.93-.56,1.07-.09.03-.17.04-.26.04Z"/>
      </g>
      <g>
        <g>
          <path class="cls-3" d="M18.6,2.8c-1.81,2.22-1.48,5.48.74,7.29,2.22,1.81,5.48,1.48,7.29-.74,1.81-2.22,1.48-5.48-.74-7.29-2.22-1.81-5.48-1.48-7.29.74Z"/>
          <path class="cls-2" d="M18.06,2.36c-2.05,2.51-1.67,6.21.84,8.26,2.51,2.05,6.21,1.67,8.26-.84,2.05-2.51,1.67-6.21-.84-8.26-2.51-2.05-6.21-1.67-8.26.84-2.05,2.51,2.05-2.51,0,0ZM26.09,8.92c-1.57,1.92-4.4,2.21-6.32.64-1.92-1.57-2.21-4.4-.64-6.32,1.57-1.92,4.4-2.21,6.32-.64,1.92,1.57,2.21,4.4.64,6.32-1.57,1.92,1.57-1.92,0,0Z"/>
        </g>
        <polygon class="cls-2" points="65.74 10.52 63.26 12.94 59.8 12.83 65.51 18.72 65.74 10.52"/>
        <path class="cls-2" d="M68.72,23.99c.97-1.28.71-3.1-.57-4.07-1.28-.97-3.1-.71-4.07.57-.97,1.28-.71,3.1.57,4.07,1.28.97,3.1.71,4.07-.57Z"/>
      </g>
      <path class="cls-4" d="M21.94,8.1h2.45c.24,0,.43.05.56.15.13.1.19.24.19.41,0,.15-.05.28-.15.39-.1.11-.26.16-.46.16h-3.45c-.23,0-.42-.06-.55-.19-.13-.13-.2-.28-.2-.46,0-.11.04-.26.13-.45.08-.19.18-.33.28-.44.42-.43.79-.8,1.13-1.11.33-.31.57-.51.72-.61.26-.18.47-.36.64-.55.17-.18.3-.37.39-.56s.13-.38.13-.57c0-.2-.05-.38-.14-.54s-.23-.28-.39-.37c-.16-.09-.34-.13-.54-.13-.41,0-.73.18-.97.54-.03.05-.08.17-.16.38-.07.21-.16.37-.25.48-.09.11-.23.17-.41.17-.16,0-.29-.05-.39-.15-.1-.1-.16-.24-.16-.42,0-.22.05-.44.15-.68.1-.23.24-.45.43-.64.19-.19.44-.34.73-.46.3-.12.64-.18,1.04-.18.48,0,.89.08,1.22.23.22.1.41.24.58.41.17.18.3.38.39.61.09.23.14.47.14.72,0,.39-.1.74-.29,1.06-.19.32-.39.57-.59.75-.2.18-.54.46-1.01.85-.47.38-.79.68-.97.9-.08.08-.15.19-.23.31Z"/>
      <g>
        <path class="cls-2" d="M5.95,58.18c-.47,0-.85-.38-.85-.85v-2.44c0-.47.38-.85.85-.85s.85.38.85.85v2.44c0,.47-.38.85-.85.85ZM5.95,53.3c-.47,0-.85-.38-.85-.85v-2.44c0-.47.38-.85.85-.85s.85.38.85.85v2.44c0,.47-.38.85-.85.85ZM5.95,48.41c-.47,0-.85-.38-.85-.85v-2.44c0-.47.38-.85.85-.85s.85.38.85.85v2.44c0,.47-.38.85-.85.85ZM5.95,43.53c-.47,0-.85-.38-.85-.85v-2.44c0-.47.38-.85.85-.85s.85.38.85.85v2.44c0,.47-.38.85-.85.85ZM5.95,38.64c-.47,0-.85-.38-.85-.85v-2.44c0-.47.38-.85.85-.85s.85.38.85.85v2.44c0,.47-.38.85-.85.85ZM5.95,33.76c-.47,0-.85-.38-.85-.85v-2.44c0-.47.38-.85.85-.85s.85.38.85.85v2.44c0,.47-.38.85-.85.85ZM5.95,28.88c-.47,0-.85-.38-.85-.85v-2.44c0-.47.38-.85.85-.85s.85.38.85.85v2.44c0,.47-.38.85-.85.85ZM5.95,23.99c-.47,0-.85-.38-.85-.85v-2.44c0-.47.38-.85.85-.85s.85.38.85.85v2.44c0,.47-.38.85-.85.85ZM5.95,19.11c-.47,0-.85-.38-.85-.85v-2.44c0-.47.38-.85.85-.85s.85.38.85.85v2.44c0,.47-.38.85-.85.85ZM5.95,14.22c-.47,0-.85-.38-.85-.85v-2.44c0-.47.38-.85.85-.85s.85.38.85.85v2.44c0,.47-.38.85-.85.85Z"/>
        <g>
          <path class="cls-3" d="M.69,5.87c0-2.86,2.32-5.18,5.18-5.18,2.86,0,5.18,2.32,5.18,5.18,0,2.86-2.32,5.18-5.18,5.18-2.86,0-5.18-2.32-5.18-5.18Z"/>
          <path class="cls-2" d="M0,5.87c0,3.24,2.63,5.87,5.87,5.87s5.87-2.63,5.87-5.87C11.74,2.63,9.11,0,5.87,0S0,2.63,0,5.87C0,9.11,0,2.63,0,5.87ZM10.36,5.87c0,2.48-2.01,4.49-4.49,4.49-2.48,0-4.49-2.01-4.49-4.49,0-2.48,2.01-4.49,4.49-4.49,2.48,0,4.49,2.01,4.49,4.49,0,2.48,0-2.48,0,0Z"/>
        </g>
        <polygon class="cls-2" points="2.81 55.17 6 56.52 9.19 55.17 6 62.73 2.81 55.17"/>
        <path class="cls-4" d="M5.65,8.71v-4.27c-.79.61-1.33.91-1.6.91-.13,0-.25-.05-.35-.16-.1-.11-.15-.23-.15-.36,0-.16.05-.28.15-.35.1-.08.28-.17.53-.29.38-.18.68-.37.91-.56s.43-.42.6-.66c.17-.24.29-.39.34-.45.05-.06.15-.08.3-.08.17,0,.3.06.4.19.1.13.15.31.15.53v5.37c0,.63-.21.94-.64.94-.19,0-.34-.06-.46-.19-.12-.13-.17-.32-.17-.57Z"/>
        <path class="cls-2" d="M8.81,67.36c0,1.61-1.3,2.91-2.91,2.91s-2.91-1.3-2.91-2.91,1.3-2.91,2.91-2.91,2.91,1.3,2.91,2.91Z"/>
      </g>
    </g>
  </g>
</svg>