<?xml version="1.0" encoding="UTF-8"?>
<svg id="Layer_2" data-name="Layer 2" xmlns="http://www.w3.org/2000/svg" viewBox="0 0 87.24 119.65">
  <defs>
    <style>
      .cls-1, .cls-2, .cls-3, .cls-4 {
        stroke-width: 0px;
      }

      .cls-2 {
        fill: #6f6f6e;
      }

      .cls-3 {
        fill: #fff;
      }

      .cls-4 {
        fill: #ff0600;
      }
    </style>
  </defs>
  <g id="U">
    <g>
      <path class="cls-1" d="M46.37,114.01c-18.72,0-33.94-15.23-33.94-33.94V1.68c0-.81.66-1.47,1.47-1.47s1.47.66,1.47,1.47v78.39c0,17.1,13.91,31.01,31.01,31.01,16.02,0,29.06-13.04,29.06-29.06V1.68c0-.81.66-1.47,1.47-1.47s1.47.66,1.47,1.47v80.34c0,17.64-14.35,31.99-31.99,31.99Z"/>
      <path class="cls-2" d="M46.17,119.64c-.33,0-.66,0-.99,0-.47,0-.85-.4-.84-.87,0-.47.4-.85.87-.84.32,0,.64,0,.96,0,.48,0,.96,0,1.44-.02.47-.02.87.36.88.83.01.47-.36.87-.83.88-.5.02-1,.02-1.49.02ZM42.76,119.53s-.04,0-.06,0c-.83-.06-1.66-.13-2.47-.23-.47-.06-.8-.48-.75-.95.06-.47.48-.81.95-.75.78.09,1.59.17,2.39.22.47.03.83.44.8.91-.03.45-.41.8-.85.8ZM50.07,119.48c-.44,0-.81-.34-.85-.78-.04-.47.31-.88.78-.92.8-.07,1.6-.16,2.38-.27.47-.07.9.26.97.73.07.47-.26.9-.73.97-.81.12-1.64.21-2.47.28-.02,0-.05,0-.07,0ZM37.92,118.96s-.1,0-.15-.01c-.82-.14-1.64-.31-2.44-.49-.46-.11-.75-.56-.64-1.02.11-.46.56-.75,1.02-.64.77.18,1.56.34,2.35.47.47.08.78.52.7.99-.07.42-.43.71-.84.71ZM54.9,118.79c-.4,0-.75-.28-.84-.69-.09-.46.21-.91.67-1.01.78-.16,1.56-.34,2.32-.54.46-.12.92.15,1.05.61.12.46-.15.92-.61,1.05-.79.21-1.61.4-2.43.57-.06.01-.11.02-.17.02ZM33.16,117.86c-.08,0-.16-.01-.24-.03-.8-.23-1.59-.49-2.37-.77-.44-.16-.68-.65-.52-1.09.16-.44.65-.68,1.09-.52.74.27,1.51.51,2.27.74.45.13.71.61.58,1.06-.11.37-.45.62-.82.62ZM59.61,117.53c-.36,0-.69-.23-.81-.58-.15-.45.09-.93.54-1.08.75-.25,1.51-.53,2.23-.83.44-.18.94.03,1.12.47.18.44-.03.94-.47,1.12-.76.31-1.55.61-2.34.87-.09.03-.18.04-.27.04ZM28.57,116.22c-.11,0-.23-.02-.34-.07-.76-.33-1.52-.68-2.26-1.05-.42-.21-.59-.73-.38-1.15.21-.42.73-.59,1.15-.38.71.36,1.43.7,2.16,1.01.43.19.63.69.45,1.12-.14.32-.45.52-.79.52ZM64.13,115.68c-.32,0-.62-.18-.77-.48-.21-.42-.03-.94.39-1.14.71-.35,1.42-.73,2.1-1.12.41-.24.93-.1,1.17.31.24.41.1.93-.31,1.17-.72.41-1.46.81-2.2,1.18-.12.06-.25.09-.38.09ZM24.22,114.01c-.15,0-.3-.04-.43-.12-.71-.42-1.42-.87-2.11-1.34-.39-.27-.49-.8-.23-1.19.27-.39.8-.49,1.19-.23.65.45,1.33.87,2.01,1.28.41.24.54.76.3,1.17-.16.27-.44.42-.74.42ZM68.35,113.23c-.27,0-.54-.13-.71-.38-.26-.39-.16-.92.23-1.19.66-.44,1.3-.91,1.93-1.4.37-.29.91-.22,1.2.15.29.37.22.91-.15,1.2-.65.51-1.33,1-2.02,1.47-.15.1-.31.15-.48.15ZM20.18,111.27c-.18,0-.37-.06-.53-.18-.65-.51-1.3-1.05-1.92-1.6-.35-.31-.38-.85-.07-1.21.31-.35.85-.38,1.21-.07.59.53,1.21,1.04,1.83,1.53.37.29.44.83.15,1.2-.17.22-.42.33-.67.33ZM72.19,110.23c-.23,0-.47-.1-.64-.28-.32-.35-.29-.89.07-1.21.59-.53,1.16-1.08,1.72-1.65.33-.34.87-.35,1.21-.02.34.33.35.87.02,1.21-.58.6-1.19,1.18-1.8,1.73-.16.15-.37.22-.57.22ZM16.54,108.02c-.22,0-.44-.09-.61-.26-.58-.59-1.15-1.21-1.69-1.84-.31-.36-.27-.9.09-1.21.36-.31.9-.27,1.21.09.52.6,1.06,1.19,1.61,1.75.33.34.33.88-.01,1.21-.17.16-.38.25-.6.25ZM75.59,106.73c-.19,0-.39-.07-.55-.2-.36-.3-.41-.84-.1-1.2.51-.6,1.01-1.23,1.48-1.87.28-.38.81-.46,1.19-.18.38.28.46.81.18,1.19-.49.67-1.01,1.33-1.55,1.96-.17.2-.41.3-.65.3ZM13.36,104.32c-.26,0-.52-.12-.68-.34-.5-.66-.98-1.35-1.44-2.04-.26-.39-.15-.92.25-1.18s.92-.15,1.18.25c.43.66.9,1.32,1.37,1.95.28.38.21.91-.17,1.2-.15.12-.33.17-.51.17ZM78.48,102.8c-.16,0-.32-.04-.46-.13-.4-.25-.52-.78-.26-1.18.42-.67.83-1.36,1.21-2.05.23-.41.74-.57,1.16-.34.41.23.57.74.34,1.16-.4.73-.82,1.45-1.27,2.15-.16.26-.44.4-.72.4ZM10.68,100.24c-.3,0-.59-.16-.74-.43-.41-.72-.8-1.47-1.16-2.21-.21-.42-.03-.94.4-1.14.43-.21.94-.03,1.14.4.34.71.72,1.42,1.11,2.11.23.41.09.93-.32,1.16-.13.08-.28.11-.42.11ZM80.81,98.51c-.12,0-.24-.03-.36-.08-.43-.2-.62-.7-.42-1.13.33-.72.64-1.46.92-2.2.17-.44.66-.66,1.1-.5.44.17.66.66.5,1.1-.29.77-.62,1.55-.96,2.31-.14.31-.45.5-.78.5ZM8.56,95.85c-.34,0-.66-.2-.79-.53-.31-.77-.6-1.56-.86-2.35-.15-.45.1-.93.54-1.08.45-.15.93.1,1.08.54.25.75.52,1.5.82,2.24.18.44-.03.94-.47,1.11-.11.04-.21.06-.32.06ZM82.53,93.94c-.08,0-.16-.01-.25-.04-.45-.14-.71-.61-.57-1.06.23-.76.43-1.54.6-2.3.1-.46.56-.75,1.02-.65.46.1.75.56.65,1.02-.18.81-.4,1.62-.64,2.42-.11.37-.45.61-.82.61ZM7.03,91.21c-.38,0-.73-.26-.83-.64-.21-.81-.39-1.63-.54-2.44-.09-.46.22-.91.68-1,.46-.09.91.22,1,.68.14.77.32,1.56.51,2.33.12.46-.16.92-.61,1.04-.07.02-.14.03-.21.03ZM83.6,89.18s-.08,0-.13,0c-.47-.07-.79-.5-.72-.97.12-.79.2-1.58.26-2.36.03-.47.44-.82.91-.79.47.03.82.44.79.91-.06.82-.15,1.66-.28,2.49-.06.42-.43.73-.84.73ZM6.14,86.41c-.43,0-.8-.32-.85-.76-.09-.83-.16-1.67-.19-2.5-.02-.47.35-.87.82-.89.47-.02.87.35.89.82.03.78.09,1.58.18,2.37.05.47-.28.89-.75.95-.03,0-.07,0-.1,0ZM83.95,84.32c-.47,0-.85-.38-.85-.85v-2.44c0-.47.38-.85.85-.85s.85.38.85.85v2.44c0,.47-.38.85-.85.85ZM5.93,81.54c-.47,0-.85-.38-.85-.85v-2.44c0-.47.38-.85.85-.85s.85.38.85.85v2.44c0,.47-.38.85-.85.85ZM83.95,79.43c-.47,0-.85-.38-.85-.85v-2.44c0-.47.38-.85.85-.85s.85.38.85.85v2.44c0,.47-.38.85-.85.85ZM5.93,76.65c-.47,0-.85-.38-.85-.85v-2.44c0-.47.38-.85.85-.85s.85.38.85.85v2.44c0,.47-.38.85-.85.85ZM83.95,74.55c-.47,0-.85-.38-.85-.85v-2.44c0-.47.38-.85.85-.85s.85.38.85.85v2.44c0,.47-.38.85-.85.85ZM5.93,71.77c-.47,0-.85-.38-.85-.85v-2.44c0-.47.38-.85.85-.85s.85.38.85.85v2.44c0,.47-.38.85-.85.85ZM83.95,69.66c-.47,0-.85-.38-.85-.85v-2.44c0-.47.38-.85.85-.85s.85.38.85.85v2.44c0,.47-.38.85-.85.85ZM5.93,66.88c-.47,0-.85-.38-.85-.85v-2.44c0-.47.38-.85.85-.85s.85.38.85.85v2.44c0,.47-.38.85-.85.85ZM83.95,64.78c-.47,0-.85-.38-.85-.85v-2.44c0-.47.38-.85.85-.85s.85.38.85.85v2.44c0,.47-.38.85-.85.85ZM5.93,62c-.47,0-.85-.38-.85-.85v-2.44c0-.47.38-.85.85-.85s.85.38.85.85v2.44c0,.47-.38.85-.85.85ZM83.95,59.9c-.47,0-.85-.38-.85-.85v-2.44c0-.47.38-.85.85-.85s.85.38.85.85v2.44c0,.47-.38.85-.85.85ZM5.93,57.12c-.47,0-.85-.38-.85-.85v-2.44c0-.47.38-.85.85-.85s.85.38.85.85v2.44c0,.47-.38.85-.85.85ZM83.95,55.01c-.47,0-.85-.38-.85-.85v-2.44c0-.47.38-.85.85-.85s.85.38.85.85v2.44c0,.47-.38.85-.85.85ZM5.93,52.23c-.47,0-.85-.38-.85-.85v-2.44c0-.47.38-.85.85-.85s.85.38.85.85v2.44c0,.47-.38.85-.85.85ZM83.95,50.13c-.47,0-.85-.38-.85-.85v-2.44c0-.47.38-.85.85-.85s.85.38.85.85v2.44c0,.47-.38.85-.85.85ZM5.93,47.35c-.47,0-.85-.38-.85-.85v-2.44c0-.47.38-.85.85-.85s.85.38.85.85v2.44c0,.47-.38.85-.85.85ZM83.95,45.24c-.47,0-.85-.38-.85-.85v-2.44c0-.47.38-.85.85-.85s.85.38.85.85v2.44c0,.47-.38.85-.85.85ZM5.93,42.46c-.47,0-.85-.38-.85-.85v-2.44c0-.47.38-.85.85-.85s.85.38.85.85v2.44c0,.47-.38.85-.85.85ZM83.95,40.36c-.47,0-.85-.38-.85-.85v-2.44c0-.47.38-.85.85-.85s.85.38.85.85v2.44c0,.47-.38.85-.85.85ZM5.93,37.58c-.47,0-.85-.38-.85-.85v-2.44c0-.47.38-.85.85-.85s.85.38.85.85v2.44c0,.47-.38.85-.85.85ZM83.95,35.48c-.47,0-.85-.38-.85-.85v-2.44c0-.47.38-.85.85-.85s.85.38.85.85v2.44c0,.47-.38.85-.85.85ZM5.93,32.7c-.47,0-.85-.38-.85-.85v-2.44c0-.47.38-.85.85-.85s.85.38.85.85v2.44c0,.47-.38.85-.85.85ZM83.95,30.59c-.47,0-.85-.38-.85-.85v-2.44c0-.47.38-.85.85-.85s.85.38.85.85v2.44c0,.47-.38.85-.85.85ZM5.93,27.81c-.47,0-.85-.38-.85-.85v-2.44c0-.47.38-.85.85-.85s.85.38.85.85v2.44c0,.47-.38.85-.85.85ZM83.95,25.71c-.47,0-.85-.38-.85-.85v-2.44c0-.47.38-.85.85-.85s.85.38.85.85v2.44c0,.47-.38.85-.85.85ZM5.93,22.93c-.47,0-.85-.38-.85-.85v-2.44c0-.47.38-.85.85-.85s.85.38.85.85v2.44c0,.47-.38.85-.85.85ZM83.95,20.82c-.47,0-.85-.38-.85-.85v-2.44c0-.47.38-.85.85-.85s.85.38.85.85v2.44c0,.47-.38.85-.85.85ZM5.93,18.05c-.47,0-.85-.38-.85-.85v-2.44c0-.47.38-.85.85-.85s.85.38.85.85v2.44c0,.47-.38.85-.85.85ZM83.95,15.94c-.47,0-.85-.38-.85-.85v-2.44c0-.47.38-.85.85-.85s.85.38.85.85v2.44c0,.47-.38.85-.85.85Z"/>
      <polygon class="cls-2" points="87.24 14.47 84.05 13.11 80.86 14.47 84.05 6.91 87.24 14.47"/>
      <path class="cls-2" d="M81.15,3.13c0-1.61,1.3-2.91,2.91-2.91s2.91,1.3,2.91,2.91-1.3,2.91-2.91,2.91-2.91-1.3-2.91-2.91Z"/>
      <g>
        <g>
          <path class="cls-3" d="M.69,5.87c0,2.86,2.32,5.18,5.18,5.18,2.86,0,5.18-2.32,5.18-5.18,0-2.86-2.32-5.18-5.18-5.18-2.86,0-5.18,2.32-5.18,5.18Z"/>
          <path class="cls-2" d="M0,5.87c0,3.24,2.63,5.87,5.87,5.87,3.24,0,5.87-2.63,5.87-5.87C11.74,2.63,9.11,0,5.87,0,2.63,0,0,2.63,0,5.87,0,9.11,0,2.63,0,5.87ZM10.36,5.87c0,2.48-2.02,4.49-4.49,4.49-2.48,0-4.49-2.02-4.49-4.49,0-2.48,2.02-4.49,4.49-4.49,2.48,0,4.49,2.02,4.49,4.49,0,2.48,0-2.48,0,0Z"/>
        </g>
        <path class="cls-4" d="M5.47,8.84v-4.27c-.79.61-1.33.91-1.6.91-.13,0-.25-.05-.35-.16-.1-.11-.15-.23-.15-.36,0-.16.05-.28.15-.35.1-.08.28-.17.53-.29.38-.18.68-.37.91-.56.23-.2.43-.42.6-.66.17-.24.29-.39.34-.45.05-.06.15-.08.3-.08.17,0,.3.06.4.19.1.13.15.31.15.53v5.37c0,.63-.21.94-.64.94-.19,0-.34-.06-.46-.19-.12-.13-.17-.32-.17-.57Z"/>
      </g>
    </g>
  </g>
</svg>