<?xml version="1.0" encoding="UTF-8"?>
<svg id="Layer_2" data-name="Layer 2" xmlns="http://www.w3.org/2000/svg" viewBox="0 0 105.53 64">
  <defs>
    <style>
      .cls-1, .cls-2, .cls-3, .cls-4 {
        stroke-width: 0px;
      }

      .cls-2 {
        fill: #6f6f6e;
      }

      .cls-3 {
        fill: #fff;
      }

      .cls-4 {
        fill: #ff0600;
      }
    </style>
  </defs>
  <g id="W">
    <g>
      <g>
        <path class="cls-2" d="M45.22,5.79c.1,0,.2.02.3.05.44.17.67.66.5,1.1l-.86,2.29c-.17.44-.66.67-1.1.5-.44-.17-.67-.66-.5-1.1l.86-2.29c.13-.34.45-.55.8-.55ZM43.5,10.36c.1,0,.2.02.3.05.44.17.67.66.5,1.1l-.86,2.29c-.17.44-.66.67-1.1.5-.44-.17-.67-.66-.5-1.1l.86-2.29c.13-.34.45-.55.8-.55ZM41.79,14.94c.1,0,.2.02.3.05.44.17.67.66.5,1.1l-.86,2.29c-.17.44-.66.66-1.1.5-.44-.17-.67-.66-.5-1.1l.86-2.29c.13-.34.45-.55.8-.55ZM40.07,19.51c.1,0,.2.02.3.05.44.17.67.66.5,1.1l-.86,2.29c-.17.44-.66.67-1.1.5-.44-.17-.67-.66-.5-1.1l.86-2.29c.13-.34.45-.55.8-.55ZM38.36,24.08c.1,0,.2.02.3.05.44.17.67.66.5,1.1l-.86,2.29c-.17.44-.66.67-1.1.5-.44-.17-.67-.66-.5-1.1l.86-2.29c.13-.34.45-.55.8-.55ZM36.64,28.65c.1,0,.2.02.3.05.44.17.67.66.5,1.1l-.86,2.29c-.17.44-.66.66-1.1.5-.44-.17-.67-.66-.5-1.1l.86-2.29c.13-.34.45-.55.8-.55ZM34.93,33.23c.1,0,.2.02.3.05.44.17.67.66.5,1.1l-.71,1.88c-.17.44-.66.67-1.1.5-.44-.17-.67-.66-.5-1.1l.71-1.88c.13-.34.45-.55.8-.55Z"/>
        <g>
          <path class="cls-3" d="M49.98,9.17c1.01-2.68-.34-5.67-3.02-6.68-2.68-1.01-5.67.34-6.68,3.02-1.01,2.68.34,5.67,3.02,6.68,2.68,1.01,5.67-.34,6.68-3.02Z"/>
          <path class="cls-2" d="M50.62,9.41c1.14-3.03-.39-6.42-3.42-7.57-3.03-1.14-6.42.39-7.57,3.42-1.14,3.03.39,6.42,3.42,7.57,3.03,1.14,6.42-.39,7.57-3.42,1.14-3.03-1.14,3.03,0,0ZM40.93,5.75c.88-2.32,3.47-3.49,5.79-2.62s3.49,3.47,2.62,5.79c-.88,2.32-3.47,3.49-5.79,2.62-2.32-.88-3.49-3.47-2.62-5.79.88-2.32-.88,2.32,0,0Z"/>
        </g>
        <polygon class="cls-2" points="36.91 37.68 33.45 37.82 30.95 35.42 31.26 43.62 36.91 37.68"/>
        <path class="cls-4" d="M44.53,9.52l2.45.03c.24,0,.43.05.56.16.13.1.19.24.19.41,0,.15-.05.28-.16.39-.1.1-.26.16-.46.15l-3.45-.04c-.23,0-.42-.07-.55-.2-.13-.13-.19-.28-.19-.46,0-.11.05-.26.13-.45.09-.18.18-.33.28-.44.42-.43.8-.79,1.14-1.1.34-.3.58-.5.72-.6.26-.18.47-.36.65-.54.17-.18.3-.37.4-.56s.14-.38.14-.56c0-.2-.04-.38-.14-.54s-.22-.28-.39-.37c-.16-.09-.34-.14-.54-.14-.41,0-.73.17-.97.53-.03.05-.09.17-.16.38-.08.21-.16.37-.25.48-.09.11-.23.17-.41.16-.16,0-.29-.05-.39-.16-.1-.1-.15-.25-.15-.42,0-.22.05-.44.15-.67.1-.23.25-.44.44-.63.19-.19.44-.34.74-.45.3-.11.64-.17,1.04-.16.48,0,.89.09,1.22.24.22.1.41.24.57.42.16.18.29.38.38.61.09.23.13.47.13.72,0,.39-.1.74-.3,1.05-.2.32-.39.56-.6.74-.2.18-.54.46-1.02.84-.48.38-.8.67-.98.89-.08.08-.15.18-.23.3Z"/>
      </g>
      <g>
        <path class="cls-2" d="M25.89,60.28c-.34,0-.67-.21-.8-.55l-.88-2.28c-.17-.44.05-.94.49-1.11.44-.17.93.05,1.11.49l.88,2.28c.17.44-.05.93-.49,1.11-.1.04-.21.06-.31.06ZM24.13,55.72c-.34,0-.67-.21-.8-.55l-.88-2.28c-.17-.44.05-.94.49-1.11.44-.17.94.05,1.11.49l.88,2.28c.17.44-.05.94-.49,1.11-.1.04-.21.06-.31.06ZM22.36,51.17c-.34,0-.67-.21-.8-.55l-.88-2.28c-.17-.44.05-.94.49-1.11.44-.17.93.05,1.11.49l.88,2.28c.17.44-.05.94-.49,1.11-.1.04-.21.06-.31.06ZM20.6,46.62c-.34,0-.67-.21-.8-.55l-.88-2.28c-.17-.44.05-.94.49-1.11.44-.17.94.05,1.11.49l.88,2.28c.17.44-.05.94-.49,1.11-.1.04-.21.06-.31.06ZM18.83,42.06c-.34,0-.67-.21-.8-.55l-.88-2.28c-.17-.44.05-.94.49-1.11.44-.17.94.05,1.11.49l.88,2.28c.17.44-.05.94-.49,1.11-.1.04-.21.06-.31.06ZM17.07,37.51c-.34,0-.67-.21-.8-.55l-.88-2.28c-.17-.44.05-.94.49-1.11.44-.17.93.05,1.11.49l.88,2.28c.17.44-.05.94-.49,1.11-.1.04-.21.06-.31.06ZM15.3,32.95c-.34,0-.67-.21-.8-.55l-.88-2.28c-.17-.44.05-.94.49-1.11.44-.17.93.05,1.11.49l.88,2.28c.17.44-.05.93-.49,1.11-.1.04-.21.06-.31.06ZM13.54,28.4c-.34,0-.67-.21-.8-.55l-.88-2.28c-.17-.44.05-.94.49-1.11.44-.17.93.05,1.11.49l.88,2.28c.17.44-.05.93-.49,1.11-.1.04-.21.06-.31.06ZM11.77,23.85c-.34,0-.67-.21-.8-.55l-.88-2.28c-.17-.44.05-.94.49-1.11.44-.17.93.05,1.11.49l.88,2.28c.17.44-.05.93-.49,1.11-.1.04-.21.06-.31.06ZM10.01,19.29c-.34,0-.67-.21-.8-.55l-.88-2.28c-.17-.44.05-.94.49-1.11.44-.17.93.05,1.11.49l.88,2.28c.17.44-.05.94-.49,1.11-.1.04-.21.06-.31.06ZM8.24,14.74c-.34,0-.67-.21-.8-.55l-.88-2.28c-.17-.44.05-.94.49-1.11.44-.17.94.05,1.11.49l.88,2.28c.17.44-.05.94-.49,1.11-.1.04-.21.06-.31.06ZM6.47,10.18c-.34,0-.67-.21-.8-.55l-.88-2.28c-.17-.44.05-.93.49-1.11.44-.17.94.05,1.11.49l.88,2.28c.17.44-.05.94-.49,1.11-.1.04-.21.06-.31.06Z"/>
        <g>
          <path class="cls-3" d="M5.53,12.99c-2.86-.19-5.02-2.65-4.83-5.51.19-2.85,2.65-5.02,5.51-4.83,2.86.19,5.02,2.65,4.83,5.51-.19,2.86-2.65,5.02-5.51,4.83Z"/>
          <path class="cls-2" d="M5.49,13.68c3.23.21,6.03-2.24,6.24-5.47.21-3.23-2.24-6.03-5.47-6.24C3.02,1.75.22,4.21.01,7.44c-.21,3.23,2.24,6.03,5.47,6.24,3.23.21-3.23-.21,0,0ZM6.16,3.34c2.47.16,4.35,2.3,4.19,4.78-.16,2.47-2.3,4.35-4.78,4.19-2.47-.16-4.35-2.3-4.19-4.78.16-2.47,2.3-4.35,4.78-4.19,2.47.16-2.47-.16,0,0Z"/>
        </g>
        <polygon class="cls-2" points="21.81 57.18 25.27 57.39 27.82 55.04 27.35 63.24 21.81 57.18"/>
        <path class="cls-4" d="M5.95,10.73l-.1-4.27c-.78.63-1.31.95-1.58.95-.13,0-.25-.05-.35-.15-.1-.1-.16-.22-.16-.36,0-.16.04-.28.14-.36.1-.08.27-.18.52-.3.37-.19.67-.38.89-.58.22-.2.42-.43.59-.68.17-.25.28-.4.33-.46.05-.06.15-.09.3-.09.17,0,.3.06.4.18.1.13.16.3.16.53l.13,5.37c.01.63-.19.95-.62.96-.19,0-.35-.06-.46-.18-.12-.13-.18-.31-.19-.56Z"/>
      </g>
      <g>
        <path class="cls-2" d="M99.94,6.7c.1,0,.19.02.29.05.44.17.67.66.5,1.1l-.85,2.29c-.17.44-.66.67-1.1.5-.44-.17-.67-.66-.5-1.1l.85-2.29c.13-.35.46-.56.81-.56ZM98.24,11.27c.1,0,.19.02.29.05.44.17.67.66.5,1.1l-.85,2.29c-.17.44-.66.67-1.1.5-.44-.17-.67-.66-.5-1.1l.85-2.29c.13-.35.46-.56.81-.56ZM96.53,15.85c.1,0,.19.02.29.05.44.17.67.66.5,1.1l-.85,2.29c-.17.44-.66.67-1.1.5-.44-.17-.67-.66-.5-1.1l.85-2.29c.13-.35.46-.56.81-.56ZM94.82,20.42c.1,0,.19.02.29.05.44.17.67.66.5,1.1l-.85,2.29c-.17.44-.66.67-1.1.5-.44-.17-.67-.66-.5-1.1l.85-2.29c.13-.35.46-.56.81-.56ZM93.11,25c.1,0,.19.02.29.05.44.17.67.66.5,1.1l-.85,2.29c-.17.44-.66.67-1.1.5-.44-.17-.67-.66-.5-1.1l.85-2.29c.13-.35.46-.56.81-.56ZM91.4,29.57c.1,0,.19.02.29.05.44.17.67.66.5,1.1l-.85,2.29c-.17.44-.66.67-1.1.5-.44-.17-.67-.66-.5-1.1l.85-2.29c.13-.35.46-.56.81-.56ZM89.69,34.15c.1,0,.19.02.29.05.44.17.67.66.5,1.1l-.85,2.29c-.17.44-.66.67-1.1.5-.44-.17-.67-.66-.5-1.1l.85-2.29c.13-.35.46-.56.81-.56ZM87.98,38.72c.09,0,.19.02.29.05.44.17.67.66.5,1.1l-.85,2.29c-.17.44-.66.67-1.1.5-.44-.17-.67-.66-.5-1.1l.85-2.29c.13-.35.46-.56.81-.56ZM86.27,43.3c.1,0,.19.02.29.05.44.17.67.66.5,1.1l-.85,2.29c-.17.44-.66.67-1.1.5-.44-.17-.67-.66-.5-1.1l.85-2.29c.13-.35.46-.56.81-.56ZM84.56,47.87c.1,0,.19.02.29.05.44.17.67.66.5,1.1l-.85,2.29c-.17.44-.66.67-1.1.5-.44-.17-.67-.66-.5-1.1l.85-2.29c.13-.35.46-.56.81-.56ZM82.85,52.45c.1,0,.19.02.29.05.44.17.67.66.5,1.1l-.85,2.29c-.17.44-.66.67-1.1.5-.44-.17-.67-.66-.5-1.1l.85-2.29c.13-.35.46-.56.81-.56ZM81.14,57.02c.1,0,.19.02.29.05.44.17.67.66.5,1.1l-.85,2.29c-.17.44-.66.67-1.1.5-.44-.17-.67-.66-.5-1.1l.85-2.29c.13-.35.46-.56.81-.56Z"/>
        <g>
          <path class="cls-3" d="M100.06,13.49c2.85-.22,4.99-2.72,4.76-5.57-.22-2.85-2.72-4.99-5.57-4.76s-4.99,2.72-4.76,5.57c.22,2.85,2.72,4.99,5.57,4.76Z"/>
          <path class="cls-2" d="M100.12,14.18c3.23-.25,5.65-3.08,5.4-6.31-.25-3.23-3.08-5.65-6.31-5.4-3.23.25-5.65,3.08-5.4,6.31.25,3.23,3.08,5.65,6.31,5.4,3.23-.25-3.23.25,0,0ZM99.31,3.85c2.47-.19,4.64,1.66,4.83,4.13.19,2.47-1.66,4.64-4.13,4.83-2.47.19-4.64-1.66-4.83-4.13-.19-2.47,1.66-4.64,4.13-4.83,2.47-.19-2.47.19,0,0Z"/>
        </g>
        <polygon class="cls-2" points="84.33 57.88 80.88 58.13 78.3 55.81 78.87 64 84.33 57.88"/>
        <path class="cls-4" d="M100.32,11.16v-.87s-2.35-.01-2.35-.01c-.3,0-.52-.07-.67-.21-.15-.13-.22-.32-.22-.55,0-.06.01-.12.03-.18.02-.06.06-.12.1-.19.04-.07.09-.13.14-.19.05-.06.11-.14.18-.23l2.5-3.31c.16-.22.3-.38.4-.47.11-.1.23-.15.38-.15.48,0,.71.28.71.82l-.02,3.63h.2c.24,0,.43.04.58.1.14.07.22.21.22.43,0,.18-.06.31-.18.4-.12.08-.3.12-.54.12h-.29s0,.87,0,.87c0,.24-.06.42-.16.54-.11.12-.25.17-.43.17-.18,0-.32-.06-.42-.18-.11-.12-.16-.3-.16-.53ZM98.31,9.23h2.02s.01-2.72.01-2.72l-2.03,2.72Z"/>
      </g>
      <g>
        <path class="cls-2" d="M72.03,40.69c-.36,0-.69-.23-.81-.58l-.77-2.32c-.15-.45.09-.93.54-1.08.45-.15.93.09,1.08.54l.77,2.32c.15.45-.09.93-.54,1.08-.09.03-.18.04-.27.04ZM70.48,36.06c-.36,0-.69-.23-.81-.58l-.77-2.32c-.15-.45.09-.93.54-1.08.45-.15.93.09,1.08.54l.77,2.32c.15.45-.09.93-.54,1.08-.09.03-.18.04-.27.04ZM68.93,31.43c-.36,0-.69-.23-.81-.58l-.77-2.32c-.15-.45.09-.93.54-1.08.45-.15.93.09,1.08.54l.77,2.32c.15.45-.09.93-.54,1.08-.09.03-.18.04-.27.04ZM67.38,26.8c-.36,0-.69-.23-.81-.58l-.77-2.32c-.15-.45.09-.93.54-1.08.45-.15.93.09,1.08.54l.77,2.32c.15.45-.09.93-.54,1.08-.09.03-.18.04-.27.04ZM65.83,22.17c-.36,0-.69-.23-.81-.58l-.77-2.32c-.15-.45.09-.93.54-1.08.45-.15.93.09,1.08.54l.77,2.32c.15.45-.09.93-.54,1.08-.09.03-.18.04-.27.04ZM64.28,17.53c-.36,0-.69-.23-.81-.58l-.77-2.32c-.15-.45.09-.93.54-1.08.45-.15.93.09,1.08.54l.77,2.32c.15.45-.09.93-.54,1.08-.09.03-.18.04-.27.04ZM62.74,12.9c-.36,0-.69-.23-.81-.58l-.77-2.32c-.15-.45.09-.93.54-1.08.45-.15.93.09,1.08.54l.77,2.32c.15.45-.09.93-.54,1.08-.09.03-.18.04-.27.04ZM61.19,8.27c-.36,0-.69-.23-.81-.58l-.77-2.32c-.15-.45.09-.93.54-1.08.45-.15.93.09,1.08.54l.77,2.32c.15.45-.09.93-.54,1.08-.09.03-.18.04-.27.04Z"/>
        <g>
          <path class="cls-3" d="M60.35,11.04c-2.86-.19-5.02-2.65-4.83-5.51.19-2.86,2.65-5.02,5.51-4.83,2.86.19,5.02,2.65,4.83,5.51-.19,2.86-2.65,5.02-5.51,4.83Z"/>
          <path class="cls-2" d="M60.31,11.73c3.23.21,6.03-2.24,6.24-5.47.21-3.23-2.24-6.03-5.47-6.24-3.23-.21-6.03,2.24-6.24,5.47-.21,3.23,2.24,6.03,5.47,6.24,3.23.21-3.23-.21,0,0ZM60.99,1.39c2.47.16,4.35,2.3,4.19,4.78-.16,2.47-2.3,4.35-4.78,4.19-2.47-.16-4.35-2.3-4.19-4.78.16-2.47,2.3-4.35,4.78-4.19,2.47.16-2.47-.16,0,0Z"/>
        </g>
        <polygon class="cls-2" points="68.69 39.97 72.15 40.17 74.7 37.83 74.24 46.02 68.69 39.97"/>
        <path class="cls-4" d="M60.51,5.2c.29,0,.54-.07.75-.23.21-.16.32-.4.33-.72,0-.24-.07-.45-.23-.63-.16-.18-.38-.27-.66-.28-.19,0-.35.02-.47.07-.12.05-.22.12-.3.2-.07.09-.15.2-.21.33-.07.14-.13.26-.19.38-.03.06-.09.11-.17.15-.08.04-.18.05-.28.05-.13,0-.24-.06-.34-.16-.1-.1-.15-.24-.15-.41,0-.16.06-.33.16-.51.1-.18.25-.34.45-.5.19-.16.43-.28.72-.37.28-.09.6-.13.95-.12.3,0,.58.06.83.15.25.09.46.22.64.38.18.16.31.35.4.56.09.21.13.43.12.67,0,.31-.08.58-.23.8-.14.22-.34.43-.6.64.24.14.44.29.6.47.16.17.28.36.36.57.08.21.11.43.11.67,0,.28-.07.56-.19.82-.12.26-.3.49-.52.7-.23.2-.5.36-.8.47-.31.11-.65.16-1.02.15-.38-.01-.71-.09-1-.23-.29-.14-.53-.32-.72-.53-.19-.21-.33-.42-.42-.64-.09-.22-.14-.4-.13-.54,0-.18.07-.33.19-.43.12-.11.27-.16.44-.15.09,0,.17.03.25.08.08.05.13.12.15.19.15.44.32.77.5.98.18.22.44.33.78.34.19,0,.38-.04.56-.13.18-.09.33-.23.46-.41.12-.18.19-.4.19-.65.01-.37-.08-.66-.28-.87-.19-.21-.47-.33-.83-.34-.06,0-.16,0-.29.01-.13,0-.22.01-.25.01-.17,0-.3-.05-.39-.14-.09-.09-.14-.21-.13-.36,0-.15.06-.27.18-.36.11-.09.28-.13.51-.12h.19Z"/>
      </g>
      <g>
        <g>
          <path class="cls-1" d="M34.24,63.31c-.6,0-1.17-.37-1.38-.97L12.06,4.21c-.27-.76.12-1.6.89-1.87.76-.27,1.6.12,1.87.89l20.8,58.12c.27.76-.12,1.6-.89,1.87-.16.06-.33.09-.49.09Z"/>
          <path class="cls-1" d="M34.26,63.31c-.16,0-.33-.03-.49-.08-.76-.27-1.16-1.11-.89-1.87L51.67,8.31c.27-.76,1.11-1.16,1.87-.89.76.27,1.16,1.11.89,1.87l-18.79,53.04c-.21.6-.78.98-1.38.98Z"/>
        </g>
        <g>
          <path class="cls-1" d="M71.69,63.31c-.16,0-.33-.03-.49-.09-.76-.27-1.16-1.11-.89-1.87L91.11,3.23c.27-.76,1.11-1.16,1.87-.89.76.27,1.16,1.11.89,1.87l-20.8,58.12c-.21.6-.78.97-1.38.97Z"/>
          <path class="cls-1" d="M71.67,63.31c-.6,0-1.17-.38-1.38-.98L51.5,9.29c-.27-.76.13-1.6.89-1.87.76-.27,1.6.13,1.87.89l18.79,53.04c.27.76-.13,1.6-.89,1.87-.16.06-.33.08-.49.08Z"/>
        </g>
      </g>
    </g>
  </g>
</svg>