<svg xmlns="http://www.w3.org/2000/svg" id="Layer_2" data-name="Layer 2" viewBox="0 0 68.53 75.18"><defs><style>.cls-1,.cls-2,.cls-3,.cls-4{stroke-width:0}.cls-2{fill:#6f6f6e}.cls-3{fill:#fff}.cls-4{fill:#ff0600}</style></defs><g id="O"><g><path d="M33.68,68.97c-15.19,0-27.55-14.08-27.55-31.38S18.49,6.2,33.68,6.2s27.55,14.08,27.55,31.38-12.36,31.38-27.55,31.38ZM33.68,9.13c-13.58,0-24.62,12.76-24.62,28.45s11.05,28.45,24.62,28.45,24.62-12.76,24.62-28.45-11.05-28.45-24.62-28.45Z" class="cls-1"/><path d="M33.68,75.18c-.12,0-.24,0-.36,0-.47,0-.85-.39-.85-.86,0-.47.39-.84.85-.84h0c.79,0,1.59-.01,2.37-.07.47-.03.88.32.91.79.03.47-.32.88-.79.91-.71.05-1.43.08-2.15.08ZM30.9,75.05s-.05,0-.08,0c-.83-.08-1.67-.19-2.49-.34-.46-.08-.77-.53-.69-.99.08-.46.53-.77.99-.69.77.14,1.56.25,2.35.32.47.04.82.46.77.93-.04.44-.41.77-.85.77ZM38.2,74.84c-.41,0-.78-.3-.84-.72-.07-.47.25-.9.71-.97.78-.12,1.56-.27,2.32-.46.46-.11.92.17,1.03.63.11.46-.17.92-.63,1.03-.81.19-1.64.36-2.46.48-.04,0-.09.01-.13.01ZM26.09,74.19c-.07,0-.15,0-.22-.03-.8-.21-1.61-.46-2.4-.74-.44-.16-.68-.65-.52-1.09.16-.44.65-.68,1.09-.52.74.26,1.51.5,2.27.7.46.12.73.59.61,1.04-.1.38-.45.64-.83.64ZM42.94,73.7c-.36,0-.69-.23-.81-.59-.15-.45.1-.93.55-1.08.75-.24,1.49-.52,2.22-.83.44-.18.94.02,1.12.46.18.44-.02.94-.46,1.12-.77.32-1.56.62-2.35.88-.09.03-.18.04-.27.04ZM21.49,72.57c-.12,0-.24-.02-.35-.07-.76-.34-1.51-.71-2.25-1.11-.41-.23-.57-.75-.34-1.16.23-.41.75-.57,1.16-.34.69.38,1.41.73,2.13,1.05.43.19.62.7.43,1.13-.14.32-.45.51-.78.51ZM47.43,71.81c-.31,0-.61-.17-.76-.46-.22-.42-.05-.93.37-1.15.7-.36,1.39-.75,2.07-1.17.4-.25.93-.12,1.18.28.25.4.12.93-.28,1.18-.71.44-1.44.86-2.18,1.24-.13.06-.26.1-.39.1ZM17.21,70.23c-.16,0-.32-.04-.47-.14-.69-.45-1.38-.94-2.05-1.44-.38-.29-.45-.82-.16-1.2.29-.38.82-.45,1.2-.16.63.48,1.28.94,1.94,1.37.4.26.51.79.25,1.18-.16.25-.44.39-.72.39ZM51.58,69.25c-.26,0-.52-.12-.69-.35-.28-.38-.19-.92.19-1.19.64-.46,1.27-.96,1.87-1.47.36-.31.9-.26,1.2.1.31.36.26.9-.1,1.2-.64.54-1.3,1.06-1.97,1.55-.15.11-.33.16-.5.16ZM13.34,67.28c-.2,0-.4-.07-.57-.21-.62-.55-1.23-1.13-1.81-1.72-.33-.34-.33-.88.01-1.21.34-.33.88-.33,1.21.01.55.57,1.13,1.12,1.72,1.64.35.31.39.85.07,1.21-.17.19-.4.29-.64.29ZM55.31,66.09c-.22,0-.44-.09-.61-.26-.33-.34-.33-.88.01-1.21.56-.55,1.12-1.13,1.64-1.73.31-.35.85-.39,1.21-.07.35.31.39.85.07,1.21-.55.62-1.13,1.23-1.73,1.81-.17.16-.38.24-.6.24ZM9.92,63.8c-.24,0-.48-.1-.65-.3-.54-.63-1.06-1.29-1.56-1.96-.28-.38-.2-.91.18-1.2.38-.28.91-.2,1.2.18.47.64.97,1.27,1.48,1.87.31.36.26.9-.1,1.2-.16.14-.36.2-.55.2ZM58.55,62.44c-.18,0-.37-.06-.52-.18-.37-.29-.44-.83-.15-1.2.48-.62.95-1.28,1.39-1.94.26-.39.79-.5,1.19-.23.39.26.5.79.23,1.19-.46.69-.95,1.37-1.46,2.03-.17.22-.42.33-.68.33ZM7.02,59.88c-.28,0-.56-.14-.72-.39-.45-.69-.88-1.42-1.28-2.14-.23-.41-.08-.93.33-1.16.41-.23.93-.08,1.16.33.39.7.8,1.38,1.22,2.05.26.4.14.93-.26,1.18-.14.09-.3.14-.46.14ZM61.26,58.38c-.15,0-.29-.04-.43-.11-.41-.24-.55-.76-.31-1.17.4-.68.78-1.39,1.13-2.1.21-.42.72-.6,1.15-.39.42.21.6.72.39,1.15-.37.74-.77,1.48-1.18,2.2-.16.27-.45.43-.74.43ZM4.65,55.61c-.32,0-.63-.18-.77-.49-.35-.75-.69-1.52-1-2.29-.17-.44.04-.94.48-1.11.44-.17.94.04,1.11.48.29.74.61,1.48.95,2.19.2.43.02.94-.41,1.14-.12.06-.24.08-.37.08ZM63.43,54.01c-.11,0-.22-.02-.33-.07-.44-.18-.64-.68-.46-1.12.31-.73.59-1.48.85-2.23.15-.45.64-.68,1.09-.53.45.15.68.64.53,1.09-.27.78-.57,1.57-.89,2.33-.14.33-.45.52-.79.52ZM2.84,51.08c-.36,0-.69-.23-.81-.59-.26-.79-.49-1.59-.7-2.39-.12-.46.16-.92.61-1.04.46-.12.92.16,1.04.61.2.77.43,1.54.67,2.29.15.45-.1.93-.55,1.08-.09.03-.18.04-.27.04ZM65.03,49.4c-.08,0-.15-.01-.23-.03-.45-.13-.72-.6-.59-1.05.21-.76.4-1.54.57-2.32.1-.46.55-.76,1.01-.66.46.1.76.55.66,1.01-.17.81-.37,1.62-.6,2.42-.11.38-.45.63-.82.63ZM1.61,46.35c-.4,0-.76-.28-.84-.69-.16-.81-.3-1.64-.41-2.46-.06-.47.27-.9.73-.96.47-.06.9.27.96.73.11.79.24,1.58.39,2.36.09.46-.21.91-.67,1-.06.01-.11.02-.17.02ZM66.05,44.63s-.09,0-.13,0c-.47-.07-.79-.51-.72-.97.12-.78.22-1.58.29-2.37.04-.47.46-.82.93-.77.47.04.82.46.77.93-.08.83-.18,1.66-.3,2.47-.06.42-.43.73-.84.73ZM.96,41.52c-.44,0-.82-.34-.85-.79-.06-.82-.1-1.66-.11-2.49,0-.47.37-.86.84-.87,0,0,0,0,.01,0,.47,0,.85.37.85.84.01.8.05,1.6.11,2.39.03.47-.32.88-.79.92-.02,0-.04,0-.06,0ZM66.49,39.77s-.02,0-.03,0c-.47-.01-.84-.41-.83-.88.01-.43.02-.87.02-1.3,0-.37,0-.73-.01-1.09-.01-.47.36-.86.83-.88.48-.01.86.36.88.83.01.38.02.76.02,1.14,0,.45,0,.9-.02,1.36-.01.46-.39.83-.85.83ZM.89,36.64s-.02,0-.04,0c-.47-.02-.84-.42-.82-.89.04-.83.1-1.66.18-2.48.05-.47.47-.81.94-.76.47.05.81.47.76.94-.08.79-.14,1.59-.17,2.38-.02.46-.4.82-.85.82ZM66.36,34.89c-.44,0-.81-.34-.85-.78-.07-.79-.16-1.59-.27-2.37-.07-.47.25-.9.72-.97.47-.07.9.25.97.72.12.82.22,1.65.29,2.48.04.47-.31.88-.78.92-.02,0-.05,0-.07,0ZM1.39,31.78s-.09,0-.14-.01c-.47-.08-.78-.52-.71-.98.13-.82.29-1.64.48-2.45.1-.46.56-.75,1.02-.64.46.1.75.56.64,1.02-.17.77-.33,1.56-.46,2.34-.07.42-.43.72-.84.72ZM65.66,30.06c-.4,0-.75-.28-.84-.68-.16-.78-.35-1.56-.56-2.32-.12-.46.14-.93.6-1.05.46-.12.93.14,1.05.6.22.8.41,1.61.58,2.42.1.46-.2.91-.66,1.01-.06.01-.12.02-.18.02ZM2.47,27.02c-.08,0-.16-.01-.24-.03-.45-.13-.71-.61-.58-1.06.23-.8.49-1.59.77-2.37.16-.44.65-.67,1.09-.51.44.16.67.65.51,1.09-.27.74-.52,1.51-.74,2.27-.11.37-.45.62-.82.62ZM4.12,22.43c-.11,0-.23-.02-.34-.07-.43-.19-.63-.69-.44-1.12.33-.76.69-1.52,1.06-2.26.21-.42.73-.59,1.15-.37.42.21.59.73.37,1.15-.36.7-.7,1.43-1.02,2.16-.14.32-.45.52-.78.52ZM6.34,18.09c-.15,0-.3-.04-.44-.12-.41-.24-.54-.77-.3-1.17.43-.71.88-1.42,1.35-2.1.27-.39.8-.49,1.19-.22.39.27.49.8.22,1.19-.45.65-.88,1.33-1.29,2.01-.16.27-.44.42-.73.42ZM9.11,14.07c-.19,0-.37-.06-.53-.18-.37-.29-.43-.83-.14-1.2.52-.65,1.06-1.29,1.62-1.91.32-.35.86-.37,1.21-.06.35.32.37.86.06,1.21-.53.58-1.05,1.19-1.54,1.82-.17.21-.42.32-.67.32ZM56.49,12.01c-.23,0-.46-.09-.63-.27-.12-.13-.23-.25-.35-.38-.33-.34-.31-.88.03-1.21.34-.33.88-.31,1.21.03.12.13.25.26.37.39.32.35.3.89-.05,1.21-.16.15-.37.23-.58.23ZM12.4,10.46c-.23,0-.45-.09-.62-.26-.33-.34-.31-.88.03-1.21.6-.58,1.23-1.13,1.87-1.66.36-.3.9-.25,1.2.12.3.36.25.9-.12,1.2-.61.5-1.21,1.03-1.78,1.58-.17.16-.38.24-.59.24ZM54.39,9.92c-.21,0-.41-.07-.58-.22-.59-.53-1.2-1.05-1.82-1.54-.37-.29-.44-.83-.14-1.2.29-.37.83-.44,1.2-.14.65.51,1.29,1.06,1.91,1.62.35.32.37.86.06,1.21-.17.19-.4.28-.63.28ZM16.17,7.36c-.27,0-.53-.13-.7-.36-.27-.39-.18-.92.2-1.19.68-.48,1.39-.94,2.1-1.37.41-.24.93-.11,1.17.29.24.41.11.93-.29,1.17-.67.4-1.34.84-1.99,1.3-.15.11-.32.16-.49.16ZM50.55,6.91c-.16,0-.33-.05-.48-.15-.66-.44-1.34-.86-2.02-1.25-.41-.23-.56-.75-.32-1.16.23-.41.75-.56,1.16-.32.72.41,1.44.85,2.13,1.32.39.26.5.79.23,1.19-.16.25-.44.38-.71.38ZM20.36,4.85c-.31,0-.62-.17-.77-.47-.21-.42-.04-.94.38-1.15.75-.37,1.52-.72,2.29-1.03.44-.18.94.04,1.11.47.18.44-.04.94-.47,1.11-.73.29-1.46.62-2.16.97-.12.06-.25.09-.38.09ZM46.3,4.51c-.12,0-.24-.03-.36-.08-.72-.33-1.45-.64-2.19-.92-.44-.16-.67-.66-.5-1.1.16-.44.66-.67,1.1-.5.78.29,1.56.62,2.31.97.43.2.61.71.41,1.14-.14.31-.45.49-.78.49ZM24.88,3.03c-.36,0-.7-.23-.82-.6-.14-.45.11-.93.56-1.07.8-.25,1.61-.46,2.42-.65.46-.1.92.19,1.02.65s-.19.92-.65,1.02c-.77.17-1.54.38-2.29.61-.08.03-.17.04-.25.04ZM41.73,2.81c-.08,0-.16-.01-.23-.03-.76-.21-1.53-.4-2.31-.55-.46-.09-.77-.54-.68-1,.09-.46.54-.77,1-.68.82.16,1.64.36,2.44.58.45.13.72.6.59,1.05-.11.38-.45.62-.82.62ZM29.63,1.97c-.42,0-.79-.31-.85-.74-.06-.47.26-.9.73-.96.82-.11,1.66-.19,2.5-.24.48-.03.87.34.9.81.03.47-.34.87-.81.9-.79.04-1.58.12-2.36.23-.04,0-.08,0-.12,0ZM36.94,1.88s-.06,0-.09,0c-.78-.09-1.58-.14-2.37-.16-.47-.01-.84-.41-.83-.88.01-.47.42-.85.88-.83.84.02,1.68.08,2.51.17.47.05.81.47.76.94-.05.44-.42.76-.85.76Z" class="cls-2"/><g><g><path d="M51.49,8.83c0-2.86,2.32-5.18,5.18-5.18,2.86,0,5.18,2.32,5.18,5.18,0,2.86-2.32,5.18-5.18,5.18-2.86,0-5.18-2.32-5.18-5.18Z" class="cls-3"/><path d="M50.8,8.83c0,3.24,2.63,5.87,5.87,5.87,3.24,0,5.87-2.63,5.87-5.87,0-3.24-2.63-5.87-5.87-5.87-3.24,0-5.87,2.63-5.87,5.87,0,3.24,0-3.24,0,0ZM61.16,8.83c0,2.48-2.01,4.49-4.49,4.49-2.48,0-4.49-2.01-4.49-4.49,0-2.48,2.01-4.49,4.49-4.49,2.48,0,4.49,2.01,4.49,4.49,0,2.48,0-2.48,0,0Z" class="cls-2"/></g><polygon points="68.53 27.53 65.08 27.2 62.44 29.45 63.22 21.28 68.53 27.53" class="cls-2"/><path d="M56.45,11.67v-4.27c-.79.61-1.33.91-1.6.91-.13,0-.25-.05-.35-.16-.1-.11-.15-.23-.15-.36,0-.16.05-.28.15-.35.1-.08.28-.17.53-.29.38-.18.68-.37.91-.56.23-.2.43-.42.6-.66.17-.24.29-.39.34-.45.05-.06.15-.08.3-.08.17,0,.3.06.4.19.1.13.15.31.15.53v5.37c0,.63-.21.94-.64.94-.19,0-.34-.06-.46-.19-.12-.13-.17-.32-.17-.57Z" class="cls-4"/><path d="M59.41,18.52c-.48-1.53.37-3.16,1.9-3.64,1.53-.48,3.16.37,3.64,1.9s-.37,3.16-1.9,3.64c-1.53.48-3.16-.37-3.65-1.9Z" class="cls-2"/></g></g></g></svg>