<svg xmlns="http://www.w3.org/2000/svg" id="Layer_2" data-name="Layer 2" viewBox="0 0 78.91 121.35"><defs><style>.cls-1,.cls-2,.cls-3,.cls-4{stroke-width:0}.cls-2{fill:#6f6f6e}.cls-3{fill:#fff}.cls-4{fill:#ff0600}</style></defs><g id="T"><g><g><path d="M42.82,54.5h-2.44c-.47,0-.85-.38-.85-.85s.38-.85.85-.85h2.44c.47,0,.85.38.85.85s-.38.85-.85.85ZM37.93,54.5h-2.44c-.47,0-.85-.38-.85-.85s.38-.85.85-.85h2.44c.47,0,.85.38.85.85s-.38.85-.85.85ZM33.05,54.5h-2.44c-.47,0-.85-.38-.85-.85s.38-.85.85-.85h2.44c.47,0,.85.38.85.85s-.38.85-.85.85ZM28.17,54.5h-2.44c-.47,0-.85-.38-.85-.85s.38-.85.85-.85h2.44c.47,0,.85.38.85.85s-.38.85-.85.85ZM23.28,54.5h-2.44c-.47,0-.85-.38-.85-.85s.38-.85.85-.85h2.44c.47,0,.85.38.85.85s-.38.85-.85.85ZM18.4,54.5h-2.44c-.47,0-.85-.38-.85-.85s.38-.85.85-.85h2.44c.47,0,.85.38.85.85s-.38.85-.85.85ZM13.51,54.5h-2.44c-.47,0-.85-.38-.85-.85s.38-.85.85-.85h2.44c.47,0,.85.38.85.85s-.38.85-.85.85ZM8.63,54.5h-2.44c-.47,0-.85-.38-.85-.85s.38-.85.85-.85h2.44c.47,0,.85.38.85.85s-.38.85-.85.85Z" class="cls-2"/><g><polygon points="40.78 56.83 42.14 53.65 40.8 50.45 48.35 53.67 40.78 56.83" class="cls-2"/><path d="M48.99,53.64c0,1.61,1.3,2.91,2.91,2.91s2.91-1.3,2.91-2.91-1.3-2.91-2.91-2.91-2.91,1.3-2.91,2.91Z" class="cls-2"/><g><g><path d="M5.85,58.82c-2.86-.01-5.17-2.34-5.16-5.2.01-2.86,2.34-5.17,5.2-5.16,2.86.01,5.17,2.34,5.16,5.2-.01,2.86-2.34,5.17-5.2,5.16Z" class="cls-3"/><path d="M5.85,59.51c3.24.01,5.88-2.61,5.89-5.85.01-3.24-2.61-5.88-5.85-5.89C2.65,47.76.01,50.38,0,53.62c-.01,3.24,2.61,5.88,5.85,5.89,3.24.01-3.24-.01,0,0ZM5.89,49.15c2.48,0,4.49,2.03,4.48,4.51s-2.03,4.49-4.51,4.48c-2.48,0-4.49-2.03-4.48-4.51,0-2.48,2.03-4.49,4.51-4.48,2.48,0-2.48,0,0,0Z" class="cls-2"/></g><path d="M5.22,55.84h2.45c.24,0,.43.05.56.15.13.1.19.24.19.41,0,.15-.05.28-.15.39-.1.11-.26.16-.46.16h-3.45c-.23,0-.42-.06-.55-.19-.13-.13-.2-.28-.2-.46,0-.11.04-.26.13-.45.08-.19.18-.33.28-.44.42-.43.79-.8,1.13-1.11.33-.31.57-.51.72-.61.26-.18.47-.36.64-.55s.3-.37.39-.56c.09-.19.13-.38.13-.57,0-.2-.05-.38-.14-.54-.1-.16-.23-.28-.39-.37s-.34-.13-.54-.13c-.41,0-.73.18-.97.54-.03.05-.08.17-.16.38-.07.21-.16.37-.25.48-.09.11-.23.17-.41.17-.16,0-.29-.05-.39-.15-.1-.1-.15-.24-.15-.42,0-.22.05-.44.15-.68.1-.23.24-.45.43-.64.19-.19.44-.34.73-.46.3-.12.64-.18,1.04-.18.48,0,.89.08,1.22.23.22.1.41.24.58.41.17.18.29.38.39.61.09.23.14.47.14.72,0,.39-.1.74-.29,1.06-.19.32-.39.57-.59.75-.2.18-.54.46-1.01.85-.47.38-.79.68-.97.9-.08.08-.15.19-.23.31Z" class="cls-4"/></g></g></g><g><path d="M48.29,121.35c-.47,0-.85-.38-.85-.85,0-.47.38-.86.85-.86.81,0,1.62-.03,2.39-.08.47-.03.88.33.9.8.03.47-.33.88-.8.9-.81.05-1.64.07-2.48.08h0ZM45.85,121.28s-.04,0-.06,0c-.84-.05-1.68-.14-2.49-.26-.47-.07-.79-.5-.72-.97.07-.47.5-.79.97-.72.76.11,1.55.2,2.35.25.47.03.83.44.8.91-.03.45-.41.8-.85.8ZM53.15,121.06c-.43,0-.8-.32-.85-.76-.05-.47.28-.89.75-.95.8-.09,1.59-.21,2.36-.35.47-.08.91.22.99.69.08.46-.22.91-.69.99-.8.14-1.63.27-2.47.36-.03,0-.07,0-.1,0ZM41.04,120.56c-.07,0-.14,0-.2-.02-.82-.2-1.63-.44-2.41-.72-.45-.16-.68-.65-.52-1.09s.65-.68,1.09-.52c.73.26,1.48.48,2.25.67.46.11.74.58.63,1.03-.1.39-.44.65-.83.65ZM57.94,120.19c-.38,0-.73-.26-.83-.64-.12-.46.16-.92.61-1.04.78-.2,1.54-.43,2.27-.68.45-.15.93.08,1.09.53.16.45-.08.93-.53,1.09-.77.27-1.58.51-2.4.72-.07.02-.14.03-.21.03ZM36.45,118.94c-.12,0-.25-.03-.37-.08-.76-.36-1.51-.77-2.22-1.21-.4-.25-.53-.77-.28-1.18s.77-.53,1.18-.28c.66.41,1.36.78,2.06,1.12.43.2.61.71.4,1.14-.15.31-.45.49-.77.49ZM62.54,118.58c-.32,0-.63-.19-.78-.5-.2-.43,0-.94.42-1.13.72-.33,1.42-.69,2.09-1.08.41-.24.93-.1,1.17.31.24.41.1.93-.31,1.17-.71.42-1.47.81-2.24,1.16-.12.05-.24.08-.35.08ZM32.31,116.39c-.18,0-.37-.06-.52-.18-.66-.51-1.3-1.06-1.92-1.64-.34-.33-.36-.87-.03-1.21s.87-.36,1.21-.03c.57.54,1.17,1.06,1.78,1.53.37.29.44.83.15,1.2-.17.22-.42.33-.68.33ZM66.74,116.11c-.26,0-.52-.12-.69-.34-.28-.38-.2-.91.18-1.2.63-.47,1.23-.97,1.79-1.5.34-.32.88-.31,1.21.03.32.34.31.88-.03,1.21-.61.57-1.26,1.12-1.95,1.63-.15.11-.33.17-.51.17ZM28.78,113.04c-.24,0-.48-.1-.65-.29-.54-.62-1.07-1.29-1.56-1.97-.28-.38-.19-.92.19-1.19.38-.28.92-.19,1.19.19.47.65.96,1.27,1.47,1.85.31.36.27.9-.09,1.21-.16.14-.36.21-.56.21ZM70.28,112.77c-.19,0-.39-.06-.55-.2-.36-.3-.41-.84-.11-1.2.5-.6.96-1.23,1.38-1.89.26-.4.78-.51,1.18-.26.4.26.51.78.26,1.18-.46.71-.96,1.4-1.5,2.05-.17.2-.41.31-.66.31ZM25.91,109.09c-.29,0-.57-.15-.73-.41-.42-.7-.84-1.44-1.22-2.19-.21-.42-.05-.94.37-1.15.42-.21.94-.05,1.15.37.37.72.76,1.42,1.16,2.08.24.4.12.93-.29,1.17-.14.08-.29.12-.44.12ZM72.91,108.67c-.12,0-.25-.03-.37-.08-.43-.2-.6-.72-.4-1.14.34-.71.64-1.44.88-2.16.15-.45.63-.69,1.08-.54.45.15.69.63.54,1.08-.27.8-.59,1.59-.96,2.36-.15.31-.45.48-.77.48ZM23.68,104.74c-.33,0-.65-.19-.79-.52-.32-.75-.63-1.53-.92-2.32-.16-.44.07-.93.51-1.09.44-.16.93.07,1.09.51.28.76.57,1.51.88,2.23.19.43-.01.94-.45,1.12-.11.05-.23.07-.34.07ZM74.45,104.03s-.1,0-.14-.01c-.47-.08-.78-.52-.7-.99.03-.2.05-.31.05-.34.05-.43.42-.76.85-.76.47,0,.85.38.85.85,0,.04,0,.08,0,.11,0,.05-.02.19-.06.42-.07.42-.43.71-.84.71ZM22.01,100.15c-.37,0-.71-.24-.82-.61-.24-.78-.46-1.59-.66-2.4-.11-.46.17-.92.62-1.04.46-.11.92.17,1.04.62.19.78.41,1.56.64,2.32.14.45-.12.93-.57,1.07-.08.02-.17.04-.25.04ZM20.83,95.4c-.4,0-.76-.28-.84-.69-.16-.81-.3-1.63-.43-2.45-.07-.47.25-.9.72-.97.47-.07.9.25.97.72.12.79.26,1.59.41,2.37.09.46-.21.91-.67,1-.06.01-.11.02-.17.02ZM20.11,90.55c-.43,0-.8-.33-.85-.77-.15-1.52-.17-2.43-.17-2.47v-.07c0-.47.38-.85.85-.85s.85.38.85.85v.06h0s.02.88.17,2.31c.05.47-.29.89-.76.94-.03,0-.06,0-.09,0ZM19.94,85.66c-.47,0-.85-.38-.85-.85v-2.44c0-.47.38-.85.85-.85s.85.38.85.85v2.44c0,.47-.38.85-.85.85ZM19.94,80.77c-.47,0-.85-.38-.85-.85v-2.44c0-.47.38-.85.85-.85s.85.38.85.85v2.44c0,.47-.38.85-.85.85ZM19.94,75.89c-.47,0-.85-.38-.85-.85v-2.44c0-.47.38-.85.85-.85s.85.38.85.85v2.44c0,.47-.38.85-.85.85ZM19.94,71c-.47,0-.85-.38-.85-.85v-2.44c0-.47.38-.85.85-.85s.85.38.85.85v2.44c0,.47-.38.85-.85.85ZM19.94,66.12c-.47,0-.85-.38-.85-.85v-2.44c0-.47.38-.85.85-.85s.85.38.85.85v2.44c0,.47-.38.85-.85.85ZM19.94,61.24c-.47,0-.85-.38-.85-.85v-2.44c0-.47.38-.85.85-.85s.85.38.85.85v2.44c0,.47-.38.85-.85.85ZM19.94,56.35c-.47,0-.85-.38-.85-.85v-2.44c0-.47.38-.85.85-.85s.85.38.85.85v2.44c0,.47-.38.85-.85.85ZM19.94,51.47c-.47,0-.85-.38-.85-.85v-2.44c0-.47.38-.85.85-.85s.85.38.85.85v2.44c0,.47-.38.85-.85.85ZM19.94,46.58c-.47,0-.85-.38-.85-.85v-2.44c0-.47.38-.85.85-.85s.85.38.85.85v2.44c0,.47-.38.85-.85.85ZM19.94,41.7c-.47,0-.85-.38-.85-.85v-2.44c0-.47.38-.85.85-.85s.85.38.85.85v2.44c0,.47-.38.85-.85.85ZM19.94,36.82c-.47,0-.85-.38-.85-.85v-2.44c0-.47.38-.85.85-.85s.85.38.85.85v2.44c0,.47-.38.85-.85.85ZM19.94,31.93c-.47,0-.85-.38-.85-.85v-2.44c0-.47.38-.85.85-.85s.85.38.85.85v2.44c0,.47-.38.85-.85.85ZM19.94,27.05c-.47,0-.85-.38-.85-.85v-2.44c0-.47.38-.85.85-.85s.85.38.85.85v2.44c0,.47-.38.85-.85.85ZM19.94,22.16c-.47,0-.85-.38-.85-.85v-2.44c0-.47.38-.85.85-.85s.85.38.85.85v2.44c0,.47-.38.85-.85.85ZM19.94,17.28c-.47,0-.85-.38-.85-.85v-2.44c0-.47.38-.85.85-.85s.85.38.85.85v2.44c0,.47-.38.85-.85.85ZM19.94,12.4c-.47,0-.85-.38-.85-.85v-2.44c0-.47.38-.85.85-.85s.85.38.85.85v2.44c0,.47-.38.85-.85.85Z" class="cls-2"/><g><path d="M14.54,5.87c0-2.86,2.32-5.18,5.18-5.18,2.86,0,5.18,2.32,5.18,5.18,0,2.86-2.32,5.18-5.18,5.18-2.86,0-5.18-2.32-5.18-5.18Z" class="cls-3"/><path d="M13.85,5.87c0,3.24,2.63,5.87,5.87,5.87,3.24,0,5.87-2.63,5.87-5.87C25.59,2.63,22.95,0,19.72,0c-3.24,0-5.87,2.63-5.87,5.87s0-3.24,0,0ZM24.21,5.87c0,2.48-2.01,4.49-4.49,4.49-2.48,0-4.49-2.01-4.49-4.49,0-2.48,2.01-4.49,4.49-4.49,2.48,0,4.49,2.01,4.49,4.49,0,2.48,0-2.48,0,0Z" class="cls-2"/></g><path d="M19.49,8.71v-4.27c-.79.61-1.33.91-1.6.91-.13,0-.25-.05-.35-.16-.1-.11-.15-.23-.15-.36,0-.16.05-.28.15-.35.1-.08.28-.17.53-.29.38-.18.68-.37.91-.56.23-.2.43-.42.6-.66.17-.24.29-.39.34-.45.05-.06.15-.08.3-.08.17,0,.3.06.4.19.1.13.15.31.15.53v5.37c0,.63-.21.94-.64.94-.19,0-.34-.06-.46-.19-.12-.13-.17-.32-.17-.57Z" class="cls-4"/><polygon points="77.16 106.04 74.24 104.18 70.87 104.98 75.28 98.06 77.16 106.04" class="cls-2"/><path d="M73.14,93.87c.27-1.58,1.77-2.65,3.35-2.38,1.58.27,2.65,1.77,2.38,3.35-.27,1.58-1.77,2.65-3.35,2.38s-2.65-1.77-2.38-3.35Z" class="cls-2"/></g><g><path d="M49.66,114.88c-6.37,0-11.58-2.07-15.49-6.15-8.15-8.51-7.75-22.69-7.71-23.67V1.81c0-.81.66-1.47,1.47-1.47s1.47.66,1.47,1.47v83.27s0,.04,0,.06c0,.14-.49,13.85,6.91,21.56,3.34,3.48,7.83,5.24,13.36,5.24,6.97,0,12.11-3.19,15.29-9.49,2.45-4.86,2.78-9.84,2.79-9.89.05-.81.75-1.42,1.55-1.37.81.05,1.42.74,1.37,1.55-.01.22-.35,5.55-3.05,10.95-3.66,7.32-9.87,11.19-17.95,11.19Z" class="cls-1"/><path d="M52.59,47.12H2.14c-.81,0-1.47-.66-1.47-1.47s.66-1.47,1.47-1.47h50.45c.81,0,1.47.66,1.47,1.47s-.66,1.47-1.47,1.47Z" class="cls-1"/></g></g></g></svg>