<?xml version="1.0" encoding="UTF-8"?>
<svg id="Layer_2" data-name="Layer 2" xmlns="http://www.w3.org/2000/svg" viewBox="0 0 61.45 113.85">
  <defs>
    <style>
      .cls-1, .cls-2, .cls-3, .cls-4 {
        stroke-width: 0px;
      }

      .cls-2 {
        fill: #6f6f6e;
      }

      .cls-3 {
        fill: #fff;
      }

      .cls-4 {
        fill: #ff0600;
      }
    </style>
  </defs>
  <g id="K">
    <g>
      <g>
        <path class="cls-1" d="M14.94,113.63c-.81,0-1.47-.66-1.47-1.47V1.47c0-.81.66-1.47,1.47-1.47s1.47.66,1.47,1.47v110.7c0,.81-.66,1.47-1.47,1.47Z"/>
        <path class="cls-1" d="M15.3,84.41c-.39,0-.78-.15-1.07-.46-.55-.59-.53-1.52.06-2.07l31.26-29.39c.59-.55,1.52-.53,2.07.06.55.59.53,1.52-.06,2.07l-31.26,29.39c-.28.27-.64.4-1,.4Z"/>
        <path class="cls-1" d="M46.56,113.63c-.36,0-.72-.13-1-.4l-31.26-29.39c-.59-.55-.62-1.48-.06-2.07.55-.59,1.48-.62,2.07-.06l31.26,29.39c.59.55.62,1.48.06,2.07-.29.31-.68.46-1.07.46Z"/>
      </g>
      <g>
        <path class="cls-2" d="M37.6,75.42c-.23,0-.45-.09-.62-.27-.32-.34-.31-.88.03-1.21l1.77-1.68c.34-.32.88-.31,1.21.03.32.34.31.88-.03,1.21l-1.77,1.68c-.17.16-.38.23-.59.23ZM41.15,72.06c-.23,0-.45-.09-.62-.27-.32-.34-.31-.88.03-1.21l1.77-1.68c.34-.32.88-.31,1.21.03.32.34.31.88-.03,1.21l-1.77,1.68c-.17.16-.38.23-.59.23ZM44.69,68.7c-.23,0-.45-.09-.62-.27-.32-.34-.31-.88.03-1.21l1.77-1.68c.34-.32.88-.31,1.21.03.32.34.31.88-.03,1.21l-1.77,1.68c-.17.16-.38.23-.59.23ZM48.24,65.34c-.23,0-.45-.09-.62-.27-.32-.34-.31-.88.03-1.21l1.77-1.68c.34-.32.88-.31,1.21.03s.31.88-.03,1.21l-1.77,1.68c-.17.16-.38.23-.59.23ZM51.78,61.98c-.23,0-.45-.09-.62-.27-.32-.34-.31-.88.03-1.21l1.77-1.68c.34-.32.88-.31,1.21.03.32.34.31.88-.03,1.21l-1.77,1.68c-.17.16-.38.23-.59.23Z"/>
        <g>
          <polygon class="cls-2" points="36.53 71.28 37.69 74.55 40.85 75.97 33.13 78.75 36.53 71.28"/>
          <g>
            <g>
              <path class="cls-3" d="M55.51,62.75c-2.86-.04-5.15-2.39-5.12-5.25.04-2.86,2.39-5.15,5.25-5.12s5.15,2.39,5.12,5.25c-.04,2.86-2.39,5.15-5.25,5.12Z"/>
              <path class="cls-2" d="M55.5,63.44c3.24.04,5.9-2.56,5.94-5.8.04-3.24-2.56-5.9-5.8-5.94-3.24-.04-5.9,2.56-5.94,5.8-.04,3.24,2.56,5.9,5.8,5.94,3.24.04-3.24-.04,0,0ZM55.63,53.07c2.48.03,4.47,2.07,4.44,4.55s-2.07,4.47-4.55,4.44c-2.48-.03-4.47-2.07-4.44-4.55.03-2.48,2.07-4.47,4.55-4.44,2.48.03-2.48-.03,0,0Z"/>
            </g>
            <path class="cls-4" d="M54.9,59.76l2.45.02c.24,0,.43.05.56.16.13.1.19.24.19.41,0,.15-.05.28-.16.39-.1.11-.26.16-.46.16l-3.45-.03c-.23,0-.42-.07-.55-.2-.13-.13-.19-.28-.19-.46,0-.11.04-.26.13-.45.09-.19.18-.33.28-.44.42-.43.8-.79,1.14-1.1.34-.31.58-.51.72-.6.26-.18.47-.36.65-.54.17-.18.3-.37.39-.56.09-.19.14-.38.14-.56,0-.2-.04-.38-.14-.54-.09-.16-.22-.28-.39-.37-.16-.09-.34-.13-.54-.14-.41,0-.73.17-.97.53-.03.05-.09.17-.16.38-.08.21-.16.37-.25.48-.09.11-.23.17-.41.16-.16,0-.29-.05-.39-.16s-.15-.25-.15-.42c0-.22.05-.44.15-.67.1-.23.25-.45.44-.63.19-.19.44-.34.74-.46.3-.11.64-.17,1.04-.17.48,0,.89.08,1.22.24.22.1.41.24.57.42.16.18.29.38.38.61.09.23.13.47.13.72,0,.39-.1.74-.3,1.06-.2.32-.39.56-.6.74-.2.18-.54.46-1.01.84-.47.38-.8.68-.98.89-.08.08-.15.18-.23.3Z"/>
          </g>
        </g>
      </g>
      <g>
        <path class="cls-2" d="M52.24,107.05c-.21,0-.43-.08-.59-.24l-.57-.55c-.34-.33-.35-.87-.02-1.21.33-.34.87-.35,1.21-.02l.57.55c.34.33.35.87.02,1.21-.17.17-.39.26-.61.26ZM49.91,104.81c-.21,0-.43-.08-.59-.24l-1.76-1.7c-.34-.33-.35-.87-.02-1.21.33-.34.87-.35,1.21-.02l1.76,1.7c.34.33.35.87.02,1.21-.17.17-.39.26-.61.26ZM46.4,101.41c-.21,0-.43-.08-.59-.24l-1.76-1.7c-.34-.33-.35-.87-.02-1.21.33-.34.87-.35,1.21-.02l1.76,1.7c.34.33.35.87.02,1.21-.17.17-.39.26-.61.26ZM42.88,98.02c-.21,0-.43-.08-.59-.24l-1.76-1.7c-.34-.33-.35-.87-.02-1.21.33-.34.87-.35,1.21-.02l1.76,1.7c.34.33.35.87.02,1.21-.17.17-.39.26-.62.26ZM39.37,94.63c-.21,0-.43-.08-.59-.24l-1.76-1.7c-.34-.33-.35-.87-.02-1.21.33-.34.87-.35,1.21-.02l1.76,1.7c.34.33.35.87.02,1.21-.17.17-.39.26-.61.26ZM35.86,91.24c-.21,0-.43-.08-.59-.24l-1.76-1.7c-.34-.33-.35-.87-.02-1.21.33-.34.87-.35,1.21-.02l1.76,1.7c.34.33.35.87.02,1.21-.17.17-.39.26-.61.26ZM32.34,87.85c-.21,0-.43-.08-.59-.24l-1.76-1.7c-.34-.33-.35-.87-.02-1.21.33-.34.87-.35,1.21-.02l1.76,1.7c.34.33.35.87.02,1.21-.17.17-.39.26-.62.26ZM28.83,84.46c-.21,0-.43-.08-.59-.24l-1.76-1.7c-.34-.33-.35-.87-.02-1.21.33-.34.87-.35,1.21-.02l1.76,1.7c.34.33.35.87.02,1.21-.17.17-.39.26-.61.26Z"/>
        <g>
          <polygon class="cls-2" points="46.78 105.49 49.97 104.12 51.19 100.87 54.45 108.4 46.78 105.49"/>
          <path class="cls-2" d="M54.94,108.83c-1.1,1.17-1.06,3.01.11,4.11,1.17,1.1,3.01,1.06,4.11-.11s1.06-3.01-.11-4.11c-1.17-1.1-3.01-1.06-4.11.11Z"/>
          <g>
            <path class="cls-3" d="M27.56,87.8c-2.86-.07-5.12-2.45-5.05-5.31.07-2.86,2.45-5.12,5.31-5.05,2.86.07,5.12,2.45,5.05,5.31-.07,2.86-2.45,5.12-5.31,5.05Z"/>
            <path class="cls-2" d="M27.54,88.49c3.24.08,5.94-2.48,6.02-5.72.08-3.24-2.48-5.94-5.72-6.02-3.24-.08-5.94,2.48-6.02,5.72-.08,3.24,2.48,5.94,5.72,6.02,3.24.08-3.24-.08,0,0ZM27.8,78.13c2.48.06,4.44,2.13,4.38,4.61-.06,2.48-2.13,4.44-4.6,4.38-2.48-.06-4.44-2.13-4.38-4.61.06-2.48,2.13-4.44,4.61-4.38,2.48.06-2.48-.06,0,0Z"/>
          </g>
          <path class="cls-4" d="M27.59,81.85c.29,0,.54-.09.74-.26.21-.17.31-.41.31-.73,0-.24-.08-.45-.25-.62-.17-.17-.39-.26-.67-.26-.19,0-.35.03-.47.08-.12.05-.22.12-.29.21-.07.09-.14.2-.2.34-.06.14-.12.27-.17.39-.03.07-.09.12-.17.16-.08.04-.18.06-.28.06-.13,0-.24-.05-.35-.15-.11-.1-.16-.24-.16-.41,0-.16.05-.33.15-.51.1-.18.24-.35.43-.52.19-.16.42-.29.7-.39.28-.1.6-.15.94-.15.3,0,.58.04.83.12.25.08.47.2.65.36.19.16.33.34.42.54.09.21.14.43.14.67,0,.31-.07.58-.2.81-.14.22-.33.44-.58.66.24.13.45.28.62.45.17.17.3.35.38.56.09.2.13.43.13.66,0,.28-.05.56-.17.83s-.28.5-.5.71c-.22.21-.48.37-.79.49-.3.12-.64.18-1.01.18-.38,0-.71-.06-1.01-.2-.3-.13-.54-.3-.74-.5-.19-.2-.34-.41-.44-.62-.1-.22-.15-.39-.15-.53,0-.18.06-.33.17-.44.12-.11.26-.17.44-.17.09,0,.17.02.25.08.08.05.14.11.16.18.16.43.34.76.53.97.19.21.45.31.79.31.19,0,.38-.05.56-.15.18-.1.33-.24.44-.43.12-.19.17-.41.17-.65,0-.37-.1-.65-.3-.86-.2-.21-.48-.31-.84-.31-.06,0-.16,0-.29.02-.13.01-.22.02-.25.02-.17,0-.3-.04-.4-.13-.09-.09-.14-.2-.14-.36,0-.15.06-.27.17-.36.11-.09.28-.14.5-.14h.19Z"/>
        </g>
      </g>
      <g>
        <path class="cls-2" d="M5.95,102.46c-.47,0-.85-.38-.85-.85v-2.44c0-.47.38-.85.85-.85s.85.38.85.85v2.44c0,.47-.38.85-.85.85ZM5.95,97.57c-.47,0-.85-.38-.85-.85v-2.44c0-.47.38-.85.85-.85s.85.38.85.85v2.44c0,.47-.38.85-.85.85ZM5.95,92.69c-.47,0-.85-.38-.85-.85v-2.44c0-.47.38-.85.85-.85s.85.38.85.85v2.44c0,.47-.38.85-.85.85ZM5.95,87.81c-.47,0-.85-.38-.85-.85v-2.44c0-.47.38-.85.85-.85s.85.38.85.85v2.44c0,.47-.38.85-.85.85ZM5.95,82.92c-.47,0-.85-.38-.85-.85v-2.44c0-.47.38-.85.85-.85s.85.38.85.85v2.44c0,.47-.38.85-.85.85ZM5.95,78.04c-.47,0-.85-.38-.85-.85v-2.44c0-.47.38-.85.85-.85s.85.38.85.85v2.44c0,.47-.38.85-.85.85ZM5.95,73.15c-.47,0-.85-.38-.85-.85v-2.44c0-.47.38-.85.85-.85s.85.38.85.85v2.44c0,.47-.38.85-.85.85ZM5.95,68.27c-.47,0-.85-.38-.85-.85v-2.44c0-.47.38-.85.85-.85s.85.38.85.85v2.44c0,.47-.38.85-.85.85ZM5.95,63.39c-.47,0-.85-.38-.85-.85v-2.44c0-.47.38-.85.85-.85s.85.38.85.85v2.44c0,.47-.38.85-.85.85ZM5.95,58.5c-.47,0-.85-.38-.85-.85v-2.44c0-.47.38-.85.85-.85s.85.38.85.85v2.44c0,.47-.38.85-.85.85ZM5.95,53.62c-.47,0-.85-.38-.85-.85v-2.44c0-.47.38-.85.85-.85s.85.38.85.85v2.44c0,.47-.38.85-.85.85ZM5.95,48.73c-.47,0-.85-.38-.85-.85v-2.44c0-.47.38-.85.85-.85s.85.38.85.85v2.44c0,.47-.38.85-.85.85ZM5.95,43.85c-.47,0-.85-.38-.85-.85v-2.44c0-.47.38-.85.85-.85s.85.38.85.85v2.44c0,.47-.38.85-.85.85ZM5.95,38.97c-.47,0-.85-.38-.85-.85v-2.44c0-.47.38-.85.85-.85s.85.38.85.85v2.44c0,.47-.38.85-.85.85ZM5.95,34.08c-.47,0-.85-.38-.85-.85v-2.44c0-.47.38-.85.85-.85s.85.38.85.85v2.44c0,.47-.38.85-.85.85ZM5.95,29.2c-.47,0-.85-.38-.85-.85v-2.44c0-.47.38-.85.85-.85s.85.38.85.85v2.44c0,.47-.38.85-.85.85ZM5.95,24.31c-.47,0-.85-.38-.85-.85v-2.44c0-.47.38-.85.85-.85s.85.38.85.85v2.44c0,.47-.38.85-.85.85ZM5.95,19.43c-.47,0-.85-.38-.85-.85v-2.44c0-.47.38-.85.85-.85s.85.38.85.85v2.44c0,.47-.38.85-.85.85ZM5.95,14.55c-.47,0-.85-.38-.85-.85v-2.44c0-.47.38-.85.85-.85s.85.38.85.85v2.44c0,.47-.38.85-.85.85Z"/>
        <g>
          <path class="cls-3" d="M.69,6.19c0-2.86,2.32-5.18,5.18-5.18,2.86,0,5.18,2.32,5.18,5.18,0,2.86-2.32,5.18-5.18,5.18-2.86,0-5.18-2.32-5.18-5.18Z"/>
          <path class="cls-2" d="M0,6.19c0,3.24,2.63,5.87,5.87,5.87,3.24,0,5.87-2.63,5.87-5.87,0-3.24-2.63-5.87-5.87-5.87C2.63.32,0,2.96,0,6.19,0,9.43,0,2.96,0,6.19ZM10.36,6.19c0,2.48-2.01,4.49-4.49,4.49-2.48,0-4.49-2.01-4.49-4.49,0-2.48,2.01-4.49,4.49-4.49s4.49,2.01,4.49,4.49c0,2.48,0-2.48,0,0Z"/>
        </g>
        <polygon class="cls-2" points="2.81 99.61 6 100.96 9.19 99.61 6 107.17 2.81 99.61"/>
        <path class="cls-4" d="M5.65,9.03v-4.27c-.79.61-1.33.91-1.6.91-.13,0-.25-.05-.35-.16-.1-.11-.15-.23-.15-.36,0-.16.05-.28.15-.35.1-.08.28-.17.53-.29.38-.18.68-.37.91-.56.23-.2.43-.42.6-.66.17-.24.29-.39.34-.45.05-.06.15-.08.3-.08.17,0,.3.06.4.19.1.13.15.31.15.53v5.37c0,.63-.21.94-.64.94-.19,0-.34-.06-.46-.19-.12-.13-.17-.32-.17-.57Z"/>
        <circle class="cls-2" cx="5.9" cy="110.94" r="2.91"/>
      </g>
    </g>
  </g>
</svg>