<?xml version="1.0" encoding="UTF-8"?>
<svg id="Layer_2" data-name="Layer 2" xmlns="http://www.w3.org/2000/svg" viewBox="0 0 72.02 114.87">
  <defs>
    <style>
      .cls-1, .cls-2, .cls-3, .cls-4 {
        stroke-width: 0px;
      }

      .cls-2 {
        fill: #6f6f6e;
      }

      .cls-3 {
        fill: #fff;
      }

      .cls-4 {
        fill: #ff0600;
      }
    </style>
  </defs>
  <g id="H">
    <g>
      <g>
        <path class="cls-1" d="M15.95,114.46c-.81,0-1.47-.66-1.47-1.47V2.5c0-.81.66-1.47,1.47-1.47s1.47.66,1.47,1.47v110.5c0,.81-.66,1.47-1.47,1.47Z"/>
        <path class="cls-1" d="M62.18,114.74c-.81,0-1.47-.66-1.47-1.47v-34.43s0-.02,0-.03c0-.1.12-10.49-6.07-16.8-3.19-3.25-7.56-4.9-12.98-4.9-7.32,0-13.62,2.99-18.74,8.9-3.88,4.49-5.59,9.06-5.61,9.1-.28.76-1.12,1.15-1.88.87-.76-.28-1.15-1.12-.87-1.88.07-.2,1.87-5.05,6.08-9.94,5.63-6.54,12.9-9.99,21.02-9.99,6.24,0,11.32,1.95,15.08,5.79,6.99,7.14,6.91,18.21,6.9,18.89v34.42c0,.81-.66,1.47-1.47,1.47Z"/>
      </g>
      <g>
        <path class="cls-2" d="M5.95,103.58c-.47,0-.85-.38-.85-.85v-1.93c0-.47.38-.85.85-.85s.85.38.85.85v1.93c0,.47-.38.85-.85.85ZM5.95,99.21c-.47,0-.85-.38-.85-.85v-2.44c0-.47.38-.85.85-.85s.85.38.85.85v2.44c0,.47-.38.85-.85.85ZM5.95,94.32c-.47,0-.85-.38-.85-.85v-2.44c0-.47.38-.85.85-.85s.85.38.85.85v2.44c0,.47-.38.85-.85.85ZM5.95,89.44c-.47,0-.85-.38-.85-.85v-2.44c0-.47.38-.85.85-.85s.85.38.85.85v2.44c0,.47-.38.85-.85.85ZM5.95,84.55c-.47,0-.85-.38-.85-.85v-2.44c0-.47.38-.85.85-.85s.85.38.85.85v2.44c0,.47-.38.85-.85.85ZM5.95,79.67c-.47,0-.85-.38-.85-.85v-2.44c0-.47.38-.85.85-.85s.85.38.85.85v2.44c0,.47-.38.85-.85.85ZM5.95,74.79c-.47,0-.85-.38-.85-.85v-2.44c0-.47.38-.85.85-.85s.85.38.85.85v2.44c0,.47-.38.85-.85.85ZM5.95,69.9c-.47,0-.85-.38-.85-.85v-2.44c0-.47.38-.85.85-.85s.85.38.85.85v2.44c0,.47-.38.85-.85.85ZM5.95,65.02c-.47,0-.85-.38-.85-.85v-2.44c0-.47.38-.85.85-.85s.85.38.85.85v2.44c0,.47-.38.85-.85.85ZM5.95,60.13c-.47,0-.85-.38-.85-.85v-2.44c0-.47.38-.85.85-.85s.85.38.85.85v2.44c0,.47-.38.85-.85.85ZM5.95,55.25c-.47,0-.85-.38-.85-.85v-2.44c0-.47.38-.85.85-.85s.85.38.85.85v2.44c0,.47-.38.85-.85.85ZM5.95,50.37c-.47,0-.85-.38-.85-.85v-2.44c0-.47.38-.85.85-.85s.85.38.85.85v2.44c0,.47-.38.85-.85.85ZM5.95,45.48c-.47,0-.85-.38-.85-.85v-2.44c0-.47.38-.85.85-.85s.85.38.85.85v2.44c0,.47-.38.85-.85.85ZM5.95,40.6c-.47,0-.85-.38-.85-.85v-2.44c0-.47.38-.85.85-.85s.85.38.85.85v2.44c0,.47-.38.85-.85.85ZM5.95,35.71c-.47,0-.85-.38-.85-.85v-2.44c0-.47.38-.85.85-.85s.85.38.85.85v2.44c0,.47-.38.85-.85.85ZM5.95,30.83c-.47,0-.85-.38-.85-.85v-2.44c0-.47.38-.85.85-.85s.85.38.85.85v2.44c0,.47-.38.85-.85.85ZM5.95,25.95c-.47,0-.85-.38-.85-.85v-2.44c0-.47.38-.85.85-.85s.85.38.85.85v2.44c0,.47-.38.85-.85.85ZM5.95,21.06c-.47,0-.85-.38-.85-.85v-2.44c0-.47.38-.85.85-.85s.85.38.85.85v2.44c0,.47-.38.85-.85.85ZM5.95,16.18c-.47,0-.85-.38-.85-.85v-2.44c0-.47.38-.85.85-.85s.85.38.85.85v2.44c0,.47-.38.85-.85.85Z"/>
        <g>
          <path class="cls-3" d="M.69,5.87c0-2.86,2.32-5.18,5.18-5.18,2.86,0,5.18,2.32,5.18,5.18,0,2.86-2.32,5.18-5.18,5.18-2.86,0-5.18-2.32-5.18-5.18Z"/>
          <path class="cls-2" d="M0,5.87c0,3.24,2.63,5.87,5.87,5.87s5.87-2.63,5.87-5.87C11.74,2.63,9.11,0,5.87,0S0,2.63,0,5.87C0,9.11,0,2.63,0,5.87ZM10.36,5.87c0,2.48-2.01,4.49-4.49,4.49-2.48,0-4.49-2.01-4.49-4.49,0-2.48,2.01-4.49,4.49-4.49,2.48,0,4.49,2.01,4.49,4.49,0,2.48,0-2.48,0,0Z"/>
        </g>
        <polygon class="cls-2" points="2.81 100.14 6 101.5 9.19 100.14 6 107.7 2.81 100.14"/>
        <path class="cls-4" d="M5.65,8.71v-4.27c-.79.61-1.33.91-1.6.91-.13,0-.25-.05-.35-.16-.1-.11-.15-.23-.15-.36,0-.16.05-.28.15-.35.1-.08.28-.17.53-.29.38-.18.68-.37.91-.56s.43-.42.6-.66c.17-.24.29-.39.34-.45.05-.06.15-.08.3-.08.17,0,.3.06.4.19.1.13.15.31.15.53v5.37c0,.63-.21.94-.64.94-.19,0-.34-.06-.46-.19-.12-.13-.17-.32-.17-.57Z"/>
        <path class="cls-2" d="M8.81,111.48c0,1.61-1.3,2.91-2.91,2.91s-2.91-1.3-2.91-2.91,1.3-2.91,2.91-2.91,2.91,1.3,2.91,2.91Z"/>
      </g>
      <g>
        <path class="cls-2" d="M68.68,106.56c-.47,0-.85-.38-.85-.85v-2.44c0-.47.38-.85.85-.85s.85.38.85.85v2.44c0,.47-.38.85-.85.85ZM68.68,101.67c-.47,0-.85-.38-.85-.85v-2.44c0-.47.38-.85.85-.85s.85.38.85.85v2.44c0,.47-.38.85-.85.85ZM68.68,96.79c-.47,0-.85-.38-.85-.85v-2.44c0-.47.38-.85.85-.85s.85.38.85.85v2.44c0,.47-.38.85-.85.85ZM68.68,91.91c-.47,0-.85-.38-.85-.85v-2.44c0-.47.38-.85.85-.85s.85.38.85.85v2.44c0,.47-.38.85-.85.85ZM68.68,87.02c-.47,0-.85-.38-.85-.85v-2.44c0-.47.38-.85.85-.85s.85.38.85.85v2.44c0,.47-.38.85-.85.85ZM68.68,82.14c-.47,0-.85-.38-.85-.85v-2.44c0-.47.38-.85.85-.85s.85.38.85.85v2.44c0,.47-.38.85-.85.85ZM68.68,77.25c-.47,0-.85-.38-.85-.85v-.11c0-.11-.04-.94-.2-2.24-.06-.47.28-.89.75-.95.47-.06.89.28.95.75.18,1.47.21,2.37.21,2.41,0,0,0,.02,0,.03v.12c0,.47-.38.85-.85.85ZM68.11,72.38c-.41,0-.77-.29-.84-.7-.14-.79-.31-1.58-.49-2.35-.11-.46.18-.92.63-1.03.46-.11.92.18,1.03.63.19.8.36,1.63.51,2.44.08.46-.23.91-.69.99-.05,0-.1.01-.15.01ZM66.98,67.62c-.37,0-.71-.24-.82-.61-.23-.77-.48-1.53-.76-2.27-.16-.44.06-.93.51-1.1.44-.16.93.06,1.1.51.28.77.55,1.57.79,2.37.14.45-.12.93-.57,1.06-.08.02-.16.04-.24.04ZM65.29,63.03c-.33,0-.64-.19-.78-.51-.33-.73-.68-1.45-1.05-2.13-.23-.41-.07-.93.34-1.16.41-.23.93-.07,1.16.34.39.72.77,1.48,1.11,2.25.19.43,0,.94-.43,1.13-.11.05-.23.08-.35.08ZM62.95,58.75c-.28,0-.55-.13-.71-.38-.44-.67-.91-1.31-1.39-1.91-.3-.37-.24-.91.13-1.2.37-.3.91-.24,1.2.13.52.64,1.02,1.33,1.49,2.04.26.39.15.92-.24,1.18-.15.1-.31.14-.47.14ZM59.88,54.96c-.22,0-.44-.08-.61-.25-.55-.56-1.14-1.08-1.74-1.56-.37-.29-.43-.83-.13-1.2.29-.37.83-.43,1.2-.13.65.52,1.29,1.09,1.89,1.69.33.33.33.88,0,1.21-.17.17-.39.25-.6.25ZM21.67,54.18c-.47,0-.85-.38-.85-.85,0-.33.19-.62.47-.76.14-.07.69-.36,1.58-.77.43-.2.94,0,1.13.42.2.43,0,.94-.42,1.13-.89.41-1.41.68-1.51.73-.12.07-.26.1-.4.1ZM25.48,52.45c-.34,0-.66-.2-.79-.53-.18-.44.03-.94.47-1.11.76-.31,1.54-.6,2.32-.88.44-.16.93.07,1.09.52.16.44-.07.93-.52,1.09-.76.27-1.51.56-2.25.86-.11.04-.21.06-.32.06ZM56.08,51.92c-.15,0-.31-.04-.45-.13-.66-.41-1.35-.78-2.05-1.12-.43-.2-.61-.71-.41-1.14.2-.43.71-.61,1.14-.41.76.36,1.51.77,2.23,1.21.4.25.52.78.27,1.18-.16.26-.44.4-.73.4ZM30.08,50.81c-.37,0-.7-.24-.82-.6-.14-.45.11-.93.56-1.07.79-.25,1.6-.47,2.39-.68.46-.12.92.15,1.04.61.12.46-.15.92-.61,1.04-.77.2-1.54.42-2.31.66-.08.03-.17.04-.25.04ZM51.68,49.85c-.09,0-.18-.01-.27-.04-.73-.24-1.49-.45-2.26-.62-.46-.1-.75-.56-.65-1.02.1-.46.56-.75,1.02-.65.83.18,1.65.41,2.43.67.45.15.69.64.54,1.08-.12.36-.45.58-.81.58ZM34.81,49.58c-.4,0-.75-.28-.84-.68-.1-.46.2-.92.66-1.01.82-.17,1.64-.33,2.44-.45.47-.07.9.24.98.71.07.47-.24.9-.71.98-.78.12-1.57.27-2.36.44-.06.01-.12.02-.18.02ZM39.63,48.82c-.43,0-.8-.33-.85-.77-.05-.47.29-.89.76-.94.84-.09,1.67-.15,2.49-.18.46-.02.87.35.89.82.02.47-.35.87-.82.89-.78.03-1.58.09-2.38.17-.03,0-.06,0-.09,0ZM46.94,48.8s-.07,0-.1,0c-.76-.09-1.56-.15-2.36-.17-.47-.01-.84-.41-.83-.88.01-.47.41-.84.88-.83.85.03,1.69.09,2.51.18.47.06.8.48.75.95-.05.43-.42.75-.85.75Z"/>
        <g>
          <path class="cls-3" d="M29.55,51.76c0-2.86-2.32-5.18-5.18-5.18-2.86,0-5.18,2.32-5.18,5.18,0,2.86,2.32,5.18,5.18,5.18,2.86,0,5.18-2.32,5.18-5.18Z"/>
          <path class="cls-2" d="M30.23,51.76c0-3.24-2.63-5.87-5.87-5.87-3.24,0-5.87,2.63-5.87,5.87,0,3.24,2.63,5.87,5.87,5.87,3.24,0,5.87-2.63,5.87-5.87,0-3.24,0,3.24,0,0ZM19.87,51.76c0-2.48,2.02-4.49,4.49-4.49,2.48,0,4.49,2.02,4.49,4.49,0,2.48-2.02,4.49-4.49,4.49-2.48,0-4.49-2.02-4.49-4.49,0-2.48,0,2.48,0,0Z"/>
        </g>
        <polygon class="cls-2" points="72.02 100.63 68.83 101.99 65.64 100.63 68.83 108.19 72.02 100.63"/>
        <circle class="cls-2" cx="68.93" cy="111.97" r="2.91"/>
        <path class="cls-4" d="M23.71,54.1h2.45c.24,0,.43.05.56.15.13.1.19.24.19.41,0,.15-.05.28-.15.39-.1.11-.26.16-.46.16h-3.45c-.23,0-.42-.06-.55-.19-.13-.13-.2-.28-.2-.46,0-.11.04-.26.13-.45.08-.19.18-.33.28-.44.42-.43.79-.8,1.13-1.11.33-.31.57-.51.72-.61.26-.18.47-.36.64-.55s.3-.37.39-.56.13-.38.13-.57c0-.2-.05-.38-.14-.54s-.23-.28-.39-.37-.34-.13-.54-.13c-.41,0-.73.18-.97.54-.03.05-.08.17-.16.38-.07.21-.16.37-.25.48-.09.11-.23.17-.41.17-.16,0-.29-.05-.39-.15-.1-.1-.16-.24-.16-.42,0-.22.05-.44.15-.68.1-.23.24-.45.43-.64.19-.19.44-.34.73-.46.3-.12.64-.18,1.04-.18.48,0,.89.08,1.22.23.22.1.41.24.58.41.17.18.3.38.39.61.09.23.14.47.14.72,0,.39-.1.74-.29,1.06-.19.32-.39.57-.59.75-.2.18-.54.46-1.01.85-.47.38-.79.68-.97.9-.08.08-.15.19-.23.31Z"/>
      </g>
    </g>
  </g>
</svg>