<?xml version="1.0" encoding="UTF-8"?>
<svg id="Layer_2" data-name="Layer 2" xmlns="http://www.w3.org/2000/svg" viewBox="0 0 143.19 223.3">
  <defs>
    <style>
      .cls-1, .cls-2, .cls-3, .cls-4 {
        stroke-width: 0px;
      }

      .cls-2 {
        fill: #6f6f6e;
      }

      .cls-3 {
        fill: #fff;
      }

      .cls-4 {
        fill: #ff0600;
      }
    </style>
  </defs>
  <g id="B">
    <g>
      <g>
        <path class="cls-2" d="M45.2,99.17c-.45,0-.89-.18-1.21-.54-.59-.66-.53-1.67.13-2.26.07-.06.74-.65,2.19-1.48.77-.44,1.76-.17,2.2.6.44.77.17,1.76-.6,2.2-1.14.65-1.64,1.08-1.64,1.09-.31.27-.69.4-1.06.4Z"/>
        <path class="cls-2" d="M79.7,223.3s-.02,0-.03,0c-1.6-.03-3.18-.08-4.72-.17-.89-.05-1.57-.81-1.52-1.7.05-.89.8-1.57,1.7-1.52,1.5.08,3.04.14,4.6.16.89.02,1.6.75,1.59,1.64-.02.88-.73,1.59-1.61,1.59ZM84.36,223.28c-.87,0-1.58-.69-1.61-1.56-.03-.89.67-1.64,1.56-1.67,1.53-.05,3.05-.16,4.53-.32.88-.09,1.68.55,1.77,1.43s-.55,1.68-1.43,1.77c-1.56.17-3.16.28-4.76.33-.02,0-.04,0-.06,0ZM70.39,222.78c-.05,0-.11,0-.16,0-1.6-.16-3.18-.35-4.71-.58-.88-.13-1.49-.95-1.36-1.83.13-.88.95-1.49,1.83-1.36,1.47.22,3,.4,4.55.56.89.09,1.53.88,1.45,1.76-.08.83-.78,1.46-1.6,1.46ZM93.62,222.28c-.76,0-1.44-.54-1.58-1.32-.16-.88.42-1.72,1.29-1.88,1.49-.27,2.98-.61,4.42-1,.86-.23,1.75.28,1.98,1.14.23.86-.28,1.75-1.14,1.98-1.52.41-3.09.76-4.67,1.06-.1.02-.2.03-.29.03ZM61.17,221.4c-.11,0-.22-.01-.33-.03-1.59-.33-3.15-.7-4.64-1.1-.86-.23-1.37-1.12-1.13-1.98.23-.86,1.12-1.37,1.98-1.13,1.42.39,2.91.74,4.43,1.06.87.18,1.44,1.03,1.26,1.9-.16.76-.83,1.29-1.58,1.29ZM102.61,219.86c-.66,0-1.28-.41-1.52-1.06-.3-.84.13-1.76.97-2.07,1.42-.51,2.82-1.09,4.17-1.73.81-.38,1.77-.03,2.14.78.38.81.03,1.77-.78,2.14-1.44.67-2.93,1.29-4.44,1.83-.18.07-.37.1-.55.1ZM52.18,218.93c-.18,0-.37-.03-.55-.1-1.57-.57-3.07-1.18-4.46-1.84-.8-.38-1.15-1.34-.77-2.15.38-.8,1.34-1.15,2.15-.77,1.29.61,2.69,1.19,4.16,1.72.84.3,1.27,1.23.97,2.06-.24.66-.86,1.07-1.52,1.07ZM111.05,215.92c-.56,0-1.1-.29-1.4-.8-.45-.77-.19-1.76.59-2.21,1.29-.75,2.57-1.57,3.79-2.44.73-.51,1.73-.34,2.25.38.51.73.34,1.73-.38,2.25-1.3.92-2.66,1.8-4.04,2.6-.25.15-.53.22-.81.22ZM118.64,210.55c-.46,0-.91-.19-1.23-.57-.58-.68-.5-1.7.18-2.27,1.14-.97,2.25-2.01,3.31-3.08.63-.63,1.65-.64,2.28-.02.63.63.64,1.65.02,2.28-1.13,1.14-2.31,2.24-3.52,3.27-.3.26-.68.39-1.05.39ZM125.18,203.92c-.36,0-.73-.12-1.03-.37-.68-.57-.78-1.59-.21-2.27.95-1.15,1.88-2.36,2.76-3.6.51-.73,1.52-.9,2.25-.39.73.51.9,1.52.39,2.25-.92,1.31-1.9,2.59-2.91,3.8-.32.38-.78.58-1.24.58ZM130.56,196.31c-.28,0-.57-.07-.83-.23-.76-.46-1.01-1.45-.56-2.21.77-1.28,1.5-2.62,2.19-3.98.4-.8,1.37-1.11,2.17-.71.8.4,1.11,1.37.71,2.17-.72,1.43-1.5,2.84-2.3,4.18-.3.51-.84.79-1.39.79ZM134.77,188c-.21,0-.42-.04-.63-.13-.82-.35-1.2-1.3-.85-2.12.59-1.38,1.14-2.81,1.65-4.25.3-.84,1.22-1.28,2.06-.98.84.3,1.28,1.22.98,2.06-.53,1.51-1.11,3-1.72,4.44-.26.61-.86.98-1.49.98ZM137.88,179.21c-.15,0-.3-.02-.45-.06-.86-.25-1.35-1.14-1.1-2,.42-1.44.81-2.93,1.15-4.43.2-.87,1.07-1.41,1.94-1.21.87.2,1.41,1.07,1.21,1.94-.36,1.55-.76,3.1-1.2,4.6-.2.71-.85,1.16-1.55,1.16ZM139.99,170.13c-.09,0-.19,0-.28-.03-.88-.16-1.46-.99-1.31-1.87.27-1.49.5-3.01.7-4.53.11-.88.92-1.51,1.81-1.39.88.11,1.51.92,1.39,1.81-.2,1.57-.45,3.15-.72,4.69-.14.78-.82,1.33-1.59,1.33ZM141.2,160.88s-.09,0-.14,0c-.89-.07-1.55-.85-1.47-1.74.13-1.5.22-3.04.29-4.59.04-.89.78-1.58,1.68-1.55.89.04,1.58.79,1.55,1.68-.07,1.59-.16,3.18-.29,4.72-.07.84-.78,1.48-1.61,1.48ZM141.58,151.56c-.89,0-1.61-.72-1.61-1.61v-.07c0-1.51-.05-3.02-.14-4.49-.06-.89.62-1.66,1.51-1.71.89-.06,1.66.62,1.71,1.51.1,1.53.15,3.11.15,4.69v.07c0,.89-.72,1.61-1.61,1.61ZM140.99,142.26c-.8,0-1.49-.59-1.6-1.4-.2-1.51-.45-3.02-.75-4.48-.18-.87.38-1.73,1.25-1.91.87-.18,1.73.38,1.91,1.25.32,1.54.58,3.12.79,4.71.12.88-.51,1.69-1.39,1.81-.07,0-.14.01-.21.01ZM139.1,133.14c-.7,0-1.35-.46-1.55-1.17-.42-1.46-.9-2.9-1.42-4.3-.31-.83.11-1.76.94-2.08.83-.31,1.76.11,2.08.94.55,1.48,1.06,3.01,1.5,4.55.25.86-.25,1.75-1.1,2-.15.04-.3.06-.45.06ZM135.83,124.43c-.61,0-1.18-.34-1.46-.93-.64-1.36-1.35-2.71-2.1-4.01-.45-.77-.18-1.76.59-2.2.77-.45,1.76-.18,2.2.59.8,1.38,1.54,2.8,2.22,4.25.38.81.04,1.77-.77,2.15-.22.1-.46.15-.69.15ZM131.16,116.37c-.51,0-1.01-.24-1.33-.69-.86-1.23-1.78-2.44-2.74-3.6-.57-.69-.47-1.7.21-2.27.69-.57,1.7-.47,2.27.21,1.02,1.23,1.99,2.51,2.9,3.82.51.73.33,1.74-.4,2.25-.28.2-.6.29-.92.29ZM125.23,109.19c-.42,0-.84-.16-1.15-.49-1.05-1.07-2.15-2.12-3.29-3.11-.67-.59-.74-1.6-.16-2.28.59-.67,1.6-.74,2.28-.16,1.2,1.05,2.38,2.16,3.48,3.29.62.64.61,1.66-.03,2.28-.31.31-.72.46-1.13.46ZM118.2,103.06c-.33,0-.67-.1-.96-.32-1.21-.9-2.47-1.76-3.75-2.56-.75-.47-.98-1.47-.51-2.22.47-.75,1.47-.98,2.22-.51,1.35.85,2.68,1.76,3.95,2.7.72.53.86,1.54.33,2.26-.32.43-.8.65-1.3.65ZM110.31,98.1c-.25,0-.51-.06-.75-.19-1.33-.7-2.71-1.37-4.09-1.97-.82-.36-1.19-1.31-.83-2.12.36-.82,1.31-1.19,2.12-.83,1.46.64,2.91,1.33,4.31,2.08.79.42,1.09,1.39.67,2.18-.29.55-.85.86-1.43.86ZM51.33,95.92c-.65,0-1.26-.39-1.5-1.03-.32-.83.09-1.77.92-2.09,1.41-.55,2.94-1.06,4.57-1.52.86-.24,1.75.25,1.99,1.11.24.86-.25,1.75-1.11,1.99-1.53.44-2.97.91-4.28,1.43-.19.07-.39.11-.58.11ZM101.77,94.37c-.18,0-.36-.03-.53-.09-1.43-.5-2.89-.95-4.34-1.33-.86-.23-1.38-1.11-1.15-1.97.23-.86,1.11-1.38,1.97-1.15,1.53.4,3.07.88,4.58,1.4.84.29,1.29,1.21.99,2.05-.23.67-.86,1.08-1.52,1.08ZM60.28,93.33c-.75,0-1.42-.52-1.58-1.28-.18-.87.37-1.73,1.25-1.91,1.49-.32,3.07-.6,4.68-.85.88-.13,1.7.47,1.84,1.35.14.88-.47,1.7-1.35,1.84-1.55.24-3.07.51-4.5.82-.11.02-.22.04-.33.04ZM92.75,91.99c-.09,0-.19,0-.29-.03-1.5-.27-3.01-.47-4.48-.6-.89-.08-1.54-.86-1.46-1.75.08-.89.86-1.54,1.75-1.46,1.56.14,3.17.35,4.77.64.88.16,1.46.99,1.3,1.87-.14.78-.82,1.33-1.59,1.33ZM69.49,91.9c-.81,0-1.51-.61-1.6-1.44-.09-.89.55-1.68,1.43-1.78,1.52-.16,3.11-.3,4.71-.41.89-.06,1.66.61,1.72,1.5.06.89-.61,1.66-1.5,1.72-1.56.1-3.1.24-4.58.4-.06,0-.12,0-.17,0ZM78.8,91.27c-.87,0-1.58-.69-1.61-1.56-.03-.89.67-1.64,1.56-1.67,1.53-.05,3.12-.08,4.71-.08h0c.89,0,1.61.72,1.61,1.61,0,.89-.72,1.62-1.61,1.62-1.56,0-3.12.03-4.62.08-.02,0-.04,0-.05,0Z"/>
        <path class="cls-2" d="M43.69,214.81c-.31,0-.62-.09-.9-.27-1.34-.9-1.99-1.52-2.06-1.59-.64-.62-.65-1.64-.03-2.28.62-.64,1.64-.65,2.28-.03h0s.51.48,1.6,1.21c.74.5.94,1.5.44,2.24-.31.46-.82.71-1.34.71Z"/>
      </g>
      <g>
        <g>
          <path class="cls-2" d="M9.44,188.35v-4.88c0-.9.73-1.63,1.63-1.63s1.63.73,1.63,1.63v4.88c0,.9-.73,1.63-1.63,1.63s-1.63-.73-1.63-1.63ZM9.44,178.6v-4.88c0-.9.73-1.63,1.63-1.63s1.63.73,1.63,1.63v4.88c0,.9-.73,1.63-1.63,1.63s-1.63-.73-1.63-1.63ZM9.44,168.84v-4.88c0-.9.73-1.63,1.63-1.63s1.63.73,1.63,1.63v4.88c0,.9-.73,1.63-1.63,1.63s-1.63-.73-1.63-1.63ZM9.45,158.86v-4.88c0-.9.73-1.63,1.63-1.63s1.63.73,1.63,1.63v4.88c0,.9-.73,1.63-1.63,1.63s-1.63-.73-1.63-1.63ZM9.45,149.11v-4.88c0-.9.73-1.63,1.63-1.63s1.63.73,1.63,1.63v4.88c0,.9-.73,1.63-1.63,1.63s-1.63-.73-1.63-1.63ZM9.45,139.36v-4.88c0-.9.73-1.63,1.63-1.63s1.63.73,1.63,1.63v4.88c0,.9-.73,1.63-1.63,1.63s-1.63-.73-1.63-1.63ZM9.45,129.6v-4.88c0-.9.73-1.63,1.63-1.63s1.63.73,1.63,1.63v4.88c0,.9-.73,1.63-1.63,1.63s-1.63-.73-1.63-1.63ZM9.45,119.85v-4.88c0-.9.73-1.63,1.63-1.63s1.63.73,1.63,1.63v4.88c0,.9-.73,1.63-1.63,1.63s-1.63-.73-1.63-1.63Z"/>
          <path class="cls-2" d="M9.44,109.76v-4.88c0-.9.73-1.63,1.63-1.63s1.63.73,1.63,1.63v4.88c0,.9-.73,1.63-1.63,1.63s-1.63-.73-1.63-1.63ZM9.44,100.01v-4.88c0-.9.73-1.63,1.63-1.63s1.63.73,1.63,1.63v4.88c0,.9-.73,1.63-1.63,1.63s-1.63-.73-1.63-1.63ZM9.44,90.25v-4.88c0-.9.73-1.63,1.63-1.63s1.63.73,1.63,1.63v4.88c0,.9-.73,1.63-1.63,1.63s-1.63-.73-1.63-1.63ZM9.45,80.28v-4.88c0-.9.73-1.63,1.63-1.63s1.63.73,1.63,1.63v4.88c0,.9-.73,1.63-1.63,1.63s-1.63-.73-1.63-1.63ZM9.45,70.52v-4.88c0-.9.73-1.63,1.63-1.63s1.63.73,1.63,1.63v4.88c0,.9-.73,1.63-1.63,1.63s-1.63-.73-1.63-1.63ZM9.45,60.77v-4.88c0-.9.73-1.63,1.63-1.63s1.63.73,1.63,1.63v4.88c0,.9-.73,1.63-1.63,1.63s-1.63-.73-1.63-1.63ZM9.45,51.01v-4.88c0-.9.73-1.63,1.63-1.63s1.63.73,1.63,1.63v4.88c0,.9-.73,1.63-1.63,1.63s-1.63-.73-1.63-1.63ZM9.45,41.26v-4.88c0-.9.73-1.63,1.63-1.63s1.63.73,1.63,1.63v4.88c0,.9-.73,1.63-1.63,1.63s-1.63-.73-1.63-1.63ZM9.45,31.42v-4.88c0-.9.73-1.63,1.63-1.63s1.63.73,1.63,1.63v4.88c0,.9-.73,1.63-1.63,1.63s-1.63-.73-1.63-1.63Z"/>
          <g>
            <path class="cls-3" d="M20.86,12.2c0-5.4-4.38-9.78-9.78-9.78S1.3,6.8,1.3,12.2c0,5.4,4.38,9.78,9.78,9.78s9.78-4.38,9.78-9.78Z"/>
            <path class="cls-2" d="M22.16,12.2c0-6.11-4.97-11.08-11.08-11.08C4.97,1.12,0,6.09,0,12.2c0,6.11,4.97,11.08,11.08,11.08s11.08-4.97,11.08-11.08c0-6.11,0,6.11,0,0ZM2.6,12.2c0-4.68,3.8-8.48,8.48-8.48s8.48,3.8,8.48,8.48c0,4.68-3.8,8.48-8.48,8.48-4.68,0-8.48-3.8-8.48-8.48,0-4.68,0,4.68,0,0Z"/>
          </g>
          <polygon class="cls-2" points="17.08 188.25 11.06 190.81 5.04 188.25 11.06 202.52 17.08 188.25"/>
        </g>
        <g>
          <g>
            <path class="cls-3" d="M37.69,87.63c-3.41,4.19-2.79,10.35,1.4,13.76,4.18,3.41,10.35,2.79,13.76-1.4,3.41-4.18,2.79-10.35-1.4-13.76-4.18-3.41-10.35-2.79-13.76,1.4Z"/>
            <path class="cls-2" d="M36.68,86.81c-3.86,4.73-3.15,11.73,1.58,15.59s11.73,3.15,15.59-1.58c3.86-4.73,3.15-11.73-1.58-15.59s-11.73-3.15-15.59,1.58c-3.86,4.73,3.86-4.73,0,0ZM51.84,99.17c-2.96,3.62-8.31,4.17-11.93,1.21-3.62-2.96-4.17-8.31-1.21-11.93,2.96-3.62,8.31-4.17,11.93-1.21,3.62,2.96,4.17,8.31,1.21,11.93-2.96,3.62,2.96-3.62,0,0Z"/>
          </g>
          <polygon class="cls-2" points="39.83 217.64 42.41 211.63 48.53 209.31 34.31 203.16 39.83 217.64"/>
        </g>
        <path class="cls-4" d="M43.99,97.64h4.62c.46,0,.81.09,1.05.28.24.19.36.45.36.77,0,.29-.1.53-.29.73-.19.2-.48.3-.87.3h-6.52c-.44,0-.79-.12-1.04-.37-.25-.24-.37-.53-.37-.86,0-.21.08-.49.24-.85.16-.35.33-.63.52-.83.79-.81,1.49-1.51,2.13-2.09.63-.58,1.08-.96,1.35-1.15.48-.34.89-.69,1.21-1.03.32-.35.57-.7.73-1.06.17-.36.25-.72.25-1.07,0-.38-.09-.72-.27-1.01-.18-.3-.43-.53-.74-.69-.31-.17-.65-.25-1.01-.25-.77,0-1.38.34-1.82,1.02-.06.09-.16.33-.3.73-.14.4-.3.7-.47.91-.17.21-.43.32-.77.32-.3,0-.54-.1-.74-.29s-.29-.46-.29-.8c0-.41.09-.83.28-1.28.18-.44.46-.84.82-1.2.36-.36.82-.65,1.38-.87s1.21-.33,1.96-.33c.9,0,1.67.14,2.31.43.41.19.78.45,1.09.78.31.33.56.71.73,1.15.17.43.26.88.26,1.35,0,.73-.18,1.4-.54,2-.36.6-.73,1.07-1.11,1.41-.38.34-1.01.87-1.9,1.6-.89.73-1.5,1.29-1.83,1.69-.14.16-.29.35-.43.58Z"/>
        <path class="cls-2" d="M5.53,208.42c0,3.03,2.46,5.49,5.49,5.49s5.49-2.46,5.49-5.49-2.46-5.49-5.49-5.49-5.49,2.46-5.49,5.49Z"/>
      </g>
      <g>
        <path class="cls-1" d="M26.81,214.1c-1.53,0-2.77-1.24-2.77-2.77V2.77c0-1.53,1.24-2.77,2.77-2.77s2.77,1.24,2.77,2.77v208.57c0,1.53-1.24,2.77-2.77,2.77Z"/>
        <path class="cls-1" d="M77.17,214.1c-29.29,0-53.12-23.83-53.12-53.12v-9.68c0-29.29,23.83-53.12,53.12-53.12s53.12,23.83,53.12,53.12v9.68c0,29.29-23.83,53.12-53.12,53.12ZM77.17,103.71c-26.24,0-47.59,21.35-47.59,47.59v9.68c0,26.24,21.35,47.59,47.59,47.59s47.59-21.35,47.59-47.59v-9.68c0-26.24-21.35-47.59-47.59-47.59Z"/>
      </g>
    </g>
  </g>
</svg>