<?xml version="1.0" encoding="UTF-8"?>
<svg id="Layer_2" data-name="Layer 2" xmlns="http://www.w3.org/2000/svg" viewBox="0 0 85.28 113.81">
  <defs>
    <style>
      .cls-1, .cls-2, .cls-3, .cls-4 {
        stroke-width: 0px;
      }

      .cls-2 {
        fill: #6f6f6e;
      }

      .cls-3 {
        fill: #fff;
      }

      .cls-4 {
        fill: #ff0600;
      }
    </style>
  </defs>
  <g id="X">
    <g>
      <g>
        <path class="cls-1" d="M71.84,113.8c-.52,0-1.03-.28-1.3-.78L11.93,2.64c-.38-.71-.11-1.6.61-1.98.71-.38,1.6-.11,1.98.61l58.61,110.38c.38.71.11,1.6-.61,1.98-.22.12-.45.17-.69.17Z"/>
        <path class="cls-1" d="M13.23,113.8c-.23,0-.47-.06-.69-.17-.71-.38-.99-1.27-.61-1.98L70.54,1.27c.38-.71,1.27-.99,1.98-.61.71.38.99,1.27.61,1.98L14.52,113.02c-.26.5-.77.78-1.3.78Z"/>
      </g>
      <g>
        <path class="cls-2" d="M60.44,105.69c-.3,0-.59-.16-.75-.44l-.25-.45c-.23-.41-.08-.93.34-1.16.41-.23.93-.08,1.16.34l.25.45c.23.41.08.93-.34,1.16-.13.07-.27.11-.41.11ZM59.02,103.1c-.3,0-.59-.16-.75-.44l-1.17-2.14c-.23-.41-.08-.93.34-1.16.41-.23.93-.08,1.16.34l1.17,2.14c.23.41.08.93-.34,1.16-.13.07-.27.11-.41.11ZM56.67,98.82c-.3,0-.59-.16-.75-.44l-1.17-2.14c-.23-.41-.08-.93.34-1.16.41-.23.93-.08,1.16.34l1.17,2.14c.23.41.08.93-.34,1.16-.13.07-.27.11-.41.11ZM54.32,94.54c-.3,0-.59-.16-.75-.44l-1.17-2.14c-.23-.41-.08-.93.34-1.16.41-.23.93-.08,1.16.34l1.17,2.14c.23.41.08.93-.34,1.16-.13.07-.27.11-.41.11ZM51.97,90.25c-.3,0-.59-.16-.75-.44l-1.17-2.14c-.23-.41-.08-.93.34-1.16.41-.23.93-.08,1.16.34l1.17,2.14c.23.41.08.93-.34,1.16-.13.07-.27.11-.41.11ZM49.62,85.97c-.3,0-.59-.16-.75-.44l-1.17-2.14c-.23-.41-.08-.93.34-1.16.41-.23.93-.08,1.16.34l1.17,2.14c.23.41.08.93-.34,1.16-.13.07-.27.11-.41.11ZM47.27,81.69c-.3,0-.59-.16-.75-.44l-1.17-2.14c-.23-.41-.08-.93.34-1.16.41-.23.93-.08,1.16.34l1.17,2.14c.23.41.08.93-.34,1.16-.13.07-.27.11-.41.11ZM44.92,77.41c-.3,0-.59-.16-.75-.44l-1.17-2.14c-.23-.41-.08-.93.34-1.16.41-.23.93-.08,1.16.34l1.17,2.14c.23.41.08.93-.34,1.16-.13.07-.27.11-.41.11ZM42.57,73.13c-.3,0-.59-.16-.75-.44l-1.17-2.14c-.23-.41-.08-.93.34-1.16.41-.23.93-.08,1.16.34l1.17,2.14c.23.41.08.93-.34,1.16-.13.07-.27.11-.41.11ZM40.22,68.84c-.3,0-.59-.16-.75-.44l-1.17-2.14c-.23-.41-.08-.93.34-1.16.41-.23.93-.08,1.16.34l1.17,2.14c.23.41.08.93-.34,1.16-.13.07-.27.11-.41.11ZM37.87,64.56c-.3,0-.59-.16-.75-.44l-1.17-2.14c-.23-.41-.08-.93.34-1.16.41-.23.93-.08,1.16.34l1.17,2.14c.23.41.08.93-.34,1.16-.13.07-.27.11-.41.11ZM35.52,60.28c-.3,0-.59-.16-.75-.44l-1.17-2.14c-.23-.41-.08-.93.34-1.16.41-.23.93-.08,1.16.34l1.17,2.14c.23.41.08.93-.34,1.16-.13.07-.27.11-.41.11ZM33.18,56c-.3,0-.59-.16-.75-.44l-1.17-2.14c-.23-.41-.08-.93.34-1.16.41-.23.93-.08,1.16.34l1.17,2.14c.23.41.08.93-.34,1.16-.13.07-.27.11-.41.11ZM30.83,51.72c-.3,0-.59-.16-.75-.44l-1.17-2.14c-.23-.41-.08-.93.34-1.16.41-.23.93-.08,1.16.34l1.17,2.14c.23.41.08.93-.34,1.16-.13.07-.27.11-.41.11ZM28.48,47.43c-.3,0-.59-.16-.75-.44l-1.17-2.14c-.23-.41-.08-.93.34-1.16.41-.23.93-.08,1.16.34l1.17,2.14c.23.41.08.93-.34,1.16-.13.07-.27.11-.41.11ZM26.13,43.15c-.3,0-.59-.16-.75-.44l-1.17-2.14c-.23-.41-.08-.93.34-1.16.41-.23.93-.08,1.16.34l1.17,2.14c.23.41.08.93-.34,1.16-.13.07-.27.11-.41.11ZM23.78,38.87c-.3,0-.59-.16-.75-.44l-1.17-2.14c-.23-.41-.08-.93.34-1.16.41-.23.93-.08,1.16.34l1.17,2.14c.23.41.08.93-.34,1.16-.13.07-.27.11-.41.11ZM21.43,34.59c-.3,0-.59-.16-.75-.44l-1.17-2.14c-.23-.41-.08-.93.34-1.16.41-.23.93-.08,1.16.34l1.17,2.14c.23.41.08.93-.34,1.16-.13.07-.27.11-.41.11ZM19.08,30.31c-.3,0-.59-.16-.75-.44l-1.17-2.14c-.23-.41-.08-.93.34-1.16.41-.23.93-.08,1.16.34l1.17,2.14c.23.41.08.93-.34,1.16-.13.07-.27.11-.41.11ZM16.73,26.03c-.3,0-.59-.16-.75-.44l-1.17-2.14c-.23-.41-.08-.93.34-1.16.41-.23.93-.08,1.16.34l1.17,2.14c.23.41.08.93-.34,1.16-.13.07-.27.11-.41.11ZM14.38,21.74c-.3,0-.59-.16-.75-.44l-1.17-2.14c-.23-.41-.08-.93.34-1.16.41-.23.93-.08,1.16.34l1.17,2.14c.23.41.08.93-.34,1.16-.13.07-.27.11-.41.11ZM12.03,17.46c-.3,0-.59-.16-.75-.44l-1.17-2.14c-.23-.41-.08-.93.34-1.16.41-.23.93-.08,1.16.34l1.17,2.14c.23.41.08.93-.34,1.16-.13.07-.27.11-.41.11ZM9.68,13.18c-.3,0-.59-.16-.75-.44l-1.17-2.14c-.23-.41-.08-.93.34-1.16.41-.23.93-.08,1.16.34l1.17,2.14c.23.41.08.93-.34,1.16-.13.07-.27.11-.41.11Z"/>
        <g>
          <path class="cls-3" d="M1.41,8.51C-.05,6.05.77,2.87,3.23,1.41,5.69-.05,8.87.77,10.33,3.23c1.46,2.46.64,5.64-1.82,7.1-2.46,1.46-5.64.64-7.1-1.82Z"/>
          <path class="cls-2" d="M.82,8.86c1.65,2.79,5.26,3.71,8.04,2.06s3.71-5.26,2.06-8.04C9.27.09,5.67-.83,2.88.82S-.83,6.07.82,8.86s-1.65-2.79,0,0ZM9.74,3.58c1.26,2.13.55,4.89-1.58,6.15-2.13,1.26-4.89.55-6.15-1.58-1.26-2.13-.55-4.89,1.58-6.15s4.89-.55,6.15,1.58c1.26,2.13-1.26-2.13,0,0Z"/>
        </g>
        <polygon class="cls-2" points="55.83 102.69 59.29 102.42 61.49 99.74 62.16 107.92 55.83 102.69"/>
        <path class="cls-4" d="M5.99,8.65l.12-4.27c-.81.59-1.36.88-1.63.87-.13,0-.25-.06-.34-.17-.1-.11-.15-.23-.14-.37,0-.16.06-.28.16-.35.1-.07.28-.16.54-.28.38-.17.69-.35.92-.54s.44-.41.62-.64c.18-.24.3-.39.36-.44.05-.05.16-.08.3-.08.17,0,.3.07.39.2.1.13.14.31.13.53l-.15,5.37c-.02.63-.24.94-.67.92-.19,0-.34-.07-.45-.21-.11-.13-.16-.32-.16-.57Z"/>
        <path class="cls-2" d="M66.66,111.93c.57-1.5-.19-3.18-1.69-3.75-1.5-.57-3.18.19-3.75,1.69-.57,1.5.19,3.18,1.69,3.75s3.18-.19,3.75-1.69Z"/>
      </g>
      <g>
        <path class="cls-2" d="M24.84,105.69c-.14,0-.28-.03-.41-.11-.41-.23-.57-.75-.34-1.16l.25-.45c.23-.41.75-.57,1.16-.34.41.23.57.75.34,1.16l-.25.45c-.16.28-.45.44-.75.44ZM26.26,103.1c-.14,0-.28-.03-.41-.11-.41-.23-.57-.75-.34-1.16l1.17-2.14c.23-.41.75-.57,1.16-.34.41.23.57.75.34,1.16l-1.17,2.14c-.16.28-.45.44-.75.44ZM28.61,98.82c-.14,0-.28-.03-.41-.11-.41-.23-.57-.75-.34-1.16l1.17-2.14c.23-.41.75-.57,1.16-.34.41.23.57.75.34,1.16l-1.17,2.14c-.16.28-.45.44-.75.44ZM30.96,94.54c-.14,0-.28-.03-.41-.11-.41-.23-.57-.75-.34-1.16l1.17-2.14c.23-.41.75-.56,1.16-.34.41.23.57.75.34,1.16l-1.17,2.14c-.16.28-.45.44-.75.44ZM33.31,90.25c-.14,0-.28-.03-.41-.11-.41-.23-.57-.75-.34-1.16l1.17-2.14c.23-.41.75-.57,1.16-.34.41.23.57.75.34,1.16l-1.17,2.14c-.16.28-.45.44-.75.44ZM35.66,85.97c-.14,0-.28-.03-.41-.11-.41-.23-.57-.75-.34-1.16l1.17-2.14c.23-.41.75-.57,1.16-.34.41.23.57.75.34,1.16l-1.17,2.14c-.16.28-.45.44-.75.44ZM38.01,81.69c-.14,0-.28-.03-.41-.11-.41-.23-.57-.75-.34-1.16l1.17-2.14c.23-.41.75-.57,1.16-.34.41.23.57.75.34,1.16l-1.17,2.14c-.16.28-.45.44-.75.44ZM40.36,77.41c-.14,0-.28-.03-.41-.11-.41-.23-.57-.75-.34-1.16l1.17-2.14c.23-.41.75-.57,1.16-.34.41.23.57.75.34,1.16l-1.17,2.14c-.16.28-.45.44-.75.44ZM42.71,73.13c-.14,0-.28-.03-.41-.11-.41-.23-.57-.75-.34-1.16l1.17-2.14c.23-.41.75-.57,1.16-.34.41.23.57.75.34,1.16l-1.17,2.14c-.16.28-.45.44-.75.44ZM45.06,68.84c-.14,0-.28-.03-.41-.11-.41-.23-.57-.75-.34-1.16l1.17-2.14c.23-.41.75-.57,1.16-.34.41.23.57.75.34,1.16l-1.17,2.14c-.16.28-.45.44-.75.44ZM47.41,64.56c-.14,0-.28-.03-.41-.11-.41-.23-.57-.75-.34-1.16l1.17-2.14c.23-.41.75-.57,1.16-.34.41.23.57.75.34,1.16l-1.17,2.14c-.16.28-.45.44-.75.44ZM49.76,60.28c-.14,0-.28-.03-.41-.11-.41-.23-.57-.75-.34-1.16l1.17-2.14c.23-.41.75-.57,1.16-.34.41.23.57.75.34,1.16l-1.17,2.14c-.16.28-.45.44-.75.44ZM52.11,56c-.14,0-.28-.03-.41-.11-.41-.23-.57-.75-.34-1.16l1.17-2.14c.23-.41.75-.57,1.16-.34.41.23.57.75.34,1.16l-1.17,2.14c-.16.28-.45.44-.75.44ZM54.46,51.72c-.14,0-.28-.03-.41-.11-.41-.23-.57-.75-.34-1.16l1.17-2.14c.23-.41.75-.57,1.16-.34.41.23.57.75.34,1.16l-1.17,2.14c-.16.28-.45.44-.75.44ZM56.8,47.43c-.14,0-.28-.03-.41-.11-.41-.23-.57-.75-.34-1.16l1.17-2.14c.23-.41.75-.56,1.16-.34.41.23.57.75.34,1.16l-1.17,2.14c-.16.28-.45.44-.75.44ZM59.15,43.15c-.14,0-.28-.03-.41-.11-.41-.23-.57-.75-.34-1.16l1.17-2.14c.23-.41.75-.57,1.16-.34.41.23.57.75.34,1.16l-1.17,2.14c-.16.28-.45.44-.75.44ZM61.5,38.87c-.14,0-.28-.03-.41-.11-.41-.23-.57-.75-.34-1.16l1.17-2.14c.23-.41.75-.56,1.16-.34.41.23.57.75.34,1.16l-1.17,2.14c-.16.28-.45.44-.75.44ZM63.85,34.59c-.14,0-.28-.03-.41-.11-.41-.23-.57-.75-.34-1.16l1.17-2.14c.23-.41.75-.57,1.16-.34.41.23.57.75.34,1.16l-1.17,2.14c-.16.28-.45.44-.75.44ZM66.2,30.31c-.14,0-.28-.03-.41-.11-.41-.23-.57-.75-.34-1.16l1.17-2.14c.23-.41.75-.57,1.16-.34.41.23.57.75.34,1.16l-1.17,2.14c-.16.28-.45.44-.75.44ZM68.55,26.03c-.14,0-.28-.03-.41-.11-.41-.23-.57-.75-.34-1.16l1.17-2.14c.23-.41.75-.57,1.16-.34.41.23.57.75.34,1.16l-1.17,2.14c-.16.28-.45.44-.75.44ZM70.9,21.74c-.14,0-.28-.03-.41-.11-.41-.23-.57-.75-.34-1.16l1.17-2.14c.23-.41.75-.57,1.16-.34.41.23.57.75.34,1.16l-1.17,2.14c-.16.28-.45.44-.75.44ZM73.25,17.46c-.14,0-.28-.03-.41-.11-.41-.23-.57-.75-.34-1.16l1.17-2.14c.23-.41.75-.57,1.16-.34.41.23.57.75.34,1.16l-1.17,2.14c-.16.28-.45.44-.75.44ZM75.6,13.18c-.14,0-.28-.03-.41-.11-.41-.23-.57-.75-.34-1.16l1.17-2.14c.23-.41.75-.57,1.16-.34.41.23.57.75.34,1.16l-1.17,2.14c-.16.28-.45.44-.75.44Z"/>
        <g>
          <path class="cls-3" d="M83.87,8.51c1.46-2.46.64-5.64-1.82-7.1-2.46-1.46-5.64-.64-7.1,1.82-1.46,2.46-.64,5.64,1.82,7.1,2.46,1.46,5.64.64,7.1-1.82Z"/>
          <path class="cls-2" d="M84.46,8.86c1.65-2.79.72-6.39-2.06-8.04s-6.39-.72-8.04,2.06c-1.65,2.79-.72,6.39,2.06,8.04s6.39.72,8.04-2.06-1.65,2.79,0,0ZM75.55,3.58c1.26-2.13,4.02-2.84,6.15-1.58s2.84,4.02,1.58,6.15c-1.26,2.13-4.02,2.84-6.15,1.58-2.13-1.26-2.84-4.02-1.58-6.15,1.26-2.13-1.26,2.13,0,0Z"/>
        </g>
        <polygon class="cls-2" points="29.45 102.69 25.99 102.42 23.79 99.74 23.12 107.92 29.45 102.69"/>
        <path class="cls-2" d="M18.62,111.93c-.57-1.5.19-3.18,1.69-3.75s3.18.19,3.75,1.69c.57,1.5-.19,3.18-1.69,3.75-1.5.57-3.18-.19-3.75-1.69Z"/>
        <path class="cls-4" d="M78.65,8.02h2.45c.24-.01.43.03.56.13.13.1.19.23.19.41,0,.15-.05.28-.15.39-.1.11-.25.16-.46.16l-3.45.02c-.23,0-.42-.06-.55-.19-.13-.13-.2-.28-.2-.46,0-.11.04-.26.12-.45.08-.19.18-.33.27-.44.41-.43.79-.81,1.12-1.12.33-.31.57-.51.71-.61.26-.18.47-.37.64-.55.17-.18.3-.37.39-.56.09-.19.13-.38.13-.57,0-.2-.05-.38-.15-.54-.1-.16-.23-.28-.39-.37-.16-.09-.34-.13-.54-.13-.41,0-.73.18-.96.54-.03.05-.08.18-.15.39-.07.21-.15.37-.25.48-.09.11-.23.17-.4.17-.16,0-.29-.05-.39-.15s-.16-.24-.16-.42c0-.22.05-.44.14-.68.1-.23.24-.45.43-.64.19-.19.43-.35.73-.47.29-.12.64-.18,1.04-.18.48,0,.89.07,1.23.22.22.1.41.24.58.41.17.17.3.38.39.61.09.23.14.47.14.71,0,.39-.09.74-.28,1.06-.19.32-.39.57-.59.75-.2.18-.53.46-1,.85-.47.39-.79.69-.96.9-.07.08-.15.19-.23.31Z"/>
      </g>
    </g>
  </g>
</svg>