<?xml version="1.0" encoding="UTF-8"?>
<svg id="Layer_2" data-name="Layer 2" xmlns="http://www.w3.org/2000/svg" viewBox="0 0 71.17 110.3">
  <defs>
    <style>
      .cls-1 {
        fill: #3c3c3b;
        stroke-width: 0px;
      }
    </style>
  </defs>
  <g id="T">
    <g>
      <path class="cls-1" d="M1.61,41.82c-1.08,0-1.61-.54-1.61-1.61s.54-1.61,1.61-1.61,1.61.54,1.61,1.61-.54,1.61-1.61,1.61ZM7.89,41.82c-1.08,0-1.61-.54-1.61-1.61s.54-1.61,1.61-1.61,1.61.54,1.61,1.61-.54,1.61-1.61,1.61ZM13.63,41.82c-1.08,0-1.61-.54-1.61-1.61s.54-1.61,1.61-1.61,1.61.54,1.61,1.61-.54,1.61-1.61,1.61ZM19.37,41.82c-1.08,0-1.61-.54-1.61-1.61s.54-1.61,1.61-1.61,1.61.54,1.61,1.61-.54,1.61-1.61,1.61ZM24.75,41.82c-1.08,0-1.61-.54-1.61-1.61s.54-1.61,1.61-1.61,1.61.54,1.61,1.61-.54,1.61-1.61,1.61ZM30.31,41.82c-1.08,0-1.61-.54-1.61-1.61s.54-1.61,1.61-1.61,1.61.54,1.61,1.61-.54,1.61-1.61,1.61ZM36.59,41.82c-1.08,0-1.61-.54-1.61-1.61s.54-1.61,1.61-1.61,1.61.54,1.61,1.61-.54,1.61-1.61,1.61ZM42.87,41.82c-1.08,0-1.61-.54-1.61-1.61s.54-1.61,1.61-1.61,1.61.54,1.61,1.61-.54,1.61-1.61,1.61ZM49.14,41.82c-1.08,0-1.61-.54-1.61-1.61s.54-1.61,1.61-1.61,1.61.54,1.61,1.61-.54,1.61-1.61,1.61ZM55.24,41.82c-1.08,0-1.61-.54-1.61-1.61s.54-1.61,1.61-1.61,1.61.54,1.61,1.61-.54,1.61-1.61,1.61Z"/>
      <path class="cls-1" d="M27.23,0c1.08,0,1.61.54,1.61,1.61s-.54,1.61-1.61,1.61-1.61-.54-1.61-1.61.54-1.61,1.61-1.61ZM27.41,70.13c1.08,0,1.61.54,1.61,1.61s-.54,1.61-1.61,1.61-1.61-.54-1.61-1.61.54-1.61,1.61-1.61ZM27.41,64.39c1.08,0,1.61.54,1.61,1.61s-.54,1.61-1.61,1.61-1.61-.54-1.61-1.61.54-1.61,1.61-1.61ZM27.41,58.65c1.08,0,1.61.54,1.61,1.61s-.54,1.61-1.61,1.61-1.61-.54-1.61-1.61.54-1.61,1.61-1.61ZM27.41,53.27c1.08,0,1.61.54,1.61,1.61s-.54,1.61-1.61,1.61-1.61-.54-1.61-1.61.54-1.61,1.61-1.61ZM27.41,47.71c1.08,0,1.61.54,1.61,1.61s-.54,1.61-1.61,1.61-1.61-.54-1.61-1.61.54-1.61,1.61-1.61ZM27.41,41.43c1.08,0,1.61.54,1.61,1.61s-.54,1.61-1.61,1.61-1.61-.54-1.61-1.61.54-1.61,1.61-1.61ZM27.41,35.15c1.08,0,1.61.54,1.61,1.61s-.54,1.61-1.61,1.61-1.61-.54-1.61-1.61.54-1.61,1.61-1.61ZM27.41,28.88c1.08,0,1.61.54,1.61,1.61s-.54,1.61-1.61,1.61-1.61-.54-1.61-1.61.54-1.61,1.61-1.61ZM27.41,21.88c1.08,0,1.61.54,1.61,1.61s-.54,1.61-1.61,1.61-1.61-.54-1.61-1.61.54-1.61,1.61-1.61ZM27.41,16.14c1.08,0,1.61.54,1.61,1.61s-.54,1.61-1.61,1.61-1.61-.54-1.61-1.61.54-1.61,1.61-1.61ZM27.41,10.76c1.08,0,1.61.54,1.61,1.61s-.54,1.61-1.61,1.61-1.61-.54-1.61-1.61.54-1.61,1.61-1.61ZM27.41,5.2c1.08,0,1.61.54,1.61,1.61s-.54,1.61-1.61,1.61-1.61-.54-1.61-1.61.54-1.61,1.61-1.61ZM27.77,76.41c1.08,0,1.61.54,1.61,1.61s-.54,1.61-1.61,1.61-1.61-.54-1.61-1.61.54-1.61,1.61-1.61ZM28.48,82.68c1.08,0,1.61.54,1.61,1.61s-.54,1.61-1.61,1.61-1.61-.54-1.61-1.61.54-1.61,1.61-1.61ZM29.56,89.14c1.08,0,1.61.54,1.61,1.61s-.54,1.61-1.61,1.61-1.61-.54-1.61-1.61.54-1.61,1.61-1.61ZM31.89,94.88c1.08,0,1.61.54,1.61,1.61s-.54,1.61-1.61,1.61-1.61-.54-1.61-1.61.54-1.61,1.61-1.61ZM35.3,99.9c1.08,0,1.61.54,1.61,1.61s-.54,1.61-1.61,1.61-1.61-.54-1.61-1.61.54-1.61,1.61-1.61ZM39.6,103.49c1.08,0,1.61.54,1.61,1.61s-.54,1.61-1.61,1.61-1.61-.54-1.61-1.61.54-1.61,1.61-1.61ZM44.63,106.18c1.08,0,1.61.54,1.61,1.61s-.54,1.61-1.61,1.61-1.61-.54-1.61-1.61.54-1.61,1.61-1.61ZM49.65,107.08c1.08,0,1.61.54,1.61,1.61s-.54,1.61-1.61,1.61-1.61-.54-1.61-1.61.54-1.61,1.61-1.61ZM55.21,106.36c1.08,0,1.61.54,1.61,1.61s-.54,1.61-1.61,1.61-1.61-.54-1.61-1.61.54-1.61,1.61-1.61ZM59.69,103.13c1.08,0,1.61.54,1.61,1.61s-.54,1.61-1.61,1.61-1.61-.54-1.61-1.61.54-1.61,1.61-1.61ZM63.82,98.83c1.08,0,1.61.54,1.61,1.61s-.54,1.61-1.61,1.61-1.61-.54-1.61-1.61.54-1.61,1.61-1.61ZM67.04,93.98c1.08,0,1.61.54,1.61,1.61s-.54,1.61-1.61,1.61-1.61-.54-1.61-1.61.54-1.61,1.61-1.61ZM69.56,87.71c1.08,0,1.61.54,1.61,1.61s-.54,1.61-1.61,1.61-1.61-.54-1.61-1.61.54-1.61,1.61-1.61Z"/>
    </g>
  </g>
</svg>