<?xml version="1.0" encoding="UTF-8"?>
<svg id="Layer_2" data-name="Layer 2" xmlns="http://www.w3.org/2000/svg" viewBox="0 0 46.77 61.69">
  <defs>
    <style>
      .cls-1 {
        fill: #3c3c3b;
        stroke-width: 0px;
      }
    </style>
  </defs>
  <g id="V">
    <path class="cls-1" d="M.19,3.4c-.22-.46-.24-.86-.08-1.2.16-.34.41-.63.73-.86.87-.57,1.51-.28,1.95.86.22.92-.06,1.55-.81,1.89-.43.23-.81.26-1.14.09-.32-.17-.54-.43-.65-.77ZM2.3,8.9c-.32-1.03-.06-1.72.81-2.06.32-.11.67-.11,1.05,0,.38.11.62.4.73.86.22.34.24.72.08,1.12-.16.4-.4.66-.73.77-.43.23-.81.26-1.14.09-.33-.17-.6-.43-.81-.77ZM4.24,13.89c-.43-1.03-.16-1.78.81-2.24.97-.23,1.57.06,1.79.86.43,1.03.22,1.72-.65,2.06s-1.52.12-1.95-.69ZM6.03,18.54c-.11-.34-.08-.72.08-1.12.16-.4.46-.72.89-.95.21-.23.54-.23.97,0,.43.23.7.52.81.86.33.92.11,1.61-.65,2.06-.97.23-1.68-.06-2.11-.86ZM8.14,23.53c-.33-.8-.06-1.43.81-1.89.32-.23.67-.26,1.05-.09.38.17.67.49.89.95.21.92-.06,1.55-.81,1.89-.87.58-1.52.29-1.95-.86ZM10.09,28.69c-.22-1.03.05-1.72.81-2.06.43-.11.84-.11,1.22,0,.38.12.62.4.73.86.21.34.21.72,0,1.12-.22.4-.43.72-.65.95-.76.34-1.46.06-2.11-.86ZM12.36,34.19c-.22-.34-.22-.72,0-1.12.21-.4.49-.71.81-.95.97-.23,1.62.06,1.95.86.22,1.03-.06,1.72-.81,2.06-.87.34-1.52.06-1.95-.86ZM14.8,40.22c-.43-.8-.22-1.55.65-2.24.97-.23,1.62.12,1.95,1.03.21.34.24.72.08,1.12-.16.4-.46.66-.89.77-.32.23-.65.23-.97,0-.32-.23-.6-.46-.81-.69ZM16.91,45.72c-.33-.92-.06-1.66.81-2.24.97-.23,1.57.12,1.79,1.03.54,1.03.33,1.66-.65,1.89-.87.34-1.52.11-1.95-.69ZM19.02,50.54c-.54-1.03-.32-1.66.65-1.89.86-.57,1.51-.34,1.95.69.32,1.03.05,1.72-.81,2.06-.97.46-1.57.17-1.79-.86ZM20.64,55.18c-.22-.92.11-1.55.97-1.89.97-.46,1.57-.23,1.79.69.33,1.03.11,1.78-.65,2.24-.87.34-1.57,0-2.11-1.03ZM22.92,60.69c-.32-.92,0-1.61.97-2.06.76-.46,1.35-.11,1.79,1.03.43.8.11,1.44-.97,1.89-.76.34-1.36.06-1.79-.86ZM26.49,60.69c-.43.92-1.03,1.2-1.79.86-1.08-.46-1.41-1.09-.97-1.89.43-1.15,1.03-1.49,1.79-1.03.97.46,1.3,1.15.97,2.06ZM28.76,55.18c-.44,1.03-1.08,1.38-1.95,1.03-.87-.34-1.14-1.03-.81-2.06.11-.34.33-.63.65-.86.32-.23.7-.23,1.14,0,.86.34,1.19.98.97,1.89ZM30.22,50.37c-.22.92-.81,1.26-1.79,1.03-.87-.34-1.19-1.03-.97-2.06.33-.92.97-1.2,1.95-.86.97.23,1.24.86.81,1.89ZM32.01,45.38c-.43.92-1.08,1.2-1.95.86-.87-.23-1.08-.86-.65-1.89.22-.92.81-1.26,1.79-1.03.86.34,1.13,1.03.81,2.06ZM33.96,39.7c-.43.92-1.03,1.2-1.79.86-1.08-.23-1.41-.86-.97-1.89.32-.92.97-1.26,1.95-1.03.86.46,1.13,1.15.81,2.06ZM35.91,33.68c-.11.34-.32.63-.65.86-.32.23-.7.23-1.14,0-.87-.23-1.19-.86-.97-1.89.32-.92.97-1.26,1.95-1.03.86.46,1.14,1.15.81,2.06ZM38.02,28.17c-.22.23-.49.46-.81.69-.32.23-.7.23-1.14,0-.33-.11-.6-.37-.81-.77-.22-.4-.22-.77,0-1.12.22-.92.81-1.26,1.79-1.03.86.34,1.19,1.09.97,2.24ZM39.64,22.84c-.22,1.15-.81,1.44-1.79.86-.87-.34-1.19-.97-.97-1.89.32-.92.97-1.2,1.95-.86.86.46,1.14,1.09.81,1.89ZM41.43,17.68c-.33.92-.97,1.26-1.95,1.03-.87-.46-1.14-1.15-.81-2.06.11-.34.38-.63.81-.86.43-.23.76-.23.97,0,.43.12.73.37.89.77.16.4.19.77.08,1.12ZM43.21,12.86c-.32.92-.97,1.2-1.95.86-.97-.23-1.24-.86-.81-1.89.21-.92.81-1.26,1.79-1.03.86.34,1.19,1.03.97,2.06ZM44.84,7.87c-.43.92-1.08,1.2-1.95.86-.33-.11-.6-.37-.81-.77-.22-.4-.22-.77,0-1.12.11-.46.35-.77.73-.95.38-.17.73-.2,1.06-.09.86.34,1.19,1.03.97,2.06ZM46.62,2.19c-.11.34-.32.63-.65.86-.33.23-.71.23-1.14,0-.87-.34-1.19-.97-.97-1.89.54-1.03,1.24-1.38,2.11-1.03.76.46.97,1.15.65,2.06Z"/>
  </g>
</svg>