<?xml version="1.0" encoding="UTF-8"?>
<svg id="Layer_2" data-name="Layer 2" xmlns="http://www.w3.org/2000/svg" viewBox="0 0 54.62 62.81">
  <defs>
    <style>
      .cls-1 {
        fill: #3c3c3b;
        stroke-width: 0px;
      }
    </style>
  </defs>
  <g id="Z">
    <path class="cls-1" d="M1.52,3.27c-1.01,0-1.52-.54-1.52-1.61S.51.05,1.52.05s1.52.54,1.52,1.61-.51,1.61-1.52,1.61ZM1.86,60.07c.56-.83,1.29-.9,2.2-.18.22.24.36.6.42,1.08.06.48-.08.9-.42,1.25-.57.72-1.24.78-2.03.18-.68-.72-.74-1.49-.17-2.33ZM6.59,3.27c-1.01,0-1.52-.54-1.52-1.61S5.58.05,6.59.05s1.52.54,1.52,1.61-.51,1.61-1.52,1.61ZM5.92,55.06c.68-.72,1.41-.78,2.2-.18.67.72.73,1.5.17,2.33-.56.84-1.3.9-2.2.18-.79-.6-.85-1.37-.17-2.33ZM8.45,62.76c-1.01,0-1.52-.54-1.52-1.61s.51-1.61,1.52-1.61,1.52.54,1.52,1.61-.51,1.61-1.52,1.61ZM9.81,50.4c.67-.72,1.41-.78,2.2-.18.79.6.85,1.38.17,2.33-.57.84-1.3.9-2.2.18-.67-.72-.73-1.49-.17-2.33ZM12.51,3.27c-1.01,0-1.52-.54-1.52-1.61S11.5.05,12.51.05s1.52.54,1.52,1.61-.51,1.61-1.52,1.61ZM13.53,62.76c-1.01,0-1.52-.54-1.52-1.61s.51-1.61,1.52-1.61,1.52.54,1.52,1.61-.51,1.61-1.52,1.61ZM13.36,46.28c.67-.96,1.41-1.01,2.2-.18.23.24.37.6.42,1.08.06.48-.08.84-.42,1.07-.23.36-.57.57-1.01.63-.45.06-.79-.09-1.01-.45-.79-.72-.84-1.43-.17-2.15ZM16.74,42.16c.68-.83,1.35-.9,2.03-.18.79.6.84,1.38.17,2.33-.57.84-1.3.9-2.2.18-.68-.84-.68-1.61,0-2.33ZM18.26,3.27c-1.01,0-1.52-.54-1.52-1.61S17.25.05,18.26.05s1.52.54,1.52,1.61-.51,1.61-1.52,1.61ZM19.45,62.76c-1.01,0-1.52-.54-1.52-1.61s.51-1.61,1.52-1.61,1.52.54,1.52,1.61-.51,1.61-1.52,1.61ZM20.29,37.86c.68-.83,1.35-.9,2.03-.18.9.72.96,1.5.17,2.33-.68.84-1.35.9-2.03.18-.79-.84-.85-1.61-.17-2.33ZM23.67,3.27c-1.01,0-1.52-.54-1.52-1.61S22.66.05,23.67.05s1.52.54,1.52,1.61-.51,1.61-1.52,1.61ZM25.19,62.76c-1.01,0-1.52-.54-1.52-1.61s.51-1.61,1.52-1.61,1.52.54,1.52,1.61-.51,1.61-1.52,1.61ZM24.52,32.66c.67-.72,1.41-.77,2.2-.18.79.72.85,1.43.17,2.15-.68.96-1.41,1.01-2.2.18-.79-.72-.84-1.43-.17-2.15ZM28.75,3.27c-1.02,0-1.52-.54-1.52-1.61S27.73.05,28.75.05s1.52.54,1.52,1.61-.51,1.61-1.52,1.61ZM28.41,27.82c.79-.6,1.52-.66,2.2-.18.68.72.73,1.5.17,2.33-.57.84-1.3.9-2.2.18-.68-.72-.74-1.49-.17-2.33ZM30.61,62.76c-1.01,0-1.52-.54-1.52-1.61s.51-1.61,1.52-1.61,1.52.54,1.52,1.61-.51,1.61-1.52,1.61ZM32.64,22.81c.68-.72,1.41-.72,2.2,0,.22.24.36.6.42,1.08.06.48-.08.84-.42,1.07-.68.84-1.35.9-2.03.18-.79-.6-.85-1.37-.17-2.33ZM33.99,3.27c-1.01,0-1.52-.54-1.52-1.61s.51-1.61,1.52-1.61,1.52.54,1.52,1.61-.51,1.61-1.52,1.61ZM35.68,62.76c-1.01,0-1.52-.54-1.52-1.61s.51-1.61,1.52-1.61,1.52.54,1.52,1.61-.51,1.61-1.52,1.61ZM36.52,18.15c.56-.83,1.3-.9,2.2-.18.68.84.68,1.61,0,2.33-.57.72-1.24.78-2.03.18-.79-.6-.84-1.37-.17-2.33ZM39.91,3.27c-1.01,0-1.52-.54-1.52-1.61s.51-1.61,1.52-1.61,1.52.54,1.52,1.61-.51,1.61-1.52,1.61ZM40.92,62.76c-1.01,0-1.52-.54-1.52-1.61s.51-1.61,1.52-1.61,1.52.54,1.52,1.61-.51,1.61-1.52,1.61ZM39.91,14.03c.67-.72,1.41-.77,2.2-.18.79.6.85,1.37.17,2.33-.68.72-1.41.78-2.2.18-.67-.72-.73-1.49-.17-2.33ZM43.29,9.9c.68-.72,1.41-.78,2.2-.18.67.72.73,1.5.17,2.33-.67.72-1.41.78-2.2.18-.79-.6-.85-1.37-.17-2.33ZM46.16,3.27c-1.01,0-1.52-.54-1.52-1.61s.51-1.61,1.52-1.61,1.52.54,1.52,1.61-.51,1.61-1.52,1.61ZM46.84,62.76c-1.01,0-1.52-.54-1.52-1.61s.51-1.61,1.52-1.61,1.52.54,1.52,1.61-.51,1.61-1.52,1.61ZM46.84,5.6c.68-.72,1.41-.78,2.2-.18.68.72.73,1.5.17,2.33-.57.84-1.3.9-2.2.18-.79-.6-.85-1.37-.17-2.33ZM50.39.59c.68-.72,1.41-.78,2.2-.18.68.72.73,1.5.17,2.33-.57.84-1.3.9-2.2.18-.79-.6-.84-1.37-.17-2.33ZM53.1,62.76c-1.01,0-1.52-.54-1.52-1.61s.51-1.61,1.52-1.61,1.52.54,1.52,1.61-.51,1.61-1.52,1.61Z"/>
  </g>
</svg>