<?xml version="1.0" encoding="UTF-8"?>
<svg id="Layer_2" data-name="Layer 2" xmlns="http://www.w3.org/2000/svg" viewBox="0 0 34.55 113.96">
  <defs>
    <style>
      .cls-1 {
        fill: #3c3c3b;
        stroke-width: 0px;
      }
    </style>
  </defs>
  <g id="K">
    <g>
      <path class="cls-1" d="M1.77,43.41c-1.06,0-1.59.56-1.59,1.68s.53,1.68,1.59,1.68,1.59-.56,1.59-1.68-.53-1.68-1.59-1.68Z"/>
      <path class="cls-1" d="M1.77,49.4c-1.06,0-1.59.56-1.59,1.68s.53,1.68,1.59,1.68,1.59-.56,1.59-1.68-.53-1.68-1.59-1.68Z"/>
      <path class="cls-1" d="M1.77,55.01c-1.06,0-1.59.56-1.59,1.68s.53,1.68,1.59,1.68,1.59-.56,1.59-1.68-.53-1.68-1.59-1.68Z"/>
      <path class="cls-1" d="M1.77,17.4c-1.06,0-1.59.56-1.59,1.68s.53,1.68,1.59,1.68,1.59-.56,1.59-1.68-.53-1.68-1.59-1.68Z"/>
      <path class="cls-1" d="M1.77,23.95c-1.06,0-1.59.56-1.59,1.68s.53,1.68,1.59,1.68,1.59-.56,1.59-1.68-.53-1.68-1.59-1.68Z"/>
      <path class="cls-1" d="M1.77,37.42c-1.06,0-1.59.56-1.59,1.68s.53,1.68,1.59,1.68,1.59-.56,1.59-1.68-.53-1.68-1.59-1.68Z"/>
      <path class="cls-1" d="M1.77,60.82c-1.06,0-1.59.56-1.59,1.68s.53,1.68,1.59,1.68,1.59-.56,1.59-1.68-.53-1.68-1.59-1.68Z"/>
      <path class="cls-1" d="M1.77,30.88c-1.06,0-1.59.56-1.59,1.68s.53,1.68,1.59,1.68,1.59-.56,1.59-1.68-.53-1.68-1.59-1.68Z"/>
      <path class="cls-1" d="M1.59,110.59c-1.06,0-1.59.56-1.59,1.68s.53,1.68,1.59,1.68,1.59-.56,1.59-1.68-.53-1.68-1.59-1.68Z"/>
      <path class="cls-1" d="M1.77,105.16c-1.06,0-1.59.56-1.59,1.68s.53,1.68,1.59,1.68,1.59-.56,1.59-1.68-.53-1.68-1.59-1.68Z"/>
      <path class="cls-1" d="M1.77,99.36c-1.06,0-1.59.56-1.59,1.68s.53,1.68,1.59,1.68,1.59-.56,1.59-1.68-.53-1.68-1.59-1.68Z"/>
      <path class="cls-1" d="M1.77,11.6c-1.06,0-1.59.56-1.59,1.68s.53,1.68,1.59,1.68,1.59-.56,1.59-1.68-.53-1.68-1.59-1.68Z"/>
      <path class="cls-1" d="M1.77,67.36c-1.06,0-1.59.56-1.59,1.68s.53,1.68,1.59,1.68,1.59-.56,1.59-1.68-.53-1.68-1.59-1.68Z"/>
      <path class="cls-1" d="M1.77,93.75c-1.06,0-1.59.56-1.59,1.68s.53,1.68,1.59,1.68,1.59-.56,1.59-1.68-.53-1.68-1.59-1.68Z"/>
      <path class="cls-1" d="M1.77,80.46c-1.06,0-1.59.56-1.59,1.68s.53,1.68,1.59,1.68,1.59-.56,1.59-1.68-.53-1.68-1.59-1.68Z"/>
      <path class="cls-1" d="M1.77,87.76c-1.06,0-1.59.56-1.59,1.68s.53,1.68,1.59,1.68,1.59-.56,1.59-1.68-.53-1.68-1.59-1.68Z"/>
      <path class="cls-1" d="M1.77,73.91c-1.06,0-1.59.56-1.59,1.68s.53,1.68,1.59,1.68,1.59-.56,1.59-1.68-.53-1.68-1.59-1.68Z"/>
      <path class="cls-1" d="M22.01,99.46c-.35.25-.5.62-.44,1.12.06.5.2.87.44,1.12.35.37.77.53,1.24.47.47-.07.82-.22,1.06-.47.82-.87.76-1.68-.18-2.43-.71-.75-1.41-.69-2.12.19Z"/>
      <path class="cls-1" d="M23.49,65.12c.94-.75,1-1.56.18-2.43-.24-.25-.59-.4-1.06-.47-.47-.06-.88.09-1.24.47-.24.25-.38.62-.44,1.12-.06.5.09.87.44,1.12.71.87,1.41.94,2.12.19Z"/>
      <path class="cls-1" d="M28.79,60.25c.71-.75.71-1.56,0-2.43-.24-.25-.59-.4-1.06-.47-.47-.06-.82.09-1.06.47-.35.25-.56.62-.62,1.12-.06.5.09.87.44,1.12.59.87,1.35.94,2.3.19Z"/>
      <path class="cls-1" d="M19.43,69.24c.7-.87.7-1.68,0-2.43-.71-.87-1.41-.94-2.12-.19-.83.62-.88,1.43-.18,2.43.59.87,1.35.94,2.3.19Z"/>
      <path class="cls-1" d="M17.77,95.34c-.71,1-.65,1.81.18,2.43.7.75,1.41.69,2.12-.19.7-.75.7-1.56,0-2.43-.95-.75-1.71-.69-2.3.19Z"/>
      <path class="cls-1" d="M27.13,104.33c-.35.25-.5.62-.44,1.12.06.5.26.87.62,1.12.24.37.59.53,1.06.47.47-.07.82-.22,1.06-.47.71-.87.71-1.68,0-2.43-.94-.75-1.71-.69-2.3.19Z"/>
      <path class="cls-1" d="M34.02,108.44c-.95-.75-1.71-.69-2.3.19-.59.87-.53,1.68.18,2.43.7.75,1.41.69,2.12-.19.7-.75.7-1.56,0-2.43Z"/>
      <path class="cls-1" d="M33.38,55.95c.7-.87.7-1.68,0-2.43-.71-.87-1.41-.94-2.12-.19-.71.75-.77,1.56-.18,2.43.59.87,1.35.94,2.3.19Z"/>
      <path class="cls-1" d="M11.3,76.72c.82-.62.88-1.43.18-2.43-.24-.25-.59-.4-1.06-.47-.47-.06-.88.09-1.24.47-.83.75-.88,1.5-.18,2.25.82.87,1.59.94,2.3.19Z"/>
      <path class="cls-1" d="M5.77,84.3c-.59.87-.53,1.68.17,2.43.82.62,1.59.56,2.3-.19.59-.87.53-1.68-.18-2.43-.82-.62-1.59-.56-2.29.19Z"/>
      <path class="cls-1" d="M7.42,80.28c.71-.75.77-1.56.18-2.43-.71-.75-1.47-.81-2.3-.19-.71.75-.77,1.56-.17,2.43.7.75,1.47.81,2.29.19Z"/>
      <path class="cls-1" d="M1.77,0C.71,0,.18.56.18,1.68s.53,1.68,1.59,1.68,1.59-.56,1.59-1.68-.53-1.68-1.59-1.68Z"/>
      <path class="cls-1" d="M1.77,5.99c-1.06,0-1.59.56-1.59,1.68s.53,1.68,1.59,1.68,1.59-.56,1.59-1.68-.53-1.68-1.59-1.68Z"/>
      <path class="cls-1" d="M15.36,72.98c.71-.75.77-1.56.18-2.43-.59-.87-1.36-.94-2.3-.19-.24.25-.38.62-.44,1.12-.06.5.09.94.44,1.31.71.87,1.41.94,2.12.19Z"/>
      <path class="cls-1" d="M9.65,87.86c-.7.75-.65,1.5.18,2.25.35.37.76.53,1.24.47.47-.07.82-.22,1.06-.47.7-1,.64-1.81-.18-2.43-.71-.75-1.47-.69-2.3.19Z"/>
      <path class="cls-1" d="M13.89,91.6c-.35.37-.5.81-.44,1.31.06.5.2.87.44,1.12.94.75,1.71.69,2.3-.19.59-.87.53-1.68-.18-2.43-.7-.75-1.41-.69-2.12.19Z"/>
    </g>
  </g>
</svg>