<?xml version="1.0" encoding="UTF-8"?>
<svg id="Layer_2" data-name="Layer 2" xmlns="http://www.w3.org/2000/svg" viewBox="0 0 67.79 111.91">
  <defs>
    <style>
      .cls-1 {
        fill: #3c3c3b;
        stroke-width: 0px;
      }
    </style>
  </defs>
  <g id="F">
    <path class="cls-1" d="M1.55,43.58c-1.03,0-1.55-.55-1.55-1.64s.52-1.64,1.55-1.64,1.55.55,1.55,1.64-.52,1.64-1.55,1.64ZM7.04,43.58c-1.03,0-1.55-.55-1.55-1.64s.52-1.64,1.55-1.64,1.55.55,1.55,1.64-.52,1.64-1.55,1.64ZM12.54,43.58c-1.03,0-1.55-.55-1.55-1.64s.52-1.64,1.55-1.64,1.55.55,1.55,1.64-.52,1.64-1.55,1.64ZM17.69,43.58c-1.03,0-1.55-.55-1.55-1.64s.52-1.64,1.55-1.64,1.55.55,1.55,1.64-.52,1.64-1.55,1.64ZM24.17,110.27c0-1.09.52-1.64,1.55-1.64s1.55.55,1.55,1.64-.52,1.64-1.55,1.64-1.55-.55-1.55-1.64ZM24.35,39.12c0-1.09.52-1.64,1.55-1.64s1.55.55,1.55,1.64-.52,1.64-1.55,1.64-1.55-.55-1.55-1.64ZM24.35,44.95c0-1.09.52-1.64,1.55-1.64s1.55.55,1.55,1.64-.52,1.64-1.55,1.64-1.55-.55-1.55-1.64ZM24.35,50.77c0-1.09.52-1.64,1.55-1.64s1.55.55,1.55,1.64-.52,1.64-1.55,1.64-1.55-.55-1.55-1.64ZM24.35,56.23c0-1.09.52-1.64,1.55-1.64s1.55.55,1.55,1.64-.52,1.64-1.55,1.64-1.55-.55-1.55-1.64ZM24.35,61.87c0-1.09.52-1.64,1.55-1.64s1.55.55,1.55,1.64-.52,1.64-1.55,1.64-1.55-.55-1.55-1.64ZM24.35,68.24c0-1.09.52-1.64,1.55-1.64s1.55.55,1.55,1.64-.52,1.64-1.55,1.64-1.55-.55-1.55-1.64ZM24.35,74.61c0-1.09.52-1.64,1.55-1.64s1.55.55,1.55,1.64-.52,1.64-1.55,1.64-1.55-.55-1.55-1.64ZM24.35,80.97c0-1.09.52-1.64,1.55-1.64s1.55.55,1.55,1.64-.52,1.64-1.55,1.64-1.55-.55-1.55-1.64ZM24.35,88.07c0-1.09.52-1.64,1.55-1.64s1.55.55,1.55,1.64-.52,1.64-1.55,1.64-1.55-.55-1.55-1.64ZM24.35,93.89c0-1.09.52-1.64,1.55-1.64s1.55.55,1.55,1.64-.52,1.64-1.55,1.64-1.55-.55-1.55-1.64ZM24.35,99.35c0-1.09.52-1.64,1.55-1.64s1.55.55,1.55,1.64-.52,1.64-1.55,1.64-1.55-.55-1.55-1.64ZM24.35,104.99c0-1.09.52-1.64,1.55-1.64s1.55.55,1.55,1.64-.52,1.64-1.55,1.64-1.55-.55-1.55-1.64ZM24.69,32.75c0-1.09.52-1.64,1.55-1.64s1.55.55,1.55,1.64-.52,1.64-1.55,1.64-1.55-.55-1.55-1.64ZM25.38,26.39c0-1.09.52-1.64,1.55-1.64s1.55.55,1.55,1.64-.52,1.64-1.55,1.64-1.55-.55-1.55-1.64ZM26.41,19.83c0-1.09.52-1.64,1.55-1.64s1.55.55,1.55,1.64-.52,1.64-1.55,1.64-1.55-.55-1.55-1.64ZM23.01,43.58c-1.03,0-1.55-.55-1.55-1.64s.52-1.64,1.55-1.64,1.55.55,1.55,1.64-.52,1.64-1.55,1.64ZM28.64,14.01c0-1.09.52-1.64,1.55-1.64s1.55.55,1.55,1.64-.52,1.64-1.55,1.64-1.55-.55-1.55-1.64ZM31.9,8.92c0-1.09.52-1.64,1.55-1.64s1.55.55,1.55,1.64-.52,1.64-1.55,1.64-1.55-.55-1.55-1.64ZM29.02,43.58c-1.03,0-1.55-.55-1.55-1.64s.52-1.64,1.55-1.64,1.55.55,1.55,1.64-.52,1.64-1.55,1.64ZM36.02,5.28c0-1.09.52-1.64,1.55-1.64s1.55.55,1.55,1.64-.52,1.64-1.55,1.64-1.55-.55-1.55-1.64ZM35.03,43.58c-1.03,0-1.55-.55-1.55-1.64s.52-1.64,1.55-1.64,1.55.55,1.55,1.64-.52,1.64-1.55,1.64ZM40.83,2.55c0-1.09.52-1.64,1.55-1.64s1.55.55,1.55,1.64-.52,1.64-1.55,1.64-1.55-.55-1.55-1.64ZM41.04,43.58c-1.03,0-1.55-.55-1.55-1.64s.52-1.64,1.55-1.64,1.55.55,1.55,1.64-.52,1.64-1.55,1.64ZM45.64,1.64c0-1.09.52-1.64,1.55-1.64s1.55.55,1.55,1.64-.52,1.64-1.55,1.64-1.55-.55-1.55-1.64ZM46.88,43.58c-1.03,0-1.55-.55-1.55-1.64s.52-1.64,1.55-1.64,1.55.55,1.55,1.64-.52,1.64-1.55,1.64ZM50.96,2.37c0-1.09.52-1.64,1.55-1.64s1.55.55,1.55,1.64-.52,1.64-1.55,1.64-1.55-.55-1.55-1.64ZM55.26,5.64c0-1.09.52-1.64,1.55-1.64s1.55.55,1.55,1.64-.52,1.64-1.55,1.64-1.55-.55-1.55-1.64ZM52.34,43.56c-1.03,0-1.55-.55-1.55-1.64s.52-1.64,1.55-1.64,1.55.55,1.55,1.64-.52,1.64-1.55,1.64ZM59.21,10.01c0-1.09.52-1.64,1.55-1.64s1.55.55,1.55,1.64-.52,1.64-1.55,1.64-1.55-.55-1.55-1.64ZM62.3,14.92c0-1.09.52-1.64,1.55-1.64s1.55.55,1.55,1.64-.52,1.64-1.55,1.64-1.55-.55-1.55-1.64ZM64.7,21.29c0-1.09.52-1.64,1.55-1.64s1.55.55,1.55,1.64-.52,1.64-1.55,1.64-1.55-.55-1.55-1.64Z"/>
  </g>
</svg>