<?xml version="1.0" encoding="UTF-8"?>
<svg id="Layer_2" data-name="Layer 2" xmlns="http://www.w3.org/2000/svg" viewBox="0 0 55.56 62.9">
  <defs>
    <style>
      .cls-1 {
        fill: #3c3c3b;
        stroke-width: 0px;
      }
    </style>
  </defs>
  <g id="E">
    <path class="cls-1" d="M3.16,32.38c0,.99-.53,1.49-1.58,1.49s-1.58-.56-1.58-1.67.53-1.67,1.58-1.67,1.58.62,1.58,1.86ZM3.86,27.17c0,.99-.58,1.49-1.75,1.49-.94,0-1.41-.56-1.41-1.67s.53-1.67,1.58-1.67,1.58.62,1.58,1.86ZM2.11,36.1c1.17,0,1.75.62,1.75,1.86,0,.99-.47,1.49-1.4,1.49-1.17.25-1.76-.25-1.76-1.49,0-.99.47-1.61,1.41-1.86ZM2.81,41.5c1.05.25,1.64.81,1.76,1.67,0,.5-.15.93-.44,1.3-.29.37-.67.5-1.14.37-1.05.25-1.58-.25-1.58-1.49-.24-.99.23-1.61,1.4-1.86ZM5.27,21.03c0,1.12-.53,1.67-1.58,1.67-1.05-.25-1.58-.87-1.58-1.86.23-1.24.82-1.74,1.75-1.49,1.17,0,1.64.56,1.41,1.67ZM4.74,46.71c1.05-.25,1.7.19,1.93,1.3,0,1.12-.47,1.8-1.4,2.05-1.17,0-1.76-.62-1.76-1.86-.23-.99.18-1.49,1.23-1.49ZM7.73,15.45c0,1.12-.53,1.67-1.58,1.67s-1.58-.56-1.58-1.67.53-1.67,1.58-1.67,1.58.56,1.58,1.67ZM7.38,33.68c-1.05,0-1.58-.56-1.58-1.67s.53-1.67,1.58-1.67,1.58.56,1.58,1.67-.53,1.67-1.58,1.67ZM8.08,50.99c1.17-.25,1.64.25,1.4,1.49.23.99-.18,1.61-1.23,1.86-1.05,0-1.7-.56-1.93-1.67.12-.87.7-1.42,1.76-1.67ZM11.24,10.42c0,1.12-.59,1.67-1.76,1.67-.94,0-1.4-.56-1.4-1.67s.53-1.67,1.58-1.67,1.58.56,1.58,1.67ZM11.77,54.71c1.05-.25,1.58.19,1.58,1.3.23,1.12-.18,1.8-1.23,2.05-1.17-.25-1.82-.81-1.93-1.67,0-.49.14-.93.44-1.3.29-.37.67-.49,1.14-.37ZM13,33.68c-1.05,0-1.58-.56-1.58-1.67s.53-1.67,1.58-1.67,1.58.56,1.58,1.67-.53,1.67-1.58,1.67ZM14.93,6.89c0,1.12-.53,1.67-1.58,1.67s-1.58-.62-1.58-1.86c0-.99.53-1.49,1.58-1.49s1.58.56,1.58,1.67ZM17.21,57.32c1.05-.25,1.7.25,1.93,1.49,0,.99-.59,1.61-1.76,1.86-1.17,0-1.64-.49-1.4-1.49-.24-1.24.17-1.86,1.23-1.86ZM20.02,3.54c-.24,1.12-.82,1.67-1.76,1.67-1.17,0-1.64-.56-1.4-1.67,0-1.12.53-1.67,1.58-1.67s1.58.56,1.58,1.67ZM19.84,33.68c-1.05,0-1.58-.56-1.58-1.67s.53-1.67,1.58-1.67,1.58.56,1.58,1.67-.53,1.67-1.58,1.67ZM22.66,58.81c1.05,0,1.58.5,1.58,1.49,0,1.24-.47,1.86-1.4,1.86-.47,0-.88-.12-1.23-.37-.35-.25-.47-.62-.35-1.12,0-1.24.47-1.86,1.4-1.86ZM25.29,2.05c0,1.12-.59,1.67-1.76,1.67-.94,0-1.4-.56-1.4-1.67s.53-1.67,1.58-1.67,1.58.56,1.58,1.67ZM25.99,33.68c-1.05,0-1.58-.56-1.58-1.67s.53-1.67,1.58-1.67,1.58.56,1.58,1.67-.53,1.67-1.58,1.67ZM27.57,59.36c1.17.25,1.64.87,1.4,1.86-.23,1.12-.76,1.67-1.58,1.67-1.05,0-1.58-.62-1.58-1.86.12-.87.7-1.42,1.76-1.67ZM27.57,1.67c0-1.12.53-1.67,1.58-1.67s1.58.56,1.58,1.67-.53,1.67-1.58,1.67-1.58-.56-1.58-1.67ZM31.61,33.68c-1.05,0-1.58-.56-1.58-1.67s.53-1.67,1.58-1.67,1.58.56,1.58,1.67-.53,1.67-1.58,1.67ZM33.55,58.62c.35,0,.67.19.96.56.29.37.38.81.26,1.3.12.5,0,.87-.35,1.12-.35.25-.76.37-1.23.37-.94,0-1.4-.62-1.4-1.86.23-.99.82-1.49,1.76-1.49ZM32.67,2.23c0-1.12.53-1.67,1.58-1.67s1.58.56,1.58,1.67-.53,1.67-1.58,1.67-1.58-.56-1.58-1.67ZM37.23,33.68c-1.05,0-1.58-.56-1.58-1.67s.53-1.67,1.58-1.67,1.58.56,1.58,1.67-.53,1.67-1.58,1.67ZM38.99,57.32c1.05,0,1.46.62,1.23,1.86,0,.99-.53,1.49-1.58,1.49-1.05-.25-1.58-.87-1.58-1.86.23-1.24.88-1.74,1.93-1.49ZM37.41,3.54c0-1.12.53-1.67,1.58-1.67s1.58.56,1.58,1.67-.53,1.67-1.58,1.67-1.58-.56-1.58-1.67ZM41.8,6.51c0-1.12.53-1.67,1.58-1.67s1.58.56,1.58,1.67-.53,1.67-1.58,1.67-1.58-.56-1.58-1.67ZM43.56,54.9c1.05,0,1.58.62,1.58,1.86-.24.99-.88,1.49-1.93,1.49-1.05-.25-1.46-.93-1.23-2.05,0-1.12.53-1.55,1.58-1.3ZM43.73,30.33c1.17.25,1.64.87,1.41,1.86-.24,1.24-.82,1.74-1.76,1.49-.94,0-1.4-.62-1.4-1.86.23-.99.82-1.49,1.75-1.49ZM45.49,10.24c0-1.12.53-1.67,1.58-1.67s1.58.56,1.58,1.67-.53,1.67-1.58,1.67-1.58-.56-1.58-1.67ZM47.42,51.36c1.05.25,1.58.81,1.58,1.67-.24,1.12-.88,1.67-1.93,1.67-1.05-.25-1.46-.87-1.23-1.86,0-1.24.53-1.74,1.58-1.49ZM49,30.33c.94.25,1.4.87,1.4,1.86,0,1.24-.59,1.74-1.76,1.49-.94,0-1.4-.56-1.4-1.67s.58-1.67,1.76-1.67ZM48.82,15.26c0-1.12.53-1.67,1.58-1.67s1.58.56,1.58,1.67-.53,1.67-1.58,1.67-1.58-.56-1.58-1.67ZM50.76,47.08c1.05,0,1.46.56,1.23,1.67,0,1.12-.59,1.67-1.76,1.67-.94-.25-1.4-.93-1.4-2.05.23-1.12.88-1.55,1.93-1.3ZM50.76,20.84c0-1.12.53-1.67,1.58-1.67s1.58.56,1.58,1.67-.53,1.67-1.58,1.67-1.58-.56-1.58-1.67ZM52.16,26.98c0-1.12.53-1.67,1.58-1.67s1.58.56,1.58,1.67-.53,1.67-1.58,1.67-1.58-.56-1.58-1.67ZM52.34,32.19c0-1.12.53-1.67,1.58-1.67s1.58.56,1.58,1.67-.53,1.67-1.58,1.67-1.58-.56-1.58-1.67ZM54.27,42.8c1.05,0,1.46.56,1.23,1.67,0,1.12-.59,1.67-1.75,1.67-.94-.25-1.41-.93-1.41-2.05.23-1.12.88-1.55,1.93-1.3Z"/>
  </g>
</svg>