<?xml version="1.0" encoding="UTF-8"?>
<svg id="Layer_2" data-name="Layer 2" xmlns="http://www.w3.org/2000/svg" viewBox="0 0 104.59 209.51">
  <defs>
    <style>
      .cls-1 {
        fill: #3c3c3b;
        stroke-width: 0px;
      }
    </style>
  </defs>
  <g id="D">
    <path class="cls-1" d="M5.72,151.24c0,1.8-.95,2.69-2.86,2.69s-2.86-1.01-2.86-3.03.95-3.03,2.86-3.03,2.86,1.13,2.86,3.37ZM6.99,141.81c0,1.8-1.06,2.69-3.18,2.69-1.7,0-2.54-1.01-2.54-3.03s.95-3.03,2.86-3.03,2.86,1.13,2.86,3.37ZM3.81,157.98c2.12,0,3.18,1.13,3.18,3.37,0,1.8-.85,2.69-2.54,2.69-2.12.45-3.18-.45-3.18-2.69,0-1.8.84-2.92,2.54-3.37ZM5.09,167.75c1.91.45,2.97,1.46,3.18,3.03,0,.9-.27,1.68-.8,2.36-.53.67-1.22.9-2.06.67-1.91.45-2.86-.45-2.86-2.69-.43-1.8.42-2.92,2.54-3.37ZM9.54,130.69c0,2.02-.95,3.03-2.86,3.03-1.91-.45-2.86-1.57-2.86-3.37.42-2.24,1.48-3.14,3.18-2.69,2.12,0,2.97,1.01,2.54,3.03ZM8.58,177.18c1.91-.45,3.07.34,3.5,2.36,0,2.02-.85,3.26-2.55,3.71-2.12,0-3.18-1.12-3.18-3.37-.43-1.8.32-2.69,2.22-2.69ZM13.99,120.59c0,2.02-.95,3.03-2.86,3.03s-2.86-1.01-2.86-3.03.95-3.03,2.86-3.03,2.86,1.01,2.86,3.03ZM14.62,184.92c2.12-.45,2.97.45,2.54,2.69.42,1.8-.32,2.92-2.22,3.37-1.91,0-3.08-1.01-3.5-3.03.21-1.57,1.27-2.58,3.18-3.03ZM20.35,111.49c0,2.02-1.06,3.03-3.18,3.03-1.7,0-2.54-1.01-2.54-3.03s.95-3.03,2.86-3.03,2.86,1.01,2.86,3.03ZM21.3,191.66c1.91-.45,2.86.34,2.86,2.36.42,2.02-.32,3.26-2.23,3.71-2.12-.45-3.29-1.46-3.5-3.03,0-.89.26-1.68.8-2.36.52-.67,1.22-.89,2.06-.67ZM27.02,105.09c0,2.02-.95,3.03-2.86,3.03s-2.86-1.12-2.86-3.37c0-1.8.95-2.69,2.86-2.69s2.86,1.01,2.86,3.03ZM31.16,197.39c1.91-.45,3.07.45,3.5,2.69,0,1.8-1.06,2.92-3.18,3.37-2.12,0-2.97-.89-2.55-2.69-.42-2.24.32-3.37,2.23-3.37ZM36.24,99.03c-.43,2.02-1.49,3.03-3.18,3.03-2.12,0-2.97-1.01-2.54-3.03,0-2.02.95-3.03,2.86-3.03s2.86,1.01,2.86,3.03ZM41.01,200.08c1.91,0,2.86.9,2.86,2.69,0,2.25-.85,3.37-2.55,3.37-.85,0-1.59-.22-2.22-.67-.64-.45-.85-1.12-.64-2.02,0-2.24.84-3.37,2.55-3.37ZM45.78,96.34c0,2.02-1.06,3.03-3.18,3.03-1.7,0-2.54-1.01-2.54-3.03s.95-3.03,2.86-3.03,2.86,1.01,2.86,3.03ZM49.91,201.09c2.12.45,2.97,1.57,2.55,3.37-.43,2.02-1.38,3.03-2.86,3.03-1.91,0-2.86-1.12-2.86-3.37.21-1.57,1.27-2.58,3.18-3.03ZM49.91,94.99c0-2.02.95-3.03,2.86-3.03s2.86,1.01,2.86,3.03-.95,3.03-2.86,3.03-2.86-1.01-2.86-3.03ZM60.72,199.75c.63,0,1.22.34,1.75,1.01.52.67.68,1.46.48,2.36.21.9,0,1.57-.64,2.02-.63.45-1.38.67-2.22.67-1.7,0-2.55-1.12-2.55-3.37.42-1.8,1.48-2.69,3.18-2.69ZM59.13,96.67c0-2.02.95-3.03,2.86-3.03s2.86,1.01,2.86,3.03-.95,3.03-2.86,3.03-2.86-1.01-2.86-3.03ZM70.57,197.39c1.91,0,2.65,1.13,2.23,3.37,0,1.8-.95,2.69-2.86,2.69-1.91-.45-2.86-1.57-2.86-3.37.42-2.24,1.59-3.14,3.5-2.69ZM67.71,99.03c0-2.02.95-3.03,2.86-3.03s2.86,1.01,2.86,3.03-.95,3.03-2.86,3.03-2.86-1.01-2.86-3.03ZM75.66,104.42c0-2.02.95-3.03,2.86-3.03s2.86,1.01,2.86,3.03-.95,3.03-2.86,3.03-2.86-1.01-2.86-3.03ZM79.48,190.99c1.91,0,2.86,1.13,2.86,3.37-.43,1.8-1.59,2.69-3.5,2.69-1.91-.45-2.65-1.68-2.22-3.71,0-2.02.95-2.81,2.86-2.36ZM82.34,111.16c0-2.02.95-3.03,2.86-3.03s2.86,1.01,2.86,3.03-.95,3.03-2.86,3.03-2.86-1.01-2.86-3.03ZM86.47,184.59c1.91.45,2.86,1.46,2.86,3.03-.42,2.02-1.59,3.03-3.5,3.03-1.91-.45-2.65-1.57-2.23-3.37,0-2.24.95-3.14,2.86-2.69ZM88.37,120.25c0-2.02.95-3.03,2.86-3.03s2.86,1.01,2.86,3.03-.95,3.03-2.86,3.03-2.86-1.01-2.86-3.03ZM93.78,177.18c1.91,0,2.65,1.01,2.22,3.03,0,2.02-1.06,3.03-3.18,3.03-1.7-.45-2.55-1.68-2.55-3.71.42-2.02,1.59-2.81,3.5-2.36ZM91.87,130.36c0-2.02.95-3.03,2.86-3.03s2.86,1.01,2.86,3.03-.95,3.03-2.86,3.03-2.86-1.01-2.86-3.03ZM98.86,3.03c0-2.02.95-3.03,2.86-3.03s2.87,1.01,2.87,3.03-.95,3.03-2.87,3.03-2.86-1.01-2.86-3.03ZM98.86,13.14c0-2.02.95-3.03,2.86-3.03s2.87,1.01,2.87,3.03-.95,3.03-2.87,3.03-2.86-1.01-2.86-3.03ZM98.86,23.58c0-2.02.95-3.03,2.86-3.03s2.87,1.01,2.87,3.03-.95,3.03-2.87,3.03-2.86-1.01-2.86-3.03ZM98.86,35.37c0-2.02.95-3.03,2.86-3.03s2.87,1.01,2.87,3.03-.95,3.03-2.87,3.03-2.86-1.01-2.86-3.03ZM98.86,47.83c0-2.02.95-3.03,2.86-3.03s2.87,1.01,2.87,3.03-.95,3.03-2.87,3.03-2.86-1.01-2.86-3.03ZM98.86,59.62c0-2.02.95-3.03,2.86-3.03s2.87,1.01,2.87,3.03-.95,3.03-2.87,3.03-2.86-1.01-2.86-3.03ZM98.86,70.4c0-2.02.95-3.03,2.86-3.03s2.87,1.01,2.87,3.03-.95,3.03-2.87,3.03-2.86-1.01-2.86-3.03ZM98.86,81.18c0-2.02.95-3.03,2.86-3.03s2.87,1.01,2.87,3.03-.95,3.03-2.87,3.03-2.86-1.01-2.86-3.03ZM98.86,91.28c0-2.02.95-3.03,2.86-3.03s2.87,1.01,2.87,3.03-.95,3.03-2.87,3.03-2.86-1.01-2.86-3.03ZM98.86,101.73c0-2.02.95-3.03,2.86-3.03s2.87,1.01,2.87,3.03-.95,3.03-2.87,3.03-2.86-1.01-2.86-3.03ZM98.86,113.51c0-2.02.95-3.03,2.86-3.03s2.87,1.01,2.87,3.03-.95,3.03-2.87,3.03-2.86-1.01-2.86-3.03ZM98.86,125.98c0-2.02.95-3.03,2.86-3.03s2.87,1.01,2.87,3.03-.95,3.03-2.87,3.03-2.86-1.01-2.86-3.03ZM98.86,137.77c0-2.02.95-3.03,2.86-3.03s2.87,1.01,2.87,3.03-.95,3.03-2.87,3.03-2.86-1.01-2.86-3.03ZM98.86,150.9c0-2.02.95-3.03,2.86-3.03s2.87,1.01,2.87,3.03-.95,3.03-2.87,3.03-2.86-1.01-2.86-3.03ZM98.86,161.68c0-2.02.95-3.03,2.86-3.03s2.87,1.01,2.87,3.03-.95,3.03-2.87,3.03-2.86-1.01-2.86-3.03ZM98.86,171.79c0-2.02.95-3.03,2.86-3.03s2.87,1.01,2.87,3.03-.95,3.03-2.87,3.03-2.86-1.01-2.86-3.03ZM98.86,182.23c0-2.02.95-3.03,2.86-3.03s2.87,1.01,2.87,3.03-.95,3.03-2.87,3.03-2.86-1.01-2.86-3.03ZM98.86,194.02c0-2.02.95-3.03,2.86-3.03s2.87,1.01,2.87,3.03-.95,3.03-2.87,3.03-2.86-1.01-2.86-3.03ZM98.86,206.48c0-2.02.95-3.03,2.86-3.03s2.87,1.01,2.87,3.03-.95,3.03-2.87,3.03-2.86-1.01-2.86-3.03Z"/>
  </g>
</svg>