<?xml version="1.0" encoding="UTF-8"?>
<svg id="Layer_2" data-name="Layer 2" xmlns="http://www.w3.org/2000/svg" viewBox="0 0 34.96 111.31">
  <defs>
    <style>
      .cls-1 {
        fill: #3c3c3b;
        stroke-width: 0px;
      }
    </style>
  </defs>
  <g id="J">
    <path class="cls-1" d="M3.12,105.08c0,1.1-.52,1.65-1.56,1.65s-1.56-.55-1.56-1.65.52-1.65,1.56-1.65,1.56.55,1.56,1.65ZM7.62,108.38c0,1.1-.52,1.65-1.56,1.65s-1.56-.55-1.56-1.65.52-1.65,1.56-1.65,1.56.55,1.56,1.65ZM12.63,109.48c0,1.1-.52,1.65-1.56,1.65s-1.56-.55-1.56-1.65.52-1.65,1.56-1.65,1.56.55,1.56,1.65ZM18,109.66c0,1.1-.52,1.65-1.56,1.65s-1.56-.55-1.56-1.65.52-1.65,1.56-1.65,1.56.55,1.56,1.65ZM23.37,108.38c0,1.1-.52,1.65-1.56,1.65s-1.56-.55-1.56-1.65.52-1.65,1.56-1.65,1.56.55,1.56,1.65ZM27.69,105.81c0,1.1-.52,1.65-1.56,1.65s-1.56-.55-1.56-1.65.52-1.65,1.56-1.65,1.56.55,1.56,1.65ZM30.63,101.23c0,1.1-.52,1.65-1.56,1.65s-1.56-.55-1.56-1.65.52-1.65,1.56-1.65,1.56.55,1.56,1.65ZM32.37,96.09c0,1.1-.52,1.65-1.56,1.65s-1.56-.55-1.56-1.65.52-1.65,1.56-1.65,1.56.55,1.56,1.65ZM29.94,2.75c0-.73.26-1.38.78-1.93.52-.55,1.13-.82,1.82-.82s1.27.27,1.73.82c.46.55.69,1.19.69,1.93,0,1.71-.81,2.57-2.42,2.57-.69,0-1.3-.25-1.82-.73s-.78-1.1-.78-1.83ZM33.58,90.22c0,1.1-.52,1.65-1.56,1.65s-1.56-.55-1.56-1.65.52-1.65,1.56-1.65,1.56.55,1.56,1.65ZM34.27,16.14c0,1.1-.52,1.65-1.56,1.65s-1.56-.55-1.56-1.65.52-1.65,1.56-1.65,1.56.55,1.56,1.65ZM34.27,16.14c0,1.1-.52,1.65-1.56,1.65s-1.56-.55-1.56-1.65.52-1.65,1.56-1.65,1.56.55,1.56,1.65ZM34.27,22.92c0,1.1-.52,1.65-1.56,1.65s-1.56-.55-1.56-1.65.52-1.65,1.56-1.65,1.56.55,1.56,1.65ZM34.27,29.34c0,1.1-.52,1.65-1.56,1.65s-1.56-.55-1.56-1.65.52-1.65,1.56-1.65,1.56.55,1.56,1.65ZM34.27,35.03c0,1.1-.52,1.65-1.56,1.65s-1.56-.55-1.56-1.65.52-1.65,1.56-1.65,1.56.55,1.56,1.65ZM34.27,40.53c0,1.1-.52,1.65-1.56,1.65s-1.56-.55-1.56-1.65.52-1.65,1.56-1.65,1.56.55,1.56,1.65ZM34.27,46.4c0,1.1-.52,1.65-1.56,1.65s-1.56-.55-1.56-1.65.52-1.65,1.56-1.65,1.56.55,1.56,1.65ZM34.27,53.55c0,1.1-.52,1.65-1.56,1.65s-1.56-.55-1.56-1.65.52-1.65,1.56-1.65,1.56.55,1.56,1.65ZM34.27,59.97c0,1.1-.52,1.65-1.56,1.65s-1.56-.55-1.56-1.65.52-1.65,1.56-1.65,1.56.55,1.56,1.65ZM34.27,66.75c0,1.1-.52,1.65-1.56,1.65s-1.56-.55-1.56-1.65.52-1.65,1.56-1.65,1.56.55,1.56,1.65ZM34.27,73.17c0,1.1-.52,1.65-1.56,1.65s-1.56-.55-1.56-1.65.52-1.65,1.56-1.65,1.56.55,1.56,1.65ZM34.27,78.85c0,1.1-.52,1.65-1.56,1.65s-1.56-.55-1.56-1.65.52-1.65,1.56-1.65,1.56.55,1.56,1.65ZM34.27,84.36c0,1.1-.52,1.65-1.56,1.65s-1.56-.55-1.56-1.65.52-1.65,1.56-1.65,1.56.55,1.56,1.65Z"/>
  </g>
</svg>