<?xml version="1.0" encoding="UTF-8"?>
<svg id="Layer_2" data-name="Layer 2" xmlns="http://www.w3.org/2000/svg" viewBox="0 0 47.22 63.04">
  <defs>
    <style>
      .cls-1 {
        fill: #3c3c3b;
        stroke-width: 0px;
      }
    </style>
  </defs>
  <g id="R">
    <path class="cls-1" d="M0,61.41c0-1.08.51-1.63,1.53-1.63s1.53.54,1.53,1.63-.51,1.63-1.53,1.63-1.53-.54-1.53-1.63ZM.17,2.35C.17,1.26.68.72,1.71.72s1.53.54,1.53,1.63-.51,1.63-1.53,1.63S.17,3.43.17,2.35ZM.17,7.77c0-1.08.51-1.63,1.53-1.63s1.53.54,1.53,1.63-.51,1.63-1.53,1.63-1.53-.54-1.53-1.63ZM.17,13.37c0-1.08.51-1.63,1.53-1.63s1.53.54,1.53,1.63-.51,1.63-1.53,1.63-1.53-.54-1.53-1.63ZM.17,19.69c0-1.08.51-1.63,1.53-1.63s1.53.54,1.53,1.63-.51,1.63-1.53,1.63-1.53-.54-1.53-1.63ZM.17,26.01c0-1.08.51-1.63,1.53-1.63s1.53.54,1.53,1.63-.51,1.63-1.53,1.63-1.53-.54-1.53-1.63ZM.17,32.33c0-1.08.51-1.63,1.53-1.63s1.53.54,1.53,1.63-.51,1.63-1.53,1.63-1.53-.54-1.53-1.63ZM.17,39.38c0-1.08.51-1.63,1.53-1.63s1.53.54,1.53,1.63-.51,1.63-1.53,1.63-1.53-.54-1.53-1.63ZM.17,45.16c0-1.08.51-1.63,1.53-1.63s1.53.54,1.53,1.63-.51,1.63-1.53,1.63-1.53-.54-1.53-1.63ZM.17,50.58c0-1.08.51-1.63,1.53-1.63s1.53.54,1.53,1.63-.51,1.63-1.53,1.63-1.53-.54-1.53-1.63ZM.17,56.17c0-1.08.51-1.63,1.53-1.63s1.53.54,1.53,1.63-.51,1.63-1.53,1.63-1.53-.54-1.53-1.63ZM4.43,15.71c0-1.08.51-1.63,1.53-1.63s1.53.54,1.53,1.63-.51,1.63-1.53,1.63-1.53-.54-1.53-1.63ZM8.18,11.56c0-1.08.51-1.63,1.53-1.63s1.53.54,1.53,1.63-.51,1.63-1.53,1.63-1.53-.54-1.53-1.63ZM11.93,7.77c0-1.08.51-1.63,1.53-1.63s1.53.54,1.53,1.63-.51,1.63-1.53,1.63-1.53-.54-1.53-1.63ZM16.2,5.24c0-1.08.51-1.63,1.53-1.63s1.53.54,1.53,1.63-.51,1.63-1.53,1.63-1.53-.54-1.53-1.63ZM20.12,2.89c0-1.08.51-1.63,1.53-1.63s1.53.54,1.53,1.63-.51,1.63-1.53,1.63-1.53-.54-1.53-1.63ZM24.38,1.63c0-1.08.51-1.63,1.53-1.63s1.53.54,1.53,1.63-.51,1.63-1.53,1.63-1.53-.54-1.53-1.63ZM28.98,1.63c0-1.08.51-1.63,1.53-1.63s1.53.54,1.53,1.63-.51,1.63-1.53,1.63-1.53-.54-1.53-1.63ZM33.92,2.71c0-1.08.51-1.63,1.53-1.63s1.53.54,1.53,1.63-.51,1.63-1.53,1.63-1.53-.54-1.53-1.63ZM38.18,5.6c0-1.08.51-1.63,1.53-1.63s1.53.54,1.53,1.63-.51,1.63-1.53,1.63-1.53-.54-1.53-1.63ZM41.76,9.21c0-1.08.51-1.63,1.53-1.63s1.53.54,1.53,1.63-.51,1.63-1.53,1.63-1.53-.54-1.53-1.63ZM44.15,14.09c0-1.08.51-1.63,1.53-1.63s1.53.54,1.53,1.63-.51,1.63-1.53,1.63-1.53-.54-1.53-1.63Z"/>
  </g>
</svg>