<svg xmlns="http://www.w3.org/2000/svg" id="Layer_2" data-name="Layer 2" viewBox="0 0 57.02 96.6"><defs><style>.cls-1{fill:#3c3c3b;stroke-width:0}</style></defs><g id="Q"><path d="M1.56,33.61c-1.04,0-1.56-.55-1.56-1.65s.52-1.65,1.56-1.65,1.56.49,1.56,1.47c0,1.22-.52,1.84-1.56,1.84ZM.69,26.26c0-1.22.58-1.71,1.73-1.47.93,0,1.39.49,1.39,1.47,0,1.22-.58,1.84-1.73,1.84-.93-.24-1.39-.86-1.39-1.84ZM2.25,38.75c-1.04,0-1.56-.55-1.56-1.65s.46-1.65,1.39-1.65c1.15,0,1.73.49,1.73,1.47,0,1.22-.52,1.84-1.56,1.84ZM1.39,20.94c0-1.22.52-1.71,1.56-1.47.46-.12.84,0,1.13.37.29.37.43.8.43,1.29-.11.86-.69,1.41-1.73,1.65-1.15-.24-1.62-.86-1.39-1.84ZM3.81,44.63c-.92.25-1.5-.24-1.73-1.47,0-.98.52-1.59,1.56-1.84,1.04,0,1.56.55,1.56,1.65.23,1.1-.23,1.65-1.39,1.65ZM3.47,16.16c0-1.22.58-1.84,1.73-1.84.93.25,1.39.92,1.39,2.02-.23,1.1-.87,1.53-1.91,1.29-1.04,0-1.45-.49-1.21-1.47ZM6.07,50.14c-1.04,0-1.56-.55-1.56-1.65s.52-1.65,1.56-1.65,1.56.55,1.56,1.65-.52,1.65-1.56,1.65ZM6.24,11.75c.23-1.1.87-1.65,1.91-1.65,1.04.25,1.45.86,1.21,1.84.23,1.22-.23,1.72-1.39,1.47-1.04-.24-1.62-.8-1.73-1.65ZM9.53,55.1c-1.04,0-1.56-.55-1.56-1.65s.47-1.65,1.39-1.65c1.16,0,1.73.55,1.73,1.65s-.52,1.65-1.56,1.65ZM10.49,9.37c-.29-.37-.43-.8-.43-1.29.12-.86.75-1.41,1.91-1.65,1.04.25,1.45.92,1.21,2.02,0,1.1-.52,1.53-1.56,1.29-.46.12-.83,0-1.13-.37ZM13.17,58.59c-1.04,0-1.56-.49-1.56-1.47,0-1.22.52-1.84,1.56-1.84s1.56.55,1.56,1.65-.52,1.65-1.56,1.65ZM15.77,5.33c-.23-.98.23-1.47,1.39-1.47,1.16.25,1.73.86,1.73,1.84-.23,1.22-.87,1.72-1.91,1.47-1.04,0-1.44-.61-1.21-1.84ZM18.2,61.89c-1.04,0-1.56-.55-1.56-1.65-.23-1.1.23-1.65,1.39-1.65.93,0,1.5.55,1.73,1.65,0,1.1-.52,1.65-1.56,1.65ZM20.97,3.31c-.11-.49,0-.86.35-1.1.35-.24.75-.37,1.21-.37.93,0,1.39.61,1.39,1.84,0,.98-.52,1.47-1.56,1.47-.92,0-1.39-.61-1.39-1.84ZM23.4,63.36c-1.04,0-1.56-.55-1.56-1.65s.46-1.65,1.39-1.65c1.16,0,1.73.55,1.73,1.65s-.52,1.65-1.56,1.65ZM25.48,2.94c0-1.22.52-1.84,1.56-1.84.81,0,1.33.55,1.56,1.65.23.98-.23,1.59-1.39,1.84-1.04-.24-1.62-.8-1.73-1.65ZM28.77,60.42c1.04,0,1.56.55,1.56,1.65s-.52,1.65-1.56,1.65-1.56-.55-1.56-1.65.52-1.65,1.56-1.65ZM31.37,3.86c0-1.22.46-1.84,1.39-1.84.46,0,.87.12,1.21.37.35.25.46.61.35,1.1.12.49.03.92-.26,1.29-.29.37-.61.55-.95.55-.92,0-1.5-.49-1.73-1.47ZM33.8,59.87c1.04,0,1.56.55,1.56,1.65s-.52,1.65-1.56,1.65-1.56-.55-1.56-1.65.52-1.65,1.56-1.65ZM37.27,6.61c-.35-.49-.58-.98-.69-1.47,0-.61.52-1.04,1.56-1.29,1.04,0,1.56.49,1.56,1.47.23,1.22-.17,1.84-1.21,1.84-.46.12-.87-.06-1.21-.55ZM38.48,58.59c1.04,0,1.56.55,1.56,1.65s-.52,1.65-1.56,1.65-1.56-.55-1.56-1.65.52-1.65,1.56-1.65ZM42.81,55.65c1.04,0,1.56.55,1.56,1.65s-.52,1.65-1.56,1.65-1.56-.55-1.56-1.65.52-1.65,1.56-1.65ZM41.77,8.82c-.23-1.1.17-1.77,1.21-2.02,1.04,0,1.67.49,1.91,1.47,0,1.22-.52,1.84-1.56,1.84-1.04.25-1.56-.18-1.56-1.29ZM46.45,51.98c1.04,0,1.56.55,1.56,1.65s-.52,1.65-1.56,1.65-1.56-.55-1.56-1.65.52-1.65,1.56-1.65ZM45.59,12.12c-.23-.98.17-1.59,1.21-1.84,1.04,0,1.68.55,1.91,1.65,0,.86-.52,1.41-1.56,1.65-1.04.25-1.56-.24-1.56-1.47ZM49.75,47.02c1.04,0,1.56.55,1.56,1.65s-.52,1.65-1.56,1.65-1.56-.55-1.56-1.65.52-1.65,1.56-1.65ZM49.23,16.35c0-1.1.46-1.77,1.39-2.02,1.16,0,1.73.55,1.73,1.65.23,1.1-.17,1.65-1.21,1.65-1.04.25-1.67-.18-1.91-1.29ZM51.65,41.51c1.04,0,1.56.55,1.56,1.65s-.52,1.65-1.56,1.65-1.56-.55-1.56-1.65.52-1.65,1.56-1.65ZM55.46,0c1.04,0,1.56.55,1.56,1.65s-.52,1.65-1.56,1.65-1.56-.55-1.56-1.65.52-1.65,1.56-1.65ZM55.46,6.8c1.04,0,1.56.55,1.56,1.65s-.52,1.65-1.56,1.65-1.56-.55-1.56-1.65.52-1.65,1.56-1.65ZM55.46,13.22c1.04,0,1.56.55,1.56,1.65s-.52,1.65-1.56,1.65-1.56-.55-1.56-1.65.52-1.65,1.56-1.65ZM55.46,18.92c1.04,0,1.56.55,1.56,1.65s-.52,1.65-1.56,1.65-1.56-.55-1.56-1.65.52-1.65,1.56-1.65ZM55.46,24.43c1.04,0,1.56.55,1.56,1.65s-.52,1.65-1.56,1.65-1.56-.55-1.56-1.65.52-1.65,1.56-1.65ZM55.46,30.3c1.04,0,1.56.55,1.56,1.65s-.52,1.65-1.56,1.65-1.56-.55-1.56-1.65.52-1.65,1.56-1.65ZM55.46,37.47c1.04,0,1.56.55,1.56,1.65s-.52,1.65-1.56,1.65-1.56-.55-1.56-1.65.52-1.65,1.56-1.65ZM55.46,43.89c1.04,0,1.56.55,1.56,1.65s-.52,1.65-1.56,1.65-1.56-.55-1.56-1.65.52-1.65,1.56-1.65ZM55.46,50.69c1.04,0,1.56.55,1.56,1.65s-.52,1.65-1.56,1.65-1.56-.55-1.56-1.65.52-1.65,1.56-1.65ZM55.46,57.12c1.04,0,1.56.55,1.56,1.65s-.52,1.65-1.56,1.65-1.56-.55-1.56-1.65.52-1.65,1.56-1.65ZM55.46,62.81c1.04,0,1.56.55,1.56,1.65s-.52,1.65-1.56,1.65-1.56-.55-1.56-1.65.52-1.65,1.56-1.65ZM55.46,68.32c1.04,0,1.56.55,1.56,1.65s-.52,1.65-1.56,1.65-1.56-.55-1.56-1.65.52-1.65,1.56-1.65ZM55.46,74.2c1.04,0,1.56.55,1.56,1.65s-.52,1.65-1.56,1.65-1.56-.55-1.56-1.65.52-1.65,1.56-1.65ZM55.46,80.08c1.04,0,1.56.55,1.56,1.65s-.52,1.65-1.56,1.65-1.56-.55-1.56-1.65.52-1.65,1.56-1.65ZM55.46,86.5c1.04,0,1.56.55,1.56,1.65s-.52,1.65-1.56,1.65-1.56-.55-1.56-1.65.52-1.65,1.56-1.65ZM55.46,93.3c1.04,0,1.56.55,1.56,1.65s-.52,1.65-1.56,1.65-1.56-.55-1.56-1.65.52-1.65,1.56-1.65Z" class="cls-1"/></g></svg>