<?xml version="1.0" encoding="UTF-8"?>
<svg id="Layer_2" data-name="Layer 2" xmlns="http://www.w3.org/2000/svg" viewBox="0 0 5.07 79.8">
  <defs>
    <style>
      .cls-1 {
        fill: #3c3c3b;
        stroke-width: 0px;
      }
    </style>
  </defs>
  <g id="I">
    <path class="cls-1" d="M0,2.78c0-.74.26-1.39.79-1.95.52-.56,1.13-.83,1.83-.83s1.28.28,1.75.83c.46.56.7,1.2.7,1.95,0,1.73-.82,2.59-2.45,2.59-.7,0-1.31-.25-1.83-.74-.52-.49-.79-1.11-.79-1.85ZM1.05,78.13c0-1.11.52-1.67,1.57-1.67s1.57.56,1.57,1.67-.52,1.67-1.57,1.67-1.57-.56-1.57-1.67ZM1.22,17.22c0-1.11.52-1.67,1.57-1.67s1.57.56,1.57,1.67-.52,1.67-1.57,1.67-1.57-.56-1.57-1.67ZM1.22,22.77c0-1.11.52-1.67,1.57-1.67s1.57.56,1.57,1.67-.52,1.67-1.57,1.67-1.57-.56-1.57-1.67ZM1.22,28.51c0-1.11.52-1.67,1.57-1.67s1.57.56,1.57,1.67-.52,1.67-1.57,1.67-1.57-.56-1.57-1.67ZM1.22,34.99c0-1.11.52-1.67,1.57-1.67s1.57.56,1.57,1.67-.52,1.67-1.57,1.67-1.57-.56-1.57-1.67ZM1.22,41.84c0-1.11.52-1.67,1.57-1.67s1.57.56,1.57,1.67-.52,1.67-1.57,1.67-1.57-.56-1.57-1.67ZM1.22,48.32c0-1.11.52-1.67,1.57-1.67s1.57.56,1.57,1.67-.52,1.67-1.57,1.67-1.57-.56-1.57-1.67ZM1.22,55.55c0-1.11.52-1.67,1.57-1.67s1.57.56,1.57,1.67-.52,1.67-1.57,1.67-1.57-.56-1.57-1.67ZM1.22,61.47c0-1.11.52-1.67,1.57-1.67s1.57.56,1.57,1.67-.52,1.67-1.57,1.67-1.57-.56-1.57-1.67ZM1.22,67.02c0-1.11.52-1.67,1.57-1.67s1.57.56,1.57,1.67-.52,1.67-1.57,1.67-1.57-.56-1.57-1.67ZM1.22,72.76c0-1.11.52-1.67,1.57-1.67s1.57.56,1.57,1.67-.52,1.67-1.57,1.67-1.57-.56-1.57-1.67Z"/>
  </g>
</svg>