<?xml version="1.0" encoding="UTF-8"?>
<svg id="Layer_2" data-name="Layer 2" xmlns="http://www.w3.org/2000/svg" viewBox="0 0 88.16 61.4">
  <defs>
    <style>
      .cls-1 {
        fill: #3c3c3b;
        stroke-width: 0px;
      }
    </style>
  </defs>
  <g id="M">
    <path class="cls-1" d="M0,59.81c0-1.06.5-1.58,1.49-1.58s1.49.53,1.49,1.58-.5,1.58-1.49,1.58-1.49-.53-1.49-1.58ZM.17,2.29C.17,1.23.66.7,1.66.7s1.49.53,1.49,1.58-.5,1.58-1.49,1.58S.17,3.34.17,2.29ZM.17,7.56c0-1.06.5-1.58,1.49-1.58s1.49.53,1.49,1.58-.5,1.58-1.49,1.58-1.49-.53-1.49-1.58ZM.17,13.02c0-1.06.5-1.58,1.49-1.58s1.49.53,1.49,1.58-.5,1.58-1.49,1.58-1.49-.53-1.49-1.58ZM.17,19.18c0-1.06.5-1.58,1.49-1.58s1.49.53,1.49,1.58-.5,1.58-1.49,1.58-1.49-.53-1.49-1.58ZM.17,25.33c0-1.06.5-1.58,1.49-1.58s1.49.53,1.49,1.58-.5,1.58-1.49,1.58-1.49-.53-1.49-1.58ZM.17,31.49c0-1.06.5-1.58,1.49-1.58s1.49.53,1.49,1.58-.5,1.58-1.49,1.58-1.49-.53-1.49-1.58ZM.17,38.35c0-1.06.5-1.58,1.49-1.58s1.49.53,1.49,1.58-.5,1.58-1.49,1.58-1.49-.53-1.49-1.58ZM.17,43.98c0-1.06.5-1.58,1.49-1.58s1.49.53,1.49,1.58-.5,1.58-1.49,1.58-1.49-.53-1.49-1.58ZM.17,49.26c0-1.06.5-1.58,1.49-1.58s1.49.53,1.49,1.58-.5,1.58-1.49,1.58-1.49-.53-1.49-1.58ZM.17,54.71c0-1.06.5-1.58,1.49-1.58s1.49.53,1.49,1.58-.5,1.58-1.49,1.58-1.49-.53-1.49-1.58ZM4.32,15.31c0-1.06.5-1.58,1.49-1.58s1.49.53,1.49,1.58-.5,1.58-1.49,1.58-1.49-.53-1.49-1.58ZM7.97,11.26c0-1.06.5-1.58,1.49-1.58s1.49.53,1.49,1.58-.5,1.58-1.49,1.58-1.49-.53-1.49-1.58ZM11.62,7.56c0-1.06.5-1.58,1.49-1.58s1.49.53,1.49,1.58-.5,1.58-1.49,1.58-1.49-.53-1.49-1.58ZM15.77,5.1c0-1.06.5-1.58,1.49-1.58s1.49.53,1.49,1.58-.5,1.58-1.49,1.58-1.49-.53-1.49-1.58ZM19.59,2.81c0-1.06.5-1.58,1.49-1.58s1.49.53,1.49,1.58-.5,1.58-1.49,1.58-1.49-.53-1.49-1.58ZM23.74,1.58c0-1.06.5-1.58,1.49-1.58s1.49.53,1.49,1.58-.5,1.58-1.49,1.58-1.49-.53-1.49-1.58ZM28.22,1.58c0-1.06.5-1.58,1.49-1.58s1.49.53,1.49,1.58-.5,1.58-1.49,1.58-1.49-.53-1.49-1.58ZM33.04,2.64c0-1.06.5-1.58,1.49-1.58s1.49.53,1.49,1.58-.5,1.58-1.49,1.58-1.49-.53-1.49-1.58ZM37.19,5.45c0-1.06.5-1.58,1.49-1.58s1.49.53,1.49,1.58-.5,1.58-1.49,1.58-1.49-.53-1.49-1.58ZM40.68,8.97c0-1.06.5-1.58,1.49-1.58s1.49.53,1.49,1.58-.5,1.58-1.49,1.58-1.49-.53-1.49-1.58ZM43,13.72c0-1.06.5-1.58,1.49-1.58s1.49.53,1.49,1.58-.5,1.58-1.49,1.58-1.49-.53-1.49-1.58ZM44.16,19c0-1.06.5-1.58,1.49-1.58s1.49.53,1.49,1.58-.5,1.58-1.49,1.58-1.49-.53-1.49-1.58ZM45.33,24.8c0-1.06.5-1.58,1.49-1.58s1.49.53,1.49,1.58-.5,1.58-1.49,1.58-1.49-.53-1.49-1.58ZM45.82,30.79c0-1.06.5-1.58,1.49-1.58s1.49.53,1.49,1.58-.5,1.58-1.49,1.58-1.49-.53-1.49-1.58ZM45.82,36.42c0-1.06.5-1.58,1.49-1.58s1.49.53,1.49,1.58-.5,1.58-1.49,1.58-1.49-.53-1.49-1.58ZM45.82,41.69c0-1.06.5-1.58,1.49-1.58s1.49.53,1.49,1.58-.5,1.58-1.49,1.58-1.49-.53-1.49-1.58ZM45.82,47.15c0-1.06.5-1.58,1.49-1.58s1.49.53,1.49,1.58-.5,1.58-1.49,1.58-1.49-.53-1.49-1.58ZM45.82,53.3c0-1.06.5-1.58,1.49-1.58s1.49.53,1.49,1.58-.5,1.58-1.49,1.58-1.49-.53-1.49-1.58ZM45.82,59.81c0-1.06.5-1.58,1.49-1.58s1.49.53,1.49,1.58-.5,1.58-1.49,1.58-1.49-.53-1.49-1.58ZM47.15,11.26c0-1.06.5-1.58,1.49-1.58s1.49.53,1.49,1.58-.5,1.58-1.49,1.58-1.49-.53-1.49-1.58ZM50.8,7.56c0-1.06.5-1.58,1.49-1.58s1.49.53,1.49,1.58-.5,1.58-1.49,1.58-1.49-.53-1.49-1.58ZM54.96,5.1c0-1.06.5-1.58,1.49-1.58s1.49.53,1.49,1.58-.5,1.58-1.49,1.58-1.49-.53-1.49-1.58ZM58.77,2.81c0-1.06.5-1.58,1.49-1.58s1.49.53,1.49,1.58-.5,1.58-1.49,1.58-1.49-.53-1.49-1.58ZM62.92,1.58c0-1.06.5-1.58,1.49-1.58s1.49.53,1.49,1.58-.5,1.58-1.49,1.58-1.49-.53-1.49-1.58ZM67.41,1.58c0-1.06.5-1.58,1.49-1.58s1.49.53,1.49,1.58-.5,1.58-1.49,1.58-1.49-.53-1.49-1.58ZM72.22,2.64c0-1.06.5-1.58,1.49-1.58s1.49.53,1.49,1.58-.5,1.58-1.49,1.58-1.49-.53-1.49-1.58ZM76.37,5.45c0-1.06.5-1.58,1.49-1.58s1.49.53,1.49,1.58-.5,1.58-1.49,1.58-1.49-.53-1.49-1.58ZM79.86,8.97c0-1.06.5-1.58,1.49-1.58s1.49.53,1.49,1.58-.5,1.58-1.49,1.58-1.49-.53-1.49-1.58ZM82.18,13.72c0-1.06.5-1.58,1.49-1.58s1.49.53,1.49,1.58-.5,1.58-1.49,1.58-1.49-.53-1.49-1.58ZM83.51,19c0-1.06.5-1.58,1.49-1.58s1.49.53,1.49,1.58-.5,1.58-1.49,1.58-1.49-.53-1.49-1.58ZM84.67,24.8c0-1.06.5-1.58,1.49-1.58s1.49.53,1.49,1.58-.5,1.58-1.49,1.58-1.49-.53-1.49-1.58ZM85.17,30.79c0-1.06.5-1.58,1.49-1.58s1.49.53,1.49,1.58-.5,1.58-1.49,1.58-1.49-.53-1.49-1.58ZM85.17,36.42c0-1.06.5-1.58,1.49-1.58s1.49.53,1.49,1.58-.5,1.58-1.49,1.58-1.49-.53-1.49-1.58ZM85.17,41.69c0-1.06.5-1.58,1.49-1.58s1.49.53,1.49,1.58-.5,1.58-1.49,1.58-1.49-.53-1.49-1.58ZM85.17,47.15c0-1.06.5-1.58,1.49-1.58s1.49.53,1.49,1.58-.5,1.58-1.49,1.58-1.49-.53-1.49-1.58ZM85.17,53.3c0-1.06.5-1.58,1.49-1.58s1.49.53,1.49,1.58-.5,1.58-1.49,1.58-1.49-.53-1.49-1.58ZM85.17,59.81c0-1.06.5-1.58,1.49-1.58s1.49.53,1.49,1.58-.5,1.58-1.49,1.58-1.49-.53-1.49-1.58Z"/>
  </g>
</svg>