<?xml version="1.0" encoding="UTF-8"?>
<svg id="Layer_2" data-name="Layer 2" xmlns="http://www.w3.org/2000/svg" viewBox="0 0 82.78 61.06">
  <defs>
    <style>
      .cls-1 {
        fill: #3c3c3b;
        stroke-width: 0px;
      }
    </style>
  </defs>
  <g id="W">
    <path class="cls-1" d="M.22,2.35C-.22,1.43,0,.74.87.29,1.73-.29,2.38,0,2.81,1.14c.21.92-.06,1.55-.81,1.89-.43.23-.81.26-1.13.09-.33-.17-.54-.43-.65-.77ZM2.16,7.84c-.32-1.03-.06-1.72.81-2.06.33-.11.67-.09,1.06.09.38.17.62.49.73.94.21.34.21.72,0,1.12-.22.4-.49.6-.81.6-.43.23-.81.26-1.13.09-.33-.17-.54-.43-.65-.77ZM3.78,12.82c-.22-1.14.1-1.83.97-2.06.97-.23,1.56.06,1.78.86.32,1.03.05,1.72-.81,2.06-.97.34-1.62.06-1.95-.86ZM5.4,17.63c-.22-.92.16-1.6,1.14-2.06.22-.23.54-.2.97.09.43.29.7.6.81.94.22,1.03-.06,1.66-.81,1.89-.97.23-1.68-.06-2.11-.86ZM7.35,22.62c-.22-.34-.19-.69.08-1.03.27-.34.57-.57.89-.69.33-.23.67-.26,1.06-.09.38.17.62.49.73.94.21.92-.06,1.55-.81,1.89-.43.23-.81.23-1.13,0-.33-.23-.6-.57-.81-1.03ZM9.13,27.94c-.22-1.03.05-1.72.81-2.06.43-.11.84-.11,1.22,0,.38.11.62.46.73,1.03.22.34.22.69,0,1.03-.22.34-.43.63-.65.86-.76.34-1.46.06-2.11-.86ZM11.24,33.44c-.22-.34-.22-.71,0-1.12.22-.4.49-.66.81-.77.97-.23,1.62.06,1.95.86.21,1.03-.11,1.72-.97,2.06-.43.23-.81.2-1.14-.09-.32-.28-.54-.6-.65-.94ZM13.35,39.62c-.22-.46-.22-.89,0-1.29.22-.4.49-.71.81-.94.97-.23,1.62.17,1.95,1.2.21.34.21.72,0,1.12-.22.4-.54.6-.97.6-.33.23-.65.23-.97,0-.32-.23-.59-.46-.81-.69ZM15.29,45.12c-.32-1.03-.06-1.72.81-2.06.97-.23,1.56.11,1.78,1.03.54,1.03.32,1.66-.65,1.89-.97.34-1.62.06-1.95-.86ZM17.24,50.1c-.54-1.03-.32-1.66.65-1.89.86-.57,1.51-.28,1.95.86.43,1.03.16,1.66-.81,1.89-.97.46-1.57.17-1.78-.86ZM18.7,54.74c-.22-.92.11-1.49.97-1.72.97-.46,1.57-.23,1.78.69.32,1.03.05,1.78-.81,2.23-.43.23-.81.2-1.13-.09-.33-.28-.6-.66-.81-1.12ZM20.97,60.06c-.33-.92,0-1.6.97-2.06.75-.46,1.35-.11,1.78,1.03.43.8.11,1.43-.97,1.89-.76.34-1.35.06-1.78-.86ZM24.53,60.06c-.43.92-1.03,1.2-1.78.86-1.08-.46-1.41-1.09-.97-1.89.43-1.14,1.03-1.49,1.78-1.03.97.46,1.3,1.15.97,2.06ZM26.8,54.56c-.43,1.03-1.08,1.37-1.95,1.03-.87-.34-1.14-1.03-.81-2.06.11-.34.33-.63.65-.86.32-.23.7-.23,1.14,0,.86.34,1.19.97.97,1.89ZM28.26,49.75c-.22.92-.81,1.26-1.78,1.03-.87-.34-1.19-1.03-.97-2.06.33-.92.97-1.2,1.95-.86.97.23,1.24.86.81,1.89ZM30.04,44.77c-.43.92-1.08,1.2-1.95.86-.87-.23-1.08-.86-.65-1.89.22-.92.81-1.26,1.78-1.03.86.34,1.13,1.03.81,2.06ZM31.99,39.1c-.43.92-1.03,1.2-1.78.86-1.08-.23-1.41-.86-.97-1.89.32-.92.97-1.26,1.95-1.03.86.46,1.13,1.15.81,2.06ZM33.93,33.09c-.11.34-.32.63-.65.86-.32.23-.7.23-1.13,0-.87-.23-1.19-.86-.97-1.89.32-.92.97-1.26,1.95-1.03.86.46,1.14,1.15.81,2.06ZM36.04,27.6c-.22.23-.49.46-.81.69-.33.23-.7.23-1.14,0-.33-.11-.6-.37-.81-.77-.22-.4-.22-.77,0-1.12.22-.92.81-1.26,1.78-1.03.86.34,1.19,1.09.97,2.23ZM37.66,22.27c-.22,1.15-.81,1.43-1.78.86-.87-.34-1.19-.97-.97-1.89.33-.92.97-1.2,1.95-.86.86.46,1.14,1.09.81,1.89ZM39.45,17.12c-.32.92-.97,1.26-1.95,1.03-.87-.46-1.14-1.14-.81-2.06.1-.34.38-.63.81-.86.43-.23.75-.23.97,0,.43.11.73.37.89.77.16.4.19.77.08,1.12ZM41.23,12.31c-.32.92-.97,1.2-1.95.86-.97-.23-1.24-.86-.81-1.89.21-.92.81-1.26,1.78-1.03.86.34,1.19,1.03.97,2.06ZM42.85,7.33c-.43.92-1.08,1.2-1.95.86-.32-.11-.6-.37-.81-.77-.22-.4-.22-.77,0-1.12.1-.46.35-.77.73-.94.38-.17.73-.2,1.05-.09.86.34,1.19,1.03.97,2.06ZM42.2,12.14c-.22-1.03.11-1.72.97-2.06.97-.23,1.57.11,1.78,1.03.43,1.03.16,1.66-.81,1.89-.97.34-1.62.06-1.95-.86ZM43.99,16.95c-.11-.34-.08-.71.08-1.12.16-.4.46-.66.89-.77.21-.23.54-.23.97,0,.43.23.7.52.81.86.32.92.05,1.6-.81,2.06-.97.23-1.62-.11-1.95-1.03ZM45.77,22.1c-.32-.8-.06-1.43.81-1.89.97-.34,1.62-.06,1.95.86.22.92-.11,1.55-.97,1.89-.97.57-1.57.29-1.78-.86ZM47.39,27.42c-.22-1.14.1-1.89.97-2.23.97-.23,1.56.11,1.78,1.03.22.34.22.72,0,1.12-.22.4-.49.66-.81.77-.43.23-.81.23-1.14,0-.32-.23-.6-.46-.81-.69ZM49.5,32.92c-.32-.92-.06-1.6.81-2.06.97-.23,1.62.11,1.95,1.03.21,1.03-.11,1.66-.97,1.89-.43.23-.81.23-1.14,0-.32-.23-.54-.52-.65-.86ZM51.44,38.93c-.32-.92-.06-1.6.81-2.06.97-.23,1.62.11,1.95,1.03.43,1.03.11,1.66-.97,1.89-.76.34-1.35.06-1.78-.86ZM53.39,44.6c-.33-1.03-.06-1.72.81-2.06.97-.23,1.57.11,1.78,1.03.43,1.03.22,1.66-.65,1.89-.87.34-1.51.06-1.95-.86ZM55.17,49.58c-.43-1.03-.16-1.66.81-1.89.97-.34,1.62-.06,1.95.86.22,1.03-.11,1.72-.97,2.06-.97.23-1.57-.11-1.78-1.03ZM56.63,54.39c-.22-.92.11-1.55.97-1.89.43-.23.81-.23,1.14,0,.32.23.54.52.65.86.33,1.03.05,1.72-.81,2.06-.87.34-1.51,0-1.95-1.03ZM58.9,59.89c-.32-.92,0-1.6.97-2.06.76-.46,1.35-.11,1.78,1.03.43.8.1,1.43-.97,1.89-.76.34-1.35.06-1.78-.86ZM62.46,59.89c-.43.92-1.03,1.2-1.78.86-1.08-.46-1.41-1.09-.97-1.89.43-1.14,1.02-1.49,1.78-1.03.97.46,1.3,1.15.97,2.06ZM64.09,55.25c-.22.46-.49.83-.81,1.12-.32.29-.7.32-1.13.09-.97-.46-1.24-1.2-.81-2.23.22-.92.81-1.14,1.78-.69.86.23,1.19.8.97,1.72ZM65.55,50.61c-.22,1.03-.81,1.32-1.78.86-.97-.23-1.24-.86-.81-1.89.43-1.14,1.08-1.43,1.95-.86.97.23,1.19.86.65,1.89ZM67.49,45.63c-.33.92-.97,1.2-1.95.86-.97-.23-1.19-.86-.65-1.89.22-.92.81-1.26,1.78-1.03.87.34,1.14,1.03.81,2.06ZM69.44,40.14c-.22.23-.49.46-.81.69-.32.23-.65.23-.97,0-.43,0-.76-.2-.97-.6-.22-.4-.22-.77,0-1.12.33-1.03.97-1.43,1.95-1.2.33.23.59.54.81.94.21.4.21.83,0,1.29ZM71.54,33.95c-.11.34-.32.66-.65.94-.33.29-.7.32-1.14.09-.87-.34-1.19-1.03-.97-2.06.32-.8.97-1.09,1.95-.86.32.11.59.37.81.77.22.4.22.77,0,1.12ZM73.65,28.46c-.65.92-1.35,1.2-2.11.86-.22-.23-.43-.52-.65-.86-.22-.34-.22-.69,0-1.03.11-.57.35-.92.73-1.03.38-.11.78-.11,1.22,0,.75.34,1.03,1.03.81,2.06ZM75.43,23.13c-.22.46-.49.8-.81,1.03-.32.23-.7.23-1.13,0-.76-.34-1.03-.97-.81-1.89.11-.46.35-.77.73-.94.38-.17.73-.14,1.06.09.32.11.62.34.89.69.27.34.3.69.08,1.03ZM77.38,18.15c-.44.8-1.14,1.09-2.11.86-.76-.23-1.03-.86-.81-1.89.1-.34.38-.66.81-.94.43-.28.75-.31.97-.09.97.46,1.35,1.15,1.14,2.06ZM79,13.34c-.32.92-.97,1.2-1.95.86-.87-.34-1.13-1.03-.81-2.06.21-.8.81-1.09,1.78-.86.86.23,1.19.92.97,2.06ZM80.62,8.36c-.11.34-.32.6-.65.77-.32.17-.7.15-1.13-.09-.33,0-.6-.2-.81-.6-.22-.4-.22-.77,0-1.12.11-.46.35-.77.73-.94.38-.17.73-.2,1.06-.09.86.34,1.13,1.03.81,2.06ZM82.57,2.86c-.11.34-.32.6-.65.77-.32.17-.7.15-1.13-.09-.76-.34-1.03-.97-.81-1.89.43-1.14,1.08-1.43,1.95-.86.87.46,1.08,1.15.65,2.06Z"/>
  </g>
</svg>