<?xml version="1.0" encoding="UTF-8"?>
<svg id="Layer_2" data-name="Layer 2" xmlns="http://www.w3.org/2000/svg" viewBox="0 0 49.15 61.61">
  <defs>
    <style>
      .cls-1 {
        fill: #3c3c3b;
        stroke-width: 0px;
      }
    </style>
  </defs>
  <g id="U">
    <path class="cls-1" d="M3,1.59c0,1.06-.5,1.59-1.5,1.59s-1.5-.53-1.5-1.59S.5,0,1.5,0s1.5.53,1.5,1.59ZM3,8.12c0,1.06-.5,1.59-1.5,1.59s-1.5-.53-1.5-1.59.5-1.59,1.5-1.59,1.5.53,1.5,1.59ZM3,14.3c0,1.06-.5,1.59-1.5,1.59s-1.5-.53-1.5-1.59.5-1.59,1.5-1.59,1.5.53,1.5,1.59ZM3,19.77c0,1.06-.5,1.59-1.5,1.59s-1.5-.53-1.5-1.59.5-1.59,1.5-1.59,1.5.53,1.5,1.59ZM3,25.07c0,1.06-.5,1.59-1.5,1.59s-1.5-.53-1.5-1.59.5-1.59,1.5-1.59,1.5.53,1.5,1.59ZM3,30.72c0,1.06-.5,1.59-1.5,1.59s-1.5-.53-1.5-1.59.5-1.59,1.5-1.59,1.5.53,1.5,1.59ZM3.5,36.72c0,1.06-.5,1.59-1.5,1.59s-1.5-.53-1.5-1.59.5-1.59,1.5-1.59,1.5.53,1.5,1.59ZM4.67,42.54c0,1.06-.5,1.59-1.5,1.59s-1.5-.53-1.5-1.59.5-1.59,1.5-1.59,1.5.53,1.5,1.59ZM6,47.84c0,1.06-.5,1.59-1.5,1.59s-1.5-.53-1.5-1.59.5-1.59,1.5-1.59,1.5.53,1.5,1.59ZM8.33,52.6c0,1.06-.5,1.59-1.5,1.59s-1.5-.53-1.5-1.59.5-1.59,1.5-1.59,1.5.53,1.5,1.59ZM11.83,56.13c0,1.06-.5,1.59-1.5,1.59s-1.5-.53-1.5-1.59.5-1.59,1.5-1.59,1.5.53,1.5,1.59ZM15.99,58.96c0,1.06-.5,1.59-1.5,1.59s-1.5-.53-1.5-1.59.5-1.59,1.5-1.59,1.5.53,1.5,1.59ZM20.83,60.02c0,1.06-.5,1.59-1.5,1.59s-1.5-.53-1.5-1.59.5-1.59,1.5-1.59,1.5.53,1.5,1.59ZM25.32,60.02c0,1.06-.5,1.59-1.5,1.59s-1.5-.53-1.5-1.59.5-1.59,1.5-1.59,1.5.53,1.5,1.59ZM29.49,58.78c0,1.06-.5,1.59-1.5,1.59s-1.5-.53-1.5-1.59.5-1.59,1.5-1.59,1.5.53,1.5,1.59ZM33.32,56.49c0,1.06-.5,1.59-1.5,1.59s-1.5-.53-1.5-1.59.5-1.59,1.5-1.59,1.5.53,1.5,1.59ZM37.49,54.02c0,1.06-.5,1.59-1.5,1.59s-1.5-.53-1.5-1.59.5-1.59,1.5-1.59,1.5.53,1.5,1.59ZM41.15,50.31c0,1.06-.5,1.59-1.5,1.59s-1.5-.53-1.5-1.59.5-1.59,1.5-1.59,1.5.53,1.5,1.59ZM44.81,46.25c0,1.06-.5,1.59-1.5,1.59s-1.5-.53-1.5-1.59.5-1.59,1.5-1.59,1.5.53,1.5,1.59ZM48.98,6.71c0,1.06-.5,1.59-1.5,1.59s-1.5-.53-1.5-1.59.5-1.59,1.5-1.59,1.5.53,1.5,1.59ZM48.98,12.18c0,1.06-.5,1.59-1.5,1.59s-1.5-.53-1.5-1.59.5-1.59,1.5-1.59,1.5.53,1.5,1.59ZM48.98,17.48c0,1.06-.5,1.59-1.5,1.59s-1.5-.53-1.5-1.59.5-1.59,1.5-1.59,1.5.53,1.5,1.59ZM48.98,23.12c0,1.06-.5,1.59-1.5,1.59s-1.5-.53-1.5-1.59.5-1.59,1.5-1.59,1.5.53,1.5,1.59ZM48.98,30.01c0,1.06-.5,1.59-1.5,1.59s-1.5-.53-1.5-1.59.5-1.59,1.5-1.59,1.5.53,1.5,1.59ZM48.98,36.19c0,1.06-.5,1.59-1.5,1.59s-1.5-.53-1.5-1.59.5-1.59,1.5-1.59,1.5.53,1.5,1.59ZM48.98,42.37c0,1.06-.5,1.59-1.5,1.59s-1.5-.53-1.5-1.59.5-1.59,1.5-1.59,1.5.53,1.5,1.59ZM48.98,48.54c0,1.06-.5,1.59-1.5,1.59s-1.5-.53-1.5-1.59.5-1.59,1.5-1.59,1.5.53,1.5,1.59ZM48.98,54.02c0,1.06-.5,1.59-1.5,1.59s-1.5-.53-1.5-1.59.5-1.59,1.5-1.59,1.5.53,1.5,1.59ZM48.98,59.31c0,1.06-.5,1.59-1.5,1.59s-1.5-.53-1.5-1.59.5-1.59,1.5-1.59,1.5.53,1.5,1.59ZM49.15,1.59c0,1.06-.5,1.59-1.5,1.59s-1.5-.53-1.5-1.59.5-1.59,1.5-1.59,1.5.53,1.5,1.59Z"/>
  </g>
</svg>