<?xml version="1.0" encoding="UTF-8"?>
<svg id="Layer_2" data-name="Layer 2" xmlns="http://www.w3.org/2000/svg" viewBox="0 0 45.99 61.9">
  <defs>
    <style>
      .cls-1 {
        fill: #3c3c3b;
        stroke-width: 0px;
      }
    </style>
  </defs>
  <g id="X">
    <path class="cls-1" d="M2.74,61.16c-.57.84-1.25.96-2.04.36-.79-.6-.91-1.32-.34-2.16.57-.84,1.25-.96,2.04-.36.79.6.91,1.32.34,2.16ZM2.06,2.72c-.68-.84-.57-1.62.34-2.34.79-.6,1.47-.48,2.04.36.68.97.62,1.74-.17,2.34-.8.72-1.53.6-2.21-.36ZM5.8,56.83c-.57.84-1.25.96-2.05.36-.79-.6-.91-1.32-.34-2.16.57-.84,1.25-.96,2.04-.36.79.6.91,1.32.34,2.16ZM5.8,8.13c-.68-.84-.57-1.62.34-2.35.79-.72,1.53-.6,2.21.36.56.84.45,1.56-.34,2.16-.91.72-1.65.66-2.21-.18ZM9.04,52.32c-.57.84-1.25.97-2.04.36-.91-.72-1.02-1.5-.34-2.34.68-.96,1.42-1.08,2.21-.36.79.6.85,1.38.17,2.34ZM9.38,13.18c-.68-.84-.57-1.62.34-2.34.79-.72,1.53-.6,2.21.36.56.84.45,1.56-.34,2.16-.91.72-1.65.66-2.21-.18ZM13.12,46.73c-.57.84-1.3.9-2.21.18-.8-.6-.91-1.32-.34-2.16.68-.96,1.42-1.08,2.21-.36.91.72,1.02,1.5.34,2.34ZM12.61,17.69c-.57-.84-.45-1.56.34-2.16.91-.72,1.64-.66,2.21.18.68.84.57,1.62-.34,2.35-.79.72-1.53.6-2.21-.36ZM16.7,41.68c-.57.84-1.3.9-2.21.18-.8-.6-.91-1.32-.34-2.16.68-.96,1.42-1.08,2.21-.36.91.72,1.02,1.5.34,2.34ZM16.02,22.38c-.68-.96-.63-1.74.17-2.35.79-.72,1.53-.6,2.21.36.68.84.57,1.62-.34,2.34-.8.6-1.48.48-2.04-.36ZM20.27,36.63c-.57.84-1.3.9-2.21.18-.8-.6-.91-1.32-.34-2.16.68-.96,1.42-1.08,2.21-.36.91.72,1.02,1.5.34,2.34ZM19.08,26.71c-.68-.96-.63-1.74.17-2.34.79-.72,1.53-.6,2.21.36.68.84.57,1.62-.34,2.34-.8.6-1.48.48-2.04-.36ZM23.85,31.58c-.57.84-1.31.9-2.21.18-.8-.6-.91-1.32-.34-2.16.68-.96,1.42-1.08,2.21-.36.91.72,1.02,1.5.34,2.34ZM22.15,31.22c-.68-.84-.57-1.62.34-2.34.79-.72,1.53-.6,2.21.36.57.84.45,1.56-.34,2.16-.91.72-1.65.66-2.21-.18ZM26.91,27.07c-.57.84-1.25.97-2.04.36-.91-.72-1.02-1.5-.34-2.34.68-.96,1.42-1.08,2.21-.36.79.6.85,1.38.17,2.34ZM25.72,36.27c-.68-.84-.57-1.62.34-2.34.79-.72,1.53-.6,2.21.36.57.84.45,1.56-.34,2.16-.91.72-1.65.66-2.21-.18ZM29.98,22.74c-.57.84-1.25.97-2.04.36-.91-.72-1.02-1.5-.34-2.34.68-.96,1.42-1.08,2.21-.36.79.6.85,1.38.17,2.34ZM29.3,41.32c-.68-.84-.57-1.62.34-2.34.79-.72,1.53-.6,2.21.36.57.84.45,1.56-.34,2.16-.91.72-1.65.66-2.21-.18ZM33.38,18.05c-.68.97-1.42,1.08-2.21.36-.91-.72-1.02-1.5-.34-2.34.57-.84,1.3-.9,2.21-.18.79.6.91,1.33.34,2.16ZM32.87,46.37c-.68-.84-.57-1.62.34-2.35.79-.72,1.53-.6,2.21.36.57.84.45,1.56-.34,2.16-.91.72-1.65.66-2.21-.18ZM36.62,13.54c-.57.84-1.31.9-2.21.18-.79-.6-.91-1.32-.34-2.16.68-.96,1.42-1.08,2.21-.36.91.72,1.02,1.5.34,2.35ZM36.96,51.96c-.68-.96-.63-1.74.17-2.34.79-.72,1.53-.6,2.21.36.68.84.57,1.62-.34,2.34-.79.6-1.48.48-2.04-.36ZM40.19,8.49c-.57.84-1.31.9-2.21.18-.79-.6-.91-1.32-.34-2.16.68-.96,1.42-1.08,2.21-.36.91.72,1.02,1.5.34,2.34ZM40.19,56.47c-.57-.84-.45-1.56.34-2.16.79-.6,1.47-.48,2.04.36.57.84.45,1.56-.34,2.16-.8.6-1.48.48-2.04-.36ZM43.94,3.08c-.68.96-1.42,1.08-2.21.36-.8-.6-.85-1.38-.17-2.35.57-.84,1.25-.96,2.04-.36.91.72,1.02,1.5.34,2.34ZM43.26,60.8c-.57-.84-.45-1.56.34-2.16.79-.6,1.47-.48,2.04.36.57.84.45,1.56-.34,2.16-.8.6-1.48.48-2.04-.36Z"/>
  </g>
</svg>