<?xml version="1.0" encoding="UTF-8"?>
<svg id="Layer_2" data-name="Layer 2" xmlns="http://www.w3.org/2000/svg" viewBox="0 0 56.09 95.01">
  <defs>
    <style>
      .cls-1 {
        fill: #3c3c3b;
        stroke-width: 0px;
      }
    </style>
  </defs>
  <g id="P">
    <path class="cls-1" d="M3.07,1.63c0,1.08-.51,1.63-1.53,1.63s-1.53-.54-1.53-1.63S.51,0,1.53,0s1.53.54,1.53,1.63ZM3.07,8.31c0,1.08-.51,1.63-1.53,1.63s-1.53-.54-1.53-1.63.51-1.63,1.53-1.63,1.53.54,1.53,1.63ZM3.07,14.63c0,1.08-.51,1.63-1.53,1.63s-1.53-.54-1.53-1.63.51-1.63,1.53-1.63,1.53.54,1.53,1.63ZM3.07,20.23c0,1.08-.51,1.63-1.53,1.63s-1.53-.54-1.53-1.63.51-1.63,1.53-1.63,1.53.54,1.53,1.63ZM3.07,25.65c0,1.08-.51,1.63-1.53,1.63s-1.53-.54-1.53-1.63.51-1.63,1.53-1.63,1.53.54,1.53,1.63ZM3.07,31.43c0,1.08-.51,1.63-1.53,1.63s-1.53-.54-1.53-1.63.51-1.63,1.53-1.63,1.53.54,1.53,1.63ZM3.07,38.47c0,1.08-.51,1.63-1.53,1.63s-1.53-.54-1.53-1.63.51-1.63,1.53-1.63,1.53.54,1.53,1.63ZM3.07,44.8c0,1.08-.51,1.63-1.53,1.63s-1.53-.54-1.53-1.63.51-1.63,1.53-1.63,1.53.54,1.53,1.63ZM3.07,51.48c0,1.08-.51,1.63-1.53,1.63s-1.53-.54-1.53-1.63.51-1.63,1.53-1.63,1.53.54,1.53,1.63ZM3.07,57.8c0,1.08-.51,1.63-1.53,1.63s-1.53-.54-1.53-1.63.51-1.63,1.53-1.63,1.53.54,1.53,1.63ZM3.07,63.4c0,1.08-.51,1.63-1.53,1.63s-1.53-.54-1.53-1.63.51-1.63,1.53-1.63,1.53.54,1.53,1.63ZM3.07,68.82c0,1.08-.51,1.63-1.53,1.63s-1.53-.54-1.53-1.63.51-1.63,1.53-1.63,1.53.54,1.53,1.63ZM3.07,74.6c0,1.08-.51,1.63-1.53,1.63s-1.53-.54-1.53-1.63.51-1.63,1.53-1.63,1.53.54,1.53,1.63ZM3.07,80.38c0,1.08-.51,1.63-1.53,1.63s-1.53-.54-1.53-1.63.51-1.63,1.53-1.63,1.53.54,1.53,1.63ZM3.07,86.7c0,1.08-.51,1.63-1.53,1.63s-1.53-.54-1.53-1.63.51-1.63,1.53-1.63,1.53.54,1.53,1.63ZM3.07,93.39c0,1.08-.51,1.63-1.53,1.63s-1.53-.54-1.53-1.63.51-1.63,1.53-1.63,1.53.54,1.53,1.63ZM6.82,42.45c0,1.08-.51,1.63-1.53,1.63s-1.53-.54-1.53-1.63.51-1.63,1.53-1.63,1.53.54,1.53,1.63ZM5.8,17.34c-1.02,0-1.42-.54-1.19-1.63,0-1.08.57-1.63,1.71-1.63.91.24,1.37.9,1.37,1.99-.23,1.08-.85,1.51-1.88,1.26ZM8.7,47.87c0,1.08-.51,1.63-1.53,1.63s-1.53-.54-1.53-1.63.51-1.63,1.53-1.63,1.53.54,1.53,1.63ZM9.72,13.37c-1.02-.24-1.53-.78-1.53-1.63.23-1.08.85-1.63,1.87-1.63,1.02.24,1.42.84,1.19,1.81,0,1.21-.51,1.69-1.53,1.44ZM11.93,52.74c0,1.08-.51,1.63-1.53,1.63s-1.53-.54-1.53-1.63.51-1.63,1.53-1.63,1.53.54,1.53,1.63ZM13.47,9.93c-1.02,0-1.53-.6-1.53-1.81.23-.96.85-1.44,1.88-1.44,1.02.24,1.42.9,1.19,1.99,0,1.08-.51,1.51-1.53,1.26ZM15.51,56.36c0,1.08-.51,1.63-1.53,1.63s-1.53-.54-1.53-1.63.51-1.63,1.53-1.63,1.53.54,1.53,1.63ZM19.78,59.25c0,1.08-.51,1.63-1.53,1.63s-1.53-.54-1.53-1.63.51-1.63,1.53-1.63,1.53.54,1.53,1.63ZM18.24,7.04c-1.02,0-1.42-.6-1.19-1.81,0-.96.51-1.45,1.53-1.45,1.02.24,1.53.66,1.53,1.26-.11.48-.34.97-.68,1.45-.34.48-.74.66-1.19.54ZM24.38,60.51c0,1.08-.51,1.63-1.53,1.63s-1.53-.54-1.53-1.63.51-1.63,1.53-1.63,1.53.54,1.53,1.63ZM23.53,5.24c-.34,0-.66-.18-.94-.54-.28-.36-.37-.78-.26-1.26-.11-.48,0-.84.34-1.08.34-.24.74-.36,1.19-.36.91,0,1.37.61,1.37,1.81-.23.97-.8,1.45-1.71,1.45ZM29.32,61.05c0,1.08-.51,1.63-1.53,1.63s-1.53-.54-1.53-1.63.51-1.63,1.53-1.63,1.53.54,1.53,1.63ZM29.32,4.52c-1.14-.24-1.59-.84-1.37-1.81.23-1.08.74-1.63,1.53-1.63,1.02,0,1.53.61,1.53,1.81-.11.84-.68,1.39-1.7,1.63ZM31.54,60.69c0-1.08.57-1.63,1.71-1.63.91,0,1.36.54,1.36,1.63s-.51,1.63-1.53,1.63-1.53-.54-1.53-1.63ZM34.09,5.06c-1.02,0-1.53-.48-1.53-1.44,0-1.2.45-1.81,1.37-1.81.45,0,.85.12,1.19.36.34.24.45.61.34,1.08,0,1.21-.46,1.81-1.37,1.81ZM36.65,59.25c.23-1.08.8-1.63,1.71-1.63,1.14,0,1.59.54,1.36,1.63,0,1.08-.51,1.63-1.53,1.63s-1.53-.54-1.53-1.63ZM39.38,7.04c-1.02.24-1.65-.24-1.87-1.45,0-.96.57-1.56,1.7-1.81,1.14,0,1.59.48,1.37,1.45.23,1.21-.17,1.81-1.19,1.81ZM41.6,56c0-1.08.51-1.63,1.53-1.63s1.53.61,1.53,1.81c0,.97-.51,1.45-1.53,1.45s-1.53-.54-1.53-1.63ZM44.67,9.57c-1.02.24-1.53-.18-1.53-1.26-.23-1.08.17-1.74,1.19-1.99,1.14.24,1.76.79,1.88,1.63,0,.48-.14.9-.43,1.26-.28.36-.65.48-1.11.36ZM45.18,52.56c0-1.08.57-1.63,1.71-1.63.91,0,1.36.54,1.36,1.63s-.51,1.63-1.53,1.63-1.53-.54-1.53-1.63ZM48.24,13.19c-1.14.24-1.59-.24-1.36-1.45-.23-.96.17-1.56,1.19-1.81,1.02,0,1.65.54,1.88,1.63-.11.84-.68,1.39-1.71,1.63ZM48.58,47.69c0-1.08.51-1.63,1.53-1.63s1.53.54,1.53,1.63-.51,1.63-1.53,1.63-1.53-.54-1.53-1.63ZM51.48,17.34c-1.02.24-1.65-.18-1.88-1.26,0-1.08.45-1.74,1.37-1.99,1.13,0,1.7.61,1.7,1.81.23.97-.17,1.44-1.19,1.44ZM50.97,42.27c0-1.08.51-1.63,1.53-1.63,1.02.24,1.53.84,1.53,1.81-.23,1.21-.8,1.69-1.71,1.45-1.14,0-1.59-.54-1.36-1.63ZM53.36,22.4c-1.02-.24-1.59-.78-1.71-1.63,0-.48.14-.9.43-1.26.28-.36.65-.48,1.11-.36,1.02-.24,1.53.24,1.53,1.44.23.97-.23,1.57-1.36,1.81ZM54.04,27.64c-1.14,0-1.71-.6-1.71-1.81,0-.96.45-1.45,1.36-1.45,1.14-.24,1.71.24,1.71,1.45,0,.97-.46,1.57-1.36,1.81ZM52.34,36.31c0-.96.57-1.44,1.71-1.44.91,0,1.36.54,1.36,1.63s-.51,1.63-1.53,1.63-1.53-.6-1.53-1.81ZM53.02,31.25c0-.96.51-1.44,1.53-1.44s1.53.54,1.53,1.63-.51,1.63-1.53,1.63-1.53-.6-1.53-1.81Z"/>
  </g>
</svg>