<?xml version="1.0" encoding="UTF-8"?>
<svg id="Layer_2" data-name="Layer 2" xmlns="http://www.w3.org/2000/svg" viewBox="0 0 54.99 93.59">
  <defs>
    <style>
      .cls-1 {
        fill: #3c3c3b;
        stroke-width: 0px;
      }
    </style>
  </defs>
  <g id="Y">
    <path class="cls-1" d="M.22,2.53C-.22,1.59,0,.82.89.23,1.66-.23,2.27,0,2.72.94c.22.35.3.77.25,1.23-.06.47-.25.82-.58,1.06-.44.24-.86.26-1.25.09-.39-.18-.69-.44-.92-.79ZM3.22,8.35c-.22-.47-.25-.91-.08-1.32.17-.41.42-.73.75-.97.33-.24.72-.29,1.17-.18.44.12.77.35,1,.71.22.47.25.88.08,1.23-.17.35-.42.65-.75.88-.78.71-1.5.59-2.16-.35ZM6.22,13.64c-.22-.35-.28-.77-.16-1.23.11-.47.33-.82.66-1.06.89-.59,1.61-.35,2.16.71.44.94.27,1.59-.5,1.94-.89.59-1.61.47-2.16-.35ZM8.88,18.4c-.56-.71-.39-1.41.5-2.12.89-.47,1.61-.29,2.16.53.44.94.22,1.7-.67,2.29-.78.35-1.44.12-2-.71ZM11.54,23.34c-.44-.94-.28-1.7.5-2.29.77-.47,1.5-.23,2.16.71.44.82.22,1.59-.66,2.29-.78.47-1.44.24-2-.71ZM14.04,27.93c-.44-.94-.28-1.7.5-2.29.77-.47,1.5-.23,2.16.71.44.82.22,1.59-.67,2.29-.78.47-1.44.24-2-.71ZM16.54,32.69c-.44-.82-.22-1.53.67-2.12.89-.47,1.55-.29,2,.53.55.71.39,1.41-.5,2.12-.33.24-.72.33-1.17.26-.44-.06-.78-.32-1-.79ZM19.37,91.25c.22-.35.53-.68.92-.97.39-.29.75-.33,1.08-.09.78.35,1.05,1.12.83,2.29-.22,1.06-.89,1.35-2,.88-.33-.12-.61-.35-.83-.71-.22-.35-.22-.82,0-1.41ZM19.53,38.16c-.56-1.06-.39-1.82.5-2.29,1-.59,1.72-.41,2.16.53.44.82.22,1.53-.67,2.12-.33.24-.69.33-1.08.26-.39-.06-.7-.26-.92-.62ZM21.53,85.96c0-.47.19-.77.58-.88.39-.12.75-.12,1.08,0,.89.47,1.16,1.18.83,2.12-.22.35-.47.68-.75.97-.28.29-.69.33-1.25.09-.44-.24-.64-.56-.58-.97.05-.41.08-.86.08-1.32ZM22.36,43.45c-.44-.94-.22-1.7.67-2.29.77-.47,1.44-.23,2,.71.44.94.27,1.59-.5,1.94-.33.24-.72.33-1.17.26-.44-.06-.78-.26-1-.62ZM23.36,80.85c0-.35.19-.68.58-.97.39-.3.8-.33,1.25-.09,1,.47,1.27,1.23.83,2.29-.33.94-.94,1.17-1.83.71-.56-.12-.83-.77-.83-1.94ZM25.36,48.74c-.22-.35-.28-.76-.16-1.23.11-.47.33-.82.66-1.06.78-.47,1.5-.23,2.16.71.44.82.22,1.53-.67,2.12-.78.47-1.44.29-2-.53ZM25.36,74.85c.22-.35.55-.59,1-.71.44-.12.83-.12,1.17,0,.77.47,1.05,1.18.83,2.12-.33.82-1,1.12-2,.88-1.11-.47-1.44-1.23-1-2.29ZM27.69,69.03c.11-.35.36-.65.75-.88.39-.24.8-.24,1.25,0,.33.24.52.53.58.88.06.35.08.71.08,1.06s-.22.65-.66.88c-.44.24-.83.29-1.17.18-.78-.47-1.06-1.18-.83-2.12ZM28.69,54.74c-.67-1.06-.56-1.82.33-2.29.89-.59,1.61-.35,2.16.71.44.82.22,1.53-.67,2.12-.89.47-1.5.29-1.83-.53ZM29.52,63.38c.44-.82,1.11-1.12,2-.88.77.35,1,1.06.67,2.12-.33.71-.94.88-1.83.53-.89-.35-1.16-.94-.83-1.76ZM31.35,59.5c-.56-.71-.39-1.41.5-2.12.78-.47,1.44-.23,2,.71.33.82.11,1.47-.66,1.94-.67.35-1.28.18-1.83-.53ZM31.52,58.27c.55-.94,1.17-1.35,1.83-1.23,1,.47,1.28,1.18.83,2.12-.44.94-1.11,1.23-2,.88-1-.47-1.22-1.06-.67-1.76ZM33.68,51.74c.22-.59.58-.97,1.08-1.15.5-.18.92-.15,1.25.09.89.47,1.11,1.23.67,2.29-.11.35-.33.65-.67.88-.33.24-.72.24-1.16,0-1-.47-1.39-1.17-1.17-2.12ZM35.85,45.92c0-.47.22-.82.66-1.06.44-.24.94-.18,1.5.18.89.71,1.17,1.41.83,2.12-.22.59-.53.91-.92.97-.39.06-.75.03-1.08-.09-.67-.35-1-1.06-1-2.12ZM38.01,40.28c.22-.47.55-.79,1-.97.44-.18.83-.15,1.17.09.77.24,1.05.88.83,1.94-.44,1.18-1.11,1.47-2,.88-.33-.23-.64-.53-.91-.88-.28-.35-.31-.71-.08-1.06ZM40.18,34.45c.44-1.06,1.11-1.35,2-.88.89.35,1.17,1.06.83,2.12-.22.59-.83.88-1.83.88-.56,0-.92-.2-1.08-.62-.17-.41-.14-.91.08-1.5ZM42.17,29.16c.33-.59,1-.88,2-.88.44,0,.75.26.92.8.16.53.14,1.03-.08,1.5-.11.35-.39.68-.83.97-.44.29-.89.33-1.33.09-.45-.23-.75-.56-.92-.97-.17-.41-.08-.91.25-1.5ZM44,24.4c.22-.35.53-.68.92-.97.39-.29.75-.33,1.08-.09.78.35,1.05,1.12.83,2.29-.22,1.06-.89,1.35-2,.88-.33-.12-.61-.35-.83-.71s-.22-.82,0-1.41ZM46.17,19.11c0-.47.19-.76.58-.88.39-.11.75-.11,1.08,0,.89.47,1.16,1.18.83,2.12-.22.35-.47.68-.75.97-.28.29-.69.33-1.25.09-.44-.23-.64-.56-.58-.97.06-.41.08-.85.08-1.32ZM48,13.99c0-.35.19-.68.58-.97.39-.29.8-.32,1.25-.09,1,.47,1.27,1.23.83,2.29-.33.94-.94,1.18-1.83.71-.56-.12-.83-.76-.83-1.94ZM50,7.99c.22-.35.55-.59,1-.71.44-.11.83-.11,1.17,0,.78.47,1.05,1.18.83,2.12-.33.82-1,1.12-2,.88-1.11-.47-1.44-1.23-1-2.29ZM52.33,2.17c.11-.35.36-.64.75-.88.39-.23.8-.23,1.25,0,.33.24.52.53.58.88.05.35.08.71.08,1.06s-.22.65-.67.88c-.44.24-.83.29-1.17.18-.78-.47-1.06-1.18-.83-2.12Z"/>
  </g>
</svg>