<?xml version="1.0" encoding="UTF-8"?>
<svg id="Layer_2" data-name="Layer 2" xmlns="http://www.w3.org/2000/svg" viewBox="0 0 49.15 61.61">
  <defs>
    <style>
      .cls-1 {
        fill: #3c3c3b;
        stroke-width: 0px;
      }
    </style>
  </defs>
  <g id="N">
    <path class="cls-1" d="M0,60.02c0-1.06.5-1.59,1.5-1.59s1.5.53,1.5,1.59-.5,1.59-1.5,1.59-1.5-.53-1.5-1.59ZM.17,2.29C.17,1.24.67.71,1.67.71s1.5.53,1.5,1.59-.5,1.59-1.5,1.59S.17,3.35.17,2.29ZM.17,7.59c0-1.06.5-1.59,1.5-1.59s1.5.53,1.5,1.59-.5,1.59-1.5,1.59-1.5-.53-1.5-1.59ZM.17,13.06c0-1.06.5-1.59,1.5-1.59s1.5.53,1.5,1.59-.5,1.59-1.5,1.59-1.5-.53-1.5-1.59ZM.17,19.24c0-1.06.5-1.59,1.5-1.59s1.5.53,1.5,1.59-.5,1.59-1.5,1.59-1.5-.53-1.5-1.59ZM.17,25.42c0-1.06.5-1.59,1.5-1.59s1.5.53,1.5,1.59-.5,1.59-1.5,1.59-1.5-.53-1.5-1.59ZM.17,31.6c0-1.06.5-1.59,1.5-1.59s1.5.53,1.5,1.59-.5,1.59-1.5,1.59-1.5-.53-1.5-1.59ZM.17,38.48c0-1.06.5-1.59,1.5-1.59s1.5.53,1.5,1.59-.5,1.59-1.5,1.59-1.5-.53-1.5-1.59ZM.17,44.13c0-1.06.5-1.59,1.5-1.59s1.5.53,1.5,1.59-.5,1.59-1.5,1.59-1.5-.53-1.5-1.59ZM.17,49.43c0-1.06.5-1.59,1.5-1.59s1.5.53,1.5,1.59-.5,1.59-1.5,1.59-1.5-.53-1.5-1.59ZM.17,54.9c0-1.06.5-1.59,1.5-1.59s1.5.53,1.5,1.59-.5,1.59-1.5,1.59-1.5-.53-1.5-1.59ZM4.33,15.36c0-1.06.5-1.59,1.5-1.59s1.5.53,1.5,1.59-.5,1.59-1.5,1.59-1.5-.53-1.5-1.59ZM8,11.3c0-1.06.5-1.59,1.5-1.59s1.5.53,1.5,1.59-.5,1.59-1.5,1.59-1.5-.53-1.5-1.59ZM11.66,7.59c0-1.06.5-1.59,1.5-1.59s1.5.53,1.5,1.59-.5,1.59-1.5,1.59-1.5-.53-1.5-1.59ZM15.83,5.12c0-1.06.5-1.59,1.5-1.59s1.5.53,1.5,1.59-.5,1.59-1.5,1.59-1.5-.53-1.5-1.59ZM19.66,2.82c0-1.06.5-1.59,1.5-1.59s1.5.53,1.5,1.59-.5,1.59-1.5,1.59-1.5-.53-1.5-1.59ZM23.82,1.59c0-1.06.5-1.59,1.5-1.59s1.5.53,1.5,1.59-.5,1.59-1.5,1.59-1.5-.53-1.5-1.59ZM28.32,1.59c0-1.06.5-1.59,1.5-1.59s1.5.53,1.5,1.59-.5,1.59-1.5,1.59-1.5-.53-1.5-1.59ZM33.15,2.65c0-1.06.5-1.59,1.5-1.59s1.5.53,1.5,1.59-.5,1.59-1.5,1.59-1.5-.53-1.5-1.59ZM37.32,5.47c0-1.06.5-1.59,1.5-1.59s1.5.53,1.5,1.59-.5,1.59-1.5,1.59-1.5-.53-1.5-1.59ZM40.82,9c0-1.06.5-1.59,1.5-1.59s1.5.53,1.5,1.59-.5,1.59-1.5,1.59-1.5-.53-1.5-1.59ZM43.15,13.77c0-1.06.5-1.59,1.5-1.59s1.5.53,1.5,1.59-.5,1.59-1.5,1.59-1.5-.53-1.5-1.59ZM44.48,19.06c0-1.06.5-1.59,1.5-1.59s1.5.53,1.5,1.59-.5,1.59-1.5,1.59-1.5-.53-1.5-1.59ZM45.65,24.89c0-1.06.5-1.59,1.5-1.59s1.5.53,1.5,1.59-.5,1.59-1.5,1.59-1.5-.53-1.5-1.59ZM46.15,30.89c0-1.06.5-1.59,1.5-1.59s1.5.53,1.5,1.59-.5,1.59-1.5,1.59-1.5-.53-1.5-1.59ZM46.15,36.54c0-1.06.5-1.59,1.5-1.59s1.5.53,1.5,1.59-.5,1.59-1.5,1.59-1.5-.53-1.5-1.59ZM46.15,41.84c0-1.06.5-1.59,1.5-1.59s1.5.53,1.5,1.59-.5,1.59-1.5,1.59-1.5-.53-1.5-1.59ZM46.15,47.31c0-1.06.5-1.59,1.5-1.59s1.5.53,1.5,1.59-.5,1.59-1.5,1.59-1.5-.53-1.5-1.59ZM46.15,53.49c0-1.06.5-1.59,1.5-1.59s1.5.53,1.5,1.59-.5,1.59-1.5,1.59-1.5-.53-1.5-1.59ZM46.15,60.02c0-1.06.5-1.59,1.5-1.59s1.5.53,1.5,1.59-.5,1.59-1.5,1.59-1.5-.53-1.5-1.59Z"/>
  </g>
</svg>