<?xml version="1.0" encoding="UTF-8"?>
<svg id="Layer_2" data-name="Layer 2" xmlns="http://www.w3.org/2000/svg" viewBox="0 0 101.45 117.46">
  <defs>
    <style>
      .cls-1 {
        fill: #3c3c3b;
        stroke-width: 0px;
      }
    </style>
  </defs>
  <g id="C">
    <path class="cls-1" d="M5.9,60.47c0,1.86-.98,2.78-2.95,2.78s-2.95-1.04-2.95-3.13.98-3.13,2.95-3.13,2.95,1.16,2.95,3.47ZM7.22,50.74c0,1.86-1.1,2.78-3.28,2.78-1.75,0-2.62-1.04-2.62-3.13s.98-3.13,2.95-3.13,2.95,1.16,2.95,3.48ZM3.94,67.42c2.18,0,3.28,1.16,3.28,3.48,0,1.86-.88,2.78-2.62,2.78-2.19.47-3.28-.46-3.28-2.78,0-1.85.87-3.01,2.62-3.48ZM5.25,77.49c1.97.47,3.06,1.51,3.28,3.13,0,.93-.28,1.74-.82,2.43-.55.69-1.26.93-2.13.69-1.97.47-2.95-.46-2.95-2.78-.44-1.85.43-3.01,2.62-3.48ZM9.84,39.27c0,2.09-.98,3.13-2.95,3.13-1.97-.46-2.95-1.62-2.95-3.48.44-2.31,1.53-3.24,3.28-2.78,2.18,0,3.06,1.04,2.62,3.13ZM8.85,87.22c1.97-.46,3.17.35,3.61,2.43,0,2.09-.88,3.36-2.63,3.82-2.18,0-3.28-1.16-3.28-3.48-.44-1.85.32-2.78,2.29-2.78ZM14.43,28.84c0,2.09-.98,3.13-2.95,3.13s-2.95-1.04-2.95-3.13.98-3.13,2.95-3.13,2.95,1.04,2.95,3.13ZM15.09,95.22c2.18-.46,3.06.47,2.62,2.78.44,1.86-.32,3.01-2.29,3.47-1.97,0-3.17-1.04-3.61-3.13.22-1.62,1.31-2.66,3.28-3.13ZM20.99,19.46c0,2.09-1.1,3.13-3.28,3.13-1.75,0-2.62-1.04-2.62-3.13s.98-3.13,2.95-3.13,2.95,1.04,2.95,3.13ZM21.97,102.17c1.97-.46,2.95.35,2.95,2.43.44,2.09-.33,3.36-2.3,3.82-2.18-.46-3.39-1.51-3.61-3.13,0-.92.27-1.74.82-2.43.54-.7,1.25-.92,2.13-.7ZM27.88,12.86c0,2.09-.98,3.13-2.95,3.13s-2.95-1.16-2.95-3.48c0-1.85.98-2.78,2.95-2.78s2.95,1.04,2.95,3.13ZM32.14,107.03c1.97-.46,3.17.47,3.61,2.78,0,1.86-1.1,3.01-3.28,3.48-2.19,0-3.06-.92-2.63-2.78-.44-2.31.33-3.48,2.3-3.48ZM37.39,6.6c-.44,2.09-1.53,3.13-3.28,3.13-2.19,0-3.06-1.04-2.62-3.13,0-2.08.98-3.13,2.95-3.13s2.95,1.04,2.95,3.13ZM42.31,109.81c1.97,0,2.95.93,2.95,2.78,0,2.32-.88,3.48-2.63,3.48-.88,0-1.64-.23-2.29-.69-.66-.46-.88-1.16-.66-2.09,0-2.31.87-3.48,2.63-3.48ZM47.23,3.82c0,2.09-1.1,3.13-3.28,3.13-1.75,0-2.62-1.04-2.62-3.13s.98-3.13,2.95-3.13,2.95,1.04,2.95,3.13ZM51.49,110.85c2.18.47,3.06,1.62,2.63,3.48-.44,2.09-1.43,3.13-2.95,3.13-1.97,0-2.95-1.16-2.95-3.48.21-1.62,1.31-2.66,3.28-3.13ZM51.49,3.13c0-2.09.98-3.13,2.95-3.13s2.95,1.04,2.95,3.13-.98,3.13-2.95,3.13-2.95-1.04-2.95-3.13ZM62.64,109.46c.65,0,1.25.35,1.81,1.04.54.69.71,1.51.49,2.43.22.93,0,1.62-.66,2.09-.65.47-1.42.7-2.29.7-1.76,0-2.63-1.16-2.63-3.48.44-1.85,1.53-2.78,3.28-2.78ZM61,4.17c0-2.08.98-3.13,2.95-3.13s2.95,1.04,2.95,3.13-.98,3.13-2.95,3.13-2.95-1.04-2.95-3.13ZM72.81,107.03c1.97,0,2.73,1.16,2.3,3.48,0,1.86-.98,2.78-2.95,2.78-1.97-.46-2.95-1.62-2.95-3.48.43-2.31,1.64-3.24,3.61-2.78ZM69.86,6.6c0-2.08.98-3.13,2.95-3.13s2.95,1.04,2.95,3.13-.98,3.13-2.95,3.13-2.95-1.04-2.95-3.13ZM78.06,12.16c0-2.09.98-3.13,2.95-3.13s2.95,1.04,2.95,3.13-.98,3.13-2.95,3.13-2.95-1.04-2.95-3.13ZM81.99,101.47c1.97,0,2.95,1.16,2.95,3.48-.44,1.86-1.64,2.78-3.61,2.78-1.97-.46-2.73-1.74-2.29-3.82,0-2.09.98-2.9,2.95-2.43ZM84.94,19.11c0-2.09.98-3.13,2.95-3.13s2.95,1.04,2.95,3.13-.98,3.13-2.95,3.13-2.95-1.04-2.95-3.13ZM89.21,94.87c1.97.47,2.95,1.51,2.95,3.13-.44,2.09-1.64,3.13-3.61,3.13-1.97-.46-2.73-1.62-2.3-3.47,0-2.31.98-3.24,2.95-2.78ZM91.17,28.5c0-2.09.98-3.13,2.95-3.13s2.95,1.04,2.95,3.13-.98,3.13-2.95,3.13-2.95-1.04-2.95-3.13ZM95.44,86.88c1.97,0,2.73,1.04,2.3,3.13,0,2.09-1.1,3.13-3.28,3.13-1.75-.46-2.62-1.74-2.62-3.82.43-2.09,1.64-2.9,3.61-2.43ZM98.72,77.49c2.18.47,3.06,1.62,2.62,3.48-.44,2.32-1.53,3.25-3.28,2.78-1.75,0-2.62-1.16-2.62-3.48.44-1.85,1.53-2.78,3.28-2.78Z"/>
  </g>
</svg>