<?xml version="1.0" encoding="UTF-8"?>
<svg id="Layer_2" data-name="Layer 2" xmlns="http://www.w3.org/2000/svg" viewBox="0 0 55.77 62.81">
  <defs>
    <style>
      .cls-1 {
        fill: #3c3c3b;
        stroke-width: 0px;
      }
    </style>
  </defs>
  <g id="O">
    <path class="cls-1" d="M3.16,32.33c0,.99-.53,1.49-1.58,1.49s-1.58-.56-1.58-1.67.53-1.67,1.58-1.67,1.58.62,1.58,1.86ZM3.86,27.13c0,.99-.58,1.49-1.75,1.49-.94,0-1.4-.56-1.4-1.67s.53-1.67,1.58-1.67,1.58.62,1.58,1.86ZM2.1,36.05c1.17,0,1.75.62,1.75,1.86,0,.99-.47,1.49-1.4,1.49-1.17.25-1.75-.25-1.75-1.49,0-.99.47-1.61,1.4-1.86ZM2.8,41.44c1.05.25,1.64.81,1.75,1.67,0,.5-.15.93-.44,1.3-.29.37-.67.5-1.14.37-1.05.25-1.58-.25-1.58-1.49-.24-.99.23-1.61,1.4-1.86ZM5.26,21c0,1.11-.53,1.67-1.58,1.67-1.05-.25-1.58-.86-1.58-1.86.23-1.24.82-1.73,1.75-1.49,1.17,0,1.64.56,1.4,1.67ZM4.73,46.64c1.05-.25,1.69.19,1.93,1.3,0,1.11-.47,1.8-1.4,2.04-1.17,0-1.75-.62-1.75-1.86-.23-.99.18-1.49,1.23-1.49ZM7.72,15.42c0,1.11-.53,1.67-1.58,1.67s-1.58-.56-1.58-1.67.53-1.67,1.58-1.67,1.58.56,1.58,1.67ZM8.07,50.92c1.17-.25,1.63.25,1.4,1.49.23.99-.18,1.61-1.23,1.86-1.05,0-1.7-.56-1.93-1.67.12-.86.7-1.42,1.75-1.67ZM11.22,10.41c0,1.11-.59,1.67-1.75,1.67-.94,0-1.4-.56-1.4-1.67s.53-1.67,1.58-1.67,1.58.56,1.58,1.67ZM11.75,54.63c1.05-.25,1.58.19,1.58,1.3.23,1.11-.18,1.8-1.23,2.04-1.17-.25-1.81-.8-1.93-1.67,0-.49.14-.93.44-1.3.29-.37.67-.49,1.14-.37ZM14.91,6.88c0,1.11-.53,1.67-1.58,1.67s-1.58-.62-1.58-1.86c0-.99.53-1.49,1.58-1.49s1.58.56,1.58,1.67ZM17.19,57.23c1.05-.25,1.69.25,1.93,1.49,0,.99-.59,1.61-1.75,1.86-1.17,0-1.64-.49-1.4-1.49-.24-1.24.17-1.86,1.23-1.86ZM19.99,3.53c-.24,1.11-.82,1.67-1.75,1.67-1.17,0-1.64-.56-1.4-1.67,0-1.11.53-1.67,1.58-1.67s1.58.56,1.58,1.67ZM22.62,58.72c1.05,0,1.58.5,1.58,1.49,0,1.24-.47,1.86-1.4,1.86-.47,0-.88-.12-1.23-.37-.35-.25-.47-.62-.35-1.11,0-1.24.47-1.86,1.4-1.86ZM25.25,2.04c0,1.11-.59,1.67-1.75,1.67-.94,0-1.4-.56-1.4-1.67s.53-1.67,1.58-1.67,1.58.56,1.58,1.67ZM27.53,59.28c1.17.25,1.64.87,1.4,1.86-.23,1.11-.76,1.67-1.58,1.67-1.05,0-1.58-.62-1.58-1.86.12-.86.7-1.42,1.75-1.67ZM27.53,1.67c0-1.11.53-1.67,1.58-1.67s1.58.56,1.58,1.67-.53,1.67-1.58,1.67-1.58-.56-1.58-1.67ZM33.5,58.53c.35,0,.67.19.96.56s.38.81.26,1.3c.12.5,0,.87-.35,1.11-.35.25-.76.37-1.23.37-.94,0-1.4-.62-1.4-1.86.23-.99.82-1.49,1.75-1.49ZM32.62,2.23c0-1.11.53-1.67,1.58-1.67s1.58.56,1.58,1.67-.53,1.67-1.58,1.67-1.58-.56-1.58-1.67ZM38.93,57.23c1.05,0,1.46.62,1.23,1.86,0,.99-.53,1.49-1.58,1.49-1.05-.25-1.58-.86-1.58-1.86.23-1.24.88-1.73,1.93-1.49ZM37.35,3.53c0-1.11.53-1.67,1.58-1.67s1.58.56,1.58,1.67-.53,1.67-1.58,1.67-1.58-.56-1.58-1.67ZM41.74,6.5c0-1.11.53-1.67,1.58-1.67s1.58.56,1.58,1.67-.53,1.67-1.58,1.67-1.58-.56-1.58-1.67ZM43.84,54.26c1.05,0,1.58.62,1.58,1.86-.23.99-.88,1.49-1.93,1.49-1.05-.25-1.46-.93-1.23-2.04,0-1.11.53-1.55,1.58-1.3ZM45.42,10.22c0-1.11.53-1.67,1.58-1.67s1.58.56,1.58,1.67-.53,1.67-1.58,1.67-1.58-.56-1.58-1.67ZM47.7,50.73c1.05.25,1.58.81,1.58,1.67-.24,1.11-.88,1.67-1.93,1.67-1.05-.25-1.46-.86-1.23-1.86,0-1.24.53-1.73,1.58-1.49ZM48.75,15.24c0-1.12.53-1.67,1.58-1.67s1.58.56,1.58,1.67-.53,1.67-1.58,1.67-1.58-.56-1.58-1.67ZM51.03,46.46c1.05,0,1.46.56,1.23,1.67,0,1.11-.59,1.67-1.75,1.67-.94-.25-1.4-.93-1.4-2.04.23-1.11.88-1.55,1.93-1.3ZM50.68,20.81c0-1.11.53-1.67,1.58-1.67s1.58.56,1.58,1.67-.53,1.67-1.58,1.67-1.58-.56-1.58-1.67ZM52.79,41.44c1.17.25,1.64.87,1.4,1.86-.24,1.24-.82,1.74-1.75,1.49-.94,0-1.4-.62-1.4-1.86.23-.99.82-1.49,1.75-1.49ZM53.49,36.05c.93.25,1.4.87,1.4,1.86,0,1.24-.59,1.74-1.75,1.49-.94,0-1.4-.56-1.4-1.67s.58-1.67,1.75-1.67ZM52.09,26.94c0-1.11.53-1.67,1.58-1.67s1.58.56,1.58,1.67-.53,1.67-1.58,1.67-1.58-.56-1.58-1.67ZM52.61,32.33c0-1.11.53-1.67,1.58-1.67s1.58.56,1.58,1.67-.53,1.67-1.58,1.67-1.58-.56-1.58-1.67Z"/>
  </g>
</svg>