<?xml version="1.0" encoding="UTF-8"?>
<svg id="Layer_2" data-name="Layer 2" xmlns="http://www.w3.org/2000/svg" viewBox="0 0 54.83 93.25">
  <defs>
    <style>
      .cls-1 {
        fill: #3c3c3b;
        stroke-width: 0px;
      }
    </style>
  </defs>
  <g id="G">
    <path class="cls-1" d="M3.06,76.44c0,.94-.45,1.53-1.34,1.77-1.11,0-1.67-.47-1.67-1.42-.23-1.18.22-1.77,1.34-1.77.89-.24,1.45.24,1.67,1.42ZM3.73,30.97c0,.95-.5,1.42-1.5,1.42s-1.5-.53-1.5-1.59.5-1.59,1.5-1.59,1.5.59,1.5,1.77ZM4.4,26.01c0,.95-.56,1.42-1.67,1.42-.89,0-1.34-.53-1.34-1.59s.5-1.59,1.5-1.59,1.5.59,1.5,1.77ZM2.73,34.5c1.11,0,1.67.59,1.67,1.77,0,.95-.45,1.42-1.34,1.42-1.11.24-1.67-.24-1.67-1.42,0-.94.44-1.53,1.34-1.77ZM3.4,39.64c1,.24,1.56.77,1.67,1.59,0,.47-.14.88-.42,1.24-.28.35-.64.47-1.08.35-1,.24-1.5-.24-1.5-1.42-.23-.94.22-1.53,1.34-1.77ZM5.73,20.17c0,1.06-.5,1.59-1.5,1.59-1-.24-1.5-.82-1.5-1.77.22-1.18.78-1.65,1.67-1.42,1.11,0,1.56.53,1.34,1.59ZM6.07,80.16c.22,1.18-.22,1.77-1.34,1.77-.89.24-1.45-.24-1.67-1.42,0-.95.44-1.53,1.34-1.77,1.11,0,1.67.47,1.67,1.42ZM5.23,44.59c1-.24,1.61.18,1.84,1.24,0,1.06-.45,1.71-1.34,1.95-1.11,0-1.67-.59-1.67-1.77-.22-.94.17-1.42,1.17-1.42ZM8.07,14.86c0,1.06-.5,1.59-1.5,1.59s-1.5-.53-1.5-1.59.5-1.59,1.5-1.59,1.5.53,1.5,1.59ZM9.74,84.23c0,1.18-.45,1.77-1.34,1.77-1.11.24-1.67-.24-1.67-1.42-.23-.95.22-1.53,1.34-1.77.89,0,1.45.47,1.67,1.42ZM8.41,48.66c1.11-.24,1.56.24,1.34,1.42.22.95-.17,1.53-1.17,1.77-1,0-1.62-.53-1.84-1.59.11-.82.67-1.35,1.67-1.59ZM11.41,10.09c0,1.06-.56,1.59-1.67,1.59-.89,0-1.34-.53-1.34-1.59s.5-1.59,1.5-1.59,1.5.53,1.5,1.59ZM11.91,52.2c1-.24,1.5.18,1.5,1.24.22,1.06-.17,1.71-1.17,1.95-1.11-.24-1.73-.77-1.84-1.59,0-.47.14-.88.42-1.24.28-.35.64-.47,1.09-.35ZM13.58,87.59c0,.94-.45,1.53-1.34,1.77-1.11,0-1.67-.47-1.67-1.42-.22-1.18.22-1.77,1.34-1.77.89,0,1.45.47,1.67,1.42ZM14.92,6.72c0,1.06-.5,1.59-1.5,1.59s-1.5-.59-1.5-1.77c0-.94.5-1.42,1.5-1.42s1.5.53,1.5,1.59ZM18.09,90.24c0,1.06-.5,1.59-1.5,1.59-1,.24-1.5-.24-1.5-1.42-.22-.95.22-1.53,1.34-1.77.89,0,1.45.53,1.67,1.59ZM17.09,54.68c1-.24,1.61.24,1.84,1.42,0,.95-.56,1.53-1.67,1.77-1.11,0-1.56-.47-1.34-1.42-.23-1.18.17-1.77,1.17-1.77ZM19.76,3.54c-.23,1.06-.78,1.59-1.67,1.59-1.11,0-1.56-.53-1.34-1.59,0-1.06.5-1.59,1.5-1.59s1.5.53,1.5,1.59ZM19.93,91.48c0-1.06.5-1.59,1.5-1.59s1.5.53,1.5,1.59-.5,1.59-1.5,1.59-1.5-.53-1.5-1.59ZM22.27,56.09c1,0,1.5.47,1.5,1.42,0,1.18-.45,1.77-1.34,1.77-.45,0-.84-.12-1.17-.35-.33-.24-.45-.59-.33-1.06,0-1.18.44-1.77,1.34-1.77ZM24.77,2.12c0,1.06-.56,1.59-1.67,1.59-.89,0-1.34-.53-1.34-1.59s.5-1.59,1.5-1.59,1.5.53,1.5,1.59ZM24.61,91.66c0-1.06.5-1.59,1.5-1.59s1.5.53,1.5,1.59-.5,1.59-1.5,1.59-1.5-.53-1.5-1.59ZM26.94,56.62c1.11.24,1.56.83,1.34,1.77-.22,1.06-.72,1.59-1.5,1.59-1,0-1.5-.59-1.5-1.77.11-.82.67-1.35,1.67-1.59ZM26.94,1.77c0-1.06.5-1.59,1.5-1.59s1.5.53,1.5,1.59-.5,1.59-1.5,1.59-1.5-.53-1.5-1.59ZM28.95,91.48c0-1.06.5-1.59,1.5-1.59s1.5.53,1.5,1.59-.5,1.59-1.5,1.59-1.5-.53-1.5-1.59ZM32.62,55.91c.33,0,.64.18.92.53s.36.77.25,1.24c.11.47,0,.83-.33,1.06-.33.24-.73.35-1.17.35-.89,0-1.34-.59-1.34-1.77.22-.94.78-1.42,1.67-1.42ZM31.78,2.3c0-1.06.5-1.59,1.5-1.59s1.5.53,1.5,1.59-.5,1.59-1.5,1.59-1.5-.53-1.5-1.59ZM37.13,90.42c0,1.18-.45,1.77-1.34,1.77-1.11.24-1.67-.24-1.67-1.42-.23-.95.22-1.53,1.34-1.77.89,0,1.45.47,1.67,1.42ZM37.8,54.68c1,0,1.39.59,1.17,1.77,0,.95-.5,1.42-1.5,1.42-1-.24-1.5-.82-1.5-1.77.22-1.18.83-1.65,1.84-1.42ZM36.29,3.54c0-1.06.5-1.59,1.5-1.59s1.5.53,1.5,1.59-.5,1.59-1.5,1.59-1.5-.53-1.5-1.59ZM41.64,89.18c.22.94-.23,1.53-1.34,1.77-.89,0-1.45-.47-1.67-1.42,0-1.18.44-1.77,1.34-1.77,1.11-.24,1.67.24,1.67,1.42ZM40.47,6.37c0-1.06.5-1.59,1.5-1.59s1.5.53,1.5,1.59-.5,1.59-1.5,1.59-1.5-.53-1.5-1.59ZM42.47,51.84c1,0,1.5.59,1.5,1.77-.22.95-.83,1.42-1.84,1.42-1-.24-1.39-.88-1.17-1.95,0-1.06.5-1.47,1.5-1.24ZM46.15,85.99c0,.94-.5,1.53-1.5,1.77-.33,0-.67-.12-1-.35-.34-.24-.5-.59-.5-1.06-.23-.95.22-1.53,1.34-1.77.89,0,1.45.47,1.67,1.42ZM43.98,9.91c0-1.06.5-1.59,1.5-1.59s1.5.53,1.5,1.59-.5,1.59-1.5,1.59-1.5-.53-1.5-1.59ZM46.15,48.48c1,.24,1.5.77,1.5,1.59-.23,1.06-.83,1.59-1.84,1.59-1-.24-1.39-.82-1.17-1.77,0-1.18.5-1.65,1.5-1.42ZM49.65,82.1c.22.94-.23,1.53-1.34,1.77-1,0-1.5-.47-1.5-1.42-.23-1.18.22-1.77,1.34-1.77,1-.24,1.5.24,1.5,1.42ZM49.32,44.41c1,0,1.39.53,1.17,1.59,0,1.06-.56,1.59-1.67,1.59-.89-.24-1.34-.88-1.34-1.95.22-1.06.84-1.47,1.84-1.24ZM47.82,13.62c0-1.06.5-1.59,1.5-1.59s1.5.53,1.5,1.59-.5,1.59-1.5,1.59-1.5-.53-1.5-1.59ZM50.99,39.64c1.11.24,1.56.83,1.34,1.77-.23,1.18-.78,1.65-1.67,1.42-.89,0-1.34-.59-1.34-1.77.22-.94.78-1.42,1.67-1.42ZM52.49,76.79c0,.94-.45,1.53-1.34,1.77-1.11,0-1.67-.47-1.67-1.42-.22-.95.22-1.53,1.34-1.77.89,0,1.45.47,1.67,1.42ZM53.99,70.95c.22.94-.22,1.53-1.34,1.77-1,0-1.5-.47-1.5-1.42-.23-1.18.22-1.77,1.34-1.77,1-.24,1.5.24,1.5,1.42ZM54.66,65.12c0,1.06-.45,1.59-1.34,1.59-1.11.24-1.67-.24-1.67-1.42,0-1.06.44-1.59,1.34-1.59.89-.24,1.45.24,1.67,1.42ZM51.83,1.59c0-1.06.5-1.59,1.5-1.59s1.5.53,1.5,1.59-.5,1.59-1.5,1.59-1.5-.53-1.5-1.59ZM51.83,7.79c0-1.06.5-1.59,1.5-1.59s1.5.53,1.5,1.59-.5,1.59-1.5,1.59-1.5-.53-1.5-1.59ZM51.83,13.09c0-1.06.5-1.59,1.5-1.59s1.5.53,1.5,1.59-.5,1.59-1.5,1.59-1.5-.53-1.5-1.59ZM51.83,18.4c0-1.06.5-1.59,1.5-1.59s1.5.53,1.5,1.59-.5,1.59-1.5,1.59-1.5-.53-1.5-1.59ZM51.83,23.89c0-1.06.5-1.59,1.5-1.59s1.5.53,1.5,1.59-.5,1.59-1.5,1.59-1.5-.53-1.5-1.59ZM51.83,30.08c0-1.06.5-1.59,1.5-1.59s1.5.53,1.5,1.59-.5,1.59-1.5,1.59-1.5-.53-1.5-1.59ZM51.83,36.63c0-1.06.5-1.59,1.5-1.59s1.5.53,1.5,1.59-.5,1.59-1.5,1.59-1.5-.53-1.5-1.59ZM51.83,42.82c0-1.06.5-1.59,1.5-1.59s1.5.53,1.5,1.59-.5,1.59-1.5,1.59-1.5-.53-1.5-1.59ZM51.83,48.48c0-1.06.5-1.59,1.5-1.59s1.5.53,1.5,1.59-.5,1.59-1.5,1.59-1.5-.53-1.5-1.59ZM51.83,54.14c0-1.06.5-1.59,1.5-1.59s1.5.53,1.5,1.59-.5,1.59-1.5,1.59-1.5-.53-1.5-1.59ZM51.83,59.45c0-1.06.5-1.59,1.5-1.59s1.5.53,1.5,1.59-.5,1.59-1.5,1.59-1.5-.53-1.5-1.59Z"/>
  </g>
</svg>