<?xml version="1.0" encoding="UTF-8"?>
<svg id="Layer_2" data-name="Layer 2" xmlns="http://www.w3.org/2000/svg" viewBox="0 0 44.94 63.26">
  <defs>
    <style>
      .cls-1 {
        fill: #3c3c3b;
        stroke-width: 0px;
      }
    </style>
  </defs>
  <g id="S">
    <path class="cls-1" d="M0,43c0-1.07.5-1.6,1.51-1.6s1.51.53,1.51,1.6-.5,1.6-1.51,1.6-1.51-.53-1.51-1.6ZM4.19,48.33c0,1.07-.5,1.6-1.51,1.6s-1.51-.53-1.51-1.6.5-1.6,1.51-1.6,1.51.53,1.51,1.6ZM1.34,19.37c0-1.07.5-1.6,1.51-1.6s1.51.53,1.51,1.6-.5,1.6-1.51,1.6-1.51-.53-1.51-1.6ZM1.84,14.04c0-1.07.5-1.6,1.51-1.6s1.51.53,1.51,1.6-.5,1.6-1.51,1.6-1.51-.53-1.51-1.6ZM2.52,24.7c0-1.07.5-1.6,1.51-1.6s1.51.53,1.51,1.6-.5,1.6-1.51,1.6-1.51-.53-1.51-1.6ZM6.54,53.13c0,1.07-.5,1.6-1.51,1.6s-1.51-.53-1.51-1.6.5-1.6,1.51-1.6,1.51.53,1.51,1.6ZM4.19,9.42c0-1.07.5-1.6,1.51-1.6s1.51.53,1.51,1.6-.5,1.6-1.51,1.6-1.51-.53-1.51-1.6ZM6.04,28.79c0-1.07.5-1.6,1.51-1.6s1.51.53,1.51,1.6-.5,1.6-1.51,1.6-1.51-.53-1.51-1.6ZM10.06,56.68c0,1.07-.5,1.6-1.51,1.6s-1.51-.53-1.51-1.6.5-1.6,1.51-1.6,1.51.53,1.51,1.6ZM7.38,5.69c0-1.07.5-1.6,1.51-1.6s1.51.53,1.51,1.6-.5,1.6-1.51,1.6-1.51-.53-1.51-1.6ZM9.72,31.63c0-1.07.5-1.6,1.51-1.6s1.51.53,1.51,1.6-.5,1.6-1.51,1.6-1.51-.53-1.51-1.6ZM14.25,59.53c0,1.07-.5,1.6-1.51,1.6s-1.51-.53-1.51-1.6.5-1.6,1.51-1.6,1.51.53,1.51,1.6ZM11.91,3.02c0-1.07.5-1.6,1.51-1.6s1.51.53,1.51,1.6-.5,1.6-1.51,1.6-1.51-.53-1.51-1.6ZM13.75,32.7c0-1.07.5-1.6,1.51-1.6s1.51.53,1.51,1.6-.5,1.6-1.51,1.6-1.51-.53-1.51-1.6ZM18.78,61.13c0,1.07-.5,1.6-1.51,1.6s-1.51-.53-1.51-1.6.5-1.6,1.51-1.6,1.51.53,1.51,1.6ZM17.27,1.78c0-1.07.5-1.6,1.51-1.6s1.51.53,1.51,1.6-.5,1.6-1.51,1.6-1.51-.53-1.51-1.6ZM19.29,33.76c0-1.07.5-1.6,1.51-1.6s1.51.53,1.51,1.6-.5,1.6-1.51,1.6-1.51-.53-1.51-1.6ZM23.48,61.66c0,1.07-.5,1.6-1.51,1.6s-1.51-.53-1.51-1.6.5-1.6,1.51-1.6,1.51.53,1.51,1.6ZM22.14,1.6c0-1.07.5-1.6,1.51-1.6s1.51.53,1.51,1.6-.5,1.6-1.51,1.6-1.51-.53-1.51-1.6ZM24.48,34.29c0-1.07.5-1.6,1.51-1.6s1.51.53,1.51,1.6-.5,1.6-1.51,1.6-1.51-.53-1.51-1.6ZM29.18,61.66c0,1.07-.5,1.6-1.51,1.6s-1.51-.53-1.51-1.6.5-1.6,1.51-1.6,1.51.53,1.51,1.6ZM27,2.31c0-1.07.5-1.6,1.51-1.6s1.51.53,1.51,1.6-.5,1.6-1.51,1.6-1.51-.53-1.51-1.6ZM29.51,35.36c0-1.07.5-1.6,1.51-1.6s1.51.53,1.51,1.6-.5,1.6-1.51,1.6-1.51-.53-1.51-1.6ZM31.19,61.13c0-1.07.5-1.6,1.51-1.6s1.51.53,1.51,1.6-.5,1.6-1.51,1.6-1.51-.53-1.51-1.6ZM31.53,3.91c0-1.07.51-1.6,1.51-1.6s1.51.53,1.51,1.6-.5,1.6-1.51,1.6-1.51-.53-1.51-1.6ZM34.71,36.43c0-1.07.5-1.6,1.51-1.6s1.51.53,1.51,1.6-.5,1.6-1.51,1.6-1.51-.53-1.51-1.6ZM35.72,6.75c0-1.07.5-1.6,1.51-1.6s1.51.53,1.51,1.6-.5,1.6-1.51,1.6-1.51-.53-1.51-1.6ZM36.56,59.7c0-1.07.5-1.6,1.51-1.6s1.51.53,1.51,1.6-.5,1.6-1.51,1.6-1.51-.53-1.51-1.6ZM39.24,10.31c0-1.07.5-1.6,1.51-1.6s1.51.53,1.51,1.6-.5,1.6-1.51,1.6-1.51-.53-1.51-1.6ZM39.24,39.8c0-1.07.5-1.6,1.51-1.6s1.51.53,1.51,1.6-.5,1.6-1.51,1.6-1.51-.53-1.51-1.6ZM39.91,55.62c0-1.07.5-1.6,1.51-1.6s1.51.53,1.51,1.6-.5,1.6-1.51,1.6-1.51-.53-1.51-1.6ZM41.42,44.25c0-1.07.5-1.6,1.51-1.6s1.51.53,1.51,1.6-.5,1.6-1.51,1.6-1.51-.53-1.51-1.6ZM41.59,15.1c0-1.07.5-1.6,1.51-1.6s1.51.53,1.51,1.6-.5,1.6-1.51,1.6-1.51-.53-1.51-1.6ZM41.92,49.93c0-1.07.5-1.6,1.51-1.6s1.51.53,1.51,1.6-.5,1.6-1.51,1.6-1.51-.53-1.51-1.6Z"/>
  </g>
</svg>