<?xml version="1.0" encoding="UTF-8"?>
<svg id="Layer_2" data-name="Layer 2" xmlns="http://www.w3.org/2000/svg" viewBox="0 0 106.09 212.52">
  <defs>
    <style>
      .cls-1 {
        fill: #3c3c3b;
        stroke-width: 0px;
      }
    </style>
  </defs>
  <g id="B">
    <path class="cls-1" d="M5.8,3.08c0,2.05-.97,3.08-2.9,3.08S0,5.13,0,3.08.97,0,2.9,0s2.9,1.03,2.9,3.08ZM5.8,13.33c0,2.05-.97,3.08-2.9,3.08s-2.9-1.03-2.9-3.08.97-3.08,2.9-3.08,2.9,1.02,2.9,3.08ZM5.8,23.92c0,2.05-.97,3.08-2.9,3.08s-2.9-1.03-2.9-3.08.97-3.08,2.9-3.08,2.9,1.03,2.9,3.08ZM5.8,35.88c0,2.05-.97,3.08-2.9,3.08s-2.9-1.03-2.9-3.08.97-3.08,2.9-3.08,2.9,1.03,2.9,3.08ZM5.8,48.52c0,2.05-.97,3.08-2.9,3.08s-2.9-1.03-2.9-3.08.97-3.08,2.9-3.08,2.9,1.03,2.9,3.08ZM5.8,60.48c0,2.05-.97,3.08-2.9,3.08s-2.9-1.02-2.9-3.08.97-3.08,2.9-3.08,2.9,1.03,2.9,3.08ZM5.8,71.41c0,2.05-.97,3.08-2.9,3.08s-2.9-1.03-2.9-3.08.97-3.08,2.9-3.08,2.9,1.03,2.9,3.08ZM5.8,82.34c0,2.05-.97,3.08-2.9,3.08s-2.9-1.02-2.9-3.08.97-3.08,2.9-3.08,2.9,1.02,2.9,3.08ZM5.8,92.6c0,2.05-.97,3.08-2.9,3.08s-2.9-1.03-2.9-3.08.97-3.08,2.9-3.08,2.9,1.02,2.9,3.08ZM5.8,103.19c0,2.05-.97,3.08-2.9,3.08s-2.9-1.03-2.9-3.08.97-3.08,2.9-3.08,2.9,1.02,2.9,3.08ZM5.8,115.15c0,2.05-.97,3.08-2.9,3.08s-2.9-1.03-2.9-3.08.97-3.08,2.9-3.08,2.9,1.03,2.9,3.08ZM5.8,127.79c0,2.05-.97,3.08-2.9,3.08s-2.9-1.03-2.9-3.08.97-3.08,2.9-3.08,2.9,1.03,2.9,3.08ZM5.8,139.75c0,2.05-.97,3.08-2.9,3.08s-2.9-1.02-2.9-3.08.97-3.08,2.9-3.08,2.9,1.02,2.9,3.08ZM5.8,153.07c0,2.05-.97,3.08-2.9,3.08s-2.9-1.03-2.9-3.08.97-3.08,2.9-3.08,2.9,1.03,2.9,3.08ZM5.8,164.01c0,2.05-.97,3.08-2.9,3.08s-2.9-1.02-2.9-3.08.97-3.08,2.9-3.08,2.9,1.02,2.9,3.08ZM5.8,174.26c0,2.05-.97,3.08-2.9,3.08s-2.9-1.02-2.9-3.08.97-3.08,2.9-3.08,2.9,1.03,2.9,3.08ZM5.8,184.85c0,2.05-.97,3.08-2.9,3.08s-2.9-1.03-2.9-3.08.97-3.08,2.9-3.08,2.9,1.02,2.9,3.08ZM5.8,196.81c0,2.05-.97,3.08-2.9,3.08s-2.9-1.03-2.9-3.08.97-3.08,2.9-3.08,2.9,1.03,2.9,3.08ZM5.8,209.45c0,2.05-.97,3.08-2.9,3.08s-2.9-1.02-2.9-3.08.97-3.08,2.9-3.08,2.9,1.02,2.9,3.08ZM12.9,132.23c0,2.05-.97,3.08-2.9,3.08s-2.9-1.02-2.9-3.08.97-3.08,2.9-3.08,2.9,1.03,2.9,3.08ZM10.96,179.72c1.93-.45,3.11.34,3.55,2.39,0,2.05-.86,3.3-2.58,3.76-2.15,0-3.23-1.02-3.23-3.08-.43-2.05.32-3.08,2.26-3.08ZM16.44,121.98c0,2.05-.97,3.08-2.9,3.08s-2.9-1.02-2.9-3.08.97-3.08,2.9-3.08,2.9,1.02,2.9,3.08ZM18.38,187.24c1.93-.45,2.9.46,2.9,2.73.43,1.83-.32,2.96-2.25,3.42-1.93,0-3.12-1.03-3.55-3.08,0-1.59.97-2.62,2.9-3.08ZM22.57,113.44c0,2.05-.97,3.08-2.9,3.08s-2.9-1.02-2.9-3.08.97-3.08,2.9-3.08,2.9,1.03,2.9,3.08ZM25.48,193.73c1.93-.45,2.9.34,2.9,2.39.43,2.05-.32,3.3-2.26,3.76-1.93,0-3.12-.91-3.55-2.73,0-2.27.97-3.42,2.9-3.42ZM29.34,106.6c0,2.05-.97,3.08-2.9,3.08s-2.9-1.02-2.9-3.08.97-3.08,2.9-3.08,2.9,1.03,2.9,3.08ZM37.41,101.14c0,2.05-.97,3.08-2.9,3.08s-2.9-1.02-2.9-3.08.97-3.08,2.9-3.08,2.9,1.02,2.9,3.08ZM34.51,199.2c1.93-.45,3.12.46,3.55,2.73,0,1.83-.97,2.96-2.9,3.42-1.93,0-2.9-.91-2.9-2.73-.43-2.27.32-3.42,2.26-3.42ZM46.11,98.06c0,2.05-.97,3.08-2.9,3.08s-2.9-1.02-2.9-3.08.97-3.08,2.9-3.08,2.9,1.02,2.9,3.08ZM44.82,202.96c1.72,0,2.79.91,3.23,2.73,0,2.28-.86,3.42-2.58,3.42-.87,0-1.62-.22-2.26-.68-.64-.45-.86-1.14-.64-2.05-.22-.91-.06-1.71.48-2.39.53-.68,1.13-1.03,1.77-1.03ZM56.75,96.35c0,2.05-.97,3.08-2.9,3.08s-2.9-1.03-2.9-3.08.97-3.08,2.9-3.08,2.9,1.02,2.9,3.08ZM55.46,202.96c1.93.46,3.01,1.48,3.23,3.08,0,2.28-.97,3.42-2.9,3.42-1.5,0-2.47-1.02-2.9-3.08-.43-1.82.43-2.96,2.58-3.42ZM60.95,97.72c0-2.05.97-3.08,2.9-3.08s2.9,1.03,2.9,3.08-.86,3.08-2.58,3.08c-2.15,0-3.22-1.03-3.22-3.08ZM64.49,201.93c1.72,0,2.58,1.14,2.58,3.42.21.91,0,1.6-.65,2.05-.64.46-1.4.68-2.26.68-1.72,0-2.58-1.14-2.58-3.42,0-1.82.97-2.73,2.9-2.73ZM70.62,100.45c0-2.05.97-3.08,2.9-3.08s2.9,1.03,2.9,3.08c.43,2.05-.43,3.08-2.58,3.08-1.73,0-2.8-1.03-3.23-3.08ZM74.49,199.2c1.93,0,2.68,1.14,2.26,3.42.43,1.83-.43,2.73-2.58,2.73-2.15-.45-3.22-1.59-3.22-3.42.43-2.27,1.61-3.19,3.55-2.73ZM79.97,106.6c0-2.05.97-3.08,2.9-3.08s2.9.91,2.9,2.73c0,2.28-.97,3.42-2.9,3.42s-2.9-1.02-2.9-3.08ZM84.49,194.42c.86-.22,1.56,0,2.09.68.53.68.81,1.48.81,2.39-.22,1.6-1.4,2.62-3.55,3.08-1.93-.45-2.69-1.71-2.25-3.76,0-2.05.97-2.85,2.9-2.39ZM86.74,113.1c0-2.05.97-3.08,2.9-3.08s2.9,1.02,2.9,3.08-.86,3.08-2.58,3.08c-2.15,0-3.23-1.03-3.23-3.08ZM91.26,187.58c1.93.46,3.01,1.48,3.22,3.08-.43,2.05-1.61,3.08-3.55,3.08-1.93-.45-2.69-1.59-2.26-3.42-.43-2.27.43-3.19,2.58-2.73ZM93.19,122.32c0-2.05.97-3.08,2.9-3.08s2.9,1.03,2.9,3.08-.97,3.08-2.9,3.08-2.9-1.03-2.9-3.08ZM97.38,179.72c1.93,0,2.69.91,2.26,2.73,0,2.28-1.08,3.42-3.23,3.42-1.72-.45-2.58-1.71-2.58-3.76.43-2.05,1.61-2.85,3.55-2.39ZM96.42,132.57c-.43-2.05.43-3.08,2.58-3.08,1.72-.45,2.79.46,3.22,2.73,0,1.83-.97,2.96-2.9,3.42-1.93,0-2.9-1.03-2.9-3.08ZM100.93,170.16c2.15.46,3.01,1.6,2.58,3.42,0,2.28-.97,3.19-2.9,2.73-.86.23-1.56,0-2.09-.68-.54-.68-.81-1.48-.81-2.39.21-1.59,1.29-2.62,3.23-3.08ZM99,143.85c0-2.27.97-3.42,2.9-3.42s2.9,1.02,2.9,3.08-.86,3.08-2.58,3.08c-2.15,0-3.22-.91-3.22-2.73ZM102.22,160.25c1.72.46,2.58,1.6,2.58,3.42,0,2.28-1.08,3.19-3.23,2.73-1.72,0-2.58-.91-2.58-2.73,0-2.27,1.07-3.42,3.22-3.42ZM100.29,153.41c0-2.27.97-3.42,2.9-3.42s2.91,1.03,2.91,3.08-.97,3.08-2.91,3.08-2.9-.91-2.9-2.73Z"/>
  </g>
</svg>