<?xml version="1.0" encoding="UTF-8"?>
<svg id="Layer_2" data-name="Layer 2" xmlns="http://www.w3.org/2000/svg" viewBox="0 0 105.24 118.74">
  <defs>
    <style>
      .cls-1 {
        fill: #3c3c3b;
        stroke-width: 0px;
      }
    </style>
  </defs>
  <g id="A">
    <path class="cls-1" d="M5.85,60.23c0,1.84-.97,2.75-2.92,2.75s-2.92-1.03-2.92-3.1.97-3.1,2.92-3.1,2.92,1.15,2.92,3.44ZM7.15,50.59c0,1.84-1.09,2.75-3.25,2.75-1.73,0-2.6-1.03-2.6-3.1s.97-3.1,2.92-3.1,2.92,1.15,2.92,3.44ZM3.9,67.11c2.16,0,3.25,1.15,3.25,3.44,0,1.84-.87,2.75-2.6,2.75-2.17.46-3.25-.46-3.25-2.75,0-1.83.86-2.98,2.6-3.44ZM5.2,77.09c1.95.46,3.03,1.5,3.25,3.1,0,.92-.28,1.72-.81,2.41-.54.69-1.25.92-2.11.69-1.95.46-2.92-.46-2.92-2.75-.44-1.83.43-2.98,2.6-3.44ZM9.74,39.23c0,2.07-.97,3.1-2.92,3.1-1.95-.46-2.92-1.6-2.92-3.44.43-2.29,1.52-3.21,3.25-2.75,2.16,0,3.03,1.03,2.6,3.1ZM8.77,86.73c1.95-.46,3.14.34,3.58,2.41,0,2.06-.87,3.33-2.6,3.79-2.16,0-3.24-1.15-3.24-3.44-.44-1.83.32-2.75,2.27-2.75ZM14.29,28.91c0,2.06-.97,3.1-2.92,3.1s-2.92-1.03-2.92-3.1.97-3.1,2.92-3.1,2.92,1.03,2.92,3.1ZM14.94,94.65c2.16-.46,3.03.46,2.6,2.75.43,1.84-.32,2.98-2.27,3.44-1.95,0-3.14-1.03-3.58-3.1.21-1.6,1.3-2.63,3.25-3.1ZM20.79,19.62c0,2.07-1.09,3.1-3.25,3.1-1.73,0-2.6-1.03-2.6-3.1s.97-3.1,2.92-3.1,2.92,1.03,2.92,3.1ZM21.76,101.53c1.95-.46,2.92.34,2.92,2.41.43,2.06-.33,3.33-2.28,3.79-2.16-.46-3.36-1.49-3.57-3.1,0-.91.27-1.72.81-2.41.54-.69,1.24-.91,2.11-.69ZM27.61,13.08c0,2.07-.97,3.1-2.92,3.1s-2.92-1.15-2.92-3.44c0-1.83.97-2.75,2.92-2.75s2.92,1.03,2.92,3.1ZM31.83,106.35c1.95-.46,3.14.46,3.57,2.75,0,1.84-1.09,2.98-3.24,3.44-2.17,0-3.03-.91-2.6-2.75-.43-2.29.33-3.44,2.27-3.44ZM37.03,6.88c-.44,2.07-1.52,3.1-3.25,3.1-2.17,0-3.03-1.03-2.6-3.1,0-2.07.97-3.1,2.92-3.1s2.92,1.03,2.92,3.1ZM41.9,109.1c1.95,0,2.92.92,2.92,2.75,0,2.3-.87,3.44-2.6,3.44-.87,0-1.62-.23-2.27-.69-.65-.46-.87-1.15-.65-2.06,0-2.29.86-3.44,2.6-3.44ZM46.78,4.13c0,2.07-1.09,3.1-3.25,3.1-1.73,0-2.6-1.03-2.6-3.1s.97-3.1,2.92-3.1,2.92,1.03,2.92,3.1ZM50.99,110.13c2.16.46,3.03,1.61,2.6,3.44-.44,2.06-1.41,3.1-2.92,3.1-1.95,0-2.92-1.15-2.92-3.44.21-1.6,1.3-2.63,3.24-3.1ZM50.99,3.44c0-2.06.97-3.1,2.92-3.1s2.92,1.03,2.92,3.1-.97,3.1-2.92,3.1-2.92-1.03-2.92-3.1ZM62.04,108.76c.65,0,1.24.34,1.79,1.03.54.69.7,1.5.49,2.41.21.92,0,1.61-.65,2.07-.65.46-1.41.69-2.27.69-1.74,0-2.6-1.15-2.6-3.44.43-1.83,1.52-2.75,3.25-2.75ZM60.42,4.47c0-2.06.97-3.1,2.92-3.1s2.92,1.03,2.92,3.1-.97,3.1-2.92,3.1-2.92-1.03-2.92-3.1ZM72.11,106.35c1.95,0,2.7,1.15,2.28,3.44,0,1.84-.97,2.75-2.92,2.75-1.95-.46-2.92-1.6-2.92-3.44.43-2.29,1.62-3.21,3.57-2.75ZM69.19,6.88c0-2.07.97-3.1,2.92-3.1s2.92,1.03,2.92,3.1-.97,3.1-2.92,3.1-2.92-1.03-2.92-3.1ZM77.31,12.39c0-2.07.97-3.1,2.92-3.1s2.92,1.03,2.92,3.1-.97,3.1-2.92,3.1-2.92-1.03-2.92-3.1ZM81.21,100.84c1.95,0,2.92,1.15,2.92,3.44-.44,1.84-1.63,2.75-3.58,2.75-1.95-.46-2.71-1.72-2.27-3.79,0-2.06.97-2.87,2.92-2.41ZM84.13,19.27c0-2.06.97-3.1,2.92-3.1s2.92,1.03,2.92,3.1-.97,3.1-2.92,3.1-2.92-1.03-2.92-3.1ZM88.35,94.3c1.95.46,2.92,1.5,2.92,3.1-.43,2.07-1.62,3.1-3.57,3.1-1.95-.46-2.71-1.6-2.28-3.44,0-2.29.97-3.21,2.92-2.75ZM94.52,86.39c1.95,0,2.7,1.03,2.28,3.1,0,2.06-1.09,3.1-3.25,3.1-1.73-.46-2.6-1.72-2.6-3.79.43-2.06,1.62-2.87,3.57-2.41ZM91.6,26.5c0-2.07.97-3.1,2.92-3.1s2.92,1.03,2.92,3.1-.97,3.1-2.92,3.1-2.92-1.03-2.92-3.1ZM97.77,77.09c2.16.46,3.03,1.61,2.6,3.44-.44,2.3-1.52,3.22-3.25,2.75-1.73,0-2.6-1.15-2.6-3.44.43-1.83,1.51-2.75,3.25-2.75ZM99.39,3.1c0-2.07.97-3.1,2.92-3.1s2.92,1.03,2.92,3.1-.97,3.1-2.92,3.1-2.92-1.03-2.92-3.1ZM99.39,15.14c0-2.07.97-3.1,2.92-3.1s2.92,1.03,2.92,3.1-.97,3.1-2.92,3.1-2.92-1.03-2.92-3.1ZM99.39,25.47c0-2.06.97-3.1,2.92-3.1s2.92,1.03,2.92,3.1-.97,3.1-2.92,3.1-2.92-1.03-2.92-3.1ZM99.39,35.79c0-2.07.97-3.1,2.92-3.1s2.92,1.03,2.92,3.1-.97,3.1-2.92,3.1-2.92-1.03-2.92-3.1ZM99.39,46.46c0-2.06.97-3.1,2.92-3.1s2.92,1.03,2.92,3.1-.97,3.1-2.92,3.1-2.92-1.03-2.92-3.1ZM99.39,58.51c0-2.06.97-3.1,2.92-3.1s2.92,1.03,2.92,3.1-.97,3.1-2.92,3.1-2.92-1.03-2.92-3.1ZM99.39,71.24c0-2.07.97-3.1,2.92-3.1s2.92,1.03,2.92,3.1-.97,3.1-2.92,3.1-2.92-1.03-2.92-3.1ZM99.39,83.29c0-2.06.97-3.1,2.92-3.1s2.92,1.03,2.92,3.1-.97,3.1-2.92,3.1-2.92-1.03-2.92-3.1ZM99.39,94.3c0-2.06.97-3.1,2.92-3.1s2.92,1.03,2.92,3.1-.97,3.1-2.92,3.1-2.92-1.03-2.92-3.1ZM99.39,105.31c0-2.07.97-3.1,2.92-3.1s2.92,1.03,2.92,3.1-.97,3.1-2.92,3.1-2.92-1.03-2.92-3.1ZM99.39,115.64c0-2.06.97-3.1,2.92-3.1s2.92,1.03,2.92,3.1-.97,3.1-2.92,3.1-2.92-1.03-2.92-3.1Z"/>
  </g>
</svg>