<?xml version="1.0" encoding="UTF-8"?>
<svg id="Layer_2" data-name="Layer 2" xmlns="http://www.w3.org/2000/svg" xmlns:xlink="http://www.w3.org/1999/xlink" viewBox="0 0 95.96 82.02">
  <defs>
    <style>
      .cls-1 {
        fill: url(#linear-gradient);
      }

      .cls-1, .cls-2, .cls-3, .cls-4, .cls-5 {
        stroke-width: 0px;
      }

      .cls-2 {
        fill: #242424;
      }

      .cls-3 {
        fill: #ccc;
      }

      .cls-4 {
        fill: #dab647;
      }

      .cls-5 {
        fill: #999;
      }
    </style>
    <linearGradient id="linear-gradient" x1="45.64" y1="8.1" x2="45.64" y2="106.06" gradientUnits="userSpaceOnUse">
      <stop offset=".37" stop-color="#fff"/>
      <stop offset="1" stop-color="#c6c6c6"/>
    </linearGradient>
  </defs>
  <g id="Layer_1-2" data-name="Layer 1">
    <path class="cls-5" d="M87.63,19.46c-.81-5.3-4.68-7.52-11.63-6.68h-33.27c-1.07-4.22-4.41-6.68-9.98-7.33h-12.7c-9.71,0-14.58,4.87-14.58,14.58v47.4c-.19,5.1,2,7.52,6.64,7.25-.42,4.41,2.23,6.83,7.94,7.33h61.33c9.71,0,14.58-4.87,14.58-14.58V29.44c-.35-5.8-3.11-9.1-8.33-9.98h0Z"/>
  </g>
  <g id="Layer_2-2" data-name="Layer 2">
    <path class="cls-5" d="M91.28,24.37c-.35-5.91-3.11-9.33-8.37-10.29-.92-5.37-4.91-7.64-12.01-6.75h-32.93c-1.19-4.22-4.6-6.68-10.25-7.33h-12.74C5,0,.02,4.99.02,14.97v47.4c-.12,2.65.42,4.64,1.61,5.91,1.11,1.19,2.76,1.8,4.99,1.77-.11,2.11.5,3.8,1.84,4.99,1.34,1.27,3.53,2.03,6.49,2.3h61.37c9.98,0,14.97-4.99,14.97-14.97V24.37h0ZM82.19,14.47c.04.08.08.15.11.19.04.04.11.08.23.12,4.99.84,7.64,4.03,7.98,9.59v37.99c0,9.48-4.72,14.2-14.2,14.2H14.98c-2.72-.23-4.76-.92-6.03-2.07-1.23-1.15-1.73-2.76-1.54-4.84,0-.08,0-.15-.04-.19-.04-.08-.08-.11-.15-.15-.08-.04-.15-.08-.19-.08-2.19.12-3.8-.38-4.84-1.5-1.04-1.15-1.54-2.92-1.42-5.33V14.97C.78,5.49,5.5.77,14.98.77h12.67c5.37.65,8.6,2.99,9.67,7.06,0,.08.04.15.12.19.08.04.15.08.23.08h33.31c6.64-.81,10.4,1.3,11.21,6.37h0Z"/>
    <path class="cls-1" d="M82.3,14.66s-.08-.11-.11-.19c-.81-5.07-4.57-7.18-11.21-6.37h-33.31c-.08,0-.15-.04-.23-.08-.08-.04-.12-.12-.12-.19-1.07-4.07-4.3-6.41-9.67-7.06h-12.67C5.5.77.78,5.49.78,14.97v47.44c-.12,2.42.38,4.18,1.42,5.33,1.04,1.11,2.65,1.61,4.84,1.5.04,0,.11.04.19.08.08.04.11.08.15.15.04.04.04.12.04.19-.19,2.07.31,3.69,1.54,4.84,1.27,1.15,3.3,1.84,6.03,2.07h61.33c9.48,0,14.2-4.72,14.2-14.2V24.37c-.35-5.56-2.99-8.75-7.98-9.59-.12-.04-.19-.08-.23-.12h0Z"/>
  </g>
  <g id="Layer_3" data-name="Layer 3">
    <path class="cls-3" d="M18.67,6.03c-.15.04-.31.11-.42.23.12,1.3.12,2.19.08,2.65-.11-.38-.38-.58-.84-.58-.27,0-.42.04-.46.08l-.11.04c0,.65-.04,1.07-.08,1.34h8.52c-.04-.15-.04-.31-.04-.46v-.04c.11.15.23.31.35.5h3.38c-.19-.5-.34-1.11-.38-1.8v-.04c.08.08.19.5.38,1.27.04.19.12.38.19.58h2.69c-.11-.65-.42-1.27-.88-1.84-.81-1-1.84-1.69-3.11-2.11-.19.23-.42.73-.69,1.5-.27.65-.54,1.07-.88,1.27-1.42-1.73-2.92-2.57-4.49-2.57-.65,0-1.23.27-1.69.81-.27.27-.5.61-.73.96-.04-.23-.08-.46-.15-.69-.12-.42-.35-.81-.61-1.07h0ZM21.28,8.94c-.5-.27-.77-.54-.77-.81,0-1,.61-1.31,1.88-.88,1.27.38,1.88.92,1.88,1.65,0,.35,0,.54-.04.61l-.08-.04c-.12-.46-.23-.81-.31-1.04-.15-.42-.42-.65-.84-.65-.27,0-.42.04-.46.12,0,.04.04.04.08.08-.23.54-.35,1.04-.35,1.54-.04-.08-.38-.27-1-.58h0Z"/>
    <path class="cls-3" d="M12.72,8.9v-.04c.04.12.15.42.35.92h1.31s-.04-.08-.08-.12v-.08s.11.08.19.19h2.19c-.5-.65-1.11-1.23-1.92-1.73-1.15-.73-2-1.34-2.5-1.8-.58.23-.84.77-.77,1.61.04.46.11,1.07.31,1.8-.19-.31-.38-.58-.5-.77-.27-.38-.61-.58-.96-.58-.27,0-.42.04-.46.08l.04.04c-.08.08-.15.12-.19.15-.04.04-.04.23-.04.54,0,.04.04.27.12.65h3.15c-.12-.35-.19-.61-.23-.88h0Z"/>
    <path class="cls-3" d="M7.23,9.79h1.65c-.5-.88-1.19-1.57-2-2-.5.35-.73,1-.73,1.92v.08h1v-.08s.04.04.08.08h0Z"/>
    <path class="cls-3" d="M8.88,9.79h-1.65c.23.27.58.96,1.07,2.11l-.27.08c-.04-.19-.23-.54-.5-1.11-.19-.42-.35-.81-.38-1.07h-1c0,1.19.08,2.11.23,2.69.12.42.23.84.35,1.27h3.88l-.08-.04c-.54-1.42-.96-2.46-1.27-3.19-.11-.27-.27-.5-.38-.73h0Z"/>
    <path class="cls-3" d="M16.67,9.79h-2.19c.11.15.27.42.46.77-.11.04-.27-.08-.38-.27-.08-.19-.15-.38-.19-.5h-1.31c.15.42.35,1.04.61,1.77.31.92.54,1.65.69,2.19h5.07v-.58c.04.15.08.35.11.58h1.38c-.08-.19-.15-.38-.27-.61-.27-.69-.42-1.11-.42-1.23,0-.27.04-.42.08-.46.08-.04.12-.08.12-.12v-.04c.27,1.11.5,1.96.61,2.46h2.99c-.34-1.42-.57-2.65-.77-3.65v-.04c.54.92,1,2.15,1.38,3.68h1.42v-.58l.35.58h2.23c-.19-.77-.27-1.34-.27-1.77.08.11.15.5.23,1.15.08.23.19.42.31.61h1.27v-.04c0-.19-.08-.46-.27-.81-.19-.31-.27-.58-.27-.81,0-.31.08-.46.27-.46.04-.04.19,0,.42.08-.08.54-.04,1.23.08,2.03h1.08c-.08-.31-.15-.58-.23-.81v-.04c.08.19.19.46.35.84h3.38c-.35-.42-.77-.84-1.19-1.27-.58-.58-.92-.84-1.04-.84-.04,0-.11.04-.31.11-.11.04-.35,0-.69-.11.19-.65.27-1.27.15-1.84h-2.69c.12.42.27.69.42.84l-.19.12c-.19-.27-.31-.61-.42-.96h-3.38c.27.5.5,1,.69,1.54-.19.04-.42.08-.77.08-.12-.61-.19-1.15-.23-1.61h-8.52s0,.12-.04.15c-.04-.04-.08-.11-.12-.15h0ZM17.98,10.29v-.04c.35.42.46,1.04.35,1.84-.08-.19-.15-.27-.19-.27l-.15-1.54h0Z"/>
    <path class="cls-3" d="M12.95,9.79h-3.15c.12.73.38,2.03.81,3.95h1.19c-.42-1.42-.69-2.46-.81-3.11.27.46.73,1.5,1.38,3.11h1.65c-.46-1.65-.81-2.96-1.07-3.95h0Z"/>
    <path class="cls-3" d="M35.48,13.16v.58h2.26c-.04-.08-.04-.12-.08-.15-.42-.69-.84-1.15-1.34-1.42-.58.04-.84.38-.84,1h0Z"/>
    <path class="cls-3" d="M61.73,13.74c-.19.08-.35.23-.46.5-.08.23-.23.69-.46,1.38v-.04c-.38-1.07-.77-1.69-1.11-1.84h-.58c-.08.04-.11.04-.15.08,0,.04-.04.08-.08.08v1.54c-.54-.42-1.19-.61-1.92-.54-.11-.54-.23-.92-.42-1.15h-2.19c-.27.19-.38.5-.42.88-.04.27-.04.61-.04,1.11h.96c-.04-.23-.08-.46-.08-.69v-.08c.08.31.11.58.15.77h6.95v-.88c.04.19.15.46.27.88h1.27c-.04-.31-.12-.58-.23-.84-.19-.65-.54-1.04-.96-1.15h-.5Z"/>
    <path class="cls-3" d="M65.61,13.74c-.12.08-.27.23-.42.46-.19.31-.27.46-.31.46-.61,0-.96.12-1.08.35-.04.04-.04.27-.08.73h10.75c-.27-.5-.58-.77-.92-.77-.15,0-.35.11-.61.35-.23.23-.35.35-.38.35-.27,0-.58-.15-1-.46-.42-.35-.77-.5-1.07-.5-.27,0-.92.12-1.96.38l-1.54.38s-.23-.27-.57-.77c-.35-.5-.54-.84-.65-.96h-.15Z"/>
    <path class="cls-3" d="M36.55,14.01v-.04c.27.38.54.96.88,1.77h3.38c-.04-.11-.12-.27-.19-.38-.31-.61-.73-1.07-1.23-1.38-.34.04-.58.27-.65.65l-.19.81-.08-.08c-.35-.81-.61-1.34-.73-1.61h-2.26v.65c-.15-.23-.31-.46-.5-.65h-1.92c.04.08.12.27.27.54.27.5.42.84.5,1.04h-.15c-.38-.81-.61-1.31-.65-1.57h-1.42c.19.5.42,1.15.73,2h4.41c-.15-.65-.23-1.23-.19-1.73h0Z"/>
    <path class="cls-3" d="M48.14,14.24c-.19-.27-.46-.42-.77-.5h-.77s-.08,0-.11.04c-.04.04-.11.08-.15.19-.04.88-.08,1.46-.08,1.77h1.07c-.04-.19-.04-.38-.04-.58.15.11.31.31.46.58h1.84v-.42c.08.08.19.23.35.42h1.31c-.04-.08-.04-.15-.08-.19-.46-1.04-1-1.57-1.57-1.57-.12,0-.31.15-.61.5-.16.19-.31.35-.46.5-.11-.31-.23-.54-.38-.73h0Z"/>
    <path class="cls-3" d="M44.04,14.05s.04.04.08.08c-.19.58-.27,1.11-.31,1.61h1.04v-.11s.04.08.08.11h1.19c-.73-1.19-1.27-1.77-1.61-1.77-.27,0-.42.04-.46.08h0Z"/>
    <path class="cls-3" d="M42.35,14.97c-.42,0-.69.23-.81.73v.04h1.88c-.08-.15-.15-.27-.23-.34-.23-.27-.5-.42-.84-.42h0Z"/>
    <path class="cls-3" d="M51.4,13.97c-.19.04-.38.15-.5.35.12.42.27.92.46,1.42h1.57c-.04-.08-.11-.15-.15-.23-.58-.81-1.04-1.3-1.38-1.54h0Z"/>
    <path class="cls-3" d="M52.94,15.74h-1.57c.19.5.42,1,.69,1.57-.04.11-.12.23-.15.34-.31-.96-.54-1.57-.65-1.92h-1.31s.08.12.12.15c.19.27.27.46.31.5-.15.08-.35.15-.58.19-.08-.19-.15-.27-.19-.27v-.58h-1.84c.19.35.38.81.57,1.42.04.19.11.35.19.54h6.64c-.11-.81-.19-1.3-.19-1.46.08.35.19.81.31,1.46h2.76c-.04-.46-.12-1-.23-1.65.19.31.42.84.77,1.65h1.61c-.04-.27-.04-.5-.04-.69.04.15.12.38.19.69h1.54v-1.96h-6.95v.38c-.04-.12-.04-.27-.08-.38h-.96v1.46c-.38-.58-.69-1.07-.96-1.46h0Z"/>
    <path class="cls-3" d="M47.34,15.74h-1.07c-.04.12-.04.15-.04.19-.04-.08-.08-.15-.11-.19h-1.19c.35.58.69,1.23,1,1.96h1.73c-.19-.77-.27-1.42-.31-1.96h0Z"/>
    <path class="cls-3" d="M44.77,16.31c0-.27.04-.46.08-.58h-1.04c-.04.12-.04.19-.04.31h-.15c-.08-.12-.15-.23-.19-.31h-1.88c-.08.27-.15.58-.19.92-.08-.08-.27-.38-.54-.92h-3.38c.19.54.46,1.19.73,1.96h1.84c-.08-.77-.19-1.38-.38-1.84.42.42.81,1.04,1.15,1.84h1.96c-.08-.38-.15-.81-.23-1.27.23.34.46.77.73,1.27h1.69c-.12-.54-.15-1-.15-1.38h0Z"/>
    <path class="cls-3" d="M36.74,15.74h-4.41c.19.58.42,1.23.69,1.96h4.18c-.19-.73-.35-1.38-.46-1.96h0Z"/>
    <path class="cls-3" d="M74.66,16.2c-.04-.19-.11-.35-.19-.46h-10.75c-.04.15-.04.35-.08.58h-.15c-.04-.19-.04-.38-.08-.58h-1.27c.12.46.31,1.08.5,1.88t.04.08h1.84c.04-.58.11-1,.19-1.27l.35.61c.08.15.23.23.5.23s.46-.04.54-.12c.04-.08.04-.15.08-.19,0,.23.04.46.11.73h1.46c.04-.5.04-.81.08-.92.04.08.15.31.27.73.04.08.08.15.12.19h1.07v-.61h.08c.11.19.23.42.34.61h1.11v-1c.12.04.23.23.35.5.11.23.27.35.42.35.27,0,.42-.04.46-.12l.08-.15v-.31c.08.12.19.35.38.73h1.15v-.92h.04c.11.35.23.65.38.92h2.11v-.5c0-.54-.08-.92-.19-1.19-.08-.19-.35-.27-.81-.27-.35,0-.54.15-.54.46h0Z"/>
    <path class="cls-3" d="M26.07,13.74h-1.42c.08.42.15.88.27,1.38.11.69.27,1.53.46,2.57h3.91c-.15-.5-.23-.84-.23-1,.04-.31.08-.54.08-.65v-.04c.19.54.38,1.11.57,1.69h2.73c-.42-1.65-.73-2.99-.96-3.95h-1.08c.04.38.12.81.19,1.23-.08.04-.19-.04-.31-.23-.15-.27-.38-.46-.65-.5-.19.15-.35.35-.46.61-.04.15-.08.35-.11.61l-.04-.04c-.19-.65-.31-1.19-.38-1.69h-2.23l.54.92-.38.31-.42-.27c-.04-.27-.04-.58-.08-.96h0Z"/>
    <path class="cls-3" d="M30.18,13.74h-1.27c.19.23.42.38.73.5.11-.04.27-.08.38-.08.12-.04.15-.15.15-.42h0Z"/>
    <path class="cls-3" d="M24.42,15.27c-.11-.54-.27-1.04-.38-1.53h-2.99c.12.35.15.54.15.58-.04-.08-.15-.27-.27-.58h-1.38c.15.73.42,1.96.84,3.61-.69-1.61-1.04-2.57-1.04-2.92.04-.27.04-.5.08-.69h-5.07c.11.5.19.81.19.96,0,.42-.04.61-.08.65-.15-.58-.31-1.11-.46-1.61h-1.65c.15.35.31.77.5,1.19.46,1.11.84,2.03,1.11,2.76h1.57c0-.19,0-.35.04-.5v-.12c.04.19.08.38.15.61h9.29c-.19-.69-.38-1.5-.61-2.42h0Z"/>
    <path class="cls-3" d="M11.8,13.74h-5.07c.23.88.42,1.69.54,2.46-.65-.04-1,.08-1.11.31-.08.12-.08.27,0,.38,0,.19,0,.46-.04.81h6.76c-.19-.73-.38-1.57-.65-2.46-.15-.54-.31-1.04-.42-1.5h0Z"/>
    <path class="cls-3" d="M61.73,13.74h.5c-.11-.04-.19-.04-.31-.04-.08,0-.15,0-.19.04h0Z"/>
    <path class="cls-3" d="M65.61,13.74h.15l-.04-.04s-.08,0-.11.04h0Z"/>
    <path class="cls-3" d="M55.36,13.43c-.42,0-.77.12-1,.31h2.19c-.08-.08-.15-.15-.23-.19-.11-.08-.46-.12-.96-.12h0Z"/>
    <path class="cls-3" d="M59.12,13.74h.58c-.08-.04-.15-.04-.19-.04-.15,0-.27,0-.38.04h0Z"/>
    <path class="cls-3" d="M46.61,13.74h.77c-.12-.04-.23-.04-.35-.04-.19,0-.35,0-.42.04h0Z"/>
    <path class="cls-3" d="M61.88,17.69h-1.54c.11.42.23.96.35,1.61.11.58.23,1.04.42,1.46.08.23.15.42.27.61.15-.04.31-.11.42-.19t.08-.08v-3.42h0Z"/>
    <path class="cls-3" d="M64.53,17.69h-1.84c.38,1.27.81,1.92,1.31,1.92.27,0,.42-.04.46-.12,0-.11,0-.15.04-.15,0-.65,0-1.19.04-1.65h0Z"/>
    <path class="cls-3" d="M66.3,17.69c.04.08.04.15.08.27.19.58.5.84.88.84.46,0,.61-.08.46-.19.04-.35.04-.65.04-.92h-1.46Z"/>
    <path class="cls-3" d="M68.79,18.04c.27,0,.42-.04.46-.08.04-.04.04-.08.04-.12v-.15h-1.07c.15.23.35.35.58.35h0Z"/>
    <path class="cls-3" d="M70.36,18.54c.19-.08.35-.15.46-.27v-.58h-1.11c.19.31.38.58.65.84h0Z"/>
    <path class="cls-3" d="M73.67,18.54v-.84h-1.15s0,.11.04.15c.19.42.38.73.57.96.23-.08.42-.15.54-.27h0Z"/>
    <path class="cls-3" d="M76.16,18.04s.04-.15.04-.35h-2.11c.31.58.69.92,1.11,1.11.58-.38.88-.65.96-.77h0Z"/>
    <path class="cls-3" d="M47.64,17.69h-1.73c.5,1.11.92,2.42,1.34,3.88t.04.08h1.38c-.5-1.57-.84-2.88-1.04-3.95h0Z"/>
    <path class="cls-3" d="M50.37,18.5c0-.27.04-.42.08-.42l.04.08c.12.23.46,1.38,1.11,3.49h2.34c-.31-.69-.5-1.34-.61-1.92.27.54.61,1.11,1,1.73.04.08.04.15.08.19h1.34c-.04-.42-.19-1.3-.38-2.65-.08-.5-.15-.96-.19-1.3h-6.64c.38,1.19.58,1.84.61,1.92v2.03h1.88c-.42-1.69-.65-2.73-.65-3.15h0Z"/>
    <path class="cls-3" d="M33.02,17.69v.04c.54,1.57,1.04,2.88,1.5,3.91h2.5c-.04-.12-.12-.27-.15-.38-.31-.92-.5-1.65-.54-2.15v-.04c.19.46.5,1.3.92,2.57h1.19c-.5-1.65-.92-2.92-1.19-3.8-.04-.04-.04-.11-.04-.15h-4.18Z"/>
    <path class="cls-3" d="M32.48,17.92c-.04-.08-.04-.15-.04-.23h-2.73c.42,1.27.81,2.57,1.19,3.95h1.11c-.04-.19-.12-.42-.19-.65-.35-1.04-.54-1.69-.58-2v-.08c.12.35.46,1.15,1.04,2.42.04.12.12.19.15.31h1.69c-.65-1.07-1.23-2.3-1.65-3.72h0Z"/>
    <path class="cls-3" d="M44.92,17.69h-1.69c.42.88.81,1.96,1.23,3.22.08.23.15.46.23.73h1.34c-.58-1.61-.92-2.92-1.11-3.95h0Z"/>
    <path class="cls-3" d="M42.73,17.69h-1.96c.15.35.31.77.42,1.19.19.65.5,1.57.84,2.76h1.65c-.08-.19-.15-.42-.23-.61-.19-.65-.42-1.77-.73-3.34h0Z"/>
    <path class="cls-3" d="M40.01,17.69h-1.84c.27.88.61,1.96.96,3.15,0,.27-.08.5-.23.65-.04.04-.11.12-.19.15h2.88c-.81-.73-1.31-1.65-1.5-2.69-.04-.46-.04-.88-.08-1.27h0Z"/>
    <path class="cls-3" d="M34.13,21.65h-1.69c.38.84.57,1.38.57,1.61,0,.42-.04.5-.11.15-.19-.19-.42-.27-.69-.27.04-.42-.04-.92-.19-1.5h-1.11c.08.35.15.73.27,1.07-.04.08-.08.08-.12.04-.11-.19-.27-.58-.46-1.11h-10.59c.19.65.38,1.42.58,2.26h-.15c-.35-.5-.69-1.27-1-2.26h-10.63c.42,1.04.92,2.38,1.5,3.95h2.19c-.42-1.3-.69-2.15-.81-2.57.04.11.23.58.54,1.3.19.5.35.92.46,1.27h4.95v-.04c-.23-1.19-.31-2-.27-2.42.15.35.38,1.04.73,2.07.04.11.12.27.15.38h1.46c-.04-.11-.12-.27-.15-.46-.27-.69-.38-1.11-.38-1.23.12.15.31.5.5,1.07.12.27.31.5.54.61h1.11s0-.04.04-.08c.08-.5.15-.81.23-.88.08.15.19.46.35.96h6.64c-.12-.15-.23-.46-.42-.88-.27-.61-.42-1-.42-1.11,0-.27.04-.54.15-.73.12-.23.19-.42.23-.54v-.04c.27.27.54,1.27.77,2.96v.35h9.25c-.04-.19-.08-.38-.08-.54,0-.27,0-.38.04-.42.04,0,.08-.04.08-.08.08.19.19.54.35,1.04h1.27c-.5-1.46-.77-2.3-.77-2.57,0-.5.19-.73.61-.73.11.31.31,1.19.65,2.69.08.23.15.42.19.61h1.65c-.04-.19-.12-.46-.19-.73-.19-.84-.31-1.42-.38-1.77.88.42,1.5,1.27,1.88,2.49h2.46c-.96-1.15-1.69-2.46-2.19-3.95h-1.65c.04.15.12.31.15.5h-.04c-.19-.15-.38-.31-.58-.5h-2.88s-.12.08-.15.12l-.11-.08v-.04h-1.19c.12.38.23.81.35,1.27-.15-.12-.35-.54-.58-1.27h-2.5c.19.5.38.96.58,1.31-.34-.42-.65-.84-.96-1.31h0ZM16.02,24.18c-.19-.19-.31-.27-.38-.27l-.04-1.27.58,1.46-.15.08h0ZM14.06,24.64l-.08-.35v-.04s.11.15.19.35c.08.23.11.42.08.54l-.04-.27s-.12-.08-.15-.23h0Z"/>
    <path class="cls-3" d="M48.68,21.65h-1.38c.23.96.54,2.26.88,3.95h2.23c-.19-.84-.27-1.5-.27-1.92.04.08.27.69.62,1.88t.04.04h1.34c-.46-1.57-.84-2.88-1.11-3.95h-1.88v1.19h-.12c-.11-.42-.23-.81-.35-1.19h0Z"/>
    <path class="cls-3" d="M46.3,22.49c-.11-.27-.19-.58-.27-.84h-1.34c.35,1.04.77,2.34,1.27,3.95h1.46c-.31-.81-.69-1.84-1.11-3.11h0Z"/>
    <path class="cls-3" d="M55.74,21.65h-1.34c.11.5.23.92.27,1.27h-.11c-.23-.42-.42-.84-.61-1.27h-2.34c.19.73.46,1.54.73,2.49.15.54.31,1.04.46,1.46h1.88l-.15-.58h.04c.04.19.08.38.15.58h1.65c-.15-.65-.42-1.54-.77-2.69.04-.04.08-.04.11-.08-.04-.08-.04-.12,0-.12l.04-.88v-.19h0Z"/>
    <path class="cls-3" d="M18.98,18.5l.08.04c.23.42.54,1.46.96,3.11h10.59c-.19-.5-.42-1.11-.69-1.92-.27-.84-.5-1.53-.61-2.03h-3.91c.12.81.27,1.69.42,2.72-.04.08-.08.08-.11.04-.12-.5-.31-1.42-.65-2.76h-9.29c.12.35.27.73.46,1.23.27.69.42,1.31.42,1.8,0,.46-.04.73-.08.77-.42-.65-.69-1.42-.84-2.23-.12-.58-.15-1.07-.15-1.57h-1.57c.38,1.11.58,1.8.58,2.15,0,.42-.04.5-.08.23-.27-.12-.69-.19-1.19-.19-.08-.61-.23-1.34-.42-2.19h-6.75c-.08.84-.23,2.15-.46,3.95h2.84c-.61-1.73-.92-2.73-.96-2.92.23.46.65,1.42,1.27,2.92h10.63c-.04-.08-.04-.15-.08-.23-.34-1.07-.5-1.92-.5-2.5,0-.27.04-.42.12-.42h0ZM9.76,21.07c-.08-.12-.12-.35-.12-.61.04-.27.04-.46.04-.58.19.46.35,1,.38,1.61l-.04-.08c-.11-.19-.23-.31-.27-.35h0ZM17.78,19.57s.04.04.04.08c.11.12.19.42.19.96-.04-.04-.12-.08-.15-.12-.08-.08-.11-.27-.11-.54s0-.42.04-.38h0Z"/>
    <path class="cls-3" d="M8.5,21.65h-2.84c-.12.65-.19,1.42-.31,2.23,0,.5.08,1.07.23,1.73h1.07c-.04-.11-.04-.23-.08-.35.04.12.12.23.19.35h3.07c-.12-.35-.27-.73-.38-1.11-.38-1.11-.69-2.03-.96-2.84h0Z"/>
    <path class="cls-3" d="M28.65,25.71s-.04-.08-.08-.12h-6.64c.04.23.11.5.19.81.19.65.46,1.19.88,1.61.35-.12.58-.27.69-.5.04.12.12.38.15.77.12.35.38.5.84.5.27,0,.58-.15.88-.5.34-.35.5-.73.5-1.15l-.04-.96s.23.08.69.15c.08.38.11.61.15.65.04.19.23.42.5.77.19-.04.35-.11.54-.23v-.77c.42.27.84.65,1.27,1.07.12.12.19.19.31.27.12.11.23.19.31.19h.08c.38,0,.5-.04.31-.08.15-.27.23-.69.23-1.27.15.23.38.31.65.19.15-.04.38-.19.65-.38-.19-.42-.27-.77-.27-.96l.58-.15c.04.46.19.84.42,1.19.27.46.69.69,1.19.69.27,0,.61-.23,1-.73.54-.65.88-1.07,1.07-1.19h-6.83c-.04.08-.04.12-.08.12-.04.04-.08.04-.15,0h0Z"/>
    <path class="cls-3" d="M19.7,25.6h-1.46c.27.73.58,1.27.92,1.65l.77-.77c0-.12-.08-.42-.23-.88h0Z"/>
    <path class="cls-3" d="M21.32,25.6h-1.11c.15.08.31.12.5.12.27,0,.46,0,.54-.04t.08-.08h0Z"/>
    <path class="cls-3" d="M12.49,25.6h-2.19c.19.46.35.96.54,1.46.35.96.69,1.77.96,2.49h2.07c-.04-.08-.04-.15-.08-.23-.46-1.27-.73-2.11-.84-2.53.61.11,1.07.04,1.42-.23.38-.38.69-.65.96-.84.11.31.19.65.27,1.04.08.35.23.65.5,1,1.04-.42,1.54-1.11,1.54-2.15h-4.95c.04.19.04.35.08.5h-.12c-.04-.19-.12-.35-.15-.5h0Z"/>
    <path class="cls-3" d="M6.65,25.6h-1.07c.08.27.15.54.23.84.27,1.04.42,1.61.42,1.76,0,.5-.04.92-.12,1.34h1.65c-.58-1.73-.92-3.07-1.11-3.95h0Z"/>
    <path class="cls-3" d="M9.84,25.6h-3.07c.42.81.92,2.11,1.57,3.95h2.65c-.27-1-.65-2.3-1.15-3.95h0ZM9.26,28.13c-.04.12-.11.12-.15.08l-.69-2.11v-.04c.12.11.27.42.46,1,.19.61.35.96.38,1.07h0Z"/>
    <path class="cls-3" d="M56.36,25.6h-1.65c.04.23.15.46.27.73.15.27.31.5.46.69.11.15.27.23.42.23h.19c.35-.04.46-.08.42-.19l.04-.46c0-.19-.04-.54-.15-1h0Z"/>
    <path class="cls-3" d="M47.41,25.6h-1.46v.04h-.04l-.04-.04h-2.46c.04.08.04.15.08.27.42,1.5.92,2.5,1.5,2.92.19-.04.38-.27.5-.69.11-.35.15-.69.15-1.04.08.12.46.46,1.11,1.04.77.65,1.34.96,1.69.96.38,0,.73-.04,1-.08.46-.12.81-.35,1.04-.69.19-.31.31-.69.27-1.19-.12-.58-.23-1.07-.35-1.5h-2.23c.11.73.27,1.5.42,2.34h-.46c-.04-.19-.27-1-.73-2.34h0Z"/>
    <path class="cls-3" d="M52.13,25.6h-1.34c.23.81.61,1.34,1.11,1.65.27-.08.42-.23.54-.5-.12-.42-.23-.81-.31-1.15h0Z"/>
    <path class="cls-3" d="M54.97,27.02c-.04-.23-.08-.5-.15-.81l-.15-.61h-1.88c.65,1.8,1.23,2.69,1.73,2.69h.27c.08-.04.11-.04.15-.08-.04-.08-.04-.11,0-.11l.04-.77v-.31h0Z"/>
    <path class="cls-3" d="M39.78,25.6h-1.27c.12.42.23,1,.42,1.69.46,1.34.92,2,1.34,2,.27,0,.46-.04.54-.15.04-.15.08-.27.12-.35-.27-.61-.61-1.61-1.11-2.99-.04-.08-.04-.15-.04-.19h0Z"/>
    <path class="cls-3" d="M42.12,25.6h-1.65c.35.92.69,1.38,1.11,1.38s.61-.04.5-.12c.04-.04.08-.08.12-.08v-.42c0-.15-.04-.42-.08-.77h0Z"/>
    <path class="cls-3" d="M38.13,25.6h-2.42c.15.12.31.46.46,1,.11.42.35.65.65.65.27,0,.42-.04.46-.08.04-.04.04-.08.04-.12v-.38l.81.84c.19-.08.35-.27.54-.54-.15-.38-.27-.69-.38-.92-.08-.15-.12-.31-.15-.46h0Z"/>
    <path class="cls-3" d="M58.58,17.69c.08.19.15.42.23.65.23.65.46,1.15.73,1.54.11.19.23.35.35.46.15-.04.27-.12.38-.23t.08-.08c-.08-.96-.11-1.77-.15-2.34h-1.61Z"/>
    <path class="cls-3" d="M58.05,18.04v-.35h-2.76c.08.42.16.92.27,1.5.27,1.3.57,2.3.96,2.95.19-.04.35-.15.54-.27v-2.61c.5.42.84.38.96-.12.04-.12.04-.46.04-1.11h0Z"/>
    <path class="cls-3" d="M7.77,29.55h-1.65c-.11.38-.23.73-.42,1-.12.54.35,1.65,1.38,3.3h-.08c-.35-.58-.65-1-.92-1.34-.5-.61-1.11-.92-1.77-.92-.27,0-.42.04-.54.08-.12.04-.19.08-.23.08v.58s.27.35.77.96c.5.58.84.88,1.04.88.81,0,1.88,1.34,3.15,3.99.42.84.77,1.57,1.07,2.15-.19-.27-.5-.61-.96-1.04-.88-.81-1.42-1.38-1.65-1.77-.35-.81-.61-1.42-.81-1.88-.38-.88-.92-1.15-1.57-.81v1.53c.46,1.73.69,2.69.69,2.88,0,.23-.12.38-.35.42-.23.08-.35.23-.35.42,0,.31.08.77.23,1.34h2.46c-.04-.12-.08-.19-.12-.31-.69-1.88-1.07-2.84-1.11-2.96v-.08c.42.42.92,1.38,1.53,2.95.04.12.12.27.15.38h1.38v-.04c0-.23.11-.35.31-.38.19-.04.27-.19.27-.42v-.04c.19.35.35.65.5.88h1.04c-.12-.42-.42-1.15-.84-2.19-.61-1.38-.92-2.19-.92-2.42s.08-.35.27-.38c.15-.04.23-.15.23-.38,0-.11-.5-1.57-1.5-4.45-.27-.73-.5-1.42-.69-2.03h0Z"/>
    <path class="cls-3" d="M8.34,29.55c.11.38.27.81.42,1.23.81,2.42,1.34,3.65,1.57,3.65.42,0,.58,0,.38-.04.08-.04.12-.08.15-.11.08-.04.12-.23.12-.5l.27-2.38c0-.38-.08-1-.27-1.84h-2.65Z"/>
    <path class="cls-3" d="M13.87,29.55h-2.07c.69,1.65,1.19,2.61,1.54,2.96.08.08.15.11.19.11.46,0,.57-.04.34-.11.12-.19.15-.5.19-.92v-.19c0-.73-.08-1.34-.19-1.84h0Z"/>
    <path class="cls-3" d="M11.22,41.41h-1.04c.27.46.46.69.54.69.27,0,.46-.04.5-.15,0-.12,0-.19.04-.19,0-.08,0-.19-.04-.35h0Z"/>
    <path class="cls-3" d="M9.11,41.41h-1.38c.46,1.23.69,2,.69,2.34,0,.42-.04.5-.08.19-.27-.54-.61-1.38-1.07-2.53h-2.46c.08.35.19.77.35,1.19.38,1.19.58,1.77.58,1.8,0,.23-.11.34-.31.38-.23,0-.35.12-.35.35,0,.54.19,1.42.58,2.61.31,1.04.58,1.77.77,2.23-.54.19-.81.58-.81,1.07l-.19,2.23h3.38c-.31-.88-.65-1.77-1-2.65.08.15.31.58.65,1.27.31.61.46,1.07.5,1.38h1.27v-.5c-.58-1.57-1-2.72-1.31-3.45.31-.12.46-.15.5-.19.19-.12.27-.31.27-.61,0-.27-.19-1.04-.58-2.3-.46-1.42-.69-2.11-.69-2.15.46.31.88.35,1.23.15l.04-.88c0-.19-.08-.54-.27-.96-.19-.42-.31-.73-.31-.96h0Z"/>
    <path class="cls-3" d="M10.22,54.12v-.84h-1.27c0,.08,0,.15-.04.19h-.08s-.04-.12-.04-.19h-3.38l-.08,1.04c0,.58.19,1.46.61,2.65.34.96.65,1.69.92,2.26h-.08c-.88-1.34-1.5-2-1.84-2-.27.04-.46.08-.58.08-.04.23-.08.42-.08.54,0,.73.35,1.88,1.07,3.42.73,1.46,1.3,2.42,1.77,2.84.23-.08.38-.23.5-.5-.5-1.27-.77-2-.77-2.11,0-.27,0-.42.04-.42l.04.08c.19.35.61,1.15,1.27,2.42.58,1.04.96,1.57,1.11,1.57.42,0,.58-.04.42-.12.08-.08.12-.15.15-.19.04-.04.04-.23.04-.54,0-.15-.15-.62-.42-1.38-.27-.77-.42-1.27-.42-1.46,0-.23.12-.38.31-.5.19-.12.27-.31.27-.5,0-.38-.11-.88-.38-1.54h.15c0,.12.15.15.42.15s.46-.04.58-.15v-.61c0-.15-.23-.96-.73-2.38-.5-1.46-.77-2.26-.81-2.38.08.08.19.27.38.58.12.19.23.27.38.27.27,0,.42-.04.46-.11l.08-.15h0ZM8.04,55.53c-.46-1.04-.73-1.61-.77-1.8v-.08c.08.19.34.77.81,1.65.42.84.61,1.38.61,1.65v.42l-.08-.08c-.04-.31-.23-.88-.58-1.77h0Z"/>
    <path class="cls-4" d="M74.32,21.38c-.57-.88-1.07-1.3-1.54-1.3-.27,0-.46.04-.5.08l-.11.08-.04,1.07s-.46-.42-1.23-1.19c-.69-.69-1.19-1.04-1.46-1.04-.35,0-.61.19-.81.58-.08.19-.11.42-.15.61-.35-.08-.69-.31-1-.73-.27-.35-.61-.5-1-.42-.04.04-.08.11-.19.23-.04.12-.08.31-.08.58,0,.54.42,1.54,1.3,2.96.96,1.54,1.46,2.38,1.5,2.53h-.11c-.65-.96-1.34-1.88-2-2.76-1.34-1.73-2.23-2.57-2.57-2.57-.96,0-1.42.35-1.42,1s.27,1.38.77,2.23h-.11c-.11-.23-.5-.69-1.15-1.42-.27-.27-.46-.5-.61-.69-.12.08-.27.15-.42.19-.12-.19-.19-.38-.27-.61-.19-.08-.34-.19-.54-.38-.12-.12-.19-.19-.31-.27-.12.11-.23.19-.38.23-.12-.12-.23-.27-.35-.46-.23.04-.38.08-.46.15-.04.08-.08.12-.12.12l-.08.5c0,.27.04.46.11.61.11.27.19.38.19.42h-.11c-.19-.12-.38-.19-.58-.15-.19.04-.35.04-.38.04.04.77.19,1.54.46,2.34-1.19-.27-1.8,0-1.8.81,0,.04.11.46.38,1.27.27.81.38,1.34.38,1.65v.31h1.61c-.58-1.19-1-2.19-1.23-2.95v-.12c.58.96,1.15,2,1.73,3.07h3.38c-1.04-2.03-1.88-3.8-2.5-5.37v-.11c1.23,1.96,2.34,3.76,3.3,5.49h1.19c-.61-.96-1-1.73-1.11-2.3.08.12.46.77,1.19,1.88.12.15.19.31.27.42h1.54c-.27-.61-.46-1.15-.58-1.57.35.58.65,1.07.96,1.57h1.65c-.27-.5-.54-1.07-.81-1.73.19.04.58.54,1.15,1.5.04.08.12.15.15.23h4.34c-.65-1-1.23-1.84-1.69-2.57-1.27-1.96-2.11-3.61-2.53-4.95v-.08c1.96,1.65,3.53,4.18,4.76,7.6h1.34c-.61-1.42-1.38-3.38-2.26-5.87v-.04c.04.08,1.23,2.03,3.57,5.91h1.57c-.77-1.73-1.46-3.38-2.07-4.99,1.04,1.38,2.07,3.03,3.11,4.99h5.22c-.12-.38-.23-.77-.35-1.19-1.34-4.26-3.41-6.41-6.18-6.41-.27,0-.42.04-.5.15-.04.04-.04.08-.04.12,0,1.04.04,1.73.16,2.11-.19-.23-.42-.42-.62-.61-.38-.34-.77-.5-1.19-.5-.27,0-.42.04-.5.08l-.11.08v1.34h-.15c-.35-.69-.69-1.27-1-1.73h0ZM78.77,22.07v-.04c.23.23.62,1.11,1.15,2.61l-.38.08c-.23-.35-.38-.81-.5-1.42-.12-.69-.19-1.11-.27-1.23h0ZM65.64,25.02h-.11c-.46-1.04-.73-1.73-.81-2.11.08.12.38.84.92,2.11h0ZM60.08,25.22c-.11-1-.27-1.69-.46-2.11v-.08l1.96,4.41c-.8-.58-1.3-1.3-1.5-2.23h0Z"/>
    <path class="cls-4" d="M70.71,29.94l-.61.19c-.27-.42-.65-1.15-1.15-2.19h-1.65c1.19,2,1.88,3.26,2.15,3.8-.12.15-.23.23-.35.23-.73-1.27-1.27-2.23-1.61-2.88-.23-.42-.42-.81-.58-1.15h-1.54c.54.88.85,1.54.96,1.88-.5-.69-.96-1.31-1.31-1.88h-1.19c1.96,3.45,3.38,6.41,4.34,8.87h7.33c-.5-1.11-.92-2-1.23-2.65v-.04c.61.96,1.19,1.84,1.69,2.69h3.42s-.08-.12-.12-.19c-.73-1.5-1.19-2.57-1.38-3.22v-.08c.23.54.84,1.69,1.8,3.49h1.23c-.57-1.15-1.04-2.11-1.38-2.88-1.07-2.19-1.84-3.3-2.3-3.3-.31,0-.85-.88-1.57-2.69h-1.34c.19.5.35,1,.5,1.54-.38-.54-.73-1.04-1.04-1.54h-4.34c.65,1.07,1.07,1.73,1.27,2h0ZM72.01,30.32c.08-.11.11-.31.11-.61,0-.27-.04-.5-.08-.61-.04-.12-.08-.19-.08-.23v-.08c.04.08.23.42.65,1.04.38.65.58,1.15.58,1.46,0,.27-.11.5-.31.61-.12.08-.23.15-.38.27-.54-.69-.84-1.19-.96-1.54.27-.12.42-.23.46-.31h0ZM66.76,30.7c.23.35.73,1.08,1.46,2.19.65,1.07,1.07,1.88,1.27,2.42h-.19c-1-1.42-1.84-2.96-2.53-4.61h0ZM75.74,33.58v-.08l1.23,2.65-.11-.08c-.73-1.46-1.08-2.3-1.11-2.49h0ZM70.98,31.85c.42.35.92,1.04,1.5,2.07.84,1.42,1.42,2.34,1.69,2.72h-.04c-1.65-2.03-2.69-3.61-3.15-4.8h0Z"/>
    <path class="cls-4" d="M78.54,27.94h-1.57c.42.73.92,1.57,1.46,2.46,1.46,2.42,2.49,4.57,3.07,6.41h1.54c-1.57-2.99-2.61-4.95-3.07-5.91-.5-1-1-2-1.42-2.96h0Z"/>
    <path class="cls-4" d="M84.8,27.94h-5.22c.5.92.96,1.88,1.42,2.92.73,1.57,1.54,3.57,2.46,5.95h1.19c-.08-.27-.15-.54-.19-.73.65.38,1.04.19,1.19-.61.04-.19.04-.73.04-1.61,0-1.8-.31-3.76-.88-5.91h0ZM84.03,30.74c.5.65.73,1.27.61,1.77v2.15h-.11c-.42-.84-.81-1.73-1.15-2.69-.38-1.11-.69-1.96-.92-2.53.58.23,1.07.65,1.57,1.3h0Z"/>
    <path class="cls-4" d="M63.03,27.94h-3.38c.73,1.38,1.42,2.88,2.15,4.45h1.38s-.04-.12-.08-.15v-.08s.11.11.19.23h2.15c-.58-1.04-1.04-1.8-1.3-2.3-.42-.73-.77-1.46-1.11-2.15h0Z"/>
    <path class="cls-4" d="M54.94,27.94v.15s-.04.04,0,.11c-.04.04-.08.04-.15.08-.04.46-.08.84-.12,1.11-.11.42-.15.77-.15.96,0,.42.08.84.27,1.19h-.12c-.46-.65-.88-1.23-1.23-1.69-.73-.88-1.23-1.34-1.54-1.34-.15,0-.35-.04-.58-.11-.19-.04-.46-.08-.84-.12-.23.35-.58.58-1.04.69-.12.19-.19.42-.31.69-.31.88-.5,1.34-.61,1.34-.54,0-.84.08-.92.19-.23.27-.46.5-.69.65-.27-.38-.88-.92-1.77-1.65-.96-.77-1.61-1.15-1.92-1.15-.42,0-.77.38-1.07,1.19-.19-.19-.5-.27-.92-.23-.42.08-.65.12-.77.12-.04.38-.08.81-.08,1.23-.35,0-.65.04-.88.11-.23.08-.42.12-.61.12-.08,0-1.07-.58-2.96-1.77-.27,0-.46.04-.5.08,0,.04-.04.04-.08.04-.04.19-.08.42-.08.69,0,.23.19.81.61,1.77h5.99c-.15-.42-.27-.84-.38-1.19v-.04c.27.35.58.77.84,1.23h1.5c-.42-.77-.61-1.42-.57-1.96.73.27,1.23.88,1.46,1.77.04.04.04.12.04.19h3.15v-.11c.08,0,.12-.04.15-.12.11.04.19.12.31.23h1.54c-.08-.27-.15-.58-.23-.92.04.04.19.35.42.92h1.88c-.11-.19-.27-.42-.42-.61-.65-1-1.07-1.73-1.19-2.15.42.15.96.77,1.57,1.84.19.35.35.65.5.92h1.42c-.04-.11-.11-.19-.15-.27v-.08c.12.12.19.23.31.35h3.68c-.88-1.57-1.5-2.84-1.77-3.72.96.65,2.03,1.88,3.19,3.72h2.38c-.5-.92-.92-1.73-1.27-2.38-.42-.73-.77-1.42-1.07-2.07h-1.61c-.04.19-.04.27-.08.15-.08-.04-.15-.12-.23-.15h-2.3Z"/>
    <path class="cls-4" d="M28.99,28.02c-.27,0-.42.04-.46.08-.04.04-.04.08-.08.19l-.08.27c0,.27-.04.58-.12,1-.11.42-.15.73-.15.92,0,.58.35,1.15,1.04,1.73.08.04.15.12.19.19h4.22c-.11-.19-.23-.35-.27-.42v-.11c.19.11.38.31.61.54h1.42c-.19-.27-.38-.46-.54-.65-.92-1.11-1.69-1.65-2.3-1.65-.27,0-.46.08-.58.23-.08.08-.15.19-.23.31-.31-.58-.61-1.04-.92-1.46-.27-.38-.58-.69-.88-.88h-.08c-.08,0-.19-.08-.31-.19-.19-.04-.34-.08-.5-.08h0ZM29.91,30.2v-.08l.88,1.07-.31.08-.58-1.07h0Z"/>
    <path class="cls-4" d="M23.5,28.78c-.27,0-.42.04-.46.15-.04.04-.04.11-.04.23.08.88.38,1.96.96,3.22h1.23c-.19-.31-.35-.58-.46-.81.15.23.35.5.58.81h1.46c-.23-.38-.42-.73-.61-1.04.34.34.65.69,1,1.04h1.34c-.5-.65-.92-1.11-1.27-1.46-1.38-1.42-2.61-2.15-3.72-2.15h0Z"/>
    <path class="cls-4" d="M43.84,32.39h-1.5c.69,1.04,1.42,2.38,2.23,3.95.08.15.15.31.23.46h4.61c-1.04-2.23-1.53-3.57-1.53-4.07,0-.15,0-.27.04-.35h-3.15c.34,1.27.57,1.96.61,2.07h-.19c-.61-.88-1.04-1.57-1.3-2t-.04-.08h0Z"/>
    <path class="cls-4" d="M40.16,32.93v-.04c.88,1,1.77,2.3,2.65,3.92h1.46c-.12-.15-.19-.31-.27-.42-.96-1.57-1.69-2.88-2.11-3.99h-5.99c.19.42.46.96.73,1.57-.5-.61-.92-1.15-1.3-1.57h-1.42c.77.77,1.88,2.19,3.3,4.26.04.04.08.11.12.15h2c-.54-1.04-.84-1.65-.92-1.8v-.08c.31.38.69,1,1.15,1.88h2.76c-.88-1.57-1.61-2.88-2.15-3.88h0Z"/>
    <path class="cls-4" d="M28.49,32.39h-1.34c1.19,1.27,2.26,2.73,3.3,4.41h5.56c-1.23-2.26-2.03-3.72-2.46-4.41h-4.22c.58.54.84,1.23.84,2.03h-.12c-.61-.81-1.15-1.5-1.57-2.03h0Z"/>
    <path class="cls-4" d="M25.19,32.39h-1.23c.27.61.61,1.27,1.04,1.96.38.65.88,1.5,1.5,2.46h1.27c-1.15-1.96-2-3.42-2.57-4.41h0Z"/>
    <path class="cls-4" d="M26.77,32.39h-1.46c.69,1,1.65,2.46,2.92,4.41h1.46c-1.27-1.84-2.23-3.3-2.92-4.41h0Z"/>
    <path class="cls-4" d="M61.5,32.39h-2.38c.19.31.38.61.58.96.92,1.57,1.5,2.73,1.73,3.45h2.23c-.35-.73-.58-1.23-.65-1.5v-.08c.38.65.61,1.19.65,1.57h1.5c-.19-.58-.46-1.3-.88-2.19-.5-1.04-.88-1.8-1.07-2.23h-1.38c.35.81.69,1.61,1.04,2.46-.5-.88-.92-1.73-1.34-2.46h0Z"/>
    <path class="cls-4" d="M65.45,32.39h-2.15c.35.46.88,1.3,1.61,2.49.46.73.84,1.38,1.11,1.92h1.92c-1.04-1.8-1.84-3.3-2.49-4.41h0Z"/>
    <path class="cls-4" d="M53.86,32.39h-1.42c.27.54.42,1,.46,1.38-.04-.04-.35-.5-.92-1.38h-1.88c.15.35.34.81.54,1.38h-.08c-.27-.35-.46-.81-.65-1.38h-1.54c.73.61,1.46,1.88,2.15,3.84.04.19.12.38.19.58h5.6c-.38-.46-.73-1-1.04-1.61-.58-1.23-1.04-2.15-1.42-2.8h0Z"/>
    <path class="cls-4" d="M57.7,32.39h-3.68c.46.58,1.04,1.46,1.69,2.57.42.73.81,1.34,1.11,1.84h3.57c-.5-.81-1.19-1.96-2.07-3.38-.23-.35-.42-.69-.61-1.04h0Z"/>
    <path class="cls-4" d="M56.05,27.25h-.19c-.15,0-.31-.08-.42-.23-.08-.04-.16-.04-.19-.04-.12,0-.23,0-.27.04v.31l-.04.61h2.3c-.46-.31-.84-.54-1.19-.69h0Z"/>
    <path class="cls-4" d="M60.39,36.81h-3.57c.35.58.58.96.73,1.19-.42-.35-.84-.73-1.23-1.19h-5.6c.35,1.11.73,2.57,1.19,4.45h2.61c-.04-.12-.11-.19-.15-.27v-.04c.12.08.23.19.35.31h9.83c-.65-1.57-.96-2.49-.96-2.76,0-.23.04-.5.11-.84.04-.31.08-.5.08-.58.04.04.11.19.23.38.12.19.31.27.58.27s.46-.08.58-.19c.04-.12.08-.23.11-.31-.04-.12-.08-.27-.11-.42h-3.72c.04.23.08.42.08.54,0,.27-.04.5-.08.61-.04.04-.11.12-.31.31v-.08c-.12-.27-.38-.73-.73-1.38h0ZM55.74,39.68c.04.12.04.27-.04.42-.04-.04-.11-.15-.15-.27-.04-.15-.08-.27-.04-.35v-.08c.12.04.19.15.23.27h0ZM59.08,40.87c-.27.15-.46.27-.65.31-.19-.04-.35-.31-.5-.81-.12-.5-.23-.84-.27-.96.19.04.46.27.84.69.27.35.46.58.58.77h0Z"/>
    <path class="cls-4" d="M42.31,36.81h-2.76c.5.88,1.04,1.96,1.69,3.3-.58-.61-1.07-1.46-1.57-2.53-.11-.27-.23-.54-.34-.77h-2c1.34,1.92,2.19,3.42,2.57,4.45h3.34c-.27-.5-.46-.88-.65-1.23.15.27.38.65.73,1.23h1.42c-.92-1.69-1.73-3.19-2.42-4.45h0Z"/>
    <path class="cls-4" d="M44.27,36.81h-1.46c.69,1.27,1.38,2.76,2.11,4.45h2.11c-1.15-1.88-2.07-3.34-2.76-4.45h0Z"/>
    <path class="cls-4" d="M49.52,37.04c-.04-.08-.08-.15-.12-.23h-4.61c1.23,2.34,2,3.8,2.34,4.45h4.57c-.57-.84-1.31-2.26-2.19-4.22h0Z"/>
    <path class="cls-4" d="M26.23,36.81h-2.03l.54,1c-.31-.19-.54-.5-.69-1h-2.76c.27.58.58,1.15.92,1.8.5,1,.96,1.88,1.38,2.65h4.26l-.35-.77v-.08c.08.11.23.42.42.84h2.46c-1-1.69-1.88-3.19-2.61-4.45h-1.27c.42.73.92,1.57,1.5,2.46-.65-.88-1.23-1.73-1.77-2.46h0Z"/>
    <path class="cls-4" d="M29.76,36.92s-.04-.08-.08-.12h-1.46c.81,1.27,1.77,2.76,2.84,4.45h1c-.46-1.27-1.23-2.72-2.3-4.34h0Z"/>
    <path class="cls-4" d="M36.01,36.81h-5.56c.04.12.11.19.15.31.84,1.42,1.54,2.8,2.03,4.14h6.14c-.81-1.11-1.61-2.34-2.38-3.76-.11-.23-.27-.46-.38-.69h0ZM34.25,39.07c-.35-.65-.61-1.15-.77-1.54.12.04.38.46.88,1.27.46.81.73,1.38.84,1.69-.23-.27-.54-.73-.96-1.42h0Z"/>
    <path class="cls-4" d="M12.91,36.81h-2.11c.04.15.12.31.23.5.19.38.27.69.27.88,0,.23-.08.35-.27.38-.19.04-.31.15-.31.38,0,.15.23.92.73,2.3h2.84c-.81-1.34-1.46-2.49-2.03-3.45,1.15,1.04,2.23,2.19,3.26,3.45h6.14c-.84-1.38-1.73-2.88-2.61-4.45h-1.54v.12s-.04-.08-.08-.12h-3.88c.19.38.38.84.65,1.34h-.12c-.46-.54-.84-1-1.19-1.34h0Z"/>
    <path class="cls-4" d="M20.78,36.81h-1.23c.88,1.34,1.73,2.8,2.61,4.45h1.15c-.96-1.69-1.8-3.19-2.53-4.45h0Z"/>
    <path class="cls-4" d="M36.82,42.18v-.08c.58.42,1.19,1.57,1.8,3.45.04.04.04.08.04.12h1.04c-.46-1.11-.88-2.11-1.27-2.96.61.84,1.27,1.84,1.96,2.96h5.07c-.08-.15-.15-.31-.23-.46-.81-1.65-1.46-2.95-2-3.95h-3.34c.19.42.27.81.27,1.07v.46h-.08c-.42-.46-.88-.96-1.3-1.54h-6.14c.27.73.46,1.42.65,2.11-.42-.19-.69-.42-.81-.65-.12-.46-.23-.96-.42-1.46h-1c.04.12.12.19.19.31l-.65.08c-.08-.12-.15-.27-.23-.38h-2.46c.08.19.15.38.27.65l-.12-.08-.23-.58h-4.26c1.34,2.53,2,3.88,2.03,4.03h-.11c-.81-1.46-1.54-2.8-2.19-4.03h-1.15c.65,1.15,1.27,2.38,1.92,3.72h-.04c-.77-1.15-1.57-2.38-2.38-3.72h-6.14c1.11,1.34,2.19,2.8,3.19,4.41h1.42c-.12-.27-.19-.54-.31-.81-.58-1.8-.96-2.88-1.11-3.22v-.08c1.27,1.88,2.15,3.22,2.65,4.11h11.55c-.5-.92-.92-1.65-1.19-2.23.62.65,1.23,1.42,1.84,2.23h1.69c-.08-.15-.15-.31-.23-.46.27-.04.61-.15,1.04-.35.15.27.31.54.46.81h1.38c-.42-1.65-.81-2.8-1.07-3.49h0Z"/>
    <path class="cls-4" d="M14.29,41.26h-2.84c.12.42.27.88.46,1.38.42,1.23.81,2.23,1.11,3.03h3.88c-1-1.65-1.88-3.11-2.61-4.41h0ZM12.99,42.03s.27.35.65.88c.42.58.73,1,.84,1.23-.81-1.15-1.3-1.84-1.5-2.11h0Z"/>
    <path class="cls-4" d="M55.17,42.1c-.27-.27-.46-.54-.65-.84h-2.61c.04.12.04.27.08.38-.08-.12-.15-.23-.27-.38h-4.57c.08.19.11.27.15.31l-.12-.04c-.04-.11-.11-.19-.15-.27h-2.11c.23.5.46,1,.65,1.54-.27-.54-.57-1.04-.84-1.54h-1.42c.19.31.38.69.65,1.11.58,1,.96,1.5,1.15,1.5.46,0,.69-.08.65-.19.12.58.31,1.27.54,2h1c-.12-.38-.23-.73-.31-1.04.19.27.38.61.58,1.04h4.6c-.27-.65-.58-1.34-.84-2.03v-.08c.58.42,1.07,1.15,1.5,2.11h2.46c-.42-1.04-.8-2-1.11-2.96.73.92,1.42,1.92,2.11,2.96h3.95c-.27-.96-.54-2.15-.88-3.49.65.88,1.34,2.03,2,3.49h5.14c-.81-1.8-1.46-3.3-1.96-4.41h-9.83c.19.19.35.46.54.77l-.08.08h0ZM49.1,42.68c.04-.08.04-.12.04-.15v-.04c.23.42.34,1,.34,1.73-.11-.19-.23-.31-.31-.38-.11-.15-.15-.35-.15-.61s.04-.46.08-.54h0Z"/>
    <path class="cls-4" d="M68.18,36.81c.11.35.23.65.35,1-.19-.35-.38-.65-.58-1h-1.92c.38.73.58,1.27.58,1.57,0,.23-.11.42-.31.58-.19.15-.31.35-.31.54,0,1.15.58,3.22,1.77,6.18h1.42c-.65-1.61-1.15-3.11-1.5-4.49v-.04c.54,1.15,1.3,2.65,2.26,4.53h9.52c-.08-.19-.15-.38-.19-.5v-.04c.12.11.27.31.42.54h1.5c-.81-1.61-1.27-2.65-1.38-3.07.19.15.54.73.96,1.73.19.35.38.81.61,1.34h3.99c-.19-.5-.38-1.07-.62-1.69-1.04-2.92-1.61-4.49-1.65-4.72h.08c.77,1.42,1.34,2.11,1.73,2.11.27,0,.42-.04.46-.12,0-.12,0-.15.04-.15v-1.96c-.35-.92-.58-1.69-.77-2.34h-1.19c.27.73.54,1.46.81,2.26l-.04-.04c-.42-.81-.85-1.53-1.19-2.23h-1.54c.23.81.38,1.57.46,2.26-.38-.81-.73-1.57-1.04-2.26h-1.23c.04.12.11.19.15.31.84,1.65,1.27,2.53,1.27,2.65,0,.42-.08.54-.23.27-.23-.58-.73-1.65-1.5-3.22h-3.42c1.23,2.07,2.07,3.88,2.53,5.37-.81-1.11-1.57-2.46-2.34-3.99-.23-.5-.46-.96-.65-1.38h-2.61c.31.31.69.92,1.19,1.84.42.81.69,1.46.84,1.96-.73-.96-1.42-2.23-2.03-3.76v-.04h-4.72ZM71.59,45.56h-.12c-.96-1.8-1.88-3.34-2.69-4.61.54.38,1.07,1.11,1.65,2.19.27.58.65,1.38,1.15,2.42h0Z"/>
    <path class="cls-4" d="M19.05,29.36s-.04.08-.08.08c-.04.35-.08.81-.08,1.46,0,.84.81,2.8,2.38,5.91h2.76c-.04-.12-.11-.27-.15-.46v-.08l.31.54h2.03c-.96-1.34-1.8-2.46-2.49-3.42-2.03-2.73-3.42-4.11-4.18-4.11-.27,0-.46.04-.5.08h0ZM20.43,31.74v-.04c.11.08.27.35.54.77.31.5.46.84.42,1.04l-.04-.04c-.38-.58-.69-1.15-.92-1.73h0Z"/>
    <path class="cls-4" d="M17.44,33.89v-.04c.69.88,1.38,1.88,2.11,2.96h1.23c-2.42-4.11-3.95-6.18-4.53-6.18-.27,0-.46.04-.54.08-.04.04-.08.08-.12.08,0,.5.08,1.19.23,2-.23-.38-.42-.69-.54-.88-.23-.35-.5-.54-.84-.54-.12,0-.23.08-.38.23-.04.42-.08.73-.19.92.23.08.12.11-.34.11-.04,0-.12-.04-.19-.11l-.04.04c-.5.77-.77,1.23-.77,1.34,0,.46.23,1.19.69,2.15.12.23.23.5.34.77h3.88c-.42-.42-.69-.77-.88-1-.34-.42-.58-.81-.65-1.15.12.08.42.38.88.96.42.54.65.92.73,1.19h1.54c-.54-.96-1.07-1.92-1.61-2.92h0Z"/>
    <path class="cls-4" d="M10.72,36.42c0,.11.04.23.08.38h2.11c-.73-.73-1.23-1.07-1.53-1.07-.31.04-.5.08-.58.08-.04.23-.08.42-.08.61h0Z"/>
    <path class="cls-4" d="M11.15,45.48c-.08.04-.11.08-.15.08v.12h1.27c-.23-.19-.42-.27-.61-.27-.27,0-.42.04-.5.08h0Z"/>
    <path class="cls-4" d="M47.3,45.67h-1c.12.46.27.96.46,1.46.27.73.65,1.88,1.19,3.45h-.12c-.42-.81-1.23-2.46-2.38-4.91h-5.07c1.42,2.34,2.96,5.3,4.64,8.87h2.42c-.58-1.96-1.11-3.53-1.53-4.72v-.04c.69,1.15,1.27,2.11,1.73,2.92.42.73.73,1.34,1,1.84h3.11c-.46-1.54-.73-2.42-.81-2.61.04.04.54.88,1.5,2.61h3.91c-.5-1.57-.84-3.03-1.04-4.37v-.08c.27.5.73,1.34,1.38,2.57.42.81.77,1.42.96,1.88h1.92c-1.77-3.19-3.19-6.14-4.3-8.87h-2.46c.11.31.23.65.35,1.04.27.81.61,2.03,1.07,3.68l-.08-.04c-.69-1.54-1.34-3.11-2-4.68h-4.6c.38.81.8,1.88,1.26,3.18.38,1.11.88,2.69,1.54,4.8h-.11c-1.42-3.53-2.42-6.18-2.96-7.98h0ZM51.1,45.79s.42.92,1.15,2.65l-.08-.08c-.73-1.3-1.07-2.15-1.07-2.5v-.08h0Z"/>
    <path class="cls-4" d="M39.7,45.67h-1.04c.35,1.04.84,2.42,1.42,4.22-.88-.96-1.61-2.26-2.11-3.91-.04-.12-.04-.19-.08-.31h-1.38c1.65,2.96,3.22,5.91,4.68,8.87h2.03c-1.38-3.57-2.57-6.52-3.53-8.87h0Z"/>
    <path class="cls-4" d="M35.25,45.67h-1.69c1.07,1.53,2.07,3.34,3.03,5.41.42.92.92,2.07,1.54,3.45h1.53c-1.57-2.96-3.07-5.91-4.41-8.87h0Z"/>
    <path class="cls-4" d="M29.99,48.43c.42-.23.65-.38.77-.46.04-.04.11-.19.23-.38,1.04,1.65,2.15,3.95,3.38,6.95h1.34c-.04-.15-.11-.31-.15-.42v-.08c.08.15.15.31.23.5h1.88c-.5-.92-1.04-1.92-1.61-2.99-1.34-2.42-2.38-4.38-3.15-5.87h-11.55c.38.65.58,1,.58,1.07,0,.27-.08.5-.19.69-.08.12-.19.23-.35.42-.5-.58-.92-1.3-1.27-2.19h-1.42c.42.65.81,1.34,1.23,2.07,1.11,2.03,2.19,4.3,3.23,6.79h1.11c-.27-.73-.5-1.38-.61-1.96v-.08c.23.35.61,1,1.15,2.03h1.23c-.42-.65-1.04-1.69-1.92-3.11-1.04-1.73-1.57-2.76-1.57-3.07v-.54c1.34,2.34,2.07,3.65,2.19,3.84.61,1.15,1.11,2.11,1.46,2.88h1.46c-.27-.58-.54-1.27-.81-2.03.35.42.77,1.11,1.23,2.03h2c-1.88-3.53-2.84-5.91-2.84-7.1,0-.27.04-.46.08-.65.04-.19.08-.31.08-.42v-.04c.81,1.27,2.15,3.99,4.07,8.21h1.38c-.42-1-.77-1.77-1.04-2.34-.65-1.42-1.23-2.69-1.8-3.76h0ZM24.54,45.79c.96.54,1.73,1.5,2.23,2.84.27.73.61,1.84,1.04,3.26-1.8-3.03-2.88-5.07-3.26-6.1h0Z"/>
    <path class="cls-4" d="M37.67,54.54h-1.88c.58,1.27,1.5,3.19,2.76,5.83-1.3-2.15-2.26-4.11-2.84-5.83h-1.34s0,.12.04.15c.69,1.69,1.65,4.07,2.92,7.18-.27-.38-.84-1.61-1.73-3.65-.73-1.73-1.27-2.57-1.57-2.57-.27,0-.46.04-.5.15-.04.04-.04.08-.08.12-.23-.5-.42-.96-.62-1.38h-1.38v.04c1.61,3.61,2.53,5.41,2.8,5.41.77,0,1.57,1.15,2.46,3.42h3.15c-.42-.84-.73-1.61-.92-2.3.73.46,1.42,1.23,2.07,2.3h1.57c-.08-.15-.12-.23-.12-.27,0-.27.08-.42.23-.46l.27-.08v-.12c.12.27.27.58.42.92h1.19c-1.73-2.95-3.38-5.91-4.91-8.87h-1.53c.58,1.34,1.27,2.88,2.03,4.64h-.08c-.61-1.23-1.42-2.76-2.42-4.64h0Z"/>
    <path class="cls-4" d="M30.07,54.54h-2s.04.12.08.15c.46.92.84,1.8,1.11,2.61-.5-.5-1.04-1.42-1.61-2.76h-1.46c.12.27.19.5.27.73-.04-.08-.19-.31-.42-.73h-1.23c.23.42.5.96.77,1.54,1.04,2.03,1.53,3.22,1.53,3.57v.54h-.08c-.73-1.15-1.38-2.42-2-3.76-.31-.65-.57-1.3-.77-1.88h-1.11c.5,1.23.96,2.53,1.46,3.88l-.08-.08c-.54-.96-1.27-2.23-2.23-3.8h-5.68s.04.04.04.08l-.08-.08h-3.8c.27.73.69,1.61,1.27,2.57.5.81,1.15,1.84,1.96,3.15-1.5-2.03-2.57-3.03-3.15-3.03-.27,0-.46.04-.54.15-.04.04-.08.08-.08.11v.38c0,.65.42,1.69,1.27,3.03.42.69.96,1.54,1.61,2.49h1.15c-1.57-2.65-2.38-3.99-2.42-4.03h.12c.19.19,1.04,1.54,2.61,4.03h6.98c-.19-.42-.42-.88-.61-1.38-1.19-2.76-1.77-4.37-1.77-4.8.04-.38.08-.65.08-.84-.04-.31-.19-.88-.5-1.69.73.27,1.92,2.15,3.57,5.68.5,1.11.96,2.15,1.34,3.03h2.23c-.27-.58-.38-1.11-.42-1.54.38-.19.58-.27.61-.27.27.65.54,1.27.81,1.8h1.11c-.65-1.42-1.11-2.57-1.46-3.49.58.96,1.07,2.11,1.57,3.49h2.38c.04-.12.15-.31.38-.54l.38-.38c0-.27-.04-.5-.15-.69-.15-.27-.23-.42-.23-.46v-.04c.42.61.84,1.3,1.19,2.11h1.15c-.96-1.54-1.92-3.11-2.84-4.68-.88-1.54-1.69-2.92-2.34-4.18h0ZM27.99,58.14c.08.12.23.58.5,1.34h-.12c-.23-.81-.35-1.23-.38-1.34h0ZM14.29,55.27h.19c.23.31,1.11,1.84,2.65,4.61-1.73-2.72-2.65-4.26-2.84-4.61h0ZM19.36,58.91c-.5-1.04-.84-2.15-1.04-3.26,1.19,2.19,2.34,4.22,3.45,6.06l-.31.19c-.81-.65-1.54-1.65-2.11-2.99h0Z"/>
    <path class="cls-4" d="M47.45,54.54h-2.42c1.23,2.61,2.53,5.57,3.95,8.87h1.57c-.73-1.42-1.38-3.03-1.96-4.8-.42-1.5-.81-2.88-1.15-4.07h0Z"/>
    <path class="cls-4" d="M43.69,55.77c-.15-.42-.31-.81-.46-1.23h-2.03c1.5,2.95,2.92,5.91,4.22,8.87h2.03c-1.34-2.3-2.57-4.84-3.76-7.64h0Z"/>
    <path class="cls-4" d="M18.28,47.97c-.5-.81-.96-1.57-1.38-2.3h-1.34c.46.34.88.92,1.23,1.65.19.38.42,1.04.77,2-1.34-1.73-2.03-2.92-2-3.57v-.08h-2.53c.19.5.34.88.46,1.23h-.08c-.35-.38-.61-.69-.81-.88-.11-.11-.23-.23-.35-.34h-1.27v1.23l2.61,5.76c-.19-.12-.54-.19-1.08-.19v1.15c.04.27.15.58.27.92h3.8c-.58-.65-1.04-1.3-1.31-1.96v-.08c.12.12.38.5.77,1.07.31.5.5.81.58.96h5.68c-1.11-1.8-2.46-3.99-4.03-6.56h0ZM17.25,51.24c-.31-.5-.5-.88-.61-1.15.42.65.65,1.04.69,1.15h-.08ZM16.21,49.43c-.69-1.15-1.15-1.92-1.34-2.26.12.19.31.46.62.81.42.61.69,1.11.81,1.46h-.08Z"/>
    <path class="cls-4" d="M11.3,60.1s0,.08-.04.08v1.15c.08.27.19.54.31.81-.46-.73-.92-1.11-1.34-1.11-.27,0-.46.08-.5.19-.04.04-.04.11-.04.31.19.46.38,1.08.65,1.88h2.03c-.08-.12-.15-.27-.23-.38.08.12.15.23.27.38h1.27v-.08s.04.04.08.08h1.34c-.23-.27-.77-.88-1.65-1.88-.88-1.04-1.46-1.54-1.65-1.54-.27,0-.46.04-.5.12h0Z"/>
    <path class="cls-4" d="M72.82,63.4h-3.72c.08.15.15.27.19.38h-.11c-.04-.12-.12-.27-.15-.38h-1.46c.15.23.31.54.5.88.42.81.69,1.38.73,1.73-.35-.42-.69-.96-1.04-1.69-.19-.34-.31-.65-.42-.92h-2c.38.92.81,1.92,1.27,2.96h6.64s-.04-.04-.04-.08h.11s0,.04.04.08h3.26c-.11-.57-.27-1.27-.46-2.07h.04c.34.81.69,1.5,1,2.07h1.19c-.04-.08-.12-.15-.15-.23-.42-.73-.69-1.23-.73-1.53v-.04c.54.69.85,1.11.96,1.27.11.19.23.35.35.54h1.8s-.04-.11-.08-.15c-.38-1.15-.61-2-.69-2.53.46.5,1.11,1.42,2,2.69h1.84c-.12-.31-.23-.69-.42-1.15-.35-.88-.58-1.5-.65-1.8h-7.9c.19.65.38,1.34.61,2.15-.27-.77-.5-1.5-.69-2.15h-1.53c.11.35.27.65.38,1l-.15-.04c-.11-.19-.27-.5-.5-.96h0Z"/>
    <path class="cls-4" d="M54.67,63.4h-1.3c.34.19.69.84,1,1.88h-.08c-.65-.96-1.04-1.57-1.19-1.88h-1.46c.58,1.23,1,2.23,1.27,2.96h1.84c-.08-.27-.12-.42-.15-.46l.23.46h1.69c-.42-.61-.88-1.34-1.42-2.23-.15-.27-.31-.5-.42-.73h0Z"/>
    <path class="cls-4" d="M57.12,63.4h-1.61c.08.12.15.27.23.42.5.96.96,1.8,1.31,2.53h1.38c-.5-1.11-.92-2.07-1.31-2.96h0Z"/>
    <path class="cls-4" d="M61.65,63.4h-1.73c.42.96.92,1.92,1.42,2.96h1.57c-.42-.69-.77-1.46-1.08-2.3-.04-.11-.08-.31-.19-.65h0Z"/>
    <path class="cls-4" d="M64.61,63.4h-2.61c.08.19.15.38.23.58.42,1,.73,1.8.92,2.38h3.19c-.61-1.04-1.19-2.03-1.73-2.96h0Z"/>
    <path class="cls-4" d="M59.81,63.4h-2.57c.54,1.11.96,2.11,1.23,2.96h2.76c-.5-1.04-1-2-1.42-2.96h0Z"/>
    <path class="cls-4" d="M58.47,66.36c.04.12.04.19.08.27-.04-.12-.08-.19-.11-.27h-1.38c.27.65.5,1.19.69,1.69-.35-.42-.73-.96-1.23-1.69h-1.69l.62,1.27h-.12c-.19-.23-.35-.5-.46-.84-.04-.15-.08-.31-.12-.42h-1.84c.11.35.23.65.27.92h-.15c-.23-.31-.46-.62-.69-.92h-2.11c.27.77.58,1.54.92,2.34,0,.42,0,.5-.04.19-.61-.81-1.23-1.65-1.8-2.53h-2.61c.27.65.5,1.27.77,1.88-.38-.65-.77-1.27-1.15-1.88h-1.88c.11.35.23.73.35,1.11-.12-.12-.31-.5-.65-1.11h-1.77c.19.54.42,1.15.69,1.88-.5-.65-.96-1.27-1.38-1.88h-3.11c.15.04.46.54.96,1.5.5.88.96,1.34,1.42,1.34.27,0,.46-.04.5-.11-.04-.08-.04-.12,0-.12v-.96c.11.15.46.58,1,1.3h1.92c-.04-.12-.08-.23-.11-.35h.08c.08.08.15.19.23.35h1.73c0-.31-.04-.65-.08-1.07.11.15.31.5.65,1.07h1.84c-.04-.54-.11-1.19-.23-1.96.42.65.88,1.3,1.46,1.96h2.26l-.08-1.5.65,1.11c.11.19.23.31.38.38h1.08c0-.12,0-.15.04-.15v-1.34c.08.12.35.61.77,1.5h2.23c-.04-.08-.04-.15-.04-.23h.08s.12.11.19.23h5.26c.11-.27.23-.54.31-.81.08.08.19.23.35.42.19.19.46.27.73.27s.46-.04.5-.11c.04-.11.08-.19.11-.27.04.15.11.31.23.5h1.61c-.12-.42-.23-.73-.35-.92h.11c.04.11.23.42.65.92h1.54v-.04c0-.19-.15-.96-.5-2.3h.08c.04.08.5.84,1.31,2.34h1.8c-.34-.96-.58-1.61-.77-1.96l.19-.12c.27.46.69,1.15,1.23,2.07h1.96c-.27-1.42-.46-2.38-.58-2.96h-6.64c.15.35.31.73.46,1.11h-.12c-.19-.38-.42-.77-.61-1.11h-3.19c.11.27.19.54.23.73-.15-.23-.31-.46-.46-.73h-1.57c.19.42.42.84.61,1.27h-.12c-.19-.42-.42-.84-.61-1.27h-2.76Z"/>
    <path class="cls-4" d="M78.39,66.36h-1.19c.96,1.88,1.73,2.84,2.23,2.84,1.11-.58,1.69-.88,1.69-.96,0-.27-.15-.92-.5-1.88h-1.8c.27.5.38.92.34,1.19-.27-.31-.5-.69-.77-1.19h0Z"/>
    <path class="cls-4" d="M76.62,66.36h-3.26c.23.81.54,1.57.96,2.3.11.27.27.46.38.65h2.11c.12-.15.15-.31.15-.42,0-.42-.11-1.27-.35-2.53h0Z"/>
    <path class="cls-4" d="M81.84,66.36c.08.08.15.15.19.27.84,1.19,1.3,1.8,1.34,1.8.46,0,.61-.08.5-.19v-1.19c-.04-.15-.08-.38-.19-.69h-1.84Z"/>
    <path class="cls-4" d="M52.33,66.36c-.65-.88-1.23-1.88-1.77-2.96h-1.57c.38.96.81,1.92,1.23,2.96h2.11Z"/>
    <path class="cls-4" d="M35.25,63.4h-1.15c.19.38.35.81.5,1.23.19.61.38,1.19.54,1.73h2c-.65-.96-1.27-1.96-1.88-2.96h0Z"/>
    <path class="cls-4" d="M32.52,63.44v-.04h-2.38s0,.08.04.12h-.12s-.04-.08-.04-.12h-1.11c.58,1.27,1.11,2.23,1.61,2.96h2.03c-.04-.27-.08-.46-.08-.61h.04c.12.19.27.42.38.61h1.23c-.12-.19-.27-.38-.38-.61-.81-1.42-1.23-2.19-1.23-2.3h0Z"/>
    <path class="cls-4" d="M39.85,63.4h-3.15s0,.08.04.12c.35.92.61,1.88.88,2.84h4.03c-.77-1.07-1.38-2.07-1.8-2.96h0ZM38.66,64.21c.42.27.77.81.96,1.61-.65-.81-.96-1.34-.96-1.61h0Z"/>
    <path class="cls-4" d="M42.58,63.4h-1.57c.19.35.38.69.58,1.11.19.35.42.96.77,1.84h1.77c-.19-.27-.38-.61-.58-1.04-.5-.96-.84-1.57-.96-1.92h0Z"/>
    <path class="cls-4" d="M44.57,63.4h-1.19c.35.81.69,1.77,1.04,2.96h1.88c-.58-1-1.15-2-1.73-2.96h0Z"/>
    <path class="cls-4" d="M47.45,63.4h-2.03c.42,1,.84,2,1.27,2.96h2.61c-.65-.96-1.27-1.92-1.84-2.96h0Z"/>
    <path class="cls-4" d="M27.92,63.4h-2.23c.46,1.19.77,2.15.96,2.96h3.11c-.31-.42-.61-.81-.88-1.23-.42-.65-.77-1.23-.96-1.73h0Z"/>
    <path class="cls-4" d="M23.58,63.4h-6.98c.35.54.69,1.15,1.11,1.8.27.42.5.81.77,1.15h6.56c-.5-.84-.96-1.84-1.46-2.96h0ZM21.35,64.21v-.11l.65.96c-.38-.35-.61-.61-.65-.84h0Z"/>
    <path class="cls-4" d="M29.76,66.36h-3.11c.11.54.19,1,.19,1.38,0,.46-.04.81-.11,1.04-.54-.58-1.11-1.38-1.69-2.42h-6.56c1.04,1.61,1.77,2.61,2.23,2.96h.69s.11-.12.15-.19c.12-.23.19-.5.19-.81,0-.27-.19-.84-.58-1.65.88,1.19,1.57,1.77,2.11,1.77.35,0,.61.23.81.65.04.08.08.15.12.23h1.07l.04-.35.35.35h2c.15-.27.23-.65.27-1.07,0,.11.27.15.84.15.08-.35.11-.84.11-1.5.11.11.38.61.88,1.42.38.5.81.81,1.23,1h1.27c.35-.19.5-.65.5-1.34,0-.23-.04-.57-.11-1.07-.04-.19-.08-.38-.08-.54h-2.03c.15.19.31.38.42.54.11,0,.27-.08.46-.27,0,.04.04.23.15.5.08.23.12.46.12.73s-.04.38-.08.38h-.19c-.57-.61-1.15-1.23-1.65-1.88h0Z"/>
    <path class="cls-4" d="M38.55,66.36h-.92c.08.31.15.61.23.92l-.08.08c-.19-.35-.42-.65-.65-1h-2c.15.69.27,1.34.31,1.96-.27-.23-.69-.88-1.3-1.96h-1.23c.73,1.23,1.38,2.23,2,2.96h1.92c-.04-.27-.12-.61-.23-1.04-.15-.58-.27-.96-.34-1.23h.08c.19.42.46.84.77,1.27.35.5.69.81.96,1h1s.04-.04.08-.08v-.42c0-.73-.19-1.53-.58-2.46h0Z"/>
    <path class="cls-4" d="M44.53,69.31c.08.12.15.27.23.46.19.31.5.46.88.46.42,0,.62-.08.58-.19.04-.19.04-.42.04-.73h-1.73Z"/>
    <path class="cls-4" d="M42.42,69.31c.04.08.11.15.19.27.61.77,1.04,1.15,1.27,1.15.46,0,.61-.04.5-.08.08-.5.08-.92-.04-1.34h-1.92Z"/>
    <path class="cls-4" d="M48.68,69.31h-1.84c.08.15.15.31.27.5.5.81.92,1.19,1.23,1.19.46,0,.58-.04.31-.08.08-.35.08-.88.04-1.61h0Z"/>
    <path class="cls-4" d="M31.68,69.47c.23,0,.42-.04.58-.15h-1.27c.23.12.46.15.69.15h0Z"/>
    <path class="cls-4" d="M39.05,69.31h-1c.19.12.35.15.46.15.46,0,.61-.04.5-.11t.04-.04h0Z"/>
    <path class="cls-4" d="M36.82,69.43v-.12h-1.92c.42.5.81.88,1.15,1.19.5-.11.77-.46.77-1.07h0Z"/>
    <path class="cls-4" d="M24.81,69.73c.46,0,.61-.04.42-.15l.04-.27h-1.07c.19.27.38.42.61.42h0Z"/>
    <path class="cls-4" d="M25.65,69.31l.19.23c.27.27.54.42.88.42s.61-.15.81-.5c.04-.04.08-.11.12-.15h-2Z"/>
    <path class="cls-4" d="M21.39,69.31h-.69c.12.12.19.15.27.15.15,0,.31-.04.42-.15h0Z"/>
    <path class="cls-4" d="M71.86,69.31s.04.12.08.15c.5.88,1,1.57,1.46,2.03.19-.04.35-.11.5-.23v-1.34c-.04-.19-.04-.42-.08-.61h-1.96Z"/>
    <path class="cls-4" d="M71.21,69.31h-1.8c.11.19.27.42.38.69.84,1.5,1.38,2.26,1.65,2.26.31,0,.5-.04.57-.15l.11-.34c-.23-.5-.54-1.27-.88-2.3-.04-.04-.04-.11-.04-.15h0Z"/>
    <path class="cls-4" d="M76.81,69.31h-2.11c.38.61.73.92,1.04.92.15,0,.38-.15.73-.5.15-.15.27-.31.35-.42h0Z"/>
    <path class="cls-4" d="M62.46,69.81c.11-.19.19-.35.27-.5h-5.26c.12.15.31.38.5.69.19.31.5.54.85.73.27-.15.46-.46.57-.96.04.04.15.19.35.42.19.19.38.31.5.31h.54c.15,0,.46.08.92.23.23-.15.5-.46.77-.92h0Z"/>
    <path class="cls-4" d="M68.52,69.31h-1.54s0,.04.04.08c.46.58.81.84,1,.84.27,0,.42-.04.46-.08-.04-.08-.04-.12,0-.12l.04-.73h0Z"/>
    <path class="cls-4" d="M66.57,69.31h-1.61c.15.35.35.73.61,1.19.5.84.84,1.27,1.04,1.27.27,0,.46-.08.58-.19.04-.12.04-.23.08-.31-.27-.38-.46-.88-.57-1.46-.04-.19-.08-.35-.12-.5h0Z"/>
    <path class="cls-4" d="M54.21,69.31h-1.08c.16.12.35.15.58.15.27,0,.46-.04.5-.15h0Z"/>
    <path class="cls-4" d="M57.24,69.31h-2.23c.08.15.15.31.27.5.65,1.11,1.19,1.69,1.65,1.69.27,0,.46-.08.57-.19l.11-.31c-.11-.31-.27-.88-.38-1.69h0Z"/>
    <path class="cls-4" d="M51.56,70.73c.27,0,.42,0,.42-.04t0-.04c.12-.23.19-.69.19-1.34h-2.26c.77.96,1.31,1.42,1.65,1.42h0Z"/>
    <path class="cls-4" d="M12.6,63.67h-.08c-.04-.11-.12-.19-.15-.27h-2.03c.19.65.38,1.38.65,2.23.65,1.73,1.5,3.07,2.53,4.11.23-.11.42-.23.54-.35-.19-.54-.58-1.42-1.19-2.61-.58-1.11-.96-1.92-1.08-2.38,2.03,3.88,3.38,5.83,4.03,5.83.12,0,.27-.08.46-.27.23-.23.35-.5.35-.77,0-.38-.31-1.15-.92-2.3h.12c.19.31.5.77.84,1.42.38.58.88,1.07,1.46,1.42.35-.23.54-.38.61-.5.12-.12.15-.31.15-.58,0-.5-.84-2.19-2.49-5.03-.04-.08-.08-.15-.12-.23h-1.15s.04.08.08.12c-.04-.04-.08-.08-.12-.12h-1.34c.12.15.38.5.73,1.07.38.65.65,1.15.81,1.46-.31-.27-.61-.73-.96-1.3-.35-.61-.54-1.04-.65-1.23h-1.27c.04.08.12.15.19.27h0ZM16.63,66.05c.35.61.5,1,.54,1.11-.19-.19-.38-.54-.61-1.04-.27-.61-.42-.92-.46-.96v-.04s.19.34.54.92h0ZM13.41,65.05l-.12-.04c-.19-.31-.34-.58-.38-.81.12,0,.31.27.5.84h0Z"/>
    <path class="cls-4" d="M85.37,45.67h-3.99c.11.27.23.54.35.81h-.15c-.15-.27-.27-.54-.38-.81h-1.5c.23.42.5,1,.81,1.73.42,1.04.73,1.88.88,2.61l-.12-.04c-.15-.46-.5-1.27-1-2.42-.34-.81-.61-1.46-.8-1.88h-9.52c.77,1.53,1.69,3.3,2.73,5.33.65,1.27,1.23,2.42,1.73,3.53h10.25c-.31-.88-.46-1.38-.5-1.57v-2.11l.27-.08c.23.61.5,1.5.77,2.65.11.42.27.77.46,1.11h1.11c-.27-1.27-.42-1.92-.46-1.96-.27-.96-.58-1.84-1-2.57.12-.04.35-.08.61-.15.19-.08.31-.23.31-.5,0-.73-.27-1.96-.84-3.68h0ZM76.66,51.16c.58.73.88,1.27.96,1.54-.19-.15-.42-.42-.61-.77-.19-.34-.31-.58-.34-.69v-.08h0Z"/>
    <path class="cls-4" d="M71.48,54.54h2c-.88-1.61-1.54-2.8-1.92-3.57-.96-1.88-1.73-3.65-2.38-5.3h-1.42c.34.92.77,1.92,1.27,3.03,1.07,2.53,1.88,4.49,2.46,5.83h0Z"/>
    <path class="cls-4" d="M73.47,54.54h-2c.54,1.31.84,2.07.88,2.34h-.04c-.42-.58-.92-1.34-1.5-2.34h-2.19c1.04,1.88,1.65,3.07,1.88,3.49.96,1.88,1.84,3.65,2.57,5.37h1.53c-.84-2.65-1.5-4.57-1.92-5.83v-.08c.42.84.88,2.15,1.42,3.88.15.54.34,1.23.58,2.03h7.9c.46-.19.88-.5,1.27-.84.35-.34.54-.61.54-.88-.04-.61-.04-1.11-.08-1.53-.04-.81,0-1.46.08-1.92h.04c.04.19.11.35.15.54.04.11.23.38.58.73l.38-.19c.08-.38.11-.65.11-.77,0-.61-.23-1.61-.69-2.96-.11-.38-.23-.73-.35-1.04h-10.25c1.11,2.42,1.96,4.49,2.53,6.18-1.42-2.49-2.57-4.53-3.45-6.18h0Z"/>
    <path class="cls-4" d="M86.75,54.54h-1.11c.23.42.5.81.84,1.11.19-.04.35-.12.46-.27-.08-.31-.15-.58-.19-.84h0Z"/>
    <path class="cls-4" d="M66.83,46.48c-.11-.27-.23-.54-.35-.81h-5.14c.35.73.65,1.57,1,2.49.54,1.42,1.3,3.57,2.3,6.37h1.04c-.08-.31-.12-.5-.15-.54v-.08s.15.23.34.61h2.27c-.38-.92-.69-1.77-.88-2.53.5.96.96,1.8,1.38,2.53h2.19c-1.11-1.92-2.42-4.61-3.99-8.06h0ZM64.88,47.82c.15.15.35.61.58,1.34h-.11c-.19-.65-.35-1.11-.46-1.34h0Z"/>
    <path class="cls-4" d="M61,48.28c-.19-.58-.46-1.46-.77-2.61h-3.95c1.73,2.57,3.41,5.53,5.07,8.87h3.11c-1.46-1.8-2.61-3.91-3.45-6.26h0Z"/>
    <path class="cls-4" d="M57.66,54.54c.19.42.27.69.27.81,0,.23-.08.42-.27.54-.19.11-.31.31-.31.54,0,1,.73,3.03,2.15,6.14.12.27.27.58.42.84h1.73c-.19-.54-.42-1.38-.77-2.57v-.08c.11.35.5,1.23,1.11,2.65h2.61c-2.07-3.61-3.65-6.37-4.72-8.33-.12-.19-.19-.35-.31-.54h-1.92Z"/>
    <path class="cls-4" d="M51.75,54.54h-3.11c.35.73.5,1.23.5,1.5,0,.19-.08.31-.27.31-.19-.04-.27.08-.27.31s.69,1.77,2.03,4.61c.38.81.73,1.5,1,2.15h1.46s-.04-.04-.04-.08c.12,0,.19.04.31.08h1.3c-.81-1.34-1.23-2.11-1.23-2.3,0-.23.04-.46.11-.69.08-.19.11-.35.08-.46v-.04c.35.65.96,1.84,1.88,3.49h1.61c-.5-1.11-.96-2.03-1.31-2.76-.04-.04-.04-.12-.08-.15.57,1.04,1.07,2.03,1.5,2.92h2.57c-1.54-3.3-2.69-6.26-3.45-8.87h-3.91c.5.92,1.15,2.07,1.96,3.49-.5-.73-.92-1.07-1.19-1.07-.42,0-.88-.77-1.42-2.3,0-.04,0-.08-.04-.12h0Z"/>
    <path class="cls-4" d="M64.65,54.61h-.15s-.04-.04-.04-.08h-3.11c.04.12.11.27.19.42.69,1.42,1.96,4.26,3.8,8.44h2c-.11-.23-.23-.42-.27-.54v-.12c.11.12.31.31.5.65h1.46c-.5-1.11-.92-1.92-1.19-2.49-.5-1.11-.77-2.07-.88-2.88.38.5.81,1.42,1.23,2.76.35,1.19.65,2.03.92,2.61h3.72c-.58-1.04-1.54-2.8-2.88-5.26-.73-1.3-1.34-2.49-1.8-3.61h-2.27c.04.12.12.19.15.31.31.61.46,1,.46,1.19,0,.42-.04.54-.08.31l-.04-.04c-.19-.35-.38-.73-.5-1.15-.08-.23-.15-.42-.19-.61h-1.04v.08h0ZM69.37,60.18v-.11c.11,0,.11.19-.08.61,0,.35.12.77.35,1.23-.35-.65-.54-1.15-.54-1.46,0-.27.04-.42.15-.38.04,0,.08.04.12.11h0Z"/>
  </g>
  <g id="Layer_4" data-name="Layer 4">
    <path class="cls-2" d="M71.17,18.61c-1.3.08-2.23.15-2.8.19-4.68,0-7.56.27-8.67.84-2.03,1.04-3.07,3.99-3.19,8.87-4.14-.11-9.1-.11-14.89,0-5.03.12-7.68.15-7.91.15-5.76-.42-10.13-.54-13.13-.35-5.3.31-8.67,1.92-10.13,4.87-.61,1.23-.96,2.76-1.04,4.57-.04.31-.04.65-.04,1.07h.96v-.58c.04-1.19.38-2.72,1.04-4.57.77-2.07,4.45-3.38,11.01-3.95,2.49-.19,7.68-.31,15.62-.31.23,0,1.38,0,3.49-.04,2.19,0,3.8.04,4.8.08l2.84.08c5.07-.19,7.68-.11,7.79.23.04.11-.04.23-.27.38-.08.12.19.19.77.19.27,0,.46-.08.54-.19,0-.04.04-.15.08-.35-1-4.18-.46-7.02,1.61-8.56,2.15-1.57,6.22-2,12.2-1.23,3.84-.38,6.83,0,9.02,1.11,2.72,1.42,4.07,4.07,4.03,7.87-.04,3.57,0,6.87.19,9.83h1.23c-.11-1.27-.23-2.8-.38-4.6,0-.12-.04-1.57-.11-4.3-.04-1.73-.15-3.11-.42-4.15-.81-3.42-3.19-5.64-7.06-6.64.57-2.65-1.04-4.45-4.84-5.41-2.19-.54-5.41-.81-9.71-.81-16.19,0-25.52-.15-27.94-.46-1.57-.19-2.53-.54-2.92-1.04-.04-.08-.23-.77-.54-2.03-.08-.69-.15-1.19-.23-1.5-.11-.5-.38-.92-.81-1.19-1.11-.69-4.03-1.04-8.83-1.07-4.91.04-8.4.12-10.48.19l-1.61.08c-.58.08-1.19.19-1.77.35-.58.19-1.04.42-1.34.65-.35.31-.73.69-1.11,1.15-.35.46-.58.77-.61.96-.11.54-.15,1.23-.11,2.11.04.5.08,1.19.11,2.11.04.96-.04,2.34-.27,4.14-.35,2.42-.5,3.8-.54,4.11-.65,7.87-1,13.39-1,16.5,0,.27,0,.54.04.84h1.04c-.04-.42-.04-.81-.04-1.15,0-1.73.31-6.14.88-13.24.58-6.79.88-10.36.88-10.63-.11-1.8-.15-3.07-.04-3.84.08-.5.5-1.15,1.27-1.92.15-.15.58-.38,1.27-.69l1.34-.35c.15-.04,2.53-.12,7.1-.23,4.26-.12,6.72-.15,7.37-.15,4.03,0,6.22.42,6.56,1.23.19.5-.08,1.38-.81,2.72-.58,2.61,6.91,3.91,22.53,3.91,14.2,0,21.91.46,23.18,1.38.31.19.38.77.23,1.65-.11.46-.04.88.15,1.3-.04-.04-.11-.04-.15-.04-1.57-.23-3.38-.31-5.45-.19h0Z"/>
    <path class="cls-2" d="M10.34,38.84h-.96c0,.92.04,2.03.08,3.38,0,1.5.15,4.07.46,7.75.27,3.34.38,5.95.31,7.79-.04,2.72-.12,5.14-.23,7.18-1.53.04-2.65-.27-3.3-.92-.42-.46-.65-1.04-.65-1.73-.65-3.57-.96-5.76-.96-6.52.34-3.57.54-5.6.54-6.06,0-1.34-.11-3.34-.38-6.03-.19-2-.31-3.61-.34-4.84h-1.04c.04,1.19.15,2.88.34,4.99.27,2.69.38,4.68.38,5.95,0,.46-.15,2.46-.5,5.95,0,.04.15,1.73.5,5.1.81,3.38,2.5,5.07,4.99,5.07h.38c0,.61.15,1.23.42,1.8.35.81.88,1.34,1.57,1.65.35.19.58.5.73.92.11.35.58.61,1.38.77,2.34.5,10.06.73,23.14.73,9.06,0,16,.04,20.84.15,4.84.08,8.75.12,11.78.12,9.17,0,14.74-3.15,16.66-9.4.61-2.03.85-4.41.69-7.14-.27-2.57-.42-4.14-.42-4.68,0-3.84-.04-6.22-.08-7.14,0-.12-.12-1.73-.35-4.84h-1.23c.04.81.12,1.61.15,2.38.27,3.72.42,6.91.42,9.56,0,2.03.04,4.84.11,8.33-.04,2.76-.42,4.87-1.15,6.37-1.73,3.65-6.68,5.45-14.81,5.45-.46,0-5.87-.23-16.27-.69-17.27.08-27.29.12-30.09.08-2.34-.04-5.14-.38-8.33-.96-1.42-.27-2.46-.69-3.19-1.34-.65-.58-.96-1.27-.96-2.07v-.15s.04-.04.08-.04c.12-.08.19-.19.19-.38,0-.27-.04-.38-.12-.42l-.12-.08c.04-1.5.12-3.76.23-6.79.04-.73-.12-3.15-.38-7.33-.27-4.38-.42-7.22-.42-8.52-.08-1.46-.11-2.57-.11-3.38h0Z"/>
  </g>
</svg>