<?xml version="1.0" encoding="UTF-8"?>
<svg id="Layer_2" data-name="Layer 2" xmlns="http://www.w3.org/2000/svg" xmlns:xlink="http://www.w3.org/1999/xlink" viewBox="0 0 93.57 93.57">
  <defs>
    <style>
      .cls-1 {
        fill: url(#linear-gradient);
      }

      .cls-1, .cls-2, .cls-3, .cls-4, .cls-5 {
        stroke-width: 0px;
      }

      .cls-3 {
        fill: #3eb8c1;
      }

      .cls-4 {
        fill: #ccc;
      }

      .cls-5 {
        fill: #999;
      }
    </style>
    <linearGradient id="linear-gradient" x1="44.44" y1="9.22" x2="44.44" y2="122.11" gradientUnits="userSpaceOnUse">
      <stop offset=".37" stop-color="#fff"/>
      <stop offset="1" stop-color="#c6c6c6"/>
    </linearGradient>
  </defs>
  <g id="Layer_1-2" data-name="Layer 1">
    <path class="cls-5" d="M49.51,5.45c-12.17,0-22.57,4.3-31.16,12.9-8.33,8.33-12.59,18.31-12.86,29.94-.04.42-.04.81-.04,1.23,0,12.17,4.3,22.57,12.9,31.16,8.6,8.6,19,12.9,31.16,12.9s22.57-4.3,31.16-12.9c8.6-8.6,12.89-19,12.89-31.16v-1.23c-.27-11.63-4.57-21.61-12.89-29.94-8.6-8.6-19-12.9-31.16-12.9h0Z"/>
  </g>
  <g id="Layer_2-2" data-name="Layer 2">
    <path class="cls-5" d="M88.89,44.44c0-12.28-4.34-22.76-13.01-31.43C67.2,4.34,56.72,0,44.44,0S21.68,4.34,13.01,13.01C4.34,21.68,0,32.16,0,44.44s4.34,22.76,13.01,31.43c8.67,8.67,19.15,13.01,31.43,13.01s22.76-4.34,31.43-13.01c8.67-8.67,13.01-19.15,13.01-31.43h0ZM75.34,13.55c8.52,8.52,12.78,18.8,12.78,30.89s-4.26,22.37-12.78,30.9c-8.52,8.52-18.81,12.78-30.89,12.78s-22.38-4.26-30.9-12.78C5.03,66.82.77,56.53.77,44.44S5.03,22.07,13.55,13.55C22.07,5.03,32.35.77,44.44.77s22.37,4.26,30.89,12.78h0Z"/>
    <path class="cls-1" d="M88.12,44.44c0-12.09-4.26-22.37-12.78-30.89C66.82,5.03,56.53.77,44.44.77S22.07,5.03,13.55,13.55C5.03,22.07.77,32.35.77,44.44s4.26,22.37,12.78,30.9c8.52,8.52,18.81,12.78,30.9,12.78s22.37-4.26,30.89-12.78c8.52-8.52,12.78-18.81,12.78-30.9h0Z"/>
  </g>
  <g id="Layer_3" data-name="Layer 3">
    <path class="cls-3" d="M49.16,9.44l-.08.04c-2.42-1.5-3.65-2.23-3.76-2.23-.31,0-.5.08-.54.19-.04.04-.04.08-.04.12t-.08-.04c-.54.23-.84.65-.96,1.23-.04.31-.08.69-.12,1.11-.15-.81-.27-1.38-.38-1.77-.19-.65-.54-1.19-1.08-1.61-.42.34-.69.92-.84,1.77-.35-.58-.69-1-.96-1.27-.38.27-.61.61-.69,1.11-.04.27-.08.65-.08,1.08h-.08c-.35-1.61-.77-2.42-1.31-2.42-.27,0-.46.04-.58.15-.15.11-.23.15-.27.15-.04.65-.08,1.5-.08,2.53h-.08c-.11-.42-.27-.81-.38-1.15-.27-.61-.58-.92-.92-.92-.61,0-.92.38-.92,1.15,0,.34.15,1.42.46,3.15h1.11c-.04-.19-.04-.42-.04-.61.04.19.12.38.15.61h1.92c-.04-.23-.04-.42-.04-.61l.08.08c.04.19.04.35.08.54h3.92c-.19-1.34-.31-2.3-.34-2.96.04.23.19,1.23.46,2.96h2.03c-.04-.19-.04-.42-.08-.61.04.19.08.38.12.61h9.71c.04-.35.04-.73.04-1.11l.08.12c.04.27.08.61.11,1h3.19c-.23-1.04-.58-1.61-1.07-1.73t-.04-.08c-.96-1.65-2-2.49-3.15-2.49-.88,0-1.5.38-1.8,1.15l-.69,1.73c-.08-.31-.12-.46-.15-.5-.04-.04-.04-.08-.04-.11-.19-.5-.34-.92-.46-1.19-.27-.61-.69-1.15-1.23-1.61-.31.19-.46.54-.46,1,0,.5.11,1,.34,1.46h0ZM53.04,10.48c-.08-.34-.19-.65-.34-.84.27-.65.61-.96,1.04-.96.15,0,.34.15.61.42-.35.08-.61.46-.77,1.11-.08.27-.15.81-.19,1.54h-.08c-.12-.5-.19-.92-.27-1.27h0ZM45.94,8.79c-.11.11-.19.27-.31.46l-.04-.08c-.11-.35-.19-.61-.23-.81.15.11.34.23.58.42h0ZM38.34,8.87v-.08c.12.88.19,1.5.15,1.92-.12-.34-.15-.96-.15-1.84h0ZM47.63,10.09c.12.08.27.15.38.27-.19.46-.27.84-.27,1.11-.04-.5-.08-.96-.12-1.38h0Z"/>
    <path class="cls-3" d="M31.89,10.59s-.08.04-.23.08c-.19.08-.27.27-.27.54,0,.19.04.42.08.61h1.38c-.11-.15-.27-.31-.42-.46-.04.04-.08.04-.11.04-.15-.35-.31-.61-.42-.81h0Z"/>
    <path class="cls-3" d="M33.7,9.86c-.42.35-.61.77-.54,1.3.04.15.08.38.11.65h1.88c-.35-.69-.81-1.34-1.46-1.96h0Z"/>
    <path class="cls-3" d="M40.84,13.13l.19.34c0,1.69.27,2.92.81,3.68h.15c.77-.73,1.08-1.96.88-3.76-.12-.58-.19-1.07-.27-1.57h-3.91c.15,1.04.35,2.03.58,2.96.38,1.46.73,2.19,1.07,2.19.46,0,.61-.08.46-.19l.04-3.65h0Z"/>
    <path class="cls-3" d="M42.72,11.82c.08.5.15,1.04.23,1.65.19,1.42.5,2.65.88,3.68h.8c.27-.65.38-1.5.38-2.49-.04-.5-.11-1.46-.27-2.84h-2.03Z"/>
    <path class="cls-3" d="M39.07,16.16c-.27-1.88-.42-3.34-.5-4.34h-1.92c.15.69.35,1.57.54,2.65h-.04c-.34-.92-.58-1.8-.61-2.65h-1.11c.08.38.15.81.23,1.27l-.11.04c-.08-.46-.19-.88-.38-1.31h-1.88c.04.23.08.5.15.81h-.08c-.12-.27-.31-.54-.5-.81h-1.38c.04.23.08.46.15.73-.11,0-.27,0-.42.04-.31.04-.5.08-.58.12.08.42.15,1.11.23,2.11.08.92.15,1.61.27,2.11v.23h7.95v-1h0ZM37.27,16.04h.08c0,.12,0,.27.04.38-.04-.15-.08-.27-.11-.38h0ZM35.39,16.31h-.11c-.19-.81-.31-1.34-.31-1.57l.42,1.57h0Z"/>
    <path class="cls-3" d="M63.63,13.66c-.27,0-.46.04-.5.15-.04.04-.08.12-.04.15l-.04.65c-.19-.69-.38-1.23-.61-1.65-.42-.73-1-1.11-1.8-1.11-.35,0-.69.15-.96.46-.04-.04-.08-.12-.12-.19-.38.42-.65.96-.84,1.54-.04.04-.04.08-.08.12-.23-.5-.42-1-.61-1.42-.04-.19-.08-.35-.12-.54h-3.19c.12,1.04.19,2.46.31,4.26.04.38.08.73.11,1.07h2c-.04-.12-.04-.27-.04-.38-.23-1.88-.35-3.22-.38-4.11t.04.04c.08.61.23,2.11.42,4.45h1.19c-.04-.96-.11-1.8-.15-2.53.11.08.19.15.27.19-.04.27-.04.58-.04.84v1.5h1.07c-.04-.84,0-1.54.04-2.03h.04c.08.5.15,1.15.23,2.03h1.15c-.19-1.34-.46-2.53-.81-3.57.19-.35.46-.54.77-.65.19.34.58,1.38,1.23,3.11-.12.27-.23.65-.27,1.11h4.95c-.08-.12-.15-.27-.19-.42-.88-2.03-1.92-3.07-3.03-3.07h0Z"/>
    <path class="cls-3" d="M68.47,20.61c0,.23.04.81.08,1.73,0,.92-.04,1.61-.08,2.07l-.04-.04c-.27-1.73-.54-3.03-.81-3.91v-.04l.08-.08c0-.73-.27-1.77-.84-3.19h-4.95c-.04.35-.08.69-.08,1.11,0,.5.15,3.03.42,7.6h-.15c-.31-1.11-.61-3.42-.92-6.91-.04-.65-.12-1.23-.19-1.8h-1.15c.11,1.42.27,3.3.38,5.72.35,3.22,1.04,4.84,2,4.84.42,0,.58,0,.38-.04.65-.65.92-1.65.84-2.96-.23-1.42-.35-2.38-.35-2.96h.08c.19,1.34.34,3.38.54,6.1h1.65c-.19-1.23-.46-2.69-.73-4.41-.35-2.19-.77-4.07-1.23-5.68.42.38.92.61,1.5.69-.15.42-.23.73-.23.84,0,1.42.19,3.07.54,4.87.31,1.46.54,2.69.69,3.69h1.31c-.23-.81-.46-1.65-.73-2.46-.54-1.73-.81-3.72-.81-5.99,0-.27.04-.46.08-.58.04-.04.08-.11.11-.15t.08.08c.65,1.65,1.23,3.95,1.73,6.91.12.81.27,1.53.38,2.19h2.61c-.77-3.42-1.15-5.83-1.15-7.25,0-.77.04-1.34.08-1.73.58,1.19,1.04,2.88,1.38,5.07.15.96.34,2.26.61,3.92h1.34c-.04-.27-.12-.58-.15-.88-.69-4.11-1.77-7.33-3.26-9.75-.38.31-.65.88-.84,1.77-.11.58-.19,1.11-.19,1.61h0ZM62.87,19.08c.15.31.23,1,.23,2.11h-.04c-.11-.65-.19-1.34-.19-2.11h0Z"/>
    <path class="cls-3" d="M52.27,17.16h-1.46c.19,1.07.46,1.61.77,1.61.27,0,.42-.04.46-.12l.08-.15c.04-.38.12-.84.15-1.34h0Z"/>
    <path class="cls-3" d="M44.17,18c.19-.23.35-.5.46-.84h-.8c.11.31.23.58.34.84h0Z"/>
    <path class="cls-3" d="M47.28,17.16c0,.23,0,.46.04.73.19,1.07.54,1.69.96,1.88v-.15l.54-.34s.11.08.15.12c.08-.46.12-1.04.12-1.73.08.19.08.69,0,1.46.04.42.19.73.46.88v-.27s.08-.04.04-.08c.04-.08.19-.11.46-.11.19,0,.34.08.46.27l-.08-2.65h-3.15Z"/>
    <path class="cls-3" d="M46.98,17.16h-1.42c.23.65.54,1.19.92,1.61.19-.04.35-.12.5-.27v-1.34h0Z"/>
    <path class="cls-3" d="M52.77,17.16c.19,1.07.46,1.61.88,1.61.46,0,.58-.08.38-.19.04-.38.11-.84.15-1.42h-1.42Z"/>
    <path class="cls-3" d="M58.37,17.16h-1.19c.04.35.04.69.08,1.07.19,2.3.61,4.18,1.23,5.64.65-1.04,1.04-2.5,1.07-4.34-.04-.88-.04-1.69-.04-2.38h-1.07c0,.65,0,1.38.04,2.26-.04-.81-.08-1.57-.12-2.26h0Z"/>
    <path class="cls-3" d="M57.15,17.16h-2c.19,1.73.54,3.11,1.04,4.18.65-1.11.96-2.53.96-4.18h0Z"/>
    <path class="cls-3" d="M54.46,30.86c-.08-.73-.19-1.34-.31-1.8-.11-.27-.19-.46-.31-.61-.19-.31-.46-.46-.73-.46s-.46.08-.58.23c-.04.08-.11.15-.19.27l-.11-.5s-.04-.08-.08-.11h-.92c-.19.27-.42.65-.65,1.15-.11-.12-.27-.35-.46-.77-.08-.15-.15-.27-.23-.38h-.84c-.19.19-.35.42-.38.69-.08.27-.15.61-.19,1.04-.23-.77-.38-1.34-.5-1.73h-1.92c-.04.08-.12.15-.15.27v-.27h-2.11c.04.15.04.34.08.54-.04-.19-.08-.38-.12-.54h-2.65c-.04.54-.04,1.04-.08,1.46.19.12.04.19-.42.19-.23,0-.42-.04-.57-.12-.15.58-.35,1.5-.54,2.76-.69-.46-1.15-.38-1.34.27-.04.19-.08.65-.08,1.38,0,.46.08,2,.27,4.61-.12-.35-.27-1.04-.38-2.11-.12-.77-.35-1.34-.69-1.69-.81.15-1.27.31-1.42.42-.08.12-.12.38-.12.88,0,.04.23.88.65,2.61h3.19l-.27-1.42v-.04c.15.58.27,1.04.34,1.46h1.38c-.27-1.38-.42-2.42-.42-3.15.27.96.42,2,.5,3.15h1.46c-.11-.65-.19-1.42-.31-2.3-.27-1.88-.46-3.22-.65-4.07v-2.34h.08c.11.42.27,1.88.46,4.34.19,1.73.54,3.07,1.04,4.07.54-.12.77-.54.73-1.3.04.04.15.42.42,1.15.08.19.15.35.23.46h1c.04-.11.08-.23.12-.34.04-.12.04-.42.04-.92-.19-1.5-.27-2.65-.27-3.42l.15.35c.04,1.8.35,3.03.88,3.76.42-.27.65-.58.73-.84.04-.11.04-.42.04-.96-.19-3.53-.27-6.18-.27-7.91.19.73.38,2.34.58,4.91.27,2.19.77,3.3,1.54,3.3.27,0,.38-.04.42-.12,0-.11,0-.15.04-.15v-5.6h.08c.38,1.38.61,2.84.69,4.41l.65.15c.42,0,.65-.12.61-.31v-4.03h.08s.19.35.46.92c.31.58.61.84.88.84.69,0,1.11-.15,1.3-.42.12-.19.15-.61.15-1.3h0ZM45.4,33.5c-.31-1.42-.46-2.96-.46-4.64v-.04c.19.88.35,2.42.5,4.68h-.04ZM43.45,33.28h.04l.11.96h-.08c-.04-.27-.08-.58-.08-.96h0ZM43.45,32.2h-.12c-.11-.5-.15-1.08-.15-1.73.19.58.27,1.15.27,1.73h0Z"/>
    <path class="cls-3" d="M63.71,27.86c0,.19,0,.34.04.54.27,2.65.65,4.72,1.19,6.29-.08-.08-.23-.34-.42-.77-.19-.38-.38-.65-.65-.84-.73.73-1.23,1.84-1.5,3.34-.08.58-.15,1.27-.23,2.11h.96c.04-.61.12-1.27.23-1.92v-.08c.08.58.15,1.27.23,2h1.5c-.04-.11-.04-.19-.04-.27v-.04c.04.12.04.19.08.31h2.96l.04-1.34c.08.39.15.85.27,1.34h5.03c-.58-2-1.07-3.91-1.54-5.72-.46-1.84-.84-3.49-1.19-4.95h-2.61c.5,2.88.81,4.6.92,5.1-.42-.11-.65-.19-.69-.19-.27-1.57-.61-3.22-1.07-4.91h-1.31c.12.69.23,1.27.27,1.73v1.92h-.12c-.19-.69-.42-1.92-.69-3.65h-1.65ZM69.43,37.8l-.31-1.5v-.08c.15.42.27.92.31,1.57h0ZM66.89,38.23c-.5-2.11-.73-3.49-.73-4.14.11-.04.23-.08.34-.15.27-.15.5-.5.69-1.07.34.5.42,1.3.23,2.46-.08.65-.23,1.61-.5,2.92h-.04Z"/>
    <path class="cls-3" d="M51.24,27.86h.92c-.12-.19-.31-.35-.58-.38-.12.08-.23.19-.34.38h0Z"/>
    <path class="cls-3" d="M49.89,27.86c-.12-.19-.23-.31-.35-.38-.19.11-.38.23-.5.38h.84Z"/>
    <path class="cls-3" d="M44.83,26.52l-.38.19c-.12-.12-.23-.23-.31-.34-.23.11-.35.38-.38.77,0,.19,0,.46.04.73h2.11c0-.35-.04-.65-.08-.88-.12-.5-.42-.77-.92-.81-.04.12-.04.23-.08.34h0Z"/>
    <path class="cls-3" d="M46.52,26.75c-.08.19-.23.58-.46,1.11h1.92c-.19-.69-.27-1.19-.23-1.54l-.61-.15c-.19,0-.42.19-.61.58h0Z"/>
    <path class="cls-3" d="M45.56,38.53h-1c.12.19.23.35.38.46.27-.12.46-.27.61-.46h0Z"/>
    <path class="cls-3" d="M61.06,38.23c-.19.04-.38.15-.5.31h.84c-.12-.11-.23-.23-.35-.31h0Z"/>
    <path class="cls-3" d="M61.41,38.53h-.84c-.15.15-.27.38-.31.65-.15.77-.27,1.23-.35,1.34-.04-.19-.04-.38-.08-.5-.08-.19-.27-.27-.54-.27-.12,0-.23,0-.31.04-.08.19-.15.34-.23.54-.04.85-.12,1.92-.27,3.26v1.92c0-.31-.12-.77-.31-1.38-.19-.73-.31-1.23-.31-1.46,0-.19.12-.5.31-.84.19-.35.31-.65.31-.88v-.15c-.08.08-.15.15-.23.23-.23-.5-.42-1-.58-1.5-.5.35-.77.69-.88,1.04-.04.15-.08.58-.08,1.23,0,.19.04.54.12,1.04.08.5.12.88.12,1.15h-.08c-.04-.12-.12-.27-.15-.38-.31.15-.5.23-.54.23v.27c-.42.12-.88.31-1.38.65-.77.5-1.15.92-1.15,1.23.31.81.58,1.53.81,2.15v1.08h6.18c-.04-.65-.08-1.31-.08-1.96v-.04c.19.65.42,1.34.61,2h2.57c-.58-4.11-.84-6.64-.84-7.52s.08-1.88.19-3.15h-.96c-.04.42-.11.92-.15,1.42l-.15-.08c-.04-.38-.12-.69-.15-.88-.04-.19-.15-.35-.27-.46h0ZM61.33,43.91l.31,2.88h-.08c-.11-.88-.19-1.84-.23-2.88h0ZM57.99,46.32c0-.23.08-.34.27-.38.15-.04.23-.12.23-.23v2.23c-.35-.96-.5-1.5-.5-1.61h0ZM54.92,46.21c.5.11.81,0,.96-.35.04-.12.08-.38.12-.88.08.04.15.08.19.11v1.11c-.08-.04-.15-.08-.23-.08-.27,0-.46.04-.5.15,0,.04,0,.08-.04.12v.96h-.12c-.27-.5-.38-.88-.38-1.15h0Z"/>
    <path class="cls-3" d="M75.26,27.86h2.53c-.38-1.42-.77-2.15-1.11-2.15-.27,0-.5.08-.65.23l-.19.19c-.5-2.53-1.15-3.8-2-3.8-.35,0-.61.61-.81,1.84-.11.81-.19,1.57-.19,2.27,0,.42.04.88.12,1.42h1.19c-.19-1-.31-1.8-.31-2.42,0-.27.04-.5.12-.69.12-.27.15-.42.15-.54.42.96.81,2.15,1.15,3.65h0Z"/>
    <path class="cls-3" d="M77.79,27.86h-2.53c.15.73.31,1.5.42,2.34.12.58.38,2.76.84,6.52h-.12c-.58-2.15-1.07-3.95-1.46-5.37-.34-1.34-.61-2.53-.81-3.49h-1.19c.11,1,.38,2.26.77,3.8.58,2.3.88,3.99.88,5.07v.15c-.27-.88-.81-3.92-1.69-9.02h-1.34c.08.5.15,1.04.23,1.61.27,1.5.88,3.68,1.84,6.64.35.96.61,1.77.81,2.42h1.34l-.04-.65v-.04c.11.15.23.38.35.69h3.42c-.19-1.73-.42-3.49-.69-5.22-.34-2.38-.69-4.18-1.04-5.45h0ZM76.91,30.01h-.23v-2.11c.15.5.23,1.23.23,2.11h0Z"/>
    <path class="cls-3" d="M68.05,38.53h-2.96c.35,1.57.73,3.69,1.11,6.33.15,1.11.38,2.53.65,4.34h1.69c-.12-1.46-.15-2.23-.19-2.34.31.5.61,1.27.92,2.34h4.53c-.04-.46-.15-.96-.27-1.54-.23-1.04-.35-1.65-.38-1.77.27.61.54,1.73.81,3.3h4.22c-.04-.27-.12-.58-.15-.84-.23-1.38-.35-2.42-.35-3.07s.08-1.38.19-2.23c.04.42.19,1.77.5,4.03.12.81.19,1.5.27,2.11h.96c.27-1.11.38-1.84.38-2.23,0-.88-.12-1.8-.38-2.8-.27-1.04-.42-1.57-.42-1.69,0-.19.12-.46.31-.77.19-.27.27-.54.27-.77-.08-.81-.15-1.61-.23-2.42h-3.42c.04.12.08.23.12.38l-.38.08-.04-.46h-1.34c.35,1.11.54,1.73.54,1.84,0,.19-.08.65-.19,1.31-.11.65-.19,1.11-.19,1.38-.42-1.57-.84-3.07-1.23-4.53h-5.03c.15.88.31,1.96.5,3.26.35,2.42.58,4.03.73,4.91-.88-2.26-1.34-3.45-1.38-3.53-.15-.5-.23-1.46-.23-2.84l.08-1.8h0ZM72.27,38.61v-.08c.42,1.15.84,2.73,1.27,4.72-.61-.77-1.04-2.3-1.27-4.64h0ZM71.04,39.49h-.11l-.15-.96s.11.31.27.96h0ZM71.54,43.64c.11-.73.15-1.15.15-1.34h.04l.54,4.99c-.04.12-.12.15-.15.08-.38-1.42-.58-2.69-.58-3.72h0ZM76.41,43.02v-.08c.19,1.23.27,2.53.19,3.91-.12-1.5-.19-2.76-.19-3.84h0ZM70.46,45.75c.12,0,.19.27.19.77h-.08l-.12-.77h0Z"/>
    <path class="cls-3" d="M65.05,38.53h-1.5c.31,2.57.69,6.1,1.11,10.59v.08h1.84c-.69-2.72-1.19-6.29-1.46-10.67h0Z"/>
    <path class="cls-3" d="M26.25,11.36c-.27,0-.42.04-.46.12-.04.04-.04.08-.04.12v2.69c.15.77.23,1.38.23,1.88-.12-.04-.54-.08-1.27-.08.11.42.19.81.23,1.07h3.3c-.15-1.15-.38-2.26-.65-3.3-.42-1.65-.84-2.49-1.34-2.49h0Z"/>
    <path class="cls-3" d="M30.05,17.16c-.04-.08-.04-.15-.08-.23-.46-1.61-.92-2.88-1.42-3.8-.35.19-.5.34-.5.54.19,1.04.27,2.23.23,3.49h1.76Z"/>
    <path class="cls-3" d="M24.91,17.69c-.04-.19-.04-.38-.08-.54h-1.23c-.04.35-.15.73-.35,1.15-.31.65-.73,1.19-1.23,1.61-.15-.19-.27-.27-.35-.27.04-.31-.04-.65-.19-1.04-.15-.42-.34-.61-.61-.61s-.46.04-.5.15c-.04.04-.04.12,0,.15-.19.88-.27,1.46-.27,1.73,0,1.11.46,3.72,1.34,7.83h2.96c-.46-2.92-.77-5.07-.96-6.41v-.04c.5,1.27.84,2.46,1.04,3.61.12.81.19,1.73.23,2.84h4.53c-.04-.23-.04-.38-.04-.46.58-.5.88-.81.88-.88-.34-3.03-.5-5.33-.5-6.91l.08.12c.31,1.69.46,2.61.5,2.8.35,1.42.81,2.11,1.34,2.11h.38c.19-1.15.27-2.96.27-5.37l.04.15c.35,1.5.77,2.8,1.23,3.95.19-.04.31-.11.38-.19.15-.5.27-.77.38-.88.46.27.88.31,1.23.12l.04-.77c0-.38-.19-1.23-.54-2.49.11.08.19.12.31.12.46,0,.61-.08.42-.19l.08-1.08c0,.19.15.58.42,1.11.34.65.69.96,1,.96.42,0,.61-.08.58-.23.04-.27.08-.61.08-1.07,0-.27-.08-.69-.19-1.27.19.5.5.77.92.77.27,0,.42-.04.46-.08-.04-.08-.04-.11,0-.11.04-.27.04-.58.08-.92h-7.95v3.61h-.11c-.42-1.54-.73-2.72-.96-3.61h-1.76c-.04.08-.04.15-.04.23v-.23h-3.3c0,.23,0,.42-.04.54h0ZM28.52,20.19c-.08-.38-.12-.84-.12-1.34v-.08c.12.58.15,1.07.12,1.42h0ZM34.08,21.72c-.12-.27-.15-.58-.15-.96v-.08c.12.11.15.27.19.5.04.23.04.42,0,.58l-.04-.04h0Z"/>
    <path class="cls-3" d="M24.83,17.16c-.08-.34-.11-.54-.15-.61-.11-.42-.38-.73-.73-.84-.27.19-.42.27-.5.27.15.38.19.77.15,1.19h1.23Z"/>
    <path class="cls-3" d="M41.87,17.23s.08-.04.12-.08h-.15s0,.04.04.08h0Z"/>
    <path class="cls-3" d="M18.81,20.76c-.15.27-.23.46-.23.58,0,.04.19,1.46.54,4.3.12.84.19,1.57.27,2.23h1.54c-.12-.58-.27-1.19-.38-1.84-.62-3.26-1-5.22-1.19-5.95-.19.11-.35.34-.54.69h0Z"/>
    <path class="cls-3" d="M17.04,19.04c-.31.38-.46.84-.46,1.34,0,.42.15,1.88.5,4.45.12,1.11.23,2.11.35,3.03h1.23c-.12-.77-.19-1.61-.27-2.5-.23-2.92-.69-5.03-1.34-6.33h0Z"/>
    <path class="cls-3" d="M14.78,24.29c-.04.08-.04.27-.04.61,0,.42.08,1.11.23,2.03-.19-.11-.38-.15-.58-.15-.19.04-.31.04-.35.04v1.04h2.38c-.23-1.5-.38-2.8-.46-3.84l-.58-.15c-.27,0-.42.04-.46.08-.04.04,0,.04.04.08-.12.11-.15.19-.19.27h0Z"/>
    <path class="cls-3" d="M18.65,27.86h-1.23c.12,1.27.15,2.34.15,3.26,0,1.23-.04,2.07-.08,2.53l-.08-.04c-.42-2.19-.69-3.8-.88-4.91-.04-.31-.08-.58-.12-.84h-2.38c-.12,4.49-.23,7.33-.38,8.6-.31-3.11-.46-4.72-.5-4.87-.19-1.42-.5-2.69-.84-3.72h-1c-.08.11-.11.23-.11.31,0,1.27.31,3.38.88,6.33.38,1.96.65,3.3.77,4.03h5.14v-.08c.58-.65.84-1.07.84-1.31,0-.27-.04-.54-.11-.81-.08-.27-.12-.5-.15-.61v-.08c.23.69.46,1.65.73,2.88h3.38c-.19-.77-.31-1.46-.42-2.03v-.27c.04.08.08.15.12.23.08.15.19.34.38.54.04.42.12.84.19,1.34v.19h2.07c-.54-1.11-1.08-2.07-1.57-2.8v-1.69l.12.08c.34,1.04,1,2.11,1.96,3.22t-.04.08c-.04.34-.04.69-.04,1.11h1.69v-.5s.04.04.04.08c.04.15.12.31.15.42h1.15c-.11-.54-.31-1.04-.57-1.53-.19-.42-.38-.77-.58-1,.08-.96.15-1.69.27-2.23.19.27.54,1.15,1.04,2.65.08.19.15.34.23.54-.12,0-.19.04-.23.08l-.08.08v1.42h5.45c.04-.27.08-.54.12-.84h.08c.11.27.27.54.38.84h1.8c-.65-1.38-1.38-2.07-2.19-2.07-.12,0-.31.11-.58.34-.27.23-.46.34-.5.38-.27-.73-.5-1.23-.69-1.53-.34-.5-.81-.77-1.3-.77-.27,0-.46.04-.5.15-.04.04-.04.12,0,.15.04.65.12,1.42.23,2.26-.12,0-.23,0-.34-.04-.15-1.04-.38-2.69-.69-4.95-.31-2.34-.5-3.88-.58-4.6h-4.53v.69l-.04,1.27c-.11-.69-.19-1.34-.27-1.96h-2.96c.23,1.04.5,2.15.77,3.41,0,.42-.04.69-.12.73-.42-1.11-.84-2.5-1.19-4.14h-1.54c.15,1.57.23,2.53.23,2.88,0,.5-.04.84-.08,1-.34-.84-.65-2.15-.88-3.87h0ZM23.18,29.59c.23.34.38.88.46,1.54h-.08c-.27-.65-.38-1.15-.38-1.54h0ZM15.01,27.86c.15.42.42,1.61.77,3.65v2.3h-.08c-.58-1.46-.81-3.46-.69-5.95h0ZM21.72,34.43c-.08.04-.15.08-.19.11-.81-1.77-1.08-2.99-.88-3.68.04.31.38,1.5,1.07,3.57h0ZM20.76,35.54v-.08c.04.19.11.46.23.77-.04.34-.08.77-.12,1.23-.15-.54-.23-.88-.23-1.04,0-.38.04-.69.12-.88h0ZM18.77,34.31l-.19-.12v-.84c.19.38.27.69.19.96h0ZM15.08,37.69h-.08v-.96c.27.42.27.77.08.96h0ZM27.1,29.02l.5,1.84c-.23-.46-.38-1.08-.5-1.8v-.04h0ZM25.75,32.78v-.08c.34,1.04.5,1.92.5,2.65v.23c-.42-.81-.61-1.42-.61-1.84.08-.5.12-.84.12-.96h0Z"/>
    <path class="cls-3" d="M11.32,27.86h1c-.11-.35-.27-.65-.38-.92-.19.12-.38.35-.54.69-.04.08-.08.15-.08.23h0Z"/>
    <path class="cls-3" d="M10.67,33.85c-.35.42-.54,1.11-.54,2.07,0,.31.08,1.19.27,2.61h1.42c-.23-.46-.35-1.04-.35-1.73-.04-1.5-.31-2.49-.81-2.96h0Z"/>
    <path class="cls-3" d="M10.13,38.53c-.04-.11-.08-.27-.12-.38-.04-.04-.31-.88-.88-2.49-.5.35-.77,1.15-.77,2.42v.46h1.77Z"/>
    <path class="cls-3" d="M11.82,38.53h-1.42c.08.58.15,1.23.27,2,0,.46-.04.58-.08.31v-.08c-.08-.65-.23-1.42-.46-2.23h-1.77c.04,2.73.35,5.33.92,7.75.12.5.42,1.46.84,2.92h2.53c-.42-1.92-.73-3.65-1-5.18h.08c.23.88.62,1.8,1.19,2.69-.12.04-.15.08-.19.12,0,.04,0,.08-.04.12,0,.65.08,1.38.23,2.26h4.14c-.84-3.68-1.27-6.68-1.3-8.94v-.04c.12.08.19.15.31.23h-.04v.38c0,1.07.65,3.87,1.96,8.37h6.87c-.12-.58-.23-1.15-.34-1.73.12.42.23.84.34,1.31.04.11.08.27.12.42h3.53c-.23-.35-.5-1.11-.77-2.23v-.04l.77,2.26h2.61v-.31c.04.08.12.19.15.31h4.18c-.11-.84-.11-1.54,0-2.11v-.04c.15.19.42.81.85,1.88.04.08.08.15.11.27h3.84c-.35-1.15-.77-1.73-1.19-1.73-.04,0-.31-.65-.73-1.92-.12-.35-.23-.62-.35-.88-.04-.27-.08-.54-.11-.81.77,2.03,1.5,3.07,2.19,3.07.46,0,.61-.08.46-.23.08-.77.27-1.57.61-2.38.31-.73.46-1.42.46-2.03.04,0,.08.08.15.27.15.19.35.27.61.27s.46-.04.5-.15c0-.12,0-.19.04-.19v-1.92c-.12-.54-.23-1.23-.34-2.04h-1.46v.08h-.08v-.08h-1.38c.12.54.19.92.19,1.15,0,.42-.04.5-.08.19v-.08l-.19-1.27h-3.19v.04-.04h-1.8c.31.77.54,1.73.73,2.92.31,2.19.5,3.49.61,3.88-.61-.27-1.11-1.19-1.5-2.84-.34-1.27-.5-2.3-.5-3.19,0-.19.04-.42.08-.77h-5.45v.12h-.04s0-.08-.04-.12h-1.15c.15.35.23.65.27.88-.12-.27-.27-.5-.46-.69.15-.04.15-.08-.04-.11t.04-.08h-1.69v.88c-.15-.31-.31-.61-.42-.88h-2.07c0,.42-.04.61-.08.65-.04-.12-.08-.19-.12-.31-.04-.12-.04-.23-.08-.35h-3.38c.11.5.23,1.08.34,1.69-.38-.81-.69-1.23-.92-1.23-.27,0-.42,0-.46.04h.08c-.04.08-.12.15-.19.23-.04.08-.08.23-.08.46-.04-.42-.08-.84-.08-1.19h-5.14c.08.38.12.61.12.65v.42l-.08-.04c-.5-.23-.84-.57-1.07-1.04h0ZM11.74,39.88c.23.46.54,1.11.96,2,.35.77.5,1.46.5,2.11l-.04.96c-.84-2.38-1.3-4.03-1.42-4.99v-.08h0ZM20.53,40.11c.08.19.15.42.23.61.65,2.03.96,3.65.84,4.84-.61-2.19-.96-4.03-1.07-5.45h0ZM41.11,39.22c.04.19.15.54.31,1.07.12.5.19.92.19,1.19v.46l-.04-.04c-.31-1-.46-1.88-.46-2.61v-.08h0ZM34.46,46.59h-.15l-.38-1.15c.31-.15.5-.23.54-.19v1.34h0ZM32.2,46.21h-.11c-.81-1.46-1.27-2.8-1.46-4.03.42.65.96,2,1.57,4.03h0ZM13.89,47.25c.04.27.12.61.23,1-.19-.35-.34-.65-.46-.84l.23-.15h0Z"/>
    <path class="cls-3" d="M41.11,27.83v.04h2.65c-.23-.81-.61-1.34-1.11-1.69t-.08.08c-.04.08-.04.15-.04.27-.04.04-.08.12-.08.15-.04.04-.08.04-.19.04-.08.19-.12.42-.15.69-.38.12-.73.23-1,.42h0Z"/>
    <path class="cls-3" d="M66.51,49.2h-1.84c.12,1.27.23,2.42.35,3.53h1.23c-.04-.15-.04-.27-.08-.38v-.04c.04.11.11.27.15.42h2.65c-.15-.69-.27-1.5-.35-2.42-.04-.42-.04-.77-.08-1.11h-1.69c.12.73.23,1.5.35,2.38-.27-.73-.5-1.5-.69-2.38h0Z"/>
    <path class="cls-3" d="M69.28,49.2s0,.12.04.15c.27.96.38,1.65.38,2.03,0,.34-.04.8-.15,1.34h2.99v-.23c.04.08.04.15.04.23h1.11c-.04-.08-.04-.15-.08-.27v-.04c.08.12.15.19.19.31h2.8c.12-.58.23-1.08.27-1.42l.04.35c.04.12.08.5.15,1.08h1.54c.12-.5.31-1.08.5-1.73.19-.69.38-1.3.5-1.8h-.96c.04.69.08,1.27.08,1.73,0,.27,0,.42-.04.46-.04.04-.08.08-.15.11h-.12c-.04-.54-.11-1.3-.23-2.3h-4.22c.12.69.27,1.5.38,2.42.04.31.12.61.15.92-.12-.23-.23-.46-.34-.65-.12-.19-.19-.38-.31-.58v-1.57c0-.19,0-.35-.04-.54h-4.53ZM72.35,50.7s-.04-.04-.04-.08l.04.04v.04h0ZM72.31,50.51h-.12c-.19-.31-.27-.58-.27-.77.04,0,.19.27.38.77h0Z"/>
    <path class="cls-3" d="M52.04,49.89v-.11c.04,1.19.12,2.15.15,2.96h3.8c-.04-.19-.04-.35-.08-.54-.08-.61-.15-1.19-.19-1.73t.08.04c.46,0,.65-.04.57-.15.04-.38.04-.69.08-.96.12.69.23,1.61.38,2.72.04.19.08.42.12.62h1.42c-.04-.19-.08-.42-.11-.69.08.12.15.27.23.42v.27h2.5c-.19-1.11-.31-2.3-.35-3.53h-6.18c.04,1.5.11,2.65.27,3.45h-.08c-.15-.73-.5-1.8-1-3.18-.04-.11-.04-.19-.08-.27h-2.07s-.04,0-.04.04c-.42,1.15-.65,1.96-.65,2.46,0,.35,0,.69.04,1.04h1.04c-.04-.35-.04-.69-.04-1.04,0-.61.08-1.23.19-1.8h0Z"/>
    <path class="cls-3" d="M63.75,49.2h-2.57c.34,1.23.61,2.42.84,3.53h2.23c-.11-.62-.19-1.23-.27-1.88-.08-.58-.15-1.15-.23-1.65h0Z"/>
    <path class="cls-3" d="M51.89,52.73h-1.04c.04,1.42.27,2.61.61,3.57h5.26c-.31-1-.54-2.19-.73-3.57h-3.8c.04,1.42.08,2.23.11,2.42-.19-.85-.35-1.65-.42-2.42h0Z"/>
    <path class="cls-3" d="M48.05,53.19s-.04.08-.04.12c0,.65-.04,1.04-.08,1.23-.73-.35-1.3-.27-1.69.23-.19.27-.31.58-.38.92-.08-.12-.15-.23-.19-.31-.12-.19-.35-.27-.61-.27s-.5.04-.69.15c-.23.12-.35.15-.38.15-.15-.38-.31-.69-.42-.96-.27-.5-.46-.81-.65-.88-.19.11-.35.23-.42.34-.19.23-.31.38-.34.42-.15-.5-.46-.77-.88-.77-.04,0-.08,0-.15.04-.04-.31-.08-.61-.12-.88h-4.41c-.04.19-.08.34-.12.46-.04-.15-.08-.31-.11-.46h-3.53c.08.19.15.38.23.58.5,1.15.92,2.15,1.3,2.99h7.06c-.04-.27-.04-.5-.08-.77.15.31.31.58.46.77h5.11c.19-.42.31-.73.42-.88.08.12.15.42.27.88h3.19c-.23-.5-.54-1-.88-1.54-.77-1.15-1.23-1.73-1.34-1.73-.27,0-.46.04-.5.15h0Z"/>
    <path class="cls-3" d="M58.37,52.73h-1.42c.19,1.5.35,2.69.46,3.57h2.07l.04-2.3c.15.19.31.38.5.58h.04c.04.08.04.15.04.27.04.5.08,1,.12,1.46h1.5c-.31-1.11-.54-2.3-.73-3.57h-2.5v.69c-.04-.19-.08-.42-.12-.69h0Z"/>
    <path class="cls-3" d="M73.69,52.73h-1.11c.04.19.11.42.15.69-.04-.04-.12-.04-.15-.08-.04-.23-.04-.42-.04-.61h-2.99c-.04.31-.12.65-.23,1.04h-.08c-.12-.31-.19-.65-.27-1.04h-2.65c.31.88.65,2.07,1.04,3.57h5.41c-.04-.19-.04-.35-.04-.54v-.19c.11.19.27.46.46.73h2.8s-.04-.04-.04-.08c0-.42.04-.88.11-1.38.19-.81.38-1.53.54-2.11h-2.8c.12.27.19.54.19.84-.08-.12-.19-.38-.31-.84h0Z"/>
    <path class="cls-3" d="M66.24,52.73h-1.23c.12,1.27.27,2.46.38,3.57h1.23c-.19-1.73-.35-2.92-.38-3.57h0Z"/>
    <path class="cls-3" d="M78.6,52.73h-1.54c0,.19,0,.42.04.69.04.69.23,1.15.58,1.42l.46-.19c.04-.19.19-.84.46-1.92h0Z"/>
    <path class="cls-3" d="M64.25,52.73h-2.23c.27,1.27.42,2.46.5,3.57h2.27c-.19-1.08-.35-2.26-.54-3.57h0Z"/>
    <path class="cls-3" d="M28.52,49.2h-3.53c.23.96.54,2.11.92,3.53h5.95c-.5-1.57-.77-2.53-.77-2.88l.04-.65h-2.61Z"/>
    <path class="cls-3" d="M40.26,49.2h-3.84c.38,1.04.58,1.77.58,2.19,0,.23-.08.54-.27.92-.04.15-.12.31-.15.42h4.41c-.19-1.5-.46-2.69-.73-3.53h0Z"/>
    <path class="cls-3" d="M35.46,49.2h-4.18c.35.73.85,1.88,1.54,3.53h3.53c-.42-1.61-.69-2.5-.73-2.69-.04-.31-.11-.58-.15-.84h0Z"/>
    <path class="cls-3" d="M12.67,49.2h-2.53c.12.42.23.88.38,1.38-.04-.04-.08-.04-.12-.08-.42.61-.65,1.34-.73,2.23h3.76c-.27-1.27-.54-2.42-.77-3.53h0Z"/>
    <path class="cls-3" d="M18,49.2c.04.19.11.42.15.61.04.88.12,1.88.15,2.92h2.07c-.04-.12-.08-.27-.12-.38-.23-.73-.35-1.27-.38-1.54.15.19.42.61.81,1.34.12.19.19.38.31.58h4.8c-.23-.77-.5-1.65-.77-2.61-.04-.31-.12-.62-.15-.92h-6.87ZM23.34,51.5s.04.12.08.19h-.04s-.04-.12-.04-.19h0Z"/>
    <path class="cls-3" d="M17.08,49.2h-4.14c.19,1.04.5,2.19.92,3.53h4.15c-.35-1.27-.65-2.42-.92-3.53h0Z"/>
    <path class="cls-3" d="M13.86,52.73c.04.15.12.31.15.5.42,1.19.73,2.19,1,3.07h12.9c-.04-.15-.08-.27-.12-.38v-.04c.04.12.08.23.19.42h1.92c-.04-.12-.04-.23-.04-.27,0-.34,0-.58.04-.69.19.12.38.46.54.96h2.73c-.27-.65-.54-1.42-.88-2.34-.15-.42-.31-.84-.42-1.23h-5.95c.19.77.38,1.61.61,2.53h-.12c-.12-.65-.35-1.5-.61-2.53h-4.8c.19.42.27.65.27.77,0,.46-.08.61-.19.42h-.38c-.04-.19-.11-.61-.31-1.19h-2.07c.04.46.04.96.08,1.46-.12-.5-.27-.96-.38-1.46h-4.15ZM29.09,52.93v-.08l.69,1.15-.31.27h-.19c-.11-.58-.19-1-.19-1.34h0Z"/>
    <path class="cls-3" d="M9.67,52.73c-.04.19-.04.38-.04.58,0,.34.19,1.34.61,2.99h2.26c-.11-.23-.19-.46-.27-.65.15.19.31.38.46.65h2.15c-.19-.58-.42-1.08-.61-1.5-.19-.42-.38-.81-.58-1.15t-.04-.08c-.08-.27-.15-.58-.19-.84h-3.76Z"/>
    <path class="cls-3" d="M42.91,56.65c-.04-.19.08-.27.27-.27.61,0,1.19.19,1.69.54.54.35.96.5,1.23.5.42,0,.58-.04.38-.08.15-.42.31-.77.42-1.04h-5.11c.27.38.54.57.85.57.23,0,.31-.08.27-.23h0Z"/>
    <path class="cls-3" d="M29.9,56.3h-1.92c.12.34.27.81.54,1.46.31.88.46,1.57.5,2.11h5.95v-.11s.12.08.15.11h2.07c-.04-.11-.08-.27-.11-.42-.15-.57-.23-.92-.27-.96v-.08c.15.19.34.65.58,1.46h3.8v-.11s.08-.04.19-.15c.04-.04.12-.08.23-.11-.04-1.08-.11-2.15-.19-3.19h-7.06c.35.73.61,1.38.88,1.92-.38-.04-.77.04-1.19.15-.23-.38-.54-1.07-.88-2.07h-2.73c.04.23.12.5.15.84.12.58.23,1.38.35,2.49l-.19.08c-.12-.27-.27-.88-.5-1.77-.19-.77-.31-1.3-.34-1.65h0Z"/>
    <path class="cls-3" d="M14.85,56.3h-2.15c.31.57.58,1.38.81,2.38-.38-.81-.73-1.61-1-2.38h-2.26c.04.23.11.46.15.69.27,1.19.54,2.15.81,2.88h1.23l-.04-.84c.11.27.27.54.42.84h2.23c-.15-.73-.31-1.38-.42-2,.19.58.38,1.23.61,2h13.62c-.42-1.61-.77-2.8-.96-3.57h-12.9c.46,1.5.73,2.49.84,3.07-.35-1.19-.65-2.19-1-3.07h0ZM24.6,57.72s0,.04.04.08c.38.88.61,1.5.65,1.84-.61-.19-1-.69-1.11-1.5-.04-.61-.08-1.08-.12-1.42.19.34.35.69.54,1h0Z"/>
    <path class="cls-3" d="M66.63,56.3h-1.23c.08.73.15,1.46.23,2.11-.19-.19-.35-.35-.54-.38-.12-.54-.19-1.11-.31-1.73h-2.27c.04.57.08,1.15.08,1.69,0,.46-.04.73-.08.81v-.04c-.31-.77-.57-1.57-.81-2.46h-1.5c.04.77.08,1.5.08,2.19,0,.65,0,1.11-.04,1.38h6.72c-.08-.69-.15-1.5-.23-2.42-.04-.42-.08-.81-.12-1.15h0Z"/>
    <path class="cls-3" d="M72.77,56.3h-5.41c.27,1.04.54,2.23.84,3.57h5.33c-.23-.65-.42-1.23-.61-1.76-.04-.54-.12-1.15-.15-1.8h0Z"/>
    <path class="cls-3" d="M73.96,57.57c.15.27.31.5.46.73-.15.46-.35,1-.54,1.57h1.11c.04-.19.04-.34.08-.54h.08c0,.19,0,.38.04.54h1.73v-.15c-.27-1.19-.58-2.3-.92-3.42h-2.8c.23.34.5.77.77,1.27h0Z"/>
    <path class="cls-3" d="M59.45,56.76l.04-.46h-2.07c.04.65.08,1.11.08,1.42,0,.46-.04.54-.08.23-.27-.46-.5-1-.69-1.65h-5.26c.04.11.08.19.12.31v1.5h-.23c-.04-.54-.23-1.15-.58-1.8h-3.19v.15c.04.27.31.42.81.42.27,0,.46-.04.54-.11.08-.08.12-.12.15-.12.04.19.23.84.54,1.92.23-.23.38-.35.42-.35.77,0,1.3.54,1.57,1.65h2.3c-.15-.92-.23-1.8-.27-2.65v-.08c.31.92.58,1.84.84,2.72h5.72v-.04l-.77-3.07h0Z"/>
    <path class="cls-3" d="M73.61,60.49v-.35c-.04-.12-.04-.19-.08-.27h-5.33c.04.27.12.58.19.84.04.12.04.27.08.38v.27c0,.42.04.73.08.88h-.84c-.23-.58-.46-1.04-.65-1.46-.04-.27-.04-.58-.08-.92h-6.72s-.04,0-.04.04v-.04h-5.72c.35,1.19.65,2.38.88,3.57h1.11c-.04-.12-.04-.23-.04-.34.04.08.08.19.12.34h2.53c0-.23,0-.42.04-.61.08.19.15.42.23.61h13.74c-.12-.23-.23-.5-.38-.81t-.04-.08c0-.35-.04-.65-.11-1,.11.08.23.23.38.46.11.15.23.23.38.23.73,0,1.31-.8,1.65-2.38h-1.11c-.11.19-.19.38-.27.62h0ZM65.97,61.25c.04.12.04.27.08.42-.27-.58-.42-.92-.46-1.04v-.11c.11.23.27.46.38.73h0Z"/>
    <path class="cls-3" d="M51.62,59.87c.04.19.08.38.11.62.04.27.08.73.12,1.3.08.46.19,1,.35,1.65h2.38c-.04-.12-.04-.23-.08-.34-.27-1.11-.46-2.19-.58-3.22h-2.3Z"/>
    <path class="cls-3" d="M51.16,63.44c-.12-.12-.19-.23-.27-.34.04.11.04.23.08.34h.19Z"/>
    <path class="cls-3" d="M51.16,63.44h-.19c.19.81.46,1.69.73,2.65.08.31.15.61.27.88h3.61c-.38-1.11-.73-2.26-1-3.53h-2.38c.11.65.31,1.38.5,2.23-.31-.38-.54-1.11-.73-2.23h-.27l-.35.15c-.08-.04-.15-.12-.19-.15h0Z"/>
    <path class="cls-3" d="M51.85,63.33l-.15.12h.27s-.04-.12-.04-.15c-.04-.23-.04-.46-.08-.65v.69h0Z"/>
    <path class="cls-3" d="M59.07,63.75c0-.12,0-.19.04-.31h-2.53c.19.65.5,1.8.92,3.53h8.44v-.54h.08c.04.12.12.31.23.54h1.11c-.04-.11-.12-.23-.15-.35.08.12.15.23.19.35h1.8c-.35-1.3-.65-2.42-.92-3.38.27.12.58.46,1,1.04.23,1.15.34,1.84.34,2.04v.31h1.88c.19-.31.38-.69.57-1.11.27.34.42.5.5.5.46,0,.61-.12.5-.31-.11-.19-.04-.5.19-.84.23-.42.35-.61.35-.65,0-.08-.15-.46-.5-1.11h-13.74c.19.58.38,1.19.61,1.84l-.08-.08c-.15-.42-.31-.77-.42-1-.12-.19-.27-.35-.42-.46h0ZM67.05,64.02c.04-.08.08-.15.12-.19.11.31.19.61.31.88l-.08.04c-.12-.27-.23-.5-.35-.73h0ZM63.06,63.59v-.12c.5.19.88.84,1.11,2.03.04.11.04.27.08.38-.35-.54-.73-1.15-1.11-1.8-.04-.19-.08-.35-.08-.5h0Z"/>
    <path class="cls-3" d="M56.5,63.44h-1.11c.23,1.19.42,2.34.58,3.53h1.08c-.27-1.61-.42-2.8-.54-3.53h0Z"/>
    <path class="cls-3" d="M29.01,60.02c0,.42-.04.5-.08.19v-.08c-.04-.12-.04-.19-.08-.27h-13.62c.27,1,.61,2.19.96,3.57h10.98c-.04-.12-.08-.27-.12-.38.04.12.08.27.12.38h3.57c-.04-.19-.08-.31-.08-.38.04,0,.08.12.19.38h7.98c-.19-.27-.31-.42-.34-.46.38,0,.65-.08.81-.19l.38.54s.04.08.08.12h.84c-.04-.58-.15-1.3-.27-2.19.35-.15.61-.27.81-.38-.04-.23-.04-.42-.04-.54s.04-.27.08-.46h-3.8c.04.23.12.5.19.81l-.04-.04c-.15-.19-.27-.46-.35-.77h-2.07c.23.19.42.54.58,1.11.08.35.15.69.23,1.07-.35-.46-.61-.81-.77-1.07-.27-.42-.35-.81-.19-1.11h-5.95v.15h0ZM22.22,61.25v-.08c.27.77.46,1.5.58,2.15-.38-.92-.58-1.61-.58-2.07h0ZM20.72,62.37c.04.15.04.31.04.42-.27-.46-.54-.96-.73-1.46.15.27.38.61.69,1.04h0ZM18.65,62.4h.04v.04l-.04-.04h0ZM18.23,62.52h.5c.15.31.23.54.27.65l-.15.04c-.27-.11-.46-.35-.61-.69h0Z"/>
    <path class="cls-3" d="M15.05,59.87h-2.23c.58,1.04,1.23,2.23,2.03,3.57h1.04c-.04-.12-.12-.19-.15-.27,0-.04,0-.08.04-.12-.27-1.15-.54-2.23-.73-3.19h0Z"/>
    <path class="cls-3" d="M15.89,63.44h-1.04c.65,1.08,1.34,2.26,2.15,3.53h9.59c-.31-1.34-.58-2.38-.77-3.03v-.08c.23.58.58,1.61,1.04,3.11h1.3c-.42-1.34-.77-2.53-1-3.53h-10.98c.04.23.11.46.15.69h-.12c-.11-.27-.23-.5-.34-.69h0Z"/>
    <path class="cls-3" d="M30.86,63.44c.04.08.12.19.15.35h-.15c-.04-.11-.08-.23-.12-.35h-3.57c.42,1.19.8,2.38,1.23,3.53h8.83c-.15-.42-.31-.84-.46-1.3.35-.12.58-.23.77-.38,0,.34.12.92.31,1.69h4.61c-.27-.46-.62-.96-1-1.54-.57-.88-.84-1.34-.84-1.46v-.54h-.84c.23.27.42.46.58.61-.19.04-.38.19-.58.38-.15-.12-.38-.34-.69-.73-.08-.12-.15-.19-.23-.27h-7.98ZM38.53,64.75v-.04c.5.88.77,1.5.77,1.84,0,.42,0,.54-.04.27-.15-.27-.38-.96-.73-2.07h0Z"/>
    <path class="cls-3" d="M35.27,67.36v-.12c.34.73.77,1.65,1.23,2.84.04.15.12.31.19.46h5.95c-.12-.54-.23-1-.27-1.38v-.04s.19.5.61,1.42h6.29c-.12-.42-.19-.92-.19-1.57.19.12.35.5.46,1.11l.12.46h5.18l-.19-1.11c.12.35.23.73.35,1.11h2.57c-.12-.73-.23-1.57-.38-2.46-.04-.38-.12-.77-.15-1.11h-1.08c.04.5.08.96.12,1.46-.19-.46-.35-.96-.5-1.46h-3.61c.12.54.27,1.04.42,1.54-.27-.65-.5-1.19-.77-1.54h-3.15c-.31,1.5-.81,2.23-1.5,2.26-.38-.73-.92-1.46-1.65-2.26h-1.31c-.11.04-.19.12-.31.15-.04.19-.04.38-.08.5-.08.27-.23.46-.42.65-.19-.35-.46-.81-.77-1.31h-4.6c.04.27.11.61.23.96.38,1.34.57,2.19.61,2.57l-.08-.04c-.31-.54-.77-1.69-1.38-3.49h-8.83c.42,1.23.88,2.42,1.34,3.57h6.37c-.04-.08-.08-.15-.12-.23-.38-1.08-.61-2.07-.73-2.96h0ZM42.37,68.97h-.19c-.04-.12-.08-.27-.12-.42.12.19.19.35.31.42h0Z"/>
    <path class="cls-3" d="M28.17,66.97h-1.3c.31,1,.65,2.19,1.07,3.57h1.3c-.04-.12-.08-.27-.11-.38-.35-1.15-.69-2.23-.96-3.19h0Z"/>
    <path class="cls-3" d="M26.75,67.78c-.04-.27-.12-.54-.15-.81h-9.59c.69,1.11,1.46,2.3,2.26,3.57h1.27c-.15-.27-.27-.54-.38-.88-.15-.5-.27-.81-.35-.96v-.12c.08.04.23.38.5,1.04.15.38.27.69.35.92h6.95c-.31-.81-.58-1.73-.84-2.76h0Z"/>
    <path class="cls-3" d="M67.59,67.47c-.12-.15-.19-.31-.23-.5h-1.11c.12.42.31,1,.54,1.73-.31-.19-.61-.46-.96-.81.04-.35.08-.65.12-.92h-8.44v.04c.38,1.65.61,2.8.73,3.53h1.04c-.15-1.5-.23-2.65-.23-3.45.08.11.23.42.42.88h-.04s-.04.04-.08.04l-.04,1.23c0,.19.04.58.15,1.11,0,.08,0,.15.04.19h7.45c0-.27,0-.38-.04-.38-.08-.04-.11-.04-.15-.08.23-.04.42-.12.58-.19.19.27.38.46.65.65h2.11c.12-1.04.31-1.92.5-2.73.35-.19.65-.46.92-.84h-1.88c-.04.31-.08.65-.15,1-.11-.35-.19-.65-.27-1h-1.8c.46.81,1,1.69,1.57,2.65-.34-.34-.69-.81-1.04-1.46-.12-.19-.23-.42-.34-.69h0ZM63.86,69.47s.04.11.08.15c-.12.08-.19.12-.31.15-.31-.12-.58-.12-.77-.08v-.73c.31.19.65.34,1,.5h0ZM61.83,68.39v.35c0,.77-.04,1.27-.08,1.46-.57-1.11-1.04-2.03-1.42-2.84.42.35.92.69,1.5,1.04h0Z"/>
    <path class="cls-3" d="M49.09,66.09c-.27,0-.42.04-.46.12-.04.04-.04.08-.04.15-.04.19-.08.42-.12.61h3.15c-.27-.42-.54-.61-.81-.61-.19,0-.34.08-.38.27-.04.15-.15.23-.38.23-.04,0-.15-.12-.34-.38-.19-.27-.38-.38-.61-.38h0Z"/>
    <path class="cls-3" d="M44.02,66.97h1.31s-.04,0-.04-.04c-.38-.42-.65-.69-.84-.88-.04.19-.04.31-.08.38-.04.23-.15.42-.35.54h0Z"/>
    <path class="cls-3" d="M12.44,59.87h-1.23c.27.77.5,1.3.73,1.61.19-.04.35-.12.5-.23v-1.38h0Z"/>
    <path class="cls-3" d="M20.65,70.77c-.04-.08-.08-.15-.11-.23h-1.27c.42.65.84,1.3,1.27,1.96.23,0,.34-.08.31-.23,0-.19.12-.27.31-.27.27,0,.5.04.69.08.12.04.15.08.19.04.12.38.35,1.19.61,2.38.35,1.04.69,1.57,1.07,1.57.42,0,.54-.04.31-.12.31-.42.46-.84.46-1.27.19-.15.35-.35.5-.58.35-.42.5-.88.5-1.34.04.15.23.88.54,2.19.42,1.27,1,1.88,1.77,1.88.42,0,.54-.04.35-.08.04-.08.23-.38.61-.96.38-.54.58-.88.58-1,0-.27-.12-.61-.31-1.11-.19-.54-.31-.92-.34-1.11.15.31.5,1.19,1,2.69.38,1.19.77,2.07,1.19,2.61.23-.08.42-.19.54-.31-.35-1.23-1.07-3.57-2.15-7.02h-1.3c.12.42.27.84.38,1.3l-.15-.04c-.19-.38-.38-.81-.58-1.27h-6.95c.04.12.08.23.12.31l-.12-.08h0Z"/>
    <path class="cls-3" d="M62.9,70.69c.04.08.15.27.34.54.19.31.42.58.61.77.23-.12.42-.23.54-.34l.04-.69c.04.08.19.27.54.61.31.35.54.54.69.65.08-.12.35-.39.81-.81.31-.27.46-.57.46-.84v-.04h-7.45c.08.42.12.73.08.92h-.27v-.38c-.04-.19-.04-.35-.04-.54h-1.04c.04.27.04.46.04.61v.38c-.23.04-.42.08-.54.12v.08c-.04-.35-.11-.77-.15-1.19h-2.57c.23.73.54,1.54.92,2.42.08.19.15.38.27.54l-.04.65c-.27-.08-.54-.19-.77-.38l-.54-3.22h-5.18l.15.84c-.27-.11-.42-.42-.54-.84h-6.29c.15.38.35.84.58,1.38.65,1.54.96,2.46.96,2.76,0,.42-.12.81-.35,1.15-.46-1.5-.81-2.65-1.04-3.42-.19-.69-.38-1.3-.5-1.88h-5.95c.42,1.19.73,2.11.84,2.8-.54-.81-1-1.73-1.42-2.8h-6.37c.19.54.42,1.07.61,1.57.61,1.54,1.19,2.8,1.69,3.76h2.96c-.5-1.38-.77-2.27-.81-2.61l.12.11c.27.65.58,1.5,1,2.5h5.18c-.12-.08-.27-.19-.46-.31-.42-.27-.65-.38-.73-.42.19-.04.38-.12.58-.15.12-.04.19-.23.19-.5s-.12-.61-.31-1.08c-.23-.5-.34-.84-.34-1.04v-.08c.81,1.8,1.27,2.99,1.38,3.57h7.22c-.15-.38-.42-1.23-.81-2.5.23.35.77,1.15,1.65,2.42t.04.08h6.37v-.19c.04-.08.11-.15.15-.19v-.42c.11.04.23.15.38.27.27.15.54.23.81.23.42,0,.61-.04.54-.11,0-.12,0-.19.04-.31.12.12.19.15.31.15.31,0,.58-.08.81-.27.12.04.23.04.35.04.61,0,1.15-.23,1.57-.73.35-.5.54-.81.58-.88.81.46,1.42.5,1.84.08.31-.31.46-.73.46-1.27-.11-.69-.19-1.23-.19-1.57h0ZM49.55,74.53h-.08c-.27-.38-.46-.96-.61-1.73.19.27.42.85.69,1.73h0Z"/>
    <path class="cls-3" d="M48.05,75.99s0-.08-.04-.11h-5.64c.54.77,1.11,1.73,1.69,2.88,0,.31-.04.54-.12.65,0,.04-.08.11-.23.31-.08-.04-.27-.27-.54-.65-.27-.35-.42-.58-.42-.61,0-.58-.11-1.42-.38-2.5v-.08h-1.57c.04.08.04.15.04.19-.04-.04-.15-.08-.34-.19h-5.18c.11.35.27.69.42,1.07.46,1.23.81,2.34,1.04,3.34l.65.15c.15,0,.38-.15.65-.42.31-.34.46-.73.46-1.11,0-.23-.08-.65-.23-1.23-.12-.65-.19-1.08-.23-1.34l.08.15c.23.46.54,1.15.88,2.03.34.77.8,1.42,1.3,1.92.27-.15.46-.35.5-.54-.23-1.04-.54-2-.88-2.88,1.07,1.54,1.65,2.38,1.77,2.49.5.65,1.19,1.19,2,1.69.58-.27.96-.77,1.19-1.5.15-.77.27-1.27.31-1.54h.04s.19.31.5.88c.35.58.69.84,1,.84.27,0,.42-.04.46-.08-.04-.08-.04-.12,0-.12l.04-.84c0-.19-.04-.54-.12-.96-.08-.35-.11-.61-.08-.81.27.5.61,1.27,1.04,2.23.42.73,1.04,1.11,1.8,1.11.27,0,.46,0,.5-.04,0-.04,0-.08.04-.11.12-.19.15-.65.15-1.38,0-.38-.08-1.19-.27-2.38.08.08.35.42.81,1,.31.42.61.61.88.61.42,0,.57-.04.42-.15l.58-1.23c.11.08.38.38.73.92.27.46.58.69.92.69.27,0,.42-.04.5-.12.08-.08.12-.12.15-.12.04-.42.04-1,0-1.69-.04-.23-.04-.42-.04-.58h-6.37c.65,1.19.88,2.11.65,2.69h-.11c-.58-.77-1.04-1.61-1.38-2.57h0Z"/>
    <path class="cls-3" d="M35.27,76.72c-.12-.31-.19-.58-.27-.84h-2.96c.81,1.65,1.46,2.49,1.88,2.49s.77.38,1,1.11c.27.81.54,1.31.81,1.46.27-.08.42-.19.46-.38l.04-.31c0-.58-.31-1.73-.96-3.53h0Z"/>
    <path class="cls-3" d="M76.41,60.22c.23-.04.38-.08.42-.19.04,0,.04-.04.08-.15h-1.73c0,.19,0,.31.04.42.12.46.35.69.73.69.27,0,.38-.04.42-.12,0-.12,0-.15.04-.15v-.5h0Z"/>
    <path class="cls-3" d="M52.62,46.4c-.31.19-.46.27-.5.27,0,.58-.19,1.42-.61,2.53h2.07c-.5-1.34-.81-2.26-.96-2.8h0Z"/>
    <path class="cls-3" d="M70.04,70.66s0-.08.04-.12h-2.11c.35.27.77.42,1.27.42.46,0,.73-.11.81-.31h0Z"/>
    <path class="cls-4" d="M48.97,19.38s-.12-.08-.15-.12l-.54.34v.15c-.04.27-.08.54-.15.84-.04.19-.11.38-.19.65-.08-.19-.15-.27-.19-.27.12-.5.04-.92-.15-1.34-.19-.42-.5-.69-.84-.88-.42.31-.61.77-.61,1.38,0,.35,0,.77.04,1.27h-.15c-.08-.65-.15-1.15-.19-1.5-.12-.58-.35-.96-.62-1.15l-.54.31c-.15.77-.31,1.92-.5,3.45h-.08c-.08-.77-.19-1.46-.35-2.03-.27-1.15-.61-1.73-1.11-1.73-.27,0-.42.04-.46.12,0,.04,0,.08-.04.11-.04.88-.12,2.15-.31,3.76v-.08c-.08-.19-.23-.92-.42-2.15-.19-.96-.46-1.61-.81-2.03-.42.31-.61,1-.61,2.07-.04.54,0,1.31.04,2.26-.04-.34-.08-.65-.12-.92-.12-.58-.38-.84-.84-.84-.27,0-.42.04-.46.11l-.08.08v3.26h4.26c.08-.92.12-1.65.12-2.19.15.5.31,1.23.5,2.19h1.73c.04-.58.08-1.04.08-1.42.04.08.04.54.08,1.42h1.5c.04-.77.08-1.42.19-1.92.19.73.31,1.34.38,1.92h1.54c.04-.42.12-.73.19-.96.04.08.12.38.19.96h2.26c0-.35,0-.65.04-.84h.08c.12.15.19.42.19.84h1.04v-.31h.12c.04.08.08.19.11.31h4.95c-.12-.42-.19-.69-.19-.77.04-.38.08-.61.08-.73-.31-.12-.57-.15-.84-.15s-.5.04-.65.12l-.27.08-.04,1.19c-.04-.19-.15-1.15-.27-2.8-.73-.19-1.11-.31-1.11-.35-.04-.12-.12-.19-.31-.31-.42.35-.61.81-.58,1.42.04.65,0,1.04-.04,1.08-.27-.81-.73-1.5-1.42-2.15-.54-.54-.88-.81-1.08-.81-.27,0-.42.04-.46.08-.04.04-.04.12-.08.19-.08-.34-.19-.61-.31-.81-.12-.19-.27-.27-.46-.27-.27,0-.42.04-.46.11.04.04,0,.08-.04.08v.27c-.04.12-.04.19-.08.23-.12-.34-.31-.61-.5-.84h0Z"/>
    <path class="cls-4" d="M36,22.87c-.31.15-.5.23-.54.23v1.42h.92c-.11-.69-.23-1.23-.38-1.65h0Z"/>
    <path class="cls-4" d="M37.54,21.34c-.27,0-.42.04-.46.12-.04.04-.04.15-.08.27v2.8h1.5c.04-.77.04-1.38,0-1.84-.04-.88-.35-1.34-.96-1.34h0Z"/>
    <path class="cls-4" d="M45.13,24.52h-1.73c0,.08,0,.15.04.23.15.65.38,1.19.69,1.61.08.11.19.23.31.34l.38-.19c.04-.11.04-.23.08-.34.11-.61.19-1.15.23-1.65h0Z"/>
    <path class="cls-4" d="M45.29,24.52v.08c.04.54.35,1,.92,1.38.23-.11.42-.27.54-.38,0-.38,0-.73.04-1.07h-1.5Z"/>
    <path class="cls-4" d="M41.11,25.1c.15.23.23.34.27.34v1.11l.65.15h.23c.11,0,.15,0,.19-.04,0-.04.04-.12.08-.15,0-.11,0-.19.04-.27.08-.65.15-1.23.23-1.73h-5.79v5.87c-.11-.54-.23-1.8-.38-3.76-.04-.81-.12-1.54-.23-2.11h-.92c0,2.65-.04,4.61-.08,5.87h-.11c-.15-1.46-.27-2.53-.35-3.22-.12-1.04-.35-1.92-.73-2.65h-.54c-.46.73-.92,1.65-1.38,2.8-.57,1.5-1.07,2.57-1.42,3.15v.08h7.18c.04-.65.04-1.38.04-2.26h.04c.08.27.15.77.23,1.54.04.27.12.5.19.73h.96c.04-.84.08-1.92.08-3.22h.12c.04.27.04.73-.04,1.38.04.35.15.58.39.69.15.08.34.12.57.12.46,0,.61-.08.42-.19.04-.42.04-.92.08-1.5v-2.72h0ZM33.16,26.83l.19-.77v-.08c.08,1.04,0,2-.19,2.88v-2.03h0Z"/>
    <path class="cls-4" d="M33.66,24.52h.54c-.11-.12-.19-.27-.27-.38-.08.12-.15.27-.27.38h0Z"/>
    <path class="cls-4" d="M58.61,26.64c-.27-.92-.42-1.61-.54-2.11h-4.95c.12.46.27,1.27.38,2.38.08.58.19,1.11.35,1.54.12.15.19.34.31.61.08.19.19.34.31.46.11-.04.27-.12.46-.27v-1.27c.35.96.69,1.84,1.04,2.57h1.27v-2.49h.08c.12.46.23,1.07.35,1.88-.04.19-.12.38-.15.61h3.07c-.15-.58-.35-1.11-.58-1.65-.38-.96-.77-1.34-1.15-1.19-.08-.35-.15-.69-.23-1.07h0Z"/>
    <path class="cls-4" d="M51.5,25.14c0-.23,0-.42.04-.61h-2.26c.04.15.04.35.08.54.08.58.31.92.69,1.11.81-.12,1.3-.46,1.46-1.04h0Z"/>
    <path class="cls-4" d="M51.85,24.52v.31c-.04.5.15.88.5,1.15.19-.08.31-.15.38-.23.08-.35.12-.73.15-1.23h-1.04Z"/>
    <path class="cls-4" d="M48.17,26.17c.27,0,.42,0,.46-.04,0-.04,0-.12.04-.15.08-.58.15-1.04.23-1.46h-1.54c.12.61.15,1.11.15,1.54l.65.12h0Z"/>
    <path class="cls-4" d="M39.46,31.13c.04-.19.04-.38.04-.58h-.96c.11.35.31.61.54.81l.38-.23h0Z"/>
    <path class="cls-4" d="M37.96,31.24c.04-.19.04-.42.08-.69h-7.18v1.65l.65.11c.42,0,.58,0,.38-.04.08-.08.19-.27.31-.54.08.42.08,1,.04,1.77.04.69.31,1.23.73,1.65.46-.42.77-1.19.96-2.26.12-1.19.23-1.96.27-2.34.04.19.15,1.08.35,2.57.15,1.08.38,1.92.69,2.53l.31-.12c.15-.34.27-.81.38-1.38.11-.58.23-1,.27-1.27h.12c.08.27.15.5.19.73.08.19.23.42.5.77.46-.88.77-1.92.96-3.15h0Z"/>
    <path class="cls-4" d="M57.49,30.55s-.04.12-.08.19c-.08-.04-.15-.04-.19-.08v-.12h-1.27c.04.12.12.23.19.35-.15.19-.27.42-.34.77-.15.54-.27,1.27-.38,2.19h-.04c-.11-.42-.38-.84-.73-1.27-.42-.04-.84.31-1.27,1.04-.35.61-.5,1.08-.5,1.34,0,.08.08,1.11.27,3.07.15,1.96.23,3.45.23,4.41l.65.11c.46,0,.65-.08.58-.19l.04-1.61s.12.27.15.65c.04.27.27.42.61.42.42,0,.58-.04.38-.15.42-1.27.69-2.88.73-4.87.08-2.8.15-4.45.19-4.87.12.12.19.23.23.35,0,2.15.04,3.68.15,4.57.12.96.31,1.84.58,2.69.15.5.35,1,.58,1.5.08-.08.15-.15.23-.23.12-.15.19-.31.27-.46.08-.19.15-.34.23-.54.12-.42.15-.92.12-1.46-.08-.5-.15-.96-.19-1.34.12.27.31.5.65.69.19-.08.35-.19.46-.31l.88-1.54c.12-.23.15-.69.15-1.34,0-1.38-.15-2.69-.5-3.95h-3.07ZM58.49,32.24s.08.08.12.11c.11.65.15,1.54.15,2.65h-.08c-.12-.96-.15-1.88-.19-2.76h0ZM58.76,35.46h.08v.88c-.04-.34-.08-.65-.08-.88h0ZM54.46,37.27v-.08c.15.69.19,1.57.15,2.69-.12-.58-.15-1.46-.15-2.61h0Z"/>
    <path class="cls-4" d="M45.44,40.26c-.5.19-.85.65-.96,1.34-.04.19-.04.73-.04,1.61,0,1.27.15,2.96.5,5.1v1.57h-.08c-.19-1.96-.35-3.03-.38-3.3-.27-1.42-.81-2.42-1.57-2.99-.34.15-.58.54-.69,1.15-.04.35-.08.73-.12,1.15-.19-.12-.46-.15-.73-.19-.27.04-.46.04-.54.04v.58c.81.65,1.27,1.77,1.42,3.26.19,1.65.5,2.73.92,3.26.19-.08.31-.15.35-.23.04-.04.15-.42.38-1.11.15.35.27.84.31,1.5.12.58.46,1,1,1.34.35-.04.58-.31.77-.8.15-.38.23-.77.23-1.11,0-.73-.15-3.03-.5-6.91.12.65.31,2.04.58,4.22.31,1.88.69,2.84,1.11,2.84.27,0,.38-.04.42-.08,0-.04.04-.12.08-.15.08-.38.12-.88.12-1.54,0-.88-.15-2.26-.5-4.22v-2.07h.04c.15.88.34,2.61.61,5.22.31,2.19.73,3.3,1.23,3.3.46,0,.61-.04.5-.11.15-.81.23-1.84.23-3.07-.04-1.34-.08-2.3-.08-2.88h.11c.12.5.15.96.15,1.34l.65.12c.42,0,.61-.04.58-.15l.04-1.19c-.15-4.22-.23-7.37-.23-9.4l.15.38c.04.42.23,1.65.5,3.68.23,1.5.34,2.76.34,3.76l.65.12c.27,0,.46-.04.5-.15s.12-.23.15-.31c-.35-3.19-.65-5.6-.92-7.18-.5-2.96-1.3-3.03-2.42-.31-.04-.08-.11-.15-.19-.23-.12-.19-.31-.27-.58-.27s-.42.04-.42.08c.04,0,.08,0,.12.04,0,.04-.23,1.11-.69,3.22,0,.04.04.69.12,1.96.08,1.11.08,1.92.04,2.5-.15-1.19-.31-2.07-.42-2.73-.23-1.15-.58-1.73-1.04-1.73-.27,0-.42.04-.5.15-.11.12-.15.15-.19.15-.04.5-.11,1.04-.15,1.61-.11-.5-.23-.88-.31-1.15-.12-.46-.35-.81-.65-1.04h0ZM48.86,45.59s.12.31.23.92h-.12l-.12-.92h0ZM45.71,45.25h-.08c-.12-.81-.19-1.5-.19-2.07.19.42.27,1.11.27,2.07h0ZM43.18,46.13c.12.35.27,1.15.46,2.46.19,1.19.27,1.88.27,2.11,0,.27,0,.46-.04.58l-.08-.04c-.15-.77-.34-2.46-.61-5.03v-.08h0Z"/>
    <path class="cls-4" d="M42.41,59.83c-.08-.27-.27-.38-.54-.38-.12,0-.19,0-.27.04-.11.04-.19.08-.23.11-.11.12-.15.15-.19.15-.04.27-.08.46-.08.58s0,.31.04.54c.08.84.31,2.46.73,4.87.65.15,1.04.38,1.11.73.08.35.31.54.73.65.35-.12.58-.34.65-.69.04-.08.04-.19.08-.38v-.46s.08.08.15.27c.12.15.35.23.61.23s.42-.04.46-.15c0-.12,0-.15.04-.15v-2.3c-.31-1.27-.46-2.38-.5-3.26l.04.15c.27.58.46,1.46.61,2.65.19,1.69.31,2.61.34,2.73l.65.12c.42,0,.65-.08.61-.19l.04-5.37h.04c.27,2.03.42,3.53.46,4.41l.65.11c.46,0,.65-.04.58-.15.04-.15,0-1.11-.04-2.88-.04-.88.23-1.5.81-1.88.08-.04.15-.12.23-.15l.08.19s.08.61.15,1.65v.19c.04.54.19.96.42,1.31.12.19.27.38.46.5l.5-.27v-1.54c-.04-.58-.08-1.04-.11-1.3-.23-1.5-.81-2.27-1.69-2.27-.04,0-.19.12-.42.35-.27.23-.65.58-1.15,1.07-.08-.27-.15-.5-.27-.69-.19-.35-.46-.54-.81-.54-.42,0-.73.31-.88.96-.08.34-.11.65-.11,1-.42-1.61-.88-2.42-1.34-2.42-.88-.34-1.46-.54-1.8-.5-.58.04-.81,1.04-.69,2.96-.04-.27-.12-.46-.15-.58h0ZM43.71,59.56v-.12c.12.84.19,1.42.15,1.73l-.08-.12c-.04-.38-.08-.88-.08-1.5h0ZM44.1,63.21c-.12-.35-.19-.88-.19-1.65v-.08c.19.73.27,1.3.19,1.73h0Z"/>
    <path class="cls-3" d="M50.32,59.95l-.08-.19c-.08.04-.15.11-.23.15.12.5.27,1.04.46,1.69-.08-1.04-.12-1.61-.15-1.65h0Z"/>
  </g>
  <g id="Layer_4" data-name="Layer 4">
    <path class="cls-2" d="M81.52,42.45c0-7.87-2.69-14.85-8.1-21.03-7.18-8.21-18.19-13.39-33.08-15.54-11.63,3.65-20.07,9.21-25.41,16.7-4.18,5.91-6.29,12.78-6.29,20.57,0,8.87,1.92,16.43,5.72,22.72,5.91,9.79,15.85,15.04,29.86,15.74l-1.38-.19,1,.08c.96,0,2.11-.15,3.45-.42,4.34-.92,9.86-3.19,16.58-6.79,3.99-2.15,6.72-3.8,8.17-4.99,1.73-1.38,2.99-3.03,3.8-4.95,2.19-5.26,3.65-9.06,4.3-11.4.92-3.26,1.38-6.75,1.38-10.48h0ZM75.65,26.25c3.26,5.1,4.87,10.48,4.87,16.16,0,6.56-1.88,13.55-5.64,21.03-1.73,3.53-5.95,7.18-12.59,10.98-7.02,4.03-13.36,6.02-18.92,6.02-11.28,0-20.11-4.22-26.48-12.66-2.3-3.03-4.11-6.41-5.37-10.13-1.04-2.99-1.54-5.53-1.54-7.6l-.34-6.91c0-6.95,1.92-13.51,5.76-19.69,1.65-2.61,4.83-5.37,9.63-8.29,6.56-4.03,10.55-6.64,12.01-7.83,3.42-.92,7.6-.73,12.55.57,4.99,1.31,9.75,3.49,14.32,6.56,4.95,3.38,8.87,7.29,11.74,11.78h0Z"/>
    <path class="cls-2" d="M32.85,25.25c.65-.58,1.88-1.57,3.76-2.96,1.84-1.34,2.84-2.03,2.96-2.03.35,0,1.54-.35,3.61-1,.96-.54,2.19-.62,3.76-.19.81.23,1.65.54,2.53.92,1.23.27,2.61.69,4.14,1.27,1.76.69,2.88,1.3,3.3,1.8,1.11,1.34,2.15,2.88,3.11,4.68,1.19,2.19,1.8,3.91,1.8,5.1,0,.84-.61,2.69-1.84,5.57-.46.88-1.5,1.8-3.15,2.84-1.88,1.15-2.99,1.92-3.38,2.34-.65.73-1.19,1.77-1.61,3.11-.19.73-.5,1.84-.88,3.34v.04c.96-2.38,2.15-4.38,3.65-6.02,2.26-1.88,3.99-3.38,5.14-4.53,2.07-2.07,3.11-4.3,3.11-6.68,0-3.61-1.34-6.72-4.03-9.29-3.57-3.49-9.1-5.22-16.5-5.22-3.65,0-6.83,1.77-9.59,5.3-2.26,2.91-3.38,5.45-3.38,7.56,0,.04.15,1,.5,2.84.73,1.8,2.15,2.69,4.22,2.69,1.65,0,2.95-.54,3.91-1.61.5-.58,1.19-1.76,2.04-3.57.77-1.69,1.53-2.88,2.26-3.61,1.15-1.07,2.72-1.61,4.68-1.61,2.38,0,4.26.65,5.6,1.92,1.08,1,1.61,2.07,1.61,3.26,0,.96-.73,2-2.19,3.03-.88.65-2.5,1.69-4.84,3.15-4.72,3.26-7.06,7.37-7.06,12.24,0,3.3,2,4.95,6.02,4.95,1.42,0,2.46-.23,3.03-.69.42-.35.81-1.07,1.11-2.11.08-.34.19-.65.35-.96-.96,1.77-2.61,2.65-4.91,2.65-1.57,0-2.72-.46-3.49-1.34-.62-.73-.92-1.61-.92-2.69,0-4.38,2.3-8.14,6.95-11.32,2.34-1.46,3.91-2.53,4.76-3.22,1.46-1.19,2.19-2.38,2.19-3.61s-.46-2.46-1.38-3.65c-1.42-1.8-3.65-2.69-6.68-2.69-3.53,0-6.14,1.73-7.79,5.14-.96,1.96-1.57,3.11-1.92,3.53-.84,1.08-1.96,1.61-3.38,1.61-1.5,0-2.53-.61-3.11-1.84-.35-.69-.5-1.54-.5-2.5s.19-1.96.54-2.96c.42-1.19,1.07-2.19,1.88-2.99h0Z"/>
    <path class="cls-2" d="M46.09,57.11c-1.5-.15-2.76.23-3.76,1.15-1.15,1.08-1.73,2.69-1.73,4.87,0,.04-.04.31-.08.77,0,.54.12,1.04.38,1.46.77,1.34,2.61,2.03,5.57,2.03,2.26,0,3.76-.69,4.53-2.07.38-.69.58-1.61.58-2.8,0-1.42-.58-2.65-1.73-3.72-1.08-1-2.34-1.57-3.76-1.69h0ZM43.02,59.6c.84-.77,1.88-1.15,3.11-1.15s2.19.35,3.07,1.08c.92.81,1.38,1.8,1.38,3.03l-.34,1.88c-.58,1.23-1.8,1.84-3.65,1.84-2.22,0-3.68-.31-4.37-.96-.39-.38-.58-1.08-.58-2.03,0-1.57.46-2.8,1.38-3.68h0Z"/>
  </g>
</svg>