<?xml version="1.0" encoding="UTF-8"?>
<svg id="Layer_2" data-name="Layer 2" xmlns="http://www.w3.org/2000/svg" xmlns:xlink="http://www.w3.org/1999/xlink" viewBox="0 0 96.26 100.51">
  <defs>
    <style>
      .cls-1 {
        fill: url(#linear-gradient);
      }

      .cls-1, .cls-2, .cls-3, .cls-4, .cls-5, .cls-6, .cls-7, .cls-8 {
        stroke-width: 0px;
      }

      .cls-3 {
        fill: #ccc;
      }

      .cls-4 {
        fill: #e2d9ba;
      }

      .cls-5 {
        fill: #daa21f;
      }

      .cls-6 {
        fill: #be4234;
      }

      .cls-7 {
        fill: #333;
      }

      .cls-8 {
        fill: #999;
      }
    </style>
    <linearGradient id="linear-gradient" x1="45.76" y1="9.92" x2="45.76" y2="131.74" gradientUnits="userSpaceOnUse">
      <stop offset=".37" stop-color="#fff"/>
      <stop offset="1" stop-color="#c6c6c6"/>
    </linearGradient>
  </defs>
  <g id="Layer_1-2" data-name="Layer 1">
    <path class="cls-8" d="M96.12,38.52c.46-3.03-.19-6.22-2-9.56l-14.97-21.34c-5.22-5.3-12.55-.88-21.95,13.28L19.71,57.52l-13.85,34.93c-1.46,6.37.84,8.98,6.95,7.79l36.61-13.55,40.41-38.07c3.65-3.15,5.72-6.52,6.29-10.09h0Z"/>
  </g>
  <g id="Layer_2-2" data-name="Layer 2">
    <path class="cls-8" d="M64.5,1.6c-3.72,2.23-7.95,6.91-12.66,14.05L14.37,52.18s-.08.12-.08.15L.44,87.26s-.04,0,0,.04c-.77,3.34-.54,5.72.73,7.06,1.19,1.42,3.42,1.8,6.64,1.19h.08l36.61-13.55s.08-.04.12-.08l40.41-38.07c6.91-5.99,8.37-12.7,4.37-20.11t-.04-.04l-14.97-21.34s0-.04-.04-.08c-2.73-2.8-6.03-3.03-9.86-.69h0ZM52.41,16.11s.04-.04.08-.04c4.64-7.02,8.79-11.63,12.4-13.82,3.49-2.11,6.45-1.92,8.94.58l14.93,21.3-.04-.04c3.8,7.1,2.38,13.47-4.18,19.19h-.04l-40.37,38.03-36.46,13.47c-2.88.57-4.84.27-5.95-.92-1.07-1.27-1.27-3.38-.54-6.41v.08l13.82-34.89L52.41,16.11h0Z"/>
    <path class="cls-1" d="M52.48,16.07s-.04,0-.08.04L14.99,52.64,1.17,87.53v-.08c-.73,3.03-.54,5.14.54,6.41,1.11,1.19,3.07,1.5,5.95.92l36.46-13.47,40.37-38.03h.04c6.56-5.72,7.98-12.09,4.18-19.19l.04.04-14.93-21.3c-2.49-2.5-5.45-2.69-8.94-.58-3.61,2.19-7.75,6.79-12.4,13.82h0Z"/>
  </g>
  <g id="Layer_3" data-name="Layer 3">
    <path class="cls-6" d="M72.44,11.65l-.42-.12c-.96.73-1.88.5-2.69-.77-.88-1.34-1.46-2-1.73-1.92l-.04,2.03c-.19-.04-.38-.04-.58.04-.27.08-.54.12-.73.12-.38-.42-.73-.77-1.04-1.04-.11.04-.31.19-.5.46-.19.23-.31.42-.35.58.04-.35.04-.58,0-.69-.08-.23-.35-.35-.84-.35-.42,0-.69.42-.88,1.23-.12.42-.19.96-.31,1.57-.77-.15-1.27.11-1.5.77-.61-.5-1.07-.38-1.34.35-.19.58-.27,1.04-.23,1.46-.38-.23-.81-.27-1.23-.08,0,.84-.08,1.42-.23,1.73v3.11c.77.19,1.11.34,1.07.38-.04.04.12.12.46.23.58-.46.84-1.15.81-2.11-.04-1.38-.04-2.15,0-2.27h.08c.08.34.08,1.27,0,2.8.04,1.38.27,2.07.77,2.07.42,0,.58,0,.38-.04.19-.73.27-1.8.27-3.22h.04c.11.27.11.88.08,1.8.04.81.27,1.23.77,1.23.46,0,.58-.04.38-.08.35-.58.5-1.5.5-2.76.19.88.27,2.3.27,4.22l.65.15c.65,0,1-1.3,1.04-3.95-.08-3.03-.08-4.95-.04-5.8.12.96.23,2.88.35,5.8.08,1.65.19,3.03.35,4.15h2.38c.04-.92.11-1.92.15-2.99.11-3.19.15-5.03.19-5.6.11.81.19,3.41.19,7.83,0,.27,0,.5.04.77h7.64c-.23-1.15-.35-1.88-.35-2.19,0-.27.04-.54.12-.73.08-.19.12-.38.15-.5.23.73.38,1.88.42,3.42h2c-.15-.31-.35-.69-.54-1.11-.27-.5-.5-1.11-.61-1.84-.11-.69-.38-1.38-.88-2.04-.58-.73-1.19-1.11-1.84-1.11-.27,0-.5.08-.61.27-.08.12-.15.19-.19.27-.04-.88-.27-1.8-.69-2.8-.5-1.11-.88-2.03-1.15-2.72h0ZM71.87,15.76v-.08c.27,1.42.27,2.92,0,4.45-.15-1.31-.23-2.19-.23-2.65,0-.65.08-1.23.23-1.73h0ZM68.56,11.16v-.08s.08.08.23.08c0,.19-.15.38-.5.65v-.08c.11-.31.23-.5.27-.58h0ZM69.83,13.69s.04-.08.15-.04c.04,0,.08,0,.12.04,0,.5-.04.85-.08,1.11h-.11c-.04-.27-.08-.62-.08-1.11h0ZM67.03,18.56h-.08c-.12-1.07-.19-2.11-.19-3.07.19.73.27,1.73.27,3.07h0Z"/>
    <path class="cls-6" d="M80.15,22.55c-.27,0-.46.04-.58.11t-.04.08h.88c-.11-.12-.19-.19-.27-.19h0Z"/>
    <path class="cls-6" d="M70.6,23.36h.08c.04.35.08.73.04,1.19.04.42.23.77.65,1.07.19-.04.39-.15.5-.35.04.38,0,.96-.08,1.73,0,.69.19,1.27.61,1.73l.38-.23.04-.15c.08.27.12.85.08,1.73-.04.69.15,1.27.5,1.69.19-.04.35-.15.54-.27.08-1.07.15-2.49.23-4.26.08-2.11.12-3.45.15-4.11.27,1.11.38,2.92.35,5.49-.04,2.34.15,4.11.54,5.22l.46-.23c.04-.65.15-1.61.42-2.88.27-1.19.38-2.11.38-2.76h.08c.35.92.5,2.38.46,4.34-.04,1.84.15,3.18.5,4.07.19-.04.35-.15.54-.27,0-.15.04-.88.15-2.23.08.15.11.54.08,1.19-.04.46.15.81.5,1.04l.35-.12c.08-.27.23-1.38.46-3.26.19-1.46.38-2.38.65-2.76-.15,1.88-.23,3.03-.23,3.45-.04,1.3.15,2.38.58,3.19.38-.46.65-1.23.84-2.3.12-1.19.23-2,.31-2.42h.08c.04.38.04.96-.08,1.77,0,.65.19,1.15.61,1.42.19-.04.46-.23.73-.58.04.12.04.31.08.54.08.19.27.31.54.31.42,0,.54-.04.27-.12.12-.19.19-.65.19-1.31,0-.35-.54-2.23-1.61-5.72-.96-3.11-1.69-4.91-2.11-5.45h-.88c-.11.11-.23.34-.31.69v-.08c-.08-.19-.15-.38-.27-.61h-2c.04.5.04,1.07.04,1.73h-.04c-.12-.65-.23-1.23-.35-1.73h-7.64c.04,2.76.35,4.14.84,4.14.27,0,.46-.04.54-.11.08-.12.12-.15.15-.15.04-.73.08-1.84.08-3.26h0ZM81.84,31.04c0-.5.04-.84.08-.96h.19c0,.5-.08.84-.27,1.07v-.12h0ZM78.2,24.78v-.08c.11,1.65.11,3.38,0,5.1-.12-.54-.15-1.31-.15-2.34,0-1.11.04-1.99.15-2.69h0ZM79.31,29.08v-1.11c.27-1.73.5-2.8.69-3.26-.11,2.38-.35,3.84-.69,4.37h0Z"/>
    <path class="cls-6" d="M66.95,23.36l.08.08v2.34l.65.08c.46,0,.65-.08.54-.19.08-.84.15-1.8.19-2.92h-2.38c.08.5.15.92.23,1.34.15-.08.38-.31.69-.73h0Z"/>
    <path class="cls-3" d="M70.18,31.88l-.08-.08c-.04-1.23-.38-1.84-1.04-1.84-.04,0-.15.11-.35.31-.23.19-.42.38-.54.54-.31-1.5-.77-2.61-1.42-3.42-.23.08-.58.42-1,1.08-.15-.58-.42-.92-.77-1.08-.5.35-.73.54-.77.54-.19-1.04-.38-1.8-.54-2.3-.23-.92-.65-1.61-1.23-2.07-.54.27-.84.61-.88,1.04-.08-.42-.15-.73-.23-.92-.11-.38-.42-.58-.84-.58-.27,0-.5.04-.61.15-.04.11-.08.15-.11.11-.23-.96-.38-1.53-.46-1.73-.31-.77-.69-1.15-1.15-1.15-.65,0-.96.35-.96,1,0,.35,0,.77.04,1.27l-.08-.08c-.19-.73-.38-1.19-.58-1.46-.35-.58-.88-.84-1.57-.81,0,.88-.04,1.42-.08,1.61-.81-.42-1.38-.23-1.73.5-.15.38-.23.84-.27,1.34,0,.42.08.92.27,1.46.12.31.23.58.35.84.08.15.19.31.31.42.19.23.38.42.61.58.35-.16.5-.23.54-.19-.04.15,0,.42.12.81.11.46.35.69.65.69.46,0,.58-.08.38-.23.08-.38.12-1.04.12-1.92-.19-1.8-.27-3.03-.27-3.76.15.42.42,1.69.85,3.8.42,1.88.88,2.84,1.3,2.84.46,0,.65-.08.61-.19.04-.34.08-.73.08-1.15-.27-2.57-.42-4.41-.54-5.56l.12.11c.19.61.38,2.15.65,4.6.35,2.15.81,3.22,1.42,3.22.42,0,.58-.04.46-.15.19-1.5.19-2.88-.08-4.22l.08.19c.19.69.46,2.03.81,3.99.27,1.73.61,2.99.96,3.8.19-.11.35-.23.46-.34-.5-4.49-.73-6.95-.73-7.41,0-.31.04-.5.08-.58.23.96.58,3.03,1.08,6.29.34,2.65.81,4.68,1.38,6.1.39-.11.61-.38.73-.84.04-.54.04-.92.04-1.15h.04c.08.42.19,1.07.31,2,.15.81.38,1.38.65,1.77.35-.31.54-.77.54-1.34-.5-4.07-.77-6.56-.77-7.44,0-.27.04-.54.11-.81.08-.27.11-.46.11-.54.12.46.5,3.15,1.19,8.06.5,3.61.96,5.41,1.38,5.41.27,0,.42-.04.46-.08-.04-.08-.04-.11,0-.11l.04-1.04c0-.81-.15-2.26-.5-4.3-.35-2.07-.5-3.57-.5-4.53,0-.46.08-.85.19-1.19.19.96.5,3.15.96,6.49.35,2.73.73,4.84,1.15,6.33.15-.08.31-.15.5-.27v-2.15c-.23-.84-.42-2.03-.54-3.61-.15-1.42-.23-2.69-.23-3.76,0-.46.04-.77.11-.96.15.65.42,2.27.81,4.91.31,1.96.69,3.57,1.15,4.76.19,0,.34-.08.54-.23-.08-.54-.15-1.34-.27-2.46-.08-.96-.15-1.65-.27-2.15v-2.49h.04c.08.5.19,1.42.31,2.69.19,1.19.38,2.03.65,2.61.23-.08.38-.19.5-.31v-2.07c.12.12.15.35.19.73,0,.27.23.38.73.38.27,0,.42-.04.46-.11.04-.08.08-.15.12-.23.04-.42.04-.81-.04-1.15.42.04.69-.11.81-.42.04-.08.04-.31.04-.73.04-.35.04-.69-.04-1.04-.11-.61-.5-.92-1.07-.92-.23,0-.35.08-.35.27-.04.15-.15.23-.38.23-.69,0-1.11-.46-1.23-1.38-.15-.96-.38-1.42-.73-1.42-.27,0-.5.08-.61.23-.04.08-.11.19-.19.31-.12-.61-.23-1.07-.35-1.42-.11-.58-.42-1-.92-1.19-.19.12-.42.35-.69.65h0Z"/>
    <path class="cls-5" d="M61.12,35.6c-.27.04-.5.19-.69.46-.12.15-.19.31-.27.46.69-3.68.38-5.53-.92-5.53-.27,0-.42,0-.46.04h.04c-.35.54-.54.84-.61.92-.04-.58-.04-.96-.04-1.23-.04-.42-.31-.77-.88-1.04-.58.38-1,1.19-1.27,2.38-.15.65-.31,1.5-.5,2.61v-.04s0-1,.04-2.88c.04-1.19-.23-2.11-.81-2.84-.23.11-.5.38-.77.77v-.04s0-.69.04-2.03c0-.42-.04-.77-.15-1.04-.11-.12-.23-.27-.31-.42-.11-.11-.23-.23-.35-.31-.5.42-.88,1.11-1.07,2.15-.12.58-.23,1.46-.42,2.61v-.08c-.04-.11-.04-.69,0-1.73.04-.69-.15-1.23-.54-1.65-.58.08-.84.38-.81.92,0,.69-.08,1.11-.27,1.3-.04-.04-.11-.27-.19-.69-.04-.35-.23-.5-.54-.5-.27,0-.42.04-.42.08s.04.04.08.08c-.04.12-.19.54-.38,1.27-.19.61-.31,1-.38,1.11-.19-.11-.42-.15-.69-.15-.27.04-.42.04-.5.04-.12.65-.27,1.42-.54,2.23-.11.42-.31,1.04-.58,1.8h-.04c-.08-.38-.12-.73-.12-1.07,0-.77-.08-1.31-.27-1.57-1.27,1.34-2.23,3.19-2.92,5.49-.08.27-.15.58-.23.84h4.18c.27-1.88.5-3.3.61-4.34v-.08c.08.69-.04,2.15-.31,4.41h1.23c.04-.19.04-.42.08-.61.42-2.57.61-3.88.61-3.99.04,1-.12,2.53-.42,4.61h2v-.04.04h1.54c.46-4.34.77-7.18.96-8.44-.08,1.38-.31,4.18-.69,8.44h2.19c.04-.12.04-.23.04-.31.04.04.04.15.04.31h3.72c.04-.96.12-1.69.15-2.15.19-1.42.5-2.61.92-3.53-.11,2.23-.23,4.11-.35,5.68h3.88s0-.08.04-.12l.04-.08v.19h1.15v-.04c.04-1.19-.35-2.03-1.07-2.46-.38.19-.65.58-.84,1.23-.19.65-.31,1-.42,1.07,0-.04,0-.5.04-1.38.04-.58-.15-.96-.57-1.15h0ZM50.56,34.57v-.08c.04.38,0,1.08-.11,2.03h-.08l.19-1.96h0ZM56.28,38.13v-1.34c.23-1.53.5-3.07.81-4.64.58,3.11.31,5.1-.81,5.99h0Z"/>
    <path class="cls-5" d="M58.05,39.75c.04-.5.08-1,.11-1.42h-3.72c.04.27.04.65.04,1.23h-.46c.19-.54.31-.96.35-1.23h-2.19c-.04.38-.08.77-.11,1.19-.42,4.26-.61,7.64-.61,10.17l-.04,1.11h1.42c.04-.35.04-.61.04-.81,0,.27,0,.54.04.81h1.84c.11-1.42.19-2.53.23-3.41.19-2.38.54-4.34.96-5.83-.04,1.73-.19,3.68-.42,5.79-.11,1.27-.27,2.42-.46,3.45h2.07c-.04-.46-.04-.96-.08-1.46-.15-2.19-.23-3.34-.23-3.41,0-1.42.15-2.23.46-2.46.35-.27.61-1.53.77-3.72h0ZM56.21,38.86v-.08c.04.19,0,.65-.19,1.34l.19-1.27h0ZM53.98,44.85l.19-1.15c.04,1.8,0,3.45-.19,4.95v-3.8h0Z"/>
    <path class="cls-5" d="M58.89,38.33c-.19,1.5-.38,2.69-.58,3.57-.34,1.38-.5,3.61-.5,6.68,0,.23-.04.96-.12,2.23h1.38c.11-.81.15-1.38.19-1.73h.08c0,.65,0,1.23-.04,1.73h1.23c.08-.88.19-1.61.31-2.19,0,.11-.08.84-.23,2.19h2.61c.08-.38.11-.65.15-.81.04.08.04.35.08.81h1c-.19-2.61-.27-4.15-.27-4.57,0-.12.12-.96.38-2.53.27-1.57.46-2.61.58-3.11l-.58,10.21h1.8c-.08-.5-.11-1.23-.11-2.11,0-1.11.08-1.96.23-2.49.11.96.27,1.61.46,2.03.11.19.19.35.27.46,0,.19-.11.57-.31,1.07-.19.42-.38.77-.54,1.04h1.34c.38-1.23.65-1.96.77-2.15.12.04.27.19.42.46.12.19.27.31.42.31.42,0,.54-.04.31-.16.65-1.88.96-2.99.96-3.3,0-.46-.31-.96-.88-1.5-.69-.61-1.42-.77-2.15-.5-.04-.58-.27-.92-.69-1.11-.42-.19-.61-.54-.61-1.11.11-.73.15-1.3.11-1.69-.04-.73-.38-1.11-1-1.11-.35,0-.69.27-.96.77-.23.35-.38.77-.46,1.19,0-.04,0-.92.04-2.57h-1.15c.04,1.46-.11,4.18-.38,8.14v-2.88c.19-.81.15-1.23-.04-1.19-.27.15-.38.15-.38.04.27-2.27.54-3.61.73-4.11h-3.88ZM59.39,48.77h-.04v-3.72c.23,1.23.23,2.46.04,3.72h0ZM62.35,47.15h.11c.08,1.04,0,2.11-.27,3.22v-2.19l.15-1.04h0ZM67.64,46.92l.08-.08c.04.12.04.31,0,.58-.04.15-.08.38-.11.65h-.04c0-.5.04-.88.08-1.15h0Z"/>
    <path class="cls-5" d="M51.91,38.33h-1.54v2.23c-.04.27-.11.58-.15.88-.04-.04-.12-.08-.15-.08-.11-.04-.19.04-.31.15.04-.31.11-.61.15-.92.23-.96.38-1.73.46-2.26h-2s-.04.12-.04.19v4.61l.58.15s-.04,0-.04.04c-.23.58-.42,1.19-.58,1.77-.08-.34-.19-.77-.35-1.34-.27-.88-.38-1.34-.38-1.38,0-.42.19-1.76.54-4.03h-1.23c-.04.42-.11.84-.19,1.34-.42,3.19-.62,4.84-.62,5.03,0,.23.04.58.08,1.08,0,.46-.04.8-.08,1.07h-.81l.08-.08c.19-1.53.5-3.68.92-6.45.12-.73.19-1.38.31-2h-4.18c-.77,2.49-1.34,4.03-1.69,4.68.04-.73.04-1.34.04-1.8,0-.84-.27-1.42-.84-1.73-.65.58-1.04,1.46-1.23,2.65-.23,1.73-.35,2.57-.38,2.61-.81-.04-1.27-.31-1.38-.88-.19-.73-.38-1.19-.57-1.34-.73.77-1.23,1.84-1.46,3.22-.12.77-.27,1.84-.42,3.22-.04-.19-.08-.27-.11-.27-.04-.65-.08-1.15-.12-1.46-.04-.58-.31-.96-.73-1.15-.46.19-.77.65-.88,1.46-.11.77-.42,1.23-.88,1.34-.19-.84-.42-1.27-.77-1.27-.27,0-.46.04-.54.15-.11.12-.15.16-.19.16-.04.65-.15,1.53-.38,2.65-.04.08-.04.15-.04.23h.92c.04-.15.04-.27.04-.38l.11.35v.04h4.53c.04-1.07.15-2.15.35-3.26.08.77.11,1.84.11,3.26h2.92c.08-.54.19-1.11.31-1.73.04.46.08,1.04.15,1.73h2.3c0-.27.04-.61.08-.96h.08v.77c0,.08,0,.15.04.19h2.49c0-1.04-.11-1.57-.38-1.69l-.38-.15c0-.27.04-.46.12-.57.04-.12.08-.23.08-.27v-.04c.11.35.46.61,1.11.81-.04.42-.11,1.07-.23,1.92h2.19c.27-2.23.46-3.76.54-4.61h.04c-.19,1.92-.35,3.45-.5,4.61h3.88c.15-2.15.46-5.37.92-9.63.11-1,.19-1.96.31-2.84h0ZM49.22,47.12l.35-2.11c.04.5-.04,1.31-.19,2.42l-.15-.31h0ZM41.7,47.54v-3.19c.23-.73.38-1.3.42-1.73,0,1.23-.15,2.88-.42,4.91h0Z"/>
    <path class="cls-5" d="M44.46,51.07c-.11-.19-.19-.27-.23-.27h-2.49c.08.35.23.65.46.92l.38-.15c-.23,1.88-.38,3.41-.46,4.6-.04-.54-.19-1.3-.38-2.34-.19-.96-.31-1.46-.31-1.5,0-.38.04-.88.11-1.53h-2.3c.08,1.19.19,2.73.38,4.57,0,.27-.31,1.27-.96,2.99l-.04-.08c-.35-1.27-.54-2.3-.54-3.07,0-.54.23-2,.69-4.41h-2.92v.69c0,2.03.04,3.45.08,4.26h-.15c-.04-.19-.11-.61-.27-1.23-.12-.58-.19-1.11-.19-1.61,0-.69.04-1.38.08-2.11h-4.53c.04.38.08.88.08,1.5,0,.42-.08,4.07-.23,10.98h1.34c.12-.5.15-1,.15-1.5.15.27.23.77.23,1.5h1.07c.04-1.07.04-2.57.08-4.45.04-2.49,0-4.57-.11-6.18l.08.08c.08.46.15,2.61.23,6.45.04,1.42.19,2.57.5,3.53h-.04c-.31.15-.54.34-.65.58h8.71c-.08-2.57-.11-4.64-.11-6.26l.11.11c.08,1.04.23,3.07.5,6.14h1.11v-.23c.31-3.95.5-6.91.58-8.79.27,1.42.34,3.38.23,5.91-.04.8-.11,1.84-.15,3.11h2.88c-.08-.35-.15-.69-.23-1.11-.27-1.27-.42-2.26-.42-2.96,0-.19.15-1.38.42-3.61.04.5.11,1.11.15,1.77.19,2.34.31,3.91.31,4.76,0,.35,0,.73-.04,1.15h2.84v-.04c.08-.54.11-.96.15-1.31.08.19.15.38.27.54.15-.08.27-.19.38-.31.04.08.08.15.11.23.27.42.58.69.92.88h1.15c.12-.08.23-.19.35-.35.08-.04.11-.08.08-.11.65-.88,1.53-2.69,2.65-5.33.23,1.11.58,1.65,1,1.65.27,0,.42-.04.46-.08-.04-.08-.04-.12,0-.12.04-.69.12-1.61.23-2.8.04.12.12.31.15.65.04.27.19.54.42.81,1.57-1.11,2.38-2.76,2.5-4.95h.08c.08.15.35.42.81.84.34-.31.65-.88.84-1.73.08-.38.15-.69.19-.96h-2.61c-.04.08-.04.15-.04.27h-.08c0-.12,0-.19.04-.27h-1.23c-.04.85-.12,1.53-.23,2.11l-.08-1.65c.04-.15.04-.31.08-.46h-1.38c-.08,1-.15,2.3-.27,3.91-.04-.19-.11-.27-.15-.27-.04-.88-.08-2.07-.15-3.65h-2.07c-.04.35-.11.65-.15.96-.11.04-.19.08-.23.15.04-.38.04-.77.08-1.11h-1.84c.12,3.19.12,5.45.04,6.79-.19-2.19-.31-3.84-.31-4.91.08-.77.15-1.38.19-1.88h-1.42l-.27,7.1s-.04-.12-.04-.15h-.04c-.35-2.03-.54-3.45-.54-4.26,0-.5.04-1.42.15-2.69h-3.88c-.11.58-.19,1.07-.27,1.5v-.08c.08-.5.16-1,.19-1.42h-2.19c-.04.08-.04.15-.08.27h0ZM55.71,53.07c.15-.73.27-1.38.38-1.88.04.65.12,1.84.23,3.53-.04-.15-.11-.31-.15-.42-.15-.5-.31-.88-.46-1.23h0ZM54.56,53.37c.04-.27.04-.5.08-.77,0,.04.04.11.08.23-.04.19-.12.35-.15.54h0ZM54.79,57.06c.11-.35.19-.69.27-1.04-.11.5-.27,1.23-.42,2.11-.08.35-.15.69-.27,1,.12-.65.27-1.34.42-2.07h0ZM49.87,57.52h.08s0,.11.04.19l-.04.04c-.12,2.19-.31,3.91-.5,5.14v-.19c.12-2.3.23-4.03.42-5.18h0ZM51.83,60.86c.12-1.04.19-1.57.23-1.65h.04c.04.15.08.84.15,2.03.04.19.08.35.12.5-.19-.27-.38-.58-.54-.88h0Z"/>
    <path class="cls-5" d="M33.52,63.27h-1.07v.5c-.04.85.15,1.42.54,1.77.11-.04.19-.08.27-.12v.73c.08.77.35,1.15.77,1.15.46,0,.57-.04.31-.11.15-.12.27-.23.31-.31.11-.11.15-.27.15-.54,0-.23-.08-.58-.27-1.04-.19-.46-.27-.81-.27-1.04,0-.19.08-.38.27-.5.04-.04.08-.08.11-.11.19.35.38.65.58.92.19,2.11.46,4.14.88,6.1l.31.08c.04.27.08.65.11,1.11.12-.04.19-.12.31-.16,0-.8.08-1.57.27-2.26.15-.65.23-1.07.23-1.23,0-.23-.04-.54-.11-.92-.08-.38-.12-.65-.12-.81.19.19.46.31.77.31.08.88.04,2.38-.08,4.41,0,1.88.27,3.38.85,4.53.15,0,.31-.08.5-.23v-3.07c.46.35.88.5,1.31.5s.73-.04.92-.11c.11-.92.34-1.53.69-1.84.27-.27.42-.73.42-1.31-.08-2.38-.12-4.53-.15-6.41h-8.71s-.04.04-.08.08v-.08h0ZM40.16,67.76v-.08c.19,1.19.27,2.42.19,3.65-.11-.73-.19-1.92-.19-3.57h0Z"/>
    <path class="cls-5" d="M43.92,63.27h-1.11c.04.61.12,1.27.15,2,.42,3.57.92,5.37,1.54,5.37.27,0,.42-.04.46-.08.04-.04.04-.08.04-.12.19-1.92.34-3.34.46-4.22h.08c0,.08-.04.42-.12,1,.04.58.38.84,1,.84.27,0,.46-.04.58-.15.04-.11.04-.15.08-.15v-.96c.08.11.11.31.11.54.04.19.27.38.65.5.46-.77.84-1.61,1.11-2.57.11.08.27.15.42.27.65-.58,1-1.34,1.11-2.27h-2.84c0,.15,0,.31-.04.46.04.23.19.46.42.73-.04.34-.11.65-.15.92l-.04-.04c-.04-.23-.19-.92-.38-2.07h-2.88c-.04.92-.11,1.96-.19,3.07h-.08c-.23-1.5-.34-2.53-.38-3.07h0Z"/>
    <path class="cls-5" d="M30.72,50.8h-.92c-.23,1-.35,1.69-.38,2.11h-.08c-.11-.35-.19-.61-.27-.84-.19-.42-.46-.61-.81-.61-.61,0-1,.77-1.11,2.26-.08.77-.11,1.69-.11,2.72-.08-.19-.16-.27-.19-.27.04-1.69-.31-2.76-1.04-3.19-.5.23-.77.65-.88,1.23-.15.81-.27,1.27-.35,1.38,0-.73-.31-1.08-.92-1.08-.08,0-.73.5-1.92,1.54,0,.19.15.73.46,1.53.35.88.61,1.42.81,1.54.19-.12.38-.38.58-.81.12-.35.19-.61.19-.81.11.23.23.35.27.35.11.35.11.69.04,1.07.04.35.27.65.77.96.5-.42.77-1.11.73-2.07-.04-1.19.04-1.92.19-2.23.04.61.04,1.5,0,2.61.08.96.42,1.77,1.08,2.49.73-.61,1.11-1.57,1.23-2.88.04-1.42.11-2.42.27-2.99l.04.15c0,.58-.04,1.73-.15,3.49.04,1.5.38,2.23,1.07,2.23.54,0,.92-1.42,1.11-4.3.11-2.8.23-4.64.31-5.6h0Z"/>
    <path class="cls-5" d="M30.72,63.27c-.04.35-.04.73-.04,1.11l.61.11c.46,0,.61-.04.46-.11.12-.35.23-.73.31-1.11h-1.34Z"/>
    <path class="cls-5" d="M65.61,52.18c.11.19.31.31.61.31.58,0,1.07-.58,1.5-1.69h-3.15l-.04.35h-.08v-.35h-1c.04.35.04.77.08,1.27.19,1.11.46,1.69.81,1.69.42,0,.58,0,.38-.04.5-1.27.73-1.92.77-1.96.04.08.08.23.11.42h0Z"/>
    <path class="cls-5" d="M52.33,63.27c.23.12.46.19.73.19.11,0,.27-.08.42-.19h-1.15Z"/>
    <path class="cls-4" d="M15.98,67.84c-.27,0-.46.04-.54.11-.04.04-.08.08-.11.08,0,.58-.08,1.23-.23,1.96-.19.73-.27,1.15-.27,1.31,0,.46.08,1.42.23,2.84l.65.08c.42,0,.65-.08.65-.23,0,.84.04,1.42.08,1.73.11.73.42,1.11.92,1.11.46,0,.58-.04.35-.15.31-.77.46-1.8.46-3.11-.04-1.54.04-2.57.15-3.11.08.27.11,1.15.08,2.69-.04,1.23.15,2.11.54,2.61.35-.04.58-.27.73-.77.08-.54.11-.88.15-1l.04.15c.04.35.08.84.08,1.5l.61.11c.27,0,.46-.04.54-.11.04-.04.08-.08.12-.11-.15.8,0,1.57.42,2.3.61,1.04,1,1.8,1.11,2.3.31-.19.54-.46.65-.81.11-.42.27-.69.38-.81,1.65.04,2.61-1.23,2.84-3.8-.04-3.11,0-5.22.15-6.29.04.12.08.38.15.77.04.27.08.5.08.77,0,.23-.08,1.76-.27,4.57-.11,2.88.04,4.64.38,5.33.81-.65,1.27-1.8,1.46-3.49.08.88.27,1.61.58,2.23.46-1.27.77-2.96.92-5.14.19-2.65.38-4.34.54-5.1.23.92.35,2.46.31,4.64,0,1.96.19,3.38.54,4.3.54-.65.84-1.65.92-3.03.11-1.96.23-3.07.31-3.34l.04.11c-.19,2,.08,3.84.77,5.53.11-.08.23-.23.42-.5.19-.27.31-.46.35-.58.31.04.73.08,1.31.15.46.04.77,0,.96-.08l.04-2.38c0-.5,0-.96-.04-1.3-.04-.46-.08-.85-.11-1.11l-.31-.08-.19-.04c-.42,0-.73.19-.96.54-.35.54-.77.96-1.19,1.27v-.08c0-.96,0-1.54-.04-1.65-.11-.88-.46-1.34-1-1.34-.27,0-.42.08-.54.19-.08.08-.15.19-.23.31v-.04c-.11-.92-.23-1.61-.35-2.07-.15-.81-.46-1.34-.92-1.69-.19.04-.38.27-.58.61-.12.19-.23.46-.42.81v-.04c.08-1.07.08-1.88.04-2.46-.12-1.04-.46-1.54-1.07-1.54-.27,0-.42.04-.42.11-.04.04,0,.04.04.08-.12.15-.27.42-.38.85-.15.38-.27.65-.35.77-.54-.11-.96.08-1.31.58-.11.12-.23.42-.42.88.11-1.19.15-2.11.15-2.76-.04-1.19-.35-1.77-.92-1.77-.27,0-.46.04-.5.15,0,.04,0,.11.04.15,0,.35-.08.65-.27.96,0-1.27-.5-2.72-1.46-4.38-.96-1.61-1.38-.81-1.31,2.46h-.08c.08-.27.04-.69-.08-1.27-.19-.61-.42-1-.69-1.15-.65,1.69-1.19,3.65-1.61,5.87-.96.27-1.54,1.11-1.65,2.53-.08.81-.15,1.88-.27,3.3h-.04c0-2-.38-2.99-1.15-2.99h0ZM16.1,72.52h.08c.11,0,.19.31.19.92h-.12c-.08-.04-.12-.04-.12-.08-.04,0-.04-.16-.04-.42v-.42h0ZM21.97,65.46c.42-2.88.73-4.64.92-5.37-.04.46-.08,1.5-.11,3.07-.08,1.53-.27,2.76-.54,3.65l-.27-.08v-1.27h0ZM23.01,71.99v-.08c.19.54.19,1,.08,1.34-.04-.19-.08-.61-.08-1.27h0ZM28.65,65.81c0,.88.08,2.19.23,3.88,0,.81-.08,2.11-.23,3.84-.19-4.41-.19-7.02-.04-7.87l.04.15h0Z"/>
    <path class="cls-7" d="M16.37,76.97c-.12-.65-.31-1-.65-1.07-.38-.08-.77.23-1.15.92l-.73-.81c-.81,1.15-1.57,2.57-2.26,4.22-.35.88-.85,2.15-1.5,3.72-.04-.11-.08-.23-.12-.31-.04-.15-.23-.23-.5-.23-.42,0-.77.46-1,1.34-.19.65-.27,1.23-.27,1.73,0,.46.19.92.54,1.34.04,0,.08-.08.19-.27.12-.19.31-.27.58-.27.19,0,.31.08.35.27.04.19.15.27.38.27.42,0,.57-.08.38-.23.27-.73.38-1.3.38-1.65.73.73,1.15.19,1.27-1.57,1.11.65,1.88.38,2.26-.84.19-1.54.38-2.46.5-2.8h.04v1.92c-.19.58-.19,1.04-.04,1.3.38,0,.69-.04.88-.15.42-1.88.73-3.45.88-4.72.04.11.08.38.08.77,0,.31-.12.92-.31,1.84-.08.85.11,1.42.58,1.73.27-.08.5-.38.65-.88.19-.58.31-.85.35-.88,0,.35.23.54.65.54.73,0,1.31.15,1.65.46.12-.08.31-.46.58-1.19.31-.77.46-1.31.46-1.61,0-.27-.04-.42-.08-.42l-.11.08c-.08-.08-.12-.11-.15-.11-.04-.04-.15-.04-.42-.04s-.54.08-.84.27c-.31.15-.54.23-.65.23-.15-.5-.58-.73-1.31-.77,0-1.5-.31-2.26-.88-2.26-.27,0-.46,0-.5.04-.04.04-.08.08-.15.11h0ZM9.31,86.95c-.08-.11-.11-.35-.11-.69v-.5s.08-.08.11-.15v-.08c.15.19.19.69.08,1.5l-.08-.08h0Z"/>
  </g>
  <g id="Layer_4" data-name="Layer 4">
    <path class="cls-2" d="M75.16,13.69c-2.03-2.23-3.95-3.88-5.72-4.91-3.41-2.03-6.18-1.42-8.29,1.88-.42.65-1.27,2.34-2.57,4.99-.81,1.69-1.38,2.92-1.73,3.68-1.34.11-2.69,1.07-4.11,2.92-1.23,1.57-1.84,2.57-1.84,2.99,0,.31.04.5.08.58-4.8,5.83-11.32,12.7-19.65,20.57-.73.73-1.46,1.42-2.19,2.07h1.73c1.8-1.65,3.65-3.3,5.45-4.99,8.98-8.29,14.2-13.89,15.7-16.85,1.07,1.04,3.15,3.07,6.26,6.1,5.18,5.18,9.52,9.83,13.05,13.93-.54.5-1.19,1.08-2,1.81h2.03c.46-.5.77-.92.92-1.23l.04-.04s.08-.15.08-.31v-.35c.46-1.88,1.8-3.84,3.99-5.83.5-.38.96-.73,1.34-1.04.04.12.11.19.19.27.42,0,.61-.08.57-.19l.08-.5s-.04-.12-.08-.15c.73-.57,1.07-.84,1.07-.88v-.04c1.19-.81,2.11-1.42,2.84-1.92,1.84-1.27,2.76-2.46,2.76-3.49,0-1.8-1.46-5.26-4.41-10.4-2.53-4.41-4.41-7.33-5.6-8.67h0ZM59.81,14.57c1.77-3.26,3.8-4.91,6.1-4.91,4.41,0,8.75,3.53,13.01,10.59,1.5,2.49,2.76,5.14,3.88,7.87.96,2.42,1.42,3.99,1.42,4.8,0,.42-1.11,1.38-3.34,2.88-1.46.96-2.42,1.69-2.92,2.19-.73-1.34-1.65-2.72-2.76-4.15-1.77-2.23-3.65-4.11-5.68-5.64-2.49-2.3-4.53-4.03-6.14-5.18-2.34-1.65-4.45-2.46-6.26-2.34.88-2.38,1.81-4.41,2.69-6.1h0ZM56.13,21.25h.15c3.26,0,7.83,3.11,13.7,9.36,2.61,2.72,4.99,5.49,7.14,8.29-.88.65-1.8,1.42-2.76,2.38-1.57,1.54-2.49,2.84-2.84,3.91-1.3-1.88-4.07-5.3-8.33-10.29-1.11-1.92-2.76-3.76-4.95-5.57-1.84-1.53-3.8-2.76-5.83-3.68.04-.19.04-.35.04-.46v-.11c1.65-1.69,2.88-2.96,3.69-3.84h0Z"/>
    <path class="cls-2" d="M55.51,35.06c0-.27-.04-.42-.11-.46-.15.04-.27,0-.38-.04-3.34,3.19-8.37,7.79-15.04,13.89h1.65c1.04-1,2.15-2.03,3.3-3.11,7.06-6.68,10.59-10.09,10.59-10.29h0Z"/>
    <path class="cls-2" d="M71.37,48.46h-2.03c-3.49,3.11-9.56,8.37-18.15,15.77-6.41,5.53-10.44,9.21-12.01,11.02,0-.27-.04-.42-.08-.46-.08.04-.12,0-.12-.04-.19.04-.42.12-.61.19-1.57-3.53-3.57-6.68-5.95-9.44-1.46-1.73-2.99-3.19-4.64-4.41,3.34-2.92,7.98-7.14,13.85-12.63h-1.65c-.84.8-1.73,1.61-2.65,2.42-6.95,6.33-10.44,9.48-10.44,9.52v.04c-1.96-1.38-4.03-2.42-6.22-3.11,3.41-2.88,6.83-5.83,10.21-8.86h-1.73c-3.49,3.26-6.68,6.1-9.48,8.6-.15-.04-.31-.08-.42-.12l-.04.73.46.31c-2.84,3.57-5.64,10.17-8.4,19.73v.04c-.27.42-.54.8-.77,1.23,0,.27.04.42.11.5-1.19,1.92-2.65,4.95-4.45,9.1,0,.27.04.42.08.46.04.04.08.04.15.04.15.19.61.27,1.42.27,1.38,0,3.84-1.11,7.41-3.3,1.73-1.04,2.99-1.84,3.8-2.42l.31.08c.08-.11.15-.19.27-.27,2.34-.65,5.99-2.03,10.94-4.07,3.26-1.34,5.6-2.38,7.02-3.07l.73,1.27c.5,0,.81-.23.88-.73,1.65-1.65,7.71-6.95,18.27-15.81,7.33-6.18,11.97-10.36,13.93-12.55h0ZM25.08,61.47c4.03,2.69,6.33,4.41,6.91,5.22.81,1.11,2.07,3.26,3.84,6.49l1.23,2.23c-2.72.92-6.37,2.34-10.94,4.3-2.26.96-4.03,1.69-5.33,2.27,2.04-2.42,3.03-3.76,3.03-4.11-.04-.35-.04-.58-.04-.69-.88-.12-2.11.23-3.76,1.04-.73.34-1.27.65-1.65.92.42-.5.92-1.07,1.42-1.73.96-1.31,1.46-2.07,1.46-2.3,0-.27,0-.42-.04-.42l-.12-.08c-1.31-.04-2.76.73-4.41,2.26-.19.19-.38.38-.58.57.27-.5.54-1.04.85-1.65.81-1.76,1.23-2.84,1.23-3.26-.04-.19-.04-.35-.04-.46-1.38.04-2.92,1-4.64,2.88.96-2.11,2.15-4.84,3.57-8.17,1.77-4.26,2.84-7.02,3.26-8.37.96.61,2.53,1.65,4.76,3.07h0ZM16.06,74.67l.08.11s-.34.61-.92,1.73c-.58,1.11-.84,1.77-.84,1.92,0,.38.08.65.27.81,0,.27,0,.42.04.46l.11.08.42.08c.5,0,1.11-.35,1.8-1.07.42-.42.77-.88,1.04-1.34l.08.12c-.08.12-.35.5-.84,1.11-.42.61-.65,1-.65,1.11,0,.27.04.46.15.5.04.04.15.04.35.08.19-.15.38-.35.58-.54.04.08.11.15.15.19.08.08.27.11.54.11.46,0,1.19-.27,2.23-.84,1.04-.58,1.57-.84,1.65-.84-.11.19-.77.96-1.96,2.23-.73.85-1.19,1.5-1.46,1.96-2.99,1.42-5.83,2.76-8.48,4.07-1.5.73-2.53,1.23-3.19,1.57.5-.88,1.3-2.3,2.34-4.26,1.53-2.88,2.38-4.61,2.49-5.26.96-.88,2.3-2.26,4.03-4.07h0ZM38.74,75.79s-.04-.08-.04-.11c.08-.04.15-.12.23-.15-.08.08-.15.15-.19.27h0Z"/>
    <path class="cls-2" d="M61.54,44.35c-.15.04-.27,0-.38-.04-1.38.65-3.3,2.3-5.76,4.91-2.84,2.99-5.18,5.1-6.98,6.37-2.11,1.42-4.91,3.68-8.41,6.72-3.65,3.15-5.45,4.95-5.45,5.41,0,.27.04.46.15.54.04.04.15.04.35.08,5.18-4.18,9.9-8.1,14.16-11.67,8.29-6.98,12.44-10.94,12.44-11.82,0-.27-.04-.46-.11-.5h0Z"/>
  </g>
</svg>