<?xml version="1.0" encoding="UTF-8"?>
<svg id="Layer_2" data-name="Layer 2" xmlns="http://www.w3.org/2000/svg" xmlns:xlink="http://www.w3.org/1999/xlink" viewBox="0 0 98.62 81.17">
  <defs>
    <style>
      .cls-1 {
        fill: url(#linear-gradient);
      }

      .cls-1, .cls-2, .cls-3, .cls-4 {
        stroke-width: 0px;
      }

      .cls-3 {
        fill: #52823e;
      }

      .cls-4 {
        fill: #999;
      }
    </style>
    <linearGradient id="linear-gradient" x1="46.97" y1="8.14" x2="46.97" y2="104.61" gradientUnits="userSpaceOnUse">
      <stop offset=".37" stop-color="#fff"/>
      <stop offset="1" stop-color="#c6c6c6"/>
    </linearGradient>
  </defs>
  <g id="Layer_1-2" data-name="Layer 1">
    <polygon class="cls-4" points="98.62 26.29 76.94 5.45 42.44 35.23 28.85 21.61 5.44 44.6 43.74 81.17 98.62 26.29 98.62 26.29"/>
  </g>
  <g id="Layer_2-2" data-name="Layer 2">
    <path class="cls-4" d="M.03,39.65s.04.12.08.15l38.3,36.58c.08.08.15.11.27.11s.19-.04.27-.11l54.88-54.88s.08-.12.12-.15v-.19c-.04-.08-.08-.15-.12-.19L72.14.12c-.08-.08-.15-.12-.23-.12-.11,0-.19.04-.27.12l-34.23,29.55-13.36-13.39c-.08-.08-.15-.12-.27-.12s-.19.04-.27.12L.11,39.26s-.08.12-.08.19c-.04.04-.04.12,0,.19H.03ZM71.87.92l21.15,20.3-54.34,54.34L.91,39.53l22.87-22.45,13.32,13.36c.08.08.15.11.27.11.08,0,.15-.04.27-.08L71.87.92h0Z"/>
    <path class="cls-1" d="M93.02,21.22L71.87.92l-34.23,29.55c-.11.04-.19.08-.27.08-.12,0-.19-.04-.27-.11l-13.32-13.36L.91,39.53l37.76,36.04,54.34-54.34h0Z"/>
  </g>
  <g id="Layer_3" data-name="Layer 3">
    <path class="cls-3" d="M70.76,10.52v-.08c-.5-1.92-1.3-2.34-2.42-1.31-1.65,1.57-2.65,2.38-2.99,2.38-1.42,0-2.61,1.34-3.57,4.03-.38,1.11-.81,2.76-1.27,4.95h3.19c.04-.61.08-1.04.12-1.31,0,.42,0,.88.04,1.31h6.52c.04-.5.04-.96.08-1.31.04.42.04.88.04,1.31h1.84c.08-1.11.23-2.88.42-5.26h.08c0,1.27-.12,3.03-.35,5.26h1.34v-4.18l.46-1.92v-.04c.31.92.38,2.19.23,3.8-.08.88-.19,1.69-.34,2.34h4.45v-.19s0,.12.04.19h5.91v-1.23c-.27-.77-.69-1.11-1.19-1.07-.58.19-.92.31-1.11.31.04-.65.04-1.11.04-1.46,0-.58-.19-.96-.54-1.15-.23.35-.58,1-1.04,2.03-.5,1.11-.81,1.8-.92,2,.08-.96.12-1.77.08-2.42-.04-1.27-.31-1.88-.88-1.88-.27,0-.46.08-.58.23-.08.08-.15.19-.23.31v-.08c.35-.88.27-1.65-.19-2.27-.73-.69-1.38-1.27-1.88-1.76-.23.11-.58.46-1.07,1-.58-.42-.96-1.23-1.15-2.34-.11-.81-.73-1.23-1.84-1.23-.27,0-.5.15-.77.42-.15.15-.35.34-.54.61h0ZM75.71,16.96c.12-1.19.19-2.07.19-2.57v-.04c.12.42.12,1.5-.08,3.18v-.27c-.04.08-.08.12-.12.12v-.42h0ZM70.53,16.7l.19-1.57c.04,1.34,0,2.46-.19,3.38v-1.8h0ZM76.9,20.23v-.12c0-.65.08-1.15.23-1.54.04.73-.04,1.31-.23,1.65h0ZM64.31,13.01v-.08c.08.08.04.38-.08.88v-.04l.08-.77h0ZM66.23,12.17h.19c-.12.73-.46,2-.96,3.84h-.08v-2.26c.08-.58.35-1.07.85-1.57h0ZM67.46,15.7v-1.88l.19-.58c.04.42,0,1.27-.19,2.46h0Z"/>
    <path class="cls-3" d="M72.34,20.5h-1.84c.04,1.04,0,2-.08,2.92h-.08c-.04-.27-.08-.73-.08-1.46.04-.54.08-1.04.12-1.46h-6.52c-.04,2.8-.19,5.41-.5,7.79v-3.72c.12-.65.19-1.53.27-2.69.04-.54.04-1,.08-1.38h-3.19c-.08.35-.15.73-.23,1.15h-.08c-.04-.12-.08-.5-.08-1.15h-2.8s-.04.04-.04.08c-.35,1.5-.81,2.22-1.38,2.22-.61-.11-.96-.15-1.04-.11-.04.04-.35.38-.84,1.07-.04-.15-.08-.27-.15-.38-.12-.23-.35-.34-.65-.34-.34,0-.77.54-1.27,1.61-.38.88-.65,1.65-.81,2.3-1.04.04-1.69.54-1.88,1.5-.19,1.19-.46,1.88-.73,2.03v-.08c-.04-.27-.08-.5-.15-.69-.12-.34-.42-.54-.88-.54-.77,0-1.34.84-1.73,2.5-.04.27-.12.5-.15.73h1.46c.08-.5.19-1.08.34-1.8,0,.34-.04.92-.12,1.8h4.3v-2.38c.42-1.54.65-2.38.69-2.57h.11c0,.96-.11,2.38-.31,4.22-.04.19-.04.46-.08.73h1.27c.08-.88.15-1.76.27-2.72-.04.23-.08,1.15-.11,2.72h4.07v-6.29c0-.5.04-1.15.15-1.96.04,3.19,0,5.91-.04,8.25h10.63c.12-.73.42-1.73.92-3.07h.04c-.04,1.27-.04,2.3.08,3.07h1.23c-.08-.58-.15-1.42-.27-2.53-.08-1.11-.15-1.92-.27-2.42.46-.04.77-.46.92-1.19.12-.81.19-1.27.23-1.42h.38s-.12,1.3-.35,3.84c-.15,1.65-.38,2.92-.65,3.72h1.15l.08-.46c.73,0,1.31-.77,1.73-2.3.34-1.61.5-2.5.54-2.69.04.19.08.73.12,1.69.12.88.5,1.3,1.11,1.3.54,0,.96-.54,1.27-1.61.38-1.5.61-2.26.65-2.34,0,.11-.04.58-.15,1.34,0,.73.35,1.08,1.08,1.08.42,0,.58,0,.38-.04.61-1.34,1.08-2.3,1.34-2.92.5-1.11.88-2.03,1.11-2.84.04.08.04.23.08.42s.23.27.5.27c.46,0,.58-.04.35-.11l.5-.92c.5.5,1.11.77,1.77.77.42,0,.57-.12.46-.31v-2.23h-5.91c.08.65.04,1.3-.15,1.96h-.04v-1.34l.15-.61h-4.45c-.12.38-.23.73-.35,1.04v-1.04h-1.34c-.04.5-.11,1-.19,1.57l-.11-.12c0-.11.04-.58.15-1.46h0ZM61.55,20.61h.08l-.54,5.87c-.19,2.42-.31,4.3-.35,5.72-.11-.88-.19-2.3-.19-4.22,0-1.34.08-2.5.23-3.46,0-.04.27-1.34.77-3.91h0ZM54.91,24.49v-.12c.04.38-.04.92-.15,1.61-.08.38-.19.92-.34,1.65v-1.27c.27-.73.42-1.34.5-1.88h0ZM52.61,25.56c0-.27.04-.46.15-.58.12-.08.19-.15.23-.23.27.58.35,1.15.23,1.69-.04-.08-.15-.19-.34-.31-.19-.12-.27-.31-.27-.58h0ZM50,29.82c.23-.73.35-1.11.38-1.23v-.04c.08.42.04.96-.11,1.69-.08.42-.19,1.04-.38,1.88l-.08-.27c-.04-.11-.08-.42-.08-.88,0-.27.08-.65.27-1.15h0ZM67.19,31.05l.27-.08-.38,1.23.12-1.15h0ZM75.83,22.91c.31.54.38,1.38.23,2.5-.12.96-.35,1.88-.69,2.69-.15-.77-.23-1.38-.23-1.8,0-.88.23-2,.69-3.38h0ZM72.3,29.36c.15-1.08.27-2.19.35-3.38.31.08.46.11.5.11-.27,1.57-.57,2.69-.84,3.26h0Z"/>
    <path class="cls-3" d="M60.13,20.5c-.04-.19-.04-.38-.04-.61-.04-.65-.31-1.15-.84-1.46-.23.19-.38.31-.42.42-.04.04-.04.08-.04.15-.11-.57-.19-1.04-.31-1.34-.42.27-.81,1.19-1.15,2.84h2.8Z"/>
    <path class="cls-3" d="M51.61,32.39h-4.3c-.08.61-.15,1.38-.27,2.3v-.08c-.08-.04-.11-.12-.15-.15-.04-.08-.08-.27-.08-.54,0-.11.08-.65.27-1.54h-1.46c-.42,1.73-.65,2.61-.69,2.69-.5-.27-.73-.73-.73-1.42-.04-.61-.31-1-.81-1.11-.96.81-1.61,1.92-2,3.42-.58,2.23-.88,3.45-1,3.65-.04-.5-.08-.88-.12-1.15-.04-.5-.31-.84-.73-1.07-.5.04-.81.42-.92,1.15l-.27,1.53-.08-.08c-.04-.27-.08-.54-.15-.73-.12-.42-.31-.77-.61-1.07-.73.58-1.19,2.07-1.3,4.41v.19c-.42-1.92-.73-2.88-1-2.88s-.42.04-.5.12t-.04.08c.04-.69,0-1.27-.04-1.73-.08-.84-.38-1.27-.96-1.27-.27,0-.42.04-.46.15-.04.04-.04.08-.04.12,0,1.15-.04,2-.08,2.49h-.04c-.38-1.65-.88-3.07-1.5-4.18-.27-.46-.96-1.57-2.15-3.3h-.12c-.5.84-.73,2.19-.73,4.07-.35-1.27-.65-2.26-.84-2.92-.15-.42-.31-.81-.46-1.15h-1.88c-.12.34-.23.81-.35,1.38l-.04-.04c-.08-.46-.19-.92-.31-1.34h-2.42c.27,2.23.38,3.61.38,4.18l-.04.73-.54-4.91h-1.88l.42,9.4c0,.5-.08,1.3-.19,2.49h2.38c-.12-1.88-.15-3.76-.15-5.64h.08c.04.73.19,2.61.46,5.64h1.57c-.23-1.23-.42-2.57-.54-3.99-.19-1.84-.38-4.38-.54-7.6v-.08c.35,1.92.69,4.45,1.04,7.64.19,1.57.35,2.92.5,4.03h1.19c-.04-.27-.08-.57-.12-.88-.34-2.92-.5-4.61-.5-5.07,0-1.15.11-2.88.38-5.18l.15-.08c.35,1.8.61,5.57.81,11.21h1.07c-.12-1.73-.19-3.03-.19-3.91v-.04c.27,1.8.46,3.11.5,3.95h6.91c-.11-.8-.19-1.5-.23-2,.27.46.5,1.11.69,2h3.15v-.73l.38-2.53c.04.88.04,1.96-.04,3.26h2.03c0-1.84.12-3.22.38-4.11.04,1.42.08,2.8.04,4.11h9.21v-1.8c.19-1.42.34-2.99.46-4.8,0,1.92-.15,4.11-.42,6.6h1.5c-.11-1.11-.19-1.88-.19-2.3,0-.81.31-4.03.88-9.59h-1.27c-.12.96-.23,2.15-.42,3.65v-3.65h0ZM48.85,37.5h-.08l.19-3.45c.12,1.27.08,2.42-.12,3.45h0ZM42.32,37.19c.46-1.57.73-2.57.84-3.03h.04c.15,1,.04,2.46-.31,4.38v-.08s-.15-.23-.35-.5c-.15-.23-.23-.5-.23-.77h0ZM29.85,39.53c.12.61.19,1.15.19,1.61-.12-.58-.19-1.11-.19-1.54v-.08h0Z"/>
    <path class="cls-3" d="M56.45,35.31l.08.19c.04.35.15,1.92.31,4.64.04.73.08,1.38.19,1.96-.19.12-.35.27-.54.38-.35.23-.54.84-.54,1.8h5.99c1.04-3.57,1.69-5.53,1.92-5.95,1.04.34,1.61.11,1.8-.65.54-.08.88-.11,1.04-.11.88,0,1.38-.12,1.57-.38.12-.15.19-.61.19-1.42-.15-1.34-.23-2.23-.27-2.65-.04-.19,0-.42.08-.73h-10.63c-.04.88-.08,1.69-.12,2.42v-2.42h-4.07c-.04,1.19-.12,2.72-.19,4.68-.12,3.03-.34,5.45-.62,7.21h3.22c.12-2.42.31-5.41.58-8.98h0ZM60.55,36.61l.19-1.54c.04,1.57,0,2.84-.19,3.76v-2.23h0ZM66.73,34.35c-.04.54-.23,1.04-.58,1.5v-.08c.08-.58.27-1.08.58-1.42h0Z"/>
    <path class="cls-3" d="M71.68,32.39h-2.38v.11c.12,1.11.46,2.15.96,3.07.5-.23.88-.92,1.19-2.04l.23-1.15h0Z"/>
    <path class="cls-3" d="M20.18,28.17c-.42.27-.65.62-.77,1.08-.04.27-.08.65-.12,1.15h-.12c-.08-.31-.15-.54-.19-.69-.08-.27-.31-.54-.65-.77-.58.31-.96.88-1.11,1.69-.08.42-.12,1.04-.15,1.76h1.19c0-.19,0-.35.04-.54,0,.19,0,.35.04.54h1.65v-.35l.19-.04.04.38h1.88l-.04-.27c.04-.27.04-.42.04-.46h.08c.04.27.08.5.12.73h2.42c-.5-1.88-1.34-3.45-2.53-4.76-.27.08-.5.46-.65,1.19-.12.38-.19.92-.27,1.57h-.35c0-.5,0-.88-.04-1.15-.08-.46-.31-.81-.69-1.08h0Z"/>
    <path class="cls-3" d="M15,31.55c0,.27-.04.58-.08.84h2.15c-.12-.15-.42-.38-.84-.69-.42-.31-.65-.46-.69-.46-.27,0-.46.04-.54.15-.04.04-.04.12,0,.15h0Z"/>
    <path class="cls-3" d="M14.92,32.39c-.04.27-.12.54-.23.81-.19-.08-.35-.12-.54-.08-.19.04-.31.04-.34.04-.23.96-.42,2.34-.54,4.14h-.04c.11-.42-.12-.92-.77-1.46-.58.23-.84.65-.81,1.23.04.81,0,1.23-.04,1.3-.04-.04-.12-.27-.27-.77-.11-.35-.35-.69-.69-1-.35.19-.65.69-.92,1.42-.12.38-.23.77-.31,1.11,0,.27.08.77.19,1.46.19.92.38,1.38.62,1.38.46,0,.61,0,.42-.04.19-.35.27-.69.27-1h.04c.12.38.19,1.04.19,1.92l.65.15c.42,0,.58-.04.46-.15.11-.5.23-.88.31-1.15h.12v1.15l.65.15c.69,0,1.08-.84,1.11-2.57-.12-1.8-.15-2.84-.15-3.03.12.23.19.35.23.35.27,1.34.23,3.45-.19,6.33v.19h4.03c-.11-1-.27-2.26-.38-3.76-.11-1.57-.15-2.65-.15-3.19,0-1.19.15-2.84.42-4.95h-3.34ZM16.53,37.3v-.08c.23,1.27.31,2.8.19,4.61-.11-.96-.19-2.49-.19-4.53h0ZM16.8,43.75v-.88s.08.15.08.35c.04.23,0,.42-.08.54h0Z"/>
    <path class="cls-3" d="M25.4,32.32v.08h1.88c-.31-.58-.65-1.08-1-1.42-.42.15-.69.61-.88,1.34h0Z"/>
    <path class="cls-3" d="M19.99,32.39h-1.65c.19,2.69.27,6.64.27,11.9h1.53c-.15-4.64-.23-7.14-.23-7.52,0-1.88.04-3.34.08-4.37h0Z"/>
    <path class="cls-3" d="M29.31,32.39h.12s-.04-.08-.08-.12c-.04.04-.04.08-.04.12h0Z"/>
    <path class="cls-3" d="M41.44,44.29h-2.03c-.04,1.11-.15,2.42-.27,3.84h-.08v-3.84h-3.15c.08.34.15.69.19,1.07.08.38.15.88.19,1.46.04.92.08,2.15.19,3.72h-.04c-.46-2.65-.81-4.72-1-6.25h-6.91c.04.27.04.46.04.65,0,.27-.04.42-.08.42-.08-.04-.15-.08-.19-.08-.04-.34-.04-.69-.08-1h-1.07c.04,1.27.08,2.65.12,4.14l-.04,1.46-.08-.04c-.19-1.04-.46-2.88-.73-5.57h-1.19c.19,1.8.35,2.95.38,3.45l-.08.04c-.31-1.04-.58-2.23-.77-3.49h-1.57c.11,1.5.27,3.26.46,5.29,0,.27-.04.5-.15.69-.04.11-.15.23-.27.38v-.04c-.19-2.11-.35-4.22-.42-6.33h-2.38c-.08.57-.15,1.27-.27,2.03v-.08c-.04-.69-.04-1.34-.04-1.96h-1.53v.81h-.15c-.04-.27-.04-.54-.08-.81h-4.03c0,2.3.92,3.84,2.73,4.64.31-.11.5-.27.58-.38.11-.27.19-.46.23-.5.42,1.23.65,1.96.77,2.23.34.8.77,1.38,1.27,1.69.35-.12.58-.65.73-1.54l.08.12s.31.73.84,2.07c.35.81.85,1.11,1.5.92.11.23.23.73.42,1.54.15.46.35.84.58,1.11h.96v-.08c-.04-.61-.08-1.11-.12-1.5-.04-.77,0-1.3.12-1.65.12.04.19.15.27.27.12.65.31,1.61.5,2.96h1.54c-.08-.73-.15-1.61-.27-2.69.19.54.46,1.42.81,2.69h14.7l.04-.38s.08.19.19.38h3.45v-.73c.65.42,1,.34,1.11-.23-.04-.73,0-1.23.04-1.42h.12c.04.23.15.73.31,1.54.12.35.19.61.31.84h.92c.65-.92,1.27-2,1.76-3.19.61-1.38.96-2.61,1.04-3.65.08.58.34,1.19.77,1.84.27-.12.46-.31.54-.58.08-.27.15-.42.19-.46.04.12.04.27.04.46.08.23.27.5.54.81.15-.04.31-.08.42-.19.12-1.23.19-2.03.31-2.42.35.19.69.23,1,.11.04-1.19.11-2.76.23-4.64h-3.23c0,.08,0,.15-.04.23v-.23h-1.5c0,.11,0,.27-.04.42v-.42h-9.21c-.04,3.34-.31,6.25-.73,8.67v-4.3c.15-.88.27-2.3.31-4.34v-.04h0ZM30.66,49.32v1.53h-.11c-.39-.81-.62-1.76-.69-2.88-.04-1.27-.08-2.15-.12-2.69.19,1.31.5,2.65.92,4.03h0ZM28.81,51.43h-.04l-.04-.88c.04.27.04.54.08.88h0ZM34.95,54.77c-.15-.31-.23-.81-.23-1.46v-.08c.04.19.11.73.23,1.54h0ZM43.21,49.89l-.04-2.23c0-1.11.08-1.96.19-2.49.04,1.92,0,3.49-.15,4.72h0ZM51.88,48.4c-.04.12-.04.19-.04.31-.04-.12-.04-.19-.04-.31h.08Z"/>
    <path class="cls-3" d="M25.78,56.19c0,.15,0,.31.04.5.27,1.38.69,2.45,1.23,3.18.19-.08.38-.19.5-.31v-1.92c-.08-.35-.15-.84-.23-1.46h-1.54Z"/>
    <path class="cls-3" d="M25.01,56.19h-.96c.12.15.27.27.42.38l.31-.12s.04-.04.15,0c.04.04.08-.08.08-.27h0Z"/>
    <path class="cls-3" d="M42.78,56.19c.04.08.08.15.12.27.19.39.27.73.27,1,0,.58-.23,2.23-.69,4.91h-.08v-4.84l.15-1.34h-14.7c.27,1,.54,2.23.88,3.65.73,2.76,1.5,4.14,2.26,4.14.42,0,.81-.42,1.07-1.27.19-.58.31-1.15.35-1.69h.04c.5,1.8,1.08,3.41,1.73,4.76.23-.11.42-.23.54-.34.31-.61.5-1.04.57-1.27.12-.31.19-.69.19-1.15-.19-1.61-.27-2.8-.27-3.53.15,1.07.35,2.53.58,4.41.27,1.57.77,2.96,1.46,4.18.77-.38,1.27-.65,1.5-.84.38-.27.58-.73.58-1.38-.12-1.15-.27-2.3-.38-3.45.23-.04.5-.11.84-.23l.04.19c.27,1.8.38,2.76.42,2.88.23,1.11.54,1.96.88,2.57.38-.58.58-1.38.58-2.42-.04-.46-.12-1.27-.27-2.38h.04c.12.34.23.61.31.73.08.15.27.42.61.77.58-.77,1-1.69,1.23-2.8.19-1.27.35-2.26.46-2.92h.04c.31,1.57.65,2.73,1.08,3.38.19-.04.34-.11.5-.23.31-2.49.5-4.41.54-5.76h-3.45ZM29.89,58.37s.15-.04.27-.04c.08.08.15.19.23.35.08.11.27.19.54.19s.42-.04.46-.15c-.04-.12-.04-.19,0-.19v-.42c.27.46.34,1.23.15,2.3-.12.81-.35,1.57-.62,2.3-.19-.23-.31-.35-.38-.35,0-.19-.15-.77-.42-1.8-.31-1.04-.46-1.57-.46-1.65,0-.27.08-.46.23-.54h0Z"/>
    <path class="cls-3" d="M61.82,44.6c.04-.12.08-.19.12-.31h-5.99c0,1.04.04,1.69.08,1.96.15.65.58,1.27,1.23,1.88.12-.04.27-.15.54-.42.27-.31.42-.5.46-.54-.04.23-.04.5.08.81.15.46.42.69.81.69.96,0,1.88-1.34,2.69-4.07h0ZM57.52,46.02c0-.5.04-.84.08-.96l.08-.08c.04.12-.04.46-.15,1.04h0ZM59.25,45.48c0-.34,0-.69.04-1.11.04.15.08.34.11.54.12.58.19,1,.19,1.27,0,.42-.08.73-.19.88h-.15c-.08-.57-.12-1.04-.15-1.42.04-.04.12-.12.15-.15h0Z"/>
    <path class="cls-3" d="M49.04,56.19h-.92c.11.27.27.5.42.61.15-.19.31-.42.5-.61h0Z"/>
  </g>
  <g id="Layer_4" data-name="Layer 4">
    <path class="cls-2" d="M71.72,5.95l-.11.08c-.31.15-.69.38-1.11.69-.35-.27-.69-.54-1-.73-.04.04-.08.08-.15.08-.04.04-.08.23-.08.5.23.19.46.42.69.61-1.42,1.11-3.34,2.96-5.83,5.53-2.07,2.15-5.22,5.41-9.4,9.83-1.57,1.57-5.37,5.1-11.4,10.63-3.38,3.07-5.57,5.14-6.6,6.22-3.42-3.19-6.06-5.68-7.94-7.45-2.99-2.76-5.33-4.53-7.06-5.33l1.23-1.23c0-.27-.04-.39-.08-.42-.08-.04-.12-.08-.12-.11h-.58c-.27.27-.73.73-1.38,1.38-.04,0-.12,0-.15-.04.04.04.08.04.11.08-1.38,1.34-3.65,3.49-6.75,6.41-3.61,3.42-6.06,6.06-7.41,7.98.08.08.12.15.15.23.04.04.23.08.5.08.42,0,.54,0,.35-.04.08-.11.15-.23.27-.34,0,.27,1.88,2.23,5.6,5.91,4.18,4.14,6.79,6.87,7.83,8.17,1.8,2.26,4.95,5.3,9.44,9.13,2.26,1.92,4.37,3.61,6.29,5.07.42,0,.58-.08.38-.19l.12-.38c-8.83-8.1-18.54-17.54-29.17-28.32l-.04.04c1.77-2.15,4.61-5.06,8.52-8.79,2.07-1.96,3.61-3.42,4.61-4.37,1.57,1.3,4.3,3.91,8.17,7.83,3.07,3.11,5.22,4.95,6.41,5.57,0,.27.04.42.12.46.04.04.15.04.34.04.12-.08.19-.15.31-.27.27,0,.42-.04.46-.15v-.23c5.03-4.53,11.86-11.01,20.53-19.42,6.72-6.49,11.02-10.78,12.9-12.82,8.79,7.75,13.82,12.17,15.04,13.2-7.41,5.83-15.81,13.85-25.29,24.02-11.74,12.66-19.54,20.76-23.41,24.29.08.04.12.12.15.19.04.04.19.08.46.08,1.8,0,5.72-3.42,11.78-10.21,6.37-7.56,10.25-12.13,11.63-13.66,2.23-2.42,7.41-7.29,15.5-14.66,6.91-6.26,10.36-9.63,10.36-10.09,0-.27-.04-.42-.15-.46-.12.04-.23.04-.35,0-2.11-1.96-4.8-4.41-8.1-7.29-3.03-2.65-5.41-4.64-7.14-5.99.42-.46.61-.73.61-.85,0-.27-.04-.42-.08-.46h0Z"/>
  </g>
</svg>