<?xml version="1.0" encoding="UTF-8"?>
<svg id="Layer_2" data-name="Layer 2" xmlns="http://www.w3.org/2000/svg" xmlns:xlink="http://www.w3.org/1999/xlink" viewBox="0 0 91 88.89">
  <defs>
    <style>
      .cls-1 {
        fill: url(#linear-gradient);
      }

      .cls-1, .cls-2, .cls-3, .cls-4 {
        stroke-width: 0px;
      }

      .cls-3 {
        fill: #c60000;
      }

      .cls-4 {
        fill: #999;
      }
    </style>
    <linearGradient id="linear-gradient" x1="43.18" y1="8.86" x2="43.18" y2="115.4" gradientUnits="userSpaceOnUse">
      <stop offset=".37" stop-color="#fff"/>
      <stop offset="1" stop-color="#c6c6c6"/>
    </linearGradient>
  </defs>
  <g id="Layer_1-2" data-name="Layer 1">
    <polygon class="cls-4" points="89.73 27.6 66.28 6.29 49.28 19.08 32.7 5.45 5.45 25.02 22.45 45.44 6.29 64.59 28.86 86.32 46.29 73.53 63.75 88.89 91 62.06 73.53 45.44 89.73 27.6 89.73 27.6"/>
  </g>
  <g id="Layer_2-2" data-name="Layer 2">
    <path class="cls-4" d="M61.25.85c-.12,0-.19.04-.27.08l-16.77,12.63L27.9.12c-.08-.08-.15-.12-.23-.12-.12,0-.19.04-.27.08L.15,19.65s-.08.12-.11.15c-.04.08-.04.15-.04.23.04.04.08.11.11.19l16.77,20.15L.96,59.3c-.08.08-.12.15-.12.27,0,.08.04.15.12.23l22.57,21.72c.08.08.15.11.27.11.08,0,.15-.04.23-.08l17.19-12.59,17.23,15.16c.08.04.15.08.27.08.08,0,.15-.04.23-.11l27.25-26.83s.08-.12.12-.15v-.19c-.04-.08-.08-.15-.12-.19l-17.19-16.35,15.97-17.58c.04-.08.08-.15.08-.27s-.04-.23-.12-.27L61.48.96c-.08-.08-.15-.11-.23-.11h0ZM61.22,1.73l22.91,20.84-15.93,17.58c-.08.04-.12.15-.12.27,0,.08.04.15.12.23l17.19,16.35-26.71,26.33-17.19-15.12c-.08-.08-.15-.12-.23-.12-.11,0-.19.04-.27.08l-17.16,12.59L1.77,59.53l15.93-18.88c.04-.08.08-.15.08-.27s-.04-.19-.08-.23L.96,20.04,27.63.88l16.35,13.43s.12.08.23.08c.08,0,.15-.04.23-.08L61.22,1.73h0Z"/>
    <path class="cls-1" d="M84.13,22.57L61.22,1.73l-16.77,12.59c-.08.04-.15.08-.23.08-.12,0-.19-.04-.23-.08L27.63.88.96,20.04l16.73,20.11s.08.12.08.23-.04.19-.08.27L1.77,59.53l22.07,21.22,17.16-12.59c.08-.04.15-.08.27-.08.08,0,.15.04.23.12l17.19,15.12,26.71-26.33-17.19-16.35c-.08-.08-.12-.15-.12-.23,0-.11.04-.23.12-.27l15.93-17.58h0Z"/>
  </g>
  <g id="Layer_3" data-name="Layer 3">
    <path class="cls-3" d="M64.94,13.43c-.73-1.42-1.46-2.65-2.19-3.61-.27.27-.42.61-.46,1.04-.04.19-.08.46-.12.77l-.04-.04c-.69-2.3-1.38-2.8-2.03-1.46-1.27,2.57-2,3.92-2.15,4.03-.15-.31-.46-.54-.92-.73-.38-.15-.73-.23-1.07-.23s-.62.19-.77.61c-.12.23-.19.54-.23.92l-.15-.04c-.27-1.34-.69-2.03-1.27-2.03-.92,0-1.69.73-2.34,2.15-.35.73-.73,1.92-1.11,3.57-.12-.12-.19-.23-.31-.35-.19-.19-.46-.27-.73-.27s-.46.04-.65.12c-.12.04-.19.08-.23.08v1.57h2.72l-.04-.04c.42-1.27.73-2.23,1-2.96.5-1.34,1.04-2.23,1.61-2.69.12.27.31.81.58,1.53.27.73.38,1.27.38,1.61,0,.27,0,.42-.04.42-.04-.04-.12-.08-.15-.04-.27-.08-.5-.35-.77-.81-.19-.42-.46-.62-.81-.62-.42,0-.81.54-1.07,1.61-.19.73-.31,1.38-.35,1.96h2.23c.04-.31.12-.61.19-.96.15.19.27.54.38.96h5.99c-.04-.46-.04-.92-.04-1.34.08.42.15.84.23,1.34h1.61c-.15-1.73-.27-3.46-.35-5.18v-.04c.04.31.31,2.03.77,5.22h1.5c-.08-1.42-.08-2.69.04-3.76l.04.11c.15.81.35,2,.58,3.65h1.11c-.04-1.04,0-2.04.04-2.99v-.08c.11.5.31,1.54.5,3.07h1.54c.04-.19.04-.31.04-.42.04.12.08.27.12.42h3.03c-.23-.65-.61-.96-1.11-.96-.27,0-.5.04-.61.12-.04.04-.15.15-.27.35-.12-.42-.27-.77-.38-1.04-.19-.5-.5-.77-.88-.77-.42.04-.62.08-.65.08-.88-1.77-1.5-3.07-1.92-3.88h0ZM62.98,13.59c.19-.23.27-.42.27-.62v-.04c.15.34,0,1-.5,1.96v-.15s-.04-.04-.08-.04v-.42c0-.23.12-.46.31-.69h0ZM57.26,15.89c.08.46.12.77.12.96h-.31c-.35-.84-.65-1.54-.96-2.11.04-.04.35.04,1,.19,0,.19.04.54.15.96h0ZM58.84,15.7c.12.5.08,1.08-.04,1.69l-.15-.27c0-.46.08-.92.19-1.34v-.08h0ZM55.34,18.31c.04-.31.23-.84.5-1.57.15.34.23.58.27.73.04.42-.15.81-.58,1.19l-.19-.35h0Z"/>
    <path class="cls-3" d="M63.75,19.54h-1.5c.12.8.23,1.69.34,2.69.46,3.45,1.11,6.14,1.96,8.06.19-.08.38-.23.54-.5-.5-3.07-.84-5.41-1.04-6.99-.15-1.19-.27-2.26-.31-3.26h0Z"/>
    <path class="cls-3" d="M67.59,19.54h-1.54c.04.42.12.84.15,1.34.27,2.15.38,3.53.38,4.11,0,.77-.12,1.38-.31,1.84-.46-2.61-.73-5.03-.77-7.29h-1.11c.15,1.19.34,2.65.54,4.3.42,3.57.61,5.64.61,6.18,0,.12-.04.27-.08.46h2.11c.15-.42.23-.81.27-1.15,1.57-.38,2.84-1.15,3.88-2.34.88-1,1.38-2,1.5-3.03.54.23.88.23,1,0,.04-.04.04-.27.04-.61,0-.46-.19-1-.61-1.57-.38-.54-.77-.92-1.19-1.19-.11.11-.23.34-.38.69-.08.23-.31.35-.65.35-.27,0-.42,0-.42-.04l.08-.04c-.04-.65-.08-1.19-.19-1.65-.04-.11-.08-.23-.11-.34h-3.03c.19.84.38,2.11.5,3.8.19,2.11.38,3.65.65,4.64-.08.11-.31.15-.69.15-.58-2.57-.84-4.87-.84-6.91,0-.23.04-.61.15-1.11.04-.23.04-.42.08-.58h0ZM69.66,19.92v-.11c.84,2.53,1.27,4.41,1.27,5.64,0,.19-.42.77-1.27,1.73,0-.5-.04-1.3-.11-2.34-.12-1.07-.15-1.69-.15-1.88,0-.58.08-1.61.27-3.03h0ZM66.32,27.21v-.04c.34.73.54,1.38.54,2.03,0,.42-.04.69-.15.77l-.12-.27c-.19-1.15-.27-2-.27-2.49h0Z"/>
    <path class="cls-3" d="M61.83,19.54h-1.61c.19,1.27.38,2.88.5,4.8h-.15c-.31-1.65-.5-3.22-.54-4.8h-5.99c.08.42.12.96.12,1.61.04.73.04,1.73.04,2.99h-.08c-.04-.12-.27-.62-.61-1.46-.27-.58-.42-1.04-.42-1.34,0-.19.12-.77.38-1.8h-2.23v.15c-.12,0-.19-.04-.31-.08l-.04-.08h-2.72c.27.58.35,1.42.19,2.57-.42-.5-.77-.92-1.04-1.23-.5-.54-.92-.81-1.3-.81-.58,0-.92.61-1.11,1.84,0,.04-.04.84-.11,2.42-.08-.04-.19-.19-.35-.54-.15-.27-.38-.38-.69-.38-.54-2.07-1.15-3.11-1.84-3.11-.61,0-1.04.38-1.31,1.19-.19.54-.31.96-.42,1.23-.15-.42-.31-.77-.46-1.11-.04.04-.08.08-.11.15-.04-.15-.12-.27-.15-.38-.31-.73-.73-1.08-1.23-1.08-.27,0-.54.08-.77.27-.11.11-.19.19-.31.31-.11-.5-.27-.96-.46-1.34h-1.11c.27.42.54,1.34.84,2.8,0,.27-.08.42-.27.46-.12.04-.19.04-.31.08-.34-.27-.5-.84-.5-1.69.08-.81.11-1.34.08-1.65h-2.84c-.04.31-.04.65-.08,1.04-.08,1.88-.12,3.34-.08,4.45h10.02c-.19-.42-.38-.92-.58-1.42-.19-.81-.31-1.19-.31-1.23,0-.27.04-.42.08-.54.04-.12.08-.19.08-.23v-.08c.23.38.46,1.04.69,2,.11.62.23,1.11.34,1.5h5.37c-.04-.31-.12-.61-.15-.92v-.08c.15.31.27.65.34,1h1.34c-.15-.88-.23-1.65-.23-2.38,0-1.19.04-2.07.15-2.57.11,2.07.23,3.72.34,4.95h2.88c-.04-.31-.04-.58-.04-.8.04-.35.08-.5.08-.54h.04c.12.42.27.84.38,1.34h2.11c-.12-1.65-.23-2.92-.31-3.76.12.31.31,1.57.61,3.76h1.42c.04-.42.04-.73.08-.92v-.08c.04.35.08.65.12,1h1c-.15-1.8-.31-3.3-.42-4.53.19.92.46,2.42.81,4.53h3.72c-.23-1.88-.42-3.68-.58-5.49h0ZM55.84,19.92l.69-.27s.04.08.08.08l-.19,1.92h-.12l-.46-1.73h0ZM51.66,20.84c.04-.08.12-.19.27-.31.12-.11.23-.15.27-.15,0,.08-.04.19-.12.31-.11.15-.23.27-.35.31l-.08-.15h0ZM46.13,21.46v-.04c.15.42.12.77-.11.96l.11-.92h0ZM50.97,24.68h-.04c-.12-.81-.19-1.77-.19-2.88.27,1.15.35,2.11.23,2.88h0ZM38.07,21.46v-.04c.35.88.65,1.84,1,2.8h-.04c-.08-.27-.15-.46-.23-.61-.12-.31-.35-.46-.69-.46-.15,0-.27,0-.35.04v-.08c0-.27.04-.58.12-.84.11-.5.19-.77.19-.81h0Z"/>
    <path class="cls-3" d="M31.28,19.8c0-.08,0-.15.04-.27h-1.69c.27,1.76.38,3.26.38,4.53,0,.46-.04.69-.08.73-.19-1.08-.5-2.84-.88-5.26h-3.99v1.15c0,.42-.04.5-.11.15-.27-.15-.5-.58-.77-1.3h-3.38v.84h-.04s-.08-.15-.08-.58c.04-.12.04-.19.08-.27h-1.27c.11,1.23.23,3.07.38,5.49h4.11c-.11-1.73-.27-3.15-.38-4.26v-.04c.38.5.73,1.42,1.04,2.73.11.42.23.96.38,1.57h1.92c-.11-1.19-.11-2.26,0-3.22.31.88.58,1.96.84,3.22h4.11c-.31-.58-.5-1.27-.58-2.15-.04-.19-.04-1.23-.04-3.07h0ZM20.8,21.72h.08c.04.42.08,1.15.15,2.23-.15-.8-.23-1.53-.23-2.23h0Z"/>
    <path class="cls-3" d="M32.43,25.02v.54h-.11c-.15-.15-.31-.35-.42-.54h-4.11c.11.58.23,1.23.35,1.92.19,1.19.35,2.38.46,3.53h3.88l-.35-2.92v-.08c.42.92.65,1.69.65,2.3,0,.27-.04.5-.08.69h6.6c-.5-1.88-.85-3.42-1.11-4.61.35,1.19.73,2.73,1.19,4.61h14.28c-.46-2.46-.73-4.26-.84-5.45h-2.88c.04.73.12,1.34.15,1.77h-.04c-.15-.61-.27-1.19-.38-1.77h-1.34c.12.42.19.84.23,1.34-.04.04-.08.08-.08.04-.12-.42-.23-.88-.35-1.38h-5.37c.12.42.19.73.23.84-.19-.27-.34-.54-.54-.84h-10.02ZM43.1,26.71v-.08l.77,3.22-.12.04c-.27-1.11-.5-2.19-.65-3.19h0ZM47.21,27.29v-.08c.15.38.27,1.07.31,2.11l-.04-.12-.27-1.92h0Z"/>
    <path class="cls-3" d="M24.64,26.44c-.19.08-.27.23-.27.46,0,.19.23,1.38.65,3.57h2.99c-.58-2.03-.96-3.84-1.08-5.45h-1.92c.12.42.19.88.31,1.38-.35-.04-.58,0-.69.04h0Z"/>
    <path class="cls-3" d="M19.88,25.02c.04.35.04.69.08,1.04.11,1.65.23,3.15.38,4.41h.96v-2.15l.08.11c.15.73.31,1.38.46,2.03h2.53s-.04-.08-.04-.12c-.12-2.03-.23-3.84-.35-5.33h-4.11ZM21.07,25.37v-.08c.15.96.23,1.8.23,2.49-.15-.92-.23-1.73-.23-2.42h0Z"/>
    <path class="cls-3" d="M57.11,25.02h-1.42c.04.31.12.61.15.96.31,1.88.54,3.38.65,4.49h2.26c-.19-2.03-.34-3.88-.46-5.45h-1c.23,1.88.34,3.53.34,5.03h-.08c-.31-2.49-.46-3.95-.46-4.41v-.61h0Z"/>
    <path class="cls-3" d="M55.5,26.83c-.04-.65-.08-1.27-.11-1.8h-2.11c.35,1.42.65,2.99.92,4.76.04.19.04.42.08.69h1.77c-.23-1.04-.42-2.26-.54-3.65h0Z"/>
    <path class="cls-3" d="M62.4,25.02h-3.72c.19,1.38.38,3.03.65,4.95.04.19.04.34.08.5h3.68c-.27-1.84-.5-3.65-.69-5.45h0Z"/>
    <path class="cls-3" d="M56.03,30.47h-1.77c.15,1.34.35,3.22.54,5.64l-.04.08c-.42-2.11-.77-3.95-1.11-5.6v-.12h-14.28c.04.23.11.46.15.69.92,3.49,1.57,5.26,2,5.26.27,0,.5-.04.61-.08.08.46.19.96.31,1.53.12.73.23,1.46.38,2.19.04.23.11.46.19.69.04.23.11.46.15.69h3.49c-.35-2.07-.81-4.84-1.38-8.33-.12-.81-.19-1.57-.31-2.3.35,1.5.65,3.19.92,5.07.31,2.07.61,3.92.96,5.57h3.87c-.08-.54-.15-1.11-.23-1.69-.5-3.92-.84-6.45-1.07-7.6h.08c.88,4.22,1.57,7.33,2,9.29h4.84c-.34-3.91-.58-6.68-.65-8.29l.04.19c.19.77.58,2.72,1.19,5.83.23.88.46,1.65.73,2.26h2.61c-.15-.27-.23-.38-.27-.42-.12.08-.19.15-.31.27-.23-2.27-.54-5.64-.88-10.17-.04-.23-.04-.46-.04-.65h-2.26c.08.77.12,1.34.12,1.73,0,.42-.04.5-.08.15-.19-.58-.34-1.19-.5-1.88h0ZM52.46,31.24v-.04c.19,1.04.61,3.49,1.27,7.29-.04.08-.08.08-.08.04-.35-1.27-.73-3.72-1.19-7.29h0ZM47.67,36.58h-.04c-.12-.35-.23-1-.34-1.88.19.38.34,1,.38,1.88h0Z"/>
    <path class="cls-3" d="M63.21,31.2c-.04-.27-.08-.5-.12-.73h-3.68c.46,3.72,1.07,6.68,1.8,8.79.19-.04.34-.15.5-.27-.04-.42-.15-1.77-.31-4.03l.08.11c1.31.42,2.73-.23,4.26-1.88.88-1,1.5-1.92,1.84-2.73h-2.11c-.04.19-.12.46-.19.73-.19.65-.34,1.07-.46,1.19-.04-.04-.15-.35-.35-1-.19-.58-.42-.84-.69-.84s-.42.04-.46.12l-.08.08-.04.46h0Z"/>
    <path class="cls-3" d="M25.1,10.98c-.11-.38-.19-.69-.27-.88-.12-.35-.35-.58-.69-.77-.61.65-1.38,1.65-2.3,3.03-.5.77-1.19,1.88-2.07,3.3-.19-.08-.38-.04-.61.08-.27.15-.54.23-.73.23-.58,0-.88.15-.92.42-.11.61-.31,1.15-.61,1.57-.73-.42-1.19-.31-1.38.27-.11.34-.15.77-.11,1.3h3.8l-.04-.96c.04-.19.04-.34.04-.5l.15.12c.04.34.11.77.15,1.34h1.27v-.31l.04.31h3.38c-.12-.31-.19-.65-.31-1.04-.35-1.19-.5-2.15-.5-2.8,0-.38.08-1.11.27-2.19.19-1.04.31-1.69.42-2.03v-.04c.58,2.92.88,5.6,1,8.1h3.99v-.04c-.38-2.57-.58-4.07-.58-4.49,0-.12.08-.69.19-1.65v-.08c.04.12.31,1.84.8,5.18.04.34.12.73.15,1.07h1.69c.04-.42.11-1.23.27-2.34.19-1.5.35-2.34.46-2.57.19.27.35.69.46,1.19.11.5.19.96.19,1.3,0,.19-.04,1-.11,2.42h2.84s-.04-.12-.04-.15v-.08s.12.12.19.23h1.11c-.04-.12-.11-.23-.15-.35-.42-.96-.84-1.42-1.27-1.42-.27,0-.46.04-.58.15-.08.08-.12.15-.15.23-.35-1.11-.65-2-.88-2.65-.42-1.15-.96-2-1.61-2.57-.54.31-.96,1-1.31,2.03-.27.65-.35,1.27-.31,1.81-.23-2.04-.42-3.65-.61-4.76-.42-2.15-1-3.23-1.73-3.23-.38,0-.69.23-.92.73l-.5,1c-.11-.27-.19-.88-.27-1.84-.96-.27-1.46-.04-1.5.69-.04.38.04.92.23,1.61h-.04ZM27.94,10.94c-.08-.08-.11-.23-.11-.5s0-.42.04-.42c.04.04.04.08.04.11.27.38.31.69.12.96,0-.04-.04-.08-.08-.15h0ZM30.47,17.39c0-.08,0-.12-.04-.15.04.04.04.08.08.15h-.04ZM22.03,17.39c-.04-.19-.08-.31-.12-.38-.04-.15-.08-.35-.08-.61s.04-.58.11-.85c.12-.5.19-.77.19-.81v-.04c.12.58.08,1.46-.12,2.69h0Z"/>
    <path class="cls-3" d="M10.82,20v.31c.12.35.23,1.11.38,2.34.11.96.35,1.61.69,2.03l.27-.15c.12-.46.27-.73.46-.84v.81c.08.27.34.42.77.42.27,0,.42-.04.46-.11,0-.08,0-.12.04-.12.11-2.42.23-4.11.27-5.14h-1.04c-.08.96-.12,1.5-.15,1.54-.23-.35-.54-.65-.92-.92-.35-.23-.58-.34-.69-.34-.31,0-.5.08-.54.19h0Z"/>
    <path class="cls-3" d="M14.16,19.54h1.23c-.11-.35-.23-.61-.35-.88-.19-.5-.46-.77-.88-.88-.61.42-.96.96-1.04,1.65v.12h1.04v-.04.04h0Z"/>
    <path class="cls-3" d="M15.39,19.54h-1.23l.04.11c.27.69.46,1.84.58,3.42.11,1.5.31,2.65.65,3.38.19-.04.34-.08.5-.19.08-.65.15-1.73.27-3.3.12-1.27.19-2.19.31-2.84.11.58.27,2.04.42,4.34.11,1.77.38,3.11.8,4.07.23-.12.38-.23.5-.35v-2.61c.19,1.07.35,2.72.46,4.91h1.07l-.58-10.94h-3.8ZM18,22.49h.08c.08,1.15.11,1.8.11,2-.11-.5-.19-1.19-.19-2h0Z"/>
    <path class="cls-3" d="M19.77,30.47h-1.07v.46l.46.12c.42,0,.65-.12.61-.31v-.27h0Z"/>
    <path class="cls-3" d="M24.37,30.47h-2.53c.5,2.23.92,3.95,1.27,5.14.65,2.19,1.38,4.15,2.23,5.83h2.76c-.04-.65-.08-1.19-.08-1.61.11.5.23,1.04.42,1.61h5.37c-.31-.81-.61-1.73-.96-2.76-.58-2.04-1.04-3.53-1.34-4.41-.04-.04-.08-.08-.12-.12.04.04.08.04.15.08.42.19.88.23,1.31.04.04.27.38,1.65.96,4.07.35,1.38.57,2.42.69,3.11h2.23c-.08-.42-.11-.77-.08-1.04v-.08c.11.31.27.69.42,1.11h2.65c-.11-1.04-.19-1.92-.27-2.65h.11c.27,1,.5,1.88.73,2.65h2.07c-.54-1.73-1.15-3.88-1.84-6.41-.46-1.69-.88-3.22-1.23-4.57h-6.6s-.04.04-.04.08c-.04.12-.08.31-.15.5v-.04l-.04-.54h-3.88c.04.69.12,1.38.15,2.07h-.08c-.23-.73-.46-1.42-.65-2.07h-2.99c.12.65.27,1.38.46,2.19.8,4.03,1.3,6.49,1.46,7.41h-.08c-1.27-2.57-2.11-5.8-2.49-9.6h0ZM28.48,36.5v-.08c.58,1.27.92,2.34.96,3.22-.11-.19-.42-1.23-.96-3.15h0ZM30.01,37.19h-.12c-.11-.38-.31-1.07-.54-2.11-.23-1.04-.42-1.73-.54-2.11.42.11.73.73.88,1.8.08.58.19,1.38.31,2.42h0ZM34.04,35.16h.08l.08.88-.15-.88h0ZM37.19,37.96c.23.35.38.88.5,1.69l-.08.04-.42-1.65v-.08h0ZM37.15,37.57h-.11c-.27-1.23-.38-2.07-.42-2.5.11.38.31,1.23.54,2.5h0Z"/>
    <path class="cls-3" d="M21.3,30.47h-.96c.11,1.34.27,2.46.46,3.42.19-.04.31-.12.38-.19.04-.77.08-1.84.11-3.22h0Z"/>
    <path class="cls-3" d="M50.74,41.45h-3.87c.27,1.3.5,2.46.77,3.49-.15.04-.27.04-.38.08-.12-.77-.31-1.96-.58-3.57h-3.49c.19,1.19.46,2.57.77,4.07-.11-.27-.19-.5-.23-.61-.19-.46-.42-.81-.61-1.04-.23-.69-.46-1.5-.73-2.42h-2.07c.27.84.5,1.54.77,2.11.08.15.15.31.23.46-.19.23-.42.54-.61.88-.11-.23-.23-.38-.31-.5-.11-.19-.27-.27-.46-.31-.04-.35-.04-.69-.08-1.11-.04-.58-.08-1.07-.12-1.54h-2.65c.11.35.27.77.42,1.27.31,1.04.46,1.69.46,1.96,0,.19,0,.35-.04.5-.15-.11-.31-.23-.5-.27l-.04.04c-.04-.58-.19-1.27-.38-2.15-.12-.5-.23-.96-.27-1.34h-2.23c.08.42.11.69.11.81,0,.5-.04.8-.08.88-.23-.5-.46-1.04-.73-1.69h-5.37c.04.19.12.42.19.65-.19-.19-.38-.31-.54-.34v-.31h-2.76c.19.38.38.77.58,1.11.31-.15.5-.42.58-.77.04.15.15.54.31,1.19,0,.04,0,.08.04.12-.08.35-.12.81-.15,1.38-.04-.12-.11-.23-.15-.35-.12-.19-.35-.27-.61-.27-.42,0-.69.19-.77.61v1.04s.08.54.19,1.42h1.07c-.08-.27-.15-.54-.23-.77v-.08s.11.31.31.84h1.57s-.04-.04-.04-.08v-1.15c.11.42.19.81.31,1.23h1.42c-.58-2.03-.92-3.3-1-3.84.58,1,1.11,2.26,1.69,3.84h1.42c-.12-.35-.23-.69-.38-1.04.04-.46.08-1,.08-1.65l.08.12c0,.54.15,1.15.42,1.8.11.27.23.54.38.77h7.64c-.04-.27-.08-.54-.08-.77.04.15.11.42.23.77h1.57s-.04-.04-.04-.08v-1.15h.08c.12.35.23.73.34,1.23h2.92v-.27c-.19-1.73-.27-2.96-.27-3.76l.54-.15c.08.35.23,1.19.42,2.49.11.46.23.85.38,1.11-.04.15-.04.35-.04.58h5.57c-.19-.42-.35-.81-.46-1.11-.04-.61-.23-2.07-.5-4.37h0ZM49.7,45.06h-.08c-.27-.77-.38-1.42-.38-1.92.27.69.42,1.34.46,1.92h0ZM33.7,44.56c-.04-.27-.08-.5-.12-.73h.08s.08.23.19.58c-.04.04-.12.12-.15.15h0Z"/>
    <path class="cls-3" d="M60.26,41.45h-2.61c.27.73.58,1.23.84,1.54-.5,1.04-.88,2.34-1.07,3.95h1.04v-1.42h.19c.04.46.12.92.19,1.42h1.5c-.42-1.88-.62-2.88-.62-3.07,0-.42.08-.84.27-1.34.46,1.15.92,2.61,1.38,4.41h1.23c-.04-.27-.12-.54-.15-.77h.04c.08.23.15.5.23.77h1.15c-.27-.5-.58-1.04-.92-1.54-1.38-2.03-2.26-3.34-2.69-3.95h0Z"/>
    <path class="cls-3" d="M56.34,41.45h-4.84c.08.38.15.73.23,1.04.42,1.88.81,3.38,1.15,4.45h3.95c-.19-2.03-.38-3.88-.5-5.49h0Z"/>
    <path class="cls-3" d="M45.1,46.94h-2.92c.35,1.27.81,3.11,1.38,5.45h2.23c-.12-.42-.19-.81-.31-1.15.12.34.27.73.46,1.15h2.42c-.61-2.53-1-4.34-1.19-5.45h.08c.27,1.57.69,3.42,1.23,5.45h5.95c-.04-.11-.08-.23-.08-.27,0-.38.04-.69.15-.96v-.08c.19.23.38.65.58,1.3h1.54l-.08-.27c.27-.23.42-.5.5-.84.04-.12.04-.31.08-.61.15.5.31,1.07.46,1.73h1.61c-.5-2.38-.77-3.84-.77-4.37l.04-1.07h-1.04c-.04.31-.08.65-.12,1-.15-.19-.31-.38-.42-.5-.04-.19-.04-.34-.04-.5h-3.95c.42,1.34.73,2.03.92,2.03.27,0,.46-.04.5-.15.04-.04.04-.08.08-.04.08.42.15.84.23,1.19-.31.04-.65.19-1,.42-.69-.54-1.27-1.5-1.73-2.84-.08-.23-.15-.42-.19-.61h-5.57v.04c0,.65.15,1.65.42,3.07h-.11c-.04-.19-.15-.54-.35-.96-.27-.5-.5-.81-.73-.88-.27.23-.42.5-.5.84-.08-.35-.15-.69-.23-1,.19-.15.34-.35.42-.62.04-.08.04-.23.04-.5h0ZM48.55,47.67c.19-.12.38-.31.58-.65.12.38.23.84.27,1.34.12,1.65.19,2.5.23,2.61-.08-.35-.31-1.07-.69-2.11-.19-.42-.31-.85-.38-1.19h0ZM51.08,48.05c.04.12.04.19.08.31.11.42.31,1.04.5,1.84l-.15.19c-.19-.5-.38-.88-.54-1.23.04-.31.08-.69.11-1.11h0Z"/>
    <path class="cls-3" d="M41.79,46.94h-1.57c.27,1,.73,2.8,1.31,5.45h1.8c-.42-1.5-.92-3.34-1.54-5.45h0Z"/>
    <path class="cls-3" d="M37.8,47.36s0-.04.04-.08c.11.46.54,2.15,1.23,5.1h2.07c-.61-2.42-.96-4.22-1.07-5.45h-7.64c.19.35.42.61.69.81,0,.42.08,1.08.19,2.03.12,1.08.27,1.96.42,2.61h1.07c-.27-1.19-.5-2.42-.69-3.68.19.73.54,1.96,1,3.68h3.61c-.54-2.53-.84-4.22-.92-5.03h0Z"/>
    <path class="cls-3" d="M32.05,48.13c-.04-.38-.08-.77-.19-1.19h-1.42c.42,1.15.81,2.46,1.23,3.95.15.5.31,1,.42,1.5h1.61c-.19-.11-.42-.23-.61-.27-.58-1.88-.92-3.19-1.04-3.99h0Z"/>
    <path class="cls-3" d="M29.74,46.94h-1.42c.46,1.88.96,3.68,1.5,5.45h1.65c-.19-.5-.35-1.07-.54-1.65-.46-1.5-.85-2.76-1.19-3.8h0Z"/>
    <path class="cls-3" d="M26.4,46.94h-1.07c.04.19.04.38.08.58l-.08-.08c-.12-.19-.23-.34-.31-.5h-1.92v.19l.11,2.15c-.38-.54-.73-.81-1-.81s-.42.04-.46.08t0,.04c-.11.27-.19.58-.19.96-.54-.73-.96-1.07-1.27-1.07-.27,0-.42.04-.5.12-.04.04-.04.08-.04.12,0,1.27-.08,2.49-.19,3.68h3.38c-.12-.69-.23-1.34-.31-1.96.19.5.38,1.15.65,1.96h1.8c-.57-1.92-.88-3.57-.96-4.95h.04c.42.77,1.04,2.42,1.88,4.95h2c-.69-2.26-1.23-4.11-1.65-5.45h0Z"/>
    <path class="cls-3" d="M28.06,46.94h-1.57c.23.58.58,1.54,1.04,2.8.35,1.04.61,1.92.81,2.65h1.38c-.73-2.26-1.27-4.11-1.65-5.45h0Z"/>
    <path class="cls-3" d="M23.1,46.94h1.92c-.57-.92-.96-1.42-1.15-1.5-.46.31-.73.81-.77,1.5h0Z"/>
    <path class="cls-3" d="M65.82,46.94c-.27,0-.46.04-.65.15-.15.11-.27.15-.31.15l-.04,2.88h-.08c-.04-1-.31-2.07-.88-3.19h-1.15c.34,1.23.77,3.03,1.34,5.45h2.42c-.42-2.34-.65-3.68-.65-3.99l.08.12c.11.35.38,1.65.81,3.88h1.27c-.23-1.34-.34-2.11-.34-2.38,0-.69.04-1.23.15-1.61.46.88.84,2.19,1.19,3.99h2.42c-.58-1.04-1.04-1.84-1.34-2.38-.69-1.11-1.5-2.11-2.42-3.07-.35.04-.58.19-.69.42-.08.12-.15.31-.23.5-.35-.61-.62-.92-.88-.92h0Z"/>
    <path class="cls-3" d="M62.6,46.94h-1.23c.42,1.57.84,3.38,1.27,5.45h1.07c-.46-2.3-.84-4.11-1.11-5.45h0Z"/>
    <path class="cls-3" d="M60.33,46.94h-1.5c.27,1.73.58,3.53.96,5.45h1.77c-.19-.92-.46-2.03-.73-3.3-.19-.81-.35-1.54-.5-2.15h0Z"/>
    <path class="cls-3" d="M30.13,53.42s-.04.08-.08.12c-.11-.38-.23-.77-.35-1.15h-1.38c.11.5.15.92.15,1.31l-.08-.04c-.11-.42-.23-.85-.34-1.27h-2c.38,1.19.81,2.57,1.31,4.15-.38,0-.65,0-.84.04-.15-.34-.27-.65-.38-.96-.42-1.15-.77-2.23-1.04-3.22h-1.8c.58,1.77,1.38,4.3,2.42,7.6.35,1,.65,1.88.96,2.65-.08-.04-.35-.42-.85-1.19-.19-.27-.38-.5-.57-.65-.19-.5-.35-1-.5-1.54-.81-2.65-1.42-4.91-1.8-6.87h-3.38s-.04.12-.04.15c0,.27.15.88.42,1.76h-.19c-.15-.5-.5-1-1-1.5-.5.19-.81.58-.92,1.15-.04.34-.08.73-.12,1.23-.19-.27-.34-.54-.5-.73-.27-.42-.58-.61-.88-.61-.42,0-.69.15-.81.46-.08.15-.11.46-.11.92,0,.65.19,1.65.61,2.95.61,1.88.92,2.88.96,2.96l-.11-.08c-1.11-2.76-2-4.15-2.61-4.15-.27,0-.46.04-.5.08,0,.04-.04.04-.08.04-.04.34-.08.69-.08,1.07-.04,0-.19-.12-.5-.38-.23-.19-.46-.31-.65-.31-.27,0-.42.04-.46.08-.04.04-.08.12-.12.23,0,.27-.04.42-.11.46-.08-.11-.15-.23-.27-.31-.19-.12-.42-.19-.69-.19s-.42.04-.46.12c.04.04,0,.08-.04.08,0,1.04,1.04,2.69,3.07,4.91.27,0,.46.12.65.38.04.08.12.15.15.19h1.46l.04-1.15c0-.31-.12-.96-.38-2,.04.04.46,1.11,1.34,3.15h1.92c-.81-2.84-1.54-5.56-2.11-8.14.35.65,1.19,3.03,2.61,7.21.11.31.19.61.31.92h2.27c-.04-.15-.08-.31-.12-.42.04.12.12.27.15.42h10.71c-.46-1.84-.84-3.38-1.11-4.61v-1.15c-.19-.58-.35-1.11-.5-1.61v-.65c.42,1.11.77,1.84,1.04,2.27.19.61.42,1.34.69,2.19.81,2.34,1.57,3.49,2.23,3.49.46,0,.65-.04.54-.11.04-.08.08-.12.11-.15v-.42c0-.54-.15-1.38-.5-2.5-.19-.61-.31-1.15-.38-1.57.04-.04.08-.04.11-.08v-.15c.11.58.31,1.27.61,2.11.5,1.42.92,2.11,1.23,2.11.27,0,.46-.04.5-.12,0-.08,0-.12.04-.12v-1.34c-.88-2.69-1.61-5.53-2.19-8.56h-1.07v.04l-.04-.04h-1.61c.08.27.15.54.23.81,0,.81,0,1.42-.04,1.92-.23-.73-.5-1.65-.81-2.73h-1.65c.08.27.15.5.23.77.04.08.04.15.08.27h0ZM28.55,53.88v-.04c.04.12.23.73.58,1.84-.04-.04-.12-.04-.15-.04-.15-.5-.31-1.08-.42-1.77h0ZM26.98,57.84c0-.12.04-.31.08-.5.35.58.84,2.15,1.5,4.72-.61-1.61-1.15-3.03-1.57-4.22h0ZM18.81,54.73l.15.12c.19.42.84,2.34,1.88,5.76-.11-.27-.19-.5-.27-.77-1.07-3.03-1.65-4.72-1.77-5.1h0ZM21.95,58.49v-.04c.31.54.77,1.88,1.38,4.03t-.04.08v-.04c-.31-.54-.58-1.19-.77-2-.35-1.27-.54-1.92-.58-2.03h0Z"/>
    <path class="cls-3" d="M41.53,52.39c.11.46.19.92.31,1.42.73,3.26,1.42,4.87,2.11,4.87.46,0,.61-.04.46-.08.12-.27.19-.54.19-.88,0-.46-.42-2.23-1.27-5.33h-1.8Z"/>
    <path class="cls-3" d="M41.14,52.39h-2.07c.19.88.39,1.84.65,2.96.81,3.61,1.73,5.41,2.69,5.41.27,0,.42,0,.46-.04,0-.04,0-.11.04-.15.04-.08.08-.15.12-.19.04-.12.04-.31.04-.58,0-.04-.5-1.96-1.5-5.76-.15-.58-.31-1.15-.42-1.65h0Z"/>
    <path class="cls-3" d="M38.99,53.66c-.11-.42-.19-.85-.27-1.27h-3.61c.31,1.23.69,2.73,1.11,4.49.96,3.61,1.65,5.41,2,5.41.42,0,.54-.08.35-.19.04-.04.08-.04.08-.08.04,0,.04-.15.04-.42-.58-2.19-.92-3.49-1-3.92l.08.12c.08.15.27.73.58,1.73.19.69.58,1.19,1.11,1.5.5-.5.77-.92.77-1.34,0-.34-.42-2.38-1.23-6.02h0ZM36.88,53.96v-.08c.12.38.38,1.54.81,3.45-.04.12-.08.15-.08.08-.34-1.42-.61-2.57-.73-3.45h0Z"/>
    <path class="cls-3" d="M15.66,63.36h-1.46c.19.12.46.19.84.19.42,0,.65-.08.61-.19h0Z"/>
    <path class="cls-3" d="M16.66,63.36c.04.08.04.15.08.23.65,1.5,1.15,2.26,1.5,2.26.27,0,.42-.04.46-.12l.08-.15v-1.54c-.08-.23-.15-.46-.19-.69h-1.92Z"/>
    <path class="cls-3" d="M22.11,65.09c0,1.8.27,2.99.77,3.49,1.3,1.34,2.3,2.65,3.03,3.91.23-.08.42-.19.54-.31,0-.08-.35-1.5-1.04-4.3v-.04c.12.08.27.15.46.27.31.23.65.42,1.07.54.19-.04.35-.11.54-.23-.08-.27-.19-.65-.31-1.15.38.77.65,1.15.85,1.15.42,0,.54-.04.34-.15.08-.27.12-.69.12-1.19,0-.04-.08-.42-.19-1.23.19.19.35.27.46.27.27,0,.42-.04.46-.12,0-.12,0-.15.04-.15v-1.34c.38,1.08.73,1.61,1.04,1.61.42,0,.58-.04.46-.15.04-.04.04-.23.04-.61,0-.15-.08-.62-.23-1.38.08.04.15.08.23.08h.35c.35,1.38.77,2.42,1.19,3.07.19-.08.38-.19.54-.31v-1.5c-.19-.69-.35-1.34-.46-1.96h-10.71c.19.54.35,1.04.5,1.54-.04.12-.08.15-.08.19h0Z"/>
    <path class="cls-3" d="M22.03,67.2c.04-.35.08-.73.08-1.15,0-.58-.15-1.5-.46-2.69h-2.27c.96,2.69,1.69,4.03,2.19,4.03.27,0,.42-.04.46-.08-.04-.08-.04-.11,0-.11h0Z"/>
    <path class="cls-3" d="M68.97,52.39c.12.58.19,1.15.27,1.8.35,2.69.84,4.61,1.5,5.8.12-.04.27-.12.46-.27v-1.11c-.27-1.57-.5-2.72-.73-3.49v-2.11h.04c.15.27.61,1.54,1.38,3.8.57,1.76,1.04,2.65,1.34,2.65.46,0,.61-.12.46-.31,0-.04-.08-.19-.23-.46-.11-.19-.04-.31.23-.31.46,0,.73-.04.81-.08.11-.12.31-.23.54-.38-.27-1.34-.54-2.38-.73-3.11-.35-1.34-.88-2-1.69-2-.27,0-.46.08-.58.19-.08.04-.11.15-.15.27-.19-.31-.35-.61-.5-.88h-2.42ZM73.42,57.11l-.27-.92v-.11c.19.42.27.77.27,1.04h0Z"/>
    <path class="cls-3" d="M67.97,52.39h-1.27c.11.58.23,1.19.34,1.88.46,2.34,1.08,4.26,1.84,5.72.15-.04.31-.19.5-.46-.23-.88-.58-2.61-1.04-5.1-.15-.77-.27-1.46-.38-2.04h0Z"/>
    <path class="cls-3" d="M66.97,55.08c-.19-1-.35-1.88-.5-2.69h-2.42c.27,1.19.54,2.5.88,3.99,1.04,4.26,1.92,6.41,2.57,6.41.42,0,.61-.04.54-.15l.08-.54c0-.65-.38-2.99-1.15-7.02h0Z"/>
    <path class="cls-3" d="M63.71,52.39h-1.07c.04.23.08.46.12.69.96,4.72,1.8,8.17,2.53,10.28h.42s.08-.08.11-.11v-1.34c-.54-2.03-1.15-4.64-1.8-7.87-.12-.58-.19-1.11-.31-1.65h0Z"/>
    <path class="cls-3" d="M62.14,55.3c-.04-.5-.23-1.46-.58-2.92h-1.77c.35,2.04.81,4.15,1.3,6.37.42,1.8.81,3.34,1.15,4.61h1.73c-.19-.69-.38-1.5-.58-2.38-.81-3.34-1.23-5.26-1.27-5.68h0Z"/>
    <path class="cls-3" d="M45.79,52.39h-2.23c.12.58.27,1.15.42,1.8.96,3.49,1.65,5.26,2.15,5.26.04,0,.19.04.5.15.34.08.65.12.92.12.12,0,.31-.08.5-.27.08-.04.15-.12.19-.19.19.84.38,2,.65,3.42.04.23.12.46.19.69h2.11c-.31-1.34-.88-3.49-1.69-6.52-.42-1.65-.81-3.15-1.15-4.45h-2.42c.04.12.12.27.15.42.92,2.34,1.54,3.95,1.8,4.91.04.12.08.31.12.5-.04,0-.08,0-.12-.04-.27.19-.46.27-.54.27-.65-2.42-1.15-4.45-1.57-6.06h0Z"/>
    <path class="cls-3" d="M48.47,52.39c.5,1.92,1.07,4.03,1.76,6.33.58,1.92,1.08,3.45,1.5,4.64h5.37c-.31-1.54-.61-3.15-.96-4.87.27.81.69,2.46,1.34,4.87h1.5l-2.38-10.98h-1.54c.12.35.19.77.31,1.27.23,1.19.34,2,.34,2.46,0,.42,0,.5-.04.15-.73-2.03-1.15-3.34-1.27-3.88h-5.95Z"/>
    <path class="cls-3" d="M59.18,52.39h-1.61c.58,2.19,1.23,5.07,1.96,8.67.19.81.34,1.57.5,2.3h1.65c-.38-1.54-.84-3.45-1.34-5.72-.5-2.07-.88-3.84-1.15-5.26h0Z"/>
    <path class="cls-3" d="M58.99,63.36h-1.5c.19.62.35,1.31.54,2.04.73,2.88,1.46,5.18,2.15,6.91.19-.08.31-.15.38-.23.04-.08.08-.15.11-.19.04-.11.04-.31.04-.58l-1.73-7.94h0Z"/>
    <path class="cls-3" d="M53.54,65.21c.04.12.12.54.27,1.34.23.73.5,1.11.81,1.11.35,0,.58.15.69.46.23.58.58,1.11,1.04,1.57.19-.11.35-.27.46-.46.12-.15.19-.23.23-.23.15.58.38,1.5.69,2.76.35,1.11.85,1.96,1.46,2.53.19-.08.38-.23.54-.5-.84-2.65-1.73-6.14-2.61-10.44h-5.37c.65,1.84,1.08,2.76,1.31,2.76.46,0,.58-.08.38-.19l.12-.73h0Z"/>
    <path class="cls-3" d="M51.2,63.36h-2.11c.5,1.84,1.04,2.76,1.65,2.76.42,0,.54-.04.31-.15.15-.19.27-.35.31-.46.12-.19.15-.46.15-.73,0-.12-.11-.62-.31-1.42h0Z"/>
    <path class="cls-3" d="M65.36,63.56c.12-.04.23-.12.35-.19h-.42s.04.12.08.19h0Z"/>
    <path class="cls-3" d="M63.98,63.36h-1.73c.69,2.5,1.23,3.76,1.65,3.76s.58-.04.46-.11c.08-.04.12-.08.15-.12.04-.04.04-.19.04-.46s-.19-1.31-.58-3.07h0Z"/>
    <path class="cls-3" d="M62.75,67.4c-.23-.69-.58-2.03-1.08-4.03h-1.65c.96,4.03,1.69,6.06,2.23,6.06.27,0,.46-.04.5-.15-.04-.11-.04-.15,0-.15v-1.73h0Z"/>
    <path class="cls-3" d="M28.02,69.43c-.35.19-.54.42-.54.73.12.11.27.23.54.31.19-.08.34-.23.46-.5-.08-.19-.23-.38-.46-.54h0Z"/>
  </g>
  <g id="Layer_4" data-name="Layer 4">
    <path class="cls-2" d="M61.1,9.13c-.46-.31-.69-.38-.69-.23,0,.12.08.23.19.42-1.57.54-4.64,2.26-9.29,5.22-5.03,3.15-7.83,5.49-8.41,7.02-1.65-1.54-4.03-3.65-7.14-6.37-3.72-3.3-6.25-5.6-7.6-6.87-.04-.11-.04-.19-.08-.23-.04.04-.08.04-.08,0t-.04.04l-.04-.04c-.15.04-.27.08-.34.19-1.65.73-4.84,2.76-9.59,6.18-5.64,4.03-8.48,6.64-8.48,7.83,0,.27.04.46.15.5.04.04.15.08.35.11,3.03-2.76,6.95-5.99,11.82-9.67,2.88-2.11,4.8-3.53,5.72-4.18,9.17,9.56,14.51,14.35,16.08,14.35.27,0,.46-.08.58-.19l.08-.35c-.12-.11-.27-.27-.42-.42.84-.61,3.68-2.72,8.52-6.29,4.87-3.57,7.71-5.68,8.56-6.33.88,1.15,2.99,3.3,6.29,6.49,3.49,3.34,6.06,5.49,7.71,6.37-3.8,3.65-8.44,9.1-14.01,16.31.08.04.11.12.15.19.04.04.23.08.5.08h.34c1.34-1.88,4.26-5.3,8.71-10.21,2.65-2.96,4.41-4.91,5.3-5.95.15.04.31.04.42.04.31,0,.5-.04.58-.15l.12-.35c-.12-.08-.31-.19-.54-.38,0-.27-.04-.46-.12-.5-.12-.04-.27-.08-.38-.15-.04.04-.08.11-.11.15-1.5-1.27-4.26-3.65-8.25-7.18-3.3-2.88-5.49-4.68-6.52-5.41l-.04-.04h0Z"/>
    <path class="cls-2" d="M18.96,31.66c-4.87-5.79-7.91-8.67-9.13-8.63-.04.19-.04.38-.04.5,10.29,11.71,15.47,17.54,15.58,17.54.46,0,.58-.04.31-.11.04-.04.08-.04.11-.08.04-.04.08-.19.08-.46-2.19-2.92-4.49-5.83-6.91-8.75h0Z"/>
    <path class="cls-2" d="M27.86,40.8c0-.27-.04-.42-.11-.46-.15.04-.27.04-.38,0-1.19,1.34-4.14,4.41-8.94,9.21-4.57,4.57-7.64,7.79-9.17,9.63.15.15.35.27.54.31,3.42-2.95,6.6-5.79,9.52-8.52,5.72-5.37,8.56-8.75,8.56-10.17h0Z"/>
    <path class="cls-2" d="M33.62,65.63c-4.87,3.45-7.52,5.57-7.91,6.37-1.77-1.34-4.61-3.61-8.48-6.75-3.88-3.15-6.37-5.03-7.41-5.64l-.04.42c8.98,8.87,14.35,13.28,16.08,13.28.31,0,.54-.08.65-.23.04-.04.08-.15.15-.35-.04-.04-.11-.11-.19-.15,3.99-3.03,7.18-5.41,9.52-7.21,3.88-3,6.95-4.99,9.17-5.99,2.15,3.19,4.64,6.37,7.48,9.6,2.8,3.19,4.83,5.07,6.1,5.68-.08.12-.12.15-.12.19,0,.46.08.61.19.42l.46.08c.12,0,.42-.19.88-.58t.04-.04s.12-.08.15-.12c1.42-1.27,4.18-4.03,8.29-8.33,4.22-4.41,6.91-7.29,8.02-8.63.11.04.19.04.23.04.27,0,.46-.08.58-.19.04-.12.04-.23.08-.31-.11-.12-.19-.23-.31-.34.04-.04.04-.08.04-.12,0-.27-.04-.46-.12-.5-.15.04-.27,0-.38-.04t-.08.08c-2.3-2.5-4.95-5.33-7.94-8.44-3.34-3.49-6.03-6.22-8.1-8.21-.04.04-.08.08-.19.12-.04.11-.08.31-.08.58,8.1,9.4,13.28,14.97,15.47,16.77-2.84,2.57-6.41,6.1-10.67,10.59-2.72,2.88-4.6,4.87-5.64,6.03-2.57-2.03-5.07-4.53-7.52-7.56-.81-1.19-1.96-2.61-3.49-4.18-1.27-1.34-2.3-2.23-3.03-2.72.19-.08.38-.15.58-.23-.12-.23-.27-.42-.5-.54-2.46.88-6.45,3.26-11.98,7.18h0Z"/>
  </g>
</svg>