<?xml version="1.0" encoding="UTF-8"?>
<svg id="Layer_2" data-name="Layer 2" xmlns="http://www.w3.org/2000/svg" xmlns:xlink="http://www.w3.org/1999/xlink" viewBox="0 0 94.49 96.38">
  <defs>
    <style>
      .cls-1 {
        fill: url(#linear-gradient);
      }

      .cls-1, .cls-2, .cls-3, .cls-4 {
        stroke-width: 0px;
      }

      .cls-3 {
        fill: #93e11e;
      }

      .cls-4 {
        fill: #999;
      }
    </style>
    <linearGradient id="linear-gradient" x1="44.9" y1="9.52" x2="44.9" y2="125.97" gradientUnits="userSpaceOnUse">
      <stop offset=".37" stop-color="#fff"/>
      <stop offset="1" stop-color="#c6c6c6"/>
    </linearGradient>
  </defs>
  <g id="Layer_1-2" data-name="Layer 1">
    <path class="cls-4" d="M22.76,33.81c-10.44.88-16.16,5.91-17.15,15.04-.04.42-.08.88-.12,1.34,0,.27,0,.5-.04.77.04.23.04.46.04.69.54,9.98,6.29,15.43,17.27,16.39h13.66c-9.1,8.79-8.75,16.81,1.04,24.1,9.1,6.79,17.27,5.41,24.6-4.11l29.9-33.04c2.42-2.03,3.11-4.11,2.07-6.14-.42-.81-1.11-1.61-2.07-2.42L62.06,13.81c-7.33-9.52-15.5-10.9-24.6-4.11-9.79,7.29-10.13,15.31-1.04,24.1h-13.66Z"/>
  </g>
  <g id="Layer_2-2" data-name="Layer 2">
    <path class="cls-4" d="M57.3,8.48v.04c-7.48-9.71-15.85-11.13-25.14-4.18-5.03,3.72-7.6,7.68-7.75,11.78-.19,3.92,1.84,7.98,6.02,12.24h-12.78C6.49,29.32.61,34.92.04,45.13c0,.23,0,.46-.04.73v.08c.04.23.04.46.04.65v.04c.54,10.17,6.41,15.77,17.62,16.73h12.78c-4.18,4.26-6.22,8.33-6.02,12.24.15,4.11,2.72,8.06,7.75,11.78,9.29,6.95,17.66,5.57,25.14-4.15l29.9-33.04c1.76-1.5,2.65-3.03,2.61-4.53.04-1.54-.84-3.07-2.65-4.57h.04L57.3,8.48h0ZM56.69,8.98s0,.04.04.04l29.9,32.62.04.04c1.57,1.34,2.34,2.65,2.38,3.99-.04,1.34-.81,2.65-2.38,3.99t-.04.04l-29.94,33.04c-7.18,9.33-15.2,10.67-24.06,4.03-4.8-3.57-7.25-7.29-7.45-11.21-.15-3.91,2-8.02,6.45-12.32.04-.04.08-.12.12-.19.04-.08.04-.15,0-.19-.04-.12-.12-.15-.15-.19-.08-.04-.15-.08-.23-.08h-13.62c-10.75-.92-16.39-6.26-16.92-16,0-.23,0-.46-.04-.69.04-.27.04-.5.04-.73.58-9.79,6.22-15.12,16.92-16.04h13.62c.08,0,.15,0,.23-.04.04-.04.11-.12.15-.19.04-.08.04-.15,0-.23-.04-.08-.08-.15-.12-.19-4.45-4.3-6.6-8.4-6.45-12.32.19-3.91,2.65-7.64,7.45-11.21C41.49-1.69,49.51-.35,56.69,8.98h0Z"/>
    <path class="cls-1" d="M56.72,9.01s-.04,0-.04-.04C49.51-.35,41.49-1.69,32.62,4.95c-4.8,3.57-7.25,7.29-7.45,11.21-.15,3.91,2,8.02,6.45,12.32.04.04.08.12.12.19.04.08.04.15,0,.23-.04.08-.12.15-.15.19-.08.04-.15.04-.23.04h-13.62C7.02,30.04,1.38,35.38.81,45.17c0,.23,0,.46-.04.73.04.23.04.46.04.69.54,9.75,6.18,15.08,16.92,16h13.62c.08,0,.15.04.23.08.04.04.11.08.15.19.04.04.04.12,0,.19-.04.08-.08.15-.12.19-4.45,4.3-6.6,8.4-6.45,12.32.19,3.92,2.65,7.64,7.45,11.21,8.87,6.64,16.89,5.29,24.06-4.03l29.94-33.04s0-.04.04-.04c1.57-1.34,2.34-2.65,2.38-3.99-.04-1.34-.81-2.65-2.38-3.99l-.04-.04L56.72,9.01h0Z"/>
  </g>
  <g id="Layer_3" data-name="Layer 3">
    <path class="cls-3" d="M45.82,14.04v.11c-.04.27-.35,2.38-.92,6.26h1.27c.04-.27.08-.38.08-.42,0,.11,0,.27-.04.42h.88c.58-3.11,1-5.49,1.27-7.06.04,2.03-.15,4.41-.5,7.06h1.53c.19-.8.35-1.46.5-1.96-.04.65-.04,1.31-.08,1.96h1.38c.19-1.3.35-2.23.46-2.76.04,1.04.08,1.96.12,2.76h4.07c-.11-.69-.04-1.42.19-2.23-.04,0-.08-.04-.15-.08-.04-.04-.19-.08-.46-.08-.19,0-.38.11-.54.35-.19.27-.31.38-.38.42-.42-.19-.92-.84-1.54-1.88-.54-.96-.96-1.42-1.31-1.42-.27,0-.46.08-.54.27-.04.12-.08.27-.11.46-.12-.27-.19-.5-.31-.73-.19-.42-.34-.69-.54-.81-.38.11-.61.27-.65.42-.04.11-.04.31-.04.65-.11-2.76-.23-4.45-.35-5.1v-.11c-.04-.11-.23-.15-.5-.15-.15,0-.31.08-.5.23-.19.15-.31.35-.35.58-.19-.04-.46-.31-.88-.73-.31-.35-.73-.46-1.27-.35-.31-.96-.85-1.61-1.65-2-.81-.38-1.07.12-.81,1.46-.42-.65-.77-1-.96-1.04-.34.27-.61.73-.81,1.38-.04.12-.19.65-.38,1.61h-.12c.04-.5.04-.88,0-1.15-.11-.46-.42-.81-1-1.07-.46.19-.77.57-.92,1.07-.15.58-.31.96-.42,1.07-.08-.46-.15-.84-.27-1.11-.15-.5-.46-.77-.92-.77-1.15,0-1.92,1.42-2.3,4.3-.19,1.42-.31,2.96-.27,4.57,0,.77.04,1.42.08,1.96h1.65c-.12-.92-.19-1.5-.19-1.69,0-.38.11-1.5.34-3.38.27-2.07.54-3.45.73-4.11.12.5.19,1.04.19,1.61,0,.5-.15,1.8-.42,3.84-.27,1.96-.42,3.19-.54,3.72h3.91c.11-.81.23-1.77.42-2.88.58-3.34.96-5.37,1.19-6.18h.04c.04,1.73-.19,3.91-.65,6.49-.11.69-.31,1.54-.5,2.57h1.15c.12-.73.27-1.54.42-2.42.88-4.57,1.46-7.45,1.69-8.6v.04c.11.5.19,1.15.19,2.03,0,1.96-.35,4.91-1,8.94h1.27c.08-.65.19-1.46.35-2.34.42-2.57.65-3.91.69-4.03h0ZM39.91,11.2c0,.5.08,1.23.27,2.26,0,.23-.04.65-.15,1.23-.08.57-.11,1-.11,1.27-.11-.04-.27-.08-.54-.08s-.46.04-.65.08c.19-1.15.31-2.03.42-2.61.19-1.04.42-1.73.77-2.15h0ZM38.65,16.69c0,.38-.04.69-.15.96h-.04c.04-.65.12-.96.19-.96h0Z"/>
    <path class="cls-3" d="M47.09,20.41h-.88c-.04.38-.15.88-.27,1.54h-.08c.12-.73.23-1.23.31-1.54h-1.27c-.11.81-.23,1.69-.38,2.65-.04.35-.04.31-.04-.12,0-.38.11-1.23.31-2.53h-1.27c-.08.46-.15.96-.27,1.46-.42,2.42-.84,4.61-1.27,6.56,0,.19.23.5.69.92,0,.42-.15.84-.42,1.19h-.08c-.04-.08-.04-.15-.08-.19l.12-.08s-.12-.12-.15-.15c-.31-1.07-.5-2.23-.58-3.45.04-.11.11-.23.19-.35.5-1.04.77-1.69.81-1.96-.04,0-.08-.04-.11-.08-.08-.08-.27-.12-.54-.12-.12,0-.19.04-.31.08.12-.84.35-2.11.69-3.84h-1.15c-.23,1.15-.5,2.5-.8,4.07v.08c-.04-.23-.08-.58-.08-1s.11-1.5.38-3.15h-3.91s-.04,0-.04.04h-.08v-.04h-1.65c.04.42.08.81.15,1.08.19.81.73,1.8,1.57,2.92.19-.11.38-.23.54-.35-.04.27-.04.61-.04,1,0,.27.15.92.46,2.03.31,1.04.5,1.61.58,1.69.19-.19.42-.42.61-.77.19-.27.31-.46.34-.54h.19c.08.42.15,1.07.27,2,.27.65.88,1.04,1.84,1.07.81,1.57,1.23,2.03,1.27,1.34,0,.23.04.42.12.54.15.23.46.19.96-.15,0,.08.04.23.12.5h1.23c.27-2.49.69-5.45,1.3-8.87.27-1.27.5-2.42.69-3.49h0ZM38.76,22.79c-.15-.12-.31-.19-.5-.23t.04-.04c.19-.88.38-1.53.61-2,0,.58-.04,1.31-.15,2.27h0Z"/>
    <path class="cls-3" d="M47.86,20.41c-.15,1.15-.35,2.38-.61,3.69-.38,2.03-1,4.95-1.8,8.67h5.45l.5-2.99-.15,2.99h10.29c.11-.65.19-1.23.27-1.65.23-1.46.35-2.69.35-3.65,0-.35-.15-.96-.46-1.84-.35-.96-.65-1.46-.88-1.46-.35,0-.61.12-.88.38-.12.15-.27.35-.46.61.04-.54.04-1,.04-1.42-.04-.73-.31-1.27-.88-1.65-.35.19-.61.5-.88.88-.23.35-.34.65-.34.84-.61-1.11-1.04-1.92-1.27-2.46-.11-.31-.23-.61-.27-.96h-4.07c.04,1.57,0,2.73-.08,3.53-.19,2.61-.84,4.26-1.92,4.99.31-1.23.65-3.15,1-5.76.15-1.07.31-2,.42-2.76h-1.38c-.15,2.38-.46,4.41-.88,6.1-.08-.04-.19-.04-.35-.04-.12-.04-.15-.19-.15-.46.35-2.34.65-4.18.96-5.6h-1.53ZM55.04,21.03c-.19,1.73-.27,2.61-.31,2.69-.15,1.15-.38,2-.73,2.57.15-1.53.23-2.46.27-2.73.19-1.11.42-1.99.77-2.61v.08h0ZM58.34,24.4v.08c-.15,1.54-.39,4.03-.69,7.48-.04,0-.11.11-.19.31l-.77-.04c.23-1.81.42-3.15.57-4.03.27-1.57.65-2.84,1.08-3.8h0ZM59.76,28.09c.23-1.31.54-2.15.88-2.53.15.73.08,1.65-.19,2.69-.27.96-.65,1.88-1.15,2.76.19-1.23.35-2.19.46-2.92h0ZM55.65,28.7c.15-.38.27-.65.31-.77v.08c-.04.96-.15,1.92-.34,2.88v.04c-.12-.5-.19-.92-.19-1.27,0-.27.08-.61.23-.96h0ZM56.3,24.94c-.23.08-.46.19-.65.38.04-.69.23-1.27.54-1.69.08.27.11.69.11,1.31h0Z"/>
    <path class="cls-3" d="M63.48,29.55l-.73.12c-.08.77-.27,1.65-.61,2.61,0,.04-.04.23-.15.5h4.83l.23-1.84c-.11-.19-.27-.31-.5-.38-.35.19-.54.5-.65.84-.04.19-.15.46-.27.85l-.04.04c-.04-.19-.08-.61-.08-1.27l-.08-.08c-.04-.08-.15-.11-.42-.11-.31,0-.5.19-.57.61-.12.5-.27.81-.54.92.23-1.11.35-1.96.35-2.61l-.19-.08c-.11-.08-.31-.12-.58-.12h0Z"/>
    <path class="cls-3" d="M66.82,32.77h-4.83c-.15.42-.42,1.11-.77,2.07h-.04c.11-.81.23-1.5.35-2.07h-10.29l-.12,1.69s-.11.08-.19.27c-.12-.04-.19-.08-.23-.08-.04-.04-.04-.19-.04-.46l.23-1.42h-5.45c-.15.73-.31,1.46-.5,2.26h-.04c.04-.73.12-1.46.19-2.26h-1.23v.12c.11.34.15.61.15.88,0,.19-.04.65-.08,1.42-.23.04-.42.15-.54.42-.19.31-.54.46-1.07.46-.04,0-.08-.12-.15-.38-.15-.19-.54-.11-1.15.23-.04-.58-.12-1.07-.15-1.46-.08-.73-.38-1.19-.96-1.34-.73.58-1.38,1.42-2.03,2.5-.11-.15-.27-.31-.5-.46-.19.34-.35.69-.46,1.04-.04.31-.12.54-.23.73h1.11c.04-.15.12-.31.15-.42.08-.12.15-.27.19-.38v.08c-.04.23-.11.46-.15.73h1.38c.15-.73.31-1.38.42-1.88h.11v1.88h6.98c.27-1.3.5-2.3.69-3.03v.08c0,.42.08,1.07.19,1.96,0,.12-.08.46-.19,1h1.46c.27-.73.58-1.42.85-2v.04c-.23.54-.46,1.19-.69,1.96h8.56v-.31c0-.35.11-.81.31-1.46.27-.85.58-1.5,1-1.92-.19.81-.42,2.03-.69,3.68h1.19c.27-1.8.46-3.03.57-3.68v.08l-.46,3.61h3.8c.35-1.15.65-2.03.88-2.61-.04.19-.27,1.04-.73,2.61h5.14c.08-.27.15-.54.27-.73v.08c0,.19,0,.42-.04.65h1.42c-.04-.08-.04-.15-.08-.23-.34-.96-.77-1.8-1.27-2.53-.42.11-.77.42-.96,1,.08-.35.11-.58.08-.77-.04-.35-.27-.58-.69-.77l-.96.96.27-1.8h0Z"/>
    <path class="cls-3" d="M49.05,36.92h-1.46c-.19.73-.46,1.8-.88,3.3-.08.27-.15.58-.23.84h1.11c.5-1.57.96-2.96,1.46-4.14h0Z"/>
    <path class="cls-3" d="M59.56,36.92h-1.19c-.11.73-.27,1.57-.42,2.5h-.11l-.08-2.5h-8.56c-.38,1.11-.81,2.5-1.23,4.14h3.26c.19-.81.38-1.54.58-2.19v.08c-.04.12-.19.81-.5,2.11h5.26s-.04-.11-.08-.15c-.19-.46-.27-.81-.27-1.07s.19-.92.54-1.92c0,.69.11,1.34.38,1.92.27.58.42,1,.42,1.23h4.72c.42-1.65.85-3.03,1.19-4.14h-3.8l-.23,1.77-.08.08c-.08.27-.12.19-.12-.23.12-.57.19-1.11.31-1.61h0ZM50.66,37.99v.08c0,.27-.08.61-.23,1.08,0-.31.08-.69.23-1.15h0Z"/>
    <path class="cls-3" d="M68.77,36.92h-5.14c-.31,1.04-.73,2.42-1.23,4.14h5.22c.42-1.76.81-3.15,1.15-4.14h0ZM66.66,37.91l.04-.11s-.08.27-.19.73c.04-.23.11-.42.15-.61h0Z"/>
    <path class="cls-3" d="M73.31,38.34v.04c.11.15.15.61.11,1.42-.04.58.19,1,.69,1.27h1.19c.04-.42.11-.69.19-.84v-1.34c-.58,0-.88.04-1,.12-.11-1.34-.5-2-1.07-2-.54,0-1,.31-1.38.92-.31.5-.46.92-.5,1.27h-.15c-.23-.46-.54-1.23-.96-2.26h-1.42c-.12.73-.31,1.61-.62,2.61-.15.58-.31,1.08-.46,1.54h1.96c.19-.73.38-1.34.5-1.8v.08c.12.42.15,1,.04,1.73h2.49c-.04-.42-.04-.73-.04-1,0-.8.15-1.38.42-1.73h0Z"/>
    <path class="cls-3" d="M16.66,34.15l-2.19,1.04c-1.42.65-2.34,1-2.69,1-.23,0-.46.23-.73.73h4.41s.12-.08.15-.04l.04.04h5.72c.15-.46.27-.88.38-1.23v.04c-.04.35-.12.77-.19,1.19h1.5c.04-.19.08-.34.11-.46v.04c.04.12.04.27.08.42h1.88c.04-.12.11-.23.15-.34l.04.34h7.98c-.04-.5-.11-1.04-.27-1.69-.27-1.04-.61-1.8-1.04-2.38-.81.65-1.38,1.84-1.73,3.53-.19-.27-.31-.42-.35-.46-.19-.15-.42-.23-.73-.23-.58,0-.88.35-.96,1.04-.04-.04-.23-.27-.54-.77-.27-.35-.54-.54-.81-.54s-.46.08-.58.27c-.04.08-.04.19-.08.31-.04-.04-.15-.15-.27-.38-.19-.23-.38-.38-.65-.46-.23.11-.46.27-.69.54-.12.12-.27.31-.42.5-.15-.61-.54-1.23-1.11-1.8-.5-.5-.88-.77-1.07-.77-.65,0-1.11.46-1.38,1.38-.15.5-.27,1.11-.35,1.84v.04c-.08-.34,0-.8.19-1.46,0-.19-.19-.38-.54-.5-.34.08-.58.19-.69.35-.19.31-.38.54-.58.65-.11-.04-.35-.38-.69-1-.27-.5-.73-.77-1.34-.77h0ZM16.27,36.3l-.19-.38c.19-.34.31-.58.31-.69.35.19.61.35.73.5.15.19.27.31.31.35l.12.31-1.27-.08h0Z"/>
    <path class="cls-3" d="M9.25,36.92h.92c-.19-.19-.42-.34-.69-.46-.08.15-.15.31-.23.46h0Z"/>
    <path class="cls-3" d="M10.17,36.92h-.92c-.5.88-1.19,1.96-2.15,3.22-.19.27-.38.57-.5.92h2.11c.04-.31.15-.81.27-1.54.12-.69.31-1.19.5-1.46v.04c.08,1.34-.12,2.3-.58,2.96h2.34c.23-.73.46-1.19.65-1.38-.08.27-.19.73-.31,1.38h3.11c.12-1.04.31-1.73.5-2.11v.04c0,.12.04.27.11.54.04.19.08.42.08.69,0,.19-.04.46-.12.84h1.27c.19-1.04.38-1.84.58-2.46l.12.08c0,.12.04.31.08.61.08.31.12.58.12.84,0,.08-.04.38-.15.92h1.19c.31-1.11.61-2.07.88-2.88v.04c0,.12.04.42.08.88,0,.27-.12.92-.31,1.96h1.11c.08-.69.23-1.38.42-2.11.27-.77.54-1.46.73-2.03h-5.72c.08.08.34.27.81.54l-.31.77s-.19-.15-.46-.38c-.27-.23-.42-.42-.46-.58.08-.19.15-.31.23-.35h-4.41s-.04.08-.08.12c-.15.27-.31.61-.42.96-.04-.27-.11-.54-.19-.73-.04-.11-.12-.23-.19-.35h0ZM13.85,37.72c0,.35-.08.62-.27.88h-.12c.08-.27.19-.61.38-.96v.08h0Z"/>
    <path class="cls-3" d="M36.11,34.19s-.15-.04-.42-.04c-.77,0-1.27.42-1.46,1.27-.08.34-.15.84-.23,1.5h1.19c.12-.38.19-.73.31-1,.04.12.04.27.04.54,0,.12,0,.27-.04.46h1.11c-.04-.84-.19-1.76-.54-2.72h.04Z"/>
    <path class="cls-3" d="M25.14,36.92h-1.88c.04.27.04.54.04.84,0,.58-.04,1-.11,1.27-.11.35-.31.77-.65,1.19.15-1.46.35-2.57.54-3.3h-1.5c-.12.65-.31,1.42-.5,2.26-.12.5-.27,1.11-.46,1.88h3.03c.42-1.73.92-3.11,1.5-4.14h0Z"/>
    <path class="cls-3" d="M25.33,36.92v.5c0,.54-.23,1.77-.69,3.65h1.73c.04-.27.11-.46.19-.65h.08c-.04.19-.08.38-.11.65h1.92c0-.35,0-.65.04-.92.12-1.42.42-2.42.84-3.07.08.77.12,1.27.12,1.54,0,.54-.15,1.34-.42,2.42v.04h3.95c.19-.65.34-1.23.5-1.73v.08s.04.08.08.08v.46c0,.23-.04.61-.12,1.11h1.07c.04-.5.11-.92.15-1.27.15-1.19.34-2.15.54-2.88h-1.19c-.04.15-.04.35-.08.54h-.65c.04-.19.04-.34.04-.54h-7.98ZM31.74,40.87h-.08c.11-.5.19-.77.27-.77,0,.12-.08.38-.19.77h0Z"/>
    <path class="cls-3" d="M39.38,36.92h-1.38c-.27,1.27-.58,2.65-.92,4.14h1.42c.34-1.65.61-3.03.88-4.14h0Z"/>
    <path class="cls-3" d="M37.8,36.92h-1.11s-.04.04-.08.08v-.08h-1.11c-.08.58-.23,1.65-.5,3.19-.04.35-.11.65-.15.96h1.57c.42-1.5.88-2.88,1.38-4.14h0Z"/>
    <path class="cls-3" d="M39.91,36.92v1.57c-.19.81-.42,1.65-.65,2.57h1.23c.11-.69.19-1.23.31-1.65.15-.84.31-1.31.46-1.42-.19,1.34-.38,2.38-.65,3.07h2.03c.11-.54.23-1,.35-1.34v.04c-.04.42-.11.88-.19,1.3h3.22c.35-1.61.61-2.99.88-4.14h-6.98Z"/>
    <path class="cls-3" d="M34.5,41.06h-1.07c-.19.88-.5,2.27-.96,4.11h5.22c.27-1.54.54-2.92.81-4.11h-1.42c-.19.77-.42,1.57-.61,2.42-.04,0-.15,0-.27-.04-.15,0-.31.04-.42.08.12-.38.19-.77.27-1.15.12-.46.27-.88.38-1.31h-1.57c-.23,1.31-.42,2.27-.54,2.92h-.15c.12-1.15.23-2.11.35-2.92h0Z"/>
    <path class="cls-3" d="M40.6,41.06c-.04.08-.08.15-.11.23h-.04c.04-.08.04-.15.04-.23h-1.23c-.31,1.27-.65,2.61-1,4.11h3.45c.35-1.73.65-3.07.92-4.11h-2.03Z"/>
    <path class="cls-3" d="M26.37,41.06h-1.73c-.23.92-.54,2-.88,3.26-.08.27-.15.58-.23.84h7.1c.04-.08.04-.15.08-.27-.04.08-.04.15-.04.27h1.27c.38-1.65.73-2.99,1.04-4.11h-3.95c-.15.58-.38,1.34-.65,2.38h-.08c.04-.96.12-1.73.15-2.38h-1.92c-.12.42-.19.92-.31,1.54-.19.88-.38,1.65-.61,2.3l-.12-.08c.27-1.57.58-2.84.88-3.76h0Z"/>
    <path class="cls-3" d="M16.54,41.06h-1.27c-.08.31-.19.69-.31,1.11-.27.92-.42,1.46-.54,1.57.08-1.08.15-1.96.27-2.69h-3.11c-.04.12-.08.27-.11.42-.19.81-.5,1.42-.84,1.8h-.08c.08-.19.27-.88.61-2.03.04-.08.04-.15.08-.19h-2.34c-.08.08-.15.15-.23.23,0-.04,0-.11.04-.23h-2.11c-.27.61-.42,1.31-.42,2.07,0,.34.12.65.38.96.15.19.46.46.88.81.27-.11.54-.42.84-.92.34-.54.54-.84.57-.88-.19.81-.38,1.5-.54,2.07h7.37c.31-1.61.58-2.99.84-4.11h0Z"/>
    <path class="cls-3" d="M20.23,41.06h-1.11c-.19,1-.5,2.38-.92,4.11h4.53c.27-1.54.58-2.92.92-4.11h-3.03c-.12.46-.27,1-.42,1.57-.04.31-.08.23-.08-.23,0-.42.04-.88.12-1.34h0Z"/>
    <path class="cls-3" d="M18.46,41.06h-1.19c-.19.81-.5,2.19-.92,4.11h1.04c.38-1.57.73-2.92,1.07-4.11h0Z"/>
    <path class="cls-3" d="M72.92,41.06h-2.49c-.11.46-.27.96-.46,1.54-.23.69-.54,1.54-.96,2.57h2.23s0-.08.04-.12v.12h1.54c.11-.35.19-.65.31-.92v.08c-.04.23-.12.5-.19.84h2.95c.27-1.11.38-1.88.38-2.26,0-.54-.04-.88-.08-1-.11-.34-.46-.46-1-.27.04-.23.08-.42.11-.58h-1.19s.08,0,.12.04c-.04.35-.15.54-.35.58-.42.12-.69.23-.88.35-.04-.35-.04-.69-.08-.96h0Z"/>
    <path class="cls-3" d="M69.89,41.06h-1.96c-.19.54-.42,1-.61,1.38.11-.5.19-.96.31-1.38h-5.22c-.31,1-.65,2.11-1,3.38-.08.27-.15.5-.19.73h7.68c.38-1.69.73-3.07,1-4.11h0Z"/>
    <path class="cls-3" d="M57.57,41.06c0,.27-.08.58-.23.88-.12.15-.27.42-.46.77h-.11c0-.65-.08-1.23-.19-1.65h-5.26c-.27,1-.61,2.38-1.04,4.11h6.95c.54-1.8,1.07-3.19,1.65-4.11l-1.31,4.11h3.61c.04-.23.11-.46.19-.73.35-1.23.65-2.34.92-3.38h-4.72Z"/>
    <path class="cls-3" d="M46.02,41.06h-3.22c-.23,1.46-.46,2.84-.73,4.11h1.88c.19-.88.38-1.69.58-2.38h.08c-.19.84-.38,1.65-.54,2.38h2.38c.04-.23.12-.46.19-.73.34-1.23.65-2.34.96-3.38h-1.11c-.5,1.8-.92,3.15-1.19,4.03l-.08.04c.27-1.5.54-2.84.81-4.07h0Z"/>
    <path class="cls-3" d="M51.24,41.06h-3.26c-.31,1.04-.61,2.23-.92,3.49-.04.19-.11.42-.15.61h3.22c.42-1.54.77-2.92,1.11-4.11h0Z"/>
    <path class="cls-3" d="M77.53,43.71c-.42,0-.84.46-1.27,1.38t-.04.08h1.84v-1.31l-.08-.08s-.19-.08-.46-.08h0Z"/>
    <path class="cls-3" d="M80.1,44.17c0-.31-.23-.46-.65-.46-.27,0-.61.42-1.04,1.3-.04.04-.04.12-.08.15h1.38c.11-.35.27-.65.38-1h0Z"/>
    <path class="cls-3" d="M43.94,45.17h-1.88c-.42,1.96-.92,3.68-1.42,5.26.42-2.03.77-3.76,1.07-5.26h-3.45c-.23.81-.46,1.69-.65,2.57h-.11c-.11,0-.19,0-.31.04.04-.12.04-.23.08-.35.15-.81.31-1.54.42-2.26h-5.22c-.11.35-.19.73-.31,1.11-.57,2.19-1.07,3.92-1.5,5.1h7.37c0-.12,0-.19.04-.27.04.08.04.15.04.27h4.22c.42-1.5.92-3.41,1.5-5.76.04-.15.08-.31.11-.46h0ZM35.54,46.74c0,.15-.04.46-.11.96-.12.58-.27,1.15-.42,1.73.35-1.73.5-2.61.54-2.69h0Z"/>
    <path class="cls-3" d="M46.44,45.17h-2.38c-.69,2.88-1.15,4.95-1.38,6.22h2.07c.46-1.57,1.04-3.65,1.69-6.22h0Z"/>
    <path class="cls-3" d="M50.12,45.17h-3.22c-.61,2.42-1.23,4.49-1.84,6.22h3.38c.61-2.3,1.19-4.37,1.69-6.22h0Z"/>
    <path class="cls-3" d="M31.66,46.17c.08-.35.15-.65.27-1h-1.27c-.19.96-.58,2.42-1.11,4.41-.15.65-.31,1.23-.42,1.8h1.27c.31-1.27.73-3.03,1.27-5.22h0Z"/>
    <path class="cls-3" d="M22.72,45.17h-4.53c-.15.5-.31,1.04-.42,1.61-.46,1.8-.84,3.34-1.15,4.6h1.31c.34-1.07.77-2.49,1.3-4.26-.19.73-.42,1.77-.69,3.19-.08.34-.15.73-.27,1.07h10.36c.42-1.38,1.08-3.45,2-6.22h-7.1c-.46,1.61-.92,3.26-1.42,4.91v.08s-.08,0-.08-.04v-.42c.19-1.65.42-3.15.69-4.53h0ZM25.22,46.13v.04c-.08.27-.15.73-.27,1.42-.12.61-.31,1-.5,1.15.38-1.42.65-2.3.77-2.61h0Z"/>
    <path class="cls-3" d="M15.5,46.05c.04-.31.11-.61.19-.88h-7.37c-.42,1.65-.61,2.61-.61,2.92l.23,3.3h1v-.81c.11-.42.27-1.34.54-2.69.23-1.27.42-2.07.54-2.5.04.96-.04,2.11-.27,3.45-.12.58-.27,1.42-.46,2.53h2.69c.15-.65.38-1.34.65-2.07.77-1.88,1.23-3.11,1.42-3.72-.15,1-.5,2.46-1,4.41-.12.5-.23.96-.35,1.38h1.88c.04-.54.35-2.3.92-5.33h0Z"/>
    <path class="cls-3" d="M16.77,47.59c.19-.84.42-1.65.61-2.42h-1.04c-.42,1.65-.88,3.72-1.46,6.22h1.04c.19-1.04.5-2.3.84-3.8h0Z"/>
    <path class="cls-3" d="M38.11,51.38v.15c-.04.15-.12.31-.15.5h-.08c.04-.23.08-.46.15-.65h-7.37c-.31.81-.58,1.38-.77,1.73.11-.42.31-1,.5-1.73h-1.27c-.31,1.27-.54,2.23-.69,2.92h-.15c-.08-.19-.12-.54-.12-.96,0-.23.15-.88.46-1.96h-10.36c-.27.77-.58,1.46-.92,2.07h-.12c.12-.38.35-1.07.69-2.07h-1.31c-.38,1.31-.69,2.34-.88,3.07h2.88c.04-.12.04-.23.08-.34.27-.92.54-1.5.84-1.73l-.54,2.07h1.34c.04-.12.04-.23.08-.27h.08v.27h4.87c.12-.42.27-.84.42-1.27h.08c-.04.42-.12.84-.19,1.27h4.53c.31-.42.54-.65.65-.69-.08.27-.15.5-.23.69h6.64c.08-.12.12-.27.15-.42.12-.73.23-1.34.38-1.8l.08-.11c0,.58-.11,1.38-.35,2.34h8.29c.46-1.04.81-1.76,1-2.15l.08-.12c-.11.61-.31,1.38-.58,2.26h1.27c.27-1.07.58-2.11.84-3.07h-3.38c-.31.81-.62,1.57-.92,2.26,0-.04,0-.08-.04-.12.19-.58.38-1.27.65-2.15h-2.07s0,.12-.04.19c-.11-.04-.19-.04-.31-.04h-.08s.04-.12.08-.15h-4.22ZM42.49,52.77c.04.15.08.27.19.38-.38.12-.77.31-1.11.58.08-.19.15-.42.23-.69.19-.15.38-.31.58-.42l.11.15h0ZM22.61,53.15v.04c-.04.27-.15.61-.27,1.11,0-.27.08-.65.27-1.15h0Z"/>
    <path class="cls-3" d="M14.58,51.46v-.08h-1.88c-.38,1.42-.65,2.46-.77,3.07h1.5c.15-.42.27-.69.35-.81h.08v.81h1.5c.04-.58.23-1.57.58-3.07h-1.04c-.04.19-.11.35-.15.54l-.08.11c-.04-.11-.08-.31-.08-.58h0Z"/>
    <path class="cls-3" d="M7.94,51.38v.12c0,.69.04,1.19.15,1.46.11.42.38.61.73.61.54,0,.92-.23,1.19-.69.19-.5.35-.84.42-.96.04.31.08,1.15.15,2.49v.04h1.15c-.08-.23-.12-.54-.12-.88,0-.58.12-1.31.35-2.19h-2.69c-.04.27-.12.58-.19.92h-.15v-.92h-1Z"/>
    <path class="cls-3" d="M27.29,54.92h.12c0,.08,0,.38.04.96.12.5.46.77,1,.77.19,0,.58-.46,1.19-1.38.19-.31.38-.58.58-.81h-4.53c-.15.69-.35,1.42-.61,2.19v.92h.96c.12-.23.23-.5.38-.8.5-.96.77-1.57.88-1.84h0Z"/>
    <path class="cls-3" d="M19,54.45l-.04.04c-.35,1.19-.5,1.88-.5,2.03,0,.27,0,.38.04.42l.08.04c-.19.12-.04.19.38.19.5,0,.88-.42,1.11-1.23.11-.69.19-1.19.27-1.5h-1.34Z"/>
    <path class="cls-3" d="M20.49,54.45v1.61c0,.12.15.46.5.96.12.19.23.38.35.54h1.61c.23-.65.42-1.04.61-1.23v1.15s.04.04.08.08h.54c.35-.8.73-1.84,1.19-3.11h-4.87Z"/>
    <path class="cls-3" d="M17.69,55.88c.35-.23.65-.69.92-1.42h-2.88c-.12.23-.19.42-.23.62-.04-.04-.11,0-.15.04-.04,0-.04-.12-.04-.38,0-.08,0-.15.04-.27h-1.5c-.04.58-.15,1.34-.27,2.26.19.12.35.23.46.27.35-.11.54-.42.54-.92h.61l-.08,1.34s.11.11.15.15h.58c.19-.23.34-.58.5-1.04.23-.65.5-1.04.77-1.23.12.27.31.46.58.58h0Z"/>
    <path class="cls-3" d="M11.94,54.45s-.04.12-.04.15h-.12s-.04-.11-.04-.15h-1.15c.12,1.19.5,1.77,1.07,1.77.77,0,1.27-.31,1.46-.88.12-.35.19-.65.31-.88h-1.5Z"/>
    <path class="cls-3" d="M47.59,54.45h-1.27c-.23.73-.5,1.57-.8,2.53-.08-.11-.15-.19-.23-.27-.19.08-.34.15-.5.27.42-1,.77-1.84,1.04-2.53h-3.34c.11.04.19.08.23.12-.15.54-.38,1.31-.73,2.34-.08.23-.15.46-.19.65h4.95c.27-1.07.58-2.11.84-3.11h0Z"/>
    <path class="cls-3" d="M40.53,57.56c1-1.8,1.65-2.84,1.96-3.11h-4.95c-.08.27-.15.54-.23.81-.08.23-.15.46-.19.69-.08-.19-.19-.42-.31-.77.19-.23.35-.46.46-.73h-6.64c-.31.92-.46,1.54-.46,1.88v.46s.08.12.12.23c.19-.11.5-.15.96-.15.23,0,.42.04.54.15.08.04.15.04.27,0-.04.12-.04.31-.04.54h1.27c.12-.58.27-1.23.46-2,.12-.27.35-.42.65-.46-.04.42-.08.65-.08.77s.04.38.11.77c.04.04.08.12.12.19.12.12.27.15.54.15s.46-.11.5-.31c0-.19.04-.34.08-.42.19.19.38.35.61.46.19.12.42.19.61.23-.04.19-.08.42-.12.61h3.76Z"/>
    <path class="cls-3" d="M31.93,59.6c-.27.08-.15.12.31.12.27,0,.61-.73,1.04-2.15h-1.27c-.04.19-.04.42-.08.69-.04.57-.04,1,0,1.34h0Z"/>
    <path class="cls-3" d="M22.87,57.68s.04-.08.08-.12h-1.61c.12.27.19.42.19.54l.04.27c.11.12.27.27.46.38.34-.19.61-.54.84-1.07h0Z"/>
    <path class="cls-3" d="M24.06,57.75c.04-.08.08-.15.12-.19h-.54c.15.08.31.15.42.19h0Z"/>
    <path class="cls-3" d="M26.02,57.56h-.96v.65c.15.12.35.19.54.31.08-.19.23-.54.42-.96h0Z"/>
    <path class="cls-3" d="M40.38,57.79c.04-.08.11-.15.15-.23h-3.76c-.08.42-.11.77-.15,1.07-.12.19.04.31.5.31.19,0,.35-.12.5-.35v1.57s.08.12.11.15c.12.12.27.15.54.15.42,0,1.11-.88,2.11-2.69h0Z"/>
    <path class="cls-3" d="M41.79,57.56c-.57,1.69-1,2.92-1.31,3.65-1.77,2.42-3.38,5.33-4.8,8.75h4.99c.08-.23.15-.46.23-.69,1.5-4.26,2.8-7.64,3.88-10.09-.19.58-.38,1.15-.61,1.8-1.3,3.8-1.96,5.72-1.96,5.79,0,.27.04.46.15.5.11.04.27.08.38.11.16-.08.31-.15.42-.23-.15.42-.31.92-.46,1.42-.27.58-.46,1.04-.5,1.38h8.6c.04-.27.12-.58.19-.84,0-.04,0-.08.04-.11.5-1.04,1.04-2.3,1.69-3.76-.42,1.57-.88,3.15-1.38,4.72h3.72c1.31-4.49,2.15-7.45,2.57-8.79l.08-.15c-.19,1.46-.96,4.38-2.3,8.71-.04.08-.04.15-.04.23h2.19c.61-1.57,1.04-2.69,1.31-3.26-.04.15-.31,1.19-.81,3.07-.04.04-.04.12-.04.19h2.42c.04-.08.04-.15.08-.19.96-2.3,1.73-3.91,2.23-4.84l.08-.15c-.08.5-.38,1.54-.88,3.11v1.34s.04.04.04.15c.04.08.15.12.42.12.19,0,.88-1.38,2.07-4.11.54-1.3,1-2.5,1.42-3.61h.11c.77,0,1.5-1.42,2.15-4.22h-7.25c.04,2.42-.65,4.64-2.03,6.72l-.08.04c.54-2.26,1.15-4.41,1.8-6.45.11-.12.19-.19.31-.31h-8.52s-.04,0-.04.04c-1,2.57-1.61,4.22-1.84,4.95-.08.04-.15.12-.23.19.27-1.19.84-2.92,1.69-5.18h-1.84c-.5,1.84-1.04,3.99-1.65,6.45-.11-.04-.23-.04-.42-.04.77-2.65,1.38-4.76,1.88-6.41h-2.69c-.23.5-.5,1.04-.77,1.61-.04-.11-.08-.23-.11-.31.11-.42.27-.88.38-1.31h-4.95ZM42.41,61.75c-.12.65-.31,1.34-.58,2.15-.77,2.19-1.15,3.34-1.19,3.45v.04c-.04.31-.08.23-.08-.23,0-1.53.08-2.53.27-2.99.34-.69.77-1.57,1.19-2.65.04.04.08.08.08.15,0,.19.04.31.12.34.04-.08.12-.15.19-.27h0ZM39.68,64.28v.04c-.04.15-.23.77-.54,1.8-.27.88-.5,1.54-.69,2.03-.04-.04-.08-.04-.15,0-.04,0-.08-.11-.08-.38,0-.42.23-1.04.65-1.92.46-.88.73-1.38.81-1.57h0ZM55.84,59.02v.08l-.5,2.49v.04h-.08v-.42c0-.5.19-1.23.57-2.19h0ZM61.91,64.16c-.08.12-.15.27-.23.42.04-.19.08-.34.11-.54.04.04.08.08.11.11h0ZM63.1,61.94c-.12.19-.23.38-.35.61.04-.19.08-.31.11-.38.04-.12.11-.19.23-.23h0ZM49.16,68.66c.27-.77.5-1.46.69-2.11.11.08.27.15.46.27-.42.57-.81,1.19-1.15,1.84h0ZM45.13,67.2c-.23.5-.5,1.11-.84,1.81.08-.23.23-.81.46-1.73.04-.08.08-.12.12-.12.11,0,.19,0,.27.04h0Z"/>
    <path class="cls-3" d="M15.62,57.75c.08-.04.15-.12.23-.19h-.58c.12.04.23.12.34.19h0Z"/>
    <path class="cls-3" d="M42.22,69.96v.08c-1.27,3.91-2.3,7.1-3.19,9.59h-.38c-.12-1.34-.19-2.26-.19-2.69,0-.5.73-2.8,2.23-6.99h-4.99c-.88,2.04-1.69,4.22-2.42,6.64.58.34.96.46,1.15.34.08-.19.15-.27.19-.27.38,0,.61.31.69.96.04.65.81.92,2.3.88,0,.73.38,1.46,1.19,2.19.42.35.96.77,1.65,1.27.42-.42.84-1.19,1.34-2.3.58-1.27,1.04-2.15,1.34-2.61-.08.27-.23.84-.5,1.8-.27.88-.46,1.46-.65,1.77,0,.12.04.23.15.35.11.11.23.19.35.23.58-.42,1-.96,1.3-1.61.27-.77.5-1.34.73-1.77h.08c-.08.35-.27.92-.61,1.8-.27.84-.35,1.54-.23,2.03.12.12.31.23.54.31,1.15-2.34,2.3-5.3,3.49-8.87.11-.08.19-.19.23-.35.08-.42.15-.65.23-.77.04.11,0,.31-.11.54l.08.35c.04.12.11.15.23.19-1.57,5.18-2.46,8.06-2.61,8.71.04.19.19.38.46.54.65-.77,1.15-1.69,1.5-2.8.31-1.27.58-2.23.84-2.92h.08c-.08.27-.19.65-.35,1.23-.15.5-.23.88-.23,1.15l.04.5s.04.04,0,.12c.04.08.19.12.46.12.35,0,.54-.12.58-.34.04-.35.15-.58.27-.69-.08.35-.08.81,0,1.34-.15.15,0,.23.42.23,1.27,0,2.72-2.57,4.45-7.75.27-.88.5-1.73.73-2.53h-3.72c-.73,2.19-1.57,4.34-2.53,6.45h-.11c.57-1.27,1.3-3.41,2.11-6.45h-8.6ZM41.45,77.18c-.38,1-.81,1.8-1.27,2.46.8-2.49,1.46-4.3,2.03-5.37-.12.88-.34,1.84-.77,2.92h0Z"/>
    <path class="cls-3" d="M78.06,45.21v-.04h-1.84c-.15.35-.38,1-.73,1.96,0-.12.11-.73.38-1.92v-.04h-2.95c-.19.73-.38,1.73-.65,2.92-.35,1.61-.65,2.84-.88,3.72-.04.04-.08,0-.11-.04.54-2.76,1.04-4.95,1.54-6.6h-1.54c-.42,2.19-.81,3.45-1.15,3.8.38-1.61.77-2.88,1.11-3.8h-2.23c-.08.19-.16.35-.23.54.04-.19.08-.35.12-.54h-7.68c-.81,2.8-1.42,5.14-1.88,6.95-.5.5-.88,1.15-1.23,1.92-.15.42-.38,1.19-.73,2.3-.04,0-.08-.19-.08-.54-.12-.04-.27-.04-.46-.04,1.46-3.26,2.23-4.91,2.26-4.91.35,0,1.04-1.88,2.07-5.68h-3.61l-1.92,6.06h-.04c.58-2.3,1.04-4.07,1.38-5.3.08-.27.15-.5.23-.77h-6.95c-.04.27-.12.5-.19.77-1.11,4.57-1.65,7.29-1.65,8.17,0,.54-.38,1.69-1.19,3.45h2.69c.35-1.11.61-2,.81-2.65h.08c-.23.81-.46,1.69-.69,2.65h1.84s.04-.08.04-.11c1.04-2.8,1.61-4.49,1.8-5.07v.04c-.19,1.34-.65,3.07-1.42,5.14h8.52v-.04.04h7.25c.04-.19.08-.34.11-.54l.04-.11c.04.11.12.27.31.54.04.04.04.08.08.11h.96c.19-.23.35-.46.42-.73.08-.5.19-.88.31-1.15,0,.88.08,1.46.23,1.73h.38c.57,0,1.04-.73,1.46-2.19.35-1.65.58-2.69.69-3.11.35.19.61.34.81.46.65-.73,1.15-1.54,1.42-2.46.12-.42.61-.61,1.42-.61.54,0,1.19-.73,1.92-2.19.35-.65.69-1.38,1-2.15h-1.38c-.19.42-.46.92-.73,1.5-.04.31-.08.23-.08-.23,0-.27.08-.5.19-.73.23-.31.35-.46.35-.5h0ZM74.49,46.24v.04c-.11.81-.23,1.38-.34,1.73,0-.42.11-1.04.34-1.77h0ZM68.77,45.9v.08l-.5,1.92-.08.11c.04-.27.23-.96.58-2.11h0ZM63.75,53.65c.19-.65.31-1.07.42-1.34v.08l-.69,2.69c0-.27.08-.73.27-1.42h0ZM66.82,55.68s-.12-.04-.15-.04c.38-1.11.65-1.88.84-2.26-.11.65-.35,1.42-.69,2.3h0ZM58.11,46.82c-.04.96-.31,2.11-.73,3.45-.15.46-.35,1.08-.61,1.84v-.73c.35-1.11.77-2.65,1.34-4.57h0Z"/>
    <path class="cls-3" d="M69.66,57.56h-.96c.15.23.27.35.38.38.19-.12.38-.27.58-.38h0Z"/>
    <path class="cls-3" d="M57.57,69.96h-2.19c-1.27,4.03-1.88,6.07-1.88,6.1,0,.58.08,1,.23,1.27-.19.04-.04.04.38.04.27,0,1-1.46,2.19-4.34.5-1.19.92-2.19,1.27-3.07h0Z"/>
    <path class="cls-3" d="M57.3,73.53c0,.12.27.38.8.81.77-1.11,1.54-2.57,2.34-4.38h-2.42c-.5,1.84-.73,3.03-.73,3.57h0Z"/>
  </g>
  <g id="Layer_4" data-name="Layer 4">
    <path class="cls-2" d="M48.24,10.28c-.42-.84-.88-1.42-1.31-1.73-1.46-1.07-4.84-.96-10.17.38-1.19.5-2.07,1.65-2.65,3.45-.38,1.27-.58,2.57-.58,3.92,0,3.03.73,6.14,2.23,9.25,1.19,2.49,2.95,5.18,5.26,8.14l-7.75-.08c-13.28,0-21.84,1.07-25.68,3.22-1.27.73-2.03,1.61-2.26,2.61-.11.58-.08,1.23.04,2,0,4.49.5,7.91,1.54,10.17,2.42,5.41,7.37,8.1,14.85,8.1,1.88,0,5.33-.19,10.36-.54,4.11-.31,6.83-.5,8.17-.58-.46.54-1.04,1.46-1.69,2.73-.42.81-1.23,2.57-2.46,5.22-.58,1.27-1.27,2.72-2.07,4.41-.54,1.31-.81,2.69-.81,4.18,0,1.34.46,2.8,1.42,4.41,1.46,2.5,3.57,3.72,6.37,3.72,5.18,0,10.79-2.95,16.77-8.83,1.88-1.84,3.72-3.91,5.53-6.22,1.5-1.96,2.27-3.03,2.38-3.15,2.57-2.95,5.68-6.64,9.25-11.05,4.26-5.22,6.37-8.02,6.37-8.44,0-.27-.11-.38-.38-.27-.65-1.27-5.07-6.1-13.16-14.51-4.41-4.61-10.52-10.82-18.27-18.65t.08-.08c-.46-.35-.92-.96-1.38-1.8h0ZM41.99,8.94c2.57,0,4.3.46,5.22,1.38-.08.08-.12.15-.12.27,4.07,4.8,9.52,10.78,16.31,17.92,3.88,4.03,9.48,9.83,16.81,17.39-1,.88-2.69,2.8-5.03,5.76-5.91,7.41-9.13,11.4-9.67,11.98-.04.04-.77,1.07-2.19,3.03-1.77,2.34-3.61,4.45-5.49,6.37-5.99,6.1-11.59,9.13-16.77,9.13-2.38,0-4.22-1.15-5.53-3.42-.81-1.5-1.23-2.72-1.23-3.68,0-1.19,1.23-4.26,3.68-9.25,2.49-4.72,3.72-7.14,3.72-7.18v-.42h-.08s-.08-.11-.04-.19c-.04-.04-.08-.04-.15-.04,0-.27-.15-.46-.5-.5h-1.04c-.5,0-2.88.19-7.1.54-4.22.35-7.94.54-11.17.54-6.98,0-11.59-2.61-13.86-7.83-.92-2.19-1.38-5.26-1.38-9.25,0-4.64,6.06-6.95,18.15-6.95.42,0,4.57.12,12.47.38,2.38.08,3.99.04,4.87-.15.11.11.19.23.31.34l.84.04s.04,0,.08-.04c.08-.04.12-.19.12-.46s-.46-.96-1.34-2.11c-1.38-1.73-2.38-3.07-3.03-3.95-2.88-4.26-4.34-8.33-4.34-12.17,0-1.84.23-3.26.73-4.22,1.11-2.19,3.38-3.26,6.72-3.26h0Z"/>
  </g>
</svg>