<?xml version="1.0" encoding="UTF-8"?>
<svg id="Layer_2" data-name="Layer 2" xmlns="http://www.w3.org/2000/svg" xmlns:xlink="http://www.w3.org/1999/xlink" viewBox="0 0 96.16 92.61">
  <defs>
    <style>
      .cls-1 {
        fill: url(#linear-gradient);
      }

      .cls-1, .cls-2, .cls-3, .cls-4, .cls-5, .cls-6 {
        stroke-width: 0px;
      }

      .cls-3 {
        fill: #ccc;
      }

      .cls-4 {
        fill: #999;
      }

      .cls-5 {
        fill: #f90;
      }

      .cls-6 {
        fill: #069;
      }
    </style>
    <linearGradient id="linear-gradient" x1="45.74" y1="9.12" x2="45.74" y2="120.77" gradientUnits="userSpaceOnUse">
      <stop offset=".37" stop-color="#fff"/>
      <stop offset="1" stop-color="#c6c6c6"/>
    </linearGradient>
  </defs>
  <g id="Layer_1-2" data-name="Layer 1">
    <path class="cls-4" d="M62.74,13.47l-11.63-7.33L15.3,31.36c-5.49,2.03-8.75,5.49-9.79,10.36v.04c-.58,10.4,3.07,15.54,10.9,15.43v20.84c0,9.71,4.87,14.58,14.58,14.58h41.68c9.71,0,14.58-4.87,14.58-14.58v-20.84c7.25-2.88,10.09-7.79,8.44-14.78-.11-.23-.19-.46-.31-.65-2.49-4.95-5.37-8.33-8.56-10.06l-4.8-3.95V5.45h-19.3v8.02h0Z"/>
  </g>
  <g id="Layer_2-2" data-name="Layer 2">
    <path class="cls-4" d="M77.24.12c-.08-.08-.15-.12-.27-.12h-19.31c-.11,0-.19.04-.27.12-.08.08-.11.15-.11.27v7.33L46.27.77c-.08-.04-.15-.08-.23-.08-.11,0-.19.04-.23.08L10.08,25.94C4.48,28.06,1.14,31.59.06,36.58v.08c-.31,5.33.5,9.29,2.38,11.94,1.8,2.57,4.64,3.88,8.52,3.91v20.45c0,9.98,4.99,14.97,14.97,14.97h41.68c9.98,0,14.97-4.99,14.97-14.97v-20.57c7.29-2.95,10.09-8.02,8.44-15.12-.04-.04-.04-.08-.04-.08-2.61-5.41-5.6-9.06-9.02-10.9l.08.08-4.68-3.84V.38c0-.12-.04-.19-.12-.27h0ZM57.98,8.67c.04-.08.08-.15.08-.27V.77h18.54v21.91s0,.11.04.19c.04.04.08.08.11.12l4.8,3.95.04.04c3.3,1.8,6.22,5.3,8.71,10.55,1.53,6.72-1.19,11.44-8.21,14.24-.12.04-.15.08-.19.15-.04.04-.08.12-.08.19v20.84c0,9.48-4.72,14.2-14.2,14.2H25.93c-9.48,0-14.2-4.72-14.2-14.2v-20.84c0-.12-.04-.19-.11-.27-.08-.08-.15-.12-.27-.12-3.8.04-6.56-1.15-8.29-3.61-1.77-2.49-2.49-6.29-2.23-11.4,1.04-4.72,4.22-8.1,9.56-10.06t.08-.08L46.04,1.53l11.44,7.22c.08.04.15.08.27.04.08-.04.15-.08.23-.11h0Z"/>
    <path class="cls-1" d="M58.05,8.4c0,.11-.04.19-.08.27-.08.04-.15.08-.23.11-.11.04-.19,0-.27-.04l-11.44-7.22L10.47,26.6s-.04.04-.08.08c-5.33,1.96-8.52,5.33-9.56,10.06-.27,5.1.46,8.9,2.23,11.4,1.73,2.46,4.49,3.65,8.29,3.61.11,0,.19.04.27.12.08.08.11.15.11.27v20.84c0,9.48,4.72,14.2,14.2,14.2h41.68c9.48,0,14.2-4.72,14.2-14.2v-20.84c0-.08.04-.15.08-.19.04-.08.08-.12.19-.15,7.02-2.8,9.75-7.52,8.21-14.24-2.49-5.26-5.41-8.75-8.71-10.55l-.04-.04-4.8-3.95s-.08-.08-.11-.12c-.04-.08-.04-.15-.04-.19V.77h-18.54v7.64h0Z"/>
  </g>
  <g id="Layer_3" data-name="Layer 3">
    <path class="cls-6" d="M46.89,9.52c-.19-.69-.5-1.23-.92-1.61-.58.23-.84.77-.81,1.61.04,1.15,0,1.77-.04,1.88-.04-.73-.11-1.3-.19-1.69-.15-.69-.58-1.04-1.23-1.04-.88,0-1.3,1.07-1.3,3.19v1.73c-.19-.5-.38-.96-.54-1.3-.35-.69-.61-1.04-.88-1.04s-.46.04-.5.08c0,.04-.04.04-.08.04-.04.35-.08.69-.08,1.07-.42-.38-.77-.61-1-.65-.57.35-.84.96-.81,1.77.04,1.19,0,1.84-.04,2-.08-.31-.11-.54-.15-.65-.04-.23-.27-.35-.65-.35-.73,0-1.15.42-1.27,1.23-.04.42-.04.88.08,1.38h-.12c-.54-1.23-1.19-1.84-1.92-1.84-.27,0-.46,0-.5.04-.04.04-.04.08-.08.08-.12.35-.23.84-.27,1.46-.19-.54-.54-.81-1.04-.81-.27,0-.46.04-.5.08-.04.04-.08.04-.12.04l-.04,1.23v.23h2.8v-1h.12c.19.31.35.65.54,1h2.34c-.15-.81-.23-1.38-.19-1.65.11.27.27.84.5,1.65h2.19c-.58-2.19-.77-3.61-.65-4.18.27.54.65,1.92,1.23,4.18h3.49c-.58-2.92-.84-4.84-.84-5.79,0-.84.11-1.46.31-1.84.27,1.23.65,3.76,1.15,7.64h2.34c-.04-.19-.08-.38-.11-.58-.5-2.65-.81-4.49-.88-5.56.27,1.15.61,3.19,1.07,6.14h1.61c-.42-2.73-.65-4.49-.65-5.37,0-.35.08-.65.19-1,.35.92.73,3.03,1.15,6.37h1.69c-.15-1.11-.23-2-.23-2.61,0-.5.08-1.34.27-2.46h.08c.11.54.35,2.23.69,5.07h1.27c-.15-.42-.23-.96-.23-1.57h.04c.11.58.19,1.11.19,1.57h1.15c-.19-1.23-.31-1.92-.35-2.07.23.58.46,1.27.65,2.07h1.23c-.11-.54-.31-1.15-.57-1.8-.38-.88-.81-1.69-1.31-2.34-.23.19-.46.42-.73.77-.23.31-.35.5-.35.54-.12-.88-.27-1.57-.42-2.07-.27-1-.73-1.5-1.34-1.5-.73,0-1.07.54-1.07,1.65h-.08c-.27-.77-.46-1.38-.61-1.84-.27-.84-.73-1.38-1.3-1.61-.35.11-.58.38-.69.88-.11.58-.23.88-.27.92-.15-.77-.31-1.34-.42-1.73h0ZM42.09,15.97h-.08c-.04-.11-.15-.5-.27-1.15.11.19.23.58.35,1.15h0Z"/>
    <path class="cls-6" d="M57.52,17.65h.92c-.42-1.38-.81-2.07-1.23-2.07-.69,0-1.04.69-1,2.07h1v-.69l.19.19c.04.15.08.31.11.5h0Z"/>
    <path class="cls-6" d="M58.44,17.65h-.92c.35,1.61.77,4.64,1.27,9.06.04.19.08.42.11.65h1.42c-.31-1.54-.65-3.45-1.04-5.8-.27-1.65-.58-2.96-.84-3.91h0Z"/>
    <path class="cls-6" d="M61.7,18.88c-.65,0-1.04.46-1.15,1.42v2c0,1.19.12,2.88.35,5.07h1.04l-.35-2.96v-4.03h.04c.15.54.54,2.88,1.19,6.98h1.96c-.04-.27-.08-.54-.12-.81-.11-1.8-.19-3.15-.27-4.03l.08.08c.19.84.42,2.42.69,4.76h2.96c-.11-1.34-.15-2.03-.15-2.07.04.27.15.96.31,2.07h1.15c-.35-1.11-.92-2.42-1.81-3.92-.19-.35-.42-.69-.61-1-.58-.23-1.38-.96-2.42-2.23-.11-.04-.19-.04-.31-.04-.35,0-.61.35-.77,1-.08.34-.15.69-.19,1.11-.15-.88-.31-1.54-.42-2.03-.23-.92-.61-1.38-1.19-1.38h0ZM66.69,27.1c-.23-.5-.38-1.15-.46-2-.12-1-.19-1.69-.31-2.03.23.5.54,1.84.88,4.03h-.12Z"/>
    <path class="cls-6" d="M53.37,17.65v.04-.04h-1.27c.15,1.34.31,2.99.5,4.87.23,2.19.54,3.8.92,4.84h2.03c.08-.42.11-.73.11-.92,0-.65-.23-2.53-.69-5.72-.19-1.27-.35-2.26-.46-3.07h-1.15ZM53.64,19.61v-.04c.54,2.8.81,4.53.81,5.22v.54s-.08.04-.12.08v-.04c-.46-2.3-.69-4.22-.69-5.76h0ZM54.6,26.37l-.15-.77v-.04c.11.12.15.38.15.81h0Z"/>
    <path class="cls-6" d="M56.21,17.65c-.04.19-.04.38,0,.61h-.08c0-.19-.04-.42-.08-.61h-1.23c.42,1.57.73,3.61,1,6.03.12,1.34.31,2.57.5,3.68h1.84c-.12-1.11-.27-2.53-.5-4.22-.31-2.34-.46-4.14-.46-5.49h-1Z"/>
    <path class="cls-6" d="M48.92,17.65h-1.61c.12.92.27,1.96.46,3.07.65,3.88,1.27,5.83,1.76,5.83.27,0,.42-.04.46-.08v-.12c.04-.38.08-.84.08-1.34,0-.08-.31-1.96-.88-5.64-.12-.61-.19-1.19-.27-1.73h0Z"/>
    <path class="cls-6" d="M51.3,17.65h-1.69c.08.73.15,1.57.27,2.46.38,3.8.96,5.68,1.73,5.68.46,0,.61-.08.42-.19.04-.38.08-.84.08-1.34,0-.81-.15-2.34-.5-4.53-.11-.77-.23-1.46-.31-2.07h0Z"/>
    <path class="cls-6" d="M47.77,24.06v-1.54c0-1.27-.19-2.88-.54-4.87h-2.34c.04.5.12,1,.19,1.54.61,4.07,1.27,6.1,1.92,6.1.42,0,.65-.42.77-1.23h0ZM46.73,22.11h-.08c-.12-.84-.19-1.61-.19-2.26.19.5.27,1.27.27,2.26h0Z"/>
    <path class="cls-6" d="M45.39,25.1l.08-.46c0-.42-.35-2.38-1-5.91-.08-.38-.15-.73-.19-1.07h-3.49c.19.81.42,1.73.65,2.76.73,3.26,1.34,4.87,1.84,4.87.23,0,.35-.08.35-.23,0-.19.11-.27.35-.27s.38.08.42.27c.04.15.19.23.38.23.46,0,.65-.08.61-.19h0Z"/>
    <path class="cls-6" d="M70.68,25.56c-.69,0-1.04.42-1.07,1.3v.5h2.23c-.04-.23-.11-.46-.15-.65-.19-.77-.5-1.15-1-1.15h0Z"/>
    <path class="cls-6" d="M22.59,24.26c-.27,0-.42,0-.42.04l.04.04c-.19.27-.38.73-.61,1.42-.19-.31-.31-.54-.42-.73-.19-.35-.5-.5-.88-.5-.27,0-.46.04-.5.08-.08.04-.11.08-.15.08v2.07c.08.19.15.42.19.61h1.07c-.11-.38-.23-.73-.27-1,.15.27.31.61.46,1h2.03c-.11-.38-.19-.73-.31-1.07l.08.08c.12.23.23.58.35,1h1.8c-.15-.88-.27-1.69-.31-2.34l.08.19c.11.42.31,1.11.57,2.15h1.96c-.54-2.34-.81-3.53-.81-3.61.23.65.58,1.88,1.07,3.61h1.31l-1.57-6.29h.08c.19.42.81,2.53,1.88,6.29h2.34c-.11-.46-.27-.92-.42-1.38-.92-2.84-1.54-4.87-1.88-6.14.58,1.15,1.27,3.26,2.15,6.29.12.42.27.81.38,1.23h3.53c-.19-.73-.46-1.73-.77-2.92-.88-3.34-1.42-5.26-1.53-5.76.27.5.84,2.61,1.8,6.29.23.96.46,1.73.69,2.38h1.8c-.19-1.04-.58-2.46-1.15-4.3-.96-3.03-1.46-4.72-1.53-5.07v-.35h-2.8c.04.81.19,1.84.5,3.11l.81,3.38-.11-.08c-.27-.84-.5-1.5-.65-2-.31-.92-.58-1.38-.81-1.38-.27,0-.42.04-.38.08l.08.04c-.11.35-.23.54-.27.54-.65-2.15-1.31-3.22-1.88-3.22-.65,0-1,.31-1.04.96-.04.34.04.81.15,1.42-.15-.58-.31-1.04-.42-1.3-.23-.54-.62-.81-1.11-.81-.27,0-.42.04-.46.12.04.04,0,.08-.04.08,0,1.11-.12,2.04-.31,2.84-.31,1.07-.5,1.84-.54,2.34-.04-.12-.15-.31-.42-.5-.23-.19-.42-.27-.54-.27-.54,0-.8.27-.77.81.04.92.04,1.5-.04,1.69-.08-.27-.15-.46-.27-.65-.19-.38-.46-.58-.81-.58h0Z"/>
    <path class="cls-6" d="M37.71,17.65h-2.34c.69,1.42,1.27,2.99,1.76,4.76.23.88.58,2.53,1.07,4.95h1.34v-.31c0-.81-.35-2.76-1.07-5.79-.35-1.54-.61-2.73-.77-3.61h0Z"/>
    <path class="cls-6" d="M40.21,17.65h-2.19c.27,1,.62,2.42,1.08,4.3.54,2.26,1.23,4.07,2.07,5.41h.54c.27-.31.42-.61.42-.92,0-1.11-.5-3.42-1.46-6.95-.19-.65-.35-1.27-.46-1.84h0Z"/>
    <path class="cls-6" d="M41.71,27.36h-.54c.08.08.15.15.19.27.11-.11.23-.19.35-.27h0Z"/>
    <path class="cls-6" d="M39.56,27.36h-1.34c.04.19.08.42.11.61l.58.12c.46,0,.65-.08.61-.19l.04-.54h0Z"/>
    <path class="cls-6" d="M37.52,28.44c0-.27-.04-.65-.12-1.07h-1.8c.46,1.34.88,2.03,1.3,2.03s.54-.04.35-.08c.19-.23.27-.54.27-.88h0Z"/>
    <path class="cls-6" d="M35.68,29.78l.04-.81c0-.19-.11-.73-.31-1.61h-3.53c.65,2.07,1.34,3.68,2.07,4.84.38-.15.61-.42.73-.77.04-.12.04-.35.04-.69,0-.27-.04-.5-.08-.65-.04-.19-.08-.27-.08-.31h.08s.15.08.46.04c.15,0,.35,0,.57-.04h0Z"/>
    <path class="cls-6" d="M31.65,27.36h-2.34c.08.31.15.65.27,1,.92,3.42,1.65,5.1,2.23,5.1.27,0,.42,0,.42-.04.04-.04.04-.08.08-.15.08-.27.11-.69.11-1.27,0-1.19-.27-2.72-.77-4.64h0Z"/>
    <path class="cls-6" d="M27.35,27.36h-1.96c.23.96.5,2.23.84,3.8.65,2.73,1.23,4.11,1.73,4.11.27,0,.42,0,.46-.04t-.04-.08c.12-.19.15-.31.15-.35.04-.08.04-.27.04-.58,0-.73-.35-2.65-1-5.8-.08-.38-.15-.73-.23-1.07h0Z"/>
    <path class="cls-6" d="M25.05,27.36h-1.8c.27.88.61,2.23,1.04,3.99.54,2.19,1.11,3.84,1.73,4.95.23-.12.42-.23.54-.35v-1.53c-.73-2.88-1.23-5.22-1.5-7.06h0Z"/>
    <path class="cls-6" d="M27.62,27.36c.19.65.38,1.42.61,2.3.77,2.53,1.31,3.8,1.61,3.8.27,0,.46-.04.5-.15.04-.04.04-.12.04-.15l-1.46-5.8h-1.31Z"/>
    <path class="cls-6" d="M24.13,37.19s-.04-.08-.04-.11h-3.11c.73,1.54,1.27,2.3,1.61,2.3.12,0,.65-.5,1.65-1.53,0-.27-.04-.5-.11-.65h0Z"/>
    <path class="cls-6" d="M24.09,37.07c-.08-.12-.11-.15-.11-.19.5.12.85-.04.96-.38.04-.12.08-.31.08-.65,0-.5-.31-2.11-.96-4.8-.35-1.46-.65-2.69-.92-3.68h-2.03c.27.58.54,1.3.81,2.15.46,1.38.81,2.57,1,3.57h-.08c-.92-2.53-1.57-4.45-1.92-5.72h-1.07c.08.5.04.92-.08,1.27-.27.73-.38,1.27-.38,1.57h-.12c-.23-.65-.42-1.15-.61-1.5-.35-.73-.81-1.07-1.42-1.07-.31.04-.5.08-.62.08-.04.73-.23,1.3-.58,1.69-.35.35-.5.88-.5,1.54h-.04c-.5-.88-.92-1.31-1.34-1.31-.27,0-.46.04-.5.08l-.12.08-.04.81c0,.38.15,1.23.5,2.57h-.11c-.27-.23-.5-.61-.61-1.15-.12-.46-.5-.81-1.07-1.07-.27.19-.38.27-.38.31-.04.04-.08.23-.08.58,0,.5.16,1.3.5,2.46.19.58.38,1.19.58,1.84-.58-1.23-1.08-2.26-1.5-3.07-.81-1.57-1.38-2.38-1.65-2.38s-.42.08-.54.19c-.04.04-.11.15-.19.31l-.04.27c0,.19.23,1.07.65,2.65.42,1.5.69,2.5.85,2.99h1.15c-.46-1.19-.81-2.15-1-2.88.31.5.88,1.46,1.69,2.88h2.07c-.42-1.07-.65-1.8-.77-2.19h.08c.19.46.5,1.19.84,2.19h2.15c-.04-.12-.08-.23-.11-.35l-1.73-5.03.19.12c.35.77.96,2.53,1.84,5.26h3.53c-.27-.65-.58-1.5-.96-2.49-1.04-2.65-1.54-4.07-1.54-4.22,0-.27,0-.42.04-.38.04,0,.04.04.04.08.27.42,1.08,2.26,2.42,5.53.23.58.46,1.07.65,1.5h3.11ZM17.14,32.58v-.08c.96,1.88,1.42,3.3,1.46,4.18l-.08-.08c-.84-1.96-1.3-3.3-1.38-4.03h0ZM22.21,35.54c-.23-.42-.5-1.07-.84-2.03-.35-1.07-.61-1.8-.73-2.19.96,1.8,1.5,3.22,1.61,4.22h-.04Z"/>
    <path class="cls-6" d="M7.36,33.01c-.27,0-.42.04-.46.08l-.08.08v1.73c.27.81.5,1.54.73,2.19h.88c-.04-.15-.08-.27-.08-.35v-.42s.04.04.08,0c.04.04.15.27.38.77h1.42c-.27-.65-.73-1.42-1.3-2.34-.73-1.15-1.27-1.73-1.57-1.73h0Z"/>
    <path class="cls-6" d="M5.28,35.77c-.27,0-.42.04-.46.12,0,.04,0,.15-.04.27,0,.23.08.54.19.92h1.5c-.54-.88-.92-1.31-1.19-1.31h0Z"/>
    <path class="cls-6" d="M6.47,37.07h-1.5c.11.46.35,1.04.61,1.69.5,1.27.77,2.07.77,2.49s-.04.5-.11.15c0-.04-.15-.08-.42-.04-.27,0-.46.04-.54.12,0,.88.54,2.03,1.57,3.42.96,1.27,1.57,1.88,1.92,1.88.27,0,.46-.08.54-.19.04-.11.04-.23.08-.31-.54-1.15-.96-2.03-1.23-2.69-.5-1.19-.77-2.07-.81-2.69h.08c.42.61,1.04,1.54,1.84,2.8.73,1.11,1.46,2.03,2.19,2.8.19-.04.35-.23.54-.5-.85-1.96-1.53-3.57-2.07-4.91-.84-2.03-1.34-3.38-1.5-4.03h-.88c.58,1.96.96,3.22,1.15,3.88-.27-.31-.85-1.34-1.81-3.07-.15-.31-.31-.58-.42-.81h0Z"/>
    <path class="cls-6" d="M11.54,37.07h-1.15v.04h-.16v-.04h-1.42c.42.84,1.15,2.38,2.26,4.6,1.34,2.73,2.38,4.07,3.19,4.07.27,0,.46-.08.5-.19-.04-.12-.04-.23,0-.31-.35-.92-1.07-2.76-2.19-5.56-.38-.96-.73-1.84-1.04-2.61h0ZM11.12,38.99h-.11c-.15-.31-.31-.69-.46-1.15.19.19.38.58.58,1.15h0Z"/>
    <path class="cls-6" d="M16.6,37.07h-2.15c.27.81.62,1.84,1.04,3.03.81,2.26,1.46,3.38,1.96,3.38.27,0,.42,0,.46-.04-.04-.04-.04-.08,0-.12.04-.04.08-.11.11-.15.04-.08.08-.27.08-.54,0-.84-.5-2.69-1.5-5.56h0Z"/>
    <path class="cls-6" d="M14.3,37.07h-2.07c.42.77.96,1.69,1.53,2.76,1.46,2.61,2.23,3.91,2.27,3.91.27,0,.42-.04.46-.12-.04-.08-.04-.11,0-.11l.08-.5c0-.08-.46-1.27-1.34-3.53-.35-.96-.65-1.77-.92-2.42h0Z"/>
    <path class="cls-6" d="M16.8,37.07c.04.08.04.15.08.27.92,2.53,1.65,3.8,2.23,3.8.46,0,.61-.08.46-.19.04-.27.08-.54.08-.88,0-.27-.04-.54-.15-.81.11.23.38.35.81.35h.35c.19-.04.23-.08.15-.12t.04-.08s.04-.04.08-.04v-.38c0-.19-.19-.81-.58-1.92h-3.53Z"/>
    <path class="cls-6" d="M78.66,29.94l.04.04c-.5.65-.77,1.5-.77,2.53-.04.58-.04,1.34,0,2.38h-.04c-.12-1.69-.23-2.96-.34-3.84-.19-1.61-.62-2.42-1.27-2.42-.54,0-.88.73-1.07,2.15-.08.73-.12,1.54-.15,2.49-.19-1.57-.35-2.84-.5-3.8-.19-.96-.42-1.69-.73-2.11h-1.57s-.04.04-.04.08c-.12.19-.19.46-.23.81l-.04-.08c-.04-.31-.08-.58-.12-.81h-2.23c.04.35.04.69.08,1.11-.04-.35-.15-.73-.27-1.11h-1.15c.19,1.61.5,4.11.84,7.52.08.81.15,1.54.27,2.19h2.19v-.46l-.73-6.72v-1.73c.23.92.54,3.15.92,6.64.08.81.19,1.57.31,2.26h1.69c-.08-.46-.15-.96-.27-1.5-.42-2.49-.65-4.41-.65-5.76,0-.38.04-.69.15-.96h.04c.27,1.3.61,3.91,1.04,7.87.04.12.04.23.08.35h2.34c-.19-2.72-.23-4.8-.19-6.22.23,1.15.42,3.22.58,6.22h2.23c-.08-2.03-.12-3.65-.12-4.87l.08.12c.11,1.04.23,2.65.27,4.76h2c.04-1.27.08-2.15.15-2.57l.12.12c.04.58.04,1.42,0,2.46h3.8c-.04-.15-.04-.27-.04-.38-.69-.19-1.11-.34-1.31-.42-.19-.15-.42-.31-.73-.5-.42.35-.69.54-.77.54.04-.88.04-1.57,0-2.11-.11-.96-.42-1.46-1-1.46-.38.08-.65.12-.77.12,0,.54-.11,1.04-.38,1.5l-.08-.11c.04-.96,0-1.77-.08-2.42-.15-1.27-.54-1.92-1.11-1.92-.27,0-.42,0-.46.04h0Z"/>
    <path class="cls-6" d="M72.26,27.36h1.57c-.27-.35-.54-.54-.85-.54-.35,0-.57.19-.73.54h0Z"/>
    <path class="cls-6" d="M68.34,30.4c-.12-1.27-.19-2.26-.23-3.03h-2.96c.15,1.3.31,2.84.5,4.64.35,2.34.81,4.03,1.34,5.07h2v-1.5c-.27-1.38-.5-3.11-.65-5.18h0Z"/>
    <path class="cls-6" d="M71.56,37.07h-2.19c.42,2.73.92,4.07,1.54,4.07h.11c.23-.04.38-.08.46-.15.04-.04.04-.12.08-.15v-3.76h0Z"/>
    <path class="cls-6" d="M68.99,38.11v-1.04h-2c.42.88.92,1.3,1.5,1.3.27,0,.42-.04.46-.12.04-.04.04-.11.04-.15h0Z"/>
    <path class="cls-6" d="M76.48,37.07h-2.34c.42,3.07,1,4.6,1.65,4.6.46,0,.65-.04.57-.15.04-.23.08-.54.15-.92.11-.35.15-.65.15-.88-.08-.96-.15-1.84-.19-2.65h0Z"/>
    <path class="cls-6" d="M76.86,37.07c.04.5.04,1.04.08,1.61.27,3.19.84,4.8,1.65,4.8.42,0,.57-.04.46-.15.11-.38.19-.96.19-1.73-.08-1.69-.11-3.19-.15-4.53h-2.23Z"/>
    <path class="cls-6" d="M73.75,37.07h-1.69c.31,1.65.73,3.03,1.27,4.07.5-.35.77-.73.77-1.15,0-.38-.12-1.34-.35-2.92h0Z"/>
    <path class="cls-6" d="M81.31,37.07h-2v1.11c.12,2.42.54,4.37,1.19,5.83.58-1.04.84-2.57.81-4.6v-2.34h0Z"/>
    <path class="cls-6" d="M83.31,38.65l.19.27c.04,1.27.08,2.99.08,5.18l.65.11c.42,0,.61-.08.58-.19l.04-1.61c.54.35.88.31,1-.12.04-.12.04-.5.04-1.19,0-.19-.08-.84-.27-1.96-.11-.88-.19-1.57-.23-2.07h-3.8c0,.65,0,1.42-.04,2.26.04,1.92.31,3.49.77,4.68.54-.58.8-1.5.8-2.72-.04-1.42,0-2.3.19-2.65h0Z"/>
    <path class="cls-6" d="M64.77,27.36h-1.96c.08.46.15.96.23,1.5.58,3.76,1.19,5.64,1.88,5.64.27,0,.42-.04.46-.15.04-.04.04-.11.08-.15v-3.61c-.31-.96-.54-2.03-.69-3.22h0Z"/>
    <path class="cls-6" d="M61.93,27.36h-1.04c.11,1.11.23,2.34.42,3.68h-.11c-.27-.65-.54-1.88-.88-3.68h-1.42c.58,3.76,1.34,5.64,2.26,5.64.39,0,.69-.31.92-.92.19-.46.27-.88.27-1.23l-.42-3.49h0Z"/>
    <path class="cls-6" d="M58.25,29.24c0-.5-.04-1.11-.08-1.88h-1.84c.31,1.73.69,3.07,1.15,4.07.5-.38.77-1.11.77-2.19h0Z"/>
    <path class="cls-6" d="M55.56,27.36h-2.03c.35.84.73,1.27,1.15,1.27.27,0,.46,0,.5-.04.04-.04.08-.08.08-.12.11-.42.23-.81.31-1.11h0Z"/>
    <path class="cls-3" d="M70.6,4.68l-.04,1.04c0,.54.08,1.07.27,1.61h-.19c-.27-.5-.77-1.07-1.42-1.69-.58-.54-.88-.81-1-.81-.27,0-.38.04-.42.12l-.08.11v1.11c.11.58.35,1.77.69,3.57-.69-1.15-1.23-2.03-1.65-2.65-.77-1.19-1.31-1.77-1.57-1.77s-.42.04-.42.08l.08.04c-.11.34-.23.54-.27.57-.08-.23-.15-.46-.27-.65-.19-.35-.46-.54-.81-.54-.27,0-.46.04-.54.12-.04.08-.08.11-.12.11v1.5c.23.42.5,1.11.77,2.03.15.5.34,1.19.58,2.03-.11-.27-.27-.46-.42-.65-.23-.35-.46-.54-.65-.54-.27,0-.42.04-.5.11l-.12.12-.15.5s.15.46.42,1.23c.27.81.38,1.27.38,1.46-.19-.19-.73-.12-1.54.15l-.04.31c0,.23.35,1,1,2.26-.42-.23-.77-.19-1,.12.42,1,1.3,2.34,2.57,3.99.15.19.31.35.42.54,1.04,1.27,1.84,2,2.42,2.23.11.04.23.08.35.08.42,0,.58-.04.38-.12.11-.11.15-.15.19-.19.04-.11.04-.31.04-.58,0-.58-.19-1.19-.58-1.88-.46-.81-.73-1.5-.81-2.15h.04c.27.42.65,1.42,1.23,2.99.58,1.42,1.19,2.11,1.8,2.11.27,0,.42-.04.46-.08.04-.04.08-.11.11-.23l.08-.04v-.42c0-.27-.08-.58-.27-.96-.19-.42-.31-.73-.35-.88.31.11.58.15.81.04.23-.12.35-.31.35-.54,0-.5-.73-2.38-2.19-5.64-1.54-3.42-2.42-5.37-2.61-5.87h.15c.31.5,1.19,2.34,2.61,5.53,1.19,2.65,1.88,3.99,2.11,3.99.46,0,.65-.08.57-.19l.08-.5-1.23-4.07.23.08c.27.5.58.46.92-.04l.08-.31c0-.27-.04-.54-.15-.81-.11-.38-.19-.58-.19-.61.65-.04,1.04-.38,1.15-1.04-.04-.61-.04-.96-.04-1.04,0-1.15-.04-1.96-.11-2.46-.27-1.34-.81-2-1.61-1.96h0ZM64.39,7.83v-.08c.81,1.34,1.84,3.61,3.19,6.72,1.27,2.96,1.92,4.57,1.92,4.87v.27c-2.73-5.18-4.41-9.1-5.1-11.78h0ZM65.65,15.85s-.15-.46-.38-1.19c.38.23.77,1,1.11,2.3h-.11c-.27-.35-.46-.69-.61-1.11h0Z"/>
    <path class="cls-3" d="M49.77,28.25c-.58-1.46-1.11-2.19-1.61-2.19-.27,0-.46.04-.54.12-.04.08-.08.11-.12.11v2.07c.12.81.65,3.61,1.61,8.44.04.08.04.15.04.23h.96v-.04c-.88-3.99-1.34-6.79-1.46-8.44l.08.15c.42,1.27,1.04,4.03,1.76,8.33h2.27c-.46-2.19-.77-3.68-.92-4.45v-1.73h.08c.34,1.3.92,3.38,1.73,6.18h1.15c-.5-2.26-.92-3.99-1.19-5.18-.61-2.34-1.27-3.49-2-3.49-.27,0-.42.08-.54.19-.11.11-.15.15-.19.15l-.04,2.69h-.08c-.5-1.69-.84-2.72-1-3.15h0Z"/>
    <path class="cls-3" d="M54.72,31.74c-.19.5-.27,1.04-.27,1.61s.15,1.8.42,3.68h.96c-.27-1.42-.38-2.61-.38-3.61,0-.15.04-.5.12-1.04h.08c.38,1.11.88,2.69,1.46,4.64h2.26c-.04-.27-.04-.54-.08-.81.12.27.27.54.42.81h1.42c-.04-.08-.08-.15-.11-.19-.77-1.57-1.42-2.34-2-2.34-.27,0-.42.04-.54.08l-.15.04-.11,2.3c-.58-2.07-.92-3.26-1.04-3.53-.57-1.65-1.15-2.46-1.65-2.46-.34,0-.61.27-.81.81h0Z"/>
    <path class="cls-3" d="M50.11,37.04h-.96c.77,3.8,1.15,6.64,1.15,8.6,0,.54-.04.88-.12,1.07-.88-3.8-1.65-7.02-2.26-9.67h-.77c.04.42.11.84.19,1.3.65,4.03,1.65,7.25,2.96,9.71.54-.19.88-.58,1-1.15.04-.19.04-.61.04-1.34,0-1.96-.42-4.8-1.23-8.52h0Z"/>
    <path class="cls-3" d="M47.16,37.04h.77c-.69-2.88-1.23-5.1-1.61-6.68-.61-2.57-1.08-4.07-1.34-4.41-.35-.46-.54.58-.54,3.07.31,3.11.58,5.8.8,8.02h.92c-.42-4.34-.65-7.22-.69-8.6l.04.12c.31,1.04.84,3.88,1.65,8.48h0Z"/>
    <path class="cls-3" d="M54.87,37.04c0,.15,0,.31.04.46h-.04c-.04-.15-.04-.31-.08-.46h-1.15c.81,2.92,1.8,6.64,3.07,11.21h.42c-.35-.92-.65-2-.88-3.26-.27-1.54-.46-2.61-.58-3.26.23.65.77,2.84,1.57,6.52h1.07c-.23-1.73-.69-3.84-1.34-6.26-.5-1.88-.88-3.53-1.15-4.95h-.96Z"/>
    <path class="cls-3" d="M52.76,37.04h-2.27c.23,1.42.5,3.03.77,4.8.46,2.88.92,5.03,1.38,6.41h1.8c-.04-1.77-.38-4.45-1.08-8.1-.23-1.15-.42-2.19-.61-3.11h0ZM52.87,44.4v-.04c.15.65.23,1.31.27,1.96-.04-.11-.11-.77-.27-1.92h0Z"/>
    <path class="cls-3" d="M59.36,37.04h-2.26c.35,1.27.77,2.73,1.23,4.38,1.15,4.11,1.73,6.37,1.77,6.83h1.04c-.19-.54-.35-1.07-.5-1.65-.65-2.69-1.15-4.64-1.5-5.87v-.08c.65,1.34,1.5,3.61,2.53,6.72.11.31.19.61.31.88h.96c-.88-2.19-1.53-3.95-2-5.22-.84-2.34-1.38-4.34-1.57-5.99h0ZM58.75,39.22c-.12-.46-.19-.81-.23-1.07v-.04l.31,1.07-.08.04h0Z"/>
    <path class="cls-3" d="M63.35,36.54c-.35,0-.57.15-.77.5h1.76c-.35-.35-.65-.5-1-.5h0Z"/>
    <path class="cls-3" d="M61.12,37.04h-1.42c1.5,3.11,2.69,6.83,3.61,11.21h2.11c-.23-.65-.46-1.3-.65-1.96.35.46.69,1.11,1.07,1.96h1.04c-.46-1.04-.88-2-1.31-2.96-1.5-3.49-2.23-5.76-2.23-6.87,0-.31.04-.54.08-.65.54.73,1.31,2.19,2.34,4.38,1,2.19,1.5,3.49,1.5,3.88,0,.27.11,1.04.34,2.23h2.61c-1.27-3.34-2.03-5.6-2.27-6.75v-.08c1.15,2.11,2.19,4.41,3.15,6.83h3.49c-1.27-5.41-2.23-8.1-2.95-8.1h-.08v.69s-.04.11-.08.15c-.08.08-.23.12-.46.15v.92c.27,1,.27,1.65.08,1.96-.16-.12-.65-.84-1.5-2.26-.73-1.27-1.38-1.88-1.88-1.88-.42,0-.65.31-.73.92-.04.35-.08.77-.04,1.27h-.15c-.81-2.03-1.23-3.11-1.27-3.15-.42-.88-.8-1.5-1.19-1.88h-1.76c-.15.31-.23.77-.23,1.38,0,.46.08,1.07.19,1.84-.58-1.34-1.04-2.42-1.42-3.22h0ZM63.43,42.56l-.08-.08-.38-1.15c.19.19.34.61.46,1.23h0Z"/>
    <path class="cls-3" d="M54.45,48.24h-1.8c.38,1.19.77,1.84,1.11,1.88.04-.15.12-.23.19-.23.04,0,.15,0,.31.04.11-.27.19-.81.19-1.54v-.15h0Z"/>
    <path class="cls-3" d="M60.09,48.24c0,1.88.35,3.84,1,5.83.73,2.26,1.31,4.03,1.65,5.37h2c-.12-.19-.19-.38-.31-.58-1.11-2.23-1.84-4.03-2.19-5.45h.11c1.19.73,1.77.23,1.77-1.46.84,2.88,1.54,5.37,2.11,7.48h1.04v-.08s0,.04.04.08h2.8c-.23-.46-.46-1-.73-1.65-.46-1.11-.73-1.69-.77-1.8.31-.08.61-.19.88-.38.04.42.19,1.11.5,2.15.19.73.35,1.27.42,1.69h.92c-.19-.96-.34-1.8-.42-2.53.42.84.88,1.69,1.38,2.53h1.3c-.42-.65-.73-1.19-.96-1.61-.81-1.34-1.34-2.5-1.65-3.45.54.19.88.12,1-.31.04-.42.08-.65.08-.69,0-.19-.61-1.88-1.8-5.07t-.04-.08h-2.61s0,.12.04.19c.23,1.34.42,2.19.57,2.57h-.08c-.42-.96-.85-1.88-1.27-2.76h-1.04c.27.58.57,1.23.84,1.96.84,2.19,1.46,3.65,1.8,4.34h-.19c-1.15-2.11-2.11-4.18-2.88-6.29h-2.11c.08.46.15.92.27,1.42h-.08c-.19-.5-.38-1-.58-1.42h-.96c.77,2.38,1.15,3.72,1.15,4.03,0,.42-.04.5-.15.19-.69-1.19-1.31-2.57-1.84-4.22h-1.04ZM64.69,49.2c.42.73.84,1.65,1.23,2.69.42,1.27.69,2.34.77,3.26h-.08c-.5-1.27-.92-2.26-1.19-2.96-.46-1.3-.69-2.3-.73-2.99h0Z"/>
    <path class="cls-3" d="M58.32,48.24h-1.07s0,.12.04.19h-.08c-.04-.08-.04-.15-.08-.19h-.42c.88,3.3,1.92,7.02,3.03,11.21h2.61c-.57-1.23-1.3-2.8-2.15-4.76-1.15-2.61-1.73-3.95-1.73-4.07,0-.73-.04-1.5-.15-2.38h0Z"/>
    <path class="cls-3" d="M46.81,46.48c.11-.42.19-.88.19-1.34,0-.12-.27-2.53-.77-7.29-.04-.27-.04-.54-.08-.81h-.92c.5,4.95.73,7.64.73,8.02,0,.42-.04.77-.11,1.04h-.15c-.35-1.5-.69-4.53-.96-9.06h-1.19c.04,1.04.11,2.19.19,3.42.46,4.72,1.15,7.1,2.11,7.1.42,0,.77-.35.96-1.07h0Z"/>
    <path class="cls-3" d="M74.67,48.51c-.04-.11-.04-.19-.08-.27h-3.49c1.34,3.42,2.46,7.14,3.38,11.21h1.15c-.27-1.11-.61-2.34-1-3.72.12.19.27.46.46.81.19.31.5.65.85,1,.19-.04.34-.15.42-.35l.04-.31c-.5-2.8-1.07-5.56-1.73-8.37h0Z"/>
    <path class="cls-3" d="M36.18,32.74c-.08-.27-.15-.46-.27-.61-.15-.27-.42-.42-.81-.42-.27,0-.46.04-.54.12-.04.08-.08.12-.12.12-.23,1.65-.27,3.38-.15,5.1h1.04c-.19-1.19-.23-2.19-.12-2.96v-.08c.12.35.35,1.34.65,3.03h1.57c-.11-.65-.15-1.04-.19-1.19v-3.07h.08c.04.12.19,1.54.5,4.26h1.5c-.35-2.57-1.04-4.72-2.07-6.37-.23.15-.46.5-.65,1.07-.23.61-.38.96-.42,1h0Z"/>
    <path class="cls-3" d="M32.57,34.5c-.27,0-.46.04-.5.08-.04.04-.08.04-.12.04l-.04,1.04c0,.31.08.77.23,1.38h2.07c-.15-.5-.31-.96-.42-1.3-.27-.81-.69-1.23-1.23-1.23h0Z"/>
    <path class="cls-3" d="M30.27,34.77c-.27,0-.46.04-.5.08l-.11.04c-.04.88-.04,1.61-.04,2.15h2s0-.08-.04-.11c-.57-1.42-1-2.15-1.3-2.15h0Z"/>
    <path class="cls-3" d="M32.15,37.04c.04.27.12.54.19.84.27,1.04.38,1.73.38,2.11-.46-1.23-.85-2.23-1.11-2.96h-2c-.04.65-.04,1-.08,1.11-.27-.46-.46-.81-.58-1.04t-.04-.08h-1.61c.04.58.15,1.27.38,2.15l-.08-.08c-.27-.84-.65-1.27-1.19-1.27-.27,0-.42,0-.46.04h.04c-.31.27-.46.81-.5,1.54-.04.54,0,1.04.12,1.54h-.12c-.23-.11-.46-.19-.73-.23-.19,0-.38.04-.5.08l-.04,1.65c0,.77.11,1.92.38,3.45l-.08.04c-.8-1.57-1.42-2.88-1.92-3.84-.88-1.8-1.38-2.73-1.46-2.73-.15,0-.27,0-.35.04t-.04.08c.08.04.04.08-.15.12.04.65.19,1.54.46,2.57.11.58.31,1.34.5,2.23l-.31-.65c-.19-.35-.38-.54-.65-.54s-.46.04-.5.15c-.04.04-.04.12,0,.15.04.46.15,1.04.42,1.73.11.38.31.88.58,1.54-.19-.04-.38-.46-.58-1.23-.19-.73-.5-1.07-.92-1.07-.27,0-.38.04-.42.08-.04.04-.04.08-.04.19-.04.04-.04.08-.08.04v.35c0,.42.23,1.46.73,3.11h4.14c-.42-1.11-.73-2.07-.96-2.88.34.69.77,1.65,1.34,2.88h2.38c-.84-2.26-1.34-4.03-1.5-5.3h.08c.65,1.11,1.46,2.88,2.46,5.3h1.46c-1.57-3.99-2.49-6.98-2.69-8.94.19.5,1.04,2.61,2.53,6.41.34.92.73,1.77,1.07,2.53h2.88c-1.11-3.42-1.92-7.02-2.42-10.75.27.69,1.04,3.26,2.3,7.71.35,1.23.69,2.23.96,3.03h1.84c0-.31-.08-.88-.23-1.73-.23-1.27-.35-2-.38-2.15.19.58.38,1.8.65,3.76,0,.04,0,.08.04.12h2.8s.04-.12.08-.15c.08-.15.12-.5.12-1.04,0-1-.23-3.03-.69-6.06-.31-1.77-.54-3.07-.65-3.95h-1.57s.04.12.04.19c.38,2.03.58,3.38.58,4.07l-.04.69v-.27c-.58-2.07-.88-3.34-.96-3.8-.04-.31-.11-.61-.15-.88h-1.04c.04.12.04.23.04.35-.04-.12-.08-.23-.12-.35h-2.07ZM29.08,40.45c.08.15.23.54.5,1.15.31.77.5,1.27.54,1.53h-.19c-.5-1.42-.81-2.3-.84-2.69h0ZM34.91,39.57c-.19-.42-.27-.73-.27-.92.04,0,.11.31.31.92h-.04ZM33.07,41.6v-.08c.04.23.23.73.5,1.5.27.77.42,1.34.5,1.73-.46-.77-.81-1.8-1-3.15h0ZM34.37,41.91h-.04c-.27-.77-.46-1.54-.58-2.3.34.69.54,1.46.61,2.3h0Z"/>
    <path class="cls-3" d="M40.09,31.7c-.27,0-.46.04-.5.12.04.08,0,.12-.04.12-.15,1.27-.23,2.19-.23,2.76,0,.19.04,1,.15,2.34h2.99l-.08-1.5c0-2.42.19-4.45.58-6.14.11,1.34.31,3.91.58,7.64h1.19c-.04-.15-.04-.31-.04-.46-.27-3.95-.84-7.02-1.8-9.21-.73,1-1.23,2.23-1.42,3.68-.04.38-.11,1.57-.19,3.57,0-1.96-.38-2.92-1.19-2.92h0Z"/>
    <path class="cls-3" d="M42.47,37.04h-2.99c.11,1.69.35,4.3.61,7.79h-.08c-.27-3.26-.46-5.72-.65-7.29-.04-.19-.04-.35-.04-.5h-1.5c.11,1.07.23,2.38.42,3.88.31,2.88.92,5.3,1.8,7.33h.84c.08-.15.15-.31.19-.5.19-.5.27-.88.27-1.15-.35-2.76-.5-4.8-.5-6.06l.04.11c.04.19.15,1.34.35,3.45.11,1.38.42,2.46.88,3.19.46-.38.73-1.07.77-2.03l-.42-8.21h0Z"/>
    <path class="cls-3" d="M27.43,36.65c-.04.08-.08.12-.11.12v.27h1.61c-.27-.35-.58-.5-.96-.5-.27,0-.42.04-.54.12h0Z"/>
    <path class="cls-3" d="M16.72,52.77s-.08.12-.15.23c.19.92.54,3.07,1.11,6.45h1.65c-.19-.46-.34-.96-.54-1.46v-.08c.08.12.34.65.77,1.54h2.19c-1.04-2.46-1.92-4.34-2.57-5.68.92,1.42,2,3.3,3.22,5.68h1.27c-1.34-2.57-2.38-4.57-3.11-5.91-1.38-2.46-2.34-3.68-2.88-3.68-.27,0-.46.04-.5.11-.04.04-.04.15-.08.27,0,.58.19,1.38.58,2.5-.12-.04-.27-.08-.46-.08-.27,0-.46.04-.5.12h0ZM18.29,54.38l-.11-.04c-.08-.12-.11-.31-.15-.65.08.19.15.42.27.69h0Z"/>
    <path class="cls-3" d="M19.83,48.24c.31,1.07.73,2.42,1.27,4.07,1.23,3.65,2.07,6.03,2.57,7.14h1.73c-1.57-3.49-2.69-6.1-3.34-7.87l.08.11c.69,1.34,1.92,3.95,3.65,7.75h1.46c-.81-1.69-1.42-3.19-1.8-4.49.46.88,1.19,2.38,2.19,4.49h1.42c-2.3-4.64-3.99-8.37-5.07-11.21h-4.14Z"/>
    <path class="cls-3" d="M29.23,48.24h-1.46c.35.84.69,1.77,1.11,2.8,1.34,3.42,2.61,5.99,3.8,7.75.23-.11.38-.19.42-.31.08-.11.11-.31.11-.65-1-2.38-2.03-4.84-3.11-7.37-.35-.81-.61-1.54-.88-2.23h0Z"/>
    <path class="cls-3" d="M26.74,48.24h-2.38c.96,2.11,2.26,4.99,3.88,8.71.42.88.81,1.73,1.19,2.49h2.27c-.58-1.19-1.23-2.65-2.03-4.38-1.23-2.65-2.19-4.91-2.92-6.83h0Z"/>
    <path class="cls-3" d="M35.72,48.24h-1.84c.42,1.27.77,1.88.96,1.88.42,0,.69-.23.81-.65.04-.19.08-.61.08-1.23h0Z"/>
    <path class="cls-3" d="M33.03,48.24h-2.88c.65,1.5,1.23,2.69,1.76,3.65.19-.04.35-.19.5-.42.04.19.19.77.46,1.73.31.88.65,1.31,1.07,1.31.27,0,.42-.04.46-.15,0-.12,0-.19.04-.19v-1.92c-.54-1.31-1-2.65-1.42-3.99h0Z"/>
    <path class="cls-3" d="M37.25,50.62c.27,0,.46-.04.5-.15.04-.04.04-.12.04-.15,0-.88-.04-1.53-.08-1.88.42.08.73,0,.88-.19h-2.8c.35,1.57.81,2.38,1.46,2.38h0Z"/>
    <path class="cls-3" d="M40.9,48.24h-.84c.08.19.15.42.27.61.23-.08.42-.27.58-.61h0Z"/>
    <path class="cls-3" d="M33.49,64.09v-.42c0-.15-.61-1.57-1.8-4.22h-2.27c1.61,3.34,2.73,4.99,3.38,4.99.46,0,.65-.08.58-.19.04-.04.08-.11.11-.15h0Z"/>
    <path class="cls-3" d="M25.39,59.45h-2.99c.35.65.73,1.34,1.08,2.07.96,1.88,2.3,4.6,4.11,8.17h-.15c-1.73-2.15-3.3-4.84-4.76-8.06-.35-.81-.65-1.53-.92-2.19h-2.19c.65,1.27,1.69,3.38,3.11,6.29.88,1.84,1.73,3.45,2.46,4.87h1.27c-.27-.54-.46-.96-.62-1.27v-.04c.35.35.69.77,1.08,1.3h2.23c-.27-.54-.46-1-.58-1.34v-.12c.31.38.61.88.96,1.46h1.15c-.61-1.3-1.38-2.88-2.26-4.76-1.11-2.42-2.11-4.53-2.96-6.41h0Z"/>
    <path class="cls-3" d="M29.04,59.45h-1.42c.61,1.27,1.34,2.8,2.19,4.53h-.08c-.96-1.65-1.8-3.15-2.49-4.53h-1.46c.58,1.27,1.19,2.69,1.92,4.26,1.61,3.42,2.88,5.72,3.8,6.91h2.07c.04-.11.08-.27.15-.46.15-.31.23-.54.23-.73s-1.53-3.34-4.64-9.44c-.11-.19-.19-.35-.27-.54h0Z"/>
    <path class="cls-3" d="M19.33,59.45h-1.65v.04c.42,2.69.84,4.8,1.19,6.37-.19-.11-.46-.19-.73-.23-.27-.04-.46,0-.58.08v1.34c.15.38.31.96.46,1.69.19.81.31,1.38.42,1.65-.23-.04-.38-.15-.5-.31-.23-.35-.35-.5-.38-.54-.19.15-.34.31-.38.5-.04.11-.08.31-.08.58h5.14c-1.5-2.8-2.49-5.26-2.96-7.41.61,1.15,1.77,3.61,3.49,7.41h1.8c-.96-1.42-1.84-3.03-2.65-4.76-.61-1.34-1.5-3.45-2.61-6.41h0Z"/>
    <path class="cls-3" d="M29.08,70.62h-2.23c.34.54.73,1.15,1.15,1.88.46.77,1.07,1.84,1.84,3.26l-.12.08c-.88-.81-1.69-1.88-2.42-3.22-.35-.81-.65-1.46-.92-2h-1.27c.61,1.19,1.15,2.19,1.65,3.03-.77-.92-1.5-1.92-2.19-3.03h-1.8c.23.58.5,1.15.77,1.77,2.03,4.11,3.72,6.14,5.03,6.14.96,0,1.27-.54.96-1.61.77-.42,1.61-.65,2.53-.69.42-.04.61-.35.61-.96,0-.12-.69-1.69-2.07-4.64h-1.15c.65,1.11,1.34,2.61,2.15,4.45-.08-.12-.61-1.08-1.65-2.84-.35-.61-.65-1.15-.88-1.61h0ZM28.39,77.37c-.65-.27-1.04-.61-1.15-1.11.27.12.65.5,1.15,1.11h0Z"/>
    <path class="cls-3" d="M23.48,72.84c-.46-.77-.88-1.5-1.23-2.23h-5.14v.12l-.27,3.11c0,.73.5,1.8,1.53,3.3,1.04,1.57,2,2.53,2.8,2.92.27-.12.42-.31.5-.54-.23-.58-.69-1.57-1.38-2.99-.73-1.5-1.23-2.46-1.42-2.95h.04c.23.34.81,1.27,1.73,2.76.88,1.34,1.61,2,2.19,2,.46,0,.61-.04.5-.15.04-.08.08-.11.15-.11v-.38c0-.38-.31-1.19-.88-2.38.96,1.5,2,2.76,3.19,3.8.5-.5.77-.84.77-.96,0-.04-1.04-1.8-3.07-5.3h0Z"/>
    <path class="cls-3" d="M33.57,70.62h-2.07c.5.65.92,1,1.19,1,.42,0,.62-.04.54-.08.04-.04.12-.08.15-.11.08-.08.11-.27.11-.54,0-.08.04-.15.08-.27h0Z"/>
    <path class="cls-3" d="M75.63,59.45h-1.15c.12.58.27,1.19.38,1.84h-.11c-.42-.73-.81-1.34-1.15-1.84h-1.3c.34.65.77,1.34,1.19,2.03,1.27,1.96,2.07,2.96,2.46,2.96.27,0,.38-.04.42-.12.04-.04.04-.11.04-.15v-1.34c-.19-.88-.42-2-.77-3.38h0Z"/>
    <path class="cls-3" d="M67.27,59.45h-1.04c.5,1.96.88,3.57,1.15,4.91l-.19-.04s-.84-1.69-2.46-4.87h-2c.19.58.31,1.07.38,1.5l-.08-.08c-.19-.42-.42-.88-.69-1.42h-2.61c.58,2.11,1.19,4.37,1.84,6.72h-.15c-.88-2.73-1.65-4.99-2.3-6.72h-1.38v.08c.15.81.38,2.15.69,4.03.27,1.73.5,3.03.69,3.95l-.04-.08c-.19-1.15-.38-2.07-.58-2.73-.27-1.19-.61-1.8-1.04-1.8-.27,0-.42.04-.38.08l.08.04c-.08.04-.11.04-.15.08-.04.04-.04.19-.04.46,0,.46.65,2.8,1.96,7.06h2c-.08-.5-.11-.96-.11-1.38,0-.46.04-.81.11-1.04.19.5.5,1.3.88,2.42h1.92c-.42-1.65-.65-2.69-.77-3.03v-.08c.27.65.65,1.69,1.07,3.11h4.57c-.35-1.38-.54-2.11-.57-2.23h.11s.23.77.65,2.23h2.65c-.34-1.38-.54-2.38-.61-3.03.38.57.81,1.61,1.27,3.03h1.77c-.27-1.19-.42-1.88-.46-2.15.04-.08.15-.11.31-.15.08-.04.15-.04.19-.04.04.19.15.5.35.92.12.42.19.77.19,1.04v.38h.81c-.5-1.27-1.04-2.72-1.69-4.37-1.04-2.65-1.8-4.91-2.23-6.79h-.92c.04.15.04.31.04.42h-.12c-.08-.11-.15-.27-.23-.42h-2.8c1.73,3.95,2.61,7.14,2.65,9.48-.5-1.04-.96-2.57-1.46-4.57-.65-2.73-1.04-4.37-1.23-4.91h0ZM67,68.58h-.11c-1.31-3.61-2.19-6.14-2.61-7.64.58.96,1.11,2.19,1.61,3.61.5,1.42.88,2.76,1.11,4.03h0ZM64.46,66.17h-.35l-.69-1.92v-.08l1.04,2h0ZM72.06,66.66h-.08c-.15-.42-.69-1.57-1.57-3.45-.65-1.42-1.04-2.5-1.19-3.26.19.46.77,1.5,1.73,3.15.81,1.57,1.19,2.76,1.11,3.57h0ZM61.05,59.91v-.04c.04.12.27.84.73,2.19l-.08-.04c-.27-.5-.46-1.23-.65-2.11h0ZM60.36,67.24h-.11l-.38-2.11c.11.27.31.61.5,1.04.19.42.27.65.27.69,0,.46-.08.58-.27.38h0Z"/>
    <path class="cls-3" d="M58.25,57.03c-.27.12-.42.19-.5.19v2.23h1.38c-.35-.96-.61-1.77-.88-2.42h0Z"/>
    <path class="cls-3" d="M57.48,68.28c-.19.08-.31.15-.35.19-.12.12-.15.31-.15.58,0,.12.11.61.31,1.57h1.42c-.38-1-.81-1.77-1.23-2.34h0Z"/>
    <path class="cls-3" d="M63.73,70.62h-1.92c.42,1.27.92,2.96,1.57,5.03,1.11,3.34,2.03,4.99,2.76,4.99.69,0,1.04-.61,1.04-1.84,0-.35-.15-1.07-.5-2.26-.35-1.19-.5-2-.5-2.34,0-.27,0-.42.04-.38.04.04.04.08.04.12l.11.12c.35,1.69.81,3.22,1.3,4.6.81,2.11,1.57,3.19,2.34,3.19.27,0,.46-.11.61-.38.11-.19.19-.42.19-.65s-.11-.73-.35-1.5c-.23-.81-.34-1.3-.34-1.5,0-.57-.35-2.26-1.04-5.1-.19-.81-.38-1.5-.5-2.07h-4.57c.27.88.58,1.96.92,3.15.81,2.88,1.23,4.49,1.23,4.8v.46s-.04-.04-.08,0c-1.11-2.38-1.65-3.76-1.65-4.11,0-.81-.23-2.15-.65-3.99-.04-.12-.04-.19-.08-.31h0ZM66.81,71.35c.46.96.96,2.26,1.5,3.95.08.27.46,1.61,1.19,4.11h-.19c-1.23-3.57-2.07-6.26-2.49-8.06h0Z"/>
    <path class="cls-3" d="M61.2,72.08c-.11-.54-.23-1.04-.27-1.46h-2c.35,1.11.73,2.38,1.15,3.8l-.11-.04c-.5-1.5-.84-2.57-1.07-3.26-.04-.19-.11-.34-.19-.5h-1.42c.04.27.11.54.19.84.31,1.5.46,2.38.5,2.69h-.42c-.08-.27-.15-.5-.23-.69-.12-.38-.35-.58-.61-.58s-.42.04-.46.12c.04.04,0,.08-.04.08.27,2.07.5,3.49.69,4.26.35,1.5.88,2.72,1.61,3.76.19-.11.38-.23.5-.34,0-.27-.04-.61-.11-1-.11-.38-.15-.61-.15-.73.04,0,.08.08.19.27.11.15.35.23.61.23s.42-.04.46-.11c.04-.08.04-.12.08-.12v-.54c.11.12.27.54.46,1.19.27.58.65.88,1.15.88.42,0,.61-.08.58-.19.04-.23.08-.58.08-1.04,0-.5-.11-1.23-.38-2.11-.27-.88-.38-1.54-.38-1.96,0-1.19-.11-2.34-.38-3.45h0Z"/>
    <path class="cls-3" d="M75.25,70.62h-.81c.04.88.19,1.77.46,2.57.31.88.81,1.88,1.5,3.07.27-.12.42-.31.54-.54-.27-1-.81-2.69-1.69-5.1h0Z"/>
    <path class="cls-3" d="M74.48,73.3c-.27-1.07-.46-1.96-.61-2.69h-1.77c.31.96.65,2.15,1,3.49.73,2.8,1.31,4.22,1.77,4.22.38,0,.54-.04.42-.12.08,0,.12-.19.12-.54s-.31-1.8-.92-4.38h0Z"/>
    <path class="cls-3" d="M71.45,70.62h-2.65c.31,1.08.73,2.53,1.23,4.41.81,2.84,1.65,4.26,2.53,4.26.27,0,.46-.04.5-.11l.19-.23c.04.19.08.04.08-.42,0-.19-.38-1.77-1.11-4.72-.31-1.23-.58-2.3-.77-3.19h0Z"/>
    <path class="cls-5" d="M54.26,49.93c-.15-.04-.27-.04-.31-.04-.08,0-.15.08-.19.23-.08.19-.11.54-.11.96-.27-.46-.5-.77-.61-.96-.23-.35-.65-.54-1.31-.54-.27,0-.46.04-.5.08,0,.11-.04.15-.08.19s-.04.08-.08.04v.34c0,.46.19.92.54,1.42-.57-.61-1.07-1.07-1.42-1.42-.65-.65-1.19-.96-1.53-.96l-.12.31c0,.23.42,1.19,1.31,2.92.46.92,1.04,2.03,1.69,3.34h-.04c-.42-.65-1.31-1.69-2.57-3.19-1.34-1.54-2.11-2.3-2.3-2.3-.27,0-.46.04-.5.08-.08.04-.12.08-.15.08v.58c.84,1.27,2.26,3.3,4.3,6.14,1.73,2.53,2.88,4.53,3.45,5.99-5.49-8.21-8.75-12.32-9.79-12.32-.38.08-.65.11-.77.11.38,1.27,1.11,2.96,2.15,5.03,1.19,2.26,1.92,3.88,2.26,4.84-.11-.15-1.57-2.34-4.37-6.52-2.03-2.99-3.38-4.49-4.03-4.49-.27,0-.42.04-.46.08-.04.08-.08.15-.12.19v.31c0,.42,1.65,3.84,4.95,10.17.81,1.54,1.57,2.99,2.3,4.38h1.27c-2.07-3.8-4.18-7.79-6.37-11.94.58.77,3.11,4.68,7.56,11.74.04.04.08.11.11.19h1.46l-.46-.73c.11.04.35.31.69.73h.92c-.38-.69-.73-1.31-1.04-1.88-2.11-3.8-3.68-6.91-4.68-9.33.88.92,2.76,3.42,5.64,7.48,1.15,1.61,2.07,2.84,2.76,3.72h1.88c-.11-.5-.31-1-.54-1.54-.81-1.65-1.19-2.49-1.23-2.57h.12c.04.15.27.5.61,1.07.42.65.77.96.96.96.46,0,.65-.04.54-.08l.15-.42c-1.34-2.15-2.19-3.61-2.61-4.34-1.04-1.84-1.65-3.34-1.84-4.45.19.27.54.96,1.11,2.03.61.92,1.27,1.38,1.92,1.38.46,0,.65-.04.58-.12.08-.42.19-.77.35-.96.15-.15.23-.38.23-.73,0-.27-.04-.5-.15-.77-.12-.31-.15-.5-.15-.58.42-.08.81-.42,1.15-1,.27-.5.42-.84.42-1.11,0-.12-.15-.46-.46-1.04-.38-.65-.73-1.11-1.07-1.34-.31.19-.5.38-.57.58-.04.12-.08.15-.19.15-.27-.08-.5-.15-.65-.19h0ZM54.02,53.96h-.11l-.38-.54s.15.08.27.19c.11.11.19.23.23.35h0ZM52.84,51.89v-.04c.12.19.27.58.54,1.15-.23-.27-.42-.65-.54-1.11h0Z"/>
    <path class="cls-5" d="M36.75,53.42v1.11c.61,1.8,1.07,3.11,1.42,3.84.61,1.42,1.27,2.61,1.92,3.53-.92-1.19-1.46-1.88-1.65-2.07-.88-1.04-1.57-1.54-2.07-1.54-.27,0-.46.04-.5.08,0,.04-.04.04-.08.04-.04.27-.08.54-.08.84,0,.58.23,1.42.73,2.49.73,1.5,1.11,2.38,1.19,2.57h-.04c-.27-.27-.46-.46-.58-.58-.23-.23-.42-.35-.54-.35-.27,0-.42.04-.46.15-.04.04-.04.08-.04.11v1.15s.04.12.08.15h3.45c-1.11-1.96-1.96-3.61-2.53-4.95.69.73,1.8,2.38,3.38,4.95h2.76c-2.34-4.07-4.03-7.18-5.03-9.36h.11c1.04,1.5,2.88,4.61,5.6,9.36h1.88c-.57-1.07-1.23-2.23-1.92-3.45-3.11-5.56-5.26-8.33-6.53-8.33-.27,0-.42.04-.46.12,0,.04,0,.08-.04.12h0Z"/>
    <path class="cls-5" d="M45.7,64.98h-1.88c.77,1.34,1.61,2.88,2.53,4.53,3.72,6.41,6.29,9.6,7.68,9.6.27,0,.46-.08.58-.19.04-.15.08-.27.11-.35-2.46-4.26-4.99-8.79-7.6-13.59h-1.27c.58,1.11,1.15,2.19,1.65,3.19-.54-.96-1.15-2-1.8-3.19h0Z"/>
    <path class="cls-5" d="M43.13,64.98h-2.76c1.15,1.88,2.57,4.3,4.22,7.25,3.15,5.6,5.37,8.41,6.64,8.41.42,0,.62-.04.54-.15.04-.08.04-.12.08-.12v-.38c0-.19-1.8-3.34-5.45-9.44-1.19-2.03-2.3-3.88-3.26-5.56h0Z"/>
    <path class="cls-5" d="M43.39,71.23c-1.57-2.34-2.84-4.45-3.88-6.26h-3.45c.15.35.42.96.84,1.84.38.84.69,1.42.92,1.77-.08-.12-.15-.19-.27-.31-.19-.19-.38-.27-.65-.27s-.46.04-.5.12c-.08.04-.11.08-.15.08-.04.65.12,1.38.46,2.19.19.46.5,1.07.88,1.84-.35-.12-.77-.12-1.34,0-.11.42,0,1,.31,1.69.19.38.42.88.69,1.46-.04-.04-.23-.27-.57-.65-.15-.19-.38-.31-.69-.31-.27,0-.38.04-.42.15-.04.04-.04.12-.08.23,0,.27.11.73.38,1.34.27.62.38.96.38,1.08,0,.19-.08.31-.27.27-.19-.04-.27.08-.27.31,0,.12.27.5.77,1.15.54.73.92,1.11,1.19,1.11.42,0,.61-.08.54-.19l.11-.46c0-.27-.08-.54-.19-.73-.15-.23-.27-.42-.35-.54.08.04.38.38.88.96.42.5.73.77.88.77.27,0,.42-.04.5-.15,0-.12,0-.19.04-.19.15-.81-.11-1.73-.81-2.84-.92-1.5-1.38-2.26-1.38-2.3.19.19.85,1.15,1.88,2.92.88,1.5,1.53,2.23,1.96,2.23s.58,0,.38-.04c.08-.04.11-.08.15-.11.08-.12.11-.31.11-.58-2.34-4.26-3.8-6.95-4.41-8.14.77.77,2,2.65,3.68,5.68,1.38,2.5,2.34,3.72,2.88,3.72.46,0,.65-.08.58-.19.04-.27.08-.5.08-.77,0-.46-1.11-2.53-3.34-6.18-2.57-4.18-3.95-6.52-4.22-7.06.04.04,1.61,2.57,4.64,7.52,2.19,3.57,3.76,5.37,4.72,5.37.27,0,.46-.04.54-.15.04-.12.04-.15.08-.15l.15-.5s-1.46-2.3-4.37-6.72h0Z"/>
    <path class="cls-5" d="M55.67,66.24c.04-.42,0-.84-.08-1.27h-1.88c.81,1,1.27,1.5,1.46,1.5.27,0,.42-.04.46-.11.04-.04.04-.08.04-.12h0Z"/>
    <path class="cls-5" d="M54.98,72.77l.19-.38c-1.69-3.03-3.07-5.49-4.15-7.41h-.92c.42.5.61.92.65,1.19h-.08l-.81-1.19h-1.46c3.3,5.26,5.33,7.91,6.14,7.91.46,0,.61-.04.42-.12h0Z"/>
  </g>
  <g id="Layer_4" data-name="Layer 4">
    <path class="cls-2" d="M72.45,5.33c-.04-.11-.08-.19-.11-.27-.04.04-.08.12-.11.15-1.15-.42-2.96-.81-5.41-1.11-3.84-.5-5.76-.08-5.76,1.23v.12c-.11.23-.15.5-.19.84-.04.19-.04.69-.04,1.42,0,1.04-.08,2.8-.23,5.33,0,1.57.23,2.84.65,3.72-7.06-5.18-12.24-8.75-15.58-10.75t-.08-.08h-.04s-.04-.04-.08-.04v.04c-.12,0-.19-.04-.27-.08-3.26,2.69-9.59,7.45-19.04,14.32-8.17,5.95-14.2,10.44-18.04,13.55-1.15.38-2.03,1.34-2.65,2.92-.46,1.11-.69,2.23-.69,3.34,0,.12.15,1.07.46,2.88h.96c-.27-.88-.38-1.84-.38-2.88s.46-2.19,1.42-3.61c.92-1.42,1.38-2.11,1.38-2.15v-.04c8.02-5.72,14.78-10.55,20.26-14.51,10.94-7.87,16.54-12.28,16.81-13.16.73,1.3,3.19,3.38,7.37,6.25,2.72,1.88,6.75,4.61,12.17,8.17,2.23,1.57,6.29,4.72,12.17,9.4,2.49,2,4.84,3.88,7.02,5.6t-.08.04v.46s.23.54.65,1.5c.42,1.04.61,1.69.61,1.96-.04.96-.31,1.92-.77,2.88t-.04.08h1.31c.38-1,.58-2.03.58-3.11,0-.73-.15-1.46-.42-2.19-.12-.35-.23-.61-.38-.84.08-.04.11-.08.15-.15.04-.08.08-.19.11-.35-2.95-2.65-7.25-6.14-12.86-10.44l.04-.23c-.19-1.34-.35-3.34-.54-5.91-.15-2.57-.23-4.76-.23-6.49.15-1.69.27-3.03.35-3.99.08-1.11.04-2.03-.15-2.84.08-.04.15-.08.23-.12.19-.12.31-.23.35-.35-.19-.19-.46-.35-.88-.54h0ZM71.64,6.41c-.15.58-.23,1.34-.27,2.3,0,1.04.08,2.5.19,4.45,0,1.42.08,3.65.23,6.68.11,2.19.27,3.88.38,5.07-2.07-1.57-4.3-3.22-6.68-4.99-1.15-.88-2.26-1.69-3.34-2.46.08-.12.15-.19.19-.31-.04-.61-.19-2.65-.42-6.06-.12-2.07-.31-3.84-.5-5.26.35-.04.96-.15,1.84-.35.96-.19,1.61-.27,1.88-.27.04,0,1,.19,2.96.61,1.61.31,2.8.5,3.53.58h0Z"/>
    <path class="cls-2" d="M46.12,24.06c-.04.11-.08.19-.12.19v.12c-1.57,1.04-6.45,4.03-14.55,9.02-6.18,3.8-10.78,6.95-13.85,9.48h1.73c2.46-1.77,6.29-4.61,11.55-8.52.54-.42,3.42-1.92,8.67-4.49,4.03-2.11,6.45-3.68,7.18-4.64,12.82,8.98,21.42,14.85,25.75,17.65h2c-5.6-3.88-9.94-6.87-13.05-8.98-5.76-3.91-10.55-7.02-14.43-9.29,0-.27-.04-.42-.15-.5-.11,0-.27-.04-.38-.08-.04.04-.12.08-.19.15-.04-.04-.11-.08-.15-.11h0Z"/>
    <path class="cls-2" d="M36.71,53c-.04-.81-.19-1.53-.46-2.11.65-.04,2.69-.12,6.14-.27h13.55c.11,0,.23,0,.35.04-.27,1.04-.42,2.3-.5,3.8-.08,1.04-.12,3.22-.12,6.52,0,1.57.12,5.22.31,10.94.16,4.41.27,7.29.38,8.64-6.1.08-13.59.11-22.37.11-1.73,0-4.8-.46-9.21-1.42-3.69-.81-6.26-1-7.68-.58v.54c2.57,1.73,8.21,2.61,16.92,2.61,16.08,0,26.44-.08,31.16-.19,6.83-.19,10.4-.61,10.75-1.23v-.11c.19-11.32.27-17.23.27-17.69,0-7.6-.12-13.43-.31-17.5.31.23.73.58,1.23,1,.77.46,1.92.69,3.49.69,2.27,0,3.95-1,5.03-2.99.15-.31.31-.61.46-.92h-1.31c-.88,1.84-2.34,2.76-4.3,2.76-1.11,0-1.96-.23-2.53-.69-.57-.5-1.11-.73-1.53-.73h-.04c-.65-.46-1.31-.92-1.92-1.34h-2c1.57,1,2.57,1.61,3.03,1.8-.69,1.61-1,4.64-.96,9.06,0,2.61.11,5.49.31,8.6,0,1.96.04,4.91.11,8.79.11,4.3.23,7.22.35,8.71-2.92.35-9.06.58-18.38.73.19-.65.27-1.57.27-2.76l-.5-16.85c.11-4.3.19-7.75.23-10.32h.04c.23-.04.31-.23.23-.5-.04-.15-.11-.27-.27-.38-.04-.38-.04-.73-.04-1.04-.11.27-.23.54-.35.88-.88-.11-4.07-.15-9.59-.19h-4.34c-2.88.04-4.3.04-4.3.08-1.88-.04-2.92.08-3.07.31-.08.15,0,.42.23.77.04.04.08.11.11.15-.27.27-.38.54-.38.81,0,.42.15,1.88.5,4.34,0,1.38-.15,3.68-.5,6.87-.34,3.22-.5,5.64-.5,7.21,0,2.88.04,4.72.08,5.49.11,2.07.42,3.8.92,5.22.35-.27.54-.81.54-1.65-.34-5.56-.54-8.56-.54-8.98,0-1.54.19-3.91.54-7.1.35-3.22.5-5.56.5-7.02,0-1.73,0-2.69-.04-2.88h0Z"/>
    <path class="cls-2" d="M17.6,42.87c-.11.08-.19.15-.31.23t-.08-.08c-.15,0-.27-.04-.38-.08-.81.81-1.57,1.5-2.34,2.07-1.5,1.11-2.88,1.69-4.22,1.69-1.8,0-3.07-1.04-3.84-3.07-.11-.27-.19-.5-.23-.77h-.96c.04.35.11.73.19,1.15.88,2.53,2.53,3.8,4.87,3.8,1.11,0,2.57-.61,4.41-1.8.58-.38,1.08-.73,1.46-1.04.04,0,.27-.12.61-.35-.5,1-.73,2.42-.61,4.26l.31,5.95c-.15,1.77-.31,4.18-.46,7.25-.15,2.69-.23,4.26-.23,4.76,0,1,.11,2.65.31,4.99.27,3.11.61,5.18,1,6.14.19-.04.31-.08.42-.19l.04-1.15c0-1.11-.11-2.73-.34-4.87-.27-2.15-.38-3.8-.38-4.91,0-1.92.11-4.8.38-8.63.23-3.8.34-6.68.34-8.64-.11-2.3-.15-4.07-.19-5.33.5-.35,1.15-.81,1.96-1.38h-1.73Z"/>
  </g>
</svg>