<?xml version="1.0" encoding="UTF-8"?>
<svg id="Layer_2" data-name="Layer 2" xmlns="http://www.w3.org/2000/svg" xmlns:xlink="http://www.w3.org/1999/xlink" viewBox="0 0 97.5 96.21">
  <defs>
    <style>
      .cls-1 {
        fill: url(#linear-gradient);
      }

      .cls-1, .cls-2, .cls-3, .cls-4 {
        stroke-width: 0px;
      }

      .cls-3 {
        fill: #ccc;
      }

      .cls-4 {
        fill: #999;
      }
    </style>
    <linearGradient id="linear-gradient" x1="46.42" y1="9.45" x2="46.42" y2="125.39" gradientUnits="userSpaceOnUse">
      <stop offset=".37" stop-color="#fff"/>
      <stop offset="1" stop-color="#c6c6c6"/>
    </linearGradient>
  </defs>
  <g id="Layer_1-2" data-name="Layer 1">
    <path class="cls-4" d="M53.14,7.81c-3.03-3.38-5.87-3.11-8.52.77l-12.59,20.95-21.99,3.61c-4.45.96-5.64,3.53-3.61,7.75l13.36,21.8v28.71c1.04,4.68,3.76,5.95,8.17,3.8l22.6-12.4,22.03,8.33c4.57,1.5,7.02-.23,7.37-5.18l.92-21.64,15.27-21.34c2.5-3.84,1.5-6.52-2.92-8.06l-23.45-6.79L53.14,7.81h0Z"/>
  </g>
  <g id="Layer_2-2" data-name="Layer 2">
    <path class="cls-4" d="M1.02,36.02h.04l13.28,21.72v24.79c.54,3.72,1.54,6.26,2.95,7.6,1.46,1.38,3.38,1.5,5.79.35l22.45-12.32,21.88,8.29c2.42.77,4.3.69,5.6-.23,1.34-.92,2.07-2.69,2.26-5.3l.92-21.53,15.2-21.26h.04c1.3-2.07,1.69-3.84,1.15-5.26-.5-1.46-1.92-2.57-4.26-3.38h-.04l-23.33-6.75L48.38,2.51c-1.65-1.8-3.22-2.65-4.76-2.49-1.53.11-2.99,1.23-4.37,3.3l-12.51,20.8-21.8,3.57h-.04c-2.38.5-3.87,1.46-4.49,2.88-.69,1.38-.5,3.19.62,5.45h0ZM1.71,35.63v.04c-.96-2-1.15-3.61-.61-4.8.58-1.19,1.88-2,3.95-2.42l21.99-3.61s.12,0,.15-.04c.04-.04.08-.11.11-.15L39.9,3.7v.04c1.23-1.84,2.49-2.84,3.8-2.96,1.3-.11,2.69.65,4.11,2.23l16.66,20.3s.08.08.15.12l23.45,6.79c2.07.73,3.34,1.69,3.8,2.92.42,1.27.08,2.76-1.08,4.57l-15.27,21.3s-.08.12-.08.23l-.92,21.64c-.15,2.3-.81,3.88-1.92,4.68-1.19.81-2.84.85-4.95.15h.04l-22.03-8.33s-.12-.04-.15-.04c-.08,0-.15,0-.19.04l-22.61,12.4h.04c-2.03,1-3.68.92-4.95-.23-1.3-1.27-2.19-3.65-2.69-7.14v-24.79c0-.08,0-.15-.04-.19L1.71,35.63h0Z"/>
    <path class="cls-1" d="M1.71,35.67v-.04l13.36,21.8s.04.11.04.19v24.79c.5,3.49,1.38,5.87,2.69,7.14,1.27,1.15,2.92,1.23,4.95.23h-.04l22.61-12.4s.11-.04.19-.04c.04,0,.11,0,.15.04l22.03,8.33h-.04c2.11.69,3.76.65,4.95-.15,1.11-.8,1.77-2.38,1.92-4.68l.92-21.64c0-.11.04-.19.08-.23l15.27-21.3c1.15-1.8,1.5-3.3,1.08-4.57-.46-1.23-1.73-2.19-3.8-2.92l-23.45-6.79c-.08-.04-.12-.08-.15-.12L47.8,3.01c-1.42-1.57-2.8-2.34-4.11-2.23-1.31.11-2.57,1.11-3.8,2.96v-.04l-12.59,20.96s-.08.11-.11.15c-.04.04-.12.04-.15.04l-21.99,3.61c-2.07.42-3.38,1.23-3.95,2.42-.54,1.19-.35,2.8.61,4.8h0Z"/>
  </g>
  <g id="Layer_3" data-name="Layer 3">
    <path class="cls-3" d="M47.19,11.26c-.04-.19-.15-.27-.38-.27s-.42.15-.61.46c-.23.42-.38.61-.42.65v-.08c.08-1.19-.27-1.65-1.07-1.42-.54.11-1.23.57-2.03,1.3-.35-.35-.61-.58-.81-.65-.42.34-.69.77-.81,1.27-.12-.08-.19-.15-.31-.23-.19-.19-.46-.27-.73-.27-.5,0-.81.73-.92,2.15-.04.58-.08,1.65-.08,3.23-.04-.08-.11-.15-.19-.23-.12-.19-.31-.27-.58-.27-.73,0-1.15.65-1.3,1.92-.04.65-.08,1.57-.04,2.72l-.08-.04c-.19-.5-.38-.88-.5-1.15-.23-.46-.54-.77-.92-.92-.46.23-.81.77-1.04,1.61-.12.35-.15.73-.19,1.07h1.07s.04-.11.04-.15c.12-.42.15-.73.19-.85l.11.12c.12.23.19.54.31.88h4.3c-.11-.77-.19-1.96-.19-3.57,0-2.03.08-3.53.27-4.41v-.08c.38.85.61,1.46.69,1.8.12.38.15.92.15,1.57,0,.19-.08.65-.27,1.31-.19.65-.31,1.07-.31,1.23,0,.23.04.96.15,2.15h5.45c-.5-2.73-1.07-6.03-1.77-9.82,0-.31,0-.54.04-.65v-.08c.65,2.8,1.46,6.33,2.46,10.55h1.73c-1.27-3.76-1.92-6.41-1.92-7.91,0-.65.08-1.23.19-1.69.27,2.03,1,5.18,2.19,9.44,0,.04,0,.11.04.15h3.22c-.27-1.07-.54-2.23-.81-3.45,0-.27,0-.42.04-.42.04.04.04.08.04.12h.08c.61,1.5,1.07,2.76,1.42,3.76h.88c-.77-1.84-1.76-3.95-2.99-6.33-1.65-3.19-2.57-4.8-2.76-4.8-.23,0-.34.08-.31.27,0,.19-.12.27-.35.27-.19,0-.34-.08-.38-.27h0ZM48.3,12.68v-.08c.54,1.07,1,2.57,1.42,4.49.19.88.46,2.46.84,4.72l-.04.12c-.84-3.88-1.57-6.95-2.23-9.25h0ZM44.73,19.05c-.23-.96-.35-1.69-.35-2.11v-.04c.12.31.38,1.73.88,4.22-.04.08-.08.08-.08.04-.04-.23-.19-.92-.46-2.11h0ZM42.66,19.13c-.04-.19-.12-.27-.15-.27-.27-2.57-.38-4.34-.38-5.37.42,3.45.65,5.22.65,5.33,0,.46-.04.58-.11.31h0Z"/>
    <path class="cls-3" d="M48.61,22.12h-1.73c.58,2.46,1.19,5.14,1.88,8.06h-.04c-.35.12-.5.46-.5,1.04,0,.23.11,1.04.34,2.42l-.11-.04c-.12-.38-.31-.85-.61-1.42-.04-.11-.12-.19-.15-.27-.08-1.11-.58-4.37-1.54-9.79h-5.45c.08,1.11.19,2.65.35,4.64,0,.58-.04.96-.08,1.11-.19-2.26-.46-4.07-.73-5.49-.04-.08-.04-.15-.04-.27h-4.3c.58,1.8,1.27,5.03,2.03,9.6.11.69.23,1.34.35,1.96h1.61c-.04-.19-.08-.42-.12-.61h.04c.04.23.12.42.15.61h5.26c-.12-1.57-.23-2.49-.27-2.72v-.04c.27.96.5,1.88.73,2.76h7.67c-.19-1.11-.31-1.84-.31-2.19,0-.19.04-.42.12-.65.27.61.58,1.27.92,1.92.23-.04.38-.15.46-.34l.04-.31c0-.08-.08-.42-.19-1.07.15.31.27.69.34,1.15v1.5h3.19c-.84-1.5-1.19-2.69-1.04-3.61-.15-.04-.31-.04-.42-.04-.19-.77-.31-1.5-.35-2.15.5,1.11,1.11,3.07,1.84,5.79h5.37v-.15s.04.11.08.15h5.22c-.08-.61-.15-1.11-.19-1.53.23.11.5.61.77,1.53h1.61c-.31-.77-.58-1.38-.81-1.84-.46-.92-1-1.38-1.57-1.38-.34,0-.96.27-1.77.8-.42.27-.84.58-1.34.92-.65-.58-1.31-.84-2-.77,0-.5,0-.77-.04-.88-.11-.35-.35-.54-.77-.54s-.69.27-.73.81c-.04.61-.23,1-.61,1.11-.23-.38-.5-.73-.77-1.04-.5-.58-1-.88-1.5-.88-.42,0-.65.23-.77.69t-.04-.04c-.19-.77-.73-1.88-1.61-3.34-.96-1.57-1.54-2.53-1.65-2.92-.27-.73-.54-1.46-.88-2.26h-.88c.38,1.19.58,1.96.58,2.38,0,1.34.19,2.92.58,4.72-.12-.08-.19-.15-.31-.19-.38-1.65-.92-3.95-1.61-6.91h-3.22c.54,2.07,1.11,4.03,1.69,5.91-.88-2.23-1.61-4.18-2.19-5.91h0ZM63.88,32.68l-.08-.11c.42.11.73.31.88.58l-.12.11c-.35-.27-.58-.46-.69-.58h0ZM52.6,29.53s-.08.12-.11.15c-.04.04-.04.08-.04.12-.08-.15-.15-.31-.19-.5-.61-1.69-.92-2.92-.96-3.72.19,1.04.61,2.38,1.3,3.95h0ZM42.01,25l-.15-1.07v-.08l.27,1.11-.12.04h0ZM42.62,28.92c-.19-1.34-.31-2.23-.42-2.69v-.08c.19.38.38,1.19.58,2.42.23,1.5.38,2.42.46,2.76-.23-.42-.42-1.23-.61-2.42h0Z"/>
    <path class="cls-3" d="M57.97,33.68v.08s-.04-.04-.04-.08h-3.19c-.08,1.15-.19,2.19-.34,3.07-.27-.58-.5-1.15-.77-1.73-.12-.5-.19-.96-.27-1.34h-7.67c.81,3.42,1.34,6.41,1.61,8.94-1-1.27-1.61-3.15-1.8-5.6-.12-1.34-.19-2.46-.27-3.34h-5.26c.12.46.15.77.19.92.08.23.15.42.27.61-.11-.04-.23-.04-.34,0-.04-.42-.12-.96-.19-1.54h-1.61c.19.96.34,1.77.5,2.42-.11.19-.23.46-.31.73-.15-.81-.38-1.88-.65-3.15h-1.8c.84,3.88,1.42,6.14,1.69,6.79.04-.08.15-.19.27-.35-.04.42-.04.88-.04,1.38-.27.12-.42.19-.46.19,0,.65,0,1.07-.04,1.34-.04-.04-.08-.11-.11-.15-.46-1.34-.92-3.84-1.38-7.48-.08-.61-.15-1.19-.23-1.73h-3.03c.27.88.54,2.11.81,3.72.38,2.19,1.04,3.57,1.92,4.14,0,.81.31,1.65.88,2.53v.04c.04.31.04.69.08,1.11h3.49l-.15-.88v-.08c.08.35.15.65.19.96h3.76c-.12-.35-.19-.69-.23-.96-.65-2.99-1-5.68-1.11-8.06.11.31.27.65.38,1,.23.81.5,1.73.81,2.8.27,1.19.54,2.57.77,4.15.04.34.11.73.19,1.07h1.34c-.04-.27-.08-.5-.11-.73.08.04.15.04.23.04.27,0,.42-.04.46-.11,0-.11,0-.15.04-.15,0-.38.04-.58.08-.58.11.42.27.92.42,1.53h3.38c-.46-1.15-.73-2.11-.81-2.88v-.08c.27.31.5.65.77,1,0,.04,0,.08.04.11.27.65.58,1.27.88,1.84h2.53c-.11-.19-.27-.35-.38-.54-.35-1.77-.81-3.8-1.34-6.06.35.73.65,1.57.96,2.53.31.96.73,2.34,1.23,4.07h3.15c-.08-.31-.15-.61-.23-.88.19.15.35.27.54.35.04.19.08.35.11.54h1.04c-.04-.23-.08-.46-.11-.65t.04-.08v-.69l.35,1.42h2.49c-.84-3.3-1.46-6.64-1.84-10.06v-.04c.12.46.69,2.95,1.8,7.45.23.96.46,1.84.65,2.65h3.22c-.81-2.57-1.27-4.07-1.34-4.41-.69-2.73-.92-5.1-.69-7.14h-5.37ZM55.36,34.1v-.08c.81,3.49,1.42,6.49,1.92,8.9-.31-.58-.65-1.23-1-1.96-.5-2.49-.81-4.76-.92-6.87h0ZM48.45,40.81c0,.35,0,.69-.04,1-.34-2-.54-3.38-.65-4.15.35.73.81,1.77,1.38,3.07h-.04c-.31.04-.54.08-.65.08h0ZM44.27,34.94c-.15-.35-.27-.69-.35-1.11,0-.04.12-.04.35-.04v1.15h0ZM42.01,34.75s-.11.08-.15.11c.04-.19.08-.31.08-.42,0,.12.04.19.08.31h0ZM40.28,36.98c0-.11-.04-.46-.08-1,.08.12.19.31.35.61v1.92h-.04c-.12-.35-.19-.69-.23-1v-.54h0Z"/>
    <path class="cls-3" d="M63.42,33.68c.61,1.11,1.27,3.42,2,6.91.42,1.96.69,3.49.84,4.64h6.99c.04-.35.12-.58.15-.73l.15.08c0,.27,0,.46.04.65h1.65c.04-.23.12-.5.15-.77.08-.81.15-1.38.19-1.73,1.42.69,2.15.42,2.19-.77-.19-1.5-.23-2.46-.15-2.84.19.19.38.5.61,1,.27.42.65.61,1.19.61.42,0,.77-.31,1-.92.12-.69.23-1.11.27-1.23.96-.11,1.54-.38,1.73-.81.04-.12.08-.61.08-1.46,0-1.31-.31-2.19-.88-2.65h-1.88c.23.58.19,1-.08,1.31-.19.19-.58.42-1.07.77l-.08-.04c-.04-.58-.15-1.04-.31-1.42-.12-.27-.23-.46-.35-.61h-1.46c-.12.15-.27.38-.38.69l-.04-.08c-.08-.23-.15-.42-.19-.61h-3.26s-.04,0-.04.04c-.04.11-.15.27-.35.46l-.19-.15.15-.35h-1.15l-.08.11s-.04-.08-.04-.11h-1.61c.19.61.42,1.42.61,2.38.5,2.34.77,4.03.77,5.07,0,.23-.08.54-.19.92-.12.34-.19.65-.19.84h-.08c-.15-1.19-.46-2.99-.88-5.49-.27-1.5-.46-2.73-.61-3.72h-5.22ZM77.12,34.87v-.04l.15.42c.04.27,0,.58-.15.84-.04-.04-.12,0-.15.08-.04.04-.04-.08-.04-.35s.08-.58.19-.96h0ZM71.29,35.17v-.04c.12.19.38,1.23.81,3.11.42,2.03.65,3.3.65,3.88s-.15,1.3-.42,2.15l-.08-.04c-.69-4.57-1.04-7.22-1.04-8.02,0-.42.04-.77.08-1.04h0ZM75.05,34.98v-.04c.69,2.46,1.04,4.26,1.04,5.37,0,.5-.04.81-.12.88l-.15-.08c-.04-.15-.23-1.23-.58-3.19-.23-1.27-.31-2.26-.19-2.96h0ZM69.18,44.96c-.12-.5-.19-.92-.19-1.27v-.08l.27,1.31-.08.04h0ZM74.55,41.66c0,.88-.04,1.53-.08,1.92h-.11c-.12-.96-.35-2.34-.73-4.18-.34-1.69-.54-3.11-.61-4.22,1.04.34,1.57,1.54,1.69,3.53.04,1,0,2-.15,2.96h0Z"/>
    <path class="cls-3" d="M77.85,33.68c-.27-.27-.58-.42-1-.42-.11,0-.27.15-.46.42h1.46Z"/>
    <path class="cls-3" d="M79.66,33.48s.04.11.08.19h1.88c-.35-.27-.81-.42-1.34-.42-.27,0-.42.04-.5.11l-.12.12h0Z"/>
    <path class="cls-3" d="M71.33,32.45c-.19.61-.35,1.04-.38,1.23h1.15l.27-.81.15-.04c.04.38.04.65,0,.84h3.26c-.08-.23-.15-.42-.19-.57-.19-.46-.42-.73-.77-.85-.19.12-.38.31-.58.65-.19.35-.34.54-.42.58-.34-1.04-.81-1.81-1.3-2.27-.58.19-1,.61-1.19,1.23h0Z"/>
    <path class="cls-3" d="M35.25,22.12h-1.07c-.04.19-.04.42-.04.61,0,1.46.54,4.68,1.61,9.71.11.42.19.81.27,1.23h1.8c-.23-1.04-.5-2.26-.84-3.61-1.19-4.76-1.8-7.18-1.8-7.21,0-.23.04-.46.08-.73h0Z"/>
    <path class="cls-3" d="M20.48,31.99c-.69,0-1.11.27-1.3.77-.08.27-.12.58-.15.92h1.11c.04-.19.04-.35.08-.46v-.08c.19.15.38.35.54.54h1.73c-.15-.15-.31-.31-.46-.46-.88-.81-1.38-1.23-1.54-1.23h0Z"/>
    <path class="cls-3" d="M18.86,33.68c-.23-.11-.54-.31-.96-.5-.58-.27-.88-.42-.92-.42-.42,0-.69.27-.77.85v.08h2.65Z"/>
    <path class="cls-3" d="M20.74,33.68c.34.42.54,1,.58,1.73.04.57,0,1.42-.12,2.46-.35-.31-.61-.84-.81-1.65-.19-.69-.31-1.34-.31-1.92,0-.23,0-.42.04-.61h-1.11v.08s-.12-.04-.15-.08h-2.65c-.04.27-.04.65,0,1.15,0,.88.11,2.07.38,3.49l-.12-.08c-.11-.88-.35-1.65-.61-2.38-.42-1.04-.96-1.57-1.54-1.57-.27,0-.5.04-.61.15-.11.12-.19.15-.23.15-.04.5-.08,1.15-.08,1.92,0,.81.04,1.42.08,1.84h-.04s-.04.08-.04.12c-.19-.5-.42-1.07-.73-1.69-.5-.96-.92-1.42-1.31-1.42-.27,0-.46.04-.5.11.04.04,0,.08-.04.08,0,.19-.08.46-.23.73-.19.27-.27.54-.27.77,0,.19.27.85.81,1.96t.04.08c.04.46.15,1.11.31,1.96.27,1.42.38,2.23.38,2.38l.65.08c.42,0,.58-.04.42-.08.12-.27.19-.92.31-2.03,0-.04,0-.12.04-.15.12.5.23,1.15.42,1.96.35,1.11.65,1.77,1,2.03h.69v-.04c0-.12,0-.15.04-.15v-.19c.04.11.11.27.15.38h9.29c-.88-4.72-1.57-7.91-2-9.48,1,2.23,1.92,5.37,2.76,9.48h2.5c-.35-.84-.73-1.96-1.23-3.38-1.11-3.22-1.69-5.22-1.69-5.99,0-.27,0-.42.04-.42t.04.08c.96,1.31,1.69,3.19,2.27,5.68.38,1.73.69,3.07.92,4.03h2.04c-.19-1.15-.31-2-.35-2.49.19.58.38,1.42.61,2.49h3.99c-.08-.31-.12-.54-.15-.69v-.04c.08.19.19.42.31.73h1.3c-.19-.42-.38-.81-.5-1.07-.31-.58-.69-.96-1.11-1.15-.23.19-.42.38-.61.65-1.15-5.76-1.77-9.1-1.88-9.98h-1.23c.11.46.19.85.19,1.11,0,.42-.04.5-.11.19l-.04-.04c-.19-.5-.35-.92-.46-1.27h-3.15c-.12.38-.23.65-.38.81-.12-.31-.19-.57-.27-.81h-1.19c.04.11.04.23.08.35h-.54c-.04-.11-.04-.23-.08-.35h-1.04c0,.46.08,1.15.19,2.07l-.08-.04c-.27-.61-.81-1.31-1.57-2.03h-1.73ZM14.49,38.47c-.08-.81-.08-1.54-.04-2.19.58,1.61,1.23,3.65,2.03,6.1-.19-.54-.42-1.07-.69-1.57-.54-1.15-.96-1.92-1.31-2.34h0ZM18.21,41.7c.11,1.04.27,1.73.46,2.11h-.15c-.23-1.34-.42-2.69-.58-4.03.04.15.15.81.27,1.92h0ZM28,35.13v-.04c.15.58.27,1.61.31,3.15l-.04-.04c-.19-1.5-.27-2.49-.27-3.07h0ZM29.53,34.1v-.08c.58,1.53,1.07,3.22,1.5,5.07.5,2.03.81,3.76.92,5.26l-.04-.08c-1.31-4.49-2.11-7.87-2.38-10.17h0Z"/>
    <path class="cls-3" d="M25,32.83l.04.04c.19.19.35.46.46.81h1.19c-.19-.46-.34-.84-.46-1.15-.35-.88-.81-1.31-1.42-1.31-.27,0-.46.04-.54.12-.04.04-.08.08-.11.08,0,.27-.04.58-.12,1-.11.42-.15.73-.15.92,0,.12,0,.23.04.35h1.04c-.04-.19-.04-.35-.04-.42,0-.27.04-.42.08-.42h0Z"/>
    <path class="cls-3" d="M33.64,27.88c-.61.27-.96.69-1,1.34-.04.34-.08.92-.11,1.73-.38-.35-.69-.35-.92,0-.12.19-.27.5-.42.84-.19-.42-.38-.77-.5-1-.23-.42-.62-.61-1.15-.61-.23,0-.46.15-.69.46-.11.12-.19.27-.27.42-.23,0-.38-.11-.42-.31-.04-.19-.19-.31-.42-.31-.27,0-.42.04-.46.15,0,.04,0,.08-.04.12v1.34c.15.46.19.96.12,1.46v.15h3.15c-.34-.96-.58-1.61-.69-2v-.08c.35.23.65.77.96,1.57.04.19.11.35.15.5h1.23c-.04-.11-.04-.19-.04-.23,0-.5.04-.85.08-1.04.15.27.31.69.5,1.27h3.03c-.42-2.46-1.11-4.37-2.07-5.79h0Z"/>
    <path class="cls-3" d="M71.21,45.57h.08c.12.23.19.61.19,1.11l.65.15c.5,0,.81-.31.96-.88.04-.27.12-.54.15-.73h-6.99c.12.73.15,1.3.15,1.73s-.04.77-.12,1.07l-.08-.04c-.35-1.04-.61-1.96-.84-2.76h-3.22c.42,2,.69,3.65.8,4.91-.54-1.65-1-3.26-1.42-4.91h-2.49l.92,3.72c-.04.08-.12.08-.19.04-.31-.69-.58-1.61-.84-2.8-.04-.34-.12-.65-.15-.96h-1.04c.23,1.27.38,2.3.5,3.19-.34-1.11-.65-2.15-.92-3.19h-3.15c.04.19.12.42.19.65h-.15c-.19-.23-.35-.46-.5-.65h-2.53c.46.8.92,1.57,1.38,2.26.46,1.11.84,2.26,1.11,3.49h1.34c0-.27.04-.54.15-.84.12-.27.15-.42.19-.54.12.42.27.88.46,1.38h9.02v-.31l.04.11s.08.11.12.19h2.38v-.31h.08s.08.15.12.31h1.65l.42-1.84.23.27c.12.15.31.23.58.23s.46-.04.5-.11c0-.12,0-.15.04-.15.15-1.8.23-3.07.23-3.8h0ZM54.1,48.45v-.08c-.08-.42-.15-.92-.27-1.42.19.19.54.42.96.73.65.5,1.04.81,1.15,1-.69,0-1.27.08-1.73.19l-.12-.42h0ZM68.18,48.68v-.08c.27.19.34.73.15,1.54l-.04-.12c-.08-.27-.11-.69-.11-1.34h0Z"/>
    <path class="cls-3" d="M45.81,45.23h-1.34c.19,1.3.38,2.46.54,3.42-.12.04-.27.11-.38.23,0,.04.04.23.08.61-.42-1.73-.77-3.15-1.04-4.26h-3.76c.04.34.08.65.11.96l-.15-.96h-3.49v.27l-.04-.08c-.04-.08-.04-.15-.08-.19h-1.3c.34,1.07.84,2.99,1.42,5.76h2.03c-.23-.96-.42-2.03-.54-3.19v-.08c.35,1.19.65,2.3.92,3.26h3.8c-.27-2.38-.5-4.26-.69-5.68.5,1.57.92,3.45,1.3,5.68h3.49c-.04-.42-.12-.84-.19-1.27.27.38.5.81.73,1.27h5.95c-.88-1.65-1.53-2.99-2.03-3.95-.35-.65-.61-1.27-.84-1.8h-3.38c.11.42.27.88.38,1.42.27.96.58,1.77.84,2.5-.08.27-.15.54-.27.81-.23-.23-.5-.69-.85-1.38-.23-.46-.5-.69-.81-.73-.15-.96-.31-1.8-.42-2.61h0ZM50.45,48.68v-.08l-.27-1.15c.27.27.35.65.27,1.23h0Z"/>
    <path class="cls-3" d="M53.67,50.99c.04.23.12.46.15.69h-.31c-.12-.23-.23-.46-.34-.69h-5.95c.69,1.46,1.19,3.38,1.5,5.76h2.76c-.27-.69-.46-1.27-.58-1.73.27.42.58,1,.84,1.73h3.68l-.31-.88v-.08c.19.35.31.65.42.96h1.31c-1.23-3.45-1.84-5.37-1.84-5.76h-1.34ZM49.99,51.83c.04-.35.27.19.73,1.54-.11.08-.23.11-.35.11-.12-.73-.27-1.27-.38-1.65h0ZM52.33,53.67h-.08c-.19-.42-.27-.88-.27-1.34.23.46.35.92.35,1.34h0ZM49.76,55.28h-.08c-.15-.46-.27-.96-.38-1.53.23.34.38.88.46,1.53h0Z"/>
    <path class="cls-3" d="M47.15,53.1c-.12-.27-.19-.54-.27-.8-.04-.42-.12-.88-.19-1.31h-3.49c.19.96.35,2,.5,3.11.11.73.27,1.61.38,2.65h1.07c0-.73.04-1.19.12-1.42.15.27.27.38.34.38.04.35.12.69.19,1.04h2.73c-.61-1.57-1.07-2.76-1.38-3.65h0ZM44.69,54.25c-.04-.19-.04-.35-.08-.5h.34s.08.15.19.34c-.11.04-.23.04-.38.08t-.08.08h0Z"/>
    <path class="cls-3" d="M42.58,50.99h-3.8c.35,1.34.54,2.49.65,3.45-.42-1.04-.77-2.19-1.04-3.45h-2.03c.12.58.23,1.15.35,1.8.31,1.5.58,2.84.77,3.95h1.11c-.12-1-.19-1.61-.23-1.84.27.58.5,1.19.73,1.84h1.77c-.04-.15-.04-.31-.08-.5v-.08c.08.19.15.38.23.58h2.26c-.15-.81-.27-1.61-.38-2.49-.12-1.19-.19-2.27-.31-3.26h0Z"/>
    <path class="cls-3" d="M68.99,51.83l.23-.84h-1.65c.04.11.11.23.15.42.19.35.46.54.85.54.46,0,.61-.04.42-.11h0Z"/>
    <path class="cls-3" d="M67.03,52.14c.19-.46.31-.85.35-1.15h-2.38c.11.31.27.81.46,1.54.19.73.38,1.23.65,1.46.19-.04.35-.11.5-.23.04-.42.15-.96.42-1.61h0Z"/>
    <path class="cls-3" d="M64.84,50.99h-9.02c.54,1.57,1.23,3.49,2.03,5.76h2.92c-.19-.96-.35-2-.54-3.19.38.81.77,1.84,1.15,3.19h1.11l-.04-.12v-.04s.04.11.08.15h2.92c-.31-.27-.61-.42-.88-.42-.15,0-.31-.04-.5-.15v-.19c.46-2.19.73-3.88.77-4.99h0ZM58.89,54.21c.04-.19.04-.35.04-.46v-.08c.15.19.34.84.54,1.92-.04.08-.12.12-.15.08-.12-.27-.19-.46-.27-.61-.12-.27-.15-.58-.15-.84h0Z"/>
    <path class="cls-3" d="M30.8,45.23c.12.42.19.92.31,1.46.12.42.27.84.46,1.23v3.38c.04.12.08.31.08.54-.19-.11-.38-.19-.58-.27.04-.42.04-.88.04-1.42,0-.92-.11-2.19-.38-3.76-.08-.42-.15-.81-.19-1.15h-2.04c.23,1.11.35,1.69.38,1.73-.11-.19-.38-.77-.73-1.73h-2.5c0,.11,0,.19.04.31.35,1.81.73,3.42,1.07,4.84.04.38.08.81.15,1.27-.38-.04-.69-.04-.88,0-.19-1.27-.58-3.38-1.15-6.37v-.04h-9.29c.46,1.27,1,2.34,1.65,3.15.19-.08.38-.19.5-.34v-1.54c-.04-.15-.04-.31-.08-.46,1.19,3.34,2.57,6.41,4.18,9.25.54-.69.96-1.46,1.27-2.26.38-1.04.46-1.88.19-2.61h.08c.15.5.42,1.07.77,1.77.19.38.42.69.61.96-.19.27-.42.61-.61,1.04-.5,1.04-.77,1.8-.77,2.3v.27h3.91c-.57-1.57-.84-2.49-.84-2.76,0-.31.08-.61.19-.96.38.46.73,1.38,1,2.8.04.27.12.58.19.92h1.88c-.19-1.31-.35-2.76-.46-4.41.12.54.42,2,.88,4.41h2.07c-.65-1.88-1-3.11-1.11-3.72.27.35.54.96.81,1.92.19.88.34,1.46.46,1.8h1.23c-.54-1.8-.84-3.69-.88-5.64v-.04c.58,2.8.96,4.68,1.15,5.68h3.03c-.23-1.15-.46-2.42-.73-3.76-.69-3.88-1.15-6.49-1.38-7.75h-3.99ZM26.85,45.42c.27.54.88,1.92,1.84,4.11.27.58.5,1.04.73,1.46-.04-.04-.11-.04-.15-.04-.27,0-.46.08-.65.27-.08.11-.15.19-.19.27-.12-.54-.23-1-.35-1.34-.11-.35-.23-.58-.34-.73-.42-1.73-.69-3.07-.88-3.99h0ZM21.78,53.44c0,.46,0,.58-.04.31h-.19c-.65-.69-1-1.54-.96-2.53.15-1.15.19-2.03.12-2.65.19.35.38,1.15.65,2.38.27,1.23.42,2.07.42,2.49h0ZM25.2,53.98v-.04c.27.46.31,1.04.19,1.73-.12-.88-.19-1.46-.19-1.69h0Z"/>
    <path class="cls-3" d="M32.45,57.05h-.15c-.04-.12-.04-.19-.08-.31h-2.07c.23,1.19.5,2.57.77,4.18.58,2.96,1.19,5.41,1.84,7.37h3.72c-.42-1.07-.73-2.34-.92-3.76-.12-2.3-.27-3.95-.38-4.99.5.69.96,2.11,1.42,4.22.35,1.77.58,3.26.61,4.53h1c-.04-.58-.08-1.15-.12-1.69.12.8.42,1.19.92,1.19.19,0,.42.15.69.5h1.04c-1.04-1.73-1.65-3.76-1.8-6.18-.12-2.34-.23-4.15-.35-5.37h-1.11c.42,2.34.62,3.88.62,4.68,0,.46-.04.54-.12.27l-.08-.08c-.31-1.34-.65-2.99-1-4.87h-3.03c.04.38.08.61.08.73,0,.46-.04.54-.08.23v-.04c-.11-.31-.19-.61-.27-.92h-1.23c.04.15.04.27.08.31h0Z"/>
    <path class="cls-3" d="M29.73,56.74h-1.88c.12.65.27,1.42.46,2.38-.04.11-.08.11-.11.04-.35-.92-.65-1.73-.88-2.42h-3.91c.04.85.15,1.8.38,2.84.27,1.15.38,1.84.38,2.11,0,.38-.27.96-.77,1.69-.19-.08-.42-.12-.61-.08-.19.04-.31.04-.35.04-.04.19-.08.46-.08.77,0,.23.08.81.27,1.69.19.88.27,1.46.27,1.69v.81h2.38c-.19-.5-.31-1.11-.42-1.77-.11-1.38-.27-2.38-.38-2.95.19.27.46,1.19.88,2.69.23.81.38,1.5.5,2.03h4.03l-1.19-7.33c.42.88.73,2.19.92,3.92.08.81.19,1.96.35,3.41h2.61c-.96-2.26-1.73-4.76-2.26-7.52-.19-1.11-.38-2.46-.58-4.03h0ZM26.54,57.66v-.08c.92,1.88,1.65,5.45,2.15,10.67-.96-2.42-1.69-5.95-2.15-10.59h0Z"/>
    <path class="cls-3" d="M44.08,56.74c0,.11,0,.23.04.35-.04,1.11-.08,1.84-.19,2.19-.08-.15-.15-.31-.27-.5-.15-.65-.27-1.34-.38-2.03h-2.26c.27.73.54,1.69.81,2.8.23.84.54,2.11.96,3.84-1-1.73-1.65-3.95-1.92-6.64h-1.77c.5,1.5.96,3.26,1.34,5.26.15.88.5,2.96,1,6.29h1.11c-.12-.88-.27-2.07-.54-3.61l.12.11c.54,1.84,1.04,2.99,1.54,3.49h1s-.04,0-.04-.04c-.19-1.42-.27-2.38-.19-2.88.08.12.15.27.27.5.11.19.35.35.69.38h.04c.35.73.73,1.38,1.11,2.03h1.92c-.27-1.27-.77-2.92-1.5-4.95-1.19-3.34-1.8-5.57-1.8-6.6h-1.07Z"/>
    <path class="cls-3" d="M15.41,45.23h-.69c.08.04.15.08.27.08.23,0,.38-.04.42-.08h0Z"/>
    <path class="cls-3" d="M22.05,68.29c-.04-.08-.12-.15-.15-.23-.11-.31-.34-.46-.69-.46-.27,0-.42.04-.5.08-.04.04-.04.08-.08.08v.54h1.42Z"/>
    <path class="cls-3" d="M22.82,68.76c-.35-.12-.58-.27-.77-.46h-1.42v1.19c.81,5.37,2.11,8.06,3.91,8.06.58,0,.84-.81.77-2.38-.19-1.8-.34-2.99-.38-3.53.04.12.31,1.19.73,3.22.35,1.46.77,2.53,1.31,3.22.19-.08.34-.15.54-.27-.5-2.69-.77-4.22-.77-4.57.15-1.34.23-2.3.23-2.96h.12c.34,1.07.77,2.73,1.27,4.91.54,1.96,1.19,3.49,1.96,4.64.19-.04.34-.15.54-.27,0-.77.08-1.34.27-1.69.19-.35.27-.61.27-.81s-.12-.65-.31-1.34c-.19-.65-.31-1.11-.31-1.34,0-.11.11-.42.31-.84.19-.42.31-1.07.31-1.92.11.5.27,1.31.46,2.34.19.88.54,1.57,1.04,2.03.15-.04.31-.15.5-.27v-1.15c-.08-.5-.27-1.31-.61-2.34-.27-1-.46-1.73-.54-2.19.88,1.88,1.34,2.88,1.42,3.03.65,1.23,1.23,2.11,1.77,2.65.23-.04.42-.15.54-.31-.08-.61-.12-1.04-.15-1.3-.04-.46,0-.85.08-1.15.65.27,1.04.38,1.15.34.12-.23.19-.54.19-.88,0,.08.31.11.96.11.04-1.57.08-2.99.04-4.26h-1v.61c0,.38-.04.61-.08.69-.23-.42-.46-.84-.65-1.31h-3.72c.12.38.27.77.42,1.11h-.12c-.19-.35-.34-.73-.5-1.11h-2.61c.04.27.04.58.08.92l-.15-.92h-4.03c.12.5.15.85.15,1.11,0,.42-.04.54-.12.27-.27-.38-.46-.84-.61-1.38h-2.38c-.04.19-.04.35-.08.46h0ZM31.1,70.37l.08.61-.08-.54v-.08h0Z"/>
    <path class="cls-3" d="M42.54,68.29h-1.11c.04.35.12.65.15,1h-.15c-.27-.31-.5-.65-.69-1h-1.04c.19.23.38.54.61.96.61,1.07,1.11,1.69,1.54,1.88.34-.08.57-.35.69-.84.04-.19.04-.5.04-1,0-.27,0-.58-.04-1h0Z"/>
    <path class="cls-3" d="M44.12,68.56c.42,0,.61-.08.54-.27h-1c.15.19.31.27.46.27h0Z"/>
    <path class="cls-3" d="M74.4,46.11c.46,0,.61-.04.42-.11.15-.19.31-.42.42-.77h-1.65v.23c.11.42.38.65.81.65h0Z"/>
    <path class="cls-3" d="M55.71,57.43l-.08-.04-.19-.65h-3.68c.19.5.35,1.04.54,1.61.27.85.65,2.11,1.15,3.76h-.12c-.81-2.27-1.42-4.03-1.84-5.37h-2.76v.19h-.12c-.04-.08-.04-.15-.08-.19h-2.73c.42,2.42,1.38,5.57,2.8,9.44.27.77.54,1.46.81,2.11h1.46c-.42-1.11-.92-2.53-1.42-4.22-.65-2.34-1.08-3.72-1.23-4.15.42.77.88,2.11,1.46,3.99.73,2.46,1.15,3.91,1.27,4.37h3.42c-.46-.88-.81-1.57-1.04-2.07-.96-2.03-1.46-3.8-1.54-5.26v-.08c.92,2.73,1.84,5.22,2.8,7.41h1.5c-.15-.42-.27-.81-.34-1.19v-.04c.19.42.38.84.58,1.23h4.76c-1.8-4.87-3.22-8.75-4.22-11.55h-1.31c.08.27.12.5.15.69h0ZM56.21,59.01v-.08c.73.88,1.5,2.8,2.3,5.76l-.19.11c-.88-1.88-1.61-3.8-2.11-5.79h0Z"/>
    <path class="cls-3" d="M65.46,56.74h-2.92c.42.88.81,2.15,1.11,3.84.38,2.19.69,3.61.92,4.34l-.27.08-1.8-8.25h-1.11c.19.69.35,1.46.54,2.26.27,1.34.69,3.34,1.23,5.91h-.08c-.73-1.73-1.34-3.68-1.84-5.79-.15-.69-.31-1.5-.46-2.38h-2.92c.65,1.92,1.46,4.11,2.34,6.52.65,1.8,1.23,3.45,1.73,5.03h7.22c-.31-1.69-.65-3.38-1.08-5.07-.88-3.49-1.77-5.64-2.61-6.49h0ZM64.57,57.43c.12.11.42.58.84,1.42.42.81.69,1.42.81,1.84h-.19c-.96.08-1.46-.31-1.5-1.11.12-1.04.15-1.73.04-2.07v-.08h0ZM67.11,65.99l-.12-.12c-.38-.73-.65-1.5-.77-2.3.23.35.54,1.15.88,2.42h0Z"/>
    <path class="cls-3" d="M56.09,68.29h-1.5c.5,1.19,1.04,2.3,1.54,3.34-.73-1.3-1.3-2.42-1.77-3.34h-3.42s.04.08.04.11h-.08s-.04-.08-.04-.11h-1.46c1.38,3.42,2.46,5.14,3.19,5.14.27,0,.38-.04.42-.08-.04-.08-.04-.11,0-.11.04-.42-.04-1.04-.15-1.84.23.77.54,1.57.92,2.42.57,1.27,1.07,1.92,1.46,1.92.27,0,.42-.04.54-.11.08-.12.11-.15.15-.15.12.27.42.96.85,2.07.46,1.04.84,1.53,1.19,1.53.38,0,.54-.04.42-.15.04-.04.04-.19.04-.54,0-.12-.23-.77-.69-1.88-.5-1.19-.77-1.84-.84-2.03.08.04.35.34.84.88.35.42.69.65,1.04.65.88,0,1.46.46,1.8,1.42.34.92.77,1.38,1.19,1.38.46,0,.58-.04.31-.12.04-.04.08-.04.12-.08.04-.04.08-.19.08-.46s-.04-.54-.11-.84c-.12-.35-.15-.54-.15-.58.35.19.84.69,1.46,1.46.42.58.92.88,1.5.88.42,0,.61-.08.57-.19.04-.27.08-.58.08-.96,0-.27-.08-.69-.19-1.3-.19-.65-.31-1.11-.35-1.38l.92,1.42c.5.77.96,1.15,1.38,1.15.46,0,.69-.08.73-.23.04-.27.08-.61.08-1.07,0-.27-.08-.73-.23-1.46-.23-.88-.35-1.46-.38-1.69.11.15.27.35.46.58.12.19.27.27.42.27.42,0,.58-.11.46-.31,0-.5.08-1.19.27-2.07.19-.88.27-1.42.27-1.57-.11-.65-.19-1.31-.31-1.96h-7.22c1.11,3.45,1.96,6.41,2.5,8.87-1.23-3.26-2.34-6.22-3.34-8.87h-4.76c1.57,3.45,2.38,5.45,2.38,6.03,0,.42-.04.54-.08.35l-.12-.08c-.96-2.27-1.46-3.53-1.54-3.72-.34-.92-.65-1.77-.88-2.57h0ZM52.64,70.48l-.19-.96c.12,0,.19.31.23.96h-.04ZM67.91,70.56h-.08l-.38-1.34c.12.15.27.61.46,1.34h0ZM66.57,74.32c.11.27.31.88.54,1.88l-.15-.08-.84-1.34c.23-.11.38-.27.46-.46h0Z"/>
    <path class="cls-3" d="M48.45,68.29h-1.92c.54.96,1.11,1.8,1.69,2.57.23-.04.34-.12.38-.23.04-.04.08-.04.12,0v-.38c0-.5-.08-1.15-.27-1.96h0Z"/>
  </g>
  <g id="Layer_4" data-name="Layer 4">
    <path class="cls-2" d="M50.45,12.99c-1.8-2.95-3.92-4.38-6.33-4.22-1.77.35-3.92,3.07-6.49,8.21-1.34,2.8-3.22,6.91-5.57,12.4-8.86,1.42-14.58,2.42-17.12,2.96-3.91.88-5.87,2.38-5.87,4.53,0,2.38,1.57,5.37,4.72,9.02,1.5,1.76,3.19,3.57,5.07,5.45,1.92,1.92,3.3,3.07,4.11,3.49-.27.8-.54,1.84-.77,3.07-.19,1.04-.46,2.57-.84,4.68,0,1.04-.12,2.57-.35,4.64-.27,2.07-.38,3.53-.38,4.37,0,1.8.15,3.22.46,4.22.81,2.5,2.42,3.76,4.87,3.76,3.72,0,7.98-1.65,12.78-4.91,3.57-2.88,5.72-4.57,6.45-5.1,1.31,1.92,3.8,3.99,7.52,6.18,4.34,2.57,8.14,3.84,11.36,3.84,2.69,0,4.45-1.23,5.33-3.65.38-1.07.58-2.65.58-4.76,0-2.49-.5-5.3-1.54-8.4-.34-1.07-1.3-3.49-2.8-7.22.12.08.27.15.5.23,1.57-1.11,4.91-4.37,10.05-9.86,5.41-5.72,8.1-9.02,8.1-9.9,0-1.77-1.8-3.03-5.41-3.8-1.84-.38-8.44-1.23-19.76-2.53-.5-1.42-2.38-4.87-5.6-10.4-1.11-2.65-2.11-4.72-3.07-6.29h0ZM22.16,32.06c4.57-.92,7.83-1.61,9.79-2.03.04.04.04.08.04.11.04.08.19.12.46.12s.46-.04.5-.08c0-.04,0-.11.04-.15.04-.08.08-.15.12-.27.69-.19,1.04-.27,1.04-.31,0-.27-.04-.42-.08-.42l-.11.04c-.19.04-.42.08-.61.12,1.88-4.87,3.57-8.71,5.1-11.51,2.88-5.22,5.49-7.83,7.87-7.83,1.07,0,3.3,3.53,6.68,10.59,2.69,5.6,4.45,8.98,5.26,10.13v.27c.08,0,.15,0,.27.04.08.08.15.11.19.11.35,0,.5-.04.46-.11,6.33.34,11.78.92,16.43,1.8,5.1,1,7.64,2.07,7.64,3.22,0,1-2.69,4.3-8.02,9.94-3.3,3.49-6.49,6.72-9.59,9.67-.15-.42-.31-.84-.5-1.27-.34.11-.5.38-.5.84,0,.42.73,2.42,2.19,5.99,1.46,4.03,2.19,7.37,2.19,10.02,0,.04-.12,1.27-.35,3.68-.69,2.38-2.19,3.57-4.53,3.57-2.65,0-6.56-1.57-11.71-4.76-4.6-3.19-6.95-4.76-6.99-4.76-.19,0-.31.04-.38.08-.04-.04-.12-.04-.15-.08-1,.54-3.61,2.34-7.87,5.41-4.38,2.8-7.98,4.18-10.82,4.18-3.03,0-4.57-2.3-4.57-6.91,0-3.26.38-6.6,1.15-10.02.65-3.03,1.04-5.18,1.15-6.49q.11,0,0-.04c.11-.15.19-.35.23-.54-.08-.08-.15-.15-.23-.23-.04-.12-.12-.23-.15-.27-.04-.04-.15-.08-.34-.15-3.65-3.38-6.33-6.03-8.14-7.94-3.42-3.69-5.14-6.68-5.14-8.94,0-1.61,3.99-3.22,12.01-4.84h0Z"/>
  </g>
</svg>