<?xml version="1.0" encoding="UTF-8"?>
<svg id="Layer_2" data-name="Layer 2" xmlns="http://www.w3.org/2000/svg" xmlns:xlink="http://www.w3.org/1999/xlink" viewBox="0 0 95.73 95.15">
  <defs>
    <style>
      .cls-1 {
        fill: url(#linear-gradient);
      }

      .cls-1, .cls-2, .cls-3, .cls-4 {
        stroke-width: 0px;
      }

      .cls-3 {
        fill: #86a741;
      }

      .cls-4 {
        fill: #999;
      }
    </style>
    <linearGradient id="linear-gradient" x1="45.53" y1="9.38" x2="45.53" y2="124.29" gradientUnits="userSpaceOnUse">
      <stop offset=".37" stop-color="#fff"/>
      <stop offset="1" stop-color="#c6c6c6"/>
    </linearGradient>
  </defs>
  <g id="Layer_1-2" data-name="Layer 1">
    <path class="cls-4" d="M50.05,5.76c-19.73-.23-26.98,11.44-21.76,34.96.35,1.73.81,3.57,1.34,5.45C9.25,50.7,1.73,64.56,7.14,87.7c1.57,5.03,4.87,7.29,9.82,6.72,26.1,1.5,50.62.69,73.53-2.38,3.95-2.23,5.64-5.56,5.14-9.98-1.19-15.54-8.71-26.48-22.61-32.89.65-2.96,1.15-5.79,1.57-8.44,3.72-25.68-4.45-37.34-24.56-34.96h0Z"/>
  </g>
  <g id="Layer_2-2" data-name="Layer 2">
    <path class="cls-4" d="M44.98.31h-.04c-10.78-.11-17.88,3.26-21.3,10.13-3.41,6.72-3.26,16.85.46,30.4C3.72,45.48-3.72,59.45,1.73,82.75c1.65,5.26,5.03,7.56,10.21,6.99,26.1,1.5,50.62.69,73.57-2.38.04,0,.08,0,.12-.04,4.11-2.34,5.87-5.8,5.33-10.36-1.19-15.54-8.67-26.56-22.53-33.04,3.38-15.77,3.15-27.25-.73-34.5C63.82,2,56.23-1.03,44.98.31h0ZM44.98,1.08h.04c10.9-1.27,18.23,1.61,22.03,8.71,3.76,7.18,3.95,18.58.54,34.23-.04.08,0,.15.04.27.04.08.12.12.19.15,13.78,6.33,21.22,17.19,22.37,32.58.5,4.22-1.11,7.41-4.84,9.56-22.91,3.07-47.36,3.88-73.42,2.38h-.08c-4.76.54-7.91-1.61-9.4-6.45-5.33-22.87,2.03-36.54,22.18-41.03.08-.04.15-.08.19-.11.04-.04.08-.11.12-.15v-.19c-3.8-13.47-3.99-23.56-.61-30.24C27.67,4.19,34.58.96,44.98,1.08h0Z"/>
    <path class="cls-1" d="M45.02,1.08h-.04c-10.4-.11-17.31,3.11-20.65,9.71-3.38,6.68-3.19,16.77.61,30.24v.19s-.08.11-.12.15c-.04.04-.11.08-.19.11C4.49,45.98-2.88,59.64,2.46,82.52c1.5,4.84,4.64,6.99,9.4,6.45h.08c26.06,1.5,50.51.69,73.42-2.38,3.72-2.15,5.33-5.33,4.84-9.56-1.15-15.39-8.6-26.25-22.37-32.58-.08-.04-.15-.08-.19-.15-.04-.11-.08-.19-.04-.27,3.42-15.66,3.22-27.06-.54-34.23C63.25,2.69,55.92-.19,45.02,1.08h0Z"/>
  </g>
  <g id="Layer_3" data-name="Layer 3">
    <path class="cls-3" d="M60.37,11.25c-.77-.12-1.34,0-1.69.27-.08-.85-.19-1.46-.31-1.8-.04,0-.04-.04,0-.08-.04-.04-.15-.04-.42-.04-.73,0-1.61.92-2.65,2.8-.54,1-1.15,2.27-1.8,3.8.35-1.31.65-2.38.84-3.22.42-1.57.65-2.73.65-3.45,0-.27-.12-.54-.31-.88-.23-.38-.5-.58-.77-.58-.34,0-.88.69-1.69,2.03h-.12c.27-1.34-.08-2.03-.96-2.03-.81,0-1.38.58-1.73,1.77,0-.5-.08-.88-.19-1.23-.27-.61-.84-.73-1.69-.38-.04-.96-.42-1.77-1.07-2.42-.77-.77-1.42-.34-1.96,1.23-.15-.23-.27-.54-.38-.88-.12-.23-.35-.35-.69-.35-.65,0-1.3.5-1.88,1.54-.42.73-.69,1.42-.84,2.07-.08-.58-.19-1.11-.31-1.57-.23-.88-.54-1.3-.92-1.3-.58,0-1.11.34-1.54,1-.23.35-.46.81-.69,1.31-.08-.08-.19-.27-.35-.61-.19-.27-.38-.42-.61-.42-.35,0-.77.27-1.19.81-.19.27-.42.61-.65,1-.11-.08-.23-.19-.35-.35-.12-.11-.35-.15-.61-.15-1.57,0-2.96,2.76-4.22,8.33-.11.5-.19.96-.31,1.46h3.76c1.04-4.34,2.19-7.6,3.45-9.75.08.27.12.81.12,1.53,0,.38-.65,3.11-1.92,8.21h3.11c.57-2.26.84-4.11.84-5.53,0-.88-.31-1.11-.96-.77-.04.31-.04.23-.04-.19s.27-1.27.85-2.53c.54-1.27.92-2,1.19-2.19.19.73.27,1.38.27,2,0,1.61-.61,4.68-1.84,9.21h1.73c.31-1.57.58-2.92.81-3.99.92-4.18,1.96-6.83,3.11-7.98-.15,3.34-1.04,7.33-2.61,11.97h.84c1.65-5.87,3.19-9.98,4.61-12.24,0,.04.04.19.15.46.08.19.12.42.12.69,0,1.11-.96,4.07-2.84,8.94-.27.73-.54,1.42-.81,2.15h2c.15-.54.31-1.07.5-1.61,1.04-3.26,2-5.95,2.88-8.06-.04,2.27-.69,5.07-1.96,8.33-.15.42-.31.85-.5,1.34h1.88c1.69-4.95,2.76-8.14,3.26-9.56l.04-.08s.08.19.08.46c0,.81-.81,3.88-2.38,9.17h1.38c.31-1,.81-2.38,1.5-4.18,1.19-2.92,1.96-4.68,2.34-5.3-.73,3.38-1.46,6.52-2.19,9.48h1.73c.27-.81.61-1.65,1-2.53.92-2,1.96-3.76,3.07-5.33v.04c-1.5,2.69-2.65,5.3-3.42,7.83h1.11c.31-1.34.58-2.11.77-2.26-.04.11-.27.84-.73,2.26h1.5c.88-2.61,1.76-4.72,2.69-6.33l.08.08v.42c0,1.04-.5,2.99-1.54,5.83h2.3c.04-.46.15-1.11.42-2,.27-1,.42-1.5.42-1.53,0-.31-.08-.5-.19-.58-.04,0-.23-.04-.65-.11.23-1.07.27-2.23.08-3.42h0ZM33.51,10.17v.08c-.04,1.19-.27,2.57-.65,4.14-.38,1.57-.85,2.92-1.34,3.95.19-1.8.35-3.19.46-4.15.23-1.73.73-3.07,1.54-4.03h0Z"/>
    <path class="cls-3" d="M50.08,18.88h-1.38c-.65,2.19-1.46,4.72-2.42,7.68-.65,2.03-1.31,3.95-1.88,5.76h.73c.88-2.76,1.54-4.72,2-5.91.08.19.34.27.77.27-.65,1.84-1.31,3.72-2.03,5.64h1.15c1.8-4.68,2.73-8.64,2.73-11.86,0-.31.12-.85.35-1.57h0Z"/>
    <path class="cls-3" d="M47.7,18.88h-1.88c-.73,1.77-1.69,4.11-2.92,7.06l-.08.04c.58-2.15,1.27-4.53,2.07-7.1h-2c-.73,1.77-1.46,3.57-2.19,5.37-.04-.04-.08-.04-.19-.08-.08-.04-.11-.23-.11-.5.42-1.73.84-3.3,1.27-4.8h-.84c-.69,2.03-1.53,4.18-2.49,6.45.42-2.49.84-4.64,1.19-6.45h-1.73c-.04.15-.12.31-.15.46-.69,2.49-1.5,5.26-2.38,8.29-.04.35-.04.27-.04-.15,0-.54.5-2.53,1.54-6.03.27-.92.54-1.77.73-2.57h-3.11c-.08.35-.15.69-.27,1.07-1.42,5.57-2.5,9.71-3.3,12.36h2.38c.12-.38.19-.65.27-.81-.04.27-.04.54-.04.81h2.65c.04-.11.08-.27.11-.38v.04c-.04.12-.04.23-.08.35h1.15c.15-.54.35-1.11.54-1.73.88-2.53,1.5-4.34,1.84-5.37-.5,2.57-1.07,4.95-1.77,7.1h2.84c.11-.35.27-.69.38-1-.08.27-.15.61-.27,1h2.19c.42-1.15.81-2.34,1.23-3.53,1.34-3.88,2.49-7.18,3.45-9.9h0ZM42.56,22.19v.08c-.11,1.15-.46,2.57-1.04,4.3-.96,2.76-1.42,4.22-1.46,4.34-.04.04-.08.04-.11-.08.23-1.07.65-2.53,1.23-4.41.65-2.03,1.11-3.42,1.38-4.22h0ZM43.52,27.33c.65-1.77,1.04-2.92,1.23-3.42v.08c-.81,3.19-1.61,5.53-2.38,7.1l-.04.08c.19-.88.58-2.15,1.19-3.84h0ZM37.46,24.11v.08c-.38,1.92-.58,2.92-.61,2.96-.27,1.27-.61,2.3-1.04,3.11h-.08c.35-1.88.92-3.95,1.73-6.14h0ZM34.08,24.3c-.19.5-.46,1.27-.84,2.3h-.08c.15-1.11.58-2.61,1.23-4.41.08.5-.04,1.23-.31,2.11h0Z"/>
    <path class="cls-3" d="M55.23,18.96h-.04s0-.04.04-.08h-1.11c-.34,1.19-.65,2.34-.84,3.49-.12,0-.35-.12-.69-.31.19-1.04.5-2.07.88-3.19h-1.73c-.96,3.72-1.88,7.14-2.84,10.21-.35,1.11-.69,2.19-1.04,3.22h.92c.04-.15.08-.27.12-.38.73-2.07,1.5-3.53,2.26-4.37-.38,1.5-.92,3.07-1.61,4.76h.92c.73-1.77,1.3-3.22,1.69-4.37v.08c0,.27.08.69.19,1.3.15.58.23,1,.23,1.19,0,.23-.15.84-.46,1.8h.84c.19-.42.42-.85.62-1.27-.08.19-.23.58-.5,1.23v.04h3.03c2.57-6.52,4.45-11.02,5.57-13.43h-1.31s-.04.08-.08.12v-.12h-2.3c-.96,2.53-2.3,5.8-4.11,9.79h-.11c1.07-3.57,1.88-6.29,2.46-8.17.19-.58.35-1.11.54-1.61h-1.5s-.04.04-.04.08h0ZM58.68,19.88s.12-.23.27-.61c.08-.19.15-.31.19-.31,0,.11-.12.42-.31.92h-.15ZM55.61,29.25h-.12c-.04.27-.08.15-.08-.31,0-.19.35-1.19,1-3.07.73-2,1.3-3.49,1.76-4.49-.27.81-.65,2.07-1.19,3.84-.5,1.61-.96,2.95-1.38,4.03h0Z"/>
    <path class="cls-3" d="M62.14,17.92v.04c-.04.31-.12.61-.19.92h.92c.19-.65.31-1.11.31-1.31,0-.58-.08-1-.27-1.27h.08s-.19-.04-.46-.04c-.58,0-1.04.35-1.42,1.07-.19.35-.46.88-.73,1.53h1.31c.19-.35.34-.69.46-.96h0Z"/>
    <path class="cls-3" d="M62.86,18.88h-.92c-.88,3.84-2.26,8.33-4.14,13.43h1.57c.42-1.27.96-2.73,1.61-4.45,1.04-2.72,1.54-5.26,1.54-7.6,0-.23.12-.69.31-1.34t.04-.04h0Z"/>
    <path class="cls-3" d="M64.67,28.67v-.27c-.04-.08-.19-.12-.46-.12s-.77.96-1.57,2.92c-.12.35-.27.69-.46,1.11h1.46c.42-1.5.77-2.69,1.04-3.65h0Z"/>
    <path class="cls-3" d="M64.13,24.57c-.04-.08-.19-.12-.46-.12-.61,0-1.57,1.57-2.88,4.76-.12.27-.5,1.31-1.15,3.11h2.26c.58-1.73,1.34-3.88,2.3-6.52v-1.15l-.08-.08h0Z"/>
    <path class="cls-3" d="M59.37,32.32h-1.57c-.58,1.61-1.23,3.3-1.92,5.03-.88,2.26-2.03,5.07-3.38,8.44h.65c.58-1.3,1.3-2.99,2.26-5.03,0,.69-.35,1.69-1,2.95-.42.84-.77,1.54-1.04,2.07h1.65c.27-.34.5-.58.77-.69-.04.23-.12.46-.19.69h1.15l.27-.77c0,.23-.04.5-.08.77h3.61c-.08-.19-.27-.34-.54-.38-.27-.08-.61-.08-1,0,1.19-2.11,2.3-4.83,3.3-8.21.5-1.88.92-3.49,1.3-4.87h-1.46c-.35.88-.73,1.92-1.19,3.11l-.08-.04c.23-.77.58-1.8,1-3.07h-2.26c-.38,1.04-.88,2.38-1.46,3.95h-.12c.19-.77.65-2.07,1.31-3.95h0ZM57.88,41.26h-.08c.08-.88.38-2.07.92-3.57.08-.19.54-1.31,1.38-3.34-.19.88-.58,2.03-1.07,3.45-.61,1.8-1,2.96-1.15,3.45h0Z"/>
    <path class="cls-3" d="M50.47,32.32h-.92c-.61,1.5-1.34,3.03-2.19,4.64.69-2.3,1.15-3.84,1.42-4.64h-.92c-1.61,4.8-3.38,9.29-5.33,13.47h2.26c.46-1.61,1.07-3.3,1.84-5.1,1.57-3.3,2.88-6.1,3.84-8.37h0Z"/>
    <path class="cls-3" d="M47.01,32.32h-1.15c-.73,1.8-1.46,3.65-2.26,5.49h-.15c.61-2.07,1.19-3.91,1.69-5.49h-.73c-1.96,5.79-3.65,10.28-5.07,13.47h2.46c.88-2.88,2.38-6.75,4.41-11.55.27-.65.54-1.31.81-1.92h0Z"/>
    <path class="cls-3" d="M52.96,32.32h-.84c-.54,1.61-1.5,4.22-2.84,7.87-.77,2.03-1.5,3.88-2.15,5.6h.65c1.73-5.33,3.45-9.82,5.18-13.47h0Z"/>
    <path class="cls-3" d="M52.92,34.08c.19.11.27.27.27.46,0,.73-.92,3.11-2.76,7.14-.73,1.57-1.34,2.92-1.88,4.11h2.42c1.04-2.92,2.34-6.37,3.91-10.4.42-1.07.81-2.11,1.23-3.07h-3.03c-.27.58-.38,1-.38,1.27,0,.23.08.38.23.5h0ZM54.27,35.77s0,.04-.04.08c.19-.58.38-.92.5-1.04v.04c-.04.11-.19.42-.46.92h0Z"/>
    <path class="cls-3" d="M60.6,45.98c0-.08,0-.15-.04-.19h-3.61c-.11.35-.23.69-.42,1.11h-.19l.42-1.11h-1.15c-.42,1.42-.96,2.92-1.61,4.49h5.87c.5-2.03.73-3.45.73-4.3h0Z"/>
    <path class="cls-3" d="M47.78,45.79h-.65c-.65,1.61-1.23,3.11-1.8,4.49h1.96c.12-.15.15-.19.15-.11-.04.04-.04.08-.04.11h2.07c.38-1.34.88-2.84,1.5-4.49h-2.42c-.69,1.38-1.27,2.46-1.69,3.26h-.11c.34-1.11.69-2.23,1.04-3.26h0Z"/>
    <path class="cls-3" d="M44.79,45.79h-2.26c-.5,1.04-1,2.03-1.5,2.99h-.04c.19-.84.46-1.84.81-2.99h-2.46c-.5,1.11-1,2.07-1.42,2.88h-.15c.27-.92.54-1.88.88-2.88h-1.07s-.04.04-.04.08c-.19.73-.38,1.31-.58,1.73l-.15.11c-.04-.08-.08-.15-.11-.19-.04-.11-.08-.31-.08-.57-.04-.27-.04-.61.04-.96.04-.08.04-.15.08-.19h-1.77c-.27.42-.84,1.23-1.65,2.49-.04-.04-.23-.38-.5-.96-.12-.27-.35-.38-.61-.38-.42,0-.81.31-1.15.96-.19.31-.38.65-.58,1.04.04-.96.04-1.65,0-2.15-.04-.46-.19-.81-.38-1h-1.77c-.61.5-1.3,1.5-2.07,3.03h-.11c.19-.5.27-1.04.23-1.54-.04-.73-.31-1.15-.81-1.34-.92.5-1.57,1.11-2,1.92-.23.46-.54,1.15-.96,2.03l-.04.08s-.12-.27-.23-.61c-.04-.19-.23-.31-.5-.31-.42,0-.77.27-1.07.81-.08.11-.15.27-.19.42h2.99c.65-1.46,1.23-2.49,1.73-3.07v.08c-.04.5-.27,1.5-.69,2.99h6.37c.42-.84.81-1.57,1.19-2.19v.08c.04.65-.04,1.34-.19,2.11h1.77c.19-.23.38-.46.58-.65.08.19.15.38.19.65h4.41c-.08-.42-.11-.81-.11-1.15,0-.12.23-.5.69-1.23.46-.73.69-1.15.73-1.19v.04c-.04.19-.15.73-.34,1.61-.15.65-.23,1.11-.23,1.38,0,.04.19.23.54.54h3.65c.19-1.42.5-2.92.96-4.49h0ZM43.71,46.52v.04c-.11.19-.19.61-.23,1.19-.12.46-.42.69-.96.69.19-.27.46-.65.77-1.15l.42-.77h0ZM35.73,47.4c.04.11.08.31.08.58,0,.38-.15.81-.42,1.27,0-.04-.12-.15-.35-.38-.23-.23-.42-.38-.54-.42.38-.77.77-1.19,1.11-1.27,0,.04.04.11.11.23h0Z"/>
    <path class="cls-3" d="M55.04,45.79h-1.65c-.35.69-.54,1.07-.58,1.11h-.11c.11-.35.27-.69.46-1.11h-.65c-.58,1.38-1.19,2.88-1.84,4.49h2c.84-2.15,1.65-3.65,2.38-4.49h0Z"/>
    <path class="cls-3" d="M47.28,50.28h-1.96c-.58,1.38-1.11,2.61-1.61,3.72-.11-1.15-.08-2.38.11-3.72h-3.65c.08.08.19.15.31.27-.19.58-.5,1.19-1,1.92l-.08.08c-.04-.31-.19-1-.46-2.07-.04-.08-.04-.15-.04-.19h-4.41v.38c0,.5-.58,1.84-1.77,4.07h2.8c.38-.88.81-1.73,1.27-2.46,0,.81-.04,1.61-.15,2.46h.38c.15-2.19.58-3.61,1.31-4.34v.08c.15,1.27.11,2.69-.15,4.26h3.15c.23-1,.38-1.88.5-2.65v.04c-.04.81-.15,1.69-.27,2.61h4.53c.34-.54.69-1.07,1.04-1.57,0,.11,0,.27.04.46,0,.31-.04.69-.12,1.11h1.23c.19-1.11.61-2.61,1.19-4.45h-2.07c-.08.11-.19.27-.31.54-.19.38-.42.69-.61.92h-.11c.46-.77.77-1.27.92-1.46h0Z"/>
    <path class="cls-3" d="M52.66,50.28h-2c-.58,1.42-1.15,2.88-1.8,4.45h2.23c.27-1.04.73-2.3,1.3-3.8.08-.23.15-.46.27-.65h0Z"/>
    <path class="cls-3" d="M64.94,49.24s-.04-.04-.04-.08c-.04-.08-.23-.11-.5-.11-.42,0-.69.11-.88.31-.04.08-.15.27-.27.61-.04-.35-.08-.69-.12-.96-.08-.5-.31-.77-.73-.77-.46.58-.92,1.23-1.38,2.03h3.92v-1.04h0Z"/>
    <path class="cls-3" d="M61.94,50.78v.08c-.27,1.19-.65,2.49-1.15,3.88h1.54c.61-1.5,1.11-2.69,1.53-3.53-.31,1.27-.61,2.42-.96,3.53h1c.08-.27.15-.58.27-.92.42-1.34.65-2.19.77-2.61v-.92h-3.92c-.77,1.19-1.54,2.69-2.3,4.45h1.04c.88-1.88,1.61-3.22,2.19-3.95h0Z"/>
    <path class="cls-3" d="M67.32,51.43c-.12-.08-.27-.12-.54-.12-.77,0-1.46.69-2.07,2.03-.19.38-.34.84-.54,1.38h1.5c.27-.58.54-1.19.84-1.84-.11.65-.19,1.27-.31,1.84h2.11c.19-.5.38-.84.5-1.11-.04.35-.08.73-.12,1.11h1c.04-.69.08-1.23.08-1.57,0-.58-.04-.96-.15-1.23l.04-.04s-.19-.08-.46-.08c-.38,0-.73.27-1.07.77-.15.27-.35.58-.54.96-.04-.31-.08-1-.08-2.03l-.19-.08h0Z"/>
    <path class="cls-3" d="M59.87,50.28h-5.87c-.58,1.42-1.27,2.92-2,4.45h1.19c.23-.46.46-.92.65-1.38-.12.27-.23.73-.38,1.38h5.18c.5-1.73.92-3.19,1.23-4.45h0Z"/>
    <path class="cls-3" d="M20.38,49.63c0-.38-.42-.58-1.23-.58-.46,0-.96.42-1.5,1.23h1.46s0-.04.04-.08v.08h1.19c.04-.31.08-.54.04-.65h0Z"/>
    <path class="cls-3" d="M23.56,50.28h-2.99c-.12.15-.19.31-.31.5.04-.19.04-.38.08-.5h-1.19c-.19.61-.61,2.11-1.19,4.45h2c.46-1.34.96-2.57,1.46-3.76v.08c-.19,1.11-.46,2.34-.84,3.68h1.31c.15-.42.31-.84.46-1.3.42-1.23.84-2.27,1.23-3.15h0Z"/>
    <path class="cls-3" d="M19.11,50.28h-1.46c-.08.11-.15.27-.27.42-.5.84-.84,1.54-.96,2.11-1.31-.23-2.53.42-3.65,1.92h2.07c.11-.27.27-.5.46-.69,0,.19,0,.42-.04.69h1.42c.81-2.11,1.61-3.57,2.42-4.45h0Z"/>
    <path class="cls-3" d="M30.97,50.28h-6.37c-.19.61-.42,1.3-.65,2.11-.27.96-.5,1.73-.69,2.34h3.99c.11-.27.23-.5.35-.69l.08-.12c.04.27.04.54,0,.81h1.42c.12-.31.19-.58.31-.84.54-1.38,1.07-2.57,1.57-3.61h0Z"/>
    <path class="cls-3" d="M33.74,50.28h-1.77c-.27,1.11-.73,2.38-1.46,3.8-.04.08-.15.31-.35.65h1.27c.04-.11.04-.19.08-.31.58-1.73,1.31-3.11,2.23-4.15h0Z"/>
    <path class="cls-3" d="M35.54,54.73h-2.8c-.65,1.23-1.5,2.73-2.49,4.49h1.3c.04-.08.11-.15.15-.19-.04.04-.04.12-.08.19h2.38c.42-1.65.96-3.15,1.54-4.49h0Z"/>
    <path class="cls-3" d="M37.04,54.73h-.38c-.19,1.42-.46,2.92-.88,4.49h.92c.11-.84.23-2.3.34-4.41v-.08h0Z"/>
    <path class="cls-3" d="M31.43,54.73h-1.27c-.5.81-1.38,2.3-2.73,4.49h2.65c.54-1.92,1-3.42,1.34-4.49h0Z"/>
    <path class="cls-3" d="M29.09,54.73h-1.42c-.08,1.5-.61,2.99-1.61,4.49h1.3c.65-1.8,1.23-3.3,1.73-4.49h0Z"/>
    <path class="cls-3" d="M38.19,54.73c-.04.12-.04.27-.08.42-.27,1.42-.69,2.8-1.19,4.07h3.19c.5-1.69.92-3.19,1.23-4.49h-3.15Z"/>
    <path class="cls-3" d="M16.69,54.73h-1.42c-.19,1.11-.61,2.61-1.31,4.49h1.27c.46-1.73.96-3.22,1.46-4.49h0Z"/>
    <path class="cls-3" d="M21.88,54.73h-1.31c-.19.5-.34,1.04-.54,1.61-.35,1-.69,1.96-1.04,2.88h1.73c.19-1.23.58-2.73,1.15-4.49h0Z"/>
    <path class="cls-3" d="M19.96,54.73h-2c-.31,1.27-.69,2.76-1.11,4.49h1.69c.42-1.57.92-3.07,1.42-4.49h0Z"/>
    <path class="cls-3" d="M14.85,54.73h-2.07c-.81,1.07-1.61,2.57-2.34,4.49h3.15c.08-.77.23-1.57.42-2.38.23-.88.5-1.57.84-2.11h0Z"/>
    <path class="cls-3" d="M22.76,56.57c0,.23.11.54.34.92.23.38.35.65.35.84,0,.27-.04.58-.15.88h1.73c.19-.35.38-.73.58-1.11.65-1.38,1.23-2.49,1.65-3.38h-3.99c-.35,1.11-.5,1.73-.5,1.84h0Z"/>
    <path class="cls-3" d="M69.7,54.73h-1c-.19,1.31-.54,2.8-1.04,4.49h1.15c.27-.65.54-1.15.77-1.57,0,.54,0,1.07-.04,1.57h1.11c.04-.73.08-1.34.08-1.8,0-.84-.42-1.27-1.23-1.3.08-.5.15-.96.19-1.38h0Z"/>
    <path class="cls-3" d="M68.32,54.73h-2.11c-.35,1.65-.65,3.15-1,4.49h1.3c.77-2,1.38-3.49,1.8-4.49h0Z"/>
    <path class="cls-3" d="M59.76,54.73h-1.04s-.04.12-.08.15l-.08.08c.04-.08.04-.15.08-.23h-5.18c-.27.96-.61,2.27-1.04,3.95-.04.19-.12.34-.15.54h2.23c.27-.54.5-1.07.73-1.57v.04c-.12.42-.23.92-.38,1.53h2.96c.19-.46.42-.96.65-1.53.46-1.11.88-2.07,1.3-2.96h0Z"/>
    <path class="cls-3" d="M65.67,54.73h-1.5c-.19.5-.42,1.04-.61,1.69l-.12.08c.08-.42.23-1,.46-1.77h-1c-.5,1.65-1.04,3.15-1.61,4.49h2.26c.5-1.11,1.23-2.61,2.11-4.49h0Z"/>
    <path class="cls-3" d="M62.33,54.73h-1.54c-.5,1.42-1.04,2.92-1.69,4.49h1.46c.65-1.73,1.27-3.22,1.77-4.49h0Z"/>
    <path class="cls-3" d="M53.19,54.73h-1.19c-.42.81-.84,1.65-1.3,2.53-.04.27-.08.19-.08-.23,0-.5.15-1.27.46-2.3h-2.23c-.23.58-.46,1.19-.73,1.77-.04.35-.04.27-.04-.19,0-.42.08-.92.19-1.57h-1.23c-.19,1.07-.57,2.57-1.23,4.49h2.76c.04-.11.08-.19.12-.31.23-.65.46-1.11.65-1.46v.04l-.46,1.73h2.03c.12-.31.23-.61.38-.92.69-1.23,1.31-2.42,1.88-3.57h0Z"/>
    <path class="cls-3" d="M46.09,54.73h-4.53c-.23,1.38-.57,2.88-1,4.49h3.26c.69-1.65,1.46-3.15,2.27-4.49h0ZM43.71,55.65v.11c-.27.73-.5,1.15-.69,1.34.15-.73.38-1.19.69-1.46h0Z"/>
    <path class="cls-3" d="M32.74,18.88h-3.76c-.5,2.3-.84,4.64-1.11,7.06,0,1.11.04,1.8.08,2.07.27,1.04.84,1.38,1.73,1.04-.12.73.04,1.8.38,3.26h.46c-.04-.11-.04-.27-.04-.46.65-5.07,1.42-9.4,2.26-12.97h0ZM29.32,21.5c0-.5.08-1,.27-1.54v.08c-.08.27-.15.73-.27,1.46h0ZM29.09,22.65l.04-.11c0,.65.04,1.23.08,1.73l.46.19c.35-.19.58-.58.69-1.19.11-.61.19-.96.27-1.07v.08c-.23,2.38-.73,4.3-1.53,5.76h-.15l-.04-2.11c0-1.19.08-2.3.19-3.26h0Z"/>
    <path class="cls-3" d="M37.27,32.32h-1.15c-.27,1.11-.61,2.76-.96,4.99-.42,2.19-1,3.91-1.73,5.1.12-1.42.5-3.19,1.08-5.22.27-.96.77-2.57,1.57-4.87h-2.65c-.19,2.34-.31,4.22-.31,5.56l-1.15,6.41c0,.58.23.92.73,1.11.27,0,.46-.08.54-.19.04-.12.11-.23.19-.31.04.08.08.38.08.88h1.34c.23-.23.42-.58.61-1,.35-.96.58-1.61.69-1.92-.15.8-.54,1.73-1.15,2.8-.04.04-.04.08-.04.11h1.77c.19-.61.58-1.11,1.19-1.53v.08c-.04.12-.15.61-.35,1.46h1.07c1.15-3.8,2.61-8.29,4.37-13.47h-2.19c-.35,1.19-.73,2.8-1.19,4.83-.65,2.42-1.42,4.41-2.3,6.03h-.15c.81-2.65,1.46-4.64,1.88-6.06.61-1.96,1.15-3.53,1.65-4.8h-2.84c-.42,1.38-.92,2.65-1.46,3.84h-.11c.19-1.04.5-2.34.96-3.84h0ZM37.96,35.35c-.08.96-.46,2.27-1.15,3.84-.58,1.27-1.19,2.46-1.84,3.49.19-.88.65-2.19,1.38-3.84.81-1.77,1.34-2.95,1.61-3.61v.11h0Z"/>
    <path class="cls-3" d="M30.67,32.82c-.08-.11-.12-.31-.15-.5h-.46v.08c.42,1.65.61,2.84.61,3.49,0,.04,0,.11.04.15.08.11.23.15.5.15.42,0,.84-.65,1.34-1.96.27-.81.46-1.46.65-1.92h-2.38c-.04.19-.11.35-.15.5h0Z"/>
    <path class="cls-3" d="M29.13,45.4c-.27,0-.54.12-.81.38h1.77c-.23-.27-.54-.38-.96-.38h0Z"/>
    <path class="cls-3" d="M34.85,45.79h-1.34v.19s0,.08.04.12c.04.04.19.08.46.08.31,0,.58-.11.84-.38h0Z"/>
    <path class="cls-3" d="M34,59.22h-2.38c-.65,1.73-1.84,4.91-3.49,9.52-.5,1.42-1,2.72-1.46,3.95h4.18c.08-.27.15-.5.27-.77.88-2.3,1.8-3.76,2.76-4.34-.12.27-.61,1.96-1.5,5.11h3.26c.46-1.61,1.57-5.03,3.38-10.21.38-1.15.73-2.23,1.07-3.26h-3.19c-.11.27-.23.5-.35.77.04-.11.08-.38.12-.77h-.92c-.11.35-.23.73-.35,1.11-.65,2.11-1.65,4.8-3.07,8.06h-.19c.84-4.61,1.38-7.33,1.57-8.17.08-.35.15-.65.27-1h0ZM30.09,69.74v.04c-.04.38-.19.84-.38,1.42-.19.58-.38.96-.58,1.15.27-1.15.58-2.03.96-2.61h0Z"/>
    <path class="cls-3" d="M31.55,59.22h-1.3c-.12.19-.23.38-.35.58.04-.19.12-.38.19-.58h-2.65c-.08.12-.15.27-.23.38.04-.11.11-.27.15-.38h-1.3s-.04.04-.08.08c-1.65,2.34-2.65,4.18-3.03,5.49-.88,2.96-1.46,4.87-1.8,5.83-.11.38-.27.73-.42,1.07-.27.23-.58.58-.92,1h2.19c.04-.19.04-.35.08-.46.35-1.54.85-2.69,1.5-3.45v.04c-.34,1.19-.77,2.46-1.23,3.88h3.41c.54-2.26.88-3.65,1.04-4.15,1.19-3.72,2.8-6.83,4.76-9.33h0ZM27.13,62.18c.61-1.38,1.11-2.34,1.53-2.92v.04c-.42,1.84-1.15,3.72-2.23,5.64l-.12-.04s-.08-.11-.08-.38.31-1.04.88-2.34h0Z"/>
    <path class="cls-3" d="M43.83,59.22h-3.26c-.31,1.07-.65,2.19-1.04,3.34-.81,2.3-2.07,5.68-3.8,10.13h.81c1.07-2.23,1.92-4.15,2.53-5.72v.08c-.61,2.03-1.19,3.91-1.77,5.64h1c.5-1.57.96-2.88,1.38-3.91-.19,1.19-.58,2.49-1.11,3.91h1.19c.81-3.03,1.46-5.49,1.96-7.29.61-2.26,1.31-4.3,2.11-6.18h0Z"/>
    <path class="cls-3" d="M13.59,60.18h-.04c0-.31,0-.61.04-.96h-3.15c-.23.58-.46,1.19-.65,1.84-1.57,4.76-2.38,8.64-2.38,11.63h2.07c.19-1.5.65-3.26,1.46-5.3,1.61-4.11,2.49-6.45,2.61-7.02,0,.11.04.27.11.54.08.23.12.46.12.73,0,1.31-.61,3.61-1.84,6.95-.42,1.23-.96,2.61-1.53,4.11h2.19c.84-2.73,1.42-4.61,1.69-5.68.54-2,.81-4.45.81-7.33.04-.15.12-.31.15-.46h-1.27c-.11.31-.27.61-.38.96h0ZM10.98,61.18c.19-.58.35-.88.38-.92-.11.35-.34,1.04-.69,2.11h-.08c.04-.27.19-.65.38-1.19h0ZM9.75,66.71v.08c-.31,2.15-.65,3.53-1,4.14-.04.35-.08.31-.08-.12,0-.31.15-1.04.46-2.19.31-1.07.5-1.73.61-1.92h0Z"/>
    <path class="cls-3" d="M21.07,60.57c-.23.27-.38.42-.46.46-.04.35-.04.27-.04-.15,0-.5.04-1.04.15-1.65h-1.73c-.31.81-.65,1.57-1,2.3l-.08-.04c.19-.77.42-1.54.61-2.27h-1.69c-.27,1.11-.58,2.34-.88,3.65-.92,3.84-1.96,7.1-3.07,9.83h1.73c.5-2.03,1.15-4.15,1.92-6.37v.08c-.73,2.65-1.31,4.72-1.73,6.29h1.42c.19-.54.42-1.11.69-1.69,1.65-3.84,2.57-5.95,2.69-6.37v.04c-.58,2.88-1.34,5.56-2.3,8.02h2.27c.27-1,.61-2.19,1.04-3.53,1.07-3.61,1.61-6.29,1.61-8.06,0-.35-.04-.58-.08-.69-.04-.12-.19-.23-.46-.42-.19.11-.38.31-.61.58h0ZM19.5,60.91v.04c-.46,2.3-1.19,4.68-2.19,7.1l-.08.08c.88-3.76,1.61-6.18,2.26-7.22h0Z"/>
    <path class="cls-3" d="M22.76,61.79c.15.12.31.23.5.27.58-.81,1.19-1.77,1.77-2.84h-1.73c-.04.12-.11.27-.19.38-.23.46-.34,1.19-.34,2.19h0Z"/>
    <path class="cls-3" d="M66.93,74.04c0-.11.15-.46.5-1.11.04-.08.12-.15.15-.23h-5.72c-.11.42-.31.88-.5,1.42-.42,1.11-.69,1.96-.88,2.61h-.58c-.04-.19-.08-.54-.08-1,0-.34.15-1.07.46-2.19.08-.35.15-.61.23-.84h-2.23c-.04,1.15-.38,2.53-1.04,4.18-.04.11-.08.19-.12.31h5.49c.12-.08.27-.15.42-.19v.04s-.04.11-.04.15h3.19c.04-.31.11-.58.23-.84.35-.85.5-1.61.5-2.3h0ZM63.94,74.5c-.15.57-.54,1-1.15,1.31.31-1.04.81-1.96,1.53-2.76-.15.34-.27.81-.38,1.46h0Z"/>
    <path class="cls-3" d="M74.76,72.69h-1.34l-.19.54-.15.08c.04-.23.12-.42.19-.61h-5.22c-.11.92-.27,2.15-.38,3.72-.04.27-.08.5-.11.77h2.03c.04-.15.08-.31.11-.42.04.08.12.23.15.42h5.49c.31-.58.58-1.11.81-1.65.27-.58.58-1.54.96-2.84h-2.11c-.12.35-.27.65-.38,1h-.11c.08-.35.15-.65.27-1h0ZM69.04,73.81v.08c0,.27-.08.5-.19.69-.04-.35,0-.61.19-.77h0ZM71.35,73.11v.12c0,.88-.08,1.57-.23,2,0-.81-.08-1.38-.27-1.8.08-.19.23-.31.5-.31h0Z"/>
    <path class="cls-3" d="M49.2,72.69h-1.11c-.11.27-.23.58-.35.88-.54,1.42-.96,2.65-1.31,3.61h9.86c.12-.42.27-.84.46-1.27.57-1.42,1.04-2.49,1.46-3.22h-2.95c-.19.46-.38,1.04-.58,1.76-.38,1.04-.92,1.88-1.57,2.53.42-1.11.77-2.03,1.04-2.69.27-.65.58-1.19.84-1.61h-5.26c-.27,1.07-.5,1.76-.65,2.07l-.54-.19c.27-.73.46-1.38.65-1.88h0Z"/>
    <path class="cls-3" d="M47.01,73.46c.12-.27.19-.54.31-.77h-5.14c-.11.19-.23.38-.35.54.04-.19.11-.35.19-.54h-1.31c-.65,1.5-1.27,2.99-1.88,4.49h6.83c.31-.96.77-2.23,1.34-3.72h0Z"/>
    <path class="cls-3" d="M42.72,79.14v.04c-.08.69-.54,1.5-1.42,2.46h2.38c.19-.27.38-.5.5-.73.11.27.27.54.46.73h.92s.04-.12.08-.15c.11-.27.27-.42.38-.46,0,.15-.04.35-.08.61h2.27c.42-1.04.65-1.57.69-1.61.04.08.08.35.08.81.11.35.38.46.84.27-.04.19-.12.34-.15.54h1.34c.08-.19.15-.42.27-.65.38-1.04.92-1.65,1.57-1.84-.08.23-.38,1.07-.96,2.49h1.5c.61-1.57,1.04-2.65,1.27-3.15-.12,1.07-.15,2.11-.12,3.15h3.07c.58-.84.92-1.53,1.07-2.07.58.84.81,1.54.65,2.03v.04h3.03c.84-.77,1.54-1.5,2.03-2.23l.54.11c0,.96.11,1.65.31,2.11h2.07c.42-.38.81-.96,1.19-1.73.27-.58.65-1.46,1.07-2.73h-2.03c-.31,1.61-.77,2.92-1.42,3.92-.12-.38-.15-.92-.15-1.65,0-.84.08-1.61.23-2.27h-3.19c-.08.35-.15.88-.19,1.69-.12.81-.5,1.42-1.11,1.8l-.58-.08c.19-.96.35-1.69.5-2.11.15-.61.5-1.04,1-1.31h-5.49c-.38.96-.92,2.27-1.61,3.99h-.04v-1.34c.19-.73.46-1.61.81-2.65h-9.86c-.65,1.77-1,2.69-1.04,2.76h-.19s-.04-.04-.12-.08c-.04-.04-.04-.19-.04-.46,0-.35.19-1.07.61-2.23h-6.83c-.15.31-.31.61-.42.92h-.08c.08-.31.15-.61.27-.92h-2.8c-.58,1.73-1.15,3.19-1.65,4.45h1.57c.88-.77,1.65-1.15,2.23-1.15.38,0,.69-.19.88-.54.04-.08.11-.35.23-.77h.04c0,.27-.11.77-.38,1.57-.11.35-.19.61-.27.88h1.84c-.12-.19-.15-.46-.15-.77s.04-.54.08-.65c.12.04.35.19.69.42.31.27.46.38.5.38.38-.23.69-.61.96-1.11.19-.46.31-.73.35-.77h0ZM47.82,77.53v.08c0,1-.19,1.96-.61,2.88l-.04.04c.27-1.5.46-2.49.65-2.99h0ZM59.57,77.64l.42.08c.04.15,0,.61-.15,1.34l-.04.08c-.15-.35-.23-.84-.23-1.5h0Z"/>
    <path class="cls-3" d="M69.93,78.14c.04.5.35.85.92,1.04.46-.27.77-.81.88-1.57h.38c.04.35-.15,1.11-.5,2.3-.23.65-.38,1.23-.42,1.73h1.31c1.11-1.53,2.07-3.03,2.84-4.45h-5.49c.04.23.04.54.08.96h0Z"/>
    <path class="cls-3" d="M23.72,73.42s.15.11.38.15c-.15.58-.42,1.31-.77,2.11-.27.58-.5,1.07-.77,1.5h2.07c.42-1.76.81-3.26,1.11-4.49h-3.41c-.35,1.04-.73,2.11-1.11,3.22.31-1.34.58-2.42.77-3.22h-2.19c-.15.15-.31.35-.42.54.04-.19.11-.35.19-.54h-2.27c-.19.46-.42.92-.61,1.38-.54,0-.84.15-.88.5-.08.5-.23.88-.5,1.07t-.08-.04c.23-.88.58-1.84,1-2.92h-1.42c-.19.65-.38,1.19-.5,1.65t-.08-.08c.11-.5.27-1.04.38-1.57h-1.73c-.27.65-.54,1.23-.81,1.8,0-.04,0-.12-.04-.19.19-.58.34-1.11.54-1.61h-2.19c-.19.5-.42,1-.61,1.5-.11.15-.19.35-.27.58h-.08c-.08-.61-.08-1.31.04-2.07h-2.07v.04c0,.35.04.58.11.69.15.19.46.23.96.08-.04.38-.08.96-.08,1.73,0,.65.04,1.23.08,1.77-.15.11,0,.15.46.15h.08v.04h13.24c.08-.5.23-1.07.42-1.76.35-1.04.69-1.73,1.04-2h0ZM17.35,75.19c.15-.35.31-.69.42-1h.04c-.19.92-.31,1.65-.38,2.19t-.04.08c0-.5,0-.92-.04-1.27h0ZM13.97,75.65c-.04.12-.04.23-.08.27.04-.11.04-.19.04-.27h.04Z"/>
    <path class="cls-3" d="M30.86,72.69h-4.18c-.65,1.69-1.23,3.19-1.73,4.49h1.73c.04-.19.08-.31.11-.42,0,.04.15.08.42.12,0,.08-.04.19-.08.31h1.27c.19-.42.35-.84.54-1.27h.08c-.08.46-.15.88-.19,1.27h.96c.15-1.46.5-2.95,1.08-4.49h0Z"/>
    <path class="cls-3" d="M32.39,72.69c-.08.19-.15.42-.23.69-.42,1.42-.84,2.69-1.3,3.8h3.8c.27-.88.58-1.8,1-2.72.31-.61.61-1.19.88-1.76h-.81c-.08.11-.15.27-.19.42.04-.12.08-.27.12-.42h-3.26Z"/>
    <path class="cls-3" d="M39.76,72.69h-1.19c-.23.58-.5,1.23-.77,1.88h-.08c.19-.65.38-1.3.58-1.88h-1c-.54,1.65-1.04,3.15-1.5,4.49h2.8c.42-1.65.81-3.15,1.15-4.49h0Z"/>
    <path class="cls-3" d="M10.82,79.29c-.23-.19-.35-.38-.35-.65v-.31c.08.04.15.11.19.19v.08c0,.27.04.42.11.46.08,0,.11.04.15.08-.19.04-.04.04.42.04.27,0,.58-.31.85-.96-.12.58-.19,1.07-.19,1.42-.19.42.08.77.81.96v1.04h1c.27-.35.61-.96,1.11-1.8.27-.38.54-.84.73-1.38.23-.38.42-.73.58-1.07,0,.27,0,.58-.04.96-.04.81-.04,1.46.08,2-.15.11,0,.15.46.15.27,0,.54-.42.81-1.31.11-.42.19-.73.27-1,.08.04.15.08.19.15-.08.84-.11,1.96-.11,3.3h.92s.08-.12.12-.19c.08.04.23.04.5.04s.5-.15.73-.5c.19-.35.27-.54.31-.58l.04.69c-.04.11.15.19.61.19s.92-.46,1.34-1.42c.42-1.04.69-1.61.81-1.8h.04c0,.23-.04.61-.15,1.15-.11.5-.15.88-.15,1.11,0,.46.08.65.19.54v.08s.19.08.46.08c.35,0,.61-.11.81-.38.27-.42.38-.61.42-.61-.15.65-.27,1.19-.35,1.61h1.73c.12-.27.27-.54.42-.84.61-1.23,1.19-2.42,1.73-3.61h-1.27c-.12.35-.38.88-.81,1.57.12-.69.23-1.23.35-1.57h-1.73c-.19.5-.38.96-.58,1.42h-.08c.11-.5.23-.96.34-1.42h-2.07c-.12.19-.27.38-.38.54,0-.19.04-.35.08-.54h-13.24c-.08.58-.12,1.23-.08,1.88,0,.27.11.54.38.81.27.27.38.77.38,1.42,0,.04,0,.08.04.11.04.04.19.08.46.08.39,0,.65-.23.85-.65.11-.27.15-.54.15-.81s-.12-.54-.38-.73h0Z"/>
    <path class="cls-3" d="M29.78,77.18h-.96c-.08.31-.15.58-.19.81v3.3s0,.08.04.11c.04.04.19.08.46.08.15,0,.42-.19.77-.58.31-.35.5-.58.58-.69.04.11.04.31.04.61-.04.35,0,.61.04.81h1.38c.19-.23.38-.54.61-.96.08-.15.35-.73.77-1.69h.04c-.08.57-.19,1.46-.31,2.65h.96v-.08c0-1.42.23-2.88.65-4.38h-3.8c-.38.81-.77,1.57-1.15,2.23-.04-.04-.04-.23-.04-.54,0-.58.04-1.11.11-1.69h0Z"/>
    <path class="cls-3" d="M35.73,81.63h-1.57c-.04.12-.08.19-.11.31l-.04.04v-.35h-.96c-.04.15-.04.31-.08.5,0,.84.19,1.38.54,1.65.77-.73,1.42-1.38,1.92-1.88.11-.11.19-.19.31-.27h0Z"/>
    <path class="cls-3" d="M40.3,81.63h-1.84c-.08.35-.11.58-.11.73l.08.46c.19-.08.5-.12.96-.12.19,0,.38.12.58.31.15.19.35.27.58.27.81,0,1.57-.31,2.38-.96.31-.23.58-.46.77-.69h-2.38c-.15.19-.34.38-.54.58-.23-.12-.38-.31-.46-.58h0Z"/>
    <path class="cls-3" d="M26.25,81.63h-1.73c-.15.73-.23,1.23-.23,1.46l.04.77c-.15.11,0,.19.46.19.15,0,.65-.8,1.46-2.42h0Z"/>
    <path class="cls-3" d="M30.74,81.86c.12.12.35.15.61.15.15,0,.34-.12.58-.38h-1.38v.04s.12.12.19.19h0Z"/>
    <path class="cls-3" d="M17.88,81.63v.04c.11.12.31.23.5.35.15-.04.31-.19.42-.38h-.92Z"/>
    <path class="cls-3" d="M13.39,82.02c.08,0,.23-.12.42-.38h-1v.04c.04.12.08.19.11.23.04.08.19.12.46.12h0Z"/>
    <path class="cls-3" d="M67.32,81.63h-2.07c.19.42.42.61.77.61.42,0,.88-.19,1.3-.61h0Z"/>
    <path class="cls-3" d="M72.5,81.63h-1.31c-.08.35-.12.65-.08.88.15.12.31.23.5.27.31-.38.61-.77.88-1.15h0Z"/>
    <path class="cls-3" d="M57.61,81.63h-3.07c.04.65.08,1.3.19,1.96v1.19c.12.11.31.19.5.31.12-.23.73-1.11,1.8-2.65.19-.27.38-.54.58-.81h0Z"/>
    <path class="cls-3" d="M45.94,81.63c0,.08,0,.15-.04.23-.08.38-.11.69-.11.92,0,.19.04.42.08.69l.15.15c.08.12.27.15.54.15.46,0,.92-.54,1.42-1.65.08-.19.15-.34.23-.5h-2.27Z"/>
    <path class="cls-3" d="M45.02,82.02c.23-.08.42-.19.54-.38h-.92c.11.15.27.27.38.38h0Z"/>
    <path class="cls-3" d="M51.01,81.63h-1.34c-.15.5-.23.92-.19,1.19.11.11.23.15.38.19.42-.23.81-.69,1.15-1.38h0Z"/>
    <path class="cls-3" d="M58.83,83.4c0,.27.04.42.08.46.04.04.08.08.12.11-.27.04-.15.08.27.08,1.19-.84,2.19-1.65,3.07-2.42h-3.03c-.34,1.04-.5,1.61-.5,1.77h0Z"/>
    <path class="cls-3" d="M53.39,81.63h-1.5c-.08.19-.15.42-.27.69-.65,1.8-1,2.88-1,3.15,0,.35.04.54.11.54-.11.08,0,.11.42.11.27,0,.81-1.04,1.65-3.11.19-.5.38-.96.58-1.38h0Z"/>
    <path class="cls-3" d="M76.45,59.26v-.04h-3.61c-.23,1.04-.58,2.11-1.04,3.26-.38.96-.92,2.15-1.57,3.49h3.26c.73-2.11,1.19-3.34,1.38-3.68v.08c-.19.73-.46,1.96-.81,3.61h1.23c.77-3.49,1.15-5.72,1.15-6.72h0Z"/>
    <path class="cls-3" d="M78.72,60.41c-.04-.12-.19-.15-.46-.15-.5,0-1.15,1.04-1.88,3.15-.23.69-.54,1.54-.88,2.57h1.27c.23-.73.46-1.42.73-2.07-.12.65-.27,1.34-.42,2.07h1.23l.46-3.15v-2.3s-.04-.04-.04-.11h0Z"/>
    <path class="cls-3" d="M66.51,59.22h-1.3c-.19.84-.42,1.65-.65,2.38-.5,1.53-1.04,2.99-1.69,4.37h1.3c.34-1.34,1.04-3.45,2.15-6.26.08-.19.15-.34.19-.5h0Z"/>
    <path class="cls-3" d="M63.56,59.22h-2.26c-.77,1.88-1.57,3.45-2.42,4.8h-.11c.65-1.77,1.23-3.38,1.8-4.8h-1.46c-.65,1.5-1.34,3.11-2.15,4.76-.04-.04-.15-.11-.34-.15-.19-.11-.27-.27-.27-.54,0-.38.5-1.73,1.46-4.07h-2.96c-.19.84-.42,1.88-.69,3.07-.34,1.42-.77,2.65-1.19,3.68h2.19c.15-.61.42-1.04.84-1.3,0,.42-.04.84-.08,1.3h5.03c.34-1.38.88-2.88,1.53-4.49.12-.27.5-1.04,1.08-2.27h0ZM55.19,63.29h.04l-.04.42-.12.04s-.08.08-.08.15l-.15.08.34-.69h0Z"/>
    <path class="cls-3" d="M72.11,59.22h-1.42l-.04.04v-.04h-1.11c-.15,2.34-.77,4.61-1.8,6.75h1.61c.31-.92.81-2.23,1.53-3.91.46-1.11.88-2.03,1.23-2.84h0Z"/>
    <path class="cls-3" d="M68.81,59.22h-1.15c-.19.58-.38,1.15-.58,1.73-.42,1.23-1.07,2.92-1.88,5.03h1c.23-.73.58-1.65,1-2.76.61-1.61,1.15-2.96,1.61-3.99h0Z"/>
    <path class="cls-3" d="M54.5,59.22h-2.23c-.54,1.96-1.04,3.49-1.5,4.68h-.15c-.15-.42-.23-.88-.23-1.34,0-1.19.19-2.3.54-3.34h-2.03l-.5,1.69h-.11v-.46c0-.23.11-.65.31-1.23h-2.76c-.61,1.84-1.42,4.11-2.42,6.75h4.84c.04-.46.11-.81.15-1.07.12-.65.31-1.11.58-1.3l-.54,2.38h2.3c.04-.11.04-.23.08-.27v.27h1.04c.04-1.38.35-2.65.92-3.76.65-1.04,1.23-2.03,1.73-2.99h0Z"/>
    <path class="cls-3" d="M55.04,66.55c.04-.19.08-.38.11-.58h-2.19c-.15.27-.31.54-.42.81-.08-.04-.23-.08-.42-.12-.19-.04-.27-.23-.27-.5v-.19h-1.04c-.04.69-.12,1.23-.23,1.65.04-.77.11-1.3.15-1.65h-2.3l-.15.69h-.15c.04-.27.08-.5.12-.69h-4.84c-.19.42-.34.85-.54,1.31-.73,1.8-1.42,3.61-2.15,5.41h1.31c.81-2.38,1.34-3.95,1.65-4.76v.08c-.15.5-.42,1.38-.77,2.69-.23.81-.46,1.5-.73,2h5.14c1-2.57,1.73-4.41,2.23-5.45-.23,1.5-.73,3.3-1.46,5.45h1.11c.08-.19.15-.38.19-.58.35-1.04.69-1.73,1-2.11v.04c-.23,1.04-.46,1.92-.65,2.65h5.26c.19-.35.35-.58.54-.73v.08c-.08.19-.15.38-.27.65h2.95s.04-.11.08-.15v.15h2.23c.15-.5.27-.84.35-1v.35s0,.08.04.12c.04.08.19.11.46.11s.5-.19.69-.54c.12-.23.19-.31.19-.23-.11.34-.23.73-.38,1.19h5.72c.27-.54.46-.88.58-1-.04.27-.08.61-.12,1h5.22c.19-.81.34-1.46.5-1.92.31-1.04.58-1.76.84-2.19v.08l-1.19,4.03h1.34c.65-2.5,1.34-4.76,2-6.72h-1.27c-.23.69-.5,1.46-.77,2.34.19-.85.38-1.61.58-2.34h-1.23c-.11.58-.27,1.27-.42,2-.73,2.34-1.92,3.84-3.49,4.49-.04,0-.08.04-.12.08v-.38c0-.31.19-1,.54-2.07l.54-1.5v.69s0,.08.04.12c.04.04.19.08.46.08.42,0,.96-.92,1.61-2.76.12-.27.19-.5.27-.73h-3.26c-.31.58-.65,1.23-1,1.88-.04-.04-.11-.08-.19-.08-.04-.04-.08-.19-.08-.46,0-.19.11-.65.38-1.34h-1.61c-.42.81-.92,1.61-1.46,2.42-.34,0-.54-.23-.54-.65,0-.27.15-.88.46-1.77h-1c-.31.73-.61,1.53-.96,2.42h-.04c0-.11-.04-.23-.15-.42-.08-.19-.11-.38-.11-.65,0-.31.08-.77.23-1.34h-1.3c-.73,1.65-1.61,3.15-2.57,4.57h-.11c.04-1.34.27-2.84.77-4.57h-5.03c-.15.88-.46,1.77-.92,2.72-.04-.92,0-1.65.04-2.15h0ZM51.66,68.78h-.15c.12-.61.27-.92.42-.92,0,.04-.08.34-.27.92h0ZM53.5,69.74s-.15.42-.34,1.23c-.15.58-.38,1-.73,1.27h-.19c.19-.69.35-1.19.46-1.54.19-.54.46-.84.8-.96h0ZM58.49,68.97v.04l-.69,2.11-.12.08c0-.11.12-.5.38-1.15.27-.65.38-1.04.42-1.07h0ZM47.74,67.74c.12.12.19.19.19.27,0,.27-.27,1.07-.81,2.34-.46,1.04-.81,1.77-1.04,2.19-.08-.04-.19-.04-.38,0-.12-.04-.19-.19-.19-.46,0-.08.23-.81.69-2.23.5-1.42.81-2.34.96-2.69.11.12.31.31.57.58h0ZM65.21,69.2v.08c-.27,1.5-.5,2.46-.69,2.96.15-.96.38-2,.69-3.03h0Z"/>
    <path class="cls-3" d="M79.56,66.32c-.12-.19-.19-.31-.31-.35h-.54c-.12.04-.23.08-.31.19-.08.11-.15.23-.23.34l.12-.54h-1.23c-.5,1.96-1.19,4.22-2.07,6.72h2.11c.04-.19.11-.42.15-.65.5-1.77.88-3.03,1.19-3.8l.08-.11c-.04.46-.38,1.84-1.08,4.18-.04.11-.04.27-.08.38h1.88c.31-1,.65-1.77,1-2.26,0,.11-.19.84-.54,2.26h1.34c.19-1.11.27-1.92.27-2.34,0-.23-.04-.5-.12-.77-.15-.58-.38-.96-.69-1.15-.35.23-.69.61-1.08,1.11h-.04l.38-2.57c0-.19-.08-.42-.23-.65h0Z"/>
    <path class="cls-3" d="M78.72,65.98h.54c-.08-.04-.15-.08-.23-.08-.11,0-.23.04-.31.08h0Z"/>
    <path class="cls-3" d="M75.41,56.61c-.15-.04-.35-.08-.54-.04-.23.04-.42.15-.57.31,0-.04-.12-.27-.31-.65-.23-.46-.42-.73-.58-.85-.73.38-1.31.96-1.69,1.69-.27.42-.58,1.15-1,2.11l-.04.04h1.42c.42-1,.77-1.77,1.04-2.3v.08c-.04.73-.15,1.46-.31,2.23h3.61l-.04-1.15c-.42,0-.73.04-.92.15-.04-.19-.08-.73-.08-1.61h0Z"/>
    <path class="cls-3" d="M83.59,72.69c0-.19,0-.42-.04-.61-.04,0-.12-.04-.23-.15-.12-.12-.35-.15-.61-.15-.38,0-.73.31-1.08.92h1.96Z"/>
    <path class="cls-3" d="M81.63,72.69s-.08.11-.11.19c-.19.38-.42.96-.73,1.69h-.12c.15-.73.27-1.34.38-1.88h-1.34c-.12.5-.27,1.11-.46,1.8-.65,2.57-1,4.11-1,4.68,0,.42.04.65.08.77.08.19.27.27.58.27.42,0,1.04-.81,1.76-2.42.81-1.92,1.34-3.19,1.69-3.76-.04.35-.31,1.11-.81,2.34-.46,1.11-.73,2.07-.77,2.8.19.15.35.23.54.27.5-.5,1.11-1.38,1.84-2.73.65-1.19.96-1.84.96-2,0-.27-.04-.42-.12-.46-.08-.08-.31-.15-.65-.23.15-.42.23-.88.23-1.34h-1.96Z"/>
    <path class="cls-3" d="M78.79,74.23c.15-.58.31-1.07.46-1.54h-1.88c-.61,2.07-.92,3.22-.92,3.49,0,.38,0,.61.04.65.08.38.31.65.73.8.65-.69,1.19-1.84,1.57-3.41h0Z"/>
  </g>
  <g id="Layer_4" data-name="Layer 4">
    <path class="cls-2" d="M47.55,5.64c-8.67-1.04-14.66,1.38-17.92,7.33-1.73,3.11-2.57,7.1-2.57,11.9,0,5.87,2,12.97,5.99,21.38-4.18-.65-8.64.08-13.43,2.23-4.61,2.03-7.6,4.37-8.94,7.02-.61,1-1.38,3.3-2.34,6.91-.96,3.68-1.46,6.29-1.46,7.83,0,1.11.27,3.3.81,6.56.5,3.11.88,4.99,1.11,5.57l.38.15c.27-.04.42-.04.46-.08.04-.04.04-.11.08-.27.5.42,1.8.77,3.84,1.11,5.07.84,13.97,1.27,26.67,1.27,4.26,0,12.32-.69,24.18-2.03,11.13-1.34,16.96-2.03,17.54-2.03.46,0,.81-.19,1.07-.58.65-.19,1.08-.81,1.27-1.88.08-1.31.12-2,.12-2.03,0-1.38-.69-4.22-2.03-8.48-1.3-4.03-2.26-6.49-2.84-7.45-2.11-3.42-4.68-6.02-7.79-7.87-4.15-2.46-6.95-4.03-8.37-4.76-.88-.42-1.69-.77-2.34-1,.69-.73,1.34-1.84,1.92-3.34.88-2.19,1.34-4.11,1.46-5.76.27-2.46.42-4.22.54-5.3.19-1.88.27-3.57.27-4.99,0-5.18-.81-9.44-2.42-12.74-2.8-5.79-7.91-8.71-15.24-8.67h0ZM32.62,46.71c.23,0,.42-.04.61-.08.19.04.46.08.81.08l.11-.08c.08-.04.11-.19.11-.46-1.04-2.27-2.03-4.76-3.07-7.41-2.03-5.33-3.07-9.94-3.07-13.89s.57-7.29,1.76-9.79c2.61-5.64,7.79-8.44,15.5-8.44,8.56,0,14.2,3.07,17,9.21,1.19,2.65,1.8,6.37,1.8,11.17,0,2.07-.04,3.68-.15,4.83-.08.96-.31,2.8-.73,5.49-.57,4.03-1.84,6.95-3.8,8.67-.96-.15-1.46.12-1.46.81,0-.12.15-.12.42-.04-.04.04-.12.08-.19.11.04.15.04.27.08.35.12.15.31.23.58.23.34,0,.65-.08.96-.19.77.27,1.77.69,2.96,1.27,3.42,1.57,6.37,3.22,8.87,4.87,3.22,2.19,5.56,4.68,7.02,7.48.46.92,1.3,3.3,2.57,7.1,1.34,4.18,2.03,6.83,2.03,7.94,0,.65-.11,1.19-.35,1.54-.27.42-.5.8-.69,1.11-4.18.46-12.13,1.5-23.87,3.07-8.64,1.19-14.7,1.77-18.27,1.77-6.03,0-11.93-.19-17.81-.58-2.96-.19-5.37-.42-7.29-.61-1.38-.12-2.46-.35-3.19-.61-.61-.23-1.19-.35-1.69-.35l-.61.08h-.04c-.27-1.15-.5-2.34-.77-3.57-.57-2.84-.88-5.37-.88-7.56,0-5.49,1.04-9.98,3.15-13.55,3.91-6.64,11.09-9.98,21.57-9.98h0Z"/>
  </g>
</svg>