<?xml version="1.0" encoding="UTF-8"?>
<svg id="Layer_2" data-name="Layer 2" xmlns="http://www.w3.org/2000/svg" xmlns:xlink="http://www.w3.org/1999/xlink" viewBox="0 0 93.57 93.57">
  <defs>
    <style>
      .cls-1 {
        fill: url(#linear-gradient);
      }

      .cls-1, .cls-2, .cls-3, .cls-4, .cls-5 {
        stroke-width: 0px;
      }

      .cls-3 {
        fill: #ccc;
      }

      .cls-4 {
        fill: #de4b21;
      }

      .cls-5 {
        fill: #999;
      }
    </style>
    <linearGradient id="linear-gradient" x1="44.44" y1="9.21" x2="44.44" y2="122.11" gradientUnits="userSpaceOnUse">
      <stop offset=".37" stop-color="#fff"/>
      <stop offset="1" stop-color="#c6c6c6"/>
    </linearGradient>
  </defs>
  <g id="Layer_1-2" data-name="Layer 1">
    <path class="cls-5" d="M92.8,40.95c-1.57-8.56-5.64-16.12-12.13-22.6-8.6-8.6-19-12.9-31.17-12.9s-22.57,4.3-31.16,12.9c-6.49,6.49-10.55,14.05-12.13,22.6-.5,2.73-.77,5.6-.77,8.56,0,12.16,4.3,22.57,12.9,31.16,8.6,8.6,19,12.9,31.16,12.9s22.57-4.3,31.17-12.9c8.6-8.6,12.89-19,12.89-31.16,0-2.96-.27-5.83-.77-8.56h0Z"/>
  </g>
  <g id="Layer_2-2" data-name="Layer 2">
    <path class="cls-5" d="M75.88,75.88c8.67-8.67,13.01-19.15,13.01-31.43s-4.34-22.76-13.01-31.43C67.2,4.34,56.72,0,44.44,0S21.68,4.34,13.01,13.01C4.34,21.68,0,32.16,0,44.44s4.34,22.76,13.01,31.43c8.67,8.67,19.15,13.01,31.43,13.01s22.76-4.34,31.43-13.01h0ZM88.12,44.44c0,12.09-4.26,22.37-12.78,30.89-8.52,8.52-18.81,12.78-30.9,12.78s-22.37-4.26-30.89-12.78S.77,56.53.77,44.44,5.03,22.07,13.55,13.55C22.07,5.03,32.35.77,44.44.77s22.38,4.26,30.9,12.78c8.52,8.52,12.78,18.81,12.78,30.9h0Z"/>
    <path class="cls-1" d="M75.34,75.34c8.52-8.52,12.78-18.8,12.78-30.89s-4.26-22.38-12.78-30.9C66.82,5.03,56.53.77,44.44.77S22.07,5.03,13.55,13.55C5.03,22.07.77,32.35.77,44.44s4.26,22.37,12.78,30.89,18.8,12.78,30.89,12.78,22.38-4.26,30.9-12.78h0Z"/>
  </g>
  <g id="Layer_3" data-name="Layer 3">
    <path class="cls-4" d="M69.2,16.27h.77c-.12-.11-.27-.15-.42-.15-.11,0-.23.04-.35.15h0Z"/>
    <path class="cls-4" d="M69.97,16.27h-.77c-.23.12-.5.35-.77.65v-.65h-1.04v1.57c0,1.15-.15,3.49-.5,6.99-.12,1.04-.19,1.92-.27,2.69-.08,0-.15,0-.27.04v.12h3.84c0-.5,0-.96.04-1.38.04-.46.04-.88.08-1.3.04.88.08,1.8.12,2.69h2.34c.04-.23.04-.46.08-.69.04.23.12.46.15.69h4.87c-.04-.85-.08-1.5-.15-1.96-.19-1.46-.65-2.19-1.38-2.19-.42,0-.81.31-1.15.96-.15.35-.27.69-.38,1.04v-.08c.04-1.5-.31-3.03-1.04-4.6-.92-1.77-1.61-3.26-2.03-4.49-.27.08-.54.31-.84.69-.15.19-.31.42-.42.61v-.08c-.08-.31-.15-.58-.19-.81-.08-.23-.19-.38-.31-.5h0ZM72,21.53v.11s-.04,0-.04.04c-.15.31-.23.5-.23.58s.04.31.12.69c-.12.84-.27,2.07-.5,3.68-.23-1.38-.46-2.57-.65-3.61-.08.04-.15.08-.19.11.23-1.96.61-3.72,1.15-5.26.04.77.15,2,.34,3.65h0ZM73.5,22.53s-.04-.11-.08-.15c.04-.12.04-.19.04-.27.04.12.04.27.04.42h0ZM69.35,17.54c.04.73.15,1.96.35,3.61,0,2.15-.08,4.22-.19,6.18-.04-.27-.04-.5-.08-.73-.27-2.72-.58-4.11-1-4.11.23-1.92.54-3.57.92-4.95h0Z"/>
    <path class="cls-4" d="M56.5,6.79v-.08c.46,1,.57,2.27.31,3.84h4.95s-.04-.08-.04-.11c-.42-1.34-.77-2-1-2-.08,0-.27-.04-.54-.11-.31-.12-.61-.15-.88-.15s-.46.15-.58.42c-.12.42-.35.73-.61.92-.35-1.8-.61-2.92-.84-3.34-.42-.73-1.19-.19-2.26,1.69-.04-.42-.08-.77-.12-1.11-.08-.58-.38-.88-.96-.88-.42,0-.73.31-.92.96-.04.15-.08.58-.15,1.23-.12-.19-.19-.42-.31-.61-.23-.35-.54-.54-.88-.54-.42,0-.77.38-1.07,1.11-.04.15-.12.31-.19.5-.27-.5-.65-.69-1.19-.61-.19-.69-.31-1.07-.35-1.19-.19-.42-.38-.73-.65-.84-.23.08-.5.23-.81.5-.35.27-.61.46-.73.54-.81-.88-1.38-1.31-1.65-1.31-.5,0-.92.35-1.23,1-.23.54-.35,1.04-.35,1.46h-.19c-.23-.5-.69-.73-1.38-.73.46-1.31.35-2.15-.31-2.49-.5.15-.77.73-.81,1.69-.04,1.27-.08,1.96-.19,2.15-.35-.46-.62-1-.84-1.57-.19-.61-.46-1.11-.73-1.5-.46.31-.77.81-.96,1.53-.27.96-.42,1.5-.5,1.61-.23-.11-.42-.38-.58-.81-.19-.38-.42-.65-.77-.81-.35.12-.58.31-.69.58-.15.35-.31.58-.5.69-.04-.42-.12-.81-.19-1.11-.12-.61-.38-.92-.81-.92-.27,0-.46.04-.54.11l-.12.08c.19.5.12,1.07-.19,1.65-.42.81-.65,1.27-.69,1.38-.73-.5-1.15-.35-1.3.38-.04.15-.08.34-.11.57h7.48c0-.19.04-.38.08-.54h.11c0,.19,0,.34.04.54h3.42c-.04-.35-.08-.57-.08-.73,0-.27.04-.5.15-.77v-.04c.12.58.23,1.07.35,1.53h1.5c.04-.35.12-.81.23-1.31.23-1.3.38-2.07.46-2.3.38.81.58,1.61.58,2.38,0,.23-.04.65-.08,1.23h2.88c-.15-1.19-.23-2.03-.23-2.53,0-.27,0-.42.04-.42t.04.08c.19.88.35,1.84.38,2.88h2.92c.12-1.04.31-1.73.54-2.07.12.5.15,1.19.19,2.07h1.57c.04-.81.12-1.5.19-2.07h.15c0,.11,0,.27.04.38,0,.5,0,1.04-.04,1.69h2.15v-2.26l.38-1.5h0Z"/>
    <path class="cls-4" d="M28.82,7.83s-.08.11-.08.15c-.04.65-.23,1.38-.5,2.23-.08-.04-.19-.19-.35-.46-.12-.19-.27-.27-.42-.27-.11,0-.31.12-.54.35-.15.11-.35.31-.58.54v-.08c.04-.38,0-.73-.08-1-.15-.57-.5-.84-1-.84-.27,0-.46.04-.58.15-.04.04-.08.11-.08.15.19.65.19,1.23.08,1.8h4.64c.04-.27.08-.5.12-.73h.04c0,.27,0,.5.04.73h1.11c-.04-.54-.12-1-.15-1.34-.15-1.04-.54-1.54-1.11-1.54-.27,0-.46.04-.58.15h0Z"/>
    <path class="cls-4" d="M42.18,10.55h-3.42c.08,2,.19,3.91.38,5.72h5.1c-.23-1.65-.34-3.11-.34-4.41,0-.19.08-.65.19-1.31h-1.5c.15.88.23,1.5.23,1.92,0,.5-.04.81-.08.88v-.27c-.27-1.11-.46-1.96-.58-2.53h0ZM39.99,11.63v-.08c.15.19.23.61.23,1.23l-.23-1.15h0Z"/>
    <path class="cls-4" d="M38.46,11.9c0-.54.04-1,.08-1.34h-7.48c-.04.31-.12.69-.23,1.15l-.08-.08c-.04-.38-.04-.73-.08-1.07h-1.11c.12,3.15.23,5.03.31,5.6,0,.04,0,.08.04.11h2.15c-.15-2.11-.23-3.34-.23-3.61,0-.38.04-.65.08-.77h.04c.08.96.19,2.42.31,4.37h1.27c-.11-2.15-.15-3.88-.15-5.18l.08.08c.04.11.31,1.84.84,5.1h4.45c-.19-1.88-.27-3.34-.27-4.37h0Z"/>
    <path class="cls-4" d="M29.25,11.94c0-.5.04-.96.12-1.38h-4.64c-.11.35-.27.69-.5,1-.73,1.04-1.11,1.84-1.15,2.49l-.04-.11c-.08-.46-.15-.81-.23-1.04-.11-.42-.46-.61-.96-.61-.81,0-1.19.38-1.23,1.11,0,.38.04.88.15,1.46-.12-.23-.19-.38-.23-.5-.11-.19-.27-.31-.46-.31-.27,0-.46.04-.5.12,0,.04,0,.15-.04.27.04.04.04.11.08.19-.08.42-.31.81-.65,1.19-.15.19-.31.35-.46.46h5.95c-.19-1.07-.27-1.96-.31-2.65v-.08c.27.77.46,1.69.58,2.73h1.11c-.27-1.8-.38-3.53-.38-5.18v-.12c.11.54.27,1.65.46,3.3.12.84.19,1.5.23,2h1.38l-.04-.15v-4.03h.04c.12.69.31,2.07.5,4.18h1.53c-.19-2.76-.31-4.22-.31-4.34h0ZM22.37,16.23c-.11-.04-.19-.08-.27-.08-.19-1.04-.27-1.84-.27-2.34.04.15.23.96.54,2.42h0Z"/>
    <path class="cls-4" d="M63.48,10.55h.23s-.08-.04-.12-.08c-.04.04-.08.04-.11.08h0Z"/>
    <path class="cls-4" d="M63.71,10.55h-.23c-.15.12-.38.31-.65.58-.34.35-.57.58-.69.77-.08-.31-.19-.77-.38-1.34h-4.95c-.15.81-.38,1.65-.69,2.61v-2.61h-2.15c-.12,1.5-.31,3.38-.61,5.72h9.21c.08-1.88.27-3.26.61-4.18l.15.12v4.07h1.42c.12-.92.23-1.65.35-2.15.11.65.19,1.34.23,2.15h1.8c.08-.35.15-.69.23-1l.04,1h1.04c-.04-.58-.04-1-.08-1.27-.11-.81-.46-1.46-.96-1.96-.31.19-.69.77-1.11,1.65v-.08c.11-.65.15-1.15.11-1.53-.08-.73-.46-1.07-1.19-1.07-.5,0-.77.27-.88.77v-.27c-.08-.61-.12-1-.15-1.19-.12-.35-.27-.61-.46-.77h0ZM58.87,13.66v-.04c.12.65.04,1.38-.19,2.11v-1.31l.19-.77h0Z"/>
    <path class="cls-4" d="M53.62,10.55h-1.57v.81l-.23,4.91h1.46v-.15c.12-2.26.23-4.14.34-5.56h0Z"/>
    <path class="cls-4" d="M48.4,10.55c.04.5.04,1,0,1.54-.08-.58-.15-1.08-.23-1.54h-2.88c-.11,1.19-.38,3.07-.77,5.72h1.92c0-1.5.04-2.65.08-3.49.04.73.11,1.92.23,3.49h4.26c.04-2.49.12-4.37.31-5.72h-2.92ZM49.47,11.05c.12.27.19.5.27.69,0,1.42-.08,2.72-.19,3.91h-.08v-4.6h0Z"/>
    <path class="cls-4" d="M65.32,16.27v.54c0,.46-.15,3.45-.5,9.02,0,.88.12,1.5.31,1.84h.61s.08-.08.12-.12c.19-4.72.61-8.48,1.27-11.28h-1.8Z"/>
    <path class="cls-4" d="M64.44,19.53c.08-1.27.19-2.38.31-3.26h-1.42v2.27c-.23,1.34-.35,2.38-.35,3.15,0,1.19.19,2.23.61,3.11.42-1.15.73-2.92.84-5.26h0Z"/>
    <path class="cls-4" d="M51.01,17.39v-1.11h-4.26c.08,1.57.15,3.61.27,6.1.15,2.49.38,4.26.65,5.3h1.31v-.27c.15-.73.31-1.57.5-2.49.12-.81.27-1.65.38-2.53.04-.31.12-.61.15-.92.04.42.12.84.23,1.31.42-.58.65-1.42.73-2.53.04-.23.04-1.19.04-2.84h0Z"/>
    <path class="cls-4" d="M53.35,16.27c-.04.15-.04.31-.08.5-.04.15-.04.31-.04.5v.27c-.04.19-.04.42-.04.61l-.04.23c-.08,2.38.19,4.37.84,5.99.04.08.04.15.08.19l.5-.31v-.19c.04-.58.08-1.15.19-1.77.04.12.08.23.08.35l.04.31c.04.23.08.38.15.5l.46.08c.42,0,.65-.12.61-.31,0-.69.08-1.34.23-1.92.12.15.31.23.58.27.23.04.38,0,.5-.08l.04-1.69c.73.11,1.08-.11,1.08-.65.04-.96.04-1.5.08-1.57l.08.11c0,.73.15,1.88.42,3.53.27,1.57.38,2.73.34,3.45l.65.12h.15c.35-.04.5-.12.46-.27,0-.04,0-.12.04-.15.04-.38.12-.88.23-1.53.04.11.19.34.5.69.65-1.34,1-3.22,1.04-5.68,0-.57,0-1.07.04-1.57h-9.21Z"/>
    <path class="cls-4" d="M53.27,16.27h-1.46l-.31,5.57s0,.35.04,1c.08.65.27.96.61.96.46,0,.61-.04.46-.15.23-1.27.42-3.03.54-5.26l.04-.23c0-.19,0-.42.04-.61v-.27c0-.35,0-.65.04-1h0Z"/>
    <path class="cls-4" d="M46.44,16.27h-1.92c-.04.27-.08.54-.12.84h-.04c-.04-.27-.08-.58-.12-.84h-5.1c.34,4.34.88,8.14,1.57,11.4h2.26c-.04-.38-.12-.81-.19-1.23.08.42.15.81.27,1.23h2.23c-.42-3.3-.61-5.18-.61-5.6,0-.27.08-.84.27-1.77.19-1.19.34-1.92.38-2.22l.04.08c.08.96.04,2.49-.08,4.6,0,1.88.27,3.3.85,4.34.54-.81.73-2,.61-3.53-.23-1.69-.34-2.88-.34-3.57,0-1.42,0-2.65.04-3.72h0ZM40.53,18.73l.23,1.77h-.12c-.08-.61-.12-1.19-.12-1.77h0ZM41.83,20.26l.04.11c.19.96.38,2.3.61,4.03-.42-2.65-.65-4.03-.65-4.14h0Z"/>
    <path class="cls-4" d="M45.37,28.21c-.04-.19-.04-.35-.08-.54h-2.23c.27,1.11.61,2.15,1.04,3.03.19-.12.38-.23.5-.35,0-.58-.08-1-.19-1.34.5.27.81.23.92-.12.04-.42.04-.65.04-.69h0Z"/>
    <path class="cls-4" d="M47.67,27.67c.04.27.12.46.19.61.12.23.23.34.35.34.42,0,.58-.08.38-.19.19-.19.34-.46.38-.77h-1.31Z"/>
    <path class="cls-4" d="M61.21,38.57c-.04.12-.04.27-.04.5h9.59c.19-1.65.35-2.92.5-3.8v.96c.04,1.15.19,2.11.46,2.84h8.14c-.04-1.42-.15-3.03-.31-4.87-.27-3.19-.58-5.14-.92-5.79-.11.04-.23.12-.38.23-.19.15-.31.23-.38.27v-1.23h-4.87c.19,1.04.35,2.11.5,3.15-.04.15-.08.35-.12.54-.42,2.03-.61,3.95-.61,5.79l.04.34c-.15-1.15-.34-2.49-.54-4.03.11-1.8.27-3.76.5-5.79h-2.34c.04,2.53-.04,5.03-.27,7.52l-.04-.04c0-3.15.04-5.64.08-7.48h-3.84c0,.96-.04,1.61-.08,1.96-.5.42-.92,1-1.34,1.73-.08.31-.19.54-.34.73-.5,1.07-.92,2.46-1.27,4.11-.12.42-.19.88-.27,1.3-.12-.23-.31-.46-.5-.69-.73-.88-1.07-.81-1.07.15,0,.46.11.73.38.85-.35.27-.58.5-.65.77h0ZM78.37,31.09v-.08c.19.65.31,1.31.31,2.04,0,.92-.19,1.57-.54,2v-2.61c.15-.62.23-1.08.23-1.34h0ZM69.39,35.27l.15.04c.35,0,.58-.04.61-.08-.11,1.19-.27,2.34-.46,3.53-.12-.5-.31-.84-.58-1.11.12-.84.19-1.65.27-2.38h0ZM67.7,35.73h.12c.04.5.08,1.27.08,2.34-.04.04-.04.08-.08.12-.12-.58-.19-1.07-.19-1.5.04-.5.08-.84.08-.96h0ZM76.53,37.77c.12-.96.31-2.23.5-3.84.04-.19.04-.35.08-.54v.5c0,1.57-.15,2.8-.5,3.65-.04.08-.04.15-.08.23h0Z"/>
    <path class="cls-4" d="M61.18,39.07v.08c-.46-.15-.92-.08-1.38.27-.23.15-.46.31-.65.5-.58-.04-.88-.08-.92-.08,0,.54-.04.81-.12.84-.08-.12-.38-.15-.96-.15,0,.31-.15.81-.5,1.46-.31.62-.5.92-.58.92-1,0-1.5.42-1.5,1.23,0,.23.12.5.31.81.04.04.08.12.12.19l.08.08c.08.12.15.19.27.31.04-.04.15-.12.35-.31.12-.12.31-.19.58-.19l.04.04c.11.08.46.58,1.04,1.46.19.31.42.58.65.77.42.42.88.58,1.38.5.04.34.12.54.15.58.12.15.35.23.69.23.42,0,.88-.19,1.38-.54.35-.27.65-.54.85-.81l.08.15c.19,1.04.38,2.07.58,3.07h2.69l-.19-3.92v-.84c.12.04.27.08.38.08h.42c.08,1.34.15,2.88.23,4.68h1.5c-.15-1.73-.23-3.26-.23-4.68,0-.58.04-1.5.15-2.76,0-.12,0-.19.04-.31.15-.04.27,0,.38.04-.04.19-.04.46-.04.88,0,.31.11,1.38.38,3.22.04.19.04.35.08.54-.12,1.19-.19,2.22-.23,3.07h1.57c.04-.73.19-1.69.46-2.84h.15c.04,1,.08,1.96.08,2.84h1.38c.12-3.03.23-5.41.38-7.14.08.31.19.61.31.92-.04,1.34-.12,2.99-.23,4.87,0,.04.04.46.15,1.34h2.53v-.88c.19-.96.42-1.77.69-2.34v-.04c.42.58.54,1.69.38,3.26h2.15c.54-.92.88-2.15,1.07-3.72.12-.81.15-2.8.15-5.95,0-.54,0-1.11-.04-1.73h-8.14v.08l.15-.04c.04.27.08.54.11.84-.04.12-.08.15-.08.19-.35-.5-.58-.77-.69-.77-.19,0-.38.04-.54.12.04-.15.04-.31.08-.42h-9.59ZM62.83,44.52s0,.12.04.15c.27.88.42,1.42.46,1.61.11-.04.23-.11.35-.19-.04.19-.04.42-.08.65h-.11c-.04-.12-.15-.42-.38-.88-.19-.35-.31-.65-.31-.92,0-.11,0-.23.04-.42h0ZM60.99,42.83c0-.27.04-.46.08-.54.04-.08.08-.15.12-.23v-.04c.12.31.12.69,0,1.19h-.08c-.08.19-.11.08-.11-.38h0ZM67.13,41.3c-.04.08-.04.15-.04.27h-.04c0-.11,0-.19.04-.31l.04.04h0ZM64.55,41.03c0-.19.04-.27.08-.31l.04-.08v-.12s.04.12.04.19c-.04.12-.12.19-.15.31h0ZM75.38,39.76c.08.15.23.27.46.38.11-.04.23-.11.31-.15-.04.61-.08,1.34-.08,2.15,0,.46.12,1.69.31,3.65h-.04c-.27,0-.5.08-.73.27-.04.04-.12.12-.19.15-.04-2.53-.04-4.68-.04-6.45h0ZM78.18,47.7c-.08-.19-.15-.35-.19-.5.11-1.96.23-3.45.27-4.49.35.65.46,1.8.35,3.42-.04.58-.12,1.34-.23,2.23-.04-.23-.11-.46-.19-.65h0ZM70.96,45.79c-.15.11-.38.34-.65.69.19-2.11.42-3.95.73-5.56.11,1.34.15,3.22.19,5.6-.08-.31-.15-.54-.27-.73h0ZM59.18,45.79c-.27.11-.46.42-.58.96-.46-.69-.73-1.23-.81-1.61.27-.08.58-.23.88-.42,0,.5.15.88.5,1.08h0Z"/>
    <path class="cls-4" d="M65.13,27.67c.04.11.12.15.19.19.19-.04.31-.12.42-.19h-.61Z"/>
    <path class="cls-4" d="M32.05,16.27h-2.15c.27,2.34.81,4.34,1.65,5.99.5-.35.77-1.11.77-2.23-.11-1.5-.19-2.73-.27-3.76h0Z"/>
    <path class="cls-4" d="M29.59,16.73c0-.15,0-.31-.04-.46h-1.53c.04.65.11,1.34.15,2.15.31,2.88.77,4.34,1.34,4.34.46,0,.58-.04.31-.11.12-.23.19-.69.19-1.34-.19-2.04-.35-3.53-.42-4.57h0Z"/>
    <path class="cls-4" d="M25.83,16.27h-1.11c.08.58.15,1.15.19,1.8,0,.42-.04.5-.08.19v-.04c-.15-.73-.27-1.38-.38-1.96h-5.95c-.15.08-.31.15-.42.23-.08-.08-.15-.15-.19-.23h-1.65c-.08.19-.11.46-.11.73.04.38.04.96.08,1.73-.04.35-.27.81-.69,1.31-.23.27-.65.81-1.23,1.53-.12-.27-.19-.42-.23-.54-.12-.19-.27-.27-.5-.27-.27,0-.46.04-.54.08-.04.04-.08.08-.11.08,0,.5-.04.77-.08.81-.19-.12-.42-.15-.73-.15-.27.04-.42.04-.5.04,0,.96-.08,1.88-.23,2.8l-.77-1.15-.54.34-.58,4.07h4.3c-.08-1.08-.11-1.88-.11-2.42h.04c.11.88.19,1.69.27,2.42h1.3c-.04-1.54-.08-3.19-.04-4.99.08.77.19,2.34.35,4.76,0,.08,0,.15.04.23h6.99v-.58c.34,0,.5.04.5.11-.08.15-.15.31-.19.46h1.11v-.04c.08-.5.11-.84.11-1.04v-.04s.12.04.15.04c.27,0,.38,0,.42-.04,0-.04.04-.12.08-.15.08-.27.12-.69.12-1.27v-.65s-.04-.11-.04-.19h.11c.23,0,.38-.04.42-.15,0-.11,0-.15.04-.15v-1.31s.12.08.19.12c.27.12.54.15.73.04.04-.42.04-.88.08-1.42v-1.46l.08.12c0,.77,0,1.23.04,1.34.12.73.42,1.07.92,1.07h.08c.19,0,.35-.04.38-.11,0-.08,0-.12.04-.12v-3.65l-.46-2.34h-1.38c.04.35.04.61.04.73l-.04,1.27c-.12-.69-.23-1.34-.31-2h0ZM17.23,17.96c.15.27.31.77.46,1.53.15.73.23,1.23.23,1.53v.38h-.42c-.19-1.07-.27-2.22-.27-3.45h0ZM21.49,20.23s.04.08.04.11v.27c0-.11,0-.27-.04-.38h0ZM21.57,21.3c.19.31.27.77.27,1.34h-.08c-.11-.65-.19-1.07-.19-1.34h0Z"/>
    <path class="cls-4" d="M32.24,16.27c.04.46.04.96.08,1.5.19,2.38.54,4.3,1.04,5.76l.46-.19.04-1.54c-.15-2.11-.27-3.95-.35-5.53h-1.27Z"/>
    <path class="cls-4" d="M34.27,16.27c.04.23.08.46.12.73.42,2.49.61,4.45.5,5.91.58.04,1.08.42,1.42,1.19.42.96.81,1.53,1.15,1.77.15-.08.31-.15.5-.27v-1.34c-.19-1.3-.27-3.3-.27-5.99.08.12.12.23.12.35.08.81.15,2.53.19,5.26.15,2.34.58,3.49,1.23,3.49.46,0,.58-.04.35-.11.11-.19.19-.62.19-1.19-.19-1.84-.42-3.76-.65-5.72-.19-1.54-.31-2.88-.38-4.07h-4.45ZM35.65,18.81c.12.58.19,1.11.19,1.54-.12-.58-.19-1.07-.19-1.46v-.08h0Z"/>
    <path class="cls-4" d="M16.23,16.27h1.65c-.38-.42-.69-.69-.92-.88-.35.23-.61.54-.73.88h0Z"/>
    <path class="cls-4" d="M22.91,27.67c-.04.19-.08.38-.12.58,0,.46.19.77.58.92.08-.04.15-.04.23-.08.11-.04.19-.12.27-.19,0-.34.04-.73.15-1.23h-1.11Z"/>
    <path class="cls-4" d="M15.28,27.67h-1.3c.12,1.5.19,2.61.19,3.34,0,.77-.04,1.27-.08,1.46v-.04c-.15-1.96-.27-3.53-.31-4.76h-4.3l-.5,3.15-.12-.27c-.08-.88-.27-1.46-.57-1.65l-.54.31c-.04,1.08-.15,2.92-.38,5.56-.15,1.73-.27,3.19-.31,4.3h3.22c-.15-1.73-.23-3.65-.23-5.83v-.04c.46,2.76.73,4.72.84,5.87h1.19l.04-1.54c.12.5.19,1.04.23,1.54h1.23c.04-.77.08-1.3.08-1.61v-.04c.11.58.23,1.15.27,1.65h3.57v-.04c.15-1.73.23-3.03.23-3.91v-.08c.12,1.19.19,2.53.23,4.03h5.18c-.04-.12-.04-.19-.04-.31-.04-.42.04-1,.23-1.73.04-.12.04-.19.08-.27.04.35.15,1.08.35,2.15,0,.04,0,.12.04.15h1.8c-.5-1.5-.92-2.57-1.23-3.26-.38-.81-.65-1.11-.81-.85-.08-.5-.19-1.15-.38-1.96-.27-1.34-.46-2.11-.57-2.38v-2.95h-6.99c.12,2.15.23,3.76.34,4.8v5.37h-.08c-.35-2.34-.58-5.76-.61-10.17h0ZM11.01,32.16c-.11-1.15-.19-2-.19-2.49v-.04c.12.58.19,1.42.19,2.53h0ZM19.27,38.03c-.15-.77-.23-1.65-.23-2.69v-.04c.15,1,.23,1.92.23,2.73h0Z"/>
    <path class="cls-4" d="M12.09,39.07h-1.19c.04.31.04.58.04.77,0,.46-.15.88-.42,1.23-.12-.61-.19-1.27-.23-2h-3.22c-.04.5-.04.96-.04,1.34,0,2.34.19,4.64.54,6.91.12.88.31,1.92.58,3.15h4.11c-.08-.96-.12-1.5-.12-1.61,0-1.04.08-1.77.23-2.11.19,1.27.27,2.49.19,3.72h4.76c-.04-1.34-.08-2.65-.08-3.99v-.04c.27,1.23.42,2.23.54,2.96-.04.12-.04.23-.04.31,0,.19.04.46.08.77h4.8c.08-.42.15-.84.19-1.34l.15.69c.04.27.15.46.27.65h.96c.34-.42.54-1.04.65-1.88.08-1.34.15-2.22.27-2.72l.08.15c0,.81,0,1.27.04,1.42.11.58.34.96.77,1.15.46-.27.77-.81.88-1.61.04-.35.08-.96.08-1.84.58,0,1-.19,1.23-.58.04.04.08.27.15.65.15.38.42.58.81.58.35,0,.61-.19.77-.58.15-.58.27-1.04.38-1.42.15-.04.31.04.42.19.19.31.35.5.38.54l.27-.11s.08-.04.12-.08c.04-.04.08-.19.08-.46,0-.15-.23-.84-.65-2.03-.04-.19-.11-.35-.19-.46-.19-.5-.38-.88-.5-1.11-.12-.23-.23-.34-.31-.34-.27,0-.46.04-.5.08-.04.04-.08.11-.15.23-.04.27-.12.65-.27,1.11-.19.5-.27.81-.31.92-.46-.27-.88-.88-1.27-1.84-.35-.85-.65-1.27-.84-1.27-.27,0-.42,0-.42.04h.04c-.08.12-.19.31-.31.65-.12-.27-.19-.5-.27-.77h-1.8c.23,1.57.35,2.53.35,2.96,0,1.88-.15,3.99-.46,6.25-.08-.19-.15-.27-.19-.27-.12-1.27-.19-2.23-.31-2.96.12-1.65.19-2.76.19-3.34-.12-1.11-.19-2-.23-2.65h-2.07c.15.69.27,1.69.38,3.03.08,1.04.11,1.84.11,2.34l-.04,2.96c-.19-2.5-.35-5.22-.46-8.25v-.08h-3.11c.04,1.07,0,2.23-.04,3.45-.27-1.8-.42-2.96-.42-3.45h-3.57c.04.65-.04,1.23-.15,1.73l-.11-.27c-.12-.19-.15-.5-.15-.96.04-.19.04-.34.08-.5h-1.23c.04.88.04,1.77-.04,2.69-.19-.65-.31-1.19-.31-1.57l.08-1.11h0ZM18.38,46.94c0-.19.12-.5.35-.92.19-.42.31-1.08.31-1.88.08.5.15,1.23.27,2.19l-.04-.04c-.31.15-.61.58-.88,1.23v-.58h0ZM15.16,45.82c0,.81-.23,1.54-.69,2.15l-.04-.15c.35-.42.54-1,.54-1.73v-1.54c.12.73.19,1.15.19,1.27h0ZM10.79,48.59l-.08-.04c-.12-.5-.19-.81-.19-.92v-.12c.19.19.27.54.27,1.07h0Z"/>
    <path class="cls-4" d="M42.99,27.67h-2.26c.08.5.19,1,.31,1.5.19-.11.38-.23.54-.35v-.54l.12.31s0,.65.04,1.77c.04.58.19,1,.38,1.27.12.15.23.27.38.31.04.04.12.04.19.04.46,0,.65-.08.58-.19.04-.27.08-.58.08-.96,0-.42-.12-1.46-.35-3.15h0Z"/>
    <path class="cls-4" d="M23.64,50.89c.19-.12.38-.23.54-.42h-.96c.11.15.27.31.42.42h0Z"/>
    <path class="cls-4" d="M68.97,62.21c0,.08,0,.23-.04.42.04.12.12.23.27.27.15.73.23,1.19.23,1.38,0,.15-.04.61-.12,1.42h2.3c-.12-1.11-.15-2-.15-2.65h.19c.11.73.23,1.61.27,2.65h1.11c-.04-.58-.04-1.04-.04-1.38.19.15.35.38.46.69.04.15.31.23.73.23.27,0,.42,0,.46-.04-.04-.04-.08-.08-.04-.11.11-.35.19-.85.19-1.57,0-.04-.04-.19-.08-.5.27-.23.46-.61.65-1.11h-2.38v.11c0,.27-.08.42-.23.42-.19-.04-.31-.04-.38-.04-.15-.19-.31-.35-.42-.5h-7.41c0,.34.08,1.04.19,2-.35.15-.61.38-.77.65-.31.46-.69.84-1.15,1.11-.11-.31-.23-.54-.27-.65-.11-.19-.31-.31-.65-.31s-.65.31-.88.92v.08h7.87l-.04-.04c-.12-.81-.23-1.42-.27-1.84-.11,0-.19,0-.27.04.04-.31.04-.65.08-1.04.12-.08.23-.15.27-.23.11-.15.23-.27.31-.38h0Z"/>
    <path class="cls-4" d="M46.9,61.91c.04.11.04.19.04.27,0,1.07.15,2.26.5,3.53h3.72l-.04-.04c-.19-.92-.35-1.61-.54-2.07-.35-.88-.92-1.07-1.77-.61-.15-.42-.31-.77-.42-1.07h-1.5Z"/>
    <path class="cls-4" d="M54.96,64.98c-.23-.5-.58-.77-1.04-.77-.5,0-.77.38-.85,1.15-.04.11-.04.23-.04.34h2.53c-.27-.12-.46-.34-.61-.73h0Z"/>
    <path class="cls-4" d="M47.44,65.7c.35,1.27.5,2,.5,2.11v.42h-.08c-.08-.11-.34-.69-.77-1.73t-.04-.04v-.08s.04-.08.08-.12c.04-.08.08-.27.08-.54v-.04h-1.77c.5,1.11,1.08,2.38,1.69,3.8h4.76c-.08-.92-.12-1.5-.12-1.77,0-.38.04-.65.08-.77h.04c.11.46.31,1.31.58,2.53h3.57c-.08-.81-.12-1.5-.15-2.11h.12c.04.23.19.92.38,2.11h1.27c-.15-.73-.23-1.15-.23-1.19,0-.27.04-.46.12-.65.04-.19.08-.27.08-.31l.12.15c.04.08.11.73.27,2h1.57c.12-.96.15-1.69.15-2.15.11.58.27,1.27.46,2.15h1.69c-.08-.65-.12-1.23-.12-1.69,0-.69.04-1.15.08-1.38l.04.08c.11.73.19,1.73.31,2.99h1.46c-.04-.61-.04-1.23-.04-1.84.08.5.15,1.11.19,1.84h1.42c-.27-1.92-.39-3.07-.39-3.45.08.12.15.23.19.38.12,1.34.19,2.34.27,3.07h4.61v-.12l.04.12h1.15c.04-.46.15-.84.27-1.15.27-.65.38-1.04.38-1.15-.04-.54-.08-1.04-.11-1.5h-2.3c-.04.15-.04.31-.08.5-.12-.15-.23-.31-.34-.5h-7.87c-.11.31-.23.65-.34,1.07-.12-.23-.23-.42-.31-.58-.19-.27-.38-.42-.65-.46-.27.08-.54.31-.77.69-.11.19-.23.34-.27.54-.04-.81-.31-1.23-.88-1.23s-.92.27-1.04.77c-.5-.5-.77-.77-.88-.77s-.19,0-.31-.04h-2.53c-.04.27-.04.61-.04,1-.31-.31-.92-.65-1.84-1h-3.72ZM50.16,66.32v-.08c.04.08.12.27.31.54.19.31.27.61.27.88,0,.19,0,.35-.04.46l-.08-.08-.46-1.73h0Z"/>
    <path class="cls-4" d="M45.44,65.7h1.77c-.31-1.27-.65-2.53-1.04-3.8h-7.45c-1.07,1.34-1.73,2.23-2,2.65-.08-.08-.31-.65-.73-1.69-.19-.46-.38-.77-.58-.96h-1.08c-.08.04-.11.08-.15.08l-.04.65-.11,1.77c-.42-.19-.88-.19-1.46-.08-.04.34-.04.81-.04,1.38h12.9v-.04.04h0ZM35.54,65.67c-.23-.88-.34-1.46-.38-1.73.19.27.42.84.69,1.73h-.31Z"/>
    <path class="cls-4" d="M45.44,65.94v-.23h-12.9c-.04.19-.04.38-.04.58-.12.65-.61,1.08-1.42,1.27-.08-.42-.15-.77-.23-1-.15-.35-.46-.54-.96-.54-.12,0-.31.12-.58.38-.27.27-.46.38-.58.38s-.31-.12-.5-.38c-.23-.27-.46-.38-.65-.38-.35,0-.62.19-.77.61-.08.19-.12.42-.12.65-.58-.42-.96-.92-1.23-1.57h-3.11c.15.96.35,2.23.61,3.8h1.77c-.23-1.42-.35-2.3-.35-2.69l.04.15c.11.5.27,1.34.46,2.53h2.61v-.38c0-.27.04-.5.12-.73.04-.27.08-.42.08-.54h.08c.08.46.15,1,.23,1.65h2.15c-.11-.65-.15-1.11-.15-1.38v-.08c.23.5.38.96.5,1.46h1.04v-.31c0-.27.04-.42.08-.46.08-.04.11-.08.11-.12v-.04c.04.27.08.58.08.92h11.82c-.04-.15-.04-.27-.04-.38h.04c.04.12.12.23.15.38h1.07v-.38l.08.08c.04.08.11.19.15.31h1.11c-.12-.38-.23-.88-.38-1.5-.27-.92-.38-1.61-.38-2.07h0ZM43.45,67.78l.08.5c.04.27.04.5,0,.61v-.04c-.04-.27-.08-.61-.08-1v-.08h0Z"/>
    <path class="cls-4" d="M73.04,65.7h-1.11c.04,1,.08,2.15.08,3.49l.65.12c.42,0,.61-.08.54-.19l.08-.5c-.12-1.19-.19-2.15-.23-2.92h0Z"/>
    <path class="cls-4" d="M18.35,62.1s-.04-.11-.04-.19h-2.11v.57c0,.88-.11,1.69-.31,2.38-.04-.34-.19-1-.5-1.96-.12-.38-.19-.73-.27-1h-1.5c.27.73.54,1.53.84,2.42.19.5.34.96.54,1.38h5.64c-.12-.58-.19-1.04-.31-1.42-.23-.81-.54-1.31-.96-1.5-.04-.31-.04-.61-.08-.88h-.81v.38h-.04c-.04-.08-.08-.15-.12-.19h0Z"/>
    <path class="cls-4" d="M21.46,61.91h-1.5c.31,1.34.58,2.53.81,3.49v.31h1.08v-1.96h.11c.12.42.23,1.07.42,1.96h3.11c-.04-.12-.08-.27-.12-.38-.15-.58-.5-.84-1.08-.84-.27,0-.5.04-.61.15-.04.04-.15.15-.31.35-.42-1.27-.88-2.3-1.38-3.07h-.46s-.04.04-.08.08v-.08h0Z"/>
    <path class="cls-4" d="M21.84,65.7h-1.08l.04.92h-.04c-.04-.35-.08-.65-.12-.92h-5.64c.61,1.57,1,2.34,1.19,2.34.42,0,.58-.04.38-.11,0-.04,0-.08.04-.12.69.12,1.11.69,1.3,1.69h1.8c-.04-.42-.08-.77-.12-1.11.08-.04.15-.11.19-.15v-.61c.12.54.23,1.15.35,1.88h2.07c-.04-.27-.11-.5-.19-.77.11-.12.23-.23.31-.38-.19-.54-.35-1.04-.5-1.46v-1.19h0Z"/>
    <path class="cls-4" d="M43.83,69.62c-.08,0-.12,0-.15.04-.04-.04-.04-.12-.04-.15h-11.82c0,.23-.04.46-.08.73v-.04c-.11-.15-.15-.38-.19-.69h-1.04c.04.19.04.42.04.65,0,.5-.04.88-.08,1.11v-.08c-.12-.65-.23-1.23-.31-1.69h-2.15c.11,1.04.27,2.3.46,3.8h17.23c.12-.35.23-.73.42-1.23v-.08c.15.35.31.81.42,1.31h3.72c-.04-.12-.04-.23-.04-.35h.27c0,.12,0,.23.04.35h1.65c-.12-.5-.15-.88-.15-1.15-.08-1.07-.11-1.96-.15-2.65h-4.76c.19.38.34.81.54,1.23l-.11.08c-.19-.11-.35-.34-.54-.73-.15-.35-.35-.5-.61-.5h-.19v-.08h-1.11c.04.12.08.31.12.54.12.35.35.61.69.81h.04c-.04.12-.12.23-.19.35-.23.35-.5.58-.77.77,0-.58,0-1.04-.04-1.38-.04-.19-.08-.35-.12-.46.04-.19.04-.38.04-.61h-1.07s0,.08.04.12h0ZM42.18,69.58h.08c.12.65.27,1.23.42,1.73-.08.04-.15.11-.19.23-.11-.73-.23-1.38-.31-1.96h0Z"/>
    <path class="cls-4" d="M22.22,69.5h-2.07c.08.34.15.73.23,1.15.31,1.19.61,2.07.92,2.65h1.31v-1.73c-.08-.65-.19-1.34-.38-2.07h0Z"/>
    <path class="cls-4" d="M24.75,69.5h-1.77c.04.27.08.58.12.88.19,1.19.42,2.19.65,2.92h1.65c-.08-.5-.23-1.42-.46-2.76-.08-.38-.15-.73-.19-1.04h0Z"/>
    <path class="cls-4" d="M17.92,69.5v.04c.19,1.27.54,2.07,1.11,2.34.42-.19.65-.46.73-.77.04-.12.04-.42.04-.96-.04-.23-.04-.46-.08-.65h-1.8Z"/>
    <path class="cls-4" d="M24.91,69.5c.12.77.23,1.69.42,2.72.08.38.15.73.23,1.08h2.34c-.04-.19-.08-.35-.11-.5-.15-.81-.23-1.88-.27-3.3h-2.61Z"/>
    <path class="cls-4" d="M65.21,69.5h-1.42c.04.81.12,1.8.15,2.96.04.27.08.57.12.84h2.46v-.08s0,.04.04.08h1.38c0-.35.04-.73.08-1.11.04.08.12.23.15.42.08.19.27.31.54.31s.42-.04.5-.12c.04-.12.08-.15.12-.15.08-.38.12-.84.12-1.34v-.54c.19-.31.34-.73.46-1.27h-4.61c0,.19,0,.38.04.54.08.46.15.92.23,1.34,0,.15,0,.34-.04.54-.04-.38-.12-.77-.15-1.19s-.11-.84-.15-1.23h0Z"/>
    <path class="cls-4" d="M63.63,69.5h-1.46c.04.5.04,1.04.08,1.65.08.81.23,1.5.42,2.15h1.3c-.19-1.31-.31-2.57-.34-3.8h0Z"/>
    <path class="cls-4" d="M69.93,69.5c0,.42,0,.65.04.77.04.42.23.77.5,1.11.15-.04.31-.15.5-.27,0-.61.04-1.15.12-1.61h-1.15Z"/>
    <path class="cls-4" d="M59.56,69.5h-1.57c.12.81.23,1.84.42,3.19.04.19.08.42.12.61h1.15c-.15-.96-.23-1.96-.23-3.07.04-.27.08-.5.12-.73h0Z"/>
    <path class="cls-4" d="M57.65,69.5h-1.27c.15.96.35,2.23.58,3.8h1.38c-.04-.5-.19-1.34-.42-2.5-.11-.5-.19-.96-.27-1.3h0Z"/>
    <path class="cls-4" d="M60.18,69.5c.12.73.27,1.53.46,2.49.12.42.19.88.31,1.31h1.31v-.58c-.19-1.27-.31-2.34-.38-3.22h-1.69Z"/>
    <path class="cls-4" d="M56.03,69.5h-3.57c.19,1,.42,2.26.69,3.8h3.45c-.04-.15-.04-.31-.08-.46-.19-1.27-.38-2.38-.5-3.34h0Z"/>
    <path class="cls-4" d="M41.83,56.42c0,1.11-.58,2.38-1.77,3.8-.5.61-.96,1.19-1.34,1.69h7.45c-.04-.15-.08-.31-.12-.42-.92-2.8-1.69-4.18-2.34-4.18-.27,0-.46,0-.54.04-.04.04-.08.04-.12.04-.11-1-.54-1.5-1.19-1.5-.04.23-.04.42-.04.54h0Z"/>
    <path class="cls-4" d="M34.35,61.91h1.08c-.19-.19-.35-.27-.54-.27-.08,0-.15,0-.19.04-.15.04-.27.08-.31.15t-.04.08h0Z"/>
    <path class="cls-4" d="M17.81,50.47c.04.38.08.88.19,1.46v1.61c0,1.38-.08,2.57-.27,3.57l-.04-.08c-.19-2.19-.35-4.37-.38-6.56h-4.76c-.04.54-.12,1.07-.19,1.57v-.04c-.04-.58-.08-1.11-.12-1.54h-4.11c.27,1.19.58,2.53.92,4.03l.38-.15.15-.42c.27.46.65,1.34,1.07,2.69.35,1.15.77,2,1.19,2.49.27-.11.5-.27.61-.46.08-.19.11-.35.15-.38.19.96.54,2.19,1,3.65h1.5c-.08-.42-.12-.77-.12-1.04.15-2.3.19-3.95.12-4.99v-.04c.46,1.65.73,2.8.84,3.38.12.73.19,1.65.23,2.69h2.11c-.04-.12-.04-.23-.04-.38,0-.27.04-.42.08-.46.04,0,.08-.04.12-.12l.04.96h.81c-.23-2.26-.38-3.99-.5-5.26v-.31c.15.88.34,1.88.58,2.92.19.96.38,1.84.58,2.65h1.5c-.08-.35-.15-.81-.23-1.31-.23-1.5-.34-2.34-.34-2.53,0-1.53.19-2.99.58-4.41.04-.23.11-.46.19-.65h.04c.46,0,.61-.04.42-.12.19-.65.35-1.46.5-2.42h-4.8Z"/>
    <path class="cls-4" d="M21.53,61.91h.46c-.04-.12-.11-.19-.15-.27-.12.08-.19.15-.31.27h0Z"/>
    <path class="cls-4" d="M22.61,73.3h-1.31c.27.42.54.65.81.65s.42-.04.46-.12c0-.11,0-.15.04-.15v-.38h0Z"/>
    <path class="cls-4" d="M25.22,74.84c.15-.23.23-.61.23-1.11,0-.04,0-.19-.04-.42h-1.65c.35,1.11.69,1.65,1.04,1.65.27,0,.42,0,.46-.04t-.04-.08h0Z"/>
    <path class="cls-4" d="M26.71,75.72c.5,0,.73.15.73.5,0,.54.27,1.04.81,1.54.19-.08.38-.19.5-.31-.15-.81-.42-2.19-.84-4.14h-2.34c.38,1.61.77,2.42,1.15,2.42h0Z"/>
    <path class="cls-4" d="M28.48,73.3v.04c.31,2.11.73,3.84,1.3,5.18.15,0,.31-.08.5-.23-.19-1.15-.27-1.96-.27-2.46h.08c.04.19.19.88.42,2.07.27,1.11.61,1.69,1.04,1.69.27,0,.42-.04.46-.11l.08-.15v-.81l.19.35s.08.27.12.61c.04.27.19.58.46.84.19-.08.38-.19.5-.31-.19-1.42-.27-2.42-.27-3.03.12.19.31.81.65,1.84.27.84.54,1.42.88,1.76.19-.04.31-.11.38-.19.04-.35.08-.88.04-1.69-.04-.65,0-1.15.11-1.46.04.81.31,1.69.77,2.72.5,1.08.92,1.61,1.27,1.61.27,0,.42-.04.46-.08.04-.08.12-.12.15-.12.12.04.15-.15.15-.58,0-.23-.15-1.04-.42-2.42-.31-1.57-.5-2.61-.54-3.07.11.19.38,1,.88,2.42.34,1.08.73,1.84,1.11,2.3.23-.08.42-.27.58-.61.19,1.11.54,1.65.96,1.65.46,0,.58-.04.38-.15.08-.65.12-1,.15-1.04.08-.12.42-.42,1.04-.92.12.31.31.81.5,1.5.23.58.46.92.73,1.11.19-.08.38-.19.5-.31-.08-.65-.15-1.27-.23-1.84.77,2.61,1.34,4.37,1.77,5.26.23-.12.42-.23.54-.35v-2.07c-.08-.61-.08-1.23.04-1.84.11-.81.19-1.31.19-1.57h.08c.5,2,1,2.99,1.46,2.99.27,0,.42-.04.46-.08-.04-.08-.04-.11,0-.11.04-.5.08-1.23.08-2.23,0-.58-.08-1.73-.27-3.53h.08c.12.27.31,1.15.65,2.73.35,1.46.73,2.19,1.08,2.19.46,0,.61-.04.42-.15l.08-.54c.19-1.84.27-2.99.27-3.45,0-.65-.08-1.77-.23-3.38h-3.72c.11.46.19,1,.27,1.61.19,1.8.31,2.84.38,3.19l-.11.04c-.08-.38-.35-1.15-.81-2.34-.46-1.15-.69-1.76-.69-1.8,0-.19.04-.42.12-.69h-17.23ZM30.01,75.34h-.12c-.08-.19-.12-.42-.12-.77l.23.77h0ZM32.89,76.18c-.19-.92-.31-1.5-.38-1.69v-.12c.19.42.34,1,.38,1.8h0Z"/>
    <path class="cls-4" d="M78.68,50.47h-2.15c-.04.31-.11.65-.15,1-.15.88-.35,2-.62,3.41-.19-.92-.27-1.5-.27-1.69-.04-.96-.04-1.84-.04-2.73h-2.53c.12,1.23.31,3.34.61,6.29v.77c-.15-.65-.23-1-.27-1-.19,0-.38-.08-.58-.19,0-.12,0-.19-.04-.27-.27-1.53-.42-2.65-.42-3.38.04-.77.04-1.5.08-2.23h-1.38c-.04,1.42-.12,2.69-.23,3.88-.34-1.65-.5-2.8-.5-3.46,0-.12,0-.27.04-.42h-1.57c-.15,1.73-.23,2.65-.23,2.73h-.08c-.11-.96-.19-1.84-.23-2.73h-1.5c0,.58,0,1.15.04,1.77.04,2.15.19,4.07.42,5.76-.12.27-.23.54-.27.88-.04-.73-.27-1.34-.73-1.84l-.31-6.56h-2.69c.58,3.45,1.08,6.45,1.46,9.02l.19.04c-.04.08-.08.15-.11.23-.04.19-.08.88-.08,2.07v.08h7.41l-.04-.04.12.04h.38c.23-.04.34-.15.34-.31v-.96l.04.15c.04.12.08.46.19,1.11h2.38c.08-.31.15-.65.23-1,.12-.96.23-1.65.31-2.11.04.04.12.04.15.04h.27c.08.12.15.19.27.27,1.34-3.3,2-6.18,2.03-8.6l.04-.04h0Z"/>
    <path class="cls-4" d="M46.52,59.99s-.08.08-.12.08c.04.27.12.61.31,1.11.12.27.15.54.19.73h1.5c-.54-1.34-1-2.04-1.34-2.04-.27,0-.42.04-.54.12h0Z"/>
    <path class="cls-4" d="M58.34,73.3h-1.38c.08.5.15,1,.23,1.57.5,3.34,1,4.99,1.5,4.99.42,0,.58-.08.38-.23.08-.19.11-.42.11-.69,0-.58-.11-1.34-.38-2.34-.27-.96-.42-1.96-.42-2.92,0-.12,0-.23-.04-.38h0Z"/>
    <path class="cls-4" d="M55.88,76.57h.04c0,.27,0,.73-.04,1.38.08.58.42.84,1,.84.46,0,.57-.04.34-.11l.19-.35c-.08-.65-.35-2.34-.81-5.03h-3.45c.12.84.27,1.8.46,2.84.65,3.8,1.23,5.72,1.73,5.72.27,0,.46-.04.5-.15,0-.12,0-.15.04-.15-.08-.65-.12-1.5-.08-2.53.04-1.11.08-1.96.08-2.46h0Z"/>
    <path class="cls-4" d="M60.22,77.45v-1.88c-.23-.73-.42-1.46-.54-2.26h-1.15c.27,1.8.65,3.26,1.19,4.45.19-.08.38-.19.5-.31h0Z"/>
    <path class="cls-4" d="M61.75,76.49c.19-.08.38-.19.5-.31v-2.88h-1.31c.27,1.19.54,2.26.81,3.19h0Z"/>
    <path class="cls-4" d="M62.67,73.3c.23.84.54,1.57.92,2.15.19-.08.35-.19.46-.31v-1.34c-.04-.19-.04-.34-.08-.5h-1.3Z"/>
    <path class="cls-4" d="M52.46,74.53c-.12-.5-.23-.88-.27-1.23h-1.65c.04,1.46.19,2.76.42,3.95.35,1.73.77,2.61,1.34,2.61.42,0,.54-.08.34-.23.12-.38.19-1.04.19-1.92,0-.96-.12-2.03-.38-3.18h0Z"/>
    <path class="cls-4" d="M67.93,73.3h-1.38c.19,1.19.54,2.07,1.07,2.69.27-.11.42-.31.54-.54-.15-.69-.23-1.42-.23-2.15h0Z"/>
    <path class="cls-4" d="M66.55,73.73c-.04-.12-.04-.27-.04-.42h-2.46c.19,1.5.61,2.73,1.27,3.68.19-.04.35-.08.46-.19.04-.27.08-.58.08-.96s-.04-1.04-.12-1.92l.23.04c.42,0,.61-.08.58-.23h0Z"/>
    <path class="cls-3" d="M61.75,25.18c-.15-.46-.42-.77-.77-.88-.08.04-.15.04-.23.08-.04.04-.04.11-.04.15.04.15-.12.23-.46.27-.08.12-.11.27-.11.46-.04.62-.08.96-.19,1.04-.35-.81-.69-1.23-1.04-1.23-.27,0-.42.04-.42.08.04,0,.08,0,.12.04-.12.23-.27.54-.46.96.04-.81.04-1.42.04-1.88-.04-.84-.27-1.42-.77-1.77-.69.42-1.11,1.11-1.3,2.07-.27,1.34-.42,2.03-.46,2.11h-.04c.19-1.77-.11-2.65-.88-2.65-.04,0-.11,0-.15.04v.19l-.5.31s-.04-.11-.08-.19c-.23.23-.42.58-.61,1.07-.04.08-.19.65-.46,1.77l-.15-.27c.15-1.27-.15-1.88-.88-1.88-.54,0-.92.34-1.15,1.07-.12.35-.23.81-.31,1.34-.08-.65-.15-1.15-.19-1.5-.08-.5-.35-.84-.77-1.07-.19.92-.34,1.77-.5,2.49,0,.42-.12.77-.38,1.04.19.12.04.19-.38.19-.12,0-.23-.12-.35-.34-.61,1.61-1.07,3.03-1.34,4.22h4.26c.35-2.88.65-4.72.92-5.53.19,1.61.27,3.46.15,5.53h1.15c.04-.58.12-1.15.23-1.65.46-1.69.88-3.34,1.27-4.95.19,1.77.19,3.95-.08,6.6h3.57c.08-.58.19-1.38.38-2.34.31-1.5.5-2.49.54-2.92v-.04c.27,1.08.35,2.26.27,3.53-.04.65-.11,1.23-.23,1.77h3.19l.31-2.19h.08v2.19h1v-.35c.46.15.8.12,1.07-.08.15-.19.27-.42.34-.73.04-.15.08-.35.08-.54-.12-1.34-.19-2.11-.19-2.3.04-.58,0-1.15-.11-1.65-.27-1.04-.88-1.54-1.8-1.54-.27,0-.46.08-.54.23-.23.46-.34.73-.38.77-.11-.69-.19-1.08-.23-1.15h0ZM60.91,26.98v-.04c.11.58.11,1.23,0,2-.12.92-.35,1.65-.69,2.19.42-2.57.65-3.95.69-4.15h0ZM57.07,28.4c-.11-.11-.34-.23-.69-.34l.69-2.88c.08,1,.08,2.07,0,3.22h0ZM62.52,30.17v-1.15l.19-.73v-.08c.08.54,0,1.19-.19,1.96h0ZM49.13,26.94h.08c.19.81.23,1.34.19,1.65-.27-.12-.46-.19-.5-.27l.23-1.38h0Z"/>
    <path class="cls-3" d="M54.42,32.51c-.04.12-.04.23-.04.35-.23,2.42-.58,4.83-1.07,7.18.15-1.11.11-2.15-.08-3.03-.27-1.04-.38-1.69-.38-1.88,0-.96.04-1.8.15-2.61h-1.15c-.19,3.15-.77,6.83-1.69,11.09h2.88v-.04c.12-.65.35-.96.61-.96.61,0,1.23-1.5,1.8-4.49.5-3.15.81-4.83.88-5.1.19.65.27,1.34.27,2,0,1.65.08,2.69.27,3.11l.31-.12c.35-.88.5-1.73.5-2.46.34.08.61.08.84,0,.12-.04.27-.11.38-.19,0,.35.19.58.54.73.19-.12.38-.23.5-.35-.04-.5,0-1.04.19-1.61.35-.88.5-1.34.5-1.38v1.46c0,.54.19,1,.58,1.34.19,0,.35-.08.54-.23l.38-2.8h-3.19c-.19.81-.5,1.46-.84,1.96l-.15-.12v-1.15c0-.19,0-.42.04-.69h-3.57Z"/>
    <path class="cls-3" d="M50.39,35.65c.12-1.19.27-2.23.38-3.15h-4.26c-.23.88-.35,1.69-.38,2.34-.04-.12-.08-.23-.15-.31-.12-.19-.35-.27-.61-.27-.73,0-1.31,1.92-1.77,5.76-.15,1.27-.27,2.38-.38,3.34l.12-4.61c0-1.92,0-3.07-.04-3.49-.08-.96-.27-1.88-.58-2.76h-2.65c.12,1.5.19,2.8.15,3.87-.08-.11-.15-.42-.27-.84-.08-.38-.23-.73-.46-1-.34.19-.58.31-.61.31v-.19c.04-.42.19-1.15.5-2.15h-1.61c.08,2.03.04,4.45-.15,7.18-.12,1.42-.19,2.72-.23,3.91h4.64v-9.4c.27,3.03.27,6.14,0,9.4h7.64c0-.96.23-3.61.73-7.94h0ZM45.37,36.11v-.04c.46.73.65,1.8.58,3.19-.04.77-.15,1.88-.35,3.34-.35-2.34-.54-3.88-.54-4.64,0-.19.12-.81.31-1.84h0Z"/>
    <path class="cls-3" d="M62.79,34.27c.19-.04.38-.15.61-.27.08-.42.12-.92.12-1.5h-1v.35c-.27.42-.19.88.27,1.42h0Z"/>
    <path class="cls-3" d="M33.5,26.06c-.11.15-.23.31-.34.42-.04-.61-.08-1.11-.15-1.54-.12-.73-.42-1.23-.96-1.42-.61.5-1,1.27-1.11,2.23-.08.5-.15,1.23-.23,2.11h-.04c-.19-1.38-.84-2.72-1.88-4.07-.5-.5-.88-.96-1.23-1.31h-.08c-.5,0-.81-.34-.92-1.07-.04-.04-.08-.04-.12,0-.04.54-.04,1-.08,1.42-.19.11-.46.08-.73-.04-.08.12-.15.27-.19.38v.81s-.04.04-.04.15c-.04.11-.19.15-.42.15-.04.08-.08.15-.08.19v.65c0,.58-.04,1-.12,1.27-.04.04-.08.12-.08.15-.04.04-.15.04-.42.04-.04,0-.11,0-.15-.04v.04c0,.19-.04.54-.11,1.04-.12.5-.15.92-.15,1.27-.08.08-.15.15-.27.19.04.61.19,1.5.42,2.61.04.27.11.54.19.81h1.73c.19-1.07.27-2.3.31-3.72.04-2.92.27-4.95.69-6.14.08.08.15.19.27.31v7.67c-.04.42-.12,1.04-.19,1.88h4.49c.15-2.73.31-5.11.5-7.14l.04.34c.15,1.27.23,3.53.23,6.79h1.11v-.35c.19-1.11.38-2.76.65-4.91.11.88.27,2.11.38,3.68.04.61.11,1.15.15,1.57h1.84c.27-1.88.54-3.3.88-4.3.23,1.19.38,2.65.46,4.3h1.61c.11-.5.31-1.07.5-1.69v-.08c.08.61.15,1.19.19,1.77h2.65c-.08-.19-.15-.38-.23-.58-.15-.04-.27-.15-.38-.31-.42.23-.73.46-.96.69-.04-.73-.12-1.31-.19-1.69-.19-.73-.5-1.19-.96-1.46-.38.08-.69.38-.96.88-.12.27-.23.54-.31.84-.04-1-.11-1.77-.15-2.26-.04-.96-.42-1.61-1.15-2.03-.69.54-1.19,1.34-1.5,2.42-.11.27-.27,1.04-.46,2.3v-.04c-.04-1.27-.08-2.23-.15-2.88-.15-1.11-.54-2.03-1.19-2.8-.15.04-.34.19-.61.46h0ZM24.91,29.55c0-.61.04-1.04.12-1.27v-.08c.11.19.08.65-.12,1.34h0Z"/>
    <path class="cls-3" d="M27.02,32.51c-.04.15-.04.35-.08.54-.08,1.07-.15,1.88-.27,2.38l.65.11c.27,0,.46-.04.54-.11.04-.08.04-.12.04-.15l.08.15c0,.19.04.42.12.77.08.35.12.65.12.88,0,.12-.04.42-.15.92-.04.5.11.96.42,1.38.61-.42,1.04-1.07,1.3-2.03.08,1.11.23,2.07.42,2.92.11.23.31.61.5,1.11.15-.08.27-.15.38-.27.19-3.57.31-6.22.38-7.95,0-.23,0-.46.04-.65h-4.49Z"/>
    <path class="cls-3" d="M25.18,35.04c.35-.73.58-1.57.77-2.53h-1.73c.27,1.23.61,2.07.96,2.53h0Z"/>
    <path class="cls-3" d="M36.42,32.51h-1.84c.04.54.04.92.04,1.15,0,.81.04,2.23.08,4.3-.12,1.73-.46,2.8-1.11,3.22-.15-3.42-.23-5.33-.23-5.76,0-1.46,0-2.42.04-2.92h-1.11v1.34c-.04,3.57.15,6.29.54,8.14.27-.11.46-.23.58-.42-.04.35-.27,1-.69,2.04h3.11c-.08-1.04-.12-1.92-.12-2.65,0-1.73.15-3.91.46-6.52.08-.69.15-1.34.27-1.92h0Z"/>
    <path class="cls-3" d="M42.03,43.6h-4.64c-.31,4.64-.46,7.33-.46,8.06h-.08c-.42-.96-.73-2.99-.92-6.03-.04-.73-.08-1.42-.11-2.03h-3.11s-.08.11-.12.19c-.5,1.11-.81,1.88-.85,2.26-.42-.23-.81-.23-1.19-.04,0,.96-.08,1.69-.23,2.26h-.04c.12-.19.08-.46-.08-.84-.19-.42-.42-.61-.69-.61s-.42.04-.46.11l-.08.08-.31,2.34c-.12-.27-.19-.46-.31-.62-.11-.27-.38-.38-.77-.38s-.69.42-.92,1.27c-.12.42-.23.96-.31,1.54-.73-.46-1.34-.31-1.77.5-.31.58-.46,1.15-.46,1.8-.04.12-.31.19-.77.19-.73,0-1.15.15-1.27.42v.58h3.57c-.15-.96-.23-1.61-.23-1.96,0-.27,0-.42.04-.46.19.58.35,1.38.5,2.42h2.27c-.04-.08-.04-.15-.04-.23v-.08c.04.08.04.19.08.31h10.94v-.5c.11.12.31.23.5.34v.15h2.19c.35-1.11.73-2.76,1.15-4.91l.08-2.42c.04.92.08,2.34.19,4.26.11,1.23.23,2.26.38,3.07h1.96c.08-.77.08-1.65.04-2.61-.11-2.8-.15-4.49-.11-5.03h.04c.08.65.31,3.15.65,7.41,0,.08,0,.15.04.23h4.53c.19-.5.31-.84.38-1v1h4.41c0-.84.04-1.96.15-3.38.19-2.53.42-4.18.69-4.91v-.08c.11.73.27,2.23.42,4.53.15,2.07.23,3.34.23,3.8v.04h1.38c.04-.54.08-1.07.15-1.61.23-1.77.54-2.84.96-3.22.38,1.54.58,2.46.58,2.76v.42h-.08c-.19-.12-.38-.15-.61-.15-.19.04-.31.04-.35.04v1.77h4.26c-.23-1.8-.77-2.73-1.57-2.73-.27,0-.46.04-.54.15-.04.04-.08.08-.12.12-.04-.96-.12-1.65-.23-2.07-.27-1.04-.81-1.54-1.54-1.54-.11,0-.34.19-.65.58-.35.42-.58.69-.65.73-.08-1.34-.12-2.19-.15-2.61-.23-.19-.46-.46-.65-.77-.58-.88-.92-1.38-1.04-1.46-.15.04-.27.08-.38.19-.04.08-.23.42-.58,1.04,0-.27-.08-.61-.23-.96-.04-.04-.04-.08-.04-.12l-.08-.08c-.04-.08-.08-.15-.12-.19-.23-.27-.5-.42-.84-.42s-.54.04-.65.12c-.12.11-.23.31-.35.65-.08,0-.11-.23-.11-.65,0-.31.04-.65.11-1.04h-2.88c-.15.61-.31,1.27-.46,1.92l-.04-1.92h-7.64ZM38.76,46.32c.11-.69.15-1.23.19-1.61v-.04c.19,1.19.27,2.38.19,3.61-.27-.65-.38-1.3-.38-1.96h0ZM40.76,53h.54c0,.42-.04.69-.08.73-.19-.19-.35-.42-.46-.73h0ZM51.24,44.44l.58.08c-.46,4.34-1.04,7.48-1.77,9.4h-.08v-3.07c.23-1.88.65-4.03,1.27-6.41h0ZM53.35,48.93c0-.19.04-.73.12-1.61.04-.5.23-1,.61-1.42.15.65.31,1.8.5,3.46-.04-.08-.12-.15-.19-.23-.12-.19-.31-.27-.58-.27s-.42.04-.46.08h0ZM48.32,52.46l.04-.08c.11.58.08,1.19-.08,1.77h-.11v-1.54l.15-.15h0ZM48.43,51.66c.08-.46.15-.77.19-.88v-.08c.04.12.08.27.04.46-.04.23-.11.38-.23.5h0Z"/>
    <path class="cls-3" d="M39.72,54.65c.04.77.04,1.19.08,1.27.11.42.54.62,1.23.62.23,0,.54-.62.88-1.88h-2.19Z"/>
    <path class="cls-3" d="M38,54.73h.15c.04.12.04,1.27,0,3.45-.04,1.38.23,2.46.81,3.22.34-.19.54-.58.54-1.23-.15-2.42-.23-4.26-.27-5.53h-10.94c.08.34.12.84.12,1.42,0-.15-.04-.61-.15-1.42h-2.27c.12.88.19,1.54.19,1.96,0,.5-.04.77-.08.81-.15-.73-.31-1.61-.42-2.65v-.12h-3.57v1.11c0,.58.12,2,.38,4.26.27,2.38.5,3.68.61,3.91,1.19-.69,1.8-3.07,1.8-7.1l.04.19c.19.88.38,2.3.58,4.26.27,1.65.77,2.88,1.42,3.69l.31-.12c.58-2.49.81-4.14.73-4.95h.04c.11.42.31,1.34.5,2.76.27,1.19.73,1.8,1.38,1.8.35,0,.73-.57,1.23-1.73.46-1.08.69-1.88.69-2.38.04.15.08.42.08.81.08.31.35.46.81.46.42,0,.65-.08.65-.23,0,.31.27.73.77,1.27t.04-.04l.04-.65s.08-.04.19-.15c.04-.08.15-.11.31-.15.27-.73.46-1.65.5-2.72.12-2.04.27-3.38.46-3.95.31,1.42.5,3.34.54,5.8l.58.08c.46,0,.65-.08.61-.19.04-.81.15-1.8.31-3.03.19-1.27.27-2.26.31-2.92h0ZM23.6,56.23c0-.23.08-.54.23-.92l.04,2.11h-.04c-.15-.38-.23-.77-.23-1.19h0Z"/>
    <path class="cls-3" d="M58.53,54.65h-1.38c0,.58-.08,1.77-.19,3.57-.12,2.26-.27,4.07-.46,5.33-.58-3.22-.88-5.95-.88-8.17,0-.19,0-.46.04-.73h-4.41c0,1.57-.04,2.84-.11,3.8h-.08c-.15-.58-.27-1-.34-1.3-.15-.54-.23-.92-.23-1.19,0-.15.12-.58.35-1.23t.04-.08h-4.53c.65,3.8,1.69,5.72,3.15,5.72.27,0,.46-.04.5-.12-.04-.11-.04-.15,0-.15v-1.53c.08.35.15.81.23,1.46.12.5.46.88,1.04,1.11.31-.15.54-.46.69-.96.11-.35.15-.69.11-.96h.04c.04.35.08,1.27.04,2.76.12,1.3.42,1.96.92,1.96.27,0,.42-.04.46-.08-.04-.08-.04-.12,0-.12l.04-1.15c.19.58.46.88.77.88.46,0,.61-.08.42-.23.11-.65.19-1.07.31-1.27.04.15.15.84.35,2.07.27,1.11.65,1.69,1.23,1.69.46,0,.58-.04.35-.12.19-.31.46-1.11.81-2.42.19.04.42.12.69.31.12.12.27.23.46.42.5-.38.81-1,.96-1.8.08-.92.15-1.54.23-1.84.04.23.08.35.11.35.04.42.04.96-.04,1.65,0,.58.19,1,.54,1.19l.46-.23.04-.84c1.11.81,1.84.46,2.15-1.04.12-.46.15-1.54.15-3.26.08-1.07.08-2.11-.04-3.15,0-.11,0-.19-.04-.31h-4.26c-.04,2.92-.12,5.1-.31,6.56-.31-1.19-.46-2.61-.46-4.22,0-.81.04-1.57.12-2.34h0ZM61.98,55.46v-.04c.23.58.31,1.34.19,2.26-.11-.73-.19-1.46-.19-2.23h0ZM53.54,55.46v-.04c.5.88.77,2.11.77,3.72,0,.31-.12.77-.31,1.38v-.08c-.31-1.53-.46-3.19-.46-4.99h0Z"/>
    <path class="cls-3" d="M45.67,54.65h-1.96c.27,1.57.62,2.38,1.04,2.38h.34c.27-.65.46-1.46.58-2.38h0Z"/>
  </g>
  <g id="Layer_4" data-name="Layer 4">
    <path class="cls-2" d="M36,5.87c-2.57.5-3.99.73-4.18.73-2.76,0-6.56,2.15-11.44,6.45-2.49,2.23-5.1,4.76-7.83,7.6-2.03,1.73-3.69,4.72-4.87,8.9-.96,3.34-1.42,6.53-1.42,9.48,0,3.57.65,7.67,1.96,12.36,1.5,5.45,3.61,10.44,6.33,14.93,7.18,11.9,16.77,17.85,28.78,17.85,14.08,0,24.52-5.76,31.28-17.27,2.38-4.03,4.14-8.56,5.29-13.55.88-3.65,1.31-6.87,1.31-9.67,0-8.41-1.46-15.58-4.37-21.49-5.64-11.4-15.97-17.08-30.97-17.08-3.34,0-6.64.27-9.86.77h0ZM30.51,79.71c-4.26-2.19-8.14-5.22-11.59-9.13-7.79-8.79-11.67-19.27-11.67-31.36,0-9.79,3.8-17.88,11.4-24.25,7.02-5.87,15.35-8.94,25.06-9.21,10.02-.27,18.38,2.57,25.06,8.6,7.6,6.87,11.4,16.62,11.4,29.28,0,2.57-.38,5.6-1.19,9.1-1.11,4.87-2.76,9.25-5.03,13.2-6.52,11.4-16.73,17.08-30.59,17.08-4.26,0-8.52-1.11-12.86-3.3h0Z"/>
    <path class="cls-2" d="M47.02,28.59c-1.5,1.5-2.53,2.57-3.15,3.26-.69-.77-1.5-1.61-2.46-2.5-2.19-2-3.34-3.07-3.45-3.22-1.54-1.27-2.8-2.23-3.84-2.96v-.15c-1.11-.84-2.61-1.27-4.45-1.27-2.65,0-4.57,1.3-5.83,3.95-.81,1.73-1.23,3.61-1.23,5.57s1.11,4.26,3.38,7.14c2.11,2.72,4.15,4.34,6.1,4.91-1.8.65-4.07,2.69-6.72,6.18-2.99,3.88-4.49,6.68-4.49,8.37,0,5.41,2.88,8.14,8.64,8.14,3.15,0,6.37-1.77,9.63-5.26,1.69-1.8,2.88-3.34,3.57-4.61.65,1.04,2.46,2.72,5.41,5.14,4.18,3.49,7.56,5.22,10.05,5.22,2.65,0,4.53-1.27,5.68-3.84.65-1.5.96-3.03.96-4.64,0-3.11-.96-5.76-2.88-8.02-1.73-2.03-4.34-3.88-7.87-5.49,1.96-1.77,3.95-3.65,5.91-5.64,3.91-4.03,5.87-7.48,5.87-10.36,0-2.19-1.15-3.91-3.49-5.22-2.69-1.5-5.87-1.42-9.52.31-1.11.5-3.03,2.19-5.83,4.99h0ZM44.25,33.51c.27,0,.46-.04.54-.12.04-.11.04-.23.08-.27-.19-.27-.38-.5-.58-.77.92-.88,2.49-2.38,4.72-4.53,3.42-3.26,6.25-4.91,8.52-4.91,1.84,0,3.57.77,5.18,2.3,1.42,1.34,2.11,2.46,2.11,3.38,0,2.76-2.03,6.14-6.1,10.17-1.88,1.84-3.76,3.61-5.64,5.3-.34-.12-.69-.27-1.04-.42v.58c.19.11.38.19.58.31h-.04c0,.46.04.61.15.42l.61.08h.19c6.87,3.88,10.32,8.25,10.32,13.12,0,.04-.34,1.23-1.04,3.65-1.11,2.38-2.69,3.57-4.76,3.57-3.95,0-8.9-3.42-14.93-10.25.12-.38.19-.73.19-1.04,0-.12-.15-.38-.5-.81-.08.12-.38.84-.96,2.15-.73,1.5-1.5,2.8-2.34,3.95-2.76,3.65-6.14,5.49-10.09,5.49-3.42,0-5.68-1.04-6.83-3.15-.5-.96-.77-2.23-.77-3.84,0-2.34,1.88-5.37,5.64-9.1,3.76-3.26,5.64-4.99,5.64-5.18v-.27c.08-.08.15-.19.23-.31.19-.27.27-.42.27-.5-1.65-.81-3.34-1.84-4.99-3.07-3.34-2.42-4.99-5.14-4.99-8.25,0-1.5.27-2.99.77-4.41.96-2.57,2.53-3.87,4.72-3.87,1.19.23,2.11.42,2.84.57,1.5,1.04,3.76,2.96,6.79,5.68,1.96,1.8,3.42,3.03,4.34,3.72.04.15.08.27.12.31l.08.08.19-.15c.35.27.61.38.77.38h0Z"/>
    <path class="cls-3" d="M2.3,18.5c-.12.19-.15.42-.15.65.11.11.31.19.5.27.19-.04.38-.19.5-.38v-.27c0-.27-.04-.46-.12-.54-.15,0-.27-.04-.38-.08-.12.04-.23.15-.34.34h0Z"/>
  </g>
</svg>