<?xml version="1.0" encoding="UTF-8"?>
<svg id="Layer_2" data-name="Layer 2" xmlns="http://www.w3.org/2000/svg" xmlns:xlink="http://www.w3.org/1999/xlink" viewBox="0 0 93.57 93.57">
  <defs>
    <style>
      .cls-1 {
        fill: url(#linear-gradient);
      }

      .cls-1, .cls-2, .cls-3, .cls-4, .cls-5 {
        stroke-width: 0px;
      }

      .cls-3 {
        fill: #567da9;
      }

      .cls-4 {
        fill: #ccc;
      }

      .cls-5 {
        fill: #999;
      }
    </style>
    <linearGradient id="linear-gradient" x1="44.44" y1="9.21" x2="44.44" y2="122.11" gradientUnits="userSpaceOnUse">
      <stop offset=".37" stop-color="#fff"/>
      <stop offset="1" stop-color="#c6c6c6"/>
    </linearGradient>
  </defs>
  <g id="Layer_1-2" data-name="Layer 1">
    <path class="cls-5" d="M18.34,18.35c-6.49,6.49-10.55,14.05-12.13,22.6-.5,2.73-.77,5.6-.77,8.56,0,12.16,4.3,22.57,12.9,31.16,8.6,8.6,19,12.9,31.17,12.9s22.57-4.3,31.16-12.9c8.6-8.6,12.9-19,12.9-31.16,0-2.96-.27-5.83-.77-8.56-1.57-8.56-5.64-16.12-12.13-22.6-8.6-8.6-19-12.9-31.16-12.9s-22.57,4.3-31.17,12.9h0Z"/>
  </g>
  <g id="Layer_2-2" data-name="Layer 2">
    <path class="cls-5" d="M0,44.44c0,12.28,4.34,22.76,13.01,31.43,8.67,8.67,19.15,13.01,31.43,13.01s22.76-4.34,31.43-13.01c8.67-8.67,13.01-19.15,13.01-31.43s-4.34-22.76-13.01-31.43C67.2,4.34,56.72,0,44.44,0S21.68,4.34,13.01,13.01C4.34,21.68,0,32.16,0,44.44h0ZM13.55,75.34C5.03,66.82.77,56.53.77,44.44S5.03,22.07,13.55,13.55C22.07,5.03,32.35.77,44.44.77s22.37,4.26,30.9,12.78c8.52,8.52,12.78,18.81,12.78,30.9s-4.26,22.37-12.78,30.89-18.81,12.78-30.9,12.78-22.37-4.26-30.89-12.78h0Z"/>
    <path class="cls-1" d="M.77,44.44c0,12.09,4.26,22.37,12.78,30.89,8.52,8.52,18.81,12.78,30.89,12.78s22.37-4.26,30.9-12.78,12.78-18.8,12.78-30.89-4.26-22.38-12.78-30.9C66.82,5.03,56.53.77,44.44.77S22.07,5.03,13.55,13.55C5.03,22.07.77,32.35.77,44.44h0Z"/>
  </g>
  <g id="Layer_3" data-name="Layer 3">
    <path class="cls-3" d="M64.63,17.31c0,.11,0,.27.04.38-.12-.11-.19-.27-.27-.38h-3.03c.38,1.42.84,3.22,1.34,5.41h3.53c-.34-1.65-.5-3.11-.5-4.45,0-.34,0-.69.04-.96h-1.15ZM63.44,18.73v-.5s.08-.08.11-.15c.42.92.84,2.26,1.34,4.07-.08-.04-.15-.04-.19-.04-.23,0-.46.08-.65.19-.42-1.65-.61-2.84-.61-3.57h0Z"/>
    <path class="cls-3" d="M68.43,17.81c-.11-.19-.19-.34-.27-.5h-1.77c.42,1.27.92,3.07,1.5,5.41h1.38c-.12-.27-.15-.46-.15-.5v-.12c.12.19.15.38.19.61h1.07c-.38-1.57-1.04-3.22-1.96-4.91h0Z"/>
    <path class="cls-3" d="M71.88,20.61c-.58,0-1,.46-1.19,1.42-.04.23-.08.46-.12.69h1.11c.04-.42.19-.73.38-1,.11.27.23.57.38,1h1.34c-.08-.19-.15-.42-.23-.61-.46-1-1.04-1.5-1.69-1.5h0Z"/>
    <path class="cls-3" d="M58.3,17.31h-2.03c.27,1.38.54,2.61.81,3.68-.04-.04-.04-.08-.08-.11-.73-1.04-1.23-1.88-1.5-2.53-.08-.38-.12-.73-.15-1.04h-1.27c.15.77.31,1.69.5,2.73.15.88.31,1.65.42,2.26v.42h1.27c-.04-.34-.08-.73-.15-1.15-.04-.27-.04-.42-.04-.5,0-.27,0-.42.04-.42.04.04.04.08.04.11v-.08c.23.58.46,1.27.65,2.03h3.15c.04-.12.08-.19.12-.23,0,.04,0,.12.04.23h2.07c-.23-.65-.5-1.38-.77-2.19-.42-1.23-.77-2.3-1.04-3.22h-1.54c.27,1.07.58,2.3.92,3.72.04.12.04.23.08.35-.11.04-.27.11-.38.23-.46-1.65-.84-3.11-1.15-4.3h0Z"/>
    <path class="cls-3" d="M51.31,17.31c.04.19.04.38.08.58-.15.15-.31.31-.46.46-.08.69-.12,1.73-.15,3.15,0,.46,0,.88-.04,1.23h3.42c-.08-.77-.27-1.5-.54-2.23-.04-.04-.04-.12-.08-.15-.12-1.07-.23-2-.31-2.8.04-.08.04-.15.08-.23h-2Z"/>
    <path class="cls-3" d="M62.33,23.33c-.04-.19-.12-.42-.15-.61h-2.07c.04.58.23,2,.58,4.3t-.08-.04c-.34.08-.61.12-.73.12v1.04h5.8c-.19-.77-.5-1.88-.92-3.34-.12-.42-.23-.84-.34-1.27.12-.15.23-.27.38-.35.19.12.35.38.54.73.08.31.15.65.23,1,.27,1.19.54,2.26.84,3.22h2c-.04-.61-.08-1.04-.08-1.27,0-.58.04-.96.11-1.23v-.08s.08.12.12.15c.19.84.42,1.65.65,2.42h1.46c-.19-.77-.31-1.23-.31-1.42v-.08c.12.5.27,1,.38,1.5h2.23c-.35-.88-.61-1.61-.81-2.19-.11-.35-.27-.69-.42-.96-.08-.58-.12-1.07-.12-1.53,0-.27.04-.5.08-.73h-1.11c-.04.27-.04.58-.04.84-.04-.27-.11-.58-.15-.84h-1.07v.15s-.04-.12-.04-.15h-1.38c.11.58.27,1.15.38,1.77-.38.15-.73.61-1.08,1.34-.04-.5-.27-1.23-.73-2.11-.08-.35-.15-.65-.23-1h-3.53c.04.27.11.5.15.77.04.11.04.19.08.31-.04.04-.04.12-.08.15-.15-.19-.35-.42-.54-.61h0ZM62.52,26.98c.08-.04.15-.04.19-.04,0,.12,0,.27-.04.42h-.08c-.04-.11-.04-.27-.08-.38h0ZM61.6,27.9c-.08-.08-.12-.15-.15-.19-.04-.27-.04-.5-.04-.73l.19.92h0Z"/>
    <path class="cls-3" d="M59.83,22.95c.04-.08.08-.15.12-.23h-3.15c.38,1.42.73,3.19,1.08,5.3-.19-.42-.38-.84-.58-1.19-.27-.46-.54-.84-.8-1.15-.08-.73-.15-1.38-.19-1.96v-.27c0-.19,0-.46-.04-.73h-1.27v1.77c-.27-.04-.54,0-.77.15v-.5c0-.5-.04-.96-.08-1.42h-3.42c-.04.73-.08,1.34-.15,1.77-.15.96-.54,1.92-1.15,2.91-.15.23-.27.46-.38.73h4.99c.04-.58.08-1.11.12-1.61.23-.5.5-.81.81-.92v.46c0,.65.04,1.34.08,2.07h1.73c-.04-.15-.04-.31-.08-.46.04.15.12.31.15.46h2.3c-.04-.31-.04-.58-.04-.77,0-.31.04-.73.11-1.23.19.19.42.31.65.31.27,0,.42-.04.46-.08.04-.04.04-.08.04-.11v-1.34c-.19-.69-.35-1.34-.54-1.96h0ZM52.85,23.22c.12.08.19.11.31.15.04.5.04,1.04,0,1.61-.15-.65-.27-1.27-.31-1.77h0Z"/>
    <path class="cls-3" d="M73.8,22.72h-1.34c.35,1.11.73,2.88,1.23,5.26-.27,0-.46.04-.5.15h1.84c-.23-1.46-.35-2.26-.35-2.42,0-.27.04-.5.11-.69.08-.11.12-.23.15-.31v-.04c.12.35.35,1.07.73,2.19.15.5.31.92.42,1.27h1.27c-.81-3.34-1.61-4.99-2.42-4.99-.27,0-.46.08-.61.23-.04.11-.15.23-.27.38-.08-.34-.15-.69-.27-1.04h0Z"/>
    <path class="cls-3" d="M65.78,17.31c.04-.5.08-.88.19-1.15.12.35.27.73.42,1.15h1.77c-.92-1.57-1.65-2.34-2.15-2.34-.73,0-1.19.42-1.34,1.27-.04.35-.08.69-.04,1.07h1.15Z"/>
    <path class="cls-3" d="M49.89,8.02c-.35,0-.62.31-.81.88-.15.46-.23.84-.23,1.11h-.08s-.15-.31-.35-.85c-.15-.42-.38-.61-.73-.61-.5,0-.77.38-.84,1.15-.04.38-.08.84-.04,1.34h-.08c-.12-.58-.19-1.04-.31-1.34-.23-.61-.61-.92-1.15-.92-.34,0-.61.27-.81.84-.11.31-.19.65-.27,1.07v-.04c-.15-.88-.31-1.57-.42-2.07-.23-.88-.61-1.34-1.19-1.34-.27,0-.42,0-.46.04,0,.04.04.04.08.04-.19.35-.38.77-.58,1.34l-1.46-2.19c-.5.42-.77.88-.77,1.46,0,.5.23,1.77.69,3.72h-.11c-.42-1.73-.92-2.61-1.46-2.61h-.04c-.23-.81-.42-1.31-.61-1.53-.08.04-.15.11-.19.31-.04.11-.15.19-.42.19-.23,0-.46-.08-.65-.19-.19-.12-.38-.19-.54-.19v1.15c-.31-.27-.54-.42-.73-.5-.23.11-.38.31-.46.5-.04.12-.08.35-.08.65,0,.19.12,1.04.35,2.46h1.61v-.04s0,.04.04.04h4.41l-.04-.23v-.04c.04.12.04.19.08.27h1.84c-.04-.5-.08-1-.12-1.57l.04.15c.08.35.15.81.27,1.42h1.19c-.11-.42-.19-.77-.23-.96v-.08c.15.46.23.81.23,1.04h1.08l-.27-1.77.04.08c.04.15.15.73.34,1.69h2.15v-1.23h.08c.08.34.15.73.23,1.23h1.84c-.04-.58-.08-.96-.08-1.15l.04-1.23.19.12c.11.54.27,1.3.42,2.26h1.23c-.04-.65-.12-1.19-.19-1.54-.27-1.57-.84-2.34-1.69-2.34h0ZM36.08,9.13v-.08c.12.19.19.54.19.96-.12-.19-.19-.5-.19-.88h0Z"/>
    <path class="cls-3" d="M32.24,10.32c-.27,0-.42.04-.46.15-.04.04-.04.08-.04.12v1.3h3.38c-.12-.35-.19-.65-.27-.92-.19-.73-.61-1.11-1.19-1.11-.31.04-.5.08-.58.08-.04.23-.08.54-.08.92-.04-.08-.08-.15-.15-.27-.12-.19-.35-.27-.61-.27h0Z"/>
    <path class="cls-3" d="M47.82,11.9h-2.15c.19.92.42,2.23.69,3.91.11.58.19,1.07.31,1.5h1.8c-.04-.31-.12-.69-.19-1.11-.23-1.34-.38-2.19-.46-2.46v-1.84h0Z"/>
    <path class="cls-3" d="M45.56,11.9h-1.08v.11-.11h-1.19c.19.96.38,2.26.61,3.88.12.58.27,1.11.38,1.53h1.8v-1.46l-.54-3.95h0Z"/>
    <path class="cls-3" d="M41.26,11.9c.27,1.04.42,1.77.42,2.15,0,.42,0,.54-.04.27l-.42-2.42h-4.41c.27.57.42,1.15.54,1.73v1.5h-.04l-.54-3.22h-1.61c.04.19.04.35.08.54h-.04c-.04-.19-.04-.34-.08-.54h-3.38v.04c.35,1.69.77,3.49,1.31,5.37h2.96l-.61-4.22v-.08c.27,1.04.54,1.84.81,2.46.11.31.15.92.15,1.84h4.11c-.12-.27-.19-.46-.27-.65-.12-.35-.27-.61-.42-.88-.08-.5-.15-1.11-.27-1.84.54,1.34,1,2.49,1.34,3.38h2.92v-2c-.27-.84-.5-2-.65-3.42h-1.84Z"/>
    <path class="cls-3" d="M58.53,12.01s-.04-.08-.08-.11h-1.88c-.08.08-.15.15-.23.27-.73.88-1.31,1.57-1.8,2.07-.04-.19-.23-.5-.58-1-.42-.58-.73-.84-1-.84s-.5.19-.73.61c-.19.31-.31.5-.31.61l-.08-.08c-.04-.61-.04-1.15-.08-1.65h-1.23c.19,1.38.46,3.18.77,5.41h2c.04-.23.11-.46.23-.65.19.15.35.35.5.58t.04.08h1.27c-.04-.42-.08-.77-.08-1.04,0-.38.15-1,.42-1.84l.08.11c.19.96.35,1.88.5,2.76h2.03c-.65-2.57-1-4.07-1-4.53v-.46s.08,0,.12-.04c.23.58.69,2.23,1.42,5.03h1.54c-.35-1.23-.5-2.19-.5-2.88,0-.38.04-.65.12-.81h.27c.27.58.61,1.8,1.11,3.68h3.03c-.42-.5-.73-.81-.96-.84-.31.11-.5.23-.62.38-.04.11-.11.23-.15.38-.61-3.22-1.46-4.84-2.57-4.84-.27,0-.54.08-.73.27-.12.12-.23.23-.35.35-.15-.35-.31-.69-.5-1h0ZM53.08,16.23c-.08-.81-.12-1.42-.12-1.8,0-.31,0-.54.04-.65.23.42.46,1.07.69,2-.15.04-.31.15-.46.31-.04.04-.11.12-.15.15h0Z"/>
    <path class="cls-3" d="M49.97,11.9h-1.84c.19.96.34,2.23.54,3.8.12.58.19,1.11.31,1.61h1.69c-.08-.42-.23-1.42-.42-3.07-.11-.96-.23-1.77-.27-2.34h0Z"/>
    <path class="cls-3" d="M56.57,11.9h1.88c-.35-.54-.73-.81-1.15-.81-.04,0-.31.27-.73.81h0Z"/>
    <path class="cls-3" d="M50.66,17.39v-.08h-1.69c.31,1.34.69,2.46,1.15,3.3.23-.11.42-.23.54-.34v-2.88h0Z"/>
    <path class="cls-3" d="M46.09,17.31h-1.8c.35,1.15.77,1.73,1.27,1.73.27,0,.42-.04.46-.15.04-.11.04-.15.08-.15v-1.42h0Z"/>
    <path class="cls-3" d="M48.47,17.31h-1.8c.35,1.5.73,2.23,1.15,2.23.27,0,.46-.04.54-.12.08-.08.12-.12.15-.12.04-.5.08-.81.08-.84,0-.11-.04-.5-.12-1.15h0Z"/>
    <path class="cls-3" d="M56.76,28.13h-1.73c.08,1.11.19,2.3.35,3.49.12,1.19.38,2.92.81,5.22.12.77.23,1.46.35,2.11h1.38c-.04-.34-.08-.73-.12-1.11-.38-3.26-.58-5.07-.61-5.37-.15-1.61-.31-3.07-.42-4.34h0Z"/>
    <path class="cls-3" d="M59.14,28.13h-2.3c.42,1.15.84,2.69,1.34,4.64.15.58.31,1.15.42,1.69.12,1.42.27,2.92.38,4.49h2.27c.11-.42.15-1,.15-1.69,0-1.34-.19-3.15-.54-5.45v-3.07h.08c.15,1.23.35,2.65.58,4.26.04.19.04.38.08.58l.23,1.8c.04.31.04.61.08.92.08.96.19,1.84.31,2.65h4.53c-.23-1.84-.31-3.53-.23-5.03v-.04c.5,1.77.88,3.45,1.19,5.07h2.42c-.54-2.76-.88-5.18-1.04-7.25v-.08c.73,1.57,1.38,4.03,1.88,7.33h3.76c-.08-1.23-.15-2.19-.23-2.84v-.08c.12.58.27,1.53.42,2.92h1.69c-.04-.19-.04-.38-.04-.54s0-.31.04-.46h.15c0,.27,0,.61.04,1h3.76c-.04-.77-.12-1.61-.23-2.49-.04-.81-.54-1.77-1.42-2.88-.19-.19-.35-.38-.46-.54-.19-.96-.38-1.8-.54-2.57-.19-.84-.35-1.61-.54-2.34h-1.27c.12.5.15.88.19,1.19-.65-.19-.92.19-.84,1.15h-.04c-.15-.92-.27-1.69-.38-2.34h-1.84l-.15.19c-.04-.08-.04-.15-.08-.19h-2.23c.12.46.23.92.35,1.42-.15-.58-.31-1.04-.42-1.42h-1.46c.04.19.12.38.15.58.12.58.15,1,.15,1.3,0,.42,0,.54-.04.27-.5.11-.77.15-.81.15l-.12-.15c-.08-.88-.12-1.57-.15-2.15h-2c.38,1.23.77,2.26,1.19,3.11.31,1.5.46,2.65.46,3.45v.46s-.04.04-.08,0c-.27-1.88-.84-2.99-1.73-3.34-.31.12-.5.31-.61.54-.08.27-.12.42-.15.42-.35-1.34-.61-2.53-.84-3.49.27.5.5.77.73.77.42,0,.61-.04.5-.15l.15-.42s-.11-.5-.34-1.34h-5.8v3.95c.27,1.73.42,3.07.5,4.03-.73-3.8-1.11-6.45-1.23-7.98h0ZM76.76,32.39c-.11-.42-.19-.96-.27-1.57v-.08c.15.42.31.92.46,1.5-.08.04-.15.08-.19.15h0ZM73.42,30.09c0-.27.04-.42.11-.54.08-.08.12-.15.15-.23v-.04c.15.27.35.81.54,1.61.04.19.08.42.11.61.08.42.15.81.23,1.23-.27-.11-.5-.15-.65-.15-.12-.58-.23-1-.31-1.27-.12-.54-.19-.96-.19-1.23h0ZM64.44,35.19c-.04-.19-.04-.38-.04-.57.23,1.07.42,2.23.61,3.45-.27-.84-.46-1.8-.57-2.88h0ZM79.29,37.57c-.11-.65-.23-1.3-.35-1.88-.04-.15-.04-.31-.08-.42.27.61.42,1.38.42,2.3h0Z"/>
    <path class="cls-3" d="M46.36,28.13h.92c-.15-.19-.31-.31-.46-.38-.19.12-.35.23-.46.38h0Z"/>
    <path class="cls-3" d="M47.28,28.13h-.92c-.35.34-.5.84-.54,1.46-.04,1.08-.08,1.61-.12,1.65-.65-1.11-.96-1.96-.96-2.57l-.61-.15c-.27,0-.46.04-.5.12-.04.04-.11.08-.15.19.08.27.23.69.46,1.19.08.19.15.38.27.61.12.23.27.5.38.77.27.58.5,1.08.69,1.54.35-.23.84-.54,1.5-.92.04-.73.08-1.61.12-2.69.31.54.54,1.3.73,2.34.31.08.46.31.46.73,0,.27-.08.58-.23.92.12.5.23.92.35,1.27.12.12.15.23.15.34v.08c.08.15.15.31.23.42.46-.84.77-2.07.92-3.72.19-1.8.34-2.88.5-3.3.08.46.19,1.19.38,2.19-.35.23-.5,1.04-.5,2.38,0,1.11.08,2.26.23,3.53.11.96.23,1.77.42,2.46h3.88c-.08-.65-.15-1.3-.19-1.96.23.5.46,1.15.65,1.96h1.19c-.31-1.11-.58-2.07-.84-2.96-.84-3.03-1.27-5.26-1.27-6.68.04-.42.04-.81.08-1.19h-4.99c-.31.69-.46,1.42-.5,2.15l-.04-.12c-.42-.96-.85-1.61-1.23-2.03h0Z"/>
    <path class="cls-3" d="M50.55,38.95s.04.08.04.12c-.5,1.57-.81,2.76-1,3.49-.04.12-.04.27-.08.42.04.04.08.12.11.15,0,.34-.19,1.57-.58,3.61-.15.88-.31,1.65-.46,2.34v.69h1.07c-.04-.23-.04-.46-.04-.65,0-.92.15-2.34.5-4.3.11.88.31,2.23.5,4.03.04.35.08.65.12.92h1.84c-.12-.73-.23-1.54-.31-2.34,0-.12-.12-1.61-.35-4.49l.08-.04c.04.5.23,1.96.61,4.37.15,1.04.27,1.84.38,2.5h2.11c-.12-.58-.27-1.19-.42-1.92-.42-1.88-.65-3.34-.73-4.38.81,2.84,1.38,4.95,1.73,6.29h1.61v-1.08c.08.42.15.77.19,1.08h2.26c-.12-.27-.15-.38-.15-.42,0-.19.08-.73.19-1.61.12.42.35,1.08.61,2.04h2.42c-.04-.35-.08-.61-.08-.81,0-.27.12-.77.31-1.46.23.58.5,1.3.77,2.26h2.34c-.04-.58-.08-1.27-.11-2.04.19.5.42,1.19.65,2.04h1.11c-.04-.19-.04-.35-.04-.54.04.19.12.35.15.54h2.57l-1.04-4.99h.04c.19,1.11.54,2.76,1.11,4.99h1.3c-.04-.23-.04-.54-.04-.88h.08l.04.88h1.04c-.04-.27-.04-.5-.08-.69.12.23.19.46.31.69h1.46c-.04-.46-.04-1.08-.04-1.88v-.08c.04.15.23.8.58,1.92t.04.04h1.8c-.15-.35-.27-.58-.31-.69,0-.08.15-.11.46-.11,0,.34,0,.61-.04.81h1.27c0-1.11,0-1.88.04-2.3.85,0,1.46-1.04,1.8-3.07.19-1.08.27-2.23.27-3.45,0-.61,0-1.27-.04-2h-3.76c.04.81.11,1.76.19,2.96-.23-1.27-.34-2.26-.38-2.96h-1.69c0,.12,0,.27.04.42.19,1.73.31,2.92.42,3.57-.08.12-.12.12-.12.08-.23-.92-.38-2.07-.5-3.45-.04-.19-.04-.42-.04-.61h-3.76c.27,1.96.54,4.26.73,6.87,0,.42-.04.54-.08.35v-.04c-.96-4.49-1.46-6.91-1.5-7.18h-2.42c.65,3.22.96,6.1.96,8.67,0,.42-.04.5-.12.19v-.08c-.73-2.92-1.27-5.22-1.54-6.91-.12-.65-.19-1.27-.27-1.88h-4.53c.08.61.15,1.19.27,1.76.27,2.5.38,4.22.38,5.18,0,.27-.04.42-.15.46-.12,0-.23,0-.31.04h-.04c-.46-2.34-.92-4.61-1.34-6.83.12-.15.19-.34.23-.61h-2.27c.12,1.65.19,3.41.31,5.3,0,.42-.27,2.19-.77,5.3v-.27c-.12-.46-.27-1.23-.5-2.3-.23-1.15-.35-1.8-.35-2,0-.23.12-.42.35-.57.19-.19.31-.38.31-.61,0-.61-.15-2.23-.42-4.84h-1.38c.27,1.46.42,2.53.5,3.22h-.04c-.35-1.19-.65-2.26-.92-3.22h-1.19c.23.88.42,1.96.61,3.19.19,1.27.46,3.15.81,5.6h-.08c-.81-2.26-1.38-5.18-1.8-8.79h-3.88ZM77.53,44.56v3.07h-.08c-.31-1.96-.46-3.69-.46-5.18.04.04.19.77.54,2.11h0ZM78.87,46.17l-.27-1.73c0-.08.15-.08.46,0,0,.77-.04,1.34-.08,1.73h-.12ZM61.29,49.09c-.12-.27-.15-.54-.15-.81s.04-.38.15-.35c.04.04.11.08.15.15.23.46.27,1,.08,1.57v-.04c-.12-.23-.19-.42-.23-.54h0Z"/>
    <path class="cls-3" d="M25.33,12.63l-.46.27v4.41h2.26c-.15-.5-.35-1.23-.58-2.19-.27-1.11-.65-1.96-1.23-2.49h0Z"/>
    <path class="cls-3" d="M29.05,9.6c-.27,0-.46.04-.5.08l-.08.04-.08,3.45c-.61-.31-1-.23-1.19.27-.04.19-.08.61-.08,1.27,0,.04.08.92.19,2.61h4.61c-.96-3.49-1.73-6.03-2.3-7.6l-.58-.11h0Z"/>
    <path class="cls-3" d="M31.97,17.46s-.04-.12-.04-.15h-4.61c0,.19,0,.42.04.69l-.04-.04c-.04-.12-.11-.35-.19-.65h-2.26c-.04,1.42-.08,2.53-.12,3.34-.11-.73-.27-1.34-.54-1.92-.31-.65-.65-1.15-1.08-1.42h-1.57c-.04.31-.08.65-.08,1.07,0,.81.42,2.99,1.3,6.64.27,1.11.5,2.15.69,3.11h10.05c-.04-.81-.04-1.19-.04-1.23h.08s.11.38.23,1c.04.08.08.15.11.23h6.14c-.31-.84-.92-1.38-1.8-1.57-1.07-.27-1.96.08-2.65,1.04v-.19c-.19-1.42-.27-2.42-.27-3.03.12.27.15.61.12,1.11.04.34.35.5.88.5.27,0,.42-.04.46-.11,0-.12,0-.15.04-.15,0-.65-.04-1.11-.08-1.34.61-.23.92-.77.92-1.61-.15-.92-.23-1.54-.27-1.8h.08c.15.5.35.77.61.88.35-.19.58-.58.69-1.11.04-.54.08-.88.08-1,.81.11,1.27-.12,1.34-.69h.08c.31,0,.5-.08.54-.19.04-.11.08-.23.08-.31-.19-.5-.34-.88-.46-1.23h-4.11v.15c0,.84-.04,1.42-.08,1.69l-.27-1.84h-2.96c.19.65.42,1.34.61,2.03.42,1.31.61,3.11.61,5.45v.84c-.46-1.46-1.23-4.18-2.3-8.17h0Z"/>
    <path class="cls-3" d="M42.45,18s.08.08.15.27c.15.19.34.27.61.27s.46-.04.5-.15c0-.12,0-.19.04-.19v-.88h-2.92c.31.73.54,1.31.73,1.73.31-.23.61-.27.88-.08v-.96h0Z"/>
    <path class="cls-3" d="M21.57,17.31h1.57c-.31-.19-.65-.31-1-.31-.27,0-.46.04-.5.08,0,.04-.04.04-.08.04v.19h0Z"/>
    <path class="cls-3" d="M17.92,20.95c.19.65.35,1.42.46,2.3.04.5.12,1.27.15,2.3-.23-.15-.42-.65-.61-1.53-.19-.77-.46-1.15-.88-1.15-.23,0-.46.15-.65.5-.19.27-.27.54-.27.73,0,.27.04.73.15,1.34.08.35.15.77.27,1.34l-.12-.08c-.08-.12-.23-.5-.42-1.15-.15-.5-.38-.77-.65-.88-.19.08-.31.15-.35.19-.11.12-.15.31-.15.58,0,.42.15,1.3.46,2.69h7.45c-.15-.73-.27-1.38-.38-1.92-.61-3.11-1.5-5.64-2.69-7.67-.42.08-.69.04-.84-.08-.19-.11-.31-.19-.42-.19-.27,0-.42.04-.46.12.04.04,0,.08-.04.08v2.49h0Z"/>
    <path class="cls-3" d="M14.85,28.13c-.19-.27-.42-.38-.65-.38-.27,0-.42.04-.5.12-.04.04-.08.08-.12.08,0,.04,0,.12.04.19h1.23Z"/>
    <path class="cls-3" d="M40.53,28.63c-.15.08-.27.12-.31.12-.04-.23-.08-.42-.15-.61h-6.14c.08.12.15.23.27.31-.12.54-.23,1.15-.31,1.8-.19,1.92-.35,3.03-.42,3.3h1.07v-.19l.08.19h1.19c-.73-2.07-.96-3.57-.73-4.53v-.08c.27.58.58,1.61.88,3.11.11.58.19,1.07.27,1.5h1.84c.12-1.04.08-1.88-.15-2.61.42.12.85.38,1.31.84.5.42.88.69,1.23.81.58-.38,1.19-.65,1.92-.84.35-.58.61-1.04.88-1.3-1.04-1.27-1.73-1.92-2.07-1.92-.27,0-.46.04-.65.12h0Z"/>
    <path class="cls-3" d="M31.2,30.74c.12.19.27.61.46,1.27.23.58.58.92,1.07,1.11.58-.5.85-1.5.81-2.92v-2.07h-10.05c.38,2.15.58,3.87.58,5.22v.19h4.95c-.19-.42-.35-.77-.46-1.04-.38-1-.54-1.88-.42-2.61.46,1.11.88,2.3,1.3,3.65h1.65c-.04-1.34,0-2.26.12-2.8h0ZM32.24,29.59v-.08c.19.19.27.58.27,1.23h-.11c-.12-.27-.15-.65-.15-1.15h0ZM25.68,28.25v-.08c.04.08.19.58.38,1.54.23,1.04.35,1.69.35,2,0,.46,0,.54-.04.27l-.08-.08c-.27-.81-.46-2.03-.61-3.65h0Z"/>
    <path class="cls-3" d="M14.85,28.13h-1.23c.08.84.23,1.88.5,3.07-.19-.54-.38-.96-.5-1.27-.27-.58-.54-1-.84-1.19-.23.08-.38.19-.5.38.08,1.19.31,2.69.73,4.41h3.57c-.04-.19-.12-.38-.15-.58v-.11c.04.19.12.42.23.69h1.76c-.04-.08-.04-.15-.08-.19v-.04c.04.08.04.15.08.23h5.41c-.42-2.15-.81-3.95-1.08-5.41h-7.45c.23.96.54,2.15.88,3.57h-.08c-.27-1.04-.5-1.8-.69-2.38-.19-.54-.38-.92-.57-1.19h0ZM20.57,32.43h-.11l-.12-1c.15.5.23.84.23,1h0Z"/>
    <path class="cls-3" d="M11.51,30.55c-.27,0-.42.04-.42.12,0,.04.04.04.08.08-.08.12-.12.15-.12.19-.04.04-.04.23-.04.58,0,.11.08.5.23,1.11-.12.04-.15.08-.19.11-.04.04-.04.08-.04.12v.69h1.8c-.65-2-1.07-2.99-1.3-2.99h0Z"/>
    <path class="cls-3" d="M23.91,34.04c-.04-.19-.04-.35-.08-.5h-5.41c.5,1.46,1.11,3.26,1.81,5.41h9.67c-.08-.61-.15-1.19-.19-1.77.15.46.35,1.04.54,1.77h1.42c-.31-1.19-.5-2.07-.61-2.65h.04c.27.5.58,1.38,1,2.65h1.5c-.35-1.69-.54-2.99-.58-3.91.34.77.8,2.07,1.38,3.91h1.07c-.58-2.19-.88-3.99-.92-5.41h-2.3c-.12.12-.15.27-.19.46-.08.42-.12.96-.08,1.65h-.04c-.04-.27-.23-.58-.5-.92-.12-.15-.23-.27-.35-.38v-.81h-1.65c.11.42.23.88.35,1.3-.04.04-.08.11-.12.15-.27-.58-.46-1.04-.65-1.46h-4.95c0,.27-.04.46-.08.54l-.08-.04h0ZM25.06,33.62l.08.15c.12.19.23.77.38,1.8.19.96.5,1.42.84,1.42.08,0,.15,0,.19.04-.11,0-.19.04-.27.08-.15.04-.23.08-.27.08-.19-.77-.54-1.19-.96-1.23v-2.34h0ZM23.53,36.81c.23.08.42.15.58.19l-.04,1.92h-.08c-.08-.15-.15-.31-.23-.42-.04-.15-.04-.35-.08-.58-.12-.5-.15-.84-.15-1.11h0ZM28.29,35.08c.08-.12.11-.15.11-.19h.08c.04.08.23.42.5,1.04-.23.46-.38.88-.42,1.31-.23-.81-.34-1.34-.34-1.65,0-.27.04-.46.08-.5h0Z"/>
    <path class="cls-3" d="M15.08,35.23v-.08c.61,1.38,1.11,2.65,1.46,3.8h1.19c-.08-.31-.15-.61-.23-.92-.38-1.92-.69-3.42-.92-4.49h-3.57c.19.96.46,2.03.81,3.19.19.65.35,1.27.5,1.84-.04.04-.04.08-.04.12-.31-1.11-.58-2.07-.81-2.88-.27-.88-.46-1.61-.65-2.26h-1.8v3.34c.12.5.19,1.19.27,2.07h1.3c-.04-.34-.04-.61-.04-.84.04.23.12.5.15.84h3.34c-.42-1.65-.73-2.92-.96-3.72h0ZM12.51,37.96c-.15-.15-.23-.38-.23-.69v-.08l.23.65s0,.08.04.11h-.04Z"/>
    <path class="cls-3" d="M18.34,38.95h1.57c-.8-2.96-1.3-4.76-1.5-5.41h-1.76c.31,1,.77,2.42,1.34,4.22.12.42.23.8.34,1.19h0Z"/>
    <path class="cls-3" d="M37.88,34.66c.08-.38.15-.77.19-1.11h-1.84c.08.5.11.84.11,1.04v.38s-.04-.08-.08-.08c-.19-.46-.35-.92-.46-1.34h-1.19l1,3.88c.15.58.31,1.07.42,1.54h1.11c-.08-.54-.12-.81-.12-.84.42-1.46.69-2.61.84-3.45h0Z"/>
    <path class="cls-3" d="M32.24,33.54h1.23c-.61-.35-1.04-.35-1.23,0h0Z"/>
    <path class="cls-3" d="M10.75,38.95c-.27-.65-.5-1.3-.77-1.96-.08.04-.12.19-.15.5-.04.27-.15.42-.42.42-.42-.08-.65-.08-.77-.04-.11.04-.15.31-.15.84,0,.08,0,.15.04.23h2.23Z"/>
    <path class="cls-3" d="M12.59,38.95h-1.3c.04.27.04.54.08.81.12,1.19.42,2.11.92,2.8.19-.08.38-.19.5-.31-.11-1.34-.15-2.46-.19-3.3h0Z"/>
    <path class="cls-3" d="M7.94,41.03v1.69c.42,2.34.96,4.72,1.57,7.06h9.21c-.04-.12-.04-.19-.04-.31h.08c.04.12.04.19.08.31h2c-.08-.69-.12-1.23-.12-1.65,0-1.04.08-1.76.23-2.23.04.08.08.15.12.27.04.11.11.19.15.27.27.96.57,2.07.92,3.34h2.19c-.69-3.07-1.04-5.22-1.04-6.49v-.38c.04-.19.08-.35.12-.46.08-.27.15-.61.23-.96.31,1.42.92,4.18,1.84,8.29h3.11c-.08-.65-.15-1.34-.23-2.15.15.65.31,1.38.46,2.15h.19c-.31-1.42-.58-2.73-.84-3.88-.34-3.3-.54-5.18-.54-5.64,0-.23.04-.5.08-.77.69,1.34,1.34,2.96,1.92,4.76-.04,1.57-.15,3.41-.27,5.53h.65c.11-1.19.19-2.3.23-3.34.04.08.04.15.08.27.12,1.08.19,2.11.31,3.07h1.5s-.04-.08-.04-.12c-.04-.77-.08-1.57-.11-2.42v-.04c.15.38.38,1.23.69,2.57h4.53c-.58-2.73-1.23-4.22-2.03-4.57-.15-.5-.31-1.04-.42-1.54-.5-1.8-.88-3.38-1.15-4.72h-1.5c.42,1.42,1,3.34,1.65,5.72.19.65.35,1.27.54,1.84-.04.38-.08.84-.12,1.38-.11-.35-.23-.73-.34-1.15-.96-3.34-1.69-5.95-2.15-7.79h-1.42c.34,1.15.73,2.65,1.23,4.45-.58-1-.92-1.69-1.04-2.04-.08-.23-.15-.46-.27-.65-.11-.61-.19-1.19-.27-1.76h-9.67c.04.12.08.23.11.35.96,3.03,1.42,4.76,1.42,5.18v.35s-.04-.04-.04-.08c-.04-.04-.08-.08-.12-.11-.5-1.54-1.07-3.42-1.69-5.6v-.08h-1.57c.42,1.54.69,2.8.77,3.8-.5-.96-.96-2.23-1.38-3.8h-1.19c.5,1.5.77,2.8.8,3.88-.04.08-.12.12-.15.08-.19-.46-.34-1-.54-1.57-.12-.42-.27-.88-.38-1.38-.08-.31-.15-.61-.23-.92v-.08h-3.34c.23,1.34.58,3.57,1,6.75-.23.15-.34.23-.38.27-.73-2.19-1.61-4.53-2.57-7.02h-2.23c.04.42.15,1.08.38,2.04-.08-.12-.23-.19-.42-.19-.27,0-.46.04-.5.11,0,.04,0,.08-.04.12h0ZM9.02,41.87v-.5c.04.15.08.31.12.5h-.12ZM15.74,44.29c-.12-.5-.23-.96-.35-1.38-.04-.35-.08-.65-.11-.92.31,1.11.5,1.88.58,2.3h-.12ZM26.94,43.71c.04.08.08.15.12.23.15,1.15.31,2.23.42,3.19-.35-2.26-.54-3.38-.54-3.41h0ZM20.42,44.44l.04.04-.04.04v-.08h0ZM11.05,47.82h-.04l-.19-.77c.12,0,.19.27.23.77h0Z"/>
    <path class="cls-3" d="M37.15,38.95h-1.11c.31,1.08.58,1.96.81,2.61.19-.04.35-.15.5-.27,0-.46-.04-1.04-.12-1.69-.04-.27-.04-.46-.08-.65h0Z"/>
    <path class="cls-3" d="M35.46,38.95h-1.07c.27.96.61,2.11.96,3.41.85,3.22,1.34,4.84,1.5,4.84.27,0,.42-.04.46-.12,0-.11,0-.15.04-.15v-1.15c-.81-2.8-1.38-4.91-1.77-6.33-.04-.19-.08-.35-.12-.5h0Z"/>
    <path class="cls-3" d="M37.88,54c-.19-1.65-.42-3.03-.69-4.22h-4.53c.23,1.04.5,2.38.84,4.03.42,2.19.77,3.95.96,5.29-1-3.91-1.77-7.02-2.34-9.33h-1.5c.5,4.91.84,8.52,1.07,10.82h.92c-.12-1.23-.23-3.11-.35-5.6.65,2.38,1.31,4.26,1.92,5.6h.42l.04-.04v.04h1.8c-.42-1.19-.65-1.96-.65-2.34,0-.27.08-.42.23-.38.08,0,.19.04.31.08.12.5.27,1.38.5,2.65h1.69c-.15-2.23-.38-4.41-.65-6.6h0ZM36.84,54.61c-.23-1.5-.42-2.95-.61-4.37t0-.04v-.04l.04-.04s.04,0,.08-.04c.12.5.23,1.15.35,2,.19,1.19.27,2,.27,2.38,0,.42-.04.5-.11.15h0Z"/>
    <path class="cls-3" d="M29.01,49.78h-.19c.08.5.15,1,.23,1.5.04.27.08.58.12.88-.04.34-.04.73-.08,1.11-.15-.73-.31-1.88-.5-3.49h-3.11c.12.42.19.88.31,1.34-.42-.46-.88-.81-1.38-1-.04-.11-.04-.23-.08-.34h-2.19v.04c-.42.08-.77.23-1.11.5-.08-.15-.15-.31-.19-.46v-.08h-2c.19.69.42,1.65.69,2.84-.15.42-.27.84-.38,1.3-.23-1.57-.38-2.95-.42-4.14h-9.21c.5,1.96,1.04,3.91,1.65,5.87.65,2.03,1.23,3.69,1.76,4.95h4.87c-.77-2.57-1.42-4.68-1.96-6.41.23-.12.42-.15.58-.15.62,2.46,1.19,4.64,1.77,6.56h2.11c-.23-1.11-.42-2.15-.58-3.11.12-.58.27-1.11.46-1.61.19.84.38,1.77.58,2.8-.11.35,0,.96.31,1.92h2.38c-.5-2.46-.77-3.76-.81-3.95.38.35.96,1.42,1.69,3.22.04.27.12.5.15.73h2.69c-.46-1.61-1-3.53-1.57-5.72-.35-1.34-.65-2.61-.92-3.72.5.23.96.73,1.46,1.46.65,2.99,1.23,5.64,1.65,7.98h3.45c-.42-2.11-.96-4.72-1.61-7.91.04-.19.04-.34.08-.54.12-.81.23-1.61.31-2.38h-.65c-.04.38-.04.77-.08,1.19-.12-.38-.19-.77-.27-1.15v-.04h0ZM30.24,59.41h-.12c-.34-.81-.65-1.69-.92-2.69,0-.73.08-1.61.23-2.72.23,1.5.5,3.3.81,5.41h0ZM21.95,52.39c.19-.27.42-.54.61-.73.27,1.26.58,2.65.92,4.18-.58-1.27-1.07-2.42-1.54-3.45h0ZM13.86,54.65c.19-1.27.19-2.23.04-2.88.42,1.34,1.04,3.84,1.92,7.52-.08-.04-.15-.04-.19-.08-.15.04-.27.08-.38.19-.12-.42-.27-.84-.38-1.34l-1-3.42h0ZM13.7,51.01l-.19-1.11c.15.19.23.58.23,1.11h-.04Z"/>
    <path class="cls-3" d="M27.79,60.6c.27,1.57.54,2.96.73,4.22l-.04-.04c-.35-1.04-.81-2.42-1.31-4.18h-2.69c.5,2.42,1,4.57,1.5,6.53-.19.46-.31,1.15-.31,2.11-.04.61,0,1.34.04,2.19h3.07c-.27-1.11-.5-2-.69-2.65-.23-.88-.46-1.54-.73-1.92v-.04c-.15-1.04-.42-2.23-.84-3.57-.15-.73-.27-1.23-.31-1.53.23.54.69,1.8,1.38,3.8.65,1.77,1.15,2.65,1.57,2.65h.12c-.08.46-.12,1-.12,1.65v1.61h3.88s-.04-.04-.04-.08c-.35-1.57-.77-2.8-1.27-3.69-.12.08-.19.19-.31.31-.12-.46-.27-.96-.38-1.5-.65-2.53-1-3.91-1.04-4.18h.04c.11.19.23.77.38,1.65.19.65.5,1.04.84,1.15.08.11.15.27.19.42.96,2.26,1.65,4.26,2.07,5.91h1c-.88-3.11-1.53-6.52-1.88-10.29-.04-.15-.04-.35-.04-.54h-.92c.15,1.69.23,2.69.27,2.99v2.07h-.12c-.08-.19-.15-.38-.19-.57.15-.04.23-.08.27-.12,0-.12,0-.15.04-.15-.15-1.04-.39-2.42-.73-4.22h-3.45ZM30.01,67.55c-.12-.27-.19-.46-.31-.65v-.08l.12.12c.04.12.11.35.19.61h0Z"/>
    <path class="cls-3" d="M38.53,60.6h-1.69c0,.12,0,.19.04.31.27,1.27.61,2.26,1,2.96.35-.19.58-.27.61-.27.12.04.15-.19.15-.61-.04-.81-.08-1.57-.12-2.38h0Z"/>
    <path class="cls-3" d="M36.46,60.6h-1.8c.04.42.08.77.08,1.04,0,.04-.11.35-.34.84-.23.54-.34.88-.34,1.08,0,.12.31,1.54.88,4.26.27,1.34.5,2.53.65,3.61h1.57c-.5-2.11-.77-3.61-.88-4.49v-.04c.04.23.42,1.53,1.08,3.88.04.23.11.46.19.65h2.57c-.27-1.96-.5-3.19-.65-3.65-.04-.15-.73-1.73-2-4.72-.42-.96-.73-1.77-1-2.46h0Z"/>
    <path class="cls-3" d="M34.27,60.75c.12-.04.23-.12.35-.15h-.42s.04.12.08.15h0Z"/>
    <path class="cls-3" d="M18.23,62.02c-.15-.5-.31-.96-.42-1.42h-4.87c.88,2,1.61,2.99,2.26,2.99h.15c.12.61.31,1.31.54,2.03.69,2.42,1.27,3.76,1.76,4.07.27-.27.54-.58.77-.96.46,1.15.88,1.73,1.27,1.73.42,0,.58-.04.46-.15.04-.27.08-.61.08-1,0-.23-.27-1.34-.85-3.3.04-.19.12-.35.15-.54.96,3.26,1.73,5.22,2.23,5.95h.96v-.04s0,.04.04.04h2.53c-.12-.65-.27-1.46-.46-2.42.04-.19.04-.38.04-.58,0-.54-.35-2.53-1.08-6.03-.12-.65-.23-1.27-.34-1.8h-2.38c.04.12.08.23.11.35.15.81.31,1.69.46,2.57-.5-1.57-.92-2.42-1.27-2.5-.04-.15-.04-.31-.08-.42h-2.11c.04.19.08.35.12.5-.04.31-.04.61-.08.92h0ZM16.12,61.52c.27.77.46,1.46.65,2.03.19.73.38,1.38.58,2.03.04.19.04.31.04.42,0,.34,0,.58-.04.61-.61-1.11-1.04-2.8-1.23-5.07v-.04h0Z"/>
    <path class="cls-3" d="M22.72,71.42h-.96c.15.19.27.31.38.31.27,0,.46-.08.54-.19l.04-.12h0Z"/>
    <path class="cls-3" d="M43.37,66.89c-.81,0-1.19.58-1.08,1.69.04.31.08.65.15,1.04-.04-.15-.12-.31-.15-.46-.27-.84-.58-1.27-.84-1.27s-.46.04-.5.15c-.04.04-.04.08-.04.12v1.15c.08.73.15,1.46.23,2.11h3.72s-.04,0-.04-.04c-.46-1.69-.77-3.15-.88-4.38l-.58-.11h0Z"/>
    <path class="cls-3" d="M35.81,74.3l-.04.88c-.46-1.19-.88-2.46-1.23-3.76h-1c.35,1.34.5,2.5.5,3.45,0,.42,0,.46-.04.12-.27-.65-.61-1.84-.96-3.57h-3.88c0,.69-.04,1.11-.08,1.3l-.04-.08c-.12-.42-.19-.84-.27-1.23h-3.07c0,.58.04,1.19.08,1.84l-.08-.12c-.08-.19-.23-.77-.42-1.73h-2.53c.58,1.8,1.19,3.38,1.84,4.68.19-.04.35-.15.46-.27v-1.34c.15.31.27.5.31.58.15.19.35.27.58.27.46,0,.61-.04.46-.15.31-.88.46-1.53.46-2.03.12.31.42,1.34.92,3.07.54,1.61.96,2.42,1.27,2.42h.38c.04-.19.19-1.19.54-3.03.19-1,.27-2,.27-3.03.23.58.73,2.19,1.46,4.83.73,2.34,1.34,3.53,1.8,3.53s.65-.12.54-.31v-1.73s.08.08.15.27c.15.19.34.27.61.27.46,0,.58-.08.38-.23.15-1,.15-1.88,0-2.69.42,1.34.81,2.11,1.15,2.38.15-.04.31-.15.5-.27v-3.95c.23.69.54,1.73.88,3.15.34,1.27.84,2.3,1.42,3.11.19-.04.34-.12.5-.23-.15-1.04-.23-1.73-.23-2.07.11.46.34,1.07.69,1.8.35.77.73,1.38,1.08,1.8.23-.08.38-.19.5-.35-.15-1.04-.23-1.69-.23-2.03.04.04.12.23.27.58.19.34.46.5.73.5s.46-.04.5-.12c0-.08,0-.12.04-.12v-2.88c-.19-.88-.27-1.84-.27-2.88l.08.12c.19.42.58,1.57,1.07,3.42.54,1.65,1.04,2.46,1.54,2.46.27,0,.46-.08.58-.19.04-.12.08-.23.11-.31-.11-.15-.11-.38-.08-.65.04-.34.08-.57.08-.69.12.19.35.5.73.88.23-.11.38-.27.5-.38v-3.19c.23,1,.5,1.92.81,2.73.42,1.19.84,1.8,1.23,1.8.46,0,.65-.12.54-.31v-2.8c.34.19.61.69.88,1.42.27.8.58,1.38.88,1.69.23-.08.42-.19.54-.31.04-.88.19-1.84.46-2.88.19-.92.31-1.8.31-2.61,0-1.27-.08-2.53-.19-3.72h-5.11c.04.15.08.31.12.46.27,1.07.61,2.53,1.07,4.34v1.34h-.08c-.73-2.69-1.15-4.15-1.23-4.41-.19-.61-.42-1.19-.61-1.73h-1.54c.04.27.04.5.08.69.12,1.04.31,1.8.61,2.38v1.19h-.19c-.11-.65-.46-2.07-1.04-4.26h-3.72c.27,2.65.54,4.84.81,6.52h-.12c-.69-1.31-1.19-3.03-1.54-5.22-.08-.46-.15-.88-.19-1.3h-2.57c.5,2.04.77,3.42.77,4.14,0,.42-.04.5-.12.15-.42-1.65-.77-3.07-1.04-4.3h-1.57c.15,1.11.23,2.07.23,2.88h0ZM38.96,72.73v-.08c.15.31.31.81.5,1.46.15.65.23,1.19.27,1.57-.58-1.5-.81-2.5-.77-2.96h0ZM31.74,71.5c.04.11.08.27.12.42.58,1.8.88,3.07.88,3.76,0,.31,0,.5-.04.61l-.04-.08c-.12-.34-.58-1.96-1.38-4.76.08.04.15.04.19.04h.27ZM51.08,76.11c.08.35.12.65.12.92h-.12l-.15-1.57c.04.08.08.31.15.65h0Z"/>
    <path class="cls-3" d="M78.49,49.78h-1.27s-.04.11-.04.15c-.04-.04-.04-.12-.08-.15h-1.8c.27,1.11.42,1.84.42,2.26,0,.73-.04,1.15-.08,1.34-.5-.73-.81-1.69-.92-2.8v-.81h-1.46c.27.69.46,1.34.54,1.92.08.46.11,1.31.11,2.5l-.04,1.38c-.35-.77-.58-1.84-.69-3.22-.04-1.08-.11-1.92-.15-2.57h-1.04v.27h-.04c-.04-.08-.04-.15-.04-.27h-1.3c.19.77.38,1.61.65,2.53.88,3.38,1.46,5.91,1.69,7.6v.69h.96c-.04-.81-.08-1.57-.15-2.3h.12c0,.08.15.12.42.12.15,0,.35,0,.54-.04.08-.81.12-2.07.12-3.76h.08c.19.84.5,1.27.96,1.27s.58-.08.38-.19c.27-.77.38-2,.38-3.65h.04c0,.35.23.54.73.54.58,0,.88-.65.96-1.96v-.84h0Z"/>
    <path class="cls-3" d="M67.93,49.78c.38,1.34.58,2.11.61,2.34h-.12c-.34-.84-.54-1.61-.61-2.34h-1.11v.08c.19.81.27,1.34.27,1.61s-.08.5-.23.69c-.08.11-.23.27-.42.46l-.08-.04c0-.46-.04-1.38-.08-2.8h-2.34c.19.69.42,1.5.69,2.38.58,2.03.84,3.26.84,3.61,0,.04-.15.34-.42.92-.31.58-.46,1.5-.46,2.73h-.08c-.27-.77-.61-2.61-1.04-5.49-.27-1.88-.46-3.26-.54-4.14h-2.42c.12.31.19.65.31,1,.38,1.38.61,2.53.69,3.46h-.08c-.08-.5-.38-1.42-.92-2.76-.31-.77-.54-1.34-.65-1.69h-2.26c.04.31.08.54.08.73l-.27-.08v-.65h-1.61c.27,1,.38,1.57.38,1.76,0,.31-.04.54-.11.65-.04.04-.12.15-.27.31-.08-.42-.27-1.34-.58-2.72h-2.11c.12.84.19,1.38.19,1.57l-.04.88-.08-.08c-.19-.73-.35-1.54-.5-2.38h-1.84c.08,1.04.11,1.61.11,1.76,0,.04-.08,1.42-.23,4.14-.04.81.12,2.42.46,4.91h3.26c-.08-1.96-.12-3.88-.12-5.68l.08.12c.19,1.19.46,3.03.73,5.57h3.42c-.08-.65-.12-1.31-.12-2.03.12.54.23,1.23.35,2.03h2.03c-.61-2.65-.88-5.22-.85-7.71.42,2,.85,4.57,1.27,7.71h6.91c-.12-.19-.19-.42-.27-.61-.65-1.65-1-2.88-1-3.61,0-1.11.23-2.34.69-3.65.61,1.04,1,2.69,1.11,4.87.08,1.19.15,2.19.23,2.99h3.87l-2.19-10.82h-2.57ZM70.27,53.85c-.12-.88-.23-1.73-.27-2.49v-.08c.04.19.08.61.19,1.19.08.54.12,1,.08,1.38h0ZM56.46,53.96v-.04c.12.27.19.92.19,1.88l-.04-.12c-.19-.08-.27-.34-.27-.77.08-.5.11-.81.11-.96h0ZM53.16,59.29c-.04-.11-.08-.38-.08-.8,0-.27,0-.42.04-.46l.04.08v-.04c.04.23.04.65,0,1.23h0ZM57.03,60.48h-.11c-.38-1.07-.58-1.92-.61-2.49.04.11.27.92.73,2.49h0Z"/>
    <path class="cls-3" d="M68.81,60.6c.08,1.31.15,2.11.19,2.38-.34-.88-.69-1.69-.96-2.38h-6.91c.08.65.15,1.34.27,2.07h-.15c-.19-.69-.38-1.38-.54-2.07h-2.03c.04.5.11,1.04.15,1.65h-.08c-.11-.5-.23-1.07-.31-1.65h-3.42c.19,1.65.38,3.57.61,5.76.19,1.84.38,3.53.58,5.07h1c-.08-.77-.15-1.61-.19-2.5-.19-3.65-.31-5.53-.31-5.56l.11.11c.69,1.31,1.19,3.34,1.5,6.1.08.65.15,1.27.23,1.84h1.5v-.42c-.04-1.73.15-3.15.58-4.3l.04.12c.19.84.34,2.11.54,3.8.04.27.12.54.15.81h1.57c-.04-1.34-.12-2.42-.19-3.19.19.15.46.31.81.46.23.11.35.31.35.58,0,.04-.04.77-.15,2.15h1.34c-.12-.27-.19-.42-.19-.5v-.08c.31.08.5.27.58.58h1.11c.04-.23.12-.46.15-.73.35-1.42.61-2.42.84-2.92.12.04.27.19.54.38.27.19.54.27.81.27,1.42,0,2.19-.96,2.34-2.92-.08-2.19-.12-3.49-.08-3.95h.15c.04.58.08.96.12,1.15.11.42.35.81.69,1.15.08-.04.12-.19.12-.38.04-.15.15-.23.42-.23.69,0,1.07-.19,1.19-.54.04-.04.04-.58.04-1.61v-.5h-.96v.84h-.12l-.15-.84h-3.87ZM67.43,64.32c-.12-1.92-.19-2.92-.23-2.96v-.04c.35.88.81,2.03,1.34,3.49.5,1.34.77,2.03.77,2.07,0,.27-.04.42-.12.46-.15-.04-.27-.04-.38,0-.81-.73-1.27-1.77-1.38-3.03h0ZM64.78,63.25l-.42.12c-.11-.42-.15-.77-.15-1.08.12,0,.31.31.58.96h0ZM62.33,64.52c.12-1.04.15-1.77.08-2.11v-.08c.04.19.15.88.42,2.07.23,1,.35,1.73.31,2.15-.58-.42-.84-1.08-.81-2.03h0ZM59.03,66.89c0-.42-.04-.88-.11-1.31v-.04c.15.42.19.84.11,1.34h0ZM65.44,68.28c-.12-.38-.19-.88-.19-1.54v-.04c.19.58.23,1.19.19,1.84v-.27h0Z"/>
    <path class="cls-3" d="M48.59,49.78c0,.5,0,1.04.04,1.53.58.38.96.88,1.23,1.54-.11-1.27-.19-2.3-.19-3.07h-1.07Z"/>
    <path class="cls-3" d="M50.24,56.49c-.04-.46-.11-.88-.15-1.3-.04.27-.04.58-.08.92-.08.73-.11,1.46-.11,2.15,0,.46-.12,1.11-.38,1.92.04.11.04.27.08.42h1.19c-.15-1.04-.35-2.42-.54-4.11h0Z"/>
    <path class="cls-3" d="M50.78,60.6h-1.19c.19.88.38,1.84.61,2.8l-.19.08c-.15.65-.38,1.15-.73,1.57-.34.42-.61.88-.73,1.3-.54-.12-.96.04-1.23.38-.19.23-.27.46-.27.65,0,.88.19,2.23.61,4.03h5.11c-.12-1.11-.31-2.15-.58-3.19v-1.88c.08.27.38,1.96.88,5.07h2.07c-.42-3.84-.69-7.45-.81-10.82h-3.26c.04.23.08.46.12.73v1.34h-.12c-.08-.42-.19-1.11-.31-2.07h0ZM53.46,65.59c.35.35.5.92.5,1.77l-.04.92c-.12-.35-.19-.77-.27-1.34-.11-.73-.15-1.15-.19-1.27v-.08h0ZM50.47,66.01v-.08c.15.46.23.73.23.77-.04-.08-.12-.31-.23-.69h0ZM49.85,70.31l-.23-1.57c.19.54.27,1.07.27,1.57h-.04Z"/>
    <path class="cls-3" d="M57.22,71.42h-1c.35,2.5.69,4.57,1.08,6.22.19-.04.34-.15.5-.27v-2.69c-.23-.92-.42-2-.58-3.26h0Z"/>
    <path class="cls-3" d="M55.27,72.77c-.04-.46-.08-.92-.12-1.34h-2.07c.04.31.11.61.15.96.42,2.49.92,3.72,1.5,3.72.27,0,.42-.04.46-.12l.08-.15v-3.07h0Z"/>
    <path class="cls-3" d="M63.75,71.42v.04c.12,1.38.77,2.07,1.88,2.07.42,0,.57-.04.38-.08.12-.31.31-1,.58-2.04h-1.11v.27c0,.46,0,.54-.04.23h-.08c-.11-.19-.19-.38-.27-.5h-1.34Z"/>
    <path class="cls-3" d="M62.4,74.07c.19-.04.35-.15.54-.27v-2.38h-1.57c.19,1.08.54,1.96,1.04,2.65h0Z"/>
    <path class="cls-3" d="M60.1,75.53c0-.12,0-1.46-.04-4.11h-1.5c.27,1.96.61,3.45,1.04,4.41.19-.08.38-.19.5-.31h0Z"/>
    <path class="cls-3" d="M45.83,69.24l-.54.27c.04.81.08,1.42.12,1.92h1.54c-.35-.84-.73-1.57-1.11-2.19h0Z"/>
    <path class="cls-4" d="M46.51,19.96c-.08-.27-.27-.42-.58-.42-.92-.15-1.61-.23-2.07-.23-.27,0-.5.04-.61.15-.11.11-.19.15-.23.15-.19-.31-.38-.54-.58-.65-.27-.19-.58-.15-.88.08-.38.27-.77.77-1.15,1.57-.84,1.73-1.27,3.15-1.27,4.18,0,.27.04.46.15.5.04.04.15.12.35.15.5-.73,1-1.65,1.46-2.84.42-1.27.77-2.11.96-2.61l.15.19c-.04.11-.35,1.04-.92,2.69-.58,1.5-.84,2.46-.84,2.88,0,.35.04.54.08.58,0,.04.11.08.38.12.19-.04.31-.08.38-.19.38-1.34.69-2.3.88-2.96.38-1.11.88-1.96,1.5-2.53l.08.19c-.04.23-.38,1.19-1.08,2.88-.65,1.65-1,2.57-1,2.76,0,.31.04.5.15.54.04.04.19.04.38.08.73-.58,1.34-1.46,1.77-2.65.42-1.42.84-2.53,1.23-3.34l.08.12c0,.46-.34,1.46-1.04,2.99-.69,1.57-1.04,2.34-1.04,2.38,0,.27.04.42.11.46t.08.04l.58-.04c.15-.23.61-1.19,1.42-2.84.58-1.19,1.11-1.96,1.65-2.38-.04.38-.38,1.31-1.04,2.76-.65,1.42-1,2.34-1,2.76,0,.27.04.42.15.46.04.04.19.04.38.04.31-.08.54-.23.65-.5.12-.27.23-.46.27-.5.04.08.04.19.08.31.04.11.23.19.5.19.54,0,1.11-.92,1.77-2.73.54-1.61.81-2.73.81-3.34l-.04-.73c-.35-.04-.73-.08-1.19-.19-.42-.12-.73-.15-.96-.15-.27,0-.46.04-.61.15-.15.11-.23.15-.27.15,0-.35,0-.58-.04-.69h0ZM47.51,24.03c.23-.54.46-.96.73-1.23h.12c.04.38-.12.88-.46,1.46-.27.46-.61.88-.96,1.23.27-.65.46-1.15.58-1.46h0Z"/>
    <path class="cls-4" d="M47.63,31.66c-.11-.04-.19-.04-.31-.04-.19.12-.38.27-.54.38-.65.38-1.15.69-1.5.92-.5.27-.73.42-.77.42-.27,0-.42-.04-.54-.12-.12-.08-.19-.12-.23-.12.34-.81.5-1.46.5-1.92,0-.23,0-.42-.04-.58-.12-.23-.19-.42-.27-.61-.19-.04-.42.08-.69.42-.27.27-.54.73-.88,1.3-.19.35-.42.77-.65,1.19-1.73,3.22-2.57,5.33-2.57,6.37,0,.27.04.46.15.54.04.08.15.15.35.19.19-.04.31-.12.38-.19-.04.12-.15.46-.38,1-.19.42-.27.73-.27,1,0,.23.08.38.27.42.19.04.27.19.27.38,0,.27-.12.69-.38,1.19-.27.5-.38.81-.38,1,0,.23.04.58.12,1.07.08.5.12.88.12,1.15.46.12.84.12,1.11,0-.04.27-.27.92-.69,2.03h8.79c.15-.69.31-1.46.46-2.34.38-2.03.58-3.26.58-3.61-.04-.04-.08-.12-.11-.15-.42-.5-.65-.77-.65-.84,0-.11.19-.58.54-1.38.35-.81.5-1.42.5-1.88,0-.35-.08-.69-.19-1-.23-.58-.65-.88-1.23-.88-.19,0-.34.12-.5.35-.15.27-.35.42-.54.5v-.12c.27-.65.46-1.11.58-1.46.19-.54.31-.96.35-1.27v-.08c0-.12-.04-.23-.15-.34-.19-.15-.42-.31-.77-.46.19-.31.31-.58.42-.81.15-.35.23-.65.23-.92,0-.42-.15-.65-.46-.73h0ZM45.29,36c.31-.73.58-1.19.81-1.42-.04.12-.27.61-.61,1.54-.27.73-.58,1.3-.92,1.69l-.04-.08c.34-.77.57-1.34.77-1.73h0ZM47.51,39.42l.08-.12c-.04.27-.38.81-1.04,1.61.5-.65.81-1.15.96-1.5h0ZM47.78,41.87v.11c-.08.27-.65,1.54-1.69,3.8.77-1.8,1.34-3.11,1.69-3.91h0ZM46.63,48.09l.04-.15c.35-1.04.81-1.92,1.31-2.65-.08.23-.19.69-.35,1.38-.19.73-.54,1.19-1,1.42h0ZM46.55,36.81c-.15.96-.5,2.11-1.08,3.38-.58,1.42-1.19,2.53-1.88,3.42.88-2.27,1.84-4.53,2.96-6.79h0Z"/>
    <path class="cls-4" d="M39.8,49.09c-.04.12-.12.27-.15.38,0,.27.04.46.15.5.04.04.19.04.38.04.15-.04.35-.19.54-.38v.12c-.04.12-.38,1.19-1.11,3.15-.65,1.96-1,3.11-1,3.46,0,.31.04.5.15.61.04.04.19.11.38.19.35-.23.69-.58,1.04-1v.31c.04.12.23.19.54.19.15,0,.42-.31.81-.92-1.42,3.42-2.15,5.56-2.15,6.49,0,.04.27.84.84,2.5.65,1.73,1.11,2.69,1.46,2.95.46-.34.88-.84,1.27-1.53.58-1.04.92-1.57,1-1.69-.04.19-.12.54-.31,1-.08.5.04.96.35,1.46.42-.04.73-.23.92-.58.04.19.12.46.15.81.08.38.23.73.5,1.04.73-1.07,1.57-2.65,2.53-4.68.65-1.34,1.11-2.42,1.42-3.3.27-.81.38-1.46.38-1.92,0-.69.04-1.42.11-2.15.04-.34.04-.65.08-.92.04-.27.04-.5.04-.69,0-.61-.08-1.15-.27-1.65-.27-.65-.65-1.15-1.23-1.54l-.04-.04c-.23.08-.42.12-.58.12.19-.54.38-1.3.58-2.3h-8.79ZM41.37,66.05l-.08-.04c-.27-.69-.38-1.23-.38-1.57l2.57-4.76c-.96,3.07-1.69,5.18-2.11,6.37h0ZM46.29,57.22c-.81,1.38-1.3,2.38-1.53,2.96,1.19-3.34,2.3-5.6,3.26-6.79-.19.92-.77,2.19-1.73,3.84h0ZM48.86,55.38v.08c-.12,1.5-.54,2.65-1.23,3.38v-.15c.54-1.27.96-2.34,1.23-3.3h0ZM47.05,60.02c.08-.04.12-.04.15,0-.15.23-.42.81-.77,1.73l.61-1.73h0ZM45.13,55.8c.65-1.92,1.19-3.26,1.61-4.03l.08-.11c-.65,2.19-1.23,3.57-1.69,4.14h0Z"/>
  </g>
  <g id="Layer_4" data-name="Layer 4">
    <path class="cls-2" d="M11.74,28.21c-2.53,4.34-3.8,7.98-3.8,10.94l-.27,5.64c0,3.03.62,6.56,1.84,10.55,1.3,4.22,2.88,7.52,4.68,9.86,2.84,3.57,5.99,6.75,9.44,9.52,6.49,5.26,12.78,7.87,18.81,7.87,13.97,0,24.6-5.87,31.93-17.62,2.57-4.11,4.53-8.63,5.91-13.66,1.04-3.8,1.57-6.95,1.57-9.48,0-6.83-2.57-13.28-7.71-19.34-5.91-7.02-14.24-12.09-25.02-15.2-4.87-2.27-10.32-2.03-16.43.69-5.6,2.49-10.71,6.56-15.31,12.17-2.23,2.73-4.11,5.41-5.64,8.06h0ZM52.12,9.48l7.98,3.68c4.34,1.96,8.17,4.68,11.51,8.14,2.92,2.95,5.18,6.33,6.83,10.06,1.57,3.61,2.38,7.1,2.38,10.48,0,2.34-.46,5.29-1.42,8.86-1.27,4.87-3.15,9.33-5.6,13.32-7.1,11.63-17.77,17.46-31.93,17.46-8.33,0-15.89-3.76-22.64-11.28-7.02-7.87-10.56-17.16-10.56-27.79,0-1.96.85-5.14,2.57-9.56,1.65-4.18,3.07-7.14,4.3-8.87,1.46-2,4.11-4.76,7.98-8.25,5.37-4.87,9.48-7.29,12.28-7.29.38,0,1-.19,1.88-.61,1-.5,1.88-.81,2.69-.92,2.92-.58,6.83.31,11.74,2.57h0Z"/>
    <path class="cls-2" d="M43.48,18.31c-2.07,0-3.53,1-4.38,2.96-.5,1.07-.73,2.26-.73,3.61,0,2.95,1.96,4.41,5.87,4.41,1.96,0,3.49-.77,4.61-2.3.84-1.15,1.27-2.26,1.27-3.38,0-3.53-2.23-5.3-6.64-5.3h0ZM47.59,20.61c1.04.84,1.54,1.92,1.54,3.19,0,.65-.35,1.42-1,2.38-.96,1.3-2.19,1.96-3.69,1.96-2.07,0-3.49-.38-4.26-1.15-.54-.5-.81-1.3-.81-2.34,0-1.76.5-3.11,1.54-4.07.88-.81,2-1.23,3.34-1.19,1.3.04,2.42.46,3.34,1.23h0Z"/>
    <path class="cls-2" d="M44.4,30.59c-3.49,0-5.6,2.15-6.29,6.49-.34,2.19-.34,4.61,0,7.25,0,1.96-.27,6.98-.77,15.04v1.65c.04,1.11.23,2.15.54,3.07.92,2.88,2.84,4.34,5.76,4.34,3.45,0,5.53-1.88,6.22-5.68.19-1.19.27-2.61.23-4.22-.12-1.46-.19-2.3-.19-2.57,0-2.57-.12-5.18-.38-7.87-.27-2.65-.38-4.37-.38-5.1.35-2.96.5-4.64.5-5.1,0-1.11-.42-2.46-1.23-4.07-1.07-2.15-2.42-3.22-3.99-3.22h0ZM39.53,36.69c.27-1.8,1.11-3.19,2.53-4.15,1.5-1.5,3.03-1.23,4.53.81,1.27,1.73,1.92,3.22,1.92,4.57,0,2.61.08,5.68.19,9.21.12,3.53.15,6.49.15,8.83,0,.11.04.84.08,2.11,0,1.42-.12,2.69-.35,3.84-.69,3.57-2.38,5.37-5.1,5.37-2.34,0-3.88-1.23-4.61-3.65-.27-.92-.38-2.3-.38-4.15,0-2.72.08-5.83.23-9.4.15-3.88.35-6.79.54-8.75.04-2.07.12-3.61.27-4.64h0Z"/>
  </g>
</svg>