<?xml version="1.0" encoding="UTF-8"?>
<svg id="Layer_2" data-name="Layer 2" xmlns="http://www.w3.org/2000/svg" xmlns:xlink="http://www.w3.org/1999/xlink" viewBox="0 0 94.49 96.38">
  <defs>
    <style>
      .cls-1 {
        fill: url(#linear-gradient);
      }

      .cls-1, .cls-2, .cls-3, .cls-4 {
        stroke-width: 0px;
      }

      .cls-3 {
        fill: #93e11e;
      }

      .cls-4 {
        fill: #999;
      }
    </style>
    <linearGradient id="linear-gradient" x1="44.9" y1="9.52" x2="44.9" y2="125.97" gradientTransform="translate(94.49) rotate(-180) scale(1 -1)" gradientUnits="userSpaceOnUse">
      <stop offset=".37" stop-color="#fff"/>
      <stop offset="1" stop-color="#c6c6c6"/>
    </linearGradient>
  </defs>
  <g id="Layer_1-2" data-name="Layer 1">
    <path class="cls-4" d="M71.74,33.81c10.44.88,16.16,5.91,17.15,15.04.04.42.08.88.12,1.34,0,.27,0,.5.04.77-.04.23-.04.46-.04.69-.54,9.98-6.29,15.43-17.27,16.39h-13.66c9.1,8.79,8.75,16.81-1.04,24.1-9.1,6.79-17.27,5.41-24.6-4.11L2.54,54.99c-2.42-2.03-3.11-4.11-2.07-6.14.42-.81,1.11-1.61,2.07-2.42L32.44,13.81c7.33-9.52,15.5-10.9,24.6-4.11,9.79,7.29,10.13,15.31,1.04,24.1h13.66Z"/>
  </g>
  <g id="Layer_2-2" data-name="Layer 2">
    <path class="cls-4" d="M37.19,8.48L7.3,41.1h.04c-1.8,1.5-2.69,3.03-2.65,4.57-.04,1.5.84,3.03,2.61,4.53l29.9,33.04c7.48,9.71,15.85,11.09,25.14,4.15,5.03-3.72,7.6-7.68,7.75-11.78.19-3.92-1.84-7.98-6.02-12.24h12.78c11.21-.96,17.08-6.56,17.62-16.73v-.04c0-.19,0-.42.04-.65v-.08c-.04-.27-.04-.5-.04-.73-.58-10.21-6.45-15.81-17.62-16.77h-12.78c4.18-4.26,6.22-8.33,6.02-12.24-.15-4.11-2.72-8.06-7.75-11.78-9.29-6.95-17.66-5.53-25.14,4.18v-.04h0ZM37.81,8.98C44.99-.35,53.01-1.69,61.87,4.95c4.8,3.57,7.25,7.29,7.45,11.21.15,3.91-2,8.02-6.45,12.32-.04.04-.08.12-.12.19-.04.08-.04.15,0,.23.04.08.12.15.15.19.08.04.15.04.23.04h13.62c10.71.92,16.35,6.26,16.92,16.04,0,.23,0,.46.04.73-.04.23-.04.46-.04.69-.54,9.75-6.18,15.08-16.92,16h-13.62c-.08,0-.15.04-.23.08-.04.04-.11.08-.15.19-.04.04-.04.11,0,.19.04.08.08.15.12.19,4.45,4.3,6.6,8.4,6.45,12.32-.19,3.92-2.65,7.64-7.45,11.21-8.87,6.64-16.89,5.29-24.06-4.03L7.87,49.69s0-.04-.04-.04c-1.57-1.34-2.34-2.65-2.38-3.99.04-1.34.81-2.65,2.38-3.99l.04-.04L37.77,9.01s.04,0,.04-.04h0Z"/>
    <path class="cls-1" d="M37.77,9.01s.04,0,.04-.04C44.99-.35,53.01-1.69,61.87,4.95c4.8,3.57,7.25,7.29,7.45,11.21.15,3.91-2,8.02-6.45,12.32-.04.04-.08.12-.12.19-.04.08-.04.15,0,.23.04.08.12.15.15.19.08.04.15.04.23.04h13.62c10.71.92,16.35,6.26,16.92,16.04,0,.23,0,.46.04.73-.04.23-.04.46-.04.69-.54,9.75-6.18,15.08-16.92,16h-13.62c-.08,0-.15.04-.23.08-.04.04-.11.08-.15.19-.04.04-.04.12,0,.19.04.08.08.15.12.19,4.45,4.3,6.6,8.4,6.45,12.32-.19,3.92-2.65,7.64-7.45,11.21-8.87,6.64-16.89,5.29-24.06-4.03L7.87,49.69s0-.04-.04-.04c-1.57-1.34-2.34-2.65-2.38-3.99.04-1.34.81-2.65,2.38-3.99l.04-.04L37.77,9.01h0Z"/>
  </g>
  <g id="Layer_3" data-name="Layer 3">
    <path class="cls-3" d="M48.67,14.04c.04.11.27,1.46.69,4.03.15.88.27,1.69.35,2.34h1.27c-.65-4.03-1-6.99-1-8.94,0-.88.08-1.54.19-2.03v-.04c.23,1.15.81,4.03,1.69,8.6.15.88.31,1.69.42,2.42h1.15c-.19-1.04-.38-1.88-.5-2.57-.46-2.57-.69-4.76-.65-6.49h.04c.23.81.61,2.84,1.19,6.18.19,1.11.31,2.07.42,2.88h3.91c-.11-.54-.27-1.77-.54-3.72-.27-2.03-.42-3.34-.42-3.84,0-.58.08-1.11.19-1.61.19.65.46,2.03.73,4.11.23,1.88.34,2.99.34,3.38,0,.19-.08.77-.19,1.69h1.65c.04-.54.08-1.19.08-1.96.04-1.61-.08-3.15-.27-4.57-.38-2.88-1.15-4.3-2.3-4.3-.46,0-.77.27-.92.77-.12.27-.19.65-.27,1.11-.12-.12-.27-.5-.42-1.07-.15-.5-.46-.88-.92-1.07-.58.27-.88.61-1,1.07-.04.27-.04.65,0,1.15h-.12c-.19-.96-.35-1.5-.38-1.61-.19-.65-.46-1.11-.81-1.38-.19.04-.54.38-.96,1.04.27-1.34,0-1.84-.81-1.46-.81.38-1.34,1.04-1.65,2-.54-.11-.96,0-1.27.35-.42.42-.69.69-.88.73-.04-.23-.15-.42-.35-.58-.19-.15-.34-.23-.5-.23-.27,0-.46.04-.5.15v.11c-.12.65-.23,2.34-.35,5.1,0-.35,0-.54-.04-.65-.04-.15-.27-.31-.65-.42-.19.11-.35.38-.54.81-.12.23-.19.46-.31.73-.04-.19-.08-.35-.11-.46-.08-.19-.27-.27-.54-.27-.35,0-.77.46-1.31,1.42-.61,1.04-1.11,1.69-1.54,1.88-.08-.04-.19-.15-.38-.42-.15-.23-.35-.35-.54-.35-.27,0-.42.04-.46.08-.08.04-.12.08-.15.08.23.81.31,1.54.19,2.23h4.07c.04-.8.08-1.73.12-2.76.11.54.27,1.46.46,2.76h1.38c-.04-.65-.04-1.3-.08-1.96.15.5.31,1.15.5,1.96h1.53c-.35-2.65-.54-5.03-.5-7.06.27,1.57.69,3.95,1.27,7.06h.88c-.04-.15-.04-.31-.04-.42,0,.04.04.15.08.42h1.27c-.58-3.88-.88-5.99-.92-6.26v-.11h0ZM54.58,11.2c.35.42.58,1.11.77,2.15.12.58.23,1.46.42,2.61-.19-.04-.38-.08-.65-.08s-.42.04-.54.08c0-.27-.04-.69-.11-1.27-.12-.58-.15-1-.15-1.23.19-1.04.27-1.77.27-2.26h0ZM55.85,16.69c.08,0,.15.31.19.96h-.04c-.11-.27-.15-.58-.15-.96h0Z"/>
    <path class="cls-3" d="M47.4,20.41c.19,1.08.42,2.23.69,3.49.61,3.41,1.04,6.37,1.3,8.87h1.23c.08-.27.12-.42.12-.5.5.35.81.38.96.15.08-.12.12-.31.12-.54.04.69.46.23,1.27-1.34.96-.04,1.57-.42,1.84-1.07.11-.92.19-1.57.27-2h.19c.04.08.15.27.34.54.19.35.42.58.61.77.08-.08.27-.65.58-1.69.31-1.11.46-1.77.46-2.03,0-.38,0-.73-.04-1,.15.11.35.23.54.35.84-1.11,1.38-2.11,1.57-2.92.08-.27.12-.65.15-1.08h-1.65s0,0,0,.04h-.08s0-.04-.04-.04h-3.91c.27,1.65.38,2.73.38,3.15s-.04.77-.08,1v-.08c-.31-1.57-.58-2.92-.8-4.07h-1.15c.34,1.73.58,2.99.69,3.84-.12-.04-.19-.08-.31-.08-.27,0-.46.04-.54.12-.04.04-.08.08-.11.08.04.27.31.92.81,1.96.08.12.15.23.19.35-.08,1.23-.27,2.38-.58,3.45-.04.04-.11.11-.15.15l.12.08s-.04.12-.08.19h-.08c-.27-.35-.42-.77-.42-1.19.46-.42.69-.73.69-.92-.42-1.96-.84-4.14-1.27-6.56-.12-.5-.19-1-.27-1.46h-1.27c.19,1.31.31,2.15.31,2.53,0,.42,0,.46-.04.12-.15-.96-.27-1.84-.38-2.65h-1.27c.08.31.19.81.31,1.54h-.08c-.12-.65-.23-1.15-.27-1.54h-.88ZM55.73,22.79c-.11-.96-.15-1.69-.15-2.27.23.46.42,1.11.61,2t.04.04c-.19.04-.35.11-.5.23h0Z"/>
    <path class="cls-3" d="M46.64,20.41h-1.53c.31,1.42.61,3.26.96,5.6,0,.27-.04.42-.15.46-.15,0-.27,0-.35.04-.42-1.69-.73-3.72-.88-6.1h-1.38c.12.77.27,1.69.42,2.76.35,2.61.69,4.53,1,5.76-1.08-.73-1.73-2.38-1.92-4.99-.08-.81-.11-1.96-.08-3.53h-4.07c-.04.35-.15.65-.27.96-.23.54-.65,1.34-1.27,2.46,0-.19-.11-.5-.34-.84-.27-.38-.54-.69-.88-.88-.58.38-.85.92-.88,1.65,0,.42,0,.88.04,1.42-.19-.27-.34-.46-.46-.61-.27-.27-.54-.38-.88-.38-.23,0-.54.5-.88,1.46-.31.88-.46,1.5-.46,1.84,0,.96.12,2.19.35,3.65.08.42.15,1,.27,1.65h10.29s-.15-2.99-.15-2.99l.5,2.99h5.45c-.81-3.72-1.42-6.64-1.8-8.67-.27-1.3-.46-2.53-.61-3.69h0ZM39.46,21.03v-.08c.35.61.58,1.5.77,2.61.04.27.11,1.19.27,2.73-.35-.58-.58-1.42-.73-2.57-.04-.08-.11-.96-.31-2.69h0ZM36.16,24.4c.42.96.81,2.23,1.08,3.8.15.88.35,2.23.57,4.03l-.77.04c-.08-.19-.15-.31-.19-.31-.31-3.45-.54-5.95-.69-7.48v-.08h0ZM34.74,28.09c.12.73.27,1.69.46,2.92-.5-.88-.88-1.8-1.15-2.76-.27-1.04-.35-1.96-.19-2.69.35.38.65,1.23.88,2.53h0ZM38.85,28.7c.15.35.23.69.23.96,0,.34-.08.77-.19,1.27v-.04c-.19-.96-.31-1.92-.34-2.88v-.08c.04.11.15.38.31.77h0ZM38.19,24.94c0-.61.04-1.04.11-1.31.31.42.5,1,.54,1.69-.19-.19-.42-.31-.65-.38h0Z"/>
    <path class="cls-3" d="M31.02,29.55l.73.12c.08.77.27,1.65.61,2.61,0,.04.04.23.15.5h-4.83s-.23-1.84-.23-1.84c.11-.19.27-.31.5-.38.35.19.54.5.65.84.04.19.15.46.27.85l.04.04c.04-.19.08-.61.08-1.27l.08-.08c.04-.08.15-.11.42-.11.31,0,.5.19.57.61.12.5.27.81.54.92-.23-1.11-.35-1.96-.35-2.61l.19-.08c.11-.08.31-.12.58-.12h0Z"/>
    <path class="cls-3" d="M27.68,32.77h4.83c.15.42.42,1.11.77,2.07h.04c-.11-.81-.23-1.5-.35-2.07h10.29s.12,1.69.12,1.69c.04,0,.11.08.19.27.12-.04.19-.08.23-.08.04-.04.04-.19.04-.46l-.23-1.42h5.45c.15.73.31,1.46.5,2.26h.04c-.04-.73-.12-1.46-.19-2.26h1.23v.12c-.11.34-.15.61-.15.88,0,.19.04.65.08,1.42.23.04.42.15.54.42.19.31.54.46,1.07.46.04,0,.08-.12.15-.38.15-.19.54-.11,1.15.23.04-.58.12-1.07.15-1.46.08-.73.38-1.19.96-1.34.73.58,1.38,1.42,2.03,2.5.11-.15.27-.31.5-.46.19.34.35.69.46,1.04.04.31.12.54.23.73h-1.11c-.04-.15-.12-.31-.15-.42-.08-.12-.15-.27-.19-.38v.08c.04.23.11.46.15.73h-1.38c-.15-.73-.31-1.38-.42-1.88h-.11s0,1.88,0,1.88h-6.98c-.27-1.3-.5-2.3-.69-3.03v.08c0,.42-.08,1.07-.19,1.96,0,.12.08.46.19,1h-1.46c-.27-.73-.58-1.42-.85-2v.04c.23.54.46,1.19.69,1.96h-8.56v-.31c0-.35-.11-.81-.31-1.46-.27-.85-.58-1.5-1-1.92.19.81.42,2.03.69,3.68h-1.19c-.27-1.8-.46-3.03-.57-3.68v.08s.46,3.61.46,3.61h-3.8c-.35-1.15-.65-2.03-.88-2.61.04.19.27,1.04.73,2.61h-5.14c-.08-.27-.15-.54-.27-.73v.08c0,.19,0,.42.04.65h-1.42c.04-.08.04-.15.08-.23.34-.96.77-1.8,1.27-2.53.42.11.77.42.96,1-.08-.35-.11-.58-.08-.77.04-.35.27-.58.69-.77l.96.96-.27-1.8h0Z"/>
    <path class="cls-3" d="M45.45,36.92h1.46c.19.73.46,1.8.88,3.3.08.27.15.58.23.84h-1.11c-.5-1.57-.96-2.96-1.46-4.14h0Z"/>
    <path class="cls-3" d="M34.93,36.92c.11.5.19,1.04.31,1.61,0,.42-.04.5-.12.23l-.08-.08-.23-1.77h-3.8c.35,1.11.77,2.5,1.19,4.14h4.72c0-.23.15-.65.42-1.23.27-.58.38-1.23.38-1.92.35,1,.54,1.65.54,1.92s-.08.61-.27,1.07c-.04.04-.04.12-.08.15h5.26c-.31-1.3-.46-2-.5-2.11v-.08c.19.65.38,1.38.58,2.19h3.26c-.42-1.65-.85-3.03-1.23-4.14h-8.56s-.08,2.5-.08,2.5h-.11c-.15-.92-.31-1.77-.42-2.5h-1.19ZM43.83,37.99c.15.46.23.84.23,1.15-.15-.46-.23-.81-.23-1.08v-.08h0Z"/>
    <path class="cls-3" d="M25.72,36.92c.34,1,.73,2.38,1.15,4.14h5.22c-.5-1.73-.92-3.11-1.23-4.14h-5.14ZM27.83,37.91c.04.19.12.38.15.61-.11-.46-.19-.69-.19-.73l.04.11h0Z"/>
    <path class="cls-3" d="M21.19,38.34v.04c-.11.15-.15.61-.11,1.42.04.58-.19,1-.69,1.27h-1.19c-.04-.42-.11-.69-.19-.84v-1.34c.58,0,.88.04,1,.12.11-1.34.5-2,1.07-2,.54,0,1,.31,1.38.92.31.5.46.92.5,1.27h.15c.23-.46.54-1.23.96-2.26h1.42c.12.73.31,1.61.62,2.61.15.58.31,1.08.46,1.54h-1.96c-.19-.73-.38-1.34-.5-1.8v.08c-.12.42-.15,1-.04,1.73h-2.49c.04-.42.04-.73.04-1,0-.8-.15-1.38-.42-1.73h0Z"/>
    <path class="cls-3" d="M77.84,34.15c-.61,0-1.08.27-1.34.77-.35.61-.58.96-.69,1-.19-.12-.38-.34-.58-.65-.12-.15-.35-.27-.69-.35-.34.12-.54.31-.54.5.19.65.27,1.11.19,1.46v-.04c-.08-.73-.19-1.34-.35-1.84-.27-.92-.73-1.38-1.38-1.38-.19,0-.58.27-1.07.77-.58.58-.96,1.19-1.11,1.8-.15-.19-.31-.38-.42-.5-.23-.27-.46-.42-.69-.54-.27.08-.46.23-.65.46-.11.23-.23.35-.27.38-.04-.12-.04-.23-.08-.31-.12-.19-.31-.27-.58-.27s-.54.19-.81.54c-.31.5-.5.73-.54.77-.08-.69-.38-1.04-.96-1.04-.31,0-.54.08-.73.23-.04.04-.15.19-.35.46-.35-1.69-.92-2.88-1.73-3.53-.42.58-.77,1.34-1.04,2.38-.15.65-.23,1.19-.27,1.69h7.98s.04-.34.04-.34c.04.11.12.23.15.34h1.88c.04-.15.04-.31.08-.42v-.04c.04.12.08.27.11.46h1.5c-.08-.42-.15-.84-.19-1.19v-.04c.12.35.23.77.38,1.23h5.72s.04-.04.04-.04c.04-.04.11,0,.15.04h4.41c-.27-.5-.5-.73-.73-.73-.35,0-1.27-.35-2.69-1l-2.19-1.04h0ZM78.22,36.3l-1.27.08.12-.31s.15-.15.31-.35c.11-.15.38-.31.73-.5,0,.11.12.35.31.69l-.19.38h0Z"/>
    <path class="cls-3" d="M85.25,36.92h-.92c.19-.19.42-.34.69-.46.08.15.15.31.23.46h0Z"/>
    <path class="cls-3" d="M84.32,36.92c-.08.12-.15.23-.19.35-.08.19-.15.46-.19.73-.12-.35-.27-.69-.42-.96-.04-.04-.04-.08-.08-.12h-4.41c.08.04.15.15.23.35-.04.15-.19.35-.46.58-.27.23-.42.35-.46.38l-.31-.77c.46-.27.73-.46.81-.54h-5.72c.19.58.46,1.27.73,2.03.19.73.35,1.42.42,2.11h1.11c-.19-1.04-.31-1.69-.31-1.96.04-.46.08-.77.08-.88v-.04c.27.8.58,1.76.88,2.88h1.19c-.11-.54-.15-.84-.15-.92,0-.27.04-.54.12-.84.04-.31.08-.5.08-.61l.12-.08c.19.61.38,1.42.58,2.46h1.27c-.08-.38-.12-.65-.12-.84,0-.27.04-.5.08-.69.08-.27.11-.42.11-.54v-.04c.19.38.38,1.07.5,2.11h3.11c-.11-.65-.23-1.11-.31-1.38.19.19.42.65.65,1.38h2.34c-.46-.65-.65-1.61-.58-2.96v-.04c.19.27.38.77.5,1.46.12.73.23,1.23.27,1.54h2.11c-.11-.35-.31-.65-.5-.92-.96-1.27-1.65-2.34-2.15-3.22h-.92ZM80.64,37.72v-.08c.19.35.31.69.38.96h-.12c-.19-.27-.27-.54-.27-.88h0Z"/>
    <path class="cls-3" d="M58.38,34.19s.15-.04.42-.04c.77,0,1.27.42,1.46,1.27.08.34.15.84.23,1.5h-1.19c-.12-.38-.19-.73-.31-1-.04.12-.04.27-.04.54,0,.12,0,.27.04.46h-1.11c.04-.84.19-1.76.54-2.72h-.04Z"/>
    <path class="cls-3" d="M69.36,36.92h1.88c-.04.27-.04.54-.04.84,0,.58.04,1,.11,1.27.11.35.31.77.65,1.19-.15-1.46-.35-2.57-.54-3.3h1.5c.12.65.31,1.42.5,2.26.12.5.27,1.11.46,1.88h-3.03c-.42-1.73-.92-3.11-1.5-4.14h0Z"/>
    <path class="cls-3" d="M69.16,36.92h-7.98c0,.19,0,.35.04.54h-.65c-.04-.19-.04-.38-.08-.54h-1.19c.19.73.38,1.69.54,2.88.04.35.12.77.15,1.27h1.07c-.08-.5-.12-.88-.12-1.11v-.46s.04-.04.08-.08v-.08c.15.5.31,1.07.5,1.73h3.95s0-.04,0-.04c-.27-1.07-.42-1.88-.42-2.42,0-.27.04-.77.12-1.54.42.65.73,1.65.84,3.07.04.27.04.57.04.92h1.92c-.04-.27-.08-.46-.11-.65h.08c.08.19.15.38.19.65h1.73c-.46-1.88-.69-3.11-.69-3.65v-.5h0ZM62.76,40.87c-.12-.38-.19-.65-.19-.77.08,0,.15.27.27.77h-.08Z"/>
    <path class="cls-3" d="M55.12,36.92h1.38c.27,1.27.58,2.65.92,4.14h-1.42c-.34-1.65-.61-3.03-.88-4.14h0Z"/>
    <path class="cls-3" d="M56.69,36.92h1.11s.04.04.08.08v-.08h1.11c.08.58.23,1.65.5,3.19.04.35.11.65.15.96h-1.57c-.42-1.5-.88-2.88-1.38-4.14h0Z"/>
    <path class="cls-3" d="M54.58,36.92v1.57c.19.81.42,1.65.65,2.57h-1.23c-.11-.69-.19-1.23-.31-1.65-.15-.84-.31-1.31-.46-1.42.19,1.34.38,2.38.65,3.07h-2.03c-.11-.54-.23-1-.35-1.34v.04c.04.42.11.88.19,1.3h-3.22c-.35-1.61-.61-2.99-.88-4.14h6.98Z"/>
    <path class="cls-3" d="M59.99,41.06h1.07c.19.88.5,2.27.96,4.11h-5.22c-.27-1.54-.54-2.92-.81-4.11h1.42c.19.77.42,1.57.61,2.42.04,0,.15,0,.27-.04.15,0,.31.04.42.08-.12-.38-.19-.77-.27-1.15-.12-.46-.27-.88-.38-1.31h1.57c.23,1.31.42,2.27.54,2.92h.15c-.12-1.15-.23-2.11-.35-2.92h0Z"/>
    <path class="cls-3" d="M53.89,41.06c.04.08.08.15.11.23h.04c-.04-.08-.04-.15-.04-.23h1.23c.31,1.27.65,2.61,1,4.11h-3.45c-.35-1.73-.65-3.07-.92-4.11h2.03Z"/>
    <path class="cls-3" d="M68.13,41.06h1.73c.23.92.54,2,.88,3.26.08.27.15.58.23.84h-7.1c-.04-.08-.04-.15-.08-.27.04.08.04.15.04.27h-1.27c-.38-1.65-.73-2.99-1.04-4.11h3.95c.15.58.38,1.34.65,2.38h.08c-.04-.96-.12-1.73-.15-2.38h1.92c.12.42.19.92.31,1.54.19.88.38,1.65.61,2.3l.12-.08c-.27-1.57-.58-2.84-.88-3.76h0Z"/>
    <path class="cls-3" d="M77.95,41.06h1.27c.08.31.19.69.31,1.11.27.92.42,1.46.54,1.57-.08-1.08-.15-1.96-.27-2.69h3.11c.04.12.08.27.11.42.19.81.5,1.42.84,1.8h.08c-.08-.19-.27-.88-.61-2.03-.04-.08-.04-.15-.08-.19h2.34c.08.08.15.15.23.23,0-.04,0-.11-.04-.23h2.11c.27.61.42,1.31.42,2.07,0,.34-.12.65-.38.96-.15.19-.46.46-.88.81-.27-.11-.54-.42-.84-.92-.34-.54-.54-.84-.57-.88.19.81.38,1.5.54,2.07h-7.37c-.31-1.61-.58-2.99-.84-4.11h0Z"/>
    <path class="cls-3" d="M74.27,41.06h1.11c.19,1,.5,2.38.92,4.11h-4.53c-.27-1.54-.58-2.92-.92-4.11h3.03c.12.46.27,1,.42,1.57.04.31.08.23.08-.23,0-.42-.04-.88-.12-1.34h0Z"/>
    <path class="cls-3" d="M76.03,41.06h1.19c.19.81.5,2.19.92,4.11h-1.04c-.38-1.57-.73-2.92-1.07-4.11h0Z"/>
    <path class="cls-3" d="M21.57,41.06h2.49c.11.46.27.96.46,1.54.23.69.54,1.54.96,2.57h-2.23s0-.08-.04-.12v.12h-1.54c-.11-.35-.19-.65-.31-.92v.08c.04.23.12.5.19.84h-2.95c-.27-1.11-.38-1.88-.38-2.26,0-.54.04-.88.08-1,.11-.34.46-.46,1-.27-.04-.23-.08-.42-.11-.58h1.19s-.08,0-.12.04c.04.35.15.54.35.58.42.12.69.23.88.35.04-.35.04-.69.08-.96h0Z"/>
    <path class="cls-3" d="M24.61,41.06h1.96c.19.54.42,1,.61,1.38-.11-.5-.19-.96-.31-1.38h5.22c.31,1,.65,2.11,1,3.38.08.27.15.5.19.73h-7.68c-.38-1.69-.73-3.07-1-4.11h0Z"/>
    <path class="cls-3" d="M36.93,41.06c0,.27.08.58.23.88.12.15.27.42.46.77h.11c0-.65.08-1.23.19-1.65h5.26c.27,1,.61,2.38,1.04,4.11h-6.95c-.54-1.8-1.07-3.19-1.65-4.11l1.31,4.11h-3.61c-.04-.23-.11-.46-.19-.73-.35-1.23-.65-2.34-.92-3.38h4.72Z"/>
    <path class="cls-3" d="M48.48,41.06h3.22c.23,1.46.46,2.84.73,4.11h-1.88c-.19-.88-.38-1.69-.58-2.38h-.08c.19.84.38,1.65.54,2.38h-2.38c-.04-.23-.12-.46-.19-.73-.34-1.23-.65-2.34-.96-3.38h1.11c.5,1.8.92,3.15,1.19,4.03l.08.04c-.27-1.5-.54-2.84-.81-4.07h0Z"/>
    <path class="cls-3" d="M43.26,41.06h3.26c.31,1.04.61,2.23.92,3.49.04.19.11.42.15.61h-3.22c-.42-1.54-.77-2.92-1.11-4.11h0Z"/>
    <path class="cls-3" d="M16.97,43.71c.42,0,.84.46,1.27,1.38t.04.08h-1.84v-1.31l.08-.08s.19-.08.46-.08h0Z"/>
    <path class="cls-3" d="M14.4,44.17c0-.31.23-.46.65-.46.27,0,.61.42,1.04,1.3.04.04.04.12.08.15h-1.38c-.11-.35-.27-.65-.38-1h0Z"/>
    <path class="cls-3" d="M50.55,45.17c.04.15.08.31.11.46.58,2.34,1.08,4.26,1.5,5.76h4.22c0-.12,0-.19.04-.27.04.08.04.15.04.27h7.37c-.42-1.19-.92-2.92-1.5-5.1-.12-.38-.19-.77-.31-1.11h-5.22c.11.73.27,1.46.42,2.26.04.12.04.23.08.35-.11-.04-.19-.04-.31-.04h-.11c-.19-.88-.42-1.77-.65-2.57h-3.45c.31,1.5.65,3.22,1.07,5.26-.5-1.57-1-3.3-1.42-5.26h-1.88ZM58.96,46.74c.04.08.19.96.54,2.69-.15-.58-.31-1.15-.42-1.73-.08-.5-.11-.81-.11-.96h0Z"/>
    <path class="cls-3" d="M48.06,45.17h2.38c.69,2.88,1.15,4.95,1.38,6.22h-2.07c-.46-1.57-1.04-3.65-1.69-6.22h0Z"/>
    <path class="cls-3" d="M44.37,45.17h3.22c.61,2.42,1.23,4.49,1.84,6.22h-3.38c-.61-2.3-1.19-4.37-1.69-6.22h0Z"/>
    <path class="cls-3" d="M62.83,46.17c-.08-.35-.15-.65-.27-1h1.27c.19.96.58,2.42,1.11,4.41.15.65.31,1.23.42,1.8h-1.27c-.31-1.27-.73-3.03-1.27-5.22h0Z"/>
    <path class="cls-3" d="M71.77,45.17c.27,1.38.5,2.88.69,4.53v.42s-.04.04-.08.04v-.08c-.5-1.65-.96-3.3-1.42-4.91h-7.1c.92,2.76,1.57,4.84,2,6.22h10.36c-.12-.34-.19-.73-.27-1.07-.27-1.42-.5-2.46-.69-3.19.54,1.77.96,3.19,1.3,4.26h1.31c-.31-1.27-.69-2.8-1.15-4.6-.12-.58-.27-1.11-.42-1.61h-4.53ZM69.28,46.13c.12.31.38,1.19.77,2.61-.19-.15-.38-.54-.5-1.15-.11-.69-.19-1.15-.27-1.42v-.04h0Z"/>
    <path class="cls-3" d="M78.99,46.05c-.04-.31-.11-.61-.19-.88h7.37c.42,1.65.61,2.61.61,2.92l-.23,3.3h-1v-.81c-.11-.42-.27-1.34-.54-2.69-.23-1.27-.42-2.07-.54-2.5-.04.96.04,2.11.27,3.45.12.58.27,1.42.46,2.53h-2.69c-.15-.65-.38-1.34-.65-2.07-.77-1.88-1.23-3.11-1.42-3.72.15,1,.5,2.46,1,4.41.12.5.23.96.35,1.38h-1.88c-.04-.54-.35-2.3-.92-5.33h0Z"/>
    <path class="cls-3" d="M77.72,47.59c-.19-.84-.42-1.65-.61-2.42h1.04c.42,1.65.88,3.72,1.46,6.22h-1.04c-.19-1.04-.5-2.3-.84-3.8h0Z"/>
    <path class="cls-3" d="M56.38,51.38h-4.22s.04.12.08.15h-.08c-.11,0-.19,0-.31.04-.04-.08-.04-.15-.04-.19h-2.07c.27.88.46,1.57.65,2.15-.04.04-.04.08-.04.12-.31-.69-.61-1.46-.92-2.26h-3.38c.27.96.58,2,.84,3.07h1.27c-.27-.88-.46-1.65-.58-2.26l.08.12c.19.38.54,1.11,1,2.15h3.34s4.95,0,4.95,0c-.23-.96-.35-1.76-.35-2.34l.08.11c.15.46.27,1.07.38,1.8.04.15.08.31.15.42h6.64c-.08-.19-.15-.42-.23-.69.11.04.35.27.65.69h4.53c-.08-.42-.15-.84-.19-1.27h.08c.15.42.31.84.42,1.27h4.87s0-.27,0-.27h.08s.04.15.08.27h1.34s-.54-2.07-.54-2.07c.31.23.58.81.84,1.73.04.12.04.23.08.34h2.88c-.19-.73-.5-1.76-.88-3.07h-1.31c.35,1,.58,1.69.69,2.07h-.12c-.34-.61-.65-1.3-.92-2.07h-10.36c.31,1.07.46,1.73.46,1.96,0,.42-.04.77-.12.96h-.15c-.15-.69-.38-1.65-.69-2.92h-1.27c.19.73.38,1.31.5,1.73-.19-.35-.46-.92-.77-1.73h-7.37c.08.19.12.42.15.65h-.08c-.04-.19-.11-.34-.15-.5v-.15h0ZM52.01,52.77l.11-.15c.19.12.38.27.58.42.08.27.15.5.23.69-.35-.27-.73-.46-1.11-.58.11-.12.15-.23.19-.38h0ZM71.89,53.15c.19.5.27.88.27,1.15-.11-.5-.23-.85-.27-1.11v-.04h0Z"/>
    <path class="cls-3" d="M79.91,51.46v-.08h1.88c.38,1.42.65,2.46.77,3.07h-1.5c-.15-.42-.27-.69-.35-.81h-.08v.81h-1.5c-.04-.58-.23-1.57-.58-3.07h1.04c.04.19.11.35.15.54l.08.11c.04-.11.08-.31.08-.58h0Z"/>
    <path class="cls-3" d="M86.55,51.38v.12c0,.69-.04,1.19-.15,1.46-.11.42-.38.61-.73.61-.54,0-.92-.23-1.19-.69-.19-.5-.35-.84-.42-.96-.04.31-.08,1.15-.15,2.49v.04h-1.15c.08-.23.12-.54.12-.88,0-.58-.12-1.31-.35-2.19h2.69c.04.27.12.58.19.92h.15s0-.92,0-.92h1Z"/>
    <path class="cls-3" d="M67.21,54.92h-.12c0,.08,0,.38-.04.96-.12.5-.46.77-1,.77-.19,0-.58-.46-1.19-1.38-.19-.31-.38-.58-.58-.81h4.53c.15.69.35,1.42.61,2.19v.92h-.96c-.12-.23-.23-.5-.38-.8-.5-.96-.77-1.57-.88-1.84h0Z"/>
    <path class="cls-3" d="M75.5,54.45l.04.04c.35,1.19.5,1.88.5,2.03,0,.27,0,.38-.04.42l-.08.04c.19.12.04.19-.38.19-.5,0-.88-.42-1.11-1.23-.11-.69-.19-1.19-.27-1.5h1.34Z"/>
    <path class="cls-3" d="M74,54.45v1.61c0,.12-.15.46-.5.96-.12.19-.23.38-.35.54h-1.61c-.23-.65-.42-1.04-.61-1.23v1.15s-.04.04-.08.08h-.54c-.35-.8-.73-1.84-1.19-3.11h4.87Z"/>
    <path class="cls-3" d="M76.8,55.88c-.35-.23-.65-.69-.92-1.42h2.88c.12.23.19.42.23.62.04-.04.11,0,.15.04.04,0,.04-.12.04-.38,0-.08,0-.15-.04-.27h1.5c.04.58.15,1.34.27,2.26-.19.12-.35.23-.46.27-.35-.11-.54-.42-.54-.92h-.61s.08,1.34.08,1.34c-.04.04-.11.11-.15.15h-.58c-.19-.23-.34-.58-.5-1.04-.23-.65-.5-1.04-.77-1.23-.12.27-.31.46-.58.58h0Z"/>
    <path class="cls-3" d="M82.56,54.45s.04.12.04.15h.12s.04-.11.04-.15h1.15c-.12,1.19-.5,1.77-1.07,1.77-.77,0-1.27-.31-1.46-.88-.12-.35-.19-.65-.31-.88h1.5Z"/>
    <path class="cls-3" d="M46.91,54.45h1.27c.23.73.5,1.57.8,2.53.08-.11.15-.19.23-.27.19.08.34.15.5.27-.42-1-.77-1.84-1.04-2.53h3.34c-.11.04-.19.08-.23.12.15.54.38,1.31.73,2.34.08.23.15.46.19.65h-4.95c-.27-1.07-.58-2.11-.84-3.11h0Z"/>
    <path class="cls-3" d="M53.97,57.56c-1-1.8-1.65-2.84-1.96-3.11h4.95c.08.27.15.54.23.81.08.23.15.46.19.69.08-.19.19-.42.31-.77-.19-.23-.35-.46-.46-.73h6.64c.31.92.46,1.54.46,1.88v.46s-.08.12-.12.23c-.19-.11-.5-.15-.96-.15-.23,0-.42.04-.54.15-.08.04-.15.04-.27,0,.04.12.04.31.04.54h-1.27c-.12-.58-.27-1.23-.46-2-.12-.27-.35-.42-.65-.46.04.42.08.65.08.77s-.04.38-.11.77c-.04.04-.08.12-.12.19-.12.12-.27.15-.54.15s-.46-.11-.5-.31c0-.19-.04-.34-.08-.42-.19.19-.38.35-.61.46-.19.12-.42.19-.61.23.04.19.08.42.12.61h-3.76Z"/>
    <path class="cls-3" d="M62.56,59.6c.27.08.15.12-.31.12-.27,0-.61-.73-1.04-2.15h1.27c.04.19.04.42.08.69.04.57.04,1,0,1.34h0Z"/>
    <path class="cls-3" d="M71.62,57.68s-.04-.08-.08-.12h1.61c-.12.27-.19.42-.19.54l-.04.27c-.11.12-.27.27-.46.38-.34-.19-.61-.54-.84-1.07h0Z"/>
    <path class="cls-3" d="M70.43,57.75c-.04-.08-.08-.15-.12-.19h.54c-.15.08-.31.15-.42.19h0Z"/>
    <path class="cls-3" d="M68.47,57.56h.96v.65c-.15.12-.35.19-.54.31-.08-.19-.23-.54-.42-.96h0Z"/>
    <path class="cls-3" d="M54.12,57.79c-.04-.08-.11-.15-.15-.23h3.76c.08.42.11.77.15,1.07.12.19-.04.31-.5.31-.19,0-.35-.12-.5-.35v1.57s-.08.12-.11.15c-.12.12-.27.15-.54.15-.42,0-1.11-.88-2.11-2.69h0Z"/>
    <path class="cls-3" d="M52.7,57.56h-4.95c.11.42.27.88.38,1.31-.04.08-.08.19-.11.31-.27-.58-.54-1.11-.77-1.61h-2.69c.5,1.65,1.11,3.76,1.88,6.41-.19,0-.31,0-.42.04-.61-2.46-1.15-4.6-1.65-6.45h-1.84c.84,2.26,1.42,3.99,1.69,5.18-.08-.08-.15-.15-.23-.19-.23-.73-.84-2.38-1.84-4.95t-.04-.04h-8.52c.11.12.19.19.31.31.65,2.03,1.27,4.18,1.8,6.45l-.08-.04c-1.38-2.07-2.07-4.3-2.03-6.72h-7.25c.65,2.8,1.38,4.22,2.15,4.22h.11c.42,1.11.88,2.3,1.42,3.61,1.19,2.72,1.88,4.11,2.07,4.11.27,0,.38-.04.42-.12,0-.12,0-.15.04-.15v-1.34c-.5-1.57-.81-2.61-.88-3.11l.08.15c.5.92,1.27,2.53,2.23,4.84.04.04.04.12.08.19h2.42c0-.08,0-.15-.04-.19-.5-1.88-.77-2.92-.81-3.07.27.58.69,1.69,1.31,3.26h2.19c0-.08,0-.15-.04-.23-1.34-4.34-2.11-7.25-2.3-8.71l.08.15c.42,1.34,1.27,4.3,2.57,8.79h3.72c-.5-1.57-.96-3.15-1.38-4.72.65,1.46,1.19,2.72,1.69,3.76.04.04.04.08.04.11.08.27.15.58.19.84h8.6c-.04-.34-.23-.81-.5-1.38-.15-.5-.31-1-.46-1.42.12.08.27.15.42.23.11-.04.27-.08.38-.11.11-.04.15-.23.15-.5,0-.08-.65-2-1.96-5.79-.23-.65-.42-1.23-.61-1.8,1.07,2.46,2.38,5.83,3.88,10.09.08.23.15.46.23.69h4.99c-1.42-3.41-3.03-6.33-4.8-8.75-.31-.73-.73-1.96-1.31-3.65h0ZM52.09,61.75c.08.12.15.19.19.27.08-.04.12-.15.12-.34,0-.08.04-.12.08-.15.42,1.07.84,1.96,1.19,2.65.19.46.27,1.46.27,2.99,0,.46-.04.54-.08.23v-.04c-.04-.12-.42-1.27-1.19-3.45-.27-.81-.46-1.5-.58-2.15h0ZM54.81,64.28c.08.19.35.69.81,1.57.42.88.65,1.5.65,1.92,0,.27-.04.38-.08.38-.08-.04-.12-.04-.15,0-.19-.5-.42-1.15-.69-2.03-.31-1.04-.5-1.65-.54-1.8v-.04h0ZM38.65,59.02c.38.96.57,1.69.57,2.19v.42h-.08v-.04s-.5-2.49-.5-2.49v-.08h0ZM32.59,64.16s.08-.08.11-.11c.04.19.08.34.11.54-.08-.15-.15-.31-.23-.42h0ZM31.4,61.94c.12.04.19.12.23.23.04.08.08.19.11.38-.11-.23-.23-.42-.35-.61h0ZM45.33,68.66c-.34-.65-.73-1.27-1.15-1.84.19-.12.35-.19.46-.27.19.65.42,1.34.69,2.11h0ZM49.36,67.2c.08-.04.15-.04.27-.04.04,0,.08.04.12.12.23.92.38,1.5.46,1.73-.35-.69-.61-1.31-.84-1.81h0Z"/>
    <path class="cls-3" d="M78.88,57.75c-.08-.04-.15-.12-.23-.19h.58c-.12.04-.23.12-.34.19h0Z"/>
    <path class="cls-3" d="M52.28,69.96h-8.6c.81,3.03,1.54,5.18,2.11,6.45h-.11c-.96-2.11-1.8-4.26-2.53-6.45h-3.72c.23.81.46,1.65.73,2.53,1.73,5.18,3.19,7.75,4.45,7.75.42,0,.58-.08.42-.23.08-.54.08-1,0-1.34.11.12.23.35.27.69.04.23.23.34.58.34.27,0,.42-.04.46-.12-.04-.08-.04-.12,0-.12l.04-.5c0-.27-.08-.65-.23-1.15-.15-.58-.27-.96-.35-1.23h.08c.27.69.54,1.65.84,2.92.35,1.11.84,2.04,1.5,2.8.27-.15.42-.34.46-.54-.15-.65-1.04-3.53-2.61-8.71.11-.04.19-.08.23-.19l.08-.35c-.11-.23-.15-.42-.11-.54.08.11.15.34.23.77.04.15.12.27.23.35,1.19,3.57,2.34,6.52,3.49,8.87.23-.08.42-.19.54-.31.11-.5.04-1.19-.23-2.03-.35-.88-.54-1.46-.61-1.8h.08c.23.42.46,1,.73,1.77.31.65.73,1.19,1.3,1.61.11-.04.23-.12.35-.23.12-.12.15-.23.15-.35-.19-.31-.38-.88-.65-1.77-.27-.96-.42-1.54-.5-1.8.31.46.77,1.34,1.34,2.61.5,1.11.92,1.88,1.34,2.3.69-.5,1.23-.92,1.65-1.27.81-.73,1.19-1.46,1.19-2.19,1.5.04,2.26-.23,2.3-.88.08-.65.31-.96.69-.96.04,0,.11.08.19.27.19.12.57,0,1.15-.34-.73-2.42-1.53-4.61-2.42-6.64h-4.99c1.5,4.18,2.23,6.49,2.23,6.99,0,.42-.08,1.34-.19,2.69h-.38c-.88-2.49-1.92-5.68-3.19-9.59v-.08h0ZM53.05,77.18c-.42-1.08-.65-2.04-.77-2.92.58,1.07,1.23,2.88,2.03,5.37-.46-.65-.88-1.46-1.27-2.46h0Z"/>
    <path class="cls-3" d="M16.43,45.21s.12.19.35.5c.11.23.19.46.19.73,0,.46-.04.54-.08.23-.27-.58-.54-1.07-.73-1.5h-1.38c.31.77.65,1.5,1,2.15.73,1.46,1.38,2.19,1.92,2.19.81,0,1.31.19,1.42.61.27.92.77,1.73,1.42,2.46.19-.12.46-.27.81-.46.12.42.35,1.46.69,3.11.42,1.46.88,2.19,1.46,2.19h.38c.15-.27.23-.84.23-1.73.12.27.23.65.31,1.15.08.27.23.5.42.73h.96s.04-.08.08-.11c.19-.27.27-.42.31-.54l.04.11c.04.19.08.35.11.54h7.25s0-.04,0-.04v.04s8.52,0,8.52,0c-.77-2.07-1.23-3.8-1.42-5.14v-.04c.19.58.77,2.26,1.8,5.07,0,.04,0,.08.04.11h1.84c-.23-.96-.46-1.84-.69-2.65h.08c.19.65.46,1.54.81,2.65h2.69c-.81-1.76-1.19-2.92-1.19-3.45,0-.88-.54-3.61-1.65-8.17-.08-.27-.15-.5-.19-.77h-6.95c.08.27.16.5.23.77.34,1.23.8,2.99,1.38,5.3h-.04l-1.92-6.06h-3.61c1.04,3.8,1.73,5.68,2.07,5.68.04,0,.81,1.65,2.26,4.91-.19,0-.35,0-.46.04,0,.35-.04.54-.08.54-.34-1.11-.57-1.88-.73-2.3-.35-.77-.73-1.42-1.23-1.92-.46-1.8-1.07-4.15-1.88-6.95h-7.68c.04.19.08.35.12.54-.08-.19-.15-.35-.23-.54h-2.23c.35.92.73,2.19,1.11,3.8-.34-.35-.73-1.61-1.15-3.8h-1.54c.5,1.65,1,3.84,1.54,6.6-.04.04-.08.08-.11.04-.23-.88-.54-2.11-.88-3.72-.27-1.19-.46-2.19-.65-2.92h-2.95s0,0,0,.04c.27,1.19.38,1.8.38,1.92-.35-.96-.58-1.61-.73-1.96h-1.84s0,.04,0,.04h0ZM20,46.24c.23.73.34,1.34.34,1.77-.11-.35-.23-.92-.34-1.73v-.04h0ZM25.72,45.9c.34,1.15.54,1.84.58,2.11l-.08-.11-.5-1.92v-.08h0ZM30.75,53.65c.19.69.27,1.15.27,1.42l-.69-2.69v-.08c.12.27.23.69.42,1.34h0ZM27.68,55.68c-.35-.88-.58-1.65-.69-2.3.19.38.46,1.15.84,2.26-.04,0-.11,0-.15.04h0ZM36.39,46.82c.58,1.92,1,3.45,1.34,4.57v.73c-.27-.77-.46-1.38-.61-1.84-.42-1.34-.69-2.49-.73-3.45h0Z"/>
    <path class="cls-3" d="M24.84,57.56h.96c-.15.23-.27.35-.38.38-.19-.12-.38-.27-.58-.38h0Z"/>
    <path class="cls-3" d="M36.93,69.96h2.19c1.27,4.03,1.88,6.07,1.88,6.1,0,.58-.08,1-.23,1.27.19.04.04.04-.38.04-.27,0-1-1.46-2.19-4.34-.5-1.19-.92-2.19-1.27-3.07h0Z"/>
    <path class="cls-3" d="M37.19,73.53c0,.12-.27.38-.8.81-.77-1.11-1.54-2.57-2.34-4.38h2.42c.5,1.84.73,3.03.73,3.57h0Z"/>
  </g>
  <g id="Layer_4" data-name="Layer 4">
    <path class="cls-2" d="M46.25,10.28c-.46.85-.92,1.46-1.38,1.8t.08.08c-7.75,7.83-13.85,14.05-18.27,18.65-8.1,8.4-12.51,13.24-13.16,14.51-.27-.12-.38,0-.38.27,0,.42,2.11,3.22,6.37,8.44,3.57,4.41,6.68,8.1,9.25,11.05.11.12.88,1.19,2.38,3.15,1.8,2.3,3.65,4.38,5.53,6.22,5.99,5.87,11.59,8.83,16.77,8.83,2.8,0,4.91-1.23,6.37-3.72.96-1.61,1.42-3.07,1.42-4.41,0-1.5-.27-2.88-.81-4.18-.81-1.69-1.5-3.15-2.07-4.41-1.23-2.65-2.03-4.41-2.46-5.22-.65-1.27-1.23-2.19-1.69-2.73,1.34.08,4.07.27,8.17.58,5.03.35,8.48.54,10.36.54,7.48,0,12.44-2.69,14.85-8.1,1.04-2.26,1.54-5.68,1.54-10.17.12-.77.15-1.42.04-2-.23-1-1-1.88-2.26-2.61-3.84-2.15-12.4-3.22-25.68-3.22l-7.75.08c2.3-2.95,4.07-5.64,5.26-8.14,1.5-3.11,2.23-6.22,2.23-9.25,0-1.34-.19-2.65-.58-3.92-.58-1.8-1.46-2.95-2.65-3.45-5.33-1.34-8.71-1.46-10.17-.38-.42.31-.88.88-1.31,1.73h0ZM52.51,8.94c3.34,0,5.6,1.07,6.72,3.26.5.96.73,2.38.73,4.22,0,3.84-1.46,7.91-4.34,12.17-.65.88-1.65,2.23-3.03,3.95-.88,1.15-1.34,1.84-1.34,2.11,0,.27.04.42.12.46t.08.04l.84-.04c.12-.11.19-.23.31-.34.88.19,2.49.23,4.87.15,7.91-.27,12.05-.38,12.47-.38,12.09,0,18.15,2.3,18.15,6.95,0,3.99-.46,7.06-1.38,9.25-2.27,5.22-6.87,7.83-13.86,7.83-3.22,0-6.95-.19-11.17-.54-4.22-.34-6.6-.54-7.1-.54h-1.04c-.35.04-.5.23-.5.5-.08,0-.11,0-.15.04.04.08,0,.15-.04.19h-.08s0,.42,0,.42c0,.04,1.23,2.46,3.72,7.18,2.46,4.99,3.68,8.06,3.68,9.25,0,.96-.42,2.19-1.23,3.68-1.3,2.26-3.15,3.42-5.53,3.42-5.18,0-10.79-3.03-16.77-9.13-1.88-1.92-3.72-4.03-5.49-6.37-1.42-1.96-2.15-2.99-2.19-3.03-.54-.58-3.76-4.57-9.67-11.98-2.34-2.95-4.03-4.87-5.03-5.76,7.33-7.56,12.93-13.36,16.81-17.39,6.79-7.14,12.24-13.12,16.31-17.92,0-.11-.04-.19-.12-.27.92-.92,2.65-1.38,5.22-1.38h0Z"/>
  </g>
</svg>