<?xml version="1.0" encoding="UTF-8"?>
<svg id="Layer_2" data-name="Layer 2" xmlns="http://www.w3.org/2000/svg" xmlns:xlink="http://www.w3.org/1999/xlink" viewBox="0 0 96.16 102.82">
  <defs>
    <style>
      .cls-1 {
        fill: url(#linear-gradient);
      }

      .cls-1, .cls-2, .cls-3, .cls-4, .cls-5, .cls-6, .cls-7, .cls-8 {
        stroke-width: 0px;
      }

      .cls-2 {
        fill: url(#linear-gradient-2);
      }

      .cls-4 {
        fill: #93e11e;
      }

      .cls-5 {
        fill: #ccc;
      }

      .cls-6 {
        fill: #999;
      }

      .cls-7 {
        fill: #f90;
      }

      .cls-8 {
        fill: #069;
      }
    </style>
    <linearGradient id="linear-gradient" x1="45.74" y1="9.12" x2="45.74" y2="120.77" gradientUnits="userSpaceOnUse">
      <stop offset=".37" stop-color="#fff"/>
      <stop offset="1" stop-color="#c6c6c6"/>
    </linearGradient>
    <linearGradient id="linear-gradient-2" x1="24.22" y1="56.51" x2="24.22" y2="118.6" xlink:href="#linear-gradient"/>
  </defs>
  <g id="Layer_1-2" data-name="Layer 1">
    <path class="cls-6" d="M62.74,13.47l-11.63-7.33L15.3,31.36c-5.49,2.03-8.75,5.49-9.79,10.36v.04c-.58,10.4,3.07,15.54,10.9,15.43v20.84c0,9.71,4.87,14.58,14.58,14.58h41.68c9.71,0,14.58-4.87,14.58-14.58v-20.84c7.25-2.88,10.09-7.79,8.44-14.78-.11-.23-.19-.46-.31-.65-2.49-4.95-5.37-8.33-8.56-10.06l-4.8-3.95V5.45h-19.3v8.02h0Z"/>
  </g>
  <g id="Layer_2-2" data-name="Layer 2">
    <path class="cls-6" d="M77.24.12c-.08-.08-.15-.12-.27-.12h-19.31c-.11,0-.19.04-.27.12-.08.08-.11.15-.11.27v7.33L46.27.77c-.08-.04-.15-.08-.23-.08-.11,0-.19.04-.23.08L10.08,25.94C4.48,28.06,1.14,31.59.06,36.58v.08c-.31,5.33.5,9.29,2.38,11.94,1.8,2.57,4.64,3.88,8.52,3.91v20.45c0,9.98,4.99,14.97,14.97,14.97h41.68c9.98,0,14.97-4.99,14.97-14.97v-20.57c7.29-2.95,10.09-8.02,8.44-15.12-.04-.04-.04-.08-.04-.08-2.61-5.41-5.6-9.06-9.02-10.9l.08.08-4.68-3.84V.38c0-.12-.04-.19-.12-.27h0ZM57.98,8.67c.04-.08.08-.15.08-.27V.77h18.54v21.91s0,.11.04.19c.04.04.08.08.11.12l4.8,3.95.04.04c3.3,1.8,6.22,5.3,8.71,10.55,1.53,6.72-1.19,11.44-8.21,14.24-.12.04-.15.08-.19.15-.04.04-.08.12-.08.19v20.84c0,9.48-4.72,14.2-14.2,14.2H25.93c-9.48,0-14.2-4.72-14.2-14.2v-20.84c0-.12-.04-.19-.11-.27-.08-.08-.15-.12-.27-.12-3.8.04-6.56-1.15-8.29-3.61-1.77-2.49-2.49-6.29-2.23-11.4,1.04-4.72,4.22-8.1,9.56-10.06t.08-.08L46.04,1.53l11.44,7.22c.08.04.15.08.27.04.08-.04.15-.08.23-.11h0Z"/>
    <path class="cls-1" d="M58.05,8.4c0,.11-.04.19-.08.27-.08.04-.15.08-.23.11-.11.04-.19,0-.27-.04l-11.44-7.22L10.47,26.6s-.04.04-.08.08c-5.33,1.96-8.52,5.33-9.56,10.06-.27,5.1.46,8.9,2.23,11.4,1.73,2.46,4.49,3.65,8.29,3.61.11,0,.19.04.27.12.08.08.11.15.11.27v20.84c0,9.48,4.72,14.2,14.2,14.2h41.68c9.48,0,14.2-4.72,14.2-14.2v-20.84c0-.08.04-.15.08-.19.04-.08.08-.12.19-.15,7.02-2.8,9.75-7.52,8.21-14.24-2.49-5.26-5.41-8.75-8.71-10.55l-.04-.04-4.8-3.95s-.08-.08-.11-.12c-.04-.08-.04-.15-.04-.19V.77h-18.54v7.64h0Z"/>
  </g>
  <g id="Layer_3" data-name="Layer 3">
    <path class="cls-8" d="M46.89,9.52c-.19-.69-.5-1.23-.92-1.61-.58.23-.84.77-.81,1.61.04,1.15,0,1.77-.04,1.88-.04-.73-.11-1.3-.19-1.69-.15-.69-.58-1.04-1.23-1.04-.88,0-1.3,1.07-1.3,3.19v1.73c-.19-.5-.38-.96-.54-1.3-.35-.69-.61-1.04-.88-1.04s-.46.04-.5.08c0,.04-.04.04-.08.04-.04.35-.08.69-.08,1.07-.42-.38-.77-.61-1-.65-.57.35-.84.96-.81,1.77.04,1.19,0,1.84-.04,2-.08-.31-.11-.54-.15-.65-.04-.23-.27-.35-.65-.35-.73,0-1.15.42-1.27,1.23-.04.42-.04.88.08,1.38h-.12c-.54-1.23-1.19-1.84-1.92-1.84-.27,0-.46,0-.5.04-.04.04-.04.08-.08.08-.12.35-.23.84-.27,1.46-.19-.54-.54-.81-1.04-.81-.27,0-.46.04-.5.08-.04.04-.08.04-.12.04l-.04,1.23v.23h2.8v-1h.12c.19.31.35.65.54,1h2.34c-.15-.81-.23-1.38-.19-1.65.11.27.27.84.5,1.65h2.19c-.58-2.19-.77-3.61-.65-4.18.27.54.65,1.92,1.23,4.18h3.49c-.58-2.92-.84-4.84-.84-5.79,0-.84.11-1.46.31-1.84.27,1.23.65,3.76,1.15,7.64h2.34c-.04-.19-.08-.38-.11-.58-.5-2.65-.81-4.49-.88-5.56.27,1.15.61,3.19,1.07,6.14h1.61c-.42-2.73-.65-4.49-.65-5.37,0-.35.08-.65.19-1,.35.92.73,3.03,1.15,6.37h1.69c-.15-1.11-.23-2-.23-2.61,0-.5.08-1.34.27-2.46h.08c.11.54.35,2.23.69,5.07h1.27c-.15-.42-.23-.96-.23-1.57h.04c.11.58.19,1.11.19,1.57h1.15c-.19-1.23-.31-1.92-.35-2.07.23.58.46,1.27.65,2.07h1.23c-.11-.54-.31-1.15-.57-1.8-.38-.88-.81-1.69-1.31-2.34-.23.19-.46.42-.73.77-.23.31-.35.5-.35.54-.12-.88-.27-1.57-.42-2.07-.27-1-.73-1.5-1.34-1.5-.73,0-1.07.54-1.07,1.65h-.08c-.27-.77-.46-1.38-.61-1.84-.27-.84-.73-1.38-1.3-1.61-.35.11-.58.38-.69.88-.11.58-.23.88-.27.92-.15-.77-.31-1.34-.42-1.73h0ZM42.09,15.97h-.08c-.04-.11-.15-.5-.27-1.15.11.19.23.58.35,1.15h0Z"/>
    <path class="cls-8" d="M57.52,17.65h.92c-.42-1.38-.81-2.07-1.23-2.07-.69,0-1.04.69-1,2.07h1v-.69l.19.19c.04.15.08.31.11.5h0Z"/>
    <path class="cls-8" d="M58.44,17.65h-.92c.35,1.61.77,4.64,1.27,9.06.04.19.08.42.11.65h1.42c-.31-1.54-.65-3.45-1.04-5.8-.27-1.65-.58-2.96-.84-3.91h0Z"/>
    <path class="cls-8" d="M61.7,18.88c-.65,0-1.04.46-1.15,1.42v2c0,1.19.12,2.88.35,5.07h1.04l-.35-2.96v-4.03h.04c.15.54.54,2.88,1.19,6.98h1.96c-.04-.27-.08-.54-.12-.81-.11-1.8-.19-3.15-.27-4.03l.08.08c.19.84.42,2.42.69,4.76h2.96c-.11-1.34-.15-2.03-.15-2.07.04.27.15.96.31,2.07h1.15c-.35-1.11-.92-2.42-1.81-3.92-.19-.35-.42-.69-.61-1-.58-.23-1.38-.96-2.42-2.23-.11-.04-.19-.04-.31-.04-.35,0-.61.35-.77,1-.08.34-.15.69-.19,1.11-.15-.88-.31-1.54-.42-2.03-.23-.92-.61-1.38-1.19-1.38h0ZM66.69,27.1c-.23-.5-.38-1.15-.46-2-.12-1-.19-1.69-.31-2.03.23.5.54,1.84.88,4.03h-.12Z"/>
    <path class="cls-8" d="M53.37,17.65v.04-.04h-1.27c.15,1.34.31,2.99.5,4.87.23,2.19.54,3.8.92,4.84h2.03c.08-.42.11-.73.11-.92,0-.65-.23-2.53-.69-5.72-.19-1.27-.35-2.26-.46-3.07h-1.15ZM53.64,19.61v-.04c.54,2.8.81,4.53.81,5.22v.54s-.08.04-.12.08v-.04c-.46-2.3-.69-4.22-.69-5.76h0ZM54.6,26.37l-.15-.77v-.04c.11.12.15.38.15.81h0Z"/>
    <path class="cls-8" d="M56.21,17.65c-.04.19-.04.38,0,.61h-.08c0-.19-.04-.42-.08-.61h-1.23c.42,1.57.73,3.61,1,6.03.12,1.34.31,2.57.5,3.68h1.84c-.12-1.11-.27-2.53-.5-4.22-.31-2.34-.46-4.14-.46-5.49h-1Z"/>
    <path class="cls-8" d="M48.92,17.65h-1.61c.12.92.27,1.96.46,3.07.65,3.88,1.27,5.83,1.76,5.83.27,0,.42-.04.46-.08v-.12c.04-.38.08-.84.08-1.34,0-.08-.31-1.96-.88-5.64-.12-.61-.19-1.19-.27-1.73h0Z"/>
    <path class="cls-8" d="M51.3,17.65h-1.69c.08.73.15,1.57.27,2.46.38,3.8.96,5.68,1.73,5.68.46,0,.61-.08.42-.19.04-.38.08-.84.08-1.34,0-.81-.15-2.34-.5-4.53-.11-.77-.23-1.46-.31-2.07h0Z"/>
    <path class="cls-8" d="M47.77,24.06v-1.54c0-1.27-.19-2.88-.54-4.87h-2.34c.04.5.12,1,.19,1.54.61,4.07,1.27,6.1,1.92,6.1.42,0,.65-.42.77-1.23h0ZM46.73,22.11h-.08c-.12-.84-.19-1.61-.19-2.26.19.5.27,1.27.27,2.26h0Z"/>
    <path class="cls-8" d="M45.39,25.1l.08-.46c0-.42-.35-2.38-1-5.91-.08-.38-.15-.73-.19-1.07h-3.49c.19.81.42,1.73.65,2.76.73,3.26,1.34,4.87,1.84,4.87.23,0,.35-.08.35-.23,0-.19.11-.27.35-.27s.38.08.42.27c.04.15.19.23.38.23.46,0,.65-.08.61-.19h0Z"/>
    <path class="cls-8" d="M70.68,25.56c-.69,0-1.04.42-1.07,1.3v.5h2.23c-.04-.23-.11-.46-.15-.65-.19-.77-.5-1.15-1-1.15h0Z"/>
    <path class="cls-8" d="M22.59,24.26c-.27,0-.42,0-.42.04l.04.04c-.19.27-.38.73-.61,1.42-.19-.31-.31-.54-.42-.73-.19-.35-.5-.5-.88-.5-.27,0-.46.04-.5.08-.08.04-.11.08-.15.08v2.07c.08.19.15.42.19.61h1.07c-.11-.38-.23-.73-.27-1,.15.27.31.61.46,1h2.03c-.11-.38-.19-.73-.31-1.07l.08.08c.12.23.23.58.35,1h1.8c-.15-.88-.27-1.69-.31-2.34l.08.19c.11.42.31,1.11.57,2.15h1.96c-.54-2.34-.81-3.53-.81-3.61.23.65.58,1.88,1.07,3.61h1.31l-1.57-6.29h.08c.19.42.81,2.53,1.88,6.29h2.34c-.11-.46-.27-.92-.42-1.38-.92-2.84-1.54-4.87-1.88-6.14.58,1.15,1.27,3.26,2.15,6.29.12.42.27.81.38,1.23h3.53c-.19-.73-.46-1.73-.77-2.92-.88-3.34-1.42-5.26-1.53-5.76.27.5.84,2.61,1.8,6.29.23.96.46,1.73.69,2.38h1.8c-.19-1.04-.58-2.46-1.15-4.3-.96-3.03-1.46-4.72-1.53-5.07v-.35h-2.8c.04.81.19,1.84.5,3.11l.81,3.38-.11-.08c-.27-.84-.5-1.5-.65-2-.31-.92-.58-1.38-.81-1.38-.27,0-.42.04-.38.08l.08.04c-.11.35-.23.54-.27.54-.65-2.15-1.31-3.22-1.88-3.22-.65,0-1,.31-1.04.96-.04.34.04.81.15,1.42-.15-.58-.31-1.04-.42-1.3-.23-.54-.62-.81-1.11-.81-.27,0-.42.04-.46.12.04.04,0,.08-.04.08,0,1.11-.12,2.04-.31,2.84-.31,1.07-.5,1.84-.54,2.34-.04-.12-.15-.31-.42-.5-.23-.19-.42-.27-.54-.27-.54,0-.8.27-.77.81.04.92.04,1.5-.04,1.69-.08-.27-.15-.46-.27-.65-.19-.38-.46-.58-.81-.58h0Z"/>
    <path class="cls-8" d="M37.71,17.65h-2.34c.69,1.42,1.27,2.99,1.76,4.76.23.88.58,2.53,1.07,4.95h1.34v-.31c0-.81-.35-2.76-1.07-5.79-.35-1.54-.61-2.73-.77-3.61h0Z"/>
    <path class="cls-8" d="M40.21,17.65h-2.19c.27,1,.62,2.42,1.08,4.3.54,2.26,1.23,4.07,2.07,5.41h.54c.27-.31.42-.61.42-.92,0-1.11-.5-3.42-1.46-6.95-.19-.65-.35-1.27-.46-1.84h0Z"/>
    <path class="cls-8" d="M41.71,27.36h-.54c.08.08.15.15.19.27.11-.11.23-.19.35-.27h0Z"/>
    <path class="cls-8" d="M39.56,27.36h-1.34c.04.19.08.42.11.61l.58.12c.46,0,.65-.08.61-.19l.04-.54h0Z"/>
    <path class="cls-8" d="M37.52,28.44c0-.27-.04-.65-.12-1.07h-1.8c.46,1.34.88,2.03,1.3,2.03s.54-.04.35-.08c.19-.23.27-.54.27-.88h0Z"/>
    <path class="cls-8" d="M35.68,29.78l.04-.81c0-.19-.11-.73-.31-1.61h-3.53c.65,2.07,1.34,3.68,2.07,4.84.38-.15.61-.42.73-.77.04-.12.04-.35.04-.69,0-.27-.04-.5-.08-.65-.04-.19-.08-.27-.08-.31h.08s.15.08.46.04c.15,0,.35,0,.57-.04h0Z"/>
    <path class="cls-8" d="M31.65,27.36h-2.34c.08.31.15.65.27,1,.92,3.42,1.65,5.1,2.23,5.1.27,0,.42,0,.42-.04.04-.04.04-.08.08-.15.08-.27.11-.69.11-1.27,0-1.19-.27-2.72-.77-4.64h0Z"/>
    <path class="cls-8" d="M27.35,27.36h-1.96c.23.96.5,2.23.84,3.8.65,2.73,1.23,4.11,1.73,4.11.27,0,.42,0,.46-.04t-.04-.08c.12-.19.15-.31.15-.35.04-.08.04-.27.04-.58,0-.73-.35-2.65-1-5.8-.08-.38-.15-.73-.23-1.07h0Z"/>
    <path class="cls-8" d="M25.05,27.36h-1.8c.27.88.61,2.23,1.04,3.99.54,2.19,1.11,3.84,1.73,4.95.23-.12.42-.23.54-.35v-1.53c-.73-2.88-1.23-5.22-1.5-7.06h0Z"/>
    <path class="cls-8" d="M27.62,27.36c.19.65.38,1.42.61,2.3.77,2.53,1.31,3.8,1.61,3.8.27,0,.46-.04.5-.15.04-.04.04-.12.04-.15l-1.46-5.8h-1.31Z"/>
    <path class="cls-8" d="M24.13,37.19s-.04-.08-.04-.11h-3.11c.73,1.54,1.27,2.3,1.61,2.3.12,0,.65-.5,1.65-1.53,0-.27-.04-.5-.11-.65h0Z"/>
    <path class="cls-8" d="M24.09,37.07c-.08-.12-.11-.15-.11-.19.5.12.85-.04.96-.38.04-.12.08-.31.08-.65,0-.5-.31-2.11-.96-4.8-.35-1.46-.65-2.69-.92-3.68h-2.03c.27.58.54,1.3.81,2.15.46,1.38.81,2.57,1,3.57h-.08c-.92-2.53-1.57-4.45-1.92-5.72h-1.07c.08.5.04.92-.08,1.27-.27.73-.38,1.27-.38,1.57h-.12c-.23-.65-.42-1.15-.61-1.5-.35-.73-.81-1.07-1.42-1.07-.31.04-.5.08-.62.08-.04.73-.23,1.3-.58,1.69-.35.35-.5.88-.5,1.54h-.04c-.5-.88-.92-1.31-1.34-1.31-.27,0-.46.04-.5.08l-.12.08-.04.81c0,.38.15,1.23.5,2.57h-.11c-.27-.23-.5-.61-.61-1.15-.12-.46-.5-.81-1.07-1.07-.27.19-.38.27-.38.31-.04.04-.08.23-.08.58,0,.5.16,1.3.5,2.46.19.58.38,1.19.58,1.84-.58-1.23-1.08-2.26-1.5-3.07-.81-1.57-1.38-2.38-1.65-2.38s-.42.08-.54.19c-.04.04-.11.15-.19.31l-.04.27c0,.19.23,1.07.65,2.65.42,1.5.69,2.5.85,2.99h1.15c-.46-1.19-.81-2.15-1-2.88.31.5.88,1.46,1.69,2.88h2.07c-.42-1.07-.65-1.8-.77-2.19h.08c.19.46.5,1.19.84,2.19h2.15c-.04-.12-.08-.23-.11-.35l-1.73-5.03.19.12c.35.77.96,2.53,1.84,5.26h3.53c-.27-.65-.58-1.5-.96-2.49-1.04-2.65-1.54-4.07-1.54-4.22,0-.27,0-.42.04-.38.04,0,.04.04.04.08.27.42,1.08,2.26,2.42,5.53.23.58.46,1.07.65,1.5h3.11ZM17.14,32.58v-.08c.96,1.88,1.42,3.3,1.46,4.18l-.08-.08c-.84-1.96-1.3-3.3-1.38-4.03h0ZM22.21,35.54c-.23-.42-.5-1.07-.84-2.03-.35-1.07-.61-1.8-.73-2.19.96,1.8,1.5,3.22,1.61,4.22h-.04Z"/>
    <path class="cls-8" d="M7.36,33.01c-.27,0-.42.04-.46.08l-.08.08v1.73c.27.81.5,1.54.73,2.19h.88c-.04-.15-.08-.27-.08-.35v-.42s.04.04.08,0c.04.04.15.27.38.77h1.42c-.27-.65-.73-1.42-1.3-2.34-.73-1.15-1.27-1.73-1.57-1.73h0Z"/>
    <path class="cls-8" d="M5.28,35.77c-.27,0-.42.04-.46.12,0,.04,0,.15-.04.27,0,.23.08.54.19.92h1.5c-.54-.88-.92-1.31-1.19-1.31h0Z"/>
    <path class="cls-8" d="M6.47,37.07h-1.5c.11.46.35,1.04.61,1.69.5,1.27.77,2.07.77,2.49s-.04.5-.11.15c0-.04-.15-.08-.42-.04-.27,0-.46.04-.54.12,0,.88.54,2.03,1.57,3.42.96,1.27,1.57,1.88,1.92,1.88.27,0,.46-.08.54-.19.04-.11.04-.23.08-.31-.54-1.15-.96-2.03-1.23-2.69-.5-1.19-.77-2.07-.81-2.69h.08c.42.61,1.04,1.54,1.84,2.8.73,1.11,1.46,2.03,2.19,2.8.19-.04.35-.23.54-.5-.85-1.96-1.53-3.57-2.07-4.91-.84-2.03-1.34-3.38-1.5-4.03h-.88c.58,1.96.96,3.22,1.15,3.88-.27-.31-.85-1.34-1.81-3.07-.15-.31-.31-.58-.42-.81h0Z"/>
    <path class="cls-8" d="M11.54,37.07h-1.15v.04h-.16v-.04h-1.42c.42.84,1.15,2.38,2.26,4.6,1.34,2.73,2.38,4.07,3.19,4.07.27,0,.46-.08.5-.19-.04-.12-.04-.23,0-.31-.35-.92-1.07-2.76-2.19-5.56-.38-.96-.73-1.84-1.04-2.61h0ZM11.12,38.99h-.11c-.15-.31-.31-.69-.46-1.15.19.19.38.58.58,1.15h0Z"/>
    <path class="cls-8" d="M16.6,37.07h-2.15c.27.81.62,1.84,1.04,3.03.81,2.26,1.46,3.38,1.96,3.38.27,0,.42,0,.46-.04-.04-.04-.04-.08,0-.12.04-.04.08-.11.11-.15.04-.08.08-.27.08-.54,0-.84-.5-2.69-1.5-5.56h0Z"/>
    <path class="cls-8" d="M14.3,37.07h-2.07c.42.77.96,1.69,1.53,2.76,1.46,2.61,2.23,3.91,2.27,3.91.27,0,.42-.04.46-.12-.04-.08-.04-.11,0-.11l.08-.5c0-.08-.46-1.27-1.34-3.53-.35-.96-.65-1.77-.92-2.42h0Z"/>
    <path class="cls-8" d="M16.8,37.07c.04.08.04.15.08.27.92,2.53,1.65,3.8,2.23,3.8.46,0,.61-.08.46-.19.04-.27.08-.54.08-.88,0-.27-.04-.54-.15-.81.11.23.38.35.81.35h.35c.19-.04.23-.08.15-.12t.04-.08s.04-.04.08-.04v-.38c0-.19-.19-.81-.58-1.92h-3.53Z"/>
    <path class="cls-8" d="M78.66,29.94l.04.04c-.5.65-.77,1.5-.77,2.53-.04.58-.04,1.34,0,2.38h-.04c-.12-1.69-.23-2.96-.34-3.84-.19-1.61-.62-2.42-1.27-2.42-.54,0-.88.73-1.07,2.15-.08.73-.12,1.54-.15,2.49-.19-1.57-.35-2.84-.5-3.8-.19-.96-.42-1.69-.73-2.11h-1.57s-.04.04-.04.08c-.12.19-.19.46-.23.81l-.04-.08c-.04-.31-.08-.58-.12-.81h-2.23c.04.35.04.69.08,1.11-.04-.35-.15-.73-.27-1.11h-1.15c.19,1.61.5,4.11.84,7.52.08.81.15,1.54.27,2.19h2.19v-.46l-.73-6.72v-1.73c.23.92.54,3.15.92,6.64.08.81.19,1.57.31,2.26h1.69c-.08-.46-.15-.96-.27-1.5-.42-2.49-.65-4.41-.65-5.76,0-.38.04-.69.15-.96h.04c.27,1.3.61,3.91,1.04,7.87.04.12.04.23.08.35h2.34c-.19-2.72-.23-4.8-.19-6.22.23,1.15.42,3.22.58,6.22h2.23c-.08-2.03-.12-3.65-.12-4.87l.08.12c.11,1.04.23,2.65.27,4.76h2c.04-1.27.08-2.15.15-2.57l.12.12c.04.58.04,1.42,0,2.46h3.8c-.04-.15-.04-.27-.04-.38-.69-.19-1.11-.34-1.31-.42-.19-.15-.42-.31-.73-.5-.42.35-.69.54-.77.54.04-.88.04-1.57,0-2.11-.11-.96-.42-1.46-1-1.46-.38.08-.65.12-.77.12,0,.54-.11,1.04-.38,1.5l-.08-.11c.04-.96,0-1.77-.08-2.42-.15-1.27-.54-1.92-1.11-1.92-.27,0-.42,0-.46.04h0Z"/>
    <path class="cls-8" d="M72.26,27.36h1.57c-.27-.35-.54-.54-.85-.54-.35,0-.57.19-.73.54h0Z"/>
    <path class="cls-8" d="M68.34,30.4c-.12-1.27-.19-2.26-.23-3.03h-2.96c.15,1.3.31,2.84.5,4.64.35,2.34.81,4.03,1.34,5.07h2v-1.5c-.27-1.38-.5-3.11-.65-5.18h0Z"/>
    <path class="cls-8" d="M71.56,37.07h-2.19c.42,2.73.92,4.07,1.54,4.07h.11c.23-.04.38-.08.46-.15.04-.04.04-.12.08-.15v-3.76h0Z"/>
    <path class="cls-8" d="M68.99,38.11v-1.04h-2c.42.88.92,1.3,1.5,1.3.27,0,.42-.04.46-.12.04-.04.04-.11.04-.15h0Z"/>
    <path class="cls-8" d="M76.48,37.07h-2.34c.42,3.07,1,4.6,1.65,4.6.46,0,.65-.04.57-.15.04-.23.08-.54.15-.92.11-.35.15-.65.15-.88-.08-.96-.15-1.84-.19-2.65h0Z"/>
    <path class="cls-8" d="M76.86,37.07c.04.5.04,1.04.08,1.61.27,3.19.84,4.8,1.65,4.8.42,0,.57-.04.46-.15.11-.38.19-.96.19-1.73-.08-1.69-.11-3.19-.15-4.53h-2.23Z"/>
    <path class="cls-8" d="M73.75,37.07h-1.69c.31,1.65.73,3.03,1.27,4.07.5-.35.77-.73.77-1.15,0-.38-.12-1.34-.35-2.92h0Z"/>
    <path class="cls-8" d="M81.31,37.07h-2v1.11c.12,2.42.54,4.37,1.19,5.83.58-1.04.84-2.57.81-4.6v-2.34h0Z"/>
    <path class="cls-8" d="M83.31,38.65l.19.27c.04,1.27.08,2.99.08,5.18l.65.11c.42,0,.61-.08.58-.19l.04-1.61c.54.35.88.31,1-.12.04-.12.04-.5.04-1.19,0-.19-.08-.84-.27-1.96-.11-.88-.19-1.57-.23-2.07h-3.8c0,.65,0,1.42-.04,2.26.04,1.92.31,3.49.77,4.68.54-.58.8-1.5.8-2.72-.04-1.42,0-2.3.19-2.65h0Z"/>
    <path class="cls-8" d="M64.77,27.36h-1.96c.08.46.15.96.23,1.5.58,3.76,1.19,5.64,1.88,5.64.27,0,.42-.04.46-.15.04-.04.04-.11.08-.15v-3.61c-.31-.96-.54-2.03-.69-3.22h0Z"/>
    <path class="cls-8" d="M61.93,27.36h-1.04c.11,1.11.23,2.34.42,3.68h-.11c-.27-.65-.54-1.88-.88-3.68h-1.42c.58,3.76,1.34,5.64,2.26,5.64.39,0,.69-.31.92-.92.19-.46.27-.88.27-1.23l-.42-3.49h0Z"/>
    <path class="cls-8" d="M58.25,29.24c0-.5-.04-1.11-.08-1.88h-1.84c.31,1.73.69,3.07,1.15,4.07.5-.38.77-1.11.77-2.19h0Z"/>
    <path class="cls-8" d="M55.56,27.36h-2.03c.35.84.73,1.27,1.15,1.27.27,0,.46,0,.5-.04.04-.04.08-.08.08-.12.11-.42.23-.81.31-1.11h0Z"/>
    <path class="cls-5" d="M70.6,4.68l-.04,1.04c0,.54.08,1.07.27,1.61h-.19c-.27-.5-.77-1.07-1.42-1.69-.58-.54-.88-.81-1-.81-.27,0-.38.04-.42.12l-.08.11v1.11c.11.58.35,1.77.69,3.57-.69-1.15-1.23-2.03-1.65-2.65-.77-1.19-1.31-1.77-1.57-1.77s-.42.04-.42.08l.08.04c-.11.34-.23.54-.27.57-.08-.23-.15-.46-.27-.65-.19-.35-.46-.54-.81-.54-.27,0-.46.04-.54.12-.04.08-.08.11-.12.11v1.5c.23.42.5,1.11.77,2.03.15.5.34,1.19.58,2.03-.11-.27-.27-.46-.42-.65-.23-.35-.46-.54-.65-.54-.27,0-.42.04-.5.11l-.12.12-.15.5s.15.46.42,1.23c.27.81.38,1.27.38,1.46-.19-.19-.73-.12-1.54.15l-.04.31c0,.23.35,1,1,2.26-.42-.23-.77-.19-1,.12.42,1,1.3,2.34,2.57,3.99.15.19.31.35.42.54,1.04,1.27,1.84,2,2.42,2.23.11.04.23.08.35.08.42,0,.58-.04.38-.12.11-.11.15-.15.19-.19.04-.11.04-.31.04-.58,0-.58-.19-1.19-.58-1.88-.46-.81-.73-1.5-.81-2.15h.04c.27.42.65,1.42,1.23,2.99.58,1.42,1.19,2.11,1.8,2.11.27,0,.42-.04.46-.08.04-.04.08-.11.11-.23l.08-.04v-.42c0-.27-.08-.58-.27-.96-.19-.42-.31-.73-.35-.88.31.11.58.15.81.04.23-.12.35-.31.35-.54,0-.5-.73-2.38-2.19-5.64-1.54-3.42-2.42-5.37-2.61-5.87h.15c.31.5,1.19,2.34,2.61,5.53,1.19,2.65,1.88,3.99,2.11,3.99.46,0,.65-.08.57-.19l.08-.5-1.23-4.07.23.08c.27.5.58.46.92-.04l.08-.31c0-.27-.04-.54-.15-.81-.11-.38-.19-.58-.19-.61.65-.04,1.04-.38,1.15-1.04-.04-.61-.04-.96-.04-1.04,0-1.15-.04-1.96-.11-2.46-.27-1.34-.81-2-1.61-1.96h0ZM64.39,7.83v-.08c.81,1.34,1.84,3.61,3.19,6.72,1.27,2.96,1.92,4.57,1.92,4.87v.27c-2.73-5.18-4.41-9.1-5.1-11.78h0ZM65.65,15.85s-.15-.46-.38-1.19c.38.23.77,1,1.11,2.3h-.11c-.27-.35-.46-.69-.61-1.11h0Z"/>
    <path class="cls-5" d="M49.77,28.25c-.58-1.46-1.11-2.19-1.61-2.19-.27,0-.46.04-.54.12-.04.08-.08.11-.12.11v2.07c.12.81.65,3.61,1.61,8.44.04.08.04.15.04.23h.96v-.04c-.88-3.99-1.34-6.79-1.46-8.44l.08.15c.42,1.27,1.04,4.03,1.76,8.33h2.27c-.46-2.19-.77-3.68-.92-4.45v-1.73h.08c.34,1.3.92,3.38,1.73,6.18h1.15c-.5-2.26-.92-3.99-1.19-5.18-.61-2.34-1.27-3.49-2-3.49-.27,0-.42.08-.54.19-.11.11-.15.15-.19.15l-.04,2.69h-.08c-.5-1.69-.84-2.72-1-3.15h0Z"/>
    <path class="cls-5" d="M54.72,31.74c-.19.5-.27,1.04-.27,1.61s.15,1.8.42,3.68h.96c-.27-1.42-.38-2.61-.38-3.61,0-.15.04-.5.12-1.04h.08c.38,1.11.88,2.69,1.46,4.64h2.26c-.04-.27-.04-.54-.08-.81.12.27.27.54.42.81h1.42c-.04-.08-.08-.15-.11-.19-.77-1.57-1.42-2.34-2-2.34-.27,0-.42.04-.54.08l-.15.04-.11,2.3c-.58-2.07-.92-3.26-1.04-3.53-.57-1.65-1.15-2.46-1.65-2.46-.34,0-.61.27-.81.81h0Z"/>
    <path class="cls-5" d="M50.11,37.04h-.96c.77,3.8,1.15,6.64,1.15,8.6,0,.54-.04.88-.12,1.07-.88-3.8-1.65-7.02-2.26-9.67h-.77c.04.42.11.84.19,1.3.65,4.03,1.65,7.25,2.96,9.71.54-.19.88-.58,1-1.15.04-.19.04-.61.04-1.34,0-1.96-.42-4.8-1.23-8.52h0Z"/>
    <path class="cls-5" d="M47.16,37.04h.77c-.69-2.88-1.23-5.1-1.61-6.68-.61-2.57-1.08-4.07-1.34-4.41-.35-.46-.54.58-.54,3.07.31,3.11.58,5.8.8,8.02h.92c-.42-4.34-.65-7.22-.69-8.6l.04.12c.31,1.04.84,3.88,1.65,8.48h0Z"/>
    <path class="cls-5" d="M54.87,37.04c0,.15,0,.31.04.46h-.04c-.04-.15-.04-.31-.08-.46h-1.15c.81,2.92,1.8,6.64,3.07,11.21h.42c-.35-.92-.65-2-.88-3.26-.27-1.54-.46-2.61-.58-3.26.23.65.77,2.84,1.57,6.52h1.07c-.23-1.73-.69-3.84-1.34-6.26-.5-1.88-.88-3.53-1.15-4.95h-.96Z"/>
    <path class="cls-5" d="M52.76,37.04h-2.27c.23,1.42.5,3.03.77,4.8.46,2.88.92,5.03,1.38,6.41h1.8c-.04-1.77-.38-4.45-1.08-8.1-.23-1.15-.42-2.19-.61-3.11h0ZM52.87,44.4v-.04c.15.65.23,1.31.27,1.96-.04-.11-.11-.77-.27-1.92h0Z"/>
    <path class="cls-5" d="M59.36,37.04h-2.26c.35,1.27.77,2.73,1.23,4.38,1.15,4.11,1.73,6.37,1.77,6.83h1.04c-.19-.54-.35-1.07-.5-1.65-.65-2.69-1.15-4.64-1.5-5.87v-.08c.65,1.34,1.5,3.61,2.53,6.72.11.31.19.61.31.88h.96c-.88-2.19-1.53-3.95-2-5.22-.84-2.34-1.38-4.34-1.57-5.99h0ZM58.75,39.22c-.12-.46-.19-.81-.23-1.07v-.04l.31,1.07-.08.04h0Z"/>
    <path class="cls-5" d="M63.35,36.54c-.35,0-.57.15-.77.5h1.76c-.35-.35-.65-.5-1-.5h0Z"/>
    <path class="cls-5" d="M61.12,37.04h-1.42c1.5,3.11,2.69,6.83,3.61,11.21h2.11c-.23-.65-.46-1.3-.65-1.96.35.46.69,1.11,1.07,1.96h1.04c-.46-1.04-.88-2-1.31-2.96-1.5-3.49-2.23-5.76-2.23-6.87,0-.31.04-.54.08-.65.54.73,1.31,2.19,2.34,4.38,1,2.19,1.5,3.49,1.5,3.88,0,.27.11,1.04.34,2.23h2.61c-1.27-3.34-2.03-5.6-2.27-6.75v-.08c1.15,2.11,2.19,4.41,3.15,6.83h3.49c-1.27-5.41-2.23-8.1-2.95-8.1h-.08v.69s-.04.11-.08.15c-.08.08-.23.12-.46.15v.92c.27,1,.27,1.65.08,1.96-.16-.12-.65-.84-1.5-2.26-.73-1.27-1.38-1.88-1.88-1.88-.42,0-.65.31-.73.92-.04.35-.08.77-.04,1.27h-.15c-.81-2.03-1.23-3.11-1.27-3.15-.42-.88-.8-1.5-1.19-1.88h-1.76c-.15.31-.23.77-.23,1.38,0,.46.08,1.07.19,1.84-.58-1.34-1.04-2.42-1.42-3.22h0ZM63.43,42.56l-.08-.08-.38-1.15c.19.19.34.61.46,1.23h0Z"/>
    <path class="cls-5" d="M54.45,48.24h-1.8c.38,1.19.77,1.84,1.11,1.88.04-.15.12-.23.19-.23.04,0,.15,0,.31.04.11-.27.19-.81.19-1.54v-.15h0Z"/>
    <path class="cls-5" d="M60.09,48.24c0,1.88.35,3.84,1,5.83.73,2.26,1.31,4.03,1.65,5.37h2c-.12-.19-.19-.38-.31-.58-1.11-2.23-1.84-4.03-2.19-5.45h.11c1.19.73,1.77.23,1.77-1.46.84,2.88,1.54,5.37,2.11,7.48h1.04v-.08s0,.04.04.08h2.8c-.23-.46-.46-1-.73-1.65-.46-1.11-.73-1.69-.77-1.8.31-.08.61-.19.88-.38.04.42.19,1.11.5,2.15.19.73.35,1.27.42,1.69h.92c-.19-.96-.34-1.8-.42-2.53.42.84.88,1.69,1.38,2.53h1.3c-.42-.65-.73-1.19-.96-1.61-.81-1.34-1.34-2.5-1.65-3.45.54.19.88.12,1-.31.04-.42.08-.65.08-.69,0-.19-.61-1.88-1.8-5.07t-.04-.08h-2.61s0,.12.04.19c.23,1.34.42,2.19.57,2.57h-.08c-.42-.96-.85-1.88-1.27-2.76h-1.04c.27.58.57,1.23.84,1.96.84,2.19,1.46,3.65,1.8,4.34h-.19c-1.15-2.11-2.11-4.18-2.88-6.29h-2.11c.08.46.15.92.27,1.42h-.08c-.19-.5-.38-1-.58-1.42h-.96c.77,2.38,1.15,3.72,1.15,4.03,0,.42-.04.5-.15.19-.69-1.19-1.31-2.57-1.84-4.22h-1.04ZM64.69,49.2c.42.73.84,1.65,1.23,2.69.42,1.27.69,2.34.77,3.26h-.08c-.5-1.27-.92-2.26-1.19-2.96-.46-1.3-.69-2.3-.73-2.99h0Z"/>
    <path class="cls-5" d="M58.32,48.24h-1.07s0,.12.04.19h-.08c-.04-.08-.04-.15-.08-.19h-.42c.88,3.3,1.92,7.02,3.03,11.21h2.61c-.57-1.23-1.3-2.8-2.15-4.76-1.15-2.61-1.73-3.95-1.73-4.07,0-.73-.04-1.5-.15-2.38h0Z"/>
    <path class="cls-5" d="M46.81,46.48c.11-.42.19-.88.19-1.34,0-.12-.27-2.53-.77-7.29-.04-.27-.04-.54-.08-.81h-.92c.5,4.95.73,7.64.73,8.02,0,.42-.04.77-.11,1.04h-.15c-.35-1.5-.69-4.53-.96-9.06h-1.19c.04,1.04.11,2.19.19,3.42.46,4.72,1.15,7.1,2.11,7.1.42,0,.77-.35.96-1.07h0Z"/>
    <path class="cls-5" d="M74.67,48.51c-.04-.11-.04-.19-.08-.27h-3.49c1.34,3.42,2.46,7.14,3.38,11.21h1.15c-.27-1.11-.61-2.34-1-3.72.12.19.27.46.46.81.19.31.5.65.85,1,.19-.04.34-.15.42-.35l.04-.31c-.5-2.8-1.07-5.56-1.73-8.37h0Z"/>
    <path class="cls-5" d="M36.18,32.74c-.08-.27-.15-.46-.27-.61-.15-.27-.42-.42-.81-.42-.27,0-.46.04-.54.12-.04.08-.08.12-.12.12-.23,1.65-.27,3.38-.15,5.1h1.04c-.19-1.19-.23-2.19-.12-2.96v-.08c.12.35.35,1.34.65,3.03h1.57c-.11-.65-.15-1.04-.19-1.19v-3.07h.08c.04.12.19,1.54.5,4.26h1.5c-.35-2.57-1.04-4.72-2.07-6.37-.23.15-.46.5-.65,1.07-.23.61-.38.96-.42,1h0Z"/>
    <path class="cls-5" d="M32.57,34.5c-.27,0-.46.04-.5.08-.04.04-.08.04-.12.04l-.04,1.04c0,.31.08.77.23,1.38h2.07c-.15-.5-.31-.96-.42-1.3-.27-.81-.69-1.23-1.23-1.23h0Z"/>
    <path class="cls-5" d="M30.27,34.77c-.27,0-.46.04-.5.08l-.11.04c-.04.88-.04,1.61-.04,2.15h2s0-.08-.04-.11c-.57-1.42-1-2.15-1.3-2.15h0Z"/>
    <path class="cls-5" d="M32.15,37.04c.04.27.12.54.19.84.27,1.04.38,1.73.38,2.11-.46-1.23-.85-2.23-1.11-2.96h-2c-.04.65-.04,1-.08,1.11-.27-.46-.46-.81-.58-1.04t-.04-.08h-1.61c.04.58.15,1.27.38,2.15l-.08-.08c-.27-.84-.65-1.27-1.19-1.27-.27,0-.42,0-.46.04h.04c-.31.27-.46.81-.5,1.54-.04.54,0,1.04.12,1.54h-.12c-.23-.11-.46-.19-.73-.23-.19,0-.38.04-.5.08l-.04,1.65c0,.77.11,1.92.38,3.45l-.08.04c-.8-1.57-1.42-2.88-1.92-3.84-.88-1.8-1.38-2.73-1.46-2.73-.15,0-.27,0-.35.04t-.04.08c.08.04.04.08-.15.12.04.65.19,1.54.46,2.57.11.58.31,1.34.5,2.23l-.31-.65c-.19-.35-.38-.54-.65-.54s-.46.04-.5.15c-.04.04-.04.12,0,.15.04.46.15,1.04.42,1.73.11.38.31.88.58,1.54-.19-.04-.38-.46-.58-1.23-.19-.73-.5-1.07-.92-1.07-.27,0-.38.04-.42.08-.04.04-.04.08-.04.19-.04.04-.04.08-.08.04v.35c0,.42.23,1.46.73,3.11h4.14c-.42-1.11-.73-2.07-.96-2.88.34.69.77,1.65,1.34,2.88h2.38c-.84-2.26-1.34-4.03-1.5-5.3h.08c.65,1.11,1.46,2.88,2.46,5.3h1.46c-1.57-3.99-2.49-6.98-2.69-8.94.19.5,1.04,2.61,2.53,6.41.34.92.73,1.77,1.07,2.53h2.88c-1.11-3.42-1.92-7.02-2.42-10.75.27.69,1.04,3.26,2.3,7.71.35,1.23.69,2.23.96,3.03h1.84c0-.31-.08-.88-.23-1.73-.23-1.27-.35-2-.38-2.15.19.58.38,1.8.65,3.76,0,.04,0,.08.04.12h2.8s.04-.12.08-.15c.08-.15.12-.5.12-1.04,0-1-.23-3.03-.69-6.06-.31-1.77-.54-3.07-.65-3.95h-1.57s.04.12.04.19c.38,2.03.58,3.38.58,4.07l-.04.69v-.27c-.58-2.07-.88-3.34-.96-3.8-.04-.31-.11-.61-.15-.88h-1.04c.04.12.04.23.04.35-.04-.12-.08-.23-.12-.35h-2.07ZM29.08,40.45c.08.15.23.54.5,1.15.31.77.5,1.27.54,1.53h-.19c-.5-1.42-.81-2.3-.84-2.69h0ZM34.91,39.57c-.19-.42-.27-.73-.27-.92.04,0,.11.31.31.92h-.04ZM33.07,41.6v-.08c.04.23.23.73.5,1.5.27.77.42,1.34.5,1.73-.46-.77-.81-1.8-1-3.15h0ZM34.37,41.91h-.04c-.27-.77-.46-1.54-.58-2.3.34.69.54,1.46.61,2.3h0Z"/>
    <path class="cls-5" d="M40.09,31.7c-.27,0-.46.04-.5.12.04.08,0,.12-.04.12-.15,1.27-.23,2.19-.23,2.76,0,.19.04,1,.15,2.34h2.99l-.08-1.5c0-2.42.19-4.45.58-6.14.11,1.34.31,3.91.58,7.64h1.19c-.04-.15-.04-.31-.04-.46-.27-3.95-.84-7.02-1.8-9.21-.73,1-1.23,2.23-1.42,3.68-.04.38-.11,1.57-.19,3.57,0-1.96-.38-2.92-1.19-2.92h0Z"/>
    <path class="cls-5" d="M42.47,37.04h-2.99c.11,1.69.35,4.3.61,7.79h-.08c-.27-3.26-.46-5.72-.65-7.29-.04-.19-.04-.35-.04-.5h-1.5c.11,1.07.23,2.38.42,3.88.31,2.88.92,5.3,1.8,7.33h.84c.08-.15.15-.31.19-.5.19-.5.27-.88.27-1.15-.35-2.76-.5-4.8-.5-6.06l.04.11c.04.19.15,1.34.35,3.45.11,1.38.42,2.46.88,3.19.46-.38.73-1.07.77-2.03l-.42-8.21h0Z"/>
    <path class="cls-5" d="M27.43,36.65c-.04.08-.08.12-.11.12v.27h1.61c-.27-.35-.58-.5-.96-.5-.27,0-.42.04-.54.12h0Z"/>
    <path class="cls-5" d="M16.72,52.77s-.08.12-.15.23c.19.92.54,3.07,1.11,6.45h1.65c-.19-.46-.34-.96-.54-1.46v-.08c.08.12.34.65.77,1.54h2.19c-1.04-2.46-1.92-4.34-2.57-5.68.92,1.42,2,3.3,3.22,5.68h1.27c-1.34-2.57-2.38-4.57-3.11-5.91-1.38-2.46-2.34-3.68-2.88-3.68-.27,0-.46.04-.5.11-.04.04-.04.15-.08.27,0,.58.19,1.38.58,2.5-.12-.04-.27-.08-.46-.08-.27,0-.46.04-.5.12h0ZM18.29,54.38l-.11-.04c-.08-.12-.11-.31-.15-.65.08.19.15.42.27.69h0Z"/>
    <path class="cls-5" d="M19.83,48.24c.31,1.07.73,2.42,1.27,4.07,1.23,3.65,2.07,6.03,2.57,7.14h1.73c-1.57-3.49-2.69-6.1-3.34-7.87l.08.11c.69,1.34,1.92,3.95,3.65,7.75h1.46c-.81-1.69-1.42-3.19-1.8-4.49.46.88,1.19,2.38,2.19,4.49h1.42c-2.3-4.64-3.99-8.37-5.07-11.21h-4.14Z"/>
    <path class="cls-5" d="M29.23,48.24h-1.46c.35.84.69,1.77,1.11,2.8,1.34,3.42,2.61,5.99,3.8,7.75.23-.11.38-.19.42-.31.08-.11.11-.31.11-.65-1-2.38-2.03-4.84-3.11-7.37-.35-.81-.61-1.54-.88-2.23h0Z"/>
    <path class="cls-5" d="M26.74,48.24h-2.38c.96,2.11,2.26,4.99,3.88,8.71.42.88.81,1.73,1.19,2.49h2.27c-.58-1.19-1.23-2.65-2.03-4.38-1.23-2.65-2.19-4.91-2.92-6.83h0Z"/>
    <path class="cls-5" d="M35.72,48.24h-1.84c.42,1.27.77,1.88.96,1.88.42,0,.69-.23.81-.65.04-.19.08-.61.08-1.23h0Z"/>
    <path class="cls-5" d="M33.03,48.24h-2.88c.65,1.5,1.23,2.69,1.76,3.65.19-.04.35-.19.5-.42.04.19.19.77.46,1.73.31.88.65,1.31,1.07,1.31.27,0,.42-.04.46-.15,0-.12,0-.19.04-.19v-1.92c-.54-1.31-1-2.65-1.42-3.99h0Z"/>
    <path class="cls-5" d="M37.25,50.62c.27,0,.46-.04.5-.15.04-.04.04-.12.04-.15,0-.88-.04-1.53-.08-1.88.42.08.73,0,.88-.19h-2.8c.35,1.57.81,2.38,1.46,2.38h0Z"/>
    <path class="cls-5" d="M40.9,48.24h-.84c.08.19.15.42.27.61.23-.08.42-.27.58-.61h0Z"/>
    <path class="cls-5" d="M33.49,64.09v-.42c0-.15-.61-1.57-1.8-4.22h-2.27c1.61,3.34,2.73,4.99,3.38,4.99.46,0,.65-.08.58-.19.04-.04.08-.11.11-.15h0Z"/>
    <path class="cls-5" d="M25.39,59.45h-2.99c.35.65.73,1.34,1.08,2.07.96,1.88,2.3,4.6,4.11,8.17h-.15c-1.73-2.15-3.3-4.84-4.76-8.06-.35-.81-.65-1.53-.92-2.19h-2.19c.65,1.27,1.69,3.38,3.11,6.29.88,1.84,1.73,3.45,2.46,4.87h1.27c-.27-.54-.46-.96-.62-1.27v-.04c.35.35.69.77,1.08,1.3h2.23c-.27-.54-.46-1-.58-1.34v-.12c.31.38.61.88.96,1.46h1.15c-.61-1.3-1.38-2.88-2.26-4.76-1.11-2.42-2.11-4.53-2.96-6.41h0Z"/>
    <path class="cls-5" d="M29.04,59.45h-1.42c.61,1.27,1.34,2.8,2.19,4.53h-.08c-.96-1.65-1.8-3.15-2.49-4.53h-1.46c.58,1.27,1.19,2.69,1.92,4.26,1.61,3.42,2.88,5.72,3.8,6.91h2.07c.04-.11.08-.27.15-.46.15-.31.23-.54.23-.73s-1.53-3.34-4.64-9.44c-.11-.19-.19-.35-.27-.54h0Z"/>
    <path class="cls-5" d="M19.33,59.45h-1.65v.04c.42,2.69.84,4.8,1.19,6.37-.19-.11-.46-.19-.73-.23-.27-.04-.46,0-.58.08v1.34c.15.38.31.96.46,1.69.19.81.31,1.38.42,1.65-.23-.04-.38-.15-.5-.31-.23-.35-.35-.5-.38-.54-.19.15-.34.31-.38.5-.04.11-.08.31-.08.58h5.14c-1.5-2.8-2.49-5.26-2.96-7.41.61,1.15,1.77,3.61,3.49,7.41h1.8c-.96-1.42-1.84-3.03-2.65-4.76-.61-1.34-1.5-3.45-2.61-6.41h0Z"/>
    <path class="cls-5" d="M29.08,70.62h-2.23c.34.54.73,1.15,1.15,1.88.46.77,1.07,1.84,1.84,3.26l-.12.08c-.88-.81-1.69-1.88-2.42-3.22-.35-.81-.65-1.46-.92-2h-1.27c.61,1.19,1.15,2.19,1.65,3.03-.77-.92-1.5-1.92-2.19-3.03h-1.8c.23.58.5,1.15.77,1.77,2.03,4.11,3.72,6.14,5.03,6.14.96,0,1.27-.54.96-1.61.77-.42,1.61-.65,2.53-.69.42-.04.61-.35.61-.96,0-.12-.69-1.69-2.07-4.64h-1.15c.65,1.11,1.34,2.61,2.15,4.45-.08-.12-.61-1.08-1.65-2.84-.35-.61-.65-1.15-.88-1.61h0ZM28.39,77.37c-.65-.27-1.04-.61-1.15-1.11.27.12.65.5,1.15,1.11h0Z"/>
    <path class="cls-5" d="M23.48,72.84c-.46-.77-.88-1.5-1.23-2.23h-5.14v.12l-.27,3.11c0,.73.5,1.8,1.53,3.3,1.04,1.57,2,2.53,2.8,2.92.27-.12.42-.31.5-.54-.23-.58-.69-1.57-1.38-2.99-.73-1.5-1.23-2.46-1.42-2.95h.04c.23.34.81,1.27,1.73,2.76.88,1.34,1.61,2,2.19,2,.46,0,.61-.04.5-.15.04-.08.08-.11.15-.11v-.38c0-.38-.31-1.19-.88-2.38.96,1.5,2,2.76,3.19,3.8.5-.5.77-.84.77-.96,0-.04-1.04-1.8-3.07-5.3h0Z"/>
    <path class="cls-5" d="M33.57,70.62h-2.07c.5.65.92,1,1.19,1,.42,0,.62-.04.54-.08.04-.04.12-.08.15-.11.08-.08.11-.27.11-.54,0-.08.04-.15.08-.27h0Z"/>
    <path class="cls-5" d="M75.63,59.45h-1.15c.12.58.27,1.19.38,1.84h-.11c-.42-.73-.81-1.34-1.15-1.84h-1.3c.34.65.77,1.34,1.19,2.03,1.27,1.96,2.07,2.96,2.46,2.96.27,0,.38-.04.42-.12.04-.04.04-.11.04-.15v-1.34c-.19-.88-.42-2-.77-3.38h0Z"/>
    <path class="cls-5" d="M67.27,59.45h-1.04c.5,1.96.88,3.57,1.15,4.91l-.19-.04s-.84-1.69-2.46-4.87h-2c.19.58.31,1.07.38,1.5l-.08-.08c-.19-.42-.42-.88-.69-1.42h-2.61c.58,2.11,1.19,4.37,1.84,6.72h-.15c-.88-2.73-1.65-4.99-2.3-6.72h-1.38v.08c.15.81.38,2.15.69,4.03.27,1.73.5,3.03.69,3.95l-.04-.08c-.19-1.15-.38-2.07-.58-2.73-.27-1.19-.61-1.8-1.04-1.8-.27,0-.42.04-.38.08l.08.04c-.08.04-.11.04-.15.08-.04.04-.04.19-.04.46,0,.46.65,2.8,1.96,7.06h2c-.08-.5-.11-.96-.11-1.38,0-.46.04-.81.11-1.04.19.5.5,1.3.88,2.42h1.92c-.42-1.65-.65-2.69-.77-3.03v-.08c.27.65.65,1.69,1.07,3.11h4.57c-.35-1.38-.54-2.11-.57-2.23h.11s.23.77.65,2.23h2.65c-.34-1.38-.54-2.38-.61-3.03.38.57.81,1.61,1.27,3.03h1.77c-.27-1.19-.42-1.88-.46-2.15.04-.08.15-.11.31-.15.08-.04.15-.04.19-.04.04.19.15.5.35.92.12.42.19.77.19,1.04v.38h.81c-.5-1.27-1.04-2.72-1.69-4.37-1.04-2.65-1.8-4.91-2.23-6.79h-.92c.04.15.04.31.04.42h-.12c-.08-.11-.15-.27-.23-.42h-2.8c1.73,3.95,2.61,7.14,2.65,9.48-.5-1.04-.96-2.57-1.46-4.57-.65-2.73-1.04-4.37-1.23-4.91h0ZM67,68.58h-.11c-1.31-3.61-2.19-6.14-2.61-7.64.58.96,1.11,2.19,1.61,3.61.5,1.42.88,2.76,1.11,4.03h0ZM64.46,66.17h-.35l-.69-1.92v-.08l1.04,2h0ZM72.06,66.66h-.08c-.15-.42-.69-1.57-1.57-3.45-.65-1.42-1.04-2.5-1.19-3.26.19.46.77,1.5,1.73,3.15.81,1.57,1.19,2.76,1.11,3.57h0ZM61.05,59.91v-.04c.04.12.27.84.73,2.19l-.08-.04c-.27-.5-.46-1.23-.65-2.11h0ZM60.36,67.24h-.11l-.38-2.11c.11.27.31.61.5,1.04.19.42.27.65.27.69,0,.46-.08.58-.27.38h0Z"/>
    <path class="cls-5" d="M58.25,57.03c-.27.12-.42.19-.5.19v2.23h1.38c-.35-.96-.61-1.77-.88-2.42h0Z"/>
    <path class="cls-5" d="M57.48,68.28c-.19.08-.31.15-.35.19-.12.12-.15.31-.15.58,0,.12.11.61.31,1.57h1.42c-.38-1-.81-1.77-1.23-2.34h0Z"/>
    <path class="cls-5" d="M63.73,70.62h-1.92c.42,1.27.92,2.96,1.57,5.03,1.11,3.34,2.03,4.99,2.76,4.99.69,0,1.04-.61,1.04-1.84,0-.35-.15-1.07-.5-2.26-.35-1.19-.5-2-.5-2.34,0-.27,0-.42.04-.38.04.04.04.08.04.12l.11.12c.35,1.69.81,3.22,1.3,4.6.81,2.11,1.57,3.19,2.34,3.19.27,0,.46-.11.61-.38.11-.19.19-.42.19-.65s-.11-.73-.35-1.5c-.23-.81-.34-1.3-.34-1.5,0-.57-.35-2.26-1.04-5.1-.19-.81-.38-1.5-.5-2.07h-4.57c.27.88.58,1.96.92,3.15.81,2.88,1.23,4.49,1.23,4.8v.46s-.04-.04-.08,0c-1.11-2.38-1.65-3.76-1.65-4.11,0-.81-.23-2.15-.65-3.99-.04-.12-.04-.19-.08-.31h0ZM66.81,71.35c.46.96.96,2.26,1.5,3.95.08.27.46,1.61,1.19,4.11h-.19c-1.23-3.57-2.07-6.26-2.49-8.06h0Z"/>
    <path class="cls-5" d="M61.2,72.08c-.11-.54-.23-1.04-.27-1.46h-2c.35,1.11.73,2.38,1.15,3.8l-.11-.04c-.5-1.5-.84-2.57-1.07-3.26-.04-.19-.11-.34-.19-.5h-1.42c.04.27.11.54.19.84.31,1.5.46,2.38.5,2.69h-.42c-.08-.27-.15-.5-.23-.69-.12-.38-.35-.58-.61-.58s-.42.04-.46.12c.04.04,0,.08-.04.08.27,2.07.5,3.49.69,4.26.35,1.5.88,2.72,1.61,3.76.19-.11.38-.23.5-.34,0-.27-.04-.61-.11-1-.11-.38-.15-.61-.15-.73.04,0,.08.08.19.27.11.15.35.23.61.23s.42-.04.46-.11c.04-.08.04-.12.08-.12v-.54c.11.12.27.54.46,1.19.27.58.65.88,1.15.88.42,0,.61-.08.58-.19.04-.23.08-.58.08-1.04,0-.5-.11-1.23-.38-2.11-.27-.88-.38-1.54-.38-1.96,0-1.19-.11-2.34-.38-3.45h0Z"/>
    <path class="cls-5" d="M75.25,70.62h-.81c.04.88.19,1.77.46,2.57.31.88.81,1.88,1.5,3.07.27-.12.42-.31.54-.54-.27-1-.81-2.69-1.69-5.1h0Z"/>
    <path class="cls-5" d="M74.48,73.3c-.27-1.07-.46-1.96-.61-2.69h-1.77c.31.96.65,2.15,1,3.49.73,2.8,1.31,4.22,1.77,4.22.38,0,.54-.04.42-.12.08,0,.12-.19.12-.54s-.31-1.8-.92-4.38h0Z"/>
    <path class="cls-5" d="M71.45,70.62h-2.65c.31,1.08.73,2.53,1.23,4.41.81,2.84,1.65,4.26,2.53,4.26.27,0,.46-.04.5-.11l.19-.23c.04.19.08.04.08-.42,0-.19-.38-1.77-1.11-4.72-.31-1.23-.58-2.3-.77-3.19h0Z"/>
    <path class="cls-7" d="M54.26,49.93c-.15-.04-.27-.04-.31-.04-.08,0-.15.08-.19.23-.08.19-.11.54-.11.96-.27-.46-.5-.77-.61-.96-.23-.35-.65-.54-1.31-.54-.27,0-.46.04-.5.08,0,.11-.04.15-.08.19s-.04.08-.08.04v.34c0,.46.19.92.54,1.42-.57-.61-1.07-1.07-1.42-1.42-.65-.65-1.19-.96-1.53-.96l-.12.31c0,.23.42,1.19,1.31,2.92.46.92,1.04,2.03,1.69,3.34h-.04c-.42-.65-1.31-1.69-2.57-3.19-1.34-1.54-2.11-2.3-2.3-2.3-.27,0-.46.04-.5.08-.08.04-.12.08-.15.08v.58c.84,1.27,2.26,3.3,4.3,6.14,1.73,2.53,2.88,4.53,3.45,5.99-5.49-8.21-8.75-12.32-9.79-12.32-.38.08-.65.11-.77.11.38,1.27,1.11,2.96,2.15,5.03,1.19,2.26,1.92,3.88,2.26,4.84-.11-.15-1.57-2.34-4.37-6.52-2.03-2.99-3.38-4.49-4.03-4.49-.27,0-.42.04-.46.08-.04.08-.08.15-.12.19v.31c0,.42,1.65,3.84,4.95,10.17.81,1.54,1.57,2.99,2.3,4.38h1.27c-2.07-3.8-4.18-7.79-6.37-11.94.58.77,3.11,4.68,7.56,11.74.04.04.08.11.11.19h1.46l-.46-.73c.11.04.35.31.69.73h.92c-.38-.69-.73-1.31-1.04-1.88-2.11-3.8-3.68-6.91-4.68-9.33.88.92,2.76,3.42,5.64,7.48,1.15,1.61,2.07,2.84,2.76,3.72h1.88c-.11-.5-.31-1-.54-1.54-.81-1.65-1.19-2.49-1.23-2.57h.12c.04.15.27.5.61,1.07.42.65.77.96.96.96.46,0,.65-.04.54-.08l.15-.42c-1.34-2.15-2.19-3.61-2.61-4.34-1.04-1.84-1.65-3.34-1.84-4.45.19.27.54.96,1.11,2.03.61.92,1.27,1.38,1.92,1.38.46,0,.65-.04.58-.12.08-.42.19-.77.35-.96.15-.15.23-.38.23-.73,0-.27-.04-.5-.15-.77-.12-.31-.15-.5-.15-.58.42-.08.81-.42,1.15-1,.27-.5.42-.84.42-1.11,0-.12-.15-.46-.46-1.04-.38-.65-.73-1.11-1.07-1.34-.31.19-.5.38-.57.58-.04.12-.08.15-.19.15-.27-.08-.5-.15-.65-.19h0ZM54.02,53.96h-.11l-.38-.54s.15.08.27.19c.11.11.19.23.23.35h0ZM52.84,51.89v-.04c.12.19.27.58.54,1.15-.23-.27-.42-.65-.54-1.11h0Z"/>
    <path class="cls-7" d="M36.75,53.42v1.11c.61,1.8,1.07,3.11,1.42,3.84.61,1.42,1.27,2.61,1.92,3.53-.92-1.19-1.46-1.88-1.65-2.07-.88-1.04-1.57-1.54-2.07-1.54-.27,0-.46.04-.5.08,0,.04-.04.04-.08.04-.04.27-.08.54-.08.84,0,.58.23,1.42.73,2.49.73,1.5,1.11,2.38,1.19,2.57h-.04c-.27-.27-.46-.46-.58-.58-.23-.23-.42-.35-.54-.35-.27,0-.42.04-.46.15-.04.04-.04.08-.04.11v1.15s.04.12.08.15h3.45c-1.11-1.96-1.96-3.61-2.53-4.95.69.73,1.8,2.38,3.38,4.95h2.76c-2.34-4.07-4.03-7.18-5.03-9.36h.11c1.04,1.5,2.88,4.61,5.6,9.36h1.88c-.57-1.07-1.23-2.23-1.92-3.45-3.11-5.56-5.26-8.33-6.53-8.33-.27,0-.42.04-.46.12,0,.04,0,.08-.04.12h0Z"/>
    <path class="cls-7" d="M45.7,64.98h-1.88c.77,1.34,1.61,2.88,2.53,4.53,3.72,6.41,6.29,9.6,7.68,9.6.27,0,.46-.08.58-.19.04-.15.08-.27.11-.35-2.46-4.26-4.99-8.79-7.6-13.59h-1.27c.58,1.11,1.15,2.19,1.65,3.19-.54-.96-1.15-2-1.8-3.19h0Z"/>
    <path class="cls-7" d="M43.13,64.98h-2.76c1.15,1.88,2.57,4.3,4.22,7.25,3.15,5.6,5.37,8.41,6.64,8.41.42,0,.62-.04.54-.15.04-.08.04-.12.08-.12v-.38c0-.19-1.8-3.34-5.45-9.44-1.19-2.03-2.3-3.88-3.26-5.56h0Z"/>
    <path class="cls-7" d="M43.39,71.23c-1.57-2.34-2.84-4.45-3.88-6.26h-3.45c.15.35.42.96.84,1.84.38.84.69,1.42.92,1.77-.08-.12-.15-.19-.27-.31-.19-.19-.38-.27-.65-.27s-.46.04-.5.12c-.08.04-.11.08-.15.08-.04.65.12,1.38.46,2.19.19.46.5,1.07.88,1.84-.35-.12-.77-.12-1.34,0-.11.42,0,1,.31,1.69.19.38.42.88.69,1.46-.04-.04-.23-.27-.57-.65-.15-.19-.38-.31-.69-.31-.27,0-.38.04-.42.15-.04.04-.04.12-.08.23,0,.27.11.73.38,1.34.27.62.38.96.38,1.08,0,.19-.08.31-.27.27-.19-.04-.27.08-.27.31,0,.12.27.5.77,1.15.54.73.92,1.11,1.19,1.11.42,0,.61-.08.54-.19l.11-.46c0-.27-.08-.54-.19-.73-.15-.23-.27-.42-.35-.54.08.04.38.38.88.96.42.5.73.77.88.77.27,0,.42-.04.5-.15,0-.12,0-.19.04-.19.15-.81-.11-1.73-.81-2.84-.92-1.5-1.38-2.26-1.38-2.3.19.19.85,1.15,1.88,2.92.88,1.5,1.53,2.23,1.96,2.23s.58,0,.38-.04c.08-.04.11-.08.15-.11.08-.12.11-.31.11-.58-2.34-4.26-3.8-6.95-4.41-8.14.77.77,2,2.65,3.68,5.68,1.38,2.5,2.34,3.72,2.88,3.72.46,0,.65-.08.58-.19.04-.27.08-.5.08-.77,0-.46-1.11-2.53-3.34-6.18-2.57-4.18-3.95-6.52-4.22-7.06.04.04,1.61,2.57,4.64,7.52,2.19,3.57,3.76,5.37,4.72,5.37.27,0,.46-.04.54-.15.04-.12.04-.15.08-.15l.15-.5s-1.46-2.3-4.37-6.72h0Z"/>
    <path class="cls-7" d="M55.67,66.24c.04-.42,0-.84-.08-1.27h-1.88c.81,1,1.27,1.5,1.46,1.5.27,0,.42-.04.46-.11.04-.04.04-.08.04-.12h0Z"/>
    <path class="cls-7" d="M54.98,72.77l.19-.38c-1.69-3.03-3.07-5.49-4.15-7.41h-.92c.42.5.61.92.65,1.19h-.08l-.81-1.19h-1.46c3.3,5.26,5.33,7.91,6.14,7.91.46,0,.61-.04.42-.12h0Z"/>
  </g>
  <g id="Layer_4" data-name="Layer 4">
    <path class="cls-3" d="M72.45,5.33c-.04-.11-.08-.19-.11-.27-.04.04-.08.12-.11.15-1.15-.42-2.96-.81-5.41-1.11-3.84-.5-5.76-.08-5.76,1.23v.12c-.11.23-.15.5-.19.84-.04.19-.04.69-.04,1.42,0,1.04-.08,2.8-.23,5.33,0,1.57.23,2.84.65,3.72-7.06-5.18-12.24-8.75-15.58-10.75t-.08-.08h-.04s-.04-.04-.08-.04v.04c-.12,0-.19-.04-.27-.08-3.26,2.69-9.59,7.45-19.04,14.32-8.17,5.95-14.2,10.44-18.04,13.55-1.15.38-2.03,1.34-2.65,2.92-.46,1.11-.69,2.23-.69,3.34,0,.12.15,1.07.46,2.88h.96c-.27-.88-.38-1.84-.38-2.88s.46-2.19,1.42-3.61c.92-1.42,1.38-2.11,1.38-2.15v-.04c8.02-5.72,14.78-10.55,20.26-14.51,10.94-7.87,16.54-12.28,16.81-13.16.73,1.3,3.19,3.38,7.37,6.25,2.72,1.88,6.75,4.61,12.17,8.17,2.23,1.57,6.29,4.72,12.17,9.4,2.49,2,4.84,3.88,7.02,5.6t-.08.04v.46s.23.54.65,1.5c.42,1.04.61,1.69.61,1.96-.04.96-.31,1.92-.77,2.88t-.04.08h1.31c.38-1,.58-2.03.58-3.11,0-.73-.15-1.46-.42-2.19-.12-.35-.23-.61-.38-.84.08-.04.11-.08.15-.15.04-.08.08-.19.11-.35-2.95-2.65-7.25-6.14-12.86-10.44l.04-.23c-.19-1.34-.35-3.34-.54-5.91-.15-2.57-.23-4.76-.23-6.49.15-1.69.27-3.03.35-3.99.08-1.11.04-2.03-.15-2.84.08-.04.15-.08.23-.12.19-.12.31-.23.35-.35-.19-.19-.46-.35-.88-.54h0ZM71.64,6.41c-.15.58-.23,1.34-.27,2.3,0,1.04.08,2.5.19,4.45,0,1.42.08,3.65.23,6.68.11,2.19.27,3.88.38,5.07-2.07-1.57-4.3-3.22-6.68-4.99-1.15-.88-2.26-1.69-3.34-2.46.08-.12.15-.19.19-.31-.04-.61-.19-2.65-.42-6.06-.12-2.07-.31-3.84-.5-5.26.35-.04.96-.15,1.84-.35.96-.19,1.61-.27,1.88-.27.04,0,1,.19,2.96.61,1.61.31,2.8.5,3.53.58h0Z"/>
    <path class="cls-3" d="M46.12,24.06c-.04.11-.08.19-.12.19v.12c-1.57,1.04-6.45,4.03-14.55,9.02-6.18,3.8-10.78,6.95-13.85,9.48h1.73c2.46-1.77,6.29-4.61,11.55-8.52.54-.42,3.42-1.92,8.67-4.49,4.03-2.11,6.45-3.68,7.18-4.64,12.82,8.98,21.42,14.85,25.75,17.65h2c-5.6-3.88-9.94-6.87-13.05-8.98-5.76-3.91-10.55-7.02-14.43-9.29,0-.27-.04-.42-.15-.5-.11,0-.27-.04-.38-.08-.04.04-.12.08-.19.15-.04-.04-.11-.08-.15-.11h0Z"/>
    <path class="cls-3" d="M36.71,53c-.04-.81-.19-1.53-.46-2.11.65-.04,2.69-.12,6.14-.27h13.55c.11,0,.23,0,.35.04-.27,1.04-.42,2.3-.5,3.8-.08,1.04-.12,3.22-.12,6.52,0,1.57.12,5.22.31,10.94.16,4.41.27,7.29.38,8.64-6.1.08-13.59.11-22.37.11-1.73,0-4.8-.46-9.21-1.42-3.69-.81-6.26-1-7.68-.58v.54c2.57,1.73,8.21,2.61,16.92,2.61,16.08,0,26.44-.08,31.16-.19,6.83-.19,10.4-.61,10.75-1.23v-.11c.19-11.32.27-17.23.27-17.69,0-7.6-.12-13.43-.31-17.5.31.23.73.58,1.23,1,.77.46,1.92.69,3.49.69,2.27,0,3.95-1,5.03-2.99.15-.31.31-.61.46-.92h-1.31c-.88,1.84-2.34,2.76-4.3,2.76-1.11,0-1.96-.23-2.53-.69-.57-.5-1.11-.73-1.53-.73h-.04c-.65-.46-1.31-.92-1.92-1.34h-2c1.57,1,2.57,1.61,3.03,1.8-.69,1.61-1,4.64-.96,9.06,0,2.61.11,5.49.31,8.6,0,1.96.04,4.91.11,8.79.11,4.3.23,7.22.35,8.71-2.92.35-9.06.58-18.38.73.19-.65.27-1.57.27-2.76l-.5-16.85c.11-4.3.19-7.75.23-10.32h.04c.23-.04.31-.23.23-.5-.04-.15-.11-.27-.27-.38-.04-.38-.04-.73-.04-1.04-.11.27-.23.54-.35.88-.88-.11-4.07-.15-9.59-.19h-4.34c-2.88.04-4.3.04-4.3.08-1.88-.04-2.92.08-3.07.31-.08.15,0,.42.23.77.04.04.08.11.11.15-.27.27-.38.54-.38.81,0,.42.15,1.88.5,4.34,0,1.38-.15,3.68-.5,6.87-.34,3.22-.5,5.64-.5,7.21,0,2.88.04,4.72.08,5.49.11,2.07.42,3.8.92,5.22.35-.27.54-.81.54-1.65-.34-5.56-.54-8.56-.54-8.98,0-1.54.19-3.91.54-7.1.35-3.22.5-5.56.5-7.02,0-1.73,0-2.69-.04-2.88h0Z"/>
    <path class="cls-3" d="M17.6,42.87c-.11.08-.19.15-.31.23t-.08-.08c-.15,0-.27-.04-.38-.08-.81.81-1.57,1.5-2.34,2.07-1.5,1.11-2.88,1.69-4.22,1.69-1.8,0-3.07-1.04-3.84-3.07-.11-.27-.19-.5-.23-.77h-.96c.04.35.11.73.19,1.15.88,2.53,2.53,3.8,4.87,3.8,1.11,0,2.57-.61,4.41-1.8.58-.38,1.08-.73,1.46-1.04.04,0,.27-.12.61-.35-.5,1-.73,2.42-.61,4.26l.31,5.95c-.15,1.77-.31,4.18-.46,7.25-.15,2.69-.23,4.26-.23,4.76,0,1,.11,2.65.31,4.99.27,3.11.61,5.18,1,6.14.19-.04.31-.08.42-.19l.04-1.15c0-1.11-.11-2.73-.34-4.87-.27-2.15-.38-3.8-.38-4.91,0-1.92.11-4.8.38-8.63.23-3.8.34-6.68.34-8.64-.11-2.3-.15-4.07-.19-5.33.5-.35,1.15-.81,1.96-1.38h-1.73Z"/>
    <path class="cls-6" d="M12.41,69.46c-5.57.47-8.61,3.15-9.15,8.02-.02.22-.04.47-.06.72,0,.14,0,.27-.02.41.02.12.02.25.02.37.29,5.32,3.36,8.23,9.21,8.74h7.28c-4.85,4.69-4.67,8.96.55,12.85,4.85,3.62,9.21,2.88,13.12-2.19l15.94-17.62c1.29-1.08,1.66-2.19,1.11-3.27-.22-.43-.59-.86-1.11-1.29l-15.94-17.39c-3.91-5.07-8.27-5.81-13.12-2.19-5.22,3.89-5.4,8.16-.55,12.85h-7.28Z"/>
    <path class="cls-6" d="M30.83,55.96v.02c-3.99-5.18-8.45-5.93-13.4-2.23-2.68,1.99-4.05,4.09-4.13,6.28-.1,2.09.98,4.26,3.21,6.53h-6.81c-5.95.51-9.08,3.5-9.39,8.94,0,.12,0,.25-.02.39v.04c.02.12.02.25.02.35v.02c.29,5.42,3.42,8.41,9.39,8.92h6.81c-2.23,2.27-3.31,4.44-3.21,6.53.08,2.19,1.45,4.3,4.13,6.28,4.95,3.7,9.41,2.97,13.4-2.21l15.94-17.62c.94-.8,1.41-1.62,1.39-2.41.02-.82-.45-1.64-1.41-2.44h.02l-15.94-17.39h0ZM30.5,56.22s0,.02.02.02l15.94,17.39.02.02c.84.72,1.25,1.41,1.27,2.13-.02.72-.43,1.41-1.27,2.13t-.02.02l-15.96,17.62c-3.83,4.97-8.1,5.69-12.83,2.15-2.56-1.9-3.87-3.89-3.97-5.98-.08-2.09,1.06-4.28,3.44-6.57.02-.02.04-.06.06-.1.02-.04.02-.08,0-.1-.02-.06-.06-.08-.08-.1-.04-.02-.08-.04-.12-.04h-7.26c-5.73-.49-8.74-3.34-9.02-8.53,0-.12,0-.25-.02-.37.02-.14.02-.27.02-.39.31-5.22,3.31-8.06,9.02-8.55h7.26s.08,0,.12-.02c.02-.02.06-.06.08-.1.02-.04.02-.08,0-.12-.02-.04-.04-.08-.06-.1-2.37-2.29-3.52-4.48-3.44-6.57.1-2.09,1.41-4.07,3.97-5.97,4.73-3.54,9-2.82,12.83,2.15h0Z"/>
    <path class="cls-2" d="M30.52,56.24s-.02,0-.02-.02c-3.83-4.97-8.1-5.69-12.83-2.15-2.56,1.9-3.87,3.89-3.97,5.97-.08,2.09,1.06,4.28,3.44,6.57.02.02.04.06.06.1.02.04.02.08,0,.12-.02.04-.06.08-.08.1-.04.02-.08.02-.12.02h-7.26c-5.71.49-8.72,3.34-9.02,8.55,0,.12,0,.25-.02.39.02.12.02.25.02.37.29,5.2,3.29,8.04,9.02,8.53h7.26s.08.02.12.04c.02.02.06.04.08.1.02.02.02.06,0,.1-.02.04-.04.08-.06.1-2.37,2.29-3.52,4.48-3.44,6.57.1,2.09,1.41,4.07,3.97,5.98,4.73,3.54,9,2.82,12.83-2.15l15.96-17.62s0-.02.02-.02c.84-.72,1.25-1.41,1.27-2.13-.02-.72-.43-1.41-1.27-2.13l-.02-.02-15.94-17.39h0Z"/>
    <path class="cls-4" d="M24.71,58.92v.06c-.02.14-.18,1.27-.49,3.33h.68c.02-.14.04-.2.04-.22,0,.06,0,.14-.02.22h.47c.31-1.66.53-2.93.68-3.76.02,1.08-.08,2.35-.27,3.76h.82c.1-.43.18-.78.27-1.04-.02.35-.02.7-.04,1.04h.74c.1-.7.18-1.19.25-1.47.02.55.04,1.04.06,1.47h2.17c-.06-.37-.02-.76.1-1.19-.02,0-.04-.02-.08-.04-.02-.02-.1-.04-.25-.04-.1,0-.2.06-.29.18-.1.14-.16.2-.2.22-.23-.1-.49-.45-.82-1-.29-.51-.51-.76-.7-.76-.14,0-.25.04-.29.14-.02.06-.04.14-.06.25-.06-.14-.1-.27-.16-.39-.1-.22-.18-.37-.29-.43-.2.06-.33.14-.35.22-.02.06-.02.16-.02.35-.06-1.47-.12-2.37-.18-2.72v-.06c-.02-.06-.12-.08-.27-.08-.08,0-.16.04-.27.12-.1.08-.16.18-.18.31-.1-.02-.25-.16-.47-.39-.16-.18-.39-.25-.67-.18-.16-.51-.45-.86-.88-1.06-.43-.2-.57.06-.43.78-.23-.35-.41-.53-.51-.55-.18.14-.33.39-.43.74-.02.06-.1.35-.2.86h-.06c.02-.27.02-.47,0-.61-.06-.25-.22-.43-.53-.57-.25.1-.41.31-.49.57-.08.31-.16.51-.22.57-.04-.25-.08-.45-.14-.59-.08-.27-.25-.41-.49-.41-.61,0-1.02.76-1.23,2.29-.1.76-.16,1.58-.14,2.44,0,.41.02.76.04,1.04h.88c-.06-.49-.1-.8-.1-.9,0-.2.06-.8.18-1.8.14-1.11.29-1.84.39-2.19.06.27.1.55.1.86,0,.27-.08.96-.22,2.05-.14,1.04-.23,1.7-.29,1.98h2.09c.06-.43.12-.94.22-1.53.31-1.78.51-2.86.63-3.29h.02c.02.92-.1,2.09-.35,3.46-.06.37-.16.82-.27,1.37h.61c.06-.39.14-.82.23-1.29.47-2.44.78-3.97.9-4.58v.02c.06.27.1.61.1,1.08,0,1.04-.18,2.62-.53,4.77h.67c.04-.35.1-.78.18-1.25.22-1.37.35-2.09.37-2.15h0ZM21.56,57.41c0,.27.04.65.14,1.21,0,.12-.02.35-.08.66-.04.31-.06.53-.06.67-.06-.02-.14-.04-.29-.04s-.25.02-.35.04c.1-.61.16-1.08.23-1.39.1-.55.22-.92.41-1.15h0ZM20.88,60.33c0,.2-.02.37-.08.51h-.02c.02-.35.06-.51.1-.51h0Z"/>
    <path class="cls-4" d="M25.38,62.32h-.47c-.02.21-.08.47-.14.82h-.04c.06-.39.12-.65.16-.82h-.68c-.06.43-.12.9-.2,1.41-.02.18-.02.16-.02-.06,0-.2.06-.65.16-1.35h-.67c-.04.25-.08.51-.14.78-.22,1.29-.45,2.46-.68,3.5,0,.1.12.27.37.49,0,.23-.08.45-.22.63h-.04s-.02-.08-.04-.1l.06-.04s-.06-.06-.08-.08c-.16-.57-.27-1.19-.31-1.84.02-.06.06-.12.1-.18.27-.55.41-.9.43-1.04-.02,0-.04-.02-.06-.04-.04-.04-.14-.06-.29-.06-.06,0-.1.02-.16.04.06-.45.18-1.13.37-2.05h-.61c-.12.61-.27,1.33-.43,2.17v.04c-.02-.12-.04-.31-.04-.53s.06-.8.2-1.68h-2.09s-.02,0-.02.02h-.04v-.02h-.88c.02.23.04.43.08.57.1.43.39.96.84,1.55.1-.06.2-.12.29-.18-.02.14-.02.33-.02.53,0,.14.08.49.25,1.08.16.55.27.86.31.9.1-.1.22-.22.33-.41.1-.14.16-.25.18-.29h.1c.04.22.08.57.14,1.06.14.35.47.55.98.57.43.84.65,1.08.68.72,0,.12.02.22.06.29.08.12.25.1.51-.08,0,.04.02.12.06.27h.65c.14-1.33.37-2.91.7-4.73.14-.68.27-1.29.37-1.86h0ZM20.94,63.59c-.08-.06-.16-.1-.27-.12t.02-.02c.1-.47.21-.82.33-1.06,0,.31-.02.7-.08,1.21h0Z"/>
    <path class="cls-4" d="M25.79,62.32c-.08.61-.18,1.27-.33,1.96-.2,1.08-.53,2.64-.96,4.62h2.91l.27-1.6-.08,1.6h5.48c.06-.35.1-.65.14-.88.12-.78.18-1.43.18-1.94,0-.18-.08-.51-.25-.98-.18-.51-.35-.78-.47-.78-.18,0-.33.06-.47.2-.06.08-.14.18-.25.33.02-.29.02-.53.02-.76-.02-.39-.16-.68-.47-.88-.18.1-.33.27-.47.47-.12.18-.18.35-.18.45-.33-.59-.55-1.02-.68-1.31-.06-.16-.12-.33-.14-.51h-2.17c.02.84,0,1.45-.04,1.88-.1,1.39-.45,2.27-1.02,2.66.16-.65.35-1.68.53-3.07.08-.57.16-1.06.23-1.47h-.74c-.08,1.27-.25,2.35-.47,3.25-.04-.02-.1-.02-.18-.02-.06-.02-.08-.1-.08-.25.18-1.25.35-2.23.51-2.99h-.82ZM29.62,62.65c-.1.92-.14,1.39-.16,1.43-.08.61-.2,1.06-.39,1.37.08-.82.12-1.31.14-1.45.1-.59.23-1.06.41-1.39v.04h0ZM31.38,64.45v.04c-.08.82-.21,2.15-.37,3.99-.02,0-.06.06-.1.16l-.41-.02c.12-.96.22-1.68.31-2.15.14-.84.35-1.51.57-2.03h0ZM32.14,66.41c.12-.7.29-1.15.47-1.35.08.39.04.88-.1,1.43-.14.51-.35,1-.61,1.47.1-.65.18-1.17.25-1.55h0ZM29.95,66.74c.08-.21.14-.35.16-.41v.04c-.02.51-.08,1.02-.18,1.53v.02c-.06-.27-.1-.49-.1-.68,0-.14.04-.33.12-.51h0ZM30.3,64.73c-.12.04-.25.1-.35.2.02-.37.12-.67.29-.9.04.14.06.37.06.7h0Z"/>
    <path class="cls-4" d="M34.12,67.19l-.39.06c-.04.41-.14.88-.33,1.39,0,.02-.02.12-.08.27h2.58l.12-.98c-.06-.1-.14-.16-.27-.2-.18.1-.29.27-.35.45-.02.1-.08.25-.14.45l-.02.02c-.02-.1-.04-.33-.04-.68l-.04-.04s-.08-.06-.23-.06c-.16,0-.27.1-.31.33-.06.27-.14.43-.29.49.12-.59.18-1.04.18-1.39l-.1-.04c-.06-.04-.16-.06-.31-.06h0Z"/>
    <path class="cls-4" d="M35.9,68.91h-2.58c-.08.22-.23.59-.41,1.1h-.02c.06-.43.12-.8.18-1.1h-5.48l-.06.9s-.06.04-.1.14c-.06-.02-.1-.04-.12-.04-.02-.02-.02-.1-.02-.25l.12-.76h-2.91c-.08.39-.16.78-.27,1.21h-.02c.02-.39.06-.78.1-1.21h-.65v.06c.06.18.08.33.08.47,0,.1-.02.35-.04.76-.12.02-.22.08-.29.22-.1.16-.29.25-.57.25-.02,0-.04-.06-.08-.21-.08-.1-.29-.06-.61.12-.02-.31-.06-.57-.08-.78-.04-.39-.21-.63-.51-.72-.39.31-.74.76-1.08,1.33-.06-.08-.14-.16-.27-.25-.1.18-.18.37-.25.55-.02.16-.06.29-.12.39h.59c.02-.08.06-.16.08-.22.04-.06.08-.14.1-.2v.04c-.02.12-.06.25-.08.39h.74c.08-.39.16-.74.23-1h.06v1h3.72c.14-.7.27-1.23.37-1.62v.04c0,.22.04.57.1,1.04,0,.06-.04.25-.1.53h.78c.14-.39.31-.76.45-1.06v.02c-.12.29-.25.64-.37,1.04h4.56v-.16c0-.18.06-.43.16-.78.14-.45.31-.8.53-1.02-.1.43-.23,1.08-.37,1.96h.63c.14-.96.25-1.62.31-1.96v.04l-.25,1.92h2.03c.18-.61.35-1.08.47-1.39-.02.1-.14.55-.39,1.39h2.74c.04-.14.08-.29.14-.39v.04c0,.1,0,.22-.02.35h.76s-.02-.08-.04-.12c-.18-.51-.41-.96-.67-1.35-.23.06-.41.22-.51.53.04-.18.06-.31.04-.41-.02-.18-.14-.31-.37-.41l-.51.51.14-.96h0Z"/>
    <path class="cls-4" d="M26.43,71.12h-.78c-.1.39-.25.96-.47,1.76-.04.14-.08.31-.12.45h.59c.27-.84.51-1.58.78-2.21h0Z"/>
    <path class="cls-4" d="M32.03,71.12h-.63c-.06.39-.14.84-.23,1.33h-.06l-.04-1.33h-4.56c-.2.59-.43,1.33-.65,2.21h1.74c.1-.43.2-.82.31-1.17v.04c-.02.06-.1.43-.27,1.13h2.8s-.02-.06-.04-.08c-.1-.25-.14-.43-.14-.57s.1-.49.29-1.02c0,.37.06.72.2,1.02.14.31.23.53.23.65h2.52c.23-.88.45-1.62.63-2.21h-2.03l-.12.94-.04.04c-.04.14-.06.1-.06-.12.06-.31.1-.59.16-.86h0ZM27.29,71.69v.04c0,.14-.04.33-.12.57,0-.16.04-.37.12-.61h0Z"/>
    <path class="cls-4" d="M36.94,71.12h-2.74c-.16.55-.39,1.29-.65,2.21h2.78c.23-.94.43-1.68.61-2.21h0ZM35.82,71.65l.02-.06s-.04.14-.1.39c.02-.12.06-.22.08-.33h0Z"/>
    <path class="cls-4" d="M39.36,71.88v.02c.06.08.08.33.06.76-.02.31.1.53.37.67h.63c.02-.22.06-.37.1-.45v-.72c-.31,0-.47.02-.53.06-.06-.72-.27-1.06-.57-1.06-.29,0-.53.16-.74.49-.16.27-.25.49-.27.68h-.08c-.12-.25-.29-.65-.51-1.21h-.76c-.06.39-.16.86-.33,1.39-.08.31-.16.57-.25.82h1.04c.1-.39.2-.72.27-.96v.04c.06.22.08.53.02.92h1.33c-.02-.22-.02-.39-.02-.53,0-.43.08-.74.23-.92h0Z"/>
    <path class="cls-4" d="M9.16,69.65l-1.17.55c-.76.35-1.25.53-1.43.53-.12,0-.25.12-.39.39h2.35s.06-.04.08-.02l.02.02h3.05c.08-.25.14-.47.2-.66v.02c-.02.18-.06.41-.1.63h.8c.02-.1.04-.18.06-.25v.02c.02.06.02.14.04.22h1c.02-.06.06-.12.08-.18l.02.18h4.26c-.02-.27-.06-.55-.14-.9-.14-.55-.33-.96-.55-1.27-.43.35-.74.98-.92,1.88-.1-.14-.16-.22-.18-.25-.1-.08-.22-.12-.39-.12-.31,0-.47.18-.51.55-.02-.02-.12-.14-.29-.41-.14-.18-.29-.29-.43-.29s-.25.04-.31.14c-.02.04-.02.1-.04.16-.02-.02-.08-.08-.14-.2-.1-.12-.2-.2-.35-.25-.12.06-.25.14-.37.29-.06.06-.14.16-.22.27-.08-.33-.29-.65-.59-.96-.27-.27-.47-.41-.57-.41-.35,0-.59.25-.74.74-.08.27-.14.59-.18.98v.02c-.04-.18,0-.43.1-.78,0-.1-.1-.2-.29-.27-.18.04-.31.1-.37.18-.1.16-.2.29-.31.35-.06-.02-.18-.2-.37-.53-.14-.27-.39-.41-.72-.41h0ZM8.95,70.79l-.1-.2c.1-.18.16-.31.16-.37.18.1.33.18.39.27.08.1.14.16.16.18l.06.16-.68-.04h0Z"/>
    <path class="cls-4" d="M5.21,71.12h.49c-.1-.1-.23-.18-.37-.25-.04.08-.08.16-.12.25h0Z"/>
    <path class="cls-4" d="M5.7,71.12h-.49c-.27.47-.63,1.04-1.15,1.72-.1.14-.2.31-.27.49h1.12c.02-.16.08-.43.14-.82.06-.37.16-.63.27-.78v.02c.04.72-.06,1.23-.31,1.58h1.25c.12-.39.25-.63.35-.74-.04.14-.1.39-.16.74h1.66c.06-.55.16-.92.27-1.13v.02c0,.06.02.14.06.29.02.1.04.23.04.37,0,.1-.02.25-.06.45h.68c.1-.55.2-.98.31-1.31l.06.04c0,.06.02.16.04.33.04.16.06.31.06.45,0,.04-.02.2-.08.49h.63c.16-.59.33-1.1.47-1.53v.02c0,.06.02.22.04.47,0,.14-.06.49-.16,1.04h.59c.04-.37.12-.74.22-1.13.14-.41.29-.78.39-1.08h-3.05s.18.14.43.29l-.16.41s-.1-.08-.25-.21c-.14-.12-.23-.22-.25-.31.04-.1.08-.16.12-.18h-2.35s-.02.04-.04.06c-.08.14-.16.33-.23.51-.02-.14-.06-.29-.1-.39-.02-.06-.06-.12-.1-.18h0ZM7.66,71.55c0,.18-.04.33-.14.47h-.06c.04-.14.1-.33.2-.51v.04h0Z"/>
    <path class="cls-4" d="M19.53,69.67s-.08-.02-.22-.02c-.41,0-.68.22-.78.68-.04.18-.08.45-.12.8h.63c.06-.2.1-.39.16-.53.02.06.02.14.02.29,0,.06,0,.14-.02.25h.59c-.02-.45-.1-.94-.29-1.45h.02Z"/>
    <path class="cls-4" d="M13.68,71.12h-1c.02.14.02.29.02.45,0,.31-.02.53-.06.68-.06.18-.16.41-.35.63.08-.78.18-1.37.29-1.76h-.8c-.06.35-.16.76-.27,1.21-.06.27-.14.59-.25,1h1.62c.22-.92.49-1.66.8-2.21h0Z"/>
    <path class="cls-4" d="M13.78,71.12v.27c0,.29-.12.94-.37,1.94h.92c.02-.14.06-.25.1-.35h.04c-.02.1-.04.2-.06.35h1.02c0-.18,0-.35.02-.49.06-.76.22-1.29.45-1.64.04.41.06.68.06.82,0,.29-.08.72-.23,1.29v.02h2.11c.1-.35.18-.65.27-.92v.04s.02.04.04.04v.25c0,.12-.02.33-.06.59h.57c.02-.27.06-.49.08-.67.08-.63.18-1.15.29-1.53h-.63c-.02.08-.02.18-.04.29h-.35c.02-.1.02-.18.02-.29h-4.26ZM17.2,73.23h-.04c.06-.27.1-.41.14-.41,0,.06-.04.2-.1.41h0Z"/>
    <path class="cls-4" d="M21.27,71.12h-.74c-.14.68-.31,1.41-.49,2.21h.76c.18-.88.33-1.62.47-2.21h0Z"/>
    <path class="cls-4" d="M20.43,71.12h-.59s-.02.02-.04.04v-.04h-.59c-.04.31-.12.88-.27,1.7-.02.18-.06.35-.08.51h.84c.22-.8.47-1.53.74-2.21h0Z"/>
    <path class="cls-4" d="M21.56,71.12v.84c-.1.43-.23.88-.35,1.37h.65c.06-.37.1-.65.16-.88.08-.45.16-.7.25-.76-.1.72-.2,1.27-.35,1.64h1.08c.06-.29.12-.53.18-.72v.02c-.02.22-.06.47-.1.7h1.72c.18-.86.33-1.6.47-2.21h-3.72Z"/>
    <path class="cls-4" d="M18.67,73.33h-.57c-.1.47-.27,1.21-.51,2.19h2.78c.14-.82.29-1.56.43-2.19h-.76c-.1.41-.22.84-.33,1.29-.02,0-.08,0-.14-.02-.08,0-.16.02-.23.04.06-.21.1-.41.14-.61.06-.25.14-.47.2-.7h-.84c-.12.7-.23,1.21-.29,1.56h-.08c.06-.61.12-1.13.18-1.56h0Z"/>
    <path class="cls-4" d="M21.93,73.33s-.04.08-.06.12h-.02s.02-.08.02-.12h-.65c-.16.68-.35,1.39-.53,2.19h1.84c.18-.92.35-1.64.49-2.19h-1.08Z"/>
    <path class="cls-4" d="M14.34,73.33h-.92c-.12.49-.29,1.06-.47,1.74-.04.14-.08.31-.12.45h3.79s.02-.08.04-.14c-.02.04-.02.08-.02.14h.68c.2-.88.39-1.6.55-2.19h-2.11c-.08.31-.2.72-.35,1.27h-.04c.02-.51.06-.92.08-1.27h-1.02c-.06.23-.1.49-.16.82-.1.47-.2.88-.33,1.23l-.06-.04c.14-.84.31-1.51.47-2.01h0Z"/>
    <path class="cls-4" d="M9.1,73.33h-.68c-.04.16-.1.37-.16.59-.14.49-.22.78-.29.84.04-.57.08-1.04.14-1.43h-1.66c-.02.06-.04.14-.06.23-.1.43-.27.76-.45.96h-.04c.04-.1.14-.47.33-1.08.02-.04.02-.08.04-.1h-1.25s-.08.08-.12.12c0-.02,0-.06.02-.12h-1.12c-.14.33-.23.7-.23,1.11,0,.18.06.35.2.51.08.1.25.25.47.43.14-.06.29-.22.45-.49.18-.29.29-.45.31-.47-.1.43-.2.8-.29,1.11h3.93c.16-.86.31-1.6.45-2.19h0Z"/>
    <path class="cls-4" d="M11.06,73.33h-.59c-.1.53-.27,1.27-.49,2.19h2.41c.14-.82.31-1.56.49-2.19h-1.62c-.06.25-.14.53-.22.84-.02.16-.04.12-.04-.12,0-.22.02-.47.06-.72h0Z"/>
    <path class="cls-4" d="M10.12,73.33h-.63c-.1.43-.27,1.17-.49,2.19h.55c.2-.84.39-1.56.57-2.19h0Z"/>
    <path class="cls-4" d="M39.16,73.33h-1.33c-.06.25-.14.51-.25.82-.12.37-.29.82-.51,1.37h1.19s0-.04.02-.06v.06h.82c.06-.18.1-.35.16-.49v.04c-.02.12-.06.27-.1.45h1.58c.14-.59.2-1,.2-1.21,0-.29-.02-.47-.04-.53-.06-.18-.25-.25-.53-.14.02-.12.04-.22.06-.31h-.63s.04,0,.06.02c-.02.18-.08.29-.18.31-.23.06-.37.12-.47.18-.02-.18-.02-.37-.04-.51h0Z"/>
    <path class="cls-4" d="M37.54,73.33h-1.04c-.1.29-.23.53-.33.74.06-.27.1-.51.16-.74h-2.78c-.16.53-.35,1.13-.53,1.8-.04.14-.08.27-.1.39h4.09c.2-.9.39-1.64.53-2.19h0Z"/>
    <path class="cls-4" d="M30.97,73.33c0,.14-.04.31-.12.47-.06.08-.14.22-.25.41h-.06c0-.35-.04-.65-.1-.88h-2.8c-.14.53-.33,1.27-.55,2.19h3.7c.29-.96.57-1.7.88-2.19l-.7,2.19h1.92c.02-.12.06-.25.1-.39.18-.65.35-1.25.49-1.8h-2.52Z"/>
    <path class="cls-4" d="M24.81,73.33h-1.72c-.12.78-.25,1.51-.39,2.19h1c.1-.47.2-.9.31-1.27h.04c-.1.45-.2.88-.29,1.27h1.27c.02-.12.06-.25.1-.39.18-.65.35-1.25.51-1.8h-.59c-.27.96-.49,1.68-.63,2.15l-.04.02c.14-.8.29-1.51.43-2.17h0Z"/>
    <path class="cls-4" d="M27.59,73.33h-1.74c-.16.55-.33,1.19-.49,1.86-.02.1-.06.22-.08.33h1.72c.22-.82.41-1.56.59-2.19h0Z"/>
    <path class="cls-4" d="M41.61,74.74c-.22,0-.45.25-.68.74t-.02.04h.98v-.7l-.04-.04s-.1-.04-.25-.04h0Z"/>
    <path class="cls-4" d="M42.98,74.99c0-.16-.12-.25-.35-.25-.14,0-.33.22-.55.7-.02.02-.02.06-.04.08h.74c.06-.18.14-.35.2-.53h0Z"/>
    <path class="cls-4" d="M23.71,75.52h-1c-.23,1.04-.49,1.96-.76,2.8.22-1.08.41-2.01.57-2.8h-1.84c-.12.43-.25.9-.35,1.37h-.06c-.06,0-.1,0-.16.02.02-.06.02-.12.04-.18.08-.43.16-.82.23-1.21h-2.78c-.06.18-.1.39-.16.59-.31,1.17-.57,2.09-.8,2.72h3.93c0-.06,0-.1.02-.14.02.04.02.08.02.14h2.25c.22-.8.49-1.82.8-3.07.02-.08.04-.16.06-.25h0ZM19.23,76.36c0,.08-.02.25-.06.51-.06.31-.14.61-.23.92.18-.92.27-1.39.29-1.43h0Z"/>
    <path class="cls-4" d="M25.04,75.52h-1.27c-.37,1.53-.61,2.64-.74,3.31h1.11c.25-.84.55-1.94.9-3.31h0Z"/>
    <path class="cls-4" d="M27,75.52h-1.72c-.33,1.29-.65,2.39-.98,3.31h1.8c.33-1.23.63-2.33.9-3.31h0Z"/>
    <path class="cls-4" d="M17.16,76.05c.04-.18.08-.35.14-.53h-.68c-.1.51-.31,1.29-.59,2.35-.08.35-.16.65-.23.96h.68c.16-.67.39-1.62.68-2.78h0Z"/>
    <path class="cls-4" d="M12.39,75.52h-2.41c-.08.27-.16.55-.23.86-.25.96-.45,1.78-.61,2.45h.7c.18-.57.41-1.33.7-2.27-.1.39-.23.94-.37,1.7-.04.18-.08.39-.14.57h5.52c.23-.74.57-1.84,1.06-3.31h-3.79c-.25.86-.49,1.74-.76,2.62v.04s-.04,0-.04-.02v-.23c.1-.88.22-1.68.37-2.41h0ZM13.72,76.03v.02c-.04.14-.08.39-.14.76-.06.33-.16.53-.27.61.2-.76.35-1.23.41-1.39h0Z"/>
    <path class="cls-4" d="M8.54,75.99c.02-.16.06-.33.1-.47h-3.93c-.22.88-.33,1.39-.33,1.55l.12,1.76h.53v-.43c.06-.22.14-.72.29-1.43.12-.68.22-1.11.29-1.33.02.51-.02,1.13-.14,1.84-.06.31-.14.76-.25,1.35h1.43c.08-.35.2-.72.35-1.1.41-1,.65-1.66.76-1.99-.08.53-.27,1.31-.53,2.35-.06.27-.12.51-.18.74h1c.02-.29.18-1.23.49-2.84h0Z"/>
    <path class="cls-4" d="M9.22,76.81c.1-.45.22-.88.33-1.29h-.55c-.23.88-.47,1.99-.78,3.31h.55c.1-.55.27-1.23.45-2.03h0Z"/>
    <path class="cls-4" d="M20.6,78.83v.08c-.02.08-.06.16-.08.27h-.04c.02-.12.04-.25.08-.35h-3.93c-.16.43-.31.74-.41.92.06-.22.16-.53.27-.92h-.68c-.16.68-.29,1.19-.37,1.56h-.08c-.04-.1-.06-.29-.06-.51,0-.12.08-.47.25-1.04h-5.52c-.14.41-.31.78-.49,1.1h-.06c.06-.2.18-.57.37-1.1h-.7c-.2.7-.37,1.25-.47,1.64h1.53c.02-.06.02-.12.04-.18.14-.49.29-.8.45-.92l-.29,1.1h.72c.02-.06.02-.12.04-.14h.04v.14h2.6c.06-.22.14-.45.23-.67h.04c-.02.22-.06.45-.1.67h2.41c.16-.22.29-.35.35-.37-.04.14-.08.27-.12.37h3.54c.04-.06.06-.14.08-.22.06-.39.12-.72.2-.96l.04-.06c0,.31-.06.74-.18,1.25h4.42c.25-.55.43-.94.53-1.15l.04-.06c-.06.33-.16.74-.31,1.21h.68c.14-.57.31-1.13.45-1.64h-1.8c-.16.43-.33.84-.49,1.21,0-.02,0-.04-.02-.06.1-.31.21-.68.35-1.15h-1.11s0,.06-.02.1c-.06-.02-.1-.02-.16-.02h-.04s.02-.06.04-.08h-2.25ZM22.93,79.57c.02.08.04.14.1.21-.2.06-.41.16-.59.31.04-.1.08-.23.12-.37.1-.08.2-.16.31-.22l.06.08h0ZM12.33,79.77v.02c-.02.14-.08.33-.14.59,0-.14.04-.35.14-.61h0Z"/>
    <path class="cls-4" d="M8.05,78.87v-.04h-1c-.2.76-.35,1.31-.41,1.64h.8c.08-.22.14-.37.18-.43h.04v.43h.8c.02-.31.12-.84.31-1.64h-.55c-.02.1-.06.18-.08.29l-.04.06c-.02-.06-.04-.16-.04-.31h0Z"/>
    <path class="cls-4" d="M4.51,78.83v.06c0,.37.02.63.08.78.06.22.2.33.39.33.29,0,.49-.12.63-.37.1-.27.18-.45.23-.51.02.16.04.61.08,1.33v.02h.61c-.04-.12-.06-.29-.06-.47,0-.31.06-.7.18-1.17h-1.43c-.02.14-.06.31-.1.49h-.08v-.49h-.53Z"/>
    <path class="cls-4" d="M14.83,80.71h.06s0,.21.02.51c.06.27.25.41.53.41.1,0,.31-.25.63-.74.1-.16.2-.31.31-.43h-2.41c-.08.37-.18.76-.33,1.17v.49h.51c.06-.12.12-.27.2-.43.27-.51.41-.84.47-.98h0Z"/>
    <path class="cls-4" d="M10.41,80.47l-.02.02c-.18.63-.27,1-.27,1.08,0,.14,0,.21.02.23l.04.02c-.1.06-.02.1.2.1.27,0,.47-.22.59-.65.06-.37.1-.63.14-.8h-.72Z"/>
    <path class="cls-4" d="M11.2,80.47v.86c0,.06.08.25.27.51.06.1.12.21.18.29h.86c.12-.35.23-.55.33-.65v.61s.02.02.04.04h.29c.18-.43.39-.98.63-1.66h-2.6Z"/>
    <path class="cls-4" d="M9.71,81.23c.18-.12.35-.37.49-.76h-1.53c-.06.12-.1.23-.12.33-.02-.02-.06,0-.08.02-.02,0-.02-.06-.02-.2,0-.04,0-.08.02-.14h-.8c-.02.31-.08.72-.14,1.21.1.06.18.12.25.14.18-.06.29-.22.29-.49h.33l-.04.72s.06.06.08.08h.31c.1-.12.18-.31.27-.55.12-.35.27-.55.41-.65.06.14.16.25.31.31h0Z"/>
    <path class="cls-4" d="M6.64,80.47s-.02.06-.02.08h-.06s-.02-.06-.02-.08h-.61c.06.63.27.94.57.94.41,0,.68-.16.78-.47.06-.18.1-.35.16-.47h-.8Z"/>
    <path class="cls-4" d="M25.65,80.47h-.68c-.12.39-.27.84-.43,1.35-.04-.06-.08-.1-.12-.14-.1.04-.18.08-.27.14.22-.53.41-.98.55-1.35h-1.78c.06.02.1.04.12.06-.08.29-.2.7-.39,1.25-.04.12-.08.25-.1.35h2.64c.14-.57.31-1.13.45-1.66h0Z"/>
    <path class="cls-4" d="M21.89,82.13c.53-.96.88-1.51,1.04-1.66h-2.64c-.04.14-.08.29-.12.43-.04.12-.08.25-.1.37-.04-.1-.1-.22-.16-.41.1-.12.18-.25.25-.39h-3.54c-.16.49-.25.82-.25,1v.25s.04.06.06.12c.1-.06.27-.08.51-.08.12,0,.23.02.29.08.04.02.08.02.14,0-.02.06-.02.16-.02.29h.68c.06-.31.14-.65.25-1.06.06-.14.18-.22.35-.25-.02.22-.04.35-.04.41s.02.2.06.41c.02.02.04.06.06.1.06.06.14.08.29.08s.25-.06.27-.16c0-.1.02-.18.04-.23.1.1.2.18.33.25.1.06.22.1.33.12-.02.1-.04.22-.06.33h2.01Z"/>
    <path class="cls-4" d="M17.3,83.21c-.14.04-.08.06.16.06.14,0,.33-.39.55-1.15h-.68c-.02.1-.02.23-.04.37-.02.31-.02.53,0,.72h0Z"/>
    <path class="cls-4" d="M12.47,82.19s.02-.04.04-.06h-.86c.06.14.1.23.1.29l.02.14c.06.06.14.14.25.2.18-.1.33-.29.45-.57h0Z"/>
    <path class="cls-4" d="M13.11,82.23s.04-.08.06-.1h-.29c.08.04.16.08.22.1h0Z"/>
    <path class="cls-4" d="M14.15,82.13h-.51v.35c.08.06.18.1.29.16.04-.1.12-.29.22-.51h0Z"/>
    <path class="cls-4" d="M21.8,82.25s.06-.08.08-.12h-2.01c-.04.23-.06.41-.08.57-.06.1.02.16.27.16.1,0,.18-.06.27-.18v.84s.04.06.06.08c.06.06.14.08.29.08.23,0,.59-.47,1.13-1.43h0Z"/>
    <path class="cls-4" d="M22.56,82.13c-.31.9-.53,1.56-.7,1.94-.94,1.29-1.8,2.84-2.56,4.66h2.66c.04-.12.08-.25.12-.37.8-2.27,1.49-4.07,2.07-5.38-.1.31-.2.61-.33.96-.7,2.03-1.04,3.05-1.04,3.09,0,.14.02.25.08.27.06.02.14.04.2.06.08-.04.16-.08.23-.12-.08.23-.16.49-.25.76-.14.31-.25.55-.27.74h4.58c.02-.14.06-.31.1-.45,0-.02,0-.04.02-.06.27-.55.55-1.23.9-2.01-.23.84-.47,1.68-.74,2.52h1.98c.7-2.39,1.15-3.97,1.37-4.69l.04-.08c-.1.78-.51,2.33-1.23,4.65-.02.04-.02.08-.02.12h1.17c.33-.84.55-1.43.7-1.74-.02.08-.16.63-.43,1.64-.02.02-.02.06-.02.1h1.29s.02-.08.04-.1c.51-1.23.92-2.09,1.19-2.58l.04-.08c-.04.27-.2.82-.47,1.66v.72s.02.02.02.08c.02.04.08.06.22.06.1,0,.47-.74,1.11-2.19.29-.7.53-1.33.76-1.92h.06c.41,0,.8-.76,1.15-2.25h-3.87c.02,1.29-.35,2.48-1.08,3.58l-.04.02c.29-1.21.61-2.35.96-3.44.06-.06.1-.1.16-.16h-4.54s-.02,0-.02.02c-.53,1.37-.86,2.25-.98,2.64-.04.02-.08.06-.12.1.14-.63.45-1.56.9-2.76h-.98c-.27.98-.55,2.13-.88,3.44-.06-.02-.12-.02-.22-.02.41-1.41.74-2.54,1-3.42h-1.43c-.12.27-.27.55-.41.86-.02-.06-.04-.12-.06-.16.06-.23.14-.47.2-.7h-2.64ZM22.89,84.36c-.06.35-.16.72-.31,1.15-.41,1.17-.61,1.78-.63,1.84v.02c-.02.16-.04.12-.04-.12,0-.82.04-1.35.14-1.6.18-.37.41-.84.63-1.41.02.02.04.04.04.08,0,.1.02.16.06.18.02-.04.06-.08.1-.14h0ZM21.44,85.71v.02c-.02.08-.12.41-.29.96-.14.47-.27.82-.37,1.08-.02-.02-.04-.02-.08,0-.02,0-.04-.06-.04-.2,0-.22.12-.55.35-1.02.25-.47.39-.74.43-.84h0ZM30.05,82.9v.04l-.27,1.33v.02h-.04v-.22c0-.27.1-.65.31-1.17h0ZM33.28,85.65c-.04.06-.08.14-.12.22.02-.1.04-.18.06-.29.02.02.04.04.06.06h0ZM33.92,84.46c-.06.1-.12.2-.18.33.02-.1.04-.16.06-.2.02-.06.06-.1.12-.12h0ZM26.49,88.04c.14-.41.27-.78.37-1.13.06.04.14.08.25.14-.22.31-.43.63-.61.98h0ZM24.34,87.26c-.12.27-.27.59-.45.96.04-.12.12-.43.25-.92.02-.04.04-.06.06-.06.06,0,.1,0,.14.02h0Z"/>
    <path class="cls-4" d="M8.61,82.23s.08-.06.12-.1h-.31c.06.02.12.06.18.1h0Z"/>
    <path class="cls-4" d="M22.79,88.74v.04c-.67,2.09-1.23,3.79-1.7,5.11h-.2c-.06-.72-.1-1.21-.1-1.43,0-.27.39-1.49,1.19-3.72h-2.66c-.47,1.09-.9,2.25-1.29,3.54.31.18.51.25.61.18.04-.1.08-.14.1-.14.2,0,.33.16.37.51.02.35.43.49,1.23.47,0,.39.2.78.63,1.17.22.18.51.41.88.68.23-.22.45-.63.72-1.23.31-.68.55-1.15.72-1.39-.04.14-.12.45-.27.96-.14.47-.25.78-.35.94,0,.06.02.12.08.18.06.06.12.1.18.12.31-.22.53-.51.7-.86.14-.41.27-.72.39-.94h.04c-.04.18-.14.49-.33.96-.14.45-.18.82-.12,1.08.06.06.16.12.29.16.61-1.25,1.23-2.82,1.86-4.73.06-.04.1-.1.12-.18.04-.22.08-.35.12-.41.02.06,0,.16-.06.29l.04.18c.02.06.06.08.12.1-.84,2.76-1.31,4.3-1.39,4.64.02.1.1.2.25.29.35-.41.61-.9.8-1.49.16-.67.31-1.19.45-1.55h.04c-.04.14-.1.35-.18.65-.08.27-.12.47-.12.61l.02.27s.02.02,0,.06c.02.04.1.06.25.06.18,0,.29-.06.31-.18.02-.18.08-.31.14-.37-.04.18-.04.43,0,.72-.08.08,0,.12.23.12.67,0,1.45-1.37,2.37-4.13.14-.47.27-.92.39-1.35h-1.98c-.39,1.17-.84,2.31-1.35,3.44h-.06c.31-.68.7-1.82,1.12-3.44h-4.58ZM22.38,92.58c-.21.53-.43.96-.68,1.31.43-1.33.78-2.29,1.08-2.86-.06.47-.18.98-.41,1.56h0Z"/>
    <path class="cls-4" d="M41.9,75.54v-.02h-.98c-.08.18-.2.53-.39,1.04,0-.06.06-.39.2-1.02v-.02h-1.58c-.1.39-.2.92-.35,1.55-.18.86-.35,1.51-.47,1.98-.02.02-.04,0-.06-.02.29-1.47.55-2.64.82-3.52h-.82c-.22,1.17-.43,1.84-.61,2.03.2-.86.41-1.53.59-2.03h-1.19c-.04.1-.08.18-.12.29.02-.1.04-.18.06-.29h-4.09c-.43,1.49-.76,2.74-1,3.7-.27.27-.47.61-.65,1.02-.08.22-.2.63-.39,1.23-.02,0-.04-.1-.04-.29-.06-.02-.14-.02-.25-.02.78-1.74,1.19-2.62,1.21-2.62.18,0,.55-1,1.11-3.03h-1.92l-1.02,3.23h-.02c.31-1.23.55-2.17.74-2.82.04-.14.08-.27.12-.41h-3.7c-.02.14-.06.27-.1.41-.59,2.44-.88,3.89-.88,4.36,0,.29-.2.9-.63,1.84h1.43c.18-.59.33-1.06.43-1.41h.04c-.12.43-.25.9-.37,1.41h.98s.02-.04.02-.06c.55-1.49.86-2.39.96-2.7v.02c-.1.72-.35,1.64-.76,2.74h4.54v-.02.02h3.87c.02-.1.04-.18.06-.29l.02-.06c.02.06.06.14.16.29.02.02.02.04.04.06h.51c.1-.12.18-.25.22-.39.04-.27.1-.47.16-.61,0,.47.04.78.12.92h.2c.31,0,.55-.39.78-1.17.18-.88.31-1.43.37-1.66.18.1.33.18.43.25.35-.39.61-.82.76-1.31.06-.23.33-.33.76-.33.29,0,.63-.39,1.02-1.17.18-.35.37-.74.53-1.15h-.74c-.1.22-.25.49-.39.8-.02.16-.04.12-.04-.12,0-.14.04-.27.1-.39.12-.16.18-.25.18-.27h0ZM39.99,76.09v.02c-.06.43-.12.74-.18.92,0-.22.06-.55.18-.94h0ZM36.94,75.91v.04l-.27,1.02-.04.06c.02-.14.12-.51.31-1.13h0ZM34.27,80.04c.1-.35.16-.57.22-.72v.04l-.37,1.43c0-.14.04-.39.14-.76h0ZM35.9,81.12s-.06-.02-.08-.02c.2-.59.35-1,.45-1.21-.06.35-.18.76-.37,1.23h0ZM31.26,76.4c-.02.51-.16,1.13-.39,1.84-.08.25-.18.57-.33.98v-.39c.18-.59.41-1.41.72-2.43h0Z"/>
    <path class="cls-4" d="M37.42,82.13h-.51c.08.12.14.18.21.21.1-.06.2-.14.31-.21h0Z"/>
    <path class="cls-4" d="M30.97,88.74h-1.17c-.68,2.15-1,3.23-1,3.25,0,.31.04.53.12.67-.1.02-.02.02.21.02.14,0,.53-.78,1.17-2.31.27-.63.49-1.17.68-1.64h0Z"/>
    <path class="cls-4" d="M30.83,90.64c0,.06.14.21.43.43.41-.59.82-1.37,1.25-2.33h-1.29c-.27.98-.39,1.62-.39,1.9h0Z"/>
    <path class="cls-3" d="M26,56.92c-.22-.45-.47-.76-.7-.92-.78-.57-2.58-.51-5.42.21-.63.27-1.1.88-1.41,1.84-.2.68-.31,1.37-.31,2.09,0,1.62.39,3.27,1.19,4.93.63,1.33,1.58,2.76,2.8,4.34l-4.13-.04c-7.08,0-11.64.57-13.69,1.72-.68.39-1.08.86-1.21,1.39-.06.31-.04.65.02,1.06,0,2.39.27,4.22.82,5.42,1.29,2.88,3.93,4.32,7.92,4.32,1,0,2.84-.1,5.52-.29,2.19-.16,3.64-.27,4.36-.31-.25.29-.55.78-.9,1.45-.22.43-.65,1.37-1.31,2.78-.31.67-.68,1.45-1.11,2.35-.29.7-.43,1.43-.43,2.23,0,.72.25,1.49.76,2.35.78,1.33,1.9,1.98,3.4,1.98,2.76,0,5.75-1.57,8.94-4.71,1-.98,1.98-2.09,2.95-3.31.8-1.04,1.21-1.62,1.27-1.68,1.37-1.57,3.03-3.54,4.93-5.89,2.27-2.78,3.4-4.28,3.4-4.5,0-.14-.06-.2-.2-.14-.35-.68-2.7-3.25-7.02-7.73-2.35-2.46-5.61-5.77-9.74-9.94t.04-.04c-.25-.18-.49-.51-.74-.96h0ZM22.66,56.2c1.37,0,2.29.25,2.78.74-.04.04-.06.08-.06.14,2.17,2.56,5.07,5.75,8.7,9.56,2.07,2.15,5.05,5.24,8.96,9.27-.53.47-1.43,1.49-2.68,3.07-3.15,3.95-4.87,6.08-5.16,6.38-.02.02-.41.57-1.17,1.62-.94,1.25-1.92,2.37-2.93,3.4-3.19,3.25-6.18,4.87-8.94,4.87-1.27,0-2.25-.61-2.95-1.82-.43-.8-.65-1.45-.65-1.96,0-.63.65-2.27,1.96-4.93,1.33-2.52,1.98-3.81,1.98-3.83v-.22h-.04s-.04-.06-.02-.1c-.02-.02-.04-.02-.08-.02,0-.14-.08-.25-.27-.27h-.55c-.27,0-1.53.1-3.79.29-2.25.18-4.24.29-5.95.29-3.72,0-6.18-1.39-7.39-4.17-.49-1.17-.74-2.8-.74-4.93,0-2.48,3.23-3.7,9.68-3.7.22,0,2.43.06,6.65.2,1.27.04,2.13.02,2.6-.08.06.06.1.12.16.18l.45.02s.02,0,.04-.02c.04-.02.06-.1.06-.25s-.25-.51-.72-1.13c-.74-.92-1.27-1.64-1.62-2.11-1.53-2.27-2.31-4.44-2.31-6.49,0-.98.12-1.74.39-2.25.59-1.17,1.8-1.74,3.58-1.74h0Z"/>
  </g>
</svg>