<?xml version="1.0" encoding="UTF-8"?>
<svg id="Layer_2" data-name="Layer 2" xmlns="http://www.w3.org/2000/svg" xmlns:xlink="http://www.w3.org/1999/xlink" viewBox="0 0 88.27 88.27">
  <defs>
    <style>
      .cls-1 {
        fill: url(#linear-gradient);
      }

      .cls-1, .cls-2, .cls-3, .cls-4, .cls-5 {
        stroke-width: 0px;
      }

      .cls-3 {
        fill: #242424;
      }

      .cls-4 {
        fill: #ccc;
      }

      .cls-5 {
        fill: #999;
      }
    </style>
    <linearGradient id="linear-gradient" x1="41.79" y1="8.7" x2="41.79" y2="114.75" gradientUnits="userSpaceOnUse">
      <stop offset=".37" stop-color="#fff"/>
      <stop offset="1" stop-color="#c6c6c6"/>
    </linearGradient>
  </defs>
  <g id="Layer_1-2" data-name="Layer 1">
    <path class="cls-5" d="M88.27,20.03c0-9.71-4.87-14.58-14.58-14.58H20.03c-9.71,0-14.58,4.87-14.58,14.58v53.65c0,9.71,4.87,14.58,14.58,14.58h53.65c9.71,0,14.58-4.87,14.58-14.58V20.03h0Z"/>
  </g>
  <g id="Layer_2-2" data-name="Layer 2">
    <path class="cls-5" d="M83.59,14.97c0-9.98-4.99-14.97-14.97-14.97H14.97C4.99,0,0,4.99,0,14.97v53.65c0,9.98,4.99,14.97,14.97,14.97h53.65c9.98,0,14.97-4.99,14.97-14.97V14.97h0ZM68.62.77c9.48,0,14.2,4.72,14.2,14.2v53.65c0,9.48-4.72,14.2-14.2,14.2H14.97c-9.48,0-14.2-4.72-14.2-14.2V14.97C.77,5.49,5.49.77,14.97.77h53.65Z"/>
    <path class="cls-1" d="M82.82,14.97c0-9.48-4.72-14.2-14.2-14.2H14.97C5.49.77.77,5.49.77,14.97v53.65c0,9.48,4.72,14.2,14.2,14.2h53.65c9.48,0,14.2-4.72,14.2-14.2V14.97h0Z"/>
  </g>
  <g id="Layer_3" data-name="Layer 3">
    <path class="cls-4" d="M42.14,6.83c-.15.11-.23.19-.27.19-1.3-1.73-2.11-1.92-2.38-.65-.15.65-.23,1.57-.19,2.73-.81-.84-1.27-1.34-1.42-1.5-.15-.15-.58-.23-1.31-.23-.35,0-.58.23-.69.69-.08.23-.11.5-.15.77-.04,0-.19-.19-.54-.54-.27-.27-.58-.42-.92-.42-.38,0-.81-.35-1.3-1-.46-.69-.96-1.04-1.54-1.04-.27,0-.42.04-.46.15,0,.08,0,.12-.04.12,0,.5-.08,1.31-.23,2.42-.08.5-.11.92-.11,1.27h1.92c-.42-1.07-.61-1.84-.54-2.34.19.19.42.73.73,1.65.08.27.15.5.23.69h1.65c-.08-.23-.15-.46-.19-.65.15.19.31.42.5.65h2.03c-.04-.23-.08-.46-.11-.65.11.19.23.42.34.65h3.49c-.31-1.23-.38-2.19-.23-2.88v-.08c.96,1.27,1.46,2.07,1.46,2.49,0,.08,0,.23.04.46h1.42c-.38-.65-.5-1.19-.38-1.54v-.08c.27.27.65.81,1.15,1.61h2.61c0-.31.04-.58.08-.84.15.27.31.54.5.84h5.64c-.31-.61-.58-1.15-.84-1.61-.58-1.04-1.19-1.54-1.84-1.54s-1.04.38-1.11,1.19c-.04.42-.04.92,0,1.5h-.15c-.46-.92-.73-1.46-.84-1.61-.65-.88-1.34-1.34-2.11-1.34-.5,0-.84.42-1,1.27-.04.42-.08.92-.08,1.46-.27-.46-.58-.88-.88-1.27-.58-.81-1-1.19-1.34-1.19-.27,0-.46.08-.58.19h0ZM50.74,8.25c.19.19.27.38.27.5s-.12.27-.38.5c-.27.23-.46.38-.5.42v-1.88c.23.12.42.27.61.46h0Z"/>
    <path class="cls-4" d="M57.15,7.64c-.19-.19-.42-.27-.65-.27-.5,0-.81.19-.96.61-.08.46-.15.73-.23.81-.69-.54-1.23-.58-1.65-.08-.23.27-.38.65-.42,1.07h1c0-.27,0-.38.04-.38v.12c.12.04.23.15.35.27h1.65v-.12c0-.27.04-.5.12-.69.08-.23.12-.38.12-.46.34.08.57.31.77.69.12.19.15.38.19.58h1.15c.04-.19.08-.35.12-.46.04-.15.08-.31.08-.42v-.08c.04.31.12.61.15.96h2.49c-.46-1.8-.84-2.69-1.11-2.69-.12,0-.27.11-.46.35-.19.23-.31.35-.35.35l-1.77.08c-.19,0-.42-.08-.61-.23h0Z"/>
    <path class="cls-4" d="M27.9,6.1c-.42,0-1,.12-1.8.35-1.04.27-1.57.61-1.57.96,0,.27.19,1.04.61,2.38h3.88c-.15-.15-.35-.46-.54-.96-.19-.46-.27-.77-.31-.96.04.04.15.31.38.81.23.5.42.88.58,1.11h1.23c-.27-.81-.5-1.46-.69-1.96-.46-1.15-1.04-1.73-1.77-1.73h0ZM25.83,8.44v-.08c.19.27.31.73.38,1.3l-.08-.08c-.19-.65-.27-1.04-.31-1.15h0Z"/>
    <path class="cls-4" d="M22.07,7.6s.04.04.04.11c.38.12.92.81,1.61,2.07h1.27c-.35-.73-.69-1.3-.96-1.8-.61-1.07-1.19-1.61-1.77-1.61-.38,0-.77,1.15-1.11,3.42h1.84c-.65-.92-.96-1.54-.96-1.8s0-.42.04-.38h0Z"/>
    <path class="cls-4" d="M38.69,10.06v-.08c.81,1.8,1.38,3.15,1.73,4.03h2.42c-.11-1.61-.23-2.8-.38-3.53.04.27.38,1.27,1,3.07.04.15.12.31.15.46h3.88c-.54-1.65-.81-3.03-.77-4.22h-2.61c.04.12.12.27.19.38.58,1.04.92,1.8,1.08,2.38l-.15-.08c-.65-.84-1.15-1.54-1.5-2.07-.15-.19-.27-.42-.38-.61h-1.42c.04.27.08.61.15,1.04.04.23-.11.96-.46,2.15-.42-1.19-.77-2.26-.96-3.19h-3.49c.61,1.19,1.23,2.61,1.8,4.22h1.23c-.42-.92-.92-2.23-1.5-3.95h0Z"/>
    <path class="cls-4" d="M34.58,9.79h-1.65c.19.58.35,1.07.38,1.46h-.15c-.27-.54-.46-1.04-.65-1.46h-1.92c-.04.31-.04.58,0,.77-.08-.27-.15-.54-.23-.77h-5.22c.04.15.11.31.15.5h-.08c-.08-.19-.15-.35-.23-.5h-1.27s0,.04.04.08c0,.27-.04.46-.12.54-.11.04-.15.08-.19.08-.19-.27-.35-.5-.46-.69h-1.84c-.08.42-.15.84-.19,1.34-.15,1.11-.27,2.07-.31,2.88h1.5c-.04-.42,0-.84.12-1.19v-.08c.11.35.27.77.46,1.27h1.11c-.23-.54-.35-.84-.38-.92h.08c.19.27.35.58.54.92h8.21c-.04-.08-.04-.15-.08-.19.04.04.04.11.08.19h3.61c-.58-1.69-1.04-3.11-1.31-4.22h0ZM26.6,11.13v-.08c.08.19.31.88.69,2.11-.31-.58-.54-1.23-.69-2.03h0Z"/>
    <path class="cls-4" d="M36.92,9.79h-2.03c.65,1,1.31,2.42,2.03,4.22h1.07s-.04-.12-.08-.19c-.5-1.5-.81-2.84-1-4.03h0Z"/>
    <path class="cls-4" d="M58.6,9.79h-1.15v.23c-.11.08-.23.15-.34.27-.23.23-.35.61-.35,1.11h-.12c-.23-.69-.34-1.23-.38-1.61h-1.65c.27.31.58.81.88,1.54-.46-.61-.81-1-1.08-1.15-.12-.04-.19-.15-.19-.35v-.04h-1c-.04.12-.04.27-.04.38h-.12c-.04-.12-.12-.27-.15-.38h-5.64c.58,1.07,1.19,2.49,1.84,4.22h2.23c-.04-.08-.04-.15-.08-.23-.08-.42-.11-1.19-.11-2.3,0-.69.08-1.23.23-1.61.58.88,1.07,2.07,1.5,3.61.04.19.11.35.15.54h1.57c-.23-.96-.35-1.73-.35-2.38.5.46.84,1.27,1.08,2.38h3.61c-.23-1.42-.35-2.8-.35-4.07v-.15h0Z"/>
    <path class="cls-4" d="M61.44,9.79h-2.49c.19,1.27.5,2.65.92,4.22h2.46c-.35-1.73-.61-3.15-.88-4.22h0Z"/>
    <path class="cls-4" d="M49.13,14.01v.08c.23.65.84,2.53,1.88,5.6-.69-1.11-1.3-2.34-1.88-3.65l-.54.35c0,.12-.04.23-.08.31-.42-.96-.77-1.84-1.04-2.69h-3.88c.46,1.34.69,2.07.69,2.23,0,.42-.08,1.15-.27,2.11h-.15c-.5-1.04-.84-2.38-1.04-4.03v-.31h-2.42c.19.5.35.84.38,1.07-.19-.27-.38-.61-.61-1.07h-1.23c.42,1.3.88,2.72,1.3,4.3l-.38.15c-.69-1.27-1.31-2.73-1.88-4.45h-1.07c.54,1.42,1.11,3.15,1.73,5.1l-1-.04c-.77-2.15-1.34-3.8-1.73-4.95-.04-.04-.04-.08-.04-.11h-3.61c.38.88,1,2.61,1.8,5.18h-.15c-.11-.5-.42-1.38-.88-2.69-.38-1.11-.65-1.96-.77-2.49h-8.21c1.11,1.96,2.34,4.64,3.68,7.98.04.15.12.31.19.46h8.87c-.04-.12-.04-.23,0-.31.04.04.08.15.15.31h2.15c-.35-.81-.61-1.54-.88-2.19.69.42,1.27,1.15,1.69,2.19h5.49c-.35-1.38-.46-2.49-.38-3.34.35,1.11.77,2.23,1.31,3.34h1.92c-.15-.38-.31-.73-.46-1.04.35,0,.58-.04.61-.12.19.42.34.81.5,1.15h1.84c-.04-.19-.12-.42-.15-.65h.04c.08.19.19.42.31.65h3.11c-.04-.12-.04-.27-.08-.38.04.11.11.27.15.38h3.76c-.04-.35-.08-.61-.15-.88.08.15.19.46.38.88h2.26c-.04-.12-.04-.23-.04-.31.65.46,1.07.38,1.23-.27.04-.19.08-.65.08-1.46-.19-2.49-.31-4.3-.34-5.45.42.04.65.08.77.08.23-.04.34-.23.34-.54-.04-.19-.04-.35-.08-.5h-2.46c.04.19.11.42.15.61.38,1.42.58,3.11.58,5.07,0,.42-.04.5-.08.19l-.04-.04c-.54-1.15-1-2.69-1.34-4.64-.08-.42-.15-.81-.19-1.19h-3.61c.04.23.08.46.12.69.12.84.27,2.07.42,3.65h-.04c-.5-1.54-.84-2.69-1.04-3.45-.08-.31-.15-.61-.19-.88h-1.57c.31,1.15.54,2.26.65,3.38h-.12c-.12-.84-.23-1.5-.35-1.92-.11-.61-.31-1.11-.58-1.46h-.73v1.53c.12.35.19.69.19,1.04-.38-1.19-.65-2.07-.77-2.57h-2.23ZM44.94,14.09c.27.38.61,1,.96,1.88.19.5.46,1.31.81,2.34-.04.08-.08.11-.11.08l-.04-.04c-.19-.42-.73-1.8-1.61-4.18v-.08h0ZM31.59,17.77v-.04c.23.35.65,1.8,1.27,4.34-.58-.5-.92-1.23-1.07-2.19-.04-1.04-.11-1.73-.19-2.11h0ZM34.7,20.73h-.08c-.11-.19-.19-.42-.27-.77l.35.77h0ZM42.56,20.26c-.12-.42-.35-1.04-.61-1.8-.31-.73-.5-1.19-.54-1.46.12.12.58,1.23,1.31,3.26h-.15Z"/>
    <path class="cls-4" d="M51.93,14.01h.73c-.08-.12-.15-.19-.23-.27-.31.19-.46.27-.5.27h0Z"/>
    <path class="cls-4" d="M23.83,14.01h-1.11c.5,1.42,1.34,3.49,2.49,6.22-1.04-1.57-1.8-2.8-2.26-3.65-.5-.96-.77-1.8-.81-2.57h-1.5c-.12,1.11-.19,1.96-.19,2.57,0,.65.31,2.07.92,4.3.12.5.27,1.04.46,1.57h2.72c-.84-2.26-1.31-3.57-1.42-3.91.35.65.92,1.96,1.8,3.91h2.34c-.35-.88-.73-1.88-1.15-2.99-1.11-2.65-1.88-4.45-2.3-5.45h0Z"/>
    <path class="cls-4" d="M32.74,26.25c.23.12.46.19.65.19.11-.04.19-.04.31-.08l.04-.58.08.12c.04.35.35.92.84,1.77.54.96.96,1.42,1.27,1.42.38,0,.77-.42,1.15-1.23.35-.73.5-1.34.5-1.8,0-.27-.15-.92-.42-2-.19-.73-.31-1.27-.34-1.61h-8.87c1.5,3.8,2.76,6.52,3.76,8.17.58-.31.85-.81.77-1.54-.19-.77-.27-1.27-.27-1.5.38-.04.58-.08.61-.08.11-.08.19-.27.19-.54s-.08-.46-.19-.58c-.11-.04-.19-.12-.23-.15h.15Z"/>
    <path class="cls-4" d="M39.91,22.45c.08.19.15.42.23.69.23.77.5,1.84.77,3.22-.69-1.42-1.31-2.72-1.8-3.91h-2.15c.15.38.38,1.07.69,2.11.31,1.04.73,1.77,1.27,2.23.19-.08.35-.15.46-.27v-.81h.08c.27.58.61,1.46,1.07,2.65.42,1,.92,1.77,1.42,2.26.19-.04.38-.15.5-.31,0-.35.12-.69.38-1.04.27-.38.38-.73.38-1,0-.12-.23-.88-.73-2.3-.46-1.42-.69-2.34-.73-2.69.11.19.73,1.34,1.8,3.45.92,1.73,1.42,2.61,1.53,2.61.46,0,.65-.04.61-.15.04-.27.08-.5.08-.61,0-.08-.38-1.11-1.15-3.15,0-.27.04-.42.08-.42h.12c.12.19.31.69.58,1.5.15.54.46,1,.88,1.34.19-.12.38-.23.5-.35-.54-1.92-.92-3.38-1.19-4.34-.08-.27-.15-.5-.19-.73h-5.49Z"/>
    <path class="cls-4" d="M20.3,22.07c-.04.11-.08.23-.11.27,0,.04,0,.08.04.12h1.19c-.19-.35-.38-.5-.58-.5-.27,0-.46.04-.54.12h0Z"/>
    <path class="cls-4" d="M21.42,22.45h-1.19c.35,1.3,1.07,3.03,2.15,5.14.88,1.8,1.53,2.84,1.92,3.19.08-.04.15-.12.23-.15.08.08.15.15.27.27.12-.04.19-.08.23-.12.04-.04.04-.12.04-.15v-1.34c-.88-2.15-1.46-3.95-1.69-5.45.19.38.46,1.38.88,3.03.5,1.5,1,2.23,1.57,2.23.27,0,.42-.04.46-.12.04-.04.04-.08.04-.12-.11-1.46-.58-3.26-1.38-5.41-.11-.35-.27-.69-.38-1h-2.72c.19.65.38,1.38.58,2.11h-.11c-.31-.96-.61-1.69-.88-2.11h0Z"/>
    <path class="cls-4" d="M27.29,22.45h-2.34c.31.69.65,1.46,1,2.34,1.15,2.73,1.8,4.07,1.96,4.07.27,0,.42-.04.5-.12.04-.11.08-.15.11-.15.08-.38.11-.77.11-1.15,0-.84-.46-2.49-1.34-4.99h0Z"/>
    <path class="cls-4" d="M58.11,22.45c.19.46.42,1.07.69,1.84.58,1.34,1.04,2,1.42,2h.42c-.04-.15-.04-.27-.04-.38v-1.23c.04-.12.08-.19.12-.27-.04-.12-.04-.27-.08-.38-.11-.69-.23-1.23-.27-1.57h-2.26Z"/>
    <path class="cls-4" d="M57.88,22.45h-3.76c.35,1.11.81,2.23,1.34,3.38.73,1.65,1.27,2.49,1.57,2.49.46,0,.61-.08.42-.19.19-1.73.31-2.96.38-3.68.04-.77.08-1.42.04-2h0Z"/>
    <path class="cls-4" d="M54.31,24.64c0-.5-.08-1.23-.27-2.19h-3.11c.23.58.5,1.34.77,2.26.42,1.11,1,2,1.77,2.61.58-.65.84-1.54.84-2.69h0Z"/>
    <path class="cls-4" d="M51.16,23.8c-.15-.42-.31-.88-.42-1.34h-1.84c.69,1.73,1,2.88.96,3.53h-.12c-.58-1.42-1.07-2.57-1.5-3.53h-1.92c.38.88.84,1.73,1.38,2.61,1.23,2.03,2.11,3.07,2.69,3.07.42,0,.58-.08.42-.23.04-.38.12-.88.31-1.54.19-.58.27-1,.27-1.19,0-.58-.08-1.04-.23-1.38h0Z"/>
    <path class="cls-3" d="M75.45,9.4c-.12,0-.58-.19-1.42-.61-.85-.42-1.54-.65-2.07-.65-.19,0-.34.15-.46.42-.19.38-.35.65-.46.77-.15-.34-.38-.69-.69-1.07-.42-.58-.73-.88-.92-.88-.38,0-.69.23-.96.69-.12-.04-.27-.23-.54-.54-.19-.27-.42-.42-.69-.42-.08,0-.19.08-.38.27-.27.23-.38.5-.38.77s.12.92.38,2.03c-.23-.31-.61-.96-1.19-1.92-.5-.88-.88-1.5-1.23-1.88-.73.31-1.23,1.04-1.54,2.15-.19.65-.27,1.38-.27,2.15,0,.15.04.73.15,1.69.12.92.15,1.61.12,2.07-.04.5-.12,1.15-.27,2-.11.73-.19,1.19-.23,1.42h6.99c-.54-1.84-.81-3.03-.81-3.53,0-.27.08-.46.23-.58.15-.12.23-.15.23-.19v-.04c.5,1.65.92,3.07,1.31,4.34h1.92c-.27-.88-.54-1.88-.73-2.99v-.08c.27.58.73,1.61,1.38,3.07h2.23c-.46-.88-.73-1.46-.84-1.8.58-.11.88-.31.88-.61,0-.19-.19-1-.58-2.34-.42-1.5-.65-2.46-.69-2.84v-.08c1.42,4.03,2.23,6.33,2.34,6.83v.84h1.15c.23-1.04.34-1.57.34-1.61-.11-1.15-.27-2.3-.54-3.42-.5-2.26-1.08-3.42-1.77-3.42h0ZM67.78,9.13v-.04c.27.27.5.88.73,1.84.11.5.31,1.23.5,2.15-.19-.27-.42-.88-.69-1.8-.27-.88-.46-1.61-.54-2.15h0ZM72.11,10.67c.04-.54.04-.84,0-.96v-.04l.65,1.92c-.38-.12-.61-.42-.65-.92h0ZM69.62,9.06c.5.27.85.92,1.11,1.92.15.65.23,1.23.23,1.69s-.08.61-.19.42h-.38c-.27-1.8-.54-3.15-.77-4.03h0Z"/>
    <path class="cls-3" d="M72.27,17.85h-1.92c.88,2.96,1.46,4.87,1.65,5.76-.88-.88-1.73-2.69-2.49-5.33-.04-.15-.08-.31-.12-.42h-6.99v.08c0,1.42.61,3.99,1.84,7.68-.73-1.07-1.57-1.61-2.61-1.61-.46,0-.77.15-.92.42-.04.08-.08.15-.12.27v1.23c0,.12,0,.23.04.38.04.61.23,1.65.54,3.15.04.11.04.27.08.38h.69c-.31-1.57-.42-2.88-.31-3.99v-.04c.27.96.65,2.3,1.08,4.03h6.1c-.08-.19-.15-.38-.23-.58-.34-.96-.65-1.69-.88-2.19.42.88.81,1.8,1.19,2.76h5.64c-.08-.35-.15-.73-.27-1.15-.42-1.84-.69-3.11-.81-3.76v-.08c.58,1.69.92,2.84,1.11,3.49.15.54.27,1.04.38,1.5h2.92c-.15-.65-.23-1.07-.27-1.3-.04-.35-.23-1.46-.58-3.3-.35-1.8-.5-2.8-.5-2.99s.19-1.27.61-3.15c.12-.46.19-.88.27-1.23h-1.15v1.84h-.19c-.34-.73-.65-1.34-.92-1.84h-2.23c.08.19.15.38.23.58.65,1.65,1.04,2.96,1.15,3.95-.81-1.11-1.5-2.61-2.03-4.53h0ZM66.93,20.34s.08-.08.08-.12v-.08c.81,2.46,1.31,3.95,1.57,4.53l-.38.08c-.15-.23-.42-.88-.81-2-.34-1.07-.54-1.73-.54-1.96,0-.27.04-.42.08-.46h0ZM63.4,19.31v-.04c.96,2.07,2.11,5.37,3.45,9.94-1.34-2.88-2.5-6.18-3.45-9.9h0Z"/>
    <path class="cls-3" d="M68.81,29.82h-6.1c.23.88.46,1.84.73,2.92t.04.08h15.16c-.08-.31-.15-.65-.27-1-.23-.81-.38-1.46-.5-2h-2.92c.15.81.23,1.5.23,2.11,0,.46-.04.73-.08.77-.12-.73-.31-1.69-.58-2.88h-5.64c.27.81.58,1.65.84,2.53-.19-.23-.38-.42-.58-.61.12-.11.15-.19.15-.23,0-.15-.15-.73-.5-1.69h0ZM70.5,30.01v-.08c.04.12.27.5.61,1.23.35.77.54,1.3.58,1.57-.35-.19-.73-1.11-1.19-2.72h0Z"/>
    <path class="cls-3" d="M60.52,29.82h-2.42c.04.31.11.65.23,1.07-.61-.69-1.27-1.04-1.96-1.04-.65,0-.96.69-.96,2.07-.35-.69-.73-1.04-1.19-1.04-.27,0-.42.04-.5.15,0,.08,0,.12-.04.12v1.65h3.07c-.12-.35-.19-.73-.27-1.15h.08c.08.15.19.54.38,1.15h5.79c-.35-1.07-.61-2.07-.81-2.99h-.69c.31,1.42.54,2.34.69,2.69l-.08.04c-.38-.88-.77-1.65-1.15-2.34-.08-.11-.15-.27-.19-.38h0Z"/>
    <path class="cls-3" d="M56.76,32.81h-3.07v.69l.54,2.3h1.19c-.27-1.15-.46-1.92-.58-2.3.19.35.42,1.11.77,2.3h1.8c-.19-.88-.38-1.88-.65-2.99h0Z"/>
    <path class="cls-3" d="M53.23,32.81c-.04-.08-.04-.15-.08-.23-.42-1.46-.92-2.19-1.5-2.19-1.15,0-1.77.46-1.84,1.42-.04.27,0,.61.04,1h1.04v-.08h.12s0,.04.04.08h2.19Z"/>
    <path class="cls-3" d="M47.63,31.28c-.04.08-.08.12-.11.12-.27-.84-.62-1.27-1.08-1.27-.54,0-.84.31-.88.92-.04.35-.08.73-.12,1.19-.19-.27-.35-.54-.5-.73-.31-.42-.65-.61-1.08-.61-.27,0-.42.04-.5.08-.08.04-.11.04-.15.04,0,.46-.08.92-.19,1.34h-.19c-.08-.12-.35-.61-.84-1.57-.23-.42-.73-.65-1.46-.65-.46,0-.77.04-.92.15-.35.15-.5.5-.5,1.04,0,.42.04.73.08.92-.54.08-.88.27-1.07.58h3.72c-.04-.12-.04-.19-.08-.27h.04c.04.08.08.15.11.27h2.15v-.08c0-.27,0-.42.04-.46l.08-.04c.12.19.19.38.31.58h2.23c-.08-.35-.11-.65-.15-.88l.04.12c.04.19.11.46.23.77h2.61c-.04-.12-.08-.19-.12-.31-.35-.88-.73-1.34-1.11-1.34-.27,0-.46.04-.58.12h0Z"/>
    <path class="cls-3" d="M46.71,32.81h-2.23c.42.88.81,1.88,1.11,2.99h1.61c-.23-1.27-.38-2.26-.5-2.99h0Z"/>
    <path class="cls-3" d="M50.89,32.81h-1.04c0,.38.04.84.08,1.34h-.08c-.15-.5-.31-.92-.42-1.34h-2.61c.19.73.42,1.73.73,2.99h3.72c-.27-1.34-.42-2.34-.38-2.99h0Z"/>
    <path class="cls-3" d="M58.6,33.89l.19.15c.15.46.31,1.04.5,1.77h4.41c-.38-1.15-.69-2.15-.96-2.96v-.04h-5.79c.19.69.42,1.69.73,2.99h1.5c-.19-.58-.38-1.23-.58-1.92h0Z"/>
    <path class="cls-3" d="M53.23,32.81h-2.19c.19,1.23.35,2.23.5,2.99h2.65c-.19-.42-.5-1.42-.96-2.99h0Z"/>
    <path class="cls-3" d="M76.99,33.89c0-.27.08-.46.19-.54.04-.04.12-.08.19-.08.04.19.08.65.12,1.34.15.58.5.88,1.04.88.27,0,.42-.04.42-.08v-.19s.04-.04.08,0v-.38c0-.23-.12-.92-.38-2.03h-15.16c.27,1.11.5,2.11.73,2.99h13.05c-.19-.96-.27-1.57-.27-1.92h0ZM75.07,33.31c.08-.11.12-.19.12-.23l.54,2.11h-.15c-.19-.23-.34-.42-.42-.54-.15-.23-.23-.5-.23-.81,0-.27.04-.42.15-.54h0Z"/>
    <path class="cls-3" d="M24.52,30.63c-.08.04-.15.12-.23.15-.19.15-.31.31-.42.42l-.12.19c0,.23.04.5.12.77.08.27.12.42.08.54-.61-1.19-1.19-2.15-1.77-2.88h-6.41l.77,1.92h-.08c-.19-.42-.42-1.04-.69-1.92H7.29c.11.73.27,1.73.46,2.99h6.33c-.04-.12-.11-.27-.15-.38v-.08l.23.46h4.07v-.08c0-.11,0-.27.04-.38.11.19.23.35.35.46h2.99c-.19-.73-.31-1.27-.38-1.61h.04s.15.58.38,1.61h9.71c-.15-.31-.31-.58-.42-.81-.35-.58-.69-.84-1.04-.84-.27,0-.42.04-.46.12.04.04,0,.08-.04.08,0,.65-.04.96-.08,1-.54-.38-1.42-.42-2.61-.12-.15-.42-.38-.73-.65-.84-.19.08-.38.23-.58.5,0-.19-.23-.5-.69-1-.11-.12-.19-.19-.27-.27h0ZM8.83,30.55v-.12s.23.35.5.92c.31.58.46.96.5,1.15l-.08-.08c-.27-.38-.58-1-.92-1.88h0ZM17.04,30.01h.12c.08.11.19.31.34.65-.04.08-.04.15-.08.23v.08c-.19-.38-.31-.69-.38-.96h0ZM20.19,31.09h-.04c0-.19,0-.38.04-.5v.5h0Z"/>
    <path class="cls-3" d="M31.97,30.63c-.27,0-.42.08-.54.19-.11.11-.15.15-.19.15l-.04.77c0,.38.04.73.15,1.07h5.95c-.42-.77-.85-1.15-1.27-1.15-.08.04-.15.12-.27.23-.19.19-.38.46-.54.73-.11-.19-.23-.35-.31-.46-.19-.23-.38-.38-.65-.5-.35.12-.58.27-.69.5-.04.27-.11.42-.15.46-.15-.38-.31-.73-.5-1.07-.34-.61-.65-.92-.96-.92h0Z"/>
    <path class="cls-3" d="M18.42,33.24c-.08-.15-.15-.31-.19-.42h-4.07l.35.69c-.15-.15-.31-.38-.42-.69h-6.33c.04.15.04.31.08.5-.5-.15-.81-.11-.92.12-.04.08-.04.31-.04.69,0,.54.11,1.11.31,1.69h13.05c-.42-1.04-.88-1.65-1.46-1.84-.11-.23-.23-.46-.35-.73h0Z"/>
    <path class="cls-3" d="M18.61,32.81c.23.27.5.42.8.42.46,0,.61-.08.46-.23v-.12c.38.88.69,1.84.96,2.92h2.8c-.46-1.5-.73-2.38-.77-2.69.27.54.61,1.42,1.07,2.69h2c-.04-.19-.08-.38-.12-.61v-.08c.08.19.15.42.27.69h4.95c-.27-1.04-.38-1.65-.42-1.77.08.15.27.73.54,1.77h1.88c-.35-1.42-.54-2.3-.58-2.57h.08c.31.73.61,1.61.92,2.57h1.65c-.19-.84-.31-1.38-.35-1.57.11.35.23.84.38,1.57h1.46c-.12-.73-.23-1.46-.31-2.15l.08.11c.15.27.38.92.69,2.03h2.26c-.15-.84-.23-1.38-.23-1.57l.08.11c.11.38.27.88.42,1.46h1.27c-.35-1.15-.5-2.03-.46-2.69.35.61.69,1.5,1,2.69h1.23c-.35-1.04-.61-2.03-.81-2.99h-3.72c-.08.15-.11.31-.11.5,0,.35,0,.77.04,1.27-.23-.73-.46-1.3-.73-1.77h-5.95s0,.12.04.15c-.04-.04-.04-.12-.04-.15h-9.71c.04.27.11.58.19.92-.08-.35-.15-.65-.23-.92h-2.99,0Z"/>
    <path class="cls-3" d="M40.87,35.81h-1.27c.15.5.31,1.07.46,1.73.11.46.27.88.42,1.27h1.38c-.42-1.11-.73-2.03-.92-2.73-.04-.12-.04-.19-.08-.27h0Z"/>
    <path class="cls-3" d="M41.41,35.81c.12.35.19.69.27,1.07.15.73.35,1.38.54,1.92h1.27v-.31c-.31-.96-.58-1.84-.84-2.69h-1.23Z"/>
    <path class="cls-3" d="M36.61,35.81h-1.46c.19.77.38,1.73.61,2.92t.04.08h1.46c-.27-1.04-.5-2.03-.65-2.99h0Z"/>
    <path class="cls-3" d="M35.12,35.81h-1.65c.15.46.31.96.42,1.46.11.42.27.92.42,1.54h1.46c-.08-.42-.19-.88-.31-1.38-.15-.65-.27-1.19-.34-1.61h0Z"/>
    <path class="cls-3" d="M33.16,36.38c-.04-.19-.08-.38-.11-.58h-1.88c.19.61.38,1.38.61,2.34.04.23.12.46.19.65h1.69c-.12-.58-.27-1.38-.5-2.42h0Z"/>
    <path class="cls-3" d="M39.34,35.81h-2.26c.19.73.42,1.69.69,2.84,0,.04,0,.12.04.15h2.03c-.04-.35-.12-.73-.19-1.15-.11-.73-.23-1.34-.31-1.84h0Z"/>
    <path class="cls-3" d="M28.44,36.92v-.08c.31.81.54,1.46.65,1.96h1.15c0-.08,0-.15-.04-.19-.19-.84-.38-1.53-.5-2.03l.08.15c.11.27.34.96.65,2.07h1.3c-.08-.35-.15-.69-.27-1.11-.19-.73-.31-1.38-.42-1.88h-4.95c.11.42.23.92.34,1.53-.19-.27-.38-.77-.5-1.53h-2c.23.65.5,1.42.81,2.3.08.23.15.46.23.69h3.95l-.5-1.88h0Z"/>
    <path class="cls-3" d="M23.72,36.08c-.04-.12-.04-.19-.08-.27h-2.8c.04.11.04.27.08.38.19,1,.42,1.88.61,2.61h1.38c-.04-.42-.12-.84-.19-1.34.11.58.27,1,.42,1.34h1.15c-.04-.73-.23-1.61-.58-2.73h0Z"/>
    <path class="cls-3" d="M31.74,38.8h-1.3c.08.38.19.84.31,1.34.19.73.35,1.27.5,1.65h.96v-.35c0-.31-.15-1.19-.46-2.65h0Z"/>
    <path class="cls-3" d="M30.24,38.8h-1.15c.04.23.04.42.04.58,0,.42,0,.5-.04.15l-.15-.73h-3.95c.42,1.19.81,2.19,1.23,2.99h1.04v-.11c-.04-.54-.08-.88-.04-1,.38.46.73.69,1.04.69.5,0,.8-.08.84-.23l.04-1.11c.08.12.15.27.27.46.08.15.23.38.5.65.23-.08.42-.19.54-.35,0-.65-.08-1.34-.19-2h0ZM26.83,39.15v-.08c.19.35.27.73.27,1.15h-.08l-.19-1.07h0Z"/>
    <path class="cls-3" d="M24.29,38.8h-1.15c.19.54.42.81.61.81.27,0,.42-.04.5-.15.04-.08.04-.15.04-.19v-.46h0Z"/>
    <path class="cls-3" d="M22.99,40.14c0-.38-.04-.84-.08-1.34h-1.38c.35,1.19.65,2.03,1,2.57.19-.04.31-.08.42-.19l.04-1.04h0Z"/>
    <path class="cls-3" d="M41.87,38.8h-1.38c.27.69.58,1.3.92,1.8.19-.04.35-.12.54-.23v-1.34c-.04-.08-.04-.15-.08-.23h0Z"/>
    <path class="cls-3" d="M39.84,38.8h-2.03c.38,1.5.77,2.49,1.15,2.99h1.07c.08-.23.11-.5.11-.84,0-.19-.11-.88-.31-2.15h0Z"/>
    <path class="cls-3" d="M37.27,38.8h-1.46c.42,1.88.84,2.84,1.27,2.84.46,0,.61-.12.5-.31v-1.34c-.11-.42-.23-.81-.31-1.19h0Z"/>
    <path class="cls-3" d="M35.77,38.8h-1.46c.19.69.38,1.53.65,2.49l.46.08c.42,0,.65-.12.61-.31-.04-.65-.11-1.38-.27-2.26h0Z"/>
    <path class="cls-3" d="M33.7,40.68l.04-1.04c0-.19-.04-.5-.08-.84h-1.69c.42,1.38.84,2.07,1.3,2.07.27,0,.38-.04.42-.08.04-.04.04-.08,0-.11h0Z"/>
    <path class="cls-3" d="M20.49,36.5c-.08-.27-.15-.5-.27-.69H7.18c.08.27.15.5.27.77.04.04.04.12.08.19-.27-.35-.5-.5-.77-.5s-.42.04-.5.12c-.04.04-.08.08-.12.08.04.65.27,1.38.61,2.19.04.04.04.12.08.15h6.64s-.04-.04-.04-.08c-.08-.19-.27-.81-.58-1.8.38.73.73,1.34,1,1.88h2.03c-.19-.54-.35-1.07-.5-1.65h.08c.19.69.42,1.23.61,1.65h5.03c-.11-.73-.34-1.5-.61-2.3h0ZM19.57,37.42v-.08c.23.54.35.92.31,1.15-.15-.35-.27-.69-.31-1.07h0Z"/>
    <path class="cls-3" d="M8.41,38.8c.04.11.11.23.15.34l-.08-.08c-.04-.12-.04-.19-.08-.27h-1.57c.46,1.11.73,1.73.77,1.88h-.12c-.08-.19-.23-.42-.42-.65-.27-.27-.46-.42-.65-.42-.27,0-.46.04-.5.11,0,.08,0,.12-.04.12.04.58.11,1.23.31,1.96h7.1c-.15-.31-.31-.73-.5-1.23-.31-.92-.5-1.42-.54-1.54.5.42.88,1.34,1.11,2.76h3.57c-.38-1-.73-2-1.04-2.99h-2.03c.46.88.77,1.53.88,1.96h-.11c-.46-.54-.84-1.19-1.15-1.96h-5.07ZM10.44,40.49h-.12c-.27-.5-.42-.88-.5-1.15l.61,1.15h0Z"/>
    <path class="cls-3" d="M21.11,38.8h-5.03c.27.54.54.81.8.81s.42-.04.46-.12c.04-.11.04-.15.08-.15.27.81.5,1.65.73,2.46h2.57c.04-.11.12-.27.19-.38.19-.31.31-.69.31-1.15s-.04-.96-.12-1.46h0Z"/>
    <path class="cls-3" d="M77.49,37c-.12-.42-.19-.84-.23-1.19h-13.05c.27,1.19.54,2.19.77,2.99h3.84c-.04-.19-.08-.38-.08-.5,0-.27.04-.5.15-.61.08-.04.15-.12.23-.15l.46,1.27h3.22c-.08-.27-.15-.54-.19-.81l.35.81h2.88c-.04-.27-.12-.5-.19-.73.08.12.19.35.38.73h1.46v-1.8h0Z"/>
    <path class="cls-3" d="M67.78,39.07h.04c.12.15.38,1.07.88,2.72h4.99c0-.11,0-.19.04-.23.04.12.04.19.08.23h2.76c-.23-1.04-.46-2.03-.73-2.99h-2.88l.34.92c-.04.12-.12.15-.23.19l-.12.04c-.04-.42-.12-.81-.15-1.15h-3.22l1.08,2.96c-.5,0-.81-.08-.92-.19-.04-.31-.19-.84-.54-1.65-.19-.46-.31-.84-.38-1.11h-3.84c.12.34.19.65.27.92l-.23.08c-.12-.35-.23-.65-.35-1h-2.34c.35.92.73,1.92,1.19,2.99h4.64c-.08-.15-.15-.35-.23-.54-.15-.46-.23-.84-.23-1.15.04-.5.08-.84.08-1.04h0Z"/>
    <path class="cls-3" d="M77.49,38.8h-1.46c.04.11.12.27.15.42.27.58.54.88.81.88s.42-.04.46-.12c.04-.04.04-.11.04-.15v-1.04h0Z"/>
    <path class="cls-3" d="M64.67,38.8c-.35-1.11-.69-2.11-.96-2.99h-4.41c.11.58.27,1.23.46,1.96-.19-.58-.38-1.23-.58-1.96h-1.5c.04.19.08.42.11.65.23,1,.46,1.77.73,2.34h3.61v-.46c.04.15.12.31.19.46h2.34Z"/>
    <path class="cls-3" d="M57.41,35.81h-1.8c.19.61.38,1.34.61,2.23.08.27.15.54.23.77h1.61c-.15-.73-.38-1.73-.65-2.99h0Z"/>
    <path class="cls-3" d="M55.42,35.81h-1.19l.04.15s-.04-.08-.08-.15h-2.65c.11.73.23,1.23.31,1.53.11.58.27,1.04.42,1.46h3.8c-.12-.58-.23-1.19-.38-1.92-.12-.38-.19-.73-.27-1.07h0Z"/>
    <path class="cls-3" d="M51.27,35.81h-3.72c.11.42.19.92.31,1.42.15.61.31,1.15.42,1.57h1.42c-.19-1.19-.35-2.11-.46-2.73l.04.12c.15.31.38,1.19.73,2.61h1.92v-.12c-.27-1.11-.5-2.07-.65-2.88h0Z"/>
    <path class="cls-3" d="M47.21,35.81h-1.61c.11.35.19.69.27,1.04.12.54.27,1.19.46,1.96h1.42c-.19-1.11-.38-2.11-.54-2.99h0Z"/>
    <path class="cls-3" d="M42.87,35.81h1.77c-.34-1.57-.54-2.57-.58-2.99h-2.15c.27.65.61,1.65.96,2.99h0Z"/>
    <path class="cls-3" d="M44.63,35.81h-1.77c.11.5.27,1,.38,1.57.11.5.27,1,.42,1.42h1.69c-.27-1.15-.54-2.15-.73-2.99h0Z"/>
    <path class="cls-3" d="M51.93,38.8h-1.92c0,.08,0,.15.04.27.27,1.11.69,2.03,1.27,2.72h.31c.12-.08.23-.15.31-.23v-2.76h0Z"/>
    <path class="cls-3" d="M49.7,38.8h-1.42c.35,1.19.65,1.8.85,1.8.27,0,.46-.08.58-.19,0-.04.04-.19.15-.46-.04-.42-.12-.81-.15-1.15h0Z"/>
    <path class="cls-3" d="M45.37,38.8h-1.69c.31,1.04.65,1.92,1.04,2.61.08.12.15.27.23.38h.31c.12-.04.19-.11.23-.19t.04-.04v-2.11c-.04-.23-.11-.46-.15-.65h0Z"/>
    <path class="cls-3" d="M42.95,40.37c.23-.11.42-.23.54-.35v-1.23h-1.27c.19.65.46,1.19.73,1.57h0Z"/>
    <path class="cls-3" d="M47.74,38.8h-1.42c.12.73.27,1.53.46,2.49l.65.08c.27,0,.42,0,.46-.04v-.04c.12,0,.19-.23.19-.65-.11-.65-.23-1.27-.34-1.84h0Z"/>
    <path class="cls-3" d="M62.14,38.8h-3.61c.27.69.58,1.04.92,1.04.31,0,.5-.04.58-.12,0-.04.04-.15.12-.42.27.96.65,1.8,1.07,2.49h.92c-.04-.27-.12-.54-.15-.81.04-.08.12-.15.15-.19v-2h0Z"/>
    <path class="cls-3" d="M53.58,40.37c.42,0,.58-.04.38-.08.19-.12.27-.35.27-.69.12.27.27.73.46,1.38.12.35.27.61.46.81h.81c.08-.11.15-.19.19-.31.08-.19.12-.46.12-.81,0-.5-.08-1.11-.19-1.88h-3.8c.38,1.04.81,1.57,1.3,1.57h0Z"/>
    <path class="cls-3" d="M58.3,40.61v-.31c0-.15-.08-.65-.23-1.5h-1.61c.31,1.04.58,1.73.77,2.07.12.19.23.27.31.27.27,0,.46-.04.5-.12.08-.11.12-.15.15-.15.04-.12.04-.15.08-.15l.04-.11h0Z"/>
    <path class="cls-3" d="M58.95,28.13c-.46.04-.73.08-.84.08-.04.19-.08.46-.08.77,0,.19.04.5.08.84h2.42c-.65-1.11-1.19-1.69-1.57-1.69h0Z"/>
    <path class="cls-3" d="M17.46,5.95s-.04.15-.04.42c0,.12.08.35.23.77-.27-.5-.61-.77-1.04-.77-.27,0-.42.04-.42.08l.04.08c-.04.11-.11.31-.23.5-.12.19-.15.46-.15.73,0,.19.27.96.81,2.23h-.11c-.31-1.23-.73-1.84-1.23-1.84-.27,0-.42-.15-.46-.46-.08-.38-.61-.73-1.57-1.04-.19,0-.38.12-.5.35.12.96.54,2.19,1.31,3.76.42.88,1,2,1.73,3.42-.42-.54-1.15-1.57-2.15-3.15-.84-1.34-1.57-2.3-2.15-2.88-.23.08-.34.15-.38.19-.12.12-.15.31-.15.58,0,.42.08.81.27,1.23l-.15-.08c-.27-.42-.46-.77-.61-1.04-.31-.42-.58-.65-.77-.65-.27,0-.42.04-.5.15l-.11.12-.15.46c0,.46.61,1.77,1.84,3.88.61,1.07,1.27,2.15,1.92,3.26-.04-.04-.35-.46-1-1.34-.5-.73-.88-1.11-1.15-1.15-.58-1.92-1.38-3.34-2.38-4.26-.11.04-.15.08-.19.11-.04.08-.08.27-.08.54.42,3.45.73,5.95.88,7.52-.35-.35-.61-.54-.88-.54s-.42.04-.46.12c.04.12,0,.19-.04.23v.38h11.74v-.08c.19-3.3.27-5.76.27-7.37.12.23.35.27.65.15l.61-.38c-1.15-2.8-2.19-4.22-3.11-4.3l-.12.08h0ZM17.81,7.56c.08.27.19.61.35,1h-.08c-.12-.46-.23-.81-.27-1h0Z"/>
    <path class="cls-3" d="M7.41,17.85v1.15s.04.08.08.15c-.11,0-.15.04-.19.08-.04.12-.08.19-.15.23,0,.12-.04.27-.11.5-.11.27-.15.5-.15.73,0,.19.19,1,.58,2.42.35,1.5.54,2.88.58,4.15-.04.04-.08.04-.12.08-.5.42-.77.77-.77,1.07,0,.23.04.69.15,1.42h8.48s-.04-.11-.08-.19l.08.19h6.41c-.54-.65-1.04-1.15-1.5-1.5-.34.08-.54.46-.54,1.19v.08c-.08-.73-.27-1.61-.54-2.73-.38-1.42-.58-2.19-.58-2.23,0-1.31-.08-2.19-.27-2.61-.5-.96-1.11-2.15-1.77-3.57.04.04.27.38.61,1.04.31.61.57.92.77.92.27,0,.42-.04.46-.08v-.12c.04-.27.08-.46.08-.57,0-.35.04-.69.11-1.04.08-.31.12-.58.12-.77H7.41ZM9.83,18.88c-.04-.12-.04-.19-.04-.31.23.46.5,1,.84,1.61-.27-.5-.54-.92-.81-1.3h0ZM14.81,20.07l-1.04-1.61v-.12c.19.12.54.69,1.04,1.73h0ZM11.78,19.84l.27-.54s0-.08-.04-.15c.23.42.46.88.73,1.38.96,1.73,1.92,3.45,2.92,5.18h-.11c-1.42-2.15-2.65-4.11-3.72-5.83l-.04-.04h0ZM17.42,25.18l-.12.04c-.54-.88-.84-1.5-.88-1.88v-.04c.04.08.23.35.54.84.27.5.42.84.46,1.04h0ZM14.47,27.21c.46.84.69,1.27.73,1.3h-.08c-.23-.46-.46-.88-.65-1.3h0ZM18.61,26.9c.11.35.19.92.31,1.8l-.08-.04c-.42-.81-.84-1.77-1.27-2.88.42-.12.77.23,1.04,1.11h0ZM9.13,26.79c-.04-.5-.08-1.04-.19-1.57.38.65.81,1.5,1.31,2.57-.42-.61-.77-.96-1.11-1h0Z"/>
    <path class="cls-3" d="M40.03,41.79h-1.07c.19.23.34.35.54.35.46,0,.58,0,.38-.04.08-.08.11-.19.15-.31h0Z"/>
    <path class="cls-3" d="M32.2,42.22v-.42h-.96c.15.42.31.61.46.61.27,0,.42-.04.46-.08.04-.04.04-.08.04-.11h0Z"/>
    <path class="cls-3" d="M26.21,41.79c.19.42.42.77.61,1.11.23-.23.38-.61.42-1.11h-1.04Z"/>
    <path class="cls-3" d="M20.46,42.68c.04-.31.12-.61.27-.88h-2.57c.19.65.35,1.34.5,2.03l.65.15h.11c.19,0,.31-.04.35-.11.04-.04.08-.12.12-.23.04-.12.04-.27.04-.46,0-.04-.11-.38-.31-.96.12.23.19.46.31.69.19,0,.35-.08.54-.23h0Z"/>
    <path class="cls-3" d="M17.16,42.37c-.08-.19-.15-.38-.23-.58h-3.57c0,.12,0,.19.04.31-.04-.08-.08-.19-.11-.31h-7.1c.42,1.8,1.31,3.95,2.69,6.49,1.23,2.26,2.19,4.11,2.84,5.49h4.15c-.04-1.11-.15-2.26-.38-3.38-.12-.65-.5-2.07-1.11-4.26.65,0,.96-.19.96-.54,0-.58-.15-1.34-.5-2.3h.08c.19.23.42.69.77,1.34.31.58.61.92.96,1.11.19-.12.38-.23.54-.35v-3.03h0ZM12.74,47.05c.58,1.34.88,2.3.84,2.96l-.04-.04c-.38-1.61-1.11-3.42-2.19-5.37v-.08c.42.61.88,1.46,1.38,2.53h0ZM13.2,52.58h-.08c-.42-.61-.88-1.5-1.34-2.65-.65-1.65-1-2.53-1.08-2.73.77,1.04,1.61,2.84,2.49,5.37h0Z"/>
    <path class="cls-3" d="M5.49,44.06l-.15.08c.81,2.11,1.61,4.03,2.42,5.76h-.11c-.04-.08-.31-.58-.73-1.46-.27-.58-.61-.96-1.04-1.15-.19.04-.35.15-.54.38.23,1.15.54,3.03.96,5.6.04.19.08.35.11.5h.92c-.12-.34-.23-.61-.31-.88v-.04c.11.23.27.54.46.92h2.15c-.5-1.04-.88-1.88-1.23-2.53v-.08c.5.65,1,1.54,1.54,2.61h1.38c-.58-1.19-1.31-2.72-2.19-4.64-1.57-3.42-2.65-5.14-3.15-5.14-.27,0-.42.04-.5.08h0Z"/>
    <path class="cls-3" d="M11.32,53.77h-1.38c.11.31.27.65.42,1,.58,1.38,1,2.61,1.27,3.72-.77-1.88-1.42-3.45-2-4.72h-2.15c.42.81.96,1.88,1.69,3.3.96,1.88,1.61,3.3,2,4.22-1.04-1.88-1.8-3.3-2.3-4.26-.65-1.3-1.19-2.38-1.53-3.26h-.92c.42,2.07.84,3.76,1.34,5.03.23.58,1.19,2.42,2.92,5.49.27.5.54,1,.81,1.46h2.42l-1.04-3.45c0-.08.11-.19.34-.35.23-.11.35-.27.35-.46s-.11-.69-.38-1.57c-.27-.96-.42-1.53-.46-1.69.58.54.96.81,1.07.81.27,0,.46-.04.5-.12.04-.04.04-.08.04-.12v-1.11c-.42-1.42-.73-2.34-.92-2.69h.08c.08.12.19.35.38.73.19.34.42.5.69.5.46,0,.58-.04.35-.12.19-.5.23-1,.12-1.5.57.19.84.04.84-.5v-.35h-4.15c.58,1.19.92,2.07,1.07,2.57h-.15c-.19-.35-.65-1.19-1.3-2.57h0Z"/>
    <path class="cls-3" d="M6.87,59.03c-.58.69-.85,1.27-.77,1.77.04.27.15.81.31,1.53,0,1.5.08,2.65.23,3.42h1.8c-.08-.23-.15-.46-.27-.69v-.08c.15.27.31.5.46.77h1.8c-.19-.42-.42-.84-.61-1.3-1.11-2.46-2.11-4.26-2.95-5.41h0Z"/>
    <path class="cls-3" d="M14.24,70.23c.58.15.84-.04.84-.54l-1.19-3.95h-2.42c.88,1.77,1.38,3.15,1.53,4.18h-.11c-.77-1-1.57-2.38-2.46-4.18h-1.8c1.38,2.46,2.19,4.26,2.46,5.37l-.11-.11c-.77-1.19-1.61-2.96-2.53-5.26h-1.8c.08.38.15.69.27.88,1,1.73,1.92,3.88,2.8,6.49.88-.12,1.65.54,2.3,2.03.65,1.53,1.07,2.3,1.27,2.3.42,0,.58-.04.46-.15l.04-.81c0-.38-.15-1.23-.46-2.49-.31-1.34-.46-2.07-.46-2.23,0,.11.19.42.58.96.42.58.73.88,1,.88s.42-.04.54-.15c.04-.04.08-.11.12-.15-.04-.5-.15-1.07-.35-1.65-.31-.81-.46-1.27-.5-1.42h0Z"/>
    <path class="cls-3" d="M76.57,41.79h-2.76c.04.08.08.12.11.12.04.88.42,2.38,1.07,4.53-.11.12-.19.23-.31.35-.12.15-.23.27-.31.38-.5-1.96-.73-3.53-.73-4.64,0-.31,0-.54.04-.73h-4.99c.08.23.15.46.23.73-.31-.12-.58-.35-.77-.73h-4.64c.08.19.15.42.23.61.73,1.73,1.57,3.61,2.53,5.72.04.08.04.15.08.19.19.5.42.92.61,1.34-.04,0-.08,0-.12.04-.04.04-.08.08-.12.08v1.92c.15.5.38,1.19.69,2.07h9.17c-.12-.31-.15-.54-.15-.69,0-.23.08-.42.27-.61.19-.19.27-.42.27-.65-.04-.19-.04-.35-.08-.5.31.54.58.81.84.81s.42-.04.46-.15c.04-.04.04-.11.04-.15-.42-3.53-.96-6.87-1.69-10.02h0ZM70.08,42.79c.42.42.92,1.19,1.46,2.26.54,1.15.81,2.03.77,2.69l-.08-.08c-1.19-2.26-1.88-3.88-2.15-4.76v-.11h0ZM71.73,49.13c-.23-.35-.38-.73-.5-1.07v-.04c.27.42.46.77.5,1.11h0ZM68.28,48.09c.08.11.19.38.31.77h-.04l.12.23c.11.42.27.96.46,1.61-.12-.19-.27-.35-.42-.46-.08-.46-.23-1.19-.42-2.15h0Z"/>
    <path class="cls-3" d="M66.01,54.08c0,.08,0,.12-.04.12v1.15c.61,2.15,1.31,4.15,2.03,5.99-.46-.19-.81-.15-1,.15.04.19.34,1.23.96,3.07-.46-.23-.77-.23-.88.04-.04.08-.08.27-.08.58,0,.15.04.35.12.58h2.65c-.77-1.61-1.27-2.88-1.5-3.76v-.08c.73,1.5,1.3,2.76,1.76,3.84h1.34c-.88-2.84-1.57-5.1-2.15-6.75-1.11-3.38-2.03-5.07-2.76-5.07-.27,0-.42.04-.46.15h0Z"/>
    <path class="cls-3" d="M67.43,53.77c.46,1.34,1.11,3.15,2,5.41,1.04,2.65,1.76,4.84,2.19,6.56h1.07c-.04-.31-.08-.54-.11-.69.11.19.19.42.27.69h1.96c-.08-.38-.12-.81-.12-1.27.08.15.15.35.23.54.08.19.23.42.42.73h2.65c-.31-2.84-.73-5.64-1.27-8.44-.08-.38-.15-.73-.19-1.07.38,0,.5-.04.38-.15.04-.27.08-.54.08-.73s-.08-.58-.27-1.11c-.04-.19-.08-.35-.11-.46h-9.17ZM71.15,58.6c.12.23.35.81.65,1.69.27.92.5,1.65.62,2.15h-.12c-.42-.54-.69-1.19-.88-2-.12-.88-.19-1.5-.27-1.84h0ZM74.53,58.6c.35.35.69.88,1.08,1.61.42.84.69,1.57.81,2.15-.81-1.3-1.42-2.53-1.88-3.72v-.04h0ZM73.73,63.25l-.15-.69v-.04s.15.19.34.54l-.19.19h0Z"/>
    <path class="cls-3" d="M62.14,41.79h-.92c.12.23.27.42.42.61.15-.04.31-.19.5-.46v-.15h0Z"/>
    <path class="cls-3" d="M55.96,41.79h-.81c.12.15.23.27.35.35.19-.12.34-.23.46-.35h0Z"/>
    <path class="cls-3" d="M51.62,41.79h-.31s.04.08.08.12c.08-.04.15-.08.23-.12h0Z"/>
    <path class="cls-3" d="M45.25,41.79h-.31s.04.08.08.12c.08-.04.15-.08.23-.12h0Z"/>
    <path class="cls-3" d="M77.99,65.9v-.15h-2.65c.04.12.12.27.23.38l-.65.08c-.04-.15-.08-.31-.11-.46h-1.96c.04.27.04.54.04.84h-.08c-.04-.35-.08-.61-.12-.84h-1.07c.08.35.15.65.19.92-.04.12-.08.12-.11.04-.12-.35-.19-.65-.31-.96h-1.34c.23.65.42,1.19.61,1.69l-.04.04c-.31-.61-.58-1.19-.84-1.73h-2.65c.12.58.46,1.42,1,2.53.38.81.77,1.61,1.19,2.42-.54-.08-.96-.54-1.27-1.42-.42-1.07-.69-1.69-.81-1.8-.23.08-.38.23-.5.42.08.65.31,1.61.65,2.8l-.15-.08c-.46-.27-.81-.27-1,.08.15.61.34,1.88.61,3.8.38,1.65,1.04,2.46,1.92,2.46.27,0,.42-.04.46-.08.04-.04.04-.08.04-.12l.04-2.42c.19.31.46,1,.84,2.03.42.88.84,1.34,1.31,1.34.27,0,.42,0,.46-.04t.04-.08c.12-.19.15-.61.15-1.19,0-.46-.08-1.15-.27-2.03l.12.15c.27,1.11.58,1.69.92,1.69.27,0,.46-.04.5-.12v-.15c0-.61.12-1.08.31-1.42.12-.19.35-.54.69-.96.12.73.38,1.08.81,1.08.27,0,.42-.04.46-.08.04-.04.04-.08,0-.11.04-.27.08-.5.08-.77v-4.91c.12.35.23.81.34,1.46.15.58.46,1,.92,1.34.23-.08.38-.19.5-.31v-1.15c-.12-.42-.19-1-.27-1.8-.08-.88-.15-1.5-.23-1.84.46.27.77.31.88.12.08-.08.12-.31.12-.69h0ZM71.81,73.69c-.11-.27-.19-.5-.19-.77v-.08c.11.12.19.42.19.84h0ZM73.34,73.27h-.19c-.23-1.3-.42-2.26-.54-2.92.35-.04.54-.12.58-.19.15.58.19,1.61.15,3.11h0Z"/>
    <path class="cls-4" d="M58.18,40.87s-.08.04-.15.15c-.04.08-.23.12-.5.12-.08,0-.19-.08-.31-.27-.08.19-.15.46-.19.73-.15.88-.38,1.61-.73,2.15-.23-.19-.5-.46-.77-.84-.27-.34-.5-.58-.77-.77-.35.12-.65.42-.96.96l-.38.77c-.54-.81-.96-1.19-1.27-1.19-.5,0-1.04.19-1.61.58-.73.46-.96,1-.73,1.57-.27-.42-.42-.69-.54-.88-.19-.35-.54-.5-.96-.5-.27,0-.5.08-.65.23-.04.04-.11.15-.23.35-.84-1.27-1.5-2.07-1.96-2.42-.11.12-.27.19-.46.31-.12-.15-.19-.31-.31-.5-.12.04-.19.08-.23.15-.11.12-.15.15-.19.15,0,.5-.04.81-.12.92-.19-.27-.31-.46-.42-.61-.23-.27-.54-.38-.92-.38-.31,0-.54.19-.69.58-.04.11-.15.38-.27.88-.19-.15-.42-.23-.77-.27-.35-.04-.58-.04-.69.08,0,.61-.04.92-.08.96-.38-.54-.77-.65-1.15-.31-.31.27-.46.65-.5,1.15-.57-.65-1.07-1.15-1.53-1.57-.88-.81-1.69-1.23-2.38-1.23-.58,0-1,.35-1.23,1.04-.11.38-.27.92-.38,1.65-.27-.35-.5-.65-.77-1-.5-.61-.88-.92-1.23-.92-.19,0-.34.04-.54.12-.31.11-.46.34-.46.69,0,.42.08.81.23,1.15-.46-.92-.96-1.77-1.5-2.49-.15.04-.35.19-.54.38-.08.54.11,1.34.54,2.42.04.11.11.27.19.46h2.53c-.08-.38-.11-.73-.11-1.07v-.08c.31.35.61.73.92,1.15h5.07c-.15-.35-.31-.65-.46-.96.19.31.35.61.54.96h4.11c-.11-.42-.23-.81-.27-1.15.19.23.42.61.69,1.15h2c-.38-.84-.77-1.65-1.15-2.42v-.08c.54.73,1.07,1.57,1.61,2.5h1.73c-.38-1.04-.69-1.8-.92-2.34.58.65,1.19,1.46,1.76,2.34h1.65v-.08s0,.04.04.08h2.15c-.04-.23-.08-.38-.08-.5,0-.38.04-.65.12-.77.23.34.46.77.73,1.27h3.03v-.19s.04.12.08.19h2.69c-.19-.42-.27-.69-.27-.81,0-.27.04-.42.12-.54.04-.12.08-.19.08-.23.35.27.77.81,1.19,1.57h4.76c-.38-1.04-.58-1.65-.58-1.84v-.27c.58.42,1.08,1.11,1.5,2.11h.73c-.5-1.04-.92-2.03-1.31-2.99-.27-.19-.54-.27-.84-.27-.5,0-.96.42-1.31,1.3-.5,1.11-.8,1.73-1,1.92-.35-.5-.77-1.42-1.3-2.84-.31-.81-.65-1.46-1-1.92l-.04.11s-.04.04-.08.15h0ZM35.54,44.63h-.12c-.42-.54-.65-1.04-.65-1.53.5.46.77.96.77,1.53h0Z"/>
    <path class="cls-4" d="M25.29,41.37c-.15.12-.31.27-.42.38-.23.27-.35.46-.35.65,0,.12.15.73.46,1.84.12.42.23.81.31,1.15h1.15c-.19-.54-.31-1-.42-1.38v-.04c.23.5.46.96.69,1.42h1.73c-.27-.35-.54-.69-.81-1.04-1.19-1.54-1.96-2.53-2.34-2.99h0Z"/>
    <path class="cls-4" d="M18.77,44.48c-.08.12-.11.27-.11.54,0,.12,0,.23.04.38h1.88c-.12-.19-.23-.38-.35-.61-.27-.46-.54-.73-.81-.81-.34.23-.58.38-.65.5h0Z"/>
    <path class="cls-4" d="M23.14,45.36v-.04s.04.04.04.08h1.57c-.19-.27-.38-.5-.54-.69-.58-.65-1-1-1.34-1-.23,0-.57.23-1.04.73-.31.31-.54.61-.69.96h2v-.04h0Z"/>
    <path class="cls-4" d="M40.03,45.48v-.08c.42.88,1.23,2.46,2.38,4.76h3.88c-.77-1.69-1.5-3.26-2.19-4.76h-2c.15.35.31.73.5,1.19.27.65.57,1.54,1,2.61-.58-.73-1.07-1.57-1.5-2.57-.19-.42-.31-.84-.42-1.23h-4.11c.88,1.54,1.73,3.11,2.61,4.76h1.61c-.61-1.42-1.19-2.99-1.76-4.68h0Z"/>
    <path class="cls-4" d="M35.81,47.09v-.08c.65,1.15,1.19,2.19,1.57,3.15h1.27l-.11-.08-.31-.73v-.11c.15.23.31.54.42.92h1.15c-.81-1.65-1.57-3.26-2.3-4.76h-5.07c.81,1.19,1.65,2.8,2.53,4.76h2c-.73-1.34-1.11-2.34-1.15-3.07h0Z"/>
    <path class="cls-4" d="M31.62,45.4h-2.53c.19.5.46,1.07.81,1.8-.31-.38-.81-1-1.46-1.8h-1.73c.81,1.65,1.54,3.26,2.19,4.76h5.49c-.61-.35-1.23-1.07-1.8-2.19-.5-.96-.81-1.84-.96-2.57h0ZM29.7,48.93c-.23-.38-.34-.61-.38-.65.12.08.42.61.92,1.61l-.15-.08c-.04-.23-.15-.54-.38-.88h0Z"/>
    <path class="cls-4" d="M26.44,45.4h-1.15c.11.46.15.77.19.92-.27-.34-.54-.65-.73-.92h-1.57c.19.27.54.92.96,1.96.42,1,.69,1.77.84,2.34,0-.04-.38-.77-1.11-2.23-.5-.92-.73-1.61-.73-2.07h-2c-.11.19-.19.35-.23.54-.04-.04-.15-.19-.35-.54h-1.88c.04.54.23,1.23.54,2.11.42,1.34.69,2.15.77,2.5l-.08-.04c-.15-.54-.31-1-.5-1.38-.38-.73-.96-1.07-1.69-1.07s-1.11.69-1.11,2.11l-.08.54h4.72c-.35-1.04-.69-2-.96-2.88.46.73,1,1.69,1.57,2.88h1.46c-.38-1-.81-2.07-1.23-3.22.5,1.04,1.04,2.11,1.57,3.22h4.57c-.81-2-1.42-3.57-1.81-4.76h0ZM17.88,48.74c-.04-.19.08-.11.27.15.19.27.35.46.42.61-.19.12-.5.19-.88.19l.19-.96h0Z"/>
    <path class="cls-4" d="M65.05,45.4h-.73c.15.35.31.77.42,1.23.23.84.5,2.03.81,3.53h1.04c-.08-.69-.19-1.38-.31-2.03-.42-.96-.85-1.84-1.23-2.73h0Z"/>
    <path class="cls-4" d="M63.75,46.29c-.12-.34-.23-.61-.35-.88h-4.76c.54.96,1.11,2.26,1.73,3.99.12.27.19.5.27.77h2.07c-.04-.15-.04-.27-.08-.35.04.04.08.15.15.35h2.61c-.5-.96-1.04-2.26-1.65-3.88h0ZM62.02,47.86h-.15c-.15-.38-.23-1.04-.23-1.92l.38,1.92h0Z"/>
    <path class="cls-4" d="M59.14,49.05c-.81-1.73-1.34-2.92-1.61-3.65h-2.69c1.04,2.07,1.77,3.65,2.26,4.76h2.57c-.19-.35-.35-.73-.54-1.11h0Z"/>
    <path class="cls-4" d="M50.97,45.4h-2.15c.73,1.3,1.5,2.88,2.34,4.76h1.5c-.96-2.34-1.5-3.95-1.69-4.76h0Z"/>
    <path class="cls-4" d="M54.77,45.4h-3.03c.58,1.19,1.27,2.76,2.03,4.76h.96c-.46-1.11-.73-1.8-.77-2.07.23.19.46.65.73,1.3.08.19.15.46.27.77h1.57c-.27-.5-.46-.96-.65-1.34-.65-1.5-1.04-2.61-1.11-3.42h0Z"/>
    <path class="cls-4" d="M46.29,45.4h-1.73c.81,1.34,1.57,2.92,2.3,4.68t.04.08h1.23c-.04-.12-.08-.19-.12-.31-.69-1.8-1.27-3.3-1.73-4.45h0Z"/>
    <path class="cls-4" d="M48.78,45.4h-1.65c.73,1.11,1.42,2.42,2.11,3.91.12.23.27.5.38.84h1.15c-.84-1.96-1.5-3.57-2-4.76h0Z"/>
    <path class="cls-4" d="M54.73,50.16h-.96c.08.23.15.46.27.73,1.19,3.19,2.3,5.6,3.42,7.25-.19-.04-.46-.04-.77.08-.27.11-.46.19-.5.31-.46-.88-1.42-3.11-2.88-6.68-.27-.61-.46-1.19-.65-1.69h-1.5c.19.35.34.73.54,1.15,1.08,2.34,1.96,4.49,2.65,6.37h-.19c-1.34-2.96-2.46-5.45-3.38-7.52h-1.15c.58,1.27,1.31,3.07,2.19,5.49-.35.19-.73.54-1.07.96-.65-1.5-1.5-3.65-2.61-6.45h-1.23c.69,1.65,1.61,4.03,2.76,7.14l-.27-.04c-1.11-2.53-2.15-4.91-3.11-7.1h-3.88c.88,1.73,1.96,3.84,3.22,6.37l-.38-.04c-1.27-1.73-2.42-3.84-3.45-6.33h-1.61c1.31,2.49,2.61,5.1,3.88,7.79.27.58.54,1.15.81,1.73h16.16c-.27-1.08-.5-2.19-.73-3.34.5.88,1,2,1.46,3.34h2.88c-.38-1.8-.57-2.76-.57-2.8,0-.27.08-.5.19-.77.19-.31.27-.5.27-.54.08.27.23.46.42.65.19.19.38.27.58.27.42,0,.54-.04.35-.15.11-1.11.11-2.26.04-3.49.42-.12.69-.31.81-.61.04-.08.04-.27.04-.54v-.19c-.04-.46-.12-.92-.15-1.34h-1.04c0,.08,0,.15.04.27l-.08-.08c-.04-.08-.08-.15-.12-.19h-2.61c.12.27.23.65.42,1.19h-.11c-.19-.5-.31-.92-.38-1.19h-2.07c.81,2.34,1.23,3.88,1.23,4.61,0,.46,0,.54-.04.23h-.15c-.27-.88-.92-2.49-2-4.84h-2.57c.42.96.61,1.53.61,1.73,0,.27,0,.42-.04.46t-.08-.04c-.42-.81-.81-1.54-1.07-2.15h-1.57c.11.27.23.61.35,1h-.15c-.15-.38-.31-.73-.42-1h0ZM46.48,55.46s.19.35.54.88c.35.5.54.88.61,1.11h-.38l-.77-1.92v-.08h0ZM56,52.89v-.04c.27.19.58.96.96,2.3-.19-.31-.54-1.07-.96-2.26h0ZM58.95,55.38v-.04c.12.38.19.73.19,1-.12-.31-.19-.61-.19-.96h0Z"/>
    <path class="cls-4" d="M23.33,50.16h-1.46c.65,1.42,1.42,3.15,2.3,5.22.77,1.88,1.34,3.3,1.69,4.3h1.34c-.5-1.08-1.04-2.23-1.54-3.49-.58-1.38-1.38-3.38-2.34-6.03h0Z"/>
    <path class="cls-4" d="M16.54,50.16l-.46,3.26c0,.5.54,2.3,1.57,5.33.11.31.23.61.35.92h2.65c-.35-1.04-.61-2-.77-2.88h.04s.5,1,1.46,2.88h3.49c-.88-2.26-1.54-3.99-2.03-5.22-.57-1.57-1.11-2.99-1.57-4.3h-4.72ZM17.96,52.69c.12.08.27.27.46.61.23.31.35.5.35.54,0,.08-.08.35-.27.81-.12.35-.04.84.15,1.5h-.12c-.15-.46-.27-1.04-.35-1.73l-.23-1.73h0Z"/>
    <path class="cls-4" d="M38.65,50.16h-1.27c.27.58.46,1.15.58,1.65-.38-.61-.73-1.15-1-1.65h-2s.04.12.08.19c-.23-.04-.46-.08-.65-.19h-5.49c1.5,3.53,2.53,6.56,3.11,9.06-.04.04-.31,0-.81-.19-.27-1.84-1.07-4.34-2.42-7.52-.19-.46-.38-.92-.54-1.34h-4.57c1.38,2.96,2.76,6.1,4.18,9.52h1.23c-.04-.15-.08-.31-.12-.5.08.04.19.23.31.5h14.97c-.35-.81-.61-1.34-.73-1.61-1.3-2.8-2.53-5.45-3.72-7.91h-1.15ZM34.27,51.16v-.04c.65,1,1.23,2.07,1.77,3.26.69,1.5,1.07,2.69,1.15,3.49-.88-.92-1.88-3.15-2.92-6.72h0ZM30.74,50.97v-.12c.96,1.65,1.5,2.65,1.61,2.99l-.15.08c-.61-.96-1.11-1.92-1.46-2.96h0ZM28.82,58.64c-.11-.42-.31-1-.61-1.73-.38-.88-.61-1.46-.73-1.73.31.5.81,1.46,1.53,2.88,0,.46-.04.65-.11.58h-.08ZM33.12,57.15l-.11-.08v-1c.34.27.61.62.81,1-.08-.04-.31,0-.69.08h0Z"/>
    <path class="cls-4" d="M40.91,62.67c0-.27.04-.42.08-.42.04-.04.08-.04.08-.08l.15-.08c.38.77,1.19,2.3,2.38,4.57.46.96.81,1.8,1.07,2.57h1.31c-.19-.42-.35-.88-.5-1.34-.96-2.96-1.54-4.61-1.69-4.95.92,1,1.77,2.61,2.49,4.8.15.42.31.92.46,1.5h1.84c-2.04-4.57-3.49-7.75-4.34-9.56h-14.97c.04.08.08.15.12.27.19.5.27.88.27,1.15h-.08c-.19-.42-.38-.92-.5-1.42h-1.23c.65,1.65,1.34,3.34,2,5.1-.88-1.46-1.77-3.15-2.65-5.1h-1.34c.31.88.46,1.42.46,1.61,0,.46-.11.61-.31.42h-.35c-.27-.73-.54-1.38-.81-2.03h-3.49c.5.96,1.11,2.19,1.84,3.65,1.23,2.42,1.92,4.41,2.11,5.91h2.65c-.5-1.07-1-2.26-1.42-3.61v-.08c.57.77,1.11,2,1.57,3.68h3.95c-.04-.11-.08-.19-.11-.31-.69-2.34-1.11-4.22-1.31-5.6v-.08c.19.38.69,1.92,1.57,4.57.15.5.31.96.46,1.42h2.57c-1.77-3.42-2.92-6.18-3.49-8.29v-.04c.96,1.04,1.77,2.61,2.42,4.64.54,1.69.96,2.92,1.23,3.68h1.61c-.08-.31-.11-.58-.15-.81v-.11c.11.23.27.54.46.92h6.45c-.27-.54-.58-1.15-.92-1.8-1.3-2.57-1.96-4.15-1.96-4.76h0Z"/>
    <path class="cls-4" d="M59.14,69.24h-1.73c.46,1.15.77,2.11.88,2.84-.42-.5-.92-1.42-1.42-2.84h-3.8c.04.19.12.42.19.61h-.12c-.12-.19-.19-.42-.27-.61h-1.81c.31.96.65,2.03,1.04,3.3h-.15c-.77-.96-1.38-2.07-1.88-3.3h-1.15c.34.88.65,1.8,1,2.69h-.12c-.42-.96-.84-1.84-1.23-2.69h-1.84c.31,1.04.65,2.26,1.07,3.76l-.04-.08c-.65-.96-1.23-2.19-1.8-3.68h-1.31c.35.96.54,1.77.58,2.42-.27-.35-.77-1.15-1.46-2.42h-6.45c.08.19.15.38.27.61.39.88.58,1.5.61,1.84-.27-.12-.54-.61-.84-1.46-.15-.38-.27-.73-.35-1h-1.61c.15.5.27.77.31.88-.15-.31-.31-.61-.46-.88h-2.57c.69,2.26,1.04,3.76,1.04,4.41v.35h1.04c0-1,0-1.57-.04-1.69-.19-.65-.46-1.61-.81-2.8h.08c.42.58.96,1.5,1.61,2.84.31.65.61,1.19.88,1.65h1.34v-.19s.04.11.08.19h1.88s0-.12-.04-.19c.04.04.08.11.15.19h1.19c-.35-.42-.5-.73-.5-.88,0-.38-.15-1.34-.46-2.88v-.08c.38.61.77,1.46,1.15,2.49.19.5.35.92.46,1.34h1.5c-.81-1.42-1.27-2.53-1.31-3.38.31-.19.46-.23.5-.19.15.73.46,1.92.92,3.57h1.19c-.31-.96-.54-1.73-.65-2.23h.12c.27.42.54,1,.88,1.77.08.15.15.31.27.46h1.57l-.04-.81c.12.19.23.46.42.81h2.15c-.15-.54-.31-1.15-.5-1.8.38.69.73,1.3,1.04,1.8h3.88c-.23-.65-.5-1.42-.77-2.3h.08c.15.31.5,1.07,1,2.3h1.65c-.04-.12-.08-.23-.11-.35-.54-1.69-.84-2.73-.92-3.15.19.35.58,1.27,1.23,2.73.12.27.27.54.38.77h3.49c-.12-.58-.19-.88-.19-.96.08.19.27.54.58.96h2.15c-.04-.12-.04-.27-.08-.42l-.34-1.92c.42.88.8,1.69,1.15,2.34h3.07c-.15-1.04-.42-2.61-.77-4.76h-1.15c0,.08,0,.15.04.27-.04-.12-.08-.19-.11-.27h-4.26c.65,1.88,1.08,3.34,1.27,4.38-.42-.81-1.08-2.26-1.92-4.38h0ZM63.75,70.73c0-.27.08-.5.23-.65.12-.19.19-.27.19-.31.15.31.27.81.38,1.46.08.38.15.96.27,1.77-.12-.11-.34-.46-.65-1.11-.27-.65-.42-1.04-.42-1.15h0Z"/>
    <path class="cls-4" d="M28.17,69.66c-.08-.15-.15-.31-.19-.42h-2.65c.04.27.04.5.04.73l-.08-.04c-.11-.23-.23-.46-.35-.69h-4.41c.23.5.46,1,.69,1.57.58,1.3,1.07,2.38,1.5,3.19h2.03c-.11-.73-.46-1.84-.96-3.3.5,1.27,1,2.38,1.42,3.3h5.26c-.12-.35-.15-.61-.15-.73.12.23.27.46.42.73h2.76c-.61-2.03-1.07-3.61-1.42-4.76h-3.95c.04.19.08.35.12.54l-.08-.12h0ZM22.99,72.08v-.04c.27.42.42.81.54,1.15l-.54-1.11h0ZM28.9,72.65v-.04c.23.11.35.46.35.96-.23-.31-.35-.61-.35-.92h0Z"/>
    <path class="cls-4" d="M43.25,74h-1.5c.11.5.19.96.23,1.3-.08-.19-.35-.58-.81-1.19-.04-.04-.04-.08-.08-.12h-1.19c.23.38.65,1.07,1.27,2.11.73,1.07,1.3,1.61,1.65,1.61.27,0,.42-.04.54-.15.04-.04.08-.11.12-.15-.04-.61-.08-1-.08-1.11.08.15.23.61.5,1.38.31.73.69,1.07,1.11,1.07.27,0,.42-.04.46-.12.04-.04.04-.11.04-.15-.11-.92-.34-2.07-.69-3.45-.12-.35-.19-.69-.27-1.04h-1.19s0,.12.04.15l-.11-.08s-.04-.04-.04-.08h0Z"/>
    <path class="cls-4" d="M39.8,74h-1.88c.19.46.38.96.65,1.46.5,1,.88,1.5,1.07,1.5.42,0,.54-.04.35-.11.12-.73.08-1.69-.19-2.84h0Z"/>
    <path class="cls-4" d="M37.84,74.88v-.88h-1.34c.27.46.58.84.85,1.15.19-.08.38-.15.5-.27h0Z"/>
    <path class="cls-4" d="M34.77,74h-1.04l-.04.61c-.04-.19-.11-.42-.19-.61h-2.76c.27.5.58,1.04.92,1.69.5.65,1.34,1,2.46,1,.46,0,.65-.04.58-.12.04-.5.08-1.27.08-2.23v-.35h0Z"/>
    <path class="cls-4" d="M30.51,74.11s0-.08-.04-.12h-5.26c1.04,2.3,1.77,3.45,2.26,3.45,1.11,0,1.65-.38,1.65-1.19l-.04-.96c.11.12.23.35.38.61.15.19.31.31.42.31.27,0,.46-.04.54-.12.08-.11.11-.15.15-.15.04-.58.08-.88.08-.92,0-.27-.04-.58-.15-.92h0Z"/>
    <path class="cls-4" d="M24.79,74.57c0-.15,0-.35-.04-.58h-2.03c.65,1.3,1.15,1.96,1.42,1.96.46,0,.65-.04.58-.15.04-.38.08-.81.08-1.23h0Z"/>
    <path class="cls-4" d="M64.17,75.95c.27-.15.46-.35.58-.61.04.08.08.35.12.81,0,.23.23.34.73.34.27,0,.46-.04.5-.08.04-.04.04-.08.08-.12.04-.23.08-.54.08-.96,0-.08-.08-.54-.19-1.34h-3.07c.46.88.84,1.54,1.19,1.96h0Z"/>
    <path class="cls-4" d="M62.25,74h-2.15c.19.27.38.54.61.88.61.88.96,1.34,1.04,1.34.42,0,.58-.04.46-.15.12-.27.19-.57.19-.96,0-.23-.04-.61-.15-1.11h0Z"/>
    <path class="cls-4" d="M59.72,74.07v-.08h-3.49c.38.77.61,1.15.69,1.15.34,0,.61.31.77.92.15.58.34.88.61.88s.42-.04.46-.08c.04-.04.04-.08.04-.12v-.88c.54.27.88.31,1,.12.04-.12.08-.38.08-.84,0-.27-.04-.61-.15-1.07h0Z"/>
    <path class="cls-4" d="M55.65,74h-1.65c.12.27.23.54.35.84.65,1.57,1.11,2.38,1.38,2.38.42,0,.58-.08.38-.19.11-.27.15-.54.15-.84,0-.12-.19-.84-.61-2.19h0Z"/>
    <path class="cls-4" d="M51.66,74.26h.08c.31.88.65,1.65,1.07,2.38.58,1.04,1.04,1.57,1.42,1.57.46,0,.61-.08.42-.19l.12-.46c0-.19-.35-1.38-1.07-3.57h-3.88c.73,1.3,1.23,1.96,1.46,1.96.27,0,.46-.08.54-.19.04-.08.08-.19.12-.35-.19-.58-.27-.96-.27-1.15h0Z"/>
    <path class="cls-4" d="M49.28,74h-2.15c.23.54.54,1.27.88,2.19.61,1.34,1.15,2.03,1.65,2.03.42,0,.58-.08.38-.19l.08-.46c0-.19-.27-1.38-.85-3.57h0Z"/>
    <path class="cls-4" d="M46.78,74.92l-.04-.92h-1.57c.31.46.69.84,1.11,1.15.19,0,.34-.08.5-.23h0Z"/>
    <path class="cls-4" d="M22.11,63.36c-.58-1.34-1.07-2.57-1.46-3.68h-2.65c.73,2.15,1.31,3.76,1.73,4.8-.04-.04-.46-.81-1.34-2.38-.57-1.04-1.04-1.54-1.38-1.54-.27,0-.42.04-.5.08,0,.04-.04.08-.08.08-.04.35-.08.77-.08,1.34,0,1.19.69,3.57,2.11,7.1t.04.08h1.42c-1.46-3.76-2.3-5.87-2.49-6.37.61.96,1.65,3.07,3.11,6.37h4.41c-1.42-2.8-2.34-4.76-2.84-5.87h0ZM19.42,59.87h.08c.11.19.88,2.11,2.3,5.76-1.5-3.49-2.26-5.41-2.38-5.76h0ZM20.57,66.4c.08.04.27.38.54.96.27.57.42.92.42,1.07h-.08c-.46-1.04-.77-1.69-.88-1.96v-.08h0Z"/>
    <path class="cls-4" d="M15.43,68.12l-.12.08c0,.19.08.54.19,1.04h2.15c-.65-.81-1.23-1.23-1.69-1.23-.27,0-.46.04-.54.11h0Z"/>
    <path class="cls-4" d="M17.65,69.24h-2.15c.11.46.34,1.07.61,1.8.5,1.46.77,2.19.77,2.23,0,.23-.08.35-.27.31-.19-.04-.27.08-.27.27s.38.96,1.15,2.38c.84,1.5,1.46,2.26,1.8,2.26.42,0,.61-.04.54-.12.04-.23.08-.46.08-.65,0-.08-.38-1.07-1.15-2.96-.81-1.96-1.38-3.3-1.73-4.03.12.12.81,1.46,2.07,4.03.96,1.96,1.8,2.96,2.49,2.96.27,0,.42,0,.46-.04t-.04-.08c.15-.19.23-.58.23-1.11,0-.65-.73-2.95-2.19-6.83-.04-.15-.11-.31-.15-.42h-1.42c.73,1.8,1.57,3.88,2.53,6.18h-.08c-.69-1.69-1.42-3.22-2.23-4.57-.38-.65-.73-1.19-1.07-1.61h0Z"/>
    <path class="cls-4" d="M64.9,61.14c-.12-.54-.19-1.04-.27-1.46h-2.88c.31.88.58,1.84.84,2.92.35,1.5.88,3.68,1.54,6.64h1.15c-.12-.58-.19-1.15-.31-1.77.5-.61.73-1,.73-1.19,0-.65-.27-2.34-.81-5.14h0Z"/>
    <path class="cls-4" d="M56.72,61.18c.11-.04.23-.04.34-.08.23.92.92,2.99,2.07,6.22.23.65.46,1.3.65,1.92h4.26c-1.15-2.65-2.15-5.83-3.03-9.56h-16.16c1.54,3.3,2.88,6.49,4.07,9.56h1.15c-.27-.65-.54-1.34-.73-2.07-.5-2.34-1-4.15-1.42-5.37.8,1.15,1.57,2.88,2.38,5.14.23.65.5,1.42.77,2.3h1.81c-1.65-3.65-2.73-6.22-3.23-7.79.12-.08.31-.15.54-.23.46,1,1,2.42,1.61,4.22.31.88.73,2.15,1.27,3.8h3.8c-.04-.08-.04-.15-.08-.23-.54-1.73-.92-2.88-1.19-3.53v-.12c.77,1.46,1.38,2.76,1.8,3.88h1.73c-.27-.65-.58-1.38-.88-2.15-1.27-3.26-1.88-5.03-1.88-5.37,0-.27.12-.46.35-.54h0ZM59.53,61.98v-.08c.5.77,1.11,2.3,1.84,4.64-.88-1.53-1.5-3.07-1.84-4.57h0Z"/>
  </g>
  <g id="Layer_4" data-name="Layer 4">
    <path class="cls-2" d="M73.84,8.79c1.19.42,2,1.23,2.42,2.42.27.73.5,1.8.73,3.22.04.15.19,1.88.42,5.14.23,3.38.34,5.53.34,6.41,0,.23,0,3.61.04,10.17-.04,2.15-.04,4.14-.08,5.95h.61c.04-1.77.08-3.68.12-5.72.19-6.75.31-10.25.31-10.48,0-7.25-.54-12.28-1.65-15.01-1.07-2.69-3.19-4.3-6.29-4.84-1.23-.19-4.11-.27-8.6-.15h-.31c-1.23.04-2.57.08-4.07.12-7.87.27-15.12.08-21.8-.58-2.26.04-4.49.15-6.68.31-1.77.12-2.76.19-2.99.19-3.3-.19-5.8-.35-7.45-.38-2.92-.08-5.22.23-6.87.88-4.64,1.92-6.52,7.75-5.64,17.46.12,1.07-.11,4.26-.69,9.56-.38,3.84-.65,6.72-.77,8.64h1.34c.08-.42.11-.73.11-.84,0-1.42.15-4.57.46-9.44.35-4.8.5-7.45.54-7.94-.19-4.22-.04-7.6.46-10.13.96-4.68,3.49-7.02,7.56-7.02h4.26c0,2.76-.15,4.84-.5,6.22-.35,1.42-.54,2.96-.54,4.64,0,3.22.27,5.68.77,7.33,1.34,4.34,4.18,6.49,8.44,6.49,2.23,0,5.8.04,10.67.15,4.41.08,7.98,0,10.71-.23,7.75-.61,12.05-2.61,12.9-5.99.12-.54.35-2.07.61-4.57.27-2.57.42-4.14.42-4.72-.31-4.03-.5-7.14-.54-9.33,4.8.42,8.52,1.11,11.21,2.07h0ZM47.05,6.14c5.53,0,10.32.15,14.43.5.42,2.23.65,5.37.65,9.48,0,3.03-.27,5.72-.77,8.06-.38,1.65-1.07,2.99-2.11,4.03-.65.65-2.42,1-5.22,1s-7.79.19-15.08.54c-7.33.35-11.02.54-11.09.54-3.11,0-5.33-1.04-6.6-3.15-.77-1.23-1.15-2.65-1.15-4.3-.27-3.07-.42-4.84-.42-5.26,0-2.03.23-3.91.65-5.64.42-1.77.61-3.07.61-3.88l.27-1.23v-.15c6.26-.08,14.89-.27,25.83-.54h0Z"/>
    <path class="cls-2" d="M51.89,41.91c3.65,0,5.83.04,6.56.12.23.04.46.04.69.08h4.03c-.27-.15-.5-.27-.77-.38-2.07-1.27-8.06-1.69-17.96-1.19-10.13.77-15.89,1.15-17.27,1.19-2.76.11-4.91.23-6.41.38h25.75c2.57-.11,4.33-.19,5.37-.19h0Z"/>
    <path class="cls-2" d="M26.83,42.79c5.03-.04,9.94-.15,14.74-.42,1.88-.11,3.53-.19,4.95-.27h-25.75c-1.34.15-2.19.31-2.57.5-.35.19-.54.5-.61.92-.12.69-.27,1.19-.42,1.46-.54,1.04-.92,2.49-1.15,4.45-.31,2.42-.54,3.88-.69,4.37,0,3.95-.08,9.9-.23,17.77,0,1.69.04,2.84.08,3.45.04.65.15,1.27.31,1.84t-.08-.04c-.65-.19-1.61-.54-2.84-1.04-1.15-.42-1.84-.73-2.07-.84-1.19-.73-1.96-1.61-2.3-2.69-.08-.31-.15-1.27-.27-2.92-.11-1.73-.46-3.72-1-6.03-.42-1.96-.65-3.76-.65-5.37l-.38-13.55c0-.23.08-.77.27-1.57.04-.27.12-.54.15-.73h-1.34c-.08.96-.12,1.65-.12,2.15l.5,12.66c0,1.57.19,3.42.61,5.53.5,2.49.81,4.53.92,6.18.08,1.31.19,2.26.31,2.92.19,1.04.5,2,1,2.84.31.54.61,1.15.96,1.88.31.5.84.84,1.65,1.07.69.19,2.38.38,5.03.58.08.19.15.38.27.58.19-.12.34-.27.46-.5,1.11.04,2.34.12,3.76.23,1.34-.12,4.76-.19,10.21-.15,4.11.04,10.48.08,19.15.15,2.5,0,6.87.19,13.13.54,4.03,0,6.99-.31,8.9-.88,2.19-.65,3.76-1.88,4.72-3.61.92-1.65,1.5-4.26,1.73-7.75.19-2.57.23-7.02.12-13.36-.04-2.69,0-6.37.08-11.05h-.61c-.12,4.3-.27,7.71-.5,10.29-.27,2.96-.27,6.72-.08,11.32.15,3.88.08,6.52-.23,7.87-.5,2.11-1.69,3.65-3.65,4.57-1.38.61-3.3,1.04-5.76,1.27v-.77c.38-6.18.46-11.94.23-17.35-.42-9.71-1.92-15.43-4.57-17.19h-4.03c1.69.23,2.99.73,3.95,1.5,2.46,2,3.42,7.06,2.88,15.2-.15,2.42-.11,6.06.12,10.9.11,2.42.23,4.72.38,6.95,0,.35,0,.61.04.84-1.15.08-2.38.12-3.72.12-1.8-.12-3.72-.19-5.83-.31-4.26-.23-7.87-.35-10.9-.35l3.61.12c0,.27-3.26.38-9.75.35-8.79-.12-15.54-.19-20.23-.19-.65,0-1.42-.04-2.3-.12-.31-.04-.58-.04-.81-.08-.35-3.22-.5-5.03-.5-5.45.34-6.52.42-11.4.27-14.58-.15-4.03.31-7.33,1.34-9.94,1.69-4.26,4.72-5.68,9.13-4.26h0Z"/>
    <path class="cls-2" d="M50.62,15.97c-.04-.54-.08-1.19-.19-1.92-.19-1.04-.38-1.8-.58-2.3-.27.19-.42.54-.46,1h-.96c-.38-.35-.65-.35-.77,0-1.53.04-2.69.04-3.42.08-.19-.15-.46-.23-.73-.23v.27c-.27.04-.38.04-.42.08-.12.11-.15.35-.15.77.08.08.12.15.12.23.04.04.15.08.42.08h.15c.04.19.08.38.12.65.19.81.27,1.3.27,1.54,0,.42-.08,1.38-.23,2.84-.04.04-.04.12-.04.15-.04.42-.12.84-.15,1.34-.08.65.12,2.03.54,4.11h-.08c-.04.19-.04.38-.04.5,0,.23.04.38.08.46.04.12.15.23.31.31.04.12.04.27.08.38.19-.04.35-.12.54-.27.81,0,1.61-.23,2.5-.69.23-.11.5-.23.8-.31.46.5.81.77,1.08.77s.46,0,.5-.04c.04-.04.08-.08.12-.15l.08-.34c.19-.04.27-.08.23-.19,0-.04,0-.11.04-.15.11,0,.27,0,.42.04.08.04.11-.15.11-.58,0-.27,0-.42-.04-.42-.08-.04-.11-.04-.11-.08h-.35v-.35c-.12-1.54-.15-2.69-.08-3.45.11-.84.19-1.61.27-2.3l.23-.12c.04-.27.08-.54.08-.81,0-.19-.08-.5-.27-.88h0ZM46.82,13.89c.23.42.58,1.04,1.07,1.84.61,1.04,1.11,1.77,1.46,2.11-.04.5-.04.96-.08,1.38v.27c-.38-.65-.84-1.5-1.34-2.53-.65-1.34-1.27-2.38-1.77-3.03.19-.04.42-.04.65-.04h0ZM49.39,13.93s-.08-.11-.12-.15h.12v.15h0ZM44.87,13.97c.19,0,.46,0,.73-.04-.04.08-.08.19-.08.35.08.12.15.27.23.38-.23-.12-.46-.15-.65-.15l-.08.27v-.08c-.04-.27-.12-.54-.15-.73h0ZM45.17,15.28c-.12.12-.15.31-.15.54v-1c0,.08.04.23.15.46h0ZM45.02,16.04v-.11c0,.15.65,1.23,1.96,3.18,1,1.54,1.73,2.49,2.19,2.92-.04.27-.04.54-.04.73,0,.38,0,.73.04,1.07h-.12c-.27-.35-.58-.69-.88-1.11.11-.04.19-.08.27-.15.08-.08.12-.19.15-.35-.96-.73-1.73-1.8-2.26-3.19-.73-1.8-1.15-2.8-1.31-2.99h0ZM45.02,23.6c.15.23.31.42.46.61-.19.04-.35.04-.46.08v-.69h0Z"/>
  </g>
</svg>